# Blender 5.0.1
# www.blender.org
mtllib WE6_brake_shoes.mtl
o BrakeShoe.004
g WE6_brake_shoes
v 0.789478 0.347275 -2.011989
v 0.789478 0.773968 -1.985192
v 0.710000 0.347275 -2.011989
v 0.710000 0.773968 -1.985192
v 0.789478 0.672398 -2.023423
v 0.789478 0.452830 -2.037213
v 0.710000 0.672398 -2.023423
v 0.710000 0.452830 -2.037213
v 0.789478 0.455337 -2.077134
v 0.789478 0.349782 -2.051911
v 0.710000 0.349782 -2.051911
v 0.789478 0.776475 -2.025113
v 0.710000 0.776475 -2.025113
v 0.710000 0.455337 -2.077134
v 0.789478 0.674905 -2.063344
v 0.710000 0.674905 -2.063344
v 0.710000 0.581471 -2.038089
v 0.710000 0.544877 -2.040387
v 0.710000 0.583979 -2.078010
v 0.710000 0.547384 -2.080308
v 0.789478 0.581471 -2.038089
v 0.789478 0.544877 -2.040387
v 0.789478 0.583979 -2.078010
v 0.789478 0.547384 -2.080308
v 0.794998 0.581471 -2.038089
v 0.794998 0.563286 -2.041022
v 0.704480 0.581471 -2.038089
v 0.704480 0.563286 -2.041022
v 0.794998 0.583979 -2.078010
v 0.704479 0.583979 -2.078010
v 0.704480 0.544877 -2.040387
v 0.704479 0.547384 -2.080308
v 0.794998 0.544877 -2.040387
v 0.794998 0.547384 -2.080308
vn -0.0000 -0.3523 0.9359
vn -0.0000 -0.2570 0.9664
vn -0.0000 0.1341 0.9910
vn -0.0000 0.2324 0.9726
vn -0.0000 -0.0627 0.9980
vn -0.0000 -0.1592 0.9872
vn -0.0000 0.2570 -0.9664
vn -0.0000 0.3523 -0.9359
vn -0.0000 -0.2324 -0.9726
vn -0.0000 -0.1341 -0.9910
vn -0.0000 -0.9980 -0.0627
vn -0.0000 0.0950 -0.9955
vn -0.0000 0.9980 0.0627
vn -1.0000 -0.0000 -0.0000
vn 1.0000 -0.0000 -0.0000
vn -0.0000 0.0303 -0.9995
vn -0.0000 0.0345 0.9994
vn -0.0000 0.0627 -0.9980
vt 0.068644 0.235558
vt 0.057192 0.219921
vt 0.068644 0.219921
vt 0.068644 0.188073
vt 0.057192 0.172436
vt 0.068644 0.172436
vt 0.069439 0.203997
vt 0.068644 0.206651
vt 0.057192 0.206651
vt 0.057192 0.256959
vt 0.068644 0.241322
vt 0.068644 0.256959
vt 0.057192 0.304419
vt 0.068644 0.288782
vt 0.068644 0.304419
vt 0.068644 0.310182
vt 0.057192 0.310182
vt 0.057192 0.270229
vt 0.068644 0.270229
vt 0.057192 0.235558
vt 0.055109 0.289515
vt 0.044765 0.304466
vt 0.049346 0.289515
vt 0.056397 0.269433
vt 0.049346 0.256226
vt 0.050529 0.241275
vt 0.075307 0.241275
vt 0.076490 0.256226
vt 0.069439 0.269433
vt 0.075202 0.269433
vt 0.069439 0.270229
vt 0.075202 0.270229
vt 0.074945 0.272870
vt 0.069439 0.275512
vt 0.068644 0.275512
vt 0.057192 0.288782
vt 0.057192 0.275512
vt 0.056397 0.275512
vt 0.050891 0.272870
vt 0.050633 0.270229
vt 0.068644 0.201343
vt 0.057192 0.201343
vt 0.050633 0.269433
vt 0.056397 0.270229
vt 0.076490 0.289515
vt 0.075307 0.304466
vt 0.070727 0.289515
vt 0.069439 0.276307
vt 0.075202 0.275512
vt 0.075202 0.276307
vt 0.050633 0.276307
vt 0.056397 0.276307
vt 0.057192 0.188073
vt 0.056397 0.206651
vt 0.056397 0.203997
vt 0.069439 0.206651
vt 0.057192 0.241322
vt 0.050529 0.304466
vt 0.055109 0.256226
vt 0.044765 0.241275
vt 0.070727 0.256226
vt 0.081070 0.241275
vt 0.050633 0.275512
vt 0.069439 0.201343
vt 0.056397 0.201343
vt 0.081070 0.304466
s 1
usemtl Bogie
f 2/1/1 7/2/2 5/3/2
f 6/4/3 3/5/4 1/6/4
f 26/7/5 21/8/6 17/9/6
f 16/10/7 12/11/8 15/12/7
f 11/13/9 9/14/10 10/15/9
f 11/13/11 1/16/11 3/17/11
f 19/18/12 15/12/7 23/19/12
f 12/11/13 4/20/13 2/1/13
f 14/21/14 3/22/14 8/23/14
f 19/24/14 7/25/14 13/26/14
f 12/27/15 5/28/15 23/29/15
f 21/30/13 29/31/13 23/29/13
f 25/32/15 26/33/15 34/34/15
f 24/35/16 14/36/10 20/37/16
f 32/38/14 28/39/14 27/40/14
f 22/41/17 26/7/5 18/42/17
f 17/43/13 30/44/13 27/40/13
f 6/45/15 10/46/15 9/47/15
f 24/48/11 33/49/11 22/50/11
f 18/51/11 32/38/11 20/52/11
f 24/35/16 20/37/16 19/18/12
f 2/1/1 4/20/1 7/2/2
f 6/4/3 8/53/3 3/5/4
f 27/54/6 28/55/5 26/7/5
f 26/7/5 25/56/6 21/8/6
f 21/8/6 5/3/2 7/2/2
f 17/9/6 27/54/6 26/7/5
f 21/8/6 7/2/2 17/9/6
f 16/10/7 13/57/8 12/11/8
f 11/13/9 14/36/10 9/14/10
f 11/13/11 10/15/11 1/16/11
f 19/18/12 16/10/7 15/12/7
f 12/11/13 13/57/13 4/20/13
f 18/51/14 20/52/14 14/21/14
f 14/21/14 11/58/14 3/22/14
f 8/23/14 18/51/14 14/21/14
f 13/26/14 16/59/14 19/24/14
f 19/24/14 17/43/14 7/25/14
f 7/25/14 4/60/14 13/26/14
f 23/29/15 15/61/15 12/27/15
f 12/27/15 2/62/15 5/28/15
f 5/28/15 21/30/15 23/29/15
f 21/30/13 25/32/13 29/31/13
f 34/34/15 29/31/15 25/32/15
f 26/33/15 33/49/15 34/34/15
f 24/35/16 9/14/10 14/36/10
f 27/40/14 30/44/14 32/38/14
f 32/38/14 31/63/14 28/39/14
f 22/41/17 33/64/17 26/7/5
f 26/7/5 28/55/5 31/65/17
f 18/42/17 8/53/3 6/4/3
f 26/7/5 31/65/17 18/42/17
f 18/42/17 6/4/3 22/41/17
f 17/43/13 19/24/13 30/44/13
f 9/47/15 24/48/15 22/50/15
f 6/45/15 1/66/15 10/46/15
f 9/47/15 22/50/15 6/45/15
f 24/48/11 34/34/11 33/49/11
f 18/51/11 31/63/11 32/38/11
f 23/19/12 29/31/18 34/34/18
f 23/19/12 34/34/18 24/35/16
f 32/38/18 30/44/18 19/18/12
f 19/18/12 23/19/12 24/35/16
f 20/37/16 32/38/18 19/18/12
o BrakeShoe.005
v 0.709968 0.345026 -0.925610
v 0.709968 0.772505 -0.918809
v 0.789446 0.345026 -0.925610
v 0.789446 0.772505 -0.918809
v 0.709968 0.668246 -0.888674
v 0.709968 0.448274 -0.892173
v 0.789446 0.668246 -0.888674
v 0.789446 0.448274 -0.892173
v 0.709968 0.447638 -0.852178
v 0.709968 0.344390 -0.885615
v 0.789446 0.344390 -0.885615
v 0.709968 0.771869 -0.878814
v 0.789446 0.771869 -0.878814
v 0.789446 0.447638 -0.852179
v 0.709968 0.667610 -0.848679
v 0.789446 0.667610 -0.848679
v 0.789446 0.576449 -0.881196
v 0.789446 0.539787 -0.881779
v 0.789446 0.575812 -0.841201
v 0.789446 0.539150 -0.841784
v 0.709968 0.576449 -0.881195
v 0.709968 0.539787 -0.881779
v 0.709968 0.575812 -0.841201
v 0.709968 0.539150 -0.841784
v 0.704448 0.576449 -0.881195
v 0.704448 0.558089 -0.879700
v 0.794967 0.576449 -0.881196
v 0.794967 0.558089 -0.879700
v 0.704448 0.575812 -0.841201
v 0.794967 0.575812 -0.841201
v 0.794967 0.539787 -0.881779
v 0.794967 0.539150 -0.841784
v 0.704448 0.539787 -0.881779
v 0.704448 0.539150 -0.841784
vn -0.0000 -0.2777 -0.9607
vn -0.0000 -0.1803 -0.9836
vn -0.0000 0.2115 -0.9774
vn -0.0000 0.3081 -0.9514
vn -0.0000 0.0159 -0.9999
vn -0.0000 -0.0812 -0.9967
vn -0.0000 0.1803 0.9836
vn -0.0000 0.2777 0.9607
vn -0.0000 -0.3081 0.9514
vn -0.0000 -0.2115 0.9774
vn -0.0000 -0.9999 -0.0159
vn -0.0000 0.0165 0.9999
vn -0.0000 0.9999 0.0159
vn 1.0000 -0.0000 -0.0000
vn -1.0000 -0.0000 -0.0000
vn -0.0000 -0.0483 0.9988
vn -0.0000 0.1129 -0.9936
vn -0.0000 -0.0159 0.9999
vt 0.068644 0.235558
vt 0.057192 0.219921
vt 0.068644 0.219921
vt 0.068644 0.188073
vt 0.057192 0.172436
vt 0.068644 0.172436
vt 0.069439 0.203997
vt 0.068644 0.206651
vt 0.057192 0.206651
vt 0.057192 0.256959
vt 0.068644 0.241322
vt 0.068644 0.256959
vt 0.057192 0.304419
vt 0.068644 0.288782
vt 0.068644 0.304419
vt 0.068644 0.310182
vt 0.057192 0.310182
vt 0.057192 0.270229
vt 0.068644 0.270229
vt 0.057192 0.235558
vt 0.055109 0.289515
vt 0.044765 0.304466
vt 0.049346 0.289515
vt 0.056397 0.269433
vt 0.049346 0.256226
vt 0.050529 0.241275
vt 0.075307 0.241275
vt 0.076490 0.256226
vt 0.069439 0.269433
vt 0.075202 0.269433
vt 0.069439 0.270229
vt 0.075202 0.270229
vt 0.074945 0.272870
vt 0.069439 0.275512
vt 0.068644 0.275512
vt 0.057192 0.288782
vt 0.057192 0.275512
vt 0.056397 0.275512
vt 0.050891 0.272870
vt 0.050633 0.270229
vt 0.068644 0.201343
vt 0.057192 0.201343
vt 0.050633 0.269433
vt 0.056397 0.270229
vt 0.076490 0.289515
vt 0.075307 0.304466
vt 0.070727 0.289515
vt 0.069439 0.276307
vt 0.075202 0.275512
vt 0.075202 0.276307
vt 0.050633 0.276307
vt 0.056397 0.276307
vt 0.057192 0.188073
vt 0.056397 0.206651
vt 0.056397 0.203997
vt 0.069439 0.206651
vt 0.057192 0.241322
vt 0.050529 0.304466
vt 0.055109 0.256226
vt 0.044765 0.241275
vt 0.070727 0.256226
vt 0.081070 0.241275
vt 0.050633 0.275512
vt 0.069439 0.201343
vt 0.056397 0.201343
vt 0.081070 0.304466
s 1
usemtl Bogie
f 36/67/19 41/68/20 39/69/20
f 40/70/21 37/71/22 35/72/22
f 60/73/23 55/74/24 51/75/24
f 50/76/25 46/77/26 49/78/25
f 45/79/27 43/80/28 44/81/27
f 45/79/29 35/82/29 37/83/29
f 53/84/30 49/78/25 57/85/30
f 46/77/31 38/86/31 36/67/31
f 48/87/32 37/88/32 42/89/32
f 53/90/32 41/91/32 47/92/32
f 46/93/33 39/94/33 57/95/33
f 55/96/31 63/97/31 57/95/31
f 59/98/33 60/99/33 68/100/33
f 58/101/34 48/102/28 54/103/34
f 66/104/32 62/105/32 61/106/32
f 56/107/35 60/73/23 52/108/35
f 51/109/31 64/110/31 61/106/31
f 40/111/33 44/112/33 43/113/33
f 58/114/29 67/115/29 56/116/29
f 52/117/29 66/104/29 54/118/29
f 58/101/34 54/103/34 53/84/30
f 36/67/19 38/86/19 41/68/20
f 40/70/21 42/119/21 37/71/22
f 61/120/24 62/121/23 60/73/23
f 60/73/23 59/122/24 55/74/24
f 55/74/24 39/69/20 41/68/20
f 51/75/24 61/120/24 60/73/23
f 55/74/24 41/68/20 51/75/24
f 50/76/25 47/123/26 46/77/26
f 45/79/27 48/102/28 43/80/28
f 45/79/29 44/81/29 35/82/29
f 53/84/30 50/76/25 49/78/25
f 46/77/31 47/123/31 38/86/31
f 52/117/32 54/118/32 48/87/32
f 48/87/32 45/124/32 37/88/32
f 42/89/32 52/117/32 48/87/32
f 47/92/32 50/125/32 53/90/32
f 53/90/32 51/109/32 41/91/32
f 41/91/32 38/126/32 47/92/32
f 57/95/33 49/127/33 46/93/33
f 46/93/33 36/128/33 39/94/33
f 39/94/33 55/96/33 57/95/33
f 55/96/31 59/98/31 63/97/31
f 68/100/33 63/97/33 59/98/33
f 60/99/33 67/115/33 68/100/33
f 58/101/34 43/80/28 48/102/28
f 61/106/32 64/110/32 66/104/32
f 66/104/32 65/129/32 62/105/32
f 56/107/35 67/130/35 60/73/23
f 60/73/23 62/121/23 65/131/35
f 52/108/35 42/119/21 40/70/21
f 60/73/23 65/131/35 52/108/35
f 52/108/35 40/70/21 56/107/35
f 51/109/31 53/90/31 64/110/31
f 43/113/33 58/114/33 56/116/33
f 40/111/33 35/132/33 44/112/33
f 43/113/33 56/116/33 40/111/33
f 58/114/29 68/100/29 67/115/29
f 52/117/29 65/129/29 66/104/29
f 57/85/30 63/97/36 68/100/36
f 57/85/30 68/100/36 58/101/34
f 66/104/36 64/110/36 53/84/30
f 53/84/30 57/85/30 58/101/34
f 54/103/34 66/104/36 53/84/30
o BrakeShoe.006
v -0.709972 0.347275 -2.011986
v -0.709972 0.773967 -1.985188
v -0.789450 0.347275 -2.011986
v -0.789450 0.773967 -1.985188
v -0.709972 0.672397 -2.023419
v -0.709972 0.452830 -2.037209
v -0.789450 0.672397 -2.023419
v -0.789450 0.452830 -2.037209
v -0.709972 0.455337 -2.077130
v -0.709972 0.349782 -2.051907
v -0.789450 0.349782 -2.051907
v -0.709972 0.776475 -2.025110
v -0.789450 0.776475 -2.025109
v -0.789450 0.455337 -2.077130
v -0.709972 0.674904 -2.063341
v -0.789450 0.674904 -2.063341
v -0.789450 0.581471 -2.038085
v -0.789450 0.544876 -2.040383
v -0.789450 0.583978 -2.078006
v -0.789450 0.547384 -2.080304
v -0.709972 0.581471 -2.038085
v -0.709972 0.544876 -2.040383
v -0.709972 0.583978 -2.078006
v -0.709972 0.547384 -2.080304
v -0.704452 0.581471 -2.038085
v -0.704452 0.563286 -2.041018
v -0.794971 0.581471 -2.038085
v -0.794971 0.563286 -2.041018
v -0.704452 0.583978 -2.078006
v -0.794971 0.583978 -2.078006
v -0.794971 0.544876 -2.040383
v -0.794971 0.547384 -2.080304
v -0.704452 0.544876 -2.040383
v -0.704452 0.547384 -2.080304
vn -0.0000 -0.3523 0.9359
vn -0.0000 -0.2570 0.9664
vn -0.0000 0.1341 0.9910
vn -0.0000 0.2324 0.9726
vn -0.0000 -0.0627 0.9980
vn -0.0000 -0.1592 0.9872
vn -0.0000 0.2570 -0.9664
vn -0.0000 0.3523 -0.9359
vn -0.0000 -0.2324 -0.9726
vn -0.0000 -0.1341 -0.9910
vn -0.0000 -0.9980 -0.0627
vn -0.0000 0.0950 -0.9955
vn -0.0000 0.9980 0.0627
vn -1.0000 -0.0000 -0.0000
vn 1.0000 -0.0000 -0.0000
vn -0.0000 0.0303 -0.9995
vn -0.0000 0.0345 0.9994
vn -0.0000 0.0627 -0.9980
vt 0.068644 0.235558
vt 0.057192 0.219921
vt 0.068644 0.219921
vt 0.068644 0.188073
vt 0.057192 0.172436
vt 0.068644 0.172436
vt 0.069439 0.203997
vt 0.068644 0.206651
vt 0.057192 0.206651
vt 0.057192 0.256959
vt 0.068644 0.241322
vt 0.068644 0.256959
vt 0.057192 0.304419
vt 0.068644 0.288782
vt 0.068644 0.304419
vt 0.068644 0.310182
vt 0.057192 0.310182
vt 0.057192 0.270229
vt 0.068644 0.270229
vt 0.057192 0.235558
vt 0.055109 0.289515
vt 0.044765 0.304466
vt 0.049346 0.289515
vt 0.056397 0.269433
vt 0.049346 0.256226
vt 0.050529 0.241275
vt 0.075307 0.241275
vt 0.076490 0.256226
vt 0.069439 0.269433
vt 0.075202 0.269433
vt 0.069439 0.270229
vt 0.075202 0.270229
vt 0.074945 0.272870
vt 0.069439 0.275512
vt 0.068644 0.275512
vt 0.057192 0.288782
vt 0.057192 0.275512
vt 0.056397 0.275512
vt 0.050891 0.272870
vt 0.050633 0.270229
vt 0.068644 0.201343
vt 0.057192 0.201343
vt 0.050633 0.269433
vt 0.056397 0.270229
vt 0.076490 0.289515
vt 0.075307 0.304466
vt 0.070727 0.289515
vt 0.069439 0.276307
vt 0.075202 0.275512
vt 0.075202 0.276307
vt 0.050633 0.276307
vt 0.056397 0.276307
vt 0.057192 0.188073
vt 0.056397 0.206651
vt 0.056397 0.203997
vt 0.069439 0.206651
vt 0.057192 0.241322
vt 0.050529 0.304466
vt 0.055109 0.256226
vt 0.044765 0.241275
vt 0.070727 0.256226
vt 0.081070 0.241275
vt 0.050633 0.275512
vt 0.069439 0.201343
vt 0.056397 0.201343
vt 0.081070 0.304466
s 1
usemtl Bogie
f 70/133/37 75/134/38 73/135/38
f 74/136/39 71/137/40 69/138/40
f 94/139/41 89/140/42 85/141/42
f 84/142/43 80/143/44 83/144/43
f 79/145/45 77/146/46 78/147/45
f 79/145/47 69/148/47 71/149/47
f 87/150/48 83/144/43 91/151/48
f 80/143/49 72/152/49 70/133/49
f 82/153/50 71/154/50 76/155/50
f 87/156/50 75/157/50 81/158/50
f 80/159/51 73/160/51 91/161/51
f 89/162/49 97/163/49 91/161/49
f 93/164/51 94/165/51 102/166/51
f 92/167/52 82/168/46 88/169/52
f 100/170/50 96/171/50 95/172/50
f 90/173/53 94/139/41 86/174/53
f 85/175/49 98/176/49 95/172/49
f 74/177/51 78/178/51 77/179/51
f 92/180/47 101/181/47 90/182/47
f 86/183/47 100/170/47 88/184/47
f 92/167/52 88/169/52 87/150/48
f 70/133/37 72/152/37 75/134/38
f 74/136/39 76/185/39 71/137/40
f 95/186/42 96/187/41 94/139/41
f 94/139/41 93/188/42 89/140/42
f 89/140/42 73/135/38 75/134/38
f 85/141/42 95/186/42 94/139/41
f 89/140/42 75/134/38 85/141/42
f 84/142/43 81/189/44 80/143/44
f 79/145/45 82/168/46 77/146/46
f 79/145/47 78/147/47 69/148/47
f 87/150/48 84/142/43 83/144/43
f 80/143/49 81/189/49 72/152/49
f 86/183/50 88/184/50 82/153/50
f 82/153/50 79/190/50 71/154/50
f 76/155/50 86/183/50 82/153/50
f 81/158/50 84/191/50 87/156/50
f 87/156/50 85/175/50 75/157/50
f 75/157/50 72/192/50 81/158/50
f 91/161/51 83/193/51 80/159/51
f 80/159/51 70/194/51 73/160/51
f 73/160/51 89/162/51 91/161/51
f 89/162/49 93/164/49 97/163/49
f 102/166/51 97/163/51 93/164/51
f 94/165/51 101/181/51 102/166/51
f 92/167/52 77/146/46 82/168/46
f 95/172/50 98/176/50 100/170/50
f 100/170/50 99/195/50 96/171/50
f 90/173/53 101/196/53 94/139/41
f 94/139/41 96/187/41 99/197/53
f 86/174/53 76/185/39 74/136/39
f 94/139/41 99/197/53 86/174/53
f 86/174/53 74/136/39 90/173/53
f 85/175/49 87/156/49 98/176/49
f 77/179/51 92/180/51 90/182/51
f 74/177/51 69/198/51 78/178/51
f 77/179/51 90/182/51 74/177/51
f 92/180/47 102/166/47 101/181/47
f 86/183/47 99/195/47 100/170/47
f 91/151/48 97/163/54 102/166/54
f 91/151/48 102/166/54 92/167/52
f 100/170/54 98/176/54 87/150/48
f 87/150/48 91/151/48 92/167/52
f 88/169/52 100/170/54 87/150/48
o BrakeShoe.007
v -0.789482 0.345026 -0.925610
v -0.789482 0.772505 -0.918809
v -0.710004 0.345026 -0.925610
v -0.710004 0.772505 -0.918809
v -0.789482 0.668246 -0.888674
v -0.789482 0.448274 -0.892173
v -0.710004 0.668246 -0.888674
v -0.710004 0.448274 -0.892173
v -0.789482 0.447638 -0.852178
v -0.789482 0.344390 -0.885615
v -0.710004 0.344390 -0.885615
v -0.789482 0.771869 -0.878814
v -0.710004 0.771869 -0.878814
v -0.710004 0.447638 -0.852179
v -0.789482 0.667610 -0.848679
v -0.710004 0.667610 -0.848679
v -0.710004 0.576449 -0.881196
v -0.710004 0.539787 -0.881779
v -0.710004 0.575812 -0.841201
v -0.710004 0.539150 -0.841784
v -0.789482 0.576449 -0.881195
v -0.789482 0.539787 -0.881779
v -0.789482 0.575812 -0.841201
v -0.789482 0.539150 -0.841784
v -0.795002 0.576449 -0.881195
v -0.795002 0.558089 -0.879700
v -0.704483 0.576449 -0.881196
v -0.704483 0.558089 -0.879700
v -0.795002 0.575812 -0.841201
v -0.704483 0.575812 -0.841201
v -0.704483 0.539787 -0.881779
v -0.704483 0.539150 -0.841784
v -0.795002 0.539787 -0.881779
v -0.795002 0.539150 -0.841784
vn -0.0000 -0.2777 -0.9607
vn -0.0000 -0.1803 -0.9836
vn -0.0000 0.2115 -0.9774
vn -0.0000 0.3081 -0.9514
vn -0.0000 0.0159 -0.9999
vn -0.0000 -0.0812 -0.9967
vn -0.0000 0.1803 0.9836
vn -0.0000 0.2777 0.9607
vn -0.0000 -0.3081 0.9514
vn -0.0000 -0.2115 0.9774
vn -0.0000 -0.9999 -0.0159
vn -0.0000 0.0165 0.9999
vn -0.0000 0.9999 0.0159
vn 1.0000 -0.0000 -0.0000
vn -1.0000 -0.0000 -0.0000
vn -0.0000 -0.0483 0.9988
vn -0.0000 0.1129 -0.9936
vn -0.0000 -0.0159 0.9999
vt 0.068644 0.235558
vt 0.057192 0.219921
vt 0.068644 0.219921
vt 0.068644 0.188073
vt 0.057192 0.172436
vt 0.068644 0.172436
vt 0.069439 0.203997
vt 0.068644 0.206651
vt 0.057192 0.206651
vt 0.057192 0.256959
vt 0.068644 0.241322
vt 0.068644 0.256959
vt 0.057192 0.304419
vt 0.068644 0.288782
vt 0.068644 0.304419
vt 0.068644 0.310182
vt 0.057192 0.310182
vt 0.057192 0.270229
vt 0.068644 0.270229
vt 0.057192 0.235558
vt 0.055109 0.289515
vt 0.044765 0.304466
vt 0.049346 0.289515
vt 0.056397 0.269433
vt 0.049346 0.256226
vt 0.050529 0.241275
vt 0.075307 0.241275
vt 0.076490 0.256226
vt 0.069439 0.269433
vt 0.075202 0.269433
vt 0.069439 0.270229
vt 0.075202 0.270229
vt 0.074945 0.272870
vt 0.069439 0.275512
vt 0.068644 0.275512
vt 0.057192 0.288782
vt 0.057192 0.275512
vt 0.056397 0.275512
vt 0.050891 0.272870
vt 0.050633 0.270229
vt 0.068644 0.201343
vt 0.057192 0.201343
vt 0.050633 0.269433
vt 0.056397 0.270229
vt 0.076490 0.289515
vt 0.075307 0.304466
vt 0.070727 0.289515
vt 0.069439 0.276307
vt 0.075202 0.275512
vt 0.075202 0.276307
vt 0.050633 0.276307
vt 0.056397 0.276307
vt 0.057192 0.188073
vt 0.056397 0.206651
vt 0.056397 0.203997
vt 0.069439 0.206651
vt 0.057192 0.241322
vt 0.050529 0.304466
vt 0.055109 0.256226
vt 0.044765 0.241275
vt 0.070727 0.256226
vt 0.081070 0.241275
vt 0.050633 0.275512
vt 0.069439 0.201343
vt 0.056397 0.201343
vt 0.081070 0.304466
s 1
usemtl Bogie
f 104/199/55 109/200/56 107/201/56
f 108/202/57 105/203/58 103/204/58
f 128/205/59 123/206/60 119/207/60
f 118/208/61 114/209/62 117/210/61
f 113/211/63 111/212/64 112/213/63
f 113/211/65 103/214/65 105/215/65
f 121/216/66 117/210/61 125/217/66
f 114/209/67 106/218/67 104/199/67
f 116/219/68 105/220/68 110/221/68
f 121/222/68 109/223/68 115/224/68
f 114/225/69 107/226/69 125/227/69
f 123/228/67 131/229/67 125/227/67
f 127/230/69 128/231/69 136/232/69
f 126/233/70 116/234/64 122/235/70
f 134/236/68 130/237/68 129/238/68
f 124/239/71 128/205/59 120/240/71
f 119/241/67 132/242/67 129/238/67
f 108/243/69 112/244/69 111/245/69
f 126/246/65 135/247/65 124/248/65
f 120/249/65 134/236/65 122/250/65
f 126/233/70 122/235/70 121/216/66
f 104/199/55 106/218/55 109/200/56
f 108/202/57 110/251/57 105/203/58
f 129/252/60 130/253/59 128/205/59
f 128/205/59 127/254/60 123/206/60
f 123/206/60 107/201/56 109/200/56
f 119/207/60 129/252/60 128/205/59
f 123/206/60 109/200/56 119/207/60
f 118/208/61 115/255/62 114/209/62
f 113/211/63 116/234/64 111/212/64
f 113/211/65 112/213/65 103/214/65
f 121/216/66 118/208/61 117/210/61
f 114/209/67 115/255/67 106/218/67
f 120/249/68 122/250/68 116/219/68
f 116/219/68 113/256/68 105/220/68
f 110/221/68 120/249/68 116/219/68
f 115/224/68 118/257/68 121/222/68
f 121/222/68 119/241/68 109/223/68
f 109/223/68 106/258/68 115/224/68
f 125/227/69 117/259/69 114/225/69
f 114/225/69 104/260/69 107/226/69
f 107/226/69 123/228/69 125/227/69
f 123/228/67 127/230/67 131/229/67
f 136/232/69 131/229/69 127/230/69
f 128/231/69 135/247/69 136/232/69
f 126/233/70 111/212/64 116/234/64
f 129/238/68 132/242/68 134/236/68
f 134/236/68 133/261/68 130/237/68
f 124/239/71 135/262/71 128/205/59
f 128/205/59 130/253/59 133/263/71
f 120/240/71 110/251/57 108/202/57
f 128/205/59 133/263/71 120/240/71
f 120/240/71 108/202/57 124/239/71
f 119/241/67 121/222/67 132/242/67
f 111/245/69 126/246/69 124/248/69
f 108/243/69 103/264/69 112/244/69
f 111/245/69 124/248/69 108/243/69
f 126/246/65 136/232/65 135/247/65
f 120/249/65 133/261/65 134/236/65
f 125/217/66 131/229/72 136/232/72
f 125/217/66 136/232/72 126/233/70
f 134/236/72 132/242/72 121/216/66
f 121/216/66 125/217/66 126/233/70
f 122/235/70 134/236/72 121/216/66
o BrakeShoe.021
v -0.789479 0.347274 2.011985
v -0.789479 0.773967 1.985188
v -0.710001 0.347274 2.011985
v -0.710001 0.773967 1.985188
v -0.789479 0.672397 2.023419
v -0.789479 0.452830 2.037209
v -0.710001 0.672397 2.023419
v -0.710001 0.452830 2.037209
v -0.789479 0.455337 2.077130
v -0.789479 0.349782 2.051907
v -0.710001 0.349782 2.051907
v -0.789479 0.776475 2.025109
v -0.710001 0.776475 2.025109
v -0.710001 0.455337 2.077130
v -0.789479 0.674904 2.063340
v -0.710001 0.674904 2.063340
v -0.710001 0.581471 2.038085
v -0.710001 0.544876 2.040383
v -0.710001 0.583978 2.078006
v -0.710001 0.547384 2.080304
v -0.789479 0.581471 2.038085
v -0.789479 0.544876 2.040383
v -0.789479 0.583978 2.078006
v -0.789479 0.547384 2.080304
v -0.794999 0.581471 2.038085
v -0.794999 0.563286 2.041018
v -0.704480 0.581471 2.038085
v -0.704480 0.563286 2.041018
v -0.794999 0.583978 2.078006
v -0.704480 0.583978 2.078006
v -0.704480 0.544876 2.040383
v -0.704480 0.547384 2.080304
v -0.794999 0.544876 2.040383
v -0.794999 0.547384 2.080304
vn -0.0000 -0.3523 -0.9359
vn -0.0000 -0.2570 -0.9664
vn -0.0000 0.1341 -0.9910
vn -0.0000 0.2324 -0.9726
vn -0.0000 -0.0627 -0.9980
vn -0.0000 -0.1592 -0.9872
vn -0.0000 0.2570 0.9664
vn -0.0000 0.3523 0.9359
vn -0.0000 -0.2324 0.9726
vn -0.0000 -0.1341 0.9910
vn -0.0000 -0.9980 0.0627
vn -0.0000 0.0950 0.9955
vn -0.0000 0.9980 -0.0627
vn 1.0000 -0.0000 -0.0000
vn -1.0000 -0.0000 -0.0000
vn -0.0000 0.0303 0.9995
vn -0.0000 0.0345 -0.9994
vn -0.0000 0.0627 0.9980
vt 0.068644 0.235558
vt 0.057192 0.219921
vt 0.068644 0.219921
vt 0.068644 0.188073
vt 0.057192 0.172436
vt 0.068644 0.172436
vt 0.069439 0.203997
vt 0.068644 0.206651
vt 0.057192 0.206651
vt 0.057192 0.256959
vt 0.068644 0.241322
vt 0.068644 0.256959
vt 0.057192 0.304419
vt 0.068644 0.288782
vt 0.068644 0.304419
vt 0.068644 0.310182
vt 0.057192 0.310182
vt 0.057192 0.270229
vt 0.068644 0.270229
vt 0.057192 0.235558
vt 0.055109 0.289515
vt 0.044765 0.304466
vt 0.049346 0.289515
vt 0.056397 0.269433
vt 0.049346 0.256226
vt 0.050529 0.241275
vt 0.075307 0.241275
vt 0.076490 0.256226
vt 0.069439 0.269433
vt 0.075202 0.269433
vt 0.069439 0.270229
vt 0.075202 0.270229
vt 0.074945 0.272870
vt 0.069439 0.275512
vt 0.068644 0.275512
vt 0.057192 0.288782
vt 0.057192 0.275512
vt 0.056397 0.275512
vt 0.050891 0.272870
vt 0.050633 0.270229
vt 0.068644 0.201343
vt 0.057192 0.201343
vt 0.050633 0.269433
vt 0.056397 0.270229
vt 0.076490 0.289515
vt 0.075307 0.304466
vt 0.070727 0.289515
vt 0.069439 0.276307
vt 0.075202 0.275512
vt 0.075202 0.276307
vt 0.050633 0.276307
vt 0.056397 0.276307
vt 0.057192 0.188073
vt 0.056397 0.206651
vt 0.056397 0.203997
vt 0.069439 0.206651
vt 0.057192 0.241322
vt 0.050529 0.304466
vt 0.055109 0.256226
vt 0.044765 0.241275
vt 0.070727 0.256226
vt 0.081070 0.241275
vt 0.050633 0.275512
vt 0.069439 0.201343
vt 0.056397 0.201343
vt 0.081070 0.304466
s 1
usemtl Bogie
f 138/265/73 143/266/74 141/267/74
f 142/268/75 139/269/76 137/270/76
f 162/271/77 157/272/78 153/273/78
f 152/274/79 148/275/80 151/276/79
f 147/277/81 145/278/82 146/279/81
f 147/277/83 137/280/83 139/281/83
f 155/282/84 151/276/79 159/283/84
f 148/275/85 140/284/85 138/265/85
f 150/285/86 139/286/86 144/287/86
f 155/288/86 143/289/86 149/290/86
f 148/291/87 141/292/87 159/293/87
f 157/294/85 165/295/85 159/293/85
f 161/296/87 162/297/87 170/298/87
f 160/299/88 150/300/82 156/301/88
f 168/302/86 164/303/86 163/304/86
f 158/305/89 162/271/77 154/306/89
f 153/307/85 166/308/85 163/304/85
f 142/309/87 146/310/87 145/311/87
f 160/312/83 169/313/83 158/314/83
f 154/315/83 168/302/83 156/316/83
f 160/299/88 156/301/88 155/282/84
f 138/265/73 140/284/73 143/266/74
f 142/268/75 144/317/75 139/269/76
f 163/318/78 164/319/77 162/271/77
f 162/271/77 161/320/78 157/272/78
f 157/272/78 141/267/74 143/266/74
f 153/273/78 163/318/78 162/271/77
f 157/272/78 143/266/74 153/273/78
f 152/274/79 149/321/80 148/275/80
f 147/277/81 150/300/82 145/278/82
f 147/277/83 146/279/83 137/280/83
f 155/282/84 152/274/79 151/276/79
f 148/275/85 149/321/85 140/284/85
f 154/315/86 156/316/86 150/285/86
f 150/285/86 147/322/86 139/286/86
f 144/287/86 154/315/86 150/285/86
f 149/290/86 152/323/86 155/288/86
f 155/288/86 153/307/86 143/289/86
f 143/289/86 140/324/86 149/290/86
f 159/293/87 151/325/87 148/291/87
f 148/291/87 138/326/87 141/292/87
f 141/292/87 157/294/87 159/293/87
f 157/294/85 161/296/85 165/295/85
f 170/298/87 165/295/87 161/296/87
f 162/297/87 169/313/87 170/298/87
f 160/299/88 145/278/82 150/300/82
f 163/304/86 166/308/86 168/302/86
f 168/302/86 167/327/86 164/303/86
f 158/305/89 169/328/89 162/271/77
f 162/271/77 164/319/77 167/329/89
f 154/306/89 144/317/75 142/268/75
f 162/271/77 167/329/89 154/306/89
f 154/306/89 142/268/75 158/305/89
f 153/307/85 155/288/85 166/308/85
f 145/311/87 160/312/87 158/314/87
f 142/309/87 137/330/87 146/310/87
f 145/311/87 158/314/87 142/309/87
f 160/312/83 170/298/83 169/313/83
f 154/315/83 167/327/83 168/302/83
f 159/283/84 165/295/90 170/298/90
f 159/283/84 170/298/90 160/299/88
f 168/302/90 166/308/90 155/282/84
f 155/282/84 159/283/84 160/299/88
f 156/301/88 168/302/90 155/282/84
o BrakeShoe.022
v -0.709970 0.345026 0.925610
v -0.709970 0.772505 0.918808
v -0.789448 0.345026 0.925610
v -0.789448 0.772505 0.918809
v -0.709970 0.668246 0.888673
v -0.709970 0.448274 0.892173
v -0.789448 0.668246 0.888673
v -0.789448 0.448274 0.892173
v -0.709970 0.447637 0.852178
v -0.709970 0.344389 0.885615
v -0.789448 0.344389 0.885615
v -0.709970 0.771869 0.878813
v -0.789448 0.771869 0.878814
v -0.789448 0.447637 0.852178
v -0.709970 0.667610 0.848678
v -0.789448 0.667610 0.848679
v -0.789448 0.576449 0.881195
v -0.789448 0.539787 0.881779
v -0.789448 0.575812 0.841200
v -0.789448 0.539150 0.841784
v -0.709970 0.576449 0.881195
v -0.709970 0.539787 0.881778
v -0.709970 0.575812 0.841200
v -0.709970 0.539150 0.841784
v -0.704450 0.576449 0.881195
v -0.704450 0.558089 0.879700
v -0.794969 0.576449 0.881195
v -0.794969 0.558089 0.879700
v -0.704450 0.575812 0.841200
v -0.794969 0.575812 0.841200
v -0.794969 0.539787 0.881779
v -0.794969 0.539150 0.841784
v -0.704450 0.539787 0.881778
v -0.704450 0.539150 0.841784
vn -0.0000 -0.2777 0.9607
vn -0.0000 -0.1803 0.9836
vn -0.0000 0.2115 0.9774
vn -0.0000 0.3081 0.9514
vn -0.0000 0.0159 0.9999
vn -0.0000 -0.0812 0.9967
vn -0.0000 0.1803 -0.9836
vn -0.0000 0.2777 -0.9607
vn -0.0000 -0.3081 -0.9514
vn -0.0000 -0.2115 -0.9774
vn -0.0000 -0.9999 0.0159
vn -0.0000 0.0165 -0.9999
vn -0.0000 0.9999 -0.0159
vn -1.0000 -0.0000 -0.0000
vn 1.0000 -0.0000 -0.0000
vn -0.0000 -0.0483 -0.9988
vn -0.0000 0.1129 0.9936
vn -0.0000 -0.0159 -0.9999
vt 0.068644 0.235558
vt 0.057192 0.219921
vt 0.068644 0.219921
vt 0.068644 0.188073
vt 0.057192 0.172436
vt 0.068644 0.172436
vt 0.069439 0.203997
vt 0.068644 0.206651
vt 0.057192 0.206651
vt 0.057192 0.256959
vt 0.068644 0.241322
vt 0.068644 0.256959
vt 0.057192 0.304419
vt 0.068644 0.288782
vt 0.068644 0.304419
vt 0.068644 0.310182
vt 0.057192 0.310182
vt 0.057192 0.270229
vt 0.068644 0.270229
vt 0.057192 0.235558
vt 0.055109 0.289515
vt 0.044765 0.304466
vt 0.049346 0.289515
vt 0.056397 0.269433
vt 0.049346 0.256226
vt 0.050529 0.241275
vt 0.075307 0.241275
vt 0.076490 0.256226
vt 0.069439 0.269433
vt 0.075202 0.269433
vt 0.069439 0.270229
vt 0.075202 0.270229
vt 0.074945 0.272870
vt 0.069439 0.275512
vt 0.068644 0.275512
vt 0.057192 0.288782
vt 0.057192 0.275512
vt 0.056397 0.275512
vt 0.050891 0.272870
vt 0.050633 0.270229
vt 0.068644 0.201343
vt 0.057192 0.201343
vt 0.050633 0.269433
vt 0.056397 0.270229
vt 0.076490 0.289515
vt 0.075307 0.304466
vt 0.070727 0.289515
vt 0.069439 0.276307
vt 0.075202 0.275512
vt 0.075202 0.276307
vt 0.050633 0.276307
vt 0.056397 0.276307
vt 0.057192 0.188073
vt 0.056397 0.206651
vt 0.056397 0.203997
vt 0.069439 0.206651
vt 0.057192 0.241322
vt 0.050529 0.304466
vt 0.055109 0.256226
vt 0.044765 0.241275
vt 0.070727 0.256226
vt 0.081070 0.241275
vt 0.050633 0.275512
vt 0.069439 0.201343
vt 0.056397 0.201343
vt 0.081070 0.304466
s 1
usemtl Bogie
f 172/331/91 177/332/92 175/333/92
f 176/334/93 173/335/94 171/336/94
f 196/337/95 191/338/96 187/339/96
f 186/340/97 182/341/98 185/342/97
f 181/343/99 179/344/100 180/345/99
f 181/343/101 171/346/101 173/347/101
f 189/348/102 185/342/97 193/349/102
f 182/341/103 174/350/103 172/331/103
f 184/351/104 173/352/104 178/353/104
f 189/354/104 177/355/104 183/356/104
f 182/357/105 175/358/105 193/359/105
f 191/360/103 199/361/103 193/359/103
f 195/362/105 196/363/105 204/364/105
f 194/365/106 184/366/100 190/367/106
f 202/368/104 198/369/104 197/370/104
f 192/371/107 196/337/95 188/372/107
f 187/373/103 200/374/103 197/370/103
f 176/375/105 180/376/105 179/377/105
f 194/378/101 203/379/101 192/380/101
f 188/381/101 202/368/101 190/382/101
f 194/365/106 190/367/106 189/348/102
f 172/331/91 174/350/91 177/332/92
f 176/334/93 178/383/93 173/335/94
f 197/384/96 198/385/95 196/337/95
f 196/337/95 195/386/96 191/338/96
f 191/338/96 175/333/92 177/332/92
f 187/339/96 197/384/96 196/337/95
f 191/338/96 177/332/92 187/339/96
f 186/340/97 183/387/98 182/341/98
f 181/343/99 184/366/100 179/344/100
f 181/343/101 180/345/101 171/346/101
f 189/348/102 186/340/97 185/342/97
f 182/341/103 183/387/103 174/350/103
f 188/381/104 190/382/104 184/351/104
f 184/351/104 181/388/104 173/352/104
f 178/353/104 188/381/104 184/351/104
f 183/356/104 186/389/104 189/354/104
f 189/354/104 187/373/104 177/355/104
f 177/355/104 174/390/104 183/356/104
f 193/359/105 185/391/105 182/357/105
f 182/357/105 172/392/105 175/358/105
f 175/358/105 191/360/105 193/359/105
f 191/360/103 195/362/103 199/361/103
f 204/364/105 199/361/105 195/362/105
f 196/363/105 203/379/105 204/364/105
f 194/365/106 179/344/100 184/366/100
f 197/370/104 200/374/104 202/368/104
f 202/368/104 201/393/104 198/369/104
f 192/371/107 203/394/107 196/337/95
f 196/337/95 198/385/95 201/395/107
f 188/372/107 178/383/93 176/334/93
f 196/337/95 201/395/107 188/372/107
f 188/372/107 176/334/93 192/371/107
f 187/373/103 189/354/103 200/374/103
f 179/377/105 194/378/105 192/380/105
f 176/375/105 171/396/105 180/376/105
f 179/377/105 192/380/105 176/375/105
f 194/378/101 204/364/101 203/379/101
f 188/381/101 201/393/101 202/368/101
f 193/349/102 199/361/108 204/364/108
f 193/349/102 204/364/108 194/365/106
f 202/368/108 200/374/108 189/348/102
f 189/348/102 193/349/102 194/365/106
f 190/367/106 202/368/108 189/348/102
o BrakeShoe.023
v 0.709971 0.347274 2.011985
v 0.709971 0.773967 1.985188
v 0.789449 0.347274 2.011985
v 0.789449 0.773967 1.985188
v 0.709971 0.672397 2.023419
v 0.709971 0.452830 2.037209
v 0.789449 0.672397 2.023419
v 0.789449 0.452830 2.037209
v 0.709971 0.455337 2.077130
v 0.709971 0.349782 2.051907
v 0.789449 0.349782 2.051907
v 0.709971 0.776475 2.025109
v 0.789449 0.776475 2.025109
v 0.789449 0.455337 2.077130
v 0.709971 0.674904 2.063340
v 0.789449 0.674904 2.063340
v 0.789449 0.581471 2.038085
v 0.789449 0.544876 2.040383
v 0.789449 0.583978 2.078006
v 0.789449 0.547384 2.080304
v 0.709971 0.581471 2.038085
v 0.709971 0.544876 2.040383
v 0.709971 0.583978 2.078006
v 0.709971 0.547384 2.080304
v 0.704451 0.581471 2.038085
v 0.704451 0.563286 2.041018
v 0.794970 0.581471 2.038085
v 0.794970 0.563286 2.041018
v 0.704451 0.583978 2.078006
v 0.794970 0.583978 2.078006
v 0.794970 0.544876 2.040383
v 0.794970 0.547384 2.080304
v 0.704451 0.544876 2.040383
v 0.704451 0.547384 2.080304
vn -0.0000 -0.3523 -0.9359
vn -0.0000 -0.2570 -0.9664
vn -0.0000 0.1341 -0.9910
vn -0.0000 0.2324 -0.9726
vn -0.0000 -0.0627 -0.9980
vn -0.0000 -0.1592 -0.9872
vn -0.0000 0.2570 0.9664
vn -0.0000 0.3523 0.9359
vn -0.0000 -0.2324 0.9726
vn -0.0000 -0.1341 0.9910
vn -0.0000 -0.9980 0.0627
vn -0.0000 0.0950 0.9955
vn -0.0000 0.9980 -0.0627
vn 1.0000 -0.0000 -0.0000
vn -1.0000 -0.0000 -0.0000
vn -0.0000 0.0303 0.9995
vn -0.0000 0.0345 -0.9994
vn -0.0000 0.0627 0.9980
vt 0.068644 0.235558
vt 0.057192 0.219921
vt 0.068644 0.219921
vt 0.068644 0.188073
vt 0.057192 0.172436
vt 0.068644 0.172436
vt 0.069439 0.203997
vt 0.068644 0.206651
vt 0.057192 0.206651
vt 0.057192 0.256959
vt 0.068644 0.241322
vt 0.068644 0.256959
vt 0.057192 0.304419
vt 0.068644 0.288782
vt 0.068644 0.304419
vt 0.068644 0.310182
vt 0.057192 0.310182
vt 0.057192 0.270229
vt 0.068644 0.270229
vt 0.057192 0.235558
vt 0.055109 0.289515
vt 0.044765 0.304466
vt 0.049346 0.289515
vt 0.056397 0.269433
vt 0.049346 0.256226
vt 0.050529 0.241275
vt 0.075307 0.241275
vt 0.076490 0.256226
vt 0.069439 0.269433
vt 0.075202 0.269433
vt 0.069439 0.270229
vt 0.075202 0.270229
vt 0.074945 0.272870
vt 0.069439 0.275512
vt 0.068644 0.275512
vt 0.057192 0.288782
vt 0.057192 0.275512
vt 0.056397 0.275512
vt 0.050891 0.272870
vt 0.050633 0.270229
vt 0.068644 0.201343
vt 0.057192 0.201343
vt 0.050633 0.269433
vt 0.056397 0.270229
vt 0.076490 0.289515
vt 0.075307 0.304466
vt 0.070727 0.289515
vt 0.069439 0.276307
vt 0.075202 0.275512
vt 0.075202 0.276307
vt 0.050633 0.276307
vt 0.056397 0.276307
vt 0.057192 0.188073
vt 0.056397 0.206651
vt 0.056397 0.203997
vt 0.069439 0.206651
vt 0.057192 0.241322
vt 0.050529 0.304466
vt 0.055109 0.256226
vt 0.044765 0.241275
vt 0.070727 0.256226
vt 0.081070 0.241275
vt 0.050633 0.275512
vt 0.069439 0.201343
vt 0.056397 0.201343
vt 0.081070 0.304466
s 1
usemtl Bogie
f 206/397/109 211/398/110 209/399/110
f 210/400/111 207/401/112 205/402/112
f 230/403/113 225/404/114 221/405/114
f 220/406/115 216/407/116 219/408/115
f 215/409/117 213/410/118 214/411/117
f 215/409/119 205/412/119 207/413/119
f 223/414/120 219/408/115 227/415/120
f 216/407/121 208/416/121 206/397/121
f 218/417/122 207/418/122 212/419/122
f 223/420/122 211/421/122 217/422/122
f 216/423/123 209/424/123 227/425/123
f 225/426/121 233/427/121 227/425/121
f 229/428/123 230/429/123 238/430/123
f 228/431/124 218/432/118 224/433/124
f 236/434/122 232/435/122 231/436/122
f 226/437/125 230/403/113 222/438/125
f 221/439/121 234/440/121 231/436/121
f 210/441/123 214/442/123 213/443/123
f 228/444/119 237/445/119 226/446/119
f 222/447/119 236/434/119 224/448/119
f 228/431/124 224/433/124 223/414/120
f 206/397/109 208/416/109 211/398/110
f 210/400/111 212/449/111 207/401/112
f 231/450/114 232/451/113 230/403/113
f 230/403/113 229/452/114 225/404/114
f 225/404/114 209/399/110 211/398/110
f 221/405/114 231/450/114 230/403/113
f 225/404/114 211/398/110 221/405/114
f 220/406/115 217/453/116 216/407/116
f 215/409/117 218/432/118 213/410/118
f 215/409/119 214/411/119 205/412/119
f 223/414/120 220/406/115 219/408/115
f 216/407/121 217/453/121 208/416/121
f 222/447/122 224/448/122 218/417/122
f 218/417/122 215/454/122 207/418/122
f 212/419/122 222/447/122 218/417/122
f 217/422/122 220/455/122 223/420/122
f 223/420/122 221/439/122 211/421/122
f 211/421/122 208/456/122 217/422/122
f 227/425/123 219/457/123 216/423/123
f 216/423/123 206/458/123 209/424/123
f 209/424/123 225/426/123 227/425/123
f 225/426/121 229/428/121 233/427/121
f 238/430/123 233/427/123 229/428/123
f 230/429/123 237/445/123 238/430/123
f 228/431/124 213/410/118 218/432/118
f 231/436/122 234/440/122 236/434/122
f 236/434/122 235/459/122 232/435/122
f 226/437/125 237/460/125 230/403/113
f 230/403/113 232/451/113 235/461/125
f 222/438/125 212/449/111 210/400/111
f 230/403/113 235/461/125 222/438/125
f 222/438/125 210/400/111 226/437/125
f 221/439/121 223/420/121 234/440/121
f 213/443/123 228/444/123 226/446/123
f 210/441/123 205/462/123 214/442/123
f 213/443/123 226/446/123 210/441/123
f 228/444/119 238/430/119 237/445/119
f 222/447/119 235/459/119 236/434/119
f 227/415/120 233/427/126 238/430/126
f 227/415/120 238/430/126 228/431/124
f 236/434/126 234/440/126 223/414/120
f 223/414/120 227/415/120 228/431/124
f 224/433/124 236/434/126 223/414/120
o BrakeShoe.024
v 0.789480 0.345026 0.925610
v 0.789480 0.772505 0.918808
v 0.710002 0.345026 0.925610
v 0.710002 0.772505 0.918809
v 0.789480 0.668246 0.888673
v 0.789480 0.448274 0.892173
v 0.710002 0.668246 0.888673
v 0.710002 0.448274 0.892173
v 0.789480 0.447637 0.852178
v 0.789480 0.344389 0.885615
v 0.710002 0.344389 0.885615
v 0.789480 0.771869 0.878813
v 0.710002 0.771869 0.878814
v 0.710002 0.447637 0.852178
v 0.789480 0.667610 0.848678
v 0.710002 0.667610 0.848679
v 0.710002 0.576449 0.881195
v 0.710002 0.539787 0.881779
v 0.710002 0.575812 0.841200
v 0.710002 0.539150 0.841784
v 0.789480 0.576449 0.881195
v 0.789480 0.539787 0.881778
v 0.789480 0.575812 0.841200
v 0.789480 0.539150 0.841784
v 0.795000 0.576449 0.881195
v 0.795000 0.558089 0.879700
v 0.704481 0.576449 0.881195
v 0.704481 0.558089 0.879700
v 0.795000 0.575812 0.841200
v 0.704481 0.575812 0.841200
v 0.704481 0.539787 0.881779
v 0.704481 0.539150 0.841784
v 0.795000 0.539787 0.881778
v 0.795000 0.539150 0.841784
vn -0.0000 -0.2777 0.9607
vn -0.0000 -0.1803 0.9836
vn -0.0000 0.2115 0.9774
vn -0.0000 0.3081 0.9514
vn -0.0000 0.0159 0.9999
vn -0.0000 -0.0812 0.9967
vn -0.0000 0.1803 -0.9836
vn -0.0000 0.2777 -0.9607
vn -0.0000 -0.3081 -0.9514
vn -0.0000 -0.2115 -0.9774
vn -0.0000 -0.9999 0.0159
vn -0.0000 0.0165 -0.9999
vn -0.0000 0.9999 -0.0159
vn -1.0000 -0.0000 -0.0000
vn 1.0000 -0.0000 -0.0000
vn -0.0000 -0.0483 -0.9988
vn -0.0000 0.1129 0.9936
vn -0.0000 -0.0159 -0.9999
vt 0.068644 0.235558
vt 0.057192 0.219921
vt 0.068644 0.219921
vt 0.068644 0.188073
vt 0.057192 0.172436
vt 0.068644 0.172436
vt 0.069439 0.203997
vt 0.068644 0.206651
vt 0.057192 0.206651
vt 0.057192 0.256959
vt 0.068644 0.241322
vt 0.068644 0.256959
vt 0.057192 0.304419
vt 0.068644 0.288782
vt 0.068644 0.304419
vt 0.068644 0.310182
vt 0.057192 0.310182
vt 0.057192 0.270229
vt 0.068644 0.270229
vt 0.057192 0.235558
vt 0.055109 0.289515
vt 0.044765 0.304466
vt 0.049346 0.289515
vt 0.056397 0.269433
vt 0.049346 0.256226
vt 0.050529 0.241275
vt 0.075307 0.241275
vt 0.076490 0.256226
vt 0.069439 0.269433
vt 0.075202 0.269433
vt 0.069439 0.270229
vt 0.075202 0.270229
vt 0.074945 0.272870
vt 0.069439 0.275512
vt 0.068644 0.275512
vt 0.057192 0.288782
vt 0.057192 0.275512
vt 0.056397 0.275512
vt 0.050891 0.272870
vt 0.050633 0.270229
vt 0.068644 0.201343
vt 0.057192 0.201343
vt 0.050633 0.269433
vt 0.056397 0.270229
vt 0.076490 0.289515
vt 0.075307 0.304466
vt 0.070727 0.289515
vt 0.069439 0.276307
vt 0.075202 0.275512
vt 0.075202 0.276307
vt 0.050633 0.276307
vt 0.056397 0.276307
vt 0.057192 0.188073
vt 0.056397 0.206651
vt 0.056397 0.203997
vt 0.069439 0.206651
vt 0.057192 0.241322
vt 0.050529 0.304466
vt 0.055109 0.256226
vt 0.044765 0.241275
vt 0.070727 0.256226
vt 0.081070 0.241275
vt 0.050633 0.275512
vt 0.069439 0.201343
vt 0.056397 0.201343
vt 0.081070 0.304466
s 1
usemtl Bogie
f 240/463/127 245/464/128 243/465/128
f 244/466/129 241/467/130 239/468/130
f 264/469/131 259/470/132 255/471/132
f 254/472/133 250/473/134 253/474/133
f 249/475/135 247/476/136 248/477/135
f 249/475/137 239/478/137 241/479/137
f 257/480/138 253/474/133 261/481/138
f 250/473/139 242/482/139 240/463/139
f 252/483/140 241/484/140 246/485/140
f 257/486/140 245/487/140 251/488/140
f 250/489/141 243/490/141 261/491/141
f 259/492/139 267/493/139 261/491/139
f 263/494/141 264/495/141 272/496/141
f 262/497/142 252/498/136 258/499/142
f 270/500/140 266/501/140 265/502/140
f 260/503/143 264/469/131 256/504/143
f 255/505/139 268/506/139 265/502/139
f 244/507/141 248/508/141 247/509/141
f 262/510/137 271/511/137 260/512/137
f 256/513/137 270/500/137 258/514/137
f 262/497/142 258/499/142 257/480/138
f 240/463/127 242/482/127 245/464/128
f 244/466/129 246/515/129 241/467/130
f 265/516/132 266/517/131 264/469/131
f 264/469/131 263/518/132 259/470/132
f 259/470/132 243/465/128 245/464/128
f 255/471/132 265/516/132 264/469/131
f 259/470/132 245/464/128 255/471/132
f 254/472/133 251/519/134 250/473/134
f 249/475/135 252/498/136 247/476/136
f 249/475/137 248/477/137 239/478/137
f 257/480/138 254/472/133 253/474/133
f 250/473/139 251/519/139 242/482/139
f 256/513/140 258/514/140 252/483/140
f 252/483/140 249/520/140 241/484/140
f 246/485/140 256/513/140 252/483/140
f 251/488/140 254/521/140 257/486/140
f 257/486/140 255/505/140 245/487/140
f 245/487/140 242/522/140 251/488/140
f 261/491/141 253/523/141 250/489/141
f 250/489/141 240/524/141 243/490/141
f 243/490/141 259/492/141 261/491/141
f 259/492/139 263/494/139 267/493/139
f 272/496/141 267/493/141 263/494/141
f 264/495/141 271/511/141 272/496/141
f 262/497/142 247/476/136 252/498/136
f 265/502/140 268/506/140 270/500/140
f 270/500/140 269/525/140 266/501/140
f 260/503/143 271/526/143 264/469/131
f 264/469/131 266/517/131 269/527/143
f 256/504/143 246/515/129 244/466/129
f 264/469/131 269/527/143 256/504/143
f 256/504/143 244/466/129 260/503/143
f 255/505/139 257/486/139 268/506/139
f 247/509/141 262/510/141 260/512/141
f 244/507/141 239/528/141 248/508/141
f 247/509/141 260/512/141 244/507/141
f 262/510/137 272/496/137 271/511/137
f 256/513/137 269/525/137 270/500/137
f 261/481/138 267/493/144 272/496/144
f 261/481/138 272/496/144 262/497/142
f 270/500/144 268/506/144 257/480/138
f 257/480/138 261/481/138 262/497/142
f 258/499/142 270/500/144 257/480/138
