# Blender 5.0.1
# www.blender.org
mtllib brake_handle.mtl
o BrakeHandleExport
g brake_handle
v 0.010000 -0.009088 -0.010000
v 0.010000 -0.001089 -0.010000
v 0.010000 -0.009088 0.010000
v 0.010000 -0.001089 0.010000
v -0.010000 -0.009088 -0.010000
v -0.010000 -0.001089 -0.010000
v -0.010000 -0.009088 0.010000
v -0.010000 -0.001089 0.010000
v -0.033421 -0.001089 0.010000
v -0.033421 -0.009088 0.010000
v -0.033421 -0.009088 -0.010000
v -0.033421 -0.001089 -0.010000
v -0.035530 -0.001089 0.010000
v -0.045910 -0.019428 0.010000
v -0.045910 -0.019428 -0.010000
v -0.035530 -0.001089 -0.010000
v -0.056382 -0.018822 0.010000
v -0.056382 -0.018822 -0.010000
v -0.045910 -0.057087 -0.010000
v -0.045910 -0.057087 0.010000
v -0.056382 -0.057087 -0.010000
v -0.056382 -0.057087 0.010000
v -0.056382 -0.044343 -0.008076
v -0.056382 -0.047434 -0.007461
v -0.056382 -0.041253 -0.007461
v -0.056382 -0.036267 0.000000
v -0.056382 -0.036882 -0.003091
v -0.056382 -0.050054 -0.005711
v -0.056382 -0.038633 -0.005711
v -0.056382 -0.051804 -0.003091
v -0.056382 -0.036882 0.003091
v -0.056382 -0.052419 0.000000
v -0.056382 -0.050054 0.005711
v -0.056382 -0.044343 0.008076
v -0.056382 -0.041253 0.007461
v -0.056382 -0.047434 0.007461
v -0.056382 -0.038633 0.005711
v -0.056382 -0.051804 0.003091
v -0.145924 -0.044343 0.009861
v -0.152923 -0.044343 0.002863
v -0.148603 -0.044343 0.009371
v -0.150873 -0.044343 0.007869
v -0.152390 -0.044343 0.005584
v -0.152923 -0.045439 0.002645
v -0.145924 -0.048117 0.009110
v -0.152390 -0.046480 0.005159
v -0.150873 -0.047354 0.007270
v -0.148603 -0.047929 0.008657
v -0.152923 -0.046368 0.002024
v -0.145924 -0.051316 0.006972
v -0.152390 -0.048291 0.003948
v -0.150873 -0.049907 0.005564
v -0.148603 -0.050969 0.006626
v -0.152923 -0.046988 0.001096
v -0.145924 -0.053453 0.003774
v -0.152390 -0.049502 0.002137
v -0.150873 -0.051613 0.003011
v -0.148603 -0.053001 0.003586
v -0.152923 -0.047206 0.000000
v -0.145924 -0.054204 0.000000
v -0.152390 -0.049927 0.000000
v -0.150873 -0.052212 0.000000
v -0.148603 -0.053714 0.000000
v -0.152923 -0.046988 -0.001096
v -0.145924 -0.053453 -0.003773
v -0.152390 -0.049502 -0.002137
v -0.150873 -0.051613 -0.003011
v -0.148603 -0.053001 -0.003586
v -0.152923 -0.046368 -0.002024
v -0.145924 -0.051316 -0.006972
v -0.152390 -0.048291 -0.003948
v -0.150873 -0.049907 -0.005564
v -0.148603 -0.050969 -0.006626
v -0.152923 -0.045439 -0.002645
v -0.145924 -0.048117 -0.009110
v -0.152390 -0.046480 -0.005158
v -0.150873 -0.047354 -0.007270
v -0.148603 -0.047929 -0.008657
v -0.152923 -0.044343 -0.002863
v -0.145924 -0.044343 -0.009860
v -0.152390 -0.044343 -0.005583
v -0.150873 -0.044343 -0.007869
v -0.148603 -0.044343 -0.009371
v -0.152923 -0.043248 -0.002645
v -0.145924 -0.040570 -0.009110
v -0.152390 -0.042207 -0.005158
v -0.150873 -0.041332 -0.007270
v -0.148603 -0.040757 -0.008657
v -0.152923 -0.042319 -0.002024
v -0.145924 -0.037371 -0.006972
v -0.152390 -0.040395 -0.003948
v -0.150873 -0.038779 -0.005564
v -0.148603 -0.037717 -0.006626
v -0.152923 -0.041698 -0.001096
v -0.145924 -0.035233 -0.003773
v -0.152390 -0.039185 -0.002137
v -0.150873 -0.037073 -0.003011
v -0.148603 -0.035686 -0.003586
v -0.152923 -0.041480 0.000000
v -0.145924 -0.034483 0.000000
v -0.152390 -0.038760 0.000000
v -0.150873 -0.036475 0.000000
v -0.148603 -0.034973 0.000000
v -0.152923 -0.041698 0.001096
v -0.145924 -0.035233 0.003774
v -0.152390 -0.039185 0.002137
v -0.150873 -0.037073 0.003011
v -0.148603 -0.035686 0.003586
v -0.152923 -0.042319 0.002024
v -0.145924 -0.037371 0.006972
v -0.152390 -0.040395 0.003948
v -0.150873 -0.038779 0.005564
v -0.148603 -0.037717 0.006626
v -0.152923 -0.043248 0.002645
v -0.145924 -0.040570 0.009110
v -0.152390 -0.042207 0.005159
v -0.150873 -0.041332 0.007270
v -0.148603 -0.040757 0.008657
v 0.000000 -0.000089 0.008000
v -0.003061 -0.000089 0.007391
v -0.005657 -0.000089 0.005657
v -0.007391 -0.000089 0.003061
v -0.008000 -0.000089 0.000000
v -0.007391 -0.000089 -0.003061
v -0.005657 -0.000089 -0.005657
v -0.003061 -0.000089 -0.007391
v -0.000000 -0.000089 -0.008000
v 0.003061 -0.000089 -0.007391
v 0.005657 -0.000089 -0.005657
v 0.007391 -0.000089 -0.003061
v 0.008000 -0.000089 -0.000000
v 0.007391 -0.000089 0.003061
v 0.005657 -0.000089 0.005657
v 0.003061 -0.000089 0.007391
v 0.000000 -0.001089 0.008000
v -0.003061 -0.001089 0.007391
v -0.005657 -0.001089 0.005657
v -0.007391 -0.001089 0.003061
v -0.008000 -0.001089 0.000000
v -0.007391 -0.001089 -0.003061
v -0.005657 -0.001089 -0.005657
v -0.003061 -0.001089 -0.007391
v -0.000000 -0.001089 -0.008000
v 0.003061 -0.001089 -0.007391
v 0.005657 -0.001089 -0.005657
v 0.007391 -0.001089 -0.003061
v 0.008000 -0.001089 -0.000000
v 0.007391 -0.001089 0.003061
v 0.005657 -0.001089 0.005657
v 0.003061 -0.001089 0.007391
vn 1.0000 -0.0000 -0.0000
vn -0.0000 -0.0000 1.0000
vn -0.0000 -0.0000 -1.0000
vn -0.0000 -1.0000 -0.0000
vn -0.0000 1.0000 -0.0000
vn 0.6377 -0.7703 -0.0000
vn 0.9049 -0.4256 -0.0000
vn -0.6478 0.7618 -0.0000
vn -1.0000 -0.0000 -0.0000
vn -0.0794 -0.0000 0.9968
vn -0.3650 -0.3563 0.8601
vn -0.0794 -0.3815 0.9210
vn -0.6943 -0.0000 0.7196
vn -0.6943 -0.2754 0.6649
vn -0.9163 -0.1532 0.3699
vn -0.9941 -0.0000 0.1085
vn -0.9941 -0.0415 0.1002
vn -0.3650 -0.6583 0.6583
vn -0.0794 -0.7049 0.7049
vn -0.6943 -0.5089 0.5089
vn -0.9163 -0.2831 0.2831
vn -0.9941 -0.0767 0.0767
vn -0.3650 -0.8601 0.3563
vn -0.0794 -0.9210 0.3815
vn -0.6943 -0.6649 0.2754
vn -0.9163 -0.3699 0.1532
vn -0.9941 -0.1002 0.0415
vn -0.0794 -0.9968 -0.0000
vn -0.3650 -0.9310 -0.0000
vn -0.6943 -0.7196 -0.0000
vn -0.9163 -0.4004 -0.0000
vn -0.9941 -0.1085 -0.0000
vn -0.3650 -0.8601 -0.3563
vn -0.0794 -0.9210 -0.3815
vn -0.6943 -0.6649 -0.2754
vn -0.9163 -0.3699 -0.1532
vn -0.9941 -0.1002 -0.0415
vn -0.0794 -0.7049 -0.7049
vn -0.3650 -0.6583 -0.6583
vn -0.6943 -0.5089 -0.5089
vn -0.9163 -0.2831 -0.2831
vn -0.9941 -0.0767 -0.0767
vn -0.0794 -0.3815 -0.9210
vn -0.3650 -0.3563 -0.8601
vn -0.6943 -0.2754 -0.6649
vn -0.9163 -0.1532 -0.3699
vn -0.9941 -0.0415 -0.1002
vn -0.0794 -0.0000 -0.9968
vn -0.3650 -0.0000 -0.9310
vn -0.6943 -0.0000 -0.7196
vn -0.9163 -0.0000 -0.4004
vn -0.9941 -0.0000 -0.1085
vn -0.0794 0.3815 -0.9210
vn -0.3650 0.3563 -0.8601
vn -0.6943 0.2754 -0.6649
vn -0.9163 0.1532 -0.3699
vn -0.9941 0.0415 -0.1002
vn -0.0794 0.7049 -0.7049
vn -0.3650 0.6583 -0.6583
vn -0.6943 0.5089 -0.5089
vn -0.9163 0.2831 -0.2831
vn -0.9941 0.0767 -0.0767
vn -0.0794 0.9210 -0.3815
vn -0.3650 0.8601 -0.3563
vn -0.6943 0.6649 -0.2754
vn -0.9163 0.3699 -0.1532
vn -0.9941 0.1002 -0.0415
vn -0.0794 0.9968 -0.0000
vn -0.3650 0.9310 -0.0000
vn -0.6943 0.7196 -0.0000
vn -0.9163 0.4004 -0.0000
vn -0.9941 0.1085 -0.0000
vn -0.3650 0.8601 0.3563
vn -0.0794 0.9210 0.3815
vn -0.6943 0.6649 0.2754
vn -0.9163 0.3699 0.1532
vn -0.9941 0.1002 0.0415
vn -0.3650 0.6583 0.6583
vn -0.0794 0.7049 0.7049
vn -0.6943 0.5089 0.5089
vn -0.9163 0.2831 0.2831
vn -0.9941 0.0767 0.0767
vn -0.3650 0.3563 0.8601
vn -0.0794 0.3815 0.9210
vn -0.6943 0.2754 0.6649
vn -0.9163 0.1532 0.3699
vn -0.9941 0.0415 0.1002
vn -0.3650 -0.0000 0.9310
vn -0.9163 -0.0000 0.4004
vn 0.0199 -0.0000 0.9998
vn 0.0199 0.3826 0.9237
vn 0.0199 -0.3826 0.9237
vn 0.0199 -0.7070 0.7070
vn 0.0199 -0.9998 -0.0000
vn 0.0199 -0.9237 0.3826
vn 0.0199 -0.9237 -0.3826
vn 0.0199 -0.7070 -0.7070
vn 0.0199 -0.3826 -0.9237
vn 0.0199 -0.0000 -0.9998
vn 0.0199 0.3826 -0.9237
vn 0.0199 0.7070 -0.7070
vn 0.0199 0.9998 -0.0000
vn 0.0199 0.9237 -0.3826
vn 0.0199 0.9237 0.3826
vn 0.0199 0.7070 0.7070
vn -0.3827 -0.0000 0.9239
vn -0.7071 -0.0000 0.7071
vn -0.9239 -0.0000 0.3827
vn -0.9239 -0.0000 -0.3827
vn -0.7071 -0.0000 -0.7071
vn -0.3827 -0.0000 -0.9239
vn 0.3827 -0.0000 -0.9239
vn 0.7071 -0.0000 -0.7071
vn 0.9239 -0.0000 -0.3827
vn 0.9239 -0.0000 0.3827
vn 0.7071 -0.0000 0.7071
vn 0.3827 -0.0000 0.9239
vt 0.516940 0.858644
vt 0.534562 0.891592
vt 0.508009 0.869263
vt 0.543492 0.880972
vt 0.576440 0.863351
vt 0.554111 0.889903
vt 0.528649 0.823161
vt 0.565416 0.800997
vt 0.539268 0.832092
vt 0.506320 0.849714
vt 0.220048 0.035925
vt 0.254741 0.001232
vt 0.254741 0.035925
vt 0.594323 0.820526
vt 0.591968 0.823326
vt 0.179421 0.001232
vt 0.220048 0.001232
vt 0.565820 0.854420
vt 0.602588 0.832256
vt 0.630259 0.827219
vt 0.554797 0.792067
vt 0.567771 0.798197
vt 0.179421 0.035925
vt 0.151295 0.001232
vt 0.641145 0.812641
vt 0.555013 0.763942
vt 0.567508 0.750717
vt 0.680256 0.869263
vt 0.718499 0.877690
vt 0.706808 0.891592
vt 0.691947 0.855361
vt 0.151295 0.035925
vt 0.085969 0.001232
vt 0.516706 0.707996
vt 0.598330 0.761857
vt 0.624883 0.784186
vt 0.641051 0.711056
vt 0.667603 0.733384
vt 0.649115 0.728418
vt 0.631083 0.749861
vt 0.635872 0.752495
vt 0.910102 0.029808
vt 0.917071 0.025087
vt 0.916898 0.030018
vt 0.898060 0.009748
vt 0.895211 0.013835
vt 0.895046 0.010530
vt 0.892255 0.011196
vt 0.889528 0.012950
vt 0.889515 0.011814
vt 0.923883 0.025362
vt 0.923688 0.030271
vt 0.893677 0.007563
vt 0.896160 0.005747
vt 0.891356 0.009196
vt 0.889077 0.010781
vt 0.930635 0.025661
vt 0.930479 0.030550
vt 0.891328 0.005326
vt 0.892966 0.002746
vt 0.889791 0.007687
vt 0.888277 0.009993
vt 0.937315 0.030820
vt 0.937292 0.025866
vt 0.888924 0.001113
vt 0.888335 0.004102
vt 0.887786 0.006861
vt 0.887244 0.009558
vt 0.829094 0.030956
vt 0.835758 0.025784
vt 0.835924 0.030669
vt 0.885110 0.004093
vt 0.884574 0.001096
vt 0.885622 0.006851
vt 0.886125 0.009553
vt 0.842709 0.030369
vt 0.842504 0.025465
vt 0.880505 0.002663
vt 0.882110 0.005258
vt 0.883603 0.007638
vt 0.885084 0.009962
vt 0.849493 0.030099
vt 0.849307 0.025176
vt 0.879722 0.007450
vt 0.877246 0.005604
vt 0.882017 0.009132
vt 0.884280 0.010733
vt 0.856283 0.029868
vt 0.856135 0.024931
vt 0.878311 0.010423
vt 0.875291 0.009596
vt 0.881101 0.011129
vt 0.883829 0.011773
vt 0.863078 0.029691
vt 0.862975 0.024744
vt 0.874919 0.014104
vt 0.878089 0.013746
vt 0.880991 0.013348
vt 0.883803 0.012910
vt 0.869875 0.029573
vt 0.869835 0.024619
vt 0.879123 0.016988
vt 0.876220 0.018548
vt 0.881735 0.015478
vt 0.884216 0.013974
vt 0.876654 0.029532
vt 0.876725 0.024609
vt 0.879205 0.022312
vt 0.881399 0.019666
vt 0.883278 0.017192
vt 0.885003 0.014801
vt 0.883355 0.029562
vt 0.883613 0.024828
vt 0.884696 0.021272
vt 0.885439 0.018153
vt 0.886071 0.015251
vt 0.889592 0.024849
vt 0.889819 0.029580
vt 0.888599 0.021269
vt 0.887852 0.018176
vt 0.887236 0.015264
vt 0.896472 0.024653
vt 0.896521 0.029578
vt 0.891848 0.019675
vt 0.893987 0.022365
vt 0.889993 0.017215
vt 0.888300 0.014817
vt 0.903365 0.024703
vt 0.903303 0.029657
vt 0.894132 0.017037
vt 0.896990 0.018646
vt 0.891553 0.015534
vt 0.889106 0.014004
vt 0.910230 0.024861
vt 0.898360 0.014242
vt 0.892331 0.013418
vt 0.905758 0.188470
vt 0.900166 0.188311
vt 0.911346 0.188644
vt 0.916932 0.188860
vt 0.928098 0.189422
vt 0.922517 0.189120
vt 0.838727 0.189422
vt 0.844304 0.189105
vt 0.849884 0.188831
vt 0.855466 0.188600
vt 0.861050 0.188411
vt 0.866635 0.188266
vt 0.872221 0.188165
vt 0.883397 0.188091
vt 0.877808 0.188106
vt 0.888986 0.188121
vt 0.894575 0.188194
vt 0.138711 0.044527
vt 0.155029 0.055431
vt 0.144126 0.071748
vt 0.537193 0.869762
vt 0.550311 0.845911
vt 0.133709 0.069676
vt 0.138047 0.073351
vt 0.133045 0.071279
vt 0.138711 0.071748
vt 0.144126 0.073483
vt 0.138711 0.073483
vt 0.149792 0.071279
vt 0.144789 0.073351
vt 0.149128 0.069676
vt 0.154183 0.067074
vt 0.150355 0.070903
vt 0.152957 0.065847
vt 0.156631 0.061509
vt 0.154559 0.066511
vt 0.155029 0.060845
vt 0.156763 0.055431
vt 0.156763 0.060845
vt 0.154559 0.049764
vt 0.156631 0.054767
vt 0.152957 0.050428
vt 0.150355 0.045373
vt 0.154183 0.049202
vt 0.149128 0.046599
vt 0.144789 0.042925
vt 0.149792 0.044997
vt 0.144126 0.044527
vt 0.138711 0.042793
vt 0.144126 0.042793
vt 0.133045 0.044997
vt 0.138047 0.042925
vt 0.133709 0.046599
vt 0.128653 0.049202
vt 0.132482 0.045373
vt 0.129880 0.050428
vt 0.126205 0.054767
vt 0.128277 0.049764
vt 0.127808 0.055431
vt 0.126073 0.060845
vt 0.126073 0.055431
vt 0.127808 0.060845
vt 0.128277 0.066511
vt 0.126205 0.061509
vt 0.129880 0.065847
vt 0.132482 0.070903
vt 0.128653 0.067074
vt 0.085969 0.035925
vt 0.505015 0.721898
vt 0.644326 0.725783
vt 0.638893 0.725182
vt 0.654056 0.737933
vt 0.652532 0.732684
vt 0.653455 0.743366
vt 0.633644 0.726706
vt 0.629378 0.730123
vt 0.650821 0.748155
vt 0.626743 0.734912
vt 0.646554 0.751572
vt 0.641305 0.753096
vt 0.626143 0.740345
vt 0.627666 0.745594
vt 0.829105 0.026005
vt 0.527554 0.857727
vt 0.529064 0.862927
vt 0.532449 0.867153
vt 0.542575 0.870358
vt 0.528150 0.852345
vt 0.547775 0.868848
vt 0.552001 0.865463
vt 0.530759 0.847601
vt 0.554610 0.860719
vt 0.534985 0.844216
vt 0.540185 0.842707
vt 0.555206 0.855337
vt 0.553696 0.850138
vt 0.545567 0.843302
s 1
usemtl HandleSurface
f 2/1/1 3/2/1 1/3/1
f 4/4/2 7/5/2 3/6/2
f 5/7/3 12/8/3 6/9/3
f 6/9/3 1/10/3 5/7/3
f 7/11/4 1/12/4 3/13/4
f 12/8/5 13/14/5 9/15/5
f 7/11/4 11/16/4 5/17/4
f 6/9/5 9/15/5 8/18/5
f 8/18/2 10/19/2 7/5/2
f 10/19/2 13/14/2 14/20/2
f 11/21/3 16/22/3 12/8/3
f 10/23/6 15/24/7 11/16/6
f 14/20/2 13/14/2 17/25/2
f 16/22/3 15/26/3 18/27/3
f 20/28/4 21/29/4 19/30/4
f 14/20/2 22/31/2 20/28/2
f 14/32/7 19/33/1 15/24/7
f 15/26/3 21/34/3 18/27/3
f 13/14/8 18/35/8 17/36/8
f 21/37/9 22/38/9 32/39/9
f 18/35/9 26/40/9 31/41/9
f 39/42/10 48/43/11 45/44/12
f 48/45/11 42/46/13 47/47/14
f 42/46/13 46/48/15 47/47/14
f 46/48/15 40/49/16 44/50/17
f 45/44/12 53/51/18 50/52/19
f 48/45/11 52/53/20 53/54/18
f 52/53/20 46/48/15 51/55/21
f 51/55/21 44/50/17 49/56/22
f 50/52/19 58/57/23 55/58/24
f 53/54/18 57/59/25 58/60/23
f 52/53/20 56/61/26 57/59/25
f 51/55/21 54/62/27 56/61/26
f 60/63/28 58/57/23 63/64/29
f 63/65/29 57/59/25 62/66/30
f 62/66/30 56/61/26 61/67/31
f 61/67/31 54/62/27 59/68/32
f 60/69/28 68/70/33 65/71/34
f 63/65/29 67/72/35 68/73/33
f 62/66/30 66/74/36 67/72/35
f 61/67/31 64/75/37 66/74/36
f 70/76/38 68/70/33 73/77/39
f 73/78/39 67/72/35 72/79/40
f 72/79/40 66/74/36 71/80/41
f 71/80/41 64/75/37 69/81/42
f 75/82/43 73/77/39 78/83/44
f 73/78/39 77/84/45 78/85/44
f 72/79/40 76/86/46 77/84/45
f 71/80/41 74/87/47 76/86/46
f 80/88/48 78/83/44 83/89/49
f 78/85/44 82/90/50 83/91/49
f 82/90/50 76/86/46 81/92/51
f 81/92/51 74/87/47 79/93/52
f 85/94/53 83/89/49 88/95/54
f 88/96/54 82/90/50 87/97/55
f 82/90/50 86/98/56 87/97/55
f 86/98/56 79/93/52 84/99/57
f 90/100/58 88/95/54 93/101/59
f 88/96/54 92/102/60 93/103/59
f 92/102/60 86/98/56 91/104/61
f 86/98/56 89/105/62 91/104/61
f 95/106/63 93/101/59 98/107/64
f 98/108/64 92/102/60 97/109/65
f 97/109/65 91/104/61 96/110/66
f 96/110/66 89/105/62 94/111/67
f 100/112/68 98/107/64 103/113/69
f 103/113/69 97/109/65 102/114/70
f 97/109/65 101/115/71 102/114/70
f 96/110/66 99/116/72 101/115/71
f 100/112/68 108/117/73 105/118/74
f 108/117/73 102/114/70 107/119/75
f 107/119/75 101/115/71 106/120/76
f 101/115/71 104/121/77 106/120/76
f 105/118/74 113/122/78 110/123/79
f 108/117/73 112/124/80 113/125/78
f 107/119/75 111/126/81 112/124/80
f 106/120/76 109/127/82 111/126/81
f 110/123/79 118/128/83 115/129/84
f 113/125/78 117/130/85 118/131/83
f 112/124/80 116/132/86 117/130/85
f 111/126/81 114/133/87 116/132/86
f 115/129/84 41/134/88 39/42/10
f 118/131/83 42/46/13 41/135/88
f 42/46/13 116/132/86 43/136/89
f 43/136/89 114/133/87 40/49/16
f 45/44/12 34/137/90 39/42/10
f 89/105/62 69/81/42 49/56/22
f 39/42/10 35/138/91 115/129/84
f 50/52/19 36/139/92 45/44/12
f 55/58/24 33/140/93 50/52/19
f 55/58/24 32/141/94 38/142/95
f 65/71/34 32/143/94 60/69/28
f 70/76/38 30/144/96 65/71/34
f 75/82/43 28/145/97 70/76/38
f 80/88/48 24/146/98 75/82/43
f 85/94/53 23/147/99 80/88/48
f 90/100/58 25/148/100 85/94/53
f 95/106/63 29/149/101 90/100/58
f 95/106/63 26/150/102 27/151/103
f 105/118/74 26/150/102 100/112/68
f 110/123/79 31/152/104 105/118/74
f 115/129/84 37/153/105 110/123/79
f 129/154/5 125/155/5 121/156/5
f 4/4/5 2/1/5 148/157/5
f 6/9/5 8/18/5 139/158/5
f 119/159/2 136/160/106 135/161/2
f 120/162/106 137/163/107 136/164/106
f 121/156/107 138/165/108 137/166/107
f 122/167/108 139/168/9 138/169/108
f 123/170/9 140/171/109 139/172/9
f 124/173/109 141/174/110 140/175/109
f 125/155/110 142/176/111 141/177/110
f 126/178/111 143/179/3 142/180/111
f 127/181/3 144/182/112 143/183/3
f 128/184/112 145/185/113 144/186/112
f 129/154/113 146/187/114 145/188/113
f 130/189/114 147/190/1 146/191/114
f 131/192/1 148/193/115 147/194/1
f 132/195/115 149/196/116 148/197/115
f 133/198/116 150/199/117 149/200/116
f 134/201/117 135/202/2 150/203/117
f 2/1/1 4/4/1 3/2/1
f 4/4/2 8/18/2 7/5/2
f 5/7/3 11/21/3 12/8/3
f 6/9/3 2/1/3 1/10/3
f 7/11/4 5/17/4 1/12/4
f 12/8/5 16/22/5 13/14/5
f 7/11/4 10/23/4 11/16/4
f 6/9/5 12/8/5 9/15/5
f 8/18/2 9/15/2 10/19/2
f 10/19/2 9/15/2 13/14/2
f 11/21/3 15/26/3 16/22/3
f 10/23/6 14/32/7 15/24/7
f 20/28/4 22/31/4 21/29/4
f 14/20/2 17/25/2 22/31/2
f 14/32/7 20/204/1 19/33/1
f 15/26/3 19/205/3 21/34/3
f 13/14/8 16/22/8 18/35/8
f 30/206/9 28/207/9 21/37/9
f 22/38/9 33/208/9 38/209/9
f 32/39/9 30/206/9 21/37/9
f 22/38/9 38/209/9 32/39/9
f 36/210/9 33/208/9 22/38/9
f 21/37/9 28/207/9 24/211/9
f 21/37/9 24/211/9 23/212/9
f 34/213/9 36/210/9 22/38/9
f 34/213/9 22/38/9 17/36/9
f 18/35/9 21/37/9 23/212/9
f 18/35/9 23/212/9 25/214/9
f 35/215/9 34/213/9 17/36/9
f 37/216/9 35/215/9 17/36/9
f 18/35/9 25/214/9 29/217/9
f 18/35/9 29/217/9 27/218/9
f 37/216/9 17/36/9 18/35/9
f 31/41/9 37/216/9 18/35/9
f 18/35/9 27/218/9 26/40/9
f 39/42/10 41/134/88 48/43/11
f 48/45/11 41/135/88 42/46/13
f 42/46/13 43/136/89 46/48/15
f 46/48/15 43/136/89 40/49/16
f 45/44/12 48/43/11 53/51/18
f 48/45/11 47/47/14 52/53/20
f 52/53/20 47/47/14 46/48/15
f 51/55/21 46/48/15 44/50/17
f 50/52/19 53/51/18 58/57/23
f 53/54/18 52/53/20 57/59/25
f 52/53/20 51/55/21 56/61/26
f 51/55/21 49/56/22 54/62/27
f 60/63/28 55/58/24 58/57/23
f 63/65/29 58/60/23 57/59/25
f 62/66/30 57/59/25 56/61/26
f 61/67/31 56/61/26 54/62/27
f 60/69/28 63/219/29 68/70/33
f 63/65/29 62/66/30 67/72/35
f 62/66/30 61/67/31 66/74/36
f 61/67/31 59/68/32 64/75/37
f 70/76/38 65/71/34 68/70/33
f 73/78/39 68/73/33 67/72/35
f 72/79/40 67/72/35 66/74/36
f 71/80/41 66/74/36 64/75/37
f 75/82/43 70/76/38 73/77/39
f 73/78/39 72/79/40 77/84/45
f 72/79/40 71/80/41 76/86/46
f 71/80/41 69/81/42 74/87/47
f 80/88/48 75/82/43 78/83/44
f 78/85/44 77/84/45 82/90/50
f 82/90/50 77/84/45 76/86/46
f 81/92/51 76/86/46 74/87/47
f 85/94/53 80/88/48 83/89/49
f 88/96/54 83/91/49 82/90/50
f 82/90/50 81/92/51 86/98/56
f 86/98/56 81/92/51 79/93/52
f 90/100/58 85/94/53 88/95/54
f 88/96/54 87/97/55 92/102/60
f 92/102/60 87/97/55 86/98/56
f 86/98/56 84/99/57 89/105/62
f 95/106/63 90/100/58 93/101/59
f 98/108/64 93/103/59 92/102/60
f 97/109/65 92/102/60 91/104/61
f 96/110/66 91/104/61 89/105/62
f 100/112/68 95/106/63 98/107/64
f 103/113/69 98/108/64 97/109/65
f 97/109/65 96/110/66 101/115/71
f 96/110/66 94/111/67 99/116/72
f 100/112/68 103/113/69 108/117/73
f 108/117/73 103/113/69 102/114/70
f 107/119/75 102/114/70 101/115/71
f 101/115/71 99/116/72 104/121/77
f 105/118/74 108/117/73 113/122/78
f 108/117/73 107/119/75 112/124/80
f 107/119/75 106/120/76 111/126/81
f 106/120/76 104/121/77 109/127/82
f 110/123/79 113/122/78 118/128/83
f 113/125/78 112/124/80 117/130/85
f 112/124/80 111/126/81 116/132/86
f 111/126/81 109/127/82 114/133/87
f 115/129/84 118/128/83 41/134/88
f 118/131/83 117/130/85 42/46/13
f 42/46/13 117/130/85 116/132/86
f 43/136/89 116/132/86 114/133/87
f 45/44/12 36/139/92 34/137/90
f 49/56/22 44/50/17 40/49/16
f 40/49/16 114/133/87 109/127/82
f 109/127/82 104/121/77 99/116/72
f 99/116/72 94/111/67 89/105/62
f 89/105/62 84/99/57 79/93/52
f 79/93/52 74/87/47 69/81/42
f 69/81/42 64/75/37 59/68/32
f 59/68/32 54/62/27 49/56/22
f 49/56/22 40/49/16 109/127/82
f 109/127/82 99/116/72 89/105/62
f 89/105/62 79/93/52 69/81/42
f 69/81/42 59/68/32 49/56/22
f 49/56/22 109/127/82 89/105/62
f 39/42/10 34/137/90 35/138/91
f 50/52/19 33/140/93 36/139/92
f 55/58/24 38/142/95 33/140/93
f 55/58/24 60/63/28 32/141/94
f 65/71/34 30/144/96 32/143/94
f 70/76/38 28/145/97 30/144/96
f 75/82/43 24/146/98 28/145/97
f 80/88/48 23/147/99 24/146/98
f 85/94/53 25/148/100 23/147/99
f 90/100/58 29/149/101 25/148/100
f 95/106/63 27/151/103 29/149/101
f 95/106/63 100/112/68 26/150/102
f 105/118/74 31/152/104 26/150/102
f 110/123/79 37/153/105 31/152/104
f 115/129/84 35/138/91 37/153/105
f 121/156/5 120/162/5 119/159/5
f 119/159/5 134/201/5 133/198/5
f 133/198/5 132/195/5 131/192/5
f 131/192/5 130/189/5 129/154/5
f 129/154/5 128/184/5 127/181/5
f 127/181/5 126/178/5 125/155/5
f 125/155/5 124/173/5 123/170/5
f 123/170/5 122/167/5 121/156/5
f 121/156/5 119/159/5 133/198/5
f 133/198/5 131/192/5 129/154/5
f 129/154/5 127/181/5 125/155/5
f 125/155/5 123/170/5 121/156/5
f 121/156/5 133/198/5 129/154/5
f 2/1/5 145/220/5 146/221/5
f 2/1/5 146/221/5 147/222/5
f 148/157/5 149/223/5 4/4/5
f 2/1/5 147/222/5 148/157/5
f 144/224/5 145/220/5 2/1/5
f 4/4/5 149/223/5 150/225/5
f 4/4/5 150/225/5 135/226/5
f 144/224/5 2/1/5 6/9/5
f 143/227/5 144/224/5 6/9/5
f 8/18/5 4/4/5 135/226/5
f 8/18/5 135/226/5 136/228/5
f 142/229/5 143/227/5 6/9/5
f 141/230/5 142/229/5 6/9/5
f 8/18/5 136/228/5 137/231/5
f 8/18/5 137/231/5 138/232/5
f 140/233/5 141/230/5 6/9/5
f 8/18/5 138/232/5 139/158/5
f 139/158/5 140/233/5 6/9/5
f 119/159/2 120/162/106 136/160/106
f 120/162/106 121/156/107 137/163/107
f 121/156/107 122/167/108 138/165/108
f 122/167/108 123/170/9 139/168/9
f 123/170/9 124/173/109 140/171/109
f 124/173/109 125/155/110 141/174/110
f 125/155/110 126/178/111 142/176/111
f 126/178/111 127/181/3 143/179/3
f 127/181/3 128/184/112 144/182/112
f 128/184/112 129/154/113 145/185/113
f 129/154/113 130/189/114 146/187/114
f 130/189/114 131/192/1 147/190/1
f 131/192/1 132/195/115 148/193/115
f 132/195/115 133/198/116 149/196/116
f 133/198/116 134/201/117 150/199/117
f 134/201/117 119/159/2 135/202/2
o Screw.014
v -0.002770 -0.000088 0.004162
v -0.002770 0.000745 0.004162
v -0.004152 -0.000088 0.002785
v -0.004152 0.000745 0.002785
v -0.004902 -0.000088 0.000984
v -0.004902 0.000745 0.000984
v -0.004906 -0.000088 -0.000967
v -0.004906 0.000745 -0.000967
v -0.004162 -0.000088 -0.002770
v -0.004162 0.000745 -0.002770
v -0.002785 -0.000088 -0.004152
v -0.002785 0.000745 -0.004152
v -0.000984 -0.000088 -0.004902
v -0.000984 0.000745 -0.004902
v 0.000967 -0.000088 -0.004906
v 0.000967 0.000745 -0.004906
v 0.002770 -0.000088 -0.004162
v 0.002770 0.000745 -0.004162
v 0.004152 -0.000088 -0.002785
v 0.004152 0.000745 -0.002785
v 0.004902 -0.000088 -0.000984
v 0.004902 0.000745 -0.000984
v 0.004906 -0.000088 0.000967
v 0.004906 0.000745 0.000967
v 0.004162 -0.000088 0.002770
v 0.004162 0.000745 0.002770
v 0.002785 -0.000088 0.004152
v 0.002785 0.000745 0.004152
v 0.000984 -0.000088 0.004902
v 0.000984 0.000745 0.004902
v -0.000967 -0.000088 0.004906
v -0.000967 0.000745 0.004906
v -0.003596 0.000745 0.002412
v -0.002399 0.000745 0.003604
v -0.004245 0.000745 0.000852
v -0.004248 0.000745 -0.000837
v -0.003604 0.000745 -0.002399
v -0.002412 0.000745 -0.003596
v -0.000852 0.000745 -0.004245
v 0.000837 0.000745 -0.004248
v 0.002399 0.000745 -0.003604
v 0.003596 0.000745 -0.002412
v 0.004245 0.000745 -0.000852
v 0.004248 0.000745 0.000837
v 0.003604 0.000745 0.002399
v 0.002412 0.000745 0.003596
v 0.000852 0.000745 0.004245
v -0.000837 0.000745 0.004248
v -0.003596 0.001618 0.002367
v -0.002399 0.001618 0.003604
v -0.004245 0.001618 0.000302
v -0.004248 0.001618 -0.000297
v -0.003604 0.001618 -0.002355
v -0.002412 0.001618 -0.003596
v -0.000852 0.001618 -0.004245
v 0.000837 0.001618 -0.004248
v 0.002399 0.001618 -0.003604
v 0.003596 0.001618 -0.002367
v 0.004245 0.001618 -0.000303
v 0.004248 0.001618 0.000297
v 0.003604 0.001618 0.002355
v 0.002412 0.001618 0.003596
v 0.000852 0.001618 0.004245
v -0.000837 0.001618 0.004248
v -0.003261 0.002167 0.002147
v -0.002175 0.002167 0.003268
v -0.003849 0.002167 0.000479
v -0.003852 0.002167 -0.000471
v -0.003268 0.002167 -0.002135
v -0.002187 0.002167 -0.003261
v -0.000773 0.002167 -0.003849
v 0.000759 0.002167 -0.003852
v 0.002175 0.002167 -0.003268
v 0.003261 0.002167 -0.002147
v 0.003849 0.002167 -0.000479
v 0.003852 0.002167 0.000470
v 0.003268 0.002167 0.002135
v 0.002187 0.002167 0.003261
v 0.000773 0.002167 0.003849
v -0.000759 0.002167 0.003852
vn 0.1933 -0.0000 -0.9811
vn 0.5541 -0.0000 -0.8325
vn -0.5570 -0.0000 -0.8305
vn -0.8325 -0.0000 -0.5541
vn 0.8305 -0.0000 -0.5570
vn -0.0000 1.0000 -0.0000
vn 0.8325 -0.0000 0.5541
vn 0.9811 -0.0000 0.1933
vn 0.9804 -0.0000 -0.1968
vn 0.8305 -0.0000 -0.5571
vn 0.5570 -0.0000 0.8305
vn -0.5541 -0.0000 0.8325
vn -0.1933 -0.0000 0.9811
vn -0.8310 0.0227 0.5558
vn -0.5564 0.0055 0.8309
vn -0.8445 0.0546 0.5327
vn -0.9804 -0.0000 0.1968
vn -0.8305 -0.0000 0.5571
vn -0.8305 -0.0000 0.5570
vn -0.6923 0.5822 0.4264
vn -0.4533 0.5918 0.6665
vn -0.6880 0.5895 0.4233
vn 0.1968 -0.0000 0.9804
vn 0.5571 -0.0000 0.8305
vn -0.1968 -0.0000 -0.9804
vn -0.5571 -0.0000 -0.8305
vn 0.6934 0.5823 0.4244
vn 0.4556 0.5918 0.6650
vn 0.4547 0.5918 0.6656
vn -0.9811 -0.0000 -0.1933
vn 0.8310 0.0227 -0.5558
vn 0.5564 0.0055 -0.8309
vn 0.8445 0.0545 -0.5327
vn -0.9709 0.1013 0.2170
vn -0.9931 0.0615 0.0996
vn 0.9709 0.1012 -0.2170
vn 0.9931 0.0615 -0.0997
vn 0.9720 0.0982 0.2136
vn 0.9938 0.0586 0.0947
vn 0.0010 0.3059 0.9520
vn 0.0006 0.3006 0.9538
vn 0.0006 0.3004 0.9538
vn -0.9720 0.0981 -0.2136
vn -0.8462 0.0536 -0.5301
vn -0.8330 0.0225 -0.5529
vn 0.8463 0.0536 0.5301
vn 0.8330 0.0225 0.5529
vn -0.5593 0.0054 -0.8289
vn 0.5593 0.0054 0.8289
vn -0.4556 0.5918 -0.6650
vn -0.1587 0.5918 -0.7903
vn -0.4547 0.5918 -0.6656
vn 0.1558 0.5918 -0.7908
vn 0.4523 0.5918 -0.6672
vn -0.9938 0.0586 -0.0948
vn -0.0010 0.3064 -0.9519
vn -0.0006 0.3010 -0.9536
vn -0.0006 0.3008 -0.9537
vn 0.1587 0.5918 0.7903
vn -0.1558 0.5918 0.7908
vn -0.6934 0.5823 -0.4244
vn 0.6923 0.5822 -0.4264
vn 0.4533 0.5918 -0.6665
vn 0.6880 0.5895 -0.4233
vn -0.8130 0.5207 0.2607
vn -0.8215 0.5083 0.2583
vn 0.8129 0.5207 -0.2608
vn 0.8215 0.5084 -0.2583
vn -0.4523 0.5918 0.6672
vn -0.8124 0.5223 -0.2592
vn -0.6891 0.5895 -0.4214
vn 0.8124 0.5223 0.2591
vn 0.6891 0.5895 0.4214
vn -0.8208 0.5103 -0.2568
vn 0.8208 0.5102 0.2567
vn 0.0011 0.3064 0.9519
vn -0.0011 0.3068 -0.9518
vt 0.044632 0.085952
vt 0.041796 0.084309
vt 0.044705 0.084450
vt 0.070120 0.106339
vt 0.066758 0.107775
vt 0.066758 0.106339
vt 0.029772 0.106339
vt 0.026410 0.107775
vt 0.026410 0.106339
vt 0.046359 0.090569
vt 0.043222 0.089435
vt 0.046584 0.089435
vt 0.039859 0.106339
vt 0.036497 0.107775
vt 0.036497 0.106339
vt 0.023047 0.107775
vt 0.023047 0.106339
vt 0.033135 0.106339
vt 0.029772 0.107775
vt 0.043222 0.106339
vt 0.039859 0.107775
vt 0.053309 0.106339
vt 0.049946 0.107775
vt 0.049946 0.106339
vt 0.033135 0.107775
vt 0.021505 0.086089
vt 0.018525 0.084725
vt 0.021433 0.084586
vt 0.015616 0.084865
vt 0.018597 0.086228
vt 0.015634 0.086371
vt 0.060033 0.106339
vt 0.056671 0.107775
vt 0.056671 0.106339
vt 0.016134 0.088369
vt 0.019158 0.087976
vt 0.016826 0.089316
vt 0.046584 0.106339
vt 0.043222 0.107775
vt 0.073483 0.106339
vt 0.070120 0.107775
vt 0.029977 0.087705
vt 0.026929 0.087604
vt 0.027276 0.086481
vt 0.063396 0.106339
vt 0.060033 0.107775
vt 0.019685 0.107775
vt 0.019685 0.106339
vt 0.043447 0.105206
vt 0.046359 0.105206
vt 0.053309 0.107775
vt 0.038888 0.084168
vt 0.041724 0.085811
vt 0.038761 0.085669
vt 0.012710 0.085035
vt 0.011911 0.086624
vt 0.035979 0.084058
vt 0.035032 0.085563
vt 0.033067 0.084060
vt 0.033999 0.085564
vt 0.000877 0.011494
vt 0.013263 0.004990
vt 0.014287 0.005626
vt 0.009812 0.085316
vt 0.007196 0.087186
vt 0.006926 0.085704
vt 0.030284 0.085669
vt 0.030158 0.084168
vt 0.004261 0.087611
vt 0.004045 0.086122
vt 0.027321 0.085810
vt 0.027249 0.084307
vt 0.049885 0.087982
vt 0.047540 0.086093
vt 0.050338 0.086897
vt 0.044711 0.087125
vt 0.041769 0.086482
vt 0.024341 0.084447
vt 0.047613 0.084590
vt 0.010883 0.086724
vt 0.014697 0.006575
vt 0.002310 0.013078
vt 0.001287 0.012442
vt 0.024334 0.087122
vt 0.024413 0.085949
vt 0.052909 0.088376
vt 0.047348 0.087252
vt 0.039067 0.087706
vt 0.042115 0.087605
vt 0.039664 0.088715
vt 0.014645 0.091445
vt 0.013514 0.091025
vt 0.037289 0.090624
vt 0.036204 0.090097
vt 0.021696 0.087248
vt 0.018706 0.086891
vt 0.054393 0.091445
vt 0.052217 0.089322
vt 0.031750 0.090619
vt 0.029379 0.088714
vt 0.063396 0.107775
vt 0.046584 0.107775
vt 0.009510 0.016280
vt 0.004384 0.015302
vt 0.014471 0.007760
vt 0.001164 0.086540
vt 0.000877 0.007270
vt 0.003644 0.002846
vt 0.008704 0.001740
vt 0.055520 0.091019
vt 0.032831 0.090086
vt 0.043447 0.090569
vt 0.049049 0.091683
vt 0.073483 0.107775
vt 0.049690 0.090722
vt 0.052068 0.093100
vt 0.053355 0.096206
vt 0.053355 0.099568
vt 0.052068 0.102675
vt 0.049690 0.105052
vt 0.040115 0.105052
vt 0.037738 0.102675
vt 0.036451 0.099568
vt 0.036451 0.096206
vt 0.037738 0.093100
vt 0.040115 0.090722
vt 0.040757 0.091683
vt 0.051107 0.093741
vt 0.038698 0.093741
vt 0.037584 0.096431
vt 0.052222 0.096431
vt 0.052222 0.099343
vt 0.037584 0.099343
vt 0.051107 0.102033
vt 0.038698 0.102033
vt 0.049049 0.104092
vt 0.040757 0.104092
vt 0.001102 0.010309
vt 0.014697 0.010800
vt 0.013760 0.013321
vt 0.011929 0.015223
vt 0.006870 0.016330
vt 0.001380 0.088029
vt 0.011189 0.002767
vt 0.001813 0.004748
vt 0.006064 0.001790
s 1
usemtl Chrome
f 206/234/118 191/235/119 190/236/118
f 162/237/120 159/238/121 160/239/121
f 170/240/122 167/241/119 168/242/119
f 188/243/123 164/244/123 162/245/123
f 176/246/124 173/247/125 174/248/125
f 168/242/119 165/249/118 166/250/118
f 172/251/126 169/252/127 170/240/122
f 178/253/128 175/254/124 176/246/124
f 152/255/129 181/256/130 182/257/130
f 174/248/125 171/258/126 172/251/126
f 214/259/130 184/260/129 198/261/130
f 183/262/131 200/263/132 199/264/133
f 156/265/134 153/266/135 154/267/136
f 199/268/137 216/269/138 215/270/139
f 180/271/140 177/272/141 178/253/128
f 164/273/142 161/274/143 162/237/120
f 211/275/144 228/276/145 212/277/146
f 158/278/147 155/279/134 156/265/134
f 166/250/118 163/280/142 164/281/142
f 196/282/123 197/283/123 180/271/123
f 154/267/136 151/284/129 152/255/129
f 192/285/148 207/286/149 208/287/150
f 185/288/151 199/264/133 201/289/152
f 193/290/153 208/287/150 209/291/154
f 194/292/155 209/291/154 210/293/156
f 209/294/157 218/295/158 202/296/159
f 186/297/160 203/298/161 187/299/162
f 194/292/155 211/300/163 195/301/164
f 187/299/162 204/302/165 188/303/143
f 195/301/164 212/304/166 196/305/141
f 220/306/167 205/307/168 204/308/169
f 222/309/170 207/310/171 206/234/170
f 212/304/166 197/311/140 196/305/141
f 205/307/142 190/236/118 189/312/142
f 186/297/160 201/289/152 202/313/172
f 201/314/173 226/315/174 210/316/175
f 229/317/176 214/259/177 213/318/176
f 228/276/145 213/318/176 212/277/146
f 203/319/178 220/306/167 204/308/169
f 221/320/168 206/234/170 205/307/168
f 208/321/179 223/322/180 224/323/181
f 213/318/140 198/261/130 197/311/140
f 199/268/137 217/324/182 201/325/183
f 208/321/179 225/326/184 209/327/185
f 230/328/177 200/329/186 214/259/177
f 203/319/178 218/330/187 219/331/188
f 211/275/144 226/332/189 227/333/190
f 160/239/121 157/334/147 158/278/147
f 182/257/130 179/335/140 180/271/140
f 183/262/131 184/260/129 200/263/132
f 192/285/148 191/235/119 207/286/149
f 185/288/151 183/262/131 199/264/133
f 193/290/153 192/285/148 208/287/150
f 186/297/160 202/313/172 203/298/161
f 194/292/155 210/293/156 211/300/163
f 187/299/162 203/298/161 204/302/165
f 195/301/164 211/300/163 212/304/166
f 229/336/123 227/337/123 217/338/123
f 204/302/165 189/339/142 188/303/143
f 199/268/137 215/270/139 217/324/182
f 208/321/179 224/323/181 225/326/184
f 224/340/123 222/341/123 220/342/123
f 203/319/178 202/343/191 218/330/187
f 211/275/144 210/344/192 226/332/189
f 201/314/123 209/294/123 202/296/123
f 206/234/118 207/286/149 191/235/119
f 162/237/120 161/274/143 159/238/121
f 170/240/122 169/252/127 167/241/119
f 188/243/123 189/345/123 164/244/123
f 162/245/123 187/346/123 188/243/123
f 176/246/124 175/254/124 173/247/125
f 168/242/119 167/241/119 165/249/118
f 172/251/126 171/258/126 169/252/127
f 178/253/128 177/272/141 175/254/124
f 152/255/129 151/284/129 181/256/130
f 174/248/125 173/247/125 171/258/126
f 214/259/130 200/263/132 184/260/129
f 156/265/134 155/279/134 153/266/135
f 199/268/137 200/329/186 216/269/138
f 180/271/140 179/335/140 177/272/141
f 164/273/142 163/347/142 161/274/143
f 211/275/144 227/333/190 228/276/145
f 158/278/147 157/334/147 155/279/134
f 166/250/118 165/249/118 163/280/142
f 187/346/123 162/245/123 160/348/123
f 160/348/123 158/349/123 156/350/123
f 156/350/123 154/351/123 152/352/123
f 152/352/123 182/353/123 180/271/123
f 180/271/123 178/253/123 176/354/123
f 176/354/123 174/355/123 172/356/123
f 172/356/123 170/357/123 168/358/123
f 168/358/123 166/359/123 164/244/123
f 164/244/123 189/345/123 190/360/123
f 168/358/123 164/244/123 190/360/123
f 186/361/123 187/346/123 160/348/123
f 186/361/123 160/348/123 156/350/123
f 168/358/123 190/360/123 191/362/123
f 168/358/123 191/362/123 192/363/123
f 185/364/123 186/361/123 156/350/123
f 183/365/123 185/364/123 156/350/123
f 172/356/123 168/358/123 192/363/123
f 172/356/123 192/363/123 193/366/123
f 183/365/123 156/350/123 152/352/123
f 184/367/123 183/365/123 152/352/123
f 172/356/123 193/366/123 194/368/123
f 176/354/123 172/356/123 194/368/123
f 198/369/123 184/367/123 152/352/123
f 198/369/123 152/352/123 180/271/123
f 176/354/123 194/368/123 195/370/123
f 176/354/123 195/370/123 196/282/123
f 197/283/123 198/369/123 180/271/123
f 180/271/123 176/354/123 196/282/123
f 154/267/136 153/266/135 151/284/129
f 194/292/155 193/290/153 209/291/154
f 209/294/157 225/371/193 218/295/158
f 220/306/167 221/320/168 205/307/168
f 222/309/170 223/322/180 207/310/171
f 212/304/166 213/318/140 197/311/140
f 205/307/142 206/234/118 190/236/118
f 186/297/160 185/288/151 201/289/152
f 201/314/173 217/338/194 226/315/174
f 229/317/176 230/328/177 214/259/177
f 228/276/145 229/317/176 213/318/176
f 203/319/178 219/331/188 220/306/167
f 221/320/168 222/309/170 206/234/170
f 208/321/179 207/310/171 223/322/180
f 213/318/140 214/259/130 198/261/130
f 230/328/177 216/269/138 200/329/186
f 160/239/121 159/238/121 157/334/147
f 182/257/130 181/256/130 179/335/140
f 217/338/123 215/372/123 216/373/123
f 216/373/123 230/374/123 229/336/123
f 229/336/123 228/375/123 227/337/123
f 227/337/123 226/315/123 217/338/123
f 217/338/123 216/373/123 229/336/123
f 204/302/165 205/376/142 189/339/142
f 220/342/123 219/377/123 218/295/123
f 218/295/123 225/371/123 224/340/123
f 224/340/123 223/378/123 222/341/123
f 222/341/123 221/379/123 220/342/123
f 220/342/123 218/295/123 224/340/123
f 201/314/123 210/316/123 209/294/123
