# Blender 5.0.1
# www.blender.org
mtllib button.mtl
o ButtonExport
g button
v -0.000000 0.015632 0.015341
v -0.003050 0.015331 0.015341
v -0.005982 0.014442 0.015341
v -0.008685 0.012997 0.015341
v -0.011053 0.011053 0.015341
v -0.012997 0.008684 0.015341
v -0.014442 0.005982 0.015341
v -0.015331 0.003050 0.015341
v -0.015632 0.000000 0.015341
v -0.015331 -0.003050 0.015341
v -0.014442 -0.005982 0.015341
v -0.012997 -0.008684 0.015341
v -0.011053 -0.011053 0.015341
v -0.008685 -0.012997 0.015341
v -0.005982 -0.014442 0.015341
v -0.003050 -0.015331 0.015341
v -0.000000 -0.015632 0.015341
v 0.003049 -0.015331 0.015341
v 0.005982 -0.014442 0.015341
v 0.008684 -0.012997 0.015341
v 0.011053 -0.011053 0.015341
v 0.012997 -0.008684 0.015341
v 0.014442 -0.005982 0.015341
v 0.015331 -0.003050 0.015341
v 0.015631 0.000000 0.015341
v 0.015331 0.003050 0.015341
v 0.014442 0.005982 0.015341
v 0.012997 0.008684 0.015341
v 0.011053 0.011053 0.015341
v 0.008684 0.012997 0.015341
v 0.005982 0.014442 0.015341
v 0.003049 0.015331 0.015341
v -0.000000 0.000000 0.013944
v -0.000000 0.009610 0.014270
v -0.001875 0.009425 0.014270
v -0.003678 0.008879 0.014270
v -0.005339 0.007990 0.014270
v -0.006796 0.006795 0.014270
v -0.007991 0.005339 0.014270
v -0.008879 0.003678 0.014270
v -0.009426 0.001875 0.014270
v -0.009610 -0.000000 0.014270
v -0.009426 -0.001875 0.014270
v -0.008879 -0.003678 0.014270
v -0.007991 -0.005339 0.014270
v -0.006796 -0.006795 0.014270
v -0.005339 -0.007991 0.014270
v -0.003678 -0.008879 0.014270
v -0.001875 -0.009425 0.014270
v -0.000000 -0.009610 0.014270
v 0.001875 -0.009425 0.014270
v 0.003677 -0.008879 0.014270
v 0.005339 -0.007991 0.014270
v 0.006795 -0.006795 0.014270
v 0.007990 -0.005339 0.014270
v 0.008878 -0.003678 0.014270
v 0.009425 -0.001875 0.014270
v 0.009610 -0.000000 0.014270
v 0.009425 0.001875 0.014270
v 0.008878 0.003678 0.014270
v 0.007990 0.005339 0.014270
v 0.006795 0.006795 0.014270
v 0.005339 0.007990 0.014270
v 0.003677 0.008879 0.014270
v 0.001875 0.009425 0.014270
vn -0.0000 -0.1751 0.9845
vn 0.0342 -0.1718 0.9845
vn 0.0670 -0.1618 0.9845
vn 0.0973 -0.1456 0.9845
vn 0.1238 -0.1238 0.9845
vn 0.1456 -0.0973 0.9845
vn 0.1618 -0.0670 0.9845
vn 0.1718 -0.0342 0.9845
vn 0.1751 -0.0000 0.9845
vn 0.1718 0.0342 0.9845
vn 0.1618 0.0670 0.9845
vn 0.1456 0.0973 0.9845
vn 0.1238 0.1238 0.9845
vn 0.0973 0.1456 0.9845
vn 0.0670 0.1618 0.9845
vn 0.0342 0.1718 0.9845
vn -0.0000 0.1751 0.9845
vn -0.0342 0.1718 0.9845
vn -0.0670 0.1618 0.9845
vn -0.0973 0.1456 0.9845
vn -0.1238 0.1238 0.9845
vn -0.1456 0.0973 0.9845
vn -0.1618 0.0670 0.9845
vn -0.1718 0.0342 0.9845
vn -0.1751 -0.0000 0.9845
vn -0.1718 -0.0342 0.9845
vn -0.1618 -0.0670 0.9845
vn -0.1456 -0.0973 0.9845
vn -0.1238 -0.1238 0.9845
vn -0.0973 -0.1456 0.9845
vn -0.0670 -0.1618 0.9845
vn -0.0342 -0.1718 0.9845
vn -0.0000 -0.0000 1.0000
vn -0.0000 -0.1091 0.9940
vn 0.0213 -0.1070 0.9940
vn 0.0418 -0.1008 0.9940
vn 0.0606 -0.0908 0.9940
vn 0.0772 -0.0772 0.9940
vn 0.0908 -0.0606 0.9940
vn 0.1008 -0.0418 0.9940
vn 0.1070 -0.0213 0.9940
vn 0.1091 -0.0000 0.9940
vn 0.1070 0.0213 0.9940
vn 0.1008 0.0418 0.9940
vn 0.0908 0.0606 0.9940
vn 0.0772 0.0772 0.9940
vn 0.0606 0.0908 0.9940
vn 0.0418 0.1008 0.9940
vn 0.0213 0.1070 0.9940
vn -0.0000 0.1091 0.9940
vn -0.0213 0.1070 0.9940
vn -0.0418 0.1008 0.9940
vn -0.0606 0.0908 0.9940
vn -0.0772 0.0772 0.9940
vn -0.0908 0.0606 0.9940
vn -0.1008 0.0418 0.9940
vn -0.1070 0.0213 0.9940
vn -0.1091 -0.0000 0.9940
vn -0.1070 -0.0213 0.9940
vn -0.1008 -0.0418 0.9940
vn -0.0908 -0.0606 0.9940
vn -0.0772 -0.0772 0.9940
vn -0.0606 -0.0908 0.9940
vn -0.0418 -0.1008 0.9940
vn -0.0213 -0.1070 0.9940
vt 0.756203 0.675215
vt 0.753447 0.677973
vt 0.740828 0.662597
vt 0.750205 0.680139
vt 0.746603 0.681632
vt 0.742779 0.682393
vt 0.738879 0.682394
vt 0.735054 0.681634
vt 0.731451 0.680142
vt 0.728209 0.677975
vt 0.725451 0.675218
vt 0.723284 0.671975
vt 0.721791 0.668372
vt 0.721030 0.664547
vt 0.721029 0.660647
vt 0.721790 0.656822
vt 0.723282 0.653218
vt 0.725449 0.649974
vt 0.728208 0.647216
vt 0.731451 0.645050
vt 0.735055 0.643558
vt 0.738880 0.642798
vt 0.742780 0.642798
vt 0.746605 0.643560
vt 0.750208 0.645053
vt 0.753450 0.647220
vt 0.756207 0.649978
vt 0.758373 0.653221
vt 0.759865 0.656824
vt 0.760625 0.660649
vt 0.760624 0.664548
vt 0.759863 0.668372
vt 0.758370 0.671974
vt 0.769590 0.677970
vt 0.772038 0.672064
vt 0.773286 0.665793
vt 0.773286 0.659399
vt 0.772039 0.653128
vt 0.769593 0.647220
vt 0.766040 0.641904
vt 0.761519 0.637382
vt 0.756202 0.633830
vt 0.750295 0.631384
vt 0.744024 0.630136
vt 0.737630 0.630137
vt 0.731359 0.631384
vt 0.725452 0.633830
vt 0.720135 0.637382
vt 0.715613 0.641902
vt 0.712062 0.647218
vt 0.709615 0.653126
vt 0.708368 0.659396
vt 0.708368 0.665790
vt 0.709615 0.672061
vt 0.712061 0.677969
vt 0.715613 0.683286
vt 0.720133 0.687808
vt 0.725450 0.691360
vt 0.731357 0.693807
vt 0.737628 0.695055
vt 0.744022 0.695055
vt 0.750293 0.693807
vt 0.756200 0.691360
vt 0.761516 0.687807
vt 0.766036 0.683285
s 1
usemtl HandleSurface
f 34/1/34 35/2/35 33/3/33
f 35/2/35 36/4/36 33/3/33
f 36/4/36 37/5/37 33/3/33
f 37/5/37 38/6/38 33/3/33
f 38/6/38 39/7/39 33/3/33
f 39/7/39 40/8/40 33/3/33
f 40/8/40 41/9/41 33/3/33
f 41/9/41 42/10/42 33/3/33
f 42/10/42 43/11/43 33/3/33
f 43/11/43 44/12/44 33/3/33
f 44/12/44 45/13/45 33/3/33
f 45/13/45 46/14/46 33/3/33
f 46/14/46 47/15/47 33/3/33
f 47/15/47 48/16/48 33/3/33
f 48/16/48 49/17/49 33/3/33
f 49/17/49 50/18/50 33/3/33
f 50/18/50 51/19/51 33/3/33
f 51/19/51 52/20/52 33/3/33
f 52/20/52 53/21/53 33/3/33
f 53/21/53 54/22/54 33/3/33
f 54/22/54 55/23/55 33/3/33
f 55/23/55 56/24/56 33/3/33
f 56/24/56 57/25/57 33/3/33
f 57/25/57 58/26/58 33/3/33
f 58/26/58 59/27/59 33/3/33
f 59/27/59 60/28/60 33/3/33
f 60/28/60 61/29/61 33/3/33
f 61/29/61 62/30/62 33/3/33
f 62/30/62 63/31/63 33/3/33
f 63/31/63 64/32/64 33/3/33
f 64/32/64 65/33/65 33/3/33
f 65/33/65 34/1/34 33/3/33
f 32/34/32 34/1/34 65/33/65
f 31/35/31 65/33/65 64/32/64
f 30/36/30 64/32/64 63/31/63
f 29/37/29 63/31/63 62/30/62
f 28/38/28 62/30/62 61/29/61
f 27/39/27 61/29/61 60/28/60
f 26/40/26 60/28/60 59/27/59
f 25/41/25 59/27/59 58/26/58
f 24/42/24 58/26/58 57/25/57
f 23/43/23 57/25/57 56/24/56
f 22/44/22 56/24/56 55/23/55
f 21/45/21 55/23/55 54/22/54
f 20/46/20 54/22/54 53/21/53
f 19/47/19 53/21/53 52/20/52
f 18/48/18 52/20/52 51/19/51
f 18/48/18 50/18/50 17/49/17
f 17/49/17 49/17/49 16/50/16
f 16/50/16 48/16/48 15/51/15
f 15/51/15 47/15/47 14/52/14
f 14/52/14 46/14/46 13/53/13
f 13/53/13 45/13/45 12/54/12
f 12/54/12 44/12/44 11/55/11
f 11/55/11 43/11/43 10/56/10
f 10/56/10 42/10/42 9/57/9
f 9/57/9 41/9/41 8/58/8
f 8/58/8 40/8/40 7/59/7
f 7/59/7 39/7/39 6/60/6
f 6/60/6 38/6/38 5/61/5
f 5/61/5 37/5/37 4/62/4
f 4/62/4 36/4/36 3/63/3
f 3/63/3 35/2/35 2/64/2
f 2/64/2 34/1/34 1/65/1
f 32/34/32 1/65/1 34/1/34
f 31/35/31 32/34/32 65/33/65
f 30/36/30 31/35/31 64/32/64
f 29/37/29 30/36/30 63/31/63
f 28/38/28 29/37/29 62/30/62
f 27/39/27 28/38/28 61/29/61
f 26/40/26 27/39/27 60/28/60
f 25/41/25 26/40/26 59/27/59
f 24/42/24 25/41/25 58/26/58
f 23/43/23 24/42/24 57/25/57
f 22/44/22 23/43/23 56/24/56
f 21/45/21 22/44/22 55/23/55
f 20/46/20 21/45/21 54/22/54
f 19/47/19 20/46/20 53/21/53
f 18/48/18 19/47/19 52/20/52
f 18/48/18 51/19/51 50/18/50
f 17/49/17 50/18/50 49/17/49
f 16/50/16 49/17/49 48/16/48
f 15/51/15 48/16/48 47/15/47
f 14/52/14 47/15/47 46/14/46
f 13/53/13 46/14/46 45/13/45
f 12/54/12 45/13/45 44/12/44
f 11/55/11 44/12/44 43/11/43
f 10/56/10 43/11/43 42/10/42
f 9/57/9 42/10/42 41/9/41
f 8/58/8 41/9/41 40/8/40
f 7/59/7 40/8/40 39/7/39
f 6/60/6 39/7/39 38/6/38
f 5/61/5 38/6/38 37/5/37
f 4/62/4 37/5/37 36/4/36
f 3/63/3 36/4/36 35/2/35
f 2/64/2 35/2/35 34/1/34
