# Blender 5.0.1
# www.blender.org
mtllib field_handle.mtl
o FieldControlExport
g field_handle
v 0.000000 0.003080 -0.007000
v 0.000000 0.001714 -0.006865
v 0.000000 0.000401 -0.006467
v 0.000000 -0.000809 -0.005820
v 0.000000 -0.001870 -0.004950
v 0.000000 -0.002740 -0.003889
v 0.000000 -0.003387 -0.002679
v 0.000000 -0.003785 -0.001366
v 0.000000 -0.003920 0.000000
v 0.000000 -0.003785 0.001366
v 0.000000 -0.003387 0.002679
v 0.000000 -0.002740 0.003889
v 0.000000 -0.001870 0.004950
v 0.000000 -0.000809 0.005820
v 0.000000 0.000401 0.006467
v 0.000000 0.001714 0.006865
v 0.000000 0.003080 0.007000
v 0.000000 0.004446 0.006865
v 0.000000 0.005759 0.006467
v 0.000000 0.006969 0.005820
v 0.000000 0.008030 0.004950
v 0.000000 0.008900 0.003889
v 0.000000 0.009547 0.002679
v 0.000000 0.009946 0.001366
v 0.000000 0.010080 0.000000
v 0.000000 0.009946 -0.001366
v 0.000000 0.009547 -0.002679
v 0.000000 0.008900 -0.003889
v 0.000000 0.008030 -0.004950
v 0.000000 0.006969 -0.005820
v 0.000000 0.005759 -0.006467
v 0.000000 0.004446 -0.006865
v -0.135618 0.003080 -0.007000
v -0.135618 0.001714 -0.006865
v -0.135618 0.000401 -0.006467
v -0.135618 -0.000809 -0.005820
v -0.135618 -0.001870 -0.004950
v -0.135618 -0.002740 -0.003889
v -0.135618 -0.003387 -0.002679
v -0.135618 -0.003785 -0.001366
v -0.135618 -0.003920 0.000000
v -0.135618 -0.003785 0.001366
v -0.135618 -0.003387 0.002679
v -0.135618 -0.002740 0.003889
v -0.135618 -0.001870 0.004950
v -0.135618 -0.000809 0.005820
v -0.135618 0.000401 0.006467
v -0.135618 0.001714 0.006865
v -0.135618 0.003080 0.007000
v -0.135618 0.004446 0.006865
v -0.135618 0.005759 0.006467
v -0.135618 0.006969 0.005820
v -0.135618 0.008030 0.004950
v -0.135618 0.008900 0.003889
v -0.135618 0.009547 0.002679
v -0.135618 0.009946 0.001366
v -0.135618 0.010080 0.000000
v -0.135618 0.009946 -0.001366
v -0.135618 0.009547 -0.002679
v -0.135618 0.008900 -0.003889
v -0.135618 0.008030 -0.004950
v -0.135618 0.006969 -0.005820
v -0.135618 0.005759 -0.006467
v -0.135618 0.004446 -0.006865
v -0.136696 0.001050 -0.010206
v -0.138717 0.001050 -0.010206
v -0.139688 0.002044 -0.005209
v -0.136696 -0.000902 -0.009614
v -0.138717 -0.000902 -0.009614
v -0.139688 0.001048 -0.004907
v -0.136696 -0.002701 -0.008653
v -0.138717 -0.002701 -0.008653
v -0.139688 0.000129 -0.004416
v -0.136696 -0.004278 -0.007358
v -0.138717 -0.004278 -0.007358
v -0.139688 -0.000675 -0.003756
v -0.136696 -0.005572 -0.005781
v -0.138717 -0.005572 -0.005781
v -0.139688 -0.001336 -0.002951
v -0.136696 -0.006534 -0.003982
v -0.138717 -0.006534 -0.003982
v -0.139688 -0.001827 -0.002032
v -0.136696 -0.007126 -0.002030
v -0.138717 -0.007126 -0.002030
v -0.139688 -0.002129 -0.001036
v -0.136696 -0.007326 -0.000000
v -0.138717 -0.007326 -0.000000
v -0.139688 -0.002231 0.000000
v -0.136696 -0.007126 0.002030
v -0.138717 -0.007126 0.002030
v -0.139688 -0.002129 0.001036
v -0.136696 -0.006534 0.003982
v -0.138717 -0.006534 0.003982
v -0.139688 -0.001827 0.002032
v -0.136696 -0.005572 0.005781
v -0.138717 -0.005572 0.005781
v -0.139688 -0.001336 0.002951
v -0.136696 -0.004278 0.007358
v -0.138717 -0.004278 0.007358
v -0.139688 -0.000675 0.003756
v -0.136696 -0.002701 0.008653
v -0.138717 -0.002701 0.008653
v -0.139688 0.000129 0.004416
v -0.136696 -0.000902 0.009614
v -0.138717 -0.000902 0.009614
v -0.139688 0.001048 0.004907
v -0.136696 0.001050 0.010206
v -0.138717 0.001050 0.010206
v -0.139688 0.002044 0.005209
v -0.136696 0.003080 0.010406
v -0.138717 0.003080 0.010406
v -0.139688 0.003080 0.005311
v -0.136696 0.005110 0.010206
v -0.138717 0.005110 0.010206
v -0.139688 0.004116 0.005209
v -0.136696 0.007062 0.009614
v -0.138717 0.007062 0.009614
v -0.139688 0.005113 0.004907
v -0.136696 0.008862 0.008653
v -0.138717 0.008862 0.008653
v -0.139688 0.006031 0.004416
v -0.136696 0.010439 0.007358
v -0.138717 0.010439 0.007358
v -0.139688 0.006836 0.003756
v -0.136696 0.011733 0.005781
v -0.138717 0.011733 0.005781
v -0.139688 0.007496 0.002951
v -0.136696 0.012694 0.003982
v -0.138717 0.012694 0.003982
v -0.139688 0.007987 0.002032
v -0.136696 0.013287 0.002030
v -0.138717 0.013287 0.002030
v -0.139688 0.008289 0.001036
v -0.136696 0.013486 -0.000000
v -0.138717 0.013486 -0.000000
v -0.139688 0.008391 0.000000
v -0.136696 0.013287 -0.002030
v -0.138717 0.013287 -0.002030
v -0.139688 0.008289 -0.001036
v -0.136696 0.012694 -0.003982
v -0.138717 0.012694 -0.003982
v -0.139688 0.007987 -0.002032
v -0.136696 0.011733 -0.005781
v -0.138717 0.011733 -0.005781
v -0.139688 0.007496 -0.002951
v -0.136696 0.010439 -0.007358
v -0.138717 0.010439 -0.007358
v -0.139688 0.006836 -0.003756
v -0.136696 0.008862 -0.008653
v -0.138717 0.008862 -0.008653
v -0.139688 0.006031 -0.004416
v -0.136696 0.007062 -0.009614
v -0.138717 0.007062 -0.009614
v -0.139688 0.005113 -0.004907
v -0.136696 0.005110 -0.010206
v -0.138717 0.005110 -0.010206
v -0.139688 0.004116 -0.005209
v -0.139688 0.003080 -0.005311
v -0.138717 0.003080 -0.010406
v -0.136696 0.003080 -0.010406
v -0.179914 0.003080 -0.004205
v -0.177134 0.003080 -0.006905
v -0.179541 0.003080 -0.005590
v -0.178524 0.003080 -0.006578
v -0.179914 0.002260 -0.004124
v -0.177134 0.001733 -0.006773
v -0.179541 0.001990 -0.005482
v -0.178524 0.001797 -0.006452
v -0.179914 0.001471 -0.003885
v -0.177134 0.000438 -0.006380
v -0.179541 0.000941 -0.005164
v -0.178524 0.000563 -0.006077
v -0.179914 0.000744 -0.003496
v -0.177134 -0.000756 -0.005742
v -0.179541 -0.000025 -0.004648
v -0.178524 -0.000575 -0.005470
v -0.179914 0.000107 -0.002973
v -0.177134 -0.001803 -0.004883
v -0.179541 -0.000872 -0.003953
v -0.178524 -0.001571 -0.004651
v -0.179914 -0.000416 -0.002336
v -0.177134 -0.002661 -0.003836
v -0.179541 -0.001568 -0.003105
v -0.178524 -0.002389 -0.003655
v -0.179914 -0.000805 -0.001609
v -0.177134 -0.003300 -0.002643
v -0.179541 -0.002084 -0.002139
v -0.178524 -0.002997 -0.002517
v -0.179914 -0.001044 -0.000820
v -0.177134 -0.003693 -0.001347
v -0.179541 -0.002402 -0.001090
v -0.178524 -0.003372 -0.001283
v -0.179914 -0.001125 0.000000
v -0.177134 -0.003825 0.000000
v -0.179541 -0.002510 0.000000
v -0.178524 -0.003498 0.000000
v -0.179914 -0.001044 0.000820
v -0.177134 -0.003693 0.001347
v -0.179541 -0.002402 0.001090
v -0.178524 -0.003372 0.001283
v -0.179914 -0.000805 0.001609
v -0.177134 -0.003300 0.002643
v -0.179541 -0.002084 0.002139
v -0.178524 -0.002997 0.002517
v -0.179914 -0.000416 0.002336
v -0.177134 -0.002661 0.003836
v -0.179541 -0.001568 0.003105
v -0.178524 -0.002389 0.003655
v -0.179914 0.000107 0.002973
v -0.177134 -0.001803 0.004883
v -0.179541 -0.000872 0.003953
v -0.178524 -0.001571 0.004651
v -0.179914 0.000744 0.003496
v -0.177134 -0.000756 0.005742
v -0.179541 -0.000025 0.004648
v -0.178524 -0.000575 0.005470
v -0.179914 0.001471 0.003885
v -0.177134 0.000438 0.006380
v -0.179541 0.000941 0.005164
v -0.178524 0.000563 0.006077
v -0.179914 0.002260 0.004124
v -0.177134 0.001733 0.006773
v -0.179541 0.001990 0.005482
v -0.178524 0.001797 0.006452
v -0.179914 0.003080 0.004205
v -0.177134 0.003080 0.006905
v -0.179541 0.003080 0.005590
v -0.178524 0.003080 0.006578
v -0.179914 0.003900 0.004124
v -0.177134 0.004427 0.006773
v -0.179541 0.004171 0.005482
v -0.178524 0.004363 0.006452
v -0.179914 0.004689 0.003885
v -0.177134 0.005723 0.006380
v -0.179541 0.005219 0.005164
v -0.178524 0.005597 0.006077
v -0.179914 0.005416 0.003496
v -0.177134 0.006917 0.005742
v -0.179541 0.006186 0.004648
v -0.178524 0.006735 0.005470
v -0.179914 0.006053 0.002973
v -0.177134 0.007963 0.004883
v -0.179541 0.007033 0.003953
v -0.178524 0.007732 0.004651
v -0.179914 0.006576 0.002336
v -0.177134 0.008822 0.003836
v -0.179541 0.007728 0.003105
v -0.178524 0.008550 0.003655
v -0.179914 0.006965 0.001609
v -0.177134 0.009460 0.002643
v -0.179541 0.008244 0.002139
v -0.178524 0.009158 0.002517
v -0.179914 0.007204 0.000820
v -0.177134 0.009853 0.001347
v -0.179541 0.008562 0.001091
v -0.178524 0.009532 0.001283
v -0.179914 0.007285 0.000000
v -0.177134 0.009985 -0.000000
v -0.179541 0.008670 0.000000
v -0.178524 0.009658 0.000000
v -0.179914 0.007204 -0.000820
v -0.177134 0.009853 -0.001347
v -0.179541 0.008562 -0.001091
v -0.178524 0.009532 -0.001283
v -0.179914 0.006965 -0.001609
v -0.177134 0.009460 -0.002643
v -0.179541 0.008244 -0.002139
v -0.178524 0.009158 -0.002517
v -0.179914 0.006576 -0.002336
v -0.177134 0.008822 -0.003836
v -0.179541 0.007728 -0.003105
v -0.178524 0.008550 -0.003655
v -0.179914 0.006053 -0.002973
v -0.177134 0.007963 -0.004883
v -0.179541 0.007033 -0.003953
v -0.178524 0.007732 -0.004651
v -0.179914 0.005416 -0.003496
v -0.177134 0.006917 -0.005742
v -0.179541 0.006186 -0.004648
v -0.178524 0.006735 -0.005470
v -0.179914 0.004689 -0.003885
v -0.177134 0.005723 -0.006380
v -0.179541 0.005219 -0.005164
v -0.178524 0.005597 -0.006077
v -0.179914 0.003900 -0.004124
v -0.177134 0.004427 -0.006773
v -0.179541 0.004171 -0.005482
v -0.178524 0.004363 -0.006452
v -0.000000 -0.004492 -0.010000
v -0.000000 0.010828 -0.010000
v 0.001951 0.010828 -0.009808
v 0.001951 -0.004492 -0.009808
v 0.003827 0.010828 -0.009239
v 0.003827 -0.004492 -0.009239
v 0.005556 0.010828 -0.008315
v 0.005556 -0.004492 -0.008315
v 0.007071 0.010828 -0.007071
v 0.007071 -0.004492 -0.007071
v 0.008315 0.010828 -0.005556
v 0.008315 -0.004492 -0.005556
v 0.009239 0.010828 -0.003827
v 0.009239 -0.004492 -0.003827
v 0.009808 0.010828 -0.001951
v 0.009808 -0.004492 -0.001951
v 0.010000 0.010828 0.000000
v 0.010000 -0.004492 0.000000
v 0.009808 0.010828 0.001951
v 0.009808 -0.004492 0.001951
v 0.009239 0.010828 0.003827
v 0.009239 -0.004492 0.003827
v 0.008315 0.010828 0.005556
v 0.008315 -0.004492 0.005556
v 0.007071 0.010828 0.007071
v 0.007071 -0.004492 0.007071
v 0.005556 0.010828 0.008315
v 0.005556 -0.004492 0.008315
v 0.003827 0.010828 0.009239
v 0.003827 -0.004492 0.009239
v 0.001951 0.010828 0.009808
v 0.001951 -0.004492 0.009808
v -0.000000 0.010828 0.010000
v -0.000000 -0.004492 0.010000
v -0.001951 0.010828 0.009808
v -0.001951 -0.004492 0.009808
v -0.003827 0.010828 0.009239
v -0.003827 -0.004492 0.009239
v -0.005556 0.010828 0.008315
v -0.005556 -0.004492 0.008315
v -0.007071 0.010828 0.007071
v -0.007071 -0.004492 0.007071
v -0.008315 0.010828 0.005556
v -0.008315 -0.004492 0.005556
v -0.009239 0.010828 0.003827
v -0.009239 -0.004492 0.003827
v -0.009808 0.010828 0.001951
v -0.009808 -0.004492 0.001951
v -0.010000 0.010828 0.000000
v -0.010000 -0.004492 0.000000
v -0.009808 0.010828 -0.001951
v -0.009808 -0.004492 -0.001951
v -0.009239 0.010828 -0.003827
v -0.009239 -0.004492 -0.003827
v -0.008315 0.010828 -0.005556
v -0.008315 -0.004492 -0.005556
v -0.007071 0.010828 -0.007071
v -0.007071 -0.004492 -0.007071
v -0.005556 0.010828 -0.008315
v -0.005556 -0.004492 -0.008315
v -0.003827 0.010828 -0.009239
v -0.003827 -0.004492 -0.009239
v -0.001951 0.010828 -0.009808
v -0.001951 -0.004492 -0.009808
v -0.000000 -0.008490 -0.011011
v 0.002148 -0.008490 -0.010799
v -0.000000 0.010828 -0.011011
v 0.002148 -0.004492 -0.010799
v 0.004213 -0.008490 -0.010172
v 0.004213 -0.004492 -0.010172
v 0.006117 -0.008490 -0.009155
v 0.006117 -0.004492 -0.009155
v 0.007786 -0.008490 -0.007786
v 0.007786 -0.004492 -0.007786
v 0.009155 -0.008490 -0.006117
v 0.009155 -0.004492 -0.006117
v 0.010172 -0.008490 -0.004214
v 0.010172 -0.004492 -0.004214
v 0.010799 -0.008490 -0.002148
v 0.010799 -0.004492 -0.002148
v 0.011010 -0.008490 -0.000000
v 0.011010 -0.004492 -0.000000
v 0.010799 -0.008490 0.002148
v 0.010799 -0.004492 0.002148
v 0.010172 -0.008490 0.004213
v 0.010172 -0.004492 0.004213
v 0.009155 -0.008490 0.006117
v 0.009155 -0.004492 0.006117
v 0.007786 -0.008490 0.007785
v 0.007786 -0.004492 0.007785
v 0.006117 -0.008490 0.009155
v 0.006117 -0.004492 0.009155
v 0.004213 -0.008490 0.010172
v 0.004213 -0.004492 0.010172
v 0.002148 -0.008490 0.010799
v 0.002148 -0.004492 0.010799
v -0.000000 -0.008490 0.011010
v -0.000000 -0.004492 0.011010
v -0.002148 -0.008490 0.010799
v -0.002148 -0.004492 0.010799
v -0.004214 -0.008490 0.010172
v -0.004214 -0.004492 0.010172
v -0.006117 -0.008490 0.009155
v -0.006117 -0.004492 0.009155
v -0.007786 -0.008490 0.007785
v -0.007786 -0.004492 0.007785
v -0.009155 -0.008490 0.006117
v -0.009155 -0.004492 0.006117
v -0.010172 -0.008490 0.004213
v -0.010172 -0.004492 0.004213
v -0.010799 -0.008490 0.002148
v -0.010799 -0.004492 0.002148
v -0.011010 -0.008490 -0.000000
v -0.011010 -0.004492 -0.000000
v -0.010799 -0.008490 -0.002148
v -0.010799 -0.004492 -0.002148
v -0.010172 -0.008490 -0.004214
v -0.010172 -0.004492 -0.004214
v -0.009155 -0.008490 -0.006117
v -0.009155 -0.004492 -0.006117
v -0.007786 -0.008490 -0.007786
v -0.007786 -0.004492 -0.007786
v -0.006117 -0.008490 -0.009155
v -0.006117 -0.004492 -0.009155
v -0.004214 -0.008490 -0.010172
v -0.004214 -0.004492 -0.010172
v -0.002148 -0.008490 -0.010799
v -0.002148 -0.004492 -0.010799
v -0.000000 -0.004492 -0.011011
v 0.002148 0.010828 -0.010799
v 0.004213 0.010828 -0.010172
v 0.006117 0.010828 -0.009155
v 0.007786 0.010828 -0.007786
v 0.009155 0.010828 -0.006117
v 0.010172 0.010828 -0.004214
v 0.010799 0.010828 -0.002148
v 0.011010 0.010828 -0.000000
v 0.010799 0.010828 0.002148
v 0.010172 0.010828 0.004213
v 0.009155 0.010828 0.006117
v 0.007786 0.010828 0.007785
v 0.006117 0.010828 0.009155
v 0.004213 0.010828 0.010172
v 0.002148 0.010828 0.010799
v -0.000000 0.010828 0.011010
v -0.002148 0.010828 0.010799
v -0.004214 0.010828 0.010172
v -0.006117 0.010828 0.009155
v -0.007786 0.010828 0.007785
v -0.009155 0.010828 0.006117
v -0.010172 0.010828 0.004213
v -0.010799 0.010828 0.002148
v -0.011010 0.010828 -0.000000
v -0.010799 0.010828 -0.002148
v -0.010172 0.010828 -0.004214
v -0.009155 0.010828 -0.006117
v -0.007786 0.010828 -0.007786
v -0.006117 0.010828 -0.009155
v -0.004214 0.010828 -0.010172
v -0.002148 0.010828 -0.010799
v 0.001756 0.014829 -0.008828
v 0.002148 0.014443 -0.010799
v 0.002033 0.014716 -0.010222
v -0.000000 0.014829 -0.009001
v -0.000000 0.014443 -0.011011
v -0.000000 0.014716 -0.010422
v 0.003444 0.014829 -0.008316
v 0.004213 0.014443 -0.010172
v 0.003988 0.014716 -0.009629
v 0.005001 0.014829 -0.007484
v 0.006117 0.014443 -0.009155
v 0.005790 0.014716 -0.008666
v 0.006364 0.014829 -0.006365
v 0.007786 0.014443 -0.007786
v 0.007369 0.014716 -0.007370
v 0.007484 0.014829 -0.005001
v 0.009155 0.014443 -0.006117
v 0.008665 0.014716 -0.005790
v 0.008316 0.014829 -0.003445
v 0.010172 0.014443 -0.004214
v 0.009628 0.014716 -0.003988
v 0.008828 0.014829 -0.001756
v 0.010799 0.014443 -0.002148
v 0.010222 0.014716 -0.002033
v 0.009001 0.014829 -0.000000
v 0.011010 0.014443 -0.000000
v 0.010422 0.014716 -0.000000
v 0.008828 0.014829 0.001756
v 0.010799 0.014443 0.002148
v 0.010222 0.014716 0.002033
v 0.008316 0.014829 0.003444
v 0.010172 0.014443 0.004213
v 0.009628 0.014716 0.003988
v 0.007484 0.014829 0.005000
v 0.009155 0.014443 0.006117
v 0.008665 0.014716 0.005790
v 0.006364 0.014829 0.006364
v 0.007786 0.014443 0.007785
v 0.007369 0.014716 0.007369
v 0.005001 0.014829 0.007484
v 0.006117 0.014443 0.009155
v 0.005790 0.014716 0.008665
v 0.003444 0.014829 0.008315
v 0.004213 0.014443 0.010172
v 0.003988 0.014716 0.009628
v 0.001756 0.014829 0.008828
v 0.002148 0.014443 0.010799
v 0.002033 0.014716 0.010221
v -0.000000 0.014829 0.009001
v -0.000000 0.014443 0.011010
v -0.000000 0.014716 0.010422
v -0.001756 0.014829 0.008828
v -0.002148 0.014443 0.010799
v -0.002033 0.014716 0.010221
v -0.003444 0.014829 0.008315
v -0.004214 0.014443 0.010172
v -0.003988 0.014716 0.009628
v -0.005001 0.014829 0.007484
v -0.006117 0.014443 0.009155
v -0.005790 0.014716 0.008665
v -0.006364 0.014829 0.006364
v -0.007786 0.014443 0.007785
v -0.007369 0.014716 0.007369
v -0.007484 0.014829 0.005000
v -0.009155 0.014443 0.006117
v -0.008665 0.014716 0.005790
v -0.008316 0.014829 0.003444
v -0.010172 0.014443 0.004213
v -0.009628 0.014716 0.003988
v -0.008828 0.014829 0.001756
v -0.010799 0.014443 0.002148
v -0.010222 0.014716 0.002033
v -0.009001 0.014829 -0.000000
v -0.011010 0.014443 -0.000000
v -0.010422 0.014716 -0.000000
v -0.008828 0.014829 -0.001756
v -0.010799 0.014443 -0.002148
v -0.010222 0.014716 -0.002033
v -0.008316 0.014829 -0.003445
v -0.010172 0.014443 -0.004214
v -0.009628 0.014716 -0.003988
v -0.007484 0.014829 -0.005001
v -0.009155 0.014443 -0.006117
v -0.008665 0.014716 -0.005790
v -0.006364 0.014829 -0.006365
v -0.007786 0.014443 -0.007786
v -0.007369 0.014716 -0.007370
v -0.005001 0.014829 -0.007484
v -0.006117 0.014443 -0.009155
v -0.005790 0.014716 -0.008666
v -0.003444 0.014829 -0.008316
v -0.004214 0.014443 -0.010172
v -0.003988 0.014716 -0.009629
v -0.001756 0.014829 -0.008828
v -0.002148 0.014443 -0.010799
v -0.002033 0.014716 -0.010222
v -0.122722 -0.005112 -0.013052
v -0.122722 0.011388 -0.013052
v -0.133279 -0.005112 -0.013052
v -0.133279 0.011388 -0.013052
v -0.133279 0.011388 -0.010976
v -0.133279 -0.005112 -0.010976
v -0.122722 -0.005112 -0.010980
v -0.122722 0.010272 -0.010980
v -0.122722 -0.003999 -0.010980
v -0.133279 0.010270 -0.010976
v -0.133279 -0.004000 -0.010976
v -0.135734 0.008292 -0.013052
v -0.135734 -0.002016 -0.013052
v -0.135734 0.008292 -0.010976
v -0.135734 -0.002016 -0.010976
v -0.120759 -0.018627 -0.013052
v -0.120759 -0.005112 -0.013052
v -0.120759 -0.005112 -0.010980
v -0.120759 -0.018627 -0.010980
v -0.122722 -0.005112 0.002502
v -0.125722 -0.005112 0.005502
v -0.122950 -0.005112 0.003650
v -0.123601 -0.005112 0.004623
v -0.124574 -0.005112 0.005273
v -0.125722 0.011388 0.005502
v -0.122722 0.011388 0.002502
v -0.124574 0.011388 0.005273
v -0.123601 0.011388 0.004623
v -0.122950 0.011388 0.003650
v -0.122722 0.010273 0.002502
v -0.125722 0.010273 0.005502
v -0.122950 0.010273 0.003650
v -0.123601 0.010273 0.004623
v -0.124574 0.010273 0.005273
v -0.125722 -0.003998 0.005502
v -0.122722 -0.003998 0.002502
v -0.124574 -0.003998 0.005273
v -0.123601 -0.003998 0.004623
v -0.122950 -0.003998 0.003650
v -0.133279 -0.003998 0.002502
v -0.130279 -0.003998 0.005502
v -0.133051 -0.003998 0.003650
v -0.132401 -0.003998 0.004623
v -0.131427 -0.003998 0.005273
v -0.130279 0.010273 0.005502
v -0.133279 0.010273 0.002502
v -0.131427 0.010273 0.005273
v -0.132401 0.010273 0.004623
v -0.133051 0.010273 0.003650
v -0.133279 0.011388 0.002502
v -0.130279 0.011388 0.005502
v -0.133051 0.011388 0.003650
v -0.132401 0.011388 0.004623
v -0.131427 0.011388 0.005273
v -0.130279 -0.005112 0.005502
v -0.133279 -0.005112 0.002502
v -0.131427 -0.005112 0.005273
v -0.132401 -0.005112 0.004623
v -0.133051 -0.005112 0.003650
v -0.133279 -0.015627 -0.010976
v -0.130279 -0.018627 -0.010977
v -0.133051 -0.016775 -0.010976
v -0.132401 -0.017748 -0.010976
v -0.131427 -0.018399 -0.010977
v -0.130279 -0.018627 -0.013052
v -0.133279 -0.015627 -0.013052
v -0.131427 -0.018399 -0.013052
v -0.132401 -0.017748 -0.013052
v -0.133051 -0.016775 -0.013052
v -0.175225 0.005292 -0.013052
v -0.172225 0.008292 -0.013052
v -0.174997 0.006440 -0.013052
v -0.174347 0.007413 -0.013052
v -0.173373 0.008063 -0.013052
v -0.172225 -0.002016 -0.013052
v -0.175225 0.000984 -0.013052
v -0.173373 -0.001787 -0.013052
v -0.174347 -0.001137 -0.013052
v -0.174997 -0.000164 -0.013052
v -0.172225 0.008292 -0.010976
v -0.175225 0.005292 -0.010976
v -0.173373 0.008063 -0.010976
v -0.174347 0.007413 -0.010976
v -0.174997 0.006440 -0.010976
v -0.175225 0.000984 -0.010976
v -0.172225 -0.002016 -0.010976
v -0.174997 -0.000164 -0.010976
v -0.174347 -0.001137 -0.010976
v -0.173373 -0.001787 -0.010976
vn -0.0000 0.7071 -0.7071
vn -0.0000 0.8315 -0.5556
vn -0.0000 -1.0000 -0.0000
vn -0.0000 -0.9808 0.1951
vn -0.0000 -0.0000 -1.0000
vn -0.0000 -0.1951 -0.9808
vn -0.0000 -0.5556 -0.8315
vn -0.0000 -0.3827 -0.9239
vn -0.0000 -0.7071 -0.7071
vn -0.0000 -0.5556 0.8315
vn -0.0000 -0.3827 0.9239
vn -0.0000 -0.9239 0.3827
vn -0.0000 -0.9808 -0.1951
vn -0.0000 -0.9239 -0.3827
vn 0.0425 0.7065 -0.7065
vn -0.0934 0.8278 -0.5531
vn 0.0425 0.8307 -0.5551
vn -0.0000 -0.7071 0.7071
vn -0.0000 0.9239 -0.3827
vn -0.0000 -0.8315 0.5556
vn -0.0000 -0.8315 -0.5556
vn -0.4734 0.3371 0.8138
vn -0.8549 0.1012 0.5088
vn -0.4734 0.1718 0.8639
vn -0.0000 0.9808 -0.1951
vn -0.0000 0.3827 0.9239
vn -0.0000 0.5556 0.8315
vn -0.0000 0.7071 0.7071
vn -0.0000 0.9808 0.1951
vn -0.0000 0.9239 0.3827
vn 0.5740 0.1598 -0.8031
vn 0.9535 -0.0000 -0.3015
vn 0.5740 -0.0000 -0.8189
vn -0.0000 -0.0000 1.0000
vn -0.0000 0.1951 0.9808
vn -0.0000 1.0000 -0.0000
vn -0.0000 0.8315 0.5556
vn -0.0000 -0.1951 0.9808
vn -0.0000 0.5556 -0.8315
vn 0.9535 0.1675 0.2507
vn 0.5740 0.5790 0.5790
vn 0.5740 0.4549 0.6809
vn -0.8549 0.1012 -0.5088
vn -0.9903 -0.0000 -0.1391
vn -0.9903 0.0271 -0.1362
vn 0.5740 0.7565 0.3134
vn 0.9535 0.2957 0.0588
vn 0.5740 0.8031 0.1598
vn 0.9535 0.2957 -0.0588
vn 0.5740 0.8189 -0.0000
vn 0.9535 0.3015 -0.0000
vn 0.9535 0.1154 -0.2785
vn 0.5740 0.3134 -0.7565
vn 0.5740 0.6809 -0.4549
vn 0.9535 0.2132 -0.2132
vn 0.5740 0.5790 -0.5790
vn 0.9535 -0.0588 -0.2957
vn 0.9535 0.1154 0.2785
vn 0.5740 0.3134 0.7565
vn 0.5740 0.7565 -0.3134
vn 0.5740 0.8031 -0.1598
vn 0.9535 -0.0000 0.3015
vn 0.5740 0.1598 0.8031
vn 0.5740 -0.0000 0.8189
vn 0.9535 0.2507 0.1675
vn 0.5740 0.6809 0.4549
vn -0.8549 0.4314 -0.2882
vn -0.9903 0.0983 -0.0983
vn -0.9903 0.1156 -0.0772
vn 0.9535 0.2132 0.2132
vn 0.9535 -0.2785 -0.1154
vn 0.5740 -0.6809 -0.4549
vn 0.9535 -0.2507 -0.1675
vn 0.9535 -0.1154 0.2786
vn 0.5740 -0.1598 0.8031
vn 0.5740 -0.3134 0.7565
vn 0.9535 -0.2132 0.2132
vn 0.5740 -0.6809 0.4549
vn 0.9535 -0.2507 0.1675
vn 0.9535 -0.0588 0.2957
vn 0.9535 -0.1154 -0.2786
vn 0.5740 -0.4549 -0.6809
vn 0.5740 -0.3134 -0.7565
vn 0.5740 -0.4549 0.6809
vn 0.5740 -0.5790 0.5790
vn 0.5740 -0.8031 0.1598
vn 0.9535 -0.2785 0.1154
vn 0.5740 -0.7565 0.3134
vn -0.6186 -0.7706 -0.1533
vn -0.9823 -0.1871 -0.0000
vn -0.9823 -0.1835 -0.0365
vn 0.5740 -0.8031 -0.1598
vn 0.9535 -0.3015 -0.0000
vn 0.5740 -0.8189 -0.0000
vn -0.6186 0.5556 0.5556
vn -0.6186 0.4365 0.6533
vn 0.5740 -0.7565 -0.3134
vn -0.6187 -0.0000 -0.7857
vn 0.5740 -0.1598 -0.8031
vn -0.6186 -0.1533 -0.7706
vn 0.5740 -0.5790 -0.5790
vn 0.9535 -0.2132 -0.2132
vn -0.6186 -0.7706 0.1533
vn -0.9903 0.1390 -0.0000
vn -0.8549 0.5088 0.1012
vn -0.8549 0.5188 -0.0000
vn -0.8549 0.2882 0.4314
vn -0.9903 0.0532 0.1284
vn -0.8549 0.1985 0.4793
vn 0.0425 -0.9799 0.1949
vn -0.0934 -0.9198 0.3810
vn -0.0934 -0.9765 0.1942
vn -0.6186 -0.7259 -0.3007
vn -0.9823 -0.1728 -0.0716
vn -0.6186 -0.4365 -0.6533
vn -0.9823 -0.0716 -0.1728
vn -0.6186 -0.3007 -0.7259
vn -0.6186 -0.6533 -0.4365
vn -0.9823 -0.1323 -0.1323
vn -0.9823 -0.1039 -0.1556
vn -0.6187 -0.5555 -0.5555
vn -0.9823 -0.0365 -0.1835
vn -0.6186 -0.5556 0.5556
vn -0.9823 -0.1039 0.1556
vn -0.9823 -0.1323 0.1323
vn -0.9823 -0.1555 -0.1039
vn -0.0934 -0.0000 0.9956
vn -0.0934 0.1942 0.9765
vn -0.6187 -0.7857 -0.0000
vn -0.6187 -0.6533 0.4365
vn -0.9823 -0.1555 0.1039
vn -0.9903 0.1284 0.0532
vn -0.8549 0.4314 0.2882
vn -0.8549 0.4793 0.1985
vn -0.9823 -0.1835 0.0365
vn -0.6186 0.1533 0.7706
vn -0.9823 -0.0000 0.1871
vn -0.6187 -0.0000 0.7857
vn -0.6186 -0.7259 0.3007
vn -0.9823 -0.1728 0.0716
vn -0.6186 -0.3007 0.7259
vn -0.9823 -0.0365 0.1835
vn -0.9823 -0.0716 0.1728
vn -0.6187 -0.1533 0.7706
vn -0.6186 -0.4365 0.6533
vn -0.6187 0.3007 0.7258
vn -0.9823 -0.0000 -0.1871
vn -0.9823 0.0716 0.1728
vn -0.9823 0.0365 0.1835
vn -0.6186 0.6533 0.4365
vn -0.9823 0.1728 0.0716
vn -0.9823 0.1555 0.1039
vn -0.4734 -0.3371 0.8138
vn -0.8549 -0.1012 0.5088
vn -0.8549 -0.1985 0.4793
vn -0.6186 0.7706 0.1533
vn -0.6187 0.7259 0.3007
vn -0.9823 0.1555 -0.1039
vn -0.6186 0.5556 -0.5556
vn -0.9823 0.1323 -0.1323
vn -0.9823 0.1323 0.1323
vn -0.6186 0.7706 -0.1533
vn -0.6187 0.7857 -0.0000
vn -0.6186 0.7259 -0.3007
vn -0.9823 0.1835 0.0365
vn -0.9823 0.1835 -0.0365
vn -0.9823 0.1871 -0.0000
vn 0.0425 -0.1949 0.9799
vn -0.0934 -0.1942 0.9765
vn -0.6186 0.6533 -0.4365
vn -0.9823 0.1728 -0.0716
vn -0.0934 -0.1942 -0.9765
vn -0.4734 -0.0000 -0.8808
vn -0.0934 -0.0000 -0.9956
vn 0.5740 0.4549 -0.6809
vn -0.6186 0.4365 -0.6533
vn -0.6186 0.1533 -0.7706
vn -0.9823 0.0365 -0.1835
vn -0.9823 0.0716 -0.1728
vn -0.8549 -0.1012 -0.5088
vn -0.8549 -0.0000 -0.5188
vn -0.9823 0.1039 -0.1555
vn -0.8549 -0.4314 -0.2882
vn -0.9903 -0.1284 -0.0532
vn -0.9903 -0.1156 -0.0772
vn -0.9823 0.1039 0.1555
vn -0.4734 -0.1718 -0.8639
vn -0.8549 -0.2882 -0.4314
vn -0.9903 -0.0532 -0.1284
vn -0.8549 -0.1985 -0.4793
vn -0.6187 0.3007 -0.7259
vn -0.0934 -0.5531 -0.8278
vn -0.4734 -0.3371 -0.8138
vn -0.0934 -0.3810 -0.9198
vn -0.9903 -0.0983 -0.0983
vn -0.8549 -0.3668 -0.3668
vn -0.4734 -0.7324 -0.4894
vn -0.4734 -0.6228 -0.6228
vn -0.0934 -0.7040 -0.7040
vn -0.9903 -0.0271 -0.1363
vn -0.4734 -0.8138 0.3371
vn -0.8549 -0.5088 0.1012
vn -0.4734 -0.8639 0.1718
vn -0.0934 -0.9956 -0.0000
vn -0.4734 -0.8639 -0.1718
vn -0.0934 -0.9765 -0.1942
vn -0.4734 -0.4894 -0.7324
vn 0.0425 0.5551 0.8307
vn -0.0934 0.7040 0.7040
vn -0.0934 0.5531 0.8278
vn -0.4734 0.7324 0.4894
vn -0.8549 0.3668 0.3668
vn -0.4734 0.6228 0.6228
vn -0.9903 -0.1156 0.0772
vn -0.8549 -0.4793 0.1985
vn -0.8549 -0.4314 0.2882
vn -0.4734 -0.8808 -0.0000
vn 0.0425 0.3823 -0.9230
vn -0.0934 0.1942 -0.9765
vn -0.0934 0.3810 -0.9198
vn -0.8549 -0.5088 -0.1012
vn -0.8549 -0.5188 -0.0000
vn -0.0934 -0.7040 0.7040
vn -0.4734 -0.7324 0.4894
vn -0.0934 -0.8278 0.5531
vn -0.8549 -0.4793 -0.1985
vn -0.9903 -0.1363 -0.0271
vn -0.9903 -0.1390 -0.0000
vn -0.9903 -0.0772 0.1156
vn -0.8549 -0.2882 0.4314
vn -0.0934 -0.5531 0.8278
vn -0.4734 -0.6228 0.6228
vn -0.9903 -0.1363 0.0271
vn -0.8549 -0.3668 0.3668
vn -0.4734 -0.0000 0.8808
vn -0.4735 -0.1718 0.8639
vn -0.4734 0.4894 0.7324
vn -0.4734 -0.4894 0.7324
vn -0.9903 -0.0983 0.0983
vn -0.4734 -0.8138 -0.3371
vn -0.9903 -0.0000 0.1391
vn -0.9903 -0.0271 0.1363
vn -0.9903 -0.0532 0.1284
vn -0.8549 -0.0000 0.5188
vn 0.0425 -0.5551 0.8307
vn 0.0425 -0.7065 0.7065
vn -0.9903 0.0983 0.0983
vn -0.9903 0.0772 0.1157
vn -0.0934 0.3810 0.9198
vn -0.0934 0.8278 0.5531
vn -0.9903 0.0271 0.1362
vn -0.4734 0.8138 -0.3371
vn -0.8549 0.5088 -0.1012
vn -0.4734 0.8639 -0.1718
vn -0.9903 0.1156 0.0772
vn -0.4734 0.8138 0.3371
vn -0.4734 0.3371 -0.8138
vn -0.8549 0.1985 -0.4793
vn -0.0934 0.9198 -0.3810
vn -0.4734 0.7324 -0.4894
vn -0.0934 0.9198 0.3810
vn -0.4734 0.8639 0.1718
vn -0.4734 0.8808 -0.0000
vn -0.0934 0.9956 -0.0000
vn 0.9535 -0.1675 0.2507
vn 0.0425 -0.1949 -0.9799
vn 0.0425 -0.0000 -0.9991
vn 0.0425 -0.7065 -0.7065
vn -0.0934 -0.8278 -0.5531
vn 0.0425 0.1949 0.9799
vn 0.0425 -0.0000 0.9991
vn -0.0934 0.9765 -0.1942
vn -0.0934 0.9765 0.1942
vn -0.9903 0.1363 0.0271
vn -0.4734 0.4894 -0.7324
vn -0.8549 0.3668 -0.3668
vn -0.4734 0.6228 -0.6228
vn -0.9903 0.1284 -0.0532
vn -0.8549 0.4793 -0.1985
vn -0.0934 0.5531 -0.8278
vn -0.0934 0.7040 -0.7040
vn 0.9535 0.2507 -0.1675
vn -0.4734 0.1718 -0.8639
vn -0.9903 0.0532 -0.1284
vn 0.0425 -0.5551 -0.8307
vn 0.0425 -0.9230 -0.3823
vn 0.0425 -0.8307 -0.5551
vn -0.8549 0.2882 -0.4314
vn -0.9903 0.0772 -0.1157
vn 0.0425 0.1949 -0.9799
vn 0.0425 0.9799 0.1949
vn -0.0000 0.3827 -0.9239
vn -0.0934 -0.3810 0.9198
vn -0.0934 -0.9198 -0.3810
vn 0.0425 -0.9799 -0.1949
vn 0.0425 0.3823 0.9230
vn 0.0425 0.9991 -0.0000
vn 0.0425 -0.9991 -0.0000
vn 0.0425 -0.3823 0.9230
vn 0.0425 0.9799 -0.1949
vn 0.0425 0.5551 -0.8307
vn 0.0425 0.7065 0.7065
vn 0.0425 0.9230 0.3823
vn 0.0425 0.8307 0.5551
vn 0.0425 0.9230 -0.3823
vn -0.9903 0.1363 -0.0271
vn -0.0000 0.1951 -0.9808
vn 0.0425 -0.3823 -0.9230
vn 0.0425 -0.8307 0.5551
vn 0.0425 -0.9230 0.3823
vn -0.1951 -0.0000 -0.9808
vn -0.3827 -0.0000 -0.9239
vn -0.5556 -0.0000 -0.8315
vn -0.7071 -0.0000 -0.7071
vn -0.8315 -0.0000 -0.5556
vn -0.9239 -0.0000 -0.3827
vn -0.9808 -0.0000 -0.1951
vn -1.0000 -0.0000 -0.0000
vn -0.9808 -0.0000 0.1951
vn -0.9239 -0.0000 0.3827
vn -0.8315 -0.0000 0.5556
vn -0.7071 -0.0000 0.7071
vn -0.5556 -0.0000 0.8315
vn -0.3827 -0.0000 0.9239
vn -0.1951 -0.0000 0.9808
vn 0.1951 -0.0000 0.9808
vn 0.3827 -0.0000 0.9239
vn 0.5556 -0.0000 0.8315
vn 0.7071 -0.0000 0.7071
vn 0.8315 -0.0000 0.5556
vn 0.9239 -0.0000 0.3827
vn 0.9808 -0.0000 0.1951
vn 1.0000 -0.0000 -0.0000
vn 0.9808 -0.0000 -0.1951
vn 0.9239 -0.0000 -0.3827
vn 0.8315 -0.0000 -0.5556
vn 0.7071 -0.0000 -0.7071
vn 0.5556 -0.0000 -0.8315
vn 0.3827 -0.0000 -0.9239
vn 0.1951 -0.0000 -0.9808
vn -0.0000 0.5233 -0.8521
vn 0.0516 0.9644 -0.2594
vn 0.1662 0.5233 -0.8358
vn -0.0000 0.9644 -0.2645
vn 0.0082 0.9991 -0.0414
vn 0.1012 0.9644 -0.2443
vn 0.3261 0.5233 -0.7873
vn 0.0161 0.9991 -0.0390
vn 0.1469 0.9644 -0.2199
vn 0.4734 0.5233 -0.7085
vn 0.0234 0.9991 -0.0351
vn 0.1870 0.9644 -0.1870
vn 0.6025 0.5233 -0.6025
vn 0.0298 0.9991 -0.0298
vn 0.2199 0.9644 -0.1469
vn 0.7085 0.5233 -0.4734
vn 0.0351 0.9991 -0.0234
vn 0.2443 0.9644 -0.1012
vn 0.7873 0.5233 -0.3261
vn 0.0390 0.9991 -0.0161
vn 0.2594 0.9644 -0.0516
vn 0.8357 0.5234 -0.1662
vn 0.0414 0.9991 -0.0082
vn 0.8521 0.5233 -0.0000
vn 0.2645 0.9644 -0.0000
vn 0.0422 0.9991 -0.0000
vn 0.2594 0.9644 0.0516
vn 0.8358 0.5233 0.1662
vn 0.0414 0.9991 0.0082
vn 0.2443 0.9644 0.1012
vn 0.7873 0.5234 0.3261
vn 0.0390 0.9991 0.0161
vn 0.7085 0.5233 0.4734
vn 0.2199 0.9644 0.1469
vn 0.0351 0.9991 0.0234
vn 0.6025 0.5233 0.6025
vn 0.1870 0.9644 0.1870
vn 0.0298 0.9991 0.0298
vn 0.4734 0.5233 0.7085
vn 0.1469 0.9644 0.2199
vn 0.0234 0.9991 0.0351
vn 0.3261 0.5233 0.7873
vn 0.1012 0.9644 0.2443
vn 0.0161 0.9991 0.0390
vn 0.0516 0.9644 0.2594
vn 0.1662 0.5233 0.8357
vn 0.0082 0.9991 0.0414
vn -0.0000 0.9644 0.2645
vn -0.0000 0.5234 0.8521
vn -0.0000 0.9991 0.0422
vn -0.1662 0.5233 0.8358
vn -0.0516 0.9644 0.2594
vn -0.0082 0.9991 0.0414
vn -0.1012 0.9644 0.2443
vn -0.3261 0.5233 0.7873
vn -0.0161 0.9991 0.0390
vn -0.1469 0.9644 0.2199
vn -0.4734 0.5234 0.7085
vn -0.0234 0.9991 0.0351
vn -0.6025 0.5233 0.6025
vn -0.1870 0.9644 0.1870
vn -0.0298 0.9991 0.0298
vn -0.2199 0.9644 0.1469
vn -0.7085 0.5233 0.4734
vn -0.0351 0.9991 0.0234
vn -0.2443 0.9644 0.1012
vn -0.7873 0.5233 0.3261
vn -0.0390 0.9991 0.0161
vn -0.2594 0.9644 0.0516
vn -0.8358 0.5233 0.1662
vn -0.0414 0.9991 0.0082
vn -0.2645 0.9644 -0.0000
vn -0.8521 0.5233 -0.0000
vn -0.0422 0.9991 -0.0000
vn -0.2594 0.9644 -0.0516
vn -0.8358 0.5233 -0.1662
vn -0.0414 0.9991 -0.0082
vn -0.2443 0.9644 -0.1012
vn -0.7873 0.5234 -0.3261
vn -0.0390 0.9991 -0.0161
vn -0.7085 0.5233 -0.4734
vn -0.2199 0.9644 -0.1469
vn -0.0351 0.9991 -0.0234
vn -0.6025 0.5233 -0.6025
vn -0.1870 0.9644 -0.1870
vn -0.0298 0.9991 -0.0298
vn -0.1469 0.9644 -0.2199
vn -0.4734 0.5233 -0.7085
vn -0.0234 0.9991 -0.0351
vn -0.1012 0.9644 -0.2443
vn -0.3261 0.5233 -0.7873
vn -0.0161 0.9991 -0.0390
vn -0.0516 0.9644 -0.2594
vn -0.1662 0.5233 -0.8357
vn -0.0082 0.9991 -0.0414
vn -0.0000 0.9991 -0.0422
vn -0.7836 0.6212 -0.0000
vn -0.7837 -0.6212 -0.0000
vn 0.0004 -0.0000 1.0000
vn 0.0002 0.0002 1.0000
vn 0.0001 -0.0001 1.0000
vn 0.0002 0.0001 1.0000
vn 0.0003 -0.0000 1.0000
vn 0.0980 -0.0000 0.9952
vn 0.9952 -0.0000 0.0980
vn -0.9952 -0.0000 0.0980
vn -0.0980 -0.0000 0.9952
vn -0.0980 -0.9952 -0.0000
vn -0.0000 -1.0000 0.0002
vn 0.0001 -1.0000 0.0002
vn -0.0000 -1.0000 0.0001
vn -0.0000 1.0000 -0.0001
vn -0.0001 1.0000 -0.0001
vn -0.3827 -0.9239 -0.0000
vn -0.7071 -0.7071 -0.0000
vn -0.9239 -0.3827 -0.0000
vn -0.9952 -0.0980 -0.0000
vn -0.0980 0.9952 -0.0000
vn -0.3827 0.9239 -0.0000
vn -0.7071 0.7071 -0.0000
vn -0.9239 0.3827 -0.0000
vn -0.9952 0.0980 -0.0000
vn 0.9535 0.0588 -0.2957
vn 0.9535 0.2785 0.1154
vn 0.9535 0.2785 -0.1154
vn 0.9535 0.0588 0.2957
vn 0.9535 -0.1675 -0.2507
vn 0.9535 -0.2957 0.0588
vn 0.9535 -0.2957 -0.0588
vn -0.9903 -0.0772 -0.1155
vn -0.9903 -0.1284 0.0532
vn 0.9535 0.1675 -0.2507
vn 0.0001 0.0003 1.0000
vn 0.0001 0.0001 1.0000
vn 0.0002 0.0003 1.0000
vn 0.0002 -0.0001 1.0000
vn 0.0002 -1.0000 0.0001
vt 0.121264 0.462126
vt 0.123856 0.206014
vt 0.123856 0.462126
vt 0.173093 0.462126
vt 0.170502 0.206014
vt 0.173093 0.206014
vt 0.110899 0.462126
vt 0.108307 0.206014
vt 0.110899 0.206014
vt 0.103124 0.462126
vt 0.105716 0.206014
vt 0.105716 0.462126
vt 0.100533 0.462126
vt 0.103124 0.206014
vt 0.160136 0.462126
vt 0.157544 0.206014
vt 0.160136 0.206014
vt 0.170502 0.462126
vt 0.167910 0.206014
vt 0.092759 0.462126
vt 0.095350 0.206014
vt 0.095350 0.462126
vt 0.090167 0.462126
vt 0.092759 0.206014
vt 0.615341 0.932079
vt 0.615477 0.860399
vt 0.617334 0.932022
vt 0.162727 0.462126
vt 0.162727 0.206014
vt 0.126447 0.462126
vt 0.126447 0.206014
vt 0.165319 0.462126
vt 0.165319 0.206014
vt 0.097941 0.206014
vt 0.097941 0.462126
vt 0.627468 0.844544
vt 0.624720 0.843176
vt 0.626937 0.842397
vt 0.129039 0.206014
vt 0.129039 0.462126
vt 0.147179 0.462126
vt 0.144587 0.206014
vt 0.147179 0.206014
vt 0.144587 0.462126
vt 0.141996 0.206014
vt 0.134221 0.462126
vt 0.136813 0.206014
vt 0.136813 0.462126
vt 0.073675 0.947371
vt 0.075478 0.940142
vt 0.077449 0.946595
vt 0.152361 0.462126
vt 0.149770 0.206014
vt 0.152361 0.206014
vt 0.131630 0.206014
vt 0.134221 0.206014
vt 0.139404 0.206014
vt 0.139404 0.462126
vt 0.154953 0.206014
vt 0.154953 0.462126
vt 0.100533 0.206014
vt 0.118673 0.462126
vt 0.121264 0.206014
vt 0.059727 0.919445
vt 0.052279 0.919257
vt 0.054033 0.915826
vt 0.609481 0.852071
vt 0.610451 0.849505
vt 0.611215 0.850573
vt 0.050817 0.926787
vt 0.057794 0.929399
vt 0.051159 0.930624
vt 0.059659 0.934211
vt 0.052210 0.934331
vt 0.058500 0.931893
vt 0.070348 0.940705
vt 0.069823 0.947431
vt 0.059127 0.943421
vt 0.065369 0.939353
vt 0.062420 0.945421
vt 0.077875 0.939157
vt 0.061315 0.917398
vt 0.056394 0.912782
vt 0.056265 0.940843
vt 0.053931 0.937777
vt 0.065484 0.914357
vt 0.059281 0.910231
vt 0.062592 0.908261
vt 0.057818 0.924239
vt 0.051195 0.922953
vt 0.615666 0.855196
vt 0.614521 0.852640
vt 0.615829 0.852854
vt 0.058547 0.921753
vt 0.085134 0.928971
vt 0.090870 0.933726
vt 0.084506 0.931485
vt 0.070476 0.913051
vt 0.066211 0.906942
vt 0.070013 0.906320
vt 0.075600 0.913661
vt 0.081180 0.908724
vt 0.077988 0.914668
vt 0.067919 0.913469
vt 0.080046 0.937743
vt 0.087021 0.940361
vt 0.084240 0.943028
vt 0.073864 0.906416
vt 0.077631 0.907227
vt 0.087145 0.913548
vt 0.080146 0.916102
vt 0.084389 0.910856
vt 0.041768 0.979771
vt 0.039835 0.969782
vt 0.041792 0.969976
vt 0.092026 0.926142
vt 0.084949 0.923815
vt 0.091528 0.922322
vt 0.036225 0.922797
vt 0.036533 0.928212
vt 0.033670 0.925634
vt 0.091804 0.929988
vt 0.070887 0.959148
vt 0.076304 0.958888
vt 0.073749 0.961726
vt 0.089257 0.937224
vt 0.083421 0.933839
vt 0.010459 0.899596
vt 0.005042 0.899855
vt 0.007596 0.897018
vt 0.619660 0.851928
vt 0.622278 0.852852
vt 0.620862 0.853919
vt 0.081012 0.945130
vt 0.625218 0.846632
vt 0.622878 0.845203
vt 0.625138 0.844878
vt 0.653200 0.933801
vt 0.659248 0.862240
vt 0.661819 0.862517
vt 0.093481 0.974356
vt 0.088064 0.974615
vt 0.090619 0.971778
vt 0.043750 0.969792
vt 0.045604 0.979410
vt 0.055730 0.974141
vt 0.050192 0.965605
vt 0.058227 0.971207
vt 0.085201 0.972038
vt 0.087756 0.969200
vt 0.047380 0.968328
vt 0.048918 0.967103
vt 0.079475 0.966882
vt 0.084893 0.966622
vt 0.082338 0.969460
vt 0.051156 0.963892
vt 0.060116 0.967850
vt 0.024191 0.969230
vt 0.032062 0.962783
vt 0.032821 0.964596
vt 0.045635 0.969235
vt 0.049299 0.978319
vt 0.641385 0.857944
vt 0.643811 0.860894
vt 0.641231 0.860741
vt 0.076612 0.964304
vt 0.082030 0.964044
vt 0.002179 0.897277
vt 0.004734 0.894440
vt 0.026332 0.972433
vt 0.033914 0.966231
vt 0.621601 0.850176
vt 0.624361 0.850025
vt 0.623460 0.851540
vt 0.038735 0.969500
vt 0.032236 0.977328
vt 0.036927 0.968729
vt 0.079167 0.961466
vt 0.023995 0.950678
vt 0.032000 0.956957
vt 0.022583 0.954262
vt 0.029047 0.975166
vt 0.035299 0.967626
vt 0.013322 0.902174
vt 0.007904 0.902433
vt 0.021926 0.961903
vt 0.031644 0.958891
vt 0.031665 0.960857
vt 0.021885 0.958051
vt 0.016185 0.904752
vt 0.016493 0.910167
vt 0.013630 0.907589
vt 0.033362 0.920219
vt 0.030807 0.923057
vt 0.024773 0.912485
vt 0.025081 0.917901
vt 0.022218 0.915323
vt 0.051774 0.962025
vt 0.019048 0.907329
vt 0.019356 0.912745
vt 0.027636 0.915063
vt 0.027944 0.920479
vt 0.022704 0.965676
vt 0.033778 0.953470
vt 0.032721 0.955128
vt 0.035377 0.940826
vt 0.040444 0.949649
vt 0.038530 0.950099
vt 0.623096 0.837123
vt 0.622958 0.840171
vt 0.621680 0.838981
vt 0.044813 0.930531
vt 0.045121 0.935946
vt 0.042258 0.933368
vt 0.028724 0.944640
vt 0.026067 0.947430
vt 0.030499 0.917641
vt 0.039088 0.925375
vt 0.039396 0.930790
vt 0.049348 0.952872
vt 0.058888 0.949337
vt 0.050529 0.954443
vt 0.031866 0.942411
vt 0.036738 0.950908
vt 0.050539 0.935687
vt 0.050847 0.941102
vt 0.047984 0.938524
vt 0.053710 0.943680
vt 0.041950 0.927953
vt 0.039127 0.939943
vt 0.042409 0.949573
vt 0.046783 0.940387
vt 0.046200 0.950545
vt 0.044351 0.949876
vt 0.641269 0.932627
vt 0.646389 0.861069
vt 0.056572 0.946258
vt 0.047886 0.951556
vt 0.042977 0.939795
vt 0.600045 0.861161
vt 0.602432 0.858185
vt 0.602619 0.860978
vt 0.061990 0.945999
vt 0.059435 0.948836
vt 0.064853 0.948577
vt 0.062298 0.951414
vt 0.061813 0.960371
vt 0.052022 0.960075
vt 0.051892 0.958113
vt 0.607753 0.849049
vt 0.608472 0.850640
vt 0.060571 0.952803
vt 0.051388 0.956212
vt 0.608120 0.842262
vt 0.610874 0.842065
vt 0.610199 0.843207
vt 0.035134 0.952046
vt 0.605540 0.849795
vt 0.606436 0.851798
vt 0.607287 0.845617
vt 0.609601 0.847044
vt 0.607357 0.847354
vt 0.067716 0.951155
vt 0.065161 0.953992
vt 0.068024 0.956570
vt 0.073442 0.956311
vt 0.594903 0.861589
vt 0.597239 0.858578
vt 0.597473 0.861365
vt 0.609753 0.844444
vt 0.607548 0.843901
vt 0.599834 0.858372
vt 0.606012 0.841309
vt 0.605301 0.843347
vt 0.592336 0.861833
vt 0.589479 0.859327
vt 0.592058 0.859057
vt 0.609907 0.848315
vt 0.614910 0.834846
vt 0.613389 0.837479
vt 0.612797 0.835224
vt 0.582058 0.862943
vt 0.584370 0.859899
vt 0.584644 0.862658
vt 0.604969 0.845489
vt 0.633293 0.932162
vt 0.633484 0.860406
vt 0.636068 0.860497
vt 0.594646 0.858806
vt 0.605051 0.847665
vt 0.626498 0.851031
vt 0.624953 0.848369
vt 0.627239 0.848944
vt 0.070579 0.953733
vt 0.616667 0.839417
vt 0.615117 0.837155
vt 0.616862 0.837142
vt 0.664411 0.862794
vt 0.662085 0.859753
vt 0.664612 0.859991
vt 0.611357 0.932243
vt 0.605195 0.860817
vt 0.607772 0.860678
vt 0.610049 0.836372
vt 0.610111 0.839403
vt 0.608438 0.837787
vt 0.610771 0.835940
vt 0.611709 0.838110
vt 0.654113 0.861717
vt 0.656964 0.859198
vt 0.656681 0.861972
vt 0.608986 0.840750
vt 0.611744 0.841062
vt 0.611482 0.838247
vt 0.617066 0.834832
vt 0.612802 0.840236
vt 0.619187 0.840098
vt 0.620199 0.838065
vt 0.659535 0.859475
vt 0.651541 0.861481
vt 0.654379 0.858935
vt 0.614040 0.839717
vt 0.618574 0.837448
vt 0.626006 0.840394
vt 0.624707 0.838614
vt 0.627572 0.846754
vt 0.621233 0.835980
vt 0.643988 0.858097
vt 0.646589 0.858274
vt 0.633570 0.857604
vt 0.636176 0.857697
vt 0.619197 0.835213
vt 0.649189 0.858473
vt 0.651786 0.858693
vt 0.617962 0.839636
vt 0.607077 0.839442
vt 0.622017 0.842739
vt 0.621250 0.841677
vt 0.620297 0.840780
vt 0.623985 0.841587
vt 0.645253 0.932957
vt 0.647243 0.933147
vt 0.622731 0.847809
vt 0.622932 0.846511
vt 0.021911 0.909907
vt 0.638781 0.857810
vt 0.638650 0.860608
vt 0.630900 0.860338
vt 0.622567 0.843929
vt 0.617898 0.857585
vt 0.619250 0.854691
vt 0.620102 0.856962
vt 0.622282 0.849045
vt 0.625370 0.852939
vt 0.131630 0.462126
vt 0.609286 0.855136
vt 0.610753 0.853284
vt 0.628354 0.857488
vt 0.630963 0.857535
vt 0.010767 0.905011
vt 0.618008 0.860337
vt 0.615451 0.857656
vt 0.628315 0.860291
vt 0.625742 0.857460
vt 0.622121 0.855958
vt 0.623147 0.860266
vt 0.620509 0.857499
vt 0.623127 0.857462
vt 0.073067 0.913115
vt 0.605388 0.932612
vt 0.607376 0.932473
vt 0.623891 0.854597
vt 0.599430 0.933129
vt 0.589772 0.862095
vt 0.637282 0.932362
vt 0.639276 0.932486
vt 0.620570 0.860290
vt 0.625731 0.860266
vt 0.620720 0.851147
vt 0.611145 0.856353
vt 0.613894 0.854886
vt 0.613219 0.857204
vt 0.617163 0.852798
vt 0.617499 0.855134
vt 0.610348 0.860562
vt 0.612852 0.857690
vt 0.612919 0.860471
vt 0.063154 0.938007
vt 0.605033 0.858023
vt 0.612174 0.851477
vt 0.607637 0.857881
vt 0.610243 0.857768
vt 0.601415 0.932940
vt 0.595467 0.933556
vt 0.597448 0.933335
vt 0.612239 0.854236
vt 0.613285 0.852174
vt 0.609366 0.932350
vt 0.625312 0.931960
vt 0.116081 0.462126
vt 0.118673 0.206014
vt 0.648966 0.861265
vt 0.607695 0.853603
vt 0.587210 0.862373
vt 0.593488 0.933794
vt 0.096344 0.976934
vt 0.090926 0.977193
vt 0.586914 0.859614
vt 0.635288 0.932254
vt 0.623317 0.931951
vt 0.591512 0.934049
vt 0.643262 0.932784
vt 0.621322 0.931958
vt 0.613349 0.932153
vt 0.631298 0.932087
vt 0.627307 0.931986
vt 0.629303 0.932028
vt 0.108307 0.462126
vt 0.157544 0.462126
vt 0.619328 0.931982
vt 0.618458 0.852486
vt 0.113490 0.206014
vt 0.116081 0.206014
vt 0.113490 0.462126
vt 0.083485 0.920037
vt 0.089352 0.916706
vt 0.066027 0.946773
vt 0.603401 0.932768
vt 0.149770 0.462126
vt 0.649233 0.933353
vt 0.651217 0.933569
vt 0.484159 0.918912
vt 0.476554 0.921275
vt 0.479903 0.919697
vt 0.420068 0.855141
vt 0.449436 0.856628
vt 0.447950 0.885996
vt 0.241677 0.489226
vt 0.212746 0.492928
vt 0.212746 0.489226
vt 0.241677 0.485524
vt 0.212746 0.485524
vt 0.241677 0.481822
vt 0.212746 0.481822
vt 0.241677 0.478120
vt 0.212746 0.478120
vt 0.241677 0.474418
vt 0.212746 0.474418
vt 0.241677 0.470716
vt 0.212746 0.470716
vt 0.277951 0.197018
vt 0.278673 0.193387
vt 0.278217 0.201338
vt 0.241677 0.467014
vt 0.212746 0.467014
vt 0.241677 0.463312
vt 0.212746 0.463312
vt 0.241677 0.459610
vt 0.212746 0.459610
vt 0.241677 0.455908
vt 0.212746 0.455908
vt 0.241677 0.452206
vt 0.212746 0.452206
vt 0.241677 0.448504
vt 0.212746 0.448504
vt 0.241677 0.444802
vt 0.212746 0.444802
vt 0.241677 0.441100
vt 0.212746 0.441100
vt 0.241677 0.437398
vt 0.212746 0.437398
vt 0.241677 0.433696
vt 0.212746 0.433696
vt 0.241677 0.429994
vt 0.212746 0.429994
vt 0.241677 0.426291
vt 0.212746 0.426291
vt 0.241677 0.422589
vt 0.212746 0.422589
vt 0.241677 0.418887
vt 0.212746 0.418887
vt 0.241677 0.415185
vt 0.212746 0.415185
vt 0.241677 0.411483
vt 0.212746 0.411483
vt 0.241677 0.407781
vt 0.212746 0.407781
vt 0.241677 0.404079
vt 0.212746 0.404079
vt 0.241677 0.518843
vt 0.212746 0.522545
vt 0.212746 0.518843
vt 0.241677 0.515141
vt 0.212746 0.515141
vt 0.241677 0.511439
vt 0.212746 0.511439
vt 0.241677 0.507737
vt 0.212746 0.507737
vt 0.241677 0.504034
vt 0.212746 0.504034
vt 0.241677 0.500332
vt 0.212746 0.500332
vt 0.241677 0.496630
vt 0.212746 0.496630
vt 0.241677 0.492928
vt 0.448052 0.897106
vt 0.439724 0.895044
vt 0.442466 0.892028
vt 0.450794 0.894090
vt 0.445208 0.889012
vt 0.453536 0.891074
vt 0.456277 0.888058
vt 0.450691 0.882979
vt 0.459019 0.885041
vt 0.453433 0.879963
vt 0.461761 0.882025
vt 0.456175 0.876947
vt 0.464503 0.879009
vt 0.458917 0.873931
vt 0.467245 0.875993
vt 0.461659 0.870915
vt 0.469987 0.872977
vt 0.464401 0.867899
vt 0.472728 0.869961
vt 0.467142 0.864883
vt 0.475470 0.866945
vt 0.469884 0.861867
vt 0.478212 0.863928
vt 0.472626 0.858850
vt 0.480954 0.860912
vt 0.475368 0.855834
vt 0.483696 0.857896
vt 0.478110 0.852818
vt 0.486438 0.854880
vt 0.480852 0.849802
vt 0.489179 0.851864
vt 0.483593 0.846786
vt 0.491921 0.848848
vt 0.486335 0.843770
vt 0.494663 0.845832
vt 0.489077 0.840754
vt 0.497405 0.842816
vt 0.491819 0.837738
vt 0.500147 0.839800
vt 0.494561 0.834721
vt 0.502889 0.836783
vt 0.497303 0.831705
vt 0.505630 0.833767
vt 0.500044 0.828689
vt 0.508372 0.830751
vt 0.502786 0.825673
vt 0.511114 0.827735
vt 0.505528 0.822657
vt 0.426117 0.921235
vt 0.417789 0.919173
vt 0.420531 0.916157
vt 0.428859 0.918219
vt 0.423273 0.913141
vt 0.431601 0.915203
vt 0.426015 0.910125
vt 0.434343 0.912187
vt 0.428757 0.907108
vt 0.437085 0.909170
vt 0.431499 0.904092
vt 0.439826 0.906154
vt 0.434240 0.901076
vt 0.442568 0.903138
vt 0.436982 0.898060
vt 0.445310 0.900122
vt 0.245281 0.179555
vt 0.250078 0.173198
vt 0.247899 0.176938
vt 0.463242 0.883897
vt 0.460534 0.887272
vt 0.457557 0.889473
vt 0.298095 0.031503
vt 0.298487 0.027359
vt 0.299664 0.027716
vt 0.297011 0.030924
vt 0.295911 0.026578
vt 0.299240 0.023575
vt 0.300463 0.023695
vt 0.296561 0.023311
vt 0.299240 0.019716
vt 0.300463 0.019596
vt 0.296561 0.019980
vt 0.298487 0.015932
vt 0.299663 0.015575
vt 0.295911 0.016713
vt 0.297011 0.012367
vt 0.298095 0.011788
vt 0.294637 0.013636
vt 0.294867 0.009159
vt 0.295817 0.008379
vt 0.292786 0.010866
vt 0.292139 0.006430
vt 0.292918 0.005480
vt 0.290431 0.008511
vt 0.289510 0.003202
vt 0.288931 0.004286
vt 0.287661 0.006661
vt 0.285365 0.002810
vt 0.285722 0.001634
vt 0.284584 0.005386
vt 0.281581 0.002058
vt 0.281702 0.000834
vt 0.281317 0.004736
vt 0.277602 0.000835
vt 0.277722 0.002058
vt 0.277986 0.004736
vt 0.273581 0.001634
vt 0.273938 0.002811
vt 0.274720 0.005386
vt 0.269794 0.003203
vt 0.270373 0.004287
vt 0.271642 0.006661
vt 0.266386 0.005481
vt 0.267165 0.006431
vt 0.268873 0.008512
vt 0.264437 0.009159
vt 0.263487 0.008379
vt 0.266518 0.010867
vt 0.262294 0.012368
vt 0.261210 0.011788
vt 0.264667 0.013636
vt 0.259640 0.015575
vt 0.260817 0.015932
vt 0.263393 0.016714
vt 0.260064 0.019717
vt 0.258841 0.019596
vt 0.262743 0.019981
vt 0.260064 0.023575
vt 0.258841 0.023696
vt 0.262743 0.023311
vt 0.259641 0.027716
vt 0.260817 0.027360
vt 0.263393 0.026578
vt 0.262294 0.030924
vt 0.261209 0.031503
vt 0.264667 0.029655
vt 0.264437 0.034133
vt 0.263487 0.034912
vt 0.266518 0.032425
vt 0.267165 0.036861
vt 0.266385 0.037811
vt 0.268873 0.034780
vt 0.270374 0.039005
vt 0.269794 0.040089
vt 0.271643 0.036631
vt 0.273939 0.040481
vt 0.273582 0.041657
vt 0.274720 0.037905
vt 0.277723 0.041234
vt 0.277603 0.042457
vt 0.277987 0.038555
vt 0.281702 0.042457
vt 0.281582 0.041234
vt 0.281318 0.038555
vt 0.285723 0.041657
vt 0.285366 0.040481
vt 0.284585 0.037905
vt 0.288931 0.039004
vt 0.289510 0.040088
vt 0.287662 0.036630
vt 0.292139 0.036861
vt 0.292919 0.037811
vt 0.290431 0.034780
vt 0.294867 0.034132
vt 0.295817 0.034912
vt 0.292786 0.032424
vt 0.294637 0.029655
vt 0.287400 0.209878
vt 0.280572 0.213954
vt 0.280572 0.209878
vt 0.287400 0.205802
vt 0.280572 0.205802
vt 0.287400 0.201726
vt 0.280572 0.201726
vt 0.287400 0.213954
vt 0.280572 0.218031
vt 0.287400 0.218031
vt 0.280572 0.222107
vt 0.287400 0.222107
vt 0.280572 0.226183
vt 0.287400 0.226183
vt 0.280572 0.230259
vt 0.287400 0.230259
vt 0.280572 0.234335
vt 0.287400 0.234335
vt 0.280572 0.238411
vt 0.287400 0.107976
vt 0.280572 0.112052
vt 0.280572 0.107976
vt 0.287400 0.112052
vt 0.280572 0.116128
vt 0.287400 0.116128
vt 0.280572 0.120204
vt 0.287400 0.120204
vt 0.280572 0.124280
vt 0.287400 0.124280
vt 0.280572 0.128356
vt 0.287400 0.128356
vt 0.280572 0.132432
vt 0.287400 0.132432
vt 0.280572 0.136508
vt 0.287400 0.136508
vt 0.280572 0.140585
vt 0.287400 0.140585
vt 0.280572 0.144661
vt 0.287400 0.144661
vt 0.280572 0.148737
vt 0.287400 0.148737
vt 0.280572 0.152813
vt 0.287400 0.152813
vt 0.280572 0.156889
vt 0.287400 0.156889
vt 0.280572 0.160965
vt 0.287400 0.160965
vt 0.280572 0.165041
vt 0.287400 0.165041
vt 0.280572 0.169117
vt 0.287400 0.169117
vt 0.280572 0.173193
vt 0.287400 0.173193
vt 0.280572 0.177269
vt 0.287400 0.177269
vt 0.280572 0.181346
vt 0.287400 0.181346
vt 0.280572 0.185422
vt 0.287400 0.185422
vt 0.280572 0.189498
vt 0.287400 0.189498
vt 0.280572 0.193574
vt 0.287400 0.193574
vt 0.280572 0.197650
vt 0.287400 0.197650
vt 0.779525 0.500752
vt 0.781088 0.509034
vt 0.776453 0.503188
vt 0.781088 0.528500
vt 0.779525 0.536782
vt 0.776453 0.534347
vt 0.113852 0.167386
vt 0.117762 0.163677
vt 0.117764 0.167384
vt 0.072207 0.763779
vt 0.005100 0.799129
vt 0.059712 0.748853
vt 0.100644 0.747600
vt 0.114027 0.769682
vt 0.097644 0.750111
vt 0.094006 0.187334
vt 0.088337 0.181671
vt 0.113850 0.163679
vt 0.074801 0.728597
vt 0.096453 0.748367
vt 0.097802 0.749979
vt 0.756516 0.532245
vt 0.124104 0.727961
vt 0.121059 0.727766
vt 0.122754 0.726348
vt 0.122409 0.729380
vt 0.119364 0.729185
vt 0.120714 0.730799
vt 0.117669 0.730604
vt 0.119019 0.732218
vt 0.115974 0.732023
vt 0.105454 0.705682
vt 0.102409 0.705487
vt 0.104104 0.704068
vt 0.103759 0.707101
vt 0.100713 0.706906
vt 0.102064 0.708520
vt 0.099018 0.708325
vt 0.100369 0.709939
vt 0.097323 0.709744
vt 0.040660 0.718872
vt 0.037627 0.718528
vt 0.039241 0.717177
vt 0.036208 0.716833
vt 0.037822 0.715482
vt 0.034790 0.715138
vt 0.036403 0.713787
vt 0.033371 0.713443
vt 0.034984 0.712092
vt 0.139315 0.189422
vt 0.141525 0.187319
vt 0.141526 0.189422
vt 0.143736 0.187318
vt 0.143736 0.189422
vt 0.145946 0.187318
vt 0.145947 0.189422
vt 0.148157 0.189422
vt 0.156763 0.189420
vt 0.148157 0.187318
vt 0.156763 0.187316
vt 0.141480 0.167813
vt 0.144979 0.181653
vt 0.139315 0.187319
vt 0.100241 0.781222
vt 0.116538 0.772681
vt 0.102756 0.784226
vt 0.027847 0.706843
vt 0.039599 0.716933
vt 0.047967 0.705367
vt 0.055948 0.706075
vt 0.776037 0.477679
vt 0.756530 0.479836
vt 0.762199 0.474174
vt 0.772964 0.562934
vt 0.758184 0.561710
vt 0.776453 0.532247
vt 0.113863 0.189422
vt 0.113863 0.187323
vt 0.056997 0.738388
vt 0.039045 0.720224
vt 0.094932 0.789809
vt 0.096517 0.785599
vt 0.097936 0.787294
vt 0.093512 0.788115
vt 0.095098 0.783904
vt 0.092093 0.786420
vt 0.093679 0.782209
vt 0.090673 0.784725
vt 0.092260 0.780514
vt 0.079514 0.765288
vt 0.089254 0.783030
vt 0.076508 0.767804
vt 0.011383 0.807306
vt 0.010648 0.811746
vt 0.008926 0.810360
vt 0.013105 0.808692
vt 0.014125 0.813075
vt 0.012004 0.812454
vt 0.015227 0.809313
vt 0.017847 0.812972
vt 0.015649 0.813210
vt 0.017425 0.809075
vt 0.021245 0.811453
vt 0.019306 0.812514
vt 0.006869 0.793087
vt 0.002429 0.792352
vt 0.003815 0.790630
vt 0.005483 0.794810
vt 0.001100 0.795830
vt 0.001721 0.793708
vt 0.004862 0.796931
vt 0.001203 0.799551
vt 0.000965 0.797353
vt 0.002722 0.802950
vt 0.001661 0.801010
vt 0.008377 0.809822
vt 0.006161 0.801068
vt 0.004353 0.790081
vt 0.057196 0.745846
vt 0.021880 0.811020
vt 0.019364 0.808014
vt 0.241808 0.197018
vt 0.241542 0.201338
vt 0.241086 0.193387
vt 0.167910 0.462126
vt 0.090167 0.206014
vt 0.141996 0.462126
vt 0.072940 0.940664
vt 0.057564 0.926818
vt 0.061228 0.936273
vt 0.063257 0.915682
vt 0.081917 0.935949
vt 0.082000 0.917913
vt 0.037935 0.979391
vt 0.085283 0.926384
vt 0.052716 0.976541
vt 0.035780 0.978839
vt 0.061326 0.964192
vt 0.047676 0.933109
vt 0.053402 0.938265
vt 0.050406 0.941699
vt 0.061558 0.956526
vt 0.609553 0.845739
vt 0.581847 0.860147
vt 0.615341 0.839446
vt 0.093789 0.979771
vt 0.655181 0.934049
vt 0.067795 0.940262
vt 0.485370 0.914757
vt 0.487278 0.911584
vt 0.489001 0.912403
vt 0.486901 0.915896
vt 0.480881 0.921335
vt 0.477194 0.923073
vt 0.473238 0.924057
vt 0.469167 0.924251
vt 0.469264 0.922345
vt 0.472962 0.922169
vt 0.482880 0.917496
vt 0.444672 0.888419
vt 0.440985 0.890156
vt 0.437029 0.891141
vt 0.432958 0.891335
vt 0.428927 0.890731
vt 0.425091 0.889352
vt 0.421598 0.887251
vt 0.418582 0.884509
vt 0.416158 0.881231
vt 0.414421 0.877544
vt 0.413437 0.873589
vt 0.413243 0.869517
vt 0.413847 0.865486
vt 0.415226 0.861650
vt 0.417326 0.858157
vt 0.423346 0.852718
vt 0.427033 0.850981
vt 0.430989 0.849996
vt 0.435060 0.849802
vt 0.439091 0.850406
vt 0.442927 0.851785
vt 0.446420 0.853886
vt 0.451859 0.859905
vt 0.453597 0.863593
vt 0.454581 0.867548
vt 0.454775 0.871620
vt 0.454171 0.875651
vt 0.452792 0.879486
vt 0.250078 0.209873
vt 0.246689 0.207609
vt 0.247899 0.206134
vt 0.250977 0.208190
vt 0.257842 0.212229
vt 0.253844 0.211433
vt 0.265916 0.211433
vt 0.261918 0.212229
vt 0.273071 0.207609
vt 0.269681 0.209873
vt 0.275953 0.204727
vt 0.279777 0.197572
vt 0.279777 0.185500
vt 0.275953 0.178345
vt 0.278217 0.181734
vt 0.269681 0.173198
vt 0.273071 0.175463
vt 0.261918 0.170843
vt 0.265916 0.171638
vt 0.253844 0.171638
vt 0.257842 0.170843
vt 0.258028 0.172742
vt 0.254398 0.173464
vt 0.261730 0.172742
vt 0.254398 0.209607
vt 0.258028 0.210329
vt 0.265361 0.173464
vt 0.261730 0.210329
vt 0.268782 0.174881
vt 0.271860 0.176938
vt 0.265361 0.209607
vt 0.268782 0.208190
vt 0.274478 0.179555
vt 0.271860 0.206134
vt 0.276534 0.182633
vt 0.277951 0.186054
vt 0.274478 0.203516
vt 0.276534 0.200438
vt 0.278673 0.189685
vt 0.241677 0.522545
vt 0.423375 0.924251
vt 0.243225 0.182633
vt 0.241808 0.186054
vt 0.239982 0.185500
vt 0.241542 0.181734
vt 0.243807 0.178345
vt 0.246689 0.175463
vt 0.250977 0.174881
vt 0.465603 0.921797
vt 0.469167 0.924251
vt 0.465136 0.923647
vt 0.461300 0.922268
vt 0.457807 0.920167
vt 0.454791 0.917425
vt 0.452368 0.914148
vt 0.450630 0.910461
vt 0.449646 0.906505
vt 0.449452 0.902434
vt 0.450056 0.898403
vt 0.451435 0.894567
vt 0.459555 0.885634
vt 0.467198 0.882912
vt 0.471269 0.882718
vt 0.475300 0.883323
vt 0.479136 0.884701
vt 0.482629 0.886802
vt 0.485645 0.889544
vt 0.488069 0.892822
vt 0.489806 0.896509
vt 0.490790 0.900464
vt 0.490984 0.904536
vt 0.490380 0.908567
vt 0.488530 0.908101
vt 0.489079 0.904439
vt 0.462119 0.920544
vt 0.488903 0.900742
vt 0.458946 0.918636
vt 0.456207 0.916146
vt 0.488009 0.897149
vt 0.486431 0.893800
vt 0.454006 0.913169
vt 0.484230 0.890823
vt 0.452428 0.909820
vt 0.451534 0.906228
vt 0.481491 0.888333
vt 0.478318 0.886425
vt 0.451358 0.902530
vt 0.474834 0.885173
vt 0.471173 0.884624
vt 0.451907 0.898869
vt 0.453159 0.895385
vt 0.467475 0.884800
vt 0.455067 0.892213
vt 0.463883 0.885695
vt 0.287400 0.238411
vt 0.784160 0.506599
vt 0.784160 0.530935
vt 0.098302 0.782283
vt 0.096104 0.782521
vt 0.093983 0.781900
vt 0.059513 0.741394
vt 0.094802 0.752490
vt 0.117027 0.767170
vt 0.091838 0.186904
vt 0.089999 0.185676
vt 0.088770 0.183839
vt 0.088328 0.163693
vt 0.098675 0.711358
vt 0.079154 0.727702
vt 0.117324 0.733637
vt 0.850002 0.509034
vt 0.852170 0.509466
vt 0.854008 0.510694
vt 0.855236 0.512532
vt 0.855667 0.514700
vt 0.855667 0.522835
vt 0.855236 0.525003
vt 0.854008 0.526841
vt 0.852170 0.528069
vt 0.850002 0.528500
vt 0.776453 0.505299
vt 0.756516 0.505296
vt 0.139312 0.167382
vt 0.143318 0.169041
vt 0.144547 0.170879
vt 0.144978 0.173047
vt 0.144549 0.183821
vt 0.143321 0.185659
vt 0.141483 0.186887
vt 0.029460 0.705493
vt 0.052104 0.704068
vt 0.054225 0.704689
vt 0.049906 0.704306
vt 0.039982 0.712614
vt 0.041368 0.710891
vt 0.039361 0.714735
vt 0.770805 0.474179
vt 0.772973 0.474611
vt 0.774810 0.475840
vt 0.776467 0.479847
vt 0.756963 0.477668
vt 0.758192 0.475831
vt 0.760031 0.474604
vt 0.776460 0.557699
vt 0.776029 0.559867
vt 0.774802 0.561706
vt 0.770796 0.563366
vt 0.762190 0.563369
vt 0.760022 0.562938
vt 0.756955 0.559873
vt 0.756523 0.557705
vt 0.055378 0.739743
vt 0.003155 0.803585
vt 0.074723 0.766785
vt 0.245281 0.203516
vt 0.243807 0.204727
vt 0.239982 0.197572
vt 0.239187 0.193574
vt 0.239187 0.189498
vt 0.241086 0.189685
vt 0.243225 0.200438
s 1
usemtl HandleSurface
f 29/1/1 60/2/2 28/3/2
f 9/4/3 42/5/4 41/6/3
f 1/7/5 34/8/6 33/9/5
f 4/10/7 35/11/8 3/12/8
f 5/13/9 36/14/7 4/10/7
f 14/15/10 47/16/11 46/17/10
f 10/18/4 43/19/12 42/5/4
f 8/20/13 39/21/14 7/22/14
f 9/23/3 40/24/13 8/20/13
f 148/25/15 270/26/16 145/27/17
f 13/28/18 46/17/10 45/29/18
f 27/30/19 60/2/2 59/31/19
f 12/32/20 45/29/18 44/33/20
f 43/19/12 12/32/20 44/33/20
f 7/22/14 38/34/21 6/35/21
f 236/36/22 231/37/23 232/38/24
f 27/30/19 58/39/25 26/40/25
f 19/41/26 52/42/27 51/43/26
f 20/44/27 53/45/28 52/42/27
f 24/46/29 55/47/30 23/48/30
f 155/49/31 33/50/32 160/51/33
f 17/52/34 50/53/35 49/54/34
f 24/46/29 57/55/36 56/56/29
f 23/48/30 54/57/37 22/58/37
f 53/45/28 22/58/37 54/57/37
f 17/52/34 48/59/38 16/60/38
f 6/35/21 37/61/9 5/13/9
f 30/62/39 61/63/1 29/1/1
f 52/64/40 122/65/41 119/66/42
f 287/67/43 161/68/44 285/69/45
f 128/70/46 56/71/47 131/72/48
f 58/73/49 134/74/50 57/75/51
f 63/76/52 155/49/31 152/77/53
f 143/78/54 61/79/55 146/80/56
f 34/81/57 160/51/33 33/50/32
f 51/82/58 119/66/42 116/83/59
f 58/73/49 140/84/60 137/85/61
f 131/72/48 57/75/51 134/74/50
f 49/86/62 113/87/63 110/88/64
f 54/89/65 128/70/46 125/90/66
f 271/91/67 273/92/68 269/93/69
f 53/94/70 125/90/66 122/65/41
f 39/95/71 77/96/72 38/97/73
f 47/98/74 107/99/75 104/100/76
f 113/87/63 51/82/58 116/83/59
f 45/101/77 95/102/78 44/103/79
f 48/104/80 110/88/64 107/99/75
f 35/105/81 71/106/82 68/107/83
f 45/101/77 101/108/84 98/109/85
f 89/110/86 43/111/87 92/112/88
f 84/113/89 88/114/90 85/115/91
f 83/116/92 41/117/93 86/118/94
f 119/119/42 123/120/95 120/121/96
f 43/111/87 95/102/78 92/112/88
f 39/95/71 83/116/92 80/122/97
f 159/123/98 65/124/99 66/125/100
f 38/97/73 74/126/101 37/127/102
f 71/106/82 37/127/102 74/126/101
f 92/128/88 90/129/103 89/130/86
f 257/131/104 255/132/105 259/133/106
f 35/105/81 65/134/99 34/81/57
f 239/135/107 233/136/108 235/137/109
f 91/138/110 202/139/111 198/140/112
f 83/141/92 81/142/113 80/143/97
f 84/113/89 82/144/114 81/145/113
f 72/146/115 70/147/116 69/148/117
f 80/143/97 78/149/118 77/150/72
f 72/146/115 76/151/119 73/152/120
f 72/153/115 74/154/101 75/155/121
f 69/148/117 67/156/122 66/157/100
f 99/158/123 103/159/124 100/160/125
f 79/161/126 81/145/113 82/144/114
f 76/151/119 78/162/118 79/161/126
f 232/163/24 226/164/127 230/165/128
f 69/166/117 71/167/82 72/153/115
f 89/130/86 87/168/129 86/169/94
f 96/170/130 100/160/125 97/171/131
f 249/172/132 247/173/133 251/174/134
f 88/175/90 90/176/103 91/177/135
f 66/125/100 68/178/83 69/166/117
f 114/179/136 112/180/137 111/181/138
f 93/182/139 97/171/131 94/183/140
f 95/184/78 93/185/139 92/128/88
f 105/186/141 109/187/142 106/188/143
f 93/182/139 91/177/135 90/176/103
f 108/189/144 112/180/137 109/187/142
f 98/190/85 102/191/145 99/192/123
f 116/193/59 120/121/96 117/194/146
f 107/195/75 111/196/138 108/197/144
f 158/198/147 66/157/100 67/156/122
f 101/199/84 105/200/141 102/191/145
f 110/201/64 114/202/136 111/196/138
f 102/203/145 106/188/143 103/159/124
f 114/179/136 118/204/148 115/205/149
f 126/206/150 130/207/151 127/208/152
f 220/209/153 223/210/154 219/211/155
f 128/212/46 132/213/156 129/214/157
f 120/215/96 118/204/148 117/216/146
f 116/193/59 114/202/136 113/217/63
f 122/218/41 126/219/150 123/120/95
f 145/220/158 147/221/159 148/222/160
f 123/223/95 127/208/152 124/224/161
f 134/225/50 138/226/162 135/227/163
f 143/78/54 141/228/164 140/84/60
f 128/212/46 126/219/150 125/229/66
f 129/230/157 133/231/165 130/207/151
f 135/232/163 139/233/166 136/234/167
f 109/235/168 226/164/127 222/236/169
f 144/237/170 142/238/171 141/228/164
f 132/239/156 136/234/167 133/231/165
f 138/226/162 140/84/60 141/228/164
f 166/240/172 164/241/173 162/242/174
f 144/237/170 146/243/56 147/244/159
f 139/233/166 141/228/164 142/238/171
f 147/244/159 149/245/175 150/246/176
f 156/247/177 158/198/147 157/248/178
f 154/249/179 156/247/177 157/248/178
f 167/250/180 161/68/44 163/251/181
f 150/252/176 148/222/160 147/221/159
f 150/252/176 154/249/179 151/253/182
f 183/254/183 185/255/184 181/256/185
f 120/215/96 124/224/161 121/257/186
f 168/258/187 163/251/181 164/259/173
f 175/260/188 169/261/189 171/262/190
f 150/246/176 152/263/53 153/264/191
f 156/265/177 160/266/33 159/123/98
f 174/267/192 172/268/193 170/269/194
f 183/254/183 177/270/195 179/271/196
f 166/240/172 172/268/193 168/272/187
f 184/273/197 179/271/196 180/274/198
f 178/275/199 184/276/197 180/277/198
f 171/262/190 165/278/200 167/250/180
f 204/279/201 199/280/202 200/281/203
f 177/270/195 175/260/188 179/271/196
f 194/282/204 192/283/205 190/284/206
f 176/285/207 179/271/196 175/260/188
f 121/286/208 242/287/209 238/288/210
f 174/267/192 180/277/198 176/289/207
f 176/285/207 171/262/190 172/290/193
f 248/291/211 243/292/212 244/293/213
f 155/294/31 153/264/191 152/263/53
f 172/290/193 167/250/180 168/258/187
f 205/295/214 203/296/215 207/297/216
f 194/298/204 200/299/203 196/300/217
f 154/301/218 286/302/219 282/303/220
f 196/304/217 191/305/221 192/306/205
f 196/307/217 199/280/202 195/308/222
f 210/309/223 208/310/224 206/311/225
f 187/312/226 189/313/227 185/255/184
f 195/314/222 189/313/227 191/305/221
f 208/315/224 203/296/215 204/279/201
f 199/280/202 193/316/228 195/308/222
f 219/211/155 213/317/229 215/318/230
f 206/311/225 204/319/201 202/139/111
f 214/320/231 212/321/232 210/309/223
f 203/296/215 197/322/233 199/280/202
f 208/315/224 211/323/234 207/297/216
f 198/140/112 204/319/201 200/299/203
f 228/324/235 223/210/154 224/325/236
f 240/326/237 243/292/212 239/135/107
f 216/327/238 219/211/155 215/318/230
f 222/236/169 228/328/235 224/329/236
f 238/288/210 244/330/213 240/331/237
f 216/327/238 211/323/234 212/332/232
f 213/317/229 211/323/234 215/318/230
f 214/320/231 220/333/153 216/334/238
f 207/297/216 209/335/239 205/295/214
f 188/336/240 191/305/221 187/312/226
f 223/210/154 225/337/241 221/338/242
f 219/211/155 221/338/242 217/339/243
f 232/38/24 227/340/244 228/324/235
f 231/37/23 225/337/241 227/340/244
f 184/273/197 187/312/226 183/254/183
f 103/341/245 210/309/223 100/342/246
f 239/135/107 241/343/247 237/344/248
f 236/36/22 239/135/107 235/137/109
f 107/195/75 105/200/141 104/345/76
f 238/288/210 236/346/22 234/347/249
f 246/348/250 244/330/213 242/287/209
f 235/137/109 229/349/251 231/37/23
f 75/155/121 77/150/72 78/149/118
f 230/165/128 236/346/22 232/163/24
f 268/350/252 263/351/253 264/352/254
f 245/353/255 243/292/212 247/173/133
f 252/354/256 247/173/133 248/291/211
f 26/40/25 57/55/36 25/355/36
f 284/356/257 287/67/43 283/357/258
f 246/348/250 252/358/256 248/359/211
f 95/184/78 99/192/123 96/360/130
f 266/361/259 272/362/260 268/350/252
f 250/363/261 256/364/262 252/358/256
f 252/354/256 255/132/105 251/174/134
f 263/351/253 260/365/263 264/352/254
f 258/366/264 264/367/254 260/368/263
f 47/98/74 101/108/84 46/369/265
f 67/370/266 162/242/174 158/371/267
f 256/372/262 259/133/106 255/132/105
f 76/373/268 182/374/269 178/275/199
f 115/375/270 226/164/127 112/376/271
f 262/377/272 268/350/252 264/367/254
f 258/366/264 256/364/262 254/378/273
f 251/174/134 253/379/274 249/172/132
f 280/380/275 275/381/276 276/382/277
f 271/91/67 265/383/278 267/384/279
f 278/385/280 276/386/277 274/387/281
f 140/84/60 60/388/282 143/78/54
f 286/302/219 164/241/173 288/389/283
f 272/362/260 275/381/276 271/91/67
f 270/26/16 276/386/277 272/362/260
f 283/357/258 285/69/45 281/390/284
f 278/385/280 284/391/257 280/392/275
f 73/393/285 178/275/199 174/267/192
f 82/394/286 182/374/269 79/395/287
f 279/396/288 281/390/284 277/397/289
f 280/380/275 283/357/258 279/396/288
f 286/302/219 284/391/257 282/303/220
f 132/213/156 134/225/50 135/227/163
f 275/381/276 277/397/289 273/92/68
f 272/362/260 267/384/279 268/350/252
f 157/398/290 162/242/174 286/302/219
f 250/363/261 133/399/291 254/378/273
f 31/400/292 62/401/39 30/62/39
f 103/341/245 218/402/293 214/320/231
f 164/259/173 287/67/43 288/403/283
f 186/404/294 85/405/295 190/284/206
f 86/406/94 84/407/89 83/141/92
f 182/374/269 188/408/240 184/276/197
f 194/298/204 91/138/110 198/140/112
f 263/351/253 257/131/104 259/133/106
f 118/409/296 230/165/128 115/375/270
f 136/410/297 262/377/272 258/366/264
f 234/347/249 121/286/208 238/288/210
f 88/411/298 190/284/206 85/405/295
f 106/412/299 222/236/169 218/402/293
f 139/413/300 266/361/259 262/377/272
f 190/284/206 188/408/240 186/404/294
f 151/414/301 274/387/281 148/25/15
f 154/301/218 278/385/280 151/414/301
f 124/415/302 246/348/250 242/287/209
f 130/416/303 246/348/250 127/417/304
f 254/378/273 136/410/297 258/366/264
f 3/12/8 34/8/6 2/418/6
f 15/419/11 48/59/38 47/16/11
f 222/236/169 220/333/153 218/402/293
f 142/420/305 270/26/16 266/361/259
f 267/384/279 261/421/306 263/351/253
f 31/400/292 64/422/307 63/423/292
f 1/7/5 64/422/307 32/424/307
f 41/425/93 89/110/86 86/426/94
f 149/427/175 63/76/52 152/77/53
f 249/172/132 281/390/284 185/255/184
f 73/393/285 170/269/194 70/428/308
f 70/428/308 166/240/172 67/370/266
f 61/79/55 149/427/175 146/80/56
f 19/41/26 50/53/35 18/429/35
f 100/342/246 206/311/225 97/430/309
f 94/431/310 206/311/225 202/139/111
f 378/432/36 310/433/36 312/434/36
f 379/435/3 395/436/3 411/437/3
f 351/438/311 289/439/5 352/440/311
f 349/441/312 352/440/311 350/442/312
f 347/443/313 350/442/312 348/444/313
f 345/445/314 348/444/313 346/446/314
f 343/447/315 346/446/314 344/448/315
f 341/449/316 344/448/315 342/450/316
f 349/451/3 347/452/3 448/453/3
f 339/454/317 342/450/316 340/455/317
f 337/456/318 340/455/317 338/457/318
f 335/458/319 338/457/318 336/459/319
f 333/460/320 336/459/319 334/461/320
f 331/462/321 334/461/320 332/463/321
f 329/464/322 332/463/321 330/465/322
f 327/466/323 330/465/322 328/467/323
f 325/468/324 328/467/323 326/469/324
f 323/470/325 326/469/324 324/471/325
f 321/472/34 324/471/325 322/473/34
f 319/474/326 322/473/34 320/475/326
f 317/476/327 320/475/326 318/477/327
f 315/478/328 318/477/327 316/479/328
f 313/480/329 316/479/328 314/481/329
f 311/482/330 314/481/329 312/483/330
f 309/484/331 312/483/330 310/485/331
f 307/486/332 310/485/331 308/487/332
f 305/488/333 308/487/332 306/489/333
f 303/490/334 306/491/333 304/492/334
f 301/493/335 304/492/334 302/494/335
f 299/495/336 302/494/335 300/496/336
f 297/497/337 300/496/336 298/498/337
f 295/499/338 298/498/337 296/500/338
f 293/501/339 296/500/338 294/502/339
f 291/503/340 294/502/339 292/504/340
f 290/505/5 292/504/340 289/439/5
f 416/506/311 353/507/5 415/508/311
f 414/509/312 415/508/311 413/510/312
f 412/511/313 413/510/312 411/437/313
f 410/512/314 411/437/313 409/513/314
f 408/514/315 409/513/314 407/515/315
f 406/516/316 407/515/315 405/517/316
f 404/518/317 405/517/316 403/519/317
f 402/520/318 403/519/317 401/521/318
f 400/522/319 401/521/318 399/523/319
f 398/524/320 399/523/319 397/525/320
f 396/526/321 397/525/320 395/527/321
f 394/528/322 395/527/321 393/529/322
f 392/530/323 393/529/322 391/531/323
f 390/532/324 391/531/323 389/533/324
f 388/534/325 389/533/324 387/535/325
f 386/536/34 387/535/325 385/537/34
f 384/538/326 385/537/34 383/539/326
f 382/540/327 383/539/326 381/541/327
f 380/542/328 381/541/327 379/543/328
f 378/544/329 379/543/328 377/545/329
f 376/546/330 377/545/329 375/547/330
f 374/548/331 375/547/330 373/549/331
f 372/550/332 373/549/331 371/551/332
f 370/552/333 371/551/332 369/553/333
f 368/554/334 369/555/333 367/556/334
f 366/557/335 367/556/334 365/558/335
f 364/559/336 365/558/335 363/560/336
f 362/561/337 363/560/336 361/562/337
f 360/563/338 361/562/337 359/564/338
f 358/565/339 359/564/338 357/566/339
f 356/567/340 357/566/339 354/568/340
f 417/569/5 354/568/340 353/507/5
f 321/570/3 435/571/3 323/572/3
f 406/573/36 344/574/36 346/575/36
f 453/576/341 451/577/342 450/578/343
f 454/579/344 449/580/345 451/577/342
f 450/578/343 457/581/346 456/582/347
f 457/581/346 449/580/345 455/583/348
f 456/582/347 460/584/349 459/585/350
f 457/581/346 458/586/351 460/584/349
f 459/585/350 463/587/352 462/588/353
f 460/584/349 461/589/354 463/587/352
f 462/588/353 466/590/355 465/591/356
f 463/587/352 464/592/357 466/590/355
f 465/591/356 469/593/358 468/594/359
f 466/590/355 467/595/360 469/593/358
f 468/594/359 472/596/361 471/597/362
f 472/596/361 467/595/360 470/598/363
f 474/599/364 472/596/361 475/600/365
f 475/600/365 470/598/363 473/601/366
f 474/599/364 478/602/367 477/603/368
f 475/600/365 476/604/369 478/602/367
f 477/603/368 481/605/370 480/606/371
f 478/602/367 479/607/372 481/605/370
f 483/608/373 481/605/370 484/609/374
f 484/609/374 479/607/372 482/610/375
f 486/611/376 484/609/374 487/612/377
f 487/612/377 482/610/375 485/613/378
f 489/614/379 487/612/377 490/615/380
f 490/615/380 485/613/378 488/616/381
f 492/617/382 490/615/380 493/618/383
f 493/618/383 488/616/381 491/619/384
f 492/617/382 496/620/385 495/621/386
f 496/620/385 491/619/384 494/622/387
f 495/621/386 499/623/388 498/624/389
f 496/620/385 497/625/390 499/623/388
f 501/626/391 499/623/388 502/627/392
f 502/627/392 497/625/390 500/628/393
f 501/626/391 505/629/394 504/630/395
f 502/627/392 503/631/396 505/629/394
f 504/630/395 508/632/397 507/633/398
f 505/629/394 506/634/399 508/632/397
f 510/635/400 508/632/397 511/636/401
f 511/636/401 506/634/399 509/637/402
f 510/635/400 514/638/403 513/639/404
f 511/636/401 512/640/405 514/638/403
f 513/639/404 517/641/406 516/642/407
f 514/638/403 515/643/408 517/641/406
f 516/642/407 520/644/409 519/645/410
f 520/644/409 515/643/408 518/646/411
f 519/645/410 523/647/412 522/648/413
f 520/644/409 521/649/414 523/647/412
f 522/648/413 526/650/415 525/651/416
f 523/647/412 524/652/417 526/650/415
f 525/651/416 529/653/418 528/654/419
f 526/650/415 527/655/420 529/653/418
f 531/656/421 529/653/418 532/657/422
f 532/657/422 527/655/420 530/658/423
f 534/659/424 532/657/422 535/660/425
f 532/657/422 533/661/426 535/660/425
f 534/659/424 538/662/427 537/663/428
f 535/660/425 536/664/429 538/662/427
f 537/663/428 541/665/430 540/666/431
f 538/662/427 539/667/432 541/665/430
f 540/666/431 544/668/433 543/669/434
f 541/665/430 542/670/435 544/668/433
f 543/669/434 454/579/344 453/576/341
f 544/668/433 452/671/436 454/579/344
f 530/658/423 506/634/399 482/610/375
f 450/672/343 419/673/339 418/674/340
f 453/675/341 418/674/340 355/676/5
f 543/677/434 355/676/5 448/678/311
f 456/679/347 420/680/338 419/673/339
f 459/681/350 421/682/337 420/680/338
f 462/683/353 422/684/336 421/682/337
f 465/685/356 423/686/335 422/684/336
f 468/687/359 424/688/334 423/686/335
f 471/689/362 425/690/333 424/688/334
f 474/691/364 426/692/332 425/693/333
f 477/694/368 427/695/331 426/692/332
f 480/696/371 428/697/330 427/695/331
f 483/698/373 429/699/329 428/697/330
f 486/700/376 430/701/328 429/699/329
f 489/702/379 431/703/327 430/701/328
f 492/704/382 432/705/326 431/703/327
f 495/706/386 433/707/34 432/705/326
f 498/708/389 434/709/325 433/707/34
f 501/710/391 435/711/324 434/709/325
f 504/712/395 436/713/323 435/711/324
f 507/714/398 437/715/322 436/713/323
f 510/716/400 438/717/321 437/715/322
f 513/718/404 439/719/320 438/717/321
f 516/720/407 440/721/319 439/719/320
f 519/722/410 441/723/318 440/721/319
f 522/724/413 442/725/317 441/723/318
f 525/726/416 443/727/316 442/725/317
f 528/728/419 444/729/315 443/727/316
f 531/730/421 445/731/314 444/729/315
f 534/732/424 446/733/313 445/731/314
f 537/734/428 447/735/312 446/733/313
f 540/736/431 448/678/311 447/735/312
f 548/737/437 558/738/437 549/739/437
f 559/740/438 547/741/438 550/742/438
f 551/743/36 561/744/36 545/745/36
f 557/746/5 616/747/5 556/748/5
f 562/749/333 560/750/333 561/751/333
f 604/752/439 605/753/439 562/754/440
f 546/755/333 553/756/333 551/757/333
f 558/738/441 559/740/442 553/758/443
f 565/759/444 581/760/327 579/761/444
f 568/762/327 582/763/329 581/760/327
f 567/764/329 583/765/331 582/763/329
f 566/766/331 580/767/445 583/765/331
f 575/768/444 571/769/327 569/770/444
f 578/771/327 572/772/329 571/769/327
f 577/773/329 573/774/331 572/772/329
f 576/775/331 570/776/445 573/774/331
f 594/777/446 593/778/320 596/779/320
f 596/779/320 592/780/322 597/781/322
f 597/781/322 591/782/324 598/783/324
f 598/783/324 589/784/447 595/785/447
f 584/786/446 603/787/320 586/788/320
f 586/788/320 602/789/322 587/790/322
f 587/790/322 601/791/324 588/792/324
f 601/791/324 585/793/447 588/792/324
f 579/794/444 599/795/447 565/796/444
f 566/797/3 599/798/3 600/799/3
f 609/800/448 563/801/3 605/802/448
f 575/803/444 595/785/447 589/784/447
f 596/804/36 569/805/36 570/806/36
f 593/807/449 574/808/450 575/809/451
f 588/810/452 582/811/452 555/812/453
f 600/799/446 555/813/318 550/814/318
f 549/815/318 590/816/446 594/777/446
f 605/817/448 611/818/454 609/819/448
f 608/820/454 612/821/455 611/818/454
f 607/822/455 613/823/456 612/821/455
f 606/824/456 610/825/457 613/823/456
f 547/826/318 604/827/457 550/828/318
f 620/829/457 631/830/456 629/831/457
f 623/832/456 632/833/455 631/834/456
f 622/835/455 633/836/454 632/837/455
f 621/838/454 630/839/448 633/840/454
f 615/841/458 626/842/459 624/843/458
f 618/844/459 627/845/460 626/846/459
f 617/847/460 628/848/461 627/849/460
f 616/747/461 625/850/462 628/851/461
f 629/852/457 614/853/462 620/829/457
f 556/748/36 624/854/458 558/855/36
f 557/746/3 630/856/448 619/857/448
f 311/858/3 427/859/3 313/860/3
f 29/1/1 61/63/1 60/2/2
f 9/4/3 10/18/4 42/5/4
f 1/7/5 2/418/6 34/8/6
f 4/10/7 36/14/7 35/11/8
f 5/13/9 37/61/9 36/14/7
f 14/15/10 15/419/11 47/16/11
f 10/18/4 11/861/12 43/19/12
f 8/20/13 40/24/13 39/21/14
f 9/23/3 41/862/3 40/24/13
f 148/25/15 274/387/281 270/26/16
f 13/28/18 14/15/10 46/17/10
f 27/30/19 28/3/2 60/2/2
f 12/32/20 13/28/18 45/29/18
f 43/19/12 11/861/12 12/32/20
f 7/22/14 39/21/14 38/34/21
f 236/36/22 235/137/109 231/37/23
f 27/30/19 59/31/19 58/39/25
f 19/41/26 20/44/27 52/42/27
f 20/44/27 21/863/28 53/45/28
f 24/46/29 56/56/29 55/47/30
f 155/49/31 64/864/463 33/50/32
f 17/52/34 18/429/35 50/53/35
f 24/46/29 25/355/36 57/55/36
f 23/48/30 55/47/30 54/57/37
f 53/45/28 21/863/28 22/58/37
f 17/52/34 49/54/34 48/59/38
f 6/35/21 38/34/21 37/61/9
f 30/62/39 62/401/39 61/63/1
f 52/64/40 53/94/70 122/65/41
f 287/67/43 163/251/181 161/68/44
f 128/70/46 55/865/464 56/71/47
f 58/73/49 137/85/61 134/74/50
f 63/76/52 64/864/463 155/49/31
f 143/78/54 60/388/282 61/79/55
f 34/81/57 65/134/99 160/51/33
f 51/82/58 52/64/40 119/66/42
f 58/73/49 59/866/465 140/84/60
f 131/72/48 56/71/47 57/75/51
f 49/86/62 50/867/466 113/87/63
f 54/89/65 55/865/464 128/70/46
f 271/91/67 275/381/276 273/92/68
f 53/94/70 54/89/65 125/90/66
f 39/95/71 80/122/97 77/96/72
f 47/98/74 48/104/80 107/99/75
f 113/87/63 50/867/466 51/82/58
f 45/101/77 98/109/85 95/102/78
f 48/104/80 49/86/62 110/88/64
f 35/105/81 36/868/467 71/106/82
f 45/101/77 46/369/265 101/108/84
f 89/110/86 42/869/468 43/111/87
f 84/113/89 87/870/129 88/114/90
f 83/116/92 40/871/469 41/117/93
f 119/119/42 122/218/41 123/120/95
f 43/111/87 44/103/79 95/102/78
f 39/95/71 40/871/469 83/116/92
f 159/123/98 160/266/33 65/124/99
f 38/97/73 77/96/72 74/126/101
f 71/106/82 36/868/467 37/127/102
f 92/128/88 93/185/139 90/129/103
f 257/131/104 253/379/274 255/132/105
f 35/105/81 68/107/83 65/134/99
f 239/135/107 237/344/248 233/136/108
f 91/138/110 94/431/310 202/139/111
f 83/141/92 84/407/89 81/142/113
f 84/113/89 85/115/91 82/144/114
f 72/146/115 73/152/120 70/147/116
f 80/143/97 81/142/113 78/149/118
f 72/146/115 75/872/121 76/151/119
f 72/153/115 71/167/82 74/154/101
f 69/148/117 70/147/116 67/156/122
f 99/158/123 102/203/145 103/159/124
f 79/161/126 78/162/118 81/145/113
f 76/151/119 75/872/121 78/162/118
f 232/163/24 228/328/235 226/164/127
f 69/166/117 68/178/83 71/167/82
f 89/130/86 90/129/103 87/168/129
f 96/170/130 99/158/123 100/160/125
f 249/172/132 245/353/255 247/173/133
f 88/175/90 87/873/129 90/176/103
f 66/125/100 65/124/99 68/178/83
f 114/179/136 115/205/149 112/180/137
f 93/182/139 96/170/130 97/171/131
f 95/184/78 96/360/130 93/185/139
f 105/186/141 108/189/144 109/187/142
f 93/182/139 94/183/140 91/177/135
f 108/189/144 111/181/138 112/180/137
f 98/190/85 101/199/84 102/191/145
f 116/193/59 119/119/42 120/121/96
f 107/195/75 110/201/64 111/196/138
f 158/198/147 159/874/98 66/157/100
f 101/199/84 104/345/76 105/200/141
f 110/201/64 113/217/63 114/202/136
f 102/203/145 105/186/141 106/188/143
f 114/179/136 117/216/146 118/204/148
f 126/206/150 129/230/157 130/207/151
f 220/209/153 224/325/236 223/210/154
f 128/212/46 131/875/48 132/213/156
f 120/215/96 121/257/186 118/204/148
f 116/193/59 117/194/146 114/202/136
f 122/218/41 125/229/66 126/219/150
f 145/220/158 144/237/170 147/221/159
f 123/223/95 126/206/150 127/208/152
f 134/225/50 137/876/61 138/226/162
f 143/78/54 144/237/170 141/228/164
f 128/212/46 129/214/157 126/219/150
f 129/230/157 132/239/156 133/231/165
f 135/232/163 138/877/162 139/233/166
f 109/235/168 112/376/271 226/164/127
f 144/237/170 145/220/158 142/238/171
f 132/239/156 135/232/163 136/234/167
f 138/226/162 137/876/61 140/84/60
f 166/240/172 168/272/187 164/241/173
f 144/237/170 143/78/54 146/243/56
f 139/233/166 138/877/162 141/228/164
f 147/244/159 146/243/56 149/245/175
f 156/247/177 159/874/98 158/198/147
f 154/249/179 153/878/191 156/247/177
f 167/250/180 165/278/200 161/68/44
f 150/252/176 151/253/182 148/222/160
f 150/252/176 153/878/191 154/249/179
f 183/254/183 187/312/226 185/255/184
f 120/215/96 123/223/95 124/224/161
f 168/258/187 167/250/180 163/251/181
f 175/260/188 173/879/470 169/261/189
f 150/246/176 149/245/175 152/263/53
f 156/265/177 155/294/31 160/266/33
f 174/267/192 176/289/207 172/268/193
f 183/254/183 181/256/185 177/270/195
f 166/240/172 170/269/194 172/268/193
f 184/273/197 183/254/183 179/271/196
f 178/275/199 182/374/269 184/276/197
f 171/262/190 169/261/189 165/278/200
f 204/279/201 203/296/215 199/280/202
f 177/270/195 173/879/470 175/260/188
f 194/282/204 196/880/217 192/283/205
f 176/285/207 180/274/198 179/271/196
f 121/286/208 124/415/302 242/287/209
f 174/267/192 178/275/199 180/277/198
f 176/285/207 175/260/188 171/262/190
f 248/291/211 247/173/133 243/292/212
f 155/294/31 156/265/177 153/264/191
f 172/290/193 171/262/190 167/250/180
f 205/295/214 201/881/471 203/296/215
f 194/298/204 198/140/112 200/299/203
f 154/301/218 157/398/290 286/302/219
f 196/304/217 195/314/222 191/305/221
f 196/307/217 200/281/203 199/280/202
f 210/309/223 212/321/232 208/310/224
f 187/312/226 191/305/221 189/313/227
f 195/314/222 193/316/228 189/313/227
f 208/315/224 207/297/216 203/296/215
f 199/280/202 197/322/233 193/316/228
f 219/211/155 217/339/243 213/317/229
f 206/311/225 208/310/224 204/319/201
f 214/320/231 216/334/238 212/321/232
f 203/296/215 201/881/471 197/322/233
f 208/315/224 212/332/232 211/323/234
f 198/140/112 202/139/111 204/319/201
f 228/324/235 227/340/244 223/210/154
f 240/326/237 244/293/213 243/292/212
f 216/327/238 220/209/153 219/211/155
f 222/236/169 226/164/127 228/328/235
f 238/288/210 242/287/209 244/330/213
f 216/327/238 215/318/230 211/323/234
f 213/317/229 209/335/239 211/323/234
f 214/320/231 218/402/293 220/333/153
f 207/297/216 211/323/234 209/335/239
f 188/336/240 192/306/205 191/305/221
f 223/210/154 227/340/244 225/337/241
f 219/211/155 223/210/154 221/338/242
f 232/38/24 231/37/23 227/340/244
f 231/37/23 229/349/251 225/337/241
f 184/273/197 188/336/240 187/312/226
f 103/341/245 214/320/231 210/309/223
f 239/135/107 243/292/212 241/343/247
f 236/36/22 240/326/237 239/135/107
f 107/195/75 108/197/144 105/200/141
f 238/288/210 240/331/237 236/346/22
f 246/348/250 248/359/211 244/330/213
f 235/137/109 233/136/108 229/349/251
f 75/155/121 74/154/101 77/150/72
f 230/165/128 234/347/249 236/346/22
f 268/350/252 267/384/279 263/351/253
f 245/353/255 241/343/247 243/292/212
f 252/354/256 251/174/134 247/173/133
f 26/40/25 58/39/25 57/55/36
f 284/356/257 288/403/283 287/67/43
f 246/348/250 250/363/261 252/358/256
f 95/184/78 98/190/85 99/192/123
f 266/361/259 270/26/16 272/362/260
f 250/363/261 254/378/273 256/364/262
f 252/354/256 256/372/262 255/132/105
f 263/351/253 259/133/106 260/365/263
f 258/366/264 262/377/272 264/367/254
f 47/98/74 104/100/76 101/108/84
f 67/370/266 166/240/172 162/242/174
f 256/372/262 260/365/263 259/133/106
f 76/373/268 79/395/287 182/374/269
f 115/375/270 230/165/128 226/164/127
f 262/377/272 266/361/259 268/350/252
f 258/366/264 260/368/263 256/364/262
f 251/174/134 255/132/105 253/379/274
f 280/380/275 279/396/288 275/381/276
f 271/91/67 269/93/69 265/383/278
f 278/385/280 280/392/275 276/386/277
f 140/84/60 59/866/465 60/388/282
f 286/302/219 162/242/174 164/241/173
f 272/362/260 276/382/277 275/381/276
f 270/26/16 274/387/281 276/386/277
f 283/357/258 287/67/43 285/69/45
f 278/385/280 282/303/220 284/391/257
f 73/393/285 76/373/268 178/275/199
f 82/394/286 186/404/294 182/374/269
f 279/396/288 283/357/258 281/390/284
f 280/380/275 284/356/257 283/357/258
f 286/302/219 288/389/283 284/391/257
f 132/213/156 131/875/48 134/225/50
f 275/381/276 279/396/288 277/397/289
f 272/362/260 271/91/67 267/384/279
f 157/398/290 158/371/267 162/242/174
f 250/363/261 130/416/303 133/399/291
f 31/400/292 63/423/292 62/401/39
f 103/341/245 106/412/299 218/402/293
f 164/259/173 163/251/181 287/67/43
f 186/404/294 82/394/286 85/405/295
f 86/406/94 87/882/129 84/407/89
f 182/374/269 186/404/294 188/408/240
f 194/298/204 88/883/298 91/138/110
f 263/351/253 261/421/306 257/131/104
f 118/409/296 234/347/249 230/165/128
f 136/410/297 139/413/300 262/377/272
f 234/347/249 118/409/296 121/286/208
f 88/411/298 194/282/204 190/284/206
f 106/412/299 109/235/168 222/236/169
f 139/413/300 142/420/305 266/361/259
f 190/284/206 192/283/205 188/408/240
f 151/414/301 278/385/280 274/387/281
f 154/301/218 282/303/220 278/385/280
f 124/415/302 127/417/304 246/348/250
f 130/416/303 250/363/261 246/348/250
f 254/378/273 133/399/291 136/410/297
f 3/12/8 35/11/8 34/8/6
f 15/419/11 16/60/38 48/59/38
f 222/236/169 224/329/236 220/333/153
f 142/420/305 145/27/17 270/26/16
f 267/384/279 265/383/278 261/421/306
f 31/400/292 32/424/307 64/422/307
f 1/7/5 33/9/5 64/422/307
f 41/425/93 42/869/468 89/110/86
f 149/427/175 62/884/472 63/76/52
f 185/255/184 189/313/227 193/316/228
f 193/316/228 197/322/233 201/881/471
f 201/881/471 205/295/214 209/335/239
f 209/335/239 213/317/229 217/339/243
f 217/339/243 221/338/242 225/337/241
f 225/337/241 229/349/251 233/136/108
f 233/136/108 237/344/248 241/343/247
f 241/343/247 245/353/255 249/172/132
f 249/172/132 253/379/274 257/131/104
f 257/131/104 261/421/306 265/383/278
f 265/383/278 269/93/69 273/92/68
f 273/92/68 277/397/289 281/390/284
f 281/390/284 285/69/45 161/68/44
f 161/68/44 165/278/200 169/261/189
f 169/261/189 173/879/470 177/270/195
f 177/270/195 181/256/185 185/255/184
f 185/255/184 193/316/228 201/881/471
f 201/881/471 209/335/239 217/339/243
f 217/339/243 225/337/241 233/136/108
f 233/136/108 241/343/247 249/172/132
f 249/172/132 257/131/104 265/383/278
f 265/383/278 273/92/68 281/390/284
f 281/390/284 161/68/44 169/261/189
f 169/261/189 177/270/195 185/255/184
f 185/255/184 201/881/471 217/339/243
f 217/339/243 233/136/108 249/172/132
f 249/172/132 265/383/278 281/390/284
f 281/390/284 169/261/189 185/255/184
f 185/255/184 217/339/243 249/172/132
f 73/393/285 174/267/192 170/269/194
f 70/428/308 170/269/194 166/240/172
f 61/79/55 62/884/472 149/427/175
f 19/41/26 51/43/26 50/53/35
f 100/342/246 210/309/223 206/311/225
f 94/431/310 97/430/309 206/311/225
f 316/885/36 318/886/36 382/887/36
f 382/887/36 380/888/36 378/432/36
f 378/432/36 376/889/36 374/890/36
f 374/890/36 372/891/36 370/892/36
f 370/892/36 306/893/36 308/894/36
f 370/892/36 308/894/36 310/433/36
f 378/432/36 374/890/36 370/892/36
f 316/885/36 382/887/36 378/432/36
f 314/895/36 316/885/36 378/432/36
f 378/432/36 370/892/36 310/433/36
f 312/434/36 314/895/36 378/432/36
f 411/437/3 413/896/3 415/897/3
f 415/897/3 353/898/3 354/899/3
f 354/899/3 357/900/3 359/901/3
f 359/901/3 361/902/3 363/903/3
f 363/903/3 365/904/3 367/905/3
f 367/905/3 369/906/3 371/907/3
f 371/907/3 373/908/3 375/909/3
f 375/909/3 377/910/3 379/435/3
f 379/435/3 381/911/3 383/912/3
f 383/912/3 385/913/3 387/914/3
f 387/914/3 389/915/3 391/916/3
f 391/916/3 393/917/3 395/436/3
f 395/436/3 397/918/3 399/919/3
f 399/919/3 401/920/3 403/921/3
f 403/921/3 405/922/3 407/923/3
f 407/923/3 409/513/3 411/437/3
f 411/437/3 415/897/3 354/899/3
f 354/899/3 359/901/3 363/903/3
f 363/903/3 367/905/3 371/907/3
f 371/907/3 375/909/3 379/435/3
f 379/435/3 383/912/3 387/914/3
f 387/914/3 391/916/3 395/436/3
f 395/436/3 399/919/3 403/921/3
f 403/921/3 407/923/3 411/437/3
f 411/437/3 354/899/3 363/903/3
f 363/903/3 371/907/3 379/435/3
f 379/435/3 387/914/3 395/436/3
f 395/436/3 403/921/3 411/437/3
f 411/437/3 363/903/3 379/435/3
f 351/438/311 290/505/5 289/439/5
f 349/441/312 351/438/311 352/440/311
f 347/443/313 349/441/312 350/442/312
f 345/445/314 347/443/313 348/444/313
f 343/447/315 345/445/314 346/446/314
f 341/449/316 343/447/315 344/448/315
f 424/924/3 425/925/3 305/926/3
f 424/924/3 305/926/3 303/927/3
f 422/928/3 423/929/3 424/924/3
f 420/930/3 421/931/3 422/928/3
f 418/932/3 419/933/3 420/930/3
f 448/453/3 355/934/3 418/932/3
f 446/733/3 447/935/3 448/453/3
f 444/936/3 445/731/3 446/733/3
f 442/937/3 443/938/3 444/936/3
f 440/939/3 441/940/3 442/937/3
f 438/941/3 439/942/3 440/939/3
f 436/943/3 437/944/3 438/941/3
f 329/945/3 327/946/3 436/943/3
f 331/947/3 329/945/3 436/943/3
f 436/943/3 438/941/3 440/939/3
f 440/939/3 442/937/3 444/936/3
f 444/936/3 446/733/3 448/453/3
f 448/453/3 418/932/3 420/930/3
f 420/930/3 422/928/3 424/924/3
f 424/924/3 303/927/3 301/948/3
f 424/924/3 301/948/3 299/949/3
f 331/947/3 436/943/3 440/939/3
f 333/950/3 331/947/3 440/939/3
f 420/930/3 424/924/3 299/949/3
f 420/930/3 299/949/3 297/951/3
f 335/952/3 333/950/3 440/939/3
f 337/953/3 335/952/3 440/939/3
f 420/930/3 297/951/3 295/954/3
f 420/930/3 295/954/3 293/955/3
f 339/956/3 337/953/3 440/939/3
f 339/956/3 440/939/3 444/936/3
f 420/930/3 293/955/3 291/957/3
f 448/453/3 420/930/3 291/957/3
f 341/958/3 339/956/3 444/936/3
f 343/959/3 341/958/3 444/936/3
f 448/453/3 291/957/3 290/960/3
f 448/453/3 290/960/3 351/961/3
f 345/962/3 343/959/3 444/936/3
f 347/452/3 345/962/3 444/936/3
f 448/453/3 351/961/3 349/451/3
f 347/452/3 444/936/3 448/453/3
f 339/454/317 341/449/316 342/450/316
f 337/456/318 339/454/317 340/455/317
f 335/458/319 337/456/318 338/457/318
f 333/460/320 335/458/319 336/459/319
f 331/462/321 333/460/320 334/461/320
f 329/464/322 331/462/321 332/463/321
f 327/466/323 329/464/322 330/465/322
f 325/468/324 327/466/323 328/467/323
f 323/470/325 325/468/324 326/469/324
f 321/472/34 323/470/325 324/471/325
f 319/474/326 321/472/34 322/473/34
f 317/476/327 319/474/326 320/475/326
f 315/478/328 317/476/327 318/477/327
f 313/480/329 315/478/328 316/479/328
f 311/482/330 313/480/329 314/481/329
f 309/484/331 311/482/330 312/483/330
f 307/486/332 309/484/331 310/485/331
f 305/488/333 307/486/332 308/487/332
f 303/490/334 305/963/333 306/491/333
f 301/493/335 303/490/334 304/492/334
f 299/495/336 301/493/335 302/494/335
f 297/497/337 299/495/336 300/496/336
f 295/499/338 297/497/337 298/498/337
f 293/501/339 295/499/338 296/500/338
f 291/503/340 293/501/339 294/502/339
f 290/505/5 291/503/340 292/504/340
f 416/506/311 417/569/5 353/507/5
f 414/509/312 416/506/311 415/508/311
f 412/511/313 414/509/312 413/510/312
f 410/512/314 412/511/313 411/437/313
f 408/514/315 410/512/314 409/513/314
f 406/516/316 408/514/315 407/515/315
f 404/518/317 406/516/316 405/517/316
f 402/520/318 404/518/317 403/519/317
f 400/522/319 402/520/318 401/521/318
f 398/524/320 400/522/319 399/523/319
f 396/526/321 398/524/320 397/525/320
f 394/528/322 396/526/321 395/527/321
f 392/530/323 394/528/322 393/529/322
f 390/532/324 392/530/323 391/531/323
f 388/534/325 390/532/324 389/533/324
f 386/536/34 388/534/325 387/535/325
f 384/538/326 386/536/34 385/537/34
f 382/540/327 384/538/326 383/539/326
f 380/542/328 382/540/327 381/541/327
f 378/544/329 380/542/328 379/543/328
f 376/546/330 378/544/329 377/545/329
f 374/548/331 376/546/330 375/547/330
f 372/550/332 374/548/331 373/549/331
f 370/552/333 372/550/332 371/551/332
f 368/554/334 370/964/333 369/555/333
f 366/557/335 368/554/334 367/556/334
f 364/559/336 366/557/335 365/558/335
f 362/561/337 364/559/336 363/560/336
f 360/563/338 362/561/337 361/562/337
f 358/565/339 360/563/338 359/564/338
f 356/567/340 358/565/339 357/566/339
f 417/569/5 356/567/340 354/568/340
f 319/965/3 317/966/3 431/967/3
f 431/967/3 432/968/3 433/969/3
f 433/969/3 434/970/3 435/571/3
f 435/571/3 436/943/3 327/946/3
f 435/571/3 327/946/3 325/971/3
f 431/967/3 433/969/3 435/571/3
f 321/570/3 319/965/3 431/967/3
f 435/571/3 325/971/3 323/572/3
f 321/570/3 431/967/3 435/571/3
f 304/972/36 306/893/36 370/973/36
f 370/973/36 368/974/36 366/975/36
f 366/975/36 364/976/36 362/977/36
f 362/977/36 360/978/36 358/979/36
f 358/979/36 356/980/36 417/981/36
f 417/981/36 416/982/36 414/983/36
f 414/983/36 412/511/36 410/512/36
f 410/512/36 408/984/36 406/573/36
f 406/573/36 404/985/36 402/986/36
f 402/986/36 400/987/36 398/988/36
f 398/988/36 396/989/36 394/990/36
f 394/990/36 392/991/36 390/992/36
f 390/992/36 388/993/36 386/994/36
f 386/994/36 384/995/36 382/887/36
f 382/887/36 318/886/36 320/996/36
f 382/887/36 320/996/36 322/997/36
f 390/992/36 386/994/36 382/887/36
f 398/988/36 394/990/36 390/992/36
f 406/573/36 402/986/36 398/988/36
f 414/983/36 410/512/36 406/573/36
f 358/979/36 417/981/36 414/983/36
f 366/975/36 362/977/36 358/979/36
f 304/972/36 370/973/36 366/975/36
f 302/998/36 304/972/36 366/975/36
f 390/992/36 382/887/36 322/997/36
f 390/992/36 322/997/36 324/999/36
f 300/1000/36 302/998/36 366/975/36
f 298/1001/36 300/1000/36 366/975/36
f 390/992/36 324/999/36 326/1002/36
f 390/992/36 326/1002/36 328/1003/36
f 298/1001/36 366/975/36 358/979/36
f 296/1004/36 298/1001/36 358/979/36
f 390/992/36 328/1003/36 330/1005/36
f 398/988/36 390/992/36 330/1005/36
f 294/1006/36 296/1004/36 358/979/36
f 292/1007/36 294/1006/36 358/979/36
f 398/988/36 330/1005/36 332/1008/36
f 398/988/36 332/1008/36 334/1009/36
f 289/1010/36 292/1007/36 358/979/36
f 289/1010/36 358/979/36 414/983/36
f 398/988/36 334/1009/36 336/1011/36
f 398/988/36 336/1011/36 338/1012/36
f 352/1013/36 289/1010/36 414/983/36
f 350/1014/36 352/1013/36 414/983/36
f 406/573/36 398/988/36 338/1012/36
f 406/573/36 338/1012/36 340/1015/36
f 348/1016/36 350/1014/36 414/983/36
f 346/575/36 348/1016/36 414/983/36
f 406/573/36 340/1015/36 342/1017/36
f 406/573/36 342/1017/36 344/574/36
f 346/575/36 414/983/36 406/573/36
f 453/576/341 454/579/344 451/577/342
f 454/579/344 452/671/436 449/580/345
f 450/578/343 451/577/342 457/581/346
f 457/581/346 451/577/342 449/580/345
f 456/582/347 457/581/346 460/584/349
f 457/581/346 455/583/348 458/586/351
f 459/585/350 460/584/349 463/587/352
f 460/584/349 458/586/351 461/589/354
f 462/588/353 463/587/352 466/590/355
f 463/587/352 461/589/354 464/592/357
f 465/591/356 466/590/355 469/593/358
f 466/590/355 464/592/357 467/595/360
f 468/594/359 469/593/358 472/596/361
f 472/596/361 469/593/358 467/595/360
f 474/599/364 471/597/362 472/596/361
f 475/600/365 472/596/361 470/598/363
f 474/599/364 475/600/365 478/602/367
f 475/600/365 473/601/366 476/604/369
f 477/603/368 478/602/367 481/605/370
f 478/602/367 476/604/369 479/607/372
f 483/608/373 480/606/371 481/605/370
f 484/609/374 481/605/370 479/607/372
f 486/611/376 483/608/373 484/609/374
f 487/612/377 484/609/374 482/610/375
f 489/614/379 486/611/376 487/612/377
f 490/615/380 487/612/377 485/613/378
f 492/617/382 489/614/379 490/615/380
f 493/618/383 490/615/380 488/616/381
f 492/617/382 493/618/383 496/620/385
f 496/620/385 493/618/383 491/619/384
f 495/621/386 496/620/385 499/623/388
f 496/620/385 494/622/387 497/625/390
f 501/626/391 498/624/389 499/623/388
f 502/627/392 499/623/388 497/625/390
f 501/626/391 502/627/392 505/629/394
f 502/627/392 500/628/393 503/631/396
f 504/630/395 505/629/394 508/632/397
f 505/629/394 503/631/396 506/634/399
f 510/635/400 507/633/398 508/632/397
f 511/636/401 508/632/397 506/634/399
f 510/635/400 511/636/401 514/638/403
f 511/636/401 509/637/402 512/640/405
f 513/639/404 514/638/403 517/641/406
f 514/638/403 512/640/405 515/643/408
f 516/642/407 517/641/406 520/644/409
f 520/644/409 517/641/406 515/643/408
f 519/645/410 520/644/409 523/647/412
f 520/644/409 518/646/411 521/649/414
f 522/648/413 523/647/412 526/650/415
f 523/647/412 521/649/414 524/652/417
f 525/651/416 526/650/415 529/653/418
f 526/650/415 524/652/417 527/655/420
f 531/656/421 528/654/419 529/653/418
f 532/657/422 529/653/418 527/655/420
f 534/659/424 531/656/421 532/657/422
f 532/657/422 530/658/423 533/661/426
f 534/659/424 535/660/425 538/662/427
f 535/660/425 533/661/426 536/664/429
f 537/663/428 538/662/427 541/665/430
f 538/662/427 536/664/429 539/667/432
f 540/666/431 541/665/430 544/668/433
f 541/665/430 539/667/432 542/670/435
f 543/669/434 544/668/433 454/579/344
f 544/668/433 542/670/435 452/671/436
f 482/610/375 479/607/372 476/604/369
f 476/604/369 473/601/366 470/598/363
f 470/598/363 467/595/360 464/592/357
f 464/592/357 461/589/354 458/586/351
f 458/586/351 455/583/348 449/580/345
f 449/580/345 452/671/436 542/670/435
f 542/670/435 539/667/432 536/664/429
f 536/664/429 533/661/426 530/658/423
f 530/658/423 527/655/420 524/652/417
f 524/652/417 521/649/414 518/646/411
f 518/646/411 515/643/408 512/640/405
f 512/640/405 509/637/402 506/634/399
f 506/634/399 503/631/396 500/628/393
f 500/628/393 497/625/390 494/622/387
f 494/622/387 491/619/384 488/616/381
f 488/616/381 485/613/378 482/610/375
f 482/610/375 476/604/369 470/598/363
f 470/598/363 464/592/357 458/586/351
f 458/586/351 449/580/345 542/670/435
f 542/670/435 536/664/429 530/658/423
f 530/658/423 524/652/417 518/646/411
f 518/646/411 512/640/405 506/634/399
f 506/634/399 500/628/393 494/622/387
f 494/622/387 488/616/381 482/610/375
f 482/610/375 470/598/363 458/586/351
f 458/586/351 542/670/435 530/658/423
f 530/658/423 518/646/411 506/634/399
f 506/634/399 494/622/387 482/610/375
f 482/610/375 458/586/351 530/658/423
f 450/672/343 456/679/347 419/673/339
f 453/675/341 450/672/343 418/674/340
f 543/677/434 453/675/341 355/676/5
f 456/679/347 459/681/350 420/680/338
f 459/681/350 462/683/353 421/682/337
f 462/683/353 465/685/356 422/684/336
f 465/685/356 468/687/359 423/686/335
f 468/687/359 471/689/362 424/688/334
f 471/689/362 474/1018/364 425/690/333
f 474/691/364 477/694/368 426/692/332
f 477/694/368 480/696/371 427/695/331
f 480/696/371 483/698/373 428/697/330
f 483/698/373 486/700/376 429/699/329
f 486/700/376 489/702/379 430/701/328
f 489/702/379 492/704/382 431/703/327
f 492/704/382 495/706/386 432/705/326
f 495/706/386 498/708/389 433/707/34
f 498/708/389 501/710/391 434/709/325
f 501/710/391 504/712/395 435/711/324
f 504/712/395 507/714/398 436/713/323
f 507/714/398 510/716/400 437/715/322
f 510/716/400 513/718/404 438/717/321
f 513/718/404 516/720/407 439/719/320
f 516/720/407 519/722/410 440/721/319
f 519/722/410 522/724/413 441/723/318
f 522/724/413 525/726/416 442/725/317
f 525/726/416 528/728/419 443/727/316
f 528/728/419 531/730/421 444/729/315
f 531/730/421 534/732/424 445/731/314
f 534/732/424 537/734/428 446/733/313
f 537/734/428 540/736/431 447/735/312
f 540/736/431 543/677/434 448/678/311
f 548/737/437 556/1019/437 558/738/437
f 559/740/438 557/1020/438 547/741/438
f 551/743/36 562/754/36 561/744/36
f 561/751/5 560/750/5 609/800/5
f 609/800/5 611/1021/5 612/1022/5
f 612/1022/5 613/1023/5 610/825/5
f 612/1022/5 610/825/5 547/826/5
f 561/751/5 609/800/5 612/1022/5
f 548/1024/5 546/755/5 545/1025/5
f 545/1025/5 561/751/5 612/1022/5
f 545/1025/5 612/1022/5 547/826/5
f 556/748/5 548/1024/5 545/1025/5
f 618/844/5 615/841/5 556/748/5
f 616/747/5 617/847/5 618/844/5
f 620/829/5 614/853/5 616/747/5
f 622/835/5 623/832/5 620/829/5
f 619/857/5 621/838/5 622/835/5
f 545/1025/5 547/826/5 557/746/5
f 557/746/5 619/857/5 622/835/5
f 622/835/5 620/829/5 616/747/5
f 616/747/5 618/844/5 556/748/5
f 556/748/5 545/1025/5 557/746/5
f 557/746/5 622/835/5 616/747/5
f 562/749/333 563/1026/333 560/750/333
f 551/743/473 550/814/439 604/752/439
f 604/752/439 606/1027/439 607/1028/439
f 607/1028/439 608/1029/439 605/753/439
f 605/753/439 563/1030/443 562/754/440
f 562/754/440 551/743/473 604/752/439
f 604/752/439 607/1028/439 605/753/439
f 551/757/333 545/1025/333 546/755/333
f 546/755/333 570/776/445 574/1031/445
f 546/755/333 574/1031/445 552/1032/333
f 580/767/445 564/1033/445 551/757/333
f 546/755/333 552/1032/333 553/756/333
f 553/756/333 580/767/445 551/757/333
f 558/738/441 624/1034/34 626/1035/34
f 626/1035/34 627/1036/34 628/1037/34
f 628/1037/34 625/1038/34 629/1039/34
f 629/1039/34 631/1040/34 632/1041/34
f 632/1041/34 633/1042/34 630/1043/34
f 559/740/442 550/742/474 555/812/475
f 632/1041/34 630/1043/34 559/740/442
f 628/1037/34 629/1039/34 632/1041/34
f 558/738/441 626/1035/34 628/1037/34
f 554/1044/476 549/739/441 558/738/441
f 553/758/443 552/1045/439 554/1044/476
f 559/740/442 555/812/475 553/758/443
f 628/1037/34 632/1041/34 559/740/442
f 553/758/443 554/1044/476 558/738/441
f 558/738/441 628/1037/34 559/740/442
f 565/759/444 568/762/327 581/760/327
f 568/762/327 567/764/329 582/763/329
f 567/764/329 566/766/331 583/765/331
f 566/766/331 564/1033/445 580/767/445
f 575/768/444 578/771/327 571/769/327
f 578/771/327 577/773/329 572/772/329
f 577/773/329 576/775/331 573/774/331
f 576/775/331 574/1031/445 570/776/445
f 594/777/446 590/816/446 593/778/320
f 596/779/320 593/778/320 592/780/322
f 597/781/322 592/780/322 591/782/324
f 598/783/324 591/782/324 589/784/447
f 584/786/446 600/799/446 603/787/320
f 586/788/320 603/787/320 602/789/322
f 587/790/322 602/789/322 601/791/324
f 601/791/324 599/795/447 585/793/447
f 579/794/444 585/793/447 599/795/447
f 600/799/3 550/814/3 551/743/3
f 551/743/3 564/1046/3 566/797/3
f 566/797/3 567/1047/3 568/1048/3
f 568/1048/3 565/1049/3 599/798/3
f 599/798/3 601/1050/3 602/1051/3
f 602/1051/3 603/1052/3 600/799/3
f 600/799/3 551/743/3 566/797/3
f 566/797/3 568/1048/3 599/798/3
f 599/798/3 602/1051/3 600/799/3
f 609/800/448 560/750/3 563/801/3
f 575/803/444 569/1053/444 595/785/447
f 570/806/36 546/755/36 548/1024/36
f 549/815/36 594/777/36 596/804/36
f 570/806/36 548/1024/36 549/815/36
f 572/1054/36 573/1055/36 570/806/36
f 569/805/36 571/1056/36 572/1054/36
f 598/1057/36 595/1058/36 569/805/36
f 596/804/36 597/1059/36 598/1057/36
f 570/806/36 549/815/36 596/804/36
f 569/805/36 572/1054/36 570/806/36
f 596/804/36 598/1057/36 569/805/36
f 575/809/451 589/1060/449 591/1061/449
f 591/1061/449 592/1062/449 593/807/449
f 593/807/449 590/1063/449 554/1044/450
f 554/1044/450 552/1045/477 574/808/450
f 574/808/450 576/1064/451 577/1065/451
f 577/1065/451 578/1066/451 575/809/451
f 575/809/451 591/1061/449 593/807/449
f 593/807/449 554/1044/450 574/808/450
f 574/808/450 577/1065/451 575/809/451
f 555/812/453 584/1067/452 586/1068/452
f 586/1068/452 587/1069/452 588/810/452
f 588/810/452 585/1070/452 579/1071/452
f 579/1071/452 581/1072/452 582/811/452
f 582/811/452 583/1073/452 580/1074/453
f 580/1074/453 553/758/453 555/812/453
f 555/812/453 586/1068/452 588/810/452
f 588/810/452 579/1071/452 582/811/452
f 582/811/452 580/1074/453 555/812/453
f 600/799/446 584/786/446 555/813/318
f 549/815/318 554/1075/318 590/816/446
f 605/817/448 608/820/454 611/818/454
f 608/820/454 607/822/455 612/821/455
f 607/822/455 606/824/456 613/823/456
f 606/824/456 604/827/457 610/825/457
f 547/826/318 610/825/457 604/827/457
f 620/829/457 623/832/456 631/830/456
f 623/832/456 622/835/455 632/833/455
f 622/835/455 621/838/454 633/836/454
f 621/838/454 619/857/448 630/839/448
f 615/841/458 618/844/459 626/842/459
f 618/844/459 617/847/460 627/845/460
f 617/847/460 616/747/461 628/848/461
f 616/747/461 614/853/462 625/850/462
f 629/852/457 625/1076/462 614/853/462
f 556/748/36 615/841/458 624/854/458
f 557/746/3 559/1077/3 630/856/448
f 307/1078/3 305/926/3 425/925/3
f 425/925/3 426/1079/3 427/859/3
f 427/859/3 428/1080/3 429/1081/3
f 429/1081/3 430/1082/3 431/967/3
f 431/967/3 317/966/3 315/1083/3
f 431/967/3 315/1083/3 313/860/3
f 427/859/3 429/1081/3 431/967/3
f 307/1078/3 425/925/3 427/859/3
f 309/1084/3 307/1078/3 427/859/3
f 427/859/3 431/967/3 313/860/3
f 311/858/3 309/1084/3 427/859/3
