# Blender 5.0.1
# www.blender.org
mtllib horn.mtl
o HornLeverExport
g horn
v 0.001110 0.005579 -0.004314
v 0.001110 0.005579 0.004313
v 0.003161 0.004730 -0.004314
v 0.003161 0.004730 0.004313
v 0.004730 0.003161 -0.004314
v 0.004730 0.003161 0.004313
v 0.005579 0.001110 -0.004314
v 0.005579 0.001110 0.004313
v 0.005579 -0.001110 -0.004314
v 0.005579 -0.001110 0.004313
v 0.004730 -0.003161 -0.004314
v 0.004730 -0.003161 0.004313
v 0.003161 -0.004730 -0.004314
v 0.003161 -0.004730 0.004313
v 0.001110 -0.005579 -0.004314
v 0.001110 -0.005579 0.004313
v -0.001110 -0.005579 -0.004314
v -0.001110 -0.005579 0.004313
v -0.003161 -0.004730 -0.004314
v -0.003161 -0.004730 0.004313
v -0.004730 -0.003161 -0.004314
v -0.004730 -0.003161 0.004313
v -0.005579 -0.001110 -0.004314
v -0.005579 -0.001110 0.004313
v -0.005579 0.001110 -0.004314
v -0.005579 0.001110 0.004313
v -0.004730 0.003161 -0.004314
v -0.004730 0.003161 0.004313
v -0.003161 0.004730 -0.004314
v -0.003161 0.004730 0.004313
v -0.001110 0.005579 -0.004314
v -0.001110 0.005579 0.004313
v 0.000836 0.004203 -0.004314
v 0.002381 0.003563 -0.004314
v 0.002381 0.003563 0.004313
v 0.000836 0.004203 0.004313
v 0.003564 0.002381 -0.004314
v 0.003564 0.002381 0.004313
v 0.004204 0.000836 -0.004314
v 0.004204 0.000836 0.004313
v 0.004204 -0.000837 -0.004314
v 0.004204 -0.000837 0.004313
v 0.003564 -0.002382 -0.004314
v 0.003564 -0.002382 0.004313
v 0.002381 -0.003564 -0.004314
v 0.002381 -0.003564 0.004313
v 0.000836 -0.004204 -0.004314
v 0.000836 -0.004204 0.004313
v -0.000836 -0.004204 -0.004314
v -0.000836 -0.004204 0.004313
v -0.002381 -0.003564 -0.004314
v -0.002381 -0.003564 0.004313
v -0.003564 -0.002382 -0.004314
v -0.003564 -0.002382 0.004313
v -0.004204 -0.000837 -0.004314
v -0.004204 -0.000837 0.004313
v -0.004204 0.000836 -0.004314
v -0.004204 0.000836 0.004313
v -0.003564 0.002381 -0.004314
v -0.003564 0.002381 0.004313
v -0.002381 0.003563 -0.004314
v -0.002381 0.003563 0.004313
v -0.000836 0.004203 -0.004314
v -0.000836 0.004203 0.004313
v 0.001906 0.002853 0.013654
v 0.002381 0.003563 0.012808
v 0.000836 0.004203 0.012808
v 0.000669 0.003365 0.013654
v 0.002853 0.001906 0.013654
v 0.003564 0.002381 0.012808
v 0.003365 0.000669 0.013654
v 0.004204 0.000836 0.012808
v 0.003365 -0.000670 0.013654
v 0.004204 -0.000837 0.012808
v 0.002853 -0.001907 0.013654
v 0.003564 -0.002382 0.012808
v 0.001906 -0.002853 0.013654
v 0.002381 -0.003564 0.012808
v 0.000669 -0.003366 0.013654
v 0.000836 -0.004204 0.012808
v -0.000669 -0.003366 0.013654
v -0.000836 -0.004204 0.012808
v -0.001906 -0.002853 0.013654
v -0.002381 -0.003564 0.012808
v -0.002853 -0.001907 0.013654
v -0.003564 -0.002382 0.012808
v -0.003365 -0.000670 0.013654
v -0.004204 -0.000837 0.012808
v -0.003365 0.000669 0.013654
v -0.004204 0.000836 0.012808
v -0.002853 0.001906 0.013654
v -0.003564 0.002381 0.012808
v -0.001906 0.002853 0.013654
v -0.002381 0.003563 0.012808
v -0.000669 0.003365 0.013654
v -0.000836 0.004203 0.012808
v 0.000669 0.003365 -0.013718
v 0.000836 0.004203 -0.012872
v 0.002381 0.003563 -0.012872
v 0.001906 0.002853 -0.013718
v 0.003564 0.002381 -0.012872
v 0.002853 0.001906 -0.013718
v 0.004204 0.000836 -0.012872
v 0.003365 0.000669 -0.013718
v 0.004204 -0.000837 -0.012872
v 0.003365 -0.000670 -0.013718
v 0.003564 -0.002382 -0.012872
v 0.002853 -0.001907 -0.013718
v 0.002381 -0.003564 -0.012872
v 0.001906 -0.002853 -0.013718
v 0.000836 -0.004204 -0.012872
v 0.000669 -0.003366 -0.013718
v -0.000836 -0.004204 -0.012872
v -0.000669 -0.003366 -0.013718
v -0.002381 -0.003564 -0.012872
v -0.001906 -0.002853 -0.013718
v -0.003564 -0.002382 -0.012872
v -0.002853 -0.001907 -0.013718
v -0.004204 -0.000837 -0.012872
v -0.003365 -0.000670 -0.013718
v -0.004204 0.000836 -0.012872
v -0.003365 0.000669 -0.013718
v -0.003564 0.002381 -0.012872
v -0.002853 0.001906 -0.013718
v -0.002381 0.003563 -0.012872
v -0.001906 0.002853 -0.013718
v -0.000836 0.004203 -0.012872
v -0.000669 0.003365 -0.013718
v -0.062489 0.001173 -0.003935
v -0.002394 0.001463 -0.003935
v -0.062471 -0.000356 -0.003631
v -0.002843 -0.000047 -0.003631
v -0.062455 -0.001652 -0.002765
v -0.003227 -0.001327 -0.002765
v -0.062444 -0.002518 -0.001469
v -0.003487 -0.002167 -0.001469
v -0.062440 -0.002822 0.000060
v -0.003576 -0.002482 0.000060
v -0.062444 -0.002518 0.001589
v -0.003485 -0.002182 0.001589
v -0.062455 -0.001652 0.002885
v -0.003227 -0.001327 0.002885
v -0.062471 -0.000356 0.003751
v -0.002843 -0.000047 0.003751
v -0.062489 0.001173 0.004055
v -0.002394 0.001463 0.004055
v -0.062507 0.002701 0.003751
v -0.001948 0.002973 0.003751
v -0.062522 0.003997 0.002885
v -0.001572 0.004254 0.002885
v -0.062531 0.004863 0.001589
v -0.001323 0.005110 0.001589
v -0.062534 0.005167 0.000060
v -0.001235 0.005410 0.000060
v -0.062531 0.004863 -0.001469
v -0.001323 0.005110 -0.001469
v -0.062522 0.003997 -0.002765
v -0.001572 0.004254 -0.002765
v -0.062507 0.002701 -0.003631
v -0.001948 0.002973 -0.003631
v -0.024942 0.002693 -0.003935
v -0.014480 0.000759 -0.003631
v -0.019762 0.001010 -0.003631
v -0.025051 0.001165 -0.003631
v -0.027696 0.001274 -0.003631
v -0.032984 0.001285 -0.003631
v -0.038264 0.001200 -0.003631
v -0.051619 0.000230 -0.003631
v -0.012146 -0.000689 -0.002765
v -0.014741 -0.000530 -0.002765
v -0.017339 -0.000394 -0.002765
v -0.019940 -0.000282 -0.002765
v -0.022543 -0.000194 -0.002765
v -0.027750 -0.000021 -0.002765
v -0.030353 -0.000004 -0.002765
v -0.032955 -0.000011 -0.002765
v -0.035555 -0.000041 -0.002765
v -0.038152 -0.000095 -0.002765
v -0.040745 -0.000240 -0.002765
v -0.048743 -0.000973 -0.002765
v -0.051482 -0.001064 -0.002765
v -0.054223 -0.001408 -0.002765
v -0.012349 -0.001549 -0.001469
v -0.017487 -0.001257 -0.001469
v -0.022635 -0.001058 -0.001469
v -0.027787 -0.000887 -0.001469
v -0.030363 -0.000870 -0.001469
v -0.032937 -0.000877 -0.001469
v -0.035509 -0.000907 -0.001469
v -0.038078 -0.000960 -0.001469
v -0.040644 -0.001104 -0.001469
v -0.048631 -0.001837 -0.001469
v -0.054151 -0.002273 -0.001469
v -0.059679 -0.002500 -0.001469
v -0.012420 -0.001850 0.000060
v -0.017539 -0.001560 0.000060
v -0.022668 -0.001362 0.000060
v -0.027801 -0.001191 0.000060
v -0.032931 -0.001181 0.000060
v -0.035493 -0.001211 0.000060
v -0.038052 -0.001264 0.000060
v -0.040608 -0.001408 0.000060
v -0.048591 -0.002140 0.000060
v -0.054126 -0.002577 0.000060
v -0.059668 -0.002804 0.000060
v -0.009785 -0.001730 0.001589
v -0.012349 -0.001549 0.001589
v -0.014916 -0.001391 0.001589
v -0.017487 -0.001257 0.001589
v -0.020060 -0.001146 0.001589
v -0.022635 -0.001058 0.001589
v -0.027787 -0.000887 0.001589
v -0.030363 -0.000870 0.001589
v -0.032937 -0.000877 0.001589
v -0.035509 -0.000907 0.001589
v -0.040644 -0.001104 0.001589
v -0.048631 -0.001837 0.001589
v -0.054151 -0.002273 0.001589
v -0.059679 -0.002500 0.001589
v -0.009555 -0.000872 0.002885
v -0.014741 -0.000530 0.002885
v -0.019940 -0.000282 0.002885
v -0.022543 -0.000194 0.002885
v -0.027750 -0.000021 0.002885
v -0.030353 -0.000004 0.002885
v -0.035555 -0.000041 0.002885
v -0.040745 -0.000240 0.002885
v -0.048743 -0.000973 0.002885
v -0.054223 -0.001408 0.002885
v -0.014480 0.000759 0.003751
v -0.022406 0.001100 0.003751
v -0.027696 0.001274 0.003751
v -0.030341 0.001292 0.003751
v -0.035625 0.001254 0.003751
v -0.054330 -0.000113 0.003751
v -0.027636 0.002803 0.004055
v -0.030330 0.002821 0.004055
v -0.013876 0.003799 0.003751
v -0.019352 0.004060 0.003751
v -0.024837 0.004221 0.003751
v -0.027580 0.004331 0.003751
v -0.033063 0.004343 0.003751
v -0.038538 0.004254 0.003751
v -0.057222 0.002889 0.003751
v -0.008078 0.004722 0.002885
v -0.013623 0.005088 0.002885
v -0.016402 0.005233 0.002885
v -0.019183 0.005353 0.002885
v -0.021966 0.005448 0.002885
v -0.024750 0.005516 0.002885
v -0.027534 0.005627 0.002885
v -0.030318 0.005646 0.002885
v -0.033101 0.005638 0.002885
v -0.035881 0.005606 0.002885
v -0.038659 0.005548 0.002885
v -0.041432 0.005398 0.002885
v -0.054687 0.004236 0.002885
v -0.057297 0.004184 0.002885
v -0.007856 0.005580 0.001589
v -0.010654 0.005778 0.001589
v -0.013456 0.005950 0.001589
v -0.016262 0.006096 0.001589
v -0.019071 0.006217 0.001589
v -0.021882 0.006313 0.001589
v -0.027505 0.006493 0.001589
v -0.030317 0.006512 0.001589
v -0.033127 0.006504 0.001589
v -0.035935 0.006472 0.001589
v -0.038740 0.006413 0.001589
v -0.041542 0.006262 0.001589
v -0.049582 0.005527 0.001589
v -0.054757 0.005101 0.001589
v -0.059939 0.004881 0.001589
v -0.010586 0.006080 0.000060
v -0.013398 0.006252 0.000060
v -0.019032 0.006520 0.000060
v -0.021852 0.006616 0.000060
v -0.027495 0.006797 0.000060
v -0.033137 0.006808 0.000060
v -0.035955 0.006776 0.000060
v -0.038769 0.006717 0.000060
v -0.041581 0.006566 0.000060
v -0.049621 0.005831 0.000060
v -0.054782 0.005405 0.000060
v -0.059949 0.005185 0.000060
v -0.010654 0.005778 -0.001469
v -0.013456 0.005950 -0.001469
v -0.016262 0.006096 -0.001469
v -0.019071 0.006217 -0.001469
v -0.021882 0.006313 -0.001469
v -0.027505 0.006493 -0.001469
v -0.033127 0.006504 -0.001469
v -0.035935 0.006472 -0.001469
v -0.038740 0.006413 -0.001469
v -0.041542 0.006262 -0.001469
v -0.049582 0.005527 -0.001469
v -0.054757 0.005101 -0.001469
v -0.059939 0.004881 -0.001469
v -0.010849 0.004918 -0.002765
v -0.016402 0.005233 -0.002765
v -0.021966 0.005448 -0.002765
v -0.024750 0.005516 -0.002765
v -0.027534 0.005627 -0.002765
v -0.033101 0.005638 -0.002765
v -0.038659 0.005481 -0.002765
v -0.054687 0.004236 -0.002765
v -0.057297 0.004184 -0.002765
v -0.011142 0.003631 -0.003631
v -0.016613 0.003942 -0.003631
v -0.024837 0.004221 -0.003631
v -0.033063 0.004343 -0.003631
v -0.038538 0.004186 -0.003631
v -0.057222 0.002889 -0.003631
v -0.065636 0.001032 -0.005504
v -0.065627 -0.000888 -0.005085
v -0.065618 -0.002673 -0.003891
v -0.065613 -0.003866 -0.002106
v -0.065611 -0.004285 0.000000
v -0.065613 -0.003866 0.002107
v -0.065618 -0.002673 0.003892
v -0.065627 -0.000888 0.005085
v -0.065636 0.001032 0.005504
v -0.065646 0.002946 0.005085
v -0.065653 0.004732 0.003892
v -0.065658 0.005925 0.002107
v -0.065660 0.006344 0.000000
v -0.065658 0.005925 -0.002106
v -0.065653 0.004732 -0.003891
v -0.065646 0.002946 -0.005085
v -0.096228 0.000576 -0.000562
v -0.091231 0.000603 -0.004968
v -0.096059 0.000577 -0.001647
v -0.095560 0.000579 -0.002658
v -0.094766 0.000583 -0.003526
v -0.093731 0.000589 -0.004192
v -0.092525 0.000595 -0.004611
v -0.091217 -0.001299 -0.004589
v -0.096227 0.000360 -0.000519
v -0.092512 -0.001170 -0.004260
v -0.093718 -0.001016 -0.003873
v -0.094756 -0.000766 -0.003258
v -0.095552 -0.000438 -0.002456
v -0.096054 -0.000054 -0.001522
v -0.091205 -0.002910 -0.003512
v -0.096227 0.000178 -0.000397
v -0.092500 -0.002666 -0.003260
v -0.093708 -0.002376 -0.002964
v -0.094747 -0.001910 -0.002493
v -0.095546 -0.001301 -0.001879
v -0.096051 -0.000588 -0.001164
v -0.091196 -0.003987 -0.001901
v -0.096228 0.000056 -0.000215
v -0.092491 -0.003665 -0.001764
v -0.093700 -0.003285 -0.001604
v -0.094741 -0.002675 -0.001349
v -0.095542 -0.001877 -0.001017
v -0.096049 -0.000946 -0.000630
v -0.091193 -0.004366 0.000001
v -0.096228 0.000013 0.000001
v -0.092489 -0.004016 0.000001
v -0.093698 -0.003604 0.000001
v -0.094739 -0.002943 0.000001
v -0.095541 -0.002079 0.000001
v -0.096049 -0.001071 0.000001
v -0.091196 -0.003987 0.001902
v -0.096228 0.000056 0.000216
v -0.092491 -0.003665 0.001765
v -0.093700 -0.003285 0.001605
v -0.094741 -0.002675 0.001350
v -0.095542 -0.001877 0.001018
v -0.096049 -0.000946 0.000631
v -0.091205 -0.002910 0.003514
v -0.096227 0.000178 0.000399
v -0.092500 -0.002666 0.003262
v -0.093708 -0.002376 0.002965
v -0.094747 -0.001910 0.002494
v -0.095546 -0.001301 0.001881
v -0.096051 -0.000588 0.001166
v -0.091217 -0.001299 0.004591
v -0.096227 0.000360 0.000521
v -0.092512 -0.001170 0.004261
v -0.093718 -0.001016 0.003874
v -0.094756 -0.000766 0.003259
v -0.095552 -0.000438 0.002457
v -0.096054 -0.000054 0.001523
v -0.091231 0.000603 0.004969
v -0.096228 0.000576 0.000564
v -0.092525 0.000595 0.004612
v -0.093731 0.000589 0.004193
v -0.094766 0.000583 0.003527
v -0.095560 0.000579 0.002659
v -0.096059 0.000577 0.001648
v -0.091245 0.002504 0.004591
v -0.096231 0.000791 0.000521
v -0.092538 0.002360 0.004261
v -0.093743 0.002193 0.003874
v -0.094776 0.001933 0.003259
v -0.095568 0.001597 0.002457
v -0.096064 0.001207 0.001523
v -0.091256 0.004116 0.003514
v -0.096233 0.000974 0.000399
v -0.092549 0.003856 0.003262
v -0.093753 0.003553 0.002965
v -0.094785 0.003269 0.002494
v -0.095575 0.002459 0.001881
v -0.096069 0.001742 0.001166
v -0.091263 0.005193 0.001902
v -0.096236 0.001096 0.000216
v -0.092557 0.004855 0.001765
v -0.093760 0.004462 0.001605
v -0.094791 0.004034 0.001350
v -0.095580 0.003036 0.001018
v -0.096073 0.002099 0.000631
v -0.091266 0.005571 0.000001
v -0.096237 0.001139 0.000001
v -0.092559 0.005206 0.000001
v -0.093762 0.004782 0.000001
v -0.094793 0.004110 0.000001
v -0.095581 0.003238 0.000001
v -0.096074 0.002224 0.000001
v -0.091263 0.005193 -0.001901
v -0.096236 0.001096 -0.000215
v -0.092557 0.004855 -0.001764
v -0.093760 0.004462 -0.001604
v -0.094791 0.003842 -0.001349
v -0.095580 0.003036 -0.001017
v -0.096072 0.002099 -0.000630
v -0.091256 0.004116 -0.003512
v -0.096233 0.000974 -0.000397
v -0.092549 0.003856 -0.003260
v -0.093753 0.003553 -0.002964
v -0.094785 0.003077 -0.002493
v -0.095575 0.002459 -0.001879
v -0.096069 0.001742 -0.001164
v -0.091245 0.002504 -0.004589
v -0.096231 0.000791 -0.000519
v -0.092538 0.002360 -0.004260
v -0.093743 0.002193 -0.003873
v -0.094776 0.001933 -0.003258
v -0.095568 0.001597 -0.002456
v -0.096064 0.001207 -0.001522
v -0.086112 0.000659 -0.005785
v -0.080993 0.000704 -0.006188
v -0.070755 0.000795 -0.006037
v -0.070745 -0.001516 -0.005578
v -0.080982 -0.001664 -0.005717
v -0.086102 -0.001555 -0.005345
v -0.086122 0.002873 -0.005345
v -0.081004 0.003072 -0.005717
v -0.070765 0.003105 -0.005578
v -0.070736 -0.003475 -0.004269
v -0.080973 -0.003672 -0.004375
v -0.086093 -0.003432 -0.004090
v -0.070729 -0.004784 -0.002310
v -0.080967 -0.005013 -0.002368
v -0.086087 -0.004686 -0.002213
v -0.070727 -0.005243 0.000001
v -0.080964 -0.005484 0.000001
v -0.086085 -0.005127 0.000001
v -0.070729 -0.004784 0.002311
v -0.080967 -0.005013 0.002369
v -0.086087 -0.004686 0.002215
v -0.070736 -0.003475 0.004270
v -0.080973 -0.003672 0.004376
v -0.086093 -0.003432 0.004092
v -0.070745 -0.001516 0.005579
v -0.080982 -0.001664 0.005718
v -0.086102 -0.001555 0.005346
v -0.070755 0.000795 0.006039
v -0.080993 0.000704 0.006189
v -0.086112 0.000659 0.005786
v -0.070765 0.003105 0.005579
v -0.081004 0.003072 0.005718
v -0.086122 0.002873 0.005346
v -0.070774 0.005064 0.004270
v -0.081012 0.005080 0.004376
v -0.086130 0.004750 0.004092
v -0.070779 0.006373 0.002311
v -0.081018 0.006421 0.002369
v -0.086135 0.006004 0.002215
v -0.070781 0.006967 0.000001
v -0.081020 0.007027 0.000001
v -0.086137 0.006579 0.000001
v -0.070779 0.006507 -0.002310
v -0.081018 0.006556 -0.002368
v -0.086135 0.006004 -0.002213
v -0.070774 0.005064 -0.004269
v -0.081012 0.005080 -0.004375
v -0.086130 0.004750 -0.004090
v -0.038381 0.002705 -0.003935
v -0.054488 0.001459 -0.003935
v -0.036992 0.002661 0.004055
v -0.055852 0.001466 0.004055
vn 0.1951 0.9808 -0.0000
vn 0.5556 0.8315 -0.0000
vn 0.8315 0.5556 -0.0000
vn 0.9808 0.1951 -0.0000
vn 0.9808 -0.1951 -0.0000
vn 0.8315 -0.5556 -0.0000
vn 0.5556 -0.8315 -0.0000
vn 0.1951 -0.9808 -0.0000
vn -0.1951 -0.9808 -0.0000
vn -0.5556 -0.8315 -0.0000
vn -0.8315 -0.5556 -0.0000
vn -0.9808 -0.1951 -0.0000
vn -0.9808 0.1951 -0.0000
vn -0.8315 0.5556 -0.0000
vn -0.5556 0.8315 -0.0000
vn -0.0000 -0.0000 -1.0000
vn -0.1951 0.9808 -0.0000
vn -0.0000 -0.0000 1.0000
vn 0.1373 0.6900 0.7107
vn 0.3909 0.5850 0.7107
vn 0.5850 0.3909 0.7107
vn 0.6900 0.1373 0.7107
vn 0.6900 -0.1373 0.7107
vn 0.5850 -0.3909 0.7107
vn 0.3909 -0.5850 0.7107
vn 0.1373 -0.6900 0.7107
vn -0.1373 -0.6900 0.7107
vn -0.3909 -0.5850 0.7107
vn -0.5850 -0.3909 0.7107
vn -0.6900 -0.1373 0.7107
vn -0.6900 0.1373 0.7107
vn -0.5850 0.3909 0.7107
vn -0.3909 0.5850 0.7107
vn -0.1373 0.6900 0.7107
vn 0.3909 0.5850 -0.7107
vn 0.1373 0.6900 -0.7107
vn 0.5850 0.3909 -0.7107
vn 0.6900 0.1373 -0.7107
vn 0.6900 -0.1373 -0.7107
vn 0.5850 -0.3909 -0.7107
vn 0.3909 -0.5850 -0.7107
vn 0.1373 -0.6900 -0.7107
vn -0.1373 -0.6900 -0.7107
vn -0.3909 -0.5850 -0.7107
vn -0.5850 -0.3909 -0.7107
vn -0.6900 -0.1373 -0.7107
vn -0.6900 0.1373 -0.7107
vn -0.5850 0.3909 -0.7107
vn -0.3909 0.5850 -0.7107
vn -0.1373 0.6900 -0.7107
vn 0.0003 0.0289 0.9996
vn -0.0010 0.0030 1.0000
vn -0.0164 -0.4024 0.9153
vn 0.0191 0.5432 -0.8394
vn 0.0093 0.5467 -0.8373
vn 0.0159 0.9319 -0.3625
vn -0.0637 -0.9980 -0.0000
vn -0.0443 -0.9301 -0.3647
vn -0.0592 -0.9290 -0.3653
vn -0.0358 -0.9994 -0.0000
vn -0.0173 -0.9310 -0.3647
vn -0.0334 -0.9308 -0.3639
vn -0.0662 -0.9230 0.3790
vn -0.0497 -0.7209 0.6913
vn -0.0658 -0.9278 0.3672
vn -0.0001 -0.7226 0.6913
vn -0.0083 -0.3937 0.9192
vn 0.0113 -0.3946 0.9188
vn 0.0337 0.7196 -0.6936
vn 0.0097 0.3919 -0.9199
vn 0.0075 0.3052 -0.9523
vn 0.0521 0.7324 0.6789
vn 0.0656 0.9289 0.3645
vn 0.0372 0.5409 0.8403
vn -0.0592 -0.9305 0.3614
vn -0.0432 -0.9315 0.3612
vn -0.0474 -0.9989 -0.0000
vn 0.0310 0.9310 0.3637
vn 0.0179 0.9998 -0.0004
vn 0.0180 0.9318 0.3626
vn 0.0537 0.9296 0.3645
vn 0.0423 0.7183 0.6944
vn -0.0057 0.7231 0.6907
vn -0.0292 0.7280 0.6850
vn -0.0177 0.3881 0.9215
vn 0.2292 -0.9034 -0.3624
vn 0.3002 -0.6881 -0.6606
vn 0.2398 -0.6896 -0.6834
vn 0.0199 -0.3037 -0.9526
vn 0.2467 -0.3770 -0.8928
vn 0.0021 0.0272 -0.9996
vn -0.0220 -0.4052 -0.9140
vn -0.0153 -0.4365 -0.8996
vn 0.0226 0.3796 -0.9249
vn -0.0161 0.3953 0.9184
vn 0.1835 0.7058 0.6842
vn 0.1987 0.3833 0.9020
vn -0.0015 0.0025 -1.0000
vn -0.0063 -0.3955 -0.9184
vn 0.0042 -0.4067 -0.9135
vn 0.0460 0.7182 -0.6943
vn 0.0296 0.4130 -0.9103
vn -0.0256 -0.7220 -0.6914
vn -0.0166 -0.4000 -0.9164
vn 0.0488 -0.7409 -0.6698
vn 0.0266 -0.3969 -0.9175
vn -0.0021 0.3110 -0.9504
vn -0.0079 0.7213 -0.6926
vn -0.0257 0.7329 0.6798
vn -0.0548 0.9299 0.3637
vn -0.0263 0.9358 0.3516
vn -0.0787 0.9274 -0.3658
vn -0.0384 0.9307 -0.3638
vn -0.0301 0.8779 -0.4779
vn -0.0157 0.9330 0.3597
vn -0.0662 0.9294 0.3631
vn -0.0475 -0.7191 -0.6932
vn -0.0354 -0.7200 -0.6931
vn 0.0610 0.9291 -0.3648
vn 0.0524 0.7326 -0.6787
vn -0.0004 0.9349 0.3550
vn 0.0177 0.3075 0.9514
vn -0.0246 0.9997 -0.0000
vn 0.1884 0.9130 -0.3619
vn 0.1830 0.9831 0.0007
vn -0.0623 0.9981 -0.0000
vn -0.0865 0.9963 -0.0000
vn -0.0824 0.9309 0.3559
vn -0.0718 0.9974 -0.0000
vn -0.0051 1.0000 -0.0000
vn -0.0344 0.9281 -0.3709
vn -0.0126 0.7810 -0.6244
vn -0.0166 0.9275 0.3734
vn 0.0663 0.9978 -0.0001
vn 0.0669 0.9340 -0.3510
vn -0.0074 0.9313 -0.3641
vn 0.0330 0.9995 -0.0000
vn 0.0300 0.7804 -0.6246
vn 0.0316 0.9309 -0.3640
vn 0.0423 0.9336 0.3557
vn 0.0554 0.9985 -0.0003
vn 0.0316 0.7807 0.6241
vn 0.0425 0.7801 -0.6242
vn 0.1817 0.9137 0.3634
vn 0.0792 -0.9279 0.3643
vn 0.0599 -0.9982 -0.0000
vn 0.0851 -0.9964 -0.0000
vn 0.0559 -0.9302 0.3627
vn 0.0238 -0.9997 -0.0000
vn 0.0279 0.7218 0.6916
vn 0.0093 0.3075 0.9515
vn 0.0151 0.3887 0.9213
vn 0.0454 -0.9987 -0.0244
vn 0.0192 -0.9319 0.3623
vn 0.0696 -0.9976 -0.0015
vn -0.0039 0.7816 0.6238
vn -0.0173 -0.9310 0.3647
vn -0.0176 -0.9998 -0.0000
vn 0.0513 0.7789 0.6250
vn 0.0200 -0.3876 0.9216
vn 0.2286 -0.6939 0.6828
vn 0.0406 -0.7202 0.6926
vn 0.0716 0.9974 -0.0001
vn 0.0179 0.5427 0.8397
vn 0.0105 0.5461 0.8377
vn 0.0056 0.7146 0.6995
vn -0.0650 -0.9224 -0.3808
vn -0.0418 -0.7180 0.6948
vn -0.0219 -0.5438 0.8389
vn 0.0257 0.5429 0.8394
vn 0.0067 -0.9329 0.3601
vn 0.0461 -0.5413 0.8396
vn 0.0540 -0.7433 0.6668
vn 0.0117 0.3081 0.9513
vn -0.0497 -0.7036 -0.7088
vn 0.0028 -0.3084 -0.9513
vn 0.0117 -0.7223 -0.6915
vn 0.0170 -0.3901 -0.9206
vn -0.0138 -0.7198 -0.6940
vn -0.0020 -0.7226 -0.6913
vn -0.0194 0.3954 -0.9183
vn 0.1958 0.7046 -0.6820
vn -0.0194 0.3889 -0.9211
vn 0.2146 0.3825 -0.8987
vn 0.0027 -0.0070 1.0000
vn -0.0317 0.7347 -0.6776
vn 0.0467 0.9332 -0.3564
vn -0.0252 -0.7203 0.6932
vn -0.0143 -0.7196 0.6942
vn -0.0020 0.3085 0.9512
vn -0.0258 -0.3648 0.9307
vn -0.0167 -0.3070 -0.9516
vn -0.0263 0.9358 -0.3516
vn 0.0461 -0.5413 -0.8396
vn 0.0559 -0.9302 -0.3627
vn 0.0324 -0.5462 -0.8370
vn 0.0603 -0.9287 0.3660
vn -0.0317 -0.5427 0.8393
vn 0.0164 -0.7193 0.6945
vn -0.0011 -0.5443 0.8389
vn -0.0325 -0.9308 0.3642
vn 0.0356 -0.9330 -0.3582
vn 0.2274 -0.9738 0.0007
vn 0.0168 -0.9196 0.3925
vn 0.2268 -0.9029 0.3652
vn 0.0234 -0.9280 -0.3717
vn 0.0792 -0.9279 -0.3643
vn 0.0056 -0.9320 -0.3624
vn 0.0162 -0.9999 0.0027
vn 0.0048 -1.0000 -0.0000
vn -0.0706 -0.9975 -0.0037
vn 0.0273 0.4130 0.9103
vn 0.0025 0.0997 0.9950
vn 0.0686 -0.9283 -0.3655
vn -0.0440 0.7321 0.6798
vn 0.0400 0.9992 0.0004
vn -0.0548 0.9299 -0.3637
vn -0.0011 -0.5443 -0.8389
vn -0.0349 0.7071 -0.7062
vn -0.0223 -0.4087 0.9124
vn -0.0283 -0.7262 0.6869
vn 0.0043 0.4123 0.9110
vn 0.2280 -0.3765 0.8979
vn 0.2671 0.0021 0.9637
vn 0.2780 -0.3812 0.8817
vn 0.2364 0.9053 -0.3530
vn 0.2272 0.9738 0.0019
vn 0.2829 0.0022 -0.9591
vn 0.2380 0.0047 -0.9712
vn 0.2899 -0.6909 0.6623
vn 0.2954 -0.8907 0.3456
vn 0.2335 0.7039 0.6708
vn 0.2647 0.3860 -0.8837
vn 0.3003 -0.8889 -0.3458
vn 0.2214 0.0043 0.9752
vn 0.2499 0.3877 0.8873
vn 0.2445 0.7015 -0.6694
vn 0.2923 -0.3791 -0.8780
vn 0.2229 0.9097 0.3505
vn 0.2967 -0.9550 -0.0004
vn -0.2120 -0.0019 -0.9773
vn -0.2948 -0.3773 -0.8779
vn -0.2969 -0.0023 -0.9549
vn -0.4372 -0.3579 -0.8251
vn -0.4395 -0.0033 -0.8982
vn -0.6452 -0.3047 -0.7006
vn -0.6477 -0.0049 -0.7619
vn -0.8260 -0.2244 -0.5171
vn -0.8283 -0.0063 -0.5602
vn -0.9522 -0.1192 -0.2811
vn -0.9538 -0.0072 -0.3003
vn -0.9960 -0.0341 -0.0824
vn -0.9961 -0.0074 -0.0878
vn -0.2089 -0.3866 -0.8983
vn -0.2928 -0.6908 -0.6611
vn -0.4338 -0.6531 -0.6207
vn -0.6409 -0.5552 -0.5301
vn -0.8212 -0.4100 -0.3969
vn -0.9491 -0.2220 -0.2236
vn -0.9958 -0.0610 -0.0681
vn -0.2060 -0.7079 -0.6756
vn -0.2909 -0.8916 -0.3469
vn -0.4277 -0.8429 -0.3266
vn -0.6327 -0.7208 -0.2830
vn -0.8130 -0.5402 -0.2173
vn -0.9442 -0.3035 -0.1279
vn -0.9955 -0.0861 -0.0401
vn -0.2033 -0.9130 -0.3537
vn -0.2898 -0.9571 -0.0000
vn -0.4228 -0.9062 -0.0000
vn -0.6266 -0.7794 -0.0000
vn -0.8073 -0.5902 -0.0000
vn -0.9409 -0.3386 -0.0000
vn -0.9953 -0.0971 -0.0000
vn -0.2033 -0.9130 0.3537
vn -0.2017 -0.9795 -0.0000
vn -0.2909 -0.8916 0.3469
vn -0.4277 -0.8429 0.3266
vn -0.6327 -0.7208 0.2830
vn -0.8130 -0.5402 0.2173
vn -0.9442 -0.3035 0.1279
vn -0.2060 -0.7079 0.6756
vn -0.2928 -0.6908 0.6611
vn -0.4338 -0.6531 0.6207
vn -0.6409 -0.5552 0.5301
vn -0.8212 -0.4100 0.3969
vn -0.9491 -0.2220 0.2236
vn -0.9956 -0.0849 0.0400
vn -0.2089 -0.3866 0.8983
vn -0.2948 -0.3773 0.8779
vn -0.4372 -0.3579 0.8251
vn -0.6452 -0.3047 0.7006
vn -0.8260 -0.2244 0.5171
vn -0.9522 -0.1192 0.2811
vn -0.9958 -0.0612 0.0682
vn -0.2120 -0.0019 0.9773
vn -0.2969 -0.0023 0.9549
vn -0.4395 -0.0033 0.8982
vn -0.6477 -0.0049 0.7619
vn -0.8284 -0.0063 0.5602
vn -0.9538 -0.0072 0.3003
vn -0.9963 -0.0332 0.0792
vn -0.2990 0.3730 0.8784
vn -0.4324 0.3442 0.8334
vn -0.6549 0.2727 0.7048
vn -0.8290 0.2120 0.5176
vn -0.9539 0.1047 0.2813
vn -0.9964 0.0190 0.0827
vn -0.9961 -0.0074 0.0879
vn -0.2151 0.3829 0.8984
vn -0.3005 0.6870 0.6617
vn -0.3946 0.6585 0.6408
vn -0.6473 0.5464 0.5315
vn -0.8409 0.3733 0.3918
vn -0.9522 0.2077 0.2238
vn -0.9967 0.0451 0.0677
vn -0.2174 0.7043 0.6758
vn -0.3008 0.8882 0.3473
vn -0.4023 0.8561 0.3244
vn -0.5989 0.7663 0.2327
vn -0.8471 0.4904 0.2050
vn -0.9486 0.2895 0.1281
vn -0.9967 0.0709 0.0400
vn -0.2180 0.9095 0.3539
vn -0.3004 0.9538 -0.0000
vn -0.4331 0.9014 -0.0000
vn -0.6210 0.7829 -0.0385
vn -0.8258 0.5638 -0.0118
vn -0.9458 0.3247 -0.0000
vn -0.9967 0.0815 -0.0002
vn -0.2180 0.9095 -0.3539
vn -0.2196 0.9756 -0.0000
vn -0.3008 0.8882 -0.3473
vn -0.4372 0.8378 -0.3271
vn -0.6416 0.7127 -0.2836
vn -0.8203 0.5289 -0.2177
vn -0.9486 0.2895 -0.1281
vn -0.2174 0.7043 -0.6758
vn -0.3005 0.6870 -0.6617
vn -0.4412 0.6474 -0.6215
vn -0.6477 0.5464 -0.5309
vn -0.8267 0.3981 -0.3975
vn -0.9522 0.2077 -0.2238
vn -0.9968 0.0697 -0.0400
vn -0.2151 0.3829 -0.8984
vn -0.2989 0.3730 -0.8784
vn -0.4412 0.3515 -0.8257
vn -0.6490 0.2952 -0.7012
vn -0.8290 0.2120 -0.5176
vn -0.9539 0.1047 -0.2813
vn -0.9968 0.0446 -0.0670
vn -0.9967 0.0179 -0.0793
vn -0.1181 -0.0005 -0.9930
vn -0.1218 0.3900 -0.9127
vn -0.1143 -0.3911 -0.9132
vn -0.1111 -0.7179 -0.6873
vn -0.1087 -0.9267 -0.3597
vn -0.1087 -0.9267 0.3597
vn -0.1077 -0.9942 -0.0000
vn -0.1111 -0.7179 0.6873
vn -0.1143 -0.3911 0.9132
vn -0.1181 -0.0005 0.9930
vn -0.1218 0.3900 0.9127
vn -0.1248 0.7163 0.6866
vn -0.1316 0.9122 0.3881
vn -0.1395 0.9100 -0.3903
vn -0.1445 0.9895 0.0023
vn -0.1248 0.7163 -0.6866
vn 0.0544 0.3940 -0.9175
vn 0.0574 0.7037 -0.7082
vn -0.0455 0.9245 -0.3785
vn 0.0626 0.9977 0.0247
vn 0.0628 0.9245 -0.3759
vn -0.0354 0.3932 -0.9188
vn -0.0427 0.7045 -0.7084
vn -0.0396 0.9195 0.3910
vn 0.0565 0.9196 0.3889
vn -0.0403 0.9989 0.0242
vn 0.0529 0.7215 0.6904
vn 0.0608 -0.0031 -0.9981
vn -0.0319 -0.0001 -0.9995
vn -0.0382 0.7218 0.6910
vn 0.0545 0.3940 0.9175
vn -0.0354 0.3932 0.9188
vn 0.0609 -0.0031 0.9981
vn 0.0775 -0.3960 -0.9150
vn -0.0319 -0.0001 0.9995
vn 0.0775 -0.3960 0.9150
vn 0.0920 -0.7216 -0.6861
vn -0.0284 -0.3935 -0.9189
vn -0.0284 -0.3935 0.9189
vn 0.0920 -0.7216 0.6861
vn 0.1004 -0.9283 -0.3579
vn -0.0255 -0.7223 -0.6911
vn -0.0255 -0.7223 0.6911
vn 0.1004 -0.9283 0.3579
vn 0.1025 -0.9947 -0.0000
vn -0.0235 -0.9321 -0.3614
vn -0.0235 -0.9321 0.3614
vn -0.0228 -0.9997 -0.0000
vn 0.0002 -0.0159 -0.9999
vn -0.0002 0.0063 -1.0000
vn -0.0027 0.0058 1.0000
vn -0.0000 -0.0991 0.9951
vn -0.0503 -0.7005 0.7119
vn 0.0137 0.3083 -0.9512
vn 0.0672 0.9339 0.3510
vn -0.0088 0.5441 0.8390
vn -0.0252 -0.3646 -0.9308
vn -0.0111 -0.3078 -0.9514
vn 0.0141 -0.3110 -0.9503
vn -0.0566 0.7814 -0.6215
vn -0.0291 0.7828 0.6216
vn -0.0384 0.5446 0.8378
vn 0.0088 -0.5441 -0.8389
vt 0.531825 0.926975
vt 0.537378 0.910007
vt 0.542806 0.914974
vt 0.526397 0.922008
vt 0.531950 0.905041
vt 0.520969 0.917041
vt 0.526522 0.900074
vt 0.515541 0.912075
vt 0.521094 0.895108
vt 0.510113 0.907108
vt 0.515666 0.890141
vt 0.504685 0.902142
vt 0.510238 0.885174
vt 0.499257 0.897175
vt 0.504810 0.880208
vt 0.493829 0.892208
vt 0.499382 0.875241
vt 0.586230 0.954707
vt 0.569821 0.961741
vt 0.580802 0.949741
vt 0.564393 0.956775
vt 0.575374 0.944774
vt 0.569946 0.939807
vt 0.558965 0.951808
vt 0.564518 0.934841
vt 0.553537 0.946841
vt 0.559090 0.929874
vt 0.542681 0.936908
vt 0.553662 0.924907
vt 0.545120 0.913275
vt 0.551983 0.917188
vt 0.548234 0.919941
vt 0.537253 0.931941
vt 0.578631 0.897619
vt 0.570795 0.896628
vt 0.573203 0.892652
vt 0.517712 0.964197
vt 0.516031 0.956479
vt 0.520121 0.960221
vt 0.530338 0.929430
vt 0.534843 0.935919
vt 0.529633 0.934027
vt 0.552271 0.893581
vt 0.551283 0.901418
vt 0.547305 0.899009
vt 0.574593 0.923978
vt 0.566820 0.922576
vt 0.571842 0.920230
vt 0.511355 0.938298
vt 0.519073 0.936619
vt 0.515331 0.940709
vt 0.543610 0.957839
vt 0.541525 0.950221
vt 0.546122 0.950924
vt 0.577231 0.905392
vt 0.574884 0.900370
vt 0.525331 0.962113
vt 0.524628 0.966708
vt 0.558937 0.890467
vt 0.555025 0.897328
vt 0.567927 0.927093
vt 0.561282 0.922822
vt 0.508844 0.945214
vt 0.513439 0.945919
vt 0.541279 0.944683
vt 0.545795 0.943574
vt 0.581745 0.904285
vt 0.577476 0.910930
vt 0.530869 0.961867
vt 0.531978 0.966382
vt 0.566287 0.890141
vt 0.560047 0.894982
vt 0.560577 0.927419
vt 0.556072 0.920930
vt 0.544793 0.905925
vt 0.549636 0.912166
vt 0.509170 0.952564
vt 0.513685 0.951457
vt 0.538933 0.939661
vt 0.522988 0.929756
vt 0.524095 0.934273
vt 0.582071 0.911635
vt 0.575584 0.916140
vt 0.535891 0.959521
vt 0.538644 0.963267
vt 0.565584 0.894736
vt 0.512284 0.959230
vt 0.549391 0.906628
vt 0.579560 0.918550
vt 0.516322 0.932870
vt 0.539633 0.955431
vt 0.280954 0.690803
vt 0.275318 0.688956
vt 0.277454 0.686505
vt 0.271525 0.686652
vt 0.272716 0.683627
vt 0.267289 0.682502
vt 0.267180 0.685752
vt 0.261798 0.683261
vt 0.262784 0.686359
vt 0.258845 0.688405
vt 0.256878 0.685816
vt 0.255820 0.691651
vt 0.253099 0.689871
vt 0.250897 0.694958
vt 0.254057 0.695724
vt 0.250526 0.700489
vt 0.253760 0.700152
vt 0.256878 0.711780
vt 0.262784 0.711236
vt 0.261798 0.714334
vt 0.267180 0.711844
vt 0.267289 0.715093
vt 0.271525 0.710944
vt 0.272716 0.713969
vt 0.275318 0.708640
vt 0.277454 0.711091
vt 0.278120 0.705198
vt 0.280954 0.706792
vt 0.279607 0.701017
vt 0.282811 0.701569
vt 0.282811 0.696026
vt 0.279607 0.696579
vt 0.278120 0.692398
vt 0.298830 0.690483
vt 0.282811 0.684940
vt 0.298830 0.684940
vt 0.266233 0.709953
vt 0.257296 0.696579
vt 0.270670 0.687643
vt 0.282811 0.679397
vt 0.298830 0.679397
vt 0.298830 0.696026
vt 0.282811 0.690483
vt 0.298830 0.673854
vt 0.282811 0.673854
vt 0.282811 0.668310
vt 0.298830 0.668310
vt 0.298830 0.662767
vt 0.282811 0.662767
vt 0.282811 0.657224
vt 0.298830 0.657224
vt 0.282811 0.651681
vt 0.298830 0.651681
vt 0.282811 0.646138
vt 0.298830 0.646138
vt 0.298830 0.734829
vt 0.282811 0.729285
vt 0.298830 0.729285
vt 0.282811 0.723742
vt 0.298830 0.723742
vt 0.282811 0.718199
vt 0.298830 0.718199
vt 0.282811 0.712656
vt 0.298830 0.712656
vt 0.282811 0.707113
vt 0.298830 0.707113
vt 0.298830 0.701569
vt 0.184258 0.087003
vt 0.184924 0.081110
vt 0.187758 0.082704
vt 0.178329 0.086856
vt 0.182122 0.084552
vt 0.174093 0.091006
vt 0.179521 0.089881
vt 0.168602 0.090247
vt 0.173984 0.087756
vt 0.165649 0.085103
vt 0.169588 0.087148
vt 0.163682 0.087692
vt 0.162624 0.081857
vt 0.157701 0.078550
vt 0.159903 0.083637
vt 0.157330 0.073019
vt 0.160861 0.077784
vt 0.163682 0.061728
vt 0.169588 0.062272
vt 0.165649 0.064317
vt 0.174093 0.058414
vt 0.168602 0.059173
vt 0.179521 0.059539
vt 0.173984 0.061664
vt 0.184258 0.062417
vt 0.178329 0.062564
vt 0.187758 0.066716
vt 0.182122 0.064868
vt 0.186411 0.072491
vt 0.184924 0.068310
vt 0.189615 0.077482
vt 0.189615 0.071938
vt 0.186411 0.076929
vt 0.205752 0.088568
vt 0.189615 0.083025
vt 0.205752 0.083025
vt 0.164100 0.072491
vt 0.177474 0.063555
vt 0.205752 0.077482
vt 0.205752 0.094111
vt 0.189615 0.088568
vt 0.205752 0.099654
vt 0.189615 0.094111
vt 0.205752 0.105198
vt 0.189615 0.099654
vt 0.205752 0.110741
vt 0.189615 0.105198
vt 0.189615 0.116284
vt 0.189615 0.110741
vt 0.205752 0.121827
vt 0.205752 0.116284
vt 0.205752 0.127370
vt 0.189615 0.121827
vt 0.205752 0.044223
vt 0.189615 0.038679
vt 0.205752 0.038679
vt 0.205752 0.049766
vt 0.189615 0.044223
vt 0.205752 0.055309
vt 0.189615 0.049766
vt 0.205752 0.060852
vt 0.189615 0.055309
vt 0.205752 0.066395
vt 0.189615 0.060852
vt 0.205752 0.071938
vt 0.189615 0.066395
vt 0.737907 0.643477
vt 0.737424 0.550897
vt 0.742363 0.577386
vt 0.714099 0.578293
vt 0.714256 0.560002
vt 0.717963 0.560062
vt 0.687985 0.610888
vt 0.691086 0.594009
vt 0.691039 0.611091
vt 0.687832 0.576714
vt 0.691036 0.559457
vt 0.690922 0.576782
vt 0.751332 0.640428
vt 0.747099 0.620199
vt 0.750859 0.619561
vt 0.747225 0.550839
vt 0.742535 0.559752
vt 0.742479 0.533144
vt 0.714161 0.596587
vt 0.709405 0.568949
vt 0.714036 0.569140
vt 0.727988 0.645745
vt 0.723957 0.624626
vt 0.727739 0.624063
vt 0.750683 0.611069
vt 0.750577 0.594063
vt 0.753618 0.593956
vt 0.723907 0.578479
vt 0.720979 0.560077
vt 0.723993 0.560061
vt 0.723862 0.606122
vt 0.727575 0.605722
vt 0.727716 0.541800
vt 0.727551 0.523688
vt 0.732102 0.523912
vt 0.269225 0.166826
vt 0.275903 0.156817
vt 0.272931 0.168194
vt 0.694734 0.479907
vt 0.695181 0.443423
vt 0.699780 0.443650
vt 0.703933 0.643531
vt 0.699515 0.603637
vt 0.699454 0.586070
vt 0.709555 0.614174
vt 0.732363 0.461781
vt 0.727691 0.444400
vt 0.732228 0.444259
vt 0.704273 0.568710
vt 0.699481 0.559677
vt 0.699582 0.542075
vt 0.714121 0.614881
vt 0.709152 0.644758
vt 0.694727 0.576984
vt 0.699241 0.568479
vt 0.694948 0.515912
vt 0.699393 0.479738
vt 0.709778 0.541897
vt 0.714299 0.541816
vt 0.727749 0.461727
vt 0.724119 0.470408
vt 0.724105 0.453014
vt 0.717832 0.487712
vt 0.717912 0.523568
vt 0.713941 0.470449
vt 0.723938 0.532621
vt 0.723836 0.514461
vt 0.694814 0.611622
vt 0.694885 0.594347
vt 0.717865 0.615339
vt 0.713874 0.645766
vt 0.723995 0.550901
vt 0.732115 0.605130
vt 0.721028 0.453004
vt 0.718115 0.444447
vt 0.721066 0.444483
vt 0.720969 0.470382
vt 0.720929 0.487678
vt 0.724025 0.487730
vt 0.720895 0.514399
vt 0.720999 0.541721
vt 0.720890 0.523497
vt 0.717963 0.532644
vt 0.720950 0.532588
vt 0.720886 0.615497
vt 0.717764 0.646423
vt 0.718000 0.541748
vt 0.720873 0.578538
vt 0.717863 0.587701
vt 0.717836 0.578472
vt 0.723842 0.596919
vt 0.720866 0.606264
vt 0.723866 0.587706
vt 0.717870 0.606127
vt 0.724018 0.444473
vt 0.751162 0.489303
vt 0.754424 0.470936
vt 0.754224 0.489398
vt 0.751370 0.470921
vt 0.754107 0.452575
vt 0.727585 0.587459
vt 0.727773 0.569161
vt 0.732358 0.569007
vt 0.753802 0.524600
vt 0.750939 0.533262
vt 0.753649 0.516039
vt 0.688014 0.593894
vt 0.723998 0.541743
vt 0.753878 0.576940
vt 0.751028 0.559617
vt 0.754166 0.559618
vt 0.723903 0.615343
vt 0.742998 0.470765
vt 0.746922 0.443668
vt 0.747600 0.470863
vt 0.720928 0.646649
vt 0.727647 0.578315
vt 0.727719 0.560019
vt 0.727716 0.550906
vt 0.690506 0.640514
vt 0.746817 0.603013
vt 0.750659 0.585526
vt 0.727559 0.596599
vt 0.751040 0.542039
vt 0.747375 0.489113
vt 0.746744 0.515833
vt 0.732133 0.587081
vt 0.694235 0.641245
vt 0.694929 0.542127
vt 0.694928 0.533396
vt 0.699533 0.524460
vt 0.694845 0.559547
vt 0.694904 0.550837
vt 0.709488 0.523959
vt 0.714443 0.444340
vt 0.709603 0.461719
vt 0.709908 0.444158
vt 0.737601 0.528781
vt 0.714231 0.461692
vt 0.717882 0.596913
vt 0.746994 0.577125
vt 0.747181 0.559666
vt 0.732280 0.541877
vt 0.742994 0.642234
vt 0.694888 0.602993
vt 0.717950 0.452993
vt 0.694441 0.489052
vt 0.690509 0.470769
vt 0.694282 0.470732
vt 0.750566 0.515987
vt 0.750592 0.602571
vt 0.747112 0.533232
vt 0.751069 0.550822
vt 0.750798 0.576963
vt 0.691105 0.524789
vt 0.753729 0.443406
vt 0.751062 0.452651
vt 0.750682 0.443525
vt 0.687891 0.452317
vt 0.690949 0.452416
vt 0.690639 0.489220
vt 0.687443 0.470766
vt 0.691104 0.542159
vt 0.687979 0.533530
vt 0.754065 0.533237
vt 0.688002 0.542170
vt 0.754370 0.640128
vt 0.754204 0.542028
vt 0.688342 0.443106
vt 0.691404 0.443250
vt 0.732706 0.644707
vt 0.737440 0.559858
vt 0.691107 0.516079
vt 0.687559 0.489301
vt 0.687999 0.516149
vt 0.727997 0.470476
vt 0.687443 0.640237
vt 0.720864 0.587788
vt 0.717818 0.470396
vt 0.691083 0.550803
vt 0.714023 0.523745
vt 0.742211 0.603661
vt 0.746867 0.585775
vt 0.732307 0.559948
vt 0.205933 0.613990
vt 0.202161 0.602348
vt 0.208678 0.602931
vt 0.183157 0.612926
vt 0.176346 0.603013
vt 0.180466 0.601998
vt 0.528640 0.769450
vt 0.517585 0.764787
vt 0.528431 0.764211
vt 0.262633 0.166304
vt 0.258126 0.155725
vt 0.263043 0.154951
vt 0.186424 0.612520
vt 0.189579 0.601665
vt 0.190446 0.612535
vt 0.517630 0.758505
vt 0.528421 0.758968
vt 0.265970 0.166235
vt 0.270921 0.155398
vt 0.200622 0.613311
vt 0.195793 0.601944
vt 0.529077 0.750382
vt 0.517849 0.752258
vt 0.518312 0.747068
vt 0.529077 0.774153
vt 0.517736 0.771115
vt 0.258685 0.166963
vt 0.251936 0.157039
vt 0.184542 0.601639
vt 0.266981 0.154805
vt 0.195282 0.612831
vt 0.528607 0.754239
vt 0.433196 0.765276
vt 0.428670 0.771003
vt 0.428936 0.765176
vt 0.424639 0.770318
vt 0.424958 0.765055
vt 0.421051 0.769367
vt 0.421394 0.764919
vt 0.418011 0.768200
vt 0.418333 0.764777
vt 0.415513 0.766865
vt 0.415764 0.764641
vt 0.413363 0.765358
vt 0.413467 0.764507
vt 0.432984 0.771571
vt 0.428185 0.776379
vt 0.424026 0.775202
vt 0.420350 0.773485
vt 0.417309 0.771328
vt 0.414937 0.768839
vt 0.413107 0.766070
vt 0.273343 0.070491
vt 0.268020 0.067549
vt 0.272124 0.065852
vt 0.267029 0.063644
vt 0.270473 0.061589
vt 0.265924 0.059966
vt 0.268529 0.057723
vt 0.264625 0.056410
vt 0.266357 0.054302
vt 0.263023 0.052873
vt 0.263946 0.051274
vt 0.261004 0.049171
vt 0.261302 0.048566
vt 0.268794 0.071763
vt 0.264778 0.068305
vt 0.264254 0.064526
vt 0.263625 0.060942
vt 0.262839 0.057387
vt 0.261811 0.053668
vt 0.260507 0.049486
vt 0.261663 0.072442
vt 0.265227 0.072383
vt 0.261520 0.068350
vt 0.261414 0.064538
vt 0.261189 0.060923
vt 0.260844 0.057364
vt 0.260361 0.053657
vt 0.257200 0.071998
vt 0.257450 0.067744
vt 0.257849 0.063753
vt 0.258191 0.060004
vt 0.258478 0.056446
vt 0.258683 0.052937
vt 0.259522 0.049456
vt 0.251522 0.071114
vt 0.252200 0.066468
vt 0.253197 0.062111
vt 0.254375 0.058136
vt 0.255634 0.054622
vt 0.256886 0.051537
vt 0.258823 0.049245
vt 0.203114 0.517277
vt 0.208675 0.512177
vt 0.209538 0.516702
vt 0.202660 0.512959
vt 0.207569 0.507938
vt 0.202090 0.508917
vt 0.206056 0.504209
vt 0.201421 0.505292
vt 0.204248 0.501147
vt 0.200706 0.502180
vt 0.202258 0.498785
vt 0.200003 0.499573
vt 0.200135 0.496940
vt 0.196916 0.513497
vt 0.196917 0.509588
vt 0.197035 0.506036
vt 0.197300 0.502883
vt 0.197745 0.500089
vt 0.198408 0.497441
vt 0.199294 0.497250
vt 0.196888 0.517690
vt 0.191866 0.513676
vt 0.192409 0.509846
vt 0.192703 0.506520
vt 0.194275 0.503187
vt 0.195690 0.500267
vt 0.197552 0.497435
vt 0.191374 0.517815
vt 0.187734 0.513444
vt 0.188759 0.509607
vt 0.189719 0.506354
vt 0.191808 0.502967
vt 0.194004 0.500009
vt 0.196853 0.497236
vt 0.186856 0.517615
vt 0.184350 0.512736
vt 0.185808 0.508804
vt 0.187622 0.505239
vt 0.189942 0.502057
vt 0.192821 0.499221
vt 0.196393 0.496861
vt 0.179419 0.515897
vt 0.183156 0.517045
vt 0.180971 0.511252
vt 0.183005 0.507020
vt 0.185589 0.503284
vt 0.188712 0.500214
vt 0.192295 0.497867
vt 0.433001 0.753337
vt 0.428126 0.749717
vt 0.432606 0.748603
vt 0.428668 0.754138
vt 0.423938 0.751115
vt 0.424636 0.755110
vt 0.420222 0.753169
vt 0.421041 0.756513
vt 0.417131 0.755779
vt 0.417969 0.758294
vt 0.414712 0.758869
vt 0.415426 0.760417
vt 0.412961 0.762346
vt 0.433203 0.759016
vt 0.428939 0.759396
vt 0.424964 0.759846
vt 0.421404 0.760514
vt 0.418341 0.761375
vt 0.415757 0.762413
vt 0.413273 0.762890
vt 0.413453 0.763647
vt 0.450119 0.765440
vt 0.256479 0.046526
vt 0.256292 0.037370
vt 0.262078 0.039800
vt 0.450154 0.758096
vt 0.449968 0.772803
vt 0.432621 0.777330
vt 0.276164 0.087702
vt 0.270746 0.088522
vt 0.262112 0.089013
vt 0.266424 0.088933
vt 0.256762 0.088817
vt 0.250115 0.088370
vt 0.204004 0.534279
vt 0.211455 0.533934
vt 0.196672 0.534499
vt 0.190120 0.534557
vt 0.184749 0.534433
vt 0.175641 0.533266
vt 0.180207 0.534118
vt 0.450065 0.751455
vt 0.449835 0.745965
vt 0.500839 0.757878
vt 0.500957 0.750963
vt 0.173968 0.550819
vt 0.178798 0.585082
vt 0.174145 0.585428
vt 0.467049 0.757680
vt 0.467050 0.750582
vt 0.501137 0.744896
vt 0.183619 0.551219
vt 0.183550 0.584972
vt 0.467014 0.744373
vt 0.178747 0.551083
vt 0.189178 0.584979
vt 0.500794 0.765530
vt 0.467008 0.765538
vt 0.189396 0.551295
vt 0.196050 0.585107
vt 0.196441 0.551316
vt 0.203743 0.585328
vt 0.500829 0.773202
vt 0.204314 0.551289
vt 0.211541 0.585601
vt 0.500941 0.780169
vt 0.466935 0.773412
vt 0.212284 0.551229
vt 0.250837 0.139657
vt 0.257685 0.138996
vt 0.271983 0.138715
vt 0.277602 0.105042
vt 0.277602 0.139252
vt 0.249708 0.105638
vt 0.256806 0.105623
vt 0.263159 0.138602
vt 0.267555 0.138505
vt 0.271772 0.105323
vt 0.262529 0.105583
vt 0.267138 0.105495
vt 0.518108 0.777461
vt 0.449717 0.779486
vt 0.704177 0.470483
vt 0.704537 0.524276
vt 0.704862 0.443916
vt 0.737418 0.466044
vt 0.737275 0.444070
vt 0.742344 0.443859
vt 0.488401 0.887242
vt 0.575249 0.966708
vt 0.548109 0.941875
vt 0.258845 0.709191
vt 0.274770 0.689341
vt 0.277908 0.692479
vt 0.277908 0.705117
vt 0.274770 0.708255
vt 0.270670 0.709953
vt 0.262133 0.708255
vt 0.258995 0.705117
vt 0.257296 0.701017
vt 0.258995 0.692479
vt 0.262133 0.689341
vt 0.266233 0.687643
vt 0.282811 0.734829
vt 0.160564 0.073356
vt 0.184712 0.081029
vt 0.181574 0.084167
vt 0.177474 0.085865
vt 0.173037 0.085865
vt 0.168937 0.084167
vt 0.165799 0.081029
vt 0.164100 0.076929
vt 0.165799 0.068391
vt 0.168937 0.065253
vt 0.173037 0.063555
vt 0.181574 0.065253
vt 0.184712 0.068391
vt 0.189615 0.127370
vt 0.742561 0.550871
vt 0.687939 0.559414
vt 0.747577 0.641163
vt 0.709621 0.596090
vt 0.724096 0.646418
vt 0.753717 0.610851
vt 0.727638 0.532728
vt 0.698830 0.642302
vt 0.694827 0.585672
vt 0.694933 0.524657
vt 0.717951 0.514445
vt 0.723860 0.523542
vt 0.727500 0.514625
vt 0.691094 0.533494
vt 0.687984 0.524833
vt 0.180119 0.613990
vt 0.254069 0.168132
vt 0.258177 0.048715
vt 0.196256 0.496352
vt 0.262951 0.042261
vt 0.263238 0.044838
vt 0.262901 0.047128
vt 0.261977 0.048773
vt 0.257870 0.048413
vt 0.255535 0.044096
vt 0.255166 0.041498
vt 0.255433 0.039136
vt 0.257617 0.036463
vt 0.259196 0.036658
vt 0.260761 0.037831
vt 0.466841 0.780551
s 1
usemtl HandleSurface
f 2/1/1 3/2/2 1/3/1
f 4/4/2 5/5/3 3/2/2
f 6/6/3 7/7/4 5/5/3
f 8/8/4 9/9/5 7/7/4
f 10/10/5 11/11/6 9/9/5
f 12/12/6 13/13/7 11/11/6
f 14/14/7 15/15/8 13/13/7
f 16/16/8 17/17/9 15/15/8
f 17/18/9 20/19/10 19/20/10
f 19/20/10 22/21/11 21/22/11
f 22/21/11 23/23/12 21/22/11
f 24/24/12 25/25/13 23/23/12
f 26/26/13 27/27/14 25/25/13
f 27/27/14 30/28/15 29/29/15
f 1/30/16 63/31/16 31/32/16
f 30/28/15 31/32/17 29/29/15
f 32/33/17 1/3/1 31/32/17
f 15/34/16 45/35/16 13/36/16
f 16/37/18 46/38/18 48/39/18
f 2/40/18 64/41/18 36/42/18
f 7/43/16 37/44/16 5/45/16
f 23/46/16 57/47/16 55/48/16
f 8/49/18 38/50/18 40/51/18
f 24/52/18 58/53/18 26/54/18
f 15/34/16 49/55/16 47/56/16
f 16/37/18 50/57/18 18/58/18
f 9/59/16 39/60/16 7/43/16
f 25/61/16 59/62/16 57/47/16
f 10/63/18 40/51/18 42/64/18
f 26/54/18 60/65/18 28/66/18
f 17/67/16 51/68/16 49/55/16
f 18/58/18 52/69/18 20/70/18
f 11/71/16 41/72/16 9/59/16
f 27/73/16 61/74/16 59/62/16
f 3/75/16 33/76/16 1/30/16
f 12/77/18 42/64/18 44/78/18
f 28/66/18 62/79/18 30/28/18
f 4/80/18 36/42/18 35/81/18
f 19/82/16 53/83/16 51/68/16
f 20/70/18 54/84/18 22/85/18
f 13/36/16 43/86/16 11/71/16
f 29/29/16 63/31/16 61/74/16
f 14/87/18 44/78/18 46/38/18
f 30/28/18 64/41/18 32/33/18
f 5/45/16 34/88/16 3/75/16
f 21/89/16 55/48/16 53/83/16
f 6/90/18 35/81/18 38/50/18
f 22/85/18 56/91/18 24/52/18
f 67/92/19 65/93/20 66/94/20
f 66/94/20 69/95/21 70/96/21
f 72/97/22 69/95/21 71/98/22
f 74/99/23 71/98/22 73/100/23
f 74/99/23 75/101/24 76/102/24
f 76/102/24 77/103/25 78/104/25
f 80/105/26 77/103/25 79/106/26
f 82/107/27 79/106/26 81/108/27
f 82/109/27 83/110/28 84/111/28
f 84/111/28 85/112/29 86/113/29
f 86/113/29 87/114/30 88/115/30
f 88/115/30 89/116/31 90/117/31
f 90/117/31 91/118/32 92/119/32
f 92/119/32 93/120/33 94/121/33
f 96/122/34 93/120/33 95/123/34
f 67/92/19 95/123/34 68/124/19
f 36/125/1 66/126/2 35/127/2
f 85/128/18 77/129/18 69/130/18
f 35/127/2 70/131/3 38/132/3
f 64/133/17 67/134/1 36/125/1
f 40/135/4 70/131/3 72/136/4
f 40/135/4 74/137/5 42/138/5
f 44/139/6 74/137/5 76/140/6
f 44/139/6 78/141/7 46/142/7
f 46/142/7 80/143/8 48/144/8
f 48/144/8 82/145/9 50/146/9
f 50/147/9 84/148/10 52/149/10
f 52/149/10 86/150/11 54/151/11
f 54/151/11 88/152/12 56/153/12
f 56/153/12 90/154/13 58/155/13
f 58/155/13 92/156/14 60/157/14
f 60/157/14 94/121/15 62/158/15
f 62/158/15 96/122/17 64/133/17
f 99/159/35 97/160/36 98/161/36
f 99/159/35 102/162/37 100/163/35
f 103/164/38 102/162/37 101/165/37
f 105/166/39 104/167/38 103/164/38
f 105/166/39 108/168/40 106/169/39
f 107/170/40 110/171/41 108/168/40
f 111/172/42 110/171/41 109/173/41
f 113/174/43 112/175/42 111/172/42
f 113/176/43 116/177/44 114/178/43
f 117/179/45 116/177/44 115/180/44
f 119/181/46 118/182/45 117/179/45
f 121/183/47 120/184/46 119/181/46
f 123/185/48 122/186/47 121/183/47
f 123/185/48 126/187/49 124/188/48
f 127/189/50 126/187/49 125/190/49
f 98/161/36 128/191/50 127/189/50
f 34/192/2 98/193/1 33/194/1
f 112/195/16 120/196/16 128/191/16
f 33/194/1 127/189/17 63/197/17
f 37/198/3 99/199/2 34/192/2
f 39/200/4 101/201/3 37/198/3
f 41/202/5 103/203/4 39/200/4
f 43/204/6 105/205/5 41/202/5
f 43/204/6 109/206/7 107/207/6
f 47/208/8 109/206/7 45/209/7
f 49/210/9 111/211/8 47/208/8
f 51/212/10 113/213/9 49/214/9
f 53/215/11 115/216/10 51/212/10
f 55/217/12 117/218/11 53/215/11
f 57/219/13 119/220/12 55/217/12
f 59/221/14 121/222/13 57/219/13
f 61/223/15 123/224/14 59/221/14
f 63/197/17 125/190/15 61/223/15
f 146/225/51 237/226/52 231/227/53
f 301/228/54 303/229/55 291/230/56
f 195/231/57 184/232/58 183/233/59
f 197/234/60 186/235/61 185/236/62
f 140/237/63 220/238/64 206/239/65
f 225/240/66 232/241/67 234/242/68
f 300/243/69 310/244/70 302/245/71
f 150/246/72 259/247/73 245/248/74
f 207/249/75 209/250/76 196/251/77
f 264/252/78 278/253/79 265/254/80
f 259/247/73 261/255/81 246/256/82
f 253/257/83 255/258/84 243/259/85
f 135/260/86 316/261/87 133/262/88
f 181/263/89 133/264/88 131/265/90
f 130/266/91 162/267/92 163/268/93
f 308/269/94 130/266/91 310/244/70
f 244/270/95 149/271/96 147/272/97
f 161/273/98 165/274/99 166/275/100
f 299/276/101 160/277/102 308/269/94
f 173/278/103 165/274/99 164/279/104
f 179/280/105 181/263/89 168/281/106
f 302/245/71 311/282/107 304/283/108
f 258/284/109 272/285/110 273/286/111
f 296/287/112 294/288/113 306/289/114
f 255/258/84 268/290/115 270/291/116
f 169/292/117 184/232/58 171/293/118
f 286/294/119 158/295/120 299/276/101
f 253/257/83 266/296/121 268/290/115
f 150/246/72 246/256/82 238/297/122
f 285/298/123 155/299/124 153/300/125
f 284/301/126 273/286/111 272/285/110
f 283/302/127 272/285/110 271/303/128
f 282/304/129 296/287/112 283/302/127
f 268/290/115 279/305/130 281/306/131
f 279/305/130 293/307/132 280/308/133
f 274/309/134 156/310/135 286/294/119
f 278/253/79 292/311/136 279/305/130
f 277/312/137 289/313/138 290/314/139
f 262/315/140 275/316/141 263/317/142
f 275/316/141 286/294/119 287/318/143
f 151/319/144 285/298/123 153/300/125
f 217/320/145 204/321/146 203/322/147
f 218/323/148 205/324/149 204/321/146
f 282/304/129 271/303/128 270/291/116
f 248/325/150 250/326/151 240/327/152
f 270/291/116 281/306/131 282/304/129
f 201/328/153 215/329/154 202/330/155
f 196/331/77 185/236/62 184/232/58
f 266/296/121 278/253/79 267/332/156
f 263/317/142 277/312/137 264/252/78
f 197/333/60 212/334/157 198/335/158
f 260/336/159 275/316/141 261/255/81
f 235/337/160 141/338/161 229/339/162
f 259/247/73 154/340/163 274/309/134
f 249/341/164 265/254/80 251/342/165
f 248/325/150 262/315/140 264/252/78
f 251/342/165 266/296/121 252/343/166
f 169/292/117 136/344/167 183/233/59
f 209/250/76 221/345/168 210/346/169
f 246/256/82 262/315/140 247/347/170
f 214/348/171 225/240/66 215/329/154
f 228/349/172 218/323/148 217/320/145
f 227/350/173 234/242/68 229/339/162
f 246/256/82 248/325/150 239/351/174
f 134/352/175 169/292/117 162/267/92
f 176/353/176 177/354/177 167/355/178
f 174/356/179 175/357/180 166/275/100
f 312/358/181 310/244/70 161/273/98
f 157/359/182 313/360/183 159/361/184
f 234/242/68 237/226/52 492/362/185
f 312/358/181 307/363/186 306/289/114
f 288/364/187 301/228/54 290/314/139
f 223/365/188 232/241/67 224/366/189
f 250/326/151 252/343/166 242/367/190
f 220/238/64 144/368/191 221/345/168
f 170/369/192 171/293/118 163/268/93
f 298/370/193 157/359/182 155/299/124
f 180/371/194 193/372/195 182/373/196
f 227/350/173 217/320/145 216/374/197
f 207/249/75 220/238/64 208/375/198
f 226/376/199 216/374/197 215/329/154
f 212/334/157 225/240/66 213/377/200
f 185/236/62 174/356/179 173/278/103
f 210/346/169 223/365/188 211/378/201
f 211/378/201 224/366/189 212/334/157
f 177/354/177 190/379/202 179/280/105
f 137/380/203 219/381/204 139/382/205
f 193/372/195 205/383/149 194/384/206
f 192/385/207 204/386/146 193/372/195
f 216/374/197 203/322/147 202/330/155
f 188/387/208 200/388/209 190/379/202
f 200/389/209 214/348/171 215/329/154
f 186/235/61 199/390/210 188/387/208
f 138/391/211 206/239/65 207/249/75
f 212/334/157 214/348/171 199/392/210
f 209/250/76 211/378/201 197/333/60
f 194/384/206 137/393/203 135/394/86
f 284/301/126 298/370/193 285/298/123
f 148/395/212 240/327/152 236/396/213
f 191/397/214 203/398/147 192/385/207
f 190/379/202 202/399/155 191/397/214
f 270/291/116 271/303/128 257/400/215
f 290/314/139 278/253/79 277/312/137
f 280/308/133 294/288/113 282/304/129
f 183/233/59 138/401/211 195/231/57
f 287/318/143 288/364/187 276/402/216
f 229/339/162 139/382/205 219/381/204
f 283/302/127 297/403/217 284/301/126
f 179/280/105 192/385/207 180/371/194
f 175/357/180 188/387/208 177/354/177
f 171/293/118 185/236/62 173/278/103
f 175/357/180 186/235/61 187/404/218
f 291/230/56 304/283/108 292/311/136
f 286/294/119 300/243/69 288/364/187
f 292/311/136 305/405/219 294/288/113
f 308/269/94 300/243/69 299/276/101
f 230/406/220 223/365/188 222/407/221
f 304/283/108 312/358/181 305/405/219
f 255/258/84 257/400/215 244/270/95
f 237/226/52 241/408/222 243/259/85
f 133/264/88 194/384/206 135/394/86
f 143/409/223 322/410/224 321/411/225
f 153/412/125 327/413/226 326/414/227
f 131/415/90 314/416/228 129/417/229
f 139/418/205 320/419/230 319/420/231
f 151/421/144 324/422/232 149/423/96
f 129/417/229 329/424/233 159/425/184
f 137/426/203 317/427/234 135/260/86
f 145/428/235 323/429/236 322/410/224
f 155/430/124 328/431/237 327/432/226
f 133/433/88 315/434/238 131/415/90
f 141/435/161 321/436/225 320/419/230
f 153/412/125 325/437/239 151/421/144
f 137/426/203 319/420/231 318/438/240
f 149/423/96 323/429/236 147/439/97
f 157/440/182 329/424/233 328/431/237
f 331/441/241 339/442/242 336/443/243
f 336/443/243 340/444/244 335/445/245
f 335/445/245 341/446/246 334/447/247
f 334/447/247 342/448/248 333/449/249
f 333/449/249 343/450/250 332/451/251
f 332/451/251 338/452/252 330/453/253
f 337/454/254 346/455/255 339/442/242
f 339/442/242 347/456/256 340/444/244
f 340/444/244 348/457/257 341/446/246
f 341/446/246 349/458/258 342/448/248
f 342/448/248 350/459/259 343/450/250
f 343/450/250 345/460/260 338/452/252
f 344/461/261 353/462/262 346/463/255
f 346/463/255 354/464/263 347/465/256
f 347/465/256 355/466/264 348/467/257
f 348/467/257 356/468/265 349/469/258
f 349/469/258 357/470/266 350/471/259
f 350/471/259 352/472/267 345/473/260
f 351/474/268 360/475/269 353/462/262
f 353/462/262 361/476/270 354/464/263
f 354/464/263 362/477/271 355/466/264
f 355/466/264 363/478/272 356/468/265
f 356/468/265 364/479/273 357/470/266
f 357/470/266 359/480/274 352/472/267
f 365/481/275 360/475/269 358/482/276
f 367/483/277 361/476/270 360/475/269
f 368/484/278 362/477/271 361/476/270
f 369/485/279 363/478/272 362/477/271
f 370/486/280 364/479/273 363/478/272
f 371/487/281 359/480/274 364/479/273
f 372/488/282 367/483/277 365/481/275
f 374/489/283 368/484/278 367/483/277
f 375/490/284 369/485/279 368/484/278
f 376/491/285 370/486/280 369/485/279
f 377/492/286 371/487/281 370/486/280
f 378/493/287 366/494/288 371/487/281
f 379/495/289 374/489/283 372/488/282
f 381/496/290 375/490/284 374/489/283
f 382/497/291 376/491/285 375/490/284
f 383/498/292 377/492/286 376/491/285
f 384/499/293 378/493/287 377/492/286
f 385/500/294 373/501/295 378/493/287
f 386/502/296 381/503/290 379/504/289
f 388/505/297 382/506/291 381/503/290
f 389/507/298 383/508/292 382/506/291
f 390/509/299 384/510/293 383/508/292
f 391/511/300 385/512/294 384/510/293
f 392/513/301 380/514/302 385/512/294
f 386/502/296 395/515/303 388/505/297
f 388/505/297 396/516/304 389/507/298
f 389/507/298 397/517/305 390/509/299
f 390/509/299 398/518/306 391/511/300
f 391/511/300 399/519/307 392/513/301
f 392/513/301 394/520/308 387/521/309
f 393/522/310 402/523/311 395/515/303
f 395/515/303 403/524/312 396/516/304
f 396/516/304 404/525/313 397/517/305
f 397/517/305 405/526/314 398/518/306
f 398/518/306 406/527/315 399/519/307
f 399/519/307 401/528/316 394/520/308
f 400/529/317 409/530/318 402/523/311
f 402/523/311 410/531/319 403/524/312
f 403/524/312 411/532/320 404/525/313
f 404/525/313 412/533/321 405/526/314
f 405/526/314 413/534/322 406/527/315
f 406/527/315 408/535/323 401/528/316
f 407/536/324 416/537/325 409/530/318
f 409/530/318 417/538/326 410/531/319
f 410/531/319 418/539/327 411/532/320
f 411/532/320 419/540/328 412/533/321
f 412/533/321 420/541/329 413/534/322
f 413/534/322 415/542/330 408/535/323
f 421/543/331 416/537/325 414/544/332
f 423/545/333 417/538/326 416/537/325
f 424/546/334 418/539/327 417/538/326
f 425/547/335 419/540/328 418/539/327
f 426/548/336 420/541/329 419/540/328
f 427/549/337 415/542/330 420/541/329
f 428/550/338 423/551/333 421/552/331
f 430/553/339 424/554/334 423/551/333
f 431/555/340 425/556/335 424/554/334
f 432/557/341 426/558/336 425/556/335
f 433/559/342 427/560/337 426/558/336
f 434/561/343 422/562/344 427/560/337
f 435/563/345 430/553/339 428/550/338
f 437/564/346 431/555/340 430/553/339
f 438/565/347 432/557/341 431/555/340
f 439/566/348 433/559/342 432/557/341
f 440/567/349 434/561/343 433/559/342
f 441/568/350 429/569/351 434/561/343
f 331/441/241 437/564/346 435/563/345
f 336/443/243 438/565/347 437/564/346
f 335/445/245 439/566/348 438/565/347
f 334/447/247 440/567/349 439/566/348
f 333/449/249 441/568/350 440/567/349
f 332/451/251 436/570/352 441/568/350
f 442/571/353 337/454/254 331/441/241
f 380/572/302 408/573/323 436/574/352
f 442/571/353 435/563/345 448/575/354
f 447/576/355 344/577/261 337/454/254
f 453/578/356 351/474/268 344/461/261
f 456/579/357 358/482/276 351/474/268
f 462/580/358 358/482/276 459/581/359
f 465/582/360 365/481/275 462/580/358
f 468/583/361 372/488/282 465/582/360
f 471/584/362 379/504/289 468/585/361
f 471/584/362 393/522/310 386/502/296
f 474/586/363 400/529/317 393/522/310
f 477/587/364 407/536/324 400/529/317
f 480/588/365 414/544/332 407/536/324
f 486/589/366 414/544/332 483/590/367
f 489/591/368 421/552/331 486/592/366
f 448/575/354 428/550/338 489/591/368
f 328/431/237 450/593/369 487/594/370
f 485/595/371 481/596/372 484/597/373
f 449/598/374 489/591/368 488/599/375
f 327/432/226 487/594/370 484/600/373
f 481/596/372 479/601/376 478/602/377
f 488/599/375 486/592/366 485/603/371
f 326/414/227 484/597/373 481/596/372
f 488/599/375 484/600/373 487/594/370
f 485/595/371 483/590/367 482/604/378
f 326/414/227 478/602/377 325/437/239
f 479/601/376 483/590/367 480/588/365
f 325/437/239 475/605/379 324/422/232
f 449/598/374 444/606/380 443/607/381
f 476/608/382 480/588/365 477/587/364
f 324/422/232 472/609/383 323/429/236
f 478/602/377 476/608/382 475/605/379
f 473/610/384 477/587/364 474/586/363
f 322/410/224 472/609/383 469/611/385
f 445/612/386 443/607/381 444/606/380
f 470/613/387 474/586/363 471/584/362
f 321/411/225 469/611/385 466/614/388
f 451/615/389 446/616/390 445/612/386
f 470/613/387 468/585/361 467/617/391
f 320/419/230 466/618/388 463/619/392
f 454/620/393 452/621/394 451/622/389
f 467/623/391 465/582/360 464/624/395
f 319/420/231 463/619/392 460/625/396
f 457/626/397 455/627/398 454/620/393
f 464/624/395 462/580/358 461/628/399
f 318/438/240 460/625/396 457/626/397
f 464/624/395 460/625/396 463/619/392
f 461/628/399 459/581/359 458/629/400
f 318/438/240 454/620/393 317/427/234
f 467/623/391 463/619/392 466/618/388
f 455/627/398 459/581/359 456/579/357
f 317/427/234 451/622/389 316/261/87
f 470/613/387 466/614/388 469/611/385
f 452/621/394 456/579/357 453/578/356
f 316/630/87 445/612/386 315/434/238
f 473/610/384 469/611/385 472/609/383
f 446/616/390 453/631/356 447/576/355
f 314/416/228 450/593/369 329/424/233
f 449/598/374 487/594/370 450/593/369
f 443/607/381 448/575/354 449/598/374
f 315/434/238 444/606/380 314/416/228
f 475/605/379 473/610/384 472/609/383
f 443/607/381 447/576/355 442/571/353
f 312/358/181 491/632/401 313/360/183
f 490/633/402 168/281/106 491/632/401
f 313/360/183 129/634/229 159/361/184
f 491/632/401 131/265/90 129/634/229
f 493/635/403 243/259/85 244/270/95
f 235/337/160 492/362/185 493/635/403
f 145/636/235 244/270/95 147/272/97
f 143/637/223 493/635/403 145/636/235
f 297/403/217 307/363/186 298/370/193
f 149/271/96 273/286/111 151/319/144
f 182/373/196 194/384/206 133/264/88
f 461/628/399 457/626/397 460/625/396
f 2/1/1 4/4/2 3/2/2
f 4/4/2 6/6/3 5/5/3
f 6/6/3 8/8/4 7/7/4
f 8/8/4 10/10/5 9/9/5
f 10/10/5 12/12/6 11/11/6
f 12/12/6 14/14/7 13/13/7
f 14/14/7 16/16/8 15/15/8
f 16/16/8 18/638/9 17/17/9
f 17/18/9 18/639/9 20/19/10
f 19/20/10 20/19/10 22/21/11
f 22/21/11 24/24/12 23/23/12
f 24/24/12 26/26/13 25/25/13
f 26/26/13 28/640/14 27/27/14
f 27/27/14 28/640/14 30/28/15
f 1/30/16 33/76/16 63/31/16
f 30/28/15 32/33/17 31/32/17
f 32/33/17 2/1/1 1/3/1
f 15/34/16 47/56/16 45/35/16
f 16/37/18 14/87/18 46/38/18
f 2/40/18 32/33/18 64/41/18
f 7/43/16 39/60/16 37/44/16
f 23/46/16 25/61/16 57/47/16
f 8/49/18 6/90/18 38/50/18
f 24/52/18 56/91/18 58/53/18
f 15/34/16 17/67/16 49/55/16
f 16/37/18 48/39/18 50/57/18
f 9/59/16 41/72/16 39/60/16
f 25/61/16 27/73/16 59/62/16
f 10/63/18 8/49/18 40/51/18
f 26/54/18 58/53/18 60/65/18
f 17/67/16 19/82/16 51/68/16
f 18/58/18 50/57/18 52/69/18
f 11/71/16 43/86/16 41/72/16
f 27/73/16 29/29/16 61/74/16
f 3/75/16 34/88/16 33/76/16
f 12/77/18 10/63/18 42/64/18
f 28/66/18 60/65/18 62/79/18
f 4/80/18 2/40/18 36/42/18
f 19/82/16 21/89/16 53/83/16
f 20/70/18 52/69/18 54/84/18
f 13/36/16 45/35/16 43/86/16
f 29/29/16 31/32/16 63/31/16
f 14/87/18 12/77/18 44/78/18
f 30/28/18 62/79/18 64/41/18
f 5/45/16 37/44/16 34/88/16
f 21/89/16 23/46/16 55/48/16
f 6/90/18 4/80/18 35/81/18
f 22/85/18 54/84/18 56/91/18
f 67/92/19 68/124/19 65/93/20
f 66/94/20 65/93/20 69/95/21
f 72/97/22 70/96/21 69/95/21
f 74/99/23 72/97/22 71/98/22
f 74/99/23 73/100/23 75/101/24
f 76/102/24 75/101/24 77/103/25
f 80/105/26 78/104/25 77/103/25
f 82/107/27 80/105/26 79/106/26
f 82/109/27 81/641/27 83/110/28
f 84/111/28 83/110/28 85/112/29
f 86/113/29 85/112/29 87/114/30
f 88/115/30 87/114/30 89/116/31
f 90/117/31 89/116/31 91/118/32
f 92/119/32 91/118/32 93/120/33
f 96/122/34 94/121/33 93/120/33
f 67/92/19 96/122/34 95/123/34
f 36/125/1 67/134/1 66/126/2
f 69/130/18 65/642/18 68/643/18
f 68/643/18 95/123/18 93/120/18
f 93/120/18 91/644/18 89/645/18
f 89/645/18 87/646/18 85/128/18
f 85/128/18 83/647/18 81/648/18
f 81/648/18 79/649/18 77/129/18
f 77/129/18 75/650/18 73/651/18
f 73/651/18 71/652/18 69/130/18
f 69/130/18 68/643/18 93/120/18
f 93/120/18 89/645/18 85/128/18
f 85/128/18 81/648/18 77/129/18
f 77/129/18 73/651/18 69/130/18
f 69/130/18 93/120/18 85/128/18
f 35/127/2 66/126/2 70/131/3
f 64/133/17 96/122/17 67/134/1
f 40/135/4 38/132/3 70/131/3
f 40/135/4 72/136/4 74/137/5
f 44/139/6 42/138/5 74/137/5
f 44/139/6 76/140/6 78/141/7
f 46/142/7 78/141/7 80/143/8
f 48/144/8 80/143/8 82/145/9
f 50/147/9 82/653/9 84/148/10
f 52/149/10 84/148/10 86/150/11
f 54/151/11 86/150/11 88/152/12
f 56/153/12 88/152/12 90/154/13
f 58/155/13 90/154/13 92/156/14
f 60/157/14 92/156/14 94/121/15
f 62/158/15 94/121/15 96/122/17
f 99/159/35 100/163/35 97/160/36
f 99/159/35 101/165/37 102/162/37
f 103/164/38 104/167/38 102/162/37
f 105/166/39 106/169/39 104/167/38
f 105/166/39 107/170/40 108/168/40
f 107/170/40 109/173/41 110/171/41
f 111/172/42 112/175/42 110/171/41
f 113/174/43 114/654/43 112/175/42
f 113/176/43 115/180/44 116/177/44
f 117/179/45 118/182/45 116/177/44
f 119/181/46 120/184/46 118/182/45
f 121/183/47 122/186/47 120/184/46
f 123/185/48 124/188/48 122/186/47
f 123/185/48 125/190/49 126/187/49
f 127/189/50 128/191/50 126/187/49
f 98/161/36 97/160/36 128/191/50
f 34/192/2 99/199/2 98/193/1
f 128/191/16 97/655/16 100/656/16
f 100/656/16 102/657/16 104/658/16
f 104/658/16 106/659/16 108/660/16
f 108/660/16 110/661/16 112/195/16
f 112/195/16 114/662/16 116/663/16
f 116/663/16 118/664/16 120/196/16
f 120/196/16 122/665/16 124/666/16
f 124/666/16 126/187/16 128/191/16
f 128/191/16 100/656/16 104/658/16
f 104/658/16 108/660/16 112/195/16
f 112/195/16 116/663/16 120/196/16
f 120/196/16 124/666/16 128/191/16
f 128/191/16 104/658/16 112/195/16
f 33/194/1 98/193/1 127/189/17
f 37/198/3 101/201/3 99/199/2
f 39/200/4 103/203/4 101/201/3
f 41/202/5 105/205/5 103/203/4
f 43/204/6 107/207/6 105/205/5
f 43/204/6 45/209/7 109/206/7
f 47/208/8 111/211/8 109/206/7
f 49/210/9 113/667/9 111/211/8
f 51/212/10 115/216/10 113/213/9
f 53/215/11 117/218/11 115/216/10
f 55/217/12 119/220/12 117/218/11
f 57/219/13 121/222/13 119/220/12
f 59/221/14 123/224/14 121/222/13
f 61/223/15 125/190/15 123/224/14
f 63/197/17 127/189/17 125/190/15
f 230/406/220 144/368/191 146/225/51
f 146/225/51 236/396/213 237/226/52
f 237/226/52 233/668/404 232/241/67
f 231/227/53 230/406/220 146/225/51
f 237/226/52 232/241/67 231/227/53
f 291/230/56 290/314/139 301/228/54
f 301/228/54 302/245/71 303/229/55
f 195/231/57 196/331/77 184/232/58
f 197/234/60 198/669/158 186/235/61
f 140/237/63 142/670/405 220/238/64
f 225/240/66 224/366/189 232/241/67
f 232/241/67 233/668/404 234/242/68
f 234/242/68 226/376/199 225/240/66
f 302/245/71 301/228/54 300/243/69
f 300/243/69 309/671/406 310/244/70
f 150/246/72 152/672/407 259/247/73
f 196/251/77 195/673/57 207/249/75
f 207/249/75 208/375/198 209/250/76
f 264/252/78 277/312/137 278/253/79
f 246/256/82 245/248/74 259/247/73
f 259/247/73 260/336/159 261/255/81
f 243/259/85 242/367/190 253/257/83
f 253/257/83 254/674/408 255/258/84
f 135/260/86 317/427/234 316/261/87
f 131/265/90 168/281/106 181/263/89
f 181/263/89 182/373/196 133/264/88
f 164/279/104 161/273/98 130/266/91
f 130/266/91 132/675/409 162/267/92
f 163/268/93 164/279/104 130/266/91
f 310/244/70 309/671/406 308/269/94
f 308/269/94 160/277/102 130/266/91
f 130/266/91 161/273/98 310/244/70
f 244/270/95 258/284/109 149/271/96
f 167/355/178 490/633/402 161/273/98
f 161/273/98 164/279/104 165/274/99
f 166/275/100 167/355/178 161/273/98
f 299/276/101 158/295/120 160/277/102
f 164/279/104 163/268/93 172/676/410
f 173/278/103 174/356/179 165/274/99
f 164/279/104 172/676/410 173/278/103
f 168/281/106 167/355/178 178/677/411
f 179/280/105 180/371/194 181/263/89
f 168/281/106 178/677/411 179/280/105
f 304/283/108 303/229/55 302/245/71
f 302/245/71 310/244/70 311/282/107
f 258/284/109 257/400/215 272/285/110
f 296/287/112 295/678/412 294/288/113
f 294/288/113 305/405/219 306/289/114
f 306/289/114 297/403/217 296/287/112
f 255/258/84 254/674/408 268/290/115
f 268/290/115 269/679/413 270/291/116
f 270/291/116 256/680/414 255/258/84
f 171/293/118 170/369/192 169/292/117
f 169/292/117 183/233/59 184/232/58
f 286/294/119 156/310/135 158/295/120
f 253/257/83 252/343/166 266/296/121
f 266/296/121 267/332/156 268/290/115
f 268/290/115 254/674/408 253/257/83
f 238/297/122 148/395/212 150/246/72
f 150/246/72 245/248/74 246/256/82
f 285/298/123 298/370/193 155/299/124
f 284/301/126 285/298/123 273/286/111
f 283/302/127 284/301/126 272/285/110
f 282/304/129 295/678/412 296/287/112
f 268/290/115 267/332/156 279/305/130
f 279/305/130 280/308/133 281/306/131
f 281/306/131 269/679/413 268/290/115
f 279/305/130 292/311/136 293/307/132
f 274/309/134 154/340/163 156/310/135
f 278/253/79 291/230/56 292/311/136
f 277/312/137 276/402/216 289/313/138
f 262/315/140 261/255/81 275/316/141
f 275/316/141 276/402/216 263/317/142
f 275/316/141 274/309/134 286/294/119
f 151/319/144 273/286/111 285/298/123
f 217/320/145 218/323/148 204/321/146
f 218/323/148 219/381/204 205/324/149
f 282/304/129 283/302/127 271/303/128
f 240/327/152 239/351/174 248/325/150
f 248/325/150 249/341/164 250/326/151
f 270/291/116 269/679/413 281/306/131
f 201/328/153 200/389/209 215/329/154
f 215/329/154 216/374/197 202/330/155
f 196/331/77 197/234/60 185/236/62
f 266/296/121 265/254/80 278/253/79
f 278/253/79 279/305/130 267/332/156
f 263/317/142 276/402/216 277/312/137
f 197/333/60 211/378/201 212/334/157
f 260/336/159 274/309/134 275/316/141
f 235/337/160 143/637/223 141/338/161
f 274/309/134 260/336/159 259/247/73
f 259/247/73 152/672/407 154/340/163
f 251/342/165 250/326/151 249/341/164
f 249/341/164 264/252/78 265/254/80
f 248/325/150 247/347/170 262/315/140
f 262/315/140 263/317/142 264/252/78
f 264/252/78 249/341/164 248/325/150
f 251/342/165 265/254/80 266/296/121
f 169/292/117 134/352/175 136/344/167
f 209/250/76 208/375/198 221/345/168
f 221/345/168 222/407/221 210/346/169
f 246/256/82 261/255/81 262/315/140
f 214/348/171 213/377/200 225/240/66
f 225/240/66 226/376/199 215/329/154
f 228/349/172 229/339/162 218/323/148
f 229/339/162 228/349/172 227/350/173
f 227/350/173 226/376/199 234/242/68
f 234/242/68 235/337/160 229/339/162
f 239/351/174 238/297/122 246/256/82
f 246/256/82 247/347/170 248/325/150
f 162/267/92 132/675/409 134/352/175
f 169/292/117 170/369/192 162/267/92
f 167/355/178 166/275/100 176/353/176
f 177/354/177 178/677/411 167/355/178
f 166/275/100 165/274/99 174/356/179
f 175/357/180 176/353/176 166/275/100
f 161/273/98 490/633/402 312/358/181
f 312/358/181 311/282/107 310/244/70
f 157/359/182 307/363/186 313/360/183
f 234/242/68 233/668/404 237/226/52
f 306/289/114 305/405/219 312/358/181
f 312/358/181 313/360/183 307/363/186
f 290/314/139 289/313/138 288/364/187
f 288/364/187 300/243/69 301/228/54
f 223/365/188 231/227/53 232/241/67
f 241/408/222 240/327/152 250/326/151
f 250/326/151 251/342/165 252/343/166
f 252/343/166 253/257/83 242/367/190
f 242/367/190 241/408/222 250/326/151
f 220/238/64 142/670/405 144/368/191
f 144/368/191 230/406/220 221/345/168
f 163/268/93 162/267/92 170/369/192
f 171/293/118 172/676/410 163/268/93
f 298/370/193 307/363/186 157/359/182
f 182/373/196 181/263/89 180/371/194
f 180/371/194 192/385/207 193/372/195
f 227/350/173 228/349/172 217/320/145
f 207/249/75 206/239/65 220/238/64
f 220/238/64 221/345/168 208/375/198
f 226/376/199 227/350/173 216/374/197
f 212/334/157 224/366/189 225/240/66
f 185/236/62 186/235/61 174/356/179
f 210/346/169 222/407/221 223/365/188
f 211/378/201 223/365/188 224/366/189
f 179/280/105 178/677/411 177/354/177
f 177/354/177 189/681/415 190/379/202
f 190/379/202 191/397/214 179/280/105
f 137/380/203 205/324/149 219/381/204
f 193/372/195 204/386/146 205/383/149
f 192/385/207 203/398/147 204/386/146
f 216/374/197 217/320/145 203/322/147
f 190/379/202 189/681/415 188/387/208
f 188/387/208 199/390/210 200/388/209
f 200/388/209 201/682/153 190/379/202
f 200/389/209 199/392/210 214/348/171
f 188/387/208 187/404/218 186/235/61
f 186/235/61 198/669/158 199/390/210
f 207/249/75 195/673/57 138/391/211
f 138/391/211 140/237/63 206/239/65
f 199/392/210 198/335/158 212/334/157
f 212/334/157 213/377/200 214/348/171
f 197/333/60 196/251/77 209/250/76
f 209/250/76 210/346/169 211/378/201
f 194/384/206 205/383/149 137/393/203
f 284/301/126 297/403/217 298/370/193
f 236/396/213 146/225/51 148/395/212
f 148/395/212 238/297/122 239/351/174
f 240/327/152 241/408/222 236/396/213
f 148/395/212 239/351/174 240/327/152
f 191/397/214 202/399/155 203/398/147
f 190/379/202 201/682/153 202/399/155
f 257/400/215 256/680/414 270/291/116
f 271/303/128 272/285/110 257/400/215
f 290/314/139 291/230/56 278/253/79
f 282/304/129 281/306/131 280/308/133
f 280/308/133 293/307/132 294/288/113
f 294/288/113 295/678/412 282/304/129
f 183/233/59 136/344/167 138/401/211
f 276/402/216 275/316/141 287/318/143
f 288/364/187 289/313/138 276/402/216
f 219/381/204 218/323/148 229/339/162
f 229/339/162 141/338/161 139/382/205
f 283/302/127 296/287/112 297/403/217
f 179/280/105 191/397/214 192/385/207
f 177/354/177 176/353/176 175/357/180
f 175/357/180 187/404/218 188/387/208
f 188/387/208 189/681/415 177/354/177
f 173/278/103 172/676/410 171/293/118
f 171/293/118 184/232/58 185/236/62
f 175/357/180 174/356/179 186/235/61
f 291/230/56 303/229/55 304/283/108
f 288/364/187 287/318/143 286/294/119
f 286/294/119 299/276/101 300/243/69
f 294/288/113 293/307/132 292/311/136
f 292/311/136 304/283/108 305/405/219
f 308/269/94 309/671/406 300/243/69
f 222/407/221 221/345/168 230/406/220
f 230/406/220 231/227/53 223/365/188
f 304/283/108 311/282/107 312/358/181
f 244/270/95 243/259/85 255/258/84
f 255/258/84 256/680/414 257/400/215
f 257/400/215 258/284/109 244/270/95
f 243/259/85 492/362/185 237/226/52
f 237/226/52 236/396/213 241/408/222
f 241/408/222 242/367/190 243/259/85
f 143/409/223 145/428/235 322/410/224
f 153/412/125 155/683/124 327/413/226
f 131/415/90 315/434/238 314/416/228
f 139/418/205 141/435/161 320/419/230
f 151/421/144 325/437/239 324/422/232
f 129/417/229 314/416/228 329/424/233
f 137/426/203 318/438/240 317/427/234
f 145/428/235 147/439/97 323/429/236
f 155/430/124 157/440/182 328/431/237
f 133/433/88 316/630/87 315/434/238
f 141/435/161 143/684/223 321/436/225
f 153/412/125 326/414/227 325/437/239
f 137/426/203 139/418/205 319/420/231
f 149/423/96 324/422/232 323/429/236
f 157/440/182 159/425/184 329/424/233
f 331/441/241 337/454/254 339/442/242
f 336/443/243 339/442/242 340/444/244
f 335/445/245 340/444/244 341/446/246
f 334/447/247 341/446/246 342/448/248
f 333/449/249 342/448/248 343/450/250
f 332/451/251 343/450/250 338/452/252
f 337/454/254 344/577/261 346/455/255
f 339/442/242 346/455/255 347/456/256
f 340/444/244 347/456/256 348/457/257
f 341/446/246 348/457/257 349/458/258
f 342/448/248 349/458/258 350/459/259
f 343/450/250 350/459/259 345/460/260
f 344/461/261 351/474/268 353/462/262
f 346/463/255 353/462/262 354/464/263
f 347/465/256 354/464/263 355/466/264
f 348/467/257 355/466/264 356/468/265
f 349/469/258 356/468/265 357/470/266
f 350/471/259 357/470/266 352/472/267
f 351/474/268 358/482/276 360/475/269
f 353/462/262 360/475/269 361/476/270
f 354/464/263 361/476/270 362/477/271
f 355/466/264 362/477/271 363/478/272
f 356/468/265 363/478/272 364/479/273
f 357/470/266 364/479/273 359/480/274
f 365/481/275 367/483/277 360/475/269
f 367/483/277 368/484/278 361/476/270
f 368/484/278 369/485/279 362/477/271
f 369/485/279 370/486/280 363/478/272
f 370/486/280 371/487/281 364/479/273
f 371/487/281 366/494/288 359/480/274
f 372/488/282 374/489/283 367/483/277
f 374/489/283 375/490/284 368/484/278
f 375/490/284 376/491/285 369/485/279
f 376/491/285 377/492/286 370/486/280
f 377/492/286 378/493/287 371/487/281
f 378/493/287 373/501/295 366/494/288
f 379/495/289 381/496/290 374/489/283
f 381/496/290 382/497/291 375/490/284
f 382/497/291 383/498/292 376/491/285
f 383/498/292 384/499/293 377/492/286
f 384/499/293 385/500/294 378/493/287
f 385/500/294 380/685/302 373/501/295
f 386/502/296 388/505/297 381/503/290
f 388/505/297 389/507/298 382/506/291
f 389/507/298 390/509/299 383/508/292
f 390/509/299 391/511/300 384/510/293
f 391/511/300 392/513/301 385/512/294
f 392/513/301 387/521/309 380/514/302
f 386/502/296 393/522/310 395/515/303
f 388/505/297 395/515/303 396/516/304
f 389/507/298 396/516/304 397/517/305
f 390/509/299 397/517/305 398/518/306
f 391/511/300 398/518/306 399/519/307
f 392/513/301 399/519/307 394/520/308
f 393/522/310 400/529/317 402/523/311
f 395/515/303 402/523/311 403/524/312
f 396/516/304 403/524/312 404/525/313
f 397/517/305 404/525/313 405/526/314
f 398/518/306 405/526/314 406/527/315
f 399/519/307 406/527/315 401/528/316
f 400/529/317 407/536/324 409/530/318
f 402/523/311 409/530/318 410/531/319
f 403/524/312 410/531/319 411/532/320
f 404/525/313 411/532/320 412/533/321
f 405/526/314 412/533/321 413/534/322
f 406/527/315 413/534/322 408/535/323
f 407/536/324 414/544/332 416/537/325
f 409/530/318 416/537/325 417/538/326
f 410/531/319 417/538/326 418/539/327
f 411/532/320 418/539/327 419/540/328
f 412/533/321 419/540/328 420/541/329
f 413/534/322 420/541/329 415/542/330
f 421/543/331 423/545/333 416/537/325
f 423/545/333 424/546/334 417/538/326
f 424/546/334 425/547/335 418/539/327
f 425/547/335 426/548/336 419/540/328
f 426/548/336 427/549/337 420/541/329
f 427/549/337 422/686/344 415/542/330
f 428/550/338 430/553/339 423/551/333
f 430/553/339 431/555/340 424/554/334
f 431/555/340 432/557/341 425/556/335
f 432/557/341 433/559/342 426/558/336
f 433/559/342 434/561/343 427/560/337
f 434/561/343 429/569/351 422/562/344
f 435/563/345 437/564/346 430/553/339
f 437/564/346 438/565/347 431/555/340
f 438/565/347 439/566/348 432/557/341
f 439/566/348 440/567/349 433/559/342
f 440/567/349 441/568/350 434/561/343
f 441/568/350 436/570/352 429/569/351
f 331/441/241 336/443/243 437/564/346
f 336/443/243 335/445/245 438/565/347
f 335/445/245 334/447/247 439/566/348
f 334/447/247 333/449/249 440/567/349
f 333/449/249 332/451/251 441/568/350
f 332/451/251 330/453/253 436/570/352
f 442/571/353 447/576/355 337/454/254
f 436/574/352 330/687/253 338/688/252
f 338/688/252 345/689/260 352/690/267
f 352/690/267 359/480/274 366/494/288
f 366/494/288 373/691/295 380/572/302
f 380/572/302 387/692/309 394/693/308
f 394/693/308 401/694/316 408/573/323
f 408/573/323 415/695/330 422/696/344
f 422/696/344 429/697/351 436/574/352
f 436/574/352 338/688/252 352/690/267
f 352/690/267 366/494/288 380/572/302
f 380/572/302 394/693/308 408/573/323
f 408/573/323 422/696/344 436/574/352
f 436/574/352 352/690/267 380/572/302
f 442/571/353 331/441/241 435/563/345
f 447/576/355 453/631/356 344/577/261
f 453/578/356 456/579/357 351/474/268
f 456/579/357 459/581/359 358/482/276
f 462/580/358 365/481/275 358/482/276
f 465/582/360 372/488/282 365/481/275
f 468/583/361 379/495/289 372/488/282
f 471/584/362 386/502/296 379/504/289
f 471/584/362 474/586/363 393/522/310
f 474/586/363 477/587/364 400/529/317
f 477/587/364 480/588/365 407/536/324
f 480/588/365 483/590/367 414/544/332
f 486/589/366 421/543/331 414/544/332
f 489/591/368 428/550/338 421/552/331
f 448/575/354 435/563/345 428/550/338
f 328/431/237 329/424/233 450/593/369
f 485/595/371 482/604/378 481/596/372
f 449/598/374 448/575/354 489/591/368
f 327/432/226 328/431/237 487/594/370
f 481/596/372 482/604/378 479/601/376
f 488/599/375 489/591/368 486/592/366
f 326/414/227 327/413/226 484/597/373
f 488/599/375 485/603/371 484/600/373
f 485/595/371 486/589/366 483/590/367
f 326/414/227 481/596/372 478/602/377
f 479/601/376 482/604/378 483/590/367
f 325/437/239 478/602/377 475/605/379
f 449/598/374 450/593/369 444/606/380
f 476/608/382 479/601/376 480/588/365
f 324/422/232 475/605/379 472/609/383
f 478/602/377 479/601/376 476/608/382
f 473/610/384 476/608/382 477/587/364
f 322/410/224 323/429/236 472/609/383
f 445/612/386 446/616/390 443/607/381
f 470/613/387 473/610/384 474/586/363
f 321/411/225 322/410/224 469/611/385
f 451/615/389 452/698/394 446/616/390
f 470/613/387 471/584/362 468/585/361
f 320/419/230 321/436/225 466/618/388
f 454/620/393 455/627/398 452/621/394
f 467/623/391 468/583/361 465/582/360
f 319/420/231 320/419/230 463/619/392
f 457/626/397 458/629/400 455/627/398
f 464/624/395 465/582/360 462/580/358
f 318/438/240 319/420/231 460/625/396
f 464/624/395 461/628/399 460/625/396
f 461/628/399 462/580/358 459/581/359
f 318/438/240 457/626/397 454/620/393
f 467/623/391 464/624/395 463/619/392
f 455/627/398 458/629/400 459/581/359
f 317/427/234 454/620/393 451/622/389
f 470/613/387 467/617/391 466/614/388
f 452/621/394 455/627/398 456/579/357
f 316/630/87 451/615/389 445/612/386
f 473/610/384 470/613/387 469/611/385
f 446/616/390 452/698/394 453/631/356
f 314/416/228 444/606/380 450/593/369
f 449/598/374 488/599/375 487/594/370
f 443/607/381 442/571/353 448/575/354
f 315/434/238 445/612/386 444/606/380
f 475/605/379 476/608/382 473/610/384
f 443/607/381 446/616/390 447/576/355
f 312/358/181 490/633/402 491/632/401
f 490/633/402 167/355/178 168/281/106
f 313/360/183 491/632/401 129/634/229
f 491/632/401 168/281/106 131/265/90
f 493/635/403 492/362/185 243/259/85
f 235/337/160 234/242/68 492/362/185
f 145/636/235 493/635/403 244/270/95
f 143/637/223 235/337/160 493/635/403
f 297/403/217 306/289/114 307/363/186
f 149/271/96 258/284/109 273/286/111
f 182/373/196 193/372/195 194/384/206
f 461/628/399 458/629/400 457/626/397
