# Blender 5.0.1
# www.blender.org
mtllib knife_switch.mtl
o KnifeHandleExport
g knife_switch
v -0.014696 -0.210401 0.049998
v -0.014696 -0.180519 0.049998
v -0.014696 -0.210401 -0.050002
v -0.014696 -0.180519 -0.050002
v 0.014695 -0.210401 0.049998
v 0.014695 -0.180519 0.049998
v 0.014695 -0.210401 -0.050002
v 0.014695 -0.180519 -0.050002
v 0.012207 -0.180519 -0.040068
v 0.012207 -0.180519 -0.024707
v 0.012207 -0.180519 0.024703
v 0.012207 -0.180519 0.040064
v -0.012208 -0.180519 -0.040068
v -0.012208 -0.180519 -0.024707
v -0.012208 -0.180519 0.024703
v -0.012208 -0.180519 0.040064
v 0.002208 0.009995 -0.040068
v 0.012208 -0.000000 -0.040068
v 0.007208 0.008656 -0.040068
v 0.010868 0.004995 -0.040068
v 0.012208 -0.000000 -0.024705
v 0.002208 0.009995 -0.024707
v 0.010868 0.004995 -0.024705
v 0.007208 0.008656 -0.024707
v 0.002208 0.009995 0.024703
v 0.012208 -0.000005 0.024705
v 0.007208 0.008656 0.024703
v 0.010868 0.004995 0.024705
v 0.012208 -0.000005 0.040064
v 0.002208 0.009995 0.040064
v 0.010868 0.004995 0.040064
v 0.007208 0.008656 0.040064
v -0.012208 -0.000005 -0.040068
v -0.002208 0.009995 -0.040068
v -0.010868 0.004995 -0.040068
v -0.007208 0.008656 -0.040068
v -0.002208 0.009995 -0.024707
v -0.012208 -0.000005 -0.024707
v -0.007208 0.008656 -0.024707
v -0.010868 0.004995 -0.024707
v -0.012208 -0.000005 0.024703
v -0.002208 0.009995 0.024703
v -0.010868 0.004995 0.024703
v -0.007208 0.008656 0.024703
v -0.002208 0.009995 0.040064
v -0.012208 -0.000005 0.040064
v -0.007208 0.008656 0.040064
v -0.010868 0.004995 0.040064
v -0.000000 -0.210409 -0.020000
v 0.007654 -0.210409 -0.018478
v 0.014142 -0.210409 -0.014142
v 0.018477 -0.210409 -0.007654
v 0.020000 -0.210409 0.000000
v 0.018477 -0.210409 0.007654
v 0.014142 -0.210409 0.014142
v 0.007654 -0.210409 0.018478
v -0.000000 -0.210409 0.020000
v -0.007654 -0.210409 0.018478
v -0.014142 -0.210409 0.014142
v -0.018478 -0.210409 0.007654
v -0.020000 -0.210409 0.000000
v -0.018478 -0.210409 -0.007654
v -0.014142 -0.210409 -0.014142
v -0.007654 -0.210409 -0.018478
v -0.000000 -0.214970 -0.020000
v 0.007654 -0.214970 -0.018478
v 0.014142 -0.214970 -0.014142
v 0.018477 -0.214970 -0.007654
v 0.020000 -0.214970 0.000000
v 0.018477 -0.214970 0.007654
v 0.014142 -0.214970 0.014142
v 0.007654 -0.214970 0.018478
v -0.000000 -0.214970 0.020000
v -0.007654 -0.214970 0.018478
v -0.014142 -0.214970 0.014142
v -0.018478 -0.214970 0.007654
v -0.020000 -0.214970 0.000000
v -0.018478 -0.214970 -0.007654
v -0.014142 -0.214970 -0.014142
v -0.007654 -0.214970 -0.018478
v 0.003827 -0.218559 -0.009239
v 0.007071 -0.218559 -0.007071
v 0.009239 -0.218559 -0.003827
v 0.010000 -0.218559 0.000000
v 0.009239 -0.218559 0.003827
v 0.007071 -0.218559 0.007071
v 0.003827 -0.218559 0.009239
v -0.000000 -0.218559 0.010000
v -0.003827 -0.218559 0.009239
v -0.007071 -0.218559 0.007071
v -0.009239 -0.218559 0.003827
v -0.010000 -0.218559 0.000000
v -0.009239 -0.218559 -0.003827
v -0.007071 -0.218559 -0.007071
v -0.003827 -0.218559 -0.009239
v -0.000000 -0.218559 -0.010000
v -0.000000 -0.310409 -0.009804
v -0.000000 -0.300466 -0.018917
v -0.000000 -0.309077 -0.014757
v -0.000000 -0.305437 -0.018093
v 0.003752 -0.310409 -0.009058
v 0.007239 -0.300466 -0.017477
v 0.005647 -0.309077 -0.013634
v 0.006924 -0.305437 -0.016715
v 0.006932 -0.310409 -0.006933
v 0.013376 -0.300466 -0.013377
v 0.010435 -0.309077 -0.010435
v 0.012793 -0.305437 -0.012793
v 0.009058 -0.310409 -0.003752
v 0.017477 -0.300466 -0.007239
v 0.013633 -0.309077 -0.005647
v 0.016715 -0.305437 -0.006924
v 0.009804 -0.310409 0.000000
v 0.018917 -0.300466 0.000000
v 0.014757 -0.309077 0.000000
v 0.018093 -0.305437 0.000000
v 0.009058 -0.310409 0.003752
v 0.017477 -0.300466 0.007239
v 0.013633 -0.309077 0.005647
v 0.016715 -0.305437 0.006924
v 0.006932 -0.310409 0.006933
v 0.013376 -0.300466 0.013377
v 0.010435 -0.309077 0.010435
v 0.012793 -0.305437 0.012793
v 0.003752 -0.310409 0.009058
v 0.007239 -0.300466 0.017477
v 0.005647 -0.309077 0.013634
v 0.006924 -0.305437 0.016715
v -0.000000 -0.310409 0.009804
v -0.000000 -0.300466 0.018917
v -0.000000 -0.309077 0.014757
v -0.000000 -0.305437 0.018093
v -0.003752 -0.310409 0.009058
v -0.007240 -0.300466 0.017477
v -0.005647 -0.309077 0.013634
v -0.006924 -0.305437 0.016715
v -0.006933 -0.310409 0.006933
v -0.013377 -0.300466 0.013377
v -0.010435 -0.309077 0.010435
v -0.012794 -0.305437 0.012793
v -0.009058 -0.310409 0.003752
v -0.017478 -0.300466 0.007239
v -0.013634 -0.309077 0.005647
v -0.016716 -0.305437 0.006924
v -0.009804 -0.310409 0.000000
v -0.018918 -0.300466 0.000000
v -0.014757 -0.309077 0.000000
v -0.018093 -0.305437 0.000000
v -0.009058 -0.310409 -0.003752
v -0.017478 -0.300466 -0.007239
v -0.013634 -0.309077 -0.005647
v -0.016716 -0.305437 -0.006924
v -0.006933 -0.310409 -0.006933
v -0.013377 -0.300466 -0.013377
v -0.010435 -0.309077 -0.010435
v -0.012794 -0.305437 -0.012793
v -0.003752 -0.310409 -0.009058
v -0.007240 -0.300466 -0.017477
v -0.005647 -0.309077 -0.013634
v -0.006924 -0.305437 -0.016715
vn -1.0000 -0.0000 -0.0000
vn -0.0000 -0.0000 -1.0000
vn 1.0000 -0.0000 -0.0000
vn -0.0000 -0.0000 1.0000
vn -0.0000 -1.0000 -0.0000
vn -0.0000 1.0000 -0.0000
vn 0.1305 0.9914 -0.0000
vn 0.5000 0.8660 -0.0000
vn 0.8660 0.5001 -0.0000
vn 0.9914 0.1306 -0.0000
vn 0.9914 0.1305 -0.0000
vn -0.9914 0.1305 -0.0000
vn -0.8660 0.5000 -0.0000
vn -0.5000 0.8660 -0.0000
vn -0.1305 0.9914 -0.0000
vn -0.0000 0.0001 1.0000
vn -0.0001 0.0001 1.0000
vn -0.0001 -0.0000 1.0000
vn 0.0001 -0.0001 -1.0000
vn 0.0001 -0.0000 -1.0000
vn 0.3827 -0.0000 -0.9239
vn 0.7071 -0.0000 -0.7071
vn 0.9239 -0.0000 -0.3827
vn 0.9239 -0.0000 0.3827
vn 0.7071 -0.0000 0.7071
vn 0.3827 -0.0000 0.9239
vn -0.3827 -0.0000 0.9239
vn -0.7071 -0.0000 0.7071
vn -0.9239 -0.0000 0.3827
vn -0.9239 -0.0000 -0.3827
vn -0.7071 -0.0000 -0.7071
vn -0.3827 -0.0000 -0.9239
vn -0.1293 -0.9412 -0.3121
vn -0.0000 -0.9412 -0.3378
vn -0.2389 -0.9412 -0.2389
vn -0.3121 -0.9412 -0.1293
vn -0.3378 -0.9412 -0.0000
vn -0.3121 -0.9412 0.1293
vn -0.2389 -0.9412 0.2389
vn -0.1293 -0.9412 0.3121
vn -0.0000 -0.9412 0.3378
vn 0.1293 -0.9412 0.3121
vn 0.2389 -0.9412 0.2389
vn 0.3121 -0.9412 0.1293
vn 0.3378 -0.9412 -0.0000
vn 0.3121 -0.9412 -0.1293
vn 0.2389 -0.9412 -0.2389
vn 0.1293 -0.9412 -0.3121
vn 0.3825 -0.0275 -0.9235
vn -0.0000 -0.4244 -0.9055
vn -0.0000 -0.0275 -0.9996
vn 0.3465 -0.4244 -0.8365
vn -0.0000 -0.8393 -0.5437
vn 0.2081 -0.8393 -0.5023
vn -0.0000 -0.9891 -0.1470
vn 0.6403 -0.4244 -0.6403
vn 0.3845 -0.8393 -0.3845
vn 0.1039 -0.9891 -0.1040
vn 0.0563 -0.9891 -0.1358
vn 0.7068 -0.0275 -0.7068
vn 0.8365 -0.4244 -0.3465
vn 0.5023 -0.8393 -0.2081
vn 0.1358 -0.9891 -0.0563
vn 0.9235 -0.0275 -0.3825
vn 0.9055 -0.4244 -0.0000
vn 0.5437 -0.8393 -0.0000
vn 0.1470 -0.9891 -0.0000
vn 0.9996 -0.0275 -0.0000
vn 0.8365 -0.4244 0.3465
vn 0.5023 -0.8393 0.2081
vn 0.9235 -0.0275 0.3825
vn 0.6403 -0.4244 0.6403
vn 0.3844 -0.8393 0.3844
vn 0.1358 -0.9891 0.0563
vn 0.7068 -0.0275 0.7068
vn 0.3465 -0.4244 0.8365
vn 0.2081 -0.8393 0.5023
vn 0.0563 -0.9891 0.1358
vn 0.1040 -0.9891 0.1040
vn 0.3825 -0.0275 0.9235
vn -0.0000 -0.4244 0.9055
vn -0.0000 -0.8393 0.5437
vn -0.3825 -0.0275 0.9235
vn -0.0000 -0.0275 0.9996
vn -0.3465 -0.4244 0.8365
vn -0.2081 -0.8393 0.5023
vn -0.0000 -0.9891 0.1470
vn -0.7068 -0.0275 0.7068
vn -0.6403 -0.4244 0.6403
vn -0.3845 -0.8393 0.3845
vn -0.0563 -0.9891 0.1358
vn -0.9235 -0.0275 0.3825
vn -0.8365 -0.4244 0.3465
vn -0.5023 -0.8393 0.2081
vn -0.1039 -0.9891 0.1040
vn -0.9996 -0.0275 -0.0000
vn -0.9055 -0.4244 -0.0000
vn -0.5437 -0.8393 -0.0000
vn -0.1358 -0.9891 0.0563
vn -0.9235 -0.0275 -0.3825
vn -0.8365 -0.4244 -0.3465
vn -0.5023 -0.8393 -0.2081
vn -0.1470 -0.9891 -0.0000
vn -0.7068 -0.0275 -0.7068
vn -0.6403 -0.4244 -0.6403
vn -0.3844 -0.8393 -0.3845
vn -0.1358 -0.9891 -0.0563
vn -0.3825 -0.0275 -0.9235
vn -0.3465 -0.4244 -0.8365
vn -0.2081 -0.8393 -0.5023
vn -0.1040 -0.9891 -0.1040
vn -0.0563 -0.9891 -0.1358
vn -0.0000 0.1082 -0.9941
vn -0.3804 0.1082 -0.9185
vn 0.3804 0.1082 -0.9185
vn 0.7030 0.1082 -0.7030
vn 0.9185 0.1082 -0.3804
vn 0.9941 0.1082 -0.0000
vn 0.9185 0.1082 0.3804
vn 0.7030 0.1082 0.7030
vn 0.3804 0.1082 0.9185
vn -0.0000 0.1082 0.9941
vn -0.3804 0.1082 0.9185
vn -0.9185 0.1082 0.3804
vn -0.9941 0.1082 -0.0000
vn -0.7030 0.1082 -0.7030
vn 0.8660 0.5000 -0.0000
vn 0.0002 0.0007 1.0000
vn -0.0000 0.0003 1.0000
vn 0.0007 0.0002 -1.0000
vn -0.7030 0.1082 0.7030
vn -0.9185 0.1082 -0.3804
vt 0.234214 0.847255
vt 0.410948 0.900066
vt 0.234214 0.900066
vt 0.410948 0.847255
vt 0.463758 0.795310
vt 0.463758 0.847255
vt 0.410948 0.795310
vt 0.234214 0.742499
vt 0.410948 0.742499
vt 0.234214 0.795310
vt 0.181403 0.847255
vt 0.181403 0.795310
vt 0.410948 0.952011
vt 0.278919 0.842858
vt 0.366242 0.842858
vt 0.366242 0.799708
vt 0.278919 0.799708
vt 0.251771 0.842858
vt 0.251771 0.799708
vt 0.393390 0.842858
vt 0.393390 0.799708
vt 0.577461 0.350400
vt 0.549458 0.344359
vt 0.576434 0.341310
vt 0.575406 0.332219
vt 0.548427 0.335269
vt 0.574379 0.323137
vt 0.623970 0.353450
vt 0.649919 0.341310
vt 0.650946 0.350401
vt 0.622943 0.344359
vt 0.648888 0.332220
vt 0.620888 0.326178
vt 0.647860 0.323129
vt 0.554445 0.388476
vt 0.580393 0.376336
vt 0.581421 0.385426
vt 0.553417 0.379385
vt 0.579365 0.367245
vt 0.551362 0.361204
vt 0.578338 0.358154
vt 0.627929 0.388476
vt 0.653878 0.376336
vt 0.654905 0.385427
vt 0.626902 0.379385
vt 0.652850 0.367246
vt 0.625874 0.370295
vt 0.651823 0.358155
vt 0.550485 0.353450
vt 0.615896 0.327329
vt 0.584878 0.337345
vt 0.511572 0.009165
vt 0.547400 0.326186
vt 0.512927 0.384276
vt 0.543945 0.374260
vt 0.585051 0.009167
vt 0.689379 0.327329
vt 0.658361 0.337345
vt 0.586412 0.384275
vt 0.617429 0.374260
vt 0.590280 0.705487
vt 0.617256 0.702438
vt 0.663761 0.705488
vt 0.690737 0.702439
vt 0.813125 0.232814
vt 0.817306 0.242035
vt 0.810384 0.237537
vt 0.819897 0.238293
vt 0.823247 0.245760
vt 0.825203 0.242534
vt 0.828783 0.248403
vt 0.830045 0.245257
vt 0.834467 0.250058
vt 0.835203 0.246669
vt 0.840667 0.251088
vt 0.841182 0.247297
vt 0.847492 0.252015
vt 0.848136 0.247859
vt 0.854769 0.253401
vt 0.855791 0.249090
vt 0.862167 0.255831
vt 0.750141 0.220600
vt 0.756847 0.225757
vt 0.749556 0.224955
vt 0.757592 0.221600
vt 0.763834 0.227341
vt 0.764775 0.223306
vt 0.770591 0.229055
vt 0.771457 0.225110
vt 0.777365 0.230454
vt 0.777960 0.226374
vt 0.784600 0.231410
vt 0.784961 0.226854
vt 0.792748 0.232237
vt 0.863832 0.228034
vt 0.828310 0.232163
vt 0.793266 0.226848
vt 0.801878 0.233815
vt 0.803712 0.227373
vt 0.804587 0.250666
vt 0.797039 0.248252
vt 0.789379 0.246044
vt 0.781847 0.244044
vt 0.774598 0.242124
vt 0.767697 0.240184
vt 0.761189 0.238199
vt 0.755165 0.236192
vt 0.749788 0.234133
vt 0.851916 0.264074
vt 0.857781 0.264850
vt 0.845631 0.263035
vt 0.839115 0.261783
vt 0.832498 0.260252
vt 0.825805 0.258363
vt 0.818984 0.256082
vt 0.811937 0.253464
vt 0.773116 0.411534
vt 0.758155 0.416819
vt 0.760813 0.408067
vt 0.770846 0.420516
vt 0.755194 0.426389
vt 0.768128 0.430647
vt 0.750713 0.439629
vt 0.783681 0.423288
vt 0.781613 0.433165
vt 0.778797 0.446845
vt 0.764397 0.445162
vt 0.785515 0.414402
vt 0.796360 0.425515
vt 0.794618 0.435106
vt 0.792304 0.448178
vt 0.797919 0.416791
vt 0.808847 0.427462
vt 0.807141 0.436734
vt 0.805146 0.449308
vt 0.810331 0.418872
vt 0.821322 0.429478
vt 0.819465 0.438851
vt 0.822864 0.420817
vt 0.833933 0.431533
vt 0.831720 0.440891
vt 0.817160 0.451077
vt 0.835702 0.422680
vt 0.847000 0.434102
vt 0.843894 0.443937
vt 0.839106 0.455346
vt 0.828563 0.452744
vt 0.849171 0.424537
vt 0.861574 0.438081
vt 0.856157 0.449304
vt 0.677218 0.375976
vt 0.659792 0.381439
vt 0.663813 0.370005
vt 0.674336 0.385303
vt 0.658893 0.393604
vt 0.672146 0.395240
vt 0.660472 0.406551
vt 0.689723 0.381100
vt 0.686841 0.389522
vt 0.684009 0.398589
vt 0.670565 0.407365
vt 0.701654 0.385981
vt 0.698602 0.394089
vt 0.695462 0.402868
vt 0.680903 0.410312
vt 0.713341 0.390743
vt 0.710186 0.398793
vt 0.706845 0.407556
vt 0.691537 0.414480
vt 0.724996 0.395402
vt 0.721818 0.403548
vt 0.718391 0.412459
vt 0.702498 0.419288
vt 0.736754 0.399910
vt 0.733646 0.408264
vt 0.730265 0.417527
vt 0.713800 0.424433
vt 0.748692 0.404155
vt 0.745782 0.412689
vt 0.742646 0.422127
vt 0.725420 0.429760
vt 0.737703 0.434683
vt 0.857852 0.486928
vt 0.826270 0.505675
vt 0.863832 0.426115
vt 0.234214 0.952011
vt 0.621915 0.335269
vt 0.552389 0.370295
vt 0.624847 0.361204
vt 0.538548 0.006116
vt 0.581425 0.001270
vt 0.617256 0.318282
vt 0.610194 0.334484
vt 0.601679 0.337829
vt 0.593925 0.338705
vt 0.577724 0.331643
vt 0.547403 0.710334
vt 0.511566 0.393315
vt 0.518629 0.377121
vt 0.527144 0.373776
vt 0.534898 0.372899
vt 0.551099 0.379961
vt 0.612027 0.006117
vt 0.654905 0.001270
vt 0.690739 0.318282
vt 0.683677 0.334483
vt 0.675162 0.337829
vt 0.667408 0.338705
vt 0.651206 0.331644
vt 0.620883 0.710334
vt 0.585051 0.393322
vt 0.592113 0.377121
vt 0.600628 0.373776
vt 0.608383 0.372899
vt 0.624584 0.379961
vt 0.863481 0.251337
vt 0.828872 0.225209
vt 0.832052 0.219000
vt 0.837367 0.214480
vt 0.844006 0.212338
vt 0.850960 0.212899
vt 0.857170 0.216080
vt 0.861690 0.221394
vt 0.863270 0.234988
vt 0.860090 0.241197
vt 0.854775 0.245717
vt 0.834972 0.244117
vt 0.830452 0.238803
vt 0.848247 0.459718
vt 0.817128 0.501303
vt 0.810356 0.493766
vt 0.806983 0.484211
vt 0.807524 0.474092
vt 0.811895 0.464951
vt 0.819432 0.458178
vt 0.828987 0.454805
vt 0.855020 0.467255
vt 0.858393 0.476810
vt 0.853480 0.496070
vt 0.845943 0.502842
vt 0.836388 0.506215
s 1
usemtl HandleSurface
f 2/1/1 3/2/1 1/3/1
f 4/4/2 7/5/2 3/6/2
f 8/7/3 5/8/3 7/9/3
f 6/10/4 1/11/4 5/12/4
f 7/13/5 1/3/5 3/2/5
f 2/1/6 15/14/6 14/15/6
f 10/16/6 11/17/6 6/10/6
f 16/18/6 6/10/6 12/19/6
f 8/7/6 13/20/6 9/21/6
f 14/15/6 11/17/6 10/16/6
f 17/22/7 24/23/8 19/24/8
f 24/23/8 20/25/9 19/24/8
f 23/26/9 18/27/10 20/25/9
f 30/28/7 27/29/8 25/30/7
f 32/31/8 28/32/9 27/29/8
f 28/32/9 29/33/11 26/34/10
f 38/35/12 35/36/13 33/37/12
f 40/38/13 36/39/14 35/36/13
f 36/39/14 37/40/15 34/41/15
f 46/42/12 43/43/13 41/44/12
f 48/45/13 44/46/14 43/43/13
f 47/47/14 42/48/15 44/46/14
f 34/41/15 22/49/7 17/22/7
f 35/50/2 19/51/2 18/27/2
f 10/52/3 18/27/10 21/53/10
f 23/54/16 39/55/17 38/35/18
f 12/56/3 26/34/10 29/33/11
f 42/48/15 30/28/7 25/30/7
f 43/57/2 27/58/19 26/34/20
f 31/59/4 47/60/4 46/42/4
f 14/61/1 33/37/12 13/62/1
f 16/63/1 41/44/12 15/64/1
f 49/65/2 66/66/21 65/67/2
f 50/68/21 67/69/22 66/66/21
f 51/70/22 68/71/23 67/69/22
f 52/72/23 69/73/3 68/71/23
f 53/74/3 70/75/24 69/73/3
f 54/76/24 71/77/25 70/75/24
f 55/78/25 72/79/26 71/77/25
f 56/80/26 73/81/4 72/79/26
f 57/82/4 74/83/27 73/84/4
f 58/85/27 75/86/28 74/83/27
f 59/87/28 76/88/29 75/86/28
f 60/89/29 77/90/1 76/88/29
f 61/91/1 78/92/30 77/90/1
f 62/93/30 79/94/31 78/92/30
f 59/95/6 55/78/6 51/96/6
f 63/97/31 80/98/32 79/94/31
f 64/99/32 65/67/2 80/98/32
f 80/98/33 96/100/34 95/101/33
f 79/94/35 95/101/33 94/102/35
f 78/92/36 94/102/35 93/103/36
f 77/90/37 93/103/36 92/104/37
f 76/88/38 92/104/37 91/105/38
f 75/86/39 91/105/38 90/106/39
f 74/83/40 90/106/39 89/107/40
f 88/108/41 74/83/40 89/107/40
f 87/109/42 73/81/41 88/110/41
f 86/111/43 72/79/42 87/109/42
f 85/112/44 71/77/43 86/111/43
f 84/113/45 70/75/44 85/112/44
f 83/114/46 69/73/45 84/113/45
f 82/115/47 68/71/46 83/114/46
f 81/116/48 67/69/47 82/115/47
f 96/100/34 66/66/48 81/116/48
f 102/117/49 100/118/50 98/119/51
f 104/120/52 99/121/53 100/118/50
f 103/122/54 97/123/55 99/121/53
f 102/117/49 108/124/56 104/120/52
f 104/120/52 107/125/57 103/122/54
f 103/122/54 105/126/58 101/127/59
f 106/128/60 112/129/61 108/124/56
f 108/124/56 111/130/62 107/125/57
f 107/125/57 109/131/63 105/126/58
f 110/132/64 116/133/65 112/129/61
f 112/129/61 115/134/66 111/130/62
f 111/130/62 113/135/67 109/131/63
f 114/136/68 120/137/69 116/133/65
f 116/133/65 119/138/70 115/134/66
f 119/138/70 113/135/67 115/134/66
f 118/139/71 124/140/72 120/137/69
f 120/137/69 123/141/73 119/138/70
f 123/141/73 117/142/74 119/138/70
f 122/143/75 128/144/76 124/140/72
f 124/140/72 127/145/77 123/141/73
f 123/141/73 125/146/78 121/147/79
f 126/148/80 132/149/81 128/144/76
f 128/144/76 131/150/82 127/145/77
f 131/150/82 125/146/78 127/145/77
f 134/151/83 132/152/81 130/153/84
f 136/154/85 131/155/82 132/152/81
f 135/156/86 129/157/87 131/155/82
f 138/158/88 136/154/85 134/151/83
f 140/159/89 135/156/86 136/154/85
f 139/160/90 133/161/91 135/156/86
f 142/162/92 140/159/89 138/158/88
f 144/163/93 139/160/90 140/159/89
f 143/164/94 137/165/95 139/160/90
f 146/166/96 144/163/93 142/162/92
f 148/167/97 143/164/94 144/163/93
f 147/168/98 141/169/99 143/164/94
f 150/170/100 148/167/97 146/166/96
f 152/171/101 147/168/98 148/167/97
f 151/172/102 145/173/103 147/168/98
f 154/174/104 152/171/101 150/170/100
f 156/175/105 151/172/102 152/171/101
f 155/176/106 149/177/107 151/172/102
f 158/178/108 156/175/105 154/174/104
f 160/179/109 155/176/106 156/175/105
f 159/180/110 153/181/111 155/176/106
f 98/119/51 160/179/109 158/178/108
f 100/118/50 159/180/110 160/179/109
f 99/121/53 157/182/112 159/180/110
f 96/100/113 102/117/49 98/119/51
f 125/146/78 141/183/99 157/184/112
f 95/101/114 98/119/51 158/178/108
f 81/116/115 106/128/60 102/117/49
f 82/115/116 110/132/64 106/128/60
f 83/114/117 114/136/68 110/132/64
f 84/113/118 118/139/71 114/136/68
f 85/112/119 122/143/75 118/139/71
f 86/111/120 126/148/80 122/143/75
f 87/109/121 130/185/84 126/148/80
f 88/108/122 134/151/83 130/153/84
f 89/107/123 138/158/88 134/151/83
f 138/158/88 91/105/124 142/162/92
f 91/105/124 146/166/96 142/162/92
f 92/104/125 150/170/100 146/166/96
f 150/170/100 94/102/126 154/174/104
f 154/174/104 95/101/114 158/178/108
f 2/1/1 4/4/1 3/2/1
f 4/4/2 8/7/2 7/5/2
f 8/7/3 6/10/3 5/8/3
f 6/10/4 2/1/4 1/11/4
f 7/13/5 5/186/5 1/3/5
f 13/20/6 4/4/6 2/1/6
f 2/1/6 16/18/6 15/14/6
f 14/15/6 13/20/6 2/1/6
f 6/10/6 8/7/6 9/21/6
f 6/10/6 9/21/6 10/16/6
f 11/17/6 12/19/6 6/10/6
f 16/18/6 2/1/6 6/10/6
f 8/7/6 4/4/6 13/20/6
f 14/15/6 15/14/6 11/17/6
f 17/22/7 22/49/7 24/23/8
f 24/23/8 23/26/9 20/25/9
f 23/26/9 21/53/10 18/27/10
f 30/28/7 32/31/8 27/29/8
f 32/31/8 31/187/127 28/32/9
f 28/32/9 31/187/127 29/33/11
f 38/35/12 40/38/13 35/36/13
f 40/38/13 39/188/14 36/39/14
f 36/39/14 39/188/14 37/40/15
f 46/42/12 48/45/13 43/43/13
f 48/45/13 47/47/14 44/46/14
f 47/47/14 45/189/15 42/48/15
f 34/41/15 37/40/15 22/49/7
f 18/27/2 9/190/2 13/191/2
f 13/191/2 33/192/2 35/50/2
f 35/50/2 36/193/2 34/194/2
f 34/194/2 17/195/2 19/51/2
f 19/51/2 20/196/2 18/27/2
f 18/27/2 13/191/2 35/50/2
f 35/50/2 34/194/2 19/51/2
f 10/52/3 9/190/3 18/27/10
f 38/35/18 14/61/4 10/197/4
f 10/197/4 21/198/4 23/54/16
f 23/54/16 24/199/128 22/200/129
f 22/200/129 37/201/4 39/55/17
f 39/55/17 40/202/4 38/35/18
f 38/35/18 10/197/4 23/54/16
f 23/54/16 22/200/129 39/55/17
f 12/56/3 11/203/3 26/34/10
f 42/48/15 45/189/15 30/28/7
f 26/34/20 11/203/2 15/204/2
f 15/204/2 41/205/2 43/57/2
f 43/57/2 44/206/2 42/207/2
f 42/207/2 25/208/2 27/58/19
f 27/58/19 28/209/130 26/34/20
f 26/34/20 15/204/2 43/57/2
f 43/57/2 42/207/2 27/58/19
f 46/42/4 16/63/4 12/210/4
f 12/210/4 29/211/4 31/59/4
f 31/59/4 32/212/4 30/213/4
f 30/213/4 45/214/4 47/60/4
f 47/60/4 48/215/4 46/42/4
f 46/42/4 12/210/4 31/59/4
f 31/59/4 30/213/4 47/60/4
f 14/61/1 38/35/12 33/37/12
f 16/63/1 46/42/12 41/44/12
f 49/65/2 50/68/21 66/66/21
f 50/68/21 51/70/22 67/69/22
f 51/70/22 52/72/23 68/71/23
f 52/72/23 53/74/3 69/73/3
f 53/74/3 54/76/24 70/75/24
f 54/76/24 55/78/25 71/77/25
f 55/78/25 56/80/26 72/79/26
f 56/80/26 57/216/4 73/81/4
f 57/82/4 58/85/27 74/83/27
f 58/85/27 59/87/28 75/86/28
f 59/87/28 60/89/29 76/88/29
f 60/89/29 61/91/1 77/90/1
f 61/91/1 62/93/30 78/92/30
f 62/93/30 63/97/31 79/94/31
f 51/96/6 50/217/6 49/218/6
f 49/218/6 64/219/6 63/220/6
f 63/220/6 62/221/6 61/222/6
f 61/222/6 60/223/6 59/95/6
f 59/95/6 58/224/6 57/225/6
f 57/225/6 56/226/6 55/78/6
f 55/78/6 54/76/6 53/227/6
f 53/227/6 52/228/6 51/96/6
f 51/96/6 49/218/6 63/220/6
f 63/220/6 61/222/6 59/95/6
f 59/95/6 57/225/6 55/78/6
f 55/78/6 53/227/6 51/96/6
f 51/96/6 63/220/6 59/95/6
f 63/97/31 64/99/32 80/98/32
f 64/99/32 49/65/2 65/67/2
f 80/98/33 65/67/34 96/100/34
f 79/94/35 80/98/33 95/101/33
f 78/92/36 79/94/35 94/102/35
f 77/90/37 78/92/36 93/103/36
f 76/88/38 77/90/37 92/104/37
f 75/86/39 76/88/38 91/105/38
f 74/83/40 75/86/39 90/106/39
f 88/108/41 73/84/41 74/83/40
f 87/109/42 72/79/42 73/81/41
f 86/111/43 71/77/43 72/79/42
f 85/112/44 70/75/44 71/77/43
f 84/113/45 69/73/45 70/75/44
f 83/114/46 68/71/46 69/73/45
f 82/115/47 67/69/47 68/71/46
f 81/116/48 66/66/48 67/69/47
f 96/100/34 65/67/34 66/66/48
f 102/117/49 104/120/52 100/118/50
f 104/120/52 103/122/54 99/121/53
f 103/122/54 101/127/59 97/123/55
f 102/117/49 106/128/60 108/124/56
f 104/120/52 108/124/56 107/125/57
f 103/122/54 107/125/57 105/126/58
f 106/128/60 110/132/64 112/129/61
f 108/124/56 112/129/61 111/130/62
f 107/125/57 111/130/62 109/131/63
f 110/132/64 114/136/68 116/133/65
f 112/129/61 116/133/65 115/134/66
f 111/130/62 115/134/66 113/135/67
f 114/136/68 118/139/71 120/137/69
f 116/133/65 120/137/69 119/138/70
f 119/138/70 117/142/74 113/135/67
f 118/139/71 122/143/75 124/140/72
f 120/137/69 124/140/72 123/141/73
f 123/141/73 121/147/79 117/142/74
f 122/143/75 126/148/80 128/144/76
f 124/140/72 128/144/76 127/145/77
f 123/141/73 127/145/77 125/146/78
f 126/148/80 130/185/84 132/149/81
f 128/144/76 132/149/81 131/150/82
f 131/150/82 129/229/87 125/146/78
f 134/151/83 136/154/85 132/152/81
f 136/154/85 135/156/86 131/155/82
f 135/156/86 133/161/91 129/157/87
f 138/158/88 140/159/89 136/154/85
f 140/159/89 139/160/90 135/156/86
f 139/160/90 137/165/95 133/161/91
f 142/162/92 144/163/93 140/159/89
f 144/163/93 143/164/94 139/160/90
f 143/164/94 141/169/99 137/165/95
f 146/166/96 148/167/97 144/163/93
f 148/167/97 147/168/98 143/164/94
f 147/168/98 145/173/103 141/169/99
f 150/170/100 152/171/101 148/167/97
f 152/171/101 151/172/102 147/168/98
f 151/172/102 149/177/107 145/173/103
f 154/174/104 156/175/105 152/171/101
f 156/175/105 155/176/106 151/172/102
f 155/176/106 153/181/111 149/177/107
f 158/178/108 160/179/109 156/175/105
f 160/179/109 159/180/110 155/176/106
f 159/180/110 157/182/112 153/181/111
f 98/119/51 100/118/50 160/179/109
f 100/118/50 99/121/53 159/180/110
f 99/121/53 97/123/55 157/182/112
f 96/100/113 81/116/115 102/117/49
f 157/184/112 97/230/55 101/231/59
f 101/231/59 105/232/58 109/233/63
f 109/233/63 113/234/67 117/235/74
f 117/235/74 121/236/79 125/146/78
f 125/146/78 129/229/87 133/237/91
f 133/237/91 137/238/95 141/183/99
f 141/183/99 145/239/103 149/240/107
f 149/240/107 153/241/111 157/184/112
f 157/184/112 101/231/59 109/233/63
f 109/233/63 117/235/74 125/146/78
f 125/146/78 133/237/91 141/183/99
f 141/183/99 149/240/107 157/184/112
f 157/184/112 109/233/63 125/146/78
f 95/101/114 96/100/113 98/119/51
f 81/116/115 82/115/116 106/128/60
f 82/115/116 83/114/117 110/132/64
f 83/114/117 84/113/118 114/136/68
f 84/113/118 85/112/119 118/139/71
f 85/112/119 86/111/120 122/143/75
f 86/111/120 87/109/121 126/148/80
f 87/109/121 88/110/122 130/185/84
f 88/108/122 89/107/123 134/151/83
f 89/107/123 90/106/131 138/158/88
f 138/158/88 90/106/131 91/105/124
f 91/105/124 92/104/125 146/166/96
f 92/104/125 93/103/132 150/170/100
f 150/170/100 93/103/132 94/102/126
f 154/174/104 94/102/126 95/101/114
