# Blender 5.0.1
# www.blender.org
mtllib reverser.mtl
o ReverserHandleExport
g reverser
v -0.027716 0.011364 0.008197
v -0.037863 -0.005182 0.008197
v -0.040147 -0.005182 0.000000
v -0.030000 0.011341 0.000000
v -0.037863 -0.005182 -0.008197
v -0.027716 0.011317 -0.008197
v -0.046576 0.011341 0.008197
v -0.046576 -0.005182 0.008197
v -0.047324 -0.005182 0.000000
v -0.047324 0.011341 0.000000
v -0.046576 -0.005182 -0.008197
v -0.046576 0.011341 -0.008197
v 0.000000 0.003080 -0.007000
v 0.000000 0.001714 -0.006865
v 0.000000 0.000401 -0.006467
v 0.000000 -0.000809 -0.005820
v 0.000000 -0.001870 -0.004950
v 0.000000 -0.002740 -0.003889
v 0.000000 -0.003387 -0.002679
v 0.000000 -0.003785 -0.001366
v 0.000000 -0.003920 0.000000
v 0.000000 -0.003785 0.001366
v 0.000000 -0.003387 0.002679
v 0.000000 -0.002740 0.003889
v 0.000000 -0.001870 0.004950
v 0.000000 -0.000809 0.005820
v 0.000000 0.000401 0.006467
v 0.000000 0.001714 0.006865
v 0.000000 0.003080 0.007000
v 0.000000 0.004446 0.006865
v 0.000000 0.005759 0.006467
v 0.000000 0.006969 0.005820
v 0.000000 0.008030 0.004950
v 0.000000 0.008900 0.003889
v 0.000000 0.009547 0.002679
v 0.000000 0.009946 0.001366
v 0.000000 0.010080 0.000000
v 0.000000 0.009946 -0.001366
v 0.000000 0.009547 -0.002679
v 0.000000 0.008900 -0.003889
v 0.000000 0.008030 -0.004950
v 0.000000 0.006969 -0.005820
v 0.000000 0.005759 -0.006467
v 0.000000 0.004446 -0.006865
v -0.126225 0.003080 -0.007000
v -0.126225 0.001714 -0.006865
v -0.126225 0.000401 -0.006467
v -0.126225 -0.000809 -0.005820
v -0.126225 -0.001870 -0.004950
v -0.126225 -0.002740 -0.003889
v -0.126225 -0.003387 -0.002679
v -0.126225 -0.003785 -0.001366
v -0.126225 -0.003920 0.000000
v -0.126225 -0.003785 0.001366
v -0.126225 -0.003387 0.002679
v -0.126225 -0.002740 0.003889
v -0.126225 -0.001870 0.004950
v -0.126225 -0.000809 0.005820
v -0.126225 0.000401 0.006467
v -0.126225 0.001714 0.006865
v -0.126225 0.003080 0.007000
v -0.126225 0.004446 0.006865
v -0.126225 0.005759 0.006467
v -0.126225 0.006969 0.005820
v -0.126225 0.008030 0.004950
v -0.126225 0.008900 0.003889
v -0.126225 0.009547 0.002679
v -0.126225 0.009946 0.001366
v -0.126225 0.010080 0.000000
v -0.126225 0.009946 -0.001366
v -0.126225 0.009547 -0.002679
v -0.126225 0.008900 -0.003889
v -0.126225 0.008030 -0.004950
v -0.126225 0.006969 -0.005820
v -0.126225 0.005759 -0.006467
v -0.126225 0.004446 -0.006865
v -0.127302 0.001050 -0.010206
v -0.129324 0.001050 -0.010206
v -0.130295 0.002044 -0.005209
v -0.127302 -0.000902 -0.009614
v -0.129324 -0.000902 -0.009614
v -0.130295 0.001048 -0.004907
v -0.127302 -0.002701 -0.008653
v -0.129324 -0.002701 -0.008653
v -0.130295 0.000129 -0.004416
v -0.127302 -0.004278 -0.007358
v -0.129324 -0.004278 -0.007358
v -0.130295 -0.000675 -0.003756
v -0.127302 -0.005572 -0.005781
v -0.129324 -0.005572 -0.005781
v -0.130295 -0.001336 -0.002951
v -0.127302 -0.006534 -0.003982
v -0.129324 -0.006534 -0.003982
v -0.130295 -0.001827 -0.002032
v -0.127302 -0.007126 -0.002030
v -0.129324 -0.007126 -0.002030
v -0.130295 -0.002129 -0.001036
v -0.127302 -0.007326 -0.000000
v -0.129324 -0.007326 -0.000000
v -0.130295 -0.002231 0.000000
v -0.127302 -0.007126 0.002030
v -0.129324 -0.007126 0.002030
v -0.130295 -0.002129 0.001036
v -0.127302 -0.006534 0.003982
v -0.129324 -0.006534 0.003982
v -0.130295 -0.001827 0.002032
v -0.127302 -0.005572 0.005781
v -0.129324 -0.005572 0.005781
v -0.130295 -0.001336 0.002951
v -0.127302 -0.004278 0.007358
v -0.129324 -0.004278 0.007358
v -0.130295 -0.000675 0.003756
v -0.127302 -0.002701 0.008653
v -0.129324 -0.002701 0.008653
v -0.130295 0.000129 0.004416
v -0.127302 -0.000902 0.009614
v -0.129324 -0.000902 0.009614
v -0.130295 0.001048 0.004907
v -0.127302 0.001050 0.010206
v -0.129324 0.001050 0.010206
v -0.130295 0.002044 0.005209
v -0.127302 0.003080 0.010406
v -0.129324 0.003080 0.010406
v -0.130295 0.003080 0.005311
v -0.127302 0.005110 0.010206
v -0.129324 0.005110 0.010206
v -0.130295 0.004116 0.005209
v -0.127302 0.007062 0.009614
v -0.129324 0.007062 0.009614
v -0.130295 0.005113 0.004907
v -0.127302 0.008862 0.008653
v -0.129324 0.008862 0.008653
v -0.130295 0.006031 0.004416
v -0.127302 0.010439 0.007358
v -0.129324 0.010439 0.007358
v -0.130295 0.006836 0.003756
v -0.127302 0.011733 0.005781
v -0.129324 0.011733 0.005781
v -0.130295 0.007496 0.002951
v -0.127302 0.012694 0.003982
v -0.129324 0.012694 0.003982
v -0.130295 0.007987 0.002032
v -0.127302 0.013287 0.002030
v -0.129324 0.013287 0.002030
v -0.130295 0.008289 0.001036
v -0.127302 0.013486 -0.000000
v -0.129324 0.013486 -0.000000
v -0.130295 0.008391 0.000000
v -0.127302 0.013287 -0.002030
v -0.129324 0.013287 -0.002030
v -0.130295 0.008289 -0.001036
v -0.127302 0.012694 -0.003982
v -0.129324 0.012694 -0.003982
v -0.130295 0.007987 -0.002032
v -0.127302 0.011733 -0.005781
v -0.129324 0.011733 -0.005781
v -0.130295 0.007496 -0.002951
v -0.127302 0.010439 -0.007358
v -0.129324 0.010439 -0.007358
v -0.130295 0.006836 -0.003756
v -0.127302 0.008862 -0.008653
v -0.129324 0.008862 -0.008653
v -0.130295 0.006031 -0.004416
v -0.127302 0.007062 -0.009614
v -0.129324 0.007062 -0.009614
v -0.130295 0.005113 -0.004907
v -0.127302 0.005110 -0.010206
v -0.129324 0.005110 -0.010206
v -0.130295 0.004116 -0.005209
v -0.130295 0.003080 -0.005311
v -0.129324 0.003080 -0.010406
v -0.127302 0.003080 -0.010406
v -0.179914 0.003080 -0.004205
v -0.177134 0.003080 -0.006905
v -0.179541 0.003080 -0.005590
v -0.178524 0.003080 -0.006578
v -0.179914 0.002260 -0.004124
v -0.177134 0.001733 -0.006773
v -0.179541 0.001990 -0.005482
v -0.178524 0.001797 -0.006452
v -0.179914 0.001471 -0.003885
v -0.177134 0.000438 -0.006380
v -0.179541 0.000941 -0.005164
v -0.178524 0.000563 -0.006077
v -0.179914 0.000744 -0.003496
v -0.177134 -0.000756 -0.005742
v -0.179541 -0.000025 -0.004648
v -0.178524 -0.000575 -0.005470
v -0.179914 0.000107 -0.002973
v -0.177134 -0.001803 -0.004883
v -0.179541 -0.000872 -0.003953
v -0.178524 -0.001571 -0.004651
v -0.179914 -0.000416 -0.002336
v -0.177134 -0.002661 -0.003836
v -0.179541 -0.001568 -0.003105
v -0.178524 -0.002389 -0.003655
v -0.179914 -0.000805 -0.001609
v -0.177134 -0.003300 -0.002643
v -0.179541 -0.002084 -0.002139
v -0.178524 -0.002997 -0.002517
v -0.179914 -0.001044 -0.000820
v -0.177134 -0.003693 -0.001347
v -0.179541 -0.002402 -0.001090
v -0.178524 -0.003372 -0.001283
v -0.179914 -0.001125 0.000000
v -0.177134 -0.003825 0.000000
v -0.179541 -0.002510 0.000000
v -0.178524 -0.003498 0.000000
v -0.179914 -0.001044 0.000820
v -0.177134 -0.003693 0.001347
v -0.179541 -0.002402 0.001090
v -0.178524 -0.003372 0.001283
v -0.179914 -0.000805 0.001609
v -0.177134 -0.003300 0.002643
v -0.179541 -0.002084 0.002139
v -0.178524 -0.002997 0.002517
v -0.179914 -0.000416 0.002336
v -0.177134 -0.002661 0.003836
v -0.179541 -0.001568 0.003105
v -0.178524 -0.002389 0.003655
v -0.179914 0.000107 0.002973
v -0.177134 -0.001803 0.004883
v -0.179541 -0.000872 0.003953
v -0.178524 -0.001571 0.004651
v -0.179914 0.000744 0.003496
v -0.177134 -0.000756 0.005742
v -0.179541 -0.000025 0.004648
v -0.178524 -0.000575 0.005470
v -0.179914 0.001471 0.003885
v -0.177134 0.000438 0.006380
v -0.179541 0.000941 0.005164
v -0.178524 0.000563 0.006077
v -0.179914 0.002260 0.004124
v -0.177134 0.001733 0.006773
v -0.179541 0.001990 0.005482
v -0.178524 0.001797 0.006452
v -0.179914 0.003080 0.004205
v -0.177134 0.003080 0.006905
v -0.179541 0.003080 0.005590
v -0.178524 0.003080 0.006578
v -0.179914 0.003900 0.004124
v -0.177134 0.004427 0.006773
v -0.179541 0.004171 0.005482
v -0.178524 0.004363 0.006452
v -0.179914 0.004689 0.003885
v -0.177134 0.005723 0.006380
v -0.179541 0.005219 0.005164
v -0.178524 0.005597 0.006077
v -0.179914 0.005416 0.003496
v -0.177134 0.006917 0.005742
v -0.179541 0.006186 0.004648
v -0.178524 0.006735 0.005470
v -0.179914 0.006053 0.002973
v -0.177134 0.007963 0.004883
v -0.179541 0.007033 0.003953
v -0.178524 0.007732 0.004651
v -0.179914 0.006576 0.002336
v -0.177134 0.008822 0.003836
v -0.179541 0.007728 0.003105
v -0.178524 0.008550 0.003655
v -0.179914 0.006965 0.001609
v -0.177134 0.009460 0.002643
v -0.179541 0.008244 0.002139
v -0.178524 0.009158 0.002517
v -0.179914 0.007204 0.000820
v -0.177134 0.009853 0.001347
v -0.179541 0.008562 0.001091
v -0.178524 0.009532 0.001283
v -0.179914 0.007285 0.000000
v -0.177134 0.009985 -0.000000
v -0.179541 0.008670 0.000000
v -0.178524 0.009658 0.000000
v -0.179914 0.007204 -0.000820
v -0.177134 0.009853 -0.001347
v -0.179541 0.008562 -0.001091
v -0.178524 0.009532 -0.001283
v -0.179914 0.006965 -0.001609
v -0.177134 0.009460 -0.002643
v -0.179541 0.008244 -0.002139
v -0.178524 0.009158 -0.002517
v -0.179914 0.006576 -0.002336
v -0.177134 0.008822 -0.003836
v -0.179541 0.007728 -0.003105
v -0.178524 0.008550 -0.003655
v -0.179914 0.006053 -0.002973
v -0.177134 0.007963 -0.004883
v -0.179541 0.007033 -0.003953
v -0.178524 0.007732 -0.004651
v -0.179914 0.005416 -0.003496
v -0.177134 0.006917 -0.005742
v -0.179541 0.006186 -0.004648
v -0.178524 0.006735 -0.005470
v -0.179914 0.004689 -0.003885
v -0.177134 0.005723 -0.006380
v -0.179541 0.005219 -0.005164
v -0.178524 0.005597 -0.006077
v -0.179914 0.003900 -0.004124
v -0.177134 0.004427 -0.006773
v -0.179541 0.004171 -0.005482
v -0.178524 0.004363 -0.006452
vn -0.0000 -1.0000 -0.0000
vn -0.0000 -0.0000 -1.0000
vn -0.8549 -0.4793 -0.1985
vn -0.9903 -0.1363 -0.0271
vn -0.9903 -0.1284 -0.0532
vn -0.9959 -0.0000 0.0908
vn -0.0000 1.0000 -0.0000
vn -0.0000 -0.0000 1.0000
vn -0.0000 -0.1951 0.9808
vn -0.0000 -0.1951 -0.9808
vn -0.0000 -0.5556 0.8315
vn -0.0000 -0.3827 0.9239
vn -0.0000 -0.7071 0.7071
vn -0.0000 -0.8315 -0.5556
vn -0.0000 -0.7071 -0.7071
vn -0.0000 -0.9808 0.1951
vn -0.0000 -0.9808 -0.1951
vn -0.0976 -0.5529 0.8275
vn -0.4734 -0.3371 0.8138
vn -0.4734 -0.4894 0.7324
vn -0.0000 -0.9239 0.3827
vn -0.0000 -0.8315 0.5556
vn -0.0000 -0.9239 -0.3827
vn -0.0000 0.1951 0.9808
vn -0.0000 0.3827 0.9239
vn -0.0000 -0.5556 -0.8315
vn -0.9959 -0.0000 -0.0908
vn -0.0000 0.9239 -0.3827
vn -0.0000 0.9808 -0.1951
vn -0.0000 0.5556 0.8315
vn -0.0000 0.9239 0.3827
vn -0.0000 0.9808 0.1951
vn -0.0000 0.5556 -0.8315
vn -0.0000 0.7071 -0.7071
vn 0.5740 -0.8031 -0.1598
vn -0.6186 -0.7259 -0.3007
vn 0.5740 -0.7565 -0.3134
vn -0.6186 -0.1533 -0.7706
vn 0.5740 -0.3134 -0.7565
vn -0.6186 -0.3007 -0.7259
vn -0.0000 0.7071 0.7071
vn -0.0000 0.8315 0.5556
vn -0.0000 0.8315 -0.5556
vn 0.9535 0.2957 -0.0588
vn 0.5740 0.7565 -0.3134
vn 0.5740 0.8031 -0.1598
vn 0.5740 0.4549 -0.6809
vn 0.9535 0.1154 -0.2785
vn 0.5740 0.3134 -0.7565
vn 0.9535 -0.0588 0.2957
vn 0.5740 -0.0000 0.8189
vn 0.5740 -0.1598 0.8031
vn -0.0000 0.1951 -0.9808
vn 0.5740 0.1598 -0.8031
vn 0.9535 -0.0000 -0.3015
vn 0.5740 -0.0000 -0.8189
vn 0.5740 0.5790 -0.5790
vn 0.9535 0.1675 -0.2507
vn -0.9903 0.1156 0.0772
vn -0.8549 0.3668 0.3668
vn -0.8549 0.4314 0.2882
vn 0.9535 -0.1154 0.2785
vn 0.5740 -0.3134 0.7565
vn -0.0976 0.9195 0.3809
vn -0.4734 0.8639 0.1718
vn -0.4734 0.8138 0.3371
vn -0.9823 -0.1039 -0.1555
vn -0.6186 -0.5556 -0.5556
vn -0.9823 -0.1323 -0.1323
vn 0.9535 0.3015 -0.0000
vn 0.5740 0.8189 -0.0000
vn 0.9535 0.2507 0.1675
vn 0.5740 0.7565 0.3134
vn 0.5740 0.6809 0.4549
vn 0.9535 0.2957 0.0588
vn 0.5740 0.8031 0.1598
vn 0.9535 0.2132 0.2132
vn 0.5740 0.5790 0.5790
vn 0.5740 -0.5790 0.5790
vn 0.9535 -0.1675 0.2507
vn 0.5740 -0.4549 0.6809
vn 0.5740 0.1598 0.8031
vn 0.9535 0.1154 0.2785
vn 0.5740 0.3134 0.7565
vn 0.9535 -0.0000 0.3015
vn 0.5740 -0.4549 -0.6809
vn -0.6186 -0.4365 -0.6533
vn 0.9535 -0.2507 0.1675
vn 0.5740 -0.6809 0.4549
vn 0.9535 -0.2507 -0.1675
vn 0.5740 -0.5790 -0.5790
vn 0.9535 -0.2132 -0.2132
vn -0.9823 -0.0716 -0.1728
vn 0.5740 0.4549 0.6809
vn -0.6186 0.5556 0.5556
vn -0.6187 0.4365 0.6533
vn 0.9535 -0.3015 -0.0000
vn 0.5740 -0.8031 0.1598
vn 0.5740 -0.8189 -0.0000
vn 0.5740 -0.1598 -0.8031
vn -0.9823 -0.1835 -0.0365
vn -0.9823 -0.1728 -0.0716
vn 0.9535 -0.1675 -0.2507
vn -0.9823 -0.0365 -0.1835
vn -0.4734 -0.8138 -0.3371
vn -0.8549 -0.5088 -0.1012
vn 0.9535 -0.2785 -0.1154
vn 0.5740 -0.6809 -0.4549
vn 0.9535 -0.1154 -0.2785
vn 0.9535 -0.0588 -0.2957
vn -0.9903 0.1284 0.0532
vn -0.8549 0.4793 0.1985
vn -0.6186 -0.0000 -0.7857
vn -0.9823 -0.0000 -0.1871
vn 0.9535 -0.2785 0.1154
vn 0.5740 -0.7565 0.3134
vn -0.9823 -0.1555 -0.1039
vn -0.9823 -0.1555 0.1039
vn -0.6186 -0.5556 0.5556
vn -0.9823 -0.1323 0.1323
vn -0.6187 -0.7857 -0.0000
vn -0.6186 -0.6533 -0.4365
vn -0.6186 -0.7259 0.3007
vn -0.8549 -0.1012 0.5088
vn -0.9903 -0.0000 0.1390
vn -0.9903 -0.0271 0.1363
vn -0.9823 -0.1728 0.0716
vn -0.6186 -0.7706 -0.1533
vn -0.6186 -0.0000 0.7857
vn -0.9823 -0.0365 0.1835
vn -0.6186 -0.1533 0.7706
vn -0.9823 -0.1835 0.0365
vn -0.6186 -0.7706 0.1533
vn -0.9823 -0.1871 -0.0000
vn -0.9823 -0.0716 0.1728
vn -0.6187 -0.3007 0.7259
vn -0.6186 -0.4365 0.6533
vn 0.0340 0.1950 0.9802
vn -0.0976 0.3809 0.9195
vn -0.0976 0.1942 0.9761
vn -0.9823 -0.1039 0.1555
vn -0.6186 0.1533 0.7706
vn -0.9823 0.0716 0.1728
vn -0.9823 0.0365 0.1835
vn -0.6186 0.3007 -0.7259
vn -0.8549 -0.3668 0.3668
vn -0.4734 -0.6228 0.6228
vn -0.6186 0.3007 0.7259
vn -0.8549 -0.1985 -0.4793
vn -0.9903 -0.0271 -0.1363
vn -0.8549 -0.1012 -0.5088
vn -0.9823 0.1039 0.1555
vn -0.6186 0.6533 0.4365
vn -0.9823 0.1555 -0.1039
vn -0.6186 0.5556 -0.5556
vn -0.9823 0.1323 -0.1323
vn -0.9823 0.1555 0.1039
vn -0.9823 0.1323 0.1323
vn -0.6186 0.7706 -0.1533
vn -0.6187 0.7857 -0.0000
vn -0.4734 -0.3371 -0.8138
vn -0.4734 -0.1718 -0.8639
vn -0.6186 0.7259 0.3007
vn -0.9823 0.1835 0.0365
vn -0.9823 0.1728 0.0716
vn -0.6186 0.7259 -0.3007
vn -0.9823 0.1728 -0.0716
vn -0.6186 0.7706 0.1533
vn -0.9823 0.1871 -0.0000
vn -0.9823 0.1835 -0.0365
vn 0.5740 0.6809 -0.4549
vn -0.6187 0.6533 -0.4365
vn -0.0976 -0.1942 -0.9761
vn -0.9903 -0.1156 0.0772
vn -0.8549 -0.4793 0.1985
vn -0.8549 -0.4314 0.2882
vn -0.9823 0.0365 -0.1835
vn -0.8549 -0.5088 0.1012
vn -0.9903 -0.1390 -0.0000
vn -0.8549 -0.5188 -0.0000
vn -0.9903 -0.0000 -0.1390
vn -0.8549 -0.0000 -0.5188
vn -0.6186 0.4365 -0.6533
vn -0.9823 0.0716 -0.1728
vn -0.6186 0.1533 -0.7706
vn -0.9903 -0.0983 -0.0982
vn -0.8549 -0.2882 -0.4314
vn -0.8549 -0.3668 -0.3668
vn -0.0976 0.3809 -0.9195
vn 0.0340 0.1950 -0.9802
vn -0.0976 0.1942 -0.9761
vn -0.4734 -0.0000 -0.8808
vn -0.9903 -0.0532 -0.1283
vn -0.0976 -0.5529 -0.8275
vn -0.0976 -0.3809 -0.9195
vn -0.0976 -0.0000 -0.9952
vn -0.9823 0.1039 -0.1555
vn -0.0976 -0.7037 -0.7037
vn -0.4734 -0.7324 -0.4894
vn -0.4734 -0.6228 -0.6228
vn -0.8549 -0.4314 -0.2882
vn 0.0340 -0.0000 0.9994
vn -0.0976 -0.1942 0.9761
vn 0.0340 -0.1950 0.9802
vn -0.4734 -0.4894 -0.7324
vn -0.0976 -0.9761 -0.1942
vn -0.0976 -0.9195 -0.3809
vn -0.9903 -0.1156 -0.0772
vn -0.0976 -0.9952 -0.0000
vn -0.4734 -0.8639 0.1718
vn -0.4734 -0.8808 -0.0000
vn -0.4734 -0.8639 -0.1718
vn -0.4734 -0.7324 0.4894
vn -0.0976 -0.8275 0.5529
vn -0.4734 -0.8138 0.3371
vn -0.0976 -0.9195 0.3809
vn -0.9903 -0.1363 0.0271
vn -0.9903 -0.0772 0.1156
vn -0.8549 -0.2882 0.4314
vn -0.0976 -0.9761 0.1942
vn -0.0976 -0.7037 0.7037
vn -0.8549 0.1985 0.4793
vn -0.9903 0.0271 0.1364
vn -0.8549 0.1012 0.5088
vn -0.4734 -0.0000 0.8808
vn -0.4735 -0.1718 0.8639
vn -0.0976 -0.3809 0.9195
vn -0.9903 0.1363 -0.0271
vn -0.8549 0.5188 -0.0000
vn -0.8549 0.5088 0.1012
vn -0.8549 -0.0000 0.5188
vn -0.4734 0.4894 0.7324
vn -0.8549 0.2882 0.4314
vn -0.0976 0.9761 -0.1942
vn -0.4734 0.8138 -0.3371
vn -0.4734 0.8639 -0.1718
vn -0.9903 0.0532 0.1285
vn -0.4734 0.1718 0.8639
vn -0.6187 -0.6532 0.4365
vn -0.4734 0.7324 0.4894
vn -0.4734 0.6228 0.6228
vn -0.8549 0.5088 -0.1012
vn -0.9903 0.1390 -0.0000
vn -0.8549 -0.1985 0.4793
vn -0.0976 -0.0000 0.9952
vn -0.4734 0.3371 0.8138
vn -0.0976 0.9952 -0.0000
vn -0.0976 0.9761 0.1942
vn -0.0976 0.5529 0.8275
vn -0.9903 0.0983 0.0983
vn -0.9903 0.0772 0.1156
vn -0.4734 0.3371 -0.8138
vn -0.8549 0.1012 -0.5088
vn -0.8549 0.1985 -0.4793
vn -0.9903 0.1363 0.0271
vn 0.9535 0.1675 0.2507
vn -0.0976 0.8275 0.5529
vn -0.0976 0.7037 0.7037
vn 0.0340 -0.1950 -0.9802
vn -0.8549 0.3668 -0.3668
vn -0.9903 0.0772 -0.1156
vn -0.9903 0.0983 -0.0983
vn -0.4734 0.8808 -0.0000
vn 0.0340 -0.7067 0.7067
vn -0.4734 0.4894 -0.7324
vn -0.4734 0.6228 -0.6228
vn -0.8549 0.4314 -0.2882
vn -0.9903 0.1284 -0.0532
vn -0.8549 0.4793 -0.1985
vn -0.0976 0.5529 -0.8275
vn -0.0976 0.7037 -0.7037
vn 0.9535 0.2507 -0.1675
vn -0.8549 0.2882 -0.4314
vn -0.4734 0.7324 -0.4894
vn -0.0976 0.8275 -0.5529
vn -0.4734 0.1718 -0.8639
vn 0.0340 -0.9802 -0.1950
vn 0.0340 -0.9802 0.1950
vn -0.9903 0.0271 -0.1363
vn -0.9903 0.0532 -0.1285
vn 0.0340 -0.9233 -0.3825
vn -0.0976 -0.8275 -0.5529
vn 0.0340 -0.8310 -0.5552
vn 0.0340 -0.5552 -0.8310
vn 0.0340 -0.3825 -0.9233
vn -0.0976 0.9195 -0.3809
vn 0.0340 -0.0000 -0.9994
vn -0.9903 -0.0983 0.0982
vn -0.0000 -0.3827 -0.9239
vn 0.0340 0.5552 0.8310
vn 0.0340 0.9802 -0.1950
vn 0.0340 0.8310 0.5552
vn 0.0340 -0.8310 0.5552
vn 0.0340 -0.5552 0.8310
vn -0.9823 -0.0000 0.1871
vn 0.0340 0.9233 -0.3825
vn 0.0340 0.9802 0.1950
vn 0.0340 0.5552 -0.8310
vn 0.0340 0.7067 -0.7067
vn 0.0340 0.9233 0.3825
vn 0.0340 0.9994 -0.0000
vn 0.0340 0.8310 -0.5552
vn 0.0340 0.7067 0.7067
vn -0.0000 0.3827 -0.9239
vn -0.9903 0.1156 -0.0772
vn 0.9535 0.2132 -0.2132
vn 0.9535 0.0588 -0.2957
vn -0.9903 -0.0532 0.1285
vn 0.0340 -0.7067 -0.7067
vn 0.0340 -0.9233 0.3825
vn -0.0012 1.0000 -0.0025
vn 0.0012 1.0000 -0.0025
vn 0.9535 0.2785 -0.1154
vn 0.9535 0.2785 0.1154
vn 0.9535 -0.2132 0.2132
vn 0.9535 0.0588 0.2957
vn 0.9535 -0.2957 0.0588
vn 0.9535 -0.2957 -0.0588
vn 0.0340 0.3825 0.9233
vn -0.9903 -0.1284 0.0532
vn -0.9903 -0.0772 -0.1156
vn 0.0340 0.3825 -0.9233
vn 0.0340 -0.9994 -0.0000
vn 0.0340 -0.3825 0.9233
vt 0.199331 0.324528
vt 0.211366 0.309410
vt 0.211146 0.339818
vt 0.194986 0.339701
vt 0.210925 0.370463
vt 0.175945 0.370167
vt 0.667381 0.051072
vt 0.668325 0.048469
vt 0.669090 0.049549
vt 0.211610 0.385425
vt 0.241488 0.400753
vt 0.210873 0.400374
vt 0.180073 0.385396
vt 0.151198 0.698904
vt 0.153731 0.465927
vt 0.153731 0.698904
vt 0.194978 0.431099
vt 0.211114 0.430972
vt 0.110673 0.465927
vt 0.108141 0.698904
vt 0.108141 0.465927
vt 0.158796 0.465927
vt 0.156263 0.698904
vt 0.156263 0.465927
vt 0.158796 0.698904
vt 0.161329 0.465927
vt 0.161329 0.698904
vt 0.098010 0.698904
vt 0.100542 0.465927
vt 0.100542 0.698904
vt 0.171460 0.698904
vt 0.168927 0.465927
vt 0.171460 0.465927
vt 0.090411 0.698904
vt 0.092944 0.465927
vt 0.092944 0.698904
vt 0.689297 0.013755
vt 0.686409 0.016092
vt 0.686581 0.013563
vt 0.166394 0.465927
vt 0.163862 0.698904
vt 0.163862 0.465927
vt 0.095477 0.698904
vt 0.098010 0.465927
vt 0.148665 0.698904
vt 0.146132 0.465927
vt 0.148665 0.465927
vt 0.103075 0.465927
vt 0.103075 0.698904
vt 0.241677 0.385501
vt 0.125870 0.698904
vt 0.128403 0.465927
vt 0.128403 0.698904
vt 0.143600 0.698904
vt 0.143600 0.465927
vt 0.136001 0.698904
vt 0.133468 0.465927
vt 0.136001 0.465927
vt 0.118272 0.698904
vt 0.120805 0.465927
vt 0.120805 0.698904
vt 0.971213 0.890536
vt 0.971466 0.895831
vt 0.968693 0.893334
vt 0.958868 0.909821
vt 0.958615 0.904526
vt 0.961388 0.907023
vt 0.141067 0.465927
vt 0.138534 0.698904
vt 0.138534 0.465927
vt 0.123337 0.465927
vt 0.123337 0.698904
vt 0.931976 0.923593
vt 0.938458 0.926910
vt 0.935462 0.929190
vt 0.944255 0.917368
vt 0.938323 0.913145
vt 0.944897 0.913658
vt 0.911704 0.915519
vt 0.906614 0.920726
vt 0.905325 0.917188
vt 0.110673 0.698904
vt 0.113206 0.465927
vt 0.113206 0.698904
vt 0.944838 0.909893
vt 0.937773 0.908132
vt 0.944080 0.906205
vt 0.942933 0.920894
vt 0.937891 0.915640
vt 0.678467 0.040020
vt 0.678414 0.037270
vt 0.679891 0.038221
vt 0.911295 0.913020
vt 0.904717 0.913472
vt 0.688372 0.036385
vt 0.685628 0.038899
vt 0.685644 0.036358
vt 0.964123 0.934091
vt 0.973348 0.930378
vt 0.965321 0.935594
vt 0.929711 0.924725
vt 0.932094 0.930873
vt 0.922230 0.925392
vt 0.924721 0.932234
vt 0.920974 0.931865
vt 0.927274 0.925415
vt 0.928471 0.931900
vt 0.919800 0.924679
vt 0.917361 0.930805
vt 0.905603 0.906027
vt 0.911358 0.910488
vt 0.904810 0.909708
vt 0.908539 0.923962
vt 0.915544 0.921973
vt 0.911033 0.926783
vt 0.912572 0.917899
vt 0.961134 0.901728
vt 0.963907 0.904225
vt 0.912876 0.905678
vt 0.907067 0.902558
vt 0.929313 0.899308
vt 0.934921 0.894664
vt 0.931613 0.900368
vt 0.971002 0.927433
vt 0.962660 0.932845
vt 0.968135 0.924992
vt 0.920821 0.946496
vt 0.926114 0.946195
vt 0.923594 0.948993
vt 0.918123 0.900306
vt 0.911781 0.896729
vt 0.914868 0.894572
vt 0.942648 0.902723
vt 0.976152 0.937329
vt 0.966932 0.941055
vt 0.966752 0.939142
vt 0.940593 0.899568
vt 0.933675 0.901838
vt 0.937988 0.896850
vt 0.960985 0.931903
vt 0.964854 0.923146
vt 0.665670 0.052623
vt 0.666335 0.049668
vt 0.926855 0.898694
vt 0.931502 0.893088
vt 0.935428 0.903667
vt 0.936810 0.905789
vt 0.679406 0.040935
vt 0.681160 0.039442
vt 0.956349 0.912619
vt 0.956095 0.907324
vt 0.959161 0.931299
vt 0.924090 0.891958
vt 0.927849 0.892175
vt 0.914278 0.903569
vt 0.909150 0.899422
vt 0.966208 0.937298
vt 0.963272 0.948755
vt 0.966203 0.958257
vt 0.961674 0.949823
vt 0.895625 0.974476
vt 0.895879 0.979771
vt 0.893106 0.977274
vt 0.975086 0.933718
vt 0.963654 0.898930
vt 0.966427 0.901427
vt 0.968947 0.898629
vt 0.966174 0.896132
vt 0.130936 0.465927
vt 0.130936 0.698904
vt 0.900664 0.968880
vt 0.900918 0.974175
vt 0.898145 0.971678
vt 0.669999 0.037355
vt 0.672283 0.038847
vt 0.671078 0.039354
vt 0.972004 0.953511
vt 0.964635 0.947401
vt 0.973732 0.887738
vt 0.973986 0.893033
vt 0.951574 0.959829
vt 0.956097 0.950973
vt 0.955277 0.960511
vt 0.133468 0.698904
vt 0.965713 0.945810
vt 0.974117 0.950395
vt 0.966467 0.944042
vt 0.976505 0.941078
vt 0.966743 0.942967
vt 0.958019 0.950953
vt 0.905704 0.963284
vt 0.910996 0.962983
vt 0.908477 0.965781
vt 0.775956 0.027656
vt 0.688617 0.026319
vt 0.688720 0.023805
vt 0.903184 0.966082
vt 0.905957 0.968579
vt 0.962729 0.959711
vt 0.959901 0.950565
vt 0.948070 0.958449
vt 0.950800 0.948887
vt 0.952420 0.949921
vt 0.951056 0.912920
vt 0.951310 0.918215
vt 0.948537 0.915718
vt 0.665535 0.038085
vt 0.666362 0.040997
vt 0.664331 0.039889
vt 0.918301 0.949294
vt 0.921075 0.951791
vt 0.910743 0.957688
vt 0.916035 0.957387
vt 0.913516 0.960185
vt 0.913262 0.954890
vt 0.918555 0.954589
vt 0.908223 0.960486
vt 0.673428 0.054161
vt 0.674942 0.051903
vt 0.675168 0.054161
vt 0.944896 0.956423
vt 0.949408 0.947562
vt 0.915782 0.952092
vt 0.923341 0.943698
vt 0.928633 0.943397
vt 0.950215 0.933670
vt 0.946760 0.924346
vt 0.951751 0.932515
vt 0.939991 0.950756
vt 0.947505 0.944243
vt 0.948296 0.945994
vt 0.933419 0.932506
vt 0.938712 0.932205
vt 0.936192 0.935003
vt 0.673206 0.056478
vt 0.675394 0.056485
vt 0.928380 0.938102
vt 0.925860 0.940900
vt 0.937578 0.943659
vt 0.946991 0.940452
vt 0.947065 0.942372
vt 0.941231 0.929407
vt 0.948929 0.935098
vt 0.933672 0.937801
vt 0.947286 0.938553
vt 0.939295 0.932636
vt 0.947941 0.936746
vt 0.931153 0.940599
vt 0.940978 0.924112
vt 0.943751 0.926609
vt 0.943497 0.921314
vt 0.946270 0.923811
vt 0.689043 0.063951
vt 0.686486 0.066644
vt 0.686324 0.064116
vt 0.667846 0.043291
vt 0.665301 0.044290
vt 0.665679 0.042591
vt 0.957255 0.931056
vt 0.961279 0.921963
vt 0.665227 0.046044
vt 0.667770 0.047250
vt 0.665456 0.047823
vt 0.676221 0.051642
vt 0.676879 0.053820
vt 0.950147 0.922701
vt 0.955337 0.931184
vt 0.957544 0.921488
vt 0.671141 0.051168
vt 0.671721 0.053834
vt 0.670111 0.053188
vt 0.688661 0.056415
vt 0.775954 0.054835
vt 0.688772 0.058928
vt 0.677549 0.056064
vt 0.673637 0.051903
vt 0.948790 0.921013
vt 0.953829 0.915417
vt 0.953576 0.910122
vt 0.689378 0.068967
vt 0.689202 0.066460
vt 0.686178 0.061587
vt 0.688898 0.061440
vt 0.953479 0.931676
vt 0.953787 0.921737
vt 0.689569 0.071473
vt 0.687073 0.074204
vt 0.686861 0.071690
vt 0.668648 0.052258
vt 0.776052 0.025715
vt 0.688976 0.018777
vt 0.776162 0.023775
vt 0.671068 0.056062
vt 0.686665 0.069169
vt 0.690210 0.078983
vt 0.687298 0.076706
vt 0.689991 0.076478
vt 0.670036 0.050456
vt 0.667239 0.054088
vt 0.669058 0.055248
vt 0.690310 0.001199
vt 0.687406 0.003530
vt 0.687579 0.001068
vt 0.942169 0.953827
vt 0.663377 0.049025
vt 0.664378 0.050919
vt 0.663481 0.041873
vt 0.898398 0.976973
vt 0.689680 0.008741
vt 0.687192 0.006016
vt 0.689888 0.006235
vt 0.690426 0.081508
vt 0.687518 0.079187
vt 0.667562 0.045920
vt 0.151198 0.465927
vt 0.665531 0.048069
vt 0.669065 0.041003
vt 0.667326 0.039560
vt 0.690101 0.003727
vt 0.663135 0.048240
vt 0.686770 0.011039
vt 0.689482 0.011246
vt 0.946017 0.918516
vt 0.675063 0.036300
vt 0.673562 0.038578
vt 0.673316 0.036320
vt 0.670904 0.034443
vt 0.668881 0.035303
vt 0.689129 0.016265
vt 0.686976 0.008521
vt 0.938013 0.936176
vt 0.937434 0.939897
vt 0.663010 0.043970
vt 0.680931 0.044538
vt 0.684243 0.039718
vt 0.682884 0.042524
vt 0.682169 0.040895
vt 0.671607 0.036676
vt 0.677437 0.034358
vt 0.676786 0.036618
vt 0.688376 0.043909
vt 0.685718 0.046379
vt 0.685694 0.043972
vt 0.686116 0.021152
vt 0.686254 0.018621
vt 0.674866 0.038570
vt 0.673060 0.033991
vt 0.903437 0.971377
vt 0.681355 0.036368
vt 0.679491 0.035175
vt 0.683261 0.044280
vt 0.680664 0.043235
vt 0.166394 0.698904
vt 0.668553 0.038329
vt 0.688839 0.021290
vt 0.685892 0.026217
vt 0.685997 0.023684
vt 0.688356 0.041410
vt 0.688354 0.038900
vt 0.688530 0.028835
vt 0.677366 0.039303
vt 0.676151 0.038814
vt 0.675265 0.033960
vt 0.681439 0.054029
vt 0.678499 0.053160
vt 0.679961 0.052192
vt 0.680148 0.042020
vt 0.917545 0.923526
vt 0.688407 0.033868
vt 0.685732 0.031285
vt 0.688459 0.031351
vt 0.682959 0.037898
vt 0.914008 0.929091
vt 0.776160 0.058712
vt 0.685679 0.033820
vt 0.685804 0.028751
vt 0.682215 0.049501
vt 0.679450 0.049484
vt 0.680183 0.048393
vt 0.685641 0.041439
vt 0.776567 0.017956
vt 0.667068 0.036533
vt 0.685171 0.041760
vt 0.683031 0.052485
vt 0.684304 0.050656
vt 0.682913 0.047863
vt 0.680942 0.045871
vt 0.683276 0.046101
vt 0.688570 0.053902
vt 0.685773 0.051453
vt 0.688496 0.051390
vt 0.935687 0.920177
vt 0.681217 0.050960
vt 0.685212 0.048599
vt 0.688440 0.048881
vt 0.685726 0.048913
vt 0.686050 0.059057
vt 0.685937 0.056525
vt 0.685845 0.053991
vt 0.777086 0.070321
vt 0.777086 0.012145
vt 0.677430 0.051140
vt 0.678519 0.050413
vt 0.776899 0.068389
vt 0.689774 0.073976
vt 0.776726 0.066455
vt 0.095477 0.465927
vt 0.776417 0.062586
vt 0.776282 0.060649
vt 0.688403 0.046383
vt 0.776050 0.056774
vt 0.668348 0.042084
vt 0.105608 0.465927
vt 0.105608 0.698904
vt 0.679591 0.055241
vt 0.775801 0.031540
vt 0.775645 0.043191
vt 0.775697 0.035424
vt 0.776727 0.016018
vt 0.776419 0.019895
vt 0.662900 0.046109
vt 0.954208 0.950625
vt 0.775664 0.045133
vt 0.921815 0.898875
vt 0.920356 0.892445
vt 0.775645 0.039308
vt 0.775799 0.050956
vt 0.775741 0.049015
vt 0.775665 0.037366
vt 0.775639 0.041250
vt 0.775696 0.047074
vt 0.775743 0.033481
vt 0.115739 0.698904
vt 0.118272 0.465927
vt 0.125870 0.465927
vt 0.680688 0.047173
vt 0.115739 0.465927
vt 0.937002 0.918012
vt 0.938284 0.910612
vt 0.669992 0.040082
vt 0.776565 0.064521
vt 0.776900 0.014081
vt 0.195205 0.309293
vt 0.212642 0.324624
vt 0.175945 0.400605
vt 0.168927 0.698904
vt 0.090411 0.465927
vt 0.146132 0.698904
vt 0.241588 0.370237
vt 0.141067 0.698904
vt 0.933992 0.922059
vt 0.924751 0.925640
vt 0.911891 0.908012
vt 0.913867 0.920076
vt 0.916047 0.901757
vt 0.924327 0.898548
vt 0.969333 0.956165
vt 0.976505 0.890235
vt 0.975594 0.946931
vt 0.976134 0.944825
vt 0.959042 0.960471
vt 0.775872 0.029598
vt 0.938441 0.947324
vt 0.935939 0.929708
vt 0.930899 0.935304
vt 0.667579 0.044584
vt 0.672354 0.051656
vt 0.775870 0.052896
vt 0.687700 0.081648
vt 0.777285 0.072251
vt 0.776284 0.021835
vt 0.777285 0.010210
s 0
usemtl HandleSurface
f 3/1/1 8/2/1 11/3/1
f 5/4/2 12/5/2 6/6/2
s 1
f 199/7/3 201/8/4 197/9/5
s 0
f 10/10/6 8/11/6 7/12/6
f 7/12/7 4/13/7 12/5/7
s 1
f 29/14/8 60/15/9 28/16/9
s 0
f 2/17/8 7/12/8 8/18/8
s 1
f 45/19/2 14/20/10 46/21/10
f 58/22/11 27/23/12 59/24/12
f 26/25/11 57/26/13 25/27/13
f 18/28/14 49/29/15 17/30/15
f 21/31/1 54/32/16 53/33/1
f 59/24/12 28/16/9 60/15/9
f 21/34/1 52/35/17 20/36/17
f 226/37/18 232/38/19 228/39/20
f 55/40/21 24/41/22 56/42/22
f 56/42/22 25/27/13 57/26/13
f 19/43/23 50/44/14 18/28/14
f 30/45/24 63/46/25 62/47/24
f 17/30/15 48/48/26 16/49/26
s 0
f 12/5/27 9/50/27 10/10/27
s 1
f 39/51/28 70/52/29 38/53/29
f 63/46/25 32/54/30 64/55/30
f 35/56/31 68/57/32 67/58/31
f 42/59/33 73/60/34 41/61/34
f 95/62/35 93/63/36 92/64/37
f 78/65/38 80/66/39 81/67/40
f 65/68/41 34/69/42 66/70/42
f 32/54/30 65/68/41 64/55/30
f 41/61/34 72/71/43 40/72/43
f 70/73/44 152/74/45 149/75/46
f 161/76/47 75/77/48 164/78/49
f 60/79/50 122/80/51 119/81/52
f 13/82/2 76/83/53 44/84/53
f 167/85/54 45/86/55 172/87/56
f 158/88/57 74/89/58 161/76/47
f 257/90/59 255/91/60 259/92/61
f 59/93/62 119/81/52 116/94/63
f 262/95/64 268/96/65 264/97/66
f 85/98/67 87/99/68 88/100/69
f 69/101/70 149/75/46 146/102/71
f 66/103/72 140/104/73 137/105/74
f 140/104/73 68/106/75 143/107/76
f 65/108/77 137/105/74 134/109/78
f 143/107/76 69/101/70 146/102/71
f 110/110/79 58/111/80 113/112/81
f 125/113/82 63/114/83 128/115/84
f 61/116/85 125/113/82 122/80/51
f 81/67/40 83/117/86 84/118/87
f 56/119/88 110/110/79 107/120/89
f 50/121/90 86/122/91 49/123/92
f 58/111/80 116/94/63 113/112/81
f 84/124/87 82/125/93 81/126/40
f 131/127/94 135/128/95 132/129/96
f 53/130/97 101/131/98 98/132/99
f 45/86/55 77/133/100 172/87/56
f 93/134/36 97/135/101 94/136/102
f 80/137/39 48/138/103 83/139/86
f 81/126/40 79/140/104 78/141/38
f 83/139/86 49/123/92 86/122/91
f 200/142/105 203/143/106 199/7/3
f 51/144/107 89/145/108 50/121/90
f 47/146/109 77/133/100 46/147/110
f 261/148/111 259/92/61 263/149/112
f 171/150/113 77/151/100 78/65/38
f 170/152/114 78/141/38 79/140/104
f 51/144/107 95/153/35 92/154/37
f 101/131/98 55/155/115 104/156/116
f 55/155/115 107/120/89 104/156/116
f 91/157/117 93/134/36 94/136/102
f 109/158/118 111/159/119 112/160/120
f 101/161/98 99/162/121 98/163/99
f 88/100/69 90/164/122 91/157/117
f 84/118/87 86/165/91 87/166/68
f 92/64/37 90/167/122 89/168/108
f 38/53/29 69/169/7 37/170/7
f 107/171/89 105/172/123 104/173/116
f 235/174/124 237/175/125 233/176/126
f 105/177/123 109/158/118 106/178/127
f 98/179/99 96/180/128 95/62/35
f 123/181/129 121/182/130 120/183/131
f 37/170/7 68/57/32 36/184/32
f 105/177/123 103/185/132 102/186/133
f 100/187/134 102/186/133 103/185/132
f 96/188/128 100/189/134 97/135/101
f 118/190/135 120/183/131 121/182/130
f 113/191/81 117/192/136 114/193/137
f 127/194/138 246/195/139 242/196/140
f 110/197/79 114/193/137 111/198/119
f 114/199/137 118/190/135 115/200/141
f 126/201/142 130/202/143 127/203/144
f 167/204/54 165/205/145 164/206/49
f 111/159/119 115/200/141 112/160/120
f 228/207/20 223/208/146 224/209/147
f 128/210/84 132/129/96 129/211/148
f 119/212/52 123/213/129 120/214/131
f 122/215/51 126/216/142 123/213/129
f 116/217/63 120/214/131 117/192/136
f 183/218/149 177/219/150 179/220/151
f 129/221/148 133/222/152 130/202/143
f 125/223/82 129/211/148 126/216/142
f 134/224/78 138/225/153 135/128/95
f 157/226/154 159/227/155 160/228/156
f 135/229/95 139/230/157 136/231/158
f 146/232/71 150/233/159 147/234/160
f 184/235/161 179/220/151 180/236/162
f 140/237/73 138/225/153 137/238/74
f 141/239/163 145/240/164 142/241/165
f 139/230/157 141/239/163 142/241/165
f 153/242/166 157/226/154 154/243/167
f 144/244/168 146/232/71 147/234/160
f 148/245/169 150/246/159 151/247/170
f 140/237/73 144/244/168 141/248/163
f 155/249/171 153/242/166 152/74/45
f 156/250/172 158/251/57 159/252/155
f 178/253/173 184/254/161 180/255/162
f 217/256/174 215/257/175 219/258/176
f 169/259/177 171/260/113 170/152/114
f 211/261/178 205/262/179 207/263/180
f 179/220/151 173/264/181 175/265/182
f 162/266/183 160/228/156 159/227/155
f 166/267/184 168/268/185 169/259/177
f 189/269/186 187/270/187 191/271/188
f 294/272/189 169/273/190 298/274/191
f 180/236/162 175/265/182 176/275/192
f 187/270/187 181/276/193 183/218/149
f 162/277/183 164/206/49 165/205/145
f 168/278/185 172/279/56 171/150/113
f 186/280/194 184/254/161 182/281/195
f 178/253/173 176/282/192 174/283/196
f 163/284/197 165/285/145 166/267/184
f 151/247/170 153/242/166 154/243/167
f 190/286/198 196/287/199 192/288/200
f 195/289/201 189/269/186 191/271/188
f 124/290/202 234/291/203 121/292/204
f 188/293/205 183/218/149 184/235/161
f 186/280/194 192/288/200 188/294/205
f 188/293/205 191/271/188 187/270/187
f 202/295/206 200/296/105 198/297/207
f 195/289/201 197/9/5 193/298/208
f 196/299/199 191/271/188 192/300/200
f 206/301/209 212/302/210 208/303/211
f 135/229/95 133/222/152 132/304/96
f 208/305/211 203/143/106 204/306/212
f 220/307/213 223/208/146 219/258/176
f 196/299/199 199/7/3 195/289/201
f 104/173/116 102/308/133 101/161/98
f 218/309/214 216/310/215 214/311/216
f 206/312/209 204/313/212 202/295/206
f 215/257/175 209/314/217 211/261/178
f 61/315/8 30/45/24 62/47/24
f 207/316/180 201/8/4 203/143/106
f 150/233/159 152/74/45 153/242/166
f 225/317/218 223/208/146 227/318/219
f 210/319/220 216/310/215 212/302/210
f 208/320/211 211/261/178 207/263/180
f 226/37/18 224/321/147 222/322/221
f 159/252/155 161/323/47 162/277/183
f 247/324/222 241/325/223 243/326/224
f 240/327/225 235/174/124 236/328/226
f 234/291/203 232/38/19 230/329/227
f 222/322/221 220/330/213 218/309/214
f 147/331/160 145/240/164 144/332/168
f 220/307/213 215/257/175 216/333/215
f 209/314/217 241/325/223 273/334/228
f 268/335/65 271/336/229 267/337/230
f 243/326/224 237/175/125 239/338/231
f 252/339/232 255/91/60 251/340/233
f 274/341/234 280/342/235 276/343/236
f 234/291/203 240/344/225 236/345/226
f 251/340/233 245/346/237 247/324/222
f 244/347/238 239/338/231 240/327/225
f 107/171/89 111/198/119 108/348/239
f 260/349/240 255/91/60 256/350/241
f 275/351/242 269/352/243 271/336/229
f 54/32/16 23/353/21 55/40/21
f 228/207/20 231/354/244 227/318/219
f 127/194/138 238/355/245 124/290/202
f 242/196/140 248/356/246 244/357/238
f 270/358/247 268/96/65 266/359/248
f 250/360/249 248/356/246 246/195/139
f 251/340/233 253/361/250 249/362/251
f 248/363/246 251/340/233 247/324/222
f 280/342/235 275/351/242 276/343/236
f 296/364/252 299/365/253 295/366/254
f 263/149/112 265/367/255 261/148/111
f 248/363/246 243/326/224 244/347/238
f 64/368/256 128/115/84 63/114/83
f 258/369/257 256/370/241 254/371/258
f 264/372/66 267/337/230 263/149/112
f 87/166/68 89/168/108 90/167/122
f 131/373/94 65/108/77 134/109/78
f 79/374/259 182/281/195 178/253/173
f 264/372/66 259/92/61 260/349/240
f 258/369/257 264/97/66 260/375/240
f 250/360/249 256/370/241 252/376/232
f 287/377/260 289/378/261 285/379/262
f 269/352/243 267/337/230 271/336/229
f 270/358/247 276/343/236 272/380/263
f 112/381/264 226/37/18 222/322/221
f 244/357/238 238/355/245 242/196/140
f 232/382/19 235/174/124 231/354/244
f 275/351/242 272/383/263 276/343/236
f 292/384/265 287/377/260 288/385/266
f 283/386/267 277/387/268 279/388/269
f 290/389/270 288/390/266 286/391/271
f 152/74/45 72/392/272 155/249/171
f 292/384/265 295/366/254 291/393/273
f 284/394/274 287/377/260 283/386/267
f 282/395/275 288/390/266 284/396/274
f 298/274/191 176/282/192 300/397/276
f 290/389/270 296/398/252 292/399/265
f 97/400/277 206/312/209 202/295/206
f 103/401/278 214/311/216 210/319/220
f 295/366/254 297/402/279 293/403/280
f 94/404/281 194/405/282 91/406/283
f 20/36/17 51/407/23 19/43/23
f 85/408/284 182/281/195 82/409/285
f 278/410/286 284/396/274 280/342/235
f 230/329/227 121/292/204 234/291/203
f 170/411/287 298/274/191 169/273/190
f 219/258/176 221/412/288 217/256/174
f 16/49/26 47/413/289 15/414/289
f 176/275/192 299/365/253 300/415/276
f 246/195/139 133/416/290 250/360/249
f 194/405/282 200/296/105 196/287/199
f 270/358/247 151/417/291 274/341/234
f 254/371/258 139/418/292 258/369/257
f 109/419/293 222/322/221 218/309/214
f 115/420/294 230/329/227 226/37/18
f 216/333/215 211/261/178 212/421/210
f 298/274/191 296/398/252 294/272/189
f 126/201/142 124/422/295 123/181/129
f 274/341/234 154/423/296 278/410/286
f 95/153/35 53/424/97 98/425/99
f 262/95/64 145/426/297 266/359/248
f 163/427/298 294/272/189 290/389/270
f 160/428/299 290/389/270 286/391/271
f 142/429/300 258/369/257 139/418/292
f 266/359/248 148/430/301 270/358/247
f 157/431/302 286/391/271 282/395/275
f 15/414/289 46/21/10 14/20/10
f 250/360/249 136/432/303 254/371/258
f 190/286/198 91/406/283 194/405/282
f 278/410/286 157/431/302 282/395/275
f 279/388/269 273/334/228 275/351/242
f 43/433/304 74/434/33 42/59/33
f 299/365/253 173/264/181 297/402/279
f 40/72/43 71/435/28 39/51/28
f 283/386/267 285/379/262 281/436/305
f 291/393/273 293/403/280 289/378/261
f 75/437/304 44/84/53 76/83/53
f 284/394/274 279/388/269 280/342/235
f 155/249/171 73/438/306 158/88/57
f 76/439/307 164/78/49 75/77/48
f 231/354/244 225/317/218 227/318/219
f 34/69/42 67/58/31 66/70/42
f 79/374/259 174/283/196 170/411/287
f 231/354/244 233/176/126 229/440/308
f 206/301/209 103/401/278 210/319/220
f 198/297/207 97/400/277 202/295/206
f 186/280/194 88/441/309 190/286/198
f 109/419/293 214/311/216 106/442/310
s 0
f 3/1/1 2/443/1 8/2/1
f 8/2/1 9/444/1 11/3/1
f 11/3/1 5/4/1 3/1/1
f 5/4/2 11/3/2 12/5/2
s 1
f 199/7/3 203/143/106 201/8/4
s 0
f 10/10/6 9/50/6 8/11/6
f 12/5/7 10/10/7 7/12/7
f 7/12/311 1/445/311 4/13/311
f 4/13/312 6/6/312 12/5/312
s 1
f 29/14/8 61/315/8 60/15/9
s 0
f 2/17/8 1/445/8 7/12/8
s 1
f 45/19/2 13/82/2 14/20/10
f 58/22/11 26/25/11 27/23/12
f 26/25/11 58/22/11 57/26/13
f 18/28/14 50/44/14 49/29/15
f 21/31/1 22/446/16 54/32/16
f 59/24/12 27/23/12 28/16/9
f 21/34/1 53/447/1 52/35/17
f 226/37/18 230/329/227 232/38/19
f 55/40/21 23/353/21 24/41/22
f 56/42/22 24/41/22 25/27/13
f 19/43/23 51/407/23 50/44/14
f 30/45/24 31/448/25 63/46/25
f 17/30/15 49/29/15 48/48/26
s 0
f 12/5/27 11/449/27 9/50/27
s 1
f 39/51/28 71/435/28 70/52/29
f 63/46/25 31/448/25 32/54/30
f 35/56/31 36/184/32 68/57/32
f 42/59/33 74/434/33 73/60/34
f 95/62/35 96/180/128 93/63/36
f 78/65/38 77/151/100 80/66/39
f 65/68/41 33/450/41 34/69/42
f 32/54/30 33/450/41 65/68/41
f 41/61/34 73/60/34 72/71/43
f 70/73/44 71/451/313 152/74/45
f 161/76/47 74/89/58 75/77/48
f 60/79/50 61/116/85 122/80/51
f 13/82/2 45/19/2 76/83/53
f 167/85/54 76/439/307 45/86/55
f 158/88/57 73/438/306 74/89/58
f 257/90/59 253/361/250 255/91/60
f 59/93/62 60/79/50 119/81/52
f 262/95/64 266/359/248 268/96/65
f 85/98/67 84/124/87 87/99/68
f 69/101/70 70/73/44 149/75/46
f 66/103/72 67/452/314 140/104/73
f 140/104/73 67/452/314 68/106/75
f 65/108/77 66/103/72 137/105/74
f 143/107/76 68/106/75 69/101/70
f 110/110/79 57/453/315 58/111/80
f 125/113/82 62/454/316 63/114/83
f 61/116/85 62/454/316 125/113/82
f 81/67/40 80/66/39 83/117/86
f 56/119/88 57/453/315 110/110/79
f 50/121/90 89/145/108 86/122/91
f 58/111/80 59/93/62 116/94/63
f 84/124/87 85/98/67 82/125/93
f 131/127/94 134/224/78 135/128/95
f 53/130/97 54/455/317 101/131/98
f 45/86/55 46/147/110 77/133/100
f 93/134/36 96/188/128 97/135/101
f 80/137/39 47/146/109 48/138/103
f 81/126/40 82/125/93 79/140/104
f 83/139/86 48/138/103 49/123/92
f 200/142/105 204/306/212 203/143/106
f 51/144/107 92/154/37 89/145/108
f 47/146/109 80/137/39 77/133/100
f 261/148/111 257/90/59 259/92/61
f 171/150/113 172/279/56 77/151/100
f 170/152/114 171/260/113 78/141/38
f 51/144/107 52/456/318 95/153/35
f 101/131/98 54/455/317 55/155/115
f 55/155/115 56/119/88 107/120/89
f 91/157/117 90/164/122 93/134/36
f 109/158/118 108/457/239 111/159/119
f 101/161/98 102/308/133 99/162/121
f 88/100/69 87/99/68 90/164/122
f 84/118/87 83/117/86 86/165/91
f 92/64/37 93/63/36 90/167/122
f 38/53/29 70/52/29 69/169/7
f 107/171/89 108/348/239 105/172/123
f 235/174/124 239/338/231 237/175/125
f 105/177/123 108/457/239 109/158/118
f 98/179/99 99/458/121 96/180/128
f 123/181/129 124/422/295 121/182/130
f 37/170/7 69/169/7 68/57/32
f 105/177/123 106/178/127 103/185/132
f 100/187/134 99/459/121 102/186/133
f 96/188/128 99/460/121 100/189/134
f 118/190/135 117/461/136 120/183/131
f 113/191/81 116/217/63 117/192/136
f 127/194/138 130/462/319 246/195/139
f 110/197/79 113/191/81 114/193/137
f 114/199/137 117/461/136 118/190/135
f 126/201/142 129/221/148 130/202/143
f 167/204/54 168/278/185 165/205/145
f 111/159/119 114/199/137 115/200/141
f 228/207/20 227/318/219 223/208/146
f 128/210/84 131/127/94 132/129/96
f 119/212/52 122/215/51 123/213/129
f 122/215/51 125/223/82 126/216/142
f 116/217/63 119/212/52 120/214/131
f 183/218/149 181/276/193 177/219/150
f 129/221/148 132/304/96 133/222/152
f 125/223/82 128/210/84 129/211/148
f 134/224/78 137/238/74 138/225/153
f 157/226/154 156/250/172 159/227/155
f 135/229/95 138/463/153 139/230/157
f 146/232/71 149/464/46 150/233/159
f 184/235/161 183/218/149 179/220/151
f 140/237/73 141/248/163 138/225/153
f 141/239/163 144/332/168 145/240/164
f 139/230/157 138/463/153 141/239/163
f 153/242/166 156/250/172 157/226/154
f 144/244/168 143/465/76 146/232/71
f 148/245/169 147/331/160 150/246/159
f 140/237/73 143/465/76 144/244/168
f 155/249/171 156/250/172 153/242/166
f 156/250/172 155/249/171 158/251/57
f 178/253/173 182/281/195 184/254/161
f 217/256/174 213/466/320 215/257/175
f 169/259/177 168/268/185 171/260/113
f 211/261/178 209/314/217 205/262/179
f 179/220/151 177/219/150 173/264/181
f 162/266/183 163/284/197 160/228/156
f 166/267/184 165/285/145 168/268/185
f 189/269/186 185/467/321 187/270/187
f 294/272/189 166/468/322 169/273/190
f 180/236/162 179/220/151 175/265/182
f 187/270/187 185/467/321 181/276/193
f 162/277/183 161/323/47 164/206/49
f 168/278/185 167/204/54 172/279/56
f 186/280/194 188/294/205 184/254/161
f 178/253/173 180/255/162 176/282/192
f 163/284/197 162/266/183 165/285/145
f 151/247/170 150/246/159 153/242/166
f 190/286/198 194/405/282 196/287/199
f 195/289/201 193/298/208 189/269/186
f 124/290/202 238/355/245 234/291/203
f 188/293/205 187/270/187 183/218/149
f 186/280/194 190/286/198 192/288/200
f 188/293/205 192/300/200 191/271/188
f 202/295/206 204/313/212 200/296/105
f 195/289/201 199/7/3 197/9/5
f 196/299/199 195/289/201 191/271/188
f 206/301/209 210/319/220 212/302/210
f 135/229/95 136/231/158 133/222/152
f 208/305/211 207/316/180 203/143/106
f 220/307/213 224/209/147 223/208/146
f 196/299/199 200/142/105 199/7/3
f 104/173/116 105/172/123 102/308/133
f 218/309/214 220/330/213 216/310/215
f 206/312/209 208/469/211 204/313/212
f 215/257/175 213/466/320 209/314/217
f 61/315/8 29/14/8 30/45/24
f 207/316/180 205/262/179 201/8/4
f 150/233/159 149/464/46 152/74/45
f 225/317/218 221/412/288 223/208/146
f 210/319/220 214/311/216 216/310/215
f 208/320/211 212/421/210 211/261/178
f 226/37/18 228/39/20 224/321/147
f 159/252/155 158/251/57 161/323/47
f 247/324/222 245/346/237 241/325/223
f 240/327/225 239/338/231 235/174/124
f 234/291/203 236/345/226 232/38/19
f 222/322/221 224/321/147 220/330/213
f 147/331/160 148/245/169 145/240/164
f 220/307/213 219/258/176 215/257/175
f 273/334/228 277/387/268 281/436/305
f 281/436/305 285/379/262 289/378/261
f 289/378/261 293/403/280 297/402/279
f 297/402/279 173/264/181 177/219/150
f 177/219/150 181/276/193 185/467/321
f 185/467/321 189/269/186 193/298/208
f 193/298/208 197/9/5 201/8/4
f 201/8/4 205/262/179 209/314/217
f 209/314/217 213/466/320 217/256/174
f 217/256/174 221/412/288 225/317/218
f 225/317/218 229/440/308 233/176/126
f 233/176/126 237/175/125 241/325/223
f 241/325/223 245/346/237 249/362/251
f 249/362/251 253/361/250 257/90/59
f 257/90/59 261/148/111 265/367/255
f 265/367/255 269/352/243 273/334/228
f 273/334/228 281/436/305 289/378/261
f 289/378/261 297/402/279 177/219/150
f 177/219/150 185/467/321 193/298/208
f 193/298/208 201/8/4 209/314/217
f 209/314/217 217/256/174 225/317/218
f 225/317/218 233/176/126 241/325/223
f 241/325/223 249/362/251 257/90/59
f 257/90/59 265/367/255 273/334/228
f 273/334/228 289/378/261 177/219/150
f 177/219/150 193/298/208 209/314/217
f 209/314/217 225/317/218 241/325/223
f 241/325/223 257/90/59 273/334/228
f 273/334/228 177/219/150 209/314/217
f 268/335/65 272/383/263 271/336/229
f 243/326/224 241/325/223 237/175/125
f 252/339/232 256/350/241 255/91/60
f 274/341/234 278/410/286 280/342/235
f 234/291/203 238/355/245 240/344/225
f 251/340/233 249/362/251 245/346/237
f 244/347/238 243/326/224 239/338/231
f 107/171/89 110/197/79 111/198/119
f 260/349/240 259/92/61 255/91/60
f 275/351/242 273/334/228 269/352/243
f 54/32/16 22/446/16 23/353/21
f 228/207/20 232/382/19 231/354/244
f 127/194/138 242/196/140 238/355/245
f 242/196/140 246/195/139 248/356/246
f 270/358/247 272/380/263 268/96/65
f 250/360/249 252/376/232 248/356/246
f 251/340/233 255/91/60 253/361/250
f 248/363/246 252/339/232 251/340/233
f 280/342/235 279/388/269 275/351/242
f 296/364/252 300/415/276 299/365/253
f 263/149/112 267/337/230 265/367/255
f 248/363/246 247/324/222 243/326/224
f 64/368/256 131/373/94 128/115/84
f 258/369/257 260/375/240 256/370/241
f 264/372/66 268/335/65 267/337/230
f 87/166/68 86/165/91 89/168/108
f 131/373/94 64/368/256 65/108/77
f 79/374/259 82/409/285 182/281/195
f 264/372/66 263/149/112 259/92/61
f 258/369/257 262/95/64 264/97/66
f 250/360/249 254/371/258 256/370/241
f 287/377/260 291/393/273 289/378/261
f 269/352/243 265/367/255 267/337/230
f 270/358/247 274/341/234 276/343/236
f 112/381/264 115/420/294 226/37/18
f 244/357/238 240/344/225 238/355/245
f 232/382/19 236/328/226 235/174/124
f 275/351/242 271/336/229 272/383/263
f 292/384/265 291/393/273 287/377/260
f 283/386/267 281/436/305 277/387/268
f 290/389/270 292/399/265 288/390/266
f 152/74/45 71/451/313 72/392/272
f 292/384/265 296/364/252 295/366/254
f 284/394/274 288/385/266 287/377/260
f 282/395/275 286/391/271 288/390/266
f 298/274/191 174/283/196 176/282/192
f 290/389/270 294/272/189 296/398/252
f 97/400/277 100/470/323 206/312/209
f 103/401/278 106/442/310 214/311/216
f 295/366/254 299/365/253 297/402/279
f 94/404/281 198/297/207 194/405/282
f 20/36/17 52/35/17 51/407/23
f 85/408/284 186/280/194 182/281/195
f 278/410/286 282/395/275 284/396/274
f 230/329/227 118/471/324 121/292/204
f 170/411/287 174/283/196 298/274/191
f 219/258/176 223/208/146 221/412/288
f 16/49/26 48/48/26 47/413/289
f 176/275/192 175/265/182 299/365/253
f 246/195/139 130/462/319 133/416/290
f 194/405/282 198/297/207 200/296/105
f 270/358/247 148/430/301 151/417/291
f 254/371/258 136/432/303 139/418/292
f 109/419/293 112/381/264 222/322/221
f 115/420/294 118/471/324 230/329/227
f 216/333/215 215/257/175 211/261/178
f 298/274/191 300/397/276 296/398/252
f 126/201/142 127/203/144 124/422/295
f 274/341/234 151/417/291 154/423/296
f 95/153/35 52/456/318 53/424/97
f 262/95/64 142/429/300 145/426/297
f 163/427/298 166/468/322 294/272/189
f 160/428/299 163/427/298 290/389/270
f 142/429/300 262/95/64 258/369/257
f 266/359/248 145/426/297 148/430/301
f 157/431/302 160/428/299 286/391/271
f 15/414/289 47/413/289 46/21/10
f 250/360/249 133/416/290 136/432/303
f 190/286/198 88/441/309 91/406/283
f 278/410/286 154/423/296 157/431/302
f 279/388/269 277/387/268 273/334/228
f 43/433/304 75/437/304 74/434/33
f 299/365/253 175/265/182 173/264/181
f 40/72/43 72/71/43 71/435/28
f 283/386/267 287/377/260 285/379/262
f 291/393/273 295/366/254 293/403/280
f 75/437/304 43/433/304 44/84/53
f 284/394/274 283/386/267 279/388/269
f 155/249/171 72/392/272 73/438/306
f 76/439/307 167/85/54 164/78/49
f 231/354/244 229/440/308 225/317/218
f 34/69/42 35/56/31 67/58/31
f 79/374/259 178/253/173 174/283/196
f 231/354/244 235/174/124 233/176/126
f 206/301/209 100/472/323 103/401/278
f 198/297/207 94/404/281 97/400/277
f 186/280/194 85/408/284 88/441/309
f 109/419/293 218/309/214 214/311/216
