# Blender 5.0.1
# www.blender.org
mtllib selector_handle.mtl
o SelectorLeverExport
g selector_handle
v -0.025000 -0.000000 -0.070000
v 0.025000 0.000000 -0.070000
v -0.025000 -0.026788 -0.064672
v 0.025000 -0.026788 -0.064672
v -0.025000 -0.049497 -0.049497
v 0.025000 -0.049497 -0.049497
v -0.025000 -0.049497 0.049497
v 0.025000 -0.049497 0.049497
v -0.025000 -0.026788 0.064672
v 0.025000 -0.026788 0.064672
v -0.025000 -0.000000 0.070000
v 0.025000 0.000000 0.070000
v -0.025000 0.026788 0.064672
v 0.025000 0.026788 0.064672
v -0.025000 0.049497 0.049497
v 0.025000 0.049497 0.049497
v -0.025000 0.064672 0.026788
v 0.025000 0.064672 0.026788
v -0.025000 0.070000 0.000000
v 0.025000 0.070000 0.000000
v -0.025000 0.064672 -0.026788
v 0.025000 0.064672 -0.026788
v -0.025000 0.049497 -0.049497
v 0.025000 0.049497 -0.049497
v -0.025000 0.026788 -0.064672
v 0.025000 0.026788 -0.064672
v 0.008333 0.064672 0.026788
v -0.008333 0.064672 0.026788
v 0.013966 0.070000 0.000000
v -0.013966 0.070000 0.000000
v 0.008333 0.064672 -0.026788
v -0.008333 0.064672 -0.026788
v -0.013966 0.066870 -0.013965
v 0.013966 0.066870 -0.013965
v -0.013966 0.066870 0.013965
v 0.013966 0.066870 0.013965
v 0.013966 0.075053 0.013965
v -0.013966 0.075053 -0.013965
v -0.013966 0.075053 0.013965
v 0.013966 0.075053 -0.013965
v 0.039460 -0.023813 -0.057489
v 0.039460 0.000000 -0.062226
v 0.039460 -0.044001 -0.044001
v 0.039460 -0.044001 0.044001
v 0.039460 -0.023813 0.057489
v 0.039460 0.000000 0.062226
v 0.039460 0.023813 0.057489
v 0.039460 0.044001 0.044001
v 0.039460 0.057489 0.023813
v 0.039460 0.062226 0.000000
v 0.039460 0.057489 -0.023813
v 0.039460 0.044001 -0.044001
v 0.039460 0.023813 -0.057489
v -0.000000 0.066480 -0.012486
v 0.002436 0.066480 -0.012246
v 0.004778 0.066480 -0.011536
v 0.006937 0.066480 -0.010382
v 0.008829 0.066480 -0.008829
v 0.010382 0.066480 -0.006937
v 0.011535 0.066480 -0.004778
v 0.012246 0.066480 -0.002436
v 0.012486 0.066480 -0.000000
v 0.012246 0.066480 0.002436
v 0.011535 0.066480 0.004778
v 0.010382 0.066480 0.006937
v 0.008829 0.066480 0.008829
v 0.006937 0.066480 0.010382
v 0.004778 0.066480 0.011535
v 0.002436 0.066480 0.012246
v -0.000000 0.066480 0.012486
v -0.002436 0.066480 0.012246
v -0.004778 0.066480 0.011535
v -0.006937 0.066480 0.010382
v -0.008829 0.066480 0.008829
v -0.010382 0.066480 0.006937
v -0.011535 0.066480 0.004778
v -0.012246 0.066480 0.002436
v -0.012486 0.066480 -0.000000
v -0.012246 0.066480 -0.002436
v -0.011535 0.066480 -0.004778
v -0.010382 0.066480 -0.006937
v -0.008829 0.066480 -0.008829
v -0.006937 0.066480 -0.010382
v -0.004778 0.066480 -0.011536
v -0.002436 0.066480 -0.012246
v -0.000000 0.078920 -0.012486
v 0.000000 0.081143 -0.023653
v 0.000000 0.083478 -0.023653
v -0.000000 0.085715 -0.009952
v 0.001942 0.085715 -0.009761
v 0.004615 0.083478 -0.023199
v 0.004615 0.081143 -0.023199
v 0.002436 0.078920 -0.012246
v 0.003809 0.085715 -0.009195
v 0.009052 0.083478 -0.021853
v 0.009052 0.081143 -0.021853
v 0.004778 0.078920 -0.011536
v 0.005529 0.085715 -0.008275
v 0.013141 0.083478 -0.019667
v 0.013141 0.081143 -0.019667
v 0.006937 0.078920 -0.010382
v 0.007037 0.085715 -0.007037
v 0.016725 0.083478 -0.016725
v 0.016725 0.081143 -0.016725
v 0.008829 0.078920 -0.008829
v 0.008275 0.085715 -0.005529
v 0.019667 0.083478 -0.013141
v 0.019667 0.081143 -0.013141
v 0.010382 0.078920 -0.006937
v 0.009195 0.085715 -0.003809
v 0.021853 0.083478 -0.009052
v 0.021853 0.081143 -0.009052
v 0.011535 0.078920 -0.004778
v 0.009761 0.085715 -0.001941
v 0.023199 0.083478 -0.004615
v 0.023199 0.081143 -0.004615
v 0.012246 0.078920 -0.002436
v 0.009953 0.085715 0.000000
v 0.023653 0.083478 0.000000
v 0.023653 0.081143 0.000000
v 0.012486 0.078920 -0.000000
v 0.009761 0.085715 0.001942
v 0.023199 0.083478 0.004615
v 0.023199 0.081143 0.004615
v 0.012246 0.078920 0.002436
v 0.009195 0.085715 0.003809
v 0.021853 0.083478 0.009052
v 0.021853 0.081143 0.009052
v 0.011535 0.078920 0.004778
v 0.008275 0.085715 0.005529
v 0.019667 0.083478 0.013141
v 0.019667 0.081143 0.013141
v 0.010382 0.078920 0.006937
v 0.007037 0.085715 0.007038
v 0.016725 0.083478 0.016725
v 0.016725 0.081143 0.016725
v 0.008829 0.078920 0.008829
v 0.005529 0.085715 0.008275
v 0.013141 0.083478 0.019667
v 0.013141 0.081143 0.019667
v 0.006937 0.078920 0.010382
v 0.003809 0.085715 0.009195
v 0.009052 0.083478 0.021853
v 0.009052 0.081143 0.021853
v 0.004778 0.078920 0.011535
v 0.001942 0.085715 0.009761
v 0.004615 0.083478 0.023199
v 0.004615 0.081143 0.023199
v 0.002436 0.078920 0.012246
v -0.000000 0.085715 0.009953
v 0.000000 0.083478 0.023653
v 0.000000 0.081143 0.023653
v -0.000000 0.078920 0.012486
v -0.001942 0.085715 0.009761
v -0.004614 0.083478 0.023199
v -0.004614 0.081143 0.023199
v -0.002436 0.078920 0.012246
v -0.003809 0.085715 0.009195
v -0.009052 0.083478 0.021853
v -0.009052 0.081143 0.021853
v -0.004778 0.078920 0.011535
v -0.005529 0.085715 0.008275
v -0.013141 0.083478 0.019667
v -0.013141 0.081143 0.019667
v -0.006937 0.078920 0.010382
v -0.007038 0.085715 0.007038
v -0.016725 0.083478 0.016725
v -0.016725 0.081143 0.016725
v -0.008829 0.078920 0.008829
v -0.008275 0.085715 0.005529
v -0.019667 0.083478 0.013141
v -0.019667 0.081143 0.013141
v -0.010382 0.078920 0.006937
v -0.009195 0.085715 0.003809
v -0.021853 0.083478 0.009052
v -0.021853 0.081143 0.009052
v -0.011535 0.078920 0.004778
v -0.009761 0.085715 0.001942
v -0.023199 0.083478 0.004615
v -0.023199 0.081143 0.004615
v -0.012246 0.078920 0.002436
v -0.009953 0.085715 0.000000
v -0.023653 0.083478 0.000000
v -0.023653 0.081143 0.000000
v -0.012486 0.078920 -0.000000
v -0.009761 0.085715 -0.001941
v -0.023199 0.083478 -0.004615
v -0.023199 0.081143 -0.004615
v -0.012246 0.078920 -0.002436
v -0.009195 0.085715 -0.003809
v -0.021853 0.083478 -0.009052
v -0.021853 0.081143 -0.009052
v -0.011535 0.078920 -0.004778
v -0.008275 0.085715 -0.005529
v -0.019667 0.083478 -0.013141
v -0.019667 0.081143 -0.013141
v -0.010382 0.078920 -0.006937
v -0.007038 0.085715 -0.007037
v -0.016725 0.083478 -0.016725
v -0.016725 0.081143 -0.016725
v -0.008829 0.078920 -0.008829
v -0.005529 0.085715 -0.008275
v -0.013141 0.083478 -0.019667
v -0.013141 0.081143 -0.019667
v -0.006937 0.078920 -0.010382
v -0.003809 0.085715 -0.009195
v -0.009052 0.083478 -0.021853
v -0.009052 0.081143 -0.021853
v -0.004778 0.078920 -0.011536
v -0.001942 0.085715 -0.009761
v -0.004614 0.083478 -0.023199
v -0.004614 0.081143 -0.023199
v -0.002436 0.078920 -0.012246
v -0.000000 0.196142 -0.002438
v -0.000000 0.186145 -0.012257
v -0.000000 0.195381 -0.006265
v -0.000000 0.193214 -0.009476
v -0.000000 0.189970 -0.011580
v 0.000476 0.196142 -0.002391
v 0.002391 0.186145 -0.012021
v 0.001222 0.195381 -0.006145
v 0.001849 0.193214 -0.009294
v 0.002259 0.189970 -0.011357
v 0.000933 0.196142 -0.002252
v 0.004690 0.186145 -0.011324
v 0.002398 0.195381 -0.005789
v 0.003626 0.193214 -0.008754
v 0.004431 0.189970 -0.010698
v 0.001354 0.196142 -0.002027
v 0.006809 0.186145 -0.010191
v 0.003481 0.195381 -0.005210
v 0.005264 0.193214 -0.007879
v 0.006433 0.189970 -0.009628
v 0.001724 0.196142 -0.001724
v 0.008667 0.186145 -0.008667
v 0.004430 0.195381 -0.004430
v 0.006700 0.193214 -0.006700
v 0.008188 0.189970 -0.008188
v 0.002027 0.196142 -0.001354
v 0.010191 0.186145 -0.006809
v 0.005209 0.195381 -0.003481
v 0.007879 0.193214 -0.005264
v 0.009628 0.189970 -0.006433
v 0.002252 0.196142 -0.000933
v 0.011324 0.186145 -0.004690
v 0.005788 0.195381 -0.002398
v 0.008754 0.193214 -0.003626
v 0.010698 0.189970 -0.004431
v 0.002391 0.196142 -0.000476
v 0.012021 0.186145 -0.002391
v 0.006145 0.195381 -0.001222
v 0.009294 0.193214 -0.001849
v 0.011357 0.189970 -0.002259
v 0.002437 0.196142 -0.000000
v 0.012257 0.186145 -0.000000
v 0.006265 0.195381 -0.000000
v 0.009476 0.193214 -0.000000
v 0.011579 0.189970 -0.000000
v 0.002391 0.196142 0.000475
v 0.012021 0.186145 0.002391
v 0.006145 0.195381 0.001222
v 0.009294 0.193214 0.001848
v 0.011357 0.189970 0.002259
v 0.002252 0.196142 0.000933
v 0.011324 0.186145 0.004690
v 0.005788 0.195381 0.002398
v 0.008754 0.193214 0.003626
v 0.010698 0.189970 0.004431
v 0.002027 0.196142 0.001354
v 0.010191 0.186145 0.006809
v 0.005209 0.195381 0.003481
v 0.007879 0.193214 0.005264
v 0.009628 0.189970 0.006433
v 0.001724 0.196142 0.001723
v 0.008667 0.186145 0.008667
v 0.004430 0.195381 0.004430
v 0.006700 0.193214 0.006700
v 0.008188 0.189970 0.008188
v 0.001354 0.196142 0.002027
v 0.006809 0.186145 0.010191
v 0.003481 0.195381 0.005209
v 0.005264 0.193214 0.007879
v 0.006433 0.189970 0.009628
v 0.000933 0.196142 0.002252
v 0.004690 0.186145 0.011323
v 0.002398 0.195381 0.005788
v 0.003626 0.193214 0.008754
v 0.004431 0.189970 0.010698
v 0.000476 0.196142 0.002391
v 0.002391 0.186145 0.012021
v 0.001222 0.195381 0.006145
v 0.001849 0.193214 0.009293
v 0.002259 0.189970 0.011357
v -0.000000 0.196142 0.002437
v -0.000000 0.186145 0.012256
v -0.000000 0.195381 0.006265
v -0.000000 0.193214 0.009475
v -0.000000 0.189970 0.011579
v -0.000476 0.196142 0.002391
v -0.002391 0.186145 0.012021
v -0.001222 0.195381 0.006145
v -0.001849 0.193214 0.009293
v -0.002259 0.189970 0.011357
v -0.000933 0.196142 0.002252
v -0.004690 0.186145 0.011323
v -0.002398 0.195381 0.005788
v -0.003626 0.193214 0.008754
v -0.004431 0.189970 0.010698
v -0.001354 0.196142 0.002027
v -0.006809 0.186145 0.010191
v -0.003481 0.195381 0.005209
v -0.005264 0.193214 0.007879
v -0.006433 0.189970 0.009628
v -0.001724 0.196142 0.001723
v -0.008667 0.186145 0.008667
v -0.004430 0.195381 0.004430
v -0.006700 0.193214 0.006700
v -0.008188 0.189970 0.008188
v -0.002027 0.196142 0.001354
v -0.010191 0.186145 0.006809
v -0.005209 0.195381 0.003481
v -0.007879 0.193214 0.005264
v -0.009628 0.189970 0.006433
v -0.002252 0.196142 0.000933
v -0.011324 0.186145 0.004690
v -0.005788 0.195381 0.002398
v -0.008754 0.193214 0.003626
v -0.010698 0.189970 0.004431
v -0.002391 0.196142 0.000475
v -0.012021 0.186145 0.002391
v -0.006145 0.195381 0.001222
v -0.009294 0.193214 0.001848
v -0.011357 0.189970 0.002259
v -0.002437 0.196142 -0.000000
v -0.012257 0.186145 -0.000000
v -0.006265 0.195381 -0.000000
v -0.009476 0.193214 -0.000000
v -0.011579 0.189970 -0.000000
v -0.002391 0.196142 -0.000476
v -0.012021 0.186145 -0.002391
v -0.006145 0.195381 -0.001222
v -0.009294 0.193214 -0.001849
v -0.011357 0.189970 -0.002259
v -0.002252 0.196142 -0.000933
v -0.011324 0.186145 -0.004690
v -0.005788 0.195381 -0.002398
v -0.008754 0.193214 -0.003626
v -0.010698 0.189970 -0.004431
v -0.002027 0.196142 -0.001354
v -0.010191 0.186145 -0.006809
v -0.005209 0.195381 -0.003481
v -0.007879 0.193214 -0.005264
v -0.009628 0.189970 -0.006433
v -0.001724 0.196142 -0.001724
v -0.008667 0.186145 -0.008667
v -0.004430 0.195381 -0.004430
v -0.006700 0.193214 -0.006700
v -0.008188 0.189970 -0.008188
v -0.001354 0.196142 -0.002027
v -0.006809 0.186145 -0.010191
v -0.003481 0.195381 -0.005210
v -0.005264 0.193214 -0.007879
v -0.006433 0.189970 -0.009628
v -0.000933 0.196142 -0.002252
v -0.004690 0.186145 -0.011324
v -0.002398 0.195381 -0.005789
v -0.003626 0.193214 -0.008754
v -0.004431 0.189970 -0.010698
v -0.000476 0.196142 -0.002391
v -0.002391 0.186145 -0.012021
v -0.001222 0.195381 -0.006145
v -0.001849 0.193214 -0.009294
v -0.002259 0.189970 -0.011357
vn 0.2373 -0.0000 -0.9714
vn -0.0000 -0.3827 -0.9239
vn -0.0000 -0.0000 -1.0000
vn 0.2373 -0.3718 -0.8975
vn -0.0000 -0.5556 -0.8315
vn 0.2330 -0.5403 0.8086
vn -0.0000 -0.3827 0.9239
vn -0.0000 -0.5556 0.8315
vn 0.2373 -0.3718 0.8975
vn -0.0000 -0.0000 1.0000
vn 0.2373 -0.0000 0.9714
vn -0.0000 0.3827 0.9239
vn 0.2373 0.3718 0.8975
vn -0.0000 0.7071 0.7071
vn 0.2373 0.6869 0.6869
vn -0.0000 0.9289 0.3704
vn 0.0034 0.9278 0.3731
vn 0.2343 0.8992 0.3696
vn -0.0075 0.9999 -0.0091
vn -0.0309 0.9804 0.1946
vn 0.2347 0.9721 -0.0020
vn -0.0034 0.9278 -0.3731
vn -0.0910 0.9865 -0.1364
vn 0.2373 0.6869 -0.6869
vn -0.0000 0.7071 -0.7071
vn -0.0000 0.3827 -0.9239
vn 0.2373 0.3718 -0.8975
vn 0.0075 0.9999 0.0091
vn 0.0309 0.9804 -0.1946
vn 0.0062 0.9257 -0.3782
vn -0.0000 0.9289 -0.3704
vn 0.0910 0.9865 0.1364
vn 0.0053 1.0000 0.0038
vn 1.0000 -0.0000 -0.0000
vn -0.0000 1.0000 -0.0000
vn -1.0000 -0.0000 -0.0000
vn 0.4735 -0.3371 0.8137
vn 0.4735 -0.0000 0.8808
vn 0.4735 -0.3371 -0.8137
vn 0.4735 0.8137 -0.3371
vn 0.2373 0.8975 -0.3718
vn 0.4735 0.8137 0.3371
vn 0.4735 -0.0000 -0.8808
vn 0.4735 0.3371 0.8137
vn 0.4735 0.6228 -0.6228
vn 0.4664 -0.4914 -0.7355
vn 0.2330 -0.5403 -0.8086
vn 0.4735 0.8808 -0.0000
vn 0.4735 0.6228 0.6228
vn 0.4735 0.3371 -0.8137
vn -0.1951 -0.0000 -0.9808
vn -0.1537 -0.6156 -0.7729
vn -0.0000 -0.9808 -0.1952
vn -0.0381 -0.9808 -0.1915
vn -0.1518 0.6284 -0.7630
vn -0.0000 -0.6156 -0.7881
vn -0.0000 0.9869 -0.1611
vn -0.0000 0.6284 -0.7779
vn -0.3827 -0.0000 -0.9239
vn -0.3016 -0.6156 -0.7281
vn -0.0747 -0.9808 -0.1804
vn -0.2977 0.6284 -0.7187
vn -0.0314 0.9869 -0.1580
vn -0.5556 -0.0000 -0.8315
vn -0.4378 -0.6156 -0.6553
vn -0.1085 -0.9808 -0.1623
vn -0.4322 0.6284 -0.6468
vn -0.0617 0.9869 -0.1489
vn -0.7071 -0.0000 -0.7071
vn -0.1381 -0.9808 -0.1381
vn -0.5501 0.6284 -0.5501
vn -0.5573 -0.6156 -0.5573
vn -0.0895 0.9869 -0.1340
vn -0.8315 -0.0000 -0.5556
vn -0.1623 -0.9808 -0.1085
vn -0.6553 -0.6156 -0.4378
vn -0.6468 0.6283 -0.4322
vn -0.1139 0.9869 -0.1139
vn -0.9239 -0.0000 -0.3827
vn -0.1804 -0.9808 -0.0747
vn -0.7187 0.6284 -0.2977
vn -0.7281 -0.6156 -0.3016
vn -0.1340 0.9869 -0.0895
vn -0.9808 -0.0000 -0.1951
vn -0.1915 -0.9808 -0.0381
vn -0.7630 0.6284 -0.1518
vn -0.7729 -0.6156 -0.1537
vn -0.1489 0.9869 -0.0617
vn -0.1952 -0.9808 -0.0000
vn -0.7779 0.6284 -0.0000
vn -0.7881 -0.6156 -0.0000
vn -0.1580 0.9869 -0.0314
vn -0.9808 -0.0000 0.1951
vn -0.1915 -0.9808 0.0381
vn -0.7630 0.6284 0.1518
vn -0.7729 -0.6156 0.1537
vn -0.1611 0.9869 -0.0000
vn -0.9239 -0.0000 0.3827
vn -0.1804 -0.9808 0.0747
vn -0.7187 0.6284 0.2977
vn -0.7281 -0.6156 0.3016
vn -0.1580 0.9869 0.0314
vn -0.8315 -0.0000 0.5556
vn -0.1623 -0.9808 0.1085
vn -0.6468 0.6284 0.4322
vn -0.6553 -0.6156 0.4378
vn -0.1489 0.9869 0.0617
vn -0.7071 -0.0000 0.7071
vn -0.1381 -0.9808 0.1381
vn -0.5501 0.6284 0.5501
vn -0.5573 -0.6156 0.5573
vn -0.1340 0.9869 0.0895
vn -0.5556 -0.0000 0.8315
vn -0.1085 -0.9808 0.1623
vn -0.4378 -0.6156 0.6553
vn -0.4322 0.6284 0.6468
vn -0.1139 0.9869 0.1139
vn -0.3827 -0.0000 0.9239
vn -0.0747 -0.9808 0.1804
vn -0.3016 -0.6156 0.7281
vn -0.2977 0.6283 0.7187
vn -0.0895 0.9869 0.1340
vn -0.1951 -0.0000 0.9808
vn -0.0381 -0.9808 0.1915
vn -0.1537 -0.6156 0.7729
vn -0.0314 0.9869 0.1580
vn -0.1518 0.6284 0.7630
vn -0.0000 -0.9808 0.1952
vn -0.0000 -0.6156 0.7881
vn -0.0000 0.9869 0.1611
vn -0.0000 0.6284 0.7779
vn 0.1951 -0.0000 0.9808
vn 0.0381 -0.9808 0.1915
vn 0.1537 -0.6156 0.7729
vn 0.0314 0.9869 0.1580
vn 0.1518 0.6283 0.7630
vn 0.3827 -0.0000 0.9239
vn 0.0747 -0.9808 0.1804
vn 0.2977 0.6284 0.7187
vn 0.3016 -0.6156 0.7281
vn 0.0617 0.9869 0.1489
vn 0.5556 -0.0000 0.8315
vn 0.1085 -0.9808 0.1623
vn 0.4378 -0.6156 0.6553
vn 0.0895 0.9869 0.1340
vn 0.4322 0.6284 0.6468
vn 0.7071 -0.0000 0.7071
vn 0.5573 -0.6156 0.5573
vn 0.1380 -0.9808 0.1380
vn 0.1139 0.9869 0.1139
vn 0.5501 0.6283 0.5501
vn 0.8315 -0.0000 0.5556
vn 0.6553 -0.6156 0.4378
vn 0.1623 -0.9808 0.1085
vn 0.6468 0.6284 0.4322
vn 0.1340 0.9869 0.0895
vn 0.9239 -0.0000 0.3827
vn 0.7281 -0.6156 0.3016
vn 0.1804 -0.9808 0.0747
vn 0.7187 0.6284 0.2977
vn 0.1489 0.9869 0.0617
vn 0.9808 -0.0000 0.1951
vn 0.7729 -0.6156 0.1537
vn 0.1915 -0.9808 0.0381
vn 0.7630 0.6284 0.1518
vn 0.1580 0.9869 0.0314
vn 0.7881 -0.6156 -0.0000
vn 0.1952 -0.9808 -0.0000
vn 0.7779 0.6284 -0.0000
vn 0.1611 0.9869 -0.0000
vn 0.9808 -0.0000 -0.1951
vn 0.7729 -0.6156 -0.1537
vn 0.1915 -0.9808 -0.0381
vn 0.7630 0.6284 -0.1518
vn 0.1580 0.9869 -0.0314
vn 0.9239 -0.0000 -0.3827
vn 0.7281 -0.6156 -0.3016
vn 0.1804 -0.9808 -0.0747
vn 0.7187 0.6284 -0.2977
vn 0.1489 0.9869 -0.0617
vn 0.8315 -0.0000 -0.5556
vn 0.6553 -0.6156 -0.4378
vn 0.1623 -0.9808 -0.1085
vn 0.6468 0.6284 -0.4322
vn 0.1340 0.9869 -0.0895
vn 0.7071 -0.0000 -0.7071
vn 0.5573 -0.6156 -0.5573
vn 0.1381 -0.9808 -0.1381
vn 0.1139 0.9869 -0.1139
vn 0.5501 0.6283 -0.5501
vn 0.5556 -0.0000 -0.8315
vn 0.4378 -0.6156 -0.6553
vn 0.1085 -0.9808 -0.1623
vn 0.4322 0.6284 -0.6468
vn 0.0895 0.9869 -0.1340
vn 0.3827 -0.0000 -0.9239
vn 0.3016 -0.6156 -0.7281
vn 0.0747 -0.9808 -0.1804
vn 0.2977 0.6284 -0.7187
vn 0.0617 0.9869 -0.1489
vn 0.1951 -0.0000 -0.9808
vn 0.1537 -0.6156 -0.7729
vn 0.0381 -0.9808 -0.1915
vn 0.1518 0.6283 -0.7630
vn 0.0314 0.9869 -0.1580
vn 0.1945 0.0756 -0.9780
vn -0.0000 0.3624 -0.9320
vn 0.1818 0.3624 -0.9141
vn 0.1404 0.6944 -0.7058
vn -0.0000 0.9186 -0.3952
vn 0.0771 0.9186 -0.3877
vn -0.0000 0.9946 -0.1040
vn 0.0203 0.9946 -0.1022
vn 0.3567 0.3624 -0.8611
vn 0.3816 0.0756 -0.9212
vn 0.2754 0.6944 -0.6648
vn 0.1513 0.9186 -0.3652
vn 0.0398 0.9946 -0.0961
vn 0.5178 0.3624 -0.7750
vn 0.5540 0.0756 -0.8291
vn 0.3998 0.6944 -0.5983
vn 0.2196 0.9186 -0.3286
vn 0.0578 0.9946 -0.0865
vn 0.6590 0.3624 -0.6590
vn 0.7051 0.0756 -0.7051
vn 0.5088 0.6944 -0.5088
vn 0.2795 0.9186 -0.2795
vn 0.0736 0.9946 -0.0736
vn 0.7750 0.3624 -0.5178
vn 0.8291 0.0756 -0.5540
vn 0.5983 0.6944 -0.3998
vn 0.3286 0.9186 -0.2196
vn 0.0865 0.9946 -0.0577
vn 0.8611 0.3624 -0.3567
vn 0.9212 0.0756 -0.3816
vn 0.6648 0.6944 -0.2754
vn 0.3652 0.9186 -0.1512
vn 0.0961 0.9946 -0.0398
vn 0.9141 0.3624 -0.1818
vn 0.9780 0.0756 -0.1945
vn 0.7058 0.6944 -0.1404
vn 0.3876 0.9186 -0.0771
vn 0.1020 0.9946 -0.0203
vn 0.9320 0.3624 -0.0000
vn 0.9971 0.0756 -0.0000
vn 0.7196 0.6944 -0.0000
vn 0.3952 0.9186 -0.0000
vn 0.1040 0.9946 -0.0000
vn 0.9141 0.3624 0.1818
vn 0.9780 0.0756 0.1945
vn 0.7058 0.6944 0.1404
vn 0.3877 0.9186 0.0771
vn 0.1020 0.9946 0.0203
vn 0.8611 0.3624 0.3567
vn 0.9212 0.0756 0.3816
vn 0.6648 0.6944 0.2754
vn 0.3652 0.9186 0.1513
vn 0.0961 0.9946 0.0398
vn 0.7750 0.3624 0.5178
vn 0.8291 0.0756 0.5540
vn 0.5983 0.6944 0.3998
vn 0.3286 0.9186 0.2196
vn 0.0865 0.9946 0.0577
vn 0.7051 0.0756 0.7051
vn 0.6590 0.3624 0.6590
vn 0.5088 0.6944 0.5088
vn 0.2795 0.9186 0.2795
vn 0.0736 0.9946 0.0736
vn 0.5540 0.0756 0.8291
vn 0.5178 0.3624 0.7750
vn 0.3998 0.6944 0.5983
vn 0.2196 0.9186 0.3286
vn 0.0578 0.9946 0.0865
vn 0.3816 0.0756 0.9212
vn 0.3567 0.3624 0.8611
vn 0.2754 0.6944 0.6648
vn 0.1513 0.9186 0.3652
vn 0.0398 0.9946 0.0961
vn 0.1818 0.3624 0.9141
vn 0.1945 0.0756 0.9780
vn 0.1404 0.6944 0.7058
vn 0.0771 0.9186 0.3876
vn 0.0203 0.9946 0.1020
vn -0.0000 0.0756 0.9971
vn -0.0000 0.3624 0.9320
vn -0.0000 0.6944 0.7196
vn -0.0000 0.9186 0.3952
vn -0.0000 0.9946 0.1040
vn -0.1818 0.3624 0.9141
vn -0.1945 0.0756 0.9780
vn -0.1404 0.6944 0.7058
vn -0.0771 0.9186 0.3876
vn -0.0203 0.9946 0.1022
vn -0.3816 0.0756 0.9212
vn -0.3567 0.3624 0.8611
vn -0.2754 0.6944 0.6648
vn -0.1513 0.9186 0.3652
vn -0.0398 0.9946 0.0961
vn -0.5178 0.3624 0.7750
vn -0.5540 0.0756 0.8291
vn -0.3998 0.6944 0.5983
vn -0.2196 0.9186 0.3286
vn -0.0578 0.9946 0.0865
vn -0.6590 0.3624 0.6590
vn -0.7051 0.0756 0.7051
vn -0.5088 0.6944 0.5088
vn -0.2795 0.9186 0.2795
vn -0.0736 0.9946 0.0735
vn -0.8291 0.0756 0.5540
vn -0.7750 0.3624 0.5178
vn -0.5983 0.6944 0.3998
vn -0.3286 0.9186 0.2196
vn -0.0865 0.9946 0.0579
vn -0.9212 0.0756 0.3816
vn -0.8611 0.3624 0.3567
vn -0.6648 0.6944 0.2754
vn -0.3652 0.9186 0.1513
vn -0.0961 0.9946 0.0398
vn -0.9780 0.0756 0.1945
vn -0.9141 0.3624 0.1818
vn -0.7058 0.6944 0.1404
vn -0.3876 0.9186 0.0771
vn -0.1020 0.9946 0.0203
vn -0.9971 0.0756 -0.0000
vn -0.9320 0.3624 -0.0000
vn -0.7196 0.6944 -0.0000
vn -0.3952 0.9186 -0.0000
vn -0.1040 0.9946 -0.0000
vn -0.9780 0.0756 -0.1945
vn -0.9141 0.3624 -0.1818
vn -0.7058 0.6944 -0.1404
vn -0.3876 0.9186 -0.0771
vn -0.1020 0.9946 -0.0203
vn -0.9212 0.0756 -0.3816
vn -0.8611 0.3624 -0.3567
vn -0.6648 0.6944 -0.2754
vn -0.3652 0.9186 -0.1513
vn -0.0961 0.9946 -0.0398
vn -0.8291 0.0756 -0.5540
vn -0.7750 0.3624 -0.5178
vn -0.5983 0.6944 -0.3998
vn -0.3286 0.9186 -0.2196
vn -0.0865 0.9946 -0.0577
vn -0.7051 0.0756 -0.7051
vn -0.6590 0.3624 -0.6590
vn -0.5088 0.6944 -0.5088
vn -0.2795 0.9186 -0.2795
vn -0.0736 0.9946 -0.0736
vn -0.5540 0.0756 -0.8291
vn -0.5178 0.3624 -0.7750
vn -0.3998 0.6944 -0.5983
vn -0.2196 0.9186 -0.3286
vn -0.0578 0.9946 -0.0863
vn -0.3816 0.0756 -0.9212
vn -0.3567 0.3624 -0.8611
vn -0.2754 0.6944 -0.6648
vn -0.1513 0.9186 -0.3652
vn -0.0398 0.9946 -0.0961
vn -0.1945 0.0756 -0.9780
vn -0.1818 0.3624 -0.9141
vn -0.1404 0.6944 -0.7058
vn -0.0771 0.9186 -0.3877
vn -0.0203 0.9946 -0.1020
vn -0.0000 0.0756 -0.9971
vn -0.0000 0.6944 -0.7196
vn 0.1950 -0.0229 -0.9805
vn -0.0000 -0.0229 -0.9997
vn -0.1950 -0.0229 -0.9805
vn 0.3826 -0.0229 -0.9236
vn 0.5554 -0.0229 -0.8313
vn 0.7069 -0.0229 -0.7069
vn 0.8313 -0.0229 -0.5554
vn 0.9236 -0.0229 -0.3826
vn 0.9805 -0.0229 -0.1950
vn 0.9997 -0.0229 -0.0000
vn 0.9805 -0.0229 0.1950
vn 0.9236 -0.0229 0.3826
vn 0.8313 -0.0229 0.5554
vn 0.7069 -0.0229 0.7069
vn 0.5554 -0.0229 0.8313
vn 0.3826 -0.0229 0.9236
vn 0.1950 -0.0229 0.9805
vn -0.0000 -0.0229 0.9997
vn -0.1950 -0.0229 0.9805
vn -0.3826 -0.0229 0.9236
vn -0.5554 -0.0229 0.8313
vn -0.7069 -0.0229 0.7069
vn -0.8313 -0.0229 0.5554
vn -0.9236 -0.0229 0.3826
vn -0.9805 -0.0229 0.1950
vn -0.9997 -0.0229 -0.0000
vn -0.9805 -0.0229 -0.1950
vn -0.9236 -0.0229 -0.3826
vn -0.8313 -0.0229 -0.5554
vn -0.7069 -0.0229 -0.7069
vn -0.5554 -0.0229 -0.8313
vn -0.3826 -0.0229 -0.9236
vn -0.0000 0.9239 0.3827
vn 0.4664 -0.4914 0.7355
vn -0.0617 0.9869 0.1489
vt 0.086544 0.580638
vt 0.000712 0.627524
vt 0.000712 0.580638
vt 0.086544 0.627524
vt 0.000712 0.674409
vt 0.086546 0.111774
vt 0.000714 0.158659
vt 0.000714 0.111773
vt 0.086546 0.158659
vt 0.000714 0.205545
vt 0.086545 0.205545
vt 0.000714 0.252430
vt 0.086545 0.252430
vt 0.000714 0.299316
vt 0.086545 0.299316
vt 0.057933 0.346200
vt 0.029325 0.346200
vt 0.086544 0.346203
vt 0.067607 0.393091
vt 0.067599 0.368531
vt 0.086547 0.393091
vt 0.057933 0.439982
vt 0.067599 0.417651
vt 0.086544 0.486866
vt 0.000712 0.486866
vt 0.000712 0.533752
vt 0.086544 0.533752
vt 0.019651 0.393091
vt 0.019659 0.417651
vt 0.000714 0.439979
vt 0.029324 0.439982
vt 0.019659 0.368531
vt 0.000711 0.393091
vt 0.461664 0.993994
vt 0.437692 0.985320
vt 0.485637 0.985320
vt 0.423646 0.937372
vt 0.423646 0.985320
vt 0.485637 0.937372
vt 0.437692 0.937372
vt 0.485637 0.999367
vt 0.499683 0.937372
vt 0.437692 0.923325
vt 0.461664 0.928698
vt 0.175862 0.798820
vt 0.072586 0.816906
vt 0.134243 0.760811
vt 0.175862 0.114316
vt 0.072586 0.096231
vt 0.106501 0.051214
vt 0.308628 0.456568
vt 0.244565 0.373569
vt 0.299965 0.363199
vt 0.274274 0.640119
vt 0.244565 0.539568
vt 0.299965 0.549937
vt 0.232430 0.189102
vt 0.134243 0.152325
vt 0.232430 0.724035
vt 0.184529 0.694331
vt 0.221726 0.293402
vt 0.274274 0.273018
vt 0.001661 0.052437
vt 0.026716 0.001949
vt 0.026716 0.911187
vt 0.106501 0.861922
vt 0.252265 0.456568
vt 0.221726 0.619735
vt 0.184529 0.218805
vt 0.223589 0.143681
vt 0.244943 0.139480
vt 0.244943 0.143681
vt 0.750936 0.182888
vt 0.769651 0.174810
vt 0.770089 0.178989
vt 0.738559 0.178823
vt 0.745755 0.173565
vt 0.742128 0.180650
vt 0.731559 0.172940
vt 0.724766 0.149522
vt 0.738481 0.169010
vt 0.223589 0.147883
vt 0.244943 0.147883
vt 0.753266 0.190499
vt 0.771319 0.183007
vt 0.734932 0.185908
vt 0.738501 0.187735
vt 0.724010 0.175463
vt 0.721854 0.151175
vt 0.223589 0.152085
vt 0.244943 0.152085
vt 0.757010 0.197523
vt 0.773295 0.186715
vt 0.731305 0.192993
vt 0.734874 0.194820
vt 0.716116 0.176485
vt 0.718677 0.152237
vt 0.223589 0.156286
vt 0.244943 0.156286
vt 0.775944 0.189976
vt 0.727677 0.200078
vt 0.731247 0.201906
vt 0.708173 0.175968
vt 0.715356 0.152667
vt 0.223589 0.160488
vt 0.244943 0.160488
vt 0.779169 0.192670
vt 0.762028 0.203701
vt 0.727619 0.208991
vt 0.700478 0.173931
vt 0.712014 0.152449
vt 0.244943 0.164690
vt 0.782849 0.194697
vt 0.768136 0.208805
vt 0.720423 0.214249
vt 0.723992 0.216076
vt 0.693320 0.170451
vt 0.708776 0.151592
vt 0.244943 0.168891
vt 0.223589 0.164690
vt 0.786849 0.195982
vt 0.775108 0.212645
vt 0.716796 0.221334
vt 0.720365 0.223161
vt 0.686966 0.165657
vt 0.705764 0.150128
vt 0.223589 0.173093
vt 0.244943 0.173093
vt 0.791021 0.196479
vt 0.782686 0.215080
vt 0.713169 0.228419
vt 0.716738 0.230246
vt 0.681654 0.159729
vt 0.703090 0.148111
vt 0.244943 0.042842
vt 0.223589 0.038640
vt 0.244943 0.038640
vt 0.797790 0.195560
vt 0.795605 0.215826
vt 0.793668 0.196376
vt 0.825609 0.008778
vt 0.832806 0.003520
vt 0.829179 0.010605
vt 0.676266 0.149768
vt 0.700059 0.144434
vt 0.679761 0.156919
vt 0.223589 0.047043
vt 0.244943 0.047043
vt 0.801679 0.193970
vt 0.803413 0.214280
vt 0.821982 0.015863
vt 0.825551 0.017691
vt 0.674214 0.142077
vt 0.698589 0.141425
vt 0.223589 0.051245
vt 0.244943 0.051245
vt 0.805192 0.191666
vt 0.810781 0.211268
vt 0.818355 0.022949
vt 0.821924 0.024776
vt 0.673681 0.134136
vt 0.697725 0.138189
vt 0.244943 0.055447
vt 0.808200 0.188731
vt 0.817436 0.206902
vt 0.814728 0.030034
vt 0.818297 0.031861
vt 0.674688 0.126240
vt 0.697501 0.134848
vt 0.244943 0.059648
vt 0.223589 0.055447
vt 0.810589 0.185275
vt 0.823133 0.201343
vt 0.814670 0.038946
vt 0.677196 0.118686
vt 0.697924 0.131525
vt 0.223589 0.063850
vt 0.244943 0.063850
vt 0.812274 0.181426
vt 0.827660 0.194796
vt 0.811043 0.046031
vt 0.811101 0.037119
vt 0.681112 0.111756
vt 0.698980 0.128347
vt 0.244943 0.068052
vt 0.813191 0.177326
vt 0.830851 0.187504
vt 0.807416 0.053116
vt 0.807474 0.044204
vt 0.702806 0.122887
vt 0.686289 0.105710
vt 0.244943 0.072253
vt 0.223589 0.068052
vt 0.813306 0.173126
vt 0.832588 0.179736
vt 0.803789 0.060202
vt 0.803847 0.051289
vt 0.705433 0.120810
vt 0.692533 0.100774
vt 0.244943 0.076455
vt 0.223589 0.072253
vt 0.812615 0.168981
vt 0.832806 0.171780
vt 0.800162 0.067287
vt 0.800220 0.058375
vt 0.708411 0.119278
vt 0.699611 0.097132
vt 0.244943 0.080657
vt 0.223589 0.076455
vt 0.811144 0.165045
vt 0.831497 0.163928
vt 0.792965 0.072545
vt 0.796535 0.074372
vt 0.711629 0.118348
vt 0.707258 0.094922
vt 0.223589 0.084858
vt 0.244943 0.084858
vt 0.808946 0.161464
vt 0.828710 0.156473
vt 0.792907 0.081457
vt 0.714965 0.118055
vt 0.715187 0.094226
vt 0.244943 0.089060
vt 0.819164 0.143826
vt 0.806104 0.158369
vt 0.789280 0.088542
vt 0.789338 0.079630
vt 0.718295 0.118410
vt 0.723101 0.095070
vt 0.244943 0.093261
vt 0.223589 0.089060
vt 0.812757 0.139102
vt 0.802723 0.155876
vt 0.782084 0.093800
vt 0.785653 0.095628
vt 0.721495 0.119400
vt 0.730706 0.097421
vt 0.223589 0.097463
vt 0.244943 0.097463
vt 0.805565 0.135691
vt 0.798926 0.154075
vt 0.778457 0.100886
vt 0.782026 0.102713
vt 0.724444 0.120987
vt 0.737715 0.101194
vt 0.223589 0.101665
vt 0.244943 0.101665
vt 0.797854 0.133720
vt 0.794856 0.153035
vt 0.774830 0.107971
vt 0.778399 0.109798
vt 0.727032 0.123112
vt 0.743866 0.106245
vt 0.244943 0.105866
vt 0.789907 0.133261
vt 0.790661 0.152793
vt 0.771203 0.115056
vt 0.774772 0.116883
vt 0.729163 0.125696
vt 0.748930 0.112386
vt 0.223589 0.110068
vt 0.244943 0.110068
vt 0.782020 0.134331
vt 0.786497 0.153357
vt 0.767576 0.122141
vt 0.771145 0.123968
vt 0.730756 0.128642
vt 0.752716 0.119388
vt 0.244943 0.114270
vt 0.774483 0.136891
vt 0.782519 0.154709
vt 0.763949 0.129226
vt 0.767518 0.131054
vt 0.731752 0.131840
vt 0.755083 0.126987
vt 0.244943 0.118471
vt 0.223589 0.114270
vt 0.767575 0.140845
vt 0.778873 0.156796
vt 0.760321 0.136312
vt 0.763891 0.138139
vt 0.732114 0.135169
vt 0.755943 0.134901
vt 0.223589 0.122673
vt 0.244943 0.122673
vt 0.761552 0.146049
vt 0.775693 0.159543
vt 0.760263 0.145224
vt 0.731827 0.138506
vt 0.755262 0.142831
vt 0.223589 0.126875
vt 0.244943 0.126875
vt 0.756636 0.152309
vt 0.773098 0.162848
vt 0.753067 0.150482
vt 0.730904 0.141726
vt 0.244943 0.131076
vt 0.753009 0.159394
vt 0.771184 0.166588
vt 0.749440 0.157567
vt 0.729378 0.144707
vt 0.223589 0.135278
vt 0.244943 0.135278
vt 0.750805 0.167043
vt 0.770020 0.170625
vt 0.749382 0.166480
vt 0.744516 0.163821
vt 0.223589 0.139480
vt 0.750105 0.174972
vt 0.742186 0.171738
vt 0.727306 0.147338
vt 0.881967 0.675365
vt 0.877618 0.668652
vt 0.881757 0.668518
vt 0.564898 0.742374
vt 0.572666 0.742558
vt 0.566851 0.746139
vt 0.577344 0.737499
vt 0.578158 0.739319
vt 0.583578 0.735380
vt 0.583811 0.736166
vt 0.885896 0.668400
vt 0.886074 0.675249
vt 0.569380 0.749502
vt 0.574469 0.745036
vt 0.579268 0.740943
vt 0.584179 0.736868
vt 0.890035 0.668304
vt 0.890183 0.675153
vt 0.572416 0.752378
vt 0.576649 0.747151
vt 0.580630 0.742336
vt 0.584731 0.737522
vt 0.894173 0.668226
vt 0.894291 0.675075
vt 0.575877 0.754691
vt 0.579140 0.748854
vt 0.582210 0.743461
vt 0.585378 0.738054
vt 0.898311 0.668167
vt 0.898399 0.675016
vt 0.581869 0.750092
vt 0.579666 0.756377
vt 0.583942 0.744287
vt 0.586104 0.738458
vt 0.902449 0.668125
vt 0.902507 0.674974
vt 0.584758 0.750834
vt 0.583681 0.757388
vt 0.585785 0.744787
vt 0.586879 0.738718
vt 0.906588 0.668101
vt 0.906615 0.674950
vt 0.587717 0.751060
vt 0.587808 0.757690
vt 0.587670 0.744959
vt 0.587688 0.738827
vt 0.910726 0.668096
vt 0.910723 0.674944
vt 0.590655 0.750762
vt 0.591929 0.757263
vt 0.589543 0.744795
vt 0.588496 0.738793
vt 0.914865 0.668109
vt 0.914831 0.674957
vt 0.595865 0.756079
vt 0.593485 0.749962
vt 0.591352 0.744300
vt 0.589282 0.738599
vt 0.919003 0.668137
vt 0.918938 0.674985
vt 0.596110 0.748671
vt 0.599487 0.754233
vt 0.593037 0.743493
vt 0.590018 0.738272
vt 0.923140 0.668184
vt 0.923046 0.675031
vt 0.598457 0.746954
vt 0.602712 0.751817
vt 0.594553 0.742407
vt 0.590651 0.737791
vt 0.927153 0.675095
vt 0.927276 0.668248
vt 0.600476 0.744873
vt 0.605476 0.748924
vt 0.595850 0.741069
vt 0.591194 0.737194
vt 0.931260 0.675179
vt 0.931412 0.668334
vt 0.602111 0.742481
vt 0.607704 0.745625
vt 0.596897 0.739523
vt 0.591611 0.736503
vt 0.935366 0.675280
vt 0.935548 0.668437
vt 0.603306 0.739845
vt 0.609330 0.742009
vt 0.597668 0.737811
vt 0.591910 0.735740
vt 0.939683 0.668558
vt 0.939471 0.675399
vt 0.610354 0.738189
vt 0.604054 0.737045
vt 0.598129 0.735987
vt 0.592053 0.734928
vt 0.943574 0.675536
vt 0.943816 0.668699
vt 0.610724 0.734257
vt 0.604319 0.734152
vt 0.598273 0.734098
vt 0.592055 0.734085
vt 0.947947 0.668859
vt 0.947676 0.675690
vt 0.604108 0.731248
vt 0.610457 0.730318
vt 0.598102 0.732189
vt 0.591905 0.733246
vt 0.951775 0.675858
vt 0.952074 0.669034
vt 0.603427 0.728405
vt 0.609566 0.726469
vt 0.597612 0.730317
vt 0.591607 0.732421
vt 0.956193 0.669232
vt 0.955873 0.676043
vt 0.608095 0.722797
vt 0.602300 0.725684
vt 0.596806 0.728542
vt 0.591163 0.731714
vt 0.960301 0.669441
vt 0.959968 0.676238
vt 0.606056 0.719389
vt 0.600733 0.723149
vt 0.595696 0.726897
vt 0.590579 0.731077
vt 0.964064 0.676442
vt 0.964391 0.669659
vt 0.603534 0.716308
vt 0.598779 0.720853
vt 0.594297 0.725416
vt 0.589886 0.730551
vt 0.968165 0.676648
vt 0.968457 0.669872
vt 0.600582 0.713611
vt 0.596460 0.718837
vt 0.592636 0.724145
vt 0.589076 0.730145
vt 0.972281 0.676848
vt 0.972494 0.670055
vt 0.593807 0.717125
vt 0.597274 0.711331
vt 0.590740 0.723129
vt 0.588205 0.729865
vt 0.976432 0.677034
vt 0.976505 0.670167
vt 0.590850 0.715749
vt 0.593696 0.709474
vt 0.588635 0.722410
vt 0.587284 0.729739
vt 0.849143 0.676813
vt 0.844916 0.670132
vt 0.848931 0.670019
vt 0.573265 0.709474
vt 0.576092 0.718052
vt 0.570010 0.712997
vt 0.578869 0.715434
vt 0.581583 0.723582
vt 0.583657 0.722109
vt 0.586367 0.730145
vt 0.853260 0.676612
vt 0.852970 0.669834
vt 0.573824 0.720910
vt 0.567311 0.716830
vt 0.579861 0.725314
vt 0.585553 0.730719
vt 0.857361 0.676405
vt 0.857037 0.669620
vt 0.572080 0.723944
vt 0.565220 0.720929
vt 0.578505 0.727228
vt 0.584817 0.731335
vt 0.861458 0.676200
vt 0.861127 0.669400
vt 0.563768 0.725221
vt 0.570856 0.727114
vt 0.577526 0.729264
vt 0.584248 0.732050
vt 0.865555 0.676003
vt 0.865235 0.669188
vt 0.570170 0.730358
vt 0.563004 0.729614
vt 0.576929 0.731352
vt 0.583827 0.732853
vt 0.869655 0.675817
vt 0.869354 0.668989
vt 0.570029 0.733603
vt 0.562960 0.734001
vt 0.576708 0.733459
vt 0.583576 0.733687
vt 0.873757 0.675649
vt 0.873483 0.668811
vt 0.570406 0.736766
vt 0.563592 0.738291
vt 0.576854 0.735533
vt 0.583500 0.734550
vt 0.877861 0.675498
vt 0.571293 0.739779
vt 0.887265 0.847616
vt 0.883915 0.847725
vt 0.880564 0.847849
vt 0.890617 0.847521
vt 0.893969 0.847442
vt 0.897321 0.847377
vt 0.900673 0.847328
vt 0.904026 0.847293
vt 0.907379 0.847273
vt 0.910732 0.847268
vt 0.914086 0.847278
vt 0.917439 0.847302
vt 0.920791 0.847336
vt 0.924143 0.847385
vt 0.927494 0.847449
vt 0.930845 0.847528
vt 0.934196 0.847622
vt 0.937546 0.847730
vt 0.940895 0.847854
vt 0.944244 0.847992
vt 0.947593 0.848145
vt 0.950940 0.848313
vt 0.954287 0.848496
vt 0.957633 0.848694
vt 0.960977 0.848907
vt 0.964321 0.849135
vt 0.844991 0.677001
vt 0.860479 0.848907
vt 0.857136 0.849135
vt 0.863824 0.848693
vt 0.867171 0.848495
vt 0.870518 0.848311
vt 0.873866 0.848142
vt 0.877215 0.847988
vt 0.086544 0.674409
vt 0.000714 0.346203
vt 0.086543 0.439979
vt 0.437692 0.999367
vt 0.499683 0.985320
vt 0.485637 0.923325
vt 0.001660 0.860699
vt 0.724050 0.207164
vt 0.223589 0.168891
vt 0.790590 0.216020
vt 0.700855 0.145617
vt 0.223589 0.042842
vt 0.829237 0.001693
vt 0.223589 0.059648
vt 0.700627 0.125431
vt 0.796592 0.065460
vt 0.223589 0.080657
vt 0.824547 0.149688
vt 0.785711 0.086715
vt 0.223589 0.093261
vt 0.223589 0.105866
vt 0.223589 0.118471
vt 0.756694 0.143397
vt 0.223589 0.131076
vt 0.745813 0.164652
s 1
usemtl HandleSurface
f 2/1/1 3/2/2 1/3/3
f 4/4/4 5/5/5 3/2/2
f 8/6/6 9/7/7 7/8/8
f 10/9/9 11/10/10 9/7/7
f 12/11/11 13/12/12 11/10/10
f 14/13/13 15/14/14 13/12/12
f 16/15/15 27/16/16 28/17/17
f 18/18/18 29/19/19 36/20/20
f 20/21/21 31/22/22 34/23/23
f 31/22/22 24/24/24 23/25/25
f 24/24/24 25/26/26 23/25/25
f 26/27/27 1/3/3 25/26/26
f 30/28/28 33/29/29 21/30/30
f 33/29/29 31/22/22 32/31/31
f 28/17/17 35/32/32 19/33/33
f 27/16/16 35/32/32 28/17/17
f 29/34/34 40/35/34 37/36/34
f 33/37/3 40/35/3 34/38/3
f 39/39/35 37/36/35 38/40/35
f 38/40/35 37/36/35 40/35/35
f 36/41/34 29/34/34 37/36/34
f 35/42/10 37/36/10 39/39/10
f 33/43/36 30/44/36 38/40/36
f 30/44/36 39/39/36 38/40/36
f 12/45/11 45/46/37 46/47/38
f 2/48/1 41/49/39 4/50/4
f 20/51/21 51/52/40 22/53/41
f 16/54/15 49/55/42 18/56/18
f 26/57/27 42/58/43 2/48/1
f 14/59/13 46/47/38 47/60/44
f 22/53/41 52/61/45 24/62/24
f 4/50/4 43/63/46 6/64/47
f 8/65/6 45/46/37 10/66/9
f 18/56/18 50/67/48 20/51/21
f 14/59/13 48/68/49 16/54/15
f 24/62/24 53/69/50 26/57/27
f 213/70/51 54/71/3 85/72/51
f 212/73/52 86/74/53 213/75/54
f 211/76/55 87/77/56 212/78/52
f 211/79/55 89/80/57 88/81/58
f 209/82/59 85/72/51 84/83/59
f 208/84/60 213/75/54 209/85/61
f 207/86/62 212/78/52 208/87/60
f 207/88/62 210/89/63 211/79/55
f 205/90/64 84/83/59 83/91/64
f 204/92/65 209/85/61 205/93/66
f 203/94/67 208/87/60 204/95/65
f 203/96/67 206/97/68 207/88/62
f 201/98/69 83/91/64 82/99/69
f 201/100/70 204/92/65 205/93/66
f 199/101/71 204/95/65 200/102/72
f 199/103/71 202/104/73 203/96/67
f 197/105/74 82/99/69 81/106/74
f 197/107/75 200/108/72 201/100/70
f 196/109/76 199/101/71 200/102/72
f 195/110/77 198/111/78 199/103/71
f 80/112/79 197/105/74 81/106/74
f 193/113/80 196/114/76 197/107/75
f 191/115/81 196/109/76 192/116/82
f 191/117/81 194/118/83 195/110/77
f 79/119/84 193/120/79 80/112/79
f 189/121/85 192/122/82 193/113/80
f 187/123/86 192/116/82 188/124/87
f 187/125/86 190/126/88 191/117/81
f 185/127/36 79/119/84 78/128/36
f 185/129/89 188/130/87 189/121/85
f 183/131/90 188/124/87 184/132/91
f 183/133/90 186/134/92 187/125/86
f 77/135/93 185/136/36 78/137/36
f 181/138/94 184/139/91 185/140/89
f 179/141/95 184/142/91 180/143/96
f 179/144/95 182/145/97 183/146/90
f 177/147/98 77/135/93 76/148/98
f 177/149/99 180/150/96 181/138/94
f 175/151/100 180/143/96 176/152/101
f 175/153/100 178/154/102 179/144/95
f 173/155/103 76/148/98 75/156/103
f 173/157/104 176/158/101 177/149/99
f 171/159/105 176/152/101 172/160/106
f 171/161/105 174/162/107 175/153/100
f 74/163/108 173/155/103 75/156/103
f 169/164/109 172/165/106 173/157/104
f 167/166/110 172/160/106 168/167/111
f 167/168/110 170/169/112 171/161/105
f 73/170/113 169/171/108 74/163/108
f 165/172/114 168/173/111 169/164/109
f 164/174/115 167/166/110 168/167/111
f 163/175/116 166/176/117 167/168/110
f 161/177/118 73/170/113 72/178/118
f 161/179/119 164/180/115 165/172/114
f 160/181/120 163/182/116 164/174/115
f 159/183/121 162/184/122 163/175/116
f 71/185/123 161/177/118 72/178/118
f 157/186/124 160/187/120 161/179/119
f 156/188/125 159/189/121 160/181/120
f 154/190/126 159/183/121 155/191/127
f 70/192/10 157/193/123 71/185/123
f 153/194/128 156/195/125 157/186/124
f 152/196/129 155/197/127 156/188/125
f 150/198/130 155/191/127 151/199/131
f 69/200/132 153/201/10 70/192/10
f 149/202/133 152/203/129 153/194/128
f 148/204/134 151/205/131 152/196/129
f 146/206/135 151/199/131 147/207/136
f 68/208/137 149/209/132 69/200/132
f 145/210/138 148/211/134 149/202/133
f 143/212/139 148/204/134 144/213/140
f 142/214/141 147/207/136 143/215/139
f 141/216/142 68/208/137 67/217/142
f 141/218/143 144/219/140 145/210/138
f 140/220/144 143/212/139 144/213/140
f 138/221/145 143/215/139 139/222/146
f 66/223/147 141/216/142 67/217/142
f 136/224/148 141/218/143 137/225/149
f 136/226/148 139/227/146 140/220/144
f 134/228/150 139/222/146 135/229/151
f 65/230/152 137/231/147 66/223/147
f 132/232/153 137/225/149 133/233/154
f 131/234/155 136/226/148 132/235/153
f 130/236/156 135/229/151 131/237/155
f 129/238/157 65/230/152 64/239/157
f 128/240/158 133/233/154 129/241/159
f 127/242/160 132/235/153 128/243/158
f 126/244/161 131/237/155 127/245/160
f 125/246/162 64/239/157 63/247/162
f 124/248/163 129/241/159 125/249/164
f 123/250/165 128/243/158 124/251/163
f 122/252/166 127/245/160 123/253/165
f 62/254/34 125/246/162 63/247/162
f 120/255/167 125/249/164 121/256/168
f 119/257/169 124/251/163 120/258/167
f 118/259/170 123/253/165 119/260/169
f 117/261/171 62/254/34 61/262/171
f 116/263/172 121/256/168 117/264/173
f 115/265/174 120/258/167 116/266/172
f 114/267/175 119/260/169 115/268/174
f 60/269/176 117/261/171 61/262/171
f 112/270/177 117/264/173 113/271/178
f 111/272/179 116/266/172 112/273/177
f 110/274/180 115/268/174 111/275/179
f 59/276/181 113/277/176 60/269/176
f 108/278/182 113/271/178 109/279/183
f 107/280/184 112/273/177 108/281/182
f 106/282/185 111/275/179 107/283/184
f 105/284/186 59/276/181 58/285/186
f 104/286/187 109/279/183 105/287/188
f 104/288/187 107/280/184 108/281/182
f 102/289/189 107/283/184 103/290/190
f 101/291/191 58/285/186 57/292/191
f 100/293/192 105/287/188 101/294/193
f 99/295/194 104/288/187 100/293/192
f 98/296/195 103/290/190 99/295/194
f 56/297/196 101/291/191 57/292/191
f 96/298/197 101/294/193 97/299/198
f 95/300/199 100/293/192 96/298/197
f 94/301/200 99/295/194 95/300/199
f 93/302/201 56/297/196 55/303/201
f 92/304/202 97/299/198 93/305/203
f 92/306/202 95/300/199 96/298/197
f 91/307/204 94/301/200 95/300/199
f 86/308/3 55/303/201 54/71/3
f 87/309/56 93/305/203 86/74/53
f 88/310/58 92/306/202 87/77/56
f 88/81/58 90/311/205 91/307/204
f 220/312/206 218/313/207 223/314/208
f 218/315/207 222/316/209 223/317/208
f 222/316/209 216/318/210 221/319/211
f 221/319/211 214/320/212 219/321/213
f 220/312/206 228/322/214 225/323/215
f 228/324/214 222/316/209 227/325/216
f 222/316/209 226/326/217 227/325/216
f 221/319/211 224/327/218 226/326/217
f 225/323/215 233/328/219 230/329/220
f 233/330/219 227/325/216 232/331/221
f 227/325/216 231/332/222 232/331/221
f 226/326/217 229/333/223 231/332/222
f 230/329/220 238/334/224 235/335/225
f 238/336/224 232/331/221 237/337/226
f 232/331/221 236/338/227 237/337/226
f 236/338/227 229/333/223 234/339/228
f 235/335/225 243/340/229 240/341/230
f 238/336/224 242/342/231 243/343/229
f 242/342/231 236/338/227 241/344/232
f 236/338/227 239/345/233 241/344/232
f 240/341/230 248/346/234 245/347/235
f 243/343/229 247/348/236 248/349/234
f 242/342/231 246/350/237 247/348/236
f 241/344/232 244/351/238 246/350/237
f 245/347/235 253/352/239 250/353/240
f 248/349/234 252/354/241 253/355/239
f 247/348/236 251/356/242 252/354/241
f 246/350/237 249/357/243 251/356/242
f 250/353/240 258/358/244 255/359/245
f 253/355/239 257/360/246 258/361/244
f 252/354/241 256/362/247 257/360/246
f 251/356/242 254/363/248 256/362/247
f 255/359/245 263/364/249 260/365/250
f 263/366/249 257/360/246 262/367/251
f 262/367/251 256/362/247 261/368/252
f 261/368/252 254/363/248 259/369/253
f 260/365/250 268/370/254 265/371/255
f 263/366/249 267/372/256 268/373/254
f 262/367/251 266/374/257 267/372/256
f 261/368/252 264/375/258 266/374/257
f 265/371/255 273/376/259 270/377/260
f 268/373/254 272/378/261 273/379/259
f 272/378/261 266/374/257 271/380/262
f 271/380/262 264/375/258 269/381/263
f 275/382/264 273/376/259 278/383/265
f 273/379/259 277/384/266 278/385/265
f 272/378/261 276/386/267 277/384/266
f 276/386/267 269/381/263 274/387/268
f 280/388/269 278/383/265 283/389/270
f 278/385/265 282/390/271 283/391/270
f 277/384/266 281/392/272 282/390/271
f 276/386/267 279/393/273 281/392/272
f 285/394/274 283/389/270 288/395/275
f 283/391/270 287/396/276 288/397/275
f 287/396/276 281/392/272 286/398/277
f 281/392/272 284/399/278 286/398/277
f 285/394/274 293/400/279 290/401/280
f 293/402/279 287/396/276 292/403/281
f 287/396/276 291/404/282 292/403/281
f 286/398/277 289/405/283 291/404/282
f 295/406/284 293/400/279 298/407/285
f 298/408/285 292/403/281 297/409/286
f 292/403/281 296/410/287 297/409/286
f 291/404/282 294/411/288 296/410/287
f 295/406/284 303/412/289 300/413/290
f 298/408/285 302/414/291 303/415/289
f 297/409/286 301/416/292 302/414/291
f 296/410/287 299/417/293 301/416/292
f 305/418/294 303/412/289 308/419/295
f 303/415/289 307/420/296 308/421/295
f 307/420/296 301/416/292 306/422/297
f 306/422/297 299/417/293 304/423/298
f 305/418/294 313/424/299 310/425/300
f 313/426/299 307/420/296 312/427/301
f 307/420/296 311/428/302 312/427/301
f 306/422/297 309/429/303 311/428/302
f 310/425/300 318/430/304 315/431/305
f 318/432/304 312/427/301 317/433/306
f 317/433/306 311/428/302 316/434/307
f 316/434/307 309/429/303 314/435/308
f 320/436/309 318/430/304 323/437/310
f 323/438/310 317/433/306 322/439/311
f 322/439/311 316/434/307 321/440/312
f 316/434/307 319/441/313 321/440/312
f 325/442/314 323/437/310 328/443/315
f 328/444/315 322/439/311 327/445/316
f 322/439/311 326/446/317 327/445/316
f 321/440/312 324/447/318 326/446/317
f 330/448/319 328/443/315 333/449/320
f 328/444/315 332/450/321 333/451/320
f 332/450/321 326/446/317 331/452/322
f 326/446/317 329/453/323 331/452/322
f 335/454/324 333/449/320 338/455/325
f 333/451/320 337/456/326 338/457/325
f 337/456/326 331/452/322 336/458/327
f 336/458/327 329/453/323 334/459/328
f 340/460/329 338/461/325 343/462/330
f 338/463/325 342/464/331 343/465/330
f 337/466/326 341/467/332 342/464/331
f 336/468/327 339/469/333 341/467/332
f 345/470/334 343/462/330 348/471/335
f 343/465/330 347/472/336 348/473/335
f 347/472/336 341/467/332 346/474/337
f 341/467/332 344/475/338 346/474/337
f 350/476/339 348/471/335 353/477/340
f 348/473/335 352/478/341 353/479/340
f 352/478/341 346/474/337 351/480/342
f 351/480/342 344/475/338 349/481/343
f 355/482/344 353/477/340 358/483/345
f 358/484/345 352/478/341 357/485/346
f 352/478/341 356/486/347 357/485/346
f 351/480/342 354/487/348 356/486/347
f 360/488/349 358/483/345 363/489/350
f 358/484/345 362/490/351 363/491/350
f 357/485/346 361/492/352 362/490/351
f 361/492/352 354/487/348 359/493/353
f 365/494/354 363/489/350 368/495/355
f 363/491/350 367/496/356 368/497/355
f 362/490/351 366/498/357 367/496/356
f 366/498/357 359/493/353 364/499/358
f 370/500/359 368/495/355 373/501/360
f 368/497/355 372/502/361 373/503/360
f 372/502/361 366/498/357 371/504/362
f 371/504/362 364/499/358 369/505/363
f 370/500/359 218/313/207 215/506/364
f 218/315/207 372/502/361 217/507/365
f 372/502/361 216/318/210 217/507/365
f 371/504/362 214/320/212 216/318/210
f 304/423/298 264/375/258 224/327/218
f 215/506/364 90/508/366 89/509/367
f 370/500/359 89/509/367 210/510/368
f 220/312/206 94/511/369 90/508/366
f 225/323/215 98/512/370 94/511/369
f 98/512/370 235/335/225 102/513/371
f 102/513/371 240/341/230 106/514/372
f 106/514/372 245/347/235 110/515/373
f 110/515/373 250/353/240 114/516/374
f 250/353/240 118/517/375 114/516/374
f 255/359/245 122/518/376 118/517/375
f 122/518/376 265/371/255 126/519/377
f 265/371/255 130/520/378 126/519/377
f 270/377/260 134/521/379 130/520/378
f 275/382/264 138/522/380 134/521/379
f 280/388/269 142/523/381 138/522/380
f 142/523/381 290/401/280 146/524/382
f 146/524/382 295/406/284 150/525/383
f 295/406/284 154/526/384 150/525/383
f 300/413/290 158/527/385 154/526/384
f 305/418/294 162/528/386 158/527/385
f 310/425/300 166/529/387 162/528/386
f 315/431/305 170/530/388 166/529/387
f 320/436/309 174/531/389 170/530/388
f 325/442/314 178/532/390 174/531/389
f 178/532/390 335/454/324 182/533/391
f 335/534/324 186/535/392 182/536/391
f 340/460/329 190/537/393 186/535/392
f 345/470/334 194/538/394 190/537/393
f 350/476/339 198/539/395 194/538/394
f 355/482/344 202/540/396 198/539/395
f 360/488/349 206/541/397 202/540/396
f 206/541/397 370/500/359 210/510/368
f 2/1/1 4/4/4 3/2/2
f 4/4/4 6/542/47 5/5/5
f 8/6/6 10/9/9 9/7/7
f 10/9/9 12/11/11 11/10/10
f 12/11/11 14/13/13 13/12/12
f 14/13/13 16/15/15 15/14/14
f 17/543/398 15/14/14 16/15/15
f 16/15/15 18/18/18 27/16/16
f 28/17/17 17/543/398 16/15/15
f 36/20/20 27/16/16 18/18/18
f 18/18/18 20/21/21 29/19/19
f 34/23/23 29/19/19 20/21/21
f 20/21/21 22/544/41 31/22/22
f 23/25/25 21/30/30 32/31/31
f 31/22/22 22/544/41 24/24/24
f 23/25/25 32/31/31 31/22/22
f 24/24/24 26/27/27 25/26/26
f 26/27/27 2/1/1 1/3/3
f 21/30/30 19/33/33 30/28/28
f 33/29/29 32/31/31 21/30/30
f 33/29/29 34/23/23 31/22/22
f 19/33/33 17/543/398 28/17/17
f 35/32/32 30/28/28 19/33/33
f 27/16/16 36/20/20 35/32/32
f 29/34/34 34/545/34 40/35/34
f 33/37/3 38/40/3 40/35/3
f 35/42/10 36/546/10 37/36/10
f 30/44/36 35/547/36 39/39/36
f 12/45/11 10/66/9 45/46/37
f 2/48/1 42/58/43 41/49/39
f 20/51/21 50/67/48 51/52/40
f 16/54/15 48/68/49 49/55/42
f 26/57/27 53/69/50 42/58/43
f 14/59/13 12/45/11 46/47/38
f 22/53/41 51/52/40 52/61/45
f 4/50/4 41/49/39 43/63/46
f 8/65/6 44/548/399 45/46/37
f 18/56/18 49/55/42 50/67/48
f 14/59/13 47/60/44 48/68/49
f 24/62/24 52/61/45 53/69/50
f 213/70/51 86/308/3 54/71/3
f 212/73/52 87/309/56 86/74/53
f 211/76/55 88/310/58 87/77/56
f 211/79/55 210/89/63 89/80/57
f 209/82/59 213/70/51 85/72/51
f 208/84/60 212/73/52 213/75/54
f 207/86/62 211/76/55 212/78/52
f 207/88/62 206/97/68 210/89/63
f 205/90/64 209/82/59 84/83/59
f 204/92/65 208/84/60 209/85/61
f 203/94/67 207/86/62 208/87/60
f 203/96/67 202/104/73 206/97/68
f 201/98/69 205/90/64 83/91/64
f 201/100/70 200/108/72 204/92/65
f 199/101/71 203/94/67 204/95/65
f 199/103/71 198/111/78 202/104/73
f 197/105/74 201/98/69 82/99/69
f 197/107/75 196/114/76 200/108/72
f 196/109/76 195/549/77 199/101/71
f 195/110/77 194/118/83 198/111/78
f 80/112/79 193/120/79 197/105/74
f 193/113/80 192/122/82 196/114/76
f 191/115/81 195/549/77 196/109/76
f 191/117/81 190/126/88 194/118/83
f 79/119/84 189/550/84 193/120/79
f 189/121/85 188/130/87 192/122/82
f 187/123/86 191/115/81 192/116/82
f 187/125/86 186/134/92 190/126/88
f 185/127/36 189/550/84 79/119/84
f 185/129/89 184/551/91 188/130/87
f 183/131/90 187/123/86 188/124/87
f 183/133/90 182/552/97 186/134/92
f 77/135/93 181/553/93 185/136/36
f 181/138/94 180/150/96 184/139/91
f 179/141/95 183/554/90 184/142/91
f 179/144/95 178/154/102 182/145/97
f 177/147/98 181/553/93 77/135/93
f 177/149/99 176/158/101 180/150/96
f 175/151/100 179/141/95 180/143/96
f 175/153/100 174/162/107 178/154/102
f 173/155/103 177/147/98 76/148/98
f 173/157/104 172/165/106 176/158/101
f 171/159/105 175/151/100 176/152/101
f 171/161/105 170/169/112 174/162/107
f 74/163/108 169/171/108 173/155/103
f 169/164/109 168/173/111 172/165/106
f 167/166/110 171/159/105 172/160/106
f 167/168/110 166/176/117 170/169/112
f 73/170/113 165/555/113 169/171/108
f 165/172/114 164/180/115 168/173/111
f 164/174/115 163/182/116 167/166/110
f 163/175/116 162/184/122 166/176/117
f 161/177/118 165/555/113 73/170/113
f 161/179/119 160/187/120 164/180/115
f 160/181/120 159/189/121 163/182/116
f 159/183/121 158/556/400 162/184/122
f 71/185/123 157/193/123 161/177/118
f 157/186/124 156/195/125 160/187/120
f 156/188/125 155/197/127 159/189/121
f 154/190/126 158/556/400 159/183/121
f 70/192/10 153/201/10 157/193/123
f 153/194/128 152/203/129 156/195/125
f 152/196/129 151/205/131 155/197/127
f 150/198/130 154/190/126 155/191/127
f 69/200/132 149/209/132 153/201/10
f 149/202/133 148/211/134 152/203/129
f 148/204/134 147/557/136 151/205/131
f 146/206/135 150/198/130 151/199/131
f 68/208/137 145/558/137 149/209/132
f 145/210/138 144/219/140 148/211/134
f 143/212/139 147/557/136 148/204/134
f 142/214/141 146/206/135 147/207/136
f 141/216/142 145/558/137 68/208/137
f 141/218/143 140/559/144 144/219/140
f 140/220/144 139/227/146 143/212/139
f 138/221/145 142/214/141 143/215/139
f 66/223/147 137/231/147 141/216/142
f 136/224/148 140/559/144 141/218/143
f 136/226/148 135/560/151 139/227/146
f 134/228/150 138/221/145 139/222/146
f 65/230/152 133/561/152 137/231/147
f 132/232/153 136/224/148 137/225/149
f 131/234/155 135/560/151 136/226/148
f 130/236/156 134/228/150 135/229/151
f 129/238/157 133/561/152 65/230/152
f 128/240/158 132/232/153 133/233/154
f 127/242/160 131/234/155 132/235/153
f 126/244/161 130/236/156 131/237/155
f 125/246/162 129/238/157 64/239/157
f 124/248/163 128/240/158 129/241/159
f 123/250/165 127/242/160 128/243/158
f 122/252/166 126/244/161 127/245/160
f 62/254/34 121/562/34 125/246/162
f 120/255/167 124/248/163 125/249/164
f 119/257/169 123/250/165 124/251/163
f 118/259/170 122/252/166 123/253/165
f 117/261/171 121/562/34 62/254/34
f 116/263/172 120/255/167 121/256/168
f 115/265/174 119/257/169 120/258/167
f 114/267/175 118/259/170 119/260/169
f 60/269/176 113/277/176 117/261/171
f 112/270/177 116/263/172 117/264/173
f 111/272/179 115/265/174 116/266/172
f 110/274/180 114/267/175 115/268/174
f 59/276/181 109/563/181 113/277/176
f 108/278/182 112/270/177 113/271/178
f 107/280/184 111/272/179 112/273/177
f 106/282/185 110/274/180 111/275/179
f 105/284/186 109/563/181 59/276/181
f 104/286/187 108/278/182 109/279/183
f 104/288/187 103/564/190 107/280/184
f 102/289/189 106/282/185 107/283/184
f 101/291/191 105/284/186 58/285/186
f 100/293/192 104/286/187 105/287/188
f 99/295/194 103/564/190 104/288/187
f 98/296/195 102/289/189 103/290/190
f 56/297/196 97/565/196 101/291/191
f 96/298/197 100/293/192 101/294/193
f 95/300/199 99/295/194 100/293/192
f 94/301/200 98/296/195 99/295/194
f 93/302/201 97/565/196 56/297/196
f 92/304/202 96/298/197 97/299/198
f 92/306/202 91/566/204 95/300/199
f 91/307/204 90/311/205 94/301/200
f 86/308/3 93/302/201 55/303/201
f 87/309/56 92/304/202 93/305/203
f 88/310/58 91/566/204 92/306/202
f 88/81/58 89/80/57 90/311/205
f 220/312/206 215/506/364 218/313/207
f 218/315/207 217/507/365 222/316/209
f 222/316/209 217/507/365 216/318/210
f 221/319/211 216/318/210 214/320/212
f 220/312/206 223/314/208 228/322/214
f 228/324/214 223/317/208 222/316/209
f 222/316/209 221/319/211 226/326/217
f 221/319/211 219/321/213 224/327/218
f 225/323/215 228/322/214 233/328/219
f 233/330/219 228/324/214 227/325/216
f 227/325/216 226/326/217 231/332/222
f 226/326/217 224/327/218 229/333/223
f 230/329/220 233/328/219 238/334/224
f 238/336/224 233/330/219 232/331/221
f 232/331/221 231/332/222 236/338/227
f 236/338/227 231/332/222 229/333/223
f 235/335/225 238/334/224 243/340/229
f 238/336/224 237/337/226 242/342/231
f 242/342/231 237/337/226 236/338/227
f 236/338/227 234/339/228 239/345/233
f 240/341/230 243/340/229 248/346/234
f 243/343/229 242/342/231 247/348/236
f 242/342/231 241/344/232 246/350/237
f 241/344/232 239/345/233 244/351/238
f 245/347/235 248/346/234 253/352/239
f 248/349/234 247/348/236 252/354/241
f 247/348/236 246/350/237 251/356/242
f 246/350/237 244/351/238 249/357/243
f 250/353/240 253/352/239 258/358/244
f 253/355/239 252/354/241 257/360/246
f 252/354/241 251/356/242 256/362/247
f 251/356/242 249/357/243 254/363/248
f 255/359/245 258/358/244 263/364/249
f 263/366/249 258/361/244 257/360/246
f 262/367/251 257/360/246 256/362/247
f 261/368/252 256/362/247 254/363/248
f 260/365/250 263/364/249 268/370/254
f 263/366/249 262/367/251 267/372/256
f 262/367/251 261/368/252 266/374/257
f 261/368/252 259/369/253 264/375/258
f 265/371/255 268/370/254 273/376/259
f 268/373/254 267/372/256 272/378/261
f 272/378/261 267/372/256 266/374/257
f 271/380/262 266/374/257 264/375/258
f 275/382/264 270/377/260 273/376/259
f 273/379/259 272/378/261 277/384/266
f 272/378/261 271/380/262 276/386/267
f 276/386/267 271/380/262 269/381/263
f 280/388/269 275/382/264 278/383/265
f 278/385/265 277/384/266 282/390/271
f 277/384/266 276/386/267 281/392/272
f 276/386/267 274/387/268 279/393/273
f 285/394/274 280/388/269 283/389/270
f 283/391/270 282/390/271 287/396/276
f 287/396/276 282/390/271 281/392/272
f 281/392/272 279/393/273 284/399/278
f 285/394/274 288/395/275 293/400/279
f 293/402/279 288/397/275 287/396/276
f 287/396/276 286/398/277 291/404/282
f 286/398/277 284/399/278 289/405/283
f 295/406/284 290/401/280 293/400/279
f 298/408/285 293/402/279 292/403/281
f 292/403/281 291/404/282 296/410/287
f 291/404/282 289/405/283 294/411/288
f 295/406/284 298/407/285 303/412/289
f 298/408/285 297/409/286 302/414/291
f 297/409/286 296/410/287 301/416/292
f 296/410/287 294/411/288 299/417/293
f 305/418/294 300/413/290 303/412/289
f 303/415/289 302/414/291 307/420/296
f 307/420/296 302/414/291 301/416/292
f 306/422/297 301/416/292 299/417/293
f 305/418/294 308/419/295 313/424/299
f 313/426/299 308/421/295 307/420/296
f 307/420/296 306/422/297 311/428/302
f 306/422/297 304/423/298 309/429/303
f 310/425/300 313/424/299 318/430/304
f 318/432/304 313/426/299 312/427/301
f 317/433/306 312/427/301 311/428/302
f 316/434/307 311/428/302 309/429/303
f 320/436/309 315/431/305 318/430/304
f 323/438/310 318/432/304 317/433/306
f 322/439/311 317/433/306 316/434/307
f 316/434/307 314/435/308 319/441/313
f 325/442/314 320/436/309 323/437/310
f 328/444/315 323/438/310 322/439/311
f 322/439/311 321/440/312 326/446/317
f 321/440/312 319/441/313 324/447/318
f 330/448/319 325/442/314 328/443/315
f 328/444/315 327/445/316 332/450/321
f 332/450/321 327/445/316 326/446/317
f 326/446/317 324/447/318 329/453/323
f 335/454/324 330/448/319 333/449/320
f 333/451/320 332/450/321 337/456/326
f 337/456/326 332/450/321 331/452/322
f 336/458/327 331/452/322 329/453/323
f 340/460/329 335/534/324 338/461/325
f 338/463/325 337/466/326 342/464/331
f 337/466/326 336/468/327 341/467/332
f 336/468/327 334/459/328 339/469/333
f 345/470/334 340/460/329 343/462/330
f 343/465/330 342/464/331 347/472/336
f 347/472/336 342/464/331 341/467/332
f 341/467/332 339/469/333 344/475/338
f 350/476/339 345/470/334 348/471/335
f 348/473/335 347/472/336 352/478/341
f 352/478/341 347/472/336 346/474/337
f 351/480/342 346/474/337 344/475/338
f 355/482/344 350/476/339 353/477/340
f 358/484/345 353/479/340 352/478/341
f 352/478/341 351/480/342 356/486/347
f 351/480/342 349/481/343 354/487/348
f 360/488/349 355/482/344 358/483/345
f 358/484/345 357/485/346 362/490/351
f 357/485/346 356/486/347 361/492/352
f 361/492/352 356/486/347 354/487/348
f 365/494/354 360/488/349 363/489/350
f 363/491/350 362/490/351 367/496/356
f 362/490/351 361/492/352 366/498/357
f 366/498/357 361/492/352 359/493/353
f 370/500/359 365/494/354 368/495/355
f 368/497/355 367/496/356 372/502/361
f 372/502/361 367/496/356 366/498/357
f 371/504/362 366/498/357 364/499/358
f 370/500/359 373/501/360 218/313/207
f 218/315/207 373/503/360 372/502/361
f 372/502/361 371/504/362 216/318/210
f 371/504/362 369/505/363 214/320/212
f 224/327/218 219/321/213 214/320/212
f 214/320/212 369/505/363 364/499/358
f 364/499/358 359/493/353 354/487/348
f 354/487/348 349/481/343 344/475/338
f 344/475/338 339/469/333 334/459/328
f 334/459/328 329/453/323 324/447/318
f 324/447/318 319/441/313 314/435/308
f 314/435/308 309/429/303 304/423/298
f 304/423/298 299/417/293 294/411/288
f 294/411/288 289/405/283 284/399/278
f 284/399/278 279/393/273 274/387/268
f 274/387/268 269/381/263 264/375/258
f 264/375/258 259/369/253 254/363/248
f 254/363/248 249/357/243 244/351/238
f 244/351/238 239/345/233 234/339/228
f 234/339/228 229/333/223 224/327/218
f 224/327/218 214/320/212 364/499/358
f 364/499/358 354/487/348 344/475/338
f 344/475/338 334/459/328 324/447/318
f 324/447/318 314/435/308 304/423/298
f 304/423/298 294/411/288 284/399/278
f 284/399/278 274/387/268 264/375/258
f 264/375/258 254/363/248 244/351/238
f 244/351/238 234/339/228 224/327/218
f 224/327/218 364/499/358 344/475/338
f 344/475/338 324/447/318 304/423/298
f 304/423/298 284/399/278 264/375/258
f 264/375/258 244/351/238 224/327/218
f 224/327/218 344/475/338 304/423/298
f 215/506/364 220/312/206 90/508/366
f 370/500/359 215/506/364 89/509/367
f 220/312/206 225/323/215 94/511/369
f 225/323/215 230/329/220 98/512/370
f 98/512/370 230/329/220 235/335/225
f 102/513/371 235/335/225 240/341/230
f 106/514/372 240/341/230 245/347/235
f 110/515/373 245/347/235 250/353/240
f 250/353/240 255/359/245 118/517/375
f 255/359/245 260/365/250 122/518/376
f 122/518/376 260/365/250 265/371/255
f 265/371/255 270/377/260 130/520/378
f 270/377/260 275/382/264 134/521/379
f 275/382/264 280/388/269 138/522/380
f 280/388/269 285/394/274 142/523/381
f 142/523/381 285/394/274 290/401/280
f 146/524/382 290/401/280 295/406/284
f 295/406/284 300/413/290 154/526/384
f 300/413/290 305/418/294 158/527/385
f 305/418/294 310/425/300 162/528/386
f 310/425/300 315/431/305 166/529/387
f 315/431/305 320/436/309 170/530/388
f 320/436/309 325/442/314 174/531/389
f 325/442/314 330/448/319 178/532/390
f 178/532/390 330/448/319 335/454/324
f 335/534/324 340/460/329 186/535/392
f 340/460/329 345/470/334 190/537/393
f 345/470/334 350/476/339 194/538/394
f 350/476/339 355/482/344 198/539/395
f 355/482/344 360/488/349 202/540/396
f 360/488/349 365/494/354 206/541/397
f 206/541/397 365/494/354 370/500/359
