# Blender 5.0.1
# www.blender.org
mtllib switch.mtl
o SwitchLeverExport
g switch
v 0.005000 0.001913 0.019619
v -0.005000 0.001913 0.019619
v 0.005000 -0.007654 0.018478
v -0.005000 -0.007654 0.018478
v 0.005000 -0.014142 0.014142
v -0.005000 -0.014142 0.014142
v 0.005000 -0.018478 0.007654
v -0.005000 -0.018478 0.007654
v 0.005000 -0.020000 -0.000000
v -0.005000 -0.020000 0.000000
v 0.005000 0.020000 -0.000000
v -0.005000 0.020000 0.000000
v 0.005000 0.018478 0.007654
v -0.005000 0.018478 0.007654
v 0.005000 0.014142 0.014142
v -0.005000 0.014142 0.014142
v 0.005000 0.007654 0.018478
v -0.005000 0.007654 0.018478
v 0.005000 -0.003827 0.019239
v -0.005000 -0.003827 0.019239
v 0.005000 0.003827 0.019239
v -0.005000 0.003827 0.019239
v -0.005000 -0.001913 0.019619
v -0.005000 -0.001172 0.029033
v 0.005000 -0.001913 0.019619
v -0.005000 0.001172 0.029033
v 0.005000 0.001172 0.029033
v 0.005000 -0.001172 0.029033
v -0.005000 -0.011150 0.016687
v 0.005000 -0.011150 0.016687
v -0.005000 0.019684 0.003915
v 0.005000 0.019684 0.003915
v -0.005000 0.011150 0.016687
v 0.005000 0.011150 0.016687
v -0.005000 -0.016687 0.011150
v 0.005000 -0.016687 0.011150
v -0.005000 0.016687 0.011150
v 0.005000 0.016687 0.011150
v -0.005000 -0.005772 0.018963
v 0.005000 -0.005772 0.018963
v -0.005000 0.005772 0.018963
v 0.005000 0.005772 0.018963
v -0.005000 -0.019684 0.003915
v 0.005000 -0.019684 0.003915
vn -0.0000 -0.1679 0.9858
vn -0.0000 -0.1954 0.9807
vn -0.0000 -0.3549 0.9349
vn -0.0000 -0.5556 0.8315
vn -0.0000 -0.7071 0.7071
vn -0.0000 -0.8315 0.5556
vn -0.0000 -0.9239 0.3827
vn -0.0000 -0.9808 0.1951
vn -0.0000 0.9968 0.0805
vn -0.0000 0.9808 0.1951
vn -0.0000 0.9239 0.3827
vn -0.0000 0.8315 0.5556
vn -1.0000 -0.0000 -0.0000
vn -0.0000 0.7071 0.7071
vn -0.0000 0.5556 0.8315
vn 1.0000 -0.0000 -0.0000
vn -0.0000 0.3549 0.9349
vn -0.0000 0.1954 0.9807
vn -0.0000 -0.1951 0.9808
vn -0.0000 -0.9969 0.0786
vn -0.0000 -0.0000 1.0000
vn -0.0000 0.1679 0.9858
vn -0.0000 0.1951 0.9808
vn -0.0000 0.9969 0.0786
vn -0.0000 -0.9968 0.0805
vt 0.162968 0.939574
vt 0.173092 0.937585
vt 0.173092 0.939574
vt 0.162968 0.935617
vt 0.173092 0.931640
vt 0.173092 0.935617
vt 0.162968 0.927663
vt 0.173092 0.923687
vt 0.173092 0.927663
vt 0.162968 0.919710
vt 0.173092 0.915733
vt 0.173092 0.919710
vt 0.162968 0.992835
vt 0.173092 0.988858
vt 0.173092 0.992835
vt 0.162968 0.984881
vt 0.173092 0.980904
vt 0.173092 0.984881
vt 0.153437 0.950358
vt 0.162968 0.953482
vt 0.153437 0.954233
vt 0.162968 0.976927
vt 0.173092 0.972950
vt 0.173092 0.976927
vt 0.182623 0.954233
vt 0.173092 0.951109
vt 0.182623 0.950358
vt 0.183008 0.948421
vt 0.173092 0.968973
vt 0.162968 0.967006
vt 0.173092 0.967006
vt 0.162968 0.941549
vt 0.173092 0.941549
vt 0.162968 0.951109
vt 0.173092 0.953482
vt 0.162968 0.965017
vt 0.173092 0.963042
vt 0.173092 0.965017
vt 0.153052 0.956170
vt 0.153052 0.948421
vt 0.162968 0.963042
vt 0.162968 0.931640
vt 0.162968 0.988858
vt 0.162968 0.972950
vt 0.162968 0.923687
vt 0.162968 0.980904
vt 0.162968 0.937585
vt 0.162968 0.915733
vt 0.173092 0.911756
vt 0.133574 0.972544
vt 0.144862 0.935401
vt 0.185592 0.941007
vt 0.194737 0.971003
vt 0.183779 0.960044
vt 0.183008 0.956170
vt 0.162968 0.968973
vt 0.162968 0.911756
vt 0.150468 0.941007
vt 0.152281 0.944547
vt 0.152772 0.946452
vt 0.152772 0.958139
vt 0.152281 0.960044
vt 0.150468 0.963584
vt 0.147892 0.966613
vt 0.144862 0.969190
vt 0.141322 0.971003
vt 0.137538 0.972224
vt 0.133574 0.932047
vt 0.137538 0.932367
vt 0.141322 0.933588
vt 0.147892 0.937977
vt 0.183288 0.946452
vt 0.183779 0.944547
vt 0.188168 0.937977
vt 0.191198 0.935401
vt 0.194737 0.933588
vt 0.198522 0.932367
vt 0.202486 0.932047
vt 0.202486 0.972544
vt 0.198522 0.972224
vt 0.191198 0.969190
vt 0.188168 0.966613
vt 0.185592 0.963584
vt 0.183288 0.958139
s 1
usemtl HandleSurface
f 20/1/1 40/2/2 19/3/1
f 4/4/3 30/5/4 3/6/3
f 6/7/5 36/8/6 5/9/5
f 8/10/7 44/11/8 7/12/7
f 12/13/9 32/14/10 11/15/9
f 14/16/11 38/17/12 13/18/11
s 0
f 23/19/13 26/20/13 2/21/13
s 1
f 16/22/14 34/23/15 15/24/14
s 0
f 1/25/16 28/26/16 25/27/16
f 19/28/16 1/25/16 25/27/16
s 1
f 17/29/17 41/30/18 42/31/18
f 23/32/19 19/3/1 25/33/19
s 0
f 25/33/20 24/34/20 23/32/20
f 26/20/21 28/26/21 27/35/21
s 1
f 22/36/22 1/37/23 21/38/22
s 0
f 23/19/13 22/39/13 20/40/13
f 2/41/24 27/35/24 1/37/24
s 1
f 29/42/4 5/9/5 30/5/4
f 31/43/10 13/18/11 32/14/10
f 33/44/15 17/29/17 34/23/15
f 35/45/6 7/12/7 36/8/6
f 37/46/12 15/24/14 38/17/12
f 39/47/2 3/6/3 40/2/2
f 41/30/18 21/38/22 42/31/18
f 43/48/8 9/49/25 44/11/8
s 0
f 22/39/13 12/50/13 35/51/13
f 30/52/16 13/53/16 17/54/16
s 1
f 20/1/1 39/47/2 40/2/2
f 4/4/3 29/42/4 30/5/4
f 6/7/5 35/45/6 36/8/6
f 8/10/7 43/48/8 44/11/8
f 12/13/9 31/43/10 32/14/10
f 14/16/11 37/46/12 38/17/12
s 0
f 23/19/13 24/34/13 26/20/13
s 1
f 16/22/14 33/44/15 34/23/15
s 0
f 1/25/16 27/35/16 28/26/16
f 19/28/16 21/55/16 1/25/16
s 1
f 17/29/17 18/56/17 41/30/18
f 23/32/19 20/1/1 19/3/1
s 0
f 25/33/20 28/26/20 24/34/20
f 26/20/21 24/34/21 28/26/21
s 1
f 22/36/22 2/41/23 1/37/23
s 0
f 23/19/13 2/21/13 22/39/13
f 2/41/24 26/20/24 27/35/24
s 1
f 29/42/4 6/7/5 5/9/5
f 31/43/10 14/16/11 13/18/11
f 33/44/15 18/56/17 17/29/17
f 35/45/6 8/10/7 7/12/7
f 37/46/12 16/22/14 15/24/14
f 39/47/2 4/4/3 3/6/3
f 41/30/18 22/36/22 21/38/22
f 43/48/8 10/57/25 9/49/25
s 0
f 29/58/13 4/59/13 39/60/13
f 39/60/13 20/40/13 22/39/13
f 22/39/13 41/61/13 18/62/13
f 18/62/13 33/63/13 16/64/13
f 16/64/13 37/65/13 14/66/13
f 14/66/13 31/67/13 12/50/13
f 12/50/13 10/68/13 43/69/13
f 43/69/13 8/70/13 35/51/13
f 35/51/13 6/71/13 29/58/13
f 29/58/13 39/60/13 22/39/13
f 22/39/13 18/62/13 16/64/13
f 16/64/13 14/66/13 12/50/13
f 12/50/13 43/69/13 35/51/13
f 35/51/13 29/58/13 22/39/13
f 22/39/13 16/64/13 12/50/13
f 21/55/16 19/28/16 40/72/16
f 40/72/16 3/73/16 30/52/16
f 30/52/16 5/74/16 36/75/16
f 36/75/16 7/76/16 44/77/16
f 44/77/16 9/78/16 11/79/16
f 11/79/16 32/80/16 13/53/16
f 13/53/16 38/81/16 15/82/16
f 15/82/16 34/83/16 17/54/16
f 17/54/16 42/84/16 21/55/16
f 21/55/16 40/72/16 30/52/16
f 30/52/16 36/75/16 44/77/16
f 44/77/16 11/79/16 13/53/16
f 13/53/16 15/82/16 17/54/16
f 17/54/16 21/55/16 30/52/16
f 30/52/16 44/77/16 13/53/16
