# Blender 5.0.1
# www.blender.org
mtllib train_brake_cutout.mtl
o TrainBrakeCutoutExport
g train_brake_cutout
v 0.005000 0.001951 0.009808
v -0.005000 0.000780 0.009808
v 0.005000 -0.001951 0.009808
v -0.005000 -0.000780 0.009808
v 0.005000 -0.005556 0.008315
v -0.005000 -0.005556 0.008315
v 0.005000 -0.008315 0.005556
v -0.005000 -0.008315 0.005556
v 0.005000 -0.009808 0.001951
v -0.005000 -0.009808 0.001951
v 0.005000 -0.009808 -0.001951
v -0.005000 -0.009808 -0.001951
v 0.005000 -0.008315 -0.005556
v -0.005000 -0.008315 -0.005556
v 0.005000 -0.005556 -0.008315
v -0.005000 -0.005556 -0.008315
v 0.005000 -0.001951 -0.009808
v -0.005000 -0.000780 -0.009808
v 0.005000 0.001951 -0.009808
v -0.005000 0.000780 -0.009808
v 0.005000 0.005556 -0.008315
v -0.005000 0.005556 -0.008315
v 0.005000 0.008315 -0.005556
v -0.005000 0.008315 -0.005556
v 0.005000 0.009808 -0.001951
v -0.005000 0.009808 -0.001951
v 0.005000 0.009808 0.001951
v -0.005000 0.009808 0.001951
v 0.005000 0.008315 0.005556
v -0.005000 0.008315 0.005556
v 0.005000 0.005556 0.008315
v -0.005000 0.005556 0.008315
v 0.005000 0.001951 0.027186
v 0.005000 -0.001951 0.027186
v 0.005000 -0.001951 -0.027184
v 0.005000 0.001951 -0.027184
v 0.002000 -0.001600 0.027186
v -0.005000 -0.000780 0.020186
v -0.005000 0.000780 0.020186
v 0.002000 0.001600 0.027186
v -0.005000 -0.000780 -0.020184
v 0.002000 -0.001600 -0.027184
v 0.002000 0.001600 -0.027184
v -0.005000 0.000780 -0.020184
v -0.006000 -0.000699 0.008780
v -0.006000 0.000699 0.008780
v -0.006000 -0.004973 0.007443
v -0.006000 -0.007443 0.004973
v -0.006000 -0.008780 0.001746
v -0.006000 -0.008780 -0.001746
v -0.006000 -0.007443 -0.004973
v -0.006000 -0.004973 -0.007443
v -0.006000 -0.000699 -0.008780
v -0.006000 0.000699 -0.008780
v -0.006000 0.004973 -0.007443
v -0.006000 0.007443 -0.004973
v -0.006000 0.008780 -0.001746
v -0.006000 0.008780 0.001746
v -0.006000 0.007443 0.004973
v -0.006000 0.004973 0.007443
v 0.005000 0.001418 0.007128
v 0.005000 -0.001418 0.007128
v 0.005000 -0.004037 0.006042
v 0.005000 -0.006042 0.004037
v 0.005000 -0.007128 0.001418
v 0.005000 -0.007128 -0.001418
v 0.005000 -0.006042 -0.004038
v 0.005000 -0.004037 -0.006043
v 0.005000 -0.001418 -0.007128
v 0.005000 0.001418 -0.007128
v 0.005000 0.004038 -0.006043
v 0.005000 0.006043 -0.004038
v 0.005000 0.007128 -0.001418
v 0.005000 0.007128 0.001418
v 0.005000 0.006043 0.004037
v 0.005000 0.004038 0.006042
v 0.006000 0.001418 0.007128
v 0.006000 -0.001418 0.007128
v 0.006000 -0.004037 0.006042
v 0.006000 -0.006042 0.004037
v 0.006000 -0.007128 0.001418
v 0.006000 -0.007128 -0.001418
v 0.006000 -0.006042 -0.004038
v 0.006000 -0.004037 -0.006043
v 0.006000 -0.001418 -0.007128
v 0.006000 0.001418 -0.007128
v 0.006000 0.004038 -0.006043
v 0.006000 0.006043 -0.004038
v 0.006000 0.007128 -0.001418
v 0.006000 0.007128 0.001418
v 0.006000 0.006043 0.004037
v 0.006000 0.004038 0.006042
vn -0.0100 -0.3588 0.9334
vn -0.0137 -0.5268 0.8499
vn -0.0000 -0.5556 0.8315
vn -0.0000 -0.8315 0.5556
vn -0.0000 -0.9808 0.1951
vn -0.0000 -0.9808 -0.1951
vn -0.0000 -0.8315 -0.5556
vn -0.0000 -0.5556 -0.8315
vn -0.0137 -0.5268 -0.8499
vn -0.0100 -0.3588 -0.9334
vn -0.0100 0.3588 -0.9334
vn -0.0137 0.5268 -0.8499
vn -0.0000 0.5556 -0.8315
vn -0.0000 0.8315 -0.5556
vn -0.0000 0.9808 -0.1951
vn -0.0000 0.9808 0.1951
vn -0.0000 0.8315 0.5556
vn -0.7232 0.3601 -0.5893
vn -0.7235 0.5740 -0.3835
vn -0.0000 0.5556 0.8315
vn -0.0137 0.5268 0.8499
vn -0.0100 0.3588 0.9334
vn 1.0000 -0.0000 -0.0000
vn -0.7071 -0.0000 0.7071
vn -0.7071 -0.0000 -0.7071
vn -1.0000 -0.0000 -0.0000
vn -0.0000 -0.0000 1.0000
vn -0.1163 -0.9932 -0.0000
vn -0.1163 0.9932 -0.0000
vn -0.0000 -0.0000 -1.0000
vn -0.7171 0.1021 0.6894
vn -0.7231 0.3541 0.5930
vn -0.7169 0.1091 0.6886
vn -0.7236 -0.6770 0.1347
vn -0.7236 -0.5739 0.3835
vn -0.7171 0.1021 -0.6894
vn -0.7169 -0.1091 -0.6886
vn -0.7169 0.1091 -0.6886
vn -0.7235 0.6770 0.1347
vn -0.7236 0.5739 0.3835
vn -0.7172 -0.1021 0.6894
vn -0.7231 -0.3541 0.5930
vn -0.7233 -0.3600 0.5893
vn -0.7233 -0.3601 -0.5893
vn -0.7236 -0.5739 -0.3835
vn -0.7231 -0.3541 -0.5931
vn -0.7235 0.6770 -0.1347
vn -0.7236 -0.6770 -0.1347
vn -0.7231 0.3542 -0.5931
vn -0.7233 0.3600 0.5893
vn -0.7171 -0.1021 -0.6894
vn -0.7169 -0.1090 0.6886
vn -0.0000 -0.1951 -0.9808
vn -0.0000 -0.1951 0.9808
vn -0.0000 0.1951 0.9808
vn -0.0000 0.1951 -0.9808
vn -0.0349 -0.2983 0.9538
vn -0.0349 -0.2983 -0.9538
vn -0.0349 0.2983 -0.9538
vn -0.0349 0.2983 0.9538
vt 0.160775 0.851588
vt 0.179590 0.847404
vt 0.164678 0.857406
vt 0.168580 0.863225
vt 0.183493 0.853223
vt 0.172483 0.869043
vt 0.187395 0.859041
vt 0.176385 0.874862
vt 0.191298 0.864860
vt 0.180288 0.880680
vt 0.195200 0.870678
vt 0.184191 0.886499
vt 0.199103 0.876497
vt 0.188093 0.892317
vt 0.158841 0.911937
vt 0.140026 0.916121
vt 0.154939 0.906119
vt 0.151036 0.900300
vt 0.136124 0.910302
vt 0.147134 0.894481
vt 0.132221 0.904483
vt 0.143231 0.888663
vt 0.128319 0.898665
vt 0.139328 0.882844
vt 0.124462 0.919051
vt 0.125997 0.912097
vt 0.128344 0.913218
vt 0.124416 0.892846
vt 0.135426 0.877026
vt 0.120513 0.887028
vt 0.131523 0.871207
vt 0.164781 0.869698
vt 0.166651 0.865161
vt 0.152908 0.865185
vt 0.129708 0.843173
vt 0.135526 0.839271
vt 0.172527 0.894437
vt 0.184088 0.924251
vt 0.166709 0.898340
vt 0.210686 0.297201
vt 0.194389 0.288916
vt 0.196208 0.286784
vt 0.025491 0.401709
vt 0.041788 0.393425
vt 0.029219 0.406080
vt 0.175754 0.286114
vt 0.175754 0.288916
vt 0.206958 0.301572
vt 0.213917 0.306181
vt 0.206958 0.306995
vt 0.175754 0.268035
vt 0.206958 0.273459
vt 0.194389 0.286114
vt 0.022261 0.410689
vt 0.029219 0.411504
vt 0.060419 0.393425
vt 0.041788 0.390623
vt 0.060419 0.390623
vt 0.029219 0.377968
vt 0.029219 0.372544
vt 0.060419 0.411504
vt 0.122522 0.917318
vt 0.099790 0.917358
vt 0.099750 0.894626
vt 0.109121 0.887693
vt 0.117261 0.891111
vt 0.109263 0.890268
vt 0.092464 0.905862
vt 0.096275 0.899847
vt 0.095062 0.906000
vt 0.116119 0.923678
vt 0.113009 0.921676
vt 0.115468 0.921182
vt 0.122482 0.894586
vt 0.105940 0.888331
vt 0.098061 0.892648
vt 0.103889 0.923180
vt 0.105011 0.920833
vt 0.128453 0.912955
vt 0.127210 0.905944
vt 0.129807 0.906081
vt 0.093844 0.913016
vt 0.096296 0.912149
vt 0.116332 0.923612
vt 0.124211 0.919296
vt 0.124214 0.892646
vt 0.118382 0.888763
vt 0.093927 0.898725
vt 0.113150 0.924251
vt 0.108900 0.887714
vt 0.106803 0.890762
vt 0.106152 0.888266
vt 0.129807 0.905797
vt 0.125975 0.899795
vt 0.128428 0.898928
vt 0.097855 0.919097
vt 0.135626 0.040824
vt 0.140718 0.039028
vt 0.140718 0.040824
vt 0.169052 0.890974
vt 0.146759 0.881786
vt 0.147761 0.886778
vt 0.159785 0.868713
vt 0.154793 0.869716
vt 0.176409 0.888605
vt 0.172857 0.881740
vt 0.177764 0.881731
vt 0.152966 0.898364
vt 0.150597 0.891006
vt 0.154836 0.893827
vt 0.169019 0.872519
vt 0.159840 0.899718
vt 0.164823 0.893810
vt 0.141852 0.881794
vt 0.147743 0.876790
vt 0.159777 0.863806
vt 0.171873 0.886735
vt 0.147089 0.869088
vt 0.150565 0.872552
vt 0.171855 0.876748
vt 0.159831 0.894812
vt 0.143207 0.874920
vt 0.171267 0.040824
vt 0.176359 0.039028
vt 0.176359 0.040824
vt 0.130535 0.040824
vt 0.135626 0.039028
vt 0.166176 0.040824
vt 0.171267 0.039028
vt 0.125443 0.040824
vt 0.130535 0.039028
vt 0.161084 0.040824
vt 0.166176 0.039028
vt 0.115260 0.040824
vt 0.120351 0.039028
vt 0.120351 0.040824
vt 0.125443 0.039028
vt 0.155992 0.040824
vt 0.161084 0.039028
vt 0.110168 0.040824
vt 0.115260 0.039028
vt 0.150901 0.040824
vt 0.155992 0.039028
vt 0.105077 0.040824
vt 0.110168 0.039028
vt 0.145809 0.040824
vt 0.150901 0.039028
vt 0.099985 0.040824
vt 0.105077 0.039028
vt 0.145809 0.039028
vt 0.094893 0.040824
vt 0.099985 0.039028
vt 0.174597 0.839935
vt 0.204119 0.883950
vt 0.145019 0.923590
vt 0.115497 0.879575
vt 0.189907 0.920348
vt 0.039970 0.391293
vt 0.212664 0.300904
vt 0.206958 0.268035
vt 0.175754 0.306995
vt 0.023513 0.405412
vt 0.060419 0.372544
vt 0.118056 0.888634
vt 0.093819 0.898988
vt 0.113371 0.924229
vt 0.098057 0.919298
vt 0.092465 0.906147
vt 0.097810 0.892893
vt 0.104216 0.923310
vt 0.093953 0.913279
vt 0.094893 0.039028
s 1
usemtl HandleSurface
f 3/1/1 6/2/2 5/3/3
f 6/2/2 7/4/4 5/3/3
f 8/5/4 9/6/5 7/4/4
f 10/7/5 11/8/6 9/6/5
f 12/9/6 13/10/7 11/8/6
f 14/11/7 15/12/8 13/10/7
f 16/13/9 17/14/10 15/12/8
f 19/15/11 22/16/12 21/17/13
f 22/16/12 23/18/14 21/17/13
f 24/19/14 25/20/15 23/18/14
f 26/21/15 27/22/16 25/20/15
f 28/23/16 29/24/17 27/22/16
f 22/25/18 56/26/19 24/27/19
f 30/28/17 31/29/20 29/24/17
f 32/30/21 1/31/22 31/29/20
f 9/6/23 64/32/23 7/33/23
f 3/34/23 33/35/23 34/36/23
f 17/37/23 36/38/23 19/39/23
f 37/40/24 39/41/24 38/42/24
f 42/43/25 44/44/25 43/45/25
f 4/46/26 39/41/26 2/47/26
f 40/48/27 34/49/27 33/50/27
f 3/51/28 37/52/28 38/53/28
f 2/47/29 40/48/29 33/50/29
f 35/54/30 43/45/30 36/55/30
f 20/56/26 41/57/26 18/58/26
f 18/58/28 42/59/28 35/60/28
f 19/61/29 43/45/29 44/44/29
f 55/62/26 51/63/26 47/64/26
f 2/65/31 60/66/32 46/67/33
f 10/68/34 48/69/35 49/70/34
f 20/71/36 53/72/37 54/73/38
f 28/23/39 59/74/40 30/28/40
f 4/75/41 47/64/42 6/76/43
f 16/77/44 51/63/45 52/78/46
f 24/79/19 57/80/47 26/81/47
f 12/82/48 49/70/34 50/83/48
f 20/84/36 55/62/49 22/85/18
f 30/86/40 60/66/32 32/87/50
f 8/88/35 47/64/42 48/69/35
f 18/89/51 52/78/46 53/72/37
f 2/90/31 45/91/52 4/92/41
f 26/93/47 58/94/39 28/95/39
f 14/96/45 50/83/48 51/63/45
f 74/97/16 89/98/15 73/99/15
f 19/39/23 69/100/23 17/37/23
f 27/22/23 75/101/23 74/102/23
f 3/34/23 63/103/23 62/104/23
f 15/105/23 67/106/23 13/107/23
f 23/108/23 73/109/23 72/110/23
f 11/8/23 65/111/23 9/6/23
f 21/112/23 70/113/23 19/39/23
f 29/114/23 76/115/23 75/101/23
f 7/33/23 63/103/23 5/116/23
f 17/37/23 68/117/23 15/105/23
f 1/118/23 62/104/23 61/119/23
f 25/20/23 74/102/23 73/109/23
f 13/107/23 66/120/23 11/8/23
f 21/112/23 72/110/23 71/121/23
f 31/122/23 61/119/23 76/115/23
f 67/123/7 82/124/6 66/125/6
f 75/126/17 90/127/16 74/97/16
f 68/128/8 83/129/7 67/123/7
f 76/130/20 91/131/17 75/126/17
f 69/132/53 84/133/8 68/128/8
f 62/134/54 77/135/55 61/136/55
f 61/136/55 92/137/20 76/130/20
f 70/138/56 85/139/53 69/132/53
f 63/140/3 78/141/54 62/134/54
f 71/142/13 86/143/56 70/138/56
f 64/144/4 79/145/3 63/140/3
f 72/146/14 87/147/13 71/142/13
f 65/148/5 80/149/4 64/144/4
f 73/99/15 88/150/14 72/146/14
f 66/151/6 81/152/5 65/148/5
f 3/1/1 4/153/57 6/2/2
f 6/2/2 8/5/4 7/4/4
f 8/5/4 10/7/5 9/6/5
f 10/7/5 12/9/6 11/8/6
f 12/9/6 14/11/7 13/10/7
f 14/11/7 16/13/9 15/12/8
f 16/13/9 18/154/58 17/14/10
f 19/15/11 20/155/59 22/16/12
f 22/16/12 24/19/14 23/18/14
f 24/19/14 26/21/15 25/20/15
f 26/21/15 28/23/16 27/22/16
f 28/23/16 30/28/17 29/24/17
f 22/25/18 55/62/49 56/26/19
f 30/28/17 32/30/21 31/29/20
f 32/30/21 2/156/60 1/31/22
f 9/6/23 65/111/23 64/32/23
f 3/34/23 1/118/23 33/35/23
f 17/37/23 35/157/23 36/38/23
f 37/40/24 40/48/24 39/41/24
f 42/43/25 41/158/25 44/44/25
f 4/46/26 38/53/26 39/41/26
f 40/48/27 37/159/27 34/49/27
f 38/53/28 4/46/28 3/51/28
f 3/51/28 34/160/28 37/52/28
f 33/50/29 1/161/29 2/47/29
f 2/47/29 39/41/29 40/48/29
f 35/54/30 42/162/30 43/45/30
f 20/56/26 44/44/26 41/57/26
f 35/60/28 17/163/28 18/58/28
f 18/58/28 41/57/28 42/59/28
f 44/44/29 20/56/29 19/61/29
f 19/61/29 36/55/29 43/45/29
f 47/64/26 45/91/26 46/67/26
f 46/67/26 60/66/26 59/74/26
f 59/74/26 58/94/26 57/80/26
f 57/80/26 56/26/26 55/62/26
f 55/62/26 54/73/26 53/72/26
f 53/72/26 52/78/26 51/63/26
f 51/63/26 50/83/26 49/70/26
f 49/70/26 48/69/26 47/64/26
f 47/64/26 46/67/26 59/74/26
f 59/74/26 57/80/26 55/62/26
f 55/62/26 53/72/26 51/63/26
f 51/63/26 49/70/26 47/64/26
f 47/64/26 59/74/26 55/62/26
f 2/65/31 32/164/50 60/66/32
f 10/68/34 8/165/35 48/69/35
f 20/71/36 18/166/51 53/72/37
f 28/23/39 58/94/39 59/74/40
f 4/75/41 45/91/52 47/64/42
f 16/77/44 14/167/45 51/63/45
f 24/79/19 56/26/19 57/80/47
f 12/82/48 10/168/34 49/70/34
f 20/84/36 54/73/38 55/62/49
f 30/86/40 59/74/40 60/66/32
f 8/88/35 6/169/43 47/64/42
f 18/89/51 16/170/44 52/78/46
f 2/90/31 46/67/33 45/91/52
f 26/93/47 57/80/47 58/94/39
f 14/96/45 12/171/48 50/83/48
f 74/97/16 90/127/16 89/98/15
f 19/39/23 70/113/23 69/100/23
f 27/22/23 29/114/23 75/101/23
f 3/34/23 5/116/23 63/103/23
f 15/105/23 68/117/23 67/106/23
f 23/108/23 25/20/23 73/109/23
f 11/8/23 66/120/23 65/111/23
f 21/112/23 71/121/23 70/113/23
f 29/114/23 31/122/23 76/115/23
f 7/33/23 64/32/23 63/103/23
f 17/37/23 69/100/23 68/117/23
f 1/118/23 3/34/23 62/104/23
f 25/20/23 27/22/23 74/102/23
f 13/107/23 67/106/23 66/120/23
f 21/112/23 23/108/23 72/110/23
f 31/122/23 1/118/23 61/119/23
f 67/123/7 83/129/7 82/124/6
f 75/126/17 91/131/17 90/127/16
f 68/128/8 84/133/8 83/129/7
f 76/130/20 92/137/20 91/131/17
f 69/132/53 85/139/53 84/133/8
f 62/134/54 78/141/54 77/135/55
f 61/136/55 77/135/55 92/137/20
f 70/138/56 86/143/56 85/139/53
f 63/140/3 79/145/3 78/141/54
f 71/142/13 87/147/13 86/143/56
f 64/144/4 80/149/4 79/145/3
f 72/146/14 88/150/14 87/147/13
f 65/148/5 81/152/5 80/149/4
f 73/99/15 89/98/15 88/150/14
f 66/151/6 82/172/6 81/152/5
o Screw.015
v -0.006000 -0.002768 0.004162
v -0.006833 -0.002768 0.004162
v -0.006000 -0.004150 0.002785
v -0.006833 -0.004150 0.002785
v -0.006000 -0.004900 0.000984
v -0.006833 -0.004900 0.000984
v -0.006000 -0.004904 -0.000967
v -0.006833 -0.004904 -0.000967
v -0.006000 -0.004160 -0.002770
v -0.006833 -0.004160 -0.002770
v -0.006000 -0.002783 -0.004152
v -0.006833 -0.002783 -0.004152
v -0.006000 -0.000982 -0.004902
v -0.006833 -0.000982 -0.004902
v -0.006000 0.000969 -0.004906
v -0.006833 0.000969 -0.004906
v -0.006000 0.002772 -0.004162
v -0.006833 0.002772 -0.004162
v -0.006000 0.004154 -0.002785
v -0.006833 0.004154 -0.002785
v -0.006000 0.004904 -0.000984
v -0.006833 0.004904 -0.000984
v -0.006000 0.004908 0.000967
v -0.006833 0.004908 0.000967
v -0.006000 0.004164 0.002770
v -0.006833 0.004164 0.002770
v -0.006000 0.002787 0.004152
v -0.006833 0.002787 0.004152
v -0.006000 0.000986 0.004902
v -0.006833 0.000986 0.004902
v -0.006000 -0.000965 0.004906
v -0.006833 -0.000965 0.004906
v -0.006833 -0.003594 0.002412
v -0.006833 -0.002397 0.003604
v -0.006833 -0.004243 0.000852
v -0.006833 -0.004246 -0.000837
v -0.006833 -0.003602 -0.002399
v -0.006833 -0.002410 -0.003596
v -0.006833 -0.000850 -0.004245
v -0.006833 0.000839 -0.004248
v -0.006833 0.002401 -0.003604
v -0.006833 0.003598 -0.002412
v -0.006833 0.004247 -0.000852
v -0.006833 0.004250 0.000837
v -0.006833 0.003606 0.002399
v -0.006833 0.002414 0.003596
v -0.006833 0.000854 0.004245
v -0.006833 -0.000835 0.004248
v -0.007706 -0.003594 0.002367
v -0.007706 -0.002397 0.003604
v -0.007706 -0.004243 0.000302
v -0.007706 -0.004246 -0.000297
v -0.007706 -0.003602 -0.002355
v -0.007706 -0.002410 -0.003596
v -0.007706 -0.000850 -0.004245
v -0.007706 0.000839 -0.004248
v -0.007706 0.002401 -0.003604
v -0.007706 0.003598 -0.002367
v -0.007706 0.004247 -0.000303
v -0.007706 0.004250 0.000297
v -0.007706 0.003606 0.002355
v -0.007706 0.002414 0.003596
v -0.007706 0.000854 0.004245
v -0.007706 -0.000835 0.004248
v -0.008256 -0.003259 0.002147
v -0.008256 -0.002173 0.003268
v -0.008256 -0.003847 0.000479
v -0.008256 -0.003850 -0.000471
v -0.008256 -0.003266 -0.002135
v -0.008256 -0.002185 -0.003261
v -0.008256 -0.000771 -0.003849
v -0.008256 0.000761 -0.003852
v -0.008256 0.002177 -0.003268
v -0.008256 0.003263 -0.002147
v -0.008256 0.003851 -0.000479
v -0.008256 0.003854 0.000470
v -0.008256 0.003270 0.002135
v -0.008256 0.002189 0.003261
v -0.008256 0.000775 0.003849
v -0.008256 -0.000757 0.003852
vn -0.0000 0.1933 -0.9811
vn -0.0000 0.5541 -0.8325
vn -0.0000 -0.5570 -0.8305
vn -0.0000 -0.8325 -0.5541
vn -0.0000 0.8305 -0.5570
vn -1.0000 -0.0000 -0.0000
vn -0.0000 0.8325 0.5541
vn -0.0000 0.9811 0.1933
vn -0.0000 0.9804 -0.1968
vn -0.0000 0.8305 -0.5571
vn -0.0000 0.5570 0.8305
vn -0.0000 -0.5541 0.8325
vn -0.0000 -0.1933 0.9811
vn -0.0227 -0.8310 0.5558
vn -0.0055 -0.5564 0.8309
vn -0.0546 -0.8445 0.5327
vn -0.0000 -0.9804 0.1968
vn -0.0000 -0.8305 0.5571
vn -0.0000 -0.8305 0.5570
vn -0.5822 -0.6923 0.4264
vn -0.5918 -0.4533 0.6665
vn -0.5895 -0.6880 0.4233
vn -0.0000 0.1968 0.9804
vn -0.0000 0.5571 0.8305
vn -0.0000 -0.1968 -0.9804
vn -0.0000 -0.5571 -0.8305
vn -0.5823 0.6934 0.4244
vn -0.5918 0.4556 0.6650
vn -0.5918 0.4547 0.6656
vn -0.0000 -0.9811 -0.1933
vn -0.0227 0.8310 -0.5558
vn -0.0055 0.5564 -0.8309
vn -0.0545 0.8445 -0.5327
vn -0.1013 -0.9709 0.2170
vn -0.0615 -0.9931 0.0996
vn -0.1012 0.9709 -0.2170
vn -0.0615 0.9931 -0.0997
vn -0.0982 0.9720 0.2136
vn -0.0586 0.9938 0.0947
vn -0.3059 0.0010 0.9520
vn -0.3006 0.0006 0.9538
vn -0.3004 0.0006 0.9538
vn -0.0981 -0.9720 -0.2136
vn -0.0536 -0.8462 -0.5301
vn -0.0225 -0.8330 -0.5529
vn -0.0536 0.8463 0.5301
vn -0.0225 0.8330 0.5529
vn -0.0054 -0.5593 -0.8289
vn -0.0054 0.5593 0.8289
vn -0.5918 -0.4556 -0.6650
vn -0.5918 -0.1587 -0.7903
vn -0.5918 -0.4547 -0.6656
vn -0.5918 0.1558 -0.7908
vn -0.5918 0.4523 -0.6672
vn -0.0586 -0.9938 -0.0948
vn -0.3064 -0.0010 -0.9519
vn -0.3010 -0.0006 -0.9536
vn -0.3008 -0.0006 -0.9537
vn -0.5918 0.1587 0.7903
vn -0.5918 -0.1558 0.7908
vn -0.5823 -0.6934 -0.4244
vn -0.5822 0.6923 -0.4264
vn -0.5918 0.4533 -0.6665
vn -0.5895 0.6880 -0.4233
vn -0.5207 -0.8130 0.2607
vn -0.5083 -0.8215 0.2583
vn -0.5207 0.8129 -0.2608
vn -0.5084 0.8215 -0.2583
vn -0.5918 -0.4523 0.6672
vn -0.5223 -0.8124 -0.2592
vn -0.5895 -0.6891 -0.4214
vn -0.5223 0.8124 0.2591
vn -0.5895 0.6891 0.4214
vn -0.5103 -0.8208 -0.2568
vn -0.5102 0.8208 0.2567
vn -0.3064 0.0011 0.9519
vn -0.3068 -0.0011 -0.9518
vt 0.044632 0.085952
vt 0.041796 0.084309
vt 0.044705 0.084450
vt 0.070120 0.106339
vt 0.066758 0.107775
vt 0.066758 0.106339
vt 0.029772 0.106339
vt 0.026410 0.107775
vt 0.026410 0.106339
vt 0.046359 0.090569
vt 0.043222 0.089435
vt 0.046584 0.089435
vt 0.039859 0.106339
vt 0.036497 0.107775
vt 0.036497 0.106339
vt 0.023047 0.107775
vt 0.023047 0.106339
vt 0.033135 0.106339
vt 0.029772 0.107775
vt 0.043222 0.106339
vt 0.039859 0.107775
vt 0.053309 0.106339
vt 0.049946 0.107775
vt 0.049946 0.106339
vt 0.033135 0.107775
vt 0.021505 0.086089
vt 0.018525 0.084725
vt 0.021433 0.084586
vt 0.015616 0.084865
vt 0.018597 0.086228
vt 0.015634 0.086371
vt 0.060033 0.106339
vt 0.056671 0.107775
vt 0.056671 0.106339
vt 0.016134 0.088369
vt 0.019158 0.087976
vt 0.016826 0.089316
vt 0.046584 0.106339
vt 0.043222 0.107775
vt 0.073483 0.106339
vt 0.070120 0.107775
vt 0.029977 0.087705
vt 0.026929 0.087604
vt 0.027276 0.086481
vt 0.063396 0.106339
vt 0.060033 0.107775
vt 0.019685 0.107775
vt 0.019685 0.106339
vt 0.043447 0.105206
vt 0.046359 0.105206
vt 0.053309 0.107775
vt 0.038888 0.084168
vt 0.041724 0.085811
vt 0.038761 0.085669
vt 0.012710 0.085035
vt 0.011911 0.086624
vt 0.035979 0.084058
vt 0.035032 0.085563
vt 0.033067 0.084060
vt 0.033999 0.085564
vt 0.000877 0.011494
vt 0.013263 0.004990
vt 0.014287 0.005626
vt 0.009812 0.085316
vt 0.007196 0.087186
vt 0.006926 0.085704
vt 0.030284 0.085669
vt 0.030158 0.084168
vt 0.004261 0.087611
vt 0.004045 0.086122
vt 0.027321 0.085810
vt 0.027249 0.084307
vt 0.049885 0.087982
vt 0.047540 0.086093
vt 0.050338 0.086897
vt 0.044711 0.087125
vt 0.041769 0.086482
vt 0.024341 0.084447
vt 0.047613 0.084590
vt 0.010883 0.086724
vt 0.014697 0.006575
vt 0.002310 0.013078
vt 0.001287 0.012442
vt 0.024334 0.087122
vt 0.024413 0.085949
vt 0.052909 0.088376
vt 0.047348 0.087252
vt 0.039067 0.087706
vt 0.042115 0.087605
vt 0.039664 0.088715
vt 0.014645 0.091445
vt 0.013514 0.091025
vt 0.037289 0.090624
vt 0.036204 0.090097
vt 0.021696 0.087248
vt 0.018706 0.086891
vt 0.054393 0.091445
vt 0.052217 0.089322
vt 0.031750 0.090619
vt 0.029379 0.088714
vt 0.063396 0.107775
vt 0.046584 0.107775
vt 0.009510 0.016280
vt 0.004384 0.015302
vt 0.014471 0.007760
vt 0.001164 0.086540
vt 0.000877 0.007270
vt 0.003644 0.002846
vt 0.008704 0.001740
vt 0.055520 0.091019
vt 0.032831 0.090086
vt 0.043447 0.090569
vt 0.049049 0.091683
vt 0.073483 0.107775
vt 0.049690 0.090722
vt 0.052068 0.093100
vt 0.053355 0.096206
vt 0.053355 0.099568
vt 0.052068 0.102675
vt 0.049690 0.105052
vt 0.040115 0.105052
vt 0.037738 0.102675
vt 0.036451 0.099568
vt 0.036451 0.096206
vt 0.037738 0.093100
vt 0.040115 0.090722
vt 0.040757 0.091683
vt 0.051107 0.093741
vt 0.038698 0.093741
vt 0.037584 0.096431
vt 0.052222 0.096431
vt 0.052222 0.099343
vt 0.037584 0.099343
vt 0.051107 0.102033
vt 0.038698 0.102033
vt 0.049049 0.104092
vt 0.040757 0.104092
vt 0.001102 0.010309
vt 0.014697 0.010800
vt 0.013760 0.013321
vt 0.011929 0.015223
vt 0.006870 0.016330
vt 0.001380 0.088029
vt 0.011189 0.002767
vt 0.001813 0.004748
vt 0.006064 0.001790
s 1
usemtl Chrome
f 148/173/61 133/174/62 132/175/61
f 104/176/63 101/177/64 102/178/64
f 112/179/65 109/180/62 110/181/62
f 130/182/66 106/183/66 104/184/66
f 118/185/67 115/186/68 116/187/68
f 110/181/62 107/188/61 108/189/61
f 114/190/69 111/191/70 112/179/65
f 120/192/71 117/193/67 118/185/67
f 94/194/72 123/195/73 124/196/73
f 116/187/68 113/197/69 114/190/69
f 156/198/73 126/199/72 140/200/73
f 125/201/74 142/202/75 141/203/76
f 98/204/77 95/205/78 96/206/79
f 141/207/80 158/208/81 157/209/82
f 122/210/83 119/211/84 120/192/71
f 106/212/85 103/213/86 104/176/63
f 153/214/87 170/215/88 154/216/89
f 100/217/90 97/218/77 98/204/77
f 108/189/61 105/219/85 106/220/85
f 138/221/66 139/222/66 122/210/66
f 96/206/79 93/223/72 94/194/72
f 134/224/91 149/225/92 150/226/93
f 127/227/94 141/203/76 143/228/95
f 135/229/96 150/226/93 151/230/97
f 136/231/98 151/230/97 152/232/99
f 151/233/100 160/234/101 144/235/102
f 128/236/103 145/237/104 129/238/105
f 136/231/98 153/239/106 137/240/107
f 129/238/105 146/241/108 130/242/86
f 137/240/107 154/243/109 138/244/84
f 162/245/110 147/246/111 146/247/112
f 164/248/113 149/249/114 148/173/113
f 154/243/109 139/250/83 138/244/84
f 147/246/85 132/175/61 131/251/85
f 128/236/103 143/228/95 144/252/115
f 143/253/116 168/254/117 152/255/118
f 171/256/119 156/198/120 155/257/119
f 170/215/88 155/257/119 154/216/89
f 145/258/121 162/245/110 146/247/112
f 163/259/111 148/173/113 147/246/111
f 150/260/122 165/261/123 166/262/124
f 155/257/83 140/200/73 139/250/83
f 141/207/80 159/263/125 143/264/126
f 150/260/122 167/265/127 151/266/128
f 172/267/120 142/268/129 156/198/120
f 145/258/121 160/269/130 161/270/131
f 153/214/87 168/271/132 169/272/133
f 102/178/64 99/273/90 100/217/90
f 124/196/73 121/274/83 122/210/83
f 125/201/74 126/199/72 142/202/75
f 134/224/91 133/174/62 149/225/92
f 127/227/94 125/201/74 141/203/76
f 135/229/96 134/224/91 150/226/93
f 128/236/103 144/252/115 145/237/104
f 136/231/98 152/232/99 153/239/106
f 129/238/105 145/237/104 146/241/108
f 137/240/107 153/239/106 154/243/109
f 171/275/66 169/276/66 159/277/66
f 146/241/108 131/278/85 130/242/86
f 141/207/80 157/209/82 159/263/125
f 150/260/122 166/262/124 167/265/127
f 166/279/66 164/280/66 162/281/66
f 145/258/121 144/282/134 160/269/130
f 153/214/87 152/283/135 168/271/132
f 143/253/66 151/233/66 144/235/66
f 148/173/61 149/225/92 133/174/62
f 104/176/63 103/213/86 101/177/64
f 112/179/65 111/191/70 109/180/62
f 130/182/66 131/284/66 106/183/66
f 104/184/66 129/285/66 130/182/66
f 118/185/67 117/193/67 115/186/68
f 110/181/62 109/180/62 107/188/61
f 114/190/69 113/197/69 111/191/70
f 120/192/71 119/211/84 117/193/67
f 94/194/72 93/223/72 123/195/73
f 116/187/68 115/186/68 113/197/69
f 156/198/73 142/202/75 126/199/72
f 98/204/77 97/218/77 95/205/78
f 141/207/80 142/268/129 158/208/81
f 122/210/83 121/274/83 119/211/84
f 106/212/85 105/286/85 103/213/86
f 153/214/87 169/272/133 170/215/88
f 100/217/90 99/273/90 97/218/77
f 108/189/61 107/188/61 105/219/85
f 129/285/66 104/184/66 102/287/66
f 102/287/66 100/288/66 98/289/66
f 98/289/66 96/290/66 94/291/66
f 94/291/66 124/292/66 122/210/66
f 122/210/66 120/192/66 118/293/66
f 118/293/66 116/294/66 114/295/66
f 114/295/66 112/296/66 110/297/66
f 110/297/66 108/298/66 106/183/66
f 106/183/66 131/284/66 132/299/66
f 110/297/66 106/183/66 132/299/66
f 128/300/66 129/285/66 102/287/66
f 128/300/66 102/287/66 98/289/66
f 110/297/66 132/299/66 133/301/66
f 110/297/66 133/301/66 134/302/66
f 127/303/66 128/300/66 98/289/66
f 125/304/66 127/303/66 98/289/66
f 114/295/66 110/297/66 134/302/66
f 114/295/66 134/302/66 135/305/66
f 125/304/66 98/289/66 94/291/66
f 126/306/66 125/304/66 94/291/66
f 114/295/66 135/305/66 136/307/66
f 118/293/66 114/295/66 136/307/66
f 140/308/66 126/306/66 94/291/66
f 140/308/66 94/291/66 122/210/66
f 118/293/66 136/307/66 137/309/66
f 118/293/66 137/309/66 138/221/66
f 139/222/66 140/308/66 122/210/66
f 122/210/66 118/293/66 138/221/66
f 96/206/79 95/205/78 93/223/72
f 136/231/98 135/229/96 151/230/97
f 151/233/100 167/310/136 160/234/101
f 162/245/110 163/259/111 147/246/111
f 164/248/113 165/261/123 149/249/114
f 154/243/109 155/257/83 139/250/83
f 147/246/85 148/173/61 132/175/61
f 128/236/103 127/227/94 143/228/95
f 143/253/116 159/277/137 168/254/117
f 171/256/119 172/267/120 156/198/120
f 170/215/88 171/256/119 155/257/119
f 145/258/121 161/270/131 162/245/110
f 163/259/111 164/248/113 148/173/113
f 150/260/122 149/249/114 165/261/123
f 155/257/83 156/198/73 140/200/73
f 172/267/120 158/208/81 142/268/129
f 102/178/64 101/177/64 99/273/90
f 124/196/73 123/195/73 121/274/83
f 159/277/66 157/311/66 158/312/66
f 158/312/66 172/313/66 171/275/66
f 171/275/66 170/314/66 169/276/66
f 169/276/66 168/254/66 159/277/66
f 159/277/66 158/312/66 171/275/66
f 146/241/108 147/315/85 131/278/85
f 162/281/66 161/316/66 160/234/66
f 160/234/66 167/310/66 166/279/66
f 166/279/66 165/317/66 164/280/66
f 164/280/66 163/318/66 162/281/66
f 162/281/66 160/234/66 166/279/66
f 143/253/66 152/255/66 151/233/66
