# Blender 5.1.2
# www.blender.org
mtllib bridge_portal.mtl
o SlimGantryMiddle.014
g bridge_portal
v 0.722136 8.486273 0.178422
v 0.783702 8.486273 0.178422
v 0.722136 8.506045 0.178422
v 0.783702 8.506045 0.178421
v 0.722135 8.486273 -0.178128
v 0.783705 8.486273 -0.178129
v 0.722135 8.506045 -0.178128
v 0.783705 8.506045 -0.178129
v -0.805307 7.261916 0.040389
v -0.805306 7.334776 0.040389
v -0.805307 7.261916 0.020616
v -0.805306 7.334776 0.020616
v 0.761263 7.261916 0.039393
v 0.761264 7.334780 0.039393
v 0.761263 7.261916 0.020620
v 0.761264 7.334780 0.020620
v 0.706543 8.464523 0.158649
v 0.740117 8.403446 0.158649
v 0.706542 8.464523 0.138877
v 0.740117 8.403446 0.138877
v -0.807262 7.299087 0.020616
v -0.773688 7.238010 0.020616
v -0.807262 7.299087 0.000843
v -0.773688 7.238010 0.000843
v 0.722113 8.486222 0.158649
v 0.783688 8.485842 0.158650
v 0.722112 8.486222 0.138877
v 0.783688 8.485842 0.138877
v 0.722115 7.249274 0.020620
v 0.783685 7.248894 0.020620
v 0.722115 7.249274 0.000847
v 0.783684 7.248894 0.000847
v 0.722114 7.340002 0.000424
v 0.783686 7.339622 0.000424
v 0.722114 7.340002 0.020196
v 0.783686 7.339622 0.020196
v -0.805307 7.261916 -0.018961
v -0.805306 7.334776 -0.018961
v -0.805307 7.261916 -0.038734
v -0.805306 7.334776 -0.038734
v 0.761263 7.261916 -0.019957
v 0.761264 7.334780 -0.019957
v 0.761263 7.261916 -0.039729
v 0.761264 7.334780 -0.039729
v 0.706542 8.464523 -0.138582
v 0.740117 8.403446 -0.138582
v 0.706542 8.464523 -0.158354
v 0.740116 8.403446 -0.158354
v -0.807262 7.299087 -0.000187
v -0.773688 7.238010 -0.000187
v -0.807262 7.299087 -0.019959
v -0.773688 7.238010 -0.019959
v 0.722112 8.486222 -0.138582
v 0.783687 8.485842 -0.138581
v 0.722112 8.486222 -0.158354
v 0.783687 8.485842 -0.158354
v 0.722115 7.249274 -0.000183
v 0.783684 7.248894 -0.000182
v 0.722115 7.249273 -0.019955
v 0.783684 7.248893 -0.019955
v 0.722114 7.340002 -0.019873
v 0.783686 7.339622 -0.019873
v 0.722114 7.340002 -0.000100
v 0.783686 7.339622 -0.000100
v -0.759093 8.413314 0.178418
v -0.759092 8.486174 0.178418
v -0.759093 8.413314 0.158646
v -0.759092 8.486174 0.158646
v 0.753089 8.413314 0.177423
v 0.753090 8.486178 0.177423
v 0.753089 8.413314 0.157650
v 0.753090 8.486178 0.157650
v -0.759094 8.413314 -0.157360
v -0.759093 8.486174 -0.157360
v -0.759093 8.413314 -0.177132
v -0.759093 8.486174 -0.177132
v 0.753088 8.413314 -0.158356
v 0.753089 8.486178 -0.158356
v 0.753088 8.413314 -0.178128
v 0.753089 8.486178 -0.178128
v -0.780413 8.506046 0.094285
v -0.770996 8.506046 0.166326
v -0.780413 8.525819 0.094285
v -0.770996 8.525819 0.166326
v 0.768532 8.506045 -0.176917
v 0.777950 8.506045 -0.104873
v 0.768532 8.525818 -0.176917
v 0.777950 8.525818 -0.104873
vn -0.0000 -0.0000 1.0000
vn -0.0000 1.0000 -0.0000
vn -0.0000 -0.0000 -1.0000
vn -0.0000 -1.0000 -0.0000
vn -1.0000 -0.0000 -0.0000
vn 1.0000 -0.0000 -0.0000
vn 0.0006 -0.0000 1.0000
vn 0.8763 0.4817 -0.0000
vn 0.0639 0.0351 -0.9973
vn -0.8763 -0.4817 -0.0000
vn -0.0639 -0.0351 0.9973
vn -0.6100 0.7924 -0.0000
vn 0.6100 -0.7924 -0.0000
vn 0.0062 1.0000 -0.0000
vn -0.0000 -0.0047 -1.0000
vn -0.0062 -1.0000 -0.0000
vn -0.0007 -0.1199 0.9928
vn -0.0000 0.0047 1.0000
vn 0.0007 0.1199 -0.9928
vn -0.0006 -0.0000 -1.0000
vn -0.0641 -0.0352 -0.9973
vn 0.0641 0.0352 0.9973
vn -0.0000 0.0009 -1.0000
vn 0.0007 0.1199 0.9928
vn -0.0000 -0.0009 1.0000
vn -0.0007 -0.1199 -0.9928
vn -0.0007 -0.0000 -1.0000
vn 0.0007 -0.0000 1.0000
vn 0.9916 -0.0000 -0.1296
vn -0.1725 -0.0000 -0.9850
vn 0.1725 -0.0000 0.9850
vn -0.9916 -0.0000 0.1296
vt 0.531698 0.134441
vt 0.509715 0.156423
vt 0.509715 0.134441
vt 0.531036 0.513198
vt 0.511506 0.532727
vt 0.511506 0.513198
vt 0.527598 0.551175
vt 0.520784 0.555723
vt 0.512318 0.551175
vt 0.521867 0.582774
vt 0.513508 0.582774
vt 0.509716 0.134441
vt 0.531698 0.156423
vt 0.509716 0.156423
vt 0.531412 0.512967
vt 0.511883 0.532496
vt 0.511579 0.532575
vt 0.513508 0.549339
vt 0.521867 0.557698
vt 0.513508 0.557698
vt 0.531188 0.513198
vt 0.511658 0.532727
vt 0.511658 0.513198
vt 0.523922 0.472988
vt 0.517869 0.479041
vt 0.517869 0.472988
vt 0.534177 0.999999
vt 0.500001 0.000002
vt 0.534177 0.000002
vt 0.511817 0.472988
vt 0.511817 0.479041
vt 0.531698 0.134441
vt 0.509715 0.156423
vt 0.509715 0.134441
vt 0.517869 0.460883
vt 0.523922 0.466936
vt 0.517869 0.466936
vt 0.531036 0.532727
vt 0.534178 0.515525
vt 0.500000 0.765525
vt 0.500000 0.515525
vt 0.529974 0.472988
vt 0.523922 0.479041
vt 0.523922 0.460883
vt 0.521867 0.561878
vt 0.513508 0.566057
vt 0.513508 0.561878
vt 0.521867 0.566057
vt 0.513508 0.574416
vt 0.534186 0.640525
vt 0.568357 0.765525
vt 0.534186 0.765525
vt 0.509329 0.574416
vt 0.509329 0.566057
vt 0.530226 0.566057
vt 0.526046 0.574416
vt 0.526046 0.566057
vt 0.521867 0.574416
vt 0.520707 0.156423
vt 0.521867 0.578595
vt 0.513508 0.578595
vt 0.500001 0.999997
vt 0.534179 0.000002
vt 0.534179 0.999997
vt 0.511506 0.513343
vt 0.531036 0.532873
vt 0.511506 0.532873
vt 0.500000 0.250000
vt 0.534178 0.500000
vt 0.500000 0.500000
vt 0.530884 0.513191
vt 0.511354 0.532721
vt 0.511354 0.513191
vt 0.531698 0.134441
vt 0.529974 0.479041
vt 0.530268 0.443819
vt 0.521671 0.451683
vt 0.510205 0.443819
vt 0.522156 0.451683
vt 0.511506 0.522956
vt 0.531036 0.532721
vt 0.511506 0.532721
vt 0.514843 0.472988
vt 0.514843 0.479041
vt 0.526948 0.472988
vt 0.526948 0.479041
vt 0.520707 0.134441
vt 0.523922 0.482067
vt 0.517869 0.482067
vt 0.568360 0.350301
vt 0.602538 0.225301
vt 0.602538 0.350301
vt 0.534179 1.000000
vt 0.500003 0.000086
vt 0.534179 0.000086
vt 0.500000 0.999999
vt 0.534177 0.000005
vt 0.534177 0.999999
vt 0.511810 0.513191
vt 0.531340 0.532721
vt 0.511810 0.532721
vt 0.531108 0.513119
vt 0.511579 0.513191
vt 0.511579 0.513119
vt 0.534091 0.000013
vt 0.505837 0.999998
vt 0.505837 0.000013
vt 0.531267 0.513119
vt 0.531340 0.532648
vt 0.531267 0.532648
vt 0.523922 0.485093
vt 0.517869 0.485093
vt 0.511737 0.513119
vt 0.511737 0.532648
vt 0.517477 0.514231
vt 0.528859 0.525613
vt 0.523168 0.514231
vt 0.531698 0.156423
vt 0.521295 0.555723
vt 0.531412 0.532496
vt 0.521867 0.549339
vt 0.531188 0.532727
vt 0.500001 0.999999
vt 0.531698 0.156423
vt 0.534178 0.765525
vt 0.568357 0.640525
vt 0.530226 0.574416
vt 0.500001 0.000002
vt 0.531036 0.513343
vt 0.534178 0.250000
vt 0.530884 0.532721
vt 0.531036 0.522956
vt 0.568360 0.225301
vt 0.500003 1.000000
vt 0.500000 0.000005
vt 0.531108 0.532648
vt 0.534091 0.999998
vt 0.531340 0.513119
vt 0.517477 0.531304
s 0
usemtl Catenary
f 2/1/1 3/2/1 1/3/1
f 4/4/2 7/5/2 3/6/2
f 8/7/3 5/8/3 7/9/3
f 5/8/4 2/10/4 1/11/4
f 3/12/5 5/13/5 1/14/5
f 4/15/6 6/16/6 8/17/6
f 9/18/5 12/19/5 11/20/5
f 12/21/3 15/22/3 11/23/3
f 16/24/6 13/25/6 15/26/6
f 13/27/7 10/28/7 9/29/7
f 11/30/4 13/25/4 9/31/4
f 12/32/2 14/33/2 16/34/2
f 17/35/8 20/36/8 19/37/8
f 19/6/9 24/38/9 23/5/9
f 24/24/10 21/25/10 23/26/10
f 22/39/11 17/40/11 21/41/11
f 19/12/12 21/13/12 17/14/12
f 20/42/13 22/43/13 24/24/13
f 26/44/14 27/37/14 25/35/14
f 34/45/15 31/46/15 33/47/15
f 32/48/16 29/49/16 31/46/16
f 35/50/17 26/51/17 25/52/17
f 31/46/5 35/53/5 33/54/5
f 28/55/6 36/56/6 34/57/6
f 32/48/6 36/56/6 30/58/6
f 27/12/5 35/59/5 25/14/5
f 29/49/18 36/60/18 35/61/18
f 28/19/19 33/47/19 27/20/19
f 38/44/5 39/37/5 37/35/5
f 40/62/20 43/63/20 39/64/20
f 44/24/6 41/25/6 43/26/6
f 41/65/7 38/66/7 37/67/7
f 39/30/4 41/25/4 37/31/4
f 40/32/2 42/33/2 44/34/2
f 45/35/8 48/36/8 47/37/8
f 47/68/21 52/69/21 51/70/21
f 51/26/10 50/43/10 49/25/10
f 50/71/22 45/72/22 49/73/22
f 51/74/12 45/14/12 47/12/12
f 52/24/13 46/75/13 50/43/13
f 54/44/14 55/37/14 53/35/14
f 62/76/23 59/77/23 61/78/23
f 60/79/16 57/25/16 59/77/16
f 63/80/24 54/81/24 53/82/24
f 61/83/5 57/25/5 63/84/5
f 62/85/6 54/75/6 64/86/6
f 62/85/6 58/43/6 60/79/6
f 61/87/5 53/14/5 55/12/5
f 57/25/25 64/88/25 63/89/25
f 56/90/26 61/91/26 55/92/26
f 66/44/5 67/37/5 65/35/5
f 68/36/27 71/26/27 67/37/27
f 72/24/6 69/25/6 71/26/6
f 69/93/28 66/94/28 65/95/28
f 67/30/4 69/25/4 65/31/4
f 68/32/2 70/33/2 72/34/2
f 74/44/5 75/37/5 73/35/5
f 76/96/27 79/97/27 75/98/27
f 80/24/6 77/25/6 79/26/6
f 77/99/28 74/100/28 73/101/28
f 75/30/4 77/25/4 73/31/4
f 76/102/2 78/103/2 80/104/2
f 84/105/2 87/106/2 83/107/2
f 87/108/29 86/109/29 85/110/29
f 85/25/4 82/111/4 81/112/4
f 83/113/30 85/110/30 81/114/30
f 84/32/31 86/33/31 88/34/31
f 83/115/32 82/116/32 84/117/32
f 2/1/1 4/118/1 3/2/1
f 4/4/2 8/17/2 7/5/2
f 8/7/3 6/119/3 5/8/3
f 5/8/4 6/119/4 2/10/4
f 3/12/5 7/74/5 5/13/5
f 4/15/6 2/120/6 6/16/6
f 9/18/5 10/121/5 12/19/5
f 12/21/3 16/122/3 15/22/3
f 16/24/6 14/43/6 13/25/6
f 13/27/7 14/123/7 10/28/7
f 11/30/4 15/26/4 13/25/4
f 12/32/2 10/124/2 14/33/2
f 17/35/8 18/44/8 20/36/8
f 19/6/9 20/4/9 24/38/9
f 24/24/10 22/43/10 21/25/10
f 22/39/11 18/125/11 17/40/11
f 19/12/12 23/74/12 21/13/12
f 20/42/13 18/75/13 22/43/13
f 26/44/14 28/36/14 27/37/14
f 34/45/15 32/48/15 31/46/15
f 32/48/16 30/58/16 29/49/16
f 35/50/17 36/126/17 26/51/17
f 31/46/5 29/49/5 35/53/5
f 28/55/6 26/127/6 36/56/6
f 32/48/6 34/57/6 36/56/6
f 27/12/5 33/87/5 35/59/5
f 29/49/18 30/58/18 36/60/18
f 28/19/19 34/45/19 33/47/19
f 38/44/5 40/36/5 39/37/5
f 40/62/20 44/128/20 43/63/20
f 44/24/6 42/43/6 41/25/6
f 41/65/7 42/129/7 38/66/7
f 39/30/4 43/26/4 41/25/4
f 40/32/2 38/124/2 42/33/2
f 45/35/8 46/44/8 48/36/8
f 47/68/21 48/130/21 52/69/21
f 51/26/10 52/24/10 50/43/10
f 50/71/22 46/131/22 45/72/22
f 51/74/12 49/13/12 45/14/12
f 52/24/13 48/42/13 46/75/13
f 54/44/14 56/36/14 55/37/14
f 62/76/23 60/79/23 59/77/23
f 60/79/16 58/43/16 57/25/16
f 63/80/24 64/132/24 54/81/24
f 61/83/5 59/77/5 57/25/5
f 62/85/6 56/42/6 54/75/6
f 62/85/6 64/86/6 58/43/6
f 61/87/5 63/59/5 53/14/5
f 57/25/25 58/43/25 64/88/25
f 56/90/26 62/133/26 61/91/26
f 66/44/5 68/36/5 67/37/5
f 68/36/27 72/24/27 71/26/27
f 72/24/6 70/43/6 69/25/6
f 69/93/28 70/134/28 66/94/28
f 67/30/4 71/26/4 69/25/4
f 68/32/2 66/124/2 70/33/2
f 74/44/5 76/36/5 75/37/5
f 76/96/27 80/135/27 79/97/27
f 80/24/6 78/43/6 77/25/6
f 77/99/28 78/103/28 74/100/28
f 75/30/4 79/26/4 77/25/4
f 76/102/2 74/136/2 78/103/2
f 84/105/2 88/137/2 87/106/2
f 87/108/29 88/138/29 86/109/29
f 85/25/4 86/43/4 82/111/4
f 83/113/30 87/108/30 85/110/30
f 84/32/31 82/124/31 86/33/31
f 83/115/32 81/139/32 82/116/32
o Pole.001
v 2.200000 -0.600000 0.149999
v 2.200000 8.452378 0.149999
v 2.142597 -0.600000 0.138581
v 2.142597 8.452378 0.138581
v 2.093934 -0.600000 0.106065
v 2.093934 8.452378 0.106065
v 2.061418 -0.600000 0.057402
v 2.061418 8.452378 0.057402
v 2.050000 -0.600000 -0.000001
v 2.050000 8.452378 -0.000001
v 2.061418 -0.600000 -0.057403
v 2.061418 8.452378 -0.057403
v 2.093934 -0.600000 -0.106067
v 2.093934 8.452378 -0.106067
v 2.142597 -0.600000 -0.138583
v 2.142597 8.452378 -0.138583
v 2.200000 -0.600000 -0.150001
v 2.200000 8.452378 -0.150001
v 2.257403 -0.600000 -0.138583
v 2.257403 8.452378 -0.138583
v 2.306066 -0.600000 -0.106067
v 2.306066 8.452378 -0.106067
v 2.338582 -0.600000 -0.057403
v 2.338582 8.452378 -0.057403
v 2.350000 -0.600000 -0.000001
v 2.350000 8.452378 -0.000001
v 2.338582 -0.600000 0.057402
v 2.338582 8.452378 0.057402
v 2.306066 -0.600000 0.106065
v 2.306066 8.452378 0.106065
v 2.257403 -0.600000 0.138581
v 2.257403 8.452378 0.138581
vn -0.0000 -0.0000 1.0000
vn -0.3827 -0.0000 0.9239
vn -0.7071 -0.0000 0.7071
vn -0.9239 -0.0000 0.3827
vn -1.0000 -0.0000 -0.0000
vn -0.9239 -0.0000 -0.3827
vn -0.7071 -0.0000 -0.7071
vn -0.3827 -0.0000 -0.9239
vn -0.0000 -0.0000 -1.0000
vn 0.3827 -0.0000 -0.9239
vn 0.7071 -0.0000 -0.7071
vn 0.9239 -0.0000 -0.3827
vn 1.0000 -0.0000 -0.0000
vn 0.9239 -0.0000 0.3827
vn -0.0000 1.0000 -0.0000
vn 0.7071 -0.0000 0.7071
vn 0.3827 -0.0000 0.9239
vt 0.000002 -1.374996
vt 0.015627 1.000000
vt 0.000002 1.000000
vt 0.015627 -1.374996
vt 0.031251 1.000000
vt 0.031251 -1.374996
vt 0.046876 1.000000
vt 0.046876 -1.374996
vt 0.062501 1.000000
vt 0.062501 -1.374996
vt 0.078126 1.000000
vt 0.078126 -1.374996
vt 0.093751 1.000000
vt 0.093751 -1.374996
vt 0.109375 1.000001
vt 0.109375 -1.374996
vt 0.125000 1.000001
vt 0.125000 -1.374996
vt 0.140625 1.000001
vt 0.140625 -1.374996
vt 0.156250 1.000001
vt 0.156250 -1.374996
vt 0.171875 1.000001
vt 0.171875 -1.374996
vt 0.187499 1.000001
vt 0.187499 -1.374996
vt 0.203124 1.000001
vt 0.036613 0.161613
vt 0.213386 0.161613
vt 0.213386 0.338386
vt 0.203124 -1.374996
vt 0.218749 1.000001
vt 0.218749 -1.374996
vt 0.234374 1.000001
vt 0.234374 -1.374995
vt 0.249999 1.000001
vt 0.172834 0.365482
vt 0.124999 0.374997
vt 0.077165 0.365482
vt 0.036613 0.338386
vt 0.009517 0.297834
vt 0.000002 0.250000
vt 0.009517 0.202165
vt 0.077165 0.134518
vt 0.124999 0.125003
vt 0.172834 0.134518
vt 0.240482 0.202165
vt 0.249997 0.250000
vt 0.240482 0.297834
vt 0.249999 -1.374995
s 1
usemtl Catenary
f 90/140/33 91/141/34 89/142/33
f 92/143/34 93/144/35 91/141/34
f 94/145/35 95/146/36 93/144/35
f 96/147/36 97/148/37 95/146/36
f 98/149/37 99/150/38 97/148/37
f 100/151/38 101/152/39 99/150/38
f 102/153/39 103/154/40 101/152/39
f 104/155/40 105/156/41 103/154/40
f 106/157/41 107/158/42 105/156/41
f 108/159/42 109/160/43 107/158/42
f 110/161/43 111/162/44 109/160/43
f 112/163/44 113/164/45 111/162/44
f 114/165/45 115/166/46 113/164/45
f 110/167/47 102/168/47 94/169/47
f 116/170/46 117/171/48 115/166/46
f 118/172/48 119/173/49 117/171/48
f 120/174/49 89/175/33 119/173/49
f 90/140/33 92/143/34 91/141/34
f 92/143/34 94/145/35 93/144/35
f 94/145/35 96/147/36 95/146/36
f 96/147/36 98/149/37 97/148/37
f 98/149/37 100/151/38 99/150/38
f 100/151/38 102/153/39 101/152/39
f 102/153/39 104/155/40 103/154/40
f 104/155/40 106/157/41 105/156/41
f 106/157/41 108/159/42 107/158/42
f 108/159/42 110/161/43 109/160/43
f 110/161/43 112/163/44 111/162/44
f 112/163/44 114/165/45 113/164/45
f 114/165/45 116/170/46 115/166/46
f 94/169/47 92/176/47 90/177/47
f 90/177/47 120/178/47 118/179/47
f 118/179/47 116/180/47 114/181/47
f 114/181/47 112/182/47 110/167/47
f 110/167/47 108/183/47 106/184/47
f 106/184/47 104/185/47 102/168/47
f 102/168/47 100/186/47 98/187/47
f 98/187/47 96/188/47 94/169/47
f 94/169/47 90/177/47 118/179/47
f 118/179/47 114/181/47 110/167/47
f 110/167/47 106/184/47 102/168/47
f 102/168/47 98/187/47 94/169/47
f 94/169/47 118/179/47 110/167/47
f 116/170/46 118/172/48 117/171/48
f 118/172/48 120/174/49 119/173/49
f 120/174/49 90/189/33 89/175/33
o BridgePortalEnd
v -0.781928 8.486273 0.178421
v -0.721767 8.486273 0.178420
v -0.781928 8.506045 0.178421
v -0.721767 8.506045 0.178420
v -0.781927 8.486273 -0.178129
v -0.721764 8.486273 -0.178130
v -0.781927 8.506045 -0.178129
v -0.721764 8.506045 -0.178130
v -2.200025 7.259987 0.158648
v -2.200103 7.332851 0.158648
v -2.200025 7.259987 0.138875
v -2.200103 7.332851 0.138875
v -0.715365 7.262751 0.020619
v -0.715443 7.335615 0.020619
v -0.715365 7.262751 0.000846
v -0.715443 7.335615 0.000846
v -2.208114 8.421598 0.158648
v -2.174889 8.482345 0.158648
v -2.208114 8.421598 0.138876
v -2.174889 8.482344 0.138876
v -0.736927 7.241345 0.020619
v -0.703702 7.302090 0.020619
v -0.736927 7.241344 0.000846
v -0.703702 7.302090 0.000846
v -2.208113 8.413314 0.178421
v -2.208112 8.486174 0.178421
v -2.208113 8.413314 0.158649
v -2.208112 8.486174 0.158649
v -0.754079 8.413315 0.178421
v -0.754078 8.486178 0.178421
v -0.754079 8.413315 0.158649
v -0.754078 8.486178 0.158649
v -2.200025 7.259987 -0.138583
v -2.200103 7.332851 -0.138583
v -2.200025 7.259987 -0.158355
v -2.200103 7.332851 -0.158355
v -0.715365 7.262751 -0.000184
v -0.715443 7.335615 -0.000184
v -0.715365 7.262751 -0.019956
v -0.715443 7.335615 -0.019956
v -2.208114 8.421598 -0.138583
v -2.174889 8.482345 -0.138583
v -2.208114 8.421598 -0.158355
v -2.174889 8.482344 -0.158355
v -0.736927 7.241345 -0.000184
v -0.703702 7.302090 -0.000184
v -0.736927 7.241344 -0.019956
v -0.703702 7.302090 -0.019956
v -2.208113 8.413314 -0.158357
v -2.208112 8.486174 -0.158357
v -2.208113 8.413314 -0.178130
v -2.208112 8.486174 -0.178130
v -0.754079 8.413315 -0.158357
v -0.754078 8.486178 -0.158357
v -0.754079 8.413315 -0.178129
v -0.754078 8.486178 -0.178129
v -0.782439 8.486222 0.158648
v -0.722271 8.485842 0.158648
v -0.782439 8.486222 0.138876
v -0.722271 8.485842 0.138876
v -0.782436 7.249274 0.020619
v -0.722274 7.248894 0.020619
v -0.782436 7.249274 0.000846
v -0.722274 7.248894 0.000846
v -0.782438 7.340002 0.000423
v -0.722272 7.339622 0.000423
v -0.782438 7.340002 0.020195
v -0.722272 7.339622 0.020195
v -0.782439 8.486222 -0.138583
v -0.722271 8.485842 -0.138583
v -0.782439 8.486222 -0.158355
v -0.722271 8.485842 -0.158355
v -0.782436 7.249274 -0.000184
v -0.722274 7.248894 -0.000184
v -0.782436 7.249274 -0.019956
v -0.722274 7.248894 -0.019956
v -0.782438 7.340002 -0.019874
v -0.722272 7.339622 -0.019874
v -0.782438 7.340002 -0.000101
v -0.722272 7.339622 -0.000102
v -2.200683 8.506046 0.105763
v -2.191677 8.506046 0.177802
v -2.200683 8.525820 0.105763
v -2.191677 8.525820 0.177802
v -0.763033 8.506046 -0.157851
v -0.754026 8.506046 -0.085809
v -0.763033 8.525819 -0.157851
v -0.754026 8.525819 -0.085809
v -2.207906 8.486273 0.178421
v -2.147746 8.486273 0.178420
v -2.207906 8.506045 0.178421
v -2.147746 8.506045 0.178420
v -2.207906 8.486273 -0.178129
v -2.147742 8.486273 -0.178130
v -2.207906 8.506045 -0.178129
v -2.147742 8.506045 -0.178130
vn -0.0000 -0.0000 1.0000
vn -0.0000 1.0000 -0.0000
vn -0.0000 -0.0000 -1.0000
vn -0.0000 -1.0000 -0.0000
vn -1.0000 -0.0000 -0.0000
vn 1.0000 -0.0000 -0.0000
vn -1.0000 -0.0011 -0.0000
vn -0.0926 -0.0001 -0.9957
vn 1.0000 0.0011 -0.0000
vn 0.0926 0.0001 0.9957
vn 0.0019 -1.0000 -0.0000
vn -0.0019 1.0000 -0.0000
vn -0.8773 0.4799 -0.0000
vn -0.0650 0.0356 -0.9972
vn 0.8773 -0.4799 -0.0000
vn 0.0650 -0.0356 0.9972
vn -0.6258 -0.7800 -0.0000
vn 0.6258 0.7800 -0.0000
vn 0.0928 0.0001 -0.9957
vn -0.0928 -0.0001 0.9957
vn 0.0652 -0.0357 -0.9972
vn -0.0652 0.0357 0.9972
vn 0.0063 1.0000 -0.0000
vn -0.0000 -0.0047 -1.0000
vn -0.0063 -1.0000 -0.0000
vn -0.0008 -0.1199 0.9928
vn -0.0000 0.0047 1.0000
vn 0.0008 0.1199 -0.9928
vn -0.0000 0.0009 -1.0000
vn 0.0008 0.1199 0.9928
vn -0.0000 -0.0009 1.0000
vn -0.0008 -0.1199 -0.9928
vn -0.9923 -0.0000 0.1241
vn 0.9923 -0.0000 -0.1241
vn -0.1804 -0.0000 -0.9836
vn 0.1804 -0.0000 0.9836
vt 0.521748 0.499718
vt 0.514923 0.506544
vt 0.514923 0.499718
vt 0.521748 0.506544
vt 0.514923 0.513369
vt 0.521748 0.513369
vt 0.518431 0.806383
vt 0.527631 0.846481
vt 0.506738 0.846481
vt 0.508098 0.513369
vt 0.508098 0.520194
vt 0.528573 0.513369
vt 0.519002 0.806383
vt 0.514923 0.520194
vt 0.533818 0.999999
vt 0.500000 0.000008
vt 0.533818 0.000008
vt 0.521748 0.520194
vt 0.500000 0.813001
vt 0.534177 0.563001
vt 0.534177 0.813001
vt 0.534178 0.747975
vt 0.499999 0.000005
vt 0.534178 0.000005
vt 0.500000 0.999998
vt 0.534178 0.006817
vt 0.534178 0.999998
vt 0.528573 0.520194
vt 0.534178 0.509074
vt 0.500000 0.259074
vt 0.534178 0.259074
vt 0.500000 0.999999
vt 0.534177 0.231429
vt 0.534177 0.999999
vt 0.521748 0.509956
vt 0.514923 0.509956
vt 0.500000 0.678547
vt 0.534177 0.803547
vt 0.500000 0.803547
vt 0.511510 0.520194
vt 0.511510 0.513369
vt 0.525161 0.520194
vt 0.525161 0.513369
vt 0.522763 0.367464
vt 0.522763 0.617464
vt 0.521748 0.523607
vt 0.514923 0.523607
vt 0.521748 0.527019
vt 0.514923 0.527019
vt 0.534177 0.233217
vt 0.500002 0.358217
vt 0.500002 0.233217
vt 0.503746 0.000003
vt 0.534178 0.999776
vt 0.503746 0.999776
vt 0.500000 0.999999
vt 0.500000 0.563001
vt 0.499999 0.747975
vt 0.500000 0.006817
vt 0.500000 0.509074
vt 0.500000 0.231429
vt 0.534177 0.678547
vt 0.534177 0.358217
vt 0.534178 0.000003
s 0
usemtl Catenary
f 122/190/50 123/191/50 121/192/50
f 124/193/51 127/194/51 123/191/51
f 128/195/52 125/196/52 127/194/52
f 125/196/53 122/197/53 121/198/53
f 123/199/54 125/196/54 121/200/54
f 124/201/55 126/202/55 128/195/55
f 129/192/56 132/193/56 131/191/56
f 132/193/57 135/194/57 131/191/57
f 136/195/58 133/203/58 135/194/58
f 133/204/59 130/205/59 129/206/59
f 131/199/60 133/203/60 129/200/60
f 132/201/61 134/207/61 136/195/61
f 137/192/62 140/193/62 139/191/62
f 139/191/63 144/195/63 143/194/63
f 144/195/64 141/203/64 143/194/64
f 142/208/65 137/209/65 141/210/65
f 139/199/66 141/203/66 137/200/66
f 140/201/67 142/207/67 144/195/67
f 146/190/54 147/191/54 145/192/54
f 148/193/52 151/194/52 147/191/52
f 152/195/55 149/203/55 151/194/55
f 149/211/50 146/212/50 145/213/50
f 147/199/53 149/203/53 145/200/53
f 148/201/51 150/207/51 152/195/51
f 153/192/56 156/193/56 155/191/56
f 156/214/68 159/215/68 155/216/68
f 160/195/58 157/203/58 159/194/58
f 157/203/69 154/197/69 153/198/69
f 159/194/60 153/200/60 155/199/60
f 160/195/61 154/217/61 158/207/61
f 161/192/62 164/193/62 163/191/62
f 163/218/70 168/219/70 167/220/70
f 167/194/64 166/207/64 165/203/64
f 166/207/71 161/198/71 165/203/71
f 167/194/66 161/200/66 163/199/66
f 168/195/67 162/217/67 166/207/67
f 170/190/54 171/191/54 169/192/54
f 172/221/52 175/222/52 171/223/52
f 176/195/55 173/203/55 175/194/55
f 173/203/50 170/197/50 169/198/50
f 175/194/53 169/200/53 171/199/53
f 172/201/51 174/207/51 176/195/51
f 177/192/72 180/193/72 179/191/72
f 186/224/73 183/194/73 185/225/73
f 183/194/74 182/207/74 181/203/74
f 187/226/75 178/227/75 177/228/75
f 183/194/54 187/229/54 185/230/54
f 180/201/55 188/231/55 186/232/55
f 184/195/55 188/231/55 182/207/55
f 179/233/54 187/229/54 177/234/54
f 181/203/76 188/235/76 187/236/76
f 180/193/77 185/225/77 179/191/77
f 190/190/72 191/191/72 189/192/72
f 198/224/78 195/194/78 197/225/78
f 195/194/74 194/207/74 193/203/74
f 199/236/79 190/237/79 189/238/79
f 197/230/54 193/203/54 199/229/54
f 198/232/55 190/217/55 200/231/55
f 198/232/55 194/207/55 196/195/55
f 197/230/54 189/234/54 191/233/54
f 193/203/80 200/235/80 199/236/80
f 192/239/81 197/240/81 191/241/81
f 201/192/82 204/193/82 203/191/82
f 203/242/51 208/243/51 207/244/51
f 207/194/83 206/207/83 205/203/83
f 206/207/53 201/198/53 205/203/53
f 203/199/84 205/203/84 201/200/84
f 204/201/85 206/207/85 208/195/85
f 210/190/50 211/191/50 209/192/50
f 212/193/51 215/194/51 211/191/51
f 216/195/52 213/203/52 215/194/52
f 213/203/53 210/197/53 209/198/53
f 211/199/54 213/203/54 209/200/54
f 212/201/55 214/207/55 216/195/55
f 122/190/50 124/193/50 123/191/50
f 124/193/51 128/195/51 127/194/51
f 128/195/52 126/202/52 125/196/52
f 125/196/53 126/202/53 122/197/53
f 123/199/54 127/194/54 125/196/54
f 124/201/55 122/217/55 126/202/55
f 129/192/56 130/190/56 132/193/56
f 132/193/57 136/195/57 135/194/57
f 136/195/58 134/207/58 133/203/58
f 133/204/59 134/245/59 130/205/59
f 131/199/60 135/194/60 133/203/60
f 132/201/61 130/217/61 134/207/61
f 137/192/62 138/190/62 140/193/62
f 139/191/63 140/193/63 144/195/63
f 144/195/64 142/207/64 141/203/64
f 142/208/65 138/246/65 137/209/65
f 139/199/66 143/194/66 141/203/66
f 140/201/67 138/217/67 142/207/67
f 146/190/54 148/193/54 147/191/54
f 148/193/52 152/195/52 151/194/52
f 152/195/55 150/207/55 149/203/55
f 149/211/50 150/247/50 146/212/50
f 147/199/53 151/194/53 149/203/53
f 148/201/51 146/217/51 150/207/51
f 153/192/56 154/190/56 156/193/56
f 156/214/68 160/248/68 159/215/68
f 160/195/58 158/207/58 157/203/58
f 157/203/69 158/207/69 154/197/69
f 159/194/60 157/203/60 153/200/60
f 160/195/61 156/201/61 154/217/61
f 161/192/62 162/190/62 164/193/62
f 163/218/70 164/249/70 168/219/70
f 167/194/64 168/195/64 166/207/64
f 166/207/71 162/197/71 161/198/71
f 167/194/66 165/203/66 161/200/66
f 168/195/67 164/201/67 162/217/67
f 170/190/54 172/193/54 171/191/54
f 172/221/52 176/250/52 175/222/52
f 176/195/55 174/207/55 173/203/55
f 173/203/50 174/207/50 170/197/50
f 175/194/53 173/203/53 169/200/53
f 172/201/51 170/217/51 174/207/51
f 177/192/72 178/190/72 180/193/72
f 186/224/73 184/195/73 183/194/73
f 183/194/74 184/195/74 182/207/74
f 187/226/75 188/251/75 178/227/75
f 183/194/54 181/203/54 187/229/54
f 180/201/55 178/217/55 188/231/55
f 184/195/55 186/232/55 188/231/55
f 179/233/54 185/230/54 187/229/54
f 181/203/76 182/207/76 188/235/76
f 180/193/77 186/224/77 185/225/77
f 190/190/72 192/193/72 191/191/72
f 198/224/78 196/195/78 195/194/78
f 195/194/74 196/195/74 194/207/74
f 199/236/79 200/235/79 190/237/79
f 197/230/54 195/194/54 193/203/54
f 198/232/55 192/201/55 190/217/55
f 198/232/55 200/231/55 194/207/55
f 197/230/54 199/229/54 189/234/54
f 193/203/80 194/207/80 200/235/80
f 192/239/81 198/252/81 197/240/81
f 201/192/82 202/190/82 204/193/82
f 203/242/51 204/253/51 208/243/51
f 207/194/83 208/195/83 206/207/83
f 206/207/53 202/197/53 201/198/53
f 203/199/84 207/194/84 205/203/84
f 204/201/85 202/217/85 206/207/85
f 210/190/50 212/193/50 211/191/50
f 212/193/51 216/195/51 215/194/51
f 216/195/52 214/207/52 213/203/52
f 213/203/53 214/207/53 210/197/53
f 211/199/54 215/194/54 213/203/54
f 212/201/55 210/217/55 214/207/55
o BridgePortalEnd.001
v 0.781928 8.486273 -0.178421
v 0.721767 8.486273 -0.178420
v 0.781928 8.506045 -0.178421
v 0.721767 8.506045 -0.178419
v 0.781927 8.486273 0.178129
v 0.721764 8.486273 0.178131
v 0.781927 8.506045 0.178129
v 0.721764 8.506045 0.178131
v 2.200025 7.259987 -0.158648
v 2.200103 7.332851 -0.158648
v 2.200025 7.259987 -0.138876
v 2.200103 7.332851 -0.138876
v 0.715365 7.262751 -0.020618
v 0.715443 7.335615 -0.020618
v 0.715365 7.262751 -0.000846
v 0.715443 7.335615 -0.000846
v 2.208114 8.421598 -0.158648
v 2.174889 8.482345 -0.158648
v 2.208114 8.421598 -0.138876
v 2.174889 8.482344 -0.138876
v 0.736927 7.241345 -0.020618
v 0.703702 7.302090 -0.020618
v 0.736927 7.241344 -0.000846
v 0.703702 7.302090 -0.000846
v 2.208113 8.413314 -0.178421
v 2.208112 8.486174 -0.178421
v 2.208113 8.413314 -0.158649
v 2.208112 8.486174 -0.158649
v 0.754079 8.413315 -0.178421
v 0.754078 8.486178 -0.178421
v 0.754079 8.413315 -0.158648
v 0.754078 8.486178 -0.158648
v 2.200025 7.259987 0.138583
v 2.200103 7.332851 0.138583
v 2.200025 7.259987 0.158355
v 2.200103 7.332851 0.158355
v 0.715365 7.262751 0.000184
v 0.715443 7.335615 0.000184
v 0.715365 7.262751 0.019957
v 0.715443 7.335615 0.019957
v 2.208114 8.421598 0.138583
v 2.174889 8.482345 0.138583
v 2.208114 8.421598 0.158355
v 2.174889 8.482344 0.158355
v 0.736927 7.241345 0.000184
v 0.703702 7.302090 0.000184
v 0.736927 7.241344 0.019957
v 0.703702 7.302090 0.019957
v 2.208113 8.413314 0.158357
v 2.208112 8.486174 0.158357
v 2.208113 8.413314 0.178129
v 2.208112 8.486174 0.178129
v 0.754079 8.413315 0.158357
v 0.754078 8.486178 0.158357
v 0.754079 8.413315 0.178130
v 0.754078 8.486178 0.178130
v 0.782439 8.486222 -0.158648
v 0.722271 8.485842 -0.158648
v 0.782439 8.486222 -0.138875
v 0.722271 8.485842 -0.138875
v 0.782436 7.249274 -0.020618
v 0.722274 7.248894 -0.020618
v 0.782436 7.249274 -0.000846
v 0.722274 7.248894 -0.000846
v 0.782438 7.340002 -0.000422
v 0.722272 7.339622 -0.000422
v 0.782438 7.340002 -0.020195
v 0.722272 7.339622 -0.020195
v 0.782439 8.486222 0.138583
v 0.722271 8.485842 0.138583
v 0.782439 8.486222 0.158356
v 0.722271 8.485842 0.158356
v 0.782436 7.249274 0.000184
v 0.722274 7.248894 0.000184
v 0.782436 7.249274 0.019957
v 0.722274 7.248894 0.019957
v 0.782438 7.340002 0.019875
v 0.722272 7.339622 0.019875
v 0.782438 7.340002 0.000102
v 0.722272 7.339622 0.000102
v 2.200683 8.506046 -0.105764
v 2.191677 8.506046 -0.177803
v 2.200683 8.525820 -0.105764
v 2.191676 8.525820 -0.177802
v 0.763034 8.506046 0.157852
v 0.754026 8.506046 0.085809
v 0.763034 8.525819 0.157852
v 0.754026 8.525819 0.085809
v 2.207906 8.486273 -0.178421
v 2.147746 8.486273 -0.178420
v 2.207906 8.506045 -0.178421
v 2.147746 8.506045 -0.178420
v 2.207906 8.486273 0.178129
v 2.147742 8.486273 0.178130
v 2.207906 8.506045 0.178129
v 2.147742 8.506045 0.178130
vn -0.0000 -0.0000 -1.0000
vn -0.0000 1.0000 -0.0000
vn -0.0000 -0.0000 1.0000
vn -0.0000 -1.0000 -0.0000
vn 1.0000 -0.0000 -0.0000
vn -1.0000 -0.0000 -0.0000
vn 1.0000 -0.0011 -0.0000
vn 0.0926 -0.0001 0.9957
vn -1.0000 0.0011 -0.0000
vn -0.0926 0.0001 -0.9957
vn -0.0019 -1.0000 -0.0000
vn 0.0019 1.0000 -0.0000
vn 0.8773 0.4799 -0.0000
vn 0.0650 0.0356 0.9972
vn -0.8773 -0.4799 -0.0000
vn -0.0650 -0.0356 -0.9972
vn 0.6258 -0.7800 -0.0000
vn -0.6258 0.7800 -0.0000
vn -0.0928 0.0001 0.9957
vn 0.0928 -0.0001 -0.9957
vn -0.0652 -0.0357 0.9972
vn 0.0652 0.0357 -0.9972
vn -0.0063 1.0000 -0.0000
vn -0.0000 -0.0047 1.0000
vn 0.0063 -1.0000 -0.0000
vn 0.0008 -0.1199 -0.9928
vn -0.0000 0.0047 -1.0000
vn -0.0008 0.1199 0.9928
vn -0.0000 0.0009 1.0000
vn -0.0008 0.1199 -0.9928
vn -0.0000 -0.0009 -1.0000
vn 0.0008 -0.1199 0.9928
vn 0.9923 -0.0000 -0.1241
vn -0.9923 -0.0000 0.1241
vn 0.1804 -0.0000 0.9836
vn -0.1804 -0.0000 -0.9836
vt 0.521748 0.499718
vt 0.514923 0.506544
vt 0.514923 0.499718
vt 0.521748 0.506544
vt 0.514923 0.513369
vt 0.521748 0.513369
vt 0.518431 0.806383
vt 0.527631 0.846481
vt 0.506738 0.846481
vt 0.508098 0.513369
vt 0.508098 0.520194
vt 0.528573 0.513369
vt 0.519002 0.806383
vt 0.514923 0.520194
vt 0.533818 0.999999
vt 0.500000 0.000008
vt 0.533818 0.000008
vt 0.521748 0.520194
vt 0.500000 0.813001
vt 0.534177 0.563001
vt 0.534177 0.813001
vt 0.534178 0.747975
vt 0.499999 0.000005
vt 0.534178 0.000005
vt 0.500000 0.999998
vt 0.534178 0.006817
vt 0.534178 0.999998
vt 0.528573 0.520194
vt 0.534178 0.509074
vt 0.500000 0.259074
vt 0.534178 0.259074
vt 0.500000 0.999999
vt 0.534177 0.231429
vt 0.534177 0.999999
vt 0.521748 0.509956
vt 0.514923 0.509956
vt 0.500000 0.678547
vt 0.534177 0.803547
vt 0.500000 0.803547
vt 0.511510 0.520194
vt 0.511510 0.513369
vt 0.525161 0.520194
vt 0.525161 0.513369
vt 0.522763 0.367464
vt 0.522763 0.617464
vt 0.521748 0.523607
vt 0.514923 0.523607
vt 0.521748 0.527019
vt 0.514923 0.527019
vt 0.534177 0.233217
vt 0.500002 0.358217
vt 0.500002 0.233217
vt 0.503746 0.000003
vt 0.534178 0.999776
vt 0.503746 0.999776
vt 0.500000 0.999999
vt 0.500000 0.563001
vt 0.499999 0.747975
vt 0.500000 0.006817
vt 0.500000 0.509074
vt 0.500000 0.231429
vt 0.534177 0.678547
vt 0.534177 0.358217
vt 0.534178 0.000003
s 0
usemtl Catenary
f 218/254/86 219/255/86 217/256/86
f 220/257/87 223/258/87 219/255/87
f 224/259/88 221/260/88 223/258/88
f 221/260/89 218/261/89 217/262/89
f 219/263/90 221/260/90 217/264/90
f 220/265/91 222/266/91 224/259/91
f 225/256/92 228/257/92 227/255/92
f 228/257/93 231/258/93 227/255/93
f 232/259/94 229/267/94 231/258/94
f 229/268/95 226/269/95 225/270/95
f 227/263/96 229/267/96 225/264/96
f 228/265/97 230/271/97 232/259/97
f 233/256/98 236/257/98 235/255/98
f 235/255/99 240/259/99 239/258/99
f 240/259/100 237/267/100 239/258/100
f 238/272/101 233/273/101 237/274/101
f 235/263/102 237/267/102 233/264/102
f 236/265/103 238/271/103 240/259/103
f 242/254/90 243/255/90 241/256/90
f 244/257/88 247/258/88 243/255/88
f 248/259/91 245/267/91 247/258/91
f 245/275/86 242/276/86 241/277/86
f 243/263/89 245/267/89 241/264/89
f 244/265/87 246/271/87 248/259/87
f 249/256/92 252/257/92 251/255/92
f 252/278/104 255/279/104 251/280/104
f 256/259/94 253/267/94 255/258/94
f 253/267/105 250/261/105 249/262/105
f 255/258/96 249/264/96 251/263/96
f 256/259/97 250/281/97 254/271/97
f 257/256/98 260/257/98 259/255/98
f 259/282/106 264/283/106 263/284/106
f 263/258/100 262/271/100 261/267/100
f 262/271/107 257/262/107 261/267/107
f 263/258/102 257/264/102 259/263/102
f 264/259/103 258/281/103 262/271/103
f 266/254/90 267/255/90 265/256/90
f 268/285/88 271/286/88 267/287/88
f 272/259/91 269/267/91 271/258/91
f 269/267/86 266/261/86 265/262/86
f 271/258/89 265/264/89 267/263/89
f 268/265/87 270/271/87 272/259/87
f 273/256/108 276/257/108 275/255/108
f 282/288/109 279/258/109 281/289/109
f 279/258/110 278/271/110 277/267/110
f 283/290/111 274/291/111 273/292/111
f 279/258/90 283/293/90 281/294/90
f 276/265/91 284/295/91 282/296/91
f 280/259/91 284/295/91 278/271/91
f 275/297/90 283/293/90 273/298/90
f 277/267/112 284/299/112 283/300/112
f 276/257/113 281/289/113 275/255/113
f 286/254/108 287/255/108 285/256/108
f 294/288/114 291/258/114 293/289/114
f 291/258/110 290/271/110 289/267/110
f 295/300/115 286/301/115 285/302/115
f 293/294/90 289/267/90 295/293/90
f 294/296/91 286/281/91 296/295/91
f 294/296/91 290/271/91 292/259/91
f 293/294/90 285/298/90 287/297/90
f 289/267/116 296/299/116 295/300/116
f 288/303/117 293/304/117 287/305/117
f 297/256/118 300/257/118 299/255/118
f 299/306/87 304/307/87 303/308/87
f 303/258/119 302/271/119 301/267/119
f 302/271/89 297/262/89 301/267/89
f 299/263/120 301/267/120 297/264/120
f 300/265/121 302/271/121 304/259/121
f 306/254/86 307/255/86 305/256/86
f 308/257/87 311/258/87 307/255/87
f 312/259/88 309/267/88 311/258/88
f 309/267/89 306/261/89 305/262/89
f 307/263/90 309/267/90 305/264/90
f 308/265/91 310/271/91 312/259/91
f 218/254/86 220/257/86 219/255/86
f 220/257/87 224/259/87 223/258/87
f 224/259/88 222/266/88 221/260/88
f 221/260/89 222/266/89 218/261/89
f 219/263/90 223/258/90 221/260/90
f 220/265/91 218/281/91 222/266/91
f 225/256/92 226/254/92 228/257/92
f 228/257/93 232/259/93 231/258/93
f 232/259/94 230/271/94 229/267/94
f 229/268/95 230/309/95 226/269/95
f 227/263/96 231/258/96 229/267/96
f 228/265/97 226/281/97 230/271/97
f 233/256/98 234/254/98 236/257/98
f 235/255/99 236/257/99 240/259/99
f 240/259/100 238/271/100 237/267/100
f 238/272/101 234/310/101 233/273/101
f 235/263/102 239/258/102 237/267/102
f 236/265/103 234/281/103 238/271/103
f 242/254/90 244/257/90 243/255/90
f 244/257/88 248/259/88 247/258/88
f 248/259/91 246/271/91 245/267/91
f 245/275/86 246/311/86 242/276/86
f 243/263/89 247/258/89 245/267/89
f 244/265/87 242/281/87 246/271/87
f 249/256/92 250/254/92 252/257/92
f 252/278/104 256/312/104 255/279/104
f 256/259/94 254/271/94 253/267/94
f 253/267/105 254/271/105 250/261/105
f 255/258/96 253/267/96 249/264/96
f 256/259/97 252/265/97 250/281/97
f 257/256/98 258/254/98 260/257/98
f 259/282/106 260/313/106 264/283/106
f 263/258/100 264/259/100 262/271/100
f 262/271/107 258/261/107 257/262/107
f 263/258/102 261/267/102 257/264/102
f 264/259/103 260/265/103 258/281/103
f 266/254/90 268/257/90 267/255/90
f 268/285/88 272/314/88 271/286/88
f 272/259/91 270/271/91 269/267/91
f 269/267/86 270/271/86 266/261/86
f 271/258/89 269/267/89 265/264/89
f 268/265/87 266/281/87 270/271/87
f 273/256/108 274/254/108 276/257/108
f 282/288/109 280/259/109 279/258/109
f 279/258/110 280/259/110 278/271/110
f 283/290/111 284/315/111 274/291/111
f 279/258/90 277/267/90 283/293/90
f 276/265/91 274/281/91 284/295/91
f 280/259/91 282/296/91 284/295/91
f 275/297/90 281/294/90 283/293/90
f 277/267/112 278/271/112 284/299/112
f 276/257/113 282/288/113 281/289/113
f 286/254/108 288/257/108 287/255/108
f 294/288/114 292/259/114 291/258/114
f 291/258/110 292/259/110 290/271/110
f 295/300/115 296/299/115 286/301/115
f 293/294/90 291/258/90 289/267/90
f 294/296/91 288/265/91 286/281/91
f 294/296/91 296/295/91 290/271/91
f 293/294/90 295/293/90 285/298/90
f 289/267/116 290/271/116 296/299/116
f 288/303/117 294/316/117 293/304/117
f 297/256/118 298/254/118 300/257/118
f 299/306/87 300/317/87 304/307/87
f 303/258/119 304/259/119 302/271/119
f 302/271/89 298/261/89 297/262/89
f 299/263/120 303/258/120 301/267/120
f 300/265/121 298/281/121 302/271/121
f 306/254/86 308/257/86 307/255/86
f 308/257/87 312/259/87 311/258/87
f 312/259/88 310/271/88 309/267/88
f 309/267/89 310/271/89 306/261/89
f 307/263/90 311/258/90 309/267/90
f 308/265/91 306/281/91 310/271/91
o Pole.002
v -2.200000 -0.600000 -0.150000
v -2.200000 8.452378 -0.150000
v -2.142597 -0.600000 -0.138582
v -2.142597 8.452378 -0.138582
v -2.093934 -0.600000 -0.106066
v -2.093934 8.452378 -0.106066
v -2.061418 -0.600000 -0.057403
v -2.061418 8.452378 -0.057403
v -2.050000 -0.600000 -0.000000
v -2.050000 8.452378 -0.000000
v -2.061418 -0.600000 0.057403
v -2.061418 8.452378 0.057403
v -2.093934 -0.600000 0.106066
v -2.093934 8.452378 0.106066
v -2.142597 -0.600000 0.138582
v -2.142597 8.452378 0.138582
v -2.200000 -0.600000 0.150000
v -2.200000 8.452378 0.150000
v -2.257403 -0.600000 0.138582
v -2.257403 8.452378 0.138582
v -2.306066 -0.600000 0.106066
v -2.306066 8.452378 0.106066
v -2.338582 -0.600000 0.057403
v -2.338582 8.452378 0.057403
v -2.350000 -0.600000 -0.000000
v -2.350000 8.452378 -0.000000
v -2.338582 -0.600000 -0.057403
v -2.338582 8.452378 -0.057403
v -2.306066 -0.600000 -0.106066
v -2.306066 8.452378 -0.106066
v -2.257403 -0.600000 -0.138582
v -2.257403 8.452378 -0.138582
vn -0.0000 -0.0000 -1.0000
vn 0.3827 -0.0000 -0.9239
vn 0.7071 -0.0000 -0.7071
vn 0.9239 -0.0000 -0.3827
vn 1.0000 -0.0000 -0.0000
vn 0.9239 -0.0000 0.3827
vn 0.7071 -0.0000 0.7071
vn 0.3827 -0.0000 0.9239
vn -0.0000 -0.0000 1.0000
vn -0.3827 -0.0000 0.9239
vn -0.7071 -0.0000 0.7071
vn -0.9239 -0.0000 0.3827
vn -1.0000 -0.0000 -0.0000
vn -0.9239 -0.0000 -0.3827
vn -0.0000 1.0000 -0.0000
vn -0.7071 -0.0000 -0.7071
vn -0.3827 -0.0000 -0.9239
vt 0.000002 -1.374996
vt 0.015627 1.000000
vt 0.000002 1.000000
vt 0.015627 -1.374996
vt 0.031251 1.000000
vt 0.031251 -1.374996
vt 0.046876 1.000000
vt 0.046876 -1.374996
vt 0.062501 1.000000
vt 0.062501 -1.374996
vt 0.078126 1.000000
vt 0.078126 -1.374996
vt 0.093751 1.000000
vt 0.093751 -1.374996
vt 0.109375 1.000001
vt 0.109375 -1.374996
vt 0.125000 1.000001
vt 0.125000 -1.374996
vt 0.140625 1.000001
vt 0.140625 -1.374996
vt 0.156250 1.000001
vt 0.156250 -1.374996
vt 0.171875 1.000001
vt 0.171875 -1.374996
vt 0.187499 1.000001
vt 0.187499 -1.374996
vt 0.203124 1.000001
vt 0.036613 0.161613
vt 0.213386 0.161613
vt 0.213386 0.338386
vt 0.203124 -1.374996
vt 0.218749 1.000001
vt 0.218749 -1.374996
vt 0.234374 1.000001
vt 0.234374 -1.374995
vt 0.249999 1.000001
vt 0.172834 0.365482
vt 0.124999 0.374997
vt 0.077165 0.365482
vt 0.036613 0.338386
vt 0.009517 0.297834
vt 0.000002 0.250000
vt 0.009517 0.202165
vt 0.077165 0.134518
vt 0.124999 0.125003
vt 0.172834 0.134518
vt 0.240482 0.202165
vt 0.249997 0.250000
vt 0.240482 0.297834
vt 0.249999 -1.374995
s 1
usemtl Catenary
f 314/318/122 315/319/123 313/320/122
f 316/321/123 317/322/124 315/319/123
f 318/323/124 319/324/125 317/322/124
f 320/325/125 321/326/126 319/324/125
f 322/327/126 323/328/127 321/326/126
f 324/329/127 325/330/128 323/328/127
f 326/331/128 327/332/129 325/330/128
f 328/333/129 329/334/130 327/332/129
f 330/335/130 331/336/131 329/334/130
f 332/337/131 333/338/132 331/336/131
f 334/339/132 335/340/133 333/338/132
f 336/341/133 337/342/134 335/340/133
f 338/343/134 339/344/135 337/342/134
f 334/345/136 326/346/136 318/347/136
f 340/348/135 341/349/137 339/344/135
f 342/350/137 343/351/138 341/349/137
f 344/352/138 313/353/122 343/351/138
f 314/318/122 316/321/123 315/319/123
f 316/321/123 318/323/124 317/322/124
f 318/323/124 320/325/125 319/324/125
f 320/325/125 322/327/126 321/326/126
f 322/327/126 324/329/127 323/328/127
f 324/329/127 326/331/128 325/330/128
f 326/331/128 328/333/129 327/332/129
f 328/333/129 330/335/130 329/334/130
f 330/335/130 332/337/131 331/336/131
f 332/337/131 334/339/132 333/338/132
f 334/339/132 336/341/133 335/340/133
f 336/341/133 338/343/134 337/342/134
f 338/343/134 340/348/135 339/344/135
f 318/347/136 316/354/136 314/355/136
f 314/355/136 344/356/136 342/357/136
f 342/357/136 340/358/136 338/359/136
f 338/359/136 336/360/136 334/345/136
f 334/345/136 332/361/136 330/362/136
f 330/362/136 328/363/136 326/346/136
f 326/346/136 324/364/136 322/365/136
f 322/365/136 320/366/136 318/347/136
f 318/347/136 314/355/136 342/357/136
f 342/357/136 338/359/136 334/345/136
f 334/345/136 330/362/136 326/346/136
f 326/346/136 322/365/136 318/347/136
f 318/347/136 342/357/136 334/345/136
f 340/348/135 342/350/137 341/349/137
f 342/350/137 344/352/138 343/351/138
f 344/352/138 314/367/122 313/353/122
