# Blender 5.0.1
# www.blender.org
mtllib gantry_arrow.mtl
o GantryArrow
g gantry_arrow
v -1.000000 8.985492 0.153155
v -1.000000 9.873048 0.153155
v -1.000000 8.985492 -0.153155
v -1.000000 9.873048 -0.153155
v 0.259542 8.985492 0.153155
v 0.259542 9.873048 0.153155
v 0.259542 8.985492 -0.153155
v 0.259542 9.873048 -0.153155
v 1.000000 9.429270 -0.153155
v 1.000000 9.429270 0.153155
vn -1.0000 -0.0000 -0.0000
vn -0.0000 -0.0000 -1.0000
vn 0.5141 0.8577 -0.0000
vn -0.0000 -0.0000 1.0000
vn -0.0000 -1.0000 -0.0000
vn -0.0000 1.0000 -0.0000
vn 0.5141 -0.8577 -0.0000
vt 0.625000 0.000000
vt 0.375000 0.250000
vt 0.375000 0.000000
vt 0.625000 0.250000
vt 0.500000 0.500000
vt 0.375000 0.500000
vt 0.625000 0.500000
vt 0.500000 0.750000
vt 0.625000 1.000000
vt 0.375000 1.000000
vt 0.125000 0.750000
vt 0.125000 0.500000
vt 0.875000 0.500000
vt 0.625000 0.750000
vt 0.375000 0.750000
vt 0.875000 0.750000
s 0
f 2/1/1 3/2/1 1/3/1
f 4/4/2 9/5/2 7/6/2
f 8/7/3 10/8/3 9/5/3
f 10/8/4 2/9/4 1/10/4
f 7/6/5 1/11/5 3/12/5
f 4/13/6 6/14/6 8/7/6
f 9/5/7 5/15/7 7/6/7
f 2/1/1 4/4/1 3/2/1
f 7/6/2 3/2/2 4/4/2
f 4/4/2 8/7/2 9/5/2
f 8/7/3 6/14/3 10/8/3
f 1/10/4 5/15/4 10/8/4
f 10/8/4 6/14/4 2/9/4
f 7/6/5 5/15/5 1/11/5
f 4/13/6 2/16/6 6/14/6
f 9/5/7 10/8/7 5/15/7
