# Blender 5.1.2
# www.blender.org
mtllib gantry1_5.mtl
o SlimGantryEnd.006
g gantry1_half
v 4.934114 8.486273 -0.178421
v 4.861255 8.486273 -0.178420
v 4.934114 8.506045 -0.178421
v 4.861255 8.506045 -0.178420
v 4.934114 8.486273 0.178129
v 4.861250 8.486273 0.178130
v 4.934114 8.506045 0.178129
v 4.861250 8.506045 0.178130
v 6.621179 6.115925 -0.158649
v 6.661373 6.176700 -0.158649
v 6.621179 6.115925 -0.138877
v 6.661372 6.176700 -0.138877
v 4.841685 7.292812 -0.020619
v 4.881879 7.353587 -0.020619
v 4.841685 7.292812 -0.000846
v 4.881879 7.353587 -0.000846
v 6.661371 8.421599 -0.158649
v 6.621133 8.482345 -0.158649
v 6.661371 8.421598 -0.138877
v 6.621133 8.482345 -0.138877
v 4.879615 7.241345 -0.020619
v 4.839376 7.302090 -0.020619
v 4.879614 7.241344 -0.000846
v 4.839376 7.302090 -0.000846
v 6.661371 8.413314 -0.178422
v 6.661370 8.486174 -0.178422
v 6.661370 8.413314 -0.158650
v 6.661369 8.486174 -0.158650
v 4.900387 8.413315 -0.178421
v 4.900386 8.486178 -0.178421
v 4.900387 8.413315 -0.158649
v 4.900386 8.486178 -0.158649
v 6.621179 6.115925 0.138582
v 6.661373 6.176700 0.138582
v 6.621179 6.115925 0.158354
v 6.661373 6.176700 0.158354
v 4.841685 7.292812 0.000184
v 4.881879 7.353587 0.000184
v 4.841685 7.292812 0.019956
v 4.881879 7.353587 0.019956
v 6.661371 8.421599 0.138582
v 6.621133 8.482345 0.138582
v 6.661371 8.421598 0.158354
v 6.621133 8.482345 0.158354
v 4.879615 7.241345 0.000184
v 4.839376 7.302090 0.000184
v 4.879614 7.241344 0.019956
v 4.839376 7.302090 0.019956
v 6.661371 8.413314 0.158356
v 6.661370 8.486174 0.158356
v 6.661370 8.413314 0.178128
v 6.661369 8.486174 0.178128
v 4.900387 8.413315 0.158357
v 4.900386 8.486178 0.158357
v 4.900387 8.413315 0.178129
v 4.900386 8.486178 0.178129
v 4.934734 8.486222 -0.158648
v 4.861865 8.485842 -0.158648
v 4.934734 8.486222 -0.138876
v 4.861865 8.485842 -0.138876
v 4.934731 7.249274 -0.020619
v 4.861868 7.248894 -0.020619
v 4.934731 7.249274 -0.000846
v 4.861868 7.248894 -0.000846
v 4.934732 7.340002 -0.000423
v 4.861866 7.339622 -0.000423
v 4.934733 7.340002 -0.020195
v 4.861866 7.339622 -0.020195
v 4.934735 8.486222 0.138582
v 4.861865 8.485842 0.138583
v 4.934735 8.486222 0.158355
v 4.861865 8.485842 0.158355
v 4.934731 7.249274 0.000183
v 4.861868 7.248894 0.000184
v 4.934731 7.249274 0.019956
v 4.861868 7.248894 0.019956
v 4.934733 7.340002 0.019874
v 4.861866 7.339622 0.019874
v 4.934732 7.340002 0.000101
v 4.861866 7.339622 0.000101
v 6.652372 8.506047 -0.105765
v 6.641465 8.506047 -0.177803
v 6.652372 8.525820 -0.105764
v 6.641464 8.525820 -0.177803
v 4.911232 8.506046 0.157851
v 4.900323 8.506046 0.085809
v 4.911232 8.525819 0.157851
v 4.900323 8.525819 0.085809
v 6.661120 8.486273 -0.178422
v 6.588260 8.486273 -0.178421
v 6.661120 8.506045 -0.178422
v 6.588260 8.506045 -0.178421
v 6.661119 8.486273 0.178128
v 6.588255 8.486273 0.178129
v 6.661119 8.506045 0.178128
v 6.588255 8.506045 0.178129
vn -0.0000 -0.0000 -1.0000
vn -0.0000 1.0000 -0.0000
vn -0.0000 -0.0000 1.0000
vn -0.0000 -1.0000 -0.0000
vn 1.0000 -0.0000 -0.0000
vn -1.0000 -0.0000 -0.0000
vn 0.8341 -0.5516 -0.0000
vn 0.0539 -0.0356 0.9979
vn -0.8341 0.5516 -0.0000
vn -0.0539 0.0356 -0.9979
vn -0.5516 -0.8341 -0.0000
vn 0.5516 0.8341 -0.0000
vn 0.8337 0.5522 -0.0000
vn 0.0537 0.0356 0.9979
vn -0.8337 -0.5522 -0.0000
vn -0.0537 -0.0356 -0.9979
vn 0.5522 -0.8337 -0.0000
vn -0.5522 0.8337 -0.0000
vn -0.0540 0.0357 0.9979
vn 0.0540 -0.0357 -0.9979
vn -0.0539 -0.0357 0.9979
vn 0.0539 0.0357 -0.9979
vn -0.0052 1.0000 -0.0000
vn -0.0000 -0.0047 1.0000
vn 0.0052 -1.0000 -0.0000
vn 0.0006 -0.1199 -0.9928
vn -0.0000 0.0047 -1.0000
vn -0.0006 0.1199 0.9928
vn -0.0000 0.0009 1.0000
vn -0.0006 0.1199 -0.9928
vn -0.0000 -0.0009 -1.0000
vn 0.0006 -0.1199 0.9928
vn 0.9887 -0.0000 -0.1497
vn -0.9887 -0.0000 0.1497
vn 0.1497 -0.0000 0.9887
vn -0.1497 -0.0000 -0.9887
vt 0.521748 0.499718
vt 0.514923 0.506544
vt 0.514923 0.499718
vt 0.521748 0.506544
vt 0.514923 0.513369
vt 0.521748 0.513369
vt 0.518431 0.806383
vt 0.527631 0.846481
vt 0.506738 0.846481
vt 0.508098 0.513369
vt 0.508098 0.520194
vt 0.528573 0.513369
vt 0.519002 0.806383
vt 0.514923 0.520194
vt 0.500000 0.999999
vt 0.533818 0.000008
vt 0.533818 0.999999
vt 0.521748 0.520194
vt 0.534177 0.813001
vt 0.500000 0.563001
vt 0.534177 0.563001
vt 0.534178 0.747975
vt 0.499999 0.000005
vt 0.534178 0.000005
vt 0.534178 0.999998
vt 0.500000 0.006817
vt 0.534178 0.006817
vt 0.528573 0.520194
vt 0.500000 0.509074
vt 0.534178 0.259074
vt 0.534178 0.509074
vt 0.500000 0.999999
vt 0.534177 0.231429
vt 0.534177 0.999999
vt 0.521748 0.509956
vt 0.514923 0.509956
vt 0.500000 0.678547
vt 0.534177 0.803547
vt 0.500000 0.803547
vt 0.511510 0.520194
vt 0.511510 0.513369
vt 0.525161 0.520194
vt 0.525161 0.513369
vt 0.522763 0.367464
vt 0.522763 0.617464
vt 0.521748 0.523607
vt 0.514923 0.523607
vt 0.521748 0.527019
vt 0.514923 0.527019
vt 0.534177 0.233217
vt 0.500002 0.358217
vt 0.500002 0.233217
vt 0.534178 0.000003
vt 0.503746 0.999776
vt 0.503746 0.000003
vt 0.500000 0.000008
vt 0.500000 0.813001
vt 0.499999 0.747975
vt 0.500000 0.999998
vt 0.500000 0.259074
vt 0.500000 0.231429
vt 0.534177 0.678547
vt 0.534177 0.358217
vt 0.534178 0.999776
s 0
usemtl Catenary
f 2/1/1 3/2/1 1/3/1
f 4/4/2 7/5/2 3/2/2
f 8/6/3 5/7/3 7/5/3
f 5/7/4 2/8/4 1/9/4
f 3/10/5 5/7/5 1/11/5
f 4/12/6 6/13/6 8/6/6
f 10/1/7 11/2/7 9/3/7
f 11/2/8 16/6/8 15/5/8
f 16/6/9 13/14/9 15/5/9
f 14/15/10 9/16/10 13/17/10
f 11/10/11 13/14/11 9/11/11
f 12/12/12 14/18/12 16/6/12
f 17/3/13 20/4/13 19/2/13
f 20/4/14 23/5/14 19/2/14
f 24/6/15 21/14/15 23/5/15
f 21/19/16 18/20/16 17/21/16
f 19/10/17 21/14/17 17/11/17
f 20/12/18 22/18/18 24/6/18
f 26/1/5 27/2/5 25/3/5
f 28/4/3 31/5/3 27/2/3
f 32/6/6 29/14/6 31/5/6
f 29/22/1 26/23/1 25/24/1
f 27/10/4 29/14/4 25/11/4
f 28/12/2 30/18/2 32/6/2
f 33/3/7 36/4/7 35/2/7
f 35/25/19 40/26/19 39/27/19
f 40/6/9 37/14/9 39/5/9
f 38/18/20 33/9/20 37/14/20
f 39/5/11 33/11/11 35/10/11
f 40/6/12 34/28/12 38/18/12
f 41/3/13 44/4/13 43/2/13
f 44/29/21 47/30/21 43/31/21
f 48/6/15 45/14/15 47/5/15
f 45/14/22 42/8/22 41/9/22
f 47/5/17 41/11/17 43/10/17
f 48/6/18 42/28/18 46/18/18
f 50/1/5 51/2/5 49/3/5
f 52/32/3 55/33/3 51/34/3
f 56/6/6 53/14/6 55/5/6
f 53/14/1 50/8/1 49/9/1
f 51/10/4 53/14/4 49/11/4
f 52/12/2 54/18/2 56/6/2
f 57/3/23 60/4/23 59/2/23
f 66/35/24 63/5/24 65/36/24
f 63/5/25 62/18/25 61/14/25
f 67/37/26 58/38/26 57/39/26
f 63/5/5 67/40/5 65/41/5
f 60/12/6 68/42/6 66/43/6
f 64/6/6 68/42/6 62/18/6
f 59/44/5 67/40/5 57/45/5
f 61/14/27 68/46/27 67/47/27
f 60/4/28 65/36/28 59/2/28
f 69/3/23 72/4/23 71/2/23
f 78/35/29 75/5/29 77/36/29
f 75/5/25 74/18/25 73/14/25
f 79/47/30 70/48/30 69/49/30
f 77/41/5 73/14/5 79/40/5
f 78/43/6 70/28/6 80/42/6
f 78/43/6 74/18/6 76/6/6
f 77/41/5 69/45/5 71/44/5
f 73/14/31 80/46/31 79/47/31
f 72/50/32 77/51/32 71/52/32
f 81/3/33 84/4/33 83/2/33
f 84/53/2 87/54/2 83/55/2
f 87/5/34 86/18/34 85/14/34
f 85/14/4 82/8/4 81/9/4
f 83/10/35 85/14/35 81/11/35
f 84/12/36 86/18/36 88/6/36
f 90/1/1 91/2/1 89/3/1
f 92/4/2 95/5/2 91/2/2
f 96/6/3 93/14/3 95/5/3
f 93/14/4 90/8/4 89/9/4
f 91/10/5 93/14/5 89/11/5
f 92/12/6 94/18/6 96/6/6
f 2/1/1 4/4/1 3/2/1
f 4/4/2 8/6/2 7/5/2
f 8/6/3 6/13/3 5/7/3
f 5/7/4 6/13/4 2/8/4
f 3/10/5 7/5/5 5/7/5
f 4/12/6 2/28/6 6/13/6
f 10/1/7 12/4/7 11/2/7
f 11/2/8 12/4/8 16/6/8
f 16/6/9 14/18/9 13/14/9
f 14/15/10 10/56/10 9/16/10
f 11/10/11 15/5/11 13/14/11
f 12/12/12 10/28/12 14/18/12
f 17/3/13 18/1/13 20/4/13
f 20/4/14 24/6/14 23/5/14
f 24/6/15 22/18/15 21/14/15
f 21/19/16 22/57/16 18/20/16
f 19/10/17 23/5/17 21/14/17
f 20/12/18 18/28/18 22/18/18
f 26/1/5 28/4/5 27/2/5
f 28/4/3 32/6/3 31/5/3
f 32/6/6 30/18/6 29/14/6
f 29/22/1 30/58/1 26/23/1
f 27/10/4 31/5/4 29/14/4
f 28/12/2 26/28/2 30/18/2
f 33/3/7 34/1/7 36/4/7
f 35/25/19 36/59/19 40/26/19
f 40/6/9 38/18/9 37/14/9
f 38/18/20 34/8/20 33/9/20
f 39/5/11 37/14/11 33/11/11
f 40/6/12 36/12/12 34/28/12
f 41/3/13 42/1/13 44/4/13
f 44/29/21 48/60/21 47/30/21
f 48/6/15 46/18/15 45/14/15
f 45/14/22 46/18/22 42/8/22
f 47/5/17 45/14/17 41/11/17
f 48/6/18 44/12/18 42/28/18
f 50/1/5 52/4/5 51/2/5
f 52/32/3 56/61/3 55/33/3
f 56/6/6 54/18/6 53/14/6
f 53/14/1 54/18/1 50/8/1
f 51/10/4 55/5/4 53/14/4
f 52/12/2 50/28/2 54/18/2
f 57/3/23 58/1/23 60/4/23
f 66/35/24 64/6/24 63/5/24
f 63/5/25 64/6/25 62/18/25
f 67/37/26 68/62/26 58/38/26
f 63/5/5 61/14/5 67/40/5
f 60/12/6 58/28/6 68/42/6
f 64/6/6 66/43/6 68/42/6
f 59/44/5 65/41/5 67/40/5
f 61/14/27 62/18/27 68/46/27
f 60/4/28 66/35/28 65/36/28
f 69/3/23 70/1/23 72/4/23
f 78/35/29 76/6/29 75/5/29
f 75/5/25 76/6/25 74/18/25
f 79/47/30 80/46/30 70/48/30
f 77/41/5 75/5/5 73/14/5
f 78/43/6 72/12/6 70/28/6
f 78/43/6 80/42/6 74/18/6
f 77/41/5 79/40/5 69/45/5
f 73/14/31 74/18/31 80/46/31
f 72/50/32 78/63/32 77/51/32
f 81/3/33 82/1/33 84/4/33
f 84/53/2 88/64/2 87/54/2
f 87/5/34 88/6/34 86/18/34
f 85/14/4 86/18/4 82/8/4
f 83/10/35 87/5/35 85/14/35
f 84/12/36 82/28/36 86/18/36
f 90/1/1 92/4/1 91/2/1
f 92/4/2 96/6/2 95/5/2
f 96/6/3 94/18/3 93/14/3
f 93/14/4 94/18/4 90/8/4
f 91/10/5 95/5/5 93/14/5
f 92/12/6 90/28/6 94/18/6
o SlimGantryMiddle.011
v 3.185748 8.486273 -0.177979
v 3.114491 8.486273 -0.177978
v 3.185748 8.506045 -0.177978
v 3.114491 8.506045 -0.177977
v 3.185747 8.486273 0.178572
v 3.114486 8.486273 0.178573
v 3.185747 8.506045 0.178572
v 3.114486 8.506045 0.178573
v 4.953603 7.261916 -0.039949
v 4.953602 7.334776 -0.039949
v 4.953603 7.261916 -0.020177
v 4.953602 7.334776 -0.020177
v 3.140461 7.261916 -0.038949
v 3.140460 7.334780 -0.038949
v 3.140461 7.261916 -0.020176
v 3.140460 7.334780 -0.020176
v 3.203795 8.464523 -0.158205
v 3.164936 8.403446 -0.158205
v 3.203795 8.464523 -0.138433
v 3.164936 8.403446 -0.138433
v 4.955867 7.299087 -0.020176
v 4.917007 7.238010 -0.020176
v 4.955867 7.299087 -0.000404
v 4.917007 7.238010 -0.000404
v 3.185774 8.486222 -0.158206
v 3.114508 8.485842 -0.158206
v 3.185774 8.486222 -0.138433
v 3.114508 8.485842 -0.138433
v 3.185771 7.249274 -0.020176
v 3.114511 7.248894 -0.020176
v 3.185771 7.249274 -0.000403
v 3.114511 7.248894 -0.000403
v 3.185773 7.340002 0.000020
v 3.114509 7.339622 0.000020
v 3.185773 7.340002 -0.019753
v 3.114509 7.339622 -0.019753
v 4.953603 7.261916 0.019400
v 4.953602 7.334776 0.019400
v 4.953603 7.261916 0.039173
v 4.953602 7.334776 0.039173
v 3.140461 7.261916 0.020401
v 3.140460 7.334780 0.020401
v 3.140461 7.261916 0.040173
v 3.140460 7.334780 0.040173
v 3.203795 8.464523 0.139025
v 3.164936 8.403446 0.139025
v 3.203795 8.464523 0.158798
v 3.164936 8.403446 0.158798
v 4.955866 7.299087 0.000626
v 4.917007 7.238010 0.000626
v 4.955866 7.299087 0.020399
v 4.917007 7.238010 0.020399
v 3.185775 8.486222 0.139025
v 3.114508 8.485842 0.139025
v 3.185775 8.486222 0.158798
v 3.114508 8.485842 0.158798
v 3.185771 7.249274 0.000626
v 3.114511 7.248894 0.000626
v 3.185771 7.249273 0.020399
v 3.114511 7.248893 0.020399
v 3.185773 7.340002 0.020317
v 3.114509 7.339622 0.020317
v 3.185773 7.340002 0.000544
v 3.114509 7.339622 0.000544
v 4.900116 8.413314 -0.177979
v 4.900115 8.486174 -0.177979
v 4.900115 8.413314 -0.158206
v 4.900115 8.486174 -0.158206
v 3.149923 8.413314 -0.176979
v 3.149921 8.486178 -0.176979
v 3.149923 8.413314 -0.157206
v 3.149921 8.486178 -0.157206
v 4.900116 8.413314 0.157799
v 4.900115 8.486174 0.157799
v 4.900116 8.413314 0.177572
v 4.900115 8.486174 0.177572
v 3.149923 8.413314 0.158800
v 3.149922 8.486178 0.158800
v 3.149923 8.413314 0.178572
v 3.149922 8.486178 0.178572
v 4.924792 8.506046 -0.093846
v 4.913892 8.506046 -0.165886
v 4.924792 8.525819 -0.093846
v 4.913892 8.525819 -0.165886
v 3.132048 8.506045 0.177361
v 3.121148 8.506045 0.105317
v 3.132048 8.525818 0.177361
v 3.121148 8.525818 0.105317
vn -0.0000 -0.0000 -1.0000
vn -0.0000 1.0000 -0.0000
vn -0.0000 -0.0000 1.0000
vn -0.0000 -1.0000 -0.0000
vn 1.0000 -0.0000 -0.0000
vn -1.0000 -0.0000 -0.0000
vn -0.0006 -0.0000 -1.0000
vn -0.8437 0.5368 -0.0000
vn -0.0552 0.0351 0.9979
vn 0.8437 -0.5368 -0.0000
vn 0.0552 -0.0351 -0.9979
vn 0.5538 0.8326 -0.0000
vn -0.5538 -0.8326 -0.0000
vn -0.0053 1.0000 -0.0000
vn -0.0000 -0.0047 1.0000
vn 0.0053 -1.0000 -0.0000
vn 0.0006 -0.1199 -0.9928
vn -0.0000 0.0047 -1.0000
vn -0.0006 0.1199 0.9928
vn 0.0006 -0.0000 1.0000
vn 0.0554 -0.0352 0.9978
vn -0.0554 0.0352 -0.9978
vn -0.0000 0.0009 1.0000
vn -0.0006 0.1199 -0.9928
vn -0.0000 -0.0009 -1.0000
vn 0.0006 -0.1199 0.9928
vn -0.9887 -0.0000 0.1496
vn 0.1496 -0.0000 0.9887
vn -0.1496 -0.0000 -0.9888
vn 0.9887 -0.0000 -0.1496
vt 0.531698 0.134441
vt 0.509715 0.156423
vt 0.509715 0.134441
vt 0.531036 0.513198
vt 0.511506 0.532727
vt 0.511506 0.513198
vt 0.527598 0.551175
vt 0.520784 0.555723
vt 0.512318 0.551175
vt 0.521867 0.582774
vt 0.513508 0.582774
vt 0.509716 0.134441
vt 0.531698 0.156423
vt 0.509716 0.156423
vt 0.531412 0.512967
vt 0.511883 0.532496
vt 0.511579 0.532575
vt 0.513508 0.549339
vt 0.521867 0.557698
vt 0.513508 0.557698
vt 0.531188 0.513198
vt 0.511658 0.532727
vt 0.511658 0.513198
vt 0.523922 0.472988
vt 0.517869 0.479041
vt 0.517869 0.472988
vt 0.534177 0.999999
vt 0.500001 0.000002
vt 0.534177 0.000002
vt 0.511817 0.472988
vt 0.511817 0.479041
vt 0.531698 0.134441
vt 0.509715 0.156423
vt 0.509715 0.134441
vt 0.517869 0.460883
vt 0.523922 0.466936
vt 0.517869 0.466936
vt 0.531036 0.532727
vt 0.534178 0.515525
vt 0.500000 0.765525
vt 0.500000 0.515525
vt 0.529974 0.472988
vt 0.523922 0.479041
vt 0.523922 0.460883
vt 0.521867 0.561878
vt 0.513508 0.566057
vt 0.513508 0.561878
vt 0.521867 0.566057
vt 0.513508 0.574416
vt 0.534186 0.640525
vt 0.568357 0.765525
vt 0.534186 0.765525
vt 0.509329 0.574416
vt 0.509329 0.566057
vt 0.530226 0.566057
vt 0.526046 0.574416
vt 0.526046 0.566057
vt 0.521867 0.574416
vt 0.520707 0.156423
vt 0.521867 0.578595
vt 0.513508 0.578595
vt 0.500001 0.999997
vt 0.534179 0.000002
vt 0.534179 0.999997
vt 0.511506 0.513343
vt 0.531036 0.532873
vt 0.511506 0.532873
vt 0.500000 0.250000
vt 0.534178 0.500000
vt 0.500000 0.500000
vt 0.530884 0.513191
vt 0.511354 0.532721
vt 0.511354 0.513191
vt 0.531698 0.134441
vt 0.529974 0.479041
vt 0.530268 0.443819
vt 0.521671 0.451683
vt 0.510205 0.443819
vt 0.522156 0.451683
vt 0.511506 0.522956
vt 0.531036 0.532721
vt 0.511506 0.532721
vt 0.514843 0.472988
vt 0.514843 0.479041
vt 0.526948 0.472988
vt 0.526948 0.479041
vt 0.520707 0.134441
vt 0.523922 0.482067
vt 0.517869 0.482067
vt 0.568360 0.350301
vt 0.602538 0.225301
vt 0.602538 0.350301
vt 0.534179 1.000000
vt 0.500003 0.000086
vt 0.534179 0.000086
vt 0.500000 0.999999
vt 0.534177 0.000005
vt 0.534177 0.999999
vt 0.511810 0.513191
vt 0.531340 0.532721
vt 0.511810 0.532721
vt 0.531108 0.513119
vt 0.511579 0.513191
vt 0.511579 0.513119
vt 0.534091 0.000013
vt 0.505837 0.999998
vt 0.505837 0.000013
vt 0.531267 0.513119
vt 0.531340 0.532648
vt 0.531267 0.532648
vt 0.523922 0.485093
vt 0.517869 0.485093
vt 0.511737 0.513119
vt 0.511737 0.532648
vt 0.517477 0.514231
vt 0.528859 0.525613
vt 0.523168 0.514231
vt 0.531698 0.156423
vt 0.521295 0.555723
vt 0.531412 0.532496
vt 0.521867 0.549339
vt 0.531188 0.532727
vt 0.500001 0.999999
vt 0.531698 0.156423
vt 0.534178 0.765525
vt 0.568357 0.640525
vt 0.530226 0.574416
vt 0.500001 0.000002
vt 0.531036 0.513343
vt 0.534178 0.250000
vt 0.530884 0.532721
vt 0.531036 0.522956
vt 0.568360 0.225301
vt 0.500003 1.000000
vt 0.500000 0.000005
vt 0.531108 0.532648
vt 0.534091 0.999998
vt 0.531340 0.513119
vt 0.517477 0.531304
s 0
usemtl Catenary
f 98/65/37 99/66/37 97/67/37
f 100/68/38 103/69/38 99/70/38
f 104/71/39 101/72/39 103/73/39
f 101/72/40 98/74/40 97/75/40
f 99/76/41 101/77/41 97/78/41
f 100/79/42 102/80/42 104/81/42
f 105/82/41 108/83/41 107/84/41
f 108/85/39 111/86/39 107/87/39
f 112/88/42 109/89/42 111/90/42
f 109/91/43 106/92/43 105/93/43
f 107/94/40 109/89/40 105/95/40
f 108/96/38 110/97/38 112/98/38
f 113/99/44 116/100/44 115/101/44
f 115/70/45 120/102/45 119/69/45
f 120/88/46 117/89/46 119/90/46
f 118/103/47 113/104/47 117/105/47
f 115/76/48 117/77/48 113/78/48
f 116/106/49 118/107/49 120/88/49
f 122/108/50 123/101/50 121/99/50
f 130/109/51 127/110/51 129/111/51
f 128/112/52 125/113/52 127/110/52
f 131/114/53 122/115/53 121/116/53
f 127/110/41 131/117/41 129/118/41
f 124/119/42 132/120/42 130/121/42
f 128/112/42 132/120/42 126/122/42
f 123/76/41 131/123/41 121/78/41
f 125/113/54 132/124/54 131/125/54
f 124/83/55 129/111/55 123/84/55
f 134/108/41 135/101/41 133/99/41
f 136/126/56 139/127/56 135/128/56
f 140/88/42 137/89/42 139/90/42
f 137/129/43 134/130/43 133/131/43
f 135/94/40 137/89/40 133/95/40
f 136/96/38 138/97/38 140/98/38
f 141/99/44 144/100/44 143/101/44
f 143/132/57 148/133/57 147/134/57
f 147/90/46 146/107/46 145/89/46
f 146/135/58 141/136/58 145/137/58
f 147/138/48 141/78/48 143/76/48
f 148/88/49 142/139/49 146/107/49
f 150/108/50 151/101/50 149/99/50
f 158/140/59 155/141/59 157/142/59
f 156/143/52 153/89/52 155/141/52
f 159/144/60 150/145/60 149/146/60
f 157/147/41 153/89/41 159/148/41
f 158/149/42 150/139/42 160/150/42
f 158/149/42 154/107/42 156/143/42
f 157/151/41 149/78/41 151/76/41
f 153/89/61 160/152/61 159/153/61
f 152/154/62 157/155/62 151/156/62
f 162/108/41 163/101/41 161/99/41
f 164/100/56 167/90/56 163/101/56
f 168/88/42 165/89/42 167/90/42
f 165/157/43 162/158/43 161/159/43
f 163/94/40 165/89/40 161/95/40
f 164/96/38 166/97/38 168/98/38
f 170/108/41 171/101/41 169/99/41
f 172/160/56 175/161/56 171/162/56
f 176/88/42 173/89/42 175/90/42
f 173/163/43 170/164/43 169/165/43
f 171/94/40 173/89/40 169/95/40
f 172/166/38 174/167/38 176/168/38
f 180/169/38 183/170/38 179/171/38
f 183/172/63 182/173/63 181/174/63
f 181/89/40 178/175/40 177/176/40
f 179/177/64 181/174/64 177/178/64
f 180/96/65 182/97/65 184/98/65
f 179/179/66 178/180/66 180/181/66
f 98/65/37 100/182/37 99/66/37
f 100/68/38 104/81/38 103/69/38
f 104/71/39 102/183/39 101/72/39
f 101/72/40 102/183/40 98/74/40
f 99/76/41 103/138/41 101/77/41
f 100/79/42 98/184/42 102/80/42
f 105/82/41 106/185/41 108/83/41
f 108/85/39 112/186/39 111/86/39
f 112/88/42 110/107/42 109/89/42
f 109/91/43 110/187/43 106/92/43
f 107/94/40 111/90/40 109/89/40
f 108/96/38 106/188/38 110/97/38
f 113/99/44 114/108/44 116/100/44
f 115/70/45 116/68/45 120/102/45
f 120/88/46 118/107/46 117/89/46
f 118/103/47 114/189/47 113/104/47
f 115/76/48 119/138/48 117/77/48
f 116/106/49 114/139/49 118/107/49
f 122/108/50 124/100/50 123/101/50
f 130/109/51 128/112/51 127/110/51
f 128/112/52 126/122/52 125/113/52
f 131/114/53 132/190/53 122/115/53
f 127/110/41 125/113/41 131/117/41
f 124/119/42 122/191/42 132/120/42
f 128/112/42 130/121/42 132/120/42
f 123/76/41 129/151/41 131/123/41
f 125/113/54 126/122/54 132/124/54
f 124/83/55 130/109/55 129/111/55
f 134/108/41 136/100/41 135/101/41
f 136/126/56 140/192/56 139/127/56
f 140/88/42 138/107/42 137/89/42
f 137/129/43 138/193/43 134/130/43
f 135/94/40 139/90/40 137/89/40
f 136/96/38 134/188/38 138/97/38
f 141/99/44 142/108/44 144/100/44
f 143/132/57 144/194/57 148/133/57
f 147/90/46 148/88/46 146/107/46
f 146/135/58 142/195/58 141/136/58
f 147/138/48 145/77/48 141/78/48
f 148/88/49 144/106/49 142/139/49
f 150/108/50 152/100/50 151/101/50
f 158/140/59 156/143/59 155/141/59
f 156/143/52 154/107/52 153/89/52
f 159/144/60 160/196/60 150/145/60
f 157/147/41 155/141/41 153/89/41
f 158/149/42 152/106/42 150/139/42
f 158/149/42 160/150/42 154/107/42
f 157/151/41 159/123/41 149/78/41
f 153/89/61 154/107/61 160/152/61
f 152/154/62 158/197/62 157/155/62
f 162/108/41 164/100/41 163/101/41
f 164/100/56 168/88/56 167/90/56
f 168/88/42 166/107/42 165/89/42
f 165/157/43 166/198/43 162/158/43
f 163/94/40 167/90/40 165/89/40
f 164/96/38 162/188/38 166/97/38
f 170/108/41 172/100/41 171/101/41
f 172/160/56 176/199/56 175/161/56
f 176/88/42 174/107/42 173/89/42
f 173/163/43 174/167/43 170/164/43
f 171/94/40 175/90/40 173/89/40
f 172/166/38 170/200/38 174/167/38
f 180/169/38 184/201/38 183/170/38
f 183/172/63 184/202/63 182/173/63
f 181/89/40 182/107/40 178/175/40
f 179/177/64 183/172/64 181/174/64
f 180/96/65 178/188/65 182/97/65
f 179/179/66 177/203/66 178/180/66
o SlimGantryMiddle.019
v 3.111980 8.486273 0.178421
v 3.185318 8.486273 0.178420
v 3.111980 8.506045 0.178421
v 3.185318 8.506050 0.178420
v 3.111981 8.486273 -0.178129
v 3.185323 8.486273 -0.178130
v 3.111981 8.506045 -0.178129
v 3.185322 8.506050 -0.178130
v 1.292502 7.261916 0.040391
v 1.292503 7.334776 0.040391
v 1.292502 7.261916 0.020618
v 1.292503 7.334776 0.020618
v 3.158589 7.261916 0.039391
v 3.158590 7.334780 0.039391
v 3.158589 7.261916 0.020619
v 3.158591 7.334780 0.020619
v 3.093406 8.464523 0.158648
v 3.133400 8.403446 0.158648
v 3.093406 8.464523 0.138875
v 3.133400 8.403446 0.138875
v 1.290173 7.299087 0.020618
v 1.330167 7.238010 0.020618
v 1.290173 7.299087 0.000845
v 1.330167 7.238010 0.000845
v 3.111953 8.486222 0.158648
v 3.185301 8.485842 0.158648
v 3.111953 8.486222 0.138875
v 3.185301 8.485842 0.138875
v 3.111957 7.249274 0.020618
v 3.185297 7.248894 0.020618
v 3.111957 7.249274 0.000846
v 3.185297 7.248894 0.000846
v 3.111955 7.340002 0.000422
v 3.185299 7.339622 0.000422
v 3.111955 7.340002 0.020195
v 3.185299 7.339622 0.020195
v 1.292502 7.261916 -0.018959
v 1.292503 7.334776 -0.018959
v 1.292503 7.261916 -0.038731
v 1.292503 7.334776 -0.038731
v 3.158589 7.261916 -0.019958
v 3.158591 7.334780 -0.019958
v 3.158590 7.261916 -0.039731
v 3.158591 7.334780 -0.039731
v 3.093406 8.464523 -0.138583
v 3.133400 8.403446 -0.138583
v 3.093406 8.464523 -0.158356
v 3.133400 8.403446 -0.158356
v 1.290173 7.299087 -0.000184
v 1.330167 7.238010 -0.000185
v 1.290173 7.299087 -0.019957
v 1.330167 7.238010 -0.019957
v 3.111953 8.486222 -0.138583
v 3.185301 8.485842 -0.138583
v 3.111953 8.486222 -0.158356
v 3.185301 8.485842 -0.158355
v 3.111957 7.249274 -0.000184
v 3.185297 7.248894 -0.000184
v 3.111957 7.249273 -0.019957
v 3.185297 7.248893 -0.019957
v 3.111955 7.340002 -0.019874
v 3.185299 7.339622 -0.019874
v 3.111955 7.340002 -0.000102
v 3.185299 7.339622 -0.000102
v 1.347551 8.413314 0.178420
v 1.347552 8.486174 0.178420
v 1.347552 8.413314 0.158648
v 1.347553 8.486174 0.158648
v 3.148852 8.413314 0.177421
v 3.148853 8.486178 0.177421
v 3.148852 8.413314 0.157648
v 3.148853 8.486178 0.157648
v 1.347551 8.413314 -0.157358
v 1.347552 8.486174 -0.157358
v 1.347552 8.413314 -0.177130
v 1.347553 8.486174 -0.177130
v 3.148852 8.413314 -0.158357
v 3.148853 8.486178 -0.158357
v 3.148851 8.413314 -0.178130
v 3.148853 8.486178 -0.178130
v 1.322155 8.506046 0.094287
v 1.333372 8.506046 0.166328
v 1.322155 8.525819 0.094287
v 1.333373 8.525819 0.166328
v 3.167248 8.506045 -0.176919
v 3.178467 8.506045 -0.104875
v 3.167248 8.525818 -0.176919
v 3.178467 8.525818 -0.104875
vn -0.0000 -0.0000 1.0000
vn -0.0001 1.0000 -0.0000
vn -0.0000 -0.0000 -1.0000
vn -0.0000 -1.0000 -0.0000
vn -1.0000 -0.0000 -0.0000
vn 1.0000 -0.0000 -0.0000
vn 0.0005 -0.0000 1.0000
vn -0.0000 1.0000 -0.0000
vn 0.8366 0.5478 -0.0000
vn 0.0537 0.0351 -0.9979
vn -0.8366 -0.5478 -0.0000
vn -0.0537 -0.0351 0.9979
vn -0.5428 0.8399 -0.0000
vn 0.5428 -0.8399 -0.0000
vn 0.0052 1.0000 -0.0000
vn -0.0000 -0.0047 -1.0000
vn -0.0052 -1.0000 -0.0000
vn -0.0006 -0.1199 0.9928
vn -0.0000 0.0047 1.0000
vn 0.0006 0.1199 -0.9928
vn -0.0005 -0.0000 -1.0000
vn -0.0538 -0.0352 -0.9979
vn 0.0538 0.0352 0.9979
vn -0.0000 0.0009 -1.0000
vn 0.0006 0.1199 0.9928
vn -0.0000 -0.0009 1.0000
vn -0.0006 -0.1199 -0.9928
vn -0.0006 -0.0000 -1.0000
vn 0.0006 -0.0000 1.0000
vn 0.9881 -0.0000 -0.1539
vn -0.1454 -0.0000 -0.9894
vn 0.1454 -0.0000 0.9894
vn -0.9881 -0.0000 0.1539
vt 0.531698 0.134441
vt 0.509715 0.156423
vt 0.509715 0.134441
vt 0.531036 0.513198
vt 0.511506 0.532727
vt 0.511506 0.513198
vt 0.512318 0.551175
vt 0.521295 0.555723
vt 0.520784 0.555723
vt 0.521867 0.582774
vt 0.513508 0.582774
vt 0.509716 0.134441
vt 0.531698 0.156423
vt 0.509716 0.156423
vt 0.531412 0.512967
vt 0.511883 0.532496
vt 0.511579 0.532575
vt 0.513508 0.549339
vt 0.521867 0.557698
vt 0.513508 0.557698
vt 0.531188 0.513198
vt 0.511658 0.532727
vt 0.511658 0.513198
vt 0.523922 0.472988
vt 0.517869 0.479041
vt 0.517869 0.472988
vt 0.534177 0.999999
vt 0.500001 0.000002
vt 0.534177 0.000002
vt 0.511817 0.472988
vt 0.511817 0.479041
vt 0.531698 0.134441
vt 0.509715 0.156423
vt 0.509715 0.134441
vt 0.517869 0.460883
vt 0.523922 0.466936
vt 0.517869 0.466936
vt 0.531036 0.532727
vt 0.534178 0.515525
vt 0.500000 0.765525
vt 0.500000 0.515525
vt 0.529974 0.472988
vt 0.523922 0.479041
vt 0.523922 0.460883
vt 0.521867 0.561878
vt 0.513508 0.566057
vt 0.513508 0.561878
vt 0.521867 0.566057
vt 0.513508 0.574416
vt 0.500000 0.640525
vt 0.534171 0.765525
vt 0.500000 0.765525
vt 0.509329 0.574416
vt 0.509329 0.566057
vt 0.530226 0.566057
vt 0.526046 0.574416
vt 0.526046 0.566057
vt 0.521867 0.574416
vt 0.520707 0.156423
vt 0.521867 0.578595
vt 0.513508 0.578595
vt 0.500001 0.999997
vt 0.534179 0.000002
vt 0.534179 0.999997
vt 0.511506 0.513343
vt 0.531036 0.532873
vt 0.511506 0.532873
vt 0.500000 0.250000
vt 0.534178 0.500000
vt 0.500000 0.500000
vt 0.530884 0.513191
vt 0.511354 0.532721
vt 0.511354 0.513191
vt 0.531698 0.134441
vt 0.529974 0.479041
vt 0.530268 0.443819
vt 0.521671 0.451683
vt 0.510205 0.443819
vt 0.522156 0.451683
vt 0.511506 0.522956
vt 0.531036 0.532721
vt 0.511506 0.532721
vt 0.514843 0.472988
vt 0.514843 0.479041
vt 0.526948 0.472988
vt 0.526948 0.479041
vt 0.520707 0.134441
vt 0.523922 0.482067
vt 0.517869 0.482067
vt 0.534177 0.222200
vt 0.500000 0.347200
vt 0.500000 0.222200
vt 0.534179 1.000000
vt 0.500003 0.000086
vt 0.534179 0.000086
vt 0.500000 0.999999
vt 0.534177 0.000005
vt 0.534177 0.999999
vt 0.511810 0.513191
vt 0.531340 0.532721
vt 0.511810 0.532721
vt 0.531108 0.513119
vt 0.511579 0.513191
vt 0.511579 0.513119
vt 0.534091 0.000013
vt 0.505837 0.999998
vt 0.505837 0.000013
vt 0.531267 0.513119
vt 0.531340 0.532648
vt 0.531267 0.532648
vt 0.523922 0.485093
vt 0.517869 0.485093
vt 0.511737 0.532648
vt 0.511737 0.513119
vt 0.517477 0.531304
vt 0.523168 0.514231
vt 0.517477 0.514231
vt 0.531698 0.156423
vt 0.527598 0.551175
vt 0.531412 0.532496
vt 0.521867 0.549339
vt 0.531188 0.532727
vt 0.500001 0.999999
vt 0.531698 0.156423
vt 0.534178 0.765525
vt 0.534171 0.640525
vt 0.530226 0.574416
vt 0.500001 0.000002
vt 0.531036 0.513343
vt 0.534178 0.250000
vt 0.530884 0.532721
vt 0.531036 0.522956
vt 0.534177 0.347200
vt 0.500003 1.000000
vt 0.500000 0.000005
vt 0.531108 0.532648
vt 0.534091 0.999998
vt 0.531340 0.513119
vt 0.528859 0.525613
s 0
usemtl Catenary
f 186/204/67 187/205/67 185/206/67
f 188/207/68 191/208/68 187/209/68
f 191/210/69 190/211/69 189/212/69
f 189/212/70 186/213/70 185/214/70
f 187/215/71 189/216/71 185/217/71
f 188/218/72 190/219/72 192/220/72
f 193/221/71 196/222/71 195/223/71
f 196/224/69 199/225/69 195/226/69
f 200/227/72 197/228/72 199/229/72
f 197/230/73 194/231/73 193/232/73
f 195/233/70 197/228/70 193/234/70
f 196/235/74 198/236/74 200/237/74
f 201/238/75 204/239/75 203/240/75
f 203/209/76 208/241/76 207/208/76
f 208/227/77 205/228/77 207/229/77
f 206/242/78 201/243/78 205/244/78
f 203/215/79 205/216/79 201/217/79
f 204/245/80 206/246/80 208/227/80
f 210/247/81 211/240/81 209/238/81
f 218/248/82 215/249/82 217/250/82
f 216/251/83 213/252/83 215/249/83
f 219/253/84 210/254/84 209/255/84
f 215/249/71 219/256/71 217/257/71
f 212/258/72 220/259/72 218/260/72
f 216/251/72 220/259/72 214/261/72
f 211/215/71 219/262/71 209/217/71
f 213/252/85 220/263/85 219/264/85
f 212/222/86 217/250/86 211/223/86
f 222/247/71 223/240/71 221/238/71
f 224/265/87 227/266/87 223/267/87
f 228/227/72 225/228/72 227/229/72
f 225/268/73 222/269/73 221/270/73
f 223/233/70 225/228/70 221/234/70
f 224/235/74 226/236/74 228/237/74
f 230/247/75 231/240/75 229/238/75
f 231/271/88 236/272/88 235/273/88
f 235/229/77 234/246/77 233/228/77
f 234/274/89 229/275/89 233/276/89
f 235/277/79 229/217/79 231/215/79
f 236/227/80 230/278/80 234/246/80
f 237/238/81 240/239/81 239/240/81
f 246/279/90 243/280/90 245/281/90
f 244/282/83 241/228/83 243/280/83
f 247/283/91 238/284/91 237/285/91
f 245/286/71 241/228/71 247/287/71
f 246/288/72 238/278/72 248/289/72
f 246/288/72 242/246/72 244/282/72
f 245/290/71 237/217/71 239/215/71
f 241/228/92 248/291/92 247/292/92
f 240/293/93 245/294/93 239/295/93
f 250/247/71 251/240/71 249/238/71
f 252/239/94 255/229/94 251/240/94
f 256/227/72 253/228/72 255/229/72
f 253/296/95 250/297/95 249/298/95
f 251/233/70 253/228/70 249/234/70
f 252/235/74 254/236/74 256/237/74
f 258/247/71 259/240/71 257/238/71
f 260/299/94 263/300/94 259/301/94
f 264/227/72 261/228/72 263/229/72
f 261/302/95 258/303/95 257/304/95
f 259/233/70 261/228/70 257/234/70
f 260/305/74 262/306/74 264/307/74
f 268/308/74 271/309/74 267/310/74
f 271/311/96 270/312/96 269/313/96
f 269/228/70 266/314/70 265/315/70
f 271/311/97 265/316/97 267/317/97
f 268/235/98 270/236/98 272/237/98
f 265/318/99 268/319/99 267/320/99
f 186/204/67 188/321/67 187/205/67
f 188/207/68 192/220/68 191/208/68
f 191/210/69 192/322/69 190/211/69
f 189/212/70 190/211/70 186/213/70
f 187/215/71 191/277/71 189/216/71
f 188/218/72 186/323/72 190/219/72
f 193/221/71 194/324/71 196/222/71
f 196/224/69 200/325/69 199/225/69
f 200/227/72 198/246/72 197/228/72
f 197/230/73 198/326/73 194/231/73
f 195/233/70 199/229/70 197/228/70
f 196/235/74 194/327/74 198/236/74
f 201/238/75 202/247/75 204/239/75
f 203/209/76 204/207/76 208/241/76
f 208/227/77 206/246/77 205/228/77
f 206/242/78 202/328/78 201/243/78
f 203/215/79 207/277/79 205/216/79
f 204/245/80 202/278/80 206/246/80
f 210/247/81 212/239/81 211/240/81
f 218/248/82 216/251/82 215/249/82
f 216/251/83 214/261/83 213/252/83
f 219/253/84 220/329/84 210/254/84
f 215/249/71 213/252/71 219/256/71
f 212/258/72 210/330/72 220/259/72
f 216/251/72 218/260/72 220/259/72
f 211/215/71 217/290/71 219/262/71
f 213/252/85 214/261/85 220/263/85
f 212/222/86 218/248/86 217/250/86
f 222/247/71 224/239/71 223/240/71
f 224/265/87 228/331/87 227/266/87
f 228/227/72 226/246/72 225/228/72
f 225/268/73 226/332/73 222/269/73
f 223/233/70 227/229/70 225/228/70
f 224/235/74 222/327/74 226/236/74
f 230/247/75 232/239/75 231/240/75
f 231/271/88 232/333/88 236/272/88
f 235/229/77 236/227/77 234/246/77
f 234/274/89 230/334/89 229/275/89
f 235/277/79 233/216/79 229/217/79
f 236/227/80 232/245/80 230/278/80
f 237/238/81 238/247/81 240/239/81
f 246/279/90 244/282/90 243/280/90
f 244/282/83 242/246/83 241/228/83
f 247/283/91 248/335/91 238/284/91
f 245/286/71 243/280/71 241/228/71
f 246/288/72 240/245/72 238/278/72
f 246/288/72 248/289/72 242/246/72
f 245/290/71 247/262/71 237/217/71
f 241/228/92 242/246/92 248/291/92
f 240/293/93 246/336/93 245/294/93
f 250/247/71 252/239/71 251/240/71
f 252/239/94 256/227/94 255/229/94
f 256/227/72 254/246/72 253/228/72
f 253/296/95 254/337/95 250/297/95
f 251/233/70 255/229/70 253/228/70
f 252/235/74 250/327/74 254/236/74
f 258/247/71 260/239/71 259/240/71
f 260/299/94 264/338/94 263/300/94
f 264/227/72 262/246/72 261/228/72
f 261/302/95 262/306/95 258/303/95
f 259/233/70 263/229/70 261/228/70
f 260/305/74 258/339/74 262/306/74
f 268/308/74 272/340/74 271/309/74
f 271/311/96 272/341/96 270/312/96
f 269/228/70 270/246/70 266/314/70
f 271/311/97 269/313/97 265/316/97
f 268/235/98 266/327/98 270/236/98
f 265/318/99 266/342/99 268/319/99
o HalfGrantryEnd
v 1.265506 8.486273 0.178421
v 1.336763 8.486273 0.178420
v 1.265506 8.506045 0.178421
v 1.336763 8.506045 0.178420
v 1.265506 8.486273 -0.178129
v 1.336767 8.486273 -0.178130
v 1.265506 8.506045 -0.178129
v 1.336767 8.506045 -0.178130
v -0.502350 7.261916 0.040391
v -0.502349 7.334776 0.040391
v -0.502350 7.261916 0.020618
v -0.502349 7.334776 0.020619
v 1.310792 7.261916 0.039392
v 1.310793 7.334780 0.039392
v 1.310792 7.261916 0.020619
v 1.310793 7.334780 0.020619
v 1.265480 8.486222 0.158648
v 1.304339 8.413446 0.158648
v 1.265480 8.486222 0.138876
v 1.304339 8.413446 0.138876
v -0.504613 7.299087 0.020618
v -0.465754 7.238010 0.020618
v -0.504613 7.299087 0.000846
v -0.465754 7.238010 0.000846
v 1.265479 8.486222 0.158648
v 1.336746 8.485842 0.158648
v 1.265479 8.486222 0.138876
v 1.336746 8.485842 0.138876
v 1.265483 7.249274 0.020619
v 1.336743 7.248894 0.020619
v 1.265483 7.249274 0.000846
v 1.336743 7.248894 0.000846
v 1.265481 7.340002 0.000423
v 1.336744 7.339622 0.000423
v 1.265481 7.340002 0.020195
v 1.336744 7.339622 0.020195
v -0.502350 7.261916 -0.018958
v -0.502349 7.334776 -0.018958
v -0.502349 7.261916 -0.038731
v -0.502349 7.334776 -0.038731
v 1.310792 7.261916 -0.019958
v 1.310793 7.334780 -0.019958
v 1.310792 7.261916 -0.039730
v 1.310793 7.334780 -0.039730
v 1.265480 8.486222 -0.138583
v 1.304339 8.413446 -0.138583
v 1.265480 8.486222 -0.158355
v 1.304339 8.413446 -0.158355
v -0.504613 7.299087 -0.000184
v -0.465754 7.238010 -0.000184
v -0.504613 7.299087 -0.019957
v -0.465754 7.238010 -0.019957
v 1.265479 8.486222 -0.138583
v 1.336746 8.485842 -0.138583
v 1.265479 8.486222 -0.158355
v 1.336746 8.485842 -0.158355
v 1.265483 7.249274 -0.000184
v 1.336742 7.248894 -0.000183
v 1.265483 7.249273 -0.019956
v 1.336743 7.248893 -0.019956
v 1.265481 7.340002 -0.019874
v 1.336744 7.339622 -0.019874
v 1.265481 7.340002 -0.000101
v 1.336744 7.339622 -0.000101
v 1.347498 8.486105 0.138876
v 1.347498 8.486105 0.158648
v 1.347555 8.413384 0.158648
v 1.347555 8.413384 0.138876
v 1.347498 8.486105 -0.158355
v 1.347498 8.486105 -0.138583
v 1.347555 8.413384 -0.138583
v 1.347555 8.413384 -0.158355
vn -0.0000 -0.0000 1.0000
vn -0.0000 1.0000 -0.0000
vn -0.0000 -0.0000 -1.0000
vn -0.0000 -1.0000 -0.0000
vn -1.0000 -0.0000 -0.0000
vn 1.0000 -0.0000 -0.0000
vn 0.0006 -0.0000 1.0000
vn -0.0014 -1.0000 -0.0000
vn 0.0545 0.0347 -0.9979
vn -0.8437 -0.5368 -0.0000
vn -0.0545 -0.0347 0.9979
vn -0.5570 0.8305 -0.0000
vn 0.5532 -0.8331 -0.0000
vn 0.0053 1.0000 -0.0000
vn -0.0000 -0.0047 -1.0000
vn -0.0053 -1.0000 -0.0000
vn -0.0000 0.0047 1.0000
vn 0.0006 0.1199 -0.9928
vn -0.0006 -0.0000 -1.0000
vn -0.0547 -0.0348 -0.9979
vn 0.0547 0.0348 0.9979
vn -0.0000 0.0009 -1.0000
vn 0.0006 0.1199 0.9928
vn -0.0000 -0.0009 1.0000
vn -0.0006 -0.1199 -0.9928
vn 1.0000 0.0008 -0.0000
vn 0.0014 1.0000 -0.0000
vn 0.0574 0.0307 -0.9979
vn -0.0574 -0.0307 0.9979
vn -0.0576 -0.0308 -0.9979
vn 0.0576 0.0308 0.9979
vt 0.531698 0.134441
vt 0.509715 0.156423
vt 0.509715 0.134441
vt 0.531036 0.513198
vt 0.511506 0.532727
vt 0.511506 0.513198
vt 0.527598 0.551175
vt 0.520784 0.555723
vt 0.512318 0.551175
vt 0.521867 0.582774
vt 0.513508 0.582774
vt 0.509716 0.134441
vt 0.531698 0.156423
vt 0.509716 0.156423
vt 0.531412 0.512967
vt 0.511883 0.532496
vt 0.511579 0.532575
vt 0.513508 0.549339
vt 0.521867 0.557698
vt 0.513508 0.557698
vt 0.531188 0.513198
vt 0.511658 0.532727
vt 0.511658 0.513198
vt 0.523922 0.472988
vt 0.517869 0.479041
vt 0.517869 0.472988
vt 0.534177 0.999999
vt 0.500001 0.000002
vt 0.534177 0.000002
vt 0.511817 0.472988
vt 0.511817 0.479041
vt 0.531698 0.134441
vt 0.509715 0.156423
vt 0.509715 0.134441
vt 0.529974 0.479041
vt 0.529974 0.472988
vt 0.531036 0.532727
vt 0.534178 0.515525
vt 0.500000 0.765525
vt 0.500000 0.515525
vt 0.523922 0.479041
vt 0.523922 0.460883
vt 0.517869 0.466936
vt 0.517869 0.460883
vt 0.521867 0.561878
vt 0.513508 0.566057
vt 0.513508 0.561878
vt 0.521867 0.566057
vt 0.513508 0.574416
vt 0.509329 0.574416
vt 0.509329 0.566057
vt 0.530226 0.566057
vt 0.526046 0.574416
vt 0.526046 0.566057
vt 0.521867 0.574416
vt 0.520707 0.156423
vt 0.521867 0.578595
vt 0.513508 0.578595
vt 0.500001 0.999997
vt 0.534179 0.000002
vt 0.534179 0.999997
vt 0.511506 0.513343
vt 0.531036 0.532873
vt 0.511506 0.532873
vt 0.500000 0.250000
vt 0.534178 0.500000
vt 0.500000 0.500000
vt 0.530884 0.513191
vt 0.511354 0.532721
vt 0.511354 0.513191
vt 0.531698 0.134441
vt 0.530268 0.443819
vt 0.521671 0.451683
vt 0.510205 0.443819
vt 0.522156 0.451683
vt 0.511506 0.522956
vt 0.531036 0.532721
vt 0.511506 0.532721
vt 0.514843 0.472988
vt 0.514843 0.479041
vt 0.526948 0.472988
vt 0.526948 0.479041
vt 0.520707 0.134441
vt 0.523922 0.482067
vt 0.517869 0.482067
vt 0.568360 0.350301
vt 0.602538 0.225301
vt 0.602538 0.350301
vt 0.523922 0.466936
vt 0.534178 0.250000
vt 0.530884 0.532721
vt 0.534178 0.765525
vt 0.531698 0.156423
vt 0.521295 0.555723
vt 0.531412 0.532496
vt 0.521867 0.549339
vt 0.531188 0.532727
vt 0.500001 0.999999
vt 0.531698 0.156423
vt 0.530226 0.574416
vt 0.500001 0.000002
vt 0.531036 0.513343
vt 0.531036 0.522956
vt 0.568360 0.225301
s 0
usemtl Catenary
f 274/343/100 275/344/100 273/345/100
f 276/346/101 279/347/101 275/348/101
f 280/349/102 277/350/102 279/351/102
f 277/350/103 274/352/103 273/353/103
f 275/354/104 277/355/104 273/356/104
f 276/357/105 278/358/105 280/359/105
f 281/360/104 284/361/104 283/362/104
f 284/363/102 287/364/102 283/365/102
f 288/366/105 285/367/105 287/368/105
f 285/369/106 282/370/106 281/371/106
f 283/372/103 285/367/103 281/373/103
f 284/374/101 286/375/101 288/376/101
f 290/377/107 340/378/107 339/377/107
f 291/348/108 296/379/108 295/347/108
f 296/366/109 293/367/109 295/368/109
f 294/380/110 289/381/110 293/382/110
f 291/354/111 293/355/111 289/356/111
f 292/378/112 294/383/112 296/366/112
f 298/384/113 299/385/113 297/386/113
f 306/387/114 303/388/114 305/389/114
f 304/390/115 301/391/115 303/388/115
f 303/388/104 307/392/104 305/393/104
f 300/394/105 308/395/105 306/396/105
f 304/390/105 308/395/105 302/397/105
f 299/354/104 307/398/104 297/356/104
f 301/391/116 308/399/116 307/400/116
f 300/361/117 305/389/117 299/362/117
f 310/384/104 311/385/104 309/386/104
f 312/401/118 315/402/118 311/403/118
f 316/366/105 313/367/105 315/368/105
f 313/404/106 310/405/106 309/406/106
f 311/372/103 313/367/103 309/373/103
f 312/374/101 314/375/101 316/376/101
f 318/377/107 344/378/107 343/377/107
f 319/407/119 324/408/119 323/409/119
f 323/368/109 322/383/109 321/367/109
f 322/410/120 317/411/120 321/412/120
f 323/413/111 317/356/111 319/354/111
f 324/366/112 318/377/112 322/383/112
f 326/384/113 327/385/113 325/386/113
f 334/414/121 331/415/121 333/416/121
f 332/417/115 329/367/115 331/415/115
f 335/418/122 326/419/122 325/420/122
f 333/421/104 329/367/104 335/422/104
f 334/423/105 326/377/105 336/424/105
f 334/423/105 330/383/105 332/417/105
f 333/425/104 325/356/104 327/354/104
f 329/367/123 336/426/123 335/427/123
f 328/428/124 333/429/124 327/430/124
f 339/384/125 337/385/125 338/386/125
f 342/386/125 344/431/125 341/385/125
f 317/356/126 341/354/126 319/354/126
f 289/356/126 337/354/126 291/354/126
f 320/432/102 341/407/102 344/432/102
f 292/346/102 337/348/102 340/346/102
f 318/433/100 342/411/100 317/411/100
f 290/434/100 338/381/100 289/381/100
f 274/343/100 276/435/100 275/344/100
f 276/346/101 280/359/101 279/347/101
f 280/349/102 278/436/102 277/350/102
f 277/350/103 278/436/103 274/352/103
f 275/354/104 279/413/104 277/355/104
f 276/357/105 274/437/105 278/358/105
f 281/360/104 282/438/104 284/361/104
f 284/363/102 288/439/102 287/364/102
f 288/366/105 286/383/105 285/367/105
f 285/369/106 286/440/106 282/370/106
f 283/372/103 287/368/103 285/367/103
f 284/374/101 282/441/101 286/375/101
f 290/377/107 292/378/107 340/378/107
f 291/348/127 292/346/127 296/379/127
f 296/366/109 294/383/109 293/367/109
f 294/380/128 290/434/128 289/381/128
f 291/354/111 295/413/111 293/355/111
f 292/378/112 290/377/112 294/383/112
f 298/384/113 300/431/113 299/385/113
f 306/387/114 304/390/114 303/388/114
f 304/390/115 302/397/115 301/391/115
f 303/388/104 301/391/104 307/392/104
f 300/394/105 298/442/105 308/395/105
f 304/390/105 306/396/105 308/395/105
f 299/354/104 305/425/104 307/398/104
f 301/391/116 302/397/116 308/399/116
f 300/361/117 306/387/117 305/389/117
f 310/384/104 312/431/104 311/385/104
f 312/401/118 316/443/118 315/402/118
f 316/366/105 314/383/105 313/367/105
f 313/404/106 314/444/106 310/405/106
f 311/372/103 315/368/103 313/367/103
f 312/374/101 310/441/101 314/375/101
f 318/377/107 320/378/107 344/378/107
f 319/407/129 320/432/129 324/408/129
f 323/368/109 324/366/109 322/383/109
f 322/410/130 318/433/130 317/411/130
f 323/413/111 321/355/111 317/356/111
f 324/366/112 320/378/112 318/377/112
f 326/384/113 328/431/113 327/385/113
f 334/414/121 332/417/121 331/415/121
f 332/417/115 330/383/115 329/367/115
f 335/418/122 336/445/122 326/419/122
f 333/421/104 331/415/104 329/367/104
f 334/423/105 328/378/105 326/377/105
f 334/423/105 336/424/105 330/383/105
f 333/425/104 335/398/104 325/356/104
f 329/367/123 330/383/123 336/426/123
f 328/428/124 334/446/124 333/429/124
f 339/384/125 340/431/125 337/385/125
f 342/386/125 343/384/125 344/431/125
f 317/356/126 342/356/126 341/354/126
f 289/356/126 338/356/126 337/354/126
f 320/432/102 319/407/102 341/407/102
f 292/346/102 291/348/102 337/348/102
f 318/433/100 343/433/100 342/411/100
f 290/434/100 339/434/100 338/381/100
