# Blender 5.0.1
# www.blender.org
mtllib registration_arm_inner_single.mtl
o RegistrationArmInnerSingle
g registration_arm_inner_single
v 1.804528 6.358242 0.011397
v 1.804528 6.369555 0.016083
v 1.804528 6.358242 -0.011230
v 1.804528 6.369555 -0.015917
v 1.804528 6.380869 -0.011230
v 1.804527 6.385555 0.000083
v 1.804528 6.380869 0.011397
v 1.804528 6.353556 0.000083
v 0.099374 6.358242 0.011258
v 0.099374 6.369555 0.015944
v 0.099374 6.358242 -0.011370
v 0.099374 6.385555 -0.000056
v 0.099374 6.380869 0.011258
v 0.099374 6.353556 -0.000056
v 0.099374 6.369555 -0.016056
v 0.099374 6.380869 -0.011370
v 0.932741 6.358242 -0.011370
v 0.932741 6.369555 -0.016056
v 0.932741 6.358242 0.011258
v 0.932741 6.385555 -0.000056
v 0.932741 6.380869 -0.011370
v 0.309101 6.000000 -0.006696
v 1.007003 6.301972 -0.006696
v 0.650101 6.200000 -0.006696
v 0.291098 6.019967 -0.006696
v 1.000101 6.329857 -0.006696
v 0.634452 6.223782 -0.006696
v 0.291098 6.000000 -0.006696
v 0.650101 6.200000 -0.002696
v 1.007003 6.301972 -0.002696
v 0.309101 6.000000 -0.002696
v 0.634452 6.223782 -0.002696
v 1.000101 6.329857 -0.002696
v 0.291098 6.019967 -0.002696
v 0.291098 6.000000 -0.002696
v 0.933137 6.310431 -0.002696
v 0.933220 6.301970 0.002304
v 0.932742 6.350000 -0.002416
v 1.032742 6.350000 -0.002416
v 0.932742 6.350000 0.002584
v 1.032742 6.350000 0.002584
v 1.032449 6.301970 -0.002696
v 1.032449 6.301970 0.002304
v 0.933220 6.301970 -0.002696
v 1.032742 6.370000 0.020084
v 0.932742 6.370000 0.020084
v 1.032742 6.355858 0.014226
v 0.932742 6.355858 0.014226
v 1.032742 6.355858 -0.014058
v 0.932742 6.355858 -0.014058
v 1.032742 6.370000 -0.019916
v 0.932742 6.370000 -0.019916
v 1.032742 6.384142 -0.014058
v 0.932742 6.384142 -0.014058
v 1.032742 6.390000 0.000084
v 0.932742 6.390000 0.000084
v 1.032742 6.384142 0.014226
v 0.932742 6.384142 0.014226
v 0.932741 6.353556 -0.000056
v 1.032742 6.353556 0.000084
v 1.032742 6.369555 0.016084
v 1.032742 6.358242 0.011398
v 0.932741 6.369555 0.015944
v 1.032742 6.358242 -0.011230
v 1.032742 6.369555 -0.015916
v 1.032742 6.380869 -0.011230
v 1.032742 6.385555 0.000084
v 1.032742 6.380869 0.011398
v 0.932741 6.380869 0.011258
vn 1.0000 -0.0000 -0.0000
vn -0.0000 1.0000 -0.0000
vn 0.0001 0.7071 -0.7071
vn -0.0001 0.7071 0.7071
vn -0.0001 -0.0000 1.0000
vn -0.0000 -0.0000 1.0000
vn 0.0001 -0.7071 -0.7071
vn 0.0001 -0.0000 -1.0000
vn -0.0001 -0.7071 0.7071
vn -0.0000 -1.0000 -0.0000
vn -0.0000 -0.0000 -1.0000
vn -0.0000 -0.0058 1.0000
vn -0.5104 0.8599 -0.0000
vn 0.5059 -0.8626 -0.0000
vn 0.9707 0.2402 -0.0000
vn -0.2786 0.9604 -0.0000
vn -0.2786 0.9604 -0.0002
vn 0.2747 -0.9615 -0.0000
vn -1.0000 -0.0000 -0.0000
vn -1.0000 -0.0000 0.0002
vn -1.0000 -0.0002 0.0002
vn 0.0011 0.0091 -1.0000
vn -0.0017 0.0083 -1.0000
vn 0.0032 0.0087 -1.0000
vn -0.0000 -0.6807 0.7326
vn -0.0000 -0.8933 0.4495
vn -0.0000 -0.8933 -0.4495
vn -0.0000 -0.6807 -0.7326
vn -0.0000 0.7071 -0.7071
vn -0.0000 0.7071 0.7071
vn -0.0000 -1.0000 -0.0005
vn -1.0000 -0.0000 -0.0002
vn -1.0000 0.0002 -0.0002
vn 1.0000 -0.0061 -0.0000
vn 1.0000 -0.0023 -0.0000
vn -1.0000 0.0002 -0.0000
vn -1.0000 -0.0099 -0.0001
vn -1.0000 -0.0099 -0.0000
vn -1.0000 -0.0037 -0.0000
vn -1.0000 -0.0038 -0.0000
vn -0.9996 -0.0098 -0.0283
vn -1.0000 -0.0002 -0.0002
vn -1.0000 -0.0003 -0.0000
vn -1.0000 0.0002 0.0001
vn 0.0027 0.0032 -1.0000
vn -0.0020 0.0071 -1.0000
vn -0.0001 -1.0000 -0.0000
vt 0.978606 0.007273
vt 0.976856 0.007273
vt 0.973356 0.014273
vt 0.975106 0.007273
vt 0.975106 0.014273
vt 0.971606 0.007273
vt 0.969856 0.014273
vt 0.969856 0.007273
vt 0.969856 0.000273
vt 0.978606 0.014273
vt 0.983856 0.014273
vt 0.982106 0.007273
vt 0.983856 0.007273
vt 0.971606 0.014273
vt 0.973356 0.007273
vt 0.980356 0.014273
vt 0.982106 0.014273
vt 0.980356 0.007273
vt 0.976856 0.014273
s 1
usemtl Catenary
f 64/1/1 49/1/1 51/2/1
f 12/3/2 5/4/3 16/5/3
f 7/6/4 10/7/5 2/8/5
f 29/9/6 44/9/6 32/9/6
f 11/10/7 4/2/8 3/1/7
f 10/11/5 1/12/9 2/13/5
f 13/14/4 6/15/2 12/3/2
f 3/1/7 14/16/10 11/10/7
f 27/9/11 23/9/11 24/9/11
f 41/9/12 37/9/12 43/9/12
f 34/9/13 27/9/13 25/9/13
f 29/9/14 22/9/14 24/9/14
f 33/9/15 23/9/15 26/9/15
f 32/9/16 36/9/17 26/9/16
f 30/9/18 24/9/18 23/9/18
f 35/9/19 25/9/19 28/9/19
f 46/7/20 63/11/20 48/17/21
f 33/9/22 38/9/23 39/9/24
f 46/11/6 47/12/25 45/13/6
f 48/17/25 41/18/26 47/12/25
f 38/16/27 49/1/28 39/18/27
f 50/10/28 51/2/11 49/1/28
f 52/19/11 53/4/29 51/2/11
f 54/5/29 55/15/2 53/4/29
f 56/3/2 57/6/30 55/15/2
f 58/14/30 45/8/6 57/6/30
f 30/9/31 43/9/10 44/9/10
f 9/17/9 8/18/10 1/12/9
f 4/2/8 16/5/3 5/4/3
f 52/19/32 21/5/33 54/5/33
f 45/13/1 62/12/1 61/8/1
f 16/5/19 11/10/19 9/17/19
f 55/15/1 57/6/1 68/6/1
f 55/15/1 68/6/1 67/15/1
f 43/9/34 42/9/34 39/18/35
f 62/12/1 47/12/1 41/9/35
f 41/9/35 43/9/34 39/18/35
f 53/4/1 55/15/1 67/15/1
f 53/4/1 67/15/1 66/4/1
f 41/9/35 39/18/35 49/1/1
f 60/18/1 62/12/1 41/9/35
f 64/1/1 60/18/1 41/9/35
f 51/2/1 53/4/1 66/4/1
f 51/2/1 66/4/1 65/2/1
f 64/1/1 41/9/35 49/1/1
f 51/2/1 65/2/1 64/1/1
f 12/3/2 6/15/2 5/4/3
f 7/6/4 13/14/4 10/7/5
f 32/9/6 34/9/6 35/9/6
f 35/9/6 31/9/6 29/9/6
f 29/9/6 30/9/6 44/9/6
f 44/9/6 36/9/6 32/9/6
f 32/9/6 35/9/6 29/9/6
f 11/10/7 15/19/8 4/2/8
f 10/11/5 9/17/9 1/12/9
f 13/14/4 7/6/4 6/15/2
f 3/1/7 8/18/10 14/16/10
f 24/9/11 22/9/11 28/9/11
f 28/9/11 25/9/11 27/9/11
f 27/9/11 26/9/11 23/9/11
f 24/9/11 28/9/11 27/9/11
f 41/9/12 40/9/12 37/9/12
f 34/9/13 32/9/13 27/9/13
f 29/9/14 31/9/14 22/9/14
f 33/9/15 30/9/15 23/9/15
f 26/9/16 27/9/16 32/9/16
f 36/9/17 33/9/16 26/9/16
f 30/9/18 29/9/18 24/9/18
f 35/9/19 34/9/19 25/9/19
f 56/3/36 54/5/33 21/5/33
f 56/3/36 21/5/33 20/3/36
f 44/9/37 37/9/38 40/16/39
f 38/9/40 36/9/41 44/9/37
f 18/19/32 52/19/32 50/10/42
f 17/10/42 18/19/32 50/10/42
f 38/9/40 44/9/37 40/16/39
f 17/10/42 50/10/42 38/9/40
f 59/16/43 17/10/42 38/9/40
f 38/9/40 40/16/39 48/17/21
f 58/14/44 56/3/36 20/3/36
f 58/14/44 20/3/36 69/14/44
f 59/16/43 38/9/40 48/17/21
f 19/17/21 59/16/43 48/17/21
f 46/7/20 58/14/44 69/14/44
f 63/11/20 19/17/21 48/17/21
f 46/7/20 69/14/44 63/11/20
f 42/9/45 30/9/11 33/9/22
f 33/9/22 36/9/46 38/9/23
f 39/9/24 42/9/45 33/9/22
f 46/11/6 48/17/25 47/12/25
f 48/17/25 40/16/26 41/18/26
f 38/16/27 50/10/28 49/1/28
f 50/10/28 52/19/11 51/2/11
f 52/19/11 54/5/29 53/4/29
f 54/5/29 56/3/2 55/15/2
f 56/3/2 58/14/30 57/6/30
f 58/14/30 46/7/6 45/8/6
f 30/9/31 42/9/47 43/9/10
f 43/9/10 37/9/10 44/9/10
f 9/17/9 14/16/10 8/18/10
f 4/2/8 15/19/8 16/5/3
f 52/19/32 18/19/32 21/5/33
f 68/6/1 57/6/1 45/13/1
f 45/13/1 47/12/1 62/12/1
f 61/8/1 68/6/1 45/13/1
f 9/17/19 10/7/19 13/14/19
f 13/14/19 12/3/19 16/5/19
f 16/5/19 15/19/19 11/10/19
f 11/10/19 14/16/19 9/17/19
f 9/17/19 13/14/19 16/5/19
o GantryInsulator.002
v 0.300000 7.039817 -0.008762
v 0.300000 7.054616 -0.102362
v 0.300000 7.130641 -0.022523
v 0.300000 7.140331 -0.102362
v 0.300000 7.216355 -0.038935
v 0.327709 7.216355 -0.027457
v 0.370711 7.140331 -0.073072
v 0.314843 7.130641 -0.016375
v 0.370711 7.054616 -0.073072
v 0.306374 7.039817 -0.006122
v 0.339187 7.216355 0.000252
v 0.400000 7.140331 -0.002362
v 0.320992 7.130641 -0.001531
v 0.400000 7.054616 -0.002362
v 0.309014 7.039817 0.000252
v 0.327709 7.216355 0.027961
v 0.370711 7.140331 0.068349
v 0.314040 7.130641 0.014596
v 0.370711 7.054616 0.068349
v 0.306374 7.039817 0.006626
v 0.300000 7.216355 0.039439
v 0.300000 7.140331 0.097638
v 0.300000 7.130641 0.020487
v 0.300000 7.054616 0.097638
v 0.300000 7.039817 0.009266
v 0.272291 7.216355 0.027961
v 0.229289 7.140331 0.068349
v 0.285960 7.130641 0.014596
v 0.229289 7.054616 0.068349
v 0.293626 7.039817 0.006626
v 0.260813 7.216355 0.000252
v 0.200000 7.140331 -0.002362
v 0.279008 7.130641 -0.001531
v 0.200000 7.054616 -0.002362
v 0.290986 7.039817 0.000252
v 0.272291 7.216355 -0.027457
v 0.229289 7.140331 -0.073072
v 0.285157 7.130641 -0.016375
v 0.229289 7.054616 -0.073072
v 0.293626 7.039817 -0.006122
v 0.300000 7.216355 -0.018017
v 0.312918 7.216355 -0.012666
v 0.318269 7.216355 0.000252
v 0.312918 7.216355 0.013170
v 0.300000 7.216355 0.018521
v 0.287082 7.216355 0.013170
v 0.281731 7.216355 0.000252
v 0.287082 7.216355 -0.012666
v 0.300000 7.334884 -0.018017
v 0.312918 7.334884 -0.012666
v 0.318269 7.334884 0.000252
v 0.312918 7.334884 0.013170
v 0.300000 7.334884 0.018521
v 0.287082 7.334884 0.013170
v 0.281731 7.334884 0.000252
v 0.287082 7.334884 -0.012666
v 0.300000 7.350073 0.000252
v 0.318269 7.350073 0.000252
v 0.281731 7.350073 0.000252
v 0.287082 7.334884 0.034277
v 0.281731 7.334884 0.021358
v 0.300000 7.334884 0.039627
v 0.312918 7.334884 0.034277
v 0.318269 7.334884 0.021358
v 0.287082 7.350073 0.034277
v 0.281731 7.350073 0.021358
v 0.300000 7.350073 0.039627
v 0.312918 7.350073 0.034277
v 0.318269 7.350073 0.021358
v 0.287082 7.334884 -0.034282
v 0.300000 7.334884 -0.039633
v 0.281731 7.334884 -0.021364
v 0.312918 7.334884 -0.034282
v 0.318269 7.334884 -0.021364
v 0.287082 7.350073 -0.034282
v 0.300000 7.350073 -0.039633
v 0.281731 7.350073 -0.021364
v 0.312918 7.350073 -0.034282
v 0.318269 7.350073 -0.021364
v 0.300000 6.379152 -0.008762
v 0.306374 6.379152 -0.006122
v 0.309014 6.379152 0.000252
v 0.306374 6.379152 0.006626
v 0.300000 6.379152 0.009266
v 0.293626 6.379152 0.006626
v 0.290986 6.379152 0.000252
v 0.293626 6.379152 -0.006122
vn -0.1109 -0.9875 -0.1117
vn -0.0000 -0.9877 -0.1562
vn -0.1122 -0.9875 -0.1105
vn -0.4879 0.7231 -0.4889
vn -0.0000 0.7242 -0.6896
vn -0.0853 -0.9927 -0.0856
vn -0.0000 -0.9927 -0.1205
vn -0.0857 -0.9927 -0.0852
vn -0.5436 0.6361 -0.5477
vn -0.0000 0.6406 -0.7679
vn -0.1605 -0.9870 -0.0008
vn -0.1606 -0.9870 0.0017
vn -0.6934 0.7206 -0.0010
vn -0.4893 0.7231 -0.4875
vn -0.1217 -0.9926 -0.0002
vn -0.1213 -0.9926 0.0010
vn -0.7808 0.6247 -0.0042
vn -0.5489 0.6360 -0.5424
vn -0.1162 -0.9865 0.1154
vn -0.1149 -0.9865 0.1167
vn -0.4952 0.7160 0.4921
vn -0.6917 0.7222 0.0052
vn -0.0876 -0.9924 0.0869
vn -0.0857 -0.9924 0.0888
vn -0.5609 0.6129 0.5566
vn -0.7810 0.6245 0.0066
vn -0.0000 -0.9863 0.1652
vn -0.0000 0.7126 0.7016
vn -0.4872 0.7158 0.5003
vn -0.0000 -0.9922 0.1245
vn -0.0000 -0.9922 0.1246
vn -0.0000 0.6079 0.7940
vn -0.5554 0.6128 0.5621
vn 0.1149 -0.9865 0.1167
vn 0.4872 0.7158 0.5003
vn 0.4952 0.7160 0.4921
vn 0.0857 -0.9924 0.0888
vn 0.5554 0.6128 0.5621
vn 0.5609 0.6129 0.5566
vn 0.1606 -0.9870 0.0017
vn 0.1162 -0.9865 0.1154
vn 0.6917 0.7222 0.0052
vn 0.6934 0.7206 -0.0010
vn 0.1213 -0.9926 0.0010
vn 0.0876 -0.9924 0.0869
vn 0.7810 0.6245 0.0066
vn 0.7808 0.6247 -0.0042
vn 0.1122 -0.9875 -0.1105
vn 0.1605 -0.9870 -0.0008
vn 0.4893 0.7231 -0.4875
vn 0.4879 0.7231 -0.4889
vn 0.0857 -0.9927 -0.0852
vn 0.1217 -0.9926 -0.0002
vn 0.5489 0.6360 -0.5424
vn 0.5436 0.6361 -0.5477
vn 0.1109 -0.9875 -0.1117
vn 0.0853 -0.9927 -0.0856
vn -0.0000 0.7123 0.7019
vn -0.0000 1.0000 -0.0000
vn 0.7071 -0.0000 0.7071
vn -0.0000 -0.0000 1.0000
vn -0.7071 -0.0000 0.7071
vn -1.0000 -0.0000 -0.0000
vn -0.7071 -0.0000 -0.7071
vn -0.0000 -0.0000 -1.0000
vn 0.7071 -0.0000 -0.7071
vn 1.0000 -0.0000 -0.0000
vn 0.9701 -0.2425 -0.0000
vn 0.9808 -0.0000 -0.1951
vn -0.0000 -1.0000 -0.0000
vn 0.7319 -0.6657 0.1456
vn -0.9808 -0.0000 0.1951
vn -0.7319 -0.6657 0.1456
vn -0.9701 -0.2425 -0.0000
vn 0.7319 -0.6657 -0.1456
vn -0.7319 -0.6657 -0.1456
vn 0.9808 -0.0000 0.1951
vn -0.9808 -0.0000 -0.1951
vt 0.959703 0.009387
vt 0.960882 0.008099
vt 0.960684 0.009187
vt 0.957954 0.007566
vt 0.960035 0.007566
vt 0.962915 0.005744
vt 0.961736 0.007033
vt 0.961934 0.005945
vt 0.964664 0.007566
vt 0.962584 0.007566
vt 0.958751 0.010974
vt 0.960309 0.010184
vt 0.959740 0.011133
vt 0.957756 0.008654
vt 0.963867 0.004157
vt 0.962309 0.004947
vt 0.962878 0.003998
vt 0.964862 0.006477
vt 0.957301 0.012125
vt 0.959037 0.011934
vt 0.958171 0.012621
vt 0.957187 0.009603
vt 0.965317 0.003006
vt 0.963581 0.003197
vt 0.964447 0.002510
vt 0.965431 0.005529
vt 0.955539 0.012691
vt 0.957231 0.013124
vt 0.956177 0.013462
vt 0.956321 0.010290
vt 0.967079 0.002440
vt 0.965388 0.002008
vt 0.966441 0.001669
vt 0.966297 0.004841
vt 0.957231 0.002008
vt 0.955539 0.002440
vt 0.956177 0.001669
vt 0.956321 0.004841
vt 0.957301 0.003006
vt 0.965388 0.013124
vt 0.967079 0.012691
vt 0.966441 0.013462
vt 0.966297 0.010290
vt 0.965317 0.012125
vt 0.959037 0.003197
vt 0.958171 0.002510
vt 0.957187 0.005529
vt 0.958751 0.004157
vt 0.963581 0.011934
vt 0.964447 0.012621
vt 0.965431 0.009603
vt 0.963867 0.010974
vt 0.960309 0.004947
vt 0.959740 0.003998
vt 0.957756 0.006477
vt 0.959703 0.005744
vt 0.962309 0.010184
vt 0.962878 0.011133
vt 0.964862 0.008654
vt 0.962915 0.009387
vt 0.960882 0.007033
vt 0.960684 0.005945
vt 0.961736 0.008099
vt 0.961934 0.009187
vt 0.955268 0.010628
vt 0.967350 0.004503
vt 0.955268 0.004503
vt 0.967350 0.010628
vt 0.981114 0.009656
vt 0.982013 0.009945
vt 0.981114 0.005003
vt 0.980374 0.005590
vt 0.979888 0.006400
vt 0.979719 0.007329
vt 0.979888 0.008259
vt 0.980374 0.009069
vt 0.982013 0.004714
vt 0.924092 -0.341471
vt 0.974914 0.011060
vt 0.974174 0.011647
vt 0.975514 0.004283
vt 0.976000 0.005093
vt 0.973371 0.012076
vt 0.972472 0.012365
vt 0.976321 0.005945
vt 0.976490 0.006874
vt 0.976490 0.007784
vt 0.976321 0.008714
vt 0.972472 0.002294
vt 0.973371 0.002583
vt 0.976000 0.009566
vt 0.975514 0.010376
vt 0.974174 0.003012
vt 0.974914 0.003599
s 1
usemtl Catenary
f 108/20/48 70/21/49 109/22/50
f 108/20/51 72/23/52 71/24/52
f 106/25/53 72/26/54 107/27/55
f 106/25/56 74/28/57 73/29/57
f 103/30/58 109/31/50 104/32/59
f 103/30/60 107/33/61 108/20/51
f 101/34/62 107/35/55 102/36/63
f 101/34/64 105/37/65 106/25/56
f 98/38/66 104/39/59 99/40/67
f 98/38/68 102/41/69 103/30/60
f 96/42/70 102/43/63 97/44/71
f 96/42/72 100/45/73 101/34/64
f 93/46/74 99/47/67 94/48/74
f 93/46/75 97/49/76 98/38/68
f 91/50/77 97/51/71 92/52/78
f 91/50/79 95/53/80 96/42/72
f 89/54/81 93/55/74 94/56/74
f 87/57/82 93/55/75 88/58/83
f 87/59/84 91/60/77 92/61/78
f 85/62/85 91/60/79 86/63/86
f 84/64/87 88/58/88 89/65/81
f 82/66/89 88/58/83 83/67/90
f 82/68/91 86/63/92 87/69/84
f 80/70/93 86/63/86 81/71/94
f 79/72/95 83/67/96 84/73/87
f 77/74/97 83/67/90 78/75/98
f 77/76/99 81/71/100 82/77/91
f 75/78/101 81/71/94 76/79/102
f 70/80/49 78/75/103 79/81/95
f 72/23/52 78/75/98 71/24/52
f 72/82/54 76/79/104 77/83/99
f 74/28/57 76/79/102 73/29/57
f 108/20/48 71/24/49 70/21/49
f 108/20/51 107/33/61 72/23/52
f 106/25/53 73/29/54 72/26/54
f 106/25/56 105/37/65 74/28/57
f 103/30/58 108/20/48 109/31/50
f 103/30/60 102/41/69 107/33/61
f 101/34/62 106/25/53 107/35/55
f 101/34/64 100/45/73 105/37/65
f 98/38/66 103/30/58 104/39/59
f 98/38/68 97/49/76 102/41/69
f 96/42/70 101/34/62 102/43/63
f 96/42/72 95/53/80 100/45/73
f 93/46/74 98/38/66 99/47/67
f 93/46/75 92/84/105 97/49/76
f 91/50/77 96/42/70 97/51/71
f 91/50/79 90/85/79 95/53/80
f 89/54/81 88/58/88 93/55/74
f 87/57/82 92/86/105 93/55/75
f 87/59/84 86/63/92 91/60/77
f 85/62/85 90/87/79 91/60/79
f 84/64/87 83/67/96 88/58/88
f 82/66/89 87/57/82 88/58/83
f 82/68/91 81/71/100 86/63/92
f 80/70/93 85/62/85 86/63/86
f 79/72/95 78/75/103 83/67/96
f 77/74/97 82/66/89 83/67/90
f 77/76/99 76/79/104 81/71/100
f 75/78/101 80/70/93 81/71/94
f 70/80/49 71/24/49 78/75/103
f 72/23/52 77/74/97 78/75/98
f 72/82/54 73/29/54 76/79/104
f 74/28/57 75/78/101 76/79/102
f 100/45/106 117/37/106 105/37/106
f 80/70/106 113/62/106 85/62/106
f 95/53/106 116/45/106 100/45/106
f 75/78/106 112/70/106 80/70/106
f 90/85/106 115/53/106 95/53/106
f 75/78/106 110/28/106 111/78/106
f 105/37/106 110/28/106 74/28/106
f 85/62/106 114/87/106 90/87/106
f 113/88/107 122/89/108 114/89/108
f 115/90/109 124/91/110 116/91/110
f 117/92/111 118/93/112 110/93/112
f 110/93/112 119/94/113 111/94/113
f 112/95/114 121/88/107 113/88/107
f 114/96/108 123/90/109 115/90/109
f 116/91/110 125/92/111 117/92/111
f 111/94/113 120/95/114 112/95/114
f 120/95/115 148/95/116 127/95/114
f 122/89/117 132/88/117 131/89/117
f 127/95/114 133/95/118 120/95/115
f 118/93/117 142/94/117 119/94/117
s 0
f 126/97/106 146/97/106 128/97/106
f 126/97/106 136/97/106 137/97/106
s 1
f 122/96/117 129/90/117 123/90/117
f 118/93/117 139/92/117 140/93/117
f 132/88/107 136/89/108 131/89/108
f 129/90/109 135/91/119 130/91/120
f 133/95/118 137/88/107 132/88/107
f 131/96/108 134/90/109 129/90/109
s 0
f 126/97/106 138/97/106 127/97/106
s 1
f 124/91/121 135/91/119 128/91/110
s 0
f 126/97/106 135/97/106 134/97/106
s 1
f 121/88/117 133/95/118 132/88/117
f 123/90/117 130/91/120 124/91/121
s 0
f 126/97/106 134/97/106 136/97/106
s 1
f 142/94/113 148/95/116 143/95/122
f 139/92/111 145/93/112 140/93/112
f 140/93/112 147/94/113 142/94/113
f 141/91/123 144/92/111 139/92/111
f 128/91/110 141/91/123 124/91/121
f 125/92/117 141/91/123 139/92/117
s 0
f 126/97/106 148/97/106 147/97/106
f 126/97/106 145/97/106 144/97/106
f 126/97/106 147/97/106 145/97/106
s 1
f 119/94/117 143/95/122 120/95/115
f 104/98/110 154/99/109 99/99/109
f 84/100/114 150/101/113 79/101/113
f 99/102/109 153/103/108 94/103/108
f 79/104/113 149/105/112 70/105/112
f 70/106/112 156/107/111 109/107/111
f 94/108/108 152/109/107 89/109/107
f 109/110/111 155/111/110 104/111/110
f 89/112/107 151/113/114 84/113/114
f 100/45/106 116/45/106 117/37/106
f 80/70/106 112/70/106 113/62/106
f 95/53/106 115/53/106 116/45/106
f 75/78/106 111/78/106 112/70/106
f 90/85/106 114/85/106 115/53/106
f 75/78/106 74/28/106 110/28/106
f 105/37/106 117/37/106 110/28/106
f 85/62/106 113/62/106 114/87/106
f 113/88/107 121/88/107 122/89/108
f 115/90/109 123/90/109 124/91/110
f 117/92/111 125/92/111 118/93/112
f 110/93/112 118/93/112 119/94/113
f 112/95/114 120/95/114 121/88/107
f 114/96/108 122/96/108 123/90/109
f 116/91/110 124/91/110 125/92/111
f 111/94/113 119/94/113 120/95/114
f 120/95/115 143/95/122 148/95/116
f 122/89/117 121/88/117 132/88/117
f 127/95/114 138/95/124 133/95/118
f 118/93/117 140/93/117 142/94/117
s 0
f 126/97/106 144/97/106 146/97/106
s 1
f 122/96/117 131/96/117 129/90/117
f 118/93/117 125/92/117 139/92/117
f 132/88/107 137/88/107 136/89/108
f 129/90/109 134/90/109 135/91/119
f 133/95/118 138/95/124 137/88/107
f 131/96/108 136/96/108 134/90/109
s 0
f 126/97/106 137/97/106 138/97/106
s 1
f 124/91/121 130/91/120 135/91/119
s 0
f 126/97/106 128/97/106 135/97/106
s 1
f 121/88/117 120/95/115 133/95/118
f 123/90/117 129/90/117 130/91/120
f 142/94/113 147/94/113 148/95/116
f 139/92/111 144/92/111 145/93/112
f 140/93/112 145/93/112 147/94/113
f 141/91/123 146/91/125 144/92/111
f 128/91/110 146/91/125 141/91/123
f 125/92/117 124/91/121 141/91/123
s 0
f 126/97/106 127/97/106 148/97/106
s 1
f 119/94/117 142/94/117 143/95/122
f 104/98/110 155/98/110 154/99/109
f 84/100/114 151/100/114 150/101/113
f 99/102/109 154/102/109 153/103/108
f 79/104/113 150/104/113 149/105/112
f 70/106/112 149/106/112 156/107/111
f 94/108/108 153/108/108 152/109/107
f 109/110/111 156/110/111 155/111/110
f 89/112/107 152/112/107 151/113/114
o Cantileverindulator.023
v 1.782128 6.369318 -0.027084
v 1.782125 6.353548 -0.020551
v 1.782123 6.347015 -0.004780
v 1.782125 6.353548 0.010991
v 1.782128 6.369318 0.017523
v 1.782131 6.385089 0.010991
v 1.782132 6.391622 -0.004780
v 1.782131 6.385089 -0.020551
v 2.063907 6.369247 -0.027084
v 2.063904 6.353476 -0.020551
v 2.063903 6.346943 -0.004780
v 2.063904 6.353476 0.010991
v 2.063907 6.369247 0.017523
v 2.063910 6.385017 0.010991
v 2.063912 6.391550 -0.004780
v 2.063910 6.385017 -0.020551
v 2.052547 6.336826 -0.037204
v 2.041195 6.336830 -0.037204
v 2.029845 6.353484 -0.020551
v 2.018492 6.353487 -0.020551
v 2.007136 6.336838 -0.037204
v 1.995783 6.336841 -0.037204
v 1.984433 6.353496 -0.020551
v 1.973081 6.353499 -0.020551
v 1.961724 6.336850 -0.037204
v 1.950371 6.336853 -0.037204
v 1.939022 6.353508 -0.020551
v 1.927669 6.353510 -0.020551
v 1.916312 6.336861 -0.037204
v 1.904960 6.336864 -0.037204
v 1.893610 6.353519 -0.020551
v 1.882257 6.353522 -0.020551
v 1.870901 6.336873 -0.037204
v 1.859547 6.336876 -0.037204
v 1.848198 6.353531 -0.020551
v 2.052545 6.323397 -0.004781
v 2.041192 6.323400 -0.004781
v 2.029844 6.346952 -0.004780
v 2.018491 6.346955 -0.004780
v 2.007133 6.323408 -0.004781
v 1.995780 6.323410 -0.004781
v 1.984432 6.346963 -0.004780
v 1.973079 6.346966 -0.004780
v 1.961721 6.323420 -0.004781
v 1.950368 6.323422 -0.004781
v 1.939020 6.346975 -0.004780
v 1.927667 6.346978 -0.004780
v 1.916310 6.323431 -0.004781
v 1.904957 6.323435 -0.004781
v 1.893609 6.346986 -0.004780
v 1.882256 6.346989 -0.004780
v 1.870898 6.323442 -0.004781
v 1.859545 6.323446 -0.004781
v 1.848197 6.346998 -0.004780
v 2.052547 6.336826 0.027642
v 2.041195 6.336830 0.027642
v 2.029845 6.353484 0.010991
v 2.018492 6.353487 0.010991
v 2.007136 6.336838 0.027642
v 1.995783 6.336841 0.027642
v 1.984433 6.353496 0.010991
v 1.973081 6.353499 0.010991
v 1.961724 6.336850 0.027642
v 1.950371 6.336853 0.027642
v 1.939022 6.353508 0.010991
v 1.927669 6.353510 0.010991
v 1.916312 6.336861 0.027642
v 1.904960 6.336864 0.027642
v 1.893610 6.353519 0.010991
v 1.882257 6.353522 0.010991
v 1.870901 6.336873 0.027642
v 1.859547 6.336876 0.027642
v 1.848198 6.353531 0.010991
v 2.052554 6.369250 0.041073
v 2.041201 6.369253 0.041073
v 2.029848 6.369255 0.017523
v 2.018496 6.369258 0.017523
v 2.007143 6.369262 0.041073
v 1.995790 6.369264 0.041073
v 1.984437 6.369267 0.017523
v 1.973084 6.369270 0.017523
v 1.961731 6.369273 0.041073
v 1.950378 6.369276 0.041073
v 1.939025 6.369278 0.017523
v 1.927672 6.369281 0.017523
v 1.916319 6.369285 0.041073
v 1.904966 6.369287 0.041073
v 1.893613 6.369290 0.017523
v 1.882261 6.369293 0.017523
v 1.870908 6.369296 0.041073
v 1.859555 6.369299 0.041073
v 1.848202 6.369302 0.017523
v 2.052561 6.401672 0.027642
v 2.041208 6.401676 0.027642
v 2.029852 6.385026 0.010991
v 2.018499 6.385029 0.010991
v 2.007149 6.401685 0.027642
v 1.995797 6.401688 0.027642
v 1.984440 6.385038 0.010991
v 1.973087 6.385041 0.010991
v 1.961738 6.401697 0.027642
v 1.950385 6.401699 0.027642
v 1.939028 6.385049 0.010991
v 1.927675 6.385052 0.010991
v 1.916326 6.401708 0.027642
v 1.904973 6.401711 0.027642
v 1.893616 6.385061 0.010991
v 1.882264 6.385064 0.010991
v 1.870914 6.401719 0.027642
v 1.859561 6.401723 0.027642
v 1.848205 6.385073 0.010991
v 2.052564 6.415103 -0.004781
v 2.041211 6.415106 -0.004781
v 2.029853 6.391559 -0.004780
v 2.018500 6.391561 -0.004780
v 2.007152 6.415115 -0.004781
v 1.995799 6.415117 -0.004781
v 1.984441 6.391570 -0.004780
v 1.973089 6.391573 -0.004780
v 1.961740 6.415126 -0.004781
v 1.950387 6.415130 -0.004781
v 1.939029 6.391582 -0.004780
v 1.927677 6.391585 -0.004780
v 1.916329 6.415138 -0.004781
v 1.904976 6.415141 -0.004781
v 1.893618 6.391593 -0.004780
v 1.882265 6.391596 -0.004780
v 1.870917 6.415150 -0.004781
v 1.859564 6.415153 -0.004781
v 1.848206 6.391605 -0.004780
v 2.052561 6.401672 -0.037204
v 2.041208 6.401676 -0.037204
v 2.029852 6.385026 -0.020551
v 2.018499 6.385029 -0.020551
v 2.007149 6.401685 -0.037204
v 1.995797 6.401688 -0.037204
v 1.984440 6.385038 -0.020551
v 1.973087 6.385041 -0.020551
v 1.961738 6.401697 -0.037204
v 1.950385 6.401699 -0.037204
v 1.939028 6.385049 -0.020551
v 1.927675 6.385052 -0.020551
v 1.916326 6.401708 -0.037204
v 1.904973 6.401711 -0.037204
v 1.893616 6.385061 -0.020551
v 1.882264 6.385064 -0.020551
v 1.870914 6.401719 -0.037204
v 1.859561 6.401723 -0.037204
v 1.848205 6.385073 -0.020551
v 1.848202 6.369301 -0.027084
v 1.859555 6.369299 -0.050634
v 1.870908 6.369296 -0.050634
v 1.882261 6.369293 -0.027084
v 1.893613 6.369290 -0.027084
v 1.904966 6.369287 -0.050634
v 1.916319 6.369285 -0.050634
v 1.927672 6.369282 -0.027084
v 1.939025 6.369278 -0.027084
v 1.950378 6.369276 -0.050634
v 1.961731 6.369273 -0.050634
v 1.973084 6.369270 -0.027084
v 1.984437 6.369267 -0.027084
v 1.995790 6.369264 -0.050634
v 2.007143 6.369262 -0.050634
v 2.018496 6.369258 -0.027084
v 2.029849 6.369255 -0.027084
v 2.041201 6.369253 -0.050634
v 2.052555 6.369250 -0.050634
v 2.121413 6.369318 -0.027084
v 2.121409 6.353547 -0.020551
v 2.121408 6.347015 -0.004780
v 2.121409 6.353547 0.010991
v 2.121413 6.369318 0.017523
v 2.121416 6.385089 0.010991
v 2.121417 6.391621 -0.004780
v 2.121416 6.385089 -0.020551
vn 0.5997 0.5657 -0.5660
vn 0.4805 -0.0001 -0.8770
vn 0.4807 0.6200 -0.6201
vn 0.4808 0.8769 -0.0000
vn 0.4807 0.6200 0.6201
vn 0.5996 0.8003 -0.0000
vn 0.4805 -0.0001 0.8770
vn 0.5997 0.5657 0.5660
vn 0.4804 -0.6202 0.6201
vn 0.6000 -0.0003 0.8000
vn 0.6004 -0.7997 -0.0000
vn 0.4803 -0.8771 -0.0000
vn 0.6003 -0.5657 -0.5654
vn 0.4804 -0.6202 -0.6201
vn 0.6000 -0.0003 -0.8000
vn -0.6000 0.0001 -0.8000
vn -0.0002 -0.7071 -0.7071
vn -0.0000 -0.0000 -1.0000
vn -0.4807 -0.6200 -0.6201
vn -0.6001 -0.5656 -0.5657
vn -0.4805 0.0001 -0.8770
vn 0.6000 -0.0001 -0.8000
vn 0.5999 -0.5658 -0.5657
vn 0.5998 -0.5658 -0.5657
vn -0.0003 -1.0000 -0.0000
vn -0.4807 -0.8769 -0.0000
vn -0.6002 -0.7999 -0.0000
vn 0.5998 -0.8002 -0.0000
vn -0.4808 -0.8769 -0.0000
vn -0.6001 -0.5656 0.5657
vn -0.0002 -0.7071 0.7071
vn -0.4807 -0.6200 0.6201
vn 0.5999 -0.5658 0.5657
vn 0.5998 -0.5658 0.5657
vn -0.6000 0.0001 0.8000
vn -0.0000 -0.0000 1.0000
vn -0.4805 0.0001 0.8770
vn 0.6000 -0.0001 0.8000
vn -0.5999 0.5658 0.5657
vn 0.0002 0.7071 0.7071
vn -0.4804 0.6202 0.6201
vn 0.6001 0.5656 0.5657
vn -0.5998 0.5658 0.5657
vn -0.5998 0.8001 -0.0000
vn 0.0003 1.0000 -0.0000
vn -0.4803 0.8771 -0.0000
vn 0.6002 0.7999 -0.0000
vn -0.5998 0.8002 -0.0000
vn 0.4807 0.8769 -0.0000
vn -0.4804 0.8771 -0.0000
vn 0.0002 0.7071 -0.7071
vn -0.5999 0.5658 -0.5657
vn -0.4804 0.6202 -0.6201
vn 0.6001 0.5656 -0.5657
vn -0.5998 0.5658 -0.5657
vn 0.0009 -0.7069 -0.7073
vn 0.6002 -0.5657 0.5654
vn 0.0012 -1.0000 -0.0000
vn 0.0009 -0.7069 0.7073
vn -0.0000 0.0003 1.0000
vn -0.0009 0.7073 0.7069
vn -0.0009 0.7073 -0.7069
vn -0.0012 1.0000 -0.0000
vn -0.0000 0.0003 -1.0000
vt 0.947470 0.037677
vt 0.927640 0.045459
vt 0.931226 0.028232
vt 0.937842 0.007817
vt 0.928547 0.130780
vt 0.948638 0.133956
vt 0.934473 0.150909
vt 0.925563 0.113182
vt 0.944729 0.122198
vt 0.924520 0.096118
vt 0.942177 0.108777
vt 0.941159 0.080218
vt 0.924508 0.079031
vt 0.942195 0.065540
vt 0.925551 0.062245
vt 0.944237 0.051147
vt 0.707478 0.051626
vt 0.665429 0.070259
vt 0.663516 0.059196
vt 0.726436 0.062389
vt 0.709510 0.065850
vt 0.731361 0.044355
vt 0.724087 0.045720
vt 0.748171 0.044726
vt 0.733780 0.061548
vt 0.755705 0.044441
vt 0.750076 0.062275
vt 0.774261 0.060231
vt 0.757493 0.062188
vt 0.780996 0.041652
vt 0.773817 0.042179
vt 0.797533 0.043226
vt 0.781723 0.060001
vt 0.805052 0.042924
vt 0.798143 0.060884
vt 0.822521 0.059390
vt 0.805650 0.060949
vt 0.830476 0.041180
vt 0.823271 0.041382
vt 0.847033 0.043340
vt 0.830046 0.059427
vt 0.854709 0.042778
vt 0.846735 0.061004
vt 0.871545 0.042575
vt 0.854212 0.060763
vt 0.879065 0.042333
vt 0.872525 0.060506
vt 0.896003 0.044494
vt 0.879637 0.060508
vt 0.903612 0.044707
vt 0.895284 0.062097
vt 0.918291 0.061472
vt 0.902311 0.062281
vt 0.920400 0.044146
vt 0.666539 0.081375
vt 0.727641 0.079061
vt 0.710433 0.080370
vt 0.734901 0.078782
vt 0.750875 0.079574
vt 0.775395 0.078449
vt 0.758282 0.079392
vt 0.783125 0.078508
vt 0.797950 0.078657
vt 0.822520 0.077641
vt 0.805649 0.078870
vt 0.830039 0.077675
vt 0.846616 0.078816
vt 0.871599 0.078454
vt 0.854277 0.078859
vt 0.879363 0.078844
vt 0.894028 0.079351
vt 0.917167 0.078806
vt 0.901313 0.079596
vt 0.710571 0.094615
vt 0.666070 0.092500
vt 0.727968 0.095897
vt 0.735656 0.096428
vt 0.757505 0.096675
vt 0.750030 0.096654
vt 0.773969 0.096495
vt 0.781394 0.096953
vt 0.797988 0.096231
vt 0.805694 0.096183
vt 0.822788 0.096002
vt 0.830597 0.096283
vt 0.853493 0.096672
vt 0.845722 0.096378
vt 0.870075 0.096509
vt 0.877539 0.096957
vt 0.894185 0.096477
vt 0.901791 0.096508
vt 0.916558 0.096402
vt 0.709361 0.108636
vt 0.664786 0.103588
vt 0.724787 0.112656
vt 0.732174 0.113813
vt 0.749007 0.113694
vt 0.756834 0.113652
vt 0.771950 0.114884
vt 0.779581 0.115184
vt 0.797158 0.113528
vt 0.805293 0.113362
vt 0.820618 0.114418
vt 0.828268 0.114662
vt 0.845620 0.113573
vt 0.853676 0.113736
vt 0.869021 0.115063
vt 0.876679 0.115123
vt 0.894114 0.113409
vt 0.901912 0.113407
vt 0.918411 0.114183
vt 0.706539 0.121976
vt 0.662802 0.114687
vt 0.729508 0.131821
vt 0.722416 0.130552
vt 0.747162 0.129630
vt 0.755259 0.129762
vt 0.779276 0.133924
vt 0.772117 0.133980
vt 0.796553 0.129656
vt 0.804550 0.129622
vt 0.828479 0.133474
vt 0.821402 0.133599
vt 0.845456 0.129487
vt 0.853357 0.130038
vt 0.878131 0.133828
vt 0.871011 0.133975
vt 0.895203 0.129401
vt 0.903449 0.129758
vt 0.921419 0.132282
vt 0.702786 0.133700
vt 0.660710 0.125966
vt 0.725711 0.152725
vt 0.716251 0.150262
vt 0.746520 0.143505
vt 0.753385 0.143086
vt 0.779688 0.155355
vt 0.770477 0.155007
vt 0.797261 0.143409
vt 0.803521 0.142992
vt 0.829517 0.154869
vt 0.820453 0.154708
vt 0.846563 0.143030
vt 0.852942 0.142757
vt 0.869125 0.155118
vt 0.878653 0.155355
vt 0.896745 0.143299
vt 0.903846 0.143489
vt 0.924811 0.152870
vt 0.700468 0.026722
vt 0.660939 0.048183
vt 0.658181 0.037066
vt 0.713248 0.008740
vt 0.704304 0.038276
vt 0.723671 0.005540
vt 0.720369 0.028414
vt 0.746201 0.028052
vt 0.727363 0.026952
vt 0.752375 0.015330
vt 0.744561 0.015462
vt 0.768291 0.002226
vt 0.754315 0.028015
vt 0.778339 0.001427
vt 0.770917 0.023715
vt 0.796752 0.026423
vt 0.778228 0.023218
vt 0.803773 0.013762
vt 0.796606 0.013553
vt 0.820096 0.001225
vt 0.804801 0.026526
vt 0.830064 0.000966
vt 0.821525 0.022812
vt 0.847009 0.026585
vt 0.828808 0.022669
vt 0.854472 0.013896
vt 0.847418 0.013663
vt 0.871343 0.001792
vt 0.854996 0.026635
vt 0.881411 0.001991
vt 0.871775 0.023451
vt 0.897185 0.028000
vt 0.879028 0.023679
vt 0.906580 0.015377
vt 0.898588 0.015202
vt 0.927171 0.005399
vt 0.905341 0.027938
vt 0.924302 0.026486
vt 0.980190 0.069840
vt 0.940596 0.094655
vt 0.978927 0.081104
vt 0.979363 0.092335
vt 0.980766 0.103505
vt 0.982956 0.114591
vt 0.951318 0.026094
vt 0.985089 0.047620
vt 0.985446 0.125791
vt 0.982270 0.058665
vt 0.988176 0.036568
s 1
usemtl Catenary
f 172/114/126 324/115/127 287/116/128
f 268/117/129 172/114/126 287/116/128
f 249/118/130 171/119/131 268/120/129
f 230/121/132 170/122/133 249/118/130
f 211/123/134 169/124/135 230/121/132
f 167/125/136 211/123/134 192/126/137
f 166/127/138 192/126/137 173/128/139
f 165/129/140 173/128/139 324/115/127
f 306/130/141 158/131/142 157/132/143
f 306/130/141 190/133/144 191/134/145
f 308/135/127 190/133/144 307/136/146
f 309/137/147 189/138/139 308/135/127
f 310/139/141 188/140/148 309/137/147
f 310/139/141 186/141/144 187/142/145
f 312/143/127 186/141/144 311/144/146
f 313/145/147 185/146/139 312/143/127
f 314/147/141 184/148/148 313/145/147
f 314/147/141 182/149/144 183/150/145
f 316/151/127 182/149/144 315/152/146
f 317/153/147 181/154/139 316/151/127
f 318/155/141 180/156/149 317/153/147
f 319/157/146 179/158/145 318/155/141
f 320/159/127 178/160/144 319/157/146
f 321/161/147 177/162/139 320/159/127
f 322/163/141 176/164/148 321/161/147
f 322/163/141 174/165/144 175/166/145
f 324/115/127 174/165/144 323/167/146
f 191/134/145 159/168/150 158/131/142
f 191/134/145 209/169/151 210/170/152
f 189/138/139 209/169/151 190/133/144
f 188/140/148 208/171/137 189/138/139
f 187/142/145 207/172/153 188/140/148
f 187/142/145 205/173/154 206/174/152
f 185/146/139 205/173/154 186/141/144
f 184/148/148 204/175/137 185/146/139
f 183/150/145 203/176/153 184/148/148
f 183/150/145 201/177/151 202/178/152
f 181/154/139 201/177/151 182/149/144
f 180/156/149 200/179/137 181/154/139
f 179/158/145 199/180/153 180/156/149
f 179/158/145 197/181/151 198/182/152
f 177/162/139 197/181/151 178/160/144
f 176/164/148 196/183/137 177/162/139
f 175/166/145 195/184/153 176/164/148
f 175/166/145 193/185/151 194/186/152
f 173/128/139 193/185/151 174/165/144
f 159/168/150 229/187/155 160/188/156
f 210/170/152 228/189/157 229/187/155
f 209/169/151 227/190/134 228/189/157
f 207/172/153 227/190/134 208/171/137
f 207/172/153 225/191/155 226/192/158
f 206/174/152 224/193/157 225/191/155
f 205/173/154 223/194/134 224/193/157
f 204/175/137 222/195/159 223/194/134
f 203/176/153 221/196/155 222/195/159
f 202/178/152 220/197/157 221/196/155
f 201/177/151 219/198/134 220/197/157
f 199/180/153 219/198/134 200/179/137
f 199/180/153 217/199/155 218/200/159
f 198/182/152 216/201/157 217/199/155
f 197/181/151 215/202/134 216/201/157
f 196/183/137 214/203/159 215/202/134
f 195/184/153 213/204/155 214/203/159
f 194/186/152 212/205/157 213/204/155
f 193/185/151 211/123/134 212/205/157
f 160/188/156 248/206/160 161/207/161
f 229/187/155 247/208/162 248/206/160
f 228/189/157 246/209/132 247/208/162
f 227/190/134 245/210/163 246/209/132
f 226/192/158 244/211/160 245/210/163
f 225/191/155 243/212/162 244/211/160
f 224/193/157 242/213/132 243/212/162
f 223/194/134 241/214/163 242/213/132
f 222/195/159 240/215/160 241/214/163
f 221/196/155 239/216/162 240/215/160
f 220/197/157 238/217/132 239/216/162
f 219/198/134 237/218/163 238/217/132
f 218/200/159 236/219/160 237/218/163
f 217/199/155 235/220/162 236/219/160
f 216/201/157 234/221/132 235/220/162
f 215/202/134 233/222/163 234/221/132
f 214/203/159 232/223/160 233/222/163
f 212/205/157 232/223/160 213/204/155
f 212/205/157 230/121/132 231/224/162
f 161/207/161 267/225/164 162/226/165
f 247/208/162 267/225/164 248/206/160
f 247/208/162 265/227/130 266/228/166
f 246/209/132 264/229/167 265/227/130
f 245/210/163 263/230/168 264/229/167
f 243/212/162 263/230/168 244/211/160
f 243/212/162 261/231/130 262/232/166
f 242/213/132 260/233/167 261/231/130
f 241/214/163 259/234/168 260/233/167
f 239/216/162 259/234/168 240/215/160
f 239/216/162 257/235/130 258/236/166
f 238/217/132 256/237/167 257/235/130
f 237/218/163 255/238/168 256/237/167
f 235/220/162 255/238/168 236/219/160
f 235/220/162 253/239/130 254/240/166
f 234/221/132 252/241/167 253/239/130
f 233/222/163 251/242/168 252/241/167
f 231/224/162 251/242/168 232/223/160
f 231/224/162 249/118/130 250/243/166
f 162/226/165 286/244/169 163/245/170
f 266/228/166 286/244/169 267/225/164
f 266/228/166 284/246/129 285/247/171
f 265/227/130 283/248/172 284/246/129
f 264/229/167 282/249/173 283/248/172
f 262/232/166 282/249/173 263/230/168
f 262/232/166 280/250/174 281/251/171
f 261/231/130 279/252/172 280/250/174
f 260/233/167 278/253/173 279/252/172
f 258/236/166 278/253/173 259/234/168
f 258/236/166 276/254/174 277/255/171
f 257/235/130 275/256/172 276/254/174
f 256/237/167 274/257/173 275/256/172
f 255/238/168 273/258/175 274/257/173
f 254/240/166 272/259/174 273/258/175
f 253/239/130 271/260/172 272/259/174
f 252/241/167 270/261/169 271/260/172
f 250/243/166 270/261/169 251/242/168
f 250/243/166 268/120/129 269/262/171
f 286/263/169 164/264/176 163/265/170
f 285/266/171 305/267/177 286/263/169
f 284/268/129 304/269/178 285/266/171
f 284/268/129 302/270/179 303/271/128
f 282/272/173 302/270/179 283/273/172
f 281/274/171 301/275/180 282/272/173
f 280/276/174 300/277/178 281/274/171
f 280/276/174 298/278/179 299/279/128
f 278/280/173 298/278/179 279/281/172
f 277/282/171 297/283/180 278/280/173
f 276/284/174 296/285/178 277/282/171
f 276/284/174 294/286/179 295/287/128
f 274/288/173 294/286/179 275/289/172
f 273/290/175 293/291/177 274/288/173
f 272/292/174 292/293/178 273/290/175
f 272/292/174 290/294/179 291/295/128
f 270/296/169 290/294/179 271/297/172
f 269/298/171 289/299/180 270/296/169
f 268/117/129 288/300/178 269/298/171
f 305/267/177 157/132/143 164/264/176
f 305/267/177 307/136/146 306/130/141
f 303/271/128 307/136/146 304/269/178
f 302/270/179 308/135/127 303/271/128
f 301/275/180 309/137/147 302/270/179
f 300/277/178 310/139/141 301/275/180
f 299/279/128 311/144/146 300/277/178
f 298/278/179 312/143/127 299/279/128
f 297/283/180 313/145/147 298/278/179
f 296/285/178 314/147/141 297/283/180
f 295/287/128 315/152/146 296/285/178
f 294/286/179 316/151/127 295/287/128
f 293/291/177 317/153/147 294/286/179
f 292/293/178 318/155/141 293/291/177
f 291/295/128 319/157/146 292/293/178
f 290/294/179 320/159/127 291/295/128
f 289/299/180 321/161/147 290/294/179
f 289/299/180 323/167/146 322/163/141
f 287/116/128 323/167/146 288/300/178
f 165/129/140 326/301/181 166/127/138
f 168/302/182 327/303/183 328/304/184
f 170/122/133 329/305/185 330/306/186
f 171/307/131 332/308/187 172/114/126
f 166/127/138 327/303/183 167/125/136
f 169/124/135 328/304/184 329/305/185
f 171/119/131 330/306/186 331/309/188
f 172/114/126 325/310/189 165/129/140
f 172/114/126 165/129/140 324/115/127
f 268/117/129 171/307/131 172/114/126
f 249/118/130 170/122/133 171/119/131
f 230/121/132 169/124/135 170/122/133
f 211/123/134 168/302/182 169/124/135
f 167/125/136 168/302/182 211/123/134
f 166/127/138 167/125/136 192/126/137
f 165/129/140 166/127/138 173/128/139
f 306/130/141 191/134/145 158/131/142
f 306/130/141 307/136/146 190/133/144
f 308/135/127 189/138/139 190/133/144
f 309/137/147 188/140/148 189/138/139
f 310/139/141 187/142/145 188/140/148
f 310/139/141 311/144/146 186/141/144
f 312/143/127 185/146/139 186/141/144
f 313/145/147 184/148/148 185/146/139
f 314/147/141 183/150/145 184/148/148
f 314/147/141 315/152/146 182/149/144
f 316/151/127 181/154/139 182/149/144
f 317/153/147 180/156/149 181/154/139
f 318/155/141 179/158/145 180/156/149
f 319/157/146 178/160/144 179/158/145
f 320/159/127 177/162/139 178/160/144
f 321/161/147 176/164/148 177/162/139
f 322/163/141 175/166/145 176/164/148
f 322/163/141 323/167/146 174/165/144
f 324/115/127 173/128/139 174/165/144
f 191/134/145 210/170/152 159/168/150
f 191/134/145 190/133/144 209/169/151
f 189/138/139 208/171/137 209/169/151
f 188/140/148 207/172/153 208/171/137
f 187/142/145 206/174/152 207/172/153
f 187/142/145 186/141/144 205/173/154
f 185/146/139 204/175/137 205/173/154
f 184/148/148 203/176/153 204/175/137
f 183/150/145 202/178/152 203/176/153
f 183/150/145 182/149/144 201/177/151
f 181/154/139 200/179/137 201/177/151
f 180/156/149 199/180/153 200/179/137
f 179/158/145 198/182/152 199/180/153
f 179/158/145 178/160/144 197/181/151
f 177/162/139 196/183/137 197/181/151
f 176/164/148 195/184/153 196/183/137
f 175/166/145 194/186/152 195/184/153
f 175/166/145 174/165/144 193/185/151
f 173/128/139 192/126/137 193/185/151
f 159/168/150 210/170/152 229/187/155
f 210/170/152 209/169/151 228/189/157
f 209/169/151 208/171/137 227/190/134
f 207/172/153 226/192/158 227/190/134
f 207/172/153 206/174/152 225/191/155
f 206/174/152 205/173/154 224/193/157
f 205/173/154 204/175/137 223/194/134
f 204/175/137 203/176/153 222/195/159
f 203/176/153 202/178/152 221/196/155
f 202/178/152 201/177/151 220/197/157
f 201/177/151 200/179/137 219/198/134
f 199/180/153 218/200/159 219/198/134
f 199/180/153 198/182/152 217/199/155
f 198/182/152 197/181/151 216/201/157
f 197/181/151 196/183/137 215/202/134
f 196/183/137 195/184/153 214/203/159
f 195/184/153 194/186/152 213/204/155
f 194/186/152 193/185/151 212/205/157
f 193/185/151 192/126/137 211/123/134
f 160/188/156 229/187/155 248/206/160
f 229/187/155 228/189/157 247/208/162
f 228/189/157 227/190/134 246/209/132
f 227/190/134 226/192/158 245/210/163
f 226/192/158 225/191/155 244/211/160
f 225/191/155 224/193/157 243/212/162
f 224/193/157 223/194/134 242/213/132
f 223/194/134 222/195/159 241/214/163
f 222/195/159 221/196/155 240/215/160
f 221/196/155 220/197/157 239/216/162
f 220/197/157 219/198/134 238/217/132
f 219/198/134 218/200/159 237/218/163
f 218/200/159 217/199/155 236/219/160
f 217/199/155 216/201/157 235/220/162
f 216/201/157 215/202/134 234/221/132
f 215/202/134 214/203/159 233/222/163
f 214/203/159 213/204/155 232/223/160
f 212/205/157 231/224/162 232/223/160
f 212/205/157 211/123/134 230/121/132
f 161/207/161 248/206/160 267/225/164
f 247/208/162 266/228/166 267/225/164
f 247/208/162 246/209/132 265/227/130
f 246/209/132 245/210/163 264/229/167
f 245/210/163 244/211/160 263/230/168
f 243/212/162 262/232/166 263/230/168
f 243/212/162 242/213/132 261/231/130
f 242/213/132 241/214/163 260/233/167
f 241/214/163 240/215/160 259/234/168
f 239/216/162 258/236/166 259/234/168
f 239/216/162 238/217/132 257/235/130
f 238/217/132 237/218/163 256/237/167
f 237/218/163 236/219/160 255/238/168
f 235/220/162 254/240/166 255/238/168
f 235/220/162 234/221/132 253/239/130
f 234/221/132 233/222/163 252/241/167
f 233/222/163 232/223/160 251/242/168
f 231/224/162 250/243/166 251/242/168
f 231/224/162 230/121/132 249/118/130
f 162/226/165 267/225/164 286/244/169
f 266/228/166 285/247/171 286/244/169
f 266/228/166 265/227/130 284/246/129
f 265/227/130 264/229/167 283/248/172
f 264/229/167 263/230/168 282/249/173
f 262/232/166 281/251/171 282/249/173
f 262/232/166 261/231/130 280/250/174
f 261/231/130 260/233/167 279/252/172
f 260/233/167 259/234/168 278/253/173
f 258/236/166 277/255/171 278/253/173
f 258/236/166 257/235/130 276/254/174
f 257/235/130 256/237/167 275/256/172
f 256/237/167 255/238/168 274/257/173
f 255/238/168 254/240/166 273/258/175
f 254/240/166 253/239/130 272/259/174
f 253/239/130 252/241/167 271/260/172
f 252/241/167 251/242/168 270/261/169
f 250/243/166 269/262/171 270/261/169
f 250/243/166 249/118/130 268/120/129
f 286/263/169 305/267/177 164/264/176
f 285/266/171 304/269/178 305/267/177
f 284/268/129 303/271/128 304/269/178
f 284/268/129 283/273/172 302/270/179
f 282/272/173 301/275/180 302/270/179
f 281/274/171 300/277/178 301/275/180
f 280/276/174 299/279/128 300/277/178
f 280/276/174 279/281/172 298/278/179
f 278/280/173 297/283/180 298/278/179
f 277/282/171 296/285/178 297/283/180
f 276/284/174 295/287/128 296/285/178
f 276/284/174 275/289/172 294/286/179
f 274/288/173 293/291/177 294/286/179
f 273/290/175 292/293/178 293/291/177
f 272/292/174 291/295/128 292/293/178
f 272/292/174 271/297/172 290/294/179
f 270/296/169 289/299/180 290/294/179
f 269/298/171 288/300/178 289/299/180
f 268/117/129 287/116/128 288/300/178
f 305/267/177 306/130/141 157/132/143
f 305/267/177 304/269/178 307/136/146
f 303/271/128 308/135/127 307/136/146
f 302/270/179 309/137/147 308/135/127
f 301/275/180 310/139/141 309/137/147
f 300/277/178 311/144/146 310/139/141
f 299/279/128 312/143/127 311/144/146
f 298/278/179 313/145/147 312/143/127
f 297/283/180 314/147/141 313/145/147
f 296/285/178 315/152/146 314/147/141
f 295/287/128 316/151/127 315/152/146
f 294/286/179 317/153/147 316/151/127
f 293/291/177 318/155/141 317/153/147
f 292/293/178 319/157/146 318/155/141
f 291/295/128 320/159/127 319/157/146
f 290/294/179 321/161/147 320/159/127
f 289/299/180 322/163/141 321/161/147
f 289/299/180 288/300/178 323/167/146
f 287/116/128 324/115/127 323/167/146
f 165/129/140 325/310/189 326/301/181
f 168/302/182 167/125/136 327/303/183
f 170/122/133 169/124/135 329/305/185
f 171/307/131 331/311/188 332/308/187
f 166/127/138 326/301/181 327/303/183
f 169/124/135 168/302/182 328/304/184
f 171/119/131 170/122/133 330/306/186
f 172/114/126 332/308/187 325/310/189
