# Blender 5.0.1
# www.blender.org
mtllib registration_arm_inner_outward_dual.mtl
o RegistrationArmInnerOutwardDual
g registration_arm_inner_outward_dual
v 1.804528 6.358242 0.011397
v 1.804528 6.369555 0.016083
v 1.804528 6.358242 -0.011230
v 1.804528 6.369555 -0.015917
v 1.804528 6.380869 -0.011230
v 1.804527 6.385555 0.000083
v 1.804528 6.380869 0.011397
v 1.804528 6.353556 0.000083
v -0.332853 6.358242 0.011258
v -0.332853 6.369555 0.015944
v -0.332853 6.358242 -0.011370
v -0.332853 6.385555 -0.000056
v -0.332853 6.380869 0.011258
v 0.308436 6.000000 0.006584
v -0.389465 6.301972 0.006584
v -0.032564 6.200000 0.006584
v 0.326439 6.019967 0.006584
v -0.382564 6.329857 0.006584
v -0.016915 6.223782 0.006584
v 0.326439 6.000000 0.006584
v -0.032564 6.200000 0.002584
v -0.389465 6.301972 0.002584
v 0.308436 6.000000 0.002584
v -0.016915 6.223782 0.002584
v -0.382564 6.329857 0.002584
v 0.326439 6.019967 0.002584
v 0.326439 6.000000 0.002584
v -0.333331 6.315575 0.002584
v -0.424467 6.301971 -0.002416
v -0.333332 6.305421 -0.002416
v -0.417568 6.329857 -0.002416
v -0.332854 6.350000 0.002304
v -0.432854 6.350000 0.002304
v -0.332854 6.350000 -0.002696
v -0.432854 6.350000 -0.002696
v -0.432561 6.301970 0.002584
v -0.432561 6.301970 -0.002416
v -0.417568 6.329857 -0.006416
v -0.424469 6.301972 -0.006416
v 0.291435 6.000000 -0.006416
v 0.291435 6.019967 -0.006416
v -0.051918 6.223782 -0.006416
v 0.273433 6.000000 -0.006416
v -0.067568 6.200000 -0.006416
v 0.291435 6.000000 -0.002416
v -0.051918 6.223782 -0.002416
v 0.291435 6.019967 -0.002416
v -0.067568 6.200000 -0.002416
v 0.273433 6.000000 -0.002416
v -0.333332 6.301970 0.002584
v -0.333332 6.301970 -0.002416
v -0.432854 6.370000 -0.020196
v -0.332854 6.370000 -0.020196
v -0.432854 6.355858 -0.014338
v -0.332854 6.355858 -0.014338
v -0.432854 6.355858 0.013946
v -0.332854 6.355858 0.013946
v -0.432854 6.370000 0.019804
v -0.332854 6.370000 0.019804
v -0.432854 6.384142 0.013946
v -0.332854 6.384142 0.013946
v -0.432854 6.390000 -0.000196
v -0.332854 6.390000 -0.000196
v -0.432854 6.384142 -0.014338
v -0.332854 6.384142 -0.014338
v -0.332853 6.353556 -0.000056
v -0.432854 6.353556 -0.000196
v -0.432854 6.369555 -0.016196
v -0.432854 6.358242 -0.011510
v -0.332853 6.369555 -0.016056
v -0.432854 6.358242 0.011118
v -0.432854 6.369555 0.015804
v -0.432854 6.380869 0.011118
v -0.432854 6.385555 -0.000196
v -0.432854 6.380869 -0.011510
v -0.332853 6.380869 -0.011370
v -0.691895 6.353556 -0.000196
v -0.691895 6.369555 -0.016196
v -0.691895 6.358242 -0.011510
v -0.691895 6.358242 0.011118
v -0.691895 6.369555 0.015804
v -0.691895 6.380869 0.011118
v -0.691895 6.385555 -0.000196
v -0.691895 6.380869 -0.011510
vn -0.0000 -0.7071 -0.7071
vn 0.0001 -0.0000 -1.0000
vn -0.0000 0.7071 0.7071
vn -0.0000 1.0000 -0.0000
vn -0.0001 -0.0000 1.0000
vn -0.0000 -0.7071 0.7071
vn -0.0000 0.7071 -0.7071
vn -0.0000 -1.0000 -0.0000
vn -0.0000 -0.0000 -1.0000
vn 0.5104 0.8599 -0.0000
vn -0.5059 -0.8626 -0.0000
vn -0.9707 0.2402 -0.0000
vn 0.2786 0.9604 -0.0000
vn 0.2786 0.9604 0.0001
vn -0.2747 -0.9615 -0.0000
vn 1.0000 -0.0000 -0.0000
vn 0.0026 -0.0091 -1.0000
vn -0.0006 -0.0075 -1.0000
vn 0.0038 -0.0110 -0.9999
vn 1.0000 -0.0038 -0.0002
vn 1.0000 -0.0038 0.0009
vn 1.0000 -0.0065 0.0022
vn -0.0003 0.0092 1.0000
vn 0.0018 0.0095 1.0000
vn -0.0025 0.0078 1.0000
vn 0.2786 0.9604 -0.0004
vn -0.9707 0.2402 0.0001
vn -0.9707 0.2402 0.0006
vn -0.0000 -1.0000 0.0003
vn 0.0002 -1.0000 -0.0011
vn -0.0000 -0.6807 -0.7326
vn -0.0000 -0.8933 -0.4495
vn -0.0000 -0.8933 0.4495
vn -0.0000 -0.6807 0.7326
vn -0.0000 -0.0000 1.0000
vn -1.0000 -0.0000 -0.0000
vn -1.0000 -0.0023 -0.0000
vn 1.0000 0.0002 0.0002
vn 1.0000 0.0002 -0.0000
vn 0.0032 -0.0053 -1.0000
vn -0.0000 -0.0058 -1.0000
vn -0.0000 -0.0063 -1.0000
vn 1.0000 -0.0002 -0.0002
vn 1.0000 -0.0003 -0.0001
vn 0.5063 -0.0000 0.8624
vn 1.0000 -0.0074 -0.0052
vn -0.0022 0.0039 1.0000
vn 0.0024 0.0081 1.0000
vn -0.2747 -0.9615 0.0001
vn -0.0000 -1.0000 -0.0001
vn -1.0000 -0.0061 -0.0000
vn 1.0000 -0.0002 0.0002
vn 1.0000 -0.0000 -0.0002
vn 1.0000 -0.0000 0.0003
vn 1.0000 0.0002 -0.0001
vn 1.0000 0.0002 -0.0002
vt 0.978606 0.014273
vt 0.976856 0.007273
vt 0.978606 0.007273
vt 0.971606 0.014273
vt 0.973356 0.007273
vt 0.973356 0.014273
vt 0.983856 0.014273
vt 0.982106 0.007273
vt 0.983856 0.007273
vt 0.976856 0.014273
vt 0.975106 0.007273
vt 0.982106 0.014273
vt 0.980356 0.007273
vt 0.969856 0.007273
vt 0.971606 0.007273
vt 0.969856 0.000273
vt 0.975106 0.014273
vt 0.980356 0.014273
vt 0.969856 0.014273
s 1
usemtl Catenary
f 11/1/1 4/2/2 3/3/1
f 13/4/3 6/5/4 12/6/4
f 10/7/5 1/8/6 2/9/5
f 70/10/2 5/11/7 4/2/2
f 9/12/6 8/13/8 1/8/6
f 13/4/3 2/14/5 7/15/3
f 21/16/9 50/16/9 24/16/9
f 26/16/10 19/16/10 17/16/10
f 21/16/11 14/16/11 16/16/11
f 25/16/12 15/16/12 18/16/12
f 24/16/13 28/16/14 18/16/13
f 22/16/15 16/16/15 15/16/15
f 27/16/16 17/16/16 20/16/16
f 35/16/17 30/16/18 31/16/19
f 12/6/4 5/11/7 76/17/7
f 34/18/20 32/16/21 50/16/22
f 25/16/23 32/16/24 33/16/25
f 40/16/16 47/16/16 45/16/16
f 29/16/15 44/16/15 48/16/15
f 42/16/13 31/16/13 30/16/26
f 38/16/27 29/16/28 31/16/12
f 44/16/11 49/16/11 48/16/11
f 41/16/10 46/16/10 47/16/10
f 22/16/29 29/16/30 50/16/8
f 42/16/9 44/16/9 38/16/9
f 53/7/9 54/8/31 52/9/9
f 55/12/31 35/13/32 54/8/31
f 32/18/33 56/3/34 33/13/33
f 57/1/34 58/2/35 56/3/34
f 59/10/35 60/11/3 58/2/35
f 61/17/3 62/5/4 60/11/3
f 63/6/4 64/15/7 62/5/4
f 65/4/7 52/14/9 64/15/7
f 56/3/36 67/13/36 35/16/37
f 48/16/35 46/16/35 51/16/35
f 61/17/38 12/6/39 63/6/39
f 75/15/7 83/5/4 74/5/4
f 73/11/3 81/2/35 72/2/35
f 69/8/1 78/9/9 68/9/9
f 71/3/6 77/13/8 67/13/8
f 67/13/8 79/8/1 69/8/1
f 68/14/9 84/15/7 75/15/7
f 74/5/4 82/11/3 73/11/3
f 72/2/35 80/3/6 71/3/6
f 19/16/35 15/16/35 16/16/35
f 64/15/36 75/15/36 62/5/36
f 3/3/1 66/18/8 11/1/1
f 11/1/1 70/10/2 4/2/2
f 13/4/3 7/15/3 6/5/4
f 10/7/5 9/12/6 1/8/6
f 70/10/2 76/17/7 5/11/7
f 9/12/6 66/18/8 8/13/8
f 13/4/3 10/19/5 2/14/5
f 24/16/9 26/16/9 27/16/9
f 27/16/9 23/16/9 21/16/9
f 21/16/9 22/16/9 50/16/9
f 50/16/9 28/16/9 24/16/9
f 24/16/9 27/16/9 21/16/9
f 26/16/10 24/16/10 19/16/10
f 21/16/11 23/16/11 14/16/11
f 25/16/12 22/16/12 15/16/12
f 18/16/13 19/16/13 24/16/13
f 28/16/14 25/16/13 18/16/13
f 22/16/15 21/16/15 16/16/15
f 27/16/16 26/16/16 17/16/16
f 29/16/40 37/16/41 35/16/17
f 35/16/17 34/16/42 30/16/18
f 31/16/19 29/16/40 35/16/17
f 12/6/4 6/5/4 5/11/7
f 34/18/20 55/12/43 11/12/43
f 11/12/43 66/16/44 32/16/21
f 32/16/21 28/16/45 50/16/22
f 50/16/22 51/16/39 30/16/46
f 34/18/20 11/12/43 32/16/21
f 50/16/22 30/16/46 34/18/20
f 36/16/47 22/16/35 25/16/23
f 25/16/23 28/16/48 32/16/24
f 33/16/25 36/16/47 25/16/23
f 40/16/16 41/16/16 47/16/16
f 29/16/15 39/16/49 44/16/15
f 30/16/26 46/16/13 42/16/13
f 42/16/13 38/16/13 31/16/13
f 38/16/27 39/16/28 29/16/28
f 44/16/11 43/16/11 49/16/11
f 41/16/10 42/16/10 46/16/10
f 22/16/29 36/16/8 37/16/50
f 29/16/30 51/16/8 50/16/8
f 22/16/29 37/16/50 29/16/30
f 42/16/9 41/16/9 40/16/9
f 40/16/9 43/16/9 44/16/9
f 44/16/9 39/16/9 38/16/9
f 42/16/9 40/16/9 44/16/9
f 53/7/9 55/12/31 54/8/31
f 55/12/31 34/18/32 35/13/32
f 32/18/33 57/1/34 56/3/34
f 57/1/34 59/10/35 58/2/35
f 59/10/35 61/17/3 60/11/3
f 61/17/3 63/6/4 62/5/4
f 63/6/4 65/4/7 64/15/7
f 65/4/7 53/19/9 52/14/9
f 58/2/36 60/11/36 73/11/36
f 58/2/36 73/11/36 72/2/36
f 37/16/51 36/16/51 33/13/37
f 69/8/36 54/8/36 35/16/37
f 35/16/37 37/16/51 33/13/37
f 56/3/36 58/2/36 72/2/36
f 56/3/36 72/2/36 71/3/36
f 35/16/37 33/13/37 56/3/36
f 67/13/36 69/8/36 35/16/37
f 56/3/36 71/3/36 67/13/36
f 48/16/35 49/16/35 45/16/35
f 45/16/35 47/16/35 46/16/35
f 46/16/35 30/16/35 51/16/35
f 51/16/35 29/16/35 48/16/35
f 48/16/35 45/16/35 46/16/35
f 57/1/52 32/18/21 66/18/44
f 57/1/52 66/18/44 9/1/52
f 11/12/43 55/12/43 53/19/53
f 70/7/53 11/12/43 53/19/53
f 59/10/54 57/1/52 9/1/52
f 59/10/54 9/1/52 10/10/54
f 70/7/53 53/19/53 65/4/55
f 76/4/56 70/7/53 65/4/55
f 61/17/38 59/10/54 10/10/54
f 61/17/38 10/10/54 13/17/38
f 76/4/56 65/4/55 63/6/39
f 61/17/38 13/17/38 12/6/39
f 12/6/39 76/4/56 63/6/39
f 75/15/7 84/15/7 83/5/4
f 73/11/3 82/11/3 81/2/35
f 69/8/1 79/8/1 78/9/9
f 71/3/6 80/3/6 77/13/8
f 67/13/8 77/13/8 79/8/1
f 68/14/9 78/14/9 84/15/7
f 74/5/4 83/5/4 82/11/3
f 72/2/35 81/2/35 80/3/6
f 16/16/35 14/16/35 20/16/35
f 20/16/35 17/16/35 19/16/35
f 19/16/35 18/16/35 15/16/35
f 16/16/35 20/16/35 19/16/35
f 52/9/36 54/8/36 69/8/36
f 52/9/36 69/8/36 68/14/36
f 73/11/36 60/11/36 62/5/36
f 74/5/36 73/11/36 62/5/36
f 64/15/36 52/9/36 68/14/36
f 75/15/36 74/5/36 62/5/36
f 64/15/36 68/14/36 75/15/36
f 3/3/1 8/13/8 66/18/8
o GantryInsulator.013
v 0.300000 7.039817 -0.008762
v 0.300000 7.054616 -0.102362
v 0.300000 7.130641 -0.022523
v 0.300000 7.140331 -0.102362
v 0.300000 7.216355 -0.038935
v 0.327709 7.216355 -0.027457
v 0.370711 7.140331 -0.073072
v 0.314843 7.130641 -0.016375
v 0.370711 7.054616 -0.073072
v 0.306374 7.039817 -0.006122
v 0.339187 7.216355 0.000252
v 0.400000 7.140331 -0.002362
v 0.320992 7.130641 -0.001531
v 0.400000 7.054616 -0.002362
v 0.309014 7.039817 0.000252
v 0.327709 7.216355 0.027961
v 0.370711 7.140331 0.068349
v 0.314040 7.130641 0.014596
v 0.370711 7.054616 0.068349
v 0.306374 7.039817 0.006626
v 0.300000 7.216355 0.039439
v 0.300000 7.140331 0.097638
v 0.300000 7.130641 0.020487
v 0.300000 7.054616 0.097638
v 0.300000 7.039817 0.009266
v 0.272291 7.216355 0.027961
v 0.229289 7.140331 0.068349
v 0.285960 7.130641 0.014596
v 0.229289 7.054616 0.068349
v 0.293626 7.039817 0.006626
v 0.260813 7.216355 0.000252
v 0.200000 7.140331 -0.002362
v 0.279008 7.130641 -0.001531
v 0.200000 7.054616 -0.002362
v 0.290986 7.039817 0.000252
v 0.272291 7.216355 -0.027457
v 0.229289 7.140331 -0.073072
v 0.285157 7.130641 -0.016375
v 0.229289 7.054616 -0.073072
v 0.293626 7.039817 -0.006122
v 0.300000 7.216355 -0.018017
v 0.312918 7.216355 -0.012666
v 0.318269 7.216355 0.000252
v 0.312918 7.216355 0.013170
v 0.300000 7.216355 0.018521
v 0.287082 7.216355 0.013170
v 0.281731 7.216355 0.000252
v 0.287082 7.216355 -0.012666
v 0.300000 7.334884 -0.018017
v 0.312918 7.334884 -0.012666
v 0.318269 7.334884 0.000252
v 0.312918 7.334884 0.013170
v 0.300000 7.334884 0.018521
v 0.287082 7.334884 0.013170
v 0.281731 7.334884 0.000252
v 0.287082 7.334884 -0.012666
v 0.300000 7.350073 0.000252
v 0.318269 7.350073 0.000252
v 0.281731 7.350073 0.000252
v 0.287082 7.334884 0.034277
v 0.281731 7.334884 0.021358
v 0.300000 7.334884 0.039627
v 0.312918 7.334884 0.034277
v 0.318269 7.334884 0.021358
v 0.287082 7.350073 0.034277
v 0.281731 7.350073 0.021358
v 0.300000 7.350073 0.039627
v 0.312918 7.350073 0.034277
v 0.318269 7.350073 0.021358
v 0.287082 7.334884 -0.034282
v 0.300000 7.334884 -0.039633
v 0.281731 7.334884 -0.021364
v 0.312918 7.334884 -0.034282
v 0.318269 7.334884 -0.021364
v 0.287082 7.350073 -0.034282
v 0.300000 7.350073 -0.039633
v 0.281731 7.350073 -0.021364
v 0.312918 7.350073 -0.034282
v 0.318269 7.350073 -0.021364
v 0.300000 6.379152 -0.008762
v 0.306374 6.379152 -0.006122
v 0.309014 6.379152 0.000252
v 0.306374 6.379152 0.006626
v 0.300000 6.379152 0.009266
v 0.293626 6.379152 0.006626
v 0.290986 6.379152 0.000252
v 0.293626 6.379152 -0.006122
vn -0.1109 -0.9875 -0.1117
vn -0.0000 -0.9877 -0.1562
vn -0.1122 -0.9875 -0.1105
vn -0.4879 0.7231 -0.4889
vn -0.0000 0.7242 -0.6896
vn -0.0853 -0.9927 -0.0856
vn -0.0000 -0.9927 -0.1205
vn -0.0857 -0.9927 -0.0852
vn -0.5436 0.6361 -0.5477
vn -0.0000 0.6406 -0.7679
vn -0.1605 -0.9870 -0.0008
vn -0.1606 -0.9870 0.0017
vn -0.6934 0.7206 -0.0010
vn -0.4893 0.7231 -0.4875
vn -0.1217 -0.9926 -0.0002
vn -0.1213 -0.9926 0.0010
vn -0.7808 0.6247 -0.0042
vn -0.5489 0.6360 -0.5424
vn -0.1162 -0.9865 0.1154
vn -0.1149 -0.9865 0.1167
vn -0.4952 0.7160 0.4921
vn -0.6917 0.7222 0.0052
vn -0.0876 -0.9924 0.0869
vn -0.0857 -0.9924 0.0888
vn -0.5609 0.6129 0.5566
vn -0.7810 0.6245 0.0066
vn -0.0000 -0.9863 0.1652
vn -0.0000 0.7126 0.7016
vn -0.4872 0.7158 0.5003
vn -0.0000 -0.9922 0.1245
vn -0.0000 -0.9922 0.1246
vn -0.0000 0.6079 0.7940
vn -0.5554 0.6128 0.5621
vn 0.1149 -0.9865 0.1167
vn 0.4872 0.7158 0.5003
vn 0.4952 0.7160 0.4921
vn 0.0857 -0.9924 0.0888
vn 0.5554 0.6128 0.5621
vn 0.5609 0.6129 0.5566
vn 0.1606 -0.9870 0.0017
vn 0.1162 -0.9865 0.1154
vn 0.6917 0.7222 0.0052
vn 0.6934 0.7206 -0.0010
vn 0.1213 -0.9926 0.0010
vn 0.0876 -0.9924 0.0869
vn 0.7810 0.6245 0.0066
vn 0.7808 0.6247 -0.0042
vn 0.1122 -0.9875 -0.1105
vn 0.1605 -0.9870 -0.0008
vn 0.4893 0.7231 -0.4875
vn 0.4879 0.7231 -0.4889
vn 0.0857 -0.9927 -0.0852
vn 0.1217 -0.9926 -0.0002
vn 0.5489 0.6360 -0.5424
vn 0.5436 0.6361 -0.5477
vn 0.1109 -0.9875 -0.1117
vn 0.0853 -0.9927 -0.0856
vn -0.0000 0.7123 0.7019
vn -0.0000 1.0000 -0.0000
vn 0.7071 -0.0000 0.7071
vn -0.0000 -0.0000 1.0000
vn -0.7071 -0.0000 0.7071
vn -1.0000 -0.0000 -0.0000
vn -0.7071 -0.0000 -0.7071
vn -0.0000 -0.0000 -1.0000
vn 0.7071 -0.0000 -0.7071
vn 1.0000 -0.0000 -0.0000
vn 0.9701 -0.2425 -0.0000
vn 0.9808 -0.0000 -0.1951
vn -0.0000 -1.0000 -0.0000
vn 0.7319 -0.6657 0.1456
vn -0.9808 -0.0000 0.1951
vn -0.7319 -0.6657 0.1456
vn -0.9701 -0.2425 -0.0000
vn 0.7319 -0.6657 -0.1456
vn -0.7319 -0.6657 -0.1456
vn 0.9808 -0.0000 0.1951
vn -0.9808 -0.0000 -0.1951
vt 0.959703 0.009387
vt 0.960882 0.008099
vt 0.960684 0.009187
vt 0.957954 0.007566
vt 0.960035 0.007566
vt 0.962915 0.005744
vt 0.961736 0.007033
vt 0.961934 0.005945
vt 0.964664 0.007566
vt 0.962584 0.007566
vt 0.958751 0.010974
vt 0.960309 0.010184
vt 0.959740 0.011133
vt 0.957756 0.008654
vt 0.963867 0.004157
vt 0.962309 0.004947
vt 0.962878 0.003998
vt 0.964862 0.006477
vt 0.957301 0.012125
vt 0.959037 0.011934
vt 0.958171 0.012621
vt 0.957187 0.009603
vt 0.965317 0.003006
vt 0.963581 0.003197
vt 0.964447 0.002510
vt 0.965431 0.005529
vt 0.955539 0.012691
vt 0.957231 0.013124
vt 0.956177 0.013462
vt 0.956321 0.010290
vt 0.967079 0.002440
vt 0.965388 0.002008
vt 0.966441 0.001669
vt 0.966297 0.004841
vt 0.957231 0.002008
vt 0.955539 0.002440
vt 0.956177 0.001669
vt 0.956321 0.004841
vt 0.957301 0.003006
vt 0.965388 0.013124
vt 0.967079 0.012691
vt 0.966441 0.013462
vt 0.966297 0.010290
vt 0.965317 0.012125
vt 0.959037 0.003197
vt 0.958171 0.002510
vt 0.957187 0.005529
vt 0.958751 0.004157
vt 0.963581 0.011934
vt 0.964447 0.012621
vt 0.965431 0.009603
vt 0.963867 0.010974
vt 0.960309 0.004947
vt 0.959740 0.003998
vt 0.957756 0.006477
vt 0.959703 0.005744
vt 0.962309 0.010184
vt 0.962878 0.011133
vt 0.964862 0.008654
vt 0.962915 0.009387
vt 0.960882 0.007033
vt 0.960684 0.005945
vt 0.961736 0.008099
vt 0.961934 0.009187
vt 0.955268 0.010628
vt 0.967350 0.004503
vt 0.955268 0.004503
vt 0.967350 0.010628
vt 0.981114 0.009656
vt 0.982013 0.009945
vt 0.981114 0.005003
vt 0.980374 0.005590
vt 0.979888 0.006400
vt 0.979719 0.007329
vt 0.979888 0.008259
vt 0.980374 0.009069
vt 0.982013 0.004714
vt 0.924092 -0.341471
vt 0.974914 0.011060
vt 0.974174 0.011647
vt 0.975514 0.004283
vt 0.976000 0.005093
vt 0.973371 0.012076
vt 0.972472 0.012365
vt 0.976321 0.005945
vt 0.976490 0.006874
vt 0.976490 0.007784
vt 0.976321 0.008714
vt 0.972472 0.002294
vt 0.973371 0.002583
vt 0.976000 0.009566
vt 0.975514 0.010376
vt 0.974174 0.003012
vt 0.974914 0.003599
s 1
usemtl Catenary
f 123/20/57 85/21/58 124/22/59
f 123/20/60 87/23/61 86/24/61
f 121/25/62 87/26/63 122/27/64
f 121/25/65 89/28/66 88/29/66
f 118/30/67 124/31/59 119/32/68
f 118/30/69 122/33/70 123/20/60
f 116/34/71 122/35/64 117/36/72
f 116/34/73 120/37/74 121/25/65
f 113/38/75 119/39/68 114/40/76
f 113/38/77 117/41/78 118/30/69
f 111/42/79 117/43/72 112/44/80
f 111/42/81 115/45/82 116/34/73
f 108/46/83 114/47/76 109/48/83
f 108/46/84 112/49/85 113/38/77
f 106/50/86 112/51/80 107/52/87
f 106/50/88 110/53/89 111/42/81
f 104/54/90 108/55/83 109/56/83
f 102/57/91 108/55/84 103/58/92
f 102/59/93 106/60/86 107/61/87
f 100/62/94 106/60/88 101/63/95
f 99/64/96 103/58/97 104/65/90
f 97/66/98 103/58/92 98/67/99
f 97/68/100 101/63/101 102/69/93
f 95/70/102 101/63/95 96/71/103
f 94/72/104 98/67/105 99/73/96
f 92/74/106 98/67/99 93/75/107
f 92/76/108 96/71/109 97/77/100
f 90/78/110 96/71/103 91/79/111
f 85/80/58 93/75/112 94/81/104
f 87/23/61 93/75/107 86/24/61
f 87/82/63 91/79/113 92/83/108
f 89/28/66 91/79/111 88/29/66
f 123/20/57 86/24/58 85/21/58
f 123/20/60 122/33/70 87/23/61
f 121/25/62 88/29/63 87/26/63
f 121/25/65 120/37/74 89/28/66
f 118/30/67 123/20/57 124/31/59
f 118/30/69 117/41/78 122/33/70
f 116/34/71 121/25/62 122/35/64
f 116/34/73 115/45/82 120/37/74
f 113/38/75 118/30/67 119/39/68
f 113/38/77 112/49/85 117/41/78
f 111/42/79 116/34/71 117/43/72
f 111/42/81 110/53/89 115/45/82
f 108/46/83 113/38/75 114/47/76
f 108/46/84 107/84/114 112/49/85
f 106/50/86 111/42/79 112/51/80
f 106/50/88 105/85/88 110/53/89
f 104/54/90 103/58/97 108/55/83
f 102/57/91 107/86/114 108/55/84
f 102/59/93 101/63/101 106/60/86
f 100/62/94 105/87/88 106/60/88
f 99/64/96 98/67/105 103/58/97
f 97/66/98 102/57/91 103/58/92
f 97/68/100 96/71/109 101/63/101
f 95/70/102 100/62/94 101/63/95
f 94/72/104 93/75/112 98/67/105
f 92/74/106 97/66/98 98/67/99
f 92/76/108 91/79/113 96/71/109
f 90/78/110 95/70/102 96/71/103
f 85/80/58 86/24/58 93/75/112
f 87/23/61 92/74/106 93/75/107
f 87/82/63 88/29/63 91/79/113
f 89/28/66 90/78/110 91/79/111
f 115/45/115 132/37/115 120/37/115
f 95/70/115 128/62/115 100/62/115
f 110/53/115 131/45/115 115/45/115
f 90/78/115 127/70/115 95/70/115
f 105/85/115 130/53/115 110/53/115
f 90/78/115 125/28/115 126/78/115
f 120/37/115 125/28/115 89/28/115
f 100/62/115 129/87/115 105/87/115
f 128/88/116 137/89/117 129/89/117
f 130/90/118 139/91/119 131/91/119
f 132/92/120 133/93/121 125/93/121
f 125/93/121 134/94/122 126/94/122
f 127/95/123 136/88/116 128/88/116
f 129/96/117 138/90/118 130/90/118
f 131/91/119 140/92/120 132/92/120
f 126/94/122 135/95/123 127/95/123
f 135/95/124 163/95/125 142/95/123
f 137/89/126 147/88/126 146/89/126
f 142/95/123 148/95/127 135/95/124
f 133/93/126 157/94/126 134/94/126
s 0
f 141/97/115 161/97/115 143/97/115
f 141/97/115 151/97/115 152/97/115
s 1
f 137/96/126 144/90/126 138/90/126
f 133/93/126 154/92/126 155/93/126
f 147/88/116 151/89/117 146/89/117
f 144/90/118 150/91/128 145/91/129
f 148/95/127 152/88/116 147/88/116
f 146/96/117 149/90/118 144/90/118
s 0
f 141/97/115 153/97/115 142/97/115
s 1
f 139/91/130 150/91/128 143/91/119
s 0
f 141/97/115 150/97/115 149/97/115
s 1
f 136/88/126 148/95/127 147/88/126
f 138/90/126 145/91/129 139/91/130
s 0
f 141/97/115 149/97/115 151/97/115
s 1
f 157/94/122 163/95/125 158/95/131
f 154/92/120 160/93/121 155/93/121
f 155/93/121 162/94/122 157/94/122
f 156/91/132 159/92/120 154/92/120
f 143/91/119 156/91/132 139/91/130
f 140/92/126 156/91/132 154/92/126
s 0
f 141/97/115 163/97/115 162/97/115
f 141/97/115 160/97/115 159/97/115
f 141/97/115 162/97/115 160/97/115
s 1
f 134/94/126 158/95/131 135/95/124
f 119/98/119 169/99/118 114/99/118
f 99/100/123 165/101/122 94/101/122
f 114/102/118 168/103/117 109/103/117
f 94/104/122 164/105/121 85/105/121
f 85/106/121 171/107/120 124/107/120
f 109/108/117 167/109/116 104/109/116
f 124/110/120 170/111/119 119/111/119
f 104/112/116 166/113/123 99/113/123
f 115/45/115 131/45/115 132/37/115
f 95/70/115 127/70/115 128/62/115
f 110/53/115 130/53/115 131/45/115
f 90/78/115 126/78/115 127/70/115
f 105/85/115 129/85/115 130/53/115
f 90/78/115 89/28/115 125/28/115
f 120/37/115 132/37/115 125/28/115
f 100/62/115 128/62/115 129/87/115
f 128/88/116 136/88/116 137/89/117
f 130/90/118 138/90/118 139/91/119
f 132/92/120 140/92/120 133/93/121
f 125/93/121 133/93/121 134/94/122
f 127/95/123 135/95/123 136/88/116
f 129/96/117 137/96/117 138/90/118
f 131/91/119 139/91/119 140/92/120
f 126/94/122 134/94/122 135/95/123
f 135/95/124 158/95/131 163/95/125
f 137/89/126 136/88/126 147/88/126
f 142/95/123 153/95/133 148/95/127
f 133/93/126 155/93/126 157/94/126
s 0
f 141/97/115 159/97/115 161/97/115
s 1
f 137/96/126 146/96/126 144/90/126
f 133/93/126 140/92/126 154/92/126
f 147/88/116 152/88/116 151/89/117
f 144/90/118 149/90/118 150/91/128
f 148/95/127 153/95/133 152/88/116
f 146/96/117 151/96/117 149/90/118
s 0
f 141/97/115 152/97/115 153/97/115
s 1
f 139/91/130 145/91/129 150/91/128
s 0
f 141/97/115 143/97/115 150/97/115
s 1
f 136/88/126 135/95/124 148/95/127
f 138/90/126 144/90/126 145/91/129
f 157/94/122 162/94/122 163/95/125
f 154/92/120 159/92/120 160/93/121
f 155/93/121 160/93/121 162/94/122
f 156/91/132 161/91/134 159/92/120
f 143/91/119 161/91/134 156/91/132
f 140/92/126 139/91/130 156/91/132
s 0
f 141/97/115 142/97/115 163/97/115
s 1
f 134/94/126 157/94/126 158/95/131
f 119/98/119 170/98/119 169/99/118
f 99/100/123 166/100/123 165/101/122
f 114/102/118 169/102/118 168/103/117
f 94/104/122 165/104/122 164/105/121
f 85/106/121 164/106/121 171/107/120
f 109/108/117 168/108/117 167/109/116
f 124/110/120 171/110/120 170/111/119
f 104/112/116 167/112/116 166/113/123
o Cantileverindulator.021
v 1.782128 6.369318 -0.027084
v 1.782125 6.353548 -0.020551
v 1.782123 6.347015 -0.004780
v 1.782125 6.353548 0.010991
v 1.782128 6.369318 0.017523
v 1.782131 6.385089 0.010991
v 1.782132 6.391622 -0.004780
v 1.782131 6.385089 -0.020551
v 2.063907 6.369247 -0.027084
v 2.063904 6.353476 -0.020551
v 2.063903 6.346943 -0.004780
v 2.063904 6.353476 0.010991
v 2.063907 6.369247 0.017523
v 2.063910 6.385017 0.010991
v 2.063912 6.391550 -0.004780
v 2.063910 6.385017 -0.020551
v 2.052547 6.336826 -0.037204
v 2.041195 6.336830 -0.037204
v 2.029845 6.353484 -0.020551
v 2.018492 6.353487 -0.020551
v 2.007136 6.336838 -0.037204
v 1.995783 6.336841 -0.037204
v 1.984433 6.353496 -0.020551
v 1.973081 6.353499 -0.020551
v 1.961724 6.336850 -0.037204
v 1.950371 6.336853 -0.037204
v 1.939022 6.353508 -0.020551
v 1.927669 6.353510 -0.020551
v 1.916312 6.336861 -0.037204
v 1.904960 6.336864 -0.037204
v 1.893610 6.353519 -0.020551
v 1.882257 6.353522 -0.020551
v 1.870901 6.336873 -0.037204
v 1.859547 6.336876 -0.037204
v 1.848198 6.353531 -0.020551
v 2.052545 6.323397 -0.004781
v 2.041192 6.323400 -0.004781
v 2.029844 6.346952 -0.004780
v 2.018491 6.346955 -0.004780
v 2.007133 6.323408 -0.004781
v 1.995780 6.323410 -0.004781
v 1.984432 6.346963 -0.004780
v 1.973079 6.346966 -0.004780
v 1.961721 6.323420 -0.004781
v 1.950368 6.323422 -0.004781
v 1.939020 6.346975 -0.004780
v 1.927667 6.346978 -0.004780
v 1.916310 6.323431 -0.004781
v 1.904957 6.323435 -0.004781
v 1.893609 6.346986 -0.004780
v 1.882256 6.346989 -0.004780
v 1.870898 6.323442 -0.004781
v 1.859545 6.323446 -0.004781
v 1.848197 6.346998 -0.004780
v 2.052547 6.336826 0.027642
v 2.041195 6.336830 0.027642
v 2.029845 6.353484 0.010991
v 2.018492 6.353487 0.010991
v 2.007136 6.336838 0.027642
v 1.995783 6.336841 0.027642
v 1.984433 6.353496 0.010991
v 1.973081 6.353499 0.010991
v 1.961724 6.336850 0.027642
v 1.950371 6.336853 0.027642
v 1.939022 6.353508 0.010991
v 1.927669 6.353510 0.010991
v 1.916312 6.336861 0.027642
v 1.904960 6.336864 0.027642
v 1.893610 6.353519 0.010991
v 1.882257 6.353522 0.010991
v 1.870901 6.336873 0.027642
v 1.859547 6.336876 0.027642
v 1.848198 6.353531 0.010991
v 2.052554 6.369250 0.041073
v 2.041201 6.369253 0.041073
v 2.029848 6.369255 0.017523
v 2.018496 6.369258 0.017523
v 2.007143 6.369262 0.041073
v 1.995790 6.369264 0.041073
v 1.984437 6.369267 0.017523
v 1.973084 6.369270 0.017523
v 1.961731 6.369273 0.041073
v 1.950378 6.369276 0.041073
v 1.939025 6.369278 0.017523
v 1.927672 6.369281 0.017523
v 1.916319 6.369285 0.041073
v 1.904966 6.369287 0.041073
v 1.893613 6.369290 0.017523
v 1.882261 6.369293 0.017523
v 1.870908 6.369296 0.041073
v 1.859555 6.369299 0.041073
v 1.848202 6.369302 0.017523
v 2.052561 6.401672 0.027642
v 2.041208 6.401676 0.027642
v 2.029852 6.385026 0.010991
v 2.018499 6.385029 0.010991
v 2.007149 6.401685 0.027642
v 1.995797 6.401688 0.027642
v 1.984440 6.385038 0.010991
v 1.973087 6.385041 0.010991
v 1.961738 6.401697 0.027642
v 1.950385 6.401699 0.027642
v 1.939028 6.385049 0.010991
v 1.927675 6.385052 0.010991
v 1.916326 6.401708 0.027642
v 1.904973 6.401711 0.027642
v 1.893616 6.385061 0.010991
v 1.882264 6.385064 0.010991
v 1.870914 6.401719 0.027642
v 1.859561 6.401723 0.027642
v 1.848205 6.385073 0.010991
v 2.052564 6.415103 -0.004781
v 2.041211 6.415106 -0.004781
v 2.029853 6.391559 -0.004780
v 2.018500 6.391561 -0.004780
v 2.007152 6.415115 -0.004781
v 1.995799 6.415117 -0.004781
v 1.984441 6.391570 -0.004780
v 1.973089 6.391573 -0.004780
v 1.961740 6.415126 -0.004781
v 1.950387 6.415130 -0.004781
v 1.939029 6.391582 -0.004780
v 1.927677 6.391585 -0.004780
v 1.916329 6.415138 -0.004781
v 1.904976 6.415141 -0.004781
v 1.893618 6.391593 -0.004780
v 1.882265 6.391596 -0.004780
v 1.870917 6.415150 -0.004781
v 1.859564 6.415153 -0.004781
v 1.848206 6.391605 -0.004780
v 2.052561 6.401672 -0.037204
v 2.041208 6.401676 -0.037204
v 2.029852 6.385026 -0.020551
v 2.018499 6.385029 -0.020551
v 2.007149 6.401685 -0.037204
v 1.995797 6.401688 -0.037204
v 1.984440 6.385038 -0.020551
v 1.973087 6.385041 -0.020551
v 1.961738 6.401697 -0.037204
v 1.950385 6.401699 -0.037204
v 1.939028 6.385049 -0.020551
v 1.927675 6.385052 -0.020551
v 1.916326 6.401708 -0.037204
v 1.904973 6.401711 -0.037204
v 1.893616 6.385061 -0.020551
v 1.882264 6.385064 -0.020551
v 1.870914 6.401719 -0.037204
v 1.859561 6.401723 -0.037204
v 1.848205 6.385073 -0.020551
v 1.848202 6.369301 -0.027084
v 1.859555 6.369299 -0.050634
v 1.870908 6.369296 -0.050634
v 1.882261 6.369293 -0.027084
v 1.893613 6.369290 -0.027084
v 1.904966 6.369287 -0.050634
v 1.916319 6.369285 -0.050634
v 1.927672 6.369282 -0.027084
v 1.939025 6.369278 -0.027084
v 1.950378 6.369276 -0.050634
v 1.961731 6.369273 -0.050634
v 1.973084 6.369270 -0.027084
v 1.984437 6.369267 -0.027084
v 1.995790 6.369264 -0.050634
v 2.007143 6.369262 -0.050634
v 2.018496 6.369258 -0.027084
v 2.029849 6.369255 -0.027084
v 2.041201 6.369253 -0.050634
v 2.052555 6.369250 -0.050634
v 2.121413 6.369318 -0.027084
v 2.121409 6.353547 -0.020551
v 2.121408 6.347015 -0.004780
v 2.121409 6.353547 0.010991
v 2.121413 6.369318 0.017523
v 2.121416 6.385089 0.010991
v 2.121417 6.391621 -0.004780
v 2.121416 6.385089 -0.020551
vn 0.5997 0.5657 -0.5660
vn 0.4805 -0.0001 -0.8770
vn 0.4807 0.6200 -0.6201
vn 0.4808 0.8769 -0.0000
vn 0.4807 0.6200 0.6201
vn 0.5996 0.8003 -0.0000
vn 0.4805 -0.0001 0.8770
vn 0.5997 0.5657 0.5660
vn 0.4804 -0.6202 0.6201
vn 0.6000 -0.0003 0.8000
vn 0.6004 -0.7997 -0.0000
vn 0.4803 -0.8771 -0.0000
vn 0.6003 -0.5657 -0.5654
vn 0.4804 -0.6202 -0.6201
vn 0.6000 -0.0003 -0.8000
vn -0.6000 0.0001 -0.8000
vn -0.0002 -0.7071 -0.7071
vn -0.0000 -0.0000 -1.0000
vn -0.4807 -0.6200 -0.6201
vn -0.6001 -0.5656 -0.5657
vn -0.4805 0.0001 -0.8770
vn 0.6000 -0.0001 -0.8000
vn 0.5999 -0.5658 -0.5657
vn 0.5998 -0.5658 -0.5657
vn -0.0003 -1.0000 -0.0000
vn -0.4807 -0.8769 -0.0000
vn -0.6002 -0.7999 -0.0000
vn 0.5998 -0.8002 -0.0000
vn -0.4808 -0.8769 -0.0000
vn -0.6001 -0.5656 0.5657
vn -0.0002 -0.7071 0.7071
vn -0.4807 -0.6200 0.6201
vn 0.5999 -0.5658 0.5657
vn 0.5998 -0.5658 0.5657
vn -0.6000 0.0001 0.8000
vn -0.0000 -0.0000 1.0000
vn -0.4805 0.0001 0.8770
vn 0.6000 -0.0001 0.8000
vn -0.5999 0.5658 0.5657
vn 0.0002 0.7071 0.7071
vn -0.4804 0.6202 0.6201
vn 0.6001 0.5656 0.5657
vn -0.5998 0.5658 0.5657
vn -0.5998 0.8001 -0.0000
vn 0.0003 1.0000 -0.0000
vn -0.4803 0.8771 -0.0000
vn 0.6002 0.7999 -0.0000
vn -0.5998 0.8002 -0.0000
vn 0.4807 0.8769 -0.0000
vn -0.4804 0.8771 -0.0000
vn 0.0002 0.7071 -0.7071
vn -0.5999 0.5658 -0.5657
vn -0.4804 0.6202 -0.6201
vn 0.6001 0.5656 -0.5657
vn -0.5998 0.5658 -0.5657
vn 0.0009 -0.7069 -0.7073
vn 0.6002 -0.5657 0.5654
vn 0.0012 -1.0000 -0.0000
vn 0.0009 -0.7069 0.7073
vn -0.0000 0.0003 1.0000
vn -0.0009 0.7073 0.7069
vn -0.0009 0.7073 -0.7069
vn -0.0012 1.0000 -0.0000
vn -0.0000 0.0003 -1.0000
vt 0.947470 0.037677
vt 0.927640 0.045459
vt 0.931226 0.028232
vt 0.937842 0.007817
vt 0.928547 0.130780
vt 0.948638 0.133956
vt 0.934473 0.150909
vt 0.925563 0.113182
vt 0.944729 0.122198
vt 0.924520 0.096118
vt 0.942177 0.108777
vt 0.941159 0.080218
vt 0.924508 0.079031
vt 0.942195 0.065540
vt 0.925551 0.062245
vt 0.944237 0.051147
vt 0.707478 0.051626
vt 0.665429 0.070259
vt 0.663516 0.059196
vt 0.726436 0.062389
vt 0.709510 0.065850
vt 0.731361 0.044355
vt 0.724087 0.045720
vt 0.748171 0.044726
vt 0.733780 0.061548
vt 0.755705 0.044441
vt 0.750076 0.062275
vt 0.774261 0.060231
vt 0.757493 0.062188
vt 0.780996 0.041652
vt 0.773817 0.042179
vt 0.797533 0.043226
vt 0.781723 0.060001
vt 0.805052 0.042924
vt 0.798143 0.060884
vt 0.822521 0.059390
vt 0.805650 0.060949
vt 0.830476 0.041180
vt 0.823271 0.041382
vt 0.847033 0.043340
vt 0.830046 0.059427
vt 0.854709 0.042778
vt 0.846735 0.061004
vt 0.871545 0.042575
vt 0.854212 0.060763
vt 0.879065 0.042333
vt 0.872525 0.060506
vt 0.896003 0.044494
vt 0.879637 0.060508
vt 0.903612 0.044707
vt 0.895284 0.062097
vt 0.918291 0.061472
vt 0.902311 0.062281
vt 0.920400 0.044146
vt 0.666539 0.081375
vt 0.727641 0.079061
vt 0.710433 0.080370
vt 0.734901 0.078782
vt 0.750875 0.079574
vt 0.775395 0.078449
vt 0.758282 0.079392
vt 0.783125 0.078508
vt 0.797950 0.078657
vt 0.822520 0.077641
vt 0.805649 0.078870
vt 0.830039 0.077675
vt 0.846616 0.078816
vt 0.871599 0.078454
vt 0.854277 0.078859
vt 0.879363 0.078844
vt 0.894028 0.079351
vt 0.917167 0.078806
vt 0.901313 0.079596
vt 0.710571 0.094615
vt 0.666070 0.092500
vt 0.727968 0.095897
vt 0.735656 0.096428
vt 0.757505 0.096675
vt 0.750030 0.096654
vt 0.773969 0.096495
vt 0.781394 0.096953
vt 0.797988 0.096231
vt 0.805694 0.096183
vt 0.822788 0.096002
vt 0.830597 0.096283
vt 0.853493 0.096672
vt 0.845722 0.096378
vt 0.870075 0.096509
vt 0.877539 0.096957
vt 0.894185 0.096477
vt 0.901791 0.096508
vt 0.916558 0.096402
vt 0.709361 0.108636
vt 0.664786 0.103588
vt 0.724787 0.112656
vt 0.732174 0.113813
vt 0.749007 0.113694
vt 0.756834 0.113652
vt 0.771950 0.114884
vt 0.779581 0.115184
vt 0.797158 0.113528
vt 0.805293 0.113362
vt 0.820618 0.114418
vt 0.828268 0.114662
vt 0.845620 0.113573
vt 0.853676 0.113736
vt 0.869021 0.115063
vt 0.876679 0.115123
vt 0.894114 0.113409
vt 0.901912 0.113407
vt 0.918411 0.114183
vt 0.706539 0.121976
vt 0.662802 0.114687
vt 0.729508 0.131821
vt 0.722416 0.130552
vt 0.747162 0.129630
vt 0.755259 0.129762
vt 0.779276 0.133924
vt 0.772117 0.133980
vt 0.796553 0.129656
vt 0.804550 0.129622
vt 0.828479 0.133474
vt 0.821402 0.133599
vt 0.845456 0.129487
vt 0.853357 0.130038
vt 0.878131 0.133828
vt 0.871011 0.133975
vt 0.895203 0.129401
vt 0.903449 0.129758
vt 0.921419 0.132282
vt 0.702786 0.133700
vt 0.660710 0.125966
vt 0.725711 0.152725
vt 0.716251 0.150262
vt 0.746520 0.143505
vt 0.753385 0.143086
vt 0.779688 0.155355
vt 0.770477 0.155007
vt 0.797261 0.143409
vt 0.803521 0.142992
vt 0.829517 0.154869
vt 0.820453 0.154708
vt 0.846563 0.143030
vt 0.852942 0.142757
vt 0.869125 0.155118
vt 0.878653 0.155355
vt 0.896745 0.143299
vt 0.903846 0.143489
vt 0.924811 0.152870
vt 0.700468 0.026722
vt 0.660939 0.048183
vt 0.658181 0.037066
vt 0.713248 0.008740
vt 0.704304 0.038276
vt 0.723671 0.005540
vt 0.720369 0.028414
vt 0.746201 0.028052
vt 0.727363 0.026952
vt 0.752375 0.015330
vt 0.744561 0.015462
vt 0.768291 0.002226
vt 0.754315 0.028015
vt 0.778339 0.001427
vt 0.770917 0.023715
vt 0.796752 0.026423
vt 0.778228 0.023218
vt 0.803773 0.013762
vt 0.796606 0.013553
vt 0.820096 0.001225
vt 0.804801 0.026526
vt 0.830064 0.000966
vt 0.821525 0.022812
vt 0.847009 0.026585
vt 0.828808 0.022669
vt 0.854472 0.013896
vt 0.847418 0.013663
vt 0.871343 0.001792
vt 0.854996 0.026635
vt 0.881411 0.001991
vt 0.871775 0.023451
vt 0.897185 0.028000
vt 0.879028 0.023679
vt 0.906580 0.015377
vt 0.898588 0.015202
vt 0.927171 0.005399
vt 0.905341 0.027938
vt 0.924302 0.026486
vt 0.980190 0.069840
vt 0.940596 0.094655
vt 0.978927 0.081104
vt 0.979363 0.092335
vt 0.980766 0.103505
vt 0.982956 0.114591
vt 0.951318 0.026094
vt 0.985089 0.047620
vt 0.985446 0.125791
vt 0.982270 0.058665
vt 0.988176 0.036568
s 1
usemtl Catenary
f 187/114/135 339/115/136 302/116/137
f 283/117/138 187/114/135 302/116/137
f 264/118/139 186/119/140 283/120/138
f 245/121/141 185/122/142 264/118/139
f 226/123/143 184/124/144 245/121/141
f 182/125/145 226/123/143 207/126/146
f 181/127/147 207/126/146 188/128/148
f 180/129/149 188/128/148 339/115/136
f 321/130/150 173/131/151 172/132/152
f 321/130/150 205/133/153 206/134/154
f 323/135/136 205/133/153 322/136/155
f 324/137/156 204/138/148 323/135/136
f 325/139/150 203/140/157 324/137/156
f 325/139/150 201/141/153 202/142/154
f 327/143/136 201/141/153 326/144/155
f 328/145/156 200/146/148 327/143/136
f 329/147/150 199/148/157 328/145/156
f 329/147/150 197/149/153 198/150/154
f 331/151/136 197/149/153 330/152/155
f 332/153/156 196/154/148 331/151/136
f 333/155/150 195/156/158 332/153/156
f 334/157/155 194/158/154 333/155/150
f 335/159/136 193/160/153 334/157/155
f 336/161/156 192/162/148 335/159/136
f 337/163/150 191/164/157 336/161/156
f 337/163/150 189/165/153 190/166/154
f 339/115/136 189/165/153 338/167/155
f 206/134/154 174/168/159 173/131/151
f 206/134/154 224/169/160 225/170/161
f 204/138/148 224/169/160 205/133/153
f 203/140/157 223/171/146 204/138/148
f 202/142/154 222/172/162 203/140/157
f 202/142/154 220/173/163 221/174/161
f 200/146/148 220/173/163 201/141/153
f 199/148/157 219/175/146 200/146/148
f 198/150/154 218/176/162 199/148/157
f 198/150/154 216/177/160 217/178/161
f 196/154/148 216/177/160 197/149/153
f 195/156/158 215/179/146 196/154/148
f 194/158/154 214/180/162 195/156/158
f 194/158/154 212/181/160 213/182/161
f 192/162/148 212/181/160 193/160/153
f 191/164/157 211/183/146 192/162/148
f 190/166/154 210/184/162 191/164/157
f 190/166/154 208/185/160 209/186/161
f 188/128/148 208/185/160 189/165/153
f 174/168/159 244/187/164 175/188/165
f 225/170/161 243/189/166 244/187/164
f 224/169/160 242/190/143 243/189/166
f 222/172/162 242/190/143 223/171/146
f 222/172/162 240/191/164 241/192/167
f 221/174/161 239/193/166 240/191/164
f 220/173/163 238/194/143 239/193/166
f 219/175/146 237/195/168 238/194/143
f 218/176/162 236/196/164 237/195/168
f 217/178/161 235/197/166 236/196/164
f 216/177/160 234/198/143 235/197/166
f 214/180/162 234/198/143 215/179/146
f 214/180/162 232/199/164 233/200/168
f 213/182/161 231/201/166 232/199/164
f 212/181/160 230/202/143 231/201/166
f 211/183/146 229/203/168 230/202/143
f 210/184/162 228/204/164 229/203/168
f 209/186/161 227/205/166 228/204/164
f 208/185/160 226/123/143 227/205/166
f 175/188/165 263/206/169 176/207/170
f 244/187/164 262/208/171 263/206/169
f 243/189/166 261/209/141 262/208/171
f 242/190/143 260/210/172 261/209/141
f 241/192/167 259/211/169 260/210/172
f 240/191/164 258/212/171 259/211/169
f 239/193/166 257/213/141 258/212/171
f 238/194/143 256/214/172 257/213/141
f 237/195/168 255/215/169 256/214/172
f 236/196/164 254/216/171 255/215/169
f 235/197/166 253/217/141 254/216/171
f 234/198/143 252/218/172 253/217/141
f 233/200/168 251/219/169 252/218/172
f 232/199/164 250/220/171 251/219/169
f 231/201/166 249/221/141 250/220/171
f 230/202/143 248/222/172 249/221/141
f 229/203/168 247/223/169 248/222/172
f 227/205/166 247/223/169 228/204/164
f 227/205/166 245/121/141 246/224/171
f 176/207/170 282/225/173 177/226/174
f 262/208/171 282/225/173 263/206/169
f 262/208/171 280/227/139 281/228/175
f 261/209/141 279/229/176 280/227/139
f 260/210/172 278/230/177 279/229/176
f 258/212/171 278/230/177 259/211/169
f 258/212/171 276/231/139 277/232/175
f 257/213/141 275/233/176 276/231/139
f 256/214/172 274/234/177 275/233/176
f 254/216/171 274/234/177 255/215/169
f 254/216/171 272/235/139 273/236/175
f 253/217/141 271/237/176 272/235/139
f 252/218/172 270/238/177 271/237/176
f 250/220/171 270/238/177 251/219/169
f 250/220/171 268/239/139 269/240/175
f 249/221/141 267/241/176 268/239/139
f 248/222/172 266/242/177 267/241/176
f 246/224/171 266/242/177 247/223/169
f 246/224/171 264/118/139 265/243/175
f 177/226/174 301/244/178 178/245/179
f 281/228/175 301/244/178 282/225/173
f 281/228/175 299/246/138 300/247/180
f 280/227/139 298/248/181 299/246/138
f 279/229/176 297/249/182 298/248/181
f 277/232/175 297/249/182 278/230/177
f 277/232/175 295/250/183 296/251/180
f 276/231/139 294/252/181 295/250/183
f 275/233/176 293/253/182 294/252/181
f 273/236/175 293/253/182 274/234/177
f 273/236/175 291/254/183 292/255/180
f 272/235/139 290/256/181 291/254/183
f 271/237/176 289/257/182 290/256/181
f 270/238/177 288/258/184 289/257/182
f 269/240/175 287/259/183 288/258/184
f 268/239/139 286/260/181 287/259/183
f 267/241/176 285/261/178 286/260/181
f 265/243/175 285/261/178 266/242/177
f 265/243/175 283/120/138 284/262/180
f 301/263/178 179/264/185 178/265/179
f 300/266/180 320/267/186 301/263/178
f 299/268/138 319/269/187 300/266/180
f 299/268/138 317/270/188 318/271/137
f 297/272/182 317/270/188 298/273/181
f 296/274/180 316/275/189 297/272/182
f 295/276/183 315/277/187 296/274/180
f 295/276/183 313/278/188 314/279/137
f 293/280/182 313/278/188 294/281/181
f 292/282/180 312/283/189 293/280/182
f 291/284/183 311/285/187 292/282/180
f 291/284/183 309/286/188 310/287/137
f 289/288/182 309/286/188 290/289/181
f 288/290/184 308/291/186 289/288/182
f 287/292/183 307/293/187 288/290/184
f 287/292/183 305/294/188 306/295/137
f 285/296/178 305/294/188 286/297/181
f 284/298/180 304/299/189 285/296/178
f 283/117/138 303/300/187 284/298/180
f 320/267/186 172/132/152 179/264/185
f 320/267/186 322/136/155 321/130/150
f 318/271/137 322/136/155 319/269/187
f 317/270/188 323/135/136 318/271/137
f 316/275/189 324/137/156 317/270/188
f 315/277/187 325/139/150 316/275/189
f 314/279/137 326/144/155 315/277/187
f 313/278/188 327/143/136 314/279/137
f 312/283/189 328/145/156 313/278/188
f 311/285/187 329/147/150 312/283/189
f 310/287/137 330/152/155 311/285/187
f 309/286/188 331/151/136 310/287/137
f 308/291/186 332/153/156 309/286/188
f 307/293/187 333/155/150 308/291/186
f 306/295/137 334/157/155 307/293/187
f 305/294/188 335/159/136 306/295/137
f 304/299/189 336/161/156 305/294/188
f 304/299/189 338/167/155 337/163/150
f 302/116/137 338/167/155 303/300/187
f 180/129/149 341/301/190 181/127/147
f 183/302/191 342/303/192 343/304/193
f 185/122/142 344/305/194 345/306/195
f 186/307/140 347/308/196 187/114/135
f 181/127/147 342/303/192 182/125/145
f 184/124/144 343/304/193 344/305/194
f 186/119/140 345/306/195 346/309/197
f 187/114/135 340/310/198 180/129/149
f 187/114/135 180/129/149 339/115/136
f 283/117/138 186/307/140 187/114/135
f 264/118/139 185/122/142 186/119/140
f 245/121/141 184/124/144 185/122/142
f 226/123/143 183/302/191 184/124/144
f 182/125/145 183/302/191 226/123/143
f 181/127/147 182/125/145 207/126/146
f 180/129/149 181/127/147 188/128/148
f 321/130/150 206/134/154 173/131/151
f 321/130/150 322/136/155 205/133/153
f 323/135/136 204/138/148 205/133/153
f 324/137/156 203/140/157 204/138/148
f 325/139/150 202/142/154 203/140/157
f 325/139/150 326/144/155 201/141/153
f 327/143/136 200/146/148 201/141/153
f 328/145/156 199/148/157 200/146/148
f 329/147/150 198/150/154 199/148/157
f 329/147/150 330/152/155 197/149/153
f 331/151/136 196/154/148 197/149/153
f 332/153/156 195/156/158 196/154/148
f 333/155/150 194/158/154 195/156/158
f 334/157/155 193/160/153 194/158/154
f 335/159/136 192/162/148 193/160/153
f 336/161/156 191/164/157 192/162/148
f 337/163/150 190/166/154 191/164/157
f 337/163/150 338/167/155 189/165/153
f 339/115/136 188/128/148 189/165/153
f 206/134/154 225/170/161 174/168/159
f 206/134/154 205/133/153 224/169/160
f 204/138/148 223/171/146 224/169/160
f 203/140/157 222/172/162 223/171/146
f 202/142/154 221/174/161 222/172/162
f 202/142/154 201/141/153 220/173/163
f 200/146/148 219/175/146 220/173/163
f 199/148/157 218/176/162 219/175/146
f 198/150/154 217/178/161 218/176/162
f 198/150/154 197/149/153 216/177/160
f 196/154/148 215/179/146 216/177/160
f 195/156/158 214/180/162 215/179/146
f 194/158/154 213/182/161 214/180/162
f 194/158/154 193/160/153 212/181/160
f 192/162/148 211/183/146 212/181/160
f 191/164/157 210/184/162 211/183/146
f 190/166/154 209/186/161 210/184/162
f 190/166/154 189/165/153 208/185/160
f 188/128/148 207/126/146 208/185/160
f 174/168/159 225/170/161 244/187/164
f 225/170/161 224/169/160 243/189/166
f 224/169/160 223/171/146 242/190/143
f 222/172/162 241/192/167 242/190/143
f 222/172/162 221/174/161 240/191/164
f 221/174/161 220/173/163 239/193/166
f 220/173/163 219/175/146 238/194/143
f 219/175/146 218/176/162 237/195/168
f 218/176/162 217/178/161 236/196/164
f 217/178/161 216/177/160 235/197/166
f 216/177/160 215/179/146 234/198/143
f 214/180/162 233/200/168 234/198/143
f 214/180/162 213/182/161 232/199/164
f 213/182/161 212/181/160 231/201/166
f 212/181/160 211/183/146 230/202/143
f 211/183/146 210/184/162 229/203/168
f 210/184/162 209/186/161 228/204/164
f 209/186/161 208/185/160 227/205/166
f 208/185/160 207/126/146 226/123/143
f 175/188/165 244/187/164 263/206/169
f 244/187/164 243/189/166 262/208/171
f 243/189/166 242/190/143 261/209/141
f 242/190/143 241/192/167 260/210/172
f 241/192/167 240/191/164 259/211/169
f 240/191/164 239/193/166 258/212/171
f 239/193/166 238/194/143 257/213/141
f 238/194/143 237/195/168 256/214/172
f 237/195/168 236/196/164 255/215/169
f 236/196/164 235/197/166 254/216/171
f 235/197/166 234/198/143 253/217/141
f 234/198/143 233/200/168 252/218/172
f 233/200/168 232/199/164 251/219/169
f 232/199/164 231/201/166 250/220/171
f 231/201/166 230/202/143 249/221/141
f 230/202/143 229/203/168 248/222/172
f 229/203/168 228/204/164 247/223/169
f 227/205/166 246/224/171 247/223/169
f 227/205/166 226/123/143 245/121/141
f 176/207/170 263/206/169 282/225/173
f 262/208/171 281/228/175 282/225/173
f 262/208/171 261/209/141 280/227/139
f 261/209/141 260/210/172 279/229/176
f 260/210/172 259/211/169 278/230/177
f 258/212/171 277/232/175 278/230/177
f 258/212/171 257/213/141 276/231/139
f 257/213/141 256/214/172 275/233/176
f 256/214/172 255/215/169 274/234/177
f 254/216/171 273/236/175 274/234/177
f 254/216/171 253/217/141 272/235/139
f 253/217/141 252/218/172 271/237/176
f 252/218/172 251/219/169 270/238/177
f 250/220/171 269/240/175 270/238/177
f 250/220/171 249/221/141 268/239/139
f 249/221/141 248/222/172 267/241/176
f 248/222/172 247/223/169 266/242/177
f 246/224/171 265/243/175 266/242/177
f 246/224/171 245/121/141 264/118/139
f 177/226/174 282/225/173 301/244/178
f 281/228/175 300/247/180 301/244/178
f 281/228/175 280/227/139 299/246/138
f 280/227/139 279/229/176 298/248/181
f 279/229/176 278/230/177 297/249/182
f 277/232/175 296/251/180 297/249/182
f 277/232/175 276/231/139 295/250/183
f 276/231/139 275/233/176 294/252/181
f 275/233/176 274/234/177 293/253/182
f 273/236/175 292/255/180 293/253/182
f 273/236/175 272/235/139 291/254/183
f 272/235/139 271/237/176 290/256/181
f 271/237/176 270/238/177 289/257/182
f 270/238/177 269/240/175 288/258/184
f 269/240/175 268/239/139 287/259/183
f 268/239/139 267/241/176 286/260/181
f 267/241/176 266/242/177 285/261/178
f 265/243/175 284/262/180 285/261/178
f 265/243/175 264/118/139 283/120/138
f 301/263/178 320/267/186 179/264/185
f 300/266/180 319/269/187 320/267/186
f 299/268/138 318/271/137 319/269/187
f 299/268/138 298/273/181 317/270/188
f 297/272/182 316/275/189 317/270/188
f 296/274/180 315/277/187 316/275/189
f 295/276/183 314/279/137 315/277/187
f 295/276/183 294/281/181 313/278/188
f 293/280/182 312/283/189 313/278/188
f 292/282/180 311/285/187 312/283/189
f 291/284/183 310/287/137 311/285/187
f 291/284/183 290/289/181 309/286/188
f 289/288/182 308/291/186 309/286/188
f 288/290/184 307/293/187 308/291/186
f 287/292/183 306/295/137 307/293/187
f 287/292/183 286/297/181 305/294/188
f 285/296/178 304/299/189 305/294/188
f 284/298/180 303/300/187 304/299/189
f 283/117/138 302/116/137 303/300/187
f 320/267/186 321/130/150 172/132/152
f 320/267/186 319/269/187 322/136/155
f 318/271/137 323/135/136 322/136/155
f 317/270/188 324/137/156 323/135/136
f 316/275/189 325/139/150 324/137/156
f 315/277/187 326/144/155 325/139/150
f 314/279/137 327/143/136 326/144/155
f 313/278/188 328/145/156 327/143/136
f 312/283/189 329/147/150 328/145/156
f 311/285/187 330/152/155 329/147/150
f 310/287/137 331/151/136 330/152/155
f 309/286/188 332/153/156 331/151/136
f 308/291/186 333/155/150 332/153/156
f 307/293/187 334/157/155 333/155/150
f 306/295/137 335/159/136 334/157/155
f 305/294/188 336/161/156 335/159/136
f 304/299/189 337/163/150 336/161/156
f 304/299/189 303/300/187 338/167/155
f 302/116/137 339/115/136 338/167/155
f 180/129/149 340/310/198 341/301/190
f 183/302/191 182/125/145 342/303/192
f 185/122/142 184/124/144 344/305/194
f 186/307/140 346/311/197 347/308/196
f 181/127/147 341/301/190 342/303/192
f 184/124/144 183/302/191 343/304/193
f 186/119/140 185/122/142 345/306/195
f 187/114/135 347/308/196 340/310/198
