# Blender 5.0.1
# www.blender.org
mtllib registration_bracket.mtl
o RegistrationBracket
g registration_bracket
v 2.103354 6.253494 0.020175
v 1.819972 7.334774 0.020175
v 2.103354 6.253494 -0.020175
v 1.819972 7.334774 -0.020175
v 2.296646 6.253494 0.020175
v 2.580028 7.334774 0.020175
v 2.296646 6.253494 -0.020175
v 2.580028 7.334774 -0.020175
v 2.103354 6.500959 0.020175
v 2.103354 6.500959 -0.020175
v 2.296646 6.500959 -0.020175
v 2.296646 6.500959 0.020175
v 1.944192 7.334774 -0.020175
v 2.200000 6.596334 -0.020175
v 2.455809 7.334774 -0.020175
v 2.455809 7.334774 0.020175
v 2.200000 6.596334 0.020175
v 1.944192 7.334774 0.020175
v 2.200000 6.253494 -0.020175
v 2.200000 6.253494 0.020175
vn -0.9468 -0.3218 -0.0000
vn -0.0000 -0.0000 -1.0000
vn 0.9468 -0.3218 -0.0000
vn -0.0000 -0.0000 1.0000
vn -0.0000 -1.0000 -0.0000
vn -0.0000 1.0000 -0.0000
vn 1.0000 -0.0000 -0.0000
vn -1.0000 -0.0000 -0.0000
vn -0.9449 0.3273 -0.0000
vn 0.9449 0.3273 -0.0000
vt 0.512690 0.625508
vt 0.529781 0.272340
vt 0.512690 0.268465
vt 0.602537 0.000000
vt 0.568363 0.237868
vt 0.568362 -0.016280
vt 0.529781 0.625508
vt 0.512690 0.272340
vt 0.602537 0.000000
vt 0.568362 -0.016280
vt 0.529781 0.167525
vt 0.512690 0.167525
vt 0.532019 0.414207
vt 0.513409 0.488646
vt 0.513409 0.414207
vt 0.602539 0.000001
vt 0.568362 0.080068
vt 0.568362 0.000001
vt 0.602539 0.000000
vt 0.568362 0.080068
vt 0.568362 0.000000
vt 0.532503 0.414207
vt 0.513893 0.488646
vt 0.513893 0.414207
vt 0.529781 0.312737
vt 0.512690 0.312737
vt 0.568358 0.079930
vt 0.534182 0.000000
vt 0.568358 0.000000
vt 0.568360 0.237815
vt 0.534186 0.000000
vt 0.568358 -0.016280
vt 0.568358 0.079930
vt 0.534182 0.000001
vt 0.568358 0.000001
vt 0.568360 0.237815
vt 0.534186 0.000000
vt 0.602537 0.000001
vt 0.602533 0.237709
vt 0.534184 0.237815
vt 0.602533 0.237709
vt 0.534184 0.237815
vt 0.602539 0.112020
vt 0.534182 0.108738
vt 0.532019 0.488646
vt 0.602539 0.112020
vt 0.532503 0.488646
vt 0.534182 0.108738
s 0
usemtl Catenary
f 2/1/1 10/2/1 9/3/1
f 14/4/2 8/5/2 11/6/2
f 8/7/3 12/8/3 11/2/3
f 17/9/4 2/5/4 9/10/4
f 7/11/5 20/12/5 19/11/5
f 4/13/6 18/14/6 13/15/6
f 20/16/4 9/17/4 1/18/4
f 11/2/7 5/12/7 7/11/7
f 19/19/2 11/20/2 7/21/2
f 9/3/8 3/11/8 1/12/8
f 15/22/6 6/23/6 8/24/6
f 14/25/9 16/1/9 15/7/9
f 13/7/10 17/26/10 14/25/10
f 19/11/5 1/12/5 3/11/5
f 10/27/2 19/28/2 3/29/2
f 4/30/2 14/31/2 10/32/2
f 12/33/4 20/34/4 5/35/4
f 6/36/4 17/37/4 12/32/4
f 17/38/4 18/39/4 2/5/4
f 6/36/4 16/40/4 17/37/4
f 14/4/2 15/41/2 8/5/2
f 4/30/2 13/42/2 14/31/2
f 20/16/4 17/43/4 9/17/4
f 12/33/4 17/44/4 20/34/4
f 2/1/1 4/7/1 10/2/1
f 8/7/3 6/1/3 12/8/3
f 7/11/5 5/12/5 20/12/5
f 4/13/6 2/45/6 18/14/6
f 11/2/7 12/8/7 5/12/7
f 19/19/2 14/46/2 11/20/2
f 9/3/8 10/2/8 3/11/8
f 15/22/6 16/47/6 6/23/6
f 14/25/9 17/26/9 16/1/9
f 13/7/10 18/1/10 17/26/10
f 19/11/5 20/12/5 1/12/5
f 10/27/2 14/48/2 19/28/2
