# Blender 5.0.1
# www.blender.org
mtllib registration_arm_middle_inner_single.mtl
o RegistrationArmMiddleInnerSingle
g registration_arm_middle_inner_single
v 1.804528 6.358242 0.011397
v 1.804528 6.369555 0.016083
v 1.804528 6.358242 -0.011230
v 1.804528 6.369555 -0.015917
v 1.804528 6.380869 -0.011230
v 1.804527 6.385555 0.000083
v 1.804528 6.380869 0.011397
v 1.804528 6.353556 0.000083
v -0.100515 6.358242 0.011258
v -0.100515 6.369555 0.015944
v -0.100515 6.358242 -0.011370
v -0.100515 6.385555 -0.000056
v -0.100515 6.380869 0.011258
v -0.100515 6.353556 -0.000056
v -0.100515 6.369555 -0.016056
v -0.100515 6.380869 -0.011370
v 0.632757 6.358242 -0.011370
v 0.632757 6.369555 -0.016056
v 0.632757 6.358242 0.011258
v 0.632757 6.385555 -0.000056
v 0.632757 6.380869 -0.011370
v 0.009118 6.000000 -0.006696
v 0.707019 6.301972 -0.006696
v 0.350118 6.200000 -0.006696
v -0.008885 6.019967 -0.006696
v 0.700118 6.329857 -0.006696
v 0.334469 6.223782 -0.006696
v -0.008885 6.000000 -0.006696
v 0.350118 6.200000 -0.002696
v 0.707019 6.301972 -0.002696
v 0.009118 6.000000 -0.002696
v 0.334469 6.223782 -0.002696
v 0.700118 6.329857 -0.002696
v -0.008885 6.019967 -0.002696
v -0.008885 6.000000 -0.002696
v 0.633154 6.310431 -0.002696
v 0.633236 6.301970 0.002304
v 0.632758 6.350000 -0.002416
v 0.732759 6.350000 -0.002416
v 0.632758 6.350000 0.002584
v 0.732759 6.350000 0.002584
v 0.732465 6.301970 -0.002696
v 0.732465 6.301970 0.002304
v 0.633236 6.301970 -0.002696
v 0.732759 6.370000 0.020084
v 0.632758 6.370000 0.020084
v 0.732759 6.355858 0.014226
v 0.632758 6.355858 0.014226
v 0.732759 6.355858 -0.014058
v 0.632758 6.355858 -0.014058
v 0.732759 6.370000 -0.019916
v 0.632758 6.370000 -0.019916
v 0.732759 6.384142 -0.014058
v 0.632758 6.384142 -0.014058
v 0.732759 6.390000 0.000084
v 0.632758 6.390000 0.000084
v 0.732759 6.384142 0.014226
v 0.632758 6.384142 0.014226
v 0.632757 6.353556 -0.000056
v 0.732759 6.353556 0.000084
v 0.732759 6.369555 0.016084
v 0.732759 6.358242 0.011398
v 0.632757 6.369555 0.015944
v 0.732759 6.358242 -0.011230
v 0.732759 6.369555 -0.015916
v 0.732759 6.380869 -0.011230
v 0.732759 6.385555 0.000084
v 0.732759 6.380869 0.011398
v 0.632757 6.380869 0.011258
vn -0.0000 -1.0000 -0.0005
vn -0.0000 -1.0000 -0.0000
vn -0.0000 1.0000 -0.0000
vn 0.0001 0.7071 -0.7071
vn 0.0001 -0.7071 -0.7071
vn 0.0001 -0.0000 -1.0000
vn -0.0001 0.7071 0.7071
vn -0.0001 -0.0000 1.0000
vn -0.0000 -0.0058 1.0000
vn -0.0001 -0.7071 0.7071
vn 1.0000 -0.0000 -0.0000
vn -0.0000 -0.0000 -1.0000
vn -0.0000 -0.0000 1.0000
vn -0.5104 0.8599 -0.0000
vn 0.5059 -0.8626 -0.0000
vn 0.9707 0.2402 -0.0000
vn -0.2786 0.9604 -0.0000
vn -0.2786 0.9604 -0.0002
vn 0.2747 -0.9615 -0.0000
vn -1.0000 -0.0000 -0.0000
vn -1.0000 -0.0000 0.0002
vn -1.0000 0.0002 0.0001
vn -1.0000 0.0002 0.0002
vn 0.0011 0.0091 -1.0000
vn -0.0017 0.0083 -1.0000
vn 0.0032 0.0087 -1.0000
vn -0.0000 -0.6807 0.7326
vn -0.0000 -0.8933 0.4495
vn -0.0000 -0.8933 -0.4495
vn -0.0000 -0.6807 -0.7326
vn -0.0000 0.7071 -0.7071
vn -0.0000 0.7071 0.7071
vn -1.0000 -0.0038 -0.0000
vn -1.0000 -0.0002 -0.0002
vn -0.0001 -1.0000 -0.0000
vn 1.0000 -0.0061 -0.0000
vn 1.0000 -0.0023 -0.0000
vn -1.0000 -0.0000 -0.0003
vn -1.0000 -0.0000 -0.0002
vn -1.0000 -0.0099 -0.0001
vn -1.0000 -0.0099 -0.0000
vn -1.0000 -0.0037 -0.0000
vn -0.9995 -0.0098 -0.0295
vn -1.0000 -0.0002 0.0002
vn -1.0000 -0.0003 0.0001
vn -1.0000 0.0002 -0.0001
vn -1.0000 0.0002 -0.0000
vn 0.0027 0.0032 -1.0000
vn -0.0020 0.0071 -1.0000
vt 0.969856 0.000273
vt 0.973356 0.014273
vt 0.975106 0.007273
vt 0.975106 0.014273
vt 0.978606 0.014273
vt 0.976856 0.007273
vt 0.978606 0.007273
vt 0.971606 0.007273
vt 0.969856 0.014273
vt 0.969856 0.007273
vt 0.971606 0.014273
vt 0.973356 0.007273
vt 0.982106 0.014273
vt 0.980356 0.007273
vt 0.982106 0.007273
vt 0.980356 0.014273
vt 0.983856 0.014273
vt 0.983856 0.007273
vt 0.976856 0.014273
s 1
usemtl Catenary
f 30/1/1 43/1/2 44/1/2
f 12/2/3 5/3/4 16/4/4
f 11/5/5 4/6/6 3/7/5
f 7/8/7 10/9/8 2/10/8
f 41/1/9 37/1/9 43/1/9
f 13/11/7 6/12/3 12/2/3
f 9/13/10 8/14/2 1/15/10
f 3/7/5 14/16/2 11/5/5
f 49/7/11 51/6/11 64/7/11
f 27/1/12 23/1/12 24/1/12
f 29/1/13 44/1/13 32/1/13
f 34/1/14 27/1/14 25/1/14
f 29/1/15 22/1/15 24/1/15
f 33/1/16 23/1/16 26/1/16
f 32/1/17 36/1/18 26/1/17
f 30/1/19 24/1/19 23/1/19
f 35/1/20 25/1/20 28/1/20
f 46/9/21 58/11/22 69/11/23
f 4/6/6 16/4/4 5/3/4
f 33/1/24 38/1/25 39/1/26
f 46/17/13 47/15/27 45/18/13
f 48/13/27 41/14/28 47/15/27
f 38/16/29 49/7/30 39/14/29
f 50/5/30 51/6/12 49/7/30
f 52/19/12 53/3/31 51/6/12
f 54/4/31 55/12/3 53/3/31
f 56/2/3 57/8/32 55/12/3
f 58/11/32 45/10/13 57/8/32
f 10/17/8 1/15/10 2/18/8
f 45/18/11 62/15/11 61/10/11
f 38/16/33 17/5/34 50/5/34
f 16/4/20 11/5/20 9/13/20
f 30/1/1 42/1/35 43/1/2
f 43/1/2 37/1/2 44/1/2
f 12/2/3 6/12/3 5/3/4
f 11/5/5 15/19/6 4/6/6
f 7/8/7 13/11/7 10/9/8
f 41/1/9 40/1/9 37/1/9
f 13/11/7 7/8/7 6/12/3
f 9/13/10 14/16/2 8/14/2
f 3/7/5 8/14/2 14/16/2
f 55/12/11 57/8/11 68/8/11
f 55/12/11 68/8/11 67/12/11
f 43/1/36 42/1/36 39/14/37
f 62/15/11 47/15/11 41/1/37
f 41/1/37 43/1/36 39/14/37
f 53/3/11 55/12/11 67/12/11
f 53/3/11 67/12/11 66/3/11
f 41/1/37 39/14/37 49/7/11
f 60/14/11 62/15/11 41/1/37
f 64/7/11 60/14/11 41/1/37
f 51/6/11 53/3/11 66/3/11
f 51/6/11 66/3/11 65/6/11
f 64/7/11 41/1/37 49/7/11
f 51/6/11 65/6/11 64/7/11
f 24/1/12 22/1/12 28/1/12
f 28/1/12 25/1/12 27/1/12
f 27/1/12 26/1/12 23/1/12
f 24/1/12 28/1/12 27/1/12
f 32/1/13 34/1/13 35/1/13
f 35/1/13 31/1/13 29/1/13
f 29/1/13 30/1/13 44/1/13
f 44/1/13 36/1/13 32/1/13
f 32/1/13 35/1/13 29/1/13
f 34/1/14 32/1/14 27/1/14
f 29/1/15 31/1/15 22/1/15
f 33/1/16 30/1/16 23/1/16
f 26/1/17 27/1/17 32/1/17
f 36/1/18 33/1/17 26/1/17
f 30/1/19 29/1/19 24/1/19
f 35/1/20 34/1/20 25/1/20
f 52/19/38 50/5/34 17/5/34
f 52/19/38 17/5/34 18/19/39
f 44/1/40 37/1/41 40/16/42
f 38/1/33 36/1/43 44/1/40
f 19/13/44 59/1/45 38/1/33
f 38/1/33 44/1/40 40/16/42
f 54/4/46 52/19/38 18/19/39
f 54/4/46 18/19/39 21/4/46
f 38/1/33 40/16/42 48/13/44
f 19/13/44 38/1/33 48/13/44
f 56/2/47 54/4/46 21/4/46
f 56/2/47 21/4/46 20/2/47
f 19/13/44 48/13/44 46/9/21
f 63/17/21 19/13/44 46/9/21
f 58/11/22 56/2/47 20/2/47
f 69/11/23 63/17/21 46/9/21
f 58/11/22 20/2/47 69/11/23
f 4/6/6 15/19/6 16/4/4
f 42/1/48 30/1/12 33/1/24
f 33/1/24 36/1/49 38/1/25
f 39/1/26 42/1/48 33/1/24
f 46/17/13 48/13/27 47/15/27
f 48/13/27 40/16/28 41/14/28
f 38/16/29 50/5/30 49/7/30
f 50/5/30 52/19/12 51/6/12
f 52/19/12 54/4/31 53/3/31
f 54/4/31 56/2/3 55/12/3
f 56/2/3 58/11/32 57/8/32
f 58/11/32 46/9/13 45/10/13
f 10/17/8 9/13/10 1/15/10
f 68/8/11 57/8/11 45/18/11
f 45/18/11 47/15/11 62/15/11
f 61/10/11 68/8/11 45/18/11
f 38/16/33 59/16/45 17/5/34
f 9/13/20 10/9/20 13/11/20
f 13/11/20 12/2/20 16/4/20
f 16/4/20 15/19/20 11/5/20
f 11/5/20 14/16/20 9/13/20
f 9/13/20 13/11/20 16/4/20
o GantryInsulator.007
v -0.000000 7.039817 -0.008762
v 0.000000 7.054616 -0.102362
v 0.000000 7.130641 -0.022523
v 0.000000 7.140331 -0.102362
v -0.000000 7.216355 -0.038935
v 0.027709 7.216355 -0.027457
v 0.070711 7.140331 -0.073072
v 0.014843 7.130641 -0.016375
v 0.070711 7.054616 -0.073072
v 0.006374 7.039817 -0.006122
v 0.039187 7.216355 0.000252
v 0.100000 7.140331 -0.002362
v 0.020992 7.130641 -0.001531
v 0.100000 7.054616 -0.002362
v 0.009014 7.039817 0.000252
v 0.027709 7.216355 0.027961
v 0.070711 7.140331 0.068349
v 0.014040 7.130641 0.014596
v 0.070711 7.054616 0.068349
v 0.006374 7.039817 0.006626
v -0.000000 7.216355 0.039439
v 0.000000 7.140331 0.097638
v 0.000000 7.130641 0.020487
v 0.000000 7.054616 0.097638
v -0.000000 7.039817 0.009266
v -0.027709 7.216355 0.027961
v -0.070711 7.140331 0.068349
v -0.014040 7.130641 0.014596
v -0.070711 7.054616 0.068349
v -0.006374 7.039817 0.006626
v -0.039187 7.216355 0.000252
v -0.100000 7.140331 -0.002362
v -0.020992 7.130641 -0.001531
v -0.100000 7.054616 -0.002362
v -0.009014 7.039817 0.000252
v -0.027709 7.216355 -0.027457
v -0.070711 7.140331 -0.073072
v -0.014843 7.130641 -0.016375
v -0.070711 7.054616 -0.073072
v -0.006374 7.039817 -0.006122
v -0.000000 7.216355 -0.018017
v 0.012918 7.216355 -0.012666
v 0.018269 7.216355 0.000252
v 0.012918 7.216355 0.013170
v -0.000000 7.216355 0.018521
v -0.012918 7.216355 0.013170
v -0.018269 7.216355 0.000252
v -0.012918 7.216355 -0.012666
v -0.000000 7.334884 -0.018017
v 0.012918 7.334884 -0.012666
v 0.018269 7.334884 0.000252
v 0.012918 7.334884 0.013170
v -0.000000 7.334884 0.018521
v -0.012918 7.334884 0.013170
v -0.018269 7.334884 0.000252
v -0.012918 7.334884 -0.012666
v -0.000000 7.350073 0.000252
v 0.018269 7.350073 0.000252
v -0.018269 7.350073 0.000252
v -0.012918 7.334884 0.034277
v -0.018269 7.334884 0.021358
v -0.000000 7.334884 0.039627
v 0.012918 7.334884 0.034277
v 0.018269 7.334884 0.021358
v -0.012918 7.350073 0.034277
v -0.018269 7.350073 0.021358
v -0.000000 7.350073 0.039627
v 0.012918 7.350073 0.034277
v 0.018269 7.350073 0.021358
v -0.012918 7.334884 -0.034282
v -0.000000 7.334884 -0.039633
v -0.018269 7.334884 -0.021364
v 0.012918 7.334884 -0.034282
v 0.018269 7.334884 -0.021364
v -0.012918 7.350073 -0.034282
v -0.000000 7.350073 -0.039633
v -0.018269 7.350073 -0.021364
v 0.012918 7.350073 -0.034282
v 0.018269 7.350073 -0.021364
v -0.000000 6.379152 -0.008762
v 0.006374 6.379152 -0.006122
v 0.009014 6.379152 0.000252
v 0.006374 6.379152 0.006626
v -0.000000 6.379152 0.009266
v -0.006374 6.379152 0.006626
v -0.009014 6.379152 0.000252
v -0.006374 6.379152 -0.006122
vn -0.1109 -0.9875 -0.1117
vn -0.0000 -0.9877 -0.1562
vn -0.1122 -0.9875 -0.1105
vn -0.4879 0.7231 -0.4889
vn -0.0000 0.7242 -0.6896
vn -0.0853 -0.9927 -0.0856
vn -0.0000 -0.9927 -0.1205
vn -0.0857 -0.9927 -0.0852
vn -0.5436 0.6361 -0.5477
vn -0.0000 0.6406 -0.7679
vn -0.1605 -0.9870 -0.0008
vn -0.1606 -0.9870 0.0017
vn -0.6934 0.7206 -0.0010
vn -0.4893 0.7231 -0.4875
vn -0.1217 -0.9926 -0.0002
vn -0.1213 -0.9926 0.0010
vn -0.7808 0.6247 -0.0042
vn -0.5489 0.6360 -0.5424
vn -0.1162 -0.9865 0.1154
vn -0.1149 -0.9865 0.1167
vn -0.4952 0.7160 0.4921
vn -0.6917 0.7222 0.0052
vn -0.0876 -0.9924 0.0869
vn -0.0857 -0.9924 0.0888
vn -0.5609 0.6129 0.5566
vn -0.7810 0.6245 0.0066
vn -0.0000 -0.9863 0.1652
vn -0.0000 0.7126 0.7016
vn -0.4872 0.7158 0.5003
vn -0.0000 -0.9922 0.1245
vn -0.0000 -0.9922 0.1246
vn -0.0000 0.6079 0.7940
vn -0.5554 0.6128 0.5621
vn 0.1149 -0.9865 0.1167
vn 0.4872 0.7158 0.5003
vn 0.4952 0.7160 0.4921
vn 0.0857 -0.9924 0.0888
vn 0.5554 0.6128 0.5621
vn 0.5609 0.6129 0.5566
vn 0.1606 -0.9870 0.0017
vn 0.1162 -0.9865 0.1154
vn 0.6917 0.7222 0.0052
vn 0.6934 0.7206 -0.0010
vn 0.1213 -0.9926 0.0010
vn 0.0876 -0.9924 0.0869
vn 0.7810 0.6245 0.0066
vn 0.7808 0.6247 -0.0042
vn 0.1122 -0.9875 -0.1105
vn 0.1605 -0.9870 -0.0008
vn 0.4893 0.7231 -0.4875
vn 0.4879 0.7231 -0.4889
vn 0.0857 -0.9927 -0.0852
vn 0.1217 -0.9926 -0.0002
vn 0.5489 0.6360 -0.5424
vn 0.5436 0.6361 -0.5477
vn 0.1109 -0.9875 -0.1117
vn 0.0853 -0.9927 -0.0856
vn -0.0000 0.7123 0.7019
vn -0.0000 1.0000 -0.0000
vn 0.7071 -0.0000 0.7071
vn -0.0000 -0.0000 1.0000
vn -0.7071 -0.0000 0.7071
vn -1.0000 -0.0000 -0.0000
vn -0.7071 -0.0000 -0.7071
vn -0.0000 -0.0000 -1.0000
vn 0.7071 -0.0000 -0.7071
vn 1.0000 -0.0000 -0.0000
vn 0.9701 -0.2425 -0.0000
vn 0.9808 -0.0000 -0.1951
vn -0.0000 -1.0000 -0.0000
vn 0.7319 -0.6657 0.1456
vn -0.9808 -0.0000 0.1951
vn -0.7319 -0.6657 0.1456
vn -0.9701 -0.2425 -0.0000
vn 0.7319 -0.6657 -0.1456
vn -0.7319 -0.6657 -0.1456
vn 0.9808 -0.0000 0.1951
vn -0.9808 -0.0000 -0.1951
vt 0.959703 0.009387
vt 0.960882 0.008099
vt 0.960684 0.009187
vt 0.957954 0.007566
vt 0.960035 0.007566
vt 0.962915 0.005744
vt 0.961736 0.007033
vt 0.961934 0.005945
vt 0.964664 0.007566
vt 0.962584 0.007566
vt 0.958751 0.010974
vt 0.960309 0.010184
vt 0.959740 0.011133
vt 0.957756 0.008654
vt 0.963867 0.004157
vt 0.962309 0.004947
vt 0.962878 0.003998
vt 0.964862 0.006477
vt 0.957301 0.012125
vt 0.959037 0.011934
vt 0.958171 0.012621
vt 0.957187 0.009603
vt 0.965317 0.003006
vt 0.963581 0.003197
vt 0.964447 0.002510
vt 0.965431 0.005529
vt 0.955539 0.012691
vt 0.957231 0.013124
vt 0.956177 0.013462
vt 0.956321 0.010290
vt 0.967079 0.002440
vt 0.965388 0.002008
vt 0.966441 0.001669
vt 0.966297 0.004841
vt 0.957231 0.002008
vt 0.955539 0.002440
vt 0.956177 0.001669
vt 0.956321 0.004841
vt 0.957301 0.003006
vt 0.965388 0.013124
vt 0.967079 0.012691
vt 0.966441 0.013462
vt 0.966297 0.010290
vt 0.965317 0.012125
vt 0.959037 0.003197
vt 0.958171 0.002510
vt 0.957187 0.005529
vt 0.958751 0.004157
vt 0.963581 0.011934
vt 0.964447 0.012621
vt 0.965431 0.009603
vt 0.963867 0.010974
vt 0.960309 0.004947
vt 0.959740 0.003998
vt 0.957756 0.006477
vt 0.959703 0.005744
vt 0.962309 0.010184
vt 0.962878 0.011133
vt 0.964862 0.008654
vt 0.962915 0.009387
vt 0.960882 0.007033
vt 0.960684 0.005945
vt 0.961736 0.008099
vt 0.961934 0.009187
vt 0.955268 0.010628
vt 0.967350 0.004503
vt 0.955268 0.004503
vt 0.967350 0.010628
vt 0.981114 0.009656
vt 0.982013 0.009945
vt 0.981114 0.005003
vt 0.980374 0.005590
vt 0.979888 0.006400
vt 0.979719 0.007329
vt 0.979888 0.008259
vt 0.980374 0.009069
vt 0.982013 0.004714
vt 0.924092 -0.341471
vt 0.974914 0.011060
vt 0.974174 0.011647
vt 0.975514 0.004283
vt 0.976000 0.005093
vt 0.973371 0.012076
vt 0.972472 0.012365
vt 0.976321 0.005945
vt 0.976490 0.006874
vt 0.976490 0.007784
vt 0.976321 0.008714
vt 0.972472 0.002294
vt 0.973371 0.002583
vt 0.976000 0.009566
vt 0.975514 0.010376
vt 0.974174 0.003012
vt 0.974914 0.003599
s 1
usemtl Catenary
f 108/20/50 70/21/51 109/22/52
f 108/20/53 72/23/54 71/24/54
f 106/25/55 72/26/56 107/27/57
f 106/25/58 74/28/59 73/29/59
f 103/30/60 109/31/52 104/32/61
f 103/30/62 107/33/63 108/20/53
f 101/34/64 107/35/57 102/36/65
f 101/34/66 105/37/67 106/25/58
f 98/38/68 104/39/61 99/40/69
f 98/38/70 102/41/71 103/30/62
f 96/42/72 102/43/65 97/44/73
f 96/42/74 100/45/75 101/34/66
f 93/46/76 99/47/69 94/48/76
f 93/46/77 97/49/78 98/38/70
f 91/50/79 97/51/73 92/52/80
f 91/50/81 95/53/82 96/42/74
f 89/54/83 93/55/76 94/56/76
f 87/57/84 93/55/77 88/58/85
f 87/59/86 91/60/79 92/61/80
f 85/62/87 91/60/81 86/63/88
f 84/64/89 88/58/90 89/65/83
f 82/66/91 88/58/85 83/67/92
f 82/68/93 86/63/94 87/69/86
f 80/70/95 86/63/88 81/71/96
f 79/72/97 83/67/98 84/73/89
f 77/74/99 83/67/92 78/75/100
f 77/76/101 81/71/102 82/77/93
f 75/78/103 81/71/96 76/79/104
f 70/80/51 78/75/105 79/81/97
f 72/23/54 78/75/100 71/24/54
f 72/82/56 76/79/106 77/83/101
f 74/28/59 76/79/104 73/29/59
f 108/20/50 71/24/51 70/21/51
f 108/20/53 107/33/63 72/23/54
f 106/25/55 73/29/56 72/26/56
f 106/25/58 105/37/67 74/28/59
f 103/30/60 108/20/50 109/31/52
f 103/30/62 102/41/71 107/33/63
f 101/34/64 106/25/55 107/35/57
f 101/34/66 100/45/75 105/37/67
f 98/38/68 103/30/60 104/39/61
f 98/38/70 97/49/78 102/41/71
f 96/42/72 101/34/64 102/43/65
f 96/42/74 95/53/82 100/45/75
f 93/46/76 98/38/68 99/47/69
f 93/46/77 92/84/107 97/49/78
f 91/50/79 96/42/72 97/51/73
f 91/50/81 90/85/81 95/53/82
f 89/54/83 88/58/90 93/55/76
f 87/57/84 92/86/107 93/55/77
f 87/59/86 86/63/94 91/60/79
f 85/62/87 90/87/81 91/60/81
f 84/64/89 83/67/98 88/58/90
f 82/66/91 87/57/84 88/58/85
f 82/68/93 81/71/102 86/63/94
f 80/70/95 85/62/87 86/63/88
f 79/72/97 78/75/105 83/67/98
f 77/74/99 82/66/91 83/67/92
f 77/76/101 76/79/106 81/71/102
f 75/78/103 80/70/95 81/71/96
f 70/80/51 71/24/51 78/75/105
f 72/23/54 77/74/99 78/75/100
f 72/82/56 73/29/56 76/79/106
f 74/28/59 75/78/103 76/79/104
f 100/45/108 117/37/108 105/37/108
f 80/70/108 113/62/108 85/62/108
f 95/53/108 116/45/108 100/45/108
f 75/78/108 112/70/108 80/70/108
f 90/85/108 115/53/108 95/53/108
f 75/78/108 110/28/108 111/78/108
f 105/37/108 110/28/108 74/28/108
f 85/62/108 114/87/108 90/87/108
f 113/88/109 122/89/110 114/89/110
f 115/90/111 124/91/112 116/91/112
f 117/92/113 118/93/114 110/93/114
f 110/93/114 119/94/115 111/94/115
f 112/95/116 121/88/109 113/88/109
f 114/96/110 123/90/111 115/90/111
f 116/91/112 125/92/113 117/92/113
f 111/94/115 120/95/116 112/95/116
f 120/95/117 148/95/118 127/95/116
f 122/89/119 132/88/119 131/89/119
f 127/95/116 133/95/120 120/95/117
f 118/93/119 142/94/119 119/94/119
s 0
f 126/97/108 146/97/108 128/97/108
f 126/97/108 136/97/108 137/97/108
s 1
f 122/96/119 129/90/119 123/90/119
f 118/93/119 139/92/119 140/93/119
f 132/88/109 136/89/110 131/89/110
f 129/90/111 135/91/121 130/91/122
f 133/95/120 137/88/109 132/88/109
f 131/96/110 134/90/111 129/90/111
s 0
f 126/97/108 138/97/108 127/97/108
s 1
f 124/91/123 135/91/121 128/91/112
s 0
f 126/97/108 135/97/108 134/97/108
s 1
f 121/88/119 133/95/120 132/88/119
f 123/90/119 130/91/122 124/91/123
s 0
f 126/97/108 134/97/108 136/97/108
s 1
f 142/94/115 148/95/118 143/95/124
f 139/92/113 145/93/114 140/93/114
f 140/93/114 147/94/115 142/94/115
f 141/91/125 144/92/113 139/92/113
f 128/91/112 141/91/125 124/91/123
f 125/92/119 141/91/125 139/92/119
s 0
f 126/97/108 148/97/108 147/97/108
f 126/97/108 145/97/108 144/97/108
f 126/97/108 147/97/108 145/97/108
s 1
f 119/94/119 143/95/124 120/95/117
f 104/98/112 154/99/111 99/99/111
f 84/100/116 150/101/115 79/101/115
f 99/102/111 153/103/110 94/103/110
f 79/104/115 149/105/114 70/105/114
f 70/106/114 156/107/113 109/107/113
f 94/108/110 152/109/109 89/109/109
f 109/110/113 155/111/112 104/111/112
f 89/112/109 151/113/116 84/113/116
f 100/45/108 116/45/108 117/37/108
f 80/70/108 112/70/108 113/62/108
f 95/53/108 115/53/108 116/45/108
f 75/78/108 111/78/108 112/70/108
f 90/85/108 114/85/108 115/53/108
f 75/78/108 74/28/108 110/28/108
f 105/37/108 117/37/108 110/28/108
f 85/62/108 113/62/108 114/87/108
f 113/88/109 121/88/109 122/89/110
f 115/90/111 123/90/111 124/91/112
f 117/92/113 125/92/113 118/93/114
f 110/93/114 118/93/114 119/94/115
f 112/95/116 120/95/116 121/88/109
f 114/96/110 122/96/110 123/90/111
f 116/91/112 124/91/112 125/92/113
f 111/94/115 119/94/115 120/95/116
f 120/95/117 143/95/124 148/95/118
f 122/89/119 121/88/119 132/88/119
f 127/95/116 138/95/126 133/95/120
f 118/93/119 140/93/119 142/94/119
s 0
f 126/97/108 144/97/108 146/97/108
s 1
f 122/96/119 131/96/119 129/90/119
f 118/93/119 125/92/119 139/92/119
f 132/88/109 137/88/109 136/89/110
f 129/90/111 134/90/111 135/91/121
f 133/95/120 138/95/126 137/88/109
f 131/96/110 136/96/110 134/90/111
s 0
f 126/97/108 137/97/108 138/97/108
s 1
f 124/91/123 130/91/122 135/91/121
s 0
f 126/97/108 128/97/108 135/97/108
s 1
f 121/88/119 120/95/117 133/95/120
f 123/90/119 129/90/119 130/91/122
f 142/94/115 147/94/115 148/95/118
f 139/92/113 144/92/113 145/93/114
f 140/93/114 145/93/114 147/94/115
f 141/91/125 146/91/127 144/92/113
f 128/91/112 146/91/127 141/91/125
f 125/92/119 124/91/123 141/91/125
s 0
f 126/97/108 127/97/108 148/97/108
s 1
f 119/94/119 142/94/119 143/95/124
f 104/98/112 155/98/112 154/99/111
f 84/100/116 151/100/116 150/101/115
f 99/102/111 154/102/111 153/103/110
f 79/104/115 150/104/115 149/105/114
f 70/106/114 149/106/114 156/107/113
f 94/108/110 153/108/110 152/109/109
f 109/110/113 156/110/113 155/111/112
f 89/112/109 152/112/109 151/113/116
o Cantileverindulator.026
v 1.782128 6.369318 -0.027084
v 1.782125 6.353548 -0.020551
v 1.782123 6.347015 -0.004780
v 1.782125 6.353548 0.010991
v 1.782128 6.369318 0.017523
v 1.782131 6.385089 0.010991
v 1.782132 6.391622 -0.004780
v 1.782131 6.385089 -0.020551
v 2.063907 6.369247 -0.027084
v 2.063904 6.353476 -0.020551
v 2.063903 6.346943 -0.004780
v 2.063904 6.353476 0.010991
v 2.063907 6.369247 0.017523
v 2.063910 6.385017 0.010991
v 2.063912 6.391550 -0.004780
v 2.063910 6.385017 -0.020551
v 2.052547 6.336826 -0.037204
v 2.041195 6.336830 -0.037204
v 2.029845 6.353484 -0.020551
v 2.018492 6.353487 -0.020551
v 2.007136 6.336838 -0.037204
v 1.995783 6.336841 -0.037204
v 1.984433 6.353496 -0.020551
v 1.973081 6.353499 -0.020551
v 1.961724 6.336850 -0.037204
v 1.950371 6.336853 -0.037204
v 1.939022 6.353508 -0.020551
v 1.927669 6.353510 -0.020551
v 1.916312 6.336861 -0.037204
v 1.904960 6.336864 -0.037204
v 1.893610 6.353519 -0.020551
v 1.882257 6.353522 -0.020551
v 1.870901 6.336873 -0.037204
v 1.859547 6.336876 -0.037204
v 1.848198 6.353531 -0.020551
v 2.052545 6.323397 -0.004781
v 2.041192 6.323400 -0.004781
v 2.029844 6.346952 -0.004780
v 2.018491 6.346955 -0.004780
v 2.007133 6.323408 -0.004781
v 1.995780 6.323410 -0.004781
v 1.984432 6.346963 -0.004780
v 1.973079 6.346966 -0.004780
v 1.961721 6.323420 -0.004781
v 1.950368 6.323422 -0.004781
v 1.939020 6.346975 -0.004780
v 1.927667 6.346978 -0.004780
v 1.916310 6.323431 -0.004781
v 1.904957 6.323435 -0.004781
v 1.893609 6.346986 -0.004780
v 1.882256 6.346989 -0.004780
v 1.870898 6.323442 -0.004781
v 1.859545 6.323446 -0.004781
v 1.848197 6.346998 -0.004780
v 2.052547 6.336826 0.027642
v 2.041195 6.336830 0.027642
v 2.029845 6.353484 0.010991
v 2.018492 6.353487 0.010991
v 2.007136 6.336838 0.027642
v 1.995783 6.336841 0.027642
v 1.984433 6.353496 0.010991
v 1.973081 6.353499 0.010991
v 1.961724 6.336850 0.027642
v 1.950371 6.336853 0.027642
v 1.939022 6.353508 0.010991
v 1.927669 6.353510 0.010991
v 1.916312 6.336861 0.027642
v 1.904960 6.336864 0.027642
v 1.893610 6.353519 0.010991
v 1.882257 6.353522 0.010991
v 1.870901 6.336873 0.027642
v 1.859547 6.336876 0.027642
v 1.848198 6.353531 0.010991
v 2.052554 6.369250 0.041073
v 2.041201 6.369253 0.041073
v 2.029848 6.369255 0.017523
v 2.018496 6.369258 0.017523
v 2.007143 6.369262 0.041073
v 1.995790 6.369264 0.041073
v 1.984437 6.369267 0.017523
v 1.973084 6.369270 0.017523
v 1.961731 6.369273 0.041073
v 1.950378 6.369276 0.041073
v 1.939025 6.369278 0.017523
v 1.927672 6.369281 0.017523
v 1.916319 6.369285 0.041073
v 1.904966 6.369287 0.041073
v 1.893613 6.369290 0.017523
v 1.882261 6.369293 0.017523
v 1.870908 6.369296 0.041073
v 1.859555 6.369299 0.041073
v 1.848202 6.369302 0.017523
v 2.052561 6.401672 0.027642
v 2.041208 6.401676 0.027642
v 2.029852 6.385026 0.010991
v 2.018499 6.385029 0.010991
v 2.007149 6.401685 0.027642
v 1.995797 6.401688 0.027642
v 1.984440 6.385038 0.010991
v 1.973087 6.385041 0.010991
v 1.961738 6.401697 0.027642
v 1.950385 6.401699 0.027642
v 1.939028 6.385049 0.010991
v 1.927675 6.385052 0.010991
v 1.916326 6.401708 0.027642
v 1.904973 6.401711 0.027642
v 1.893616 6.385061 0.010991
v 1.882264 6.385064 0.010991
v 1.870914 6.401719 0.027642
v 1.859561 6.401723 0.027642
v 1.848205 6.385073 0.010991
v 2.052564 6.415103 -0.004781
v 2.041211 6.415106 -0.004781
v 2.029853 6.391559 -0.004780
v 2.018500 6.391561 -0.004780
v 2.007152 6.415115 -0.004781
v 1.995799 6.415117 -0.004781
v 1.984441 6.391570 -0.004780
v 1.973089 6.391573 -0.004780
v 1.961740 6.415126 -0.004781
v 1.950387 6.415130 -0.004781
v 1.939029 6.391582 -0.004780
v 1.927677 6.391585 -0.004780
v 1.916329 6.415138 -0.004781
v 1.904976 6.415141 -0.004781
v 1.893618 6.391593 -0.004780
v 1.882265 6.391596 -0.004780
v 1.870917 6.415150 -0.004781
v 1.859564 6.415153 -0.004781
v 1.848206 6.391605 -0.004780
v 2.052561 6.401672 -0.037204
v 2.041208 6.401676 -0.037204
v 2.029852 6.385026 -0.020551
v 2.018499 6.385029 -0.020551
v 2.007149 6.401685 -0.037204
v 1.995797 6.401688 -0.037204
v 1.984440 6.385038 -0.020551
v 1.973087 6.385041 -0.020551
v 1.961738 6.401697 -0.037204
v 1.950385 6.401699 -0.037204
v 1.939028 6.385049 -0.020551
v 1.927675 6.385052 -0.020551
v 1.916326 6.401708 -0.037204
v 1.904973 6.401711 -0.037204
v 1.893616 6.385061 -0.020551
v 1.882264 6.385064 -0.020551
v 1.870914 6.401719 -0.037204
v 1.859561 6.401723 -0.037204
v 1.848205 6.385073 -0.020551
v 1.848202 6.369301 -0.027084
v 1.859555 6.369299 -0.050634
v 1.870908 6.369296 -0.050634
v 1.882261 6.369293 -0.027084
v 1.893613 6.369290 -0.027084
v 1.904966 6.369287 -0.050634
v 1.916319 6.369285 -0.050634
v 1.927672 6.369282 -0.027084
v 1.939025 6.369278 -0.027084
v 1.950378 6.369276 -0.050634
v 1.961731 6.369273 -0.050634
v 1.973084 6.369270 -0.027084
v 1.984437 6.369267 -0.027084
v 1.995790 6.369264 -0.050634
v 2.007143 6.369262 -0.050634
v 2.018496 6.369258 -0.027084
v 2.029849 6.369255 -0.027084
v 2.041201 6.369253 -0.050634
v 2.052555 6.369250 -0.050634
v 2.121413 6.369318 -0.027084
v 2.121409 6.353547 -0.020551
v 2.121408 6.347015 -0.004780
v 2.121409 6.353547 0.010991
v 2.121413 6.369318 0.017523
v 2.121416 6.385089 0.010991
v 2.121417 6.391621 -0.004780
v 2.121416 6.385089 -0.020551
vn 0.5997 0.5657 -0.5660
vn 0.4805 -0.0001 -0.8770
vn 0.4807 0.6200 -0.6201
vn 0.4808 0.8769 -0.0000
vn 0.4807 0.6200 0.6201
vn 0.5996 0.8003 -0.0000
vn 0.4805 -0.0001 0.8770
vn 0.5997 0.5657 0.5660
vn 0.4804 -0.6202 0.6201
vn 0.6000 -0.0003 0.8000
vn 0.6004 -0.7997 -0.0000
vn 0.4803 -0.8771 -0.0000
vn 0.6003 -0.5657 -0.5654
vn 0.4804 -0.6202 -0.6201
vn 0.6000 -0.0003 -0.8000
vn -0.6000 0.0001 -0.8000
vn -0.0002 -0.7071 -0.7071
vn -0.0000 -0.0000 -1.0000
vn -0.4807 -0.6200 -0.6201
vn -0.6001 -0.5656 -0.5657
vn -0.4805 0.0001 -0.8770
vn 0.6000 -0.0001 -0.8000
vn 0.5999 -0.5658 -0.5657
vn 0.5998 -0.5658 -0.5657
vn -0.0003 -1.0000 -0.0000
vn -0.4807 -0.8769 -0.0000
vn -0.6002 -0.7999 -0.0000
vn 0.5998 -0.8002 -0.0000
vn -0.4808 -0.8769 -0.0000
vn -0.6001 -0.5656 0.5657
vn -0.0002 -0.7071 0.7071
vn -0.4807 -0.6200 0.6201
vn 0.5999 -0.5658 0.5657
vn 0.5998 -0.5658 0.5657
vn -0.6000 0.0001 0.8000
vn -0.0000 -0.0000 1.0000
vn -0.4805 0.0001 0.8770
vn 0.6000 -0.0001 0.8000
vn -0.5999 0.5658 0.5657
vn 0.0002 0.7071 0.7071
vn -0.4804 0.6202 0.6201
vn 0.6001 0.5656 0.5657
vn -0.5998 0.5658 0.5657
vn -0.5998 0.8001 -0.0000
vn 0.0003 1.0000 -0.0000
vn -0.4803 0.8771 -0.0000
vn 0.6002 0.7999 -0.0000
vn -0.5998 0.8002 -0.0000
vn 0.4807 0.8769 -0.0000
vn -0.4804 0.8771 -0.0000
vn 0.0002 0.7071 -0.7071
vn -0.5999 0.5658 -0.5657
vn -0.4804 0.6202 -0.6201
vn 0.6001 0.5656 -0.5657
vn -0.5998 0.5658 -0.5657
vn 0.0009 -0.7069 -0.7073
vn 0.6002 -0.5657 0.5654
vn 0.0012 -1.0000 -0.0000
vn 0.0009 -0.7069 0.7073
vn -0.0000 0.0003 1.0000
vn -0.0009 0.7073 0.7069
vn -0.0009 0.7073 -0.7069
vn -0.0012 1.0000 -0.0000
vn -0.0000 0.0003 -1.0000
vt 0.947470 0.037677
vt 0.927640 0.045459
vt 0.931226 0.028232
vt 0.937842 0.007817
vt 0.928547 0.130780
vt 0.948638 0.133956
vt 0.934473 0.150909
vt 0.925563 0.113182
vt 0.944729 0.122198
vt 0.924520 0.096118
vt 0.942177 0.108777
vt 0.941159 0.080218
vt 0.924508 0.079031
vt 0.942195 0.065540
vt 0.925551 0.062245
vt 0.944237 0.051147
vt 0.707478 0.051626
vt 0.665429 0.070259
vt 0.663516 0.059196
vt 0.726436 0.062389
vt 0.709510 0.065850
vt 0.731361 0.044355
vt 0.724087 0.045720
vt 0.748171 0.044726
vt 0.733780 0.061548
vt 0.755705 0.044441
vt 0.750076 0.062275
vt 0.774261 0.060231
vt 0.757493 0.062188
vt 0.780996 0.041652
vt 0.773817 0.042179
vt 0.797533 0.043226
vt 0.781723 0.060001
vt 0.805052 0.042924
vt 0.798143 0.060884
vt 0.822521 0.059390
vt 0.805650 0.060949
vt 0.830476 0.041180
vt 0.823271 0.041382
vt 0.847033 0.043340
vt 0.830046 0.059427
vt 0.854709 0.042778
vt 0.846735 0.061004
vt 0.871545 0.042575
vt 0.854212 0.060763
vt 0.879065 0.042333
vt 0.872525 0.060506
vt 0.896003 0.044494
vt 0.879637 0.060508
vt 0.903612 0.044707
vt 0.895284 0.062097
vt 0.918291 0.061472
vt 0.902311 0.062281
vt 0.920400 0.044146
vt 0.666539 0.081375
vt 0.727641 0.079061
vt 0.710433 0.080370
vt 0.734901 0.078782
vt 0.750875 0.079574
vt 0.775395 0.078449
vt 0.758282 0.079392
vt 0.783125 0.078508
vt 0.797950 0.078657
vt 0.822520 0.077641
vt 0.805649 0.078870
vt 0.830039 0.077675
vt 0.846616 0.078816
vt 0.871599 0.078454
vt 0.854277 0.078859
vt 0.879363 0.078844
vt 0.894028 0.079351
vt 0.917167 0.078806
vt 0.901313 0.079596
vt 0.710571 0.094615
vt 0.666070 0.092500
vt 0.727968 0.095897
vt 0.735656 0.096428
vt 0.757505 0.096675
vt 0.750030 0.096654
vt 0.773969 0.096495
vt 0.781394 0.096953
vt 0.797988 0.096231
vt 0.805694 0.096183
vt 0.822788 0.096002
vt 0.830597 0.096283
vt 0.853493 0.096672
vt 0.845722 0.096378
vt 0.870075 0.096509
vt 0.877539 0.096957
vt 0.894185 0.096477
vt 0.901791 0.096508
vt 0.916558 0.096402
vt 0.709361 0.108636
vt 0.664786 0.103588
vt 0.724787 0.112656
vt 0.732174 0.113813
vt 0.749007 0.113694
vt 0.756834 0.113652
vt 0.771950 0.114884
vt 0.779581 0.115184
vt 0.797158 0.113528
vt 0.805293 0.113362
vt 0.820618 0.114418
vt 0.828268 0.114662
vt 0.845620 0.113573
vt 0.853676 0.113736
vt 0.869021 0.115063
vt 0.876679 0.115123
vt 0.894114 0.113409
vt 0.901912 0.113407
vt 0.918411 0.114183
vt 0.706539 0.121976
vt 0.662802 0.114687
vt 0.729508 0.131821
vt 0.722416 0.130552
vt 0.747162 0.129630
vt 0.755259 0.129762
vt 0.779276 0.133924
vt 0.772117 0.133980
vt 0.796553 0.129656
vt 0.804550 0.129622
vt 0.828479 0.133474
vt 0.821402 0.133599
vt 0.845456 0.129487
vt 0.853357 0.130038
vt 0.878131 0.133828
vt 0.871011 0.133975
vt 0.895203 0.129401
vt 0.903449 0.129758
vt 0.921419 0.132282
vt 0.702786 0.133700
vt 0.660710 0.125966
vt 0.725711 0.152725
vt 0.716251 0.150262
vt 0.746520 0.143505
vt 0.753385 0.143086
vt 0.779688 0.155355
vt 0.770477 0.155007
vt 0.797261 0.143409
vt 0.803521 0.142992
vt 0.829517 0.154869
vt 0.820453 0.154708
vt 0.846563 0.143030
vt 0.852942 0.142757
vt 0.869125 0.155118
vt 0.878653 0.155355
vt 0.896745 0.143299
vt 0.903846 0.143489
vt 0.924811 0.152870
vt 0.700468 0.026722
vt 0.660939 0.048183
vt 0.658181 0.037066
vt 0.713248 0.008740
vt 0.704304 0.038276
vt 0.723671 0.005540
vt 0.720369 0.028414
vt 0.746201 0.028052
vt 0.727363 0.026952
vt 0.752375 0.015330
vt 0.744561 0.015462
vt 0.768291 0.002226
vt 0.754315 0.028015
vt 0.778339 0.001427
vt 0.770917 0.023715
vt 0.796752 0.026423
vt 0.778228 0.023218
vt 0.803773 0.013762
vt 0.796606 0.013553
vt 0.820096 0.001225
vt 0.804801 0.026526
vt 0.830064 0.000966
vt 0.821525 0.022812
vt 0.847009 0.026585
vt 0.828808 0.022669
vt 0.854472 0.013896
vt 0.847418 0.013663
vt 0.871343 0.001792
vt 0.854996 0.026635
vt 0.881411 0.001991
vt 0.871775 0.023451
vt 0.897185 0.028000
vt 0.879028 0.023679
vt 0.906580 0.015377
vt 0.898588 0.015202
vt 0.927171 0.005399
vt 0.905341 0.027938
vt 0.924302 0.026486
vt 0.980190 0.069840
vt 0.940596 0.094655
vt 0.978927 0.081104
vt 0.979363 0.092335
vt 0.980766 0.103505
vt 0.982956 0.114591
vt 0.951318 0.026094
vt 0.985089 0.047620
vt 0.985446 0.125791
vt 0.982270 0.058665
vt 0.988176 0.036568
s 1
usemtl Catenary
f 172/114/128 324/115/129 287/116/130
f 268/117/131 172/114/128 287/116/130
f 249/118/132 171/119/133 268/120/131
f 230/121/134 170/122/135 249/118/132
f 211/123/136 169/124/137 230/121/134
f 167/125/138 211/123/136 192/126/139
f 166/127/140 192/126/139 173/128/141
f 165/129/142 173/128/141 324/115/129
f 306/130/143 158/131/144 157/132/145
f 306/130/143 190/133/146 191/134/147
f 308/135/129 190/133/146 307/136/148
f 309/137/149 189/138/141 308/135/129
f 310/139/143 188/140/150 309/137/149
f 310/139/143 186/141/146 187/142/147
f 312/143/129 186/141/146 311/144/148
f 313/145/149 185/146/141 312/143/129
f 314/147/143 184/148/150 313/145/149
f 314/147/143 182/149/146 183/150/147
f 316/151/129 182/149/146 315/152/148
f 317/153/149 181/154/141 316/151/129
f 318/155/143 180/156/151 317/153/149
f 319/157/148 179/158/147 318/155/143
f 320/159/129 178/160/146 319/157/148
f 321/161/149 177/162/141 320/159/129
f 322/163/143 176/164/150 321/161/149
f 322/163/143 174/165/146 175/166/147
f 324/115/129 174/165/146 323/167/148
f 191/134/147 159/168/152 158/131/144
f 191/134/147 209/169/153 210/170/154
f 189/138/141 209/169/153 190/133/146
f 188/140/150 208/171/139 189/138/141
f 187/142/147 207/172/155 188/140/150
f 187/142/147 205/173/156 206/174/154
f 185/146/141 205/173/156 186/141/146
f 184/148/150 204/175/139 185/146/141
f 183/150/147 203/176/155 184/148/150
f 183/150/147 201/177/153 202/178/154
f 181/154/141 201/177/153 182/149/146
f 180/156/151 200/179/139 181/154/141
f 179/158/147 199/180/155 180/156/151
f 179/158/147 197/181/153 198/182/154
f 177/162/141 197/181/153 178/160/146
f 176/164/150 196/183/139 177/162/141
f 175/166/147 195/184/155 176/164/150
f 175/166/147 193/185/153 194/186/154
f 173/128/141 193/185/153 174/165/146
f 159/168/152 229/187/157 160/188/158
f 210/170/154 228/189/159 229/187/157
f 209/169/153 227/190/136 228/189/159
f 207/172/155 227/190/136 208/171/139
f 207/172/155 225/191/157 226/192/160
f 206/174/154 224/193/159 225/191/157
f 205/173/156 223/194/136 224/193/159
f 204/175/139 222/195/161 223/194/136
f 203/176/155 221/196/157 222/195/161
f 202/178/154 220/197/159 221/196/157
f 201/177/153 219/198/136 220/197/159
f 199/180/155 219/198/136 200/179/139
f 199/180/155 217/199/157 218/200/161
f 198/182/154 216/201/159 217/199/157
f 197/181/153 215/202/136 216/201/159
f 196/183/139 214/203/161 215/202/136
f 195/184/155 213/204/157 214/203/161
f 194/186/154 212/205/159 213/204/157
f 193/185/153 211/123/136 212/205/159
f 160/188/158 248/206/162 161/207/163
f 229/187/157 247/208/164 248/206/162
f 228/189/159 246/209/134 247/208/164
f 227/190/136 245/210/165 246/209/134
f 226/192/160 244/211/162 245/210/165
f 225/191/157 243/212/164 244/211/162
f 224/193/159 242/213/134 243/212/164
f 223/194/136 241/214/165 242/213/134
f 222/195/161 240/215/162 241/214/165
f 221/196/157 239/216/164 240/215/162
f 220/197/159 238/217/134 239/216/164
f 219/198/136 237/218/165 238/217/134
f 218/200/161 236/219/162 237/218/165
f 217/199/157 235/220/164 236/219/162
f 216/201/159 234/221/134 235/220/164
f 215/202/136 233/222/165 234/221/134
f 214/203/161 232/223/162 233/222/165
f 212/205/159 232/223/162 213/204/157
f 212/205/159 230/121/134 231/224/164
f 161/207/163 267/225/166 162/226/167
f 247/208/164 267/225/166 248/206/162
f 247/208/164 265/227/132 266/228/168
f 246/209/134 264/229/169 265/227/132
f 245/210/165 263/230/170 264/229/169
f 243/212/164 263/230/170 244/211/162
f 243/212/164 261/231/132 262/232/168
f 242/213/134 260/233/169 261/231/132
f 241/214/165 259/234/170 260/233/169
f 239/216/164 259/234/170 240/215/162
f 239/216/164 257/235/132 258/236/168
f 238/217/134 256/237/169 257/235/132
f 237/218/165 255/238/170 256/237/169
f 235/220/164 255/238/170 236/219/162
f 235/220/164 253/239/132 254/240/168
f 234/221/134 252/241/169 253/239/132
f 233/222/165 251/242/170 252/241/169
f 231/224/164 251/242/170 232/223/162
f 231/224/164 249/118/132 250/243/168
f 162/226/167 286/244/171 163/245/172
f 266/228/168 286/244/171 267/225/166
f 266/228/168 284/246/131 285/247/173
f 265/227/132 283/248/174 284/246/131
f 264/229/169 282/249/175 283/248/174
f 262/232/168 282/249/175 263/230/170
f 262/232/168 280/250/176 281/251/173
f 261/231/132 279/252/174 280/250/176
f 260/233/169 278/253/175 279/252/174
f 258/236/168 278/253/175 259/234/170
f 258/236/168 276/254/176 277/255/173
f 257/235/132 275/256/174 276/254/176
f 256/237/169 274/257/175 275/256/174
f 255/238/170 273/258/177 274/257/175
f 254/240/168 272/259/176 273/258/177
f 253/239/132 271/260/174 272/259/176
f 252/241/169 270/261/171 271/260/174
f 250/243/168 270/261/171 251/242/170
f 250/243/168 268/120/131 269/262/173
f 286/263/171 164/264/178 163/265/172
f 285/266/173 305/267/179 286/263/171
f 284/268/131 304/269/180 285/266/173
f 284/268/131 302/270/181 303/271/130
f 282/272/175 302/270/181 283/273/174
f 281/274/173 301/275/182 282/272/175
f 280/276/176 300/277/180 281/274/173
f 280/276/176 298/278/181 299/279/130
f 278/280/175 298/278/181 279/281/174
f 277/282/173 297/283/182 278/280/175
f 276/284/176 296/285/180 277/282/173
f 276/284/176 294/286/181 295/287/130
f 274/288/175 294/286/181 275/289/174
f 273/290/177 293/291/179 274/288/175
f 272/292/176 292/293/180 273/290/177
f 272/292/176 290/294/181 291/295/130
f 270/296/171 290/294/181 271/297/174
f 269/298/173 289/299/182 270/296/171
f 268/117/131 288/300/180 269/298/173
f 305/267/179 157/132/145 164/264/178
f 305/267/179 307/136/148 306/130/143
f 303/271/130 307/136/148 304/269/180
f 302/270/181 308/135/129 303/271/130
f 301/275/182 309/137/149 302/270/181
f 300/277/180 310/139/143 301/275/182
f 299/279/130 311/144/148 300/277/180
f 298/278/181 312/143/129 299/279/130
f 297/283/182 313/145/149 298/278/181
f 296/285/180 314/147/143 297/283/182
f 295/287/130 315/152/148 296/285/180
f 294/286/181 316/151/129 295/287/130
f 293/291/179 317/153/149 294/286/181
f 292/293/180 318/155/143 293/291/179
f 291/295/130 319/157/148 292/293/180
f 290/294/181 320/159/129 291/295/130
f 289/299/182 321/161/149 290/294/181
f 289/299/182 323/167/148 322/163/143
f 287/116/130 323/167/148 288/300/180
f 165/129/142 326/301/183 166/127/140
f 168/302/184 327/303/185 328/304/186
f 170/122/135 329/305/187 330/306/188
f 171/307/133 332/308/189 172/114/128
f 166/127/140 327/303/185 167/125/138
f 169/124/137 328/304/186 329/305/187
f 171/119/133 330/306/188 331/309/190
f 172/114/128 325/310/191 165/129/142
f 172/114/128 165/129/142 324/115/129
f 268/117/131 171/307/133 172/114/128
f 249/118/132 170/122/135 171/119/133
f 230/121/134 169/124/137 170/122/135
f 211/123/136 168/302/184 169/124/137
f 167/125/138 168/302/184 211/123/136
f 166/127/140 167/125/138 192/126/139
f 165/129/142 166/127/140 173/128/141
f 306/130/143 191/134/147 158/131/144
f 306/130/143 307/136/148 190/133/146
f 308/135/129 189/138/141 190/133/146
f 309/137/149 188/140/150 189/138/141
f 310/139/143 187/142/147 188/140/150
f 310/139/143 311/144/148 186/141/146
f 312/143/129 185/146/141 186/141/146
f 313/145/149 184/148/150 185/146/141
f 314/147/143 183/150/147 184/148/150
f 314/147/143 315/152/148 182/149/146
f 316/151/129 181/154/141 182/149/146
f 317/153/149 180/156/151 181/154/141
f 318/155/143 179/158/147 180/156/151
f 319/157/148 178/160/146 179/158/147
f 320/159/129 177/162/141 178/160/146
f 321/161/149 176/164/150 177/162/141
f 322/163/143 175/166/147 176/164/150
f 322/163/143 323/167/148 174/165/146
f 324/115/129 173/128/141 174/165/146
f 191/134/147 210/170/154 159/168/152
f 191/134/147 190/133/146 209/169/153
f 189/138/141 208/171/139 209/169/153
f 188/140/150 207/172/155 208/171/139
f 187/142/147 206/174/154 207/172/155
f 187/142/147 186/141/146 205/173/156
f 185/146/141 204/175/139 205/173/156
f 184/148/150 203/176/155 204/175/139
f 183/150/147 202/178/154 203/176/155
f 183/150/147 182/149/146 201/177/153
f 181/154/141 200/179/139 201/177/153
f 180/156/151 199/180/155 200/179/139
f 179/158/147 198/182/154 199/180/155
f 179/158/147 178/160/146 197/181/153
f 177/162/141 196/183/139 197/181/153
f 176/164/150 195/184/155 196/183/139
f 175/166/147 194/186/154 195/184/155
f 175/166/147 174/165/146 193/185/153
f 173/128/141 192/126/139 193/185/153
f 159/168/152 210/170/154 229/187/157
f 210/170/154 209/169/153 228/189/159
f 209/169/153 208/171/139 227/190/136
f 207/172/155 226/192/160 227/190/136
f 207/172/155 206/174/154 225/191/157
f 206/174/154 205/173/156 224/193/159
f 205/173/156 204/175/139 223/194/136
f 204/175/139 203/176/155 222/195/161
f 203/176/155 202/178/154 221/196/157
f 202/178/154 201/177/153 220/197/159
f 201/177/153 200/179/139 219/198/136
f 199/180/155 218/200/161 219/198/136
f 199/180/155 198/182/154 217/199/157
f 198/182/154 197/181/153 216/201/159
f 197/181/153 196/183/139 215/202/136
f 196/183/139 195/184/155 214/203/161
f 195/184/155 194/186/154 213/204/157
f 194/186/154 193/185/153 212/205/159
f 193/185/153 192/126/139 211/123/136
f 160/188/158 229/187/157 248/206/162
f 229/187/157 228/189/159 247/208/164
f 228/189/159 227/190/136 246/209/134
f 227/190/136 226/192/160 245/210/165
f 226/192/160 225/191/157 244/211/162
f 225/191/157 224/193/159 243/212/164
f 224/193/159 223/194/136 242/213/134
f 223/194/136 222/195/161 241/214/165
f 222/195/161 221/196/157 240/215/162
f 221/196/157 220/197/159 239/216/164
f 220/197/159 219/198/136 238/217/134
f 219/198/136 218/200/161 237/218/165
f 218/200/161 217/199/157 236/219/162
f 217/199/157 216/201/159 235/220/164
f 216/201/159 215/202/136 234/221/134
f 215/202/136 214/203/161 233/222/165
f 214/203/161 213/204/157 232/223/162
f 212/205/159 231/224/164 232/223/162
f 212/205/159 211/123/136 230/121/134
f 161/207/163 248/206/162 267/225/166
f 247/208/164 266/228/168 267/225/166
f 247/208/164 246/209/134 265/227/132
f 246/209/134 245/210/165 264/229/169
f 245/210/165 244/211/162 263/230/170
f 243/212/164 262/232/168 263/230/170
f 243/212/164 242/213/134 261/231/132
f 242/213/134 241/214/165 260/233/169
f 241/214/165 240/215/162 259/234/170
f 239/216/164 258/236/168 259/234/170
f 239/216/164 238/217/134 257/235/132
f 238/217/134 237/218/165 256/237/169
f 237/218/165 236/219/162 255/238/170
f 235/220/164 254/240/168 255/238/170
f 235/220/164 234/221/134 253/239/132
f 234/221/134 233/222/165 252/241/169
f 233/222/165 232/223/162 251/242/170
f 231/224/164 250/243/168 251/242/170
f 231/224/164 230/121/134 249/118/132
f 162/226/167 267/225/166 286/244/171
f 266/228/168 285/247/173 286/244/171
f 266/228/168 265/227/132 284/246/131
f 265/227/132 264/229/169 283/248/174
f 264/229/169 263/230/170 282/249/175
f 262/232/168 281/251/173 282/249/175
f 262/232/168 261/231/132 280/250/176
f 261/231/132 260/233/169 279/252/174
f 260/233/169 259/234/170 278/253/175
f 258/236/168 277/255/173 278/253/175
f 258/236/168 257/235/132 276/254/176
f 257/235/132 256/237/169 275/256/174
f 256/237/169 255/238/170 274/257/175
f 255/238/170 254/240/168 273/258/177
f 254/240/168 253/239/132 272/259/176
f 253/239/132 252/241/169 271/260/174
f 252/241/169 251/242/170 270/261/171
f 250/243/168 269/262/173 270/261/171
f 250/243/168 249/118/132 268/120/131
f 286/263/171 305/267/179 164/264/178
f 285/266/173 304/269/180 305/267/179
f 284/268/131 303/271/130 304/269/180
f 284/268/131 283/273/174 302/270/181
f 282/272/175 301/275/182 302/270/181
f 281/274/173 300/277/180 301/275/182
f 280/276/176 299/279/130 300/277/180
f 280/276/176 279/281/174 298/278/181
f 278/280/175 297/283/182 298/278/181
f 277/282/173 296/285/180 297/283/182
f 276/284/176 295/287/130 296/285/180
f 276/284/176 275/289/174 294/286/181
f 274/288/175 293/291/179 294/286/181
f 273/290/177 292/293/180 293/291/179
f 272/292/176 291/295/130 292/293/180
f 272/292/176 271/297/174 290/294/181
f 270/296/171 289/299/182 290/294/181
f 269/298/173 288/300/180 289/299/182
f 268/117/131 287/116/130 288/300/180
f 305/267/179 306/130/143 157/132/145
f 305/267/179 304/269/180 307/136/148
f 303/271/130 308/135/129 307/136/148
f 302/270/181 309/137/149 308/135/129
f 301/275/182 310/139/143 309/137/149
f 300/277/180 311/144/148 310/139/143
f 299/279/130 312/143/129 311/144/148
f 298/278/181 313/145/149 312/143/129
f 297/283/182 314/147/143 313/145/149
f 296/285/180 315/152/148 314/147/143
f 295/287/130 316/151/129 315/152/148
f 294/286/181 317/153/149 316/151/129
f 293/291/179 318/155/143 317/153/149
f 292/293/180 319/157/148 318/155/143
f 291/295/130 320/159/129 319/157/148
f 290/294/181 321/161/149 320/159/129
f 289/299/182 322/163/143 321/161/149
f 289/299/182 288/300/180 323/167/148
f 287/116/130 324/115/129 323/167/148
f 165/129/142 325/310/191 326/301/183
f 168/302/184 167/125/138 327/303/185
f 170/122/135 169/124/137 329/305/187
f 171/307/133 331/311/190 332/308/189
f 166/127/140 326/301/183 327/303/185
f 169/124/137 168/302/184 328/304/186
f 171/119/133 170/122/135 330/306/188
f 172/114/128 332/308/189 325/310/191
