# Blender 5.0.1
# www.blender.org
mtllib registration_arm_middle_inner_dual.mtl
o RegistrationArmMiddleInnerDual
g registration_arm_middle_inner_dual
v 1.804528 6.358242 0.011397
v 1.804528 6.369555 0.016083
v 1.804528 6.358242 -0.011230
v 1.804528 6.369555 -0.015917
v 1.804528 6.380869 -0.011230
v 1.804527 6.385555 0.000083
v 1.804528 6.380869 0.011397
v 1.804528 6.353556 0.000083
v -0.100515 6.358242 0.011258
v -0.100515 6.369555 0.015944
v -0.100515 6.358242 -0.011370
v -0.100515 6.385555 -0.000056
v -0.100515 6.380869 0.011258
v -0.100515 6.353556 -0.000056
v -0.100515 6.369555 -0.016056
v -0.100515 6.380869 -0.011370
v 0.632741 6.358242 -0.011370
v 0.632741 6.369555 -0.016056
v 0.632741 6.358242 0.011258
v 0.632741 6.385555 -0.000056
v 0.632741 6.380869 -0.011370
v -0.008549 6.000000 -0.006696
v 0.689353 6.301972 -0.006696
v 0.332451 6.200000 -0.006696
v -0.026551 6.019967 -0.006696
v 0.682452 6.329857 -0.006696
v 0.316802 6.223782 -0.006696
v -0.026551 6.000000 -0.006696
v 0.332451 6.200000 -0.002696
v 0.689353 6.301972 -0.002696
v -0.008549 6.000000 -0.002696
v 0.316802 6.223782 -0.002696
v 0.682452 6.329857 -0.002696
v -0.026551 6.019967 -0.002696
v -0.026551 6.000000 -0.002696
v 0.633219 6.315575 -0.002696
v 0.724354 6.301971 0.002304
v 0.633220 6.305421 0.002304
v 0.717455 6.329857 0.002304
v 0.632742 6.350000 -0.002416
v 0.732742 6.350000 -0.002416
v 0.632742 6.350000 0.002584
v 0.732742 6.350000 0.002584
v 0.732449 6.301970 -0.002696
v 0.732449 6.301970 0.002304
v 0.717455 6.329857 0.006304
v 0.724357 6.301972 0.006304
v 0.008452 6.000000 0.006304
v 0.008452 6.019967 0.006304
v 0.351806 6.223782 0.006304
v 0.026455 6.000000 0.006304
v 0.367455 6.200000 0.006304
v 0.008452 6.000000 0.002304
v 0.351806 6.223782 0.002304
v 0.008452 6.019967 0.002304
v 0.367455 6.200000 0.002304
v 0.026455 6.000000 0.002304
v 0.633219 6.301970 -0.002696
v 0.633219 6.301970 0.002304
v 0.732742 6.370000 0.020084
v 0.632742 6.370000 0.020084
v 0.732742 6.355858 0.014226
v 0.632742 6.355858 0.014226
v 0.732742 6.355858 -0.014058
v 0.632742 6.355858 -0.014058
v 0.732742 6.370000 -0.019916
v 0.632742 6.370000 -0.019916
v 0.732742 6.384142 -0.014058
v 0.632742 6.384142 -0.014058
v 0.732742 6.390000 0.000084
v 0.632742 6.390000 0.000084
v 0.732742 6.384142 0.014226
v 0.632742 6.384142 0.014226
v 0.632741 6.353556 -0.000056
v 0.732742 6.353556 0.000084
v 0.732742 6.369555 0.016084
v 0.732742 6.358242 0.011398
v 0.632741 6.369555 0.015944
v 0.732742 6.358242 -0.011230
v 0.732742 6.369555 -0.015916
v 0.732742 6.380869 -0.011230
v 0.732742 6.385555 0.000084
v 0.732742 6.380869 0.011398
v 0.632741 6.380869 0.011258
vn -0.0000 -0.0000 1.0000
vn -0.0000 1.0000 -0.0000
vn 0.0001 0.7071 -0.7071
vn 0.0001 -0.7071 -0.7071
vn 0.0001 -0.0000 -1.0000
vn -0.0001 0.7071 0.7071
vn -0.0001 -0.0000 1.0000
vn -0.0001 -0.7071 0.7071
vn -0.0000 -1.0000 -0.0000
vn 1.0000 -0.0000 -0.0000
vn -0.0000 -0.0000 -1.0000
vn -0.5104 0.8599 -0.0000
vn 0.5059 -0.8626 -0.0000
vn 0.9707 0.2402 -0.0000
vn -0.2786 0.9604 -0.0000
vn -0.2786 0.9604 -0.0001
vn 0.2747 -0.9615 -0.0000
vn -1.0000 -0.0000 -0.0000
vn -0.0026 -0.0091 1.0000
vn 0.0006 -0.0075 1.0000
vn -0.0038 -0.0110 0.9999
vn -1.0000 0.0002 -0.0002
vn -1.0000 -0.0000 -0.0002
vn 0.0003 0.0092 -1.0000
vn -0.0018 0.0095 -1.0000
vn 0.0025 0.0078 -1.0000
vn -0.2786 0.9604 0.0004
vn 0.9707 0.2402 -0.0001
vn 0.9707 0.2402 -0.0006
vn -0.0000 -1.0000 -0.0003
vn -0.0001 -1.0000 0.0011
vn -0.0000 -0.6807 0.7326
vn -0.0000 -0.8933 0.4495
vn -0.0000 -0.8933 -0.4495
vn -0.0000 -0.6807 -0.7326
vn -0.0000 0.7071 -0.7071
vn -0.0000 0.7071 0.7071
vn -1.0000 -0.0002 0.0002
vn -1.0000 -0.0000 0.0002
vn 1.0000 -0.0023 -0.0000
vn 1.0000 -0.0061 -0.0000
vn -0.0032 -0.0053 1.0000
vn -0.0000 -0.0058 1.0000
vn -0.0000 -0.0063 1.0000
vn -1.0000 -0.0037 -0.0009
vn -0.5063 -0.0000 -0.8624
vn -1.0000 -0.0065 -0.0022
vn -1.0000 0.0002 -0.0000
vn -1.0000 -0.0074 0.0052
vn -1.0000 -0.0038 0.0002
vn -1.0000 -0.0003 -0.0001
vn -1.0000 -0.0002 -0.0002
vn -1.0000 0.0002 0.0002
vn 0.0022 0.0039 -1.0000
vn -0.0024 0.0081 -1.0000
vn 0.2747 -0.9615 -0.0001
vn -0.0000 -1.0000 0.0001
vt 0.969856 0.000273
vt 0.973356 0.014273
vt 0.975106 0.007273
vt 0.975106 0.014273
vt 0.978606 0.014273
vt 0.976856 0.007273
vt 0.978606 0.007273
vt 0.971606 0.007273
vt 0.969856 0.014273
vt 0.969856 0.007273
vt 0.971606 0.014273
vt 0.973356 0.007273
vt 0.983856 0.014273
vt 0.982106 0.007273
vt 0.983856 0.007273
vt 0.980356 0.014273
vt 0.976856 0.014273
vt 0.982106 0.014273
vt 0.980356 0.007273
s 1
usemtl Catenary
f 29/1/1 58/1/1 32/1/1
f 12/2/2 5/3/3 16/4/3
f 11/5/4 4/6/5 3/7/4
f 7/8/6 10/9/7 2/10/7
f 13/11/6 6/12/2 12/2/2
f 10/13/7 1/14/8 2/15/7
f 3/7/4 14/16/9 11/5/4
f 60/15/10 62/14/10 76/10/10
f 27/1/11 23/1/11 24/1/11
f 50/1/1 52/1/1 46/1/1
f 66/6/10 81/3/10 80/6/10
f 34/1/12 27/1/12 25/1/12
f 29/1/13 22/1/13 24/1/13
f 33/1/14 23/1/14 26/1/14
f 32/1/15 36/1/16 26/1/15
f 30/1/17 24/1/17 23/1/17
f 35/1/18 25/1/18 28/1/18
f 43/1/19 38/1/20 39/1/21
f 69/4/22 67/17/23 21/4/22
f 33/1/24 40/1/25 41/1/26
f 48/1/18 55/1/18 53/1/18
f 37/1/17 52/1/17 56/1/17
f 50/1/15 39/1/15 38/1/27
f 39/1/28 47/1/29 37/1/29
f 52/1/13 57/1/13 56/1/13
f 49/1/12 54/1/12 55/1/12
f 30/1/30 37/1/31 58/1/9
f 56/1/11 53/1/11 54/1/11
f 61/13/1 62/14/32 60/15/1
f 63/18/32 43/19/33 62/14/32
f 40/16/34 64/7/35 41/19/34
f 65/5/35 66/6/11 64/7/35
f 67/17/11 68/3/36 66/6/11
f 69/4/36 70/12/2 68/3/36
f 71/2/2 72/8/37 70/12/2
f 73/11/37 60/10/1 72/8/37
f 4/6/5 16/4/3 5/3/3
f 63/18/38 78/13/39 19/18/38
f 9/18/8 8/19/9 1/14/8
f 16/4/18 11/5/18 9/18/18
f 32/1/1 34/1/1 35/1/1
f 35/1/1 31/1/1 29/1/1
f 29/1/1 30/1/1 58/1/1
f 58/1/1 36/1/1 32/1/1
f 32/1/1 35/1/1 29/1/1
f 12/2/2 6/12/2 5/3/3
f 11/5/4 15/17/5 4/6/5
f 7/8/6 13/11/6 10/9/7
f 13/11/6 7/8/6 6/12/2
f 10/13/7 9/18/8 1/14/8
f 3/7/4 8/19/9 14/16/9
f 43/1/40 45/1/41 44/1/41
f 41/19/40 64/7/10 79/7/10
f 43/1/40 44/1/41 41/19/40
f 81/3/10 68/3/10 70/12/10
f 82/12/10 81/3/10 70/12/10
f 62/14/10 43/1/40 41/19/40
f 41/19/40 79/7/10 75/19/10
f 41/19/40 75/19/10 77/14/10
f 82/12/10 70/12/10 72/8/10
f 83/8/10 82/12/10 72/8/10
f 62/14/10 41/19/40 77/14/10
f 76/10/10 83/8/10 72/8/10
f 62/14/10 77/14/10 76/10/10
f 76/10/10 72/8/10 60/15/10
f 24/1/11 22/1/11 28/1/11
f 28/1/11 25/1/11 27/1/11
f 27/1/11 26/1/11 23/1/11
f 24/1/11 28/1/11 27/1/11
f 50/1/1 49/1/1 48/1/1
f 48/1/1 51/1/1 52/1/1
f 52/1/1 47/1/1 46/1/1
f 50/1/1 48/1/1 52/1/1
f 79/7/10 64/7/10 66/6/10
f 66/6/10 68/3/10 81/3/10
f 80/6/10 79/7/10 66/6/10
f 34/1/12 32/1/12 27/1/12
f 29/1/13 31/1/13 22/1/13
f 33/1/14 30/1/14 23/1/14
f 26/1/15 27/1/15 32/1/15
f 36/1/16 33/1/15 26/1/15
f 30/1/17 29/1/17 24/1/17
f 35/1/18 34/1/18 25/1/18
f 37/1/42 45/1/43 43/1/19
f 43/1/19 42/1/44 38/1/20
f 39/1/21 37/1/42 43/1/19
f 40/1/45 36/1/46 58/1/47
f 58/1/47 59/1/48 38/1/49
f 42/16/50 63/18/38 19/18/38
f 58/1/47 38/1/49 42/16/50
f 40/1/45 58/1/47 42/16/50
f 42/16/50 19/18/38 74/16/51
f 42/16/50 74/16/51 17/5/52
f 65/5/52 40/1/45 42/16/50
f 78/9/39 61/9/39 73/11/53
f 84/11/53 78/9/39 73/11/53
f 65/5/52 42/16/50 17/5/52
f 65/5/52 17/5/52 18/17/23
f 84/11/53 73/11/53 71/2/48
f 20/2/48 84/11/53 71/2/48
f 67/17/23 65/5/52 18/17/23
f 21/4/22 20/2/48 71/2/48
f 67/17/23 18/17/23 21/4/22
f 21/4/22 71/2/48 69/4/22
f 44/1/54 30/1/11 33/1/24
f 33/1/24 36/1/55 40/1/25
f 41/1/26 44/1/54 33/1/24
f 48/1/18 49/1/18 55/1/18
f 37/1/17 47/1/56 52/1/17
f 38/1/27 54/1/15 50/1/15
f 50/1/15 46/1/15 39/1/15
f 39/1/28 46/1/14 47/1/29
f 52/1/13 51/1/13 57/1/13
f 49/1/12 50/1/12 54/1/12
f 30/1/30 44/1/9 45/1/57
f 37/1/31 59/1/9 58/1/9
f 30/1/30 45/1/57 37/1/31
f 54/1/11 38/1/11 59/1/11
f 59/1/11 37/1/11 56/1/11
f 56/1/11 57/1/11 53/1/11
f 53/1/11 55/1/11 54/1/11
f 54/1/11 59/1/11 56/1/11
f 61/13/1 63/18/32 62/14/32
f 63/18/32 42/16/33 43/19/33
f 40/16/34 65/5/35 64/7/35
f 65/5/35 67/17/11 66/6/11
f 67/17/11 69/4/36 68/3/36
f 69/4/36 71/2/2 70/12/2
f 71/2/2 73/11/37 72/8/37
f 73/11/37 61/9/1 60/10/1
f 4/6/5 15/17/5 16/4/3
f 63/18/38 61/13/39 78/13/39
f 9/18/8 14/16/9 8/19/9
f 9/18/18 10/9/18 13/11/18
f 13/11/18 12/2/18 16/4/18
f 16/4/18 15/17/18 11/5/18
f 11/5/18 14/16/18 9/18/18
f 9/18/18 13/11/18 16/4/18
o GantryInsulator.006
v -0.000000 7.039817 -0.008762
v 0.000000 7.054616 -0.102362
v 0.000000 7.130641 -0.022523
v 0.000000 7.140331 -0.102362
v -0.000000 7.216355 -0.038935
v 0.027709 7.216355 -0.027457
v 0.070711 7.140331 -0.073072
v 0.014843 7.130641 -0.016375
v 0.070711 7.054616 -0.073072
v 0.006374 7.039817 -0.006122
v 0.039187 7.216355 0.000252
v 0.100000 7.140331 -0.002362
v 0.020992 7.130641 -0.001531
v 0.100000 7.054616 -0.002362
v 0.009014 7.039817 0.000252
v 0.027709 7.216355 0.027961
v 0.070711 7.140331 0.068349
v 0.014040 7.130641 0.014596
v 0.070711 7.054616 0.068349
v 0.006374 7.039817 0.006626
v -0.000000 7.216355 0.039439
v 0.000000 7.140331 0.097638
v 0.000000 7.130641 0.020487
v 0.000000 7.054616 0.097638
v -0.000000 7.039817 0.009266
v -0.027709 7.216355 0.027961
v -0.070711 7.140331 0.068349
v -0.014040 7.130641 0.014596
v -0.070711 7.054616 0.068349
v -0.006374 7.039817 0.006626
v -0.039187 7.216355 0.000252
v -0.100000 7.140331 -0.002362
v -0.020992 7.130641 -0.001531
v -0.100000 7.054616 -0.002362
v -0.009014 7.039817 0.000252
v -0.027709 7.216355 -0.027457
v -0.070711 7.140331 -0.073072
v -0.014843 7.130641 -0.016375
v -0.070711 7.054616 -0.073072
v -0.006374 7.039817 -0.006122
v -0.000000 7.216355 -0.018017
v 0.012918 7.216355 -0.012666
v 0.018269 7.216355 0.000252
v 0.012918 7.216355 0.013170
v -0.000000 7.216355 0.018521
v -0.012918 7.216355 0.013170
v -0.018269 7.216355 0.000252
v -0.012918 7.216355 -0.012666
v -0.000000 7.334884 -0.018017
v 0.012918 7.334884 -0.012666
v 0.018269 7.334884 0.000252
v 0.012918 7.334884 0.013170
v -0.000000 7.334884 0.018521
v -0.012918 7.334884 0.013170
v -0.018269 7.334884 0.000252
v -0.012918 7.334884 -0.012666
v -0.000000 7.350073 0.000252
v 0.018269 7.350073 0.000252
v -0.018269 7.350073 0.000252
v -0.012918 7.334884 0.034277
v -0.018269 7.334884 0.021358
v -0.000000 7.334884 0.039627
v 0.012918 7.334884 0.034277
v 0.018269 7.334884 0.021358
v -0.012918 7.350073 0.034277
v -0.018269 7.350073 0.021358
v -0.000000 7.350073 0.039627
v 0.012918 7.350073 0.034277
v 0.018269 7.350073 0.021358
v -0.012918 7.334884 -0.034282
v -0.000000 7.334884 -0.039633
v -0.018269 7.334884 -0.021364
v 0.012918 7.334884 -0.034282
v 0.018269 7.334884 -0.021364
v -0.012918 7.350073 -0.034282
v -0.000000 7.350073 -0.039633
v -0.018269 7.350073 -0.021364
v 0.012918 7.350073 -0.034282
v 0.018269 7.350073 -0.021364
v -0.000000 6.379152 -0.008762
v 0.006374 6.379152 -0.006122
v 0.009014 6.379152 0.000252
v 0.006374 6.379152 0.006626
v -0.000000 6.379152 0.009266
v -0.006374 6.379152 0.006626
v -0.009014 6.379152 0.000252
v -0.006374 6.379152 -0.006122
vn -0.1109 -0.9875 -0.1117
vn -0.0000 -0.9877 -0.1562
vn -0.1122 -0.9875 -0.1105
vn -0.4879 0.7231 -0.4889
vn -0.0000 0.7242 -0.6896
vn -0.0853 -0.9927 -0.0856
vn -0.0000 -0.9927 -0.1205
vn -0.0857 -0.9927 -0.0852
vn -0.5436 0.6361 -0.5477
vn -0.0000 0.6406 -0.7679
vn -0.1605 -0.9870 -0.0008
vn -0.1606 -0.9870 0.0017
vn -0.6934 0.7206 -0.0010
vn -0.4893 0.7231 -0.4875
vn -0.1217 -0.9926 -0.0002
vn -0.1213 -0.9926 0.0010
vn -0.7808 0.6247 -0.0042
vn -0.5489 0.6360 -0.5424
vn -0.1162 -0.9865 0.1154
vn -0.1149 -0.9865 0.1167
vn -0.4952 0.7160 0.4921
vn -0.6917 0.7222 0.0052
vn -0.0876 -0.9924 0.0869
vn -0.0857 -0.9924 0.0888
vn -0.5609 0.6129 0.5566
vn -0.7810 0.6245 0.0066
vn -0.0000 -0.9863 0.1652
vn -0.0000 0.7126 0.7016
vn -0.4872 0.7158 0.5003
vn -0.0000 -0.9922 0.1245
vn -0.0000 -0.9922 0.1246
vn -0.0000 0.6079 0.7940
vn -0.5554 0.6128 0.5621
vn 0.1149 -0.9865 0.1167
vn 0.4872 0.7158 0.5003
vn 0.4952 0.7160 0.4921
vn 0.0857 -0.9924 0.0888
vn 0.5554 0.6128 0.5621
vn 0.5609 0.6129 0.5566
vn 0.1606 -0.9870 0.0017
vn 0.1162 -0.9865 0.1154
vn 0.6917 0.7222 0.0052
vn 0.6934 0.7206 -0.0010
vn 0.1213 -0.9926 0.0010
vn 0.0876 -0.9924 0.0869
vn 0.7810 0.6245 0.0066
vn 0.7808 0.6247 -0.0042
vn 0.1122 -0.9875 -0.1105
vn 0.1605 -0.9870 -0.0008
vn 0.4893 0.7231 -0.4875
vn 0.4879 0.7231 -0.4889
vn 0.0857 -0.9927 -0.0852
vn 0.1217 -0.9926 -0.0002
vn 0.5489 0.6360 -0.5424
vn 0.5436 0.6361 -0.5477
vn 0.1109 -0.9875 -0.1117
vn 0.0853 -0.9927 -0.0856
vn -0.0000 0.7123 0.7019
vn -0.0000 1.0000 -0.0000
vn 0.7071 -0.0000 0.7071
vn -0.0000 -0.0000 1.0000
vn -0.7071 -0.0000 0.7071
vn -1.0000 -0.0000 -0.0000
vn -0.7071 -0.0000 -0.7071
vn -0.0000 -0.0000 -1.0000
vn 0.7071 -0.0000 -0.7071
vn 1.0000 -0.0000 -0.0000
vn 0.9701 -0.2425 -0.0000
vn 0.9808 -0.0000 -0.1951
vn -0.0000 -1.0000 -0.0000
vn 0.7319 -0.6657 0.1456
vn -0.9808 -0.0000 0.1951
vn -0.7319 -0.6657 0.1456
vn -0.9701 -0.2425 -0.0000
vn 0.7319 -0.6657 -0.1456
vn -0.7319 -0.6657 -0.1456
vn 0.9808 -0.0000 0.1951
vn -0.9808 -0.0000 -0.1951
vt 0.959703 0.009387
vt 0.960882 0.008099
vt 0.960684 0.009187
vt 0.957954 0.007566
vt 0.960035 0.007566
vt 0.962915 0.005744
vt 0.961736 0.007033
vt 0.961934 0.005945
vt 0.964664 0.007566
vt 0.962584 0.007566
vt 0.958751 0.010974
vt 0.960309 0.010184
vt 0.959740 0.011133
vt 0.957756 0.008654
vt 0.963867 0.004157
vt 0.962309 0.004947
vt 0.962878 0.003998
vt 0.964862 0.006477
vt 0.957301 0.012125
vt 0.959037 0.011934
vt 0.958171 0.012621
vt 0.957187 0.009603
vt 0.965317 0.003006
vt 0.963581 0.003197
vt 0.964447 0.002510
vt 0.965431 0.005529
vt 0.955539 0.012691
vt 0.957231 0.013124
vt 0.956177 0.013462
vt 0.956321 0.010290
vt 0.967079 0.002440
vt 0.965388 0.002008
vt 0.966441 0.001669
vt 0.966297 0.004841
vt 0.957231 0.002008
vt 0.955539 0.002440
vt 0.956177 0.001669
vt 0.956321 0.004841
vt 0.957301 0.003006
vt 0.965388 0.013124
vt 0.967079 0.012691
vt 0.966441 0.013462
vt 0.966297 0.010290
vt 0.965317 0.012125
vt 0.959037 0.003197
vt 0.958171 0.002510
vt 0.957187 0.005529
vt 0.958751 0.004157
vt 0.963581 0.011934
vt 0.964447 0.012621
vt 0.965431 0.009603
vt 0.963867 0.010974
vt 0.960309 0.004947
vt 0.959740 0.003998
vt 0.957756 0.006477
vt 0.959703 0.005744
vt 0.962309 0.010184
vt 0.962878 0.011133
vt 0.964862 0.008654
vt 0.962915 0.009387
vt 0.960882 0.007033
vt 0.960684 0.005945
vt 0.961736 0.008099
vt 0.961934 0.009187
vt 0.955268 0.010628
vt 0.967350 0.004503
vt 0.955268 0.004503
vt 0.967350 0.010628
vt 0.981114 0.009656
vt 0.982013 0.009945
vt 0.981114 0.005003
vt 0.980374 0.005590
vt 0.979888 0.006400
vt 0.979719 0.007329
vt 0.979888 0.008259
vt 0.980374 0.009069
vt 0.982013 0.004714
vt 0.924092 -0.341471
vt 0.974914 0.011060
vt 0.974174 0.011647
vt 0.975514 0.004283
vt 0.976000 0.005093
vt 0.973371 0.012076
vt 0.972472 0.012365
vt 0.976321 0.005945
vt 0.976490 0.006874
vt 0.976490 0.007784
vt 0.976321 0.008714
vt 0.972472 0.002294
vt 0.973371 0.002583
vt 0.976000 0.009566
vt 0.975514 0.010376
vt 0.974174 0.003012
vt 0.974914 0.003599
s 1
usemtl Catenary
f 123/20/58 85/21/59 124/22/60
f 123/20/61 87/23/62 86/24/62
f 121/25/63 87/26/64 122/27/65
f 121/25/66 89/28/67 88/29/67
f 118/30/68 124/31/60 119/32/69
f 118/30/70 122/33/71 123/20/61
f 116/34/72 122/35/65 117/36/73
f 116/34/74 120/37/75 121/25/66
f 113/38/76 119/39/69 114/40/77
f 113/38/78 117/41/79 118/30/70
f 111/42/80 117/43/73 112/44/81
f 111/42/82 115/45/83 116/34/74
f 108/46/84 114/47/77 109/48/84
f 108/46/85 112/49/86 113/38/78
f 106/50/87 112/51/81 107/52/88
f 106/50/89 110/53/90 111/42/82
f 104/54/91 108/55/84 109/56/84
f 102/57/92 108/55/85 103/58/93
f 102/59/94 106/60/87 107/61/88
f 100/62/95 106/60/89 101/63/96
f 99/64/97 103/58/98 104/65/91
f 97/66/99 103/58/93 98/67/100
f 97/68/101 101/63/102 102/69/94
f 95/70/103 101/63/96 96/71/104
f 94/72/105 98/67/106 99/73/97
f 92/74/107 98/67/100 93/75/108
f 92/76/109 96/71/110 97/77/101
f 90/78/111 96/71/104 91/79/112
f 85/80/59 93/75/113 94/81/105
f 87/23/62 93/75/108 86/24/62
f 87/82/64 91/79/114 92/83/109
f 89/28/67 91/79/112 88/29/67
f 123/20/58 86/24/59 85/21/59
f 123/20/61 122/33/71 87/23/62
f 121/25/63 88/29/64 87/26/64
f 121/25/66 120/37/75 89/28/67
f 118/30/68 123/20/58 124/31/60
f 118/30/70 117/41/79 122/33/71
f 116/34/72 121/25/63 122/35/65
f 116/34/74 115/45/83 120/37/75
f 113/38/76 118/30/68 119/39/69
f 113/38/78 112/49/86 117/41/79
f 111/42/80 116/34/72 117/43/73
f 111/42/82 110/53/90 115/45/83
f 108/46/84 113/38/76 114/47/77
f 108/46/85 107/84/115 112/49/86
f 106/50/87 111/42/80 112/51/81
f 106/50/89 105/85/89 110/53/90
f 104/54/91 103/58/98 108/55/84
f 102/57/92 107/86/115 108/55/85
f 102/59/94 101/63/102 106/60/87
f 100/62/95 105/87/89 106/60/89
f 99/64/97 98/67/106 103/58/98
f 97/66/99 102/57/92 103/58/93
f 97/68/101 96/71/110 101/63/102
f 95/70/103 100/62/95 101/63/96
f 94/72/105 93/75/113 98/67/106
f 92/74/107 97/66/99 98/67/100
f 92/76/109 91/79/114 96/71/110
f 90/78/111 95/70/103 96/71/104
f 85/80/59 86/24/59 93/75/113
f 87/23/62 92/74/107 93/75/108
f 87/82/64 88/29/64 91/79/114
f 89/28/67 90/78/111 91/79/112
f 115/45/116 132/37/116 120/37/116
f 95/70/116 128/62/116 100/62/116
f 110/53/116 131/45/116 115/45/116
f 90/78/116 127/70/116 95/70/116
f 105/85/116 130/53/116 110/53/116
f 90/78/116 125/28/116 126/78/116
f 120/37/116 125/28/116 89/28/116
f 100/62/116 129/87/116 105/87/116
f 128/88/117 137/89/118 129/89/118
f 130/90/119 139/91/120 131/91/120
f 132/92/121 133/93/122 125/93/122
f 125/93/122 134/94/123 126/94/123
f 127/95/124 136/88/117 128/88/117
f 129/96/118 138/90/119 130/90/119
f 131/91/120 140/92/121 132/92/121
f 126/94/123 135/95/124 127/95/124
f 135/95/125 163/95/126 142/95/124
f 137/89/127 147/88/127 146/89/127
f 142/95/124 148/95/128 135/95/125
f 133/93/127 157/94/127 134/94/127
s 0
f 141/97/116 161/97/116 143/97/116
f 141/97/116 151/97/116 152/97/116
s 1
f 137/96/127 144/90/127 138/90/127
f 133/93/127 154/92/127 155/93/127
f 147/88/117 151/89/118 146/89/118
f 144/90/119 150/91/129 145/91/130
f 148/95/128 152/88/117 147/88/117
f 146/96/118 149/90/119 144/90/119
s 0
f 141/97/116 153/97/116 142/97/116
s 1
f 139/91/131 150/91/129 143/91/120
s 0
f 141/97/116 150/97/116 149/97/116
s 1
f 136/88/127 148/95/128 147/88/127
f 138/90/127 145/91/130 139/91/131
s 0
f 141/97/116 149/97/116 151/97/116
s 1
f 157/94/123 163/95/126 158/95/132
f 154/92/121 160/93/122 155/93/122
f 155/93/122 162/94/123 157/94/123
f 156/91/133 159/92/121 154/92/121
f 143/91/120 156/91/133 139/91/131
f 140/92/127 156/91/133 154/92/127
s 0
f 141/97/116 163/97/116 162/97/116
f 141/97/116 160/97/116 159/97/116
f 141/97/116 162/97/116 160/97/116
s 1
f 134/94/127 158/95/132 135/95/125
f 119/98/120 169/99/119 114/99/119
f 99/100/124 165/101/123 94/101/123
f 114/102/119 168/103/118 109/103/118
f 94/104/123 164/105/122 85/105/122
f 85/106/122 171/107/121 124/107/121
f 109/108/118 167/109/117 104/109/117
f 124/110/121 170/111/120 119/111/120
f 104/112/117 166/113/124 99/113/124
f 115/45/116 131/45/116 132/37/116
f 95/70/116 127/70/116 128/62/116
f 110/53/116 130/53/116 131/45/116
f 90/78/116 126/78/116 127/70/116
f 105/85/116 129/85/116 130/53/116
f 90/78/116 89/28/116 125/28/116
f 120/37/116 132/37/116 125/28/116
f 100/62/116 128/62/116 129/87/116
f 128/88/117 136/88/117 137/89/118
f 130/90/119 138/90/119 139/91/120
f 132/92/121 140/92/121 133/93/122
f 125/93/122 133/93/122 134/94/123
f 127/95/124 135/95/124 136/88/117
f 129/96/118 137/96/118 138/90/119
f 131/91/120 139/91/120 140/92/121
f 126/94/123 134/94/123 135/95/124
f 135/95/125 158/95/132 163/95/126
f 137/89/127 136/88/127 147/88/127
f 142/95/124 153/95/134 148/95/128
f 133/93/127 155/93/127 157/94/127
s 0
f 141/97/116 159/97/116 161/97/116
s 1
f 137/96/127 146/96/127 144/90/127
f 133/93/127 140/92/127 154/92/127
f 147/88/117 152/88/117 151/89/118
f 144/90/119 149/90/119 150/91/129
f 148/95/128 153/95/134 152/88/117
f 146/96/118 151/96/118 149/90/119
s 0
f 141/97/116 152/97/116 153/97/116
s 1
f 139/91/131 145/91/130 150/91/129
s 0
f 141/97/116 143/97/116 150/97/116
s 1
f 136/88/127 135/95/125 148/95/128
f 138/90/127 144/90/127 145/91/130
f 157/94/123 162/94/123 163/95/126
f 154/92/121 159/92/121 160/93/122
f 155/93/122 160/93/122 162/94/123
f 156/91/133 161/91/135 159/92/121
f 143/91/120 161/91/135 156/91/133
f 140/92/127 139/91/131 156/91/133
s 0
f 141/97/116 142/97/116 163/97/116
s 1
f 134/94/127 157/94/127 158/95/132
f 119/98/120 170/98/120 169/99/119
f 99/100/124 166/100/124 165/101/123
f 114/102/119 169/102/119 168/103/118
f 94/104/123 165/104/123 164/105/122
f 85/106/122 164/106/122 171/107/121
f 109/108/118 168/108/118 167/109/117
f 124/110/121 171/110/121 170/111/120
f 104/112/117 167/112/117 166/113/124
o Cantileverindulator.025
v 1.782128 6.369318 -0.027084
v 1.782125 6.353548 -0.020551
v 1.782123 6.347015 -0.004780
v 1.782125 6.353548 0.010991
v 1.782128 6.369318 0.017523
v 1.782131 6.385089 0.010991
v 1.782132 6.391622 -0.004780
v 1.782131 6.385089 -0.020551
v 2.063907 6.369247 -0.027084
v 2.063904 6.353476 -0.020551
v 2.063903 6.346943 -0.004780
v 2.063904 6.353476 0.010991
v 2.063907 6.369247 0.017523
v 2.063910 6.385017 0.010991
v 2.063912 6.391550 -0.004780
v 2.063910 6.385017 -0.020551
v 2.052547 6.336826 -0.037204
v 2.041195 6.336830 -0.037204
v 2.029845 6.353484 -0.020551
v 2.018492 6.353487 -0.020551
v 2.007136 6.336838 -0.037204
v 1.995783 6.336841 -0.037204
v 1.984433 6.353496 -0.020551
v 1.973081 6.353499 -0.020551
v 1.961724 6.336850 -0.037204
v 1.950371 6.336853 -0.037204
v 1.939022 6.353508 -0.020551
v 1.927669 6.353510 -0.020551
v 1.916312 6.336861 -0.037204
v 1.904960 6.336864 -0.037204
v 1.893610 6.353519 -0.020551
v 1.882257 6.353522 -0.020551
v 1.870901 6.336873 -0.037204
v 1.859547 6.336876 -0.037204
v 1.848198 6.353531 -0.020551
v 2.052545 6.323397 -0.004781
v 2.041192 6.323400 -0.004781
v 2.029844 6.346952 -0.004780
v 2.018491 6.346955 -0.004780
v 2.007133 6.323408 -0.004781
v 1.995780 6.323410 -0.004781
v 1.984432 6.346963 -0.004780
v 1.973079 6.346966 -0.004780
v 1.961721 6.323420 -0.004781
v 1.950368 6.323422 -0.004781
v 1.939020 6.346975 -0.004780
v 1.927667 6.346978 -0.004780
v 1.916310 6.323431 -0.004781
v 1.904957 6.323435 -0.004781
v 1.893609 6.346986 -0.004780
v 1.882256 6.346989 -0.004780
v 1.870898 6.323442 -0.004781
v 1.859545 6.323446 -0.004781
v 1.848197 6.346998 -0.004780
v 2.052547 6.336826 0.027642
v 2.041195 6.336830 0.027642
v 2.029845 6.353484 0.010991
v 2.018492 6.353487 0.010991
v 2.007136 6.336838 0.027642
v 1.995783 6.336841 0.027642
v 1.984433 6.353496 0.010991
v 1.973081 6.353499 0.010991
v 1.961724 6.336850 0.027642
v 1.950371 6.336853 0.027642
v 1.939022 6.353508 0.010991
v 1.927669 6.353510 0.010991
v 1.916312 6.336861 0.027642
v 1.904960 6.336864 0.027642
v 1.893610 6.353519 0.010991
v 1.882257 6.353522 0.010991
v 1.870901 6.336873 0.027642
v 1.859547 6.336876 0.027642
v 1.848198 6.353531 0.010991
v 2.052554 6.369250 0.041073
v 2.041201 6.369253 0.041073
v 2.029848 6.369255 0.017523
v 2.018496 6.369258 0.017523
v 2.007143 6.369262 0.041073
v 1.995790 6.369264 0.041073
v 1.984437 6.369267 0.017523
v 1.973084 6.369270 0.017523
v 1.961731 6.369273 0.041073
v 1.950378 6.369276 0.041073
v 1.939025 6.369278 0.017523
v 1.927672 6.369281 0.017523
v 1.916319 6.369285 0.041073
v 1.904966 6.369287 0.041073
v 1.893613 6.369290 0.017523
v 1.882261 6.369293 0.017523
v 1.870908 6.369296 0.041073
v 1.859555 6.369299 0.041073
v 1.848202 6.369302 0.017523
v 2.052561 6.401672 0.027642
v 2.041208 6.401676 0.027642
v 2.029852 6.385026 0.010991
v 2.018499 6.385029 0.010991
v 2.007149 6.401685 0.027642
v 1.995797 6.401688 0.027642
v 1.984440 6.385038 0.010991
v 1.973087 6.385041 0.010991
v 1.961738 6.401697 0.027642
v 1.950385 6.401699 0.027642
v 1.939028 6.385049 0.010991
v 1.927675 6.385052 0.010991
v 1.916326 6.401708 0.027642
v 1.904973 6.401711 0.027642
v 1.893616 6.385061 0.010991
v 1.882264 6.385064 0.010991
v 1.870914 6.401719 0.027642
v 1.859561 6.401723 0.027642
v 1.848205 6.385073 0.010991
v 2.052564 6.415103 -0.004781
v 2.041211 6.415106 -0.004781
v 2.029853 6.391559 -0.004780
v 2.018500 6.391561 -0.004780
v 2.007152 6.415115 -0.004781
v 1.995799 6.415117 -0.004781
v 1.984441 6.391570 -0.004780
v 1.973089 6.391573 -0.004780
v 1.961740 6.415126 -0.004781
v 1.950387 6.415130 -0.004781
v 1.939029 6.391582 -0.004780
v 1.927677 6.391585 -0.004780
v 1.916329 6.415138 -0.004781
v 1.904976 6.415141 -0.004781
v 1.893618 6.391593 -0.004780
v 1.882265 6.391596 -0.004780
v 1.870917 6.415150 -0.004781
v 1.859564 6.415153 -0.004781
v 1.848206 6.391605 -0.004780
v 2.052561 6.401672 -0.037204
v 2.041208 6.401676 -0.037204
v 2.029852 6.385026 -0.020551
v 2.018499 6.385029 -0.020551
v 2.007149 6.401685 -0.037204
v 1.995797 6.401688 -0.037204
v 1.984440 6.385038 -0.020551
v 1.973087 6.385041 -0.020551
v 1.961738 6.401697 -0.037204
v 1.950385 6.401699 -0.037204
v 1.939028 6.385049 -0.020551
v 1.927675 6.385052 -0.020551
v 1.916326 6.401708 -0.037204
v 1.904973 6.401711 -0.037204
v 1.893616 6.385061 -0.020551
v 1.882264 6.385064 -0.020551
v 1.870914 6.401719 -0.037204
v 1.859561 6.401723 -0.037204
v 1.848205 6.385073 -0.020551
v 1.848202 6.369301 -0.027084
v 1.859555 6.369299 -0.050634
v 1.870908 6.369296 -0.050634
v 1.882261 6.369293 -0.027084
v 1.893613 6.369290 -0.027084
v 1.904966 6.369287 -0.050634
v 1.916319 6.369285 -0.050634
v 1.927672 6.369282 -0.027084
v 1.939025 6.369278 -0.027084
v 1.950378 6.369276 -0.050634
v 1.961731 6.369273 -0.050634
v 1.973084 6.369270 -0.027084
v 1.984437 6.369267 -0.027084
v 1.995790 6.369264 -0.050634
v 2.007143 6.369262 -0.050634
v 2.018496 6.369258 -0.027084
v 2.029849 6.369255 -0.027084
v 2.041201 6.369253 -0.050634
v 2.052555 6.369250 -0.050634
v 2.121413 6.369318 -0.027084
v 2.121409 6.353547 -0.020551
v 2.121408 6.347015 -0.004780
v 2.121409 6.353547 0.010991
v 2.121413 6.369318 0.017523
v 2.121416 6.385089 0.010991
v 2.121417 6.391621 -0.004780
v 2.121416 6.385089 -0.020551
vn 0.5997 0.5657 -0.5660
vn 0.4805 -0.0001 -0.8770
vn 0.4807 0.6200 -0.6201
vn 0.4808 0.8769 -0.0000
vn 0.4807 0.6200 0.6201
vn 0.5996 0.8003 -0.0000
vn 0.4805 -0.0001 0.8770
vn 0.5997 0.5657 0.5660
vn 0.4804 -0.6202 0.6201
vn 0.6000 -0.0003 0.8000
vn 0.6004 -0.7997 -0.0000
vn 0.4803 -0.8771 -0.0000
vn 0.6003 -0.5657 -0.5654
vn 0.4804 -0.6202 -0.6201
vn 0.6000 -0.0003 -0.8000
vn -0.6000 0.0001 -0.8000
vn -0.0002 -0.7071 -0.7071
vn -0.0000 -0.0000 -1.0000
vn -0.4807 -0.6200 -0.6201
vn -0.6001 -0.5656 -0.5657
vn -0.4805 0.0001 -0.8770
vn 0.6000 -0.0001 -0.8000
vn 0.5999 -0.5658 -0.5657
vn 0.5998 -0.5658 -0.5657
vn -0.0003 -1.0000 -0.0000
vn -0.4807 -0.8769 -0.0000
vn -0.6002 -0.7999 -0.0000
vn 0.5998 -0.8002 -0.0000
vn -0.4808 -0.8769 -0.0000
vn -0.6001 -0.5656 0.5657
vn -0.0002 -0.7071 0.7071
vn -0.4807 -0.6200 0.6201
vn 0.5999 -0.5658 0.5657
vn 0.5998 -0.5658 0.5657
vn -0.6000 0.0001 0.8000
vn -0.0000 -0.0000 1.0000
vn -0.4805 0.0001 0.8770
vn 0.6000 -0.0001 0.8000
vn -0.5999 0.5658 0.5657
vn 0.0002 0.7071 0.7071
vn -0.4804 0.6202 0.6201
vn 0.6001 0.5656 0.5657
vn -0.5998 0.5658 0.5657
vn -0.5998 0.8001 -0.0000
vn 0.0003 1.0000 -0.0000
vn -0.4803 0.8771 -0.0000
vn 0.6002 0.7999 -0.0000
vn -0.5998 0.8002 -0.0000
vn 0.4807 0.8769 -0.0000
vn -0.4804 0.8771 -0.0000
vn 0.0002 0.7071 -0.7071
vn -0.5999 0.5658 -0.5657
vn -0.4804 0.6202 -0.6201
vn 0.6001 0.5656 -0.5657
vn -0.5998 0.5658 -0.5657
vn 0.0009 -0.7069 -0.7073
vn 0.6002 -0.5657 0.5654
vn 0.0012 -1.0000 -0.0000
vn 0.0009 -0.7069 0.7073
vn -0.0000 0.0003 1.0000
vn -0.0009 0.7073 0.7069
vn -0.0009 0.7073 -0.7069
vn -0.0012 1.0000 -0.0000
vn -0.0000 0.0003 -1.0000
vt 0.947470 0.037677
vt 0.927640 0.045459
vt 0.931226 0.028232
vt 0.937842 0.007817
vt 0.928547 0.130780
vt 0.948638 0.133956
vt 0.934473 0.150909
vt 0.925563 0.113182
vt 0.944729 0.122198
vt 0.924520 0.096118
vt 0.942177 0.108777
vt 0.941159 0.080218
vt 0.924508 0.079031
vt 0.942195 0.065540
vt 0.925551 0.062245
vt 0.944237 0.051147
vt 0.707478 0.051626
vt 0.665429 0.070259
vt 0.663516 0.059196
vt 0.726436 0.062389
vt 0.709510 0.065850
vt 0.731361 0.044355
vt 0.724087 0.045720
vt 0.748171 0.044726
vt 0.733780 0.061548
vt 0.755705 0.044441
vt 0.750076 0.062275
vt 0.774261 0.060231
vt 0.757493 0.062188
vt 0.780996 0.041652
vt 0.773817 0.042179
vt 0.797533 0.043226
vt 0.781723 0.060001
vt 0.805052 0.042924
vt 0.798143 0.060884
vt 0.822521 0.059390
vt 0.805650 0.060949
vt 0.830476 0.041180
vt 0.823271 0.041382
vt 0.847033 0.043340
vt 0.830046 0.059427
vt 0.854709 0.042778
vt 0.846735 0.061004
vt 0.871545 0.042575
vt 0.854212 0.060763
vt 0.879065 0.042333
vt 0.872525 0.060506
vt 0.896003 0.044494
vt 0.879637 0.060508
vt 0.903612 0.044707
vt 0.895284 0.062097
vt 0.918291 0.061472
vt 0.902311 0.062281
vt 0.920400 0.044146
vt 0.666539 0.081375
vt 0.727641 0.079061
vt 0.710433 0.080370
vt 0.734901 0.078782
vt 0.750875 0.079574
vt 0.775395 0.078449
vt 0.758282 0.079392
vt 0.783125 0.078508
vt 0.797950 0.078657
vt 0.822520 0.077641
vt 0.805649 0.078870
vt 0.830039 0.077675
vt 0.846616 0.078816
vt 0.871599 0.078454
vt 0.854277 0.078859
vt 0.879363 0.078844
vt 0.894028 0.079351
vt 0.917167 0.078806
vt 0.901313 0.079596
vt 0.710571 0.094615
vt 0.666070 0.092500
vt 0.727968 0.095897
vt 0.735656 0.096428
vt 0.757505 0.096675
vt 0.750030 0.096654
vt 0.773969 0.096495
vt 0.781394 0.096953
vt 0.797988 0.096231
vt 0.805694 0.096183
vt 0.822788 0.096002
vt 0.830597 0.096283
vt 0.853493 0.096672
vt 0.845722 0.096378
vt 0.870075 0.096509
vt 0.877539 0.096957
vt 0.894185 0.096477
vt 0.901791 0.096508
vt 0.916558 0.096402
vt 0.709361 0.108636
vt 0.664786 0.103588
vt 0.724787 0.112656
vt 0.732174 0.113813
vt 0.749007 0.113694
vt 0.756834 0.113652
vt 0.771950 0.114884
vt 0.779581 0.115184
vt 0.797158 0.113528
vt 0.805293 0.113362
vt 0.820618 0.114418
vt 0.828268 0.114662
vt 0.845620 0.113573
vt 0.853676 0.113736
vt 0.869021 0.115063
vt 0.876679 0.115123
vt 0.894114 0.113409
vt 0.901912 0.113407
vt 0.918411 0.114183
vt 0.706539 0.121976
vt 0.662802 0.114687
vt 0.729508 0.131821
vt 0.722416 0.130552
vt 0.747162 0.129630
vt 0.755259 0.129762
vt 0.779276 0.133924
vt 0.772117 0.133980
vt 0.796553 0.129656
vt 0.804550 0.129622
vt 0.828479 0.133474
vt 0.821402 0.133599
vt 0.845456 0.129487
vt 0.853357 0.130038
vt 0.878131 0.133828
vt 0.871011 0.133975
vt 0.895203 0.129401
vt 0.903449 0.129758
vt 0.921419 0.132282
vt 0.702786 0.133700
vt 0.660710 0.125966
vt 0.725711 0.152725
vt 0.716251 0.150262
vt 0.746520 0.143505
vt 0.753385 0.143086
vt 0.779688 0.155355
vt 0.770477 0.155007
vt 0.797261 0.143409
vt 0.803521 0.142992
vt 0.829517 0.154869
vt 0.820453 0.154708
vt 0.846563 0.143030
vt 0.852942 0.142757
vt 0.869125 0.155118
vt 0.878653 0.155355
vt 0.896745 0.143299
vt 0.903846 0.143489
vt 0.924811 0.152870
vt 0.700468 0.026722
vt 0.660939 0.048183
vt 0.658181 0.037066
vt 0.713248 0.008740
vt 0.704304 0.038276
vt 0.723671 0.005540
vt 0.720369 0.028414
vt 0.746201 0.028052
vt 0.727363 0.026952
vt 0.752375 0.015330
vt 0.744561 0.015462
vt 0.768291 0.002226
vt 0.754315 0.028015
vt 0.778339 0.001427
vt 0.770917 0.023715
vt 0.796752 0.026423
vt 0.778228 0.023218
vt 0.803773 0.013762
vt 0.796606 0.013553
vt 0.820096 0.001225
vt 0.804801 0.026526
vt 0.830064 0.000966
vt 0.821525 0.022812
vt 0.847009 0.026585
vt 0.828808 0.022669
vt 0.854472 0.013896
vt 0.847418 0.013663
vt 0.871343 0.001792
vt 0.854996 0.026635
vt 0.881411 0.001991
vt 0.871775 0.023451
vt 0.897185 0.028000
vt 0.879028 0.023679
vt 0.906580 0.015377
vt 0.898588 0.015202
vt 0.927171 0.005399
vt 0.905341 0.027938
vt 0.924302 0.026486
vt 0.980190 0.069840
vt 0.940596 0.094655
vt 0.978927 0.081104
vt 0.979363 0.092335
vt 0.980766 0.103505
vt 0.982956 0.114591
vt 0.951318 0.026094
vt 0.985089 0.047620
vt 0.985446 0.125791
vt 0.982270 0.058665
vt 0.988176 0.036568
s 1
usemtl Catenary
f 187/114/136 339/115/137 302/116/138
f 283/117/139 187/114/136 302/116/138
f 264/118/140 186/119/141 283/120/139
f 245/121/142 185/122/143 264/118/140
f 226/123/144 184/124/145 245/121/142
f 182/125/146 226/123/144 207/126/147
f 181/127/148 207/126/147 188/128/149
f 180/129/150 188/128/149 339/115/137
f 321/130/151 173/131/152 172/132/153
f 321/130/151 205/133/154 206/134/155
f 323/135/137 205/133/154 322/136/156
f 324/137/157 204/138/149 323/135/137
f 325/139/151 203/140/158 324/137/157
f 325/139/151 201/141/154 202/142/155
f 327/143/137 201/141/154 326/144/156
f 328/145/157 200/146/149 327/143/137
f 329/147/151 199/148/158 328/145/157
f 329/147/151 197/149/154 198/150/155
f 331/151/137 197/149/154 330/152/156
f 332/153/157 196/154/149 331/151/137
f 333/155/151 195/156/159 332/153/157
f 334/157/156 194/158/155 333/155/151
f 335/159/137 193/160/154 334/157/156
f 336/161/157 192/162/149 335/159/137
f 337/163/151 191/164/158 336/161/157
f 337/163/151 189/165/154 190/166/155
f 339/115/137 189/165/154 338/167/156
f 206/134/155 174/168/160 173/131/152
f 206/134/155 224/169/161 225/170/162
f 204/138/149 224/169/161 205/133/154
f 203/140/158 223/171/147 204/138/149
f 202/142/155 222/172/163 203/140/158
f 202/142/155 220/173/164 221/174/162
f 200/146/149 220/173/164 201/141/154
f 199/148/158 219/175/147 200/146/149
f 198/150/155 218/176/163 199/148/158
f 198/150/155 216/177/161 217/178/162
f 196/154/149 216/177/161 197/149/154
f 195/156/159 215/179/147 196/154/149
f 194/158/155 214/180/163 195/156/159
f 194/158/155 212/181/161 213/182/162
f 192/162/149 212/181/161 193/160/154
f 191/164/158 211/183/147 192/162/149
f 190/166/155 210/184/163 191/164/158
f 190/166/155 208/185/161 209/186/162
f 188/128/149 208/185/161 189/165/154
f 174/168/160 244/187/165 175/188/166
f 225/170/162 243/189/167 244/187/165
f 224/169/161 242/190/144 243/189/167
f 222/172/163 242/190/144 223/171/147
f 222/172/163 240/191/165 241/192/168
f 221/174/162 239/193/167 240/191/165
f 220/173/164 238/194/144 239/193/167
f 219/175/147 237/195/169 238/194/144
f 218/176/163 236/196/165 237/195/169
f 217/178/162 235/197/167 236/196/165
f 216/177/161 234/198/144 235/197/167
f 214/180/163 234/198/144 215/179/147
f 214/180/163 232/199/165 233/200/169
f 213/182/162 231/201/167 232/199/165
f 212/181/161 230/202/144 231/201/167
f 211/183/147 229/203/169 230/202/144
f 210/184/163 228/204/165 229/203/169
f 209/186/162 227/205/167 228/204/165
f 208/185/161 226/123/144 227/205/167
f 175/188/166 263/206/170 176/207/171
f 244/187/165 262/208/172 263/206/170
f 243/189/167 261/209/142 262/208/172
f 242/190/144 260/210/173 261/209/142
f 241/192/168 259/211/170 260/210/173
f 240/191/165 258/212/172 259/211/170
f 239/193/167 257/213/142 258/212/172
f 238/194/144 256/214/173 257/213/142
f 237/195/169 255/215/170 256/214/173
f 236/196/165 254/216/172 255/215/170
f 235/197/167 253/217/142 254/216/172
f 234/198/144 252/218/173 253/217/142
f 233/200/169 251/219/170 252/218/173
f 232/199/165 250/220/172 251/219/170
f 231/201/167 249/221/142 250/220/172
f 230/202/144 248/222/173 249/221/142
f 229/203/169 247/223/170 248/222/173
f 227/205/167 247/223/170 228/204/165
f 227/205/167 245/121/142 246/224/172
f 176/207/171 282/225/174 177/226/175
f 262/208/172 282/225/174 263/206/170
f 262/208/172 280/227/140 281/228/176
f 261/209/142 279/229/177 280/227/140
f 260/210/173 278/230/178 279/229/177
f 258/212/172 278/230/178 259/211/170
f 258/212/172 276/231/140 277/232/176
f 257/213/142 275/233/177 276/231/140
f 256/214/173 274/234/178 275/233/177
f 254/216/172 274/234/178 255/215/170
f 254/216/172 272/235/140 273/236/176
f 253/217/142 271/237/177 272/235/140
f 252/218/173 270/238/178 271/237/177
f 250/220/172 270/238/178 251/219/170
f 250/220/172 268/239/140 269/240/176
f 249/221/142 267/241/177 268/239/140
f 248/222/173 266/242/178 267/241/177
f 246/224/172 266/242/178 247/223/170
f 246/224/172 264/118/140 265/243/176
f 177/226/175 301/244/179 178/245/180
f 281/228/176 301/244/179 282/225/174
f 281/228/176 299/246/139 300/247/181
f 280/227/140 298/248/182 299/246/139
f 279/229/177 297/249/183 298/248/182
f 277/232/176 297/249/183 278/230/178
f 277/232/176 295/250/184 296/251/181
f 276/231/140 294/252/182 295/250/184
f 275/233/177 293/253/183 294/252/182
f 273/236/176 293/253/183 274/234/178
f 273/236/176 291/254/184 292/255/181
f 272/235/140 290/256/182 291/254/184
f 271/237/177 289/257/183 290/256/182
f 270/238/178 288/258/185 289/257/183
f 269/240/176 287/259/184 288/258/185
f 268/239/140 286/260/182 287/259/184
f 267/241/177 285/261/179 286/260/182
f 265/243/176 285/261/179 266/242/178
f 265/243/176 283/120/139 284/262/181
f 301/263/179 179/264/186 178/265/180
f 300/266/181 320/267/187 301/263/179
f 299/268/139 319/269/188 300/266/181
f 299/268/139 317/270/189 318/271/138
f 297/272/183 317/270/189 298/273/182
f 296/274/181 316/275/190 297/272/183
f 295/276/184 315/277/188 296/274/181
f 295/276/184 313/278/189 314/279/138
f 293/280/183 313/278/189 294/281/182
f 292/282/181 312/283/190 293/280/183
f 291/284/184 311/285/188 292/282/181
f 291/284/184 309/286/189 310/287/138
f 289/288/183 309/286/189 290/289/182
f 288/290/185 308/291/187 289/288/183
f 287/292/184 307/293/188 288/290/185
f 287/292/184 305/294/189 306/295/138
f 285/296/179 305/294/189 286/297/182
f 284/298/181 304/299/190 285/296/179
f 283/117/139 303/300/188 284/298/181
f 320/267/187 172/132/153 179/264/186
f 320/267/187 322/136/156 321/130/151
f 318/271/138 322/136/156 319/269/188
f 317/270/189 323/135/137 318/271/138
f 316/275/190 324/137/157 317/270/189
f 315/277/188 325/139/151 316/275/190
f 314/279/138 326/144/156 315/277/188
f 313/278/189 327/143/137 314/279/138
f 312/283/190 328/145/157 313/278/189
f 311/285/188 329/147/151 312/283/190
f 310/287/138 330/152/156 311/285/188
f 309/286/189 331/151/137 310/287/138
f 308/291/187 332/153/157 309/286/189
f 307/293/188 333/155/151 308/291/187
f 306/295/138 334/157/156 307/293/188
f 305/294/189 335/159/137 306/295/138
f 304/299/190 336/161/157 305/294/189
f 304/299/190 338/167/156 337/163/151
f 302/116/138 338/167/156 303/300/188
f 180/129/150 341/301/191 181/127/148
f 183/302/192 342/303/193 343/304/194
f 185/122/143 344/305/195 345/306/196
f 186/307/141 347/308/197 187/114/136
f 181/127/148 342/303/193 182/125/146
f 184/124/145 343/304/194 344/305/195
f 186/119/141 345/306/196 346/309/198
f 187/114/136 340/310/199 180/129/150
f 187/114/136 180/129/150 339/115/137
f 283/117/139 186/307/141 187/114/136
f 264/118/140 185/122/143 186/119/141
f 245/121/142 184/124/145 185/122/143
f 226/123/144 183/302/192 184/124/145
f 182/125/146 183/302/192 226/123/144
f 181/127/148 182/125/146 207/126/147
f 180/129/150 181/127/148 188/128/149
f 321/130/151 206/134/155 173/131/152
f 321/130/151 322/136/156 205/133/154
f 323/135/137 204/138/149 205/133/154
f 324/137/157 203/140/158 204/138/149
f 325/139/151 202/142/155 203/140/158
f 325/139/151 326/144/156 201/141/154
f 327/143/137 200/146/149 201/141/154
f 328/145/157 199/148/158 200/146/149
f 329/147/151 198/150/155 199/148/158
f 329/147/151 330/152/156 197/149/154
f 331/151/137 196/154/149 197/149/154
f 332/153/157 195/156/159 196/154/149
f 333/155/151 194/158/155 195/156/159
f 334/157/156 193/160/154 194/158/155
f 335/159/137 192/162/149 193/160/154
f 336/161/157 191/164/158 192/162/149
f 337/163/151 190/166/155 191/164/158
f 337/163/151 338/167/156 189/165/154
f 339/115/137 188/128/149 189/165/154
f 206/134/155 225/170/162 174/168/160
f 206/134/155 205/133/154 224/169/161
f 204/138/149 223/171/147 224/169/161
f 203/140/158 222/172/163 223/171/147
f 202/142/155 221/174/162 222/172/163
f 202/142/155 201/141/154 220/173/164
f 200/146/149 219/175/147 220/173/164
f 199/148/158 218/176/163 219/175/147
f 198/150/155 217/178/162 218/176/163
f 198/150/155 197/149/154 216/177/161
f 196/154/149 215/179/147 216/177/161
f 195/156/159 214/180/163 215/179/147
f 194/158/155 213/182/162 214/180/163
f 194/158/155 193/160/154 212/181/161
f 192/162/149 211/183/147 212/181/161
f 191/164/158 210/184/163 211/183/147
f 190/166/155 209/186/162 210/184/163
f 190/166/155 189/165/154 208/185/161
f 188/128/149 207/126/147 208/185/161
f 174/168/160 225/170/162 244/187/165
f 225/170/162 224/169/161 243/189/167
f 224/169/161 223/171/147 242/190/144
f 222/172/163 241/192/168 242/190/144
f 222/172/163 221/174/162 240/191/165
f 221/174/162 220/173/164 239/193/167
f 220/173/164 219/175/147 238/194/144
f 219/175/147 218/176/163 237/195/169
f 218/176/163 217/178/162 236/196/165
f 217/178/162 216/177/161 235/197/167
f 216/177/161 215/179/147 234/198/144
f 214/180/163 233/200/169 234/198/144
f 214/180/163 213/182/162 232/199/165
f 213/182/162 212/181/161 231/201/167
f 212/181/161 211/183/147 230/202/144
f 211/183/147 210/184/163 229/203/169
f 210/184/163 209/186/162 228/204/165
f 209/186/162 208/185/161 227/205/167
f 208/185/161 207/126/147 226/123/144
f 175/188/166 244/187/165 263/206/170
f 244/187/165 243/189/167 262/208/172
f 243/189/167 242/190/144 261/209/142
f 242/190/144 241/192/168 260/210/173
f 241/192/168 240/191/165 259/211/170
f 240/191/165 239/193/167 258/212/172
f 239/193/167 238/194/144 257/213/142
f 238/194/144 237/195/169 256/214/173
f 237/195/169 236/196/165 255/215/170
f 236/196/165 235/197/167 254/216/172
f 235/197/167 234/198/144 253/217/142
f 234/198/144 233/200/169 252/218/173
f 233/200/169 232/199/165 251/219/170
f 232/199/165 231/201/167 250/220/172
f 231/201/167 230/202/144 249/221/142
f 230/202/144 229/203/169 248/222/173
f 229/203/169 228/204/165 247/223/170
f 227/205/167 246/224/172 247/223/170
f 227/205/167 226/123/144 245/121/142
f 176/207/171 263/206/170 282/225/174
f 262/208/172 281/228/176 282/225/174
f 262/208/172 261/209/142 280/227/140
f 261/209/142 260/210/173 279/229/177
f 260/210/173 259/211/170 278/230/178
f 258/212/172 277/232/176 278/230/178
f 258/212/172 257/213/142 276/231/140
f 257/213/142 256/214/173 275/233/177
f 256/214/173 255/215/170 274/234/178
f 254/216/172 273/236/176 274/234/178
f 254/216/172 253/217/142 272/235/140
f 253/217/142 252/218/173 271/237/177
f 252/218/173 251/219/170 270/238/178
f 250/220/172 269/240/176 270/238/178
f 250/220/172 249/221/142 268/239/140
f 249/221/142 248/222/173 267/241/177
f 248/222/173 247/223/170 266/242/178
f 246/224/172 265/243/176 266/242/178
f 246/224/172 245/121/142 264/118/140
f 177/226/175 282/225/174 301/244/179
f 281/228/176 300/247/181 301/244/179
f 281/228/176 280/227/140 299/246/139
f 280/227/140 279/229/177 298/248/182
f 279/229/177 278/230/178 297/249/183
f 277/232/176 296/251/181 297/249/183
f 277/232/176 276/231/140 295/250/184
f 276/231/140 275/233/177 294/252/182
f 275/233/177 274/234/178 293/253/183
f 273/236/176 292/255/181 293/253/183
f 273/236/176 272/235/140 291/254/184
f 272/235/140 271/237/177 290/256/182
f 271/237/177 270/238/178 289/257/183
f 270/238/178 269/240/176 288/258/185
f 269/240/176 268/239/140 287/259/184
f 268/239/140 267/241/177 286/260/182
f 267/241/177 266/242/178 285/261/179
f 265/243/176 284/262/181 285/261/179
f 265/243/176 264/118/140 283/120/139
f 301/263/179 320/267/187 179/264/186
f 300/266/181 319/269/188 320/267/187
f 299/268/139 318/271/138 319/269/188
f 299/268/139 298/273/182 317/270/189
f 297/272/183 316/275/190 317/270/189
f 296/274/181 315/277/188 316/275/190
f 295/276/184 314/279/138 315/277/188
f 295/276/184 294/281/182 313/278/189
f 293/280/183 312/283/190 313/278/189
f 292/282/181 311/285/188 312/283/190
f 291/284/184 310/287/138 311/285/188
f 291/284/184 290/289/182 309/286/189
f 289/288/183 308/291/187 309/286/189
f 288/290/185 307/293/188 308/291/187
f 287/292/184 306/295/138 307/293/188
f 287/292/184 286/297/182 305/294/189
f 285/296/179 304/299/190 305/294/189
f 284/298/181 303/300/188 304/299/190
f 283/117/139 302/116/138 303/300/188
f 320/267/187 321/130/151 172/132/153
f 320/267/187 319/269/188 322/136/156
f 318/271/138 323/135/137 322/136/156
f 317/270/189 324/137/157 323/135/137
f 316/275/190 325/139/151 324/137/157
f 315/277/188 326/144/156 325/139/151
f 314/279/138 327/143/137 326/144/156
f 313/278/189 328/145/157 327/143/137
f 312/283/190 329/147/151 328/145/157
f 311/285/188 330/152/156 329/147/151
f 310/287/138 331/151/137 330/152/156
f 309/286/189 332/153/157 331/151/137
f 308/291/187 333/155/151 332/153/157
f 307/293/188 334/157/156 333/155/151
f 306/295/138 335/159/137 334/157/156
f 305/294/189 336/161/157 335/159/137
f 304/299/190 337/163/151 336/161/157
f 304/299/190 303/300/188 338/167/156
f 302/116/138 339/115/137 338/167/156
f 180/129/150 340/310/199 341/301/191
f 183/302/192 182/125/146 342/303/193
f 185/122/143 184/124/145 344/305/195
f 186/307/141 346/311/198 347/308/197
f 181/127/148 341/301/191 342/303/193
f 184/124/145 183/302/192 343/304/194
f 186/119/141 185/122/143 345/306/196
f 187/114/136 347/308/197 340/310/199
