# Blender 5.0.1
# www.blender.org
mtllib registration_arm_middle_dual.mtl
o RegistrationArmMiddleDual
g registration_arm_middle_dual
v 1.804528 6.358242 0.011397
v 1.804528 6.369555 0.016083
v 1.804528 6.358242 -0.011230
v 1.804528 6.369555 -0.015917
v 1.804528 6.380869 -0.011230
v 1.804527 6.385555 0.000083
v 1.804528 6.380869 0.011397
v 1.804528 6.353556 0.000083
v -0.632860 6.358242 0.011258
v -0.632860 6.369555 0.015944
v -0.632860 6.358242 -0.011370
v -0.632860 6.385555 -0.000056
v -0.632860 6.380869 0.011258
v 0.008430 6.000000 0.006584
v -0.689472 6.301972 0.006584
v -0.332570 6.200000 0.006584
v 0.026433 6.019967 0.006584
v -0.682570 6.329857 0.006584
v -0.316921 6.223782 0.006584
v 0.026433 6.000000 0.006584
v -0.332570 6.200000 0.002584
v -0.689472 6.301972 0.002584
v 0.008430 6.000000 0.002584
v -0.316921 6.223782 0.002584
v -0.682570 6.329857 0.002584
v 0.026433 6.019967 0.002584
v 0.026433 6.000000 0.002584
v -0.633338 6.315575 0.002584
v -0.724473 6.301971 -0.002416
v -0.633339 6.305421 -0.002416
v -0.717574 6.329857 -0.002416
v -0.632860 6.350000 0.002304
v -0.732861 6.350000 0.002304
v -0.632860 6.350000 -0.002696
v -0.732861 6.350000 -0.002696
v -0.732567 6.301970 0.002584
v -0.732567 6.301970 -0.002416
v -0.717574 6.329857 -0.006416
v -0.724475 6.301972 -0.006416
v -0.008571 6.000000 -0.006416
v -0.008571 6.019967 -0.006416
v -0.351925 6.223782 -0.006416
v -0.026574 6.000000 -0.006416
v -0.367574 6.200000 -0.006416
v -0.008571 6.000000 -0.002416
v -0.351925 6.223782 -0.002416
v -0.008571 6.019967 -0.002416
v -0.367574 6.200000 -0.002416
v -0.026574 6.000000 -0.002416
v -0.633338 6.301970 0.002584
v -0.633338 6.301970 -0.002416
v -0.732861 6.370000 -0.020196
v -0.632860 6.370000 -0.020196
v -0.732861 6.355858 -0.014338
v -0.632860 6.355858 -0.014338
v -0.732861 6.355858 0.013946
v -0.632860 6.355858 0.013946
v -0.732861 6.370000 0.019804
v -0.632860 6.370000 0.019804
v -0.732861 6.384142 0.013946
v -0.632860 6.384142 0.013946
v -0.732861 6.390000 -0.000196
v -0.632860 6.390000 -0.000196
v -0.732861 6.384142 -0.014338
v -0.632860 6.384142 -0.014338
v -0.632860 6.353556 -0.000056
v -0.732861 6.353556 -0.000196
v -0.732861 6.369555 -0.016196
v -0.732861 6.358242 -0.011510
v -0.632860 6.369555 -0.016056
v -0.732861 6.358242 0.011118
v -0.732861 6.369555 0.015804
v -0.732861 6.380869 0.011118
v -0.732861 6.385555 -0.000196
v -0.732861 6.380869 -0.011510
v -0.632860 6.380869 -0.011370
v -0.893963 6.353556 -0.000196
v -0.893963 6.369555 -0.016196
v -0.893963 6.358242 -0.011510
v -0.893963 6.358242 0.011118
v -0.893963 6.369555 0.015804
v -0.893963 6.380869 0.011118
v -0.893963 6.385555 -0.000196
v -0.893963 6.380869 -0.011510
vn -0.0000 -0.7071 -0.7071
vn 0.0001 -0.0000 -1.0000
vn -0.0000 0.7071 0.7071
vn -0.0000 1.0000 -0.0000
vn -0.0001 -0.0000 1.0000
vn -0.0000 -0.7071 0.7071
vn -0.0000 0.7071 -0.7071
vn -0.0000 -1.0000 -0.0000
vn -0.0000 -0.0000 -1.0000
vn 0.5104 0.8599 -0.0000
vn -0.5059 -0.8626 -0.0000
vn -0.9707 0.2402 -0.0000
vn 0.2786 0.9604 -0.0000
vn 0.2786 0.9604 0.0001
vn -0.2747 -0.9615 -0.0000
vn 1.0000 -0.0000 -0.0000
vn 0.0026 -0.0091 -1.0000
vn -0.0006 -0.0075 -1.0000
vn 0.0038 -0.0110 -0.9999
vn 1.0000 -0.0038 -0.0002
vn 1.0000 -0.0038 0.0009
vn 1.0000 -0.0065 0.0022
vn -0.0003 0.0092 1.0000
vn 0.0018 0.0095 1.0000
vn -0.0025 0.0078 1.0000
vn 0.2786 0.9604 -0.0004
vn -0.9707 0.2402 0.0001
vn -0.9707 0.2402 0.0006
vn -0.0000 -1.0000 0.0003
vn 0.0001 -1.0000 -0.0011
vn -0.0000 -0.6807 -0.7326
vn -0.0000 -0.8933 -0.4495
vn -0.0000 -0.8933 0.4495
vn -0.0000 -0.6807 0.7326
vn -0.0000 -0.0000 1.0000
vn -1.0000 -0.0000 -0.0000
vn -1.0000 -0.0023 -0.0000
vn 1.0000 0.0002 0.0002
vn 1.0000 0.0002 -0.0000
vn 0.0032 -0.0053 -1.0000
vn -0.0000 -0.0058 -1.0000
vn -0.0000 -0.0063 -1.0000
vn 1.0000 -0.0002 -0.0002
vn 1.0000 -0.0003 -0.0001
vn 0.5063 -0.0000 0.8624
vn 1.0000 -0.0074 -0.0052
vn -0.0022 0.0039 1.0000
vn 0.0024 0.0081 1.0000
vn -0.2747 -0.9615 0.0001
vn -0.0000 -1.0000 -0.0001
vn -1.0000 -0.0061 -0.0000
vn 1.0000 -0.0002 0.0002
vn 1.0000 -0.0000 -0.0002
vn 1.0000 -0.0000 0.0002
vn 1.0000 0.0002 -0.0002
vt 0.978606 0.014273
vt 0.976856 0.007273
vt 0.978606 0.007273
vt 0.971606 0.014273
vt 0.973356 0.007273
vt 0.973356 0.014273
vt 0.983856 0.014273
vt 0.982106 0.007273
vt 0.983856 0.007273
vt 0.975106 0.014273
vt 0.975106 0.007273
vt 0.982106 0.014273
vt 0.980356 0.007273
vt 0.971606 0.007273
vt 0.969856 0.014273
vt 0.969856 0.007273
vt 0.969856 0.000273
vt 0.980356 0.014273
vt 0.976856 0.014273
s 1
usemtl Catenary
f 11/1/1 4/2/2 3/3/1
f 13/4/3 6/5/4 12/6/4
f 10/7/5 1/8/6 2/9/5
f 4/2/2 76/10/7 5/11/7
f 9/12/6 8/13/8 1/8/6
f 7/14/3 10/15/5 2/16/5
f 21/17/9 50/17/9 24/17/9
f 26/17/10 19/17/10 17/17/10
f 21/17/11 14/17/11 16/17/11
f 25/17/12 15/17/12 18/17/12
f 24/17/13 28/17/14 18/17/13
f 22/17/15 16/17/15 15/17/15
f 27/17/16 17/17/16 20/17/16
f 35/17/17 30/17/18 31/17/19
f 76/10/7 6/5/4 5/11/7
f 34/18/20 32/17/21 50/17/22
f 25/17/23 32/17/24 33/17/25
f 40/17/16 47/17/16 45/17/16
f 29/17/15 44/17/15 48/17/15
f 42/17/13 31/17/13 30/17/26
f 31/17/27 39/17/28 29/17/28
f 44/17/11 49/17/11 48/17/11
f 41/17/10 46/17/10 47/17/10
f 22/17/29 29/17/30 50/17/8
f 42/17/9 44/17/9 38/17/9
f 53/7/9 54/8/31 52/9/9
f 55/12/31 35/13/32 54/8/31
f 32/18/33 56/3/34 33/13/33
f 57/1/34 58/2/35 56/3/34
f 59/19/35 60/11/3 58/2/35
f 61/10/3 62/5/4 60/11/3
f 63/6/4 64/14/7 62/5/4
f 65/4/7 52/16/9 64/14/7
f 56/3/36 67/13/36 35/17/37
f 48/17/35 46/17/35 51/17/35
f 61/10/38 12/6/39 63/6/39
f 75/14/7 83/5/4 74/5/4
f 73/11/3 81/2/35 72/2/35
f 69/8/1 78/9/9 68/9/9
f 71/3/6 77/13/8 67/13/8
f 67/13/8 79/8/1 69/8/1
f 68/16/9 84/14/7 75/14/7
f 74/5/4 82/11/3 73/11/3
f 72/2/35 80/3/6 71/3/6
f 80/3/36 82/11/36 84/14/36
f 19/17/35 15/17/35 16/17/35
f 64/14/36 75/14/36 62/5/36
f 3/3/1 66/18/8 11/1/1
f 11/1/1 70/19/2 4/2/2
f 13/4/3 7/14/3 6/5/4
f 10/7/5 9/12/6 1/8/6
f 4/2/2 70/19/2 76/10/7
f 9/12/6 66/18/8 8/13/8
f 7/14/3 13/4/3 10/15/5
f 24/17/9 26/17/9 27/17/9
f 27/17/9 23/17/9 21/17/9
f 21/17/9 22/17/9 50/17/9
f 50/17/9 28/17/9 24/17/9
f 24/17/9 27/17/9 21/17/9
f 26/17/10 24/17/10 19/17/10
f 21/17/11 23/17/11 14/17/11
f 25/17/12 22/17/12 15/17/12
f 18/17/13 19/17/13 24/17/13
f 28/17/14 25/17/13 18/17/13
f 22/17/15 21/17/15 16/17/15
f 27/17/16 26/17/16 17/17/16
f 29/17/40 37/17/41 35/17/17
f 35/17/17 34/17/42 30/17/18
f 31/17/19 29/17/40 35/17/17
f 76/10/7 12/6/4 6/5/4
f 34/18/20 55/12/43 11/12/43
f 11/12/43 66/17/44 32/17/21
f 32/17/21 28/17/45 50/17/22
f 50/17/22 51/17/39 30/17/46
f 34/18/20 11/12/43 32/17/21
f 50/17/22 30/17/46 34/18/20
f 36/17/47 22/17/35 25/17/23
f 25/17/23 28/17/48 32/17/24
f 33/17/25 36/17/47 25/17/23
f 40/17/16 41/17/16 47/17/16
f 29/17/15 39/17/49 44/17/15
f 30/17/26 46/17/13 42/17/13
f 42/17/13 38/17/13 31/17/13
f 31/17/27 38/17/12 39/17/28
f 44/17/11 43/17/11 49/17/11
f 41/17/10 42/17/10 46/17/10
f 22/17/29 36/17/8 37/17/50
f 29/17/30 51/17/8 50/17/8
f 22/17/29 37/17/50 29/17/30
f 42/17/9 41/17/9 40/17/9
f 40/17/9 43/17/9 44/17/9
f 44/17/9 39/17/9 38/17/9
f 42/17/9 40/17/9 44/17/9
f 53/7/9 55/12/31 54/8/31
f 55/12/31 34/18/32 35/13/32
f 32/18/33 57/1/34 56/3/34
f 57/1/34 59/19/35 58/2/35
f 59/19/35 61/10/3 60/11/3
f 61/10/3 63/6/4 62/5/4
f 63/6/4 65/4/7 64/14/7
f 65/4/7 53/15/9 52/16/9
f 58/2/36 60/11/36 73/11/36
f 58/2/36 73/11/36 72/2/36
f 37/17/51 36/17/51 33/13/37
f 69/8/36 54/8/36 35/17/37
f 35/17/37 37/17/51 33/13/37
f 56/3/36 58/2/36 72/2/36
f 56/3/36 72/2/36 71/3/36
f 35/17/37 33/13/37 56/3/36
f 67/13/36 69/8/36 35/17/37
f 56/3/36 71/3/36 67/13/36
f 48/17/35 49/17/35 45/17/35
f 45/17/35 47/17/35 46/17/35
f 46/17/35 30/17/35 51/17/35
f 51/17/35 29/17/35 48/17/35
f 48/17/35 45/17/35 46/17/35
f 57/1/52 32/18/21 66/18/44
f 57/1/52 66/18/44 9/1/52
f 11/12/43 55/12/43 53/15/53
f 70/7/53 11/12/43 53/15/53
f 59/19/54 57/1/52 9/1/52
f 59/19/54 9/1/52 10/19/54
f 70/7/53 53/15/53 65/4/55
f 76/4/55 70/7/53 65/4/55
f 61/10/38 59/19/54 10/19/54
f 61/10/38 10/19/54 13/10/38
f 76/4/55 65/4/55 63/6/39
f 61/10/38 13/10/38 12/6/39
f 12/6/39 76/4/55 63/6/39
f 75/14/7 84/14/7 83/5/4
f 73/11/3 82/11/3 81/2/35
f 69/8/1 79/8/1 78/9/9
f 71/3/6 80/3/6 77/13/8
f 67/13/8 77/13/8 79/8/1
f 68/16/9 78/16/9 84/14/7
f 74/5/4 83/5/4 82/11/3
f 72/2/35 81/2/35 80/3/6
f 84/14/36 78/16/36 79/8/36
f 79/8/36 77/13/36 80/3/36
f 80/3/36 81/2/36 82/11/36
f 82/11/36 83/5/36 84/14/36
f 84/14/36 79/8/36 80/3/36
f 16/17/35 14/17/35 20/17/35
f 20/17/35 17/17/35 19/17/35
f 19/17/35 18/17/35 15/17/35
f 16/17/35 20/17/35 19/17/35
f 52/9/36 54/8/36 69/8/36
f 52/9/36 69/8/36 68/16/36
f 73/11/36 60/11/36 62/5/36
f 74/5/36 73/11/36 62/5/36
f 64/14/36 52/9/36 68/16/36
f 75/14/36 74/5/36 62/5/36
f 64/14/36 68/16/36 75/14/36
f 3/3/1 8/13/8 66/18/8
o GantryInsulator.004
v -0.000000 7.039817 -0.008762
v 0.000000 7.054616 -0.102362
v 0.000000 7.130641 -0.022523
v 0.000000 7.140331 -0.102362
v -0.000000 7.216355 -0.038935
v 0.027709 7.216355 -0.027457
v 0.070711 7.140331 -0.073072
v 0.014843 7.130641 -0.016375
v 0.070711 7.054616 -0.073072
v 0.006374 7.039817 -0.006122
v 0.039187 7.216355 0.000252
v 0.100000 7.140331 -0.002362
v 0.020992 7.130641 -0.001531
v 0.100000 7.054616 -0.002362
v 0.009014 7.039817 0.000252
v 0.027709 7.216355 0.027961
v 0.070711 7.140331 0.068349
v 0.014040 7.130641 0.014596
v 0.070711 7.054616 0.068349
v 0.006374 7.039817 0.006626
v -0.000000 7.216355 0.039439
v 0.000000 7.140331 0.097638
v 0.000000 7.130641 0.020487
v 0.000000 7.054616 0.097638
v -0.000000 7.039817 0.009266
v -0.027709 7.216355 0.027961
v -0.070711 7.140331 0.068349
v -0.014040 7.130641 0.014596
v -0.070711 7.054616 0.068349
v -0.006374 7.039817 0.006626
v -0.039187 7.216355 0.000252
v -0.100000 7.140331 -0.002362
v -0.020992 7.130641 -0.001531
v -0.100000 7.054616 -0.002362
v -0.009014 7.039817 0.000252
v -0.027709 7.216355 -0.027457
v -0.070711 7.140331 -0.073072
v -0.014843 7.130641 -0.016375
v -0.070711 7.054616 -0.073072
v -0.006374 7.039817 -0.006122
v -0.000000 7.216355 -0.018017
v 0.012918 7.216355 -0.012666
v 0.018269 7.216355 0.000252
v 0.012918 7.216355 0.013170
v -0.000000 7.216355 0.018521
v -0.012918 7.216355 0.013170
v -0.018269 7.216355 0.000252
v -0.012918 7.216355 -0.012666
v -0.000000 7.334884 -0.018017
v 0.012918 7.334884 -0.012666
v 0.018269 7.334884 0.000252
v 0.012918 7.334884 0.013170
v -0.000000 7.334884 0.018521
v -0.012918 7.334884 0.013170
v -0.018269 7.334884 0.000252
v -0.012918 7.334884 -0.012666
v -0.000000 7.350073 0.000252
v 0.018269 7.350073 0.000252
v -0.018269 7.350073 0.000252
v -0.012918 7.334884 0.034277
v -0.018269 7.334884 0.021358
v -0.000000 7.334884 0.039627
v 0.012918 7.334884 0.034277
v 0.018269 7.334884 0.021358
v -0.012918 7.350073 0.034277
v -0.018269 7.350073 0.021358
v -0.000000 7.350073 0.039627
v 0.012918 7.350073 0.034277
v 0.018269 7.350073 0.021358
v -0.012918 7.334884 -0.034282
v -0.000000 7.334884 -0.039633
v -0.018269 7.334884 -0.021364
v 0.012918 7.334884 -0.034282
v 0.018269 7.334884 -0.021364
v -0.012918 7.350073 -0.034282
v -0.000000 7.350073 -0.039633
v -0.018269 7.350073 -0.021364
v 0.012918 7.350073 -0.034282
v 0.018269 7.350073 -0.021364
v -0.000000 6.379152 -0.008762
v 0.006374 6.379152 -0.006122
v 0.009014 6.379152 0.000252
v 0.006374 6.379152 0.006626
v -0.000000 6.379152 0.009266
v -0.006374 6.379152 0.006626
v -0.009014 6.379152 0.000252
v -0.006374 6.379152 -0.006122
vn -0.1109 -0.9875 -0.1117
vn -0.0000 -0.9877 -0.1562
vn -0.1122 -0.9875 -0.1105
vn -0.4879 0.7231 -0.4889
vn -0.0000 0.7242 -0.6896
vn -0.0853 -0.9927 -0.0856
vn -0.0000 -0.9927 -0.1205
vn -0.0857 -0.9927 -0.0852
vn -0.5436 0.6361 -0.5477
vn -0.0000 0.6406 -0.7679
vn -0.1605 -0.9870 -0.0008
vn -0.1606 -0.9870 0.0017
vn -0.6934 0.7206 -0.0010
vn -0.4893 0.7231 -0.4875
vn -0.1217 -0.9926 -0.0002
vn -0.1213 -0.9926 0.0010
vn -0.7808 0.6247 -0.0042
vn -0.5489 0.6360 -0.5424
vn -0.1162 -0.9865 0.1154
vn -0.1149 -0.9865 0.1167
vn -0.4952 0.7160 0.4921
vn -0.6917 0.7222 0.0052
vn -0.0876 -0.9924 0.0869
vn -0.0857 -0.9924 0.0888
vn -0.5609 0.6129 0.5566
vn -0.7810 0.6245 0.0066
vn -0.0000 -0.9863 0.1652
vn -0.0000 0.7126 0.7016
vn -0.4872 0.7158 0.5003
vn -0.0000 -0.9922 0.1245
vn -0.0000 -0.9922 0.1246
vn -0.0000 0.6079 0.7940
vn -0.5554 0.6128 0.5621
vn 0.1149 -0.9865 0.1167
vn 0.4872 0.7158 0.5003
vn 0.4952 0.7160 0.4921
vn 0.0857 -0.9924 0.0888
vn 0.5554 0.6128 0.5621
vn 0.5609 0.6129 0.5566
vn 0.1606 -0.9870 0.0017
vn 0.1162 -0.9865 0.1154
vn 0.6917 0.7222 0.0052
vn 0.6934 0.7206 -0.0010
vn 0.1213 -0.9926 0.0010
vn 0.0876 -0.9924 0.0869
vn 0.7810 0.6245 0.0066
vn 0.7808 0.6247 -0.0042
vn 0.1122 -0.9875 -0.1105
vn 0.1605 -0.9870 -0.0008
vn 0.4893 0.7231 -0.4875
vn 0.4879 0.7231 -0.4889
vn 0.0857 -0.9927 -0.0852
vn 0.1217 -0.9926 -0.0002
vn 0.5489 0.6360 -0.5424
vn 0.5436 0.6361 -0.5477
vn 0.1109 -0.9875 -0.1117
vn 0.0853 -0.9927 -0.0856
vn -0.0000 0.7123 0.7019
vn -0.0000 1.0000 -0.0000
vn 0.7071 -0.0000 0.7071
vn -0.0000 -0.0000 1.0000
vn -0.7071 -0.0000 0.7071
vn -1.0000 -0.0000 -0.0000
vn -0.7071 -0.0000 -0.7071
vn -0.0000 -0.0000 -1.0000
vn 0.7071 -0.0000 -0.7071
vn 1.0000 -0.0000 -0.0000
vn 0.9701 -0.2425 -0.0000
vn 0.9808 -0.0000 -0.1951
vn -0.0000 -1.0000 -0.0000
vn 0.7319 -0.6657 0.1456
vn -0.9808 -0.0000 0.1951
vn -0.7319 -0.6657 0.1456
vn -0.9701 -0.2425 -0.0000
vn 0.7319 -0.6657 -0.1456
vn -0.7319 -0.6657 -0.1456
vn 0.9808 -0.0000 0.1951
vn -0.9808 -0.0000 -0.1951
vt 0.959703 0.009387
vt 0.960882 0.008099
vt 0.960684 0.009187
vt 0.957954 0.007566
vt 0.960035 0.007566
vt 0.962915 0.005744
vt 0.961736 0.007033
vt 0.961934 0.005945
vt 0.964664 0.007566
vt 0.962584 0.007566
vt 0.958751 0.010974
vt 0.960309 0.010184
vt 0.959740 0.011133
vt 0.957756 0.008654
vt 0.963867 0.004157
vt 0.962309 0.004947
vt 0.962878 0.003998
vt 0.964862 0.006477
vt 0.957301 0.012125
vt 0.959037 0.011934
vt 0.958171 0.012621
vt 0.957187 0.009603
vt 0.965317 0.003006
vt 0.963581 0.003197
vt 0.964447 0.002510
vt 0.965431 0.005529
vt 0.955539 0.012691
vt 0.957231 0.013124
vt 0.956177 0.013462
vt 0.956321 0.010290
vt 0.967079 0.002440
vt 0.965388 0.002008
vt 0.966441 0.001669
vt 0.966297 0.004841
vt 0.957231 0.002008
vt 0.955539 0.002440
vt 0.956177 0.001669
vt 0.956321 0.004841
vt 0.957301 0.003006
vt 0.965388 0.013124
vt 0.967079 0.012691
vt 0.966441 0.013462
vt 0.966297 0.010290
vt 0.965317 0.012125
vt 0.959037 0.003197
vt 0.958171 0.002510
vt 0.957187 0.005529
vt 0.958751 0.004157
vt 0.963581 0.011934
vt 0.964447 0.012621
vt 0.965431 0.009603
vt 0.963867 0.010974
vt 0.960309 0.004947
vt 0.959740 0.003998
vt 0.957756 0.006477
vt 0.959703 0.005744
vt 0.962309 0.010184
vt 0.962878 0.011133
vt 0.964862 0.008654
vt 0.962915 0.009387
vt 0.960882 0.007033
vt 0.960684 0.005945
vt 0.961736 0.008099
vt 0.961934 0.009187
vt 0.955268 0.010628
vt 0.967350 0.004503
vt 0.955268 0.004503
vt 0.967350 0.010628
vt 0.981114 0.009656
vt 0.982013 0.009945
vt 0.981114 0.005003
vt 0.980374 0.005590
vt 0.979888 0.006400
vt 0.979719 0.007329
vt 0.979888 0.008259
vt 0.980374 0.009069
vt 0.982013 0.004714
vt 0.924092 -0.341471
vt 0.974914 0.011060
vt 0.974174 0.011647
vt 0.975514 0.004283
vt 0.976000 0.005093
vt 0.973371 0.012076
vt 0.972472 0.012365
vt 0.976321 0.005945
vt 0.976490 0.006874
vt 0.976490 0.007784
vt 0.976321 0.008714
vt 0.972472 0.002294
vt 0.973371 0.002583
vt 0.976000 0.009566
vt 0.975514 0.010376
vt 0.974174 0.003012
vt 0.974914 0.003599
s 1
usemtl Catenary
f 123/20/56 85/21/57 124/22/58
f 123/20/59 87/23/60 86/24/60
f 121/25/61 87/26/62 122/27/63
f 121/25/64 89/28/65 88/29/65
f 118/30/66 124/31/58 119/32/67
f 118/30/68 122/33/69 123/20/59
f 116/34/70 122/35/63 117/36/71
f 116/34/72 120/37/73 121/25/64
f 113/38/74 119/39/67 114/40/75
f 113/38/76 117/41/77 118/30/68
f 111/42/78 117/43/71 112/44/79
f 111/42/80 115/45/81 116/34/72
f 108/46/82 114/47/75 109/48/82
f 108/46/83 112/49/84 113/38/76
f 106/50/85 112/51/79 107/52/86
f 106/50/87 110/53/88 111/42/80
f 104/54/89 108/55/82 109/56/82
f 102/57/90 108/55/83 103/58/91
f 102/59/92 106/60/85 107/61/86
f 100/62/93 106/60/87 101/63/94
f 99/64/95 103/58/96 104/65/89
f 97/66/97 103/58/91 98/67/98
f 97/68/99 101/63/100 102/69/92
f 95/70/101 101/63/94 96/71/102
f 94/72/103 98/67/104 99/73/95
f 92/74/105 98/67/98 93/75/106
f 92/76/107 96/71/108 97/77/99
f 90/78/109 96/71/102 91/79/110
f 85/80/57 93/75/111 94/81/103
f 87/23/60 93/75/106 86/24/60
f 87/82/62 91/79/112 92/83/107
f 89/28/65 91/79/110 88/29/65
f 123/20/56 86/24/57 85/21/57
f 123/20/59 122/33/69 87/23/60
f 121/25/61 88/29/62 87/26/62
f 121/25/64 120/37/73 89/28/65
f 118/30/66 123/20/56 124/31/58
f 118/30/68 117/41/77 122/33/69
f 116/34/70 121/25/61 122/35/63
f 116/34/72 115/45/81 120/37/73
f 113/38/74 118/30/66 119/39/67
f 113/38/76 112/49/84 117/41/77
f 111/42/78 116/34/70 117/43/71
f 111/42/80 110/53/88 115/45/81
f 108/46/82 113/38/74 114/47/75
f 108/46/83 107/84/113 112/49/84
f 106/50/85 111/42/78 112/51/79
f 106/50/87 105/85/87 110/53/88
f 104/54/89 103/58/96 108/55/82
f 102/57/90 107/86/113 108/55/83
f 102/59/92 101/63/100 106/60/85
f 100/62/93 105/87/87 106/60/87
f 99/64/95 98/67/104 103/58/96
f 97/66/97 102/57/90 103/58/91
f 97/68/99 96/71/108 101/63/100
f 95/70/101 100/62/93 101/63/94
f 94/72/103 93/75/111 98/67/104
f 92/74/105 97/66/97 98/67/98
f 92/76/107 91/79/112 96/71/108
f 90/78/109 95/70/101 96/71/102
f 85/80/57 86/24/57 93/75/111
f 87/23/60 92/74/105 93/75/106
f 87/82/62 88/29/62 91/79/112
f 89/28/65 90/78/109 91/79/110
f 115/45/114 132/37/114 120/37/114
f 95/70/114 128/62/114 100/62/114
f 110/53/114 131/45/114 115/45/114
f 90/78/114 127/70/114 95/70/114
f 105/85/114 130/53/114 110/53/114
f 90/78/114 125/28/114 126/78/114
f 120/37/114 125/28/114 89/28/114
f 100/62/114 129/87/114 105/87/114
f 128/88/115 137/89/116 129/89/116
f 130/90/117 139/91/118 131/91/118
f 132/92/119 133/93/120 125/93/120
f 125/93/120 134/94/121 126/94/121
f 127/95/122 136/88/115 128/88/115
f 129/96/116 138/90/117 130/90/117
f 131/91/118 140/92/119 132/92/119
f 126/94/121 135/95/122 127/95/122
f 135/95/123 163/95/124 142/95/122
f 137/89/125 147/88/125 146/89/125
f 142/95/122 148/95/126 135/95/123
f 133/93/125 157/94/125 134/94/125
s 0
f 141/97/114 161/97/114 143/97/114
f 141/97/114 151/97/114 152/97/114
s 1
f 137/96/125 144/90/125 138/90/125
f 133/93/125 154/92/125 155/93/125
f 147/88/115 151/89/116 146/89/116
f 144/90/117 150/91/127 145/91/128
f 148/95/126 152/88/115 147/88/115
f 146/96/116 149/90/117 144/90/117
s 0
f 141/97/114 153/97/114 142/97/114
s 1
f 139/91/129 150/91/127 143/91/118
s 0
f 141/97/114 150/97/114 149/97/114
s 1
f 136/88/125 148/95/126 147/88/125
f 138/90/125 145/91/128 139/91/129
s 0
f 141/97/114 149/97/114 151/97/114
s 1
f 157/94/121 163/95/124 158/95/130
f 154/92/119 160/93/120 155/93/120
f 155/93/120 162/94/121 157/94/121
f 156/91/131 159/92/119 154/92/119
f 143/91/118 156/91/131 139/91/129
f 140/92/125 156/91/131 154/92/125
s 0
f 141/97/114 163/97/114 162/97/114
f 141/97/114 160/97/114 159/97/114
f 141/97/114 162/97/114 160/97/114
s 1
f 134/94/125 158/95/130 135/95/123
f 119/98/118 169/99/117 114/99/117
f 99/100/122 165/101/121 94/101/121
f 114/102/117 168/103/116 109/103/116
f 94/104/121 164/105/120 85/105/120
f 85/106/120 171/107/119 124/107/119
f 109/108/116 167/109/115 104/109/115
f 124/110/119 170/111/118 119/111/118
f 104/112/115 166/113/122 99/113/122
f 115/45/114 131/45/114 132/37/114
f 95/70/114 127/70/114 128/62/114
f 110/53/114 130/53/114 131/45/114
f 90/78/114 126/78/114 127/70/114
f 105/85/114 129/85/114 130/53/114
f 90/78/114 89/28/114 125/28/114
f 120/37/114 132/37/114 125/28/114
f 100/62/114 128/62/114 129/87/114
f 128/88/115 136/88/115 137/89/116
f 130/90/117 138/90/117 139/91/118
f 132/92/119 140/92/119 133/93/120
f 125/93/120 133/93/120 134/94/121
f 127/95/122 135/95/122 136/88/115
f 129/96/116 137/96/116 138/90/117
f 131/91/118 139/91/118 140/92/119
f 126/94/121 134/94/121 135/95/122
f 135/95/123 158/95/130 163/95/124
f 137/89/125 136/88/125 147/88/125
f 142/95/122 153/95/132 148/95/126
f 133/93/125 155/93/125 157/94/125
s 0
f 141/97/114 159/97/114 161/97/114
s 1
f 137/96/125 146/96/125 144/90/125
f 133/93/125 140/92/125 154/92/125
f 147/88/115 152/88/115 151/89/116
f 144/90/117 149/90/117 150/91/127
f 148/95/126 153/95/132 152/88/115
f 146/96/116 151/96/116 149/90/117
s 0
f 141/97/114 152/97/114 153/97/114
s 1
f 139/91/129 145/91/128 150/91/127
s 0
f 141/97/114 143/97/114 150/97/114
s 1
f 136/88/125 135/95/123 148/95/126
f 138/90/125 144/90/125 145/91/128
f 157/94/121 162/94/121 163/95/124
f 154/92/119 159/92/119 160/93/120
f 155/93/120 160/93/120 162/94/121
f 156/91/131 161/91/133 159/92/119
f 143/91/118 161/91/133 156/91/131
f 140/92/125 139/91/129 156/91/131
s 0
f 141/97/114 142/97/114 163/97/114
s 1
f 134/94/125 157/94/125 158/95/130
f 119/98/118 170/98/118 169/99/117
f 99/100/122 166/100/122 165/101/121
f 114/102/117 169/102/117 168/103/116
f 94/104/121 165/104/121 164/105/120
f 85/106/120 164/106/120 171/107/119
f 109/108/116 168/108/116 167/109/115
f 124/110/119 171/110/119 170/111/118
f 104/112/115 167/112/115 166/113/122
o Cantileverindulator.024
v 1.782128 6.369318 -0.027084
v 1.782125 6.353548 -0.020551
v 1.782123 6.347015 -0.004780
v 1.782125 6.353548 0.010991
v 1.782128 6.369318 0.017523
v 1.782131 6.385089 0.010991
v 1.782132 6.391622 -0.004780
v 1.782131 6.385089 -0.020551
v 2.063907 6.369247 -0.027084
v 2.063904 6.353476 -0.020551
v 2.063903 6.346943 -0.004780
v 2.063904 6.353476 0.010991
v 2.063907 6.369247 0.017523
v 2.063910 6.385017 0.010991
v 2.063912 6.391550 -0.004780
v 2.063910 6.385017 -0.020551
v 2.052547 6.336826 -0.037204
v 2.041195 6.336830 -0.037204
v 2.029845 6.353484 -0.020551
v 2.018492 6.353487 -0.020551
v 2.007136 6.336838 -0.037204
v 1.995783 6.336841 -0.037204
v 1.984433 6.353496 -0.020551
v 1.973081 6.353499 -0.020551
v 1.961724 6.336850 -0.037204
v 1.950371 6.336853 -0.037204
v 1.939022 6.353508 -0.020551
v 1.927669 6.353510 -0.020551
v 1.916312 6.336861 -0.037204
v 1.904960 6.336864 -0.037204
v 1.893610 6.353519 -0.020551
v 1.882257 6.353522 -0.020551
v 1.870901 6.336873 -0.037204
v 1.859547 6.336876 -0.037204
v 1.848198 6.353531 -0.020551
v 2.052545 6.323397 -0.004781
v 2.041192 6.323400 -0.004781
v 2.029844 6.346952 -0.004780
v 2.018491 6.346955 -0.004780
v 2.007133 6.323408 -0.004781
v 1.995780 6.323410 -0.004781
v 1.984432 6.346963 -0.004780
v 1.973079 6.346966 -0.004780
v 1.961721 6.323420 -0.004781
v 1.950368 6.323422 -0.004781
v 1.939020 6.346975 -0.004780
v 1.927667 6.346978 -0.004780
v 1.916310 6.323431 -0.004781
v 1.904957 6.323435 -0.004781
v 1.893609 6.346986 -0.004780
v 1.882256 6.346989 -0.004780
v 1.870898 6.323442 -0.004781
v 1.859545 6.323446 -0.004781
v 1.848197 6.346998 -0.004780
v 2.052547 6.336826 0.027642
v 2.041195 6.336830 0.027642
v 2.029845 6.353484 0.010991
v 2.018492 6.353487 0.010991
v 2.007136 6.336838 0.027642
v 1.995783 6.336841 0.027642
v 1.984433 6.353496 0.010991
v 1.973081 6.353499 0.010991
v 1.961724 6.336850 0.027642
v 1.950371 6.336853 0.027642
v 1.939022 6.353508 0.010991
v 1.927669 6.353510 0.010991
v 1.916312 6.336861 0.027642
v 1.904960 6.336864 0.027642
v 1.893610 6.353519 0.010991
v 1.882257 6.353522 0.010991
v 1.870901 6.336873 0.027642
v 1.859547 6.336876 0.027642
v 1.848198 6.353531 0.010991
v 2.052554 6.369250 0.041073
v 2.041201 6.369253 0.041073
v 2.029848 6.369255 0.017523
v 2.018496 6.369258 0.017523
v 2.007143 6.369262 0.041073
v 1.995790 6.369264 0.041073
v 1.984437 6.369267 0.017523
v 1.973084 6.369270 0.017523
v 1.961731 6.369273 0.041073
v 1.950378 6.369276 0.041073
v 1.939025 6.369278 0.017523
v 1.927672 6.369281 0.017523
v 1.916319 6.369285 0.041073
v 1.904966 6.369287 0.041073
v 1.893613 6.369290 0.017523
v 1.882261 6.369293 0.017523
v 1.870908 6.369296 0.041073
v 1.859555 6.369299 0.041073
v 1.848202 6.369302 0.017523
v 2.052561 6.401672 0.027642
v 2.041208 6.401676 0.027642
v 2.029852 6.385026 0.010991
v 2.018499 6.385029 0.010991
v 2.007149 6.401685 0.027642
v 1.995797 6.401688 0.027642
v 1.984440 6.385038 0.010991
v 1.973087 6.385041 0.010991
v 1.961738 6.401697 0.027642
v 1.950385 6.401699 0.027642
v 1.939028 6.385049 0.010991
v 1.927675 6.385052 0.010991
v 1.916326 6.401708 0.027642
v 1.904973 6.401711 0.027642
v 1.893616 6.385061 0.010991
v 1.882264 6.385064 0.010991
v 1.870914 6.401719 0.027642
v 1.859561 6.401723 0.027642
v 1.848205 6.385073 0.010991
v 2.052564 6.415103 -0.004781
v 2.041211 6.415106 -0.004781
v 2.029853 6.391559 -0.004780
v 2.018500 6.391561 -0.004780
v 2.007152 6.415115 -0.004781
v 1.995799 6.415117 -0.004781
v 1.984441 6.391570 -0.004780
v 1.973089 6.391573 -0.004780
v 1.961740 6.415126 -0.004781
v 1.950387 6.415130 -0.004781
v 1.939029 6.391582 -0.004780
v 1.927677 6.391585 -0.004780
v 1.916329 6.415138 -0.004781
v 1.904976 6.415141 -0.004781
v 1.893618 6.391593 -0.004780
v 1.882265 6.391596 -0.004780
v 1.870917 6.415150 -0.004781
v 1.859564 6.415153 -0.004781
v 1.848206 6.391605 -0.004780
v 2.052561 6.401672 -0.037204
v 2.041208 6.401676 -0.037204
v 2.029852 6.385026 -0.020551
v 2.018499 6.385029 -0.020551
v 2.007149 6.401685 -0.037204
v 1.995797 6.401688 -0.037204
v 1.984440 6.385038 -0.020551
v 1.973087 6.385041 -0.020551
v 1.961738 6.401697 -0.037204
v 1.950385 6.401699 -0.037204
v 1.939028 6.385049 -0.020551
v 1.927675 6.385052 -0.020551
v 1.916326 6.401708 -0.037204
v 1.904973 6.401711 -0.037204
v 1.893616 6.385061 -0.020551
v 1.882264 6.385064 -0.020551
v 1.870914 6.401719 -0.037204
v 1.859561 6.401723 -0.037204
v 1.848205 6.385073 -0.020551
v 1.848202 6.369301 -0.027084
v 1.859555 6.369299 -0.050634
v 1.870908 6.369296 -0.050634
v 1.882261 6.369293 -0.027084
v 1.893613 6.369290 -0.027084
v 1.904966 6.369287 -0.050634
v 1.916319 6.369285 -0.050634
v 1.927672 6.369282 -0.027084
v 1.939025 6.369278 -0.027084
v 1.950378 6.369276 -0.050634
v 1.961731 6.369273 -0.050634
v 1.973084 6.369270 -0.027084
v 1.984437 6.369267 -0.027084
v 1.995790 6.369264 -0.050634
v 2.007143 6.369262 -0.050634
v 2.018496 6.369258 -0.027084
v 2.029849 6.369255 -0.027084
v 2.041201 6.369253 -0.050634
v 2.052555 6.369250 -0.050634
v 2.121413 6.369318 -0.027084
v 2.121409 6.353547 -0.020551
v 2.121408 6.347015 -0.004780
v 2.121409 6.353547 0.010991
v 2.121413 6.369318 0.017523
v 2.121416 6.385089 0.010991
v 2.121417 6.391621 -0.004780
v 2.121416 6.385089 -0.020551
vn 0.5997 0.5657 -0.5660
vn 0.4805 -0.0001 -0.8770
vn 0.4807 0.6200 -0.6201
vn 0.4808 0.8769 -0.0000
vn 0.4807 0.6200 0.6201
vn 0.5996 0.8003 -0.0000
vn 0.4805 -0.0001 0.8770
vn 0.5997 0.5657 0.5660
vn 0.4804 -0.6202 0.6201
vn 0.6000 -0.0003 0.8000
vn 0.6004 -0.7997 -0.0000
vn 0.4803 -0.8771 -0.0000
vn 0.6003 -0.5657 -0.5654
vn 0.4804 -0.6202 -0.6201
vn 0.6000 -0.0003 -0.8000
vn -0.6000 0.0001 -0.8000
vn -0.0002 -0.7071 -0.7071
vn -0.0000 -0.0000 -1.0000
vn -0.4807 -0.6200 -0.6201
vn -0.6001 -0.5656 -0.5657
vn -0.4805 0.0001 -0.8770
vn 0.6000 -0.0001 -0.8000
vn 0.5999 -0.5658 -0.5657
vn 0.5998 -0.5658 -0.5657
vn -0.0003 -1.0000 -0.0000
vn -0.4807 -0.8769 -0.0000
vn -0.6002 -0.7999 -0.0000
vn 0.5998 -0.8002 -0.0000
vn -0.4808 -0.8769 -0.0000
vn -0.6001 -0.5656 0.5657
vn -0.0002 -0.7071 0.7071
vn -0.4807 -0.6200 0.6201
vn 0.5999 -0.5658 0.5657
vn 0.5998 -0.5658 0.5657
vn -0.6000 0.0001 0.8000
vn -0.0000 -0.0000 1.0000
vn -0.4805 0.0001 0.8770
vn 0.6000 -0.0001 0.8000
vn -0.5999 0.5658 0.5657
vn 0.0002 0.7071 0.7071
vn -0.4804 0.6202 0.6201
vn 0.6001 0.5656 0.5657
vn -0.5998 0.5658 0.5657
vn -0.5998 0.8001 -0.0000
vn 0.0003 1.0000 -0.0000
vn -0.4803 0.8771 -0.0000
vn 0.6002 0.7999 -0.0000
vn -0.5998 0.8002 -0.0000
vn 0.4807 0.8769 -0.0000
vn -0.4804 0.8771 -0.0000
vn 0.0002 0.7071 -0.7071
vn -0.5999 0.5658 -0.5657
vn -0.4804 0.6202 -0.6201
vn 0.6001 0.5656 -0.5657
vn -0.5998 0.5658 -0.5657
vn 0.0009 -0.7069 -0.7073
vn 0.6002 -0.5657 0.5654
vn 0.0012 -1.0000 -0.0000
vn 0.0009 -0.7069 0.7073
vn -0.0000 0.0003 1.0000
vn -0.0009 0.7073 0.7069
vn -0.0009 0.7073 -0.7069
vn -0.0012 1.0000 -0.0000
vn -0.0000 0.0003 -1.0000
vt 0.947470 0.037677
vt 0.927640 0.045459
vt 0.931226 0.028232
vt 0.937842 0.007817
vt 0.928547 0.130780
vt 0.948638 0.133956
vt 0.934473 0.150909
vt 0.925563 0.113182
vt 0.944729 0.122198
vt 0.924520 0.096118
vt 0.942177 0.108777
vt 0.941159 0.080218
vt 0.924508 0.079031
vt 0.942195 0.065540
vt 0.925551 0.062245
vt 0.944237 0.051147
vt 0.707478 0.051626
vt 0.665429 0.070259
vt 0.663516 0.059196
vt 0.726436 0.062389
vt 0.709510 0.065850
vt 0.731361 0.044355
vt 0.724087 0.045720
vt 0.748171 0.044726
vt 0.733780 0.061548
vt 0.755705 0.044441
vt 0.750076 0.062275
vt 0.774261 0.060231
vt 0.757493 0.062188
vt 0.780996 0.041652
vt 0.773817 0.042179
vt 0.797533 0.043226
vt 0.781723 0.060001
vt 0.805052 0.042924
vt 0.798143 0.060884
vt 0.822521 0.059390
vt 0.805650 0.060949
vt 0.830476 0.041180
vt 0.823271 0.041382
vt 0.847033 0.043340
vt 0.830046 0.059427
vt 0.854709 0.042778
vt 0.846735 0.061004
vt 0.871545 0.042575
vt 0.854212 0.060763
vt 0.879065 0.042333
vt 0.872525 0.060506
vt 0.896003 0.044494
vt 0.879637 0.060508
vt 0.903612 0.044707
vt 0.895284 0.062097
vt 0.918291 0.061472
vt 0.902311 0.062281
vt 0.920400 0.044146
vt 0.666539 0.081375
vt 0.727641 0.079061
vt 0.710433 0.080370
vt 0.734901 0.078782
vt 0.750875 0.079574
vt 0.775395 0.078449
vt 0.758282 0.079392
vt 0.783125 0.078508
vt 0.797950 0.078657
vt 0.822520 0.077641
vt 0.805649 0.078870
vt 0.830039 0.077675
vt 0.846616 0.078816
vt 0.871599 0.078454
vt 0.854277 0.078859
vt 0.879363 0.078844
vt 0.894028 0.079351
vt 0.917167 0.078806
vt 0.901313 0.079596
vt 0.710571 0.094615
vt 0.666070 0.092500
vt 0.727968 0.095897
vt 0.735656 0.096428
vt 0.757505 0.096675
vt 0.750030 0.096654
vt 0.773969 0.096495
vt 0.781394 0.096953
vt 0.797988 0.096231
vt 0.805694 0.096183
vt 0.822788 0.096002
vt 0.830597 0.096283
vt 0.853493 0.096672
vt 0.845722 0.096378
vt 0.870075 0.096509
vt 0.877539 0.096957
vt 0.894185 0.096477
vt 0.901791 0.096508
vt 0.916558 0.096402
vt 0.709361 0.108636
vt 0.664786 0.103588
vt 0.724787 0.112656
vt 0.732174 0.113813
vt 0.749007 0.113694
vt 0.756834 0.113652
vt 0.771950 0.114884
vt 0.779581 0.115184
vt 0.797158 0.113528
vt 0.805293 0.113362
vt 0.820618 0.114418
vt 0.828268 0.114662
vt 0.845620 0.113573
vt 0.853676 0.113736
vt 0.869021 0.115063
vt 0.876679 0.115123
vt 0.894114 0.113409
vt 0.901912 0.113407
vt 0.918411 0.114183
vt 0.706539 0.121976
vt 0.662802 0.114687
vt 0.729508 0.131821
vt 0.722416 0.130552
vt 0.747162 0.129630
vt 0.755259 0.129762
vt 0.779276 0.133924
vt 0.772117 0.133980
vt 0.796553 0.129656
vt 0.804550 0.129622
vt 0.828479 0.133474
vt 0.821402 0.133599
vt 0.845456 0.129487
vt 0.853357 0.130038
vt 0.878131 0.133828
vt 0.871011 0.133975
vt 0.895203 0.129401
vt 0.903449 0.129758
vt 0.921419 0.132282
vt 0.702786 0.133700
vt 0.660710 0.125966
vt 0.725711 0.152725
vt 0.716251 0.150262
vt 0.746520 0.143505
vt 0.753385 0.143086
vt 0.779688 0.155355
vt 0.770477 0.155007
vt 0.797261 0.143409
vt 0.803521 0.142992
vt 0.829517 0.154869
vt 0.820453 0.154708
vt 0.846563 0.143030
vt 0.852942 0.142757
vt 0.869125 0.155118
vt 0.878653 0.155355
vt 0.896745 0.143299
vt 0.903846 0.143489
vt 0.924811 0.152870
vt 0.700468 0.026722
vt 0.660939 0.048183
vt 0.658181 0.037066
vt 0.713248 0.008740
vt 0.704304 0.038276
vt 0.723671 0.005540
vt 0.720369 0.028414
vt 0.746201 0.028052
vt 0.727363 0.026952
vt 0.752375 0.015330
vt 0.744561 0.015462
vt 0.768291 0.002226
vt 0.754315 0.028015
vt 0.778339 0.001427
vt 0.770917 0.023715
vt 0.796752 0.026423
vt 0.778228 0.023218
vt 0.803773 0.013762
vt 0.796606 0.013553
vt 0.820096 0.001225
vt 0.804801 0.026526
vt 0.830064 0.000966
vt 0.821525 0.022812
vt 0.847009 0.026585
vt 0.828808 0.022669
vt 0.854472 0.013896
vt 0.847418 0.013663
vt 0.871343 0.001792
vt 0.854996 0.026635
vt 0.881411 0.001991
vt 0.871775 0.023451
vt 0.897185 0.028000
vt 0.879028 0.023679
vt 0.906580 0.015377
vt 0.898588 0.015202
vt 0.927171 0.005399
vt 0.905341 0.027938
vt 0.924302 0.026486
vt 0.980190 0.069840
vt 0.940596 0.094655
vt 0.978927 0.081104
vt 0.979363 0.092335
vt 0.980766 0.103505
vt 0.982956 0.114591
vt 0.951318 0.026094
vt 0.985089 0.047620
vt 0.985446 0.125791
vt 0.982270 0.058665
vt 0.988176 0.036568
s 1
usemtl Catenary
f 187/114/134 339/115/135 302/116/136
f 283/117/137 187/114/134 302/116/136
f 264/118/138 186/119/139 283/120/137
f 245/121/140 185/122/141 264/118/138
f 226/123/142 184/124/143 245/121/140
f 182/125/144 226/123/142 207/126/145
f 181/127/146 207/126/145 188/128/147
f 180/129/148 188/128/147 339/115/135
f 321/130/149 173/131/150 172/132/151
f 321/130/149 205/133/152 206/134/153
f 323/135/135 205/133/152 322/136/154
f 324/137/155 204/138/147 323/135/135
f 325/139/149 203/140/156 324/137/155
f 325/139/149 201/141/152 202/142/153
f 327/143/135 201/141/152 326/144/154
f 328/145/155 200/146/147 327/143/135
f 329/147/149 199/148/156 328/145/155
f 329/147/149 197/149/152 198/150/153
f 331/151/135 197/149/152 330/152/154
f 332/153/155 196/154/147 331/151/135
f 333/155/149 195/156/157 332/153/155
f 334/157/154 194/158/153 333/155/149
f 335/159/135 193/160/152 334/157/154
f 336/161/155 192/162/147 335/159/135
f 337/163/149 191/164/156 336/161/155
f 337/163/149 189/165/152 190/166/153
f 339/115/135 189/165/152 338/167/154
f 206/134/153 174/168/158 173/131/150
f 206/134/153 224/169/159 225/170/160
f 204/138/147 224/169/159 205/133/152
f 203/140/156 223/171/145 204/138/147
f 202/142/153 222/172/161 203/140/156
f 202/142/153 220/173/162 221/174/160
f 200/146/147 220/173/162 201/141/152
f 199/148/156 219/175/145 200/146/147
f 198/150/153 218/176/161 199/148/156
f 198/150/153 216/177/159 217/178/160
f 196/154/147 216/177/159 197/149/152
f 195/156/157 215/179/145 196/154/147
f 194/158/153 214/180/161 195/156/157
f 194/158/153 212/181/159 213/182/160
f 192/162/147 212/181/159 193/160/152
f 191/164/156 211/183/145 192/162/147
f 190/166/153 210/184/161 191/164/156
f 190/166/153 208/185/159 209/186/160
f 188/128/147 208/185/159 189/165/152
f 174/168/158 244/187/163 175/188/164
f 225/170/160 243/189/165 244/187/163
f 224/169/159 242/190/142 243/189/165
f 222/172/161 242/190/142 223/171/145
f 222/172/161 240/191/163 241/192/166
f 221/174/160 239/193/165 240/191/163
f 220/173/162 238/194/142 239/193/165
f 219/175/145 237/195/167 238/194/142
f 218/176/161 236/196/163 237/195/167
f 217/178/160 235/197/165 236/196/163
f 216/177/159 234/198/142 235/197/165
f 214/180/161 234/198/142 215/179/145
f 214/180/161 232/199/163 233/200/167
f 213/182/160 231/201/165 232/199/163
f 212/181/159 230/202/142 231/201/165
f 211/183/145 229/203/167 230/202/142
f 210/184/161 228/204/163 229/203/167
f 209/186/160 227/205/165 228/204/163
f 208/185/159 226/123/142 227/205/165
f 175/188/164 263/206/168 176/207/169
f 244/187/163 262/208/170 263/206/168
f 243/189/165 261/209/140 262/208/170
f 242/190/142 260/210/171 261/209/140
f 241/192/166 259/211/168 260/210/171
f 240/191/163 258/212/170 259/211/168
f 239/193/165 257/213/140 258/212/170
f 238/194/142 256/214/171 257/213/140
f 237/195/167 255/215/168 256/214/171
f 236/196/163 254/216/170 255/215/168
f 235/197/165 253/217/140 254/216/170
f 234/198/142 252/218/171 253/217/140
f 233/200/167 251/219/168 252/218/171
f 232/199/163 250/220/170 251/219/168
f 231/201/165 249/221/140 250/220/170
f 230/202/142 248/222/171 249/221/140
f 229/203/167 247/223/168 248/222/171
f 227/205/165 247/223/168 228/204/163
f 227/205/165 245/121/140 246/224/170
f 176/207/169 282/225/172 177/226/173
f 262/208/170 282/225/172 263/206/168
f 262/208/170 280/227/138 281/228/174
f 261/209/140 279/229/175 280/227/138
f 260/210/171 278/230/176 279/229/175
f 258/212/170 278/230/176 259/211/168
f 258/212/170 276/231/138 277/232/174
f 257/213/140 275/233/175 276/231/138
f 256/214/171 274/234/176 275/233/175
f 254/216/170 274/234/176 255/215/168
f 254/216/170 272/235/138 273/236/174
f 253/217/140 271/237/175 272/235/138
f 252/218/171 270/238/176 271/237/175
f 250/220/170 270/238/176 251/219/168
f 250/220/170 268/239/138 269/240/174
f 249/221/140 267/241/175 268/239/138
f 248/222/171 266/242/176 267/241/175
f 246/224/170 266/242/176 247/223/168
f 246/224/170 264/118/138 265/243/174
f 177/226/173 301/244/177 178/245/178
f 281/228/174 301/244/177 282/225/172
f 281/228/174 299/246/137 300/247/179
f 280/227/138 298/248/180 299/246/137
f 279/229/175 297/249/181 298/248/180
f 277/232/174 297/249/181 278/230/176
f 277/232/174 295/250/182 296/251/179
f 276/231/138 294/252/180 295/250/182
f 275/233/175 293/253/181 294/252/180
f 273/236/174 293/253/181 274/234/176
f 273/236/174 291/254/182 292/255/179
f 272/235/138 290/256/180 291/254/182
f 271/237/175 289/257/181 290/256/180
f 270/238/176 288/258/183 289/257/181
f 269/240/174 287/259/182 288/258/183
f 268/239/138 286/260/180 287/259/182
f 267/241/175 285/261/177 286/260/180
f 265/243/174 285/261/177 266/242/176
f 265/243/174 283/120/137 284/262/179
f 301/263/177 179/264/184 178/265/178
f 300/266/179 320/267/185 301/263/177
f 299/268/137 319/269/186 300/266/179
f 299/268/137 317/270/187 318/271/136
f 297/272/181 317/270/187 298/273/180
f 296/274/179 316/275/188 297/272/181
f 295/276/182 315/277/186 296/274/179
f 295/276/182 313/278/187 314/279/136
f 293/280/181 313/278/187 294/281/180
f 292/282/179 312/283/188 293/280/181
f 291/284/182 311/285/186 292/282/179
f 291/284/182 309/286/187 310/287/136
f 289/288/181 309/286/187 290/289/180
f 288/290/183 308/291/185 289/288/181
f 287/292/182 307/293/186 288/290/183
f 287/292/182 305/294/187 306/295/136
f 285/296/177 305/294/187 286/297/180
f 284/298/179 304/299/188 285/296/177
f 283/117/137 303/300/186 284/298/179
f 320/267/185 172/132/151 179/264/184
f 320/267/185 322/136/154 321/130/149
f 318/271/136 322/136/154 319/269/186
f 317/270/187 323/135/135 318/271/136
f 316/275/188 324/137/155 317/270/187
f 315/277/186 325/139/149 316/275/188
f 314/279/136 326/144/154 315/277/186
f 313/278/187 327/143/135 314/279/136
f 312/283/188 328/145/155 313/278/187
f 311/285/186 329/147/149 312/283/188
f 310/287/136 330/152/154 311/285/186
f 309/286/187 331/151/135 310/287/136
f 308/291/185 332/153/155 309/286/187
f 307/293/186 333/155/149 308/291/185
f 306/295/136 334/157/154 307/293/186
f 305/294/187 335/159/135 306/295/136
f 304/299/188 336/161/155 305/294/187
f 304/299/188 338/167/154 337/163/149
f 302/116/136 338/167/154 303/300/186
f 180/129/148 341/301/189 181/127/146
f 183/302/190 342/303/191 343/304/192
f 185/122/141 344/305/193 345/306/194
f 186/307/139 347/308/195 187/114/134
f 181/127/146 342/303/191 182/125/144
f 184/124/143 343/304/192 344/305/193
f 186/119/139 345/306/194 346/309/196
f 187/114/134 340/310/197 180/129/148
f 187/114/134 180/129/148 339/115/135
f 283/117/137 186/307/139 187/114/134
f 264/118/138 185/122/141 186/119/139
f 245/121/140 184/124/143 185/122/141
f 226/123/142 183/302/190 184/124/143
f 182/125/144 183/302/190 226/123/142
f 181/127/146 182/125/144 207/126/145
f 180/129/148 181/127/146 188/128/147
f 321/130/149 206/134/153 173/131/150
f 321/130/149 322/136/154 205/133/152
f 323/135/135 204/138/147 205/133/152
f 324/137/155 203/140/156 204/138/147
f 325/139/149 202/142/153 203/140/156
f 325/139/149 326/144/154 201/141/152
f 327/143/135 200/146/147 201/141/152
f 328/145/155 199/148/156 200/146/147
f 329/147/149 198/150/153 199/148/156
f 329/147/149 330/152/154 197/149/152
f 331/151/135 196/154/147 197/149/152
f 332/153/155 195/156/157 196/154/147
f 333/155/149 194/158/153 195/156/157
f 334/157/154 193/160/152 194/158/153
f 335/159/135 192/162/147 193/160/152
f 336/161/155 191/164/156 192/162/147
f 337/163/149 190/166/153 191/164/156
f 337/163/149 338/167/154 189/165/152
f 339/115/135 188/128/147 189/165/152
f 206/134/153 225/170/160 174/168/158
f 206/134/153 205/133/152 224/169/159
f 204/138/147 223/171/145 224/169/159
f 203/140/156 222/172/161 223/171/145
f 202/142/153 221/174/160 222/172/161
f 202/142/153 201/141/152 220/173/162
f 200/146/147 219/175/145 220/173/162
f 199/148/156 218/176/161 219/175/145
f 198/150/153 217/178/160 218/176/161
f 198/150/153 197/149/152 216/177/159
f 196/154/147 215/179/145 216/177/159
f 195/156/157 214/180/161 215/179/145
f 194/158/153 213/182/160 214/180/161
f 194/158/153 193/160/152 212/181/159
f 192/162/147 211/183/145 212/181/159
f 191/164/156 210/184/161 211/183/145
f 190/166/153 209/186/160 210/184/161
f 190/166/153 189/165/152 208/185/159
f 188/128/147 207/126/145 208/185/159
f 174/168/158 225/170/160 244/187/163
f 225/170/160 224/169/159 243/189/165
f 224/169/159 223/171/145 242/190/142
f 222/172/161 241/192/166 242/190/142
f 222/172/161 221/174/160 240/191/163
f 221/174/160 220/173/162 239/193/165
f 220/173/162 219/175/145 238/194/142
f 219/175/145 218/176/161 237/195/167
f 218/176/161 217/178/160 236/196/163
f 217/178/160 216/177/159 235/197/165
f 216/177/159 215/179/145 234/198/142
f 214/180/161 233/200/167 234/198/142
f 214/180/161 213/182/160 232/199/163
f 213/182/160 212/181/159 231/201/165
f 212/181/159 211/183/145 230/202/142
f 211/183/145 210/184/161 229/203/167
f 210/184/161 209/186/160 228/204/163
f 209/186/160 208/185/159 227/205/165
f 208/185/159 207/126/145 226/123/142
f 175/188/164 244/187/163 263/206/168
f 244/187/163 243/189/165 262/208/170
f 243/189/165 242/190/142 261/209/140
f 242/190/142 241/192/166 260/210/171
f 241/192/166 240/191/163 259/211/168
f 240/191/163 239/193/165 258/212/170
f 239/193/165 238/194/142 257/213/140
f 238/194/142 237/195/167 256/214/171
f 237/195/167 236/196/163 255/215/168
f 236/196/163 235/197/165 254/216/170
f 235/197/165 234/198/142 253/217/140
f 234/198/142 233/200/167 252/218/171
f 233/200/167 232/199/163 251/219/168
f 232/199/163 231/201/165 250/220/170
f 231/201/165 230/202/142 249/221/140
f 230/202/142 229/203/167 248/222/171
f 229/203/167 228/204/163 247/223/168
f 227/205/165 246/224/170 247/223/168
f 227/205/165 226/123/142 245/121/140
f 176/207/169 263/206/168 282/225/172
f 262/208/170 281/228/174 282/225/172
f 262/208/170 261/209/140 280/227/138
f 261/209/140 260/210/171 279/229/175
f 260/210/171 259/211/168 278/230/176
f 258/212/170 277/232/174 278/230/176
f 258/212/170 257/213/140 276/231/138
f 257/213/140 256/214/171 275/233/175
f 256/214/171 255/215/168 274/234/176
f 254/216/170 273/236/174 274/234/176
f 254/216/170 253/217/140 272/235/138
f 253/217/140 252/218/171 271/237/175
f 252/218/171 251/219/168 270/238/176
f 250/220/170 269/240/174 270/238/176
f 250/220/170 249/221/140 268/239/138
f 249/221/140 248/222/171 267/241/175
f 248/222/171 247/223/168 266/242/176
f 246/224/170 265/243/174 266/242/176
f 246/224/170 245/121/140 264/118/138
f 177/226/173 282/225/172 301/244/177
f 281/228/174 300/247/179 301/244/177
f 281/228/174 280/227/138 299/246/137
f 280/227/138 279/229/175 298/248/180
f 279/229/175 278/230/176 297/249/181
f 277/232/174 296/251/179 297/249/181
f 277/232/174 276/231/138 295/250/182
f 276/231/138 275/233/175 294/252/180
f 275/233/175 274/234/176 293/253/181
f 273/236/174 292/255/179 293/253/181
f 273/236/174 272/235/138 291/254/182
f 272/235/138 271/237/175 290/256/180
f 271/237/175 270/238/176 289/257/181
f 270/238/176 269/240/174 288/258/183
f 269/240/174 268/239/138 287/259/182
f 268/239/138 267/241/175 286/260/180
f 267/241/175 266/242/176 285/261/177
f 265/243/174 284/262/179 285/261/177
f 265/243/174 264/118/138 283/120/137
f 301/263/177 320/267/185 179/264/184
f 300/266/179 319/269/186 320/267/185
f 299/268/137 318/271/136 319/269/186
f 299/268/137 298/273/180 317/270/187
f 297/272/181 316/275/188 317/270/187
f 296/274/179 315/277/186 316/275/188
f 295/276/182 314/279/136 315/277/186
f 295/276/182 294/281/180 313/278/187
f 293/280/181 312/283/188 313/278/187
f 292/282/179 311/285/186 312/283/188
f 291/284/182 310/287/136 311/285/186
f 291/284/182 290/289/180 309/286/187
f 289/288/181 308/291/185 309/286/187
f 288/290/183 307/293/186 308/291/185
f 287/292/182 306/295/136 307/293/186
f 287/292/182 286/297/180 305/294/187
f 285/296/177 304/299/188 305/294/187
f 284/298/179 303/300/186 304/299/188
f 283/117/137 302/116/136 303/300/186
f 320/267/185 321/130/149 172/132/151
f 320/267/185 319/269/186 322/136/154
f 318/271/136 323/135/135 322/136/154
f 317/270/187 324/137/155 323/135/135
f 316/275/188 325/139/149 324/137/155
f 315/277/186 326/144/154 325/139/149
f 314/279/136 327/143/135 326/144/154
f 313/278/187 328/145/155 327/143/135
f 312/283/188 329/147/149 328/145/155
f 311/285/186 330/152/154 329/147/149
f 310/287/136 331/151/135 330/152/154
f 309/286/187 332/153/155 331/151/135
f 308/291/185 333/155/149 332/153/155
f 307/293/186 334/157/154 333/155/149
f 306/295/136 335/159/135 334/157/154
f 305/294/187 336/161/155 335/159/135
f 304/299/188 337/163/149 336/161/155
f 304/299/188 303/300/186 338/167/154
f 302/116/136 339/115/135 338/167/154
f 180/129/148 340/310/197 341/301/189
f 183/302/190 182/125/144 342/303/191
f 185/122/141 184/124/143 344/305/193
f 186/307/139 346/311/196 347/308/195
f 181/127/146 341/301/189 342/303/191
f 184/124/143 183/302/190 343/304/192
f 186/119/139 185/122/141 345/306/194
f 187/114/134 347/308/195 340/310/197
