# Blender 5.0.1
# www.blender.org
mtllib registration_arm_outer_dual.mtl
o GantryInsulator
g registration_arm_outer_dual
v -0.300000 7.039817 -0.008762
v -0.300000 7.054616 -0.102362
v -0.300000 7.130641 -0.022523
v -0.300000 7.140331 -0.102362
v -0.300000 7.216355 -0.038935
v -0.272291 7.216355 -0.027457
v -0.229289 7.140331 -0.073072
v -0.285157 7.130641 -0.016375
v -0.229289 7.054616 -0.073072
v -0.293626 7.039817 -0.006122
v -0.260813 7.216355 0.000252
v -0.200000 7.140331 -0.002362
v -0.279008 7.130641 -0.001531
v -0.200000 7.054616 -0.002362
v -0.290986 7.039817 0.000252
v -0.272291 7.216355 0.027961
v -0.229289 7.140331 0.068349
v -0.285960 7.130641 0.014596
v -0.229289 7.054616 0.068349
v -0.293626 7.039817 0.006626
v -0.300000 7.216355 0.039439
v -0.300000 7.140331 0.097638
v -0.300000 7.130641 0.020487
v -0.300000 7.054616 0.097638
v -0.300000 7.039817 0.009266
v -0.327709 7.216355 0.027961
v -0.370711 7.140331 0.068349
v -0.314040 7.130641 0.014596
v -0.370711 7.054616 0.068349
v -0.306374 7.039817 0.006626
v -0.339187 7.216355 0.000252
v -0.400000 7.140331 -0.002362
v -0.320992 7.130641 -0.001531
v -0.400000 7.054616 -0.002362
v -0.309014 7.039817 0.000252
v -0.327709 7.216355 -0.027457
v -0.370711 7.140331 -0.073072
v -0.314843 7.130641 -0.016375
v -0.370711 7.054616 -0.073072
v -0.306374 7.039817 -0.006122
v -0.300000 7.216355 -0.018017
v -0.287082 7.216355 -0.012666
v -0.281731 7.216355 0.000252
v -0.287082 7.216355 0.013170
v -0.300000 7.216355 0.018521
v -0.312918 7.216355 0.013170
v -0.318269 7.216355 0.000252
v -0.312918 7.216355 -0.012666
v -0.300000 7.334884 -0.018017
v -0.287082 7.334884 -0.012666
v -0.281731 7.334884 0.000252
v -0.287082 7.334884 0.013170
v -0.300000 7.334884 0.018521
v -0.312918 7.334884 0.013170
v -0.318269 7.334884 0.000252
v -0.312918 7.334884 -0.012666
v -0.300000 7.350073 0.000252
v -0.281731 7.350073 0.000252
v -0.318269 7.350073 0.000252
v -0.312918 7.334884 0.034277
v -0.318269 7.334884 0.021358
v -0.300000 7.334884 0.039627
v -0.287082 7.334884 0.034277
v -0.281731 7.334884 0.021358
v -0.312918 7.350073 0.034277
v -0.318269 7.350073 0.021358
v -0.300000 7.350073 0.039627
v -0.287082 7.350073 0.034277
v -0.281731 7.350073 0.021358
v -0.312918 7.334884 -0.034282
v -0.300000 7.334884 -0.039633
v -0.318269 7.334884 -0.021364
v -0.287082 7.334884 -0.034282
v -0.281731 7.334884 -0.021364
v -0.312918 7.350073 -0.034282
v -0.300000 7.350073 -0.039633
v -0.318269 7.350073 -0.021364
v -0.287082 7.350073 -0.034282
v -0.281731 7.350073 -0.021364
v -0.300000 6.379152 -0.008762
v -0.293626 6.379152 -0.006122
v -0.290986 6.379152 0.000252
v -0.293626 6.379152 0.006626
v -0.300000 6.379152 0.009266
v -0.306374 6.379152 0.006626
v -0.309014 6.379152 0.000252
v -0.306374 6.379152 -0.006122
vn -0.1109 -0.9875 -0.1117
vn -0.0000 -0.9877 -0.1562
vn -0.1122 -0.9875 -0.1105
vn -0.4879 0.7231 -0.4889
vn -0.0000 0.7242 -0.6896
vn -0.0853 -0.9927 -0.0856
vn -0.0000 -0.9927 -0.1205
vn -0.0857 -0.9927 -0.0852
vn -0.5436 0.6361 -0.5477
vn -0.0000 0.6406 -0.7679
vn -0.1605 -0.9870 -0.0008
vn -0.1606 -0.9870 0.0017
vn -0.6934 0.7206 -0.0010
vn -0.4893 0.7231 -0.4875
vn -0.1217 -0.9926 -0.0002
vn -0.1213 -0.9926 0.0010
vn -0.7808 0.6247 -0.0042
vn -0.5489 0.6360 -0.5424
vn -0.1162 -0.9865 0.1154
vn -0.1149 -0.9865 0.1167
vn -0.4952 0.7160 0.4921
vn -0.6917 0.7222 0.0052
vn -0.0876 -0.9924 0.0869
vn -0.0857 -0.9924 0.0888
vn -0.5609 0.6129 0.5566
vn -0.7810 0.6245 0.0066
vn -0.0000 -0.9863 0.1652
vn -0.0000 0.7126 0.7016
vn -0.4872 0.7158 0.5003
vn -0.0000 -0.9922 0.1245
vn -0.0000 -0.9922 0.1246
vn -0.0000 0.6079 0.7940
vn -0.5554 0.6128 0.5621
vn 0.1149 -0.9865 0.1167
vn 0.4872 0.7158 0.5003
vn 0.4952 0.7160 0.4921
vn 0.0857 -0.9924 0.0888
vn 0.5554 0.6128 0.5621
vn 0.5609 0.6129 0.5566
vn 0.1606 -0.9870 0.0017
vn 0.1162 -0.9865 0.1154
vn 0.6917 0.7222 0.0052
vn 0.6934 0.7206 -0.0010
vn 0.1213 -0.9926 0.0010
vn 0.0876 -0.9924 0.0869
vn 0.7810 0.6245 0.0066
vn 0.7808 0.6247 -0.0042
vn 0.1122 -0.9875 -0.1105
vn 0.1605 -0.9870 -0.0008
vn 0.4893 0.7231 -0.4875
vn 0.4879 0.7231 -0.4889
vn 0.0857 -0.9927 -0.0852
vn 0.1217 -0.9926 -0.0002
vn 0.5489 0.6360 -0.5424
vn 0.5436 0.6361 -0.5477
vn 0.1109 -0.9875 -0.1117
vn 0.0853 -0.9927 -0.0856
vn -0.0000 0.7123 0.7019
vn -0.0000 1.0000 -0.0000
vn 0.7071 -0.0000 0.7071
vn -0.0000 -0.0000 1.0000
vn -0.7071 -0.0000 0.7071
vn -1.0000 -0.0000 -0.0000
vn -0.7071 -0.0000 -0.7071
vn -0.0000 -0.0000 -1.0000
vn 0.7071 -0.0000 -0.7071
vn 1.0000 -0.0000 -0.0000
vn 0.9701 -0.2425 -0.0000
vn 0.9808 -0.0000 -0.1951
vn -0.0000 -1.0000 -0.0000
vn 0.7319 -0.6657 0.1456
vn -0.9808 -0.0000 0.1951
vn -0.7319 -0.6657 0.1456
vn -0.9701 -0.2425 -0.0000
vn 0.7319 -0.6657 -0.1456
vn -0.7319 -0.6657 -0.1456
vn 0.9808 -0.0000 0.1951
vn -0.9808 -0.0000 -0.1951
vt 0.959703 0.009387
vt 0.960882 0.008099
vt 0.960684 0.009187
vt 0.957954 0.007566
vt 0.960035 0.007566
vt 0.962915 0.005744
vt 0.961736 0.007033
vt 0.961934 0.005945
vt 0.964664 0.007566
vt 0.962584 0.007566
vt 0.958751 0.010974
vt 0.960309 0.010184
vt 0.959740 0.011133
vt 0.957756 0.008654
vt 0.963867 0.004157
vt 0.962309 0.004947
vt 0.962878 0.003998
vt 0.964862 0.006477
vt 0.957301 0.012125
vt 0.959037 0.011934
vt 0.958171 0.012621
vt 0.957187 0.009603
vt 0.965317 0.003006
vt 0.963581 0.003197
vt 0.964447 0.002510
vt 0.965431 0.005529
vt 0.955539 0.012691
vt 0.957231 0.013124
vt 0.956177 0.013462
vt 0.956321 0.010290
vt 0.967079 0.002440
vt 0.965388 0.002008
vt 0.966441 0.001669
vt 0.966297 0.004841
vt 0.957231 0.002008
vt 0.955539 0.002440
vt 0.956177 0.001669
vt 0.956321 0.004841
vt 0.957301 0.003006
vt 0.965388 0.013124
vt 0.967079 0.012691
vt 0.966441 0.013462
vt 0.966297 0.010290
vt 0.965317 0.012125
vt 0.959037 0.003197
vt 0.958171 0.002510
vt 0.957187 0.005529
vt 0.958751 0.004157
vt 0.963581 0.011934
vt 0.964447 0.012621
vt 0.965431 0.009603
vt 0.963867 0.010974
vt 0.960309 0.004947
vt 0.959740 0.003998
vt 0.957756 0.006477
vt 0.959703 0.005744
vt 0.962309 0.010184
vt 0.962878 0.011133
vt 0.964862 0.008654
vt 0.962915 0.009387
vt 0.960882 0.007033
vt 0.960684 0.005945
vt 0.961736 0.008099
vt 0.961934 0.009187
vt 0.955268 0.010628
vt 0.967350 0.004503
vt 0.955268 0.004503
vt 0.967350 0.010628
vt 0.981114 0.009656
vt 0.982013 0.009945
vt 0.981114 0.005003
vt 0.980374 0.005590
vt 0.979888 0.006400
vt 0.979719 0.007329
vt 0.979888 0.008259
vt 0.980374 0.009069
vt 0.982013 0.004714
vt 0.924092 -0.341471
vt 0.974914 0.011060
vt 0.974174 0.011647
vt 0.975514 0.004283
vt 0.976000 0.005093
vt 0.973371 0.012076
vt 0.972472 0.012365
vt 0.976321 0.005945
vt 0.976490 0.006874
vt 0.976490 0.007784
vt 0.976321 0.008714
vt 0.972472 0.002294
vt 0.973371 0.002583
vt 0.976000 0.009566
vt 0.975514 0.010376
vt 0.974174 0.003012
vt 0.974914 0.003599
s 1
usemtl Catenary
f 39/1/1 1/2/2 40/3/3
f 39/1/4 3/4/5 2/5/5
f 37/6/6 3/7/7 38/8/8
f 37/6/9 5/9/10 4/10/10
f 34/11/11 40/12/3 35/13/12
f 34/11/13 38/14/14 39/1/4
f 32/15/15 38/16/8 33/17/16
f 32/15/17 36/18/18 37/6/9
f 29/19/19 35/20/12 30/21/20
f 29/19/21 33/22/22 34/11/13
f 27/23/23 33/24/16 28/25/24
f 27/23/25 31/26/26 32/15/17
f 24/27/27 30/28/20 25/29/27
f 24/27/28 28/30/29 29/19/21
f 22/31/30 28/32/24 23/33/31
f 22/31/32 26/34/33 27/23/25
f 20/35/34 24/36/27 25/37/27
f 18/38/35 24/36/28 19/39/36
f 18/40/37 22/41/30 23/42/31
f 16/43/38 22/41/32 17/44/39
f 15/45/40 19/39/41 20/46/34
f 13/47/42 19/39/36 14/48/43
f 13/49/44 17/44/45 18/50/37
f 11/51/46 17/44/39 12/52/47
f 10/53/48 14/48/49 15/54/40
f 8/55/50 14/48/43 9/56/51
f 8/57/52 12/52/53 13/58/44
f 6/59/54 12/52/47 7/60/55
f 1/61/2 9/56/56 10/62/48
f 3/4/5 9/56/51 2/5/5
f 3/63/7 7/60/57 8/64/52
f 5/9/10 7/60/55 4/10/10
f 39/1/1 2/5/2 1/2/2
f 39/1/4 38/14/14 3/4/5
f 37/6/6 4/10/7 3/7/7
f 37/6/9 36/18/18 5/9/10
f 34/11/11 39/1/1 40/12/3
f 34/11/13 33/22/22 38/14/14
f 32/15/15 37/6/6 38/16/8
f 32/15/17 31/26/26 36/18/18
f 29/19/19 34/11/11 35/20/12
f 29/19/21 28/30/29 33/22/22
f 27/23/23 32/15/15 33/24/16
f 27/23/25 26/34/33 31/26/26
f 24/27/27 29/19/19 30/28/20
f 24/27/28 23/65/58 28/30/29
f 22/31/30 27/23/23 28/32/24
f 22/31/32 21/66/32 26/34/33
f 20/35/34 19/39/41 24/36/27
f 18/38/35 23/67/58 24/36/28
f 18/40/37 17/44/45 22/41/30
f 16/43/38 21/68/32 22/41/32
f 15/45/40 14/48/49 19/39/41
f 13/47/42 18/38/35 19/39/36
f 13/49/44 12/52/53 17/44/45
f 11/51/46 16/43/38 17/44/39
f 10/53/48 9/56/56 14/48/49
f 8/55/50 13/47/42 14/48/43
f 8/57/52 7/60/57 12/52/53
f 6/59/54 11/51/46 12/52/47
f 1/61/2 2/5/2 9/56/56
f 3/4/5 8/55/50 9/56/51
f 3/63/7 4/10/7 7/60/57
f 5/9/10 6/59/54 7/60/55
f 31/26/59 48/18/59 36/18/59
f 11/51/59 44/43/59 16/43/59
f 26/34/59 47/26/59 31/26/59
f 6/59/59 43/51/59 11/51/59
f 21/66/59 46/34/59 26/34/59
f 6/59/59 41/9/59 42/59/59
f 36/18/59 41/9/59 5/9/59
f 16/43/59 45/68/59 21/68/59
f 44/69/60 53/70/61 45/70/61
f 46/71/62 55/72/63 47/72/63
f 48/73/64 49/74/65 41/74/65
f 41/74/65 50/75/66 42/75/66
f 43/76/67 52/69/60 44/69/60
f 45/77/61 54/71/62 46/71/62
f 47/72/63 56/73/64 48/73/64
f 42/75/66 51/76/67 43/76/67
f 51/76/68 79/76/69 58/76/67
f 53/70/70 63/69/70 62/70/70
f 58/76/67 64/76/71 51/76/68
f 49/74/70 73/75/70 50/75/70
s 0
f 57/78/59 77/78/59 59/78/59
f 57/78/59 67/78/59 68/78/59
s 1
f 53/77/70 60/71/70 54/71/70
f 49/74/70 70/73/70 71/74/70
f 63/69/60 67/70/61 62/70/61
f 60/71/62 66/72/72 61/72/73
f 64/76/71 68/69/60 63/69/60
f 62/77/61 65/71/62 60/71/62
s 0
f 57/78/59 69/78/59 58/78/59
s 1
f 55/72/74 66/72/72 59/72/63
s 0
f 57/78/59 66/78/59 65/78/59
s 1
f 52/69/70 64/76/71 63/69/70
f 54/71/70 61/72/73 55/72/74
s 0
f 57/78/59 65/78/59 67/78/59
s 1
f 73/75/66 79/76/69 74/76/75
f 70/73/64 76/74/65 71/74/65
f 71/74/65 78/75/66 73/75/66
f 72/72/76 75/73/64 70/73/64
f 59/72/63 72/72/76 55/72/74
f 56/73/70 72/72/76 70/73/70
s 0
f 57/78/59 79/78/59 78/78/59
f 57/78/59 76/78/59 75/78/59
f 57/78/59 78/78/59 76/78/59
s 1
f 50/75/70 74/76/75 51/76/68
f 35/79/63 85/80/62 30/80/62
f 15/81/67 81/82/66 10/82/66
f 30/83/62 84/84/61 25/84/61
f 10/85/66 80/86/65 1/86/65
f 1/87/65 87/88/64 40/88/64
f 25/89/61 83/90/60 20/90/60
f 40/91/64 86/92/63 35/92/63
f 20/93/60 82/94/67 15/94/67
f 31/26/59 47/26/59 48/18/59
f 11/51/59 43/51/59 44/43/59
f 26/34/59 46/34/59 47/26/59
f 6/59/59 42/59/59 43/51/59
f 21/66/59 45/66/59 46/34/59
f 6/59/59 5/9/59 41/9/59
f 36/18/59 48/18/59 41/9/59
f 16/43/59 44/43/59 45/68/59
f 44/69/60 52/69/60 53/70/61
f 46/71/62 54/71/62 55/72/63
f 48/73/64 56/73/64 49/74/65
f 41/74/65 49/74/65 50/75/66
f 43/76/67 51/76/67 52/69/60
f 45/77/61 53/77/61 54/71/62
f 47/72/63 55/72/63 56/73/64
f 42/75/66 50/75/66 51/76/67
f 51/76/68 74/76/75 79/76/69
f 53/70/70 52/69/70 63/69/70
f 58/76/67 69/76/77 64/76/71
f 49/74/70 71/74/70 73/75/70
s 0
f 57/78/59 75/78/59 77/78/59
s 1
f 53/77/70 62/77/70 60/71/70
f 49/74/70 56/73/70 70/73/70
f 63/69/60 68/69/60 67/70/61
f 60/71/62 65/71/62 66/72/72
f 64/76/71 69/76/77 68/69/60
f 62/77/61 67/77/61 65/71/62
s 0
f 57/78/59 68/78/59 69/78/59
s 1
f 55/72/74 61/72/73 66/72/72
s 0
f 57/78/59 59/78/59 66/78/59
s 1
f 52/69/70 51/76/68 64/76/71
f 54/71/70 60/71/70 61/72/73
f 73/75/66 78/75/66 79/76/69
f 70/73/64 75/73/64 76/74/65
f 71/74/65 76/74/65 78/75/66
f 72/72/76 77/72/78 75/73/64
f 59/72/63 77/72/78 72/72/76
f 56/73/70 55/72/74 72/72/76
s 0
f 57/78/59 58/78/59 79/78/59
s 1
f 50/75/70 73/75/70 74/76/75
f 35/79/63 86/79/63 85/80/62
f 15/81/67 82/81/67 81/82/66
f 30/83/62 85/83/62 84/84/61
f 10/85/66 81/85/66 80/86/65
f 1/87/65 80/87/65 87/88/64
f 25/89/61 84/89/61 83/90/60
f 40/91/64 87/91/64 86/92/63
f 20/93/60 83/93/60 82/94/67
o RegistrationArmOuterDual
v 1.804528 6.358242 0.011397
v 1.804528 6.369555 0.016083
v 1.804528 6.358242 -0.011230
v 1.804528 6.369555 -0.015917
v 1.804528 6.380869 -0.011230
v 1.804527 6.385555 0.000083
v 1.804528 6.380869 0.011397
v 1.804528 6.353556 0.000083
v -0.932858 6.358242 0.011258
v -0.932858 6.369555 0.015944
v -0.932858 6.358242 -0.011370
v -0.932858 6.385555 -0.000056
v -0.932858 6.380869 0.011258
v -0.291568 6.000000 0.006584
v -0.989470 6.301972 0.006584
v -0.632569 6.200000 0.006584
v -0.273566 6.019967 0.006584
v -0.982569 6.329857 0.006584
v -0.616919 6.223782 0.006584
v -0.273566 6.000000 0.006584
v -0.632569 6.200000 0.002584
v -0.989470 6.301972 0.002584
v -0.291568 6.000000 0.002584
v -0.616919 6.223782 0.002584
v -0.982569 6.329857 0.002584
v -0.273566 6.019967 0.002584
v -0.273566 6.000000 0.002584
v -0.933336 6.315575 0.002584
v -1.024471 6.301971 -0.002416
v -0.933337 6.305421 -0.002416
v -1.017572 6.329857 -0.002416
v -0.932859 6.350000 0.002304
v -1.032859 6.350000 0.002304
v -0.932859 6.350000 -0.002696
v -1.032859 6.350000 -0.002696
v -1.032566 6.301970 0.002584
v -1.032566 6.301970 -0.002416
v -1.017572 6.329857 -0.006416
v -1.024474 6.301972 -0.006416
v -0.308569 6.000000 -0.006416
v -0.308569 6.019967 -0.006416
v -0.651923 6.223782 -0.006416
v -0.326572 6.000000 -0.006416
v -0.667572 6.200000 -0.006416
v -0.308569 6.000000 -0.002416
v -0.651923 6.223782 -0.002416
v -0.308569 6.019967 -0.002416
v -0.667572 6.200000 -0.002416
v -0.326572 6.000000 -0.002416
v -0.933336 6.301970 0.002584
v -0.933336 6.301970 -0.002416
v -1.032859 6.370000 -0.020196
v -0.932859 6.370000 -0.020196
v -1.032859 6.355858 -0.014338
v -0.932859 6.355858 -0.014338
v -1.032859 6.355858 0.013946
v -0.932859 6.355858 0.013946
v -1.032859 6.370000 0.019804
v -0.932859 6.370000 0.019804
v -1.032859 6.384142 0.013946
v -0.932859 6.384142 0.013946
v -1.032859 6.390000 -0.000196
v -0.932859 6.390000 -0.000196
v -1.032859 6.384142 -0.014338
v -0.932859 6.384142 -0.014338
v -0.932858 6.353556 -0.000056
v -1.032859 6.353556 -0.000196
v -1.032859 6.369555 -0.016196
v -1.032859 6.358242 -0.011510
v -0.932858 6.369555 -0.016056
v -1.032859 6.358242 0.011118
v -1.032859 6.369555 0.015804
v -1.032859 6.380869 0.011118
v -1.032859 6.385555 -0.000196
v -1.032859 6.380869 -0.011510
v -0.932858 6.380869 -0.011370
v -1.193961 6.353556 -0.000196
v -1.193961 6.369555 -0.016196
v -1.193961 6.358242 -0.011510
v -1.193961 6.358242 0.011118
v -1.193961 6.369555 0.015804
v -1.193961 6.380869 0.011118
v -1.193961 6.385555 -0.000196
v -1.193961 6.380869 -0.011510
vn -0.0000 0.7071 0.7071
vn -0.0000 1.0000 -0.0000
vn -0.0001 -0.0000 1.0000
vn -0.0000 -0.7071 -0.7071
vn -0.0000 -1.0000 -0.0000
vn 0.0001 -0.0000 -1.0000
vn -0.0000 -0.7071 0.7071
vn -0.0000 0.7071 -0.7071
vn -0.0000 -0.0000 1.0000
vn 0.5104 0.8599 -0.0000
vn -0.5059 -0.8626 -0.0000
vn -0.9707 0.2402 -0.0000
vn 0.2786 0.9604 -0.0000
vn 0.2786 0.9604 0.0001
vn -0.2747 -0.9615 -0.0000
vn 1.0000 -0.0000 -0.0000
vn 0.0026 -0.0091 -1.0000
vn -0.0006 -0.0075 -1.0000
vn 0.0038 -0.0110 -0.9999
vn 1.0000 -0.0000 -0.0002
vn 1.0000 0.0002 -0.0002
vn -0.0003 0.0092 1.0000
vn 0.0018 0.0095 1.0000
vn -0.0025 0.0078 1.0000
vn 0.2786 0.9604 -0.0005
vn -0.9707 0.2402 0.0001
vn -0.9707 0.2402 0.0005
vn -0.0000 -1.0000 0.0003
vn 0.0001 -1.0000 -0.0011
vn -0.0000 -0.0000 -1.0000
vn -0.0000 -0.6807 -0.7326
vn -0.0000 -0.8933 -0.4495
vn -0.0000 -0.8933 0.4495
vn -0.0000 -0.6807 0.7326
vn 1.0000 -0.0041 0.0008
vn 1.0000 -0.0002 0.0002
vn -1.0000 -0.0036 0.0051
vn -1.0000 -0.0000 -0.0000
vn 0.0032 -0.0053 -1.0000
vn -0.0000 -0.0058 -1.0000
vn -0.0000 -0.0063 -1.0000
vn 1.0000 -0.0000 0.0002
vn 1.0000 -0.0060 0.0020
vn 1.0000 0.0002 -0.0000
vn 1.0000 -0.0069 -0.0046
vn 0.5064 -0.0000 0.8623
vn 1.0000 -0.0002 -0.0002
vn 1.0000 -0.0003 -0.0001
vn 1.0000 -0.0040 -0.0000
vn 1.0000 0.0002 0.0002
vn -0.0022 0.0039 1.0000
vn 0.0024 0.0081 1.0000
vn -0.2747 -0.9615 0.0001
vn -0.9707 0.2402 0.0006
vn -0.0000 -1.0000 -0.0001
vn -1.0000 -0.0018 -0.0000
vn -1.0000 -0.0061 -0.0000
vn -1.0000 -0.0032 -0.0044
vt 0.971606 0.014273
vt 0.973356 0.007273
vt 0.973356 0.014273
vt 0.971606 0.007273
vt 0.969856 0.014273
vt 0.969856 0.007273
vt 0.978606 0.007273
vt 0.980356 0.014273
vt 0.978606 0.014273
vt 0.976856 0.007273
vt 0.983856 0.014273
vt 0.982106 0.007273
vt 0.983856 0.007273
vt 0.975106 0.007273
vt 0.975106 0.014273
vt 0.969856 0.000273
vt 0.982106 0.014273
vt 0.980356 0.007273
vt 0.976856 0.014273
s 1
usemtl Catenary
f 100/95/79 93/96/80 99/97/80
f 94/98/79 97/99/81 89/100/81
f 90/101/82 153/102/83 98/103/82
f 98/103/82 91/104/84 90/101/82
f 97/105/81 88/106/85 89/107/81
f 99/97/80 92/108/86 163/109/86
f 106/110/87 102/110/87 103/110/87
f 113/110/88 106/110/88 104/110/88
f 108/110/89 101/110/89 103/110/89
f 112/110/90 102/110/90 105/110/90
f 111/110/91 115/110/92 105/110/91
f 109/110/93 103/110/93 102/110/93
f 114/110/94 104/110/94 107/110/94
f 122/110/95 117/110/96 118/110/97
f 140/99/98 152/95/99 163/95/99
f 112/110/100 119/110/101 120/110/102
f 127/110/94 134/110/94 132/110/94
f 116/110/93 131/110/93 135/110/93
f 129/110/91 118/110/91 117/110/103
f 125/110/104 116/110/105 118/110/90
f 131/110/89 136/110/89 135/110/89
f 128/110/88 133/110/88 134/110/88
f 109/110/106 116/110/107 137/110/83
f 129/110/108 131/110/108 125/110/108
f 140/105/108 141/106/109 139/107/108
f 142/111/109 122/112/110 141/106/109
f 119/102/111 143/101/112 120/112/111
f 144/103/112 145/104/87 143/101/112
f 146/113/87 147/108/79 145/104/87
f 148/109/79 149/96/80 147/108/79
f 150/97/80 151/98/86 149/96/80
f 152/95/86 139/100/108 151/98/86
f 119/102/113 96/103/114 144/103/114
f 96/111/85 95/112/83 88/106/85
f 122/112/115 156/106/116 141/106/116
f 135/110/87 133/110/87 138/110/87
f 162/98/86 170/96/80 161/96/80
f 160/108/79 168/104/87 159/104/87
f 156/106/82 165/107/108 155/107/108
f 158/101/85 164/112/83 154/112/83
f 154/112/83 166/106/82 156/106/82
f 155/100/108 171/98/86 162/98/86
f 161/96/80 169/108/79 160/108/79
f 159/104/87 167/101/85 158/101/85
f 167/101/116 169/108/116 171/98/116
f 160/108/116 145/104/116 147/108/116
f 108/110/108 137/110/108 111/110/108
f 91/104/84 163/109/86 92/108/86
f 100/95/79 94/98/79 93/96/80
f 94/98/79 100/95/79 97/99/81
f 90/101/82 95/112/83 153/102/83
f 98/103/82 157/113/84 91/104/84
f 97/105/81 96/111/85 88/106/85
f 99/97/80 93/96/80 92/108/86
f 103/110/87 101/110/87 107/110/87
f 107/110/87 104/110/87 106/110/87
f 106/110/87 105/110/87 102/110/87
f 103/110/87 107/110/87 106/110/87
f 113/110/88 111/110/88 106/110/88
f 108/110/89 110/110/89 101/110/89
f 112/110/90 109/110/90 102/110/90
f 105/110/91 106/110/91 111/110/91
f 115/110/92 112/110/91 105/110/91
f 109/110/93 108/110/93 103/110/93
f 114/110/94 113/110/94 104/110/94
f 116/110/117 124/110/118 122/110/95
f 122/110/95 121/110/119 117/110/96
f 118/110/97 116/110/117 122/110/95
f 146/113/120 144/103/114 96/103/114
f 146/113/120 96/103/114 97/113/120
f 137/110/121 138/110/122 117/110/123
f 119/110/113 115/110/124 137/110/121
f 98/111/125 153/110/126 119/110/113
f 119/110/113 137/110/121 117/110/123
f 119/110/113 117/110/123 121/102/127
f 98/111/125 119/110/113 121/102/127
f 148/109/128 146/113/120 97/113/120
f 148/109/128 97/113/120 100/109/128
f 98/111/125 121/102/127 142/111/125
f 157/105/98 98/111/125 142/111/125
f 150/97/122 148/109/128 100/109/128
f 150/97/122 100/109/128 99/97/122
f 157/105/98 142/111/125 140/99/98
f 150/97/122 99/97/122 163/95/99
f 163/95/99 157/105/98 140/99/98
f 152/95/99 150/97/122 163/95/99
f 123/110/129 109/110/87 112/110/100
f 112/110/100 115/110/130 119/110/101
f 120/110/102 123/110/129 112/110/100
f 127/110/94 128/110/94 134/110/94
f 116/110/93 126/110/131 131/110/93
f 117/110/103 133/110/91 129/110/91
f 129/110/91 125/110/91 118/110/91
f 125/110/104 126/110/132 116/110/105
f 131/110/89 130/110/89 136/110/89
f 128/110/88 129/110/88 133/110/88
f 109/110/106 123/110/83 124/110/133
f 116/110/107 138/110/83 137/110/83
f 109/110/106 124/110/133 116/110/107
f 129/110/108 128/110/108 127/110/108
f 127/110/108 130/110/108 131/110/108
f 131/110/108 126/110/108 125/110/108
f 129/110/108 127/110/108 131/110/108
f 140/105/108 142/111/109 141/106/109
f 142/111/109 121/102/110 122/112/110
f 119/102/111 144/103/112 143/101/112
f 144/103/112 146/113/87 145/104/87
f 146/113/87 148/109/79 147/108/79
f 148/109/79 150/97/80 149/96/80
f 150/97/80 152/95/86 151/98/86
f 152/95/86 140/99/108 139/100/108
f 119/102/113 153/102/126 96/103/114
f 96/111/85 153/102/83 95/112/83
f 122/112/115 154/112/134 156/106/116
f 135/110/87 136/110/87 132/110/87
f 132/110/87 134/110/87 133/110/87
f 133/110/87 117/110/87 138/110/87
f 138/110/87 116/110/87 135/110/87
f 135/110/87 132/110/87 133/110/87
f 162/98/86 171/98/86 170/96/80
f 160/108/79 169/108/79 168/104/87
f 156/106/82 166/106/82 165/107/108
f 158/101/85 167/101/85 164/112/83
f 154/112/83 164/112/83 166/106/82
f 155/100/108 165/100/108 171/98/86
f 161/96/80 170/96/80 169/108/79
f 159/104/87 168/104/87 167/101/85
f 171/98/116 165/100/116 166/106/116
f 166/106/116 164/112/116 167/101/116
f 167/101/116 168/104/116 169/108/116
f 169/108/116 170/96/116 171/98/116
f 171/98/116 166/106/116 167/101/116
f 139/107/116 141/106/116 156/106/116
f 139/107/116 156/106/116 155/100/116
f 124/110/135 123/110/135 120/112/136
f 154/110/134 122/110/115 124/110/135
f 154/110/134 124/110/135 120/112/136
f 151/98/116 139/107/116 155/100/116
f 151/98/116 155/100/116 162/98/116
f 154/110/134 120/112/136 143/101/116
f 158/101/116 154/110/134 143/101/116
f 149/96/116 151/98/116 162/98/116
f 149/96/116 162/98/116 161/96/116
f 158/101/116 143/101/116 145/104/116
f 159/104/116 158/101/116 145/104/116
f 147/108/116 149/96/116 161/96/116
f 160/108/116 159/104/116 145/104/116
f 147/108/116 161/96/116 160/108/116
f 111/110/108 113/110/108 114/110/108
f 114/110/108 110/110/108 108/110/108
f 108/110/108 109/110/108 137/110/108
f 137/110/108 115/110/108 111/110/108
f 111/110/108 114/110/108 108/110/108
f 91/104/84 157/113/84 163/109/86
o Cantileverindulator.028
v 1.782128 6.369318 -0.027084
v 1.782125 6.353548 -0.020551
v 1.782123 6.347015 -0.004780
v 1.782125 6.353548 0.010991
v 1.782128 6.369318 0.017523
v 1.782131 6.385089 0.010991
v 1.782132 6.391622 -0.004780
v 1.782131 6.385089 -0.020551
v 2.063907 6.369247 -0.027084
v 2.063904 6.353476 -0.020551
v 2.063903 6.346943 -0.004780
v 2.063904 6.353476 0.010991
v 2.063907 6.369247 0.017523
v 2.063910 6.385017 0.010991
v 2.063912 6.391550 -0.004780
v 2.063910 6.385017 -0.020551
v 2.052547 6.336826 -0.037204
v 2.041195 6.336830 -0.037204
v 2.029845 6.353484 -0.020551
v 2.018492 6.353487 -0.020551
v 2.007136 6.336838 -0.037204
v 1.995783 6.336841 -0.037204
v 1.984433 6.353496 -0.020551
v 1.973081 6.353499 -0.020551
v 1.961724 6.336850 -0.037204
v 1.950371 6.336853 -0.037204
v 1.939022 6.353508 -0.020551
v 1.927669 6.353510 -0.020551
v 1.916312 6.336861 -0.037204
v 1.904960 6.336864 -0.037204
v 1.893610 6.353519 -0.020551
v 1.882257 6.353522 -0.020551
v 1.870901 6.336873 -0.037204
v 1.859547 6.336876 -0.037204
v 1.848198 6.353531 -0.020551
v 2.052545 6.323397 -0.004781
v 2.041192 6.323400 -0.004781
v 2.029844 6.346952 -0.004780
v 2.018491 6.346955 -0.004780
v 2.007133 6.323408 -0.004781
v 1.995780 6.323410 -0.004781
v 1.984432 6.346963 -0.004780
v 1.973079 6.346966 -0.004780
v 1.961721 6.323420 -0.004781
v 1.950368 6.323422 -0.004781
v 1.939020 6.346975 -0.004780
v 1.927667 6.346978 -0.004780
v 1.916310 6.323431 -0.004781
v 1.904957 6.323435 -0.004781
v 1.893609 6.346986 -0.004780
v 1.882256 6.346989 -0.004780
v 1.870898 6.323442 -0.004781
v 1.859545 6.323446 -0.004781
v 1.848197 6.346998 -0.004780
v 2.052547 6.336826 0.027642
v 2.041195 6.336830 0.027642
v 2.029845 6.353484 0.010991
v 2.018492 6.353487 0.010991
v 2.007136 6.336838 0.027642
v 1.995783 6.336841 0.027642
v 1.984433 6.353496 0.010991
v 1.973081 6.353499 0.010991
v 1.961724 6.336850 0.027642
v 1.950371 6.336853 0.027642
v 1.939022 6.353508 0.010991
v 1.927669 6.353510 0.010991
v 1.916312 6.336861 0.027642
v 1.904960 6.336864 0.027642
v 1.893610 6.353519 0.010991
v 1.882257 6.353522 0.010991
v 1.870901 6.336873 0.027642
v 1.859547 6.336876 0.027642
v 1.848198 6.353531 0.010991
v 2.052554 6.369250 0.041073
v 2.041201 6.369253 0.041073
v 2.029848 6.369255 0.017523
v 2.018496 6.369258 0.017523
v 2.007143 6.369262 0.041073
v 1.995790 6.369264 0.041073
v 1.984437 6.369267 0.017523
v 1.973084 6.369270 0.017523
v 1.961731 6.369273 0.041073
v 1.950378 6.369276 0.041073
v 1.939025 6.369278 0.017523
v 1.927672 6.369281 0.017523
v 1.916319 6.369285 0.041073
v 1.904966 6.369287 0.041073
v 1.893613 6.369290 0.017523
v 1.882261 6.369293 0.017523
v 1.870908 6.369296 0.041073
v 1.859555 6.369299 0.041073
v 1.848202 6.369302 0.017523
v 2.052561 6.401672 0.027642
v 2.041208 6.401676 0.027642
v 2.029852 6.385026 0.010991
v 2.018499 6.385029 0.010991
v 2.007149 6.401685 0.027642
v 1.995797 6.401688 0.027642
v 1.984440 6.385038 0.010991
v 1.973087 6.385041 0.010991
v 1.961738 6.401697 0.027642
v 1.950385 6.401699 0.027642
v 1.939028 6.385049 0.010991
v 1.927675 6.385052 0.010991
v 1.916326 6.401708 0.027642
v 1.904973 6.401711 0.027642
v 1.893616 6.385061 0.010991
v 1.882264 6.385064 0.010991
v 1.870914 6.401719 0.027642
v 1.859561 6.401723 0.027642
v 1.848205 6.385073 0.010991
v 2.052564 6.415103 -0.004781
v 2.041211 6.415106 -0.004781
v 2.029853 6.391559 -0.004780
v 2.018500 6.391561 -0.004780
v 2.007152 6.415115 -0.004781
v 1.995799 6.415117 -0.004781
v 1.984441 6.391570 -0.004780
v 1.973089 6.391573 -0.004780
v 1.961740 6.415126 -0.004781
v 1.950387 6.415130 -0.004781
v 1.939029 6.391582 -0.004780
v 1.927677 6.391585 -0.004780
v 1.916329 6.415138 -0.004781
v 1.904976 6.415141 -0.004781
v 1.893618 6.391593 -0.004780
v 1.882265 6.391596 -0.004780
v 1.870917 6.415150 -0.004781
v 1.859564 6.415153 -0.004781
v 1.848206 6.391605 -0.004780
v 2.052561 6.401672 -0.037204
v 2.041208 6.401676 -0.037204
v 2.029852 6.385026 -0.020551
v 2.018499 6.385029 -0.020551
v 2.007149 6.401685 -0.037204
v 1.995797 6.401688 -0.037204
v 1.984440 6.385038 -0.020551
v 1.973087 6.385041 -0.020551
v 1.961738 6.401697 -0.037204
v 1.950385 6.401699 -0.037204
v 1.939028 6.385049 -0.020551
v 1.927675 6.385052 -0.020551
v 1.916326 6.401708 -0.037204
v 1.904973 6.401711 -0.037204
v 1.893616 6.385061 -0.020551
v 1.882264 6.385064 -0.020551
v 1.870914 6.401719 -0.037204
v 1.859561 6.401723 -0.037204
v 1.848205 6.385073 -0.020551
v 1.848202 6.369301 -0.027084
v 1.859555 6.369299 -0.050634
v 1.870908 6.369296 -0.050634
v 1.882261 6.369293 -0.027084
v 1.893613 6.369290 -0.027084
v 1.904966 6.369287 -0.050634
v 1.916319 6.369285 -0.050634
v 1.927672 6.369282 -0.027084
v 1.939025 6.369278 -0.027084
v 1.950378 6.369276 -0.050634
v 1.961731 6.369273 -0.050634
v 1.973084 6.369270 -0.027084
v 1.984437 6.369267 -0.027084
v 1.995790 6.369264 -0.050634
v 2.007143 6.369262 -0.050634
v 2.018496 6.369258 -0.027084
v 2.029849 6.369255 -0.027084
v 2.041201 6.369253 -0.050634
v 2.052555 6.369250 -0.050634
v 2.121413 6.369318 -0.027084
v 2.121409 6.353547 -0.020551
v 2.121408 6.347015 -0.004780
v 2.121409 6.353547 0.010991
v 2.121413 6.369318 0.017523
v 2.121416 6.385089 0.010991
v 2.121417 6.391621 -0.004780
v 2.121416 6.385089 -0.020551
vn 0.5997 0.5657 -0.5660
vn 0.4805 -0.0001 -0.8770
vn 0.4807 0.6200 -0.6201
vn 0.4808 0.8769 -0.0000
vn 0.4807 0.6200 0.6201
vn 0.5996 0.8003 -0.0000
vn 0.4805 -0.0001 0.8770
vn 0.5997 0.5657 0.5660
vn 0.4804 -0.6202 0.6201
vn 0.6000 -0.0003 0.8000
vn 0.6004 -0.7997 -0.0000
vn 0.4803 -0.8771 -0.0000
vn 0.6003 -0.5657 -0.5654
vn 0.4804 -0.6202 -0.6201
vn 0.6000 -0.0003 -0.8000
vn -0.6000 0.0001 -0.8000
vn -0.0002 -0.7071 -0.7071
vn -0.0000 -0.0000 -1.0000
vn -0.4807 -0.6200 -0.6201
vn -0.6001 -0.5656 -0.5657
vn -0.4805 0.0001 -0.8770
vn 0.6000 -0.0001 -0.8000
vn 0.5999 -0.5658 -0.5657
vn 0.5998 -0.5658 -0.5657
vn -0.0003 -1.0000 -0.0000
vn -0.4807 -0.8769 -0.0000
vn -0.6002 -0.7999 -0.0000
vn 0.5998 -0.8002 -0.0000
vn -0.4808 -0.8769 -0.0000
vn -0.6001 -0.5656 0.5657
vn -0.0002 -0.7071 0.7071
vn -0.4807 -0.6200 0.6201
vn 0.5999 -0.5658 0.5657
vn 0.5998 -0.5658 0.5657
vn -0.6000 0.0001 0.8000
vn -0.0000 -0.0000 1.0000
vn -0.4805 0.0001 0.8770
vn 0.6000 -0.0001 0.8000
vn -0.5999 0.5658 0.5657
vn 0.0002 0.7071 0.7071
vn -0.4804 0.6202 0.6201
vn 0.6001 0.5656 0.5657
vn -0.5998 0.5658 0.5657
vn -0.5998 0.8001 -0.0000
vn 0.0003 1.0000 -0.0000
vn -0.4803 0.8771 -0.0000
vn 0.6002 0.7999 -0.0000
vn -0.5998 0.8002 -0.0000
vn 0.4807 0.8769 -0.0000
vn -0.4804 0.8771 -0.0000
vn 0.0002 0.7071 -0.7071
vn -0.5999 0.5658 -0.5657
vn -0.4804 0.6202 -0.6201
vn 0.6001 0.5656 -0.5657
vn -0.5998 0.5658 -0.5657
vn 0.0009 -0.7069 -0.7073
vn 0.6002 -0.5657 0.5654
vn 0.0012 -1.0000 -0.0000
vn 0.0009 -0.7069 0.7073
vn -0.0000 0.0003 1.0000
vn -0.0009 0.7073 0.7069
vn -0.0009 0.7073 -0.7069
vn -0.0012 1.0000 -0.0000
vn -0.0000 0.0003 -1.0000
vt 0.947470 0.037677
vt 0.927640 0.045459
vt 0.931226 0.028232
vt 0.937842 0.007817
vt 0.928547 0.130780
vt 0.948638 0.133956
vt 0.934473 0.150909
vt 0.925563 0.113182
vt 0.944729 0.122198
vt 0.924520 0.096118
vt 0.942177 0.108777
vt 0.941159 0.080218
vt 0.924508 0.079031
vt 0.942195 0.065540
vt 0.925551 0.062245
vt 0.944237 0.051147
vt 0.707478 0.051626
vt 0.665429 0.070259
vt 0.663516 0.059196
vt 0.726436 0.062389
vt 0.709510 0.065850
vt 0.731361 0.044355
vt 0.724087 0.045720
vt 0.748171 0.044726
vt 0.733780 0.061548
vt 0.755705 0.044441
vt 0.750076 0.062275
vt 0.774261 0.060231
vt 0.757493 0.062188
vt 0.780996 0.041652
vt 0.773817 0.042179
vt 0.797533 0.043226
vt 0.781723 0.060001
vt 0.805052 0.042924
vt 0.798143 0.060884
vt 0.822521 0.059390
vt 0.805650 0.060949
vt 0.830476 0.041180
vt 0.823271 0.041382
vt 0.847033 0.043340
vt 0.830046 0.059427
vt 0.854709 0.042778
vt 0.846735 0.061004
vt 0.871545 0.042575
vt 0.854212 0.060763
vt 0.879065 0.042333
vt 0.872525 0.060506
vt 0.896003 0.044494
vt 0.879637 0.060508
vt 0.903612 0.044707
vt 0.895284 0.062097
vt 0.918291 0.061472
vt 0.902311 0.062281
vt 0.920400 0.044146
vt 0.666539 0.081375
vt 0.727641 0.079061
vt 0.710433 0.080370
vt 0.734901 0.078782
vt 0.750875 0.079574
vt 0.775395 0.078449
vt 0.758282 0.079392
vt 0.783125 0.078508
vt 0.797950 0.078657
vt 0.822520 0.077641
vt 0.805649 0.078870
vt 0.830039 0.077675
vt 0.846616 0.078816
vt 0.871599 0.078454
vt 0.854277 0.078859
vt 0.879363 0.078844
vt 0.894028 0.079351
vt 0.917167 0.078806
vt 0.901313 0.079596
vt 0.710571 0.094615
vt 0.666070 0.092500
vt 0.727968 0.095897
vt 0.735656 0.096428
vt 0.757505 0.096675
vt 0.750030 0.096654
vt 0.773969 0.096495
vt 0.781394 0.096953
vt 0.797988 0.096231
vt 0.805694 0.096183
vt 0.822788 0.096002
vt 0.830597 0.096283
vt 0.853493 0.096672
vt 0.845722 0.096378
vt 0.870075 0.096509
vt 0.877539 0.096957
vt 0.894185 0.096477
vt 0.901791 0.096508
vt 0.916558 0.096402
vt 0.709361 0.108636
vt 0.664786 0.103588
vt 0.724787 0.112656
vt 0.732174 0.113813
vt 0.749007 0.113694
vt 0.756834 0.113652
vt 0.771950 0.114884
vt 0.779581 0.115184
vt 0.797158 0.113528
vt 0.805293 0.113362
vt 0.820618 0.114418
vt 0.828268 0.114662
vt 0.845620 0.113573
vt 0.853676 0.113736
vt 0.869021 0.115063
vt 0.876679 0.115123
vt 0.894114 0.113409
vt 0.901912 0.113407
vt 0.918411 0.114183
vt 0.706539 0.121976
vt 0.662802 0.114687
vt 0.729508 0.131821
vt 0.722416 0.130552
vt 0.747162 0.129630
vt 0.755259 0.129762
vt 0.779276 0.133924
vt 0.772117 0.133980
vt 0.796553 0.129656
vt 0.804550 0.129622
vt 0.828479 0.133474
vt 0.821402 0.133599
vt 0.845456 0.129487
vt 0.853357 0.130038
vt 0.878131 0.133828
vt 0.871011 0.133975
vt 0.895203 0.129401
vt 0.903449 0.129758
vt 0.921419 0.132282
vt 0.702786 0.133700
vt 0.660710 0.125966
vt 0.725711 0.152725
vt 0.716251 0.150262
vt 0.746520 0.143505
vt 0.753385 0.143086
vt 0.779688 0.155355
vt 0.770477 0.155007
vt 0.797261 0.143409
vt 0.803521 0.142992
vt 0.829517 0.154869
vt 0.820453 0.154708
vt 0.846563 0.143030
vt 0.852942 0.142757
vt 0.869125 0.155118
vt 0.878653 0.155355
vt 0.896745 0.143299
vt 0.903846 0.143489
vt 0.924811 0.152870
vt 0.700468 0.026722
vt 0.660939 0.048183
vt 0.658181 0.037066
vt 0.713248 0.008740
vt 0.704304 0.038276
vt 0.723671 0.005540
vt 0.720369 0.028414
vt 0.746201 0.028052
vt 0.727363 0.026952
vt 0.752375 0.015330
vt 0.744561 0.015462
vt 0.768291 0.002226
vt 0.754315 0.028015
vt 0.778339 0.001427
vt 0.770917 0.023715
vt 0.796752 0.026423
vt 0.778228 0.023218
vt 0.803773 0.013762
vt 0.796606 0.013553
vt 0.820096 0.001225
vt 0.804801 0.026526
vt 0.830064 0.000966
vt 0.821525 0.022812
vt 0.847009 0.026585
vt 0.828808 0.022669
vt 0.854472 0.013896
vt 0.847418 0.013663
vt 0.871343 0.001792
vt 0.854996 0.026635
vt 0.881411 0.001991
vt 0.871775 0.023451
vt 0.897185 0.028000
vt 0.879028 0.023679
vt 0.906580 0.015377
vt 0.898588 0.015202
vt 0.927171 0.005399
vt 0.905341 0.027938
vt 0.924302 0.026486
vt 0.980190 0.069840
vt 0.940596 0.094655
vt 0.978927 0.081104
vt 0.979363 0.092335
vt 0.980766 0.103505
vt 0.982956 0.114591
vt 0.951318 0.026094
vt 0.985089 0.047620
vt 0.985446 0.125791
vt 0.982270 0.058665
vt 0.988176 0.036568
s 1
usemtl Catenary
f 187/114/137 339/115/138 302/116/139
f 283/117/140 187/114/137 302/116/139
f 264/118/141 186/119/142 283/120/140
f 245/121/143 185/122/144 264/118/141
f 226/123/145 184/124/146 245/121/143
f 182/125/147 226/123/145 207/126/148
f 181/127/149 207/126/148 188/128/150
f 180/129/151 188/128/150 339/115/138
f 321/130/152 173/131/153 172/132/154
f 321/130/152 205/133/155 206/134/156
f 323/135/138 205/133/155 322/136/157
f 324/137/158 204/138/150 323/135/138
f 325/139/152 203/140/159 324/137/158
f 325/139/152 201/141/155 202/142/156
f 327/143/138 201/141/155 326/144/157
f 328/145/158 200/146/150 327/143/138
f 329/147/152 199/148/159 328/145/158
f 329/147/152 197/149/155 198/150/156
f 331/151/138 197/149/155 330/152/157
f 332/153/158 196/154/150 331/151/138
f 333/155/152 195/156/160 332/153/158
f 334/157/157 194/158/156 333/155/152
f 335/159/138 193/160/155 334/157/157
f 336/161/158 192/162/150 335/159/138
f 337/163/152 191/164/159 336/161/158
f 337/163/152 189/165/155 190/166/156
f 339/115/138 189/165/155 338/167/157
f 206/134/156 174/168/161 173/131/153
f 206/134/156 224/169/162 225/170/163
f 204/138/150 224/169/162 205/133/155
f 203/140/159 223/171/148 204/138/150
f 202/142/156 222/172/164 203/140/159
f 202/142/156 220/173/165 221/174/163
f 200/146/150 220/173/165 201/141/155
f 199/148/159 219/175/148 200/146/150
f 198/150/156 218/176/164 199/148/159
f 198/150/156 216/177/162 217/178/163
f 196/154/150 216/177/162 197/149/155
f 195/156/160 215/179/148 196/154/150
f 194/158/156 214/180/164 195/156/160
f 194/158/156 212/181/162 213/182/163
f 192/162/150 212/181/162 193/160/155
f 191/164/159 211/183/148 192/162/150
f 190/166/156 210/184/164 191/164/159
f 190/166/156 208/185/162 209/186/163
f 188/128/150 208/185/162 189/165/155
f 174/168/161 244/187/166 175/188/167
f 225/170/163 243/189/168 244/187/166
f 224/169/162 242/190/145 243/189/168
f 222/172/164 242/190/145 223/171/148
f 222/172/164 240/191/166 241/192/169
f 221/174/163 239/193/168 240/191/166
f 220/173/165 238/194/145 239/193/168
f 219/175/148 237/195/170 238/194/145
f 218/176/164 236/196/166 237/195/170
f 217/178/163 235/197/168 236/196/166
f 216/177/162 234/198/145 235/197/168
f 214/180/164 234/198/145 215/179/148
f 214/180/164 232/199/166 233/200/170
f 213/182/163 231/201/168 232/199/166
f 212/181/162 230/202/145 231/201/168
f 211/183/148 229/203/170 230/202/145
f 210/184/164 228/204/166 229/203/170
f 209/186/163 227/205/168 228/204/166
f 208/185/162 226/123/145 227/205/168
f 175/188/167 263/206/171 176/207/172
f 244/187/166 262/208/173 263/206/171
f 243/189/168 261/209/143 262/208/173
f 242/190/145 260/210/174 261/209/143
f 241/192/169 259/211/171 260/210/174
f 240/191/166 258/212/173 259/211/171
f 239/193/168 257/213/143 258/212/173
f 238/194/145 256/214/174 257/213/143
f 237/195/170 255/215/171 256/214/174
f 236/196/166 254/216/173 255/215/171
f 235/197/168 253/217/143 254/216/173
f 234/198/145 252/218/174 253/217/143
f 233/200/170 251/219/171 252/218/174
f 232/199/166 250/220/173 251/219/171
f 231/201/168 249/221/143 250/220/173
f 230/202/145 248/222/174 249/221/143
f 229/203/170 247/223/171 248/222/174
f 227/205/168 247/223/171 228/204/166
f 227/205/168 245/121/143 246/224/173
f 176/207/172 282/225/175 177/226/176
f 262/208/173 282/225/175 263/206/171
f 262/208/173 280/227/141 281/228/177
f 261/209/143 279/229/178 280/227/141
f 260/210/174 278/230/179 279/229/178
f 258/212/173 278/230/179 259/211/171
f 258/212/173 276/231/141 277/232/177
f 257/213/143 275/233/178 276/231/141
f 256/214/174 274/234/179 275/233/178
f 254/216/173 274/234/179 255/215/171
f 254/216/173 272/235/141 273/236/177
f 253/217/143 271/237/178 272/235/141
f 252/218/174 270/238/179 271/237/178
f 250/220/173 270/238/179 251/219/171
f 250/220/173 268/239/141 269/240/177
f 249/221/143 267/241/178 268/239/141
f 248/222/174 266/242/179 267/241/178
f 246/224/173 266/242/179 247/223/171
f 246/224/173 264/118/141 265/243/177
f 177/226/176 301/244/180 178/245/181
f 281/228/177 301/244/180 282/225/175
f 281/228/177 299/246/140 300/247/182
f 280/227/141 298/248/183 299/246/140
f 279/229/178 297/249/184 298/248/183
f 277/232/177 297/249/184 278/230/179
f 277/232/177 295/250/185 296/251/182
f 276/231/141 294/252/183 295/250/185
f 275/233/178 293/253/184 294/252/183
f 273/236/177 293/253/184 274/234/179
f 273/236/177 291/254/185 292/255/182
f 272/235/141 290/256/183 291/254/185
f 271/237/178 289/257/184 290/256/183
f 270/238/179 288/258/186 289/257/184
f 269/240/177 287/259/185 288/258/186
f 268/239/141 286/260/183 287/259/185
f 267/241/178 285/261/180 286/260/183
f 265/243/177 285/261/180 266/242/179
f 265/243/177 283/120/140 284/262/182
f 301/263/180 179/264/187 178/265/181
f 300/266/182 320/267/188 301/263/180
f 299/268/140 319/269/189 300/266/182
f 299/268/140 317/270/190 318/271/139
f 297/272/184 317/270/190 298/273/183
f 296/274/182 316/275/191 297/272/184
f 295/276/185 315/277/189 296/274/182
f 295/276/185 313/278/190 314/279/139
f 293/280/184 313/278/190 294/281/183
f 292/282/182 312/283/191 293/280/184
f 291/284/185 311/285/189 292/282/182
f 291/284/185 309/286/190 310/287/139
f 289/288/184 309/286/190 290/289/183
f 288/290/186 308/291/188 289/288/184
f 287/292/185 307/293/189 288/290/186
f 287/292/185 305/294/190 306/295/139
f 285/296/180 305/294/190 286/297/183
f 284/298/182 304/299/191 285/296/180
f 283/117/140 303/300/189 284/298/182
f 320/267/188 172/132/154 179/264/187
f 320/267/188 322/136/157 321/130/152
f 318/271/139 322/136/157 319/269/189
f 317/270/190 323/135/138 318/271/139
f 316/275/191 324/137/158 317/270/190
f 315/277/189 325/139/152 316/275/191
f 314/279/139 326/144/157 315/277/189
f 313/278/190 327/143/138 314/279/139
f 312/283/191 328/145/158 313/278/190
f 311/285/189 329/147/152 312/283/191
f 310/287/139 330/152/157 311/285/189
f 309/286/190 331/151/138 310/287/139
f 308/291/188 332/153/158 309/286/190
f 307/293/189 333/155/152 308/291/188
f 306/295/139 334/157/157 307/293/189
f 305/294/190 335/159/138 306/295/139
f 304/299/191 336/161/158 305/294/190
f 304/299/191 338/167/157 337/163/152
f 302/116/139 338/167/157 303/300/189
f 180/129/151 341/301/192 181/127/149
f 183/302/193 342/303/194 343/304/195
f 185/122/144 344/305/196 345/306/197
f 186/307/142 347/308/198 187/114/137
f 181/127/149 342/303/194 182/125/147
f 184/124/146 343/304/195 344/305/196
f 186/119/142 345/306/197 346/309/199
f 187/114/137 340/310/200 180/129/151
f 187/114/137 180/129/151 339/115/138
f 283/117/140 186/307/142 187/114/137
f 264/118/141 185/122/144 186/119/142
f 245/121/143 184/124/146 185/122/144
f 226/123/145 183/302/193 184/124/146
f 182/125/147 183/302/193 226/123/145
f 181/127/149 182/125/147 207/126/148
f 180/129/151 181/127/149 188/128/150
f 321/130/152 206/134/156 173/131/153
f 321/130/152 322/136/157 205/133/155
f 323/135/138 204/138/150 205/133/155
f 324/137/158 203/140/159 204/138/150
f 325/139/152 202/142/156 203/140/159
f 325/139/152 326/144/157 201/141/155
f 327/143/138 200/146/150 201/141/155
f 328/145/158 199/148/159 200/146/150
f 329/147/152 198/150/156 199/148/159
f 329/147/152 330/152/157 197/149/155
f 331/151/138 196/154/150 197/149/155
f 332/153/158 195/156/160 196/154/150
f 333/155/152 194/158/156 195/156/160
f 334/157/157 193/160/155 194/158/156
f 335/159/138 192/162/150 193/160/155
f 336/161/158 191/164/159 192/162/150
f 337/163/152 190/166/156 191/164/159
f 337/163/152 338/167/157 189/165/155
f 339/115/138 188/128/150 189/165/155
f 206/134/156 225/170/163 174/168/161
f 206/134/156 205/133/155 224/169/162
f 204/138/150 223/171/148 224/169/162
f 203/140/159 222/172/164 223/171/148
f 202/142/156 221/174/163 222/172/164
f 202/142/156 201/141/155 220/173/165
f 200/146/150 219/175/148 220/173/165
f 199/148/159 218/176/164 219/175/148
f 198/150/156 217/178/163 218/176/164
f 198/150/156 197/149/155 216/177/162
f 196/154/150 215/179/148 216/177/162
f 195/156/160 214/180/164 215/179/148
f 194/158/156 213/182/163 214/180/164
f 194/158/156 193/160/155 212/181/162
f 192/162/150 211/183/148 212/181/162
f 191/164/159 210/184/164 211/183/148
f 190/166/156 209/186/163 210/184/164
f 190/166/156 189/165/155 208/185/162
f 188/128/150 207/126/148 208/185/162
f 174/168/161 225/170/163 244/187/166
f 225/170/163 224/169/162 243/189/168
f 224/169/162 223/171/148 242/190/145
f 222/172/164 241/192/169 242/190/145
f 222/172/164 221/174/163 240/191/166
f 221/174/163 220/173/165 239/193/168
f 220/173/165 219/175/148 238/194/145
f 219/175/148 218/176/164 237/195/170
f 218/176/164 217/178/163 236/196/166
f 217/178/163 216/177/162 235/197/168
f 216/177/162 215/179/148 234/198/145
f 214/180/164 233/200/170 234/198/145
f 214/180/164 213/182/163 232/199/166
f 213/182/163 212/181/162 231/201/168
f 212/181/162 211/183/148 230/202/145
f 211/183/148 210/184/164 229/203/170
f 210/184/164 209/186/163 228/204/166
f 209/186/163 208/185/162 227/205/168
f 208/185/162 207/126/148 226/123/145
f 175/188/167 244/187/166 263/206/171
f 244/187/166 243/189/168 262/208/173
f 243/189/168 242/190/145 261/209/143
f 242/190/145 241/192/169 260/210/174
f 241/192/169 240/191/166 259/211/171
f 240/191/166 239/193/168 258/212/173
f 239/193/168 238/194/145 257/213/143
f 238/194/145 237/195/170 256/214/174
f 237/195/170 236/196/166 255/215/171
f 236/196/166 235/197/168 254/216/173
f 235/197/168 234/198/145 253/217/143
f 234/198/145 233/200/170 252/218/174
f 233/200/170 232/199/166 251/219/171
f 232/199/166 231/201/168 250/220/173
f 231/201/168 230/202/145 249/221/143
f 230/202/145 229/203/170 248/222/174
f 229/203/170 228/204/166 247/223/171
f 227/205/168 246/224/173 247/223/171
f 227/205/168 226/123/145 245/121/143
f 176/207/172 263/206/171 282/225/175
f 262/208/173 281/228/177 282/225/175
f 262/208/173 261/209/143 280/227/141
f 261/209/143 260/210/174 279/229/178
f 260/210/174 259/211/171 278/230/179
f 258/212/173 277/232/177 278/230/179
f 258/212/173 257/213/143 276/231/141
f 257/213/143 256/214/174 275/233/178
f 256/214/174 255/215/171 274/234/179
f 254/216/173 273/236/177 274/234/179
f 254/216/173 253/217/143 272/235/141
f 253/217/143 252/218/174 271/237/178
f 252/218/174 251/219/171 270/238/179
f 250/220/173 269/240/177 270/238/179
f 250/220/173 249/221/143 268/239/141
f 249/221/143 248/222/174 267/241/178
f 248/222/174 247/223/171 266/242/179
f 246/224/173 265/243/177 266/242/179
f 246/224/173 245/121/143 264/118/141
f 177/226/176 282/225/175 301/244/180
f 281/228/177 300/247/182 301/244/180
f 281/228/177 280/227/141 299/246/140
f 280/227/141 279/229/178 298/248/183
f 279/229/178 278/230/179 297/249/184
f 277/232/177 296/251/182 297/249/184
f 277/232/177 276/231/141 295/250/185
f 276/231/141 275/233/178 294/252/183
f 275/233/178 274/234/179 293/253/184
f 273/236/177 292/255/182 293/253/184
f 273/236/177 272/235/141 291/254/185
f 272/235/141 271/237/178 290/256/183
f 271/237/178 270/238/179 289/257/184
f 270/238/179 269/240/177 288/258/186
f 269/240/177 268/239/141 287/259/185
f 268/239/141 267/241/178 286/260/183
f 267/241/178 266/242/179 285/261/180
f 265/243/177 284/262/182 285/261/180
f 265/243/177 264/118/141 283/120/140
f 301/263/180 320/267/188 179/264/187
f 300/266/182 319/269/189 320/267/188
f 299/268/140 318/271/139 319/269/189
f 299/268/140 298/273/183 317/270/190
f 297/272/184 316/275/191 317/270/190
f 296/274/182 315/277/189 316/275/191
f 295/276/185 314/279/139 315/277/189
f 295/276/185 294/281/183 313/278/190
f 293/280/184 312/283/191 313/278/190
f 292/282/182 311/285/189 312/283/191
f 291/284/185 310/287/139 311/285/189
f 291/284/185 290/289/183 309/286/190
f 289/288/184 308/291/188 309/286/190
f 288/290/186 307/293/189 308/291/188
f 287/292/185 306/295/139 307/293/189
f 287/292/185 286/297/183 305/294/190
f 285/296/180 304/299/191 305/294/190
f 284/298/182 303/300/189 304/299/191
f 283/117/140 302/116/139 303/300/189
f 320/267/188 321/130/152 172/132/154
f 320/267/188 319/269/189 322/136/157
f 318/271/139 323/135/138 322/136/157
f 317/270/190 324/137/158 323/135/138
f 316/275/191 325/139/152 324/137/158
f 315/277/189 326/144/157 325/139/152
f 314/279/139 327/143/138 326/144/157
f 313/278/190 328/145/158 327/143/138
f 312/283/191 329/147/152 328/145/158
f 311/285/189 330/152/157 329/147/152
f 310/287/139 331/151/138 330/152/157
f 309/286/190 332/153/158 331/151/138
f 308/291/188 333/155/152 332/153/158
f 307/293/189 334/157/157 333/155/152
f 306/295/139 335/159/138 334/157/157
f 305/294/190 336/161/158 335/159/138
f 304/299/191 337/163/152 336/161/158
f 304/299/191 303/300/189 338/167/157
f 302/116/139 339/115/138 338/167/157
f 180/129/151 340/310/200 341/301/192
f 183/302/193 182/125/147 342/303/194
f 185/122/144 184/124/146 344/305/196
f 186/307/142 346/311/199 347/308/198
f 181/127/149 341/301/192 342/303/194
f 184/124/146 183/302/193 343/304/195
f 186/119/142 185/122/144 345/306/197
f 187/114/137 347/308/198 340/310/200
