# Blender 5.0.1
# www.blender.org
mtllib registration_arm_middle_single.mtl
o RegistrationArmMiddleSingle
g registration_arm_middle_single
v 1.804528 6.358242 0.011397
v 1.804528 6.369555 0.016083
v 1.804528 6.358242 -0.011230
v 1.804528 6.369555 -0.015917
v 1.804528 6.380869 -0.011230
v 1.804527 6.385555 0.000083
v 1.804528 6.380869 0.011397
v 1.804528 6.353556 0.000083
v -0.632538 6.358242 0.011258
v -0.632538 6.369555 0.015944
v -0.632538 6.358242 -0.011370
v -0.632538 6.385555 -0.000056
v -0.632538 6.380869 0.011258
v -0.632544 6.350000 0.002288
v -0.732544 6.350000 0.002288
v -0.732539 6.370000 -0.020196
v -0.632539 6.370000 -0.020196
v -0.732539 6.355858 -0.014338
v -0.632539 6.355858 -0.014338
v -0.732539 6.355858 0.013946
v -0.632539 6.355858 0.013946
v -0.732539 6.370000 0.019804
v -0.632539 6.370000 0.019804
v -0.732539 6.384142 0.013946
v -0.632539 6.384142 0.013946
v -0.732539 6.390000 -0.000196
v -0.632539 6.390000 -0.000196
v -0.732539 6.384142 -0.014338
v -0.632539 6.384142 -0.014338
v -0.632538 6.353556 -0.000056
v -0.732539 6.353556 -0.000196
v -0.732539 6.369555 -0.016196
v -0.732539 6.358242 -0.011510
v -0.632538 6.369555 -0.016056
v -0.732539 6.358242 0.011118
v -0.732539 6.369555 0.015804
v -0.732539 6.380869 0.011118
v -0.732539 6.385555 -0.000196
v -0.732539 6.380869 -0.011510
v -0.632538 6.380869 -0.011370
v -0.900928 6.353556 -0.000196
v -0.900928 6.369555 -0.016196
v -0.900928 6.358242 -0.011510
v -0.900928 6.358242 0.011118
v -0.900928 6.369555 0.015804
v -0.900928 6.380869 0.011118
v -0.900928 6.385555 -0.000196
v -0.900928 6.380869 -0.011510
v -0.008908 6.000000 0.006551
v -0.706810 6.301972 0.006552
v -0.349908 6.200000 0.006552
v 0.009095 6.019967 0.006551
v -0.699908 6.329857 0.006552
v -0.334259 6.223782 0.006552
v 0.009095 6.000000 0.006551
v -0.349908 6.200000 0.002552
v -0.706810 6.301972 0.002552
v -0.008908 6.000000 0.002551
v -0.334259 6.223782 0.002552
v -0.699908 6.329857 0.002552
v 0.009095 6.019967 0.002551
v 0.009095 6.000000 0.002551
v -0.632944 6.310431 0.002552
v -0.633026 6.301970 -0.002448
v -0.632544 6.350000 -0.002712
v -0.732544 6.350000 -0.002712
v -0.732256 6.301970 0.002552
v -0.732256 6.301970 -0.002448
v -0.633027 6.301970 0.002552
vn -0.0000 -0.0000 1.0000
vn 0.0001 -0.0000 -1.0000
vn -0.0000 0.7071 -0.7071
vn -0.0000 0.7071 0.7071
vn -0.0000 1.0000 -0.0000
vn -0.0001 -0.0000 1.0000
vn -0.0000 -0.7071 0.7071
vn -0.0000 -0.0000 -1.0000
vn -0.0000 -0.6805 -0.7328
vn -0.0000 -0.8930 -0.4500
vn -0.0000 -0.8935 0.4490
vn -0.0000 -0.6809 0.7324
vn -0.0000 -0.6808 0.7324
vn -0.0000 -1.0000 -0.0000
vn -1.0000 -0.0016 -0.0001
vn -1.0000 0.0011 -0.0001
vn -1.0000 -0.0014 0.0001
vn -0.0000 -0.7071 -0.7071
vn 1.0000 0.0002 -0.0002
vn 1.0000 0.0002 -0.0000
vn -1.0000 -0.0000 -0.0000
vn 0.5104 0.8599 -0.0000
vn -0.5059 -0.8626 -0.0000
vn -0.9707 0.2402 -0.0000
vn 0.2786 0.9604 -0.0000
vn 0.2786 0.9604 0.0002
vn -0.2747 -0.9615 -0.0000
vn 1.0000 -0.0000 -0.0000
vn 1.0000 -0.0038 -0.0001
vn 0.9999 -0.0067 -0.0076
vn 0.9999 -0.0100 0.0002
vn -0.0000 -1.0000 0.0005
vn -0.0010 0.0086 1.0000
vn 0.0016 0.0079 1.0000
vn -0.0030 0.0082 1.0000
vn -0.0000 -0.0055 -1.0000
vn -0.0000 -0.6804 -0.7328
vn -1.0000 0.0001 0.0001
vn -1.0000 0.0002 0.0001
vn -1.0000 0.0002 -0.0000
vn -1.0000 -0.0060 -0.0000
vn 1.0000 -0.0000 0.0003
vn 1.0000 -0.0003 0.0002
vn 1.0000 -0.0002 0.0002
vn 1.0000 -0.0004 -0.0001
vn 1.0000 -0.0003 -0.0001
vn 1.0000 -0.0000 -0.0002
vn 1.0000 0.0002 0.0002
vn 1.0000 -0.0058 0.0054
vn 0.9999 -0.0100 -0.0000
vn 0.9988 -0.0098 0.0484
vn 0.0001 -1.0000 -0.0000
vn -0.0026 0.0030 1.0000
vn 0.0019 0.0067 1.0000
vt 0.969856 0.000273
vt 0.976856 0.007273
vt 0.975106 0.014273
vt 0.975106 0.007273
vt 0.971606 0.014273
vt 0.973356 0.007273
vt 0.973356 0.014273
vt 0.983856 0.014273
vt 0.982106 0.007273
vt 0.983856 0.007273
vt 0.971606 0.007273
vt 0.969856 0.014273
vt 0.969856 0.007273
vt 0.980356 0.014273
vt 0.980356 0.007273
vt 0.978606 0.007273
vt 0.978606 0.014273
vt 0.976856 0.014273
vt 0.982106 0.014273
s 1
usemtl Catenary
f 51/1/1 55/1/1 54/1/1
f 4/2/2 40/3/3 5/4/3
f 13/5/4 6/6/5 12/7/5
f 10/8/6 1/9/7 2/10/6
f 7/11/4 10/12/6 2/13/6
f 17/8/8 18/9/9 16/10/8
f 18/9/9 65/14/10 66/15/10
f 14/14/11 20/16/12 15/15/11
f 21/17/13 22/2/1 20/16/12
f 23/18/1 24/4/4 22/2/1
f 25/3/4 26/6/5 24/4/4
f 27/7/5 28/11/3 26/6/5
f 29/5/3 16/13/8 28/11/3
f 9/19/7 8/15/14 1/9/7
f 15/15/15 31/15/16 66/1/17
f 3/16/18 30/14/14 11/17/18
f 29/5/19 27/7/20 12/7/20
f 12/7/5 5/4/3 40/3/3
f 39/11/3 47/6/5 38/6/5
f 37/4/4 45/2/1 36/2/1
f 33/9/18 42/10/8 32/10/8
f 35/16/7 41/15/14 31/15/14
f 31/15/14 43/9/18 33/9/18
f 32/13/8 48/11/3 39/11/3
f 38/6/5 46/4/4 37/4/4
f 36/2/1 44/16/7 35/16/7
f 44/16/21 46/4/21 48/11/21
f 56/1/8 69/1/8 59/1/8
f 24/4/21 26/6/21 38/6/21
f 11/17/18 4/2/2 3/16/18
f 61/1/22 54/1/22 52/1/22
f 56/1/23 49/1/23 51/1/23
f 53/1/24 57/1/24 50/1/24
f 59/1/25 63/1/26 53/1/25
f 57/1/27 51/1/27 50/1/27
f 62/1/28 52/1/28 55/1/28
f 30/14/29 14/1/30 69/1/31
f 57/1/32 68/1/14 69/1/14
f 60/1/33 14/1/34 15/1/35
f 66/1/36 64/1/36 68/1/36
f 53/1/1 50/1/1 51/1/1
f 51/1/1 49/1/1 55/1/1
f 55/1/1 52/1/1 54/1/1
f 54/1/1 53/1/1 51/1/1
f 4/2/2 34/18/2 40/3/3
f 13/5/4 7/11/4 6/6/5
f 10/8/6 9/19/7 1/9/7
f 7/11/4 13/5/4 10/12/6
f 17/8/8 19/19/37 18/9/9
f 18/9/9 19/19/37 65/14/10
f 14/14/11 21/17/13 20/16/12
f 21/17/13 23/18/1 22/2/1
f 23/18/1 25/3/4 24/4/4
f 25/3/4 27/7/5 26/6/5
f 27/7/5 29/5/3 28/11/3
f 29/5/3 17/12/8 16/13/8
f 9/19/7 30/14/14 8/15/14
f 15/15/15 20/16/38 35/16/39
f 31/15/16 33/9/21 18/9/40
f 15/15/15 35/16/39 31/15/16
f 68/1/41 67/1/41 15/15/15
f 31/15/16 18/9/40 66/1/17
f 66/1/17 68/1/41 15/15/15
f 3/16/18 8/15/14 30/14/14
f 23/18/42 21/17/43 9/17/44
f 23/18/42 9/17/44 10/18/42
f 11/19/45 19/19/46 17/12/47
f 34/8/47 11/19/45 17/12/47
f 25/3/48 23/18/42 10/18/42
f 25/3/48 10/18/42 13/3/48
f 34/8/47 17/12/47 29/5/19
f 40/5/19 34/8/47 29/5/19
f 27/7/20 25/3/48 13/3/48
f 12/7/20 40/5/19 29/5/19
f 27/7/20 13/3/48 12/7/20
f 12/7/5 6/6/5 5/4/3
f 39/11/3 48/11/3 47/6/5
f 37/4/4 46/4/4 45/2/1
f 33/9/18 43/9/18 42/10/8
f 35/16/7 44/16/7 41/15/14
f 31/15/14 41/15/14 43/9/18
f 32/13/8 42/13/8 48/11/3
f 38/6/5 47/6/5 46/4/4
f 36/2/1 45/2/1 44/16/7
f 48/11/21 42/13/21 43/9/21
f 43/9/21 41/15/21 44/16/21
f 44/16/21 45/2/21 46/4/21
f 46/4/21 47/6/21 48/11/21
f 48/11/21 43/9/21 44/16/21
f 59/1/8 61/1/8 62/1/8
f 62/1/8 58/1/8 56/1/8
f 56/1/8 57/1/8 69/1/8
f 69/1/8 63/1/8 59/1/8
f 59/1/8 62/1/8 56/1/8
f 16/10/21 18/9/40 33/9/21
f 16/10/21 33/9/21 32/13/21
f 35/16/39 20/16/38 22/2/21
f 36/2/21 35/16/39 22/2/21
f 28/11/21 16/10/21 32/13/21
f 28/11/21 32/13/21 39/11/21
f 36/2/21 22/2/21 24/4/21
f 37/4/21 36/2/21 24/4/21
f 26/6/21 28/11/21 39/11/21
f 38/6/21 37/4/21 24/4/21
f 26/6/21 39/11/21 38/6/21
f 11/17/18 34/18/2 4/2/2
f 61/1/22 59/1/22 54/1/22
f 56/1/23 58/1/23 49/1/23
f 53/1/24 60/1/24 57/1/24
f 53/1/25 54/1/25 59/1/25
f 63/1/26 60/1/25 53/1/25
f 57/1/27 56/1/27 51/1/27
f 62/1/28 61/1/28 52/1/28
f 65/14/49 19/19/46 11/19/45
f 30/14/29 9/17/44 21/17/43
f 65/14/49 11/19/45 30/14/29
f 69/1/31 64/1/50 65/14/49
f 14/1/30 63/1/51 69/1/31
f 30/14/29 21/17/43 14/1/30
f 69/1/31 65/14/49 30/14/29
f 57/1/32 67/1/52 68/1/14
f 68/1/14 64/1/14 69/1/14
f 67/1/53 57/1/1 60/1/33
f 60/1/33 63/1/54 14/1/34
f 15/1/35 67/1/53 60/1/33
f 66/1/36 65/1/36 64/1/36
o GantryInsulator.005
v -0.000000 7.039817 -0.008762
v 0.000000 7.054616 -0.102362
v 0.000000 7.130641 -0.022523
v 0.000000 7.140331 -0.102362
v -0.000000 7.216355 -0.038935
v 0.027709 7.216355 -0.027457
v 0.070711 7.140331 -0.073072
v 0.014843 7.130641 -0.016375
v 0.070711 7.054616 -0.073072
v 0.006374 7.039817 -0.006122
v 0.039187 7.216355 0.000252
v 0.100000 7.140331 -0.002362
v 0.020992 7.130641 -0.001531
v 0.100000 7.054616 -0.002362
v 0.009014 7.039817 0.000252
v 0.027709 7.216355 0.027961
v 0.070711 7.140331 0.068349
v 0.014040 7.130641 0.014596
v 0.070711 7.054616 0.068349
v 0.006374 7.039817 0.006626
v -0.000000 7.216355 0.039439
v 0.000000 7.140331 0.097638
v 0.000000 7.130641 0.020487
v 0.000000 7.054616 0.097638
v -0.000000 7.039817 0.009266
v -0.027709 7.216355 0.027961
v -0.070711 7.140331 0.068349
v -0.014040 7.130641 0.014596
v -0.070711 7.054616 0.068349
v -0.006374 7.039817 0.006626
v -0.039187 7.216355 0.000252
v -0.100000 7.140331 -0.002362
v -0.020992 7.130641 -0.001531
v -0.100000 7.054616 -0.002362
v -0.009014 7.039817 0.000252
v -0.027709 7.216355 -0.027457
v -0.070711 7.140331 -0.073072
v -0.014843 7.130641 -0.016375
v -0.070711 7.054616 -0.073072
v -0.006374 7.039817 -0.006122
v -0.000000 7.216355 -0.018017
v 0.012918 7.216355 -0.012666
v 0.018269 7.216355 0.000252
v 0.012918 7.216355 0.013170
v -0.000000 7.216355 0.018521
v -0.012918 7.216355 0.013170
v -0.018269 7.216355 0.000252
v -0.012918 7.216355 -0.012666
v -0.000000 7.334884 -0.018017
v 0.012918 7.334884 -0.012666
v 0.018269 7.334884 0.000252
v 0.012918 7.334884 0.013170
v -0.000000 7.334884 0.018521
v -0.012918 7.334884 0.013170
v -0.018269 7.334884 0.000252
v -0.012918 7.334884 -0.012666
v -0.000000 7.350073 0.000252
v 0.018269 7.350073 0.000252
v -0.018269 7.350073 0.000252
v -0.012918 7.334884 0.034277
v -0.018269 7.334884 0.021358
v -0.000000 7.334884 0.039627
v 0.012918 7.334884 0.034277
v 0.018269 7.334884 0.021358
v -0.012918 7.350073 0.034277
v -0.018269 7.350073 0.021358
v -0.000000 7.350073 0.039627
v 0.012918 7.350073 0.034277
v 0.018269 7.350073 0.021358
v -0.012918 7.334884 -0.034282
v -0.000000 7.334884 -0.039633
v -0.018269 7.334884 -0.021364
v 0.012918 7.334884 -0.034282
v 0.018269 7.334884 -0.021364
v -0.012918 7.350073 -0.034282
v -0.000000 7.350073 -0.039633
v -0.018269 7.350073 -0.021364
v 0.012918 7.350073 -0.034282
v 0.018269 7.350073 -0.021364
v -0.000000 6.379152 -0.008762
v 0.006374 6.379152 -0.006122
v 0.009014 6.379152 0.000252
v 0.006374 6.379152 0.006626
v -0.000000 6.379152 0.009266
v -0.006374 6.379152 0.006626
v -0.009014 6.379152 0.000252
v -0.006374 6.379152 -0.006122
vn -0.1109 -0.9875 -0.1117
vn -0.0000 -0.9877 -0.1562
vn -0.1122 -0.9875 -0.1105
vn -0.4879 0.7231 -0.4889
vn -0.0000 0.7242 -0.6896
vn -0.0853 -0.9927 -0.0856
vn -0.0000 -0.9927 -0.1205
vn -0.0857 -0.9927 -0.0852
vn -0.5436 0.6361 -0.5477
vn -0.0000 0.6406 -0.7679
vn -0.1605 -0.9870 -0.0008
vn -0.1606 -0.9870 0.0017
vn -0.6934 0.7206 -0.0010
vn -0.4893 0.7231 -0.4875
vn -0.1217 -0.9926 -0.0002
vn -0.1213 -0.9926 0.0010
vn -0.7808 0.6247 -0.0042
vn -0.5489 0.6360 -0.5424
vn -0.1162 -0.9865 0.1154
vn -0.1149 -0.9865 0.1167
vn -0.4952 0.7160 0.4921
vn -0.6917 0.7222 0.0052
vn -0.0876 -0.9924 0.0869
vn -0.0857 -0.9924 0.0888
vn -0.5609 0.6129 0.5566
vn -0.7810 0.6245 0.0066
vn -0.0000 -0.9863 0.1652
vn -0.0000 0.7126 0.7016
vn -0.4872 0.7158 0.5003
vn -0.0000 -0.9922 0.1245
vn -0.0000 -0.9922 0.1246
vn -0.0000 0.6079 0.7940
vn -0.5554 0.6128 0.5621
vn 0.1149 -0.9865 0.1167
vn 0.4872 0.7158 0.5003
vn 0.4952 0.7160 0.4921
vn 0.0857 -0.9924 0.0888
vn 0.5554 0.6128 0.5621
vn 0.5609 0.6129 0.5566
vn 0.1606 -0.9870 0.0017
vn 0.1162 -0.9865 0.1154
vn 0.6917 0.7222 0.0052
vn 0.6934 0.7206 -0.0010
vn 0.1213 -0.9926 0.0010
vn 0.0876 -0.9924 0.0869
vn 0.7810 0.6245 0.0066
vn 0.7808 0.6247 -0.0042
vn 0.1122 -0.9875 -0.1105
vn 0.1605 -0.9870 -0.0008
vn 0.4893 0.7231 -0.4875
vn 0.4879 0.7231 -0.4889
vn 0.0857 -0.9927 -0.0852
vn 0.1217 -0.9926 -0.0002
vn 0.5489 0.6360 -0.5424
vn 0.5436 0.6361 -0.5477
vn 0.1109 -0.9875 -0.1117
vn 0.0853 -0.9927 -0.0856
vn -0.0000 0.7123 0.7019
vn -0.0000 1.0000 -0.0000
vn 0.7071 -0.0000 0.7071
vn -0.0000 -0.0000 1.0000
vn -0.7071 -0.0000 0.7071
vn -1.0000 -0.0000 -0.0000
vn -0.7071 -0.0000 -0.7071
vn -0.0000 -0.0000 -1.0000
vn 0.7071 -0.0000 -0.7071
vn 1.0000 -0.0000 -0.0000
vn 0.9701 -0.2425 -0.0000
vn 0.9808 -0.0000 -0.1951
vn -0.0000 -1.0000 -0.0000
vn 0.7319 -0.6657 0.1456
vn -0.9808 -0.0000 0.1951
vn -0.7319 -0.6657 0.1456
vn -0.9701 -0.2425 -0.0000
vn 0.7319 -0.6657 -0.1456
vn -0.7319 -0.6657 -0.1456
vn 0.9808 -0.0000 0.1951
vn -0.9808 -0.0000 -0.1951
vt 0.959703 0.009387
vt 0.960882 0.008099
vt 0.960684 0.009187
vt 0.957954 0.007566
vt 0.960035 0.007566
vt 0.962915 0.005744
vt 0.961736 0.007033
vt 0.961934 0.005945
vt 0.964664 0.007566
vt 0.962584 0.007566
vt 0.958751 0.010974
vt 0.960309 0.010184
vt 0.959740 0.011133
vt 0.957756 0.008654
vt 0.963867 0.004157
vt 0.962309 0.004947
vt 0.962878 0.003998
vt 0.964862 0.006477
vt 0.957301 0.012125
vt 0.959037 0.011934
vt 0.958171 0.012621
vt 0.957187 0.009603
vt 0.965317 0.003006
vt 0.963581 0.003197
vt 0.964447 0.002510
vt 0.965431 0.005529
vt 0.955539 0.012691
vt 0.957231 0.013124
vt 0.956177 0.013462
vt 0.956321 0.010290
vt 0.967079 0.002440
vt 0.965388 0.002008
vt 0.966441 0.001669
vt 0.966297 0.004841
vt 0.957231 0.002008
vt 0.955539 0.002440
vt 0.956177 0.001669
vt 0.956321 0.004841
vt 0.957301 0.003006
vt 0.965388 0.013124
vt 0.967079 0.012691
vt 0.966441 0.013462
vt 0.966297 0.010290
vt 0.965317 0.012125
vt 0.959037 0.003197
vt 0.958171 0.002510
vt 0.957187 0.005529
vt 0.958751 0.004157
vt 0.963581 0.011934
vt 0.964447 0.012621
vt 0.965431 0.009603
vt 0.963867 0.010974
vt 0.960309 0.004947
vt 0.959740 0.003998
vt 0.957756 0.006477
vt 0.959703 0.005744
vt 0.962309 0.010184
vt 0.962878 0.011133
vt 0.964862 0.008654
vt 0.962915 0.009387
vt 0.960882 0.007033
vt 0.960684 0.005945
vt 0.961736 0.008099
vt 0.961934 0.009187
vt 0.955268 0.010628
vt 0.967350 0.004503
vt 0.955268 0.004503
vt 0.967350 0.010628
vt 0.981114 0.009656
vt 0.982013 0.009945
vt 0.981114 0.005003
vt 0.980374 0.005590
vt 0.979888 0.006400
vt 0.979719 0.007329
vt 0.979888 0.008259
vt 0.980374 0.009069
vt 0.982013 0.004714
vt 0.924092 -0.341471
vt 0.974914 0.011060
vt 0.974174 0.011647
vt 0.975514 0.004283
vt 0.976000 0.005093
vt 0.973371 0.012076
vt 0.972472 0.012365
vt 0.976321 0.005945
vt 0.976490 0.006874
vt 0.976490 0.007784
vt 0.976321 0.008714
vt 0.972472 0.002294
vt 0.973371 0.002583
vt 0.976000 0.009566
vt 0.975514 0.010376
vt 0.974174 0.003012
vt 0.974914 0.003599
s 1
usemtl Catenary
f 108/20/55 70/21/56 109/22/57
f 108/20/58 72/23/59 71/24/59
f 106/25/60 72/26/61 107/27/62
f 106/25/63 74/28/64 73/29/64
f 103/30/65 109/31/57 104/32/66
f 103/30/67 107/33/68 108/20/58
f 101/34/69 107/35/62 102/36/70
f 101/34/71 105/37/72 106/25/63
f 98/38/73 104/39/66 99/40/74
f 98/38/75 102/41/76 103/30/67
f 96/42/77 102/43/70 97/44/78
f 96/42/79 100/45/80 101/34/71
f 93/46/81 99/47/74 94/48/81
f 93/46/82 97/49/83 98/38/75
f 91/50/84 97/51/78 92/52/85
f 91/50/86 95/53/87 96/42/79
f 89/54/88 93/55/81 94/56/81
f 87/57/89 93/55/82 88/58/90
f 87/59/91 91/60/84 92/61/85
f 85/62/92 91/60/86 86/63/93
f 84/64/94 88/58/95 89/65/88
f 82/66/96 88/58/90 83/67/97
f 82/68/98 86/63/99 87/69/91
f 80/70/100 86/63/93 81/71/101
f 79/72/102 83/67/103 84/73/94
f 77/74/104 83/67/97 78/75/105
f 77/76/106 81/71/107 82/77/98
f 75/78/108 81/71/101 76/79/109
f 70/80/56 78/75/110 79/81/102
f 72/23/59 78/75/105 71/24/59
f 72/82/61 76/79/111 77/83/106
f 74/28/64 76/79/109 73/29/64
f 108/20/55 71/24/56 70/21/56
f 108/20/58 107/33/68 72/23/59
f 106/25/60 73/29/61 72/26/61
f 106/25/63 105/37/72 74/28/64
f 103/30/65 108/20/55 109/31/57
f 103/30/67 102/41/76 107/33/68
f 101/34/69 106/25/60 107/35/62
f 101/34/71 100/45/80 105/37/72
f 98/38/73 103/30/65 104/39/66
f 98/38/75 97/49/83 102/41/76
f 96/42/77 101/34/69 102/43/70
f 96/42/79 95/53/87 100/45/80
f 93/46/81 98/38/73 99/47/74
f 93/46/82 92/84/112 97/49/83
f 91/50/84 96/42/77 97/51/78
f 91/50/86 90/85/86 95/53/87
f 89/54/88 88/58/95 93/55/81
f 87/57/89 92/86/112 93/55/82
f 87/59/91 86/63/99 91/60/84
f 85/62/92 90/87/86 91/60/86
f 84/64/94 83/67/103 88/58/95
f 82/66/96 87/57/89 88/58/90
f 82/68/98 81/71/107 86/63/99
f 80/70/100 85/62/92 86/63/93
f 79/72/102 78/75/110 83/67/103
f 77/74/104 82/66/96 83/67/97
f 77/76/106 76/79/111 81/71/107
f 75/78/108 80/70/100 81/71/101
f 70/80/56 71/24/56 78/75/110
f 72/23/59 77/74/104 78/75/105
f 72/82/61 73/29/61 76/79/111
f 74/28/64 75/78/108 76/79/109
f 100/45/113 117/37/113 105/37/113
f 80/70/113 113/62/113 85/62/113
f 95/53/113 116/45/113 100/45/113
f 75/78/113 112/70/113 80/70/113
f 90/85/113 115/53/113 95/53/113
f 75/78/113 110/28/113 111/78/113
f 105/37/113 110/28/113 74/28/113
f 85/62/113 114/87/113 90/87/113
f 113/88/114 122/89/115 114/89/115
f 115/90/116 124/91/117 116/91/117
f 117/92/118 118/93/119 110/93/119
f 110/93/119 119/94/120 111/94/120
f 112/95/121 121/88/114 113/88/114
f 114/96/115 123/90/116 115/90/116
f 116/91/117 125/92/118 117/92/118
f 111/94/120 120/95/121 112/95/121
f 120/95/122 148/95/123 127/95/121
f 122/89/124 132/88/124 131/89/124
f 127/95/121 133/95/125 120/95/122
f 118/93/124 142/94/124 119/94/124
s 0
f 126/97/113 146/97/113 128/97/113
f 126/97/113 136/97/113 137/97/113
s 1
f 122/96/124 129/90/124 123/90/124
f 118/93/124 139/92/124 140/93/124
f 132/88/114 136/89/115 131/89/115
f 129/90/116 135/91/126 130/91/127
f 133/95/125 137/88/114 132/88/114
f 131/96/115 134/90/116 129/90/116
s 0
f 126/97/113 138/97/113 127/97/113
s 1
f 124/91/128 135/91/126 128/91/117
s 0
f 126/97/113 135/97/113 134/97/113
s 1
f 121/88/124 133/95/125 132/88/124
f 123/90/124 130/91/127 124/91/128
s 0
f 126/97/113 134/97/113 136/97/113
s 1
f 142/94/120 148/95/123 143/95/129
f 139/92/118 145/93/119 140/93/119
f 140/93/119 147/94/120 142/94/120
f 141/91/130 144/92/118 139/92/118
f 128/91/117 141/91/130 124/91/128
f 125/92/124 141/91/130 139/92/124
s 0
f 126/97/113 148/97/113 147/97/113
f 126/97/113 145/97/113 144/97/113
f 126/97/113 147/97/113 145/97/113
s 1
f 119/94/124 143/95/129 120/95/122
f 104/98/117 154/99/116 99/99/116
f 84/100/121 150/101/120 79/101/120
f 99/102/116 153/103/115 94/103/115
f 79/104/120 149/105/119 70/105/119
f 70/106/119 156/107/118 109/107/118
f 94/108/115 152/109/114 89/109/114
f 109/110/118 155/111/117 104/111/117
f 89/112/114 151/113/121 84/113/121
f 100/45/113 116/45/113 117/37/113
f 80/70/113 112/70/113 113/62/113
f 95/53/113 115/53/113 116/45/113
f 75/78/113 111/78/113 112/70/113
f 90/85/113 114/85/113 115/53/113
f 75/78/113 74/28/113 110/28/113
f 105/37/113 117/37/113 110/28/113
f 85/62/113 113/62/113 114/87/113
f 113/88/114 121/88/114 122/89/115
f 115/90/116 123/90/116 124/91/117
f 117/92/118 125/92/118 118/93/119
f 110/93/119 118/93/119 119/94/120
f 112/95/121 120/95/121 121/88/114
f 114/96/115 122/96/115 123/90/116
f 116/91/117 124/91/117 125/92/118
f 111/94/120 119/94/120 120/95/121
f 120/95/122 143/95/129 148/95/123
f 122/89/124 121/88/124 132/88/124
f 127/95/121 138/95/131 133/95/125
f 118/93/124 140/93/124 142/94/124
s 0
f 126/97/113 144/97/113 146/97/113
s 1
f 122/96/124 131/96/124 129/90/124
f 118/93/124 125/92/124 139/92/124
f 132/88/114 137/88/114 136/89/115
f 129/90/116 134/90/116 135/91/126
f 133/95/125 138/95/131 137/88/114
f 131/96/115 136/96/115 134/90/116
s 0
f 126/97/113 137/97/113 138/97/113
s 1
f 124/91/128 130/91/127 135/91/126
s 0
f 126/97/113 128/97/113 135/97/113
s 1
f 121/88/124 120/95/122 133/95/125
f 123/90/124 129/90/124 130/91/127
f 142/94/120 147/94/120 148/95/123
f 139/92/118 144/92/118 145/93/119
f 140/93/119 145/93/119 147/94/120
f 141/91/130 146/91/132 144/92/118
f 128/91/117 146/91/132 141/91/130
f 125/92/124 124/91/128 141/91/130
s 0
f 126/97/113 127/97/113 148/97/113
s 1
f 119/94/124 142/94/124 143/95/129
f 104/98/117 155/98/117 154/99/116
f 84/100/121 151/100/121 150/101/120
f 99/102/116 154/102/116 153/103/115
f 79/104/120 150/104/120 149/105/119
f 70/106/119 149/106/119 156/107/118
f 94/108/115 153/108/115 152/109/114
f 109/110/118 156/110/118 155/111/117
f 89/112/114 152/112/114 151/113/121
o Cantileverindulator.027
v 1.782128 6.369318 -0.027084
v 1.782125 6.353548 -0.020551
v 1.782123 6.347015 -0.004780
v 1.782125 6.353548 0.010991
v 1.782128 6.369318 0.017523
v 1.782131 6.385089 0.010991
v 1.782132 6.391622 -0.004780
v 1.782131 6.385089 -0.020551
v 2.063907 6.369247 -0.027084
v 2.063904 6.353476 -0.020551
v 2.063903 6.346943 -0.004780
v 2.063904 6.353476 0.010991
v 2.063907 6.369247 0.017523
v 2.063910 6.385017 0.010991
v 2.063912 6.391550 -0.004780
v 2.063910 6.385017 -0.020551
v 2.052547 6.336826 -0.037204
v 2.041195 6.336830 -0.037204
v 2.029845 6.353484 -0.020551
v 2.018492 6.353487 -0.020551
v 2.007136 6.336838 -0.037204
v 1.995783 6.336841 -0.037204
v 1.984433 6.353496 -0.020551
v 1.973081 6.353499 -0.020551
v 1.961724 6.336850 -0.037204
v 1.950371 6.336853 -0.037204
v 1.939022 6.353508 -0.020551
v 1.927669 6.353510 -0.020551
v 1.916312 6.336861 -0.037204
v 1.904960 6.336864 -0.037204
v 1.893610 6.353519 -0.020551
v 1.882257 6.353522 -0.020551
v 1.870901 6.336873 -0.037204
v 1.859547 6.336876 -0.037204
v 1.848198 6.353531 -0.020551
v 2.052545 6.323397 -0.004781
v 2.041192 6.323400 -0.004781
v 2.029844 6.346952 -0.004780
v 2.018491 6.346955 -0.004780
v 2.007133 6.323408 -0.004781
v 1.995780 6.323410 -0.004781
v 1.984432 6.346963 -0.004780
v 1.973079 6.346966 -0.004780
v 1.961721 6.323420 -0.004781
v 1.950368 6.323422 -0.004781
v 1.939020 6.346975 -0.004780
v 1.927667 6.346978 -0.004780
v 1.916310 6.323431 -0.004781
v 1.904957 6.323435 -0.004781
v 1.893609 6.346986 -0.004780
v 1.882256 6.346989 -0.004780
v 1.870898 6.323442 -0.004781
v 1.859545 6.323446 -0.004781
v 1.848197 6.346998 -0.004780
v 2.052547 6.336826 0.027642
v 2.041195 6.336830 0.027642
v 2.029845 6.353484 0.010991
v 2.018492 6.353487 0.010991
v 2.007136 6.336838 0.027642
v 1.995783 6.336841 0.027642
v 1.984433 6.353496 0.010991
v 1.973081 6.353499 0.010991
v 1.961724 6.336850 0.027642
v 1.950371 6.336853 0.027642
v 1.939022 6.353508 0.010991
v 1.927669 6.353510 0.010991
v 1.916312 6.336861 0.027642
v 1.904960 6.336864 0.027642
v 1.893610 6.353519 0.010991
v 1.882257 6.353522 0.010991
v 1.870901 6.336873 0.027642
v 1.859547 6.336876 0.027642
v 1.848198 6.353531 0.010991
v 2.052554 6.369250 0.041073
v 2.041201 6.369253 0.041073
v 2.029848 6.369255 0.017523
v 2.018496 6.369258 0.017523
v 2.007143 6.369262 0.041073
v 1.995790 6.369264 0.041073
v 1.984437 6.369267 0.017523
v 1.973084 6.369270 0.017523
v 1.961731 6.369273 0.041073
v 1.950378 6.369276 0.041073
v 1.939025 6.369278 0.017523
v 1.927672 6.369281 0.017523
v 1.916319 6.369285 0.041073
v 1.904966 6.369287 0.041073
v 1.893613 6.369290 0.017523
v 1.882261 6.369293 0.017523
v 1.870908 6.369296 0.041073
v 1.859555 6.369299 0.041073
v 1.848202 6.369302 0.017523
v 2.052561 6.401672 0.027642
v 2.041208 6.401676 0.027642
v 2.029852 6.385026 0.010991
v 2.018499 6.385029 0.010991
v 2.007149 6.401685 0.027642
v 1.995797 6.401688 0.027642
v 1.984440 6.385038 0.010991
v 1.973087 6.385041 0.010991
v 1.961738 6.401697 0.027642
v 1.950385 6.401699 0.027642
v 1.939028 6.385049 0.010991
v 1.927675 6.385052 0.010991
v 1.916326 6.401708 0.027642
v 1.904973 6.401711 0.027642
v 1.893616 6.385061 0.010991
v 1.882264 6.385064 0.010991
v 1.870914 6.401719 0.027642
v 1.859561 6.401723 0.027642
v 1.848205 6.385073 0.010991
v 2.052564 6.415103 -0.004781
v 2.041211 6.415106 -0.004781
v 2.029853 6.391559 -0.004780
v 2.018500 6.391561 -0.004780
v 2.007152 6.415115 -0.004781
v 1.995799 6.415117 -0.004781
v 1.984441 6.391570 -0.004780
v 1.973089 6.391573 -0.004780
v 1.961740 6.415126 -0.004781
v 1.950387 6.415130 -0.004781
v 1.939029 6.391582 -0.004780
v 1.927677 6.391585 -0.004780
v 1.916329 6.415138 -0.004781
v 1.904976 6.415141 -0.004781
v 1.893618 6.391593 -0.004780
v 1.882265 6.391596 -0.004780
v 1.870917 6.415150 -0.004781
v 1.859564 6.415153 -0.004781
v 1.848206 6.391605 -0.004780
v 2.052561 6.401672 -0.037204
v 2.041208 6.401676 -0.037204
v 2.029852 6.385026 -0.020551
v 2.018499 6.385029 -0.020551
v 2.007149 6.401685 -0.037204
v 1.995797 6.401688 -0.037204
v 1.984440 6.385038 -0.020551
v 1.973087 6.385041 -0.020551
v 1.961738 6.401697 -0.037204
v 1.950385 6.401699 -0.037204
v 1.939028 6.385049 -0.020551
v 1.927675 6.385052 -0.020551
v 1.916326 6.401708 -0.037204
v 1.904973 6.401711 -0.037204
v 1.893616 6.385061 -0.020551
v 1.882264 6.385064 -0.020551
v 1.870914 6.401719 -0.037204
v 1.859561 6.401723 -0.037204
v 1.848205 6.385073 -0.020551
v 1.848202 6.369301 -0.027084
v 1.859555 6.369299 -0.050634
v 1.870908 6.369296 -0.050634
v 1.882261 6.369293 -0.027084
v 1.893613 6.369290 -0.027084
v 1.904966 6.369287 -0.050634
v 1.916319 6.369285 -0.050634
v 1.927672 6.369282 -0.027084
v 1.939025 6.369278 -0.027084
v 1.950378 6.369276 -0.050634
v 1.961731 6.369273 -0.050634
v 1.973084 6.369270 -0.027084
v 1.984437 6.369267 -0.027084
v 1.995790 6.369264 -0.050634
v 2.007143 6.369262 -0.050634
v 2.018496 6.369258 -0.027084
v 2.029849 6.369255 -0.027084
v 2.041201 6.369253 -0.050634
v 2.052555 6.369250 -0.050634
v 2.121413 6.369318 -0.027084
v 2.121409 6.353547 -0.020551
v 2.121408 6.347015 -0.004780
v 2.121409 6.353547 0.010991
v 2.121413 6.369318 0.017523
v 2.121416 6.385089 0.010991
v 2.121417 6.391621 -0.004780
v 2.121416 6.385089 -0.020551
vn 0.5997 0.5657 -0.5660
vn 0.4805 -0.0001 -0.8770
vn 0.4807 0.6200 -0.6201
vn 0.4808 0.8769 -0.0000
vn 0.4807 0.6200 0.6201
vn 0.5996 0.8003 -0.0000
vn 0.4805 -0.0001 0.8770
vn 0.5997 0.5657 0.5660
vn 0.4804 -0.6202 0.6201
vn 0.6000 -0.0003 0.8000
vn 0.6004 -0.7997 -0.0000
vn 0.4803 -0.8771 -0.0000
vn 0.6003 -0.5657 -0.5654
vn 0.4804 -0.6202 -0.6201
vn 0.6000 -0.0003 -0.8000
vn -0.6000 0.0001 -0.8000
vn -0.0002 -0.7071 -0.7071
vn -0.0000 -0.0000 -1.0000
vn -0.4807 -0.6200 -0.6201
vn -0.6001 -0.5656 -0.5657
vn -0.4805 0.0001 -0.8770
vn 0.6000 -0.0001 -0.8000
vn 0.5999 -0.5658 -0.5657
vn 0.5998 -0.5658 -0.5657
vn -0.0003 -1.0000 -0.0000
vn -0.4807 -0.8769 -0.0000
vn -0.6002 -0.7999 -0.0000
vn 0.5998 -0.8002 -0.0000
vn -0.4808 -0.8769 -0.0000
vn -0.6001 -0.5656 0.5657
vn -0.0002 -0.7071 0.7071
vn -0.4807 -0.6200 0.6201
vn 0.5999 -0.5658 0.5657
vn 0.5998 -0.5658 0.5657
vn -0.6000 0.0001 0.8000
vn -0.0000 -0.0000 1.0000
vn -0.4805 0.0001 0.8770
vn 0.6000 -0.0001 0.8000
vn -0.5999 0.5658 0.5657
vn 0.0002 0.7071 0.7071
vn -0.4804 0.6202 0.6201
vn 0.6001 0.5656 0.5657
vn -0.5998 0.5658 0.5657
vn -0.5998 0.8001 -0.0000
vn 0.0003 1.0000 -0.0000
vn -0.4803 0.8771 -0.0000
vn 0.6002 0.7999 -0.0000
vn -0.5998 0.8002 -0.0000
vn 0.4807 0.8769 -0.0000
vn -0.4804 0.8771 -0.0000
vn 0.0002 0.7071 -0.7071
vn -0.5999 0.5658 -0.5657
vn -0.4804 0.6202 -0.6201
vn 0.6001 0.5656 -0.5657
vn -0.5998 0.5658 -0.5657
vn 0.0009 -0.7069 -0.7073
vn 0.6002 -0.5657 0.5654
vn 0.0012 -1.0000 -0.0000
vn 0.0009 -0.7069 0.7073
vn -0.0000 0.0003 1.0000
vn -0.0009 0.7073 0.7069
vn -0.0009 0.7073 -0.7069
vn -0.0012 1.0000 -0.0000
vn -0.0000 0.0003 -1.0000
vt 0.947470 0.037677
vt 0.927640 0.045459
vt 0.931226 0.028232
vt 0.937842 0.007817
vt 0.928547 0.130780
vt 0.948638 0.133956
vt 0.934473 0.150909
vt 0.925563 0.113182
vt 0.944729 0.122198
vt 0.924520 0.096118
vt 0.942177 0.108777
vt 0.941159 0.080218
vt 0.924508 0.079031
vt 0.942195 0.065540
vt 0.925551 0.062245
vt 0.944237 0.051147
vt 0.707478 0.051626
vt 0.665429 0.070259
vt 0.663516 0.059196
vt 0.726436 0.062389
vt 0.709510 0.065850
vt 0.731361 0.044355
vt 0.724087 0.045720
vt 0.748171 0.044726
vt 0.733780 0.061548
vt 0.755705 0.044441
vt 0.750076 0.062275
vt 0.774261 0.060231
vt 0.757493 0.062188
vt 0.780996 0.041652
vt 0.773817 0.042179
vt 0.797533 0.043226
vt 0.781723 0.060001
vt 0.805052 0.042924
vt 0.798143 0.060884
vt 0.822521 0.059390
vt 0.805650 0.060949
vt 0.830476 0.041180
vt 0.823271 0.041382
vt 0.847033 0.043340
vt 0.830046 0.059427
vt 0.854709 0.042778
vt 0.846735 0.061004
vt 0.871545 0.042575
vt 0.854212 0.060763
vt 0.879065 0.042333
vt 0.872525 0.060506
vt 0.896003 0.044494
vt 0.879637 0.060508
vt 0.903612 0.044707
vt 0.895284 0.062097
vt 0.918291 0.061472
vt 0.902311 0.062281
vt 0.920400 0.044146
vt 0.666539 0.081375
vt 0.727641 0.079061
vt 0.710433 0.080370
vt 0.734901 0.078782
vt 0.750875 0.079574
vt 0.775395 0.078449
vt 0.758282 0.079392
vt 0.783125 0.078508
vt 0.797950 0.078657
vt 0.822520 0.077641
vt 0.805649 0.078870
vt 0.830039 0.077675
vt 0.846616 0.078816
vt 0.871599 0.078454
vt 0.854277 0.078859
vt 0.879363 0.078844
vt 0.894028 0.079351
vt 0.917167 0.078806
vt 0.901313 0.079596
vt 0.710571 0.094615
vt 0.666070 0.092500
vt 0.727968 0.095897
vt 0.735656 0.096428
vt 0.757505 0.096675
vt 0.750030 0.096654
vt 0.773969 0.096495
vt 0.781394 0.096953
vt 0.797988 0.096231
vt 0.805694 0.096183
vt 0.822788 0.096002
vt 0.830597 0.096283
vt 0.853493 0.096672
vt 0.845722 0.096378
vt 0.870075 0.096509
vt 0.877539 0.096957
vt 0.894185 0.096477
vt 0.901791 0.096508
vt 0.916558 0.096402
vt 0.709361 0.108636
vt 0.664786 0.103588
vt 0.724787 0.112656
vt 0.732174 0.113813
vt 0.749007 0.113694
vt 0.756834 0.113652
vt 0.771950 0.114884
vt 0.779581 0.115184
vt 0.797158 0.113528
vt 0.805293 0.113362
vt 0.820618 0.114418
vt 0.828268 0.114662
vt 0.845620 0.113573
vt 0.853676 0.113736
vt 0.869021 0.115063
vt 0.876679 0.115123
vt 0.894114 0.113409
vt 0.901912 0.113407
vt 0.918411 0.114183
vt 0.706539 0.121976
vt 0.662802 0.114687
vt 0.729508 0.131821
vt 0.722416 0.130552
vt 0.747162 0.129630
vt 0.755259 0.129762
vt 0.779276 0.133924
vt 0.772117 0.133980
vt 0.796553 0.129656
vt 0.804550 0.129622
vt 0.828479 0.133474
vt 0.821402 0.133599
vt 0.845456 0.129487
vt 0.853357 0.130038
vt 0.878131 0.133828
vt 0.871011 0.133975
vt 0.895203 0.129401
vt 0.903449 0.129758
vt 0.921419 0.132282
vt 0.702786 0.133700
vt 0.660710 0.125966
vt 0.725711 0.152725
vt 0.716251 0.150262
vt 0.746520 0.143505
vt 0.753385 0.143086
vt 0.779688 0.155355
vt 0.770477 0.155007
vt 0.797261 0.143409
vt 0.803521 0.142992
vt 0.829517 0.154869
vt 0.820453 0.154708
vt 0.846563 0.143030
vt 0.852942 0.142757
vt 0.869125 0.155118
vt 0.878653 0.155355
vt 0.896745 0.143299
vt 0.903846 0.143489
vt 0.924811 0.152870
vt 0.700468 0.026722
vt 0.660939 0.048183
vt 0.658181 0.037066
vt 0.713248 0.008740
vt 0.704304 0.038276
vt 0.723671 0.005540
vt 0.720369 0.028414
vt 0.746201 0.028052
vt 0.727363 0.026952
vt 0.752375 0.015330
vt 0.744561 0.015462
vt 0.768291 0.002226
vt 0.754315 0.028015
vt 0.778339 0.001427
vt 0.770917 0.023715
vt 0.796752 0.026423
vt 0.778228 0.023218
vt 0.803773 0.013762
vt 0.796606 0.013553
vt 0.820096 0.001225
vt 0.804801 0.026526
vt 0.830064 0.000966
vt 0.821525 0.022812
vt 0.847009 0.026585
vt 0.828808 0.022669
vt 0.854472 0.013896
vt 0.847418 0.013663
vt 0.871343 0.001792
vt 0.854996 0.026635
vt 0.881411 0.001991
vt 0.871775 0.023451
vt 0.897185 0.028000
vt 0.879028 0.023679
vt 0.906580 0.015377
vt 0.898588 0.015202
vt 0.927171 0.005399
vt 0.905341 0.027938
vt 0.924302 0.026486
vt 0.980190 0.069840
vt 0.940596 0.094655
vt 0.978927 0.081104
vt 0.979363 0.092335
vt 0.980766 0.103505
vt 0.982956 0.114591
vt 0.951318 0.026094
vt 0.985089 0.047620
vt 0.985446 0.125791
vt 0.982270 0.058665
vt 0.988176 0.036568
s 1
usemtl Catenary
f 172/114/133 324/115/134 287/116/135
f 268/117/136 172/114/133 287/116/135
f 249/118/137 171/119/138 268/120/136
f 230/121/139 170/122/140 249/118/137
f 211/123/141 169/124/142 230/121/139
f 167/125/143 211/123/141 192/126/144
f 166/127/145 192/126/144 173/128/146
f 165/129/147 173/128/146 324/115/134
f 306/130/148 158/131/149 157/132/150
f 306/130/148 190/133/151 191/134/152
f 308/135/134 190/133/151 307/136/153
f 309/137/154 189/138/146 308/135/134
f 310/139/148 188/140/155 309/137/154
f 310/139/148 186/141/151 187/142/152
f 312/143/134 186/141/151 311/144/153
f 313/145/154 185/146/146 312/143/134
f 314/147/148 184/148/155 313/145/154
f 314/147/148 182/149/151 183/150/152
f 316/151/134 182/149/151 315/152/153
f 317/153/154 181/154/146 316/151/134
f 318/155/148 180/156/156 317/153/154
f 319/157/153 179/158/152 318/155/148
f 320/159/134 178/160/151 319/157/153
f 321/161/154 177/162/146 320/159/134
f 322/163/148 176/164/155 321/161/154
f 322/163/148 174/165/151 175/166/152
f 324/115/134 174/165/151 323/167/153
f 191/134/152 159/168/157 158/131/149
f 191/134/152 209/169/158 210/170/159
f 189/138/146 209/169/158 190/133/151
f 188/140/155 208/171/144 189/138/146
f 187/142/152 207/172/160 188/140/155
f 187/142/152 205/173/161 206/174/159
f 185/146/146 205/173/161 186/141/151
f 184/148/155 204/175/144 185/146/146
f 183/150/152 203/176/160 184/148/155
f 183/150/152 201/177/158 202/178/159
f 181/154/146 201/177/158 182/149/151
f 180/156/156 200/179/144 181/154/146
f 179/158/152 199/180/160 180/156/156
f 179/158/152 197/181/158 198/182/159
f 177/162/146 197/181/158 178/160/151
f 176/164/155 196/183/144 177/162/146
f 175/166/152 195/184/160 176/164/155
f 175/166/152 193/185/158 194/186/159
f 173/128/146 193/185/158 174/165/151
f 159/168/157 229/187/162 160/188/163
f 210/170/159 228/189/164 229/187/162
f 209/169/158 227/190/141 228/189/164
f 207/172/160 227/190/141 208/171/144
f 207/172/160 225/191/162 226/192/165
f 206/174/159 224/193/164 225/191/162
f 205/173/161 223/194/141 224/193/164
f 204/175/144 222/195/166 223/194/141
f 203/176/160 221/196/162 222/195/166
f 202/178/159 220/197/164 221/196/162
f 201/177/158 219/198/141 220/197/164
f 199/180/160 219/198/141 200/179/144
f 199/180/160 217/199/162 218/200/166
f 198/182/159 216/201/164 217/199/162
f 197/181/158 215/202/141 216/201/164
f 196/183/144 214/203/166 215/202/141
f 195/184/160 213/204/162 214/203/166
f 194/186/159 212/205/164 213/204/162
f 193/185/158 211/123/141 212/205/164
f 160/188/163 248/206/167 161/207/168
f 229/187/162 247/208/169 248/206/167
f 228/189/164 246/209/139 247/208/169
f 227/190/141 245/210/170 246/209/139
f 226/192/165 244/211/167 245/210/170
f 225/191/162 243/212/169 244/211/167
f 224/193/164 242/213/139 243/212/169
f 223/194/141 241/214/170 242/213/139
f 222/195/166 240/215/167 241/214/170
f 221/196/162 239/216/169 240/215/167
f 220/197/164 238/217/139 239/216/169
f 219/198/141 237/218/170 238/217/139
f 218/200/166 236/219/167 237/218/170
f 217/199/162 235/220/169 236/219/167
f 216/201/164 234/221/139 235/220/169
f 215/202/141 233/222/170 234/221/139
f 214/203/166 232/223/167 233/222/170
f 212/205/164 232/223/167 213/204/162
f 212/205/164 230/121/139 231/224/169
f 161/207/168 267/225/171 162/226/172
f 247/208/169 267/225/171 248/206/167
f 247/208/169 265/227/137 266/228/173
f 246/209/139 264/229/174 265/227/137
f 245/210/170 263/230/175 264/229/174
f 243/212/169 263/230/175 244/211/167
f 243/212/169 261/231/137 262/232/173
f 242/213/139 260/233/174 261/231/137
f 241/214/170 259/234/175 260/233/174
f 239/216/169 259/234/175 240/215/167
f 239/216/169 257/235/137 258/236/173
f 238/217/139 256/237/174 257/235/137
f 237/218/170 255/238/175 256/237/174
f 235/220/169 255/238/175 236/219/167
f 235/220/169 253/239/137 254/240/173
f 234/221/139 252/241/174 253/239/137
f 233/222/170 251/242/175 252/241/174
f 231/224/169 251/242/175 232/223/167
f 231/224/169 249/118/137 250/243/173
f 162/226/172 286/244/176 163/245/177
f 266/228/173 286/244/176 267/225/171
f 266/228/173 284/246/136 285/247/178
f 265/227/137 283/248/179 284/246/136
f 264/229/174 282/249/180 283/248/179
f 262/232/173 282/249/180 263/230/175
f 262/232/173 280/250/181 281/251/178
f 261/231/137 279/252/179 280/250/181
f 260/233/174 278/253/180 279/252/179
f 258/236/173 278/253/180 259/234/175
f 258/236/173 276/254/181 277/255/178
f 257/235/137 275/256/179 276/254/181
f 256/237/174 274/257/180 275/256/179
f 255/238/175 273/258/182 274/257/180
f 254/240/173 272/259/181 273/258/182
f 253/239/137 271/260/179 272/259/181
f 252/241/174 270/261/176 271/260/179
f 250/243/173 270/261/176 251/242/175
f 250/243/173 268/120/136 269/262/178
f 286/263/176 164/264/183 163/265/177
f 285/266/178 305/267/184 286/263/176
f 284/268/136 304/269/185 285/266/178
f 284/268/136 302/270/186 303/271/135
f 282/272/180 302/270/186 283/273/179
f 281/274/178 301/275/187 282/272/180
f 280/276/181 300/277/185 281/274/178
f 280/276/181 298/278/186 299/279/135
f 278/280/180 298/278/186 279/281/179
f 277/282/178 297/283/187 278/280/180
f 276/284/181 296/285/185 277/282/178
f 276/284/181 294/286/186 295/287/135
f 274/288/180 294/286/186 275/289/179
f 273/290/182 293/291/184 274/288/180
f 272/292/181 292/293/185 273/290/182
f 272/292/181 290/294/186 291/295/135
f 270/296/176 290/294/186 271/297/179
f 269/298/178 289/299/187 270/296/176
f 268/117/136 288/300/185 269/298/178
f 305/267/184 157/132/150 164/264/183
f 305/267/184 307/136/153 306/130/148
f 303/271/135 307/136/153 304/269/185
f 302/270/186 308/135/134 303/271/135
f 301/275/187 309/137/154 302/270/186
f 300/277/185 310/139/148 301/275/187
f 299/279/135 311/144/153 300/277/185
f 298/278/186 312/143/134 299/279/135
f 297/283/187 313/145/154 298/278/186
f 296/285/185 314/147/148 297/283/187
f 295/287/135 315/152/153 296/285/185
f 294/286/186 316/151/134 295/287/135
f 293/291/184 317/153/154 294/286/186
f 292/293/185 318/155/148 293/291/184
f 291/295/135 319/157/153 292/293/185
f 290/294/186 320/159/134 291/295/135
f 289/299/187 321/161/154 290/294/186
f 289/299/187 323/167/153 322/163/148
f 287/116/135 323/167/153 288/300/185
f 165/129/147 326/301/188 166/127/145
f 168/302/189 327/303/190 328/304/191
f 170/122/140 329/305/192 330/306/193
f 171/307/138 332/308/194 172/114/133
f 166/127/145 327/303/190 167/125/143
f 169/124/142 328/304/191 329/305/192
f 171/119/138 330/306/193 331/309/195
f 172/114/133 325/310/196 165/129/147
f 172/114/133 165/129/147 324/115/134
f 268/117/136 171/307/138 172/114/133
f 249/118/137 170/122/140 171/119/138
f 230/121/139 169/124/142 170/122/140
f 211/123/141 168/302/189 169/124/142
f 167/125/143 168/302/189 211/123/141
f 166/127/145 167/125/143 192/126/144
f 165/129/147 166/127/145 173/128/146
f 306/130/148 191/134/152 158/131/149
f 306/130/148 307/136/153 190/133/151
f 308/135/134 189/138/146 190/133/151
f 309/137/154 188/140/155 189/138/146
f 310/139/148 187/142/152 188/140/155
f 310/139/148 311/144/153 186/141/151
f 312/143/134 185/146/146 186/141/151
f 313/145/154 184/148/155 185/146/146
f 314/147/148 183/150/152 184/148/155
f 314/147/148 315/152/153 182/149/151
f 316/151/134 181/154/146 182/149/151
f 317/153/154 180/156/156 181/154/146
f 318/155/148 179/158/152 180/156/156
f 319/157/153 178/160/151 179/158/152
f 320/159/134 177/162/146 178/160/151
f 321/161/154 176/164/155 177/162/146
f 322/163/148 175/166/152 176/164/155
f 322/163/148 323/167/153 174/165/151
f 324/115/134 173/128/146 174/165/151
f 191/134/152 210/170/159 159/168/157
f 191/134/152 190/133/151 209/169/158
f 189/138/146 208/171/144 209/169/158
f 188/140/155 207/172/160 208/171/144
f 187/142/152 206/174/159 207/172/160
f 187/142/152 186/141/151 205/173/161
f 185/146/146 204/175/144 205/173/161
f 184/148/155 203/176/160 204/175/144
f 183/150/152 202/178/159 203/176/160
f 183/150/152 182/149/151 201/177/158
f 181/154/146 200/179/144 201/177/158
f 180/156/156 199/180/160 200/179/144
f 179/158/152 198/182/159 199/180/160
f 179/158/152 178/160/151 197/181/158
f 177/162/146 196/183/144 197/181/158
f 176/164/155 195/184/160 196/183/144
f 175/166/152 194/186/159 195/184/160
f 175/166/152 174/165/151 193/185/158
f 173/128/146 192/126/144 193/185/158
f 159/168/157 210/170/159 229/187/162
f 210/170/159 209/169/158 228/189/164
f 209/169/158 208/171/144 227/190/141
f 207/172/160 226/192/165 227/190/141
f 207/172/160 206/174/159 225/191/162
f 206/174/159 205/173/161 224/193/164
f 205/173/161 204/175/144 223/194/141
f 204/175/144 203/176/160 222/195/166
f 203/176/160 202/178/159 221/196/162
f 202/178/159 201/177/158 220/197/164
f 201/177/158 200/179/144 219/198/141
f 199/180/160 218/200/166 219/198/141
f 199/180/160 198/182/159 217/199/162
f 198/182/159 197/181/158 216/201/164
f 197/181/158 196/183/144 215/202/141
f 196/183/144 195/184/160 214/203/166
f 195/184/160 194/186/159 213/204/162
f 194/186/159 193/185/158 212/205/164
f 193/185/158 192/126/144 211/123/141
f 160/188/163 229/187/162 248/206/167
f 229/187/162 228/189/164 247/208/169
f 228/189/164 227/190/141 246/209/139
f 227/190/141 226/192/165 245/210/170
f 226/192/165 225/191/162 244/211/167
f 225/191/162 224/193/164 243/212/169
f 224/193/164 223/194/141 242/213/139
f 223/194/141 222/195/166 241/214/170
f 222/195/166 221/196/162 240/215/167
f 221/196/162 220/197/164 239/216/169
f 220/197/164 219/198/141 238/217/139
f 219/198/141 218/200/166 237/218/170
f 218/200/166 217/199/162 236/219/167
f 217/199/162 216/201/164 235/220/169
f 216/201/164 215/202/141 234/221/139
f 215/202/141 214/203/166 233/222/170
f 214/203/166 213/204/162 232/223/167
f 212/205/164 231/224/169 232/223/167
f 212/205/164 211/123/141 230/121/139
f 161/207/168 248/206/167 267/225/171
f 247/208/169 266/228/173 267/225/171
f 247/208/169 246/209/139 265/227/137
f 246/209/139 245/210/170 264/229/174
f 245/210/170 244/211/167 263/230/175
f 243/212/169 262/232/173 263/230/175
f 243/212/169 242/213/139 261/231/137
f 242/213/139 241/214/170 260/233/174
f 241/214/170 240/215/167 259/234/175
f 239/216/169 258/236/173 259/234/175
f 239/216/169 238/217/139 257/235/137
f 238/217/139 237/218/170 256/237/174
f 237/218/170 236/219/167 255/238/175
f 235/220/169 254/240/173 255/238/175
f 235/220/169 234/221/139 253/239/137
f 234/221/139 233/222/170 252/241/174
f 233/222/170 232/223/167 251/242/175
f 231/224/169 250/243/173 251/242/175
f 231/224/169 230/121/139 249/118/137
f 162/226/172 267/225/171 286/244/176
f 266/228/173 285/247/178 286/244/176
f 266/228/173 265/227/137 284/246/136
f 265/227/137 264/229/174 283/248/179
f 264/229/174 263/230/175 282/249/180
f 262/232/173 281/251/178 282/249/180
f 262/232/173 261/231/137 280/250/181
f 261/231/137 260/233/174 279/252/179
f 260/233/174 259/234/175 278/253/180
f 258/236/173 277/255/178 278/253/180
f 258/236/173 257/235/137 276/254/181
f 257/235/137 256/237/174 275/256/179
f 256/237/174 255/238/175 274/257/180
f 255/238/175 254/240/173 273/258/182
f 254/240/173 253/239/137 272/259/181
f 253/239/137 252/241/174 271/260/179
f 252/241/174 251/242/175 270/261/176
f 250/243/173 269/262/178 270/261/176
f 250/243/173 249/118/137 268/120/136
f 286/263/176 305/267/184 164/264/183
f 285/266/178 304/269/185 305/267/184
f 284/268/136 303/271/135 304/269/185
f 284/268/136 283/273/179 302/270/186
f 282/272/180 301/275/187 302/270/186
f 281/274/178 300/277/185 301/275/187
f 280/276/181 299/279/135 300/277/185
f 280/276/181 279/281/179 298/278/186
f 278/280/180 297/283/187 298/278/186
f 277/282/178 296/285/185 297/283/187
f 276/284/181 295/287/135 296/285/185
f 276/284/181 275/289/179 294/286/186
f 274/288/180 293/291/184 294/286/186
f 273/290/182 292/293/185 293/291/184
f 272/292/181 291/295/135 292/293/185
f 272/292/181 271/297/179 290/294/186
f 270/296/176 289/299/187 290/294/186
f 269/298/178 288/300/185 289/299/187
f 268/117/136 287/116/135 288/300/185
f 305/267/184 306/130/148 157/132/150
f 305/267/184 304/269/185 307/136/153
f 303/271/135 308/135/134 307/136/153
f 302/270/186 309/137/154 308/135/134
f 301/275/187 310/139/148 309/137/154
f 300/277/185 311/144/153 310/139/148
f 299/279/135 312/143/134 311/144/153
f 298/278/186 313/145/154 312/143/134
f 297/283/187 314/147/148 313/145/154
f 296/285/185 315/152/153 314/147/148
f 295/287/135 316/151/134 315/152/153
f 294/286/186 317/153/154 316/151/134
f 293/291/184 318/155/148 317/153/154
f 292/293/185 319/157/153 318/155/148
f 291/295/135 320/159/134 319/157/153
f 290/294/186 321/161/154 320/159/134
f 289/299/187 322/163/148 321/161/154
f 289/299/187 288/300/185 323/167/153
f 287/116/135 324/115/134 323/167/153
f 165/129/147 325/310/196 326/301/188
f 168/302/189 167/125/143 327/303/190
f 170/122/140 169/124/142 329/305/192
f 171/307/138 331/311/195 332/308/194
f 166/127/145 326/301/188 327/303/190
f 169/124/142 168/302/189 328/304/191
f 171/119/138 170/122/140 330/306/193
f 172/114/133 332/308/194 325/310/196
