# Blender 5.0.1
# www.blender.org
mtllib registration_arm_outer_single.mtl
g registration_arm_outer_single
o RegistrationArmOuterSingle
v 1.804528 6.358242 0.011397
v 1.804528 6.369555 0.016083
v 1.804528 6.358242 -0.011230
v 1.804528 6.369555 -0.015917
v 1.804528 6.380869 -0.011230
v 1.804527 6.385555 0.000083
v 1.804528 6.380869 0.011397
v 1.804528 6.353556 0.000083
v -0.932536 6.358242 0.011258
v -0.932536 6.369555 0.015944
v -0.932536 6.358242 -0.011370
v -0.932536 6.385555 -0.000056
v -0.932536 6.380869 0.011258
v -0.932541 6.350000 0.002288
v -1.032542 6.350000 0.002288
v -1.032537 6.370000 -0.020196
v -0.932537 6.370000 -0.020196
v -1.032537 6.355858 -0.014338
v -0.932537 6.355858 -0.014338
v -1.032537 6.355858 0.013946
v -0.932537 6.355858 0.013946
v -1.032537 6.370000 0.019804
v -0.932537 6.370000 0.019804
v -1.032537 6.384142 0.013946
v -0.932537 6.384142 0.013946
v -1.032537 6.390000 -0.000196
v -0.932537 6.390000 -0.000196
v -1.032537 6.384142 -0.014338
v -0.932537 6.384142 -0.014338
v -0.932536 6.353556 -0.000056
v -1.032537 6.353556 -0.000196
v -1.032537 6.369555 -0.016196
v -1.032537 6.358242 -0.011510
v -0.932536 6.369555 -0.016056
v -1.032537 6.358242 0.011118
v -1.032537 6.369555 0.015804
v -1.032537 6.380869 0.011118
v -1.032537 6.385555 -0.000196
v -1.032537 6.380869 -0.011510
v -0.932536 6.380869 -0.011370
v -1.198843 6.353556 -0.000196
v -1.198843 6.369555 -0.016196
v -1.198843 6.358242 -0.011510
v -1.198843 6.358242 0.011118
v -1.198843 6.369555 0.015804
v -1.198843 6.380869 0.011118
v -1.198843 6.385555 -0.000196
v -1.198843 6.380869 -0.011510
v -0.308906 6.000000 0.006551
v -1.006807 6.301972 0.006552
v -0.649906 6.200000 0.006552
v -0.290903 6.019967 0.006551
v -0.999906 6.329857 0.006552
v -0.634256 6.223782 0.006552
v -0.290903 6.000000 0.006551
v -0.649906 6.200000 0.002552
v -1.006807 6.301972 0.002552
v -0.308906 6.000000 0.002551
v -0.634256 6.223782 0.002552
v -0.999906 6.329857 0.002552
v -0.290903 6.019967 0.002551
v -0.290903 6.000000 0.002551
v -0.932941 6.310431 0.002552
v -0.933024 6.301970 -0.002448
v -0.932541 6.350000 -0.002712
v -1.032542 6.350000 -0.002712
v -1.032253 6.301970 0.002552
v -1.032253 6.301970 -0.002448
v -0.933024 6.301970 0.002552
vn -0.0001 -0.0000 1.0000
vn -0.0000 -0.7071 0.7071
vn -0.0000 -0.7071 -0.7071
vn -0.0000 -1.0000 -0.0000
vn 0.0001 -0.0000 -1.0000
vn -0.0000 0.7071 -0.7071
vn -0.0000 0.7071 0.7071
vn -0.0000 1.0000 -0.0000
vn -0.0000 -0.0000 -1.0000
vn -0.0000 -0.6805 -0.7328
vn -0.0000 -0.8930 -0.4500
vn -0.0000 -0.8935 0.4490
vn -0.0000 -0.6809 0.7324
vn -0.0000 -0.6808 0.7324
vn -0.0000 -0.0000 1.0000
vn 1.0000 -0.0003 0.0001
vn 1.0000 -0.0000 0.0002
vn 1.0000 -0.0013 -0.0003
vn 1.0000 -0.0004 -0.0001
vn 1.0000 -0.0014 -0.0000
vn -1.0000 0.0011 -0.0002
vn -1.0000 0.0002 0.0001
vn -1.0000 0.0011 -0.0000
vn -1.0000 0.0001 -0.0001
vn -1.0000 -0.0000 -0.0000
vn 1.0000 -0.0003 -0.0001
vn 1.0000 -0.0000 -0.0002
vn 1.0000 0.0002 -0.0001
vn 1.0000 0.0002 -0.0000
vn 1.0000 0.0002 -0.0002
vn 1.0000 0.0002 0.0002
vn 1.0000 -0.0013 0.0003
vn 1.0000 -0.0004 0.0001
vn -1.0000 0.0011 0.0002
vn -1.0000 0.0002 -0.0001
vn -1.0000 0.0001 0.0001
vn 0.5104 0.8599 -0.0000
vn -0.5059 -0.8626 -0.0000
vn -0.9707 0.2402 -0.0000
vn 0.2786 0.9604 -0.0000
vn 0.2786 0.9604 0.0002
vn -0.2747 -0.9615 -0.0000
vn 1.0000 -0.0000 -0.0000
vn 0.0004 0.0118 0.9999
vn 0.0016 0.0079 1.0000
vn -0.0000 0.0131 0.9999
vn 1.0000 -0.0098 -0.0000
vn -0.0000 -1.0000 0.0004
vn 0.0001 -1.0000 -0.0000
vn -0.0000 -0.0055 -1.0000
vn 0.9999 -0.0100 0.0005
vn 0.9999 -0.0101 -0.0000
vn -1.0000 -0.0060 -0.0000
vn -0.0032 0.0037 1.0000
vn -0.0026 0.0030 1.0000
vn -0.0000 -0.6804 -0.7328
vn 0.0019 0.0067 1.0000
vn -0.0047 0.0055 1.0000
vt 0.983856 0.014273
vt 0.982106 0.007273
vt 0.983856 0.007273
vt 0.978606 0.007273
vt 0.980356 0.014273
vt 0.978606 0.014273
vt 0.976856 0.007273
vt 0.975106 0.014273
vt 0.975106 0.007273
vt 0.982106 0.014273
vt 0.980356 0.007273
vt 0.971606 0.007273
vt 0.969856 0.014273
vt 0.969856 0.007273
vt 0.971606 0.014273
vt 0.973356 0.007273
vt 0.973356 0.014273
vt 0.976856 0.014273
vt 0.969856 0.000273
s 1
usemtl Catenary
f 10/1/1 1/2/2 2/3/1
f 3/4/3 30/5/4 11/6/3
f 4/7/5 40/8/6 5/9/6
f 9/10/2 8/11/4 1/2/2
f 7/12/7 10/13/1 2/14/1
f 13/15/7 6/16/8 12/17/8
f 40/8/6 6/16/8 5/9/6
f 17/1/9 18/2/10 16/3/9
f 18/2/10 65/5/11 66/11/11
f 14/5/12 20/4/13 15/11/12
f 21/6/14 22/7/15 20/4/13
f 23/18/15 24/9/7 22/7/15
f 25/8/7 26/16/8 24/9/7
f 27/17/8 28/12/6 26/16/8
f 29/15/6 16/14/9 28/12/6
f 21/6/16 10/18/17 23/18/17
f 65/5/18 11/10/19 30/5/20
f 15/11/21 35/4/22 31/11/23
f 18/2/24 32/3/25 16/3/25
f 28/12/25 38/16/25 26/16/25
f 19/10/26 34/1/27 11/10/19
f 29/15/28 12/17/29 40/15/30
f 22/7/25 37/9/25 36/7/25
f 23/18/17 13/8/31 25/8/31
f 16/14/25 39/12/25 28/12/25
f 14/5/32 9/6/33 21/6/16
f 17/13/27 40/15/30 34/13/27
f 14/19/32 65/19/18 30/19/20
f 24/9/25 38/16/25 37/9/25
f 66/11/34 33/2/35 18/2/24
f 66/19/34 15/19/21 31/19/23
f 25/8/31 12/17/29 27/17/29
f 20/4/36 36/7/25 35/4/22
f 39/12/6 47/16/8 38/16/8
f 37/9/7 45/7/15 36/7/15
f 33/2/3 42/3/9 32/3/9
f 35/4/2 41/11/4 31/11/4
f 31/11/4 43/2/3 33/2/3
f 32/14/9 48/12/6 39/12/6
f 38/16/8 46/9/7 37/9/7
f 36/7/15 44/4/2 35/4/2
f 44/4/25 46/9/25 48/12/25
f 49/19/15 54/19/15 51/19/15
f 51/19/15 53/19/15 50/19/15
f 52/19/15 49/19/15 55/19/15
f 59/19/9 58/19/9 56/19/9
f 69/19/9 59/19/9 56/19/9
f 61/19/9 62/19/9 58/19/9
f 61/19/37 54/19/37 52/19/37
f 56/19/38 49/19/38 51/19/38
f 53/19/39 57/19/39 50/19/39
f 59/19/40 63/19/41 53/19/40
f 57/19/42 51/19/42 50/19/42
f 62/19/43 52/19/43 55/19/43
f 60/19/44 14/19/45 15/19/46
f 69/19/47 64/19/47 63/19/47
f 64/19/4 69/19/4 57/19/4
f 57/19/48 68/19/49 64/19/48
f 64/19/50 66/19/50 65/19/50
f 63/19/51 65/19/52 14/19/52
f 15/19/53 68/19/53 67/19/53
f 68/19/50 66/19/50 64/19/50
f 60/19/54 67/19/55 57/19/15
f 11/6/3 4/7/5 3/4/3
f 10/1/1 9/10/2 1/2/2
f 3/4/3 8/11/4 30/5/4
f 4/7/5 34/18/5 40/8/6
f 9/10/2 30/5/4 8/11/4
f 7/12/7 13/15/7 10/13/1
f 13/15/7 7/12/7 6/16/8
f 40/8/6 12/17/8 6/16/8
f 17/1/9 19/10/56 18/2/10
f 18/2/10 19/10/56 65/5/11
f 14/5/12 21/6/14 20/4/13
f 21/6/14 23/18/15 22/7/15
f 23/18/15 25/8/7 24/9/7
f 25/8/7 27/17/8 26/16/8
f 27/17/8 29/15/6 28/12/6
f 29/15/6 17/13/9 16/14/9
f 21/6/16 9/6/33 10/18/17
f 65/5/18 19/10/26 11/10/19
f 15/11/21 20/4/36 35/4/22
f 18/2/24 33/2/35 32/3/25
f 28/12/25 39/12/25 38/16/25
f 19/10/26 17/1/27 34/1/27
f 29/15/28 27/17/29 12/17/29
f 22/7/25 24/9/25 37/9/25
f 23/18/17 10/18/17 13/8/31
f 16/14/25 32/14/25 39/12/25
f 14/5/32 30/5/20 9/6/33
f 17/13/27 29/15/28 40/15/30
f 24/9/25 26/16/25 38/16/25
f 66/11/34 31/11/23 33/2/35
f 25/8/31 13/8/31 12/17/29
f 20/4/36 22/7/25 36/7/25
f 39/12/6 48/12/6 47/16/8
f 37/9/7 46/9/7 45/7/15
f 33/2/3 43/2/3 42/3/9
f 35/4/2 44/4/2 41/11/4
f 31/11/4 41/11/4 43/2/3
f 32/14/9 42/14/9 48/12/6
f 38/16/8 47/16/8 46/9/7
f 36/7/15 45/7/15 44/4/2
f 48/12/25 42/14/25 43/2/25
f 43/2/25 41/11/25 44/4/25
f 44/4/25 45/7/25 46/9/25
f 46/9/25 47/16/25 48/12/25
f 48/12/25 43/2/25 44/4/25
f 49/19/15 52/19/15 54/19/15
f 51/19/15 54/19/15 53/19/15
f 59/19/9 61/19/9 58/19/9
f 56/19/9 57/19/9 69/19/9
f 69/19/9 63/19/9 59/19/9
f 61/19/37 59/19/37 54/19/37
f 56/19/38 58/19/38 49/19/38
f 53/19/39 60/19/39 57/19/39
f 53/19/40 54/19/40 59/19/40
f 63/19/41 60/19/40 53/19/40
f 57/19/42 56/19/42 51/19/42
f 62/19/43 61/19/43 52/19/43
f 60/19/44 63/19/57 14/19/45
f 57/19/48 67/19/49 68/19/49
f 63/19/51 64/19/51 65/19/52
f 15/19/53 66/19/53 68/19/53
f 60/19/54 15/19/58 67/19/55
f 11/6/3 34/18/5 4/7/5
o GantryInsulator.003
v -0.300000 7.039817 -0.008762
v -0.300000 7.054616 -0.102362
v -0.300000 7.130641 -0.022523
v -0.300000 7.140331 -0.102362
v -0.300000 7.216355 -0.038935
v -0.272291 7.216355 -0.027457
v -0.229289 7.140331 -0.073072
v -0.285157 7.130641 -0.016375
v -0.229289 7.054616 -0.073072
v -0.293626 7.039817 -0.006122
v -0.260813 7.216355 0.000252
v -0.200000 7.140331 -0.002362
v -0.279008 7.130641 -0.001531
v -0.200000 7.054616 -0.002362
v -0.290986 7.039817 0.000252
v -0.272291 7.216355 0.027961
v -0.229289 7.140331 0.068349
v -0.285960 7.130641 0.014596
v -0.229289 7.054616 0.068349
v -0.293626 7.039817 0.006626
v -0.300000 7.216355 0.039439
v -0.300000 7.140331 0.097638
v -0.300000 7.130641 0.020487
v -0.300000 7.054616 0.097638
v -0.300000 7.039817 0.009266
v -0.327709 7.216355 0.027961
v -0.370711 7.140331 0.068349
v -0.314040 7.130641 0.014596
v -0.370711 7.054616 0.068349
v -0.306374 7.039817 0.006626
v -0.339187 7.216355 0.000252
v -0.400000 7.140331 -0.002362
v -0.320992 7.130641 -0.001531
v -0.400000 7.054616 -0.002362
v -0.309014 7.039817 0.000252
v -0.327709 7.216355 -0.027457
v -0.370711 7.140331 -0.073072
v -0.314843 7.130641 -0.016375
v -0.370711 7.054616 -0.073072
v -0.306374 7.039817 -0.006122
v -0.300000 7.216355 -0.018017
v -0.287082 7.216355 -0.012666
v -0.281731 7.216355 0.000252
v -0.287082 7.216355 0.013170
v -0.300000 7.216355 0.018521
v -0.312918 7.216355 0.013170
v -0.318269 7.216355 0.000252
v -0.312918 7.216355 -0.012666
v -0.300000 7.334884 -0.018017
v -0.287082 7.334884 -0.012666
v -0.281731 7.334884 0.000252
v -0.287082 7.334884 0.013170
v -0.300000 7.334884 0.018521
v -0.312918 7.334884 0.013170
v -0.318269 7.334884 0.000252
v -0.312918 7.334884 -0.012666
v -0.300000 7.350073 0.000252
v -0.281731 7.350073 0.000252
v -0.318269 7.350073 0.000252
v -0.312918 7.334884 0.034277
v -0.318269 7.334884 0.021358
v -0.300000 7.334884 0.039627
v -0.287082 7.334884 0.034277
v -0.281731 7.334884 0.021358
v -0.312918 7.350073 0.034277
v -0.318269 7.350073 0.021358
v -0.300000 7.350073 0.039627
v -0.287082 7.350073 0.034277
v -0.281731 7.350073 0.021358
v -0.312918 7.334884 -0.034282
v -0.300000 7.334884 -0.039633
v -0.318269 7.334884 -0.021364
v -0.287082 7.334884 -0.034282
v -0.281731 7.334884 -0.021364
v -0.312918 7.350073 -0.034282
v -0.300000 7.350073 -0.039633
v -0.318269 7.350073 -0.021364
v -0.287082 7.350073 -0.034282
v -0.281731 7.350073 -0.021364
v -0.300000 6.379152 -0.008762
v -0.293626 6.379152 -0.006122
v -0.290986 6.379152 0.000252
v -0.293626 6.379152 0.006626
v -0.300000 6.379152 0.009266
v -0.306374 6.379152 0.006626
v -0.309014 6.379152 0.000252
v -0.306374 6.379152 -0.006122
vn -0.1109 -0.9875 -0.1117
vn -0.0000 -0.9877 -0.1562
vn -0.1122 -0.9875 -0.1105
vn -0.4879 0.7231 -0.4889
vn -0.0000 0.7242 -0.6896
vn -0.0853 -0.9927 -0.0856
vn -0.0000 -0.9927 -0.1205
vn -0.0857 -0.9927 -0.0852
vn -0.5436 0.6361 -0.5477
vn -0.0000 0.6406 -0.7679
vn -0.1605 -0.9870 -0.0008
vn -0.1606 -0.9870 0.0017
vn -0.6934 0.7206 -0.0010
vn -0.4893 0.7231 -0.4875
vn -0.1217 -0.9926 -0.0002
vn -0.1213 -0.9926 0.0010
vn -0.7808 0.6247 -0.0042
vn -0.5489 0.6360 -0.5424
vn -0.1162 -0.9865 0.1154
vn -0.1149 -0.9865 0.1167
vn -0.4952 0.7160 0.4921
vn -0.6917 0.7222 0.0052
vn -0.0876 -0.9924 0.0869
vn -0.0857 -0.9924 0.0888
vn -0.5609 0.6129 0.5566
vn -0.7810 0.6245 0.0066
vn -0.0000 -0.9863 0.1652
vn -0.0000 0.7126 0.7016
vn -0.4872 0.7158 0.5003
vn -0.0000 -0.9922 0.1245
vn -0.0000 -0.9922 0.1246
vn -0.0000 0.6079 0.7940
vn -0.5554 0.6128 0.5621
vn 0.1149 -0.9865 0.1167
vn 0.4872 0.7158 0.5003
vn 0.4952 0.7160 0.4921
vn 0.0857 -0.9924 0.0888
vn 0.5554 0.6128 0.5621
vn 0.5609 0.6129 0.5566
vn 0.1606 -0.9870 0.0017
vn 0.1162 -0.9865 0.1154
vn 0.6917 0.7222 0.0052
vn 0.6934 0.7206 -0.0010
vn 0.1213 -0.9926 0.0010
vn 0.0876 -0.9924 0.0869
vn 0.7810 0.6245 0.0066
vn 0.7808 0.6247 -0.0042
vn 0.1122 -0.9875 -0.1105
vn 0.1605 -0.9870 -0.0008
vn 0.4893 0.7231 -0.4875
vn 0.4879 0.7231 -0.4889
vn 0.0857 -0.9927 -0.0852
vn 0.1217 -0.9926 -0.0002
vn 0.5489 0.6360 -0.5424
vn 0.5436 0.6361 -0.5477
vn 0.1109 -0.9875 -0.1117
vn 0.0853 -0.9927 -0.0856
vn -0.0000 0.7123 0.7019
vn -0.0000 1.0000 -0.0000
vn 0.7071 -0.0000 0.7071
vn -0.0000 -0.0000 1.0000
vn -0.7071 -0.0000 0.7071
vn -1.0000 -0.0000 -0.0000
vn -0.7071 -0.0000 -0.7071
vn -0.0000 -0.0000 -1.0000
vn 0.7071 -0.0000 -0.7071
vn 1.0000 -0.0000 -0.0000
vn 0.9701 -0.2425 -0.0000
vn 0.9808 -0.0000 -0.1951
vn -0.0000 -1.0000 -0.0000
vn 0.7319 -0.6657 0.1456
vn -0.9808 -0.0000 0.1951
vn -0.7319 -0.6657 0.1456
vn -0.9701 -0.2425 -0.0000
vn 0.7319 -0.6657 -0.1456
vn -0.7319 -0.6657 -0.1456
vn 0.9808 -0.0000 0.1951
vn -0.9808 -0.0000 -0.1951
vt 0.959703 0.009387
vt 0.960882 0.008099
vt 0.960684 0.009187
vt 0.957954 0.007566
vt 0.960035 0.007566
vt 0.962915 0.005744
vt 0.961736 0.007033
vt 0.961934 0.005945
vt 0.964664 0.007566
vt 0.962584 0.007566
vt 0.958751 0.010974
vt 0.960309 0.010184
vt 0.959740 0.011133
vt 0.957756 0.008654
vt 0.963867 0.004157
vt 0.962309 0.004947
vt 0.962878 0.003998
vt 0.964862 0.006477
vt 0.957301 0.012125
vt 0.959037 0.011934
vt 0.958171 0.012621
vt 0.957187 0.009603
vt 0.965317 0.003006
vt 0.963581 0.003197
vt 0.964447 0.002510
vt 0.965431 0.005529
vt 0.955539 0.012691
vt 0.957231 0.013124
vt 0.956177 0.013462
vt 0.956321 0.010290
vt 0.967079 0.002440
vt 0.965388 0.002008
vt 0.966441 0.001669
vt 0.966297 0.004841
vt 0.957231 0.002008
vt 0.955539 0.002440
vt 0.956177 0.001669
vt 0.956321 0.004841
vt 0.957301 0.003006
vt 0.965388 0.013124
vt 0.967079 0.012691
vt 0.966441 0.013462
vt 0.966297 0.010290
vt 0.965317 0.012125
vt 0.959037 0.003197
vt 0.958171 0.002510
vt 0.957187 0.005529
vt 0.958751 0.004157
vt 0.963581 0.011934
vt 0.964447 0.012621
vt 0.965431 0.009603
vt 0.963867 0.010974
vt 0.960309 0.004947
vt 0.959740 0.003998
vt 0.957756 0.006477
vt 0.959703 0.005744
vt 0.962309 0.010184
vt 0.962878 0.011133
vt 0.964862 0.008654
vt 0.962915 0.009387
vt 0.960882 0.007033
vt 0.960684 0.005945
vt 0.961736 0.008099
vt 0.961934 0.009187
vt 0.955268 0.010628
vt 0.967350 0.004503
vt 0.955268 0.004503
vt 0.967350 0.010628
vt 0.981114 0.009656
vt 0.982013 0.009945
vt 0.981114 0.005003
vt 0.980374 0.005590
vt 0.979888 0.006400
vt 0.979719 0.007329
vt 0.979888 0.008259
vt 0.980374 0.009069
vt 0.982013 0.004714
vt 0.924092 -0.341471
vt 0.974914 0.011060
vt 0.974174 0.011647
vt 0.975514 0.004283
vt 0.976000 0.005093
vt 0.973371 0.012076
vt 0.972472 0.012365
vt 0.976321 0.005945
vt 0.976490 0.006874
vt 0.976490 0.007784
vt 0.976321 0.008714
vt 0.972472 0.002294
vt 0.973371 0.002583
vt 0.976000 0.009566
vt 0.975514 0.010376
vt 0.974174 0.003012
vt 0.974914 0.003599
s 1
usemtl Catenary
f 108/20/59 70/21/60 109/22/61
f 108/20/62 72/23/63 71/24/63
f 106/25/64 72/26/65 107/27/66
f 106/25/67 74/28/68 73/29/68
f 103/30/69 109/31/61 104/32/70
f 103/30/71 107/33/72 108/20/62
f 101/34/73 107/35/66 102/36/74
f 101/34/75 105/37/76 106/25/67
f 98/38/77 104/39/70 99/40/78
f 98/38/79 102/41/80 103/30/71
f 96/42/81 102/43/74 97/44/82
f 96/42/83 100/45/84 101/34/75
f 93/46/85 99/47/78 94/48/85
f 93/46/86 97/49/87 98/38/79
f 91/50/88 97/51/82 92/52/89
f 91/50/90 95/53/91 96/42/83
f 89/54/92 93/55/85 94/56/85
f 87/57/93 93/55/86 88/58/94
f 87/59/95 91/60/88 92/61/89
f 85/62/96 91/60/90 86/63/97
f 84/64/98 88/58/99 89/65/92
f 82/66/100 88/58/94 83/67/101
f 82/68/102 86/63/103 87/69/95
f 80/70/104 86/63/97 81/71/105
f 79/72/106 83/67/107 84/73/98
f 77/74/108 83/67/101 78/75/109
f 77/76/110 81/71/111 82/77/102
f 75/78/112 81/71/105 76/79/113
f 70/80/60 78/75/114 79/81/106
f 72/23/63 78/75/109 71/24/63
f 72/82/65 76/79/115 77/83/110
f 74/28/68 76/79/113 73/29/68
f 108/20/59 71/24/60 70/21/60
f 108/20/62 107/33/72 72/23/63
f 106/25/64 73/29/65 72/26/65
f 106/25/67 105/37/76 74/28/68
f 103/30/69 108/20/59 109/31/61
f 103/30/71 102/41/80 107/33/72
f 101/34/73 106/25/64 107/35/66
f 101/34/75 100/45/84 105/37/76
f 98/38/77 103/30/69 104/39/70
f 98/38/79 97/49/87 102/41/80
f 96/42/81 101/34/73 102/43/74
f 96/42/83 95/53/91 100/45/84
f 93/46/85 98/38/77 99/47/78
f 93/46/86 92/84/116 97/49/87
f 91/50/88 96/42/81 97/51/82
f 91/50/90 90/85/90 95/53/91
f 89/54/92 88/58/99 93/55/85
f 87/57/93 92/86/116 93/55/86
f 87/59/95 86/63/103 91/60/88
f 85/62/96 90/87/90 91/60/90
f 84/64/98 83/67/107 88/58/99
f 82/66/100 87/57/93 88/58/94
f 82/68/102 81/71/111 86/63/103
f 80/70/104 85/62/96 86/63/97
f 79/72/106 78/75/114 83/67/107
f 77/74/108 82/66/100 83/67/101
f 77/76/110 76/79/115 81/71/111
f 75/78/112 80/70/104 81/71/105
f 70/80/60 71/24/60 78/75/114
f 72/23/63 77/74/108 78/75/109
f 72/82/65 73/29/65 76/79/115
f 74/28/68 75/78/112 76/79/113
f 100/45/117 117/37/117 105/37/117
f 80/70/117 113/62/117 85/62/117
f 95/53/117 116/45/117 100/45/117
f 75/78/117 112/70/117 80/70/117
f 90/85/117 115/53/117 95/53/117
f 75/78/117 110/28/117 111/78/117
f 105/37/117 110/28/117 74/28/117
f 85/62/117 114/87/117 90/87/117
f 113/88/118 122/89/119 114/89/119
f 115/90/120 124/91/121 116/91/121
f 117/92/122 118/93/123 110/93/123
f 110/93/123 119/94/124 111/94/124
f 112/95/125 121/88/118 113/88/118
f 114/96/119 123/90/120 115/90/120
f 116/91/121 125/92/122 117/92/122
f 111/94/124 120/95/125 112/95/125
f 120/95/126 148/95/127 127/95/125
f 122/89/128 132/88/128 131/89/128
f 127/95/125 133/95/129 120/95/126
f 118/93/128 142/94/128 119/94/128
s 0
f 126/97/117 146/97/117 128/97/117
f 126/97/117 136/97/117 137/97/117
s 1
f 122/96/128 129/90/128 123/90/128
f 118/93/128 139/92/128 140/93/128
f 132/88/118 136/89/119 131/89/119
f 129/90/120 135/91/130 130/91/131
f 133/95/129 137/88/118 132/88/118
f 131/96/119 134/90/120 129/90/120
s 0
f 126/97/117 138/97/117 127/97/117
s 1
f 124/91/132 135/91/130 128/91/121
s 0
f 126/97/117 135/97/117 134/97/117
s 1
f 121/88/128 133/95/129 132/88/128
f 123/90/128 130/91/131 124/91/132
s 0
f 126/97/117 134/97/117 136/97/117
s 1
f 142/94/124 148/95/127 143/95/133
f 139/92/122 145/93/123 140/93/123
f 140/93/123 147/94/124 142/94/124
f 141/91/134 144/92/122 139/92/122
f 128/91/121 141/91/134 124/91/132
f 125/92/128 141/91/134 139/92/128
s 0
f 126/97/117 148/97/117 147/97/117
f 126/97/117 145/97/117 144/97/117
f 126/97/117 147/97/117 145/97/117
s 1
f 119/94/128 143/95/133 120/95/126
f 104/98/121 154/99/120 99/99/120
f 84/100/125 150/101/124 79/101/124
f 99/102/120 153/103/119 94/103/119
f 79/104/124 149/105/123 70/105/123
f 70/106/123 156/107/122 109/107/122
f 94/108/119 152/109/118 89/109/118
f 109/110/122 155/111/121 104/111/121
f 89/112/118 151/113/125 84/113/125
f 100/45/117 116/45/117 117/37/117
f 80/70/117 112/70/117 113/62/117
f 95/53/117 115/53/117 116/45/117
f 75/78/117 111/78/117 112/70/117
f 90/85/117 114/85/117 115/53/117
f 75/78/117 74/28/117 110/28/117
f 105/37/117 117/37/117 110/28/117
f 85/62/117 113/62/117 114/87/117
f 113/88/118 121/88/118 122/89/119
f 115/90/120 123/90/120 124/91/121
f 117/92/122 125/92/122 118/93/123
f 110/93/123 118/93/123 119/94/124
f 112/95/125 120/95/125 121/88/118
f 114/96/119 122/96/119 123/90/120
f 116/91/121 124/91/121 125/92/122
f 111/94/124 119/94/124 120/95/125
f 120/95/126 143/95/133 148/95/127
f 122/89/128 121/88/128 132/88/128
f 127/95/125 138/95/135 133/95/129
f 118/93/128 140/93/128 142/94/128
s 0
f 126/97/117 144/97/117 146/97/117
s 1
f 122/96/128 131/96/128 129/90/128
f 118/93/128 125/92/128 139/92/128
f 132/88/118 137/88/118 136/89/119
f 129/90/120 134/90/120 135/91/130
f 133/95/129 138/95/135 137/88/118
f 131/96/119 136/96/119 134/90/120
s 0
f 126/97/117 137/97/117 138/97/117
s 1
f 124/91/132 130/91/131 135/91/130
s 0
f 126/97/117 128/97/117 135/97/117
s 1
f 121/88/128 120/95/126 133/95/129
f 123/90/128 129/90/128 130/91/131
f 142/94/124 147/94/124 148/95/127
f 139/92/122 144/92/122 145/93/123
f 140/93/123 145/93/123 147/94/124
f 141/91/134 146/91/136 144/92/122
f 128/91/121 146/91/136 141/91/134
f 125/92/128 124/91/132 141/91/134
s 0
f 126/97/117 127/97/117 148/97/117
s 1
f 119/94/128 142/94/128 143/95/133
f 104/98/121 155/98/121 154/99/120
f 84/100/125 151/100/125 150/101/124
f 99/102/120 154/102/120 153/103/119
f 79/104/124 150/104/124 149/105/123
f 70/106/123 149/106/123 156/107/122
f 94/108/119 153/108/119 152/109/118
f 109/110/122 156/110/122 155/111/121
f 89/112/118 152/112/118 151/113/125
o Cantileverindulator.029
v 1.782128 6.369318 -0.027084
v 1.782125 6.353548 -0.020551
v 1.782123 6.347015 -0.004780
v 1.782125 6.353548 0.010991
v 1.782128 6.369318 0.017523
v 1.782131 6.385089 0.010991
v 1.782132 6.391622 -0.004780
v 1.782131 6.385089 -0.020551
v 2.063907 6.369247 -0.027084
v 2.063904 6.353476 -0.020551
v 2.063903 6.346943 -0.004780
v 2.063904 6.353476 0.010991
v 2.063907 6.369247 0.017523
v 2.063910 6.385017 0.010991
v 2.063912 6.391550 -0.004780
v 2.063910 6.385017 -0.020551
v 2.052547 6.336826 -0.037204
v 2.041195 6.336830 -0.037204
v 2.029845 6.353484 -0.020551
v 2.018492 6.353487 -0.020551
v 2.007136 6.336838 -0.037204
v 1.995783 6.336841 -0.037204
v 1.984433 6.353496 -0.020551
v 1.973081 6.353499 -0.020551
v 1.961724 6.336850 -0.037204
v 1.950371 6.336853 -0.037204
v 1.939022 6.353508 -0.020551
v 1.927669 6.353510 -0.020551
v 1.916312 6.336861 -0.037204
v 1.904960 6.336864 -0.037204
v 1.893610 6.353519 -0.020551
v 1.882257 6.353522 -0.020551
v 1.870901 6.336873 -0.037204
v 1.859547 6.336876 -0.037204
v 1.848198 6.353531 -0.020551
v 2.052545 6.323397 -0.004781
v 2.041192 6.323400 -0.004781
v 2.029844 6.346952 -0.004780
v 2.018491 6.346955 -0.004780
v 2.007133 6.323408 -0.004781
v 1.995780 6.323410 -0.004781
v 1.984432 6.346963 -0.004780
v 1.973079 6.346966 -0.004780
v 1.961721 6.323420 -0.004781
v 1.950368 6.323422 -0.004781
v 1.939020 6.346975 -0.004780
v 1.927667 6.346978 -0.004780
v 1.916310 6.323431 -0.004781
v 1.904957 6.323435 -0.004781
v 1.893609 6.346986 -0.004780
v 1.882256 6.346989 -0.004780
v 1.870898 6.323442 -0.004781
v 1.859545 6.323446 -0.004781
v 1.848197 6.346998 -0.004780
v 2.052547 6.336826 0.027642
v 2.041195 6.336830 0.027642
v 2.029845 6.353484 0.010991
v 2.018492 6.353487 0.010991
v 2.007136 6.336838 0.027642
v 1.995783 6.336841 0.027642
v 1.984433 6.353496 0.010991
v 1.973081 6.353499 0.010991
v 1.961724 6.336850 0.027642
v 1.950371 6.336853 0.027642
v 1.939022 6.353508 0.010991
v 1.927669 6.353510 0.010991
v 1.916312 6.336861 0.027642
v 1.904960 6.336864 0.027642
v 1.893610 6.353519 0.010991
v 1.882257 6.353522 0.010991
v 1.870901 6.336873 0.027642
v 1.859547 6.336876 0.027642
v 1.848198 6.353531 0.010991
v 2.052554 6.369250 0.041073
v 2.041201 6.369253 0.041073
v 2.029848 6.369255 0.017523
v 2.018496 6.369258 0.017523
v 2.007143 6.369262 0.041073
v 1.995790 6.369264 0.041073
v 1.984437 6.369267 0.017523
v 1.973084 6.369270 0.017523
v 1.961731 6.369273 0.041073
v 1.950378 6.369276 0.041073
v 1.939025 6.369278 0.017523
v 1.927672 6.369281 0.017523
v 1.916319 6.369285 0.041073
v 1.904966 6.369287 0.041073
v 1.893613 6.369290 0.017523
v 1.882261 6.369293 0.017523
v 1.870908 6.369296 0.041073
v 1.859555 6.369299 0.041073
v 1.848202 6.369302 0.017523
v 2.052561 6.401672 0.027642
v 2.041208 6.401676 0.027642
v 2.029852 6.385026 0.010991
v 2.018499 6.385029 0.010991
v 2.007149 6.401685 0.027642
v 1.995797 6.401688 0.027642
v 1.984440 6.385038 0.010991
v 1.973087 6.385041 0.010991
v 1.961738 6.401697 0.027642
v 1.950385 6.401699 0.027642
v 1.939028 6.385049 0.010991
v 1.927675 6.385052 0.010991
v 1.916326 6.401708 0.027642
v 1.904973 6.401711 0.027642
v 1.893616 6.385061 0.010991
v 1.882264 6.385064 0.010991
v 1.870914 6.401719 0.027642
v 1.859561 6.401723 0.027642
v 1.848205 6.385073 0.010991
v 2.052564 6.415103 -0.004781
v 2.041211 6.415106 -0.004781
v 2.029853 6.391559 -0.004780
v 2.018500 6.391561 -0.004780
v 2.007152 6.415115 -0.004781
v 1.995799 6.415117 -0.004781
v 1.984441 6.391570 -0.004780
v 1.973089 6.391573 -0.004780
v 1.961740 6.415126 -0.004781
v 1.950387 6.415130 -0.004781
v 1.939029 6.391582 -0.004780
v 1.927677 6.391585 -0.004780
v 1.916329 6.415138 -0.004781
v 1.904976 6.415141 -0.004781
v 1.893618 6.391593 -0.004780
v 1.882265 6.391596 -0.004780
v 1.870917 6.415150 -0.004781
v 1.859564 6.415153 -0.004781
v 1.848206 6.391605 -0.004780
v 2.052561 6.401672 -0.037204
v 2.041208 6.401676 -0.037204
v 2.029852 6.385026 -0.020551
v 2.018499 6.385029 -0.020551
v 2.007149 6.401685 -0.037204
v 1.995797 6.401688 -0.037204
v 1.984440 6.385038 -0.020551
v 1.973087 6.385041 -0.020551
v 1.961738 6.401697 -0.037204
v 1.950385 6.401699 -0.037204
v 1.939028 6.385049 -0.020551
v 1.927675 6.385052 -0.020551
v 1.916326 6.401708 -0.037204
v 1.904973 6.401711 -0.037204
v 1.893616 6.385061 -0.020551
v 1.882264 6.385064 -0.020551
v 1.870914 6.401719 -0.037204
v 1.859561 6.401723 -0.037204
v 1.848205 6.385073 -0.020551
v 1.848202 6.369301 -0.027084
v 1.859555 6.369299 -0.050634
v 1.870908 6.369296 -0.050634
v 1.882261 6.369293 -0.027084
v 1.893613 6.369290 -0.027084
v 1.904966 6.369287 -0.050634
v 1.916319 6.369285 -0.050634
v 1.927672 6.369282 -0.027084
v 1.939025 6.369278 -0.027084
v 1.950378 6.369276 -0.050634
v 1.961731 6.369273 -0.050634
v 1.973084 6.369270 -0.027084
v 1.984437 6.369267 -0.027084
v 1.995790 6.369264 -0.050634
v 2.007143 6.369262 -0.050634
v 2.018496 6.369258 -0.027084
v 2.029849 6.369255 -0.027084
v 2.041201 6.369253 -0.050634
v 2.052555 6.369250 -0.050634
v 2.121413 6.369318 -0.027084
v 2.121409 6.353547 -0.020551
v 2.121408 6.347015 -0.004780
v 2.121409 6.353547 0.010991
v 2.121413 6.369318 0.017523
v 2.121416 6.385089 0.010991
v 2.121417 6.391621 -0.004780
v 2.121416 6.385089 -0.020551
vn 0.5997 0.5657 -0.5660
vn 0.4805 -0.0001 -0.8770
vn 0.4807 0.6200 -0.6201
vn 0.4808 0.8769 -0.0000
vn 0.4807 0.6200 0.6201
vn 0.5996 0.8003 -0.0000
vn 0.4805 -0.0001 0.8770
vn 0.5997 0.5657 0.5660
vn 0.4804 -0.6202 0.6201
vn 0.6000 -0.0003 0.8000
vn 0.6004 -0.7997 -0.0000
vn 0.4803 -0.8771 -0.0000
vn 0.6003 -0.5657 -0.5654
vn 0.4804 -0.6202 -0.6201
vn 0.6000 -0.0003 -0.8000
vn -0.6000 0.0001 -0.8000
vn -0.0002 -0.7071 -0.7071
vn -0.0000 -0.0000 -1.0000
vn -0.4807 -0.6200 -0.6201
vn -0.6001 -0.5656 -0.5657
vn -0.4805 0.0001 -0.8770
vn 0.6000 -0.0001 -0.8000
vn 0.5999 -0.5658 -0.5657
vn 0.5998 -0.5658 -0.5657
vn -0.0003 -1.0000 -0.0000
vn -0.4807 -0.8769 -0.0000
vn -0.6002 -0.7999 -0.0000
vn 0.5998 -0.8002 -0.0000
vn -0.4808 -0.8769 -0.0000
vn -0.6001 -0.5656 0.5657
vn -0.0002 -0.7071 0.7071
vn -0.4807 -0.6200 0.6201
vn 0.5999 -0.5658 0.5657
vn 0.5998 -0.5658 0.5657
vn -0.6000 0.0001 0.8000
vn -0.0000 -0.0000 1.0000
vn -0.4805 0.0001 0.8770
vn 0.6000 -0.0001 0.8000
vn -0.5999 0.5658 0.5657
vn 0.0002 0.7071 0.7071
vn -0.4804 0.6202 0.6201
vn 0.6001 0.5656 0.5657
vn -0.5998 0.5658 0.5657
vn -0.5998 0.8001 -0.0000
vn 0.0003 1.0000 -0.0000
vn -0.4803 0.8771 -0.0000
vn 0.6002 0.7999 -0.0000
vn -0.5998 0.8002 -0.0000
vn 0.4807 0.8769 -0.0000
vn -0.4804 0.8771 -0.0000
vn 0.0002 0.7071 -0.7071
vn -0.5999 0.5658 -0.5657
vn -0.4804 0.6202 -0.6201
vn 0.6001 0.5656 -0.5657
vn -0.5998 0.5658 -0.5657
vn 0.0009 -0.7069 -0.7073
vn 0.6002 -0.5657 0.5654
vn 0.0012 -1.0000 -0.0000
vn 0.0009 -0.7069 0.7073
vn -0.0000 0.0003 1.0000
vn -0.0009 0.7073 0.7069
vn -0.0009 0.7073 -0.7069
vn -0.0012 1.0000 -0.0000
vn -0.0000 0.0003 -1.0000
vt 0.947470 0.037677
vt 0.927640 0.045459
vt 0.931226 0.028232
vt 0.937842 0.007817
vt 0.928547 0.130780
vt 0.948638 0.133956
vt 0.934473 0.150909
vt 0.925563 0.113182
vt 0.944729 0.122198
vt 0.924520 0.096118
vt 0.942177 0.108777
vt 0.941159 0.080218
vt 0.924508 0.079031
vt 0.942195 0.065540
vt 0.925551 0.062245
vt 0.944237 0.051147
vt 0.707478 0.051626
vt 0.665429 0.070259
vt 0.663516 0.059196
vt 0.726436 0.062389
vt 0.709510 0.065850
vt 0.731361 0.044355
vt 0.724087 0.045720
vt 0.748171 0.044726
vt 0.733780 0.061548
vt 0.755705 0.044441
vt 0.750076 0.062275
vt 0.774261 0.060231
vt 0.757493 0.062188
vt 0.780996 0.041652
vt 0.773817 0.042179
vt 0.797533 0.043226
vt 0.781723 0.060001
vt 0.805052 0.042924
vt 0.798143 0.060884
vt 0.822521 0.059390
vt 0.805650 0.060949
vt 0.830476 0.041180
vt 0.823271 0.041382
vt 0.847033 0.043340
vt 0.830046 0.059427
vt 0.854709 0.042778
vt 0.846735 0.061004
vt 0.871545 0.042575
vt 0.854212 0.060763
vt 0.879065 0.042333
vt 0.872525 0.060506
vt 0.896003 0.044494
vt 0.879637 0.060508
vt 0.903612 0.044707
vt 0.895284 0.062097
vt 0.918291 0.061472
vt 0.902311 0.062281
vt 0.920400 0.044146
vt 0.666539 0.081375
vt 0.727641 0.079061
vt 0.710433 0.080370
vt 0.734901 0.078782
vt 0.750875 0.079574
vt 0.775395 0.078449
vt 0.758282 0.079392
vt 0.783125 0.078508
vt 0.797950 0.078657
vt 0.822520 0.077641
vt 0.805649 0.078870
vt 0.830039 0.077675
vt 0.846616 0.078816
vt 0.871599 0.078454
vt 0.854277 0.078859
vt 0.879363 0.078844
vt 0.894028 0.079351
vt 0.917167 0.078806
vt 0.901313 0.079596
vt 0.710571 0.094615
vt 0.666070 0.092500
vt 0.727968 0.095897
vt 0.735656 0.096428
vt 0.757505 0.096675
vt 0.750030 0.096654
vt 0.773969 0.096495
vt 0.781394 0.096953
vt 0.797988 0.096231
vt 0.805694 0.096183
vt 0.822788 0.096002
vt 0.830597 0.096283
vt 0.853493 0.096672
vt 0.845722 0.096378
vt 0.870075 0.096509
vt 0.877539 0.096957
vt 0.894185 0.096477
vt 0.901791 0.096508
vt 0.916558 0.096402
vt 0.709361 0.108636
vt 0.664786 0.103588
vt 0.724787 0.112656
vt 0.732174 0.113813
vt 0.749007 0.113694
vt 0.756834 0.113652
vt 0.771950 0.114884
vt 0.779581 0.115184
vt 0.797158 0.113528
vt 0.805293 0.113362
vt 0.820618 0.114418
vt 0.828268 0.114662
vt 0.845620 0.113573
vt 0.853676 0.113736
vt 0.869021 0.115063
vt 0.876679 0.115123
vt 0.894114 0.113409
vt 0.901912 0.113407
vt 0.918411 0.114183
vt 0.706539 0.121976
vt 0.662802 0.114687
vt 0.729508 0.131821
vt 0.722416 0.130552
vt 0.747162 0.129630
vt 0.755259 0.129762
vt 0.779276 0.133924
vt 0.772117 0.133980
vt 0.796553 0.129656
vt 0.804550 0.129622
vt 0.828479 0.133474
vt 0.821402 0.133599
vt 0.845456 0.129487
vt 0.853357 0.130038
vt 0.878131 0.133828
vt 0.871011 0.133975
vt 0.895203 0.129401
vt 0.903449 0.129758
vt 0.921419 0.132282
vt 0.702786 0.133700
vt 0.660710 0.125966
vt 0.725711 0.152725
vt 0.716251 0.150262
vt 0.746520 0.143505
vt 0.753385 0.143086
vt 0.779688 0.155355
vt 0.770477 0.155007
vt 0.797261 0.143409
vt 0.803521 0.142992
vt 0.829517 0.154869
vt 0.820453 0.154708
vt 0.846563 0.143030
vt 0.852942 0.142757
vt 0.869125 0.155118
vt 0.878653 0.155355
vt 0.896745 0.143299
vt 0.903846 0.143489
vt 0.924811 0.152870
vt 0.700468 0.026722
vt 0.660939 0.048183
vt 0.658181 0.037066
vt 0.713248 0.008740
vt 0.704304 0.038276
vt 0.723671 0.005540
vt 0.720369 0.028414
vt 0.746201 0.028052
vt 0.727363 0.026952
vt 0.752375 0.015330
vt 0.744561 0.015462
vt 0.768291 0.002226
vt 0.754315 0.028015
vt 0.778339 0.001427
vt 0.770917 0.023715
vt 0.796752 0.026423
vt 0.778228 0.023218
vt 0.803773 0.013762
vt 0.796606 0.013553
vt 0.820096 0.001225
vt 0.804801 0.026526
vt 0.830064 0.000966
vt 0.821525 0.022812
vt 0.847009 0.026585
vt 0.828808 0.022669
vt 0.854472 0.013896
vt 0.847418 0.013663
vt 0.871343 0.001792
vt 0.854996 0.026635
vt 0.881411 0.001991
vt 0.871775 0.023451
vt 0.897185 0.028000
vt 0.879028 0.023679
vt 0.906580 0.015377
vt 0.898588 0.015202
vt 0.927171 0.005399
vt 0.905341 0.027938
vt 0.924302 0.026486
vt 0.980190 0.069840
vt 0.940596 0.094655
vt 0.978927 0.081104
vt 0.979363 0.092335
vt 0.980766 0.103505
vt 0.982956 0.114591
vt 0.951318 0.026094
vt 0.985089 0.047620
vt 0.985446 0.125791
vt 0.982270 0.058665
vt 0.988176 0.036568
s 1
usemtl Catenary
f 172/114/137 324/115/138 287/116/139
f 268/117/140 172/114/137 287/116/139
f 249/118/141 171/119/142 268/120/140
f 230/121/143 170/122/144 249/118/141
f 211/123/145 169/124/146 230/121/143
f 167/125/147 211/123/145 192/126/148
f 166/127/149 192/126/148 173/128/150
f 165/129/151 173/128/150 324/115/138
f 306/130/152 158/131/153 157/132/154
f 306/130/152 190/133/155 191/134/156
f 308/135/138 190/133/155 307/136/157
f 309/137/158 189/138/150 308/135/138
f 310/139/152 188/140/159 309/137/158
f 310/139/152 186/141/155 187/142/156
f 312/143/138 186/141/155 311/144/157
f 313/145/158 185/146/150 312/143/138
f 314/147/152 184/148/159 313/145/158
f 314/147/152 182/149/155 183/150/156
f 316/151/138 182/149/155 315/152/157
f 317/153/158 181/154/150 316/151/138
f 318/155/152 180/156/160 317/153/158
f 319/157/157 179/158/156 318/155/152
f 320/159/138 178/160/155 319/157/157
f 321/161/158 177/162/150 320/159/138
f 322/163/152 176/164/159 321/161/158
f 322/163/152 174/165/155 175/166/156
f 324/115/138 174/165/155 323/167/157
f 191/134/156 159/168/161 158/131/153
f 191/134/156 209/169/162 210/170/163
f 189/138/150 209/169/162 190/133/155
f 188/140/159 208/171/148 189/138/150
f 187/142/156 207/172/164 188/140/159
f 187/142/156 205/173/165 206/174/163
f 185/146/150 205/173/165 186/141/155
f 184/148/159 204/175/148 185/146/150
f 183/150/156 203/176/164 184/148/159
f 183/150/156 201/177/162 202/178/163
f 181/154/150 201/177/162 182/149/155
f 180/156/160 200/179/148 181/154/150
f 179/158/156 199/180/164 180/156/160
f 179/158/156 197/181/162 198/182/163
f 177/162/150 197/181/162 178/160/155
f 176/164/159 196/183/148 177/162/150
f 175/166/156 195/184/164 176/164/159
f 175/166/156 193/185/162 194/186/163
f 173/128/150 193/185/162 174/165/155
f 159/168/161 229/187/166 160/188/167
f 210/170/163 228/189/168 229/187/166
f 209/169/162 227/190/145 228/189/168
f 207/172/164 227/190/145 208/171/148
f 207/172/164 225/191/166 226/192/169
f 206/174/163 224/193/168 225/191/166
f 205/173/165 223/194/145 224/193/168
f 204/175/148 222/195/170 223/194/145
f 203/176/164 221/196/166 222/195/170
f 202/178/163 220/197/168 221/196/166
f 201/177/162 219/198/145 220/197/168
f 199/180/164 219/198/145 200/179/148
f 199/180/164 217/199/166 218/200/170
f 198/182/163 216/201/168 217/199/166
f 197/181/162 215/202/145 216/201/168
f 196/183/148 214/203/170 215/202/145
f 195/184/164 213/204/166 214/203/170
f 194/186/163 212/205/168 213/204/166
f 193/185/162 211/123/145 212/205/168
f 160/188/167 248/206/171 161/207/172
f 229/187/166 247/208/173 248/206/171
f 228/189/168 246/209/143 247/208/173
f 227/190/145 245/210/174 246/209/143
f 226/192/169 244/211/171 245/210/174
f 225/191/166 243/212/173 244/211/171
f 224/193/168 242/213/143 243/212/173
f 223/194/145 241/214/174 242/213/143
f 222/195/170 240/215/171 241/214/174
f 221/196/166 239/216/173 240/215/171
f 220/197/168 238/217/143 239/216/173
f 219/198/145 237/218/174 238/217/143
f 218/200/170 236/219/171 237/218/174
f 217/199/166 235/220/173 236/219/171
f 216/201/168 234/221/143 235/220/173
f 215/202/145 233/222/174 234/221/143
f 214/203/170 232/223/171 233/222/174
f 212/205/168 232/223/171 213/204/166
f 212/205/168 230/121/143 231/224/173
f 161/207/172 267/225/175 162/226/176
f 247/208/173 267/225/175 248/206/171
f 247/208/173 265/227/141 266/228/177
f 246/209/143 264/229/178 265/227/141
f 245/210/174 263/230/179 264/229/178
f 243/212/173 263/230/179 244/211/171
f 243/212/173 261/231/141 262/232/177
f 242/213/143 260/233/178 261/231/141
f 241/214/174 259/234/179 260/233/178
f 239/216/173 259/234/179 240/215/171
f 239/216/173 257/235/141 258/236/177
f 238/217/143 256/237/178 257/235/141
f 237/218/174 255/238/179 256/237/178
f 235/220/173 255/238/179 236/219/171
f 235/220/173 253/239/141 254/240/177
f 234/221/143 252/241/178 253/239/141
f 233/222/174 251/242/179 252/241/178
f 231/224/173 251/242/179 232/223/171
f 231/224/173 249/118/141 250/243/177
f 162/226/176 286/244/180 163/245/181
f 266/228/177 286/244/180 267/225/175
f 266/228/177 284/246/140 285/247/182
f 265/227/141 283/248/183 284/246/140
f 264/229/178 282/249/184 283/248/183
f 262/232/177 282/249/184 263/230/179
f 262/232/177 280/250/185 281/251/182
f 261/231/141 279/252/183 280/250/185
f 260/233/178 278/253/184 279/252/183
f 258/236/177 278/253/184 259/234/179
f 258/236/177 276/254/185 277/255/182
f 257/235/141 275/256/183 276/254/185
f 256/237/178 274/257/184 275/256/183
f 255/238/179 273/258/186 274/257/184
f 254/240/177 272/259/185 273/258/186
f 253/239/141 271/260/183 272/259/185
f 252/241/178 270/261/180 271/260/183
f 250/243/177 270/261/180 251/242/179
f 250/243/177 268/120/140 269/262/182
f 286/263/180 164/264/187 163/265/181
f 285/266/182 305/267/188 286/263/180
f 284/268/140 304/269/189 285/266/182
f 284/268/140 302/270/190 303/271/139
f 282/272/184 302/270/190 283/273/183
f 281/274/182 301/275/191 282/272/184
f 280/276/185 300/277/189 281/274/182
f 280/276/185 298/278/190 299/279/139
f 278/280/184 298/278/190 279/281/183
f 277/282/182 297/283/191 278/280/184
f 276/284/185 296/285/189 277/282/182
f 276/284/185 294/286/190 295/287/139
f 274/288/184 294/286/190 275/289/183
f 273/290/186 293/291/188 274/288/184
f 272/292/185 292/293/189 273/290/186
f 272/292/185 290/294/190 291/295/139
f 270/296/180 290/294/190 271/297/183
f 269/298/182 289/299/191 270/296/180
f 268/117/140 288/300/189 269/298/182
f 305/267/188 157/132/154 164/264/187
f 305/267/188 307/136/157 306/130/152
f 303/271/139 307/136/157 304/269/189
f 302/270/190 308/135/138 303/271/139
f 301/275/191 309/137/158 302/270/190
f 300/277/189 310/139/152 301/275/191
f 299/279/139 311/144/157 300/277/189
f 298/278/190 312/143/138 299/279/139
f 297/283/191 313/145/158 298/278/190
f 296/285/189 314/147/152 297/283/191
f 295/287/139 315/152/157 296/285/189
f 294/286/190 316/151/138 295/287/139
f 293/291/188 317/153/158 294/286/190
f 292/293/189 318/155/152 293/291/188
f 291/295/139 319/157/157 292/293/189
f 290/294/190 320/159/138 291/295/139
f 289/299/191 321/161/158 290/294/190
f 289/299/191 323/167/157 322/163/152
f 287/116/139 323/167/157 288/300/189
f 165/129/151 326/301/192 166/127/149
f 168/302/193 327/303/194 328/304/195
f 170/122/144 329/305/196 330/306/197
f 171/307/142 332/308/198 172/114/137
f 166/127/149 327/303/194 167/125/147
f 169/124/146 328/304/195 329/305/196
f 171/119/142 330/306/197 331/309/199
f 172/114/137 325/310/200 165/129/151
f 172/114/137 165/129/151 324/115/138
f 268/117/140 171/307/142 172/114/137
f 249/118/141 170/122/144 171/119/142
f 230/121/143 169/124/146 170/122/144
f 211/123/145 168/302/193 169/124/146
f 167/125/147 168/302/193 211/123/145
f 166/127/149 167/125/147 192/126/148
f 165/129/151 166/127/149 173/128/150
f 306/130/152 191/134/156 158/131/153
f 306/130/152 307/136/157 190/133/155
f 308/135/138 189/138/150 190/133/155
f 309/137/158 188/140/159 189/138/150
f 310/139/152 187/142/156 188/140/159
f 310/139/152 311/144/157 186/141/155
f 312/143/138 185/146/150 186/141/155
f 313/145/158 184/148/159 185/146/150
f 314/147/152 183/150/156 184/148/159
f 314/147/152 315/152/157 182/149/155
f 316/151/138 181/154/150 182/149/155
f 317/153/158 180/156/160 181/154/150
f 318/155/152 179/158/156 180/156/160
f 319/157/157 178/160/155 179/158/156
f 320/159/138 177/162/150 178/160/155
f 321/161/158 176/164/159 177/162/150
f 322/163/152 175/166/156 176/164/159
f 322/163/152 323/167/157 174/165/155
f 324/115/138 173/128/150 174/165/155
f 191/134/156 210/170/163 159/168/161
f 191/134/156 190/133/155 209/169/162
f 189/138/150 208/171/148 209/169/162
f 188/140/159 207/172/164 208/171/148
f 187/142/156 206/174/163 207/172/164
f 187/142/156 186/141/155 205/173/165
f 185/146/150 204/175/148 205/173/165
f 184/148/159 203/176/164 204/175/148
f 183/150/156 202/178/163 203/176/164
f 183/150/156 182/149/155 201/177/162
f 181/154/150 200/179/148 201/177/162
f 180/156/160 199/180/164 200/179/148
f 179/158/156 198/182/163 199/180/164
f 179/158/156 178/160/155 197/181/162
f 177/162/150 196/183/148 197/181/162
f 176/164/159 195/184/164 196/183/148
f 175/166/156 194/186/163 195/184/164
f 175/166/156 174/165/155 193/185/162
f 173/128/150 192/126/148 193/185/162
f 159/168/161 210/170/163 229/187/166
f 210/170/163 209/169/162 228/189/168
f 209/169/162 208/171/148 227/190/145
f 207/172/164 226/192/169 227/190/145
f 207/172/164 206/174/163 225/191/166
f 206/174/163 205/173/165 224/193/168
f 205/173/165 204/175/148 223/194/145
f 204/175/148 203/176/164 222/195/170
f 203/176/164 202/178/163 221/196/166
f 202/178/163 201/177/162 220/197/168
f 201/177/162 200/179/148 219/198/145
f 199/180/164 218/200/170 219/198/145
f 199/180/164 198/182/163 217/199/166
f 198/182/163 197/181/162 216/201/168
f 197/181/162 196/183/148 215/202/145
f 196/183/148 195/184/164 214/203/170
f 195/184/164 194/186/163 213/204/166
f 194/186/163 193/185/162 212/205/168
f 193/185/162 192/126/148 211/123/145
f 160/188/167 229/187/166 248/206/171
f 229/187/166 228/189/168 247/208/173
f 228/189/168 227/190/145 246/209/143
f 227/190/145 226/192/169 245/210/174
f 226/192/169 225/191/166 244/211/171
f 225/191/166 224/193/168 243/212/173
f 224/193/168 223/194/145 242/213/143
f 223/194/145 222/195/170 241/214/174
f 222/195/170 221/196/166 240/215/171
f 221/196/166 220/197/168 239/216/173
f 220/197/168 219/198/145 238/217/143
f 219/198/145 218/200/170 237/218/174
f 218/200/170 217/199/166 236/219/171
f 217/199/166 216/201/168 235/220/173
f 216/201/168 215/202/145 234/221/143
f 215/202/145 214/203/170 233/222/174
f 214/203/170 213/204/166 232/223/171
f 212/205/168 231/224/173 232/223/171
f 212/205/168 211/123/145 230/121/143
f 161/207/172 248/206/171 267/225/175
f 247/208/173 266/228/177 267/225/175
f 247/208/173 246/209/143 265/227/141
f 246/209/143 245/210/174 264/229/178
f 245/210/174 244/211/171 263/230/179
f 243/212/173 262/232/177 263/230/179
f 243/212/173 242/213/143 261/231/141
f 242/213/143 241/214/174 260/233/178
f 241/214/174 240/215/171 259/234/179
f 239/216/173 258/236/177 259/234/179
f 239/216/173 238/217/143 257/235/141
f 238/217/143 237/218/174 256/237/178
f 237/218/174 236/219/171 255/238/179
f 235/220/173 254/240/177 255/238/179
f 235/220/173 234/221/143 253/239/141
f 234/221/143 233/222/174 252/241/178
f 233/222/174 232/223/171 251/242/179
f 231/224/173 250/243/177 251/242/179
f 231/224/173 230/121/143 249/118/141
f 162/226/176 267/225/175 286/244/180
f 266/228/177 285/247/182 286/244/180
f 266/228/177 265/227/141 284/246/140
f 265/227/141 264/229/178 283/248/183
f 264/229/178 263/230/179 282/249/184
f 262/232/177 281/251/182 282/249/184
f 262/232/177 261/231/141 280/250/185
f 261/231/141 260/233/178 279/252/183
f 260/233/178 259/234/179 278/253/184
f 258/236/177 277/255/182 278/253/184
f 258/236/177 257/235/141 276/254/185
f 257/235/141 256/237/178 275/256/183
f 256/237/178 255/238/179 274/257/184
f 255/238/179 254/240/177 273/258/186
f 254/240/177 253/239/141 272/259/185
f 253/239/141 252/241/178 271/260/183
f 252/241/178 251/242/179 270/261/180
f 250/243/177 269/262/182 270/261/180
f 250/243/177 249/118/141 268/120/140
f 286/263/180 305/267/188 164/264/187
f 285/266/182 304/269/189 305/267/188
f 284/268/140 303/271/139 304/269/189
f 284/268/140 283/273/183 302/270/190
f 282/272/184 301/275/191 302/270/190
f 281/274/182 300/277/189 301/275/191
f 280/276/185 299/279/139 300/277/189
f 280/276/185 279/281/183 298/278/190
f 278/280/184 297/283/191 298/278/190
f 277/282/182 296/285/189 297/283/191
f 276/284/185 295/287/139 296/285/189
f 276/284/185 275/289/183 294/286/190
f 274/288/184 293/291/188 294/286/190
f 273/290/186 292/293/189 293/291/188
f 272/292/185 291/295/139 292/293/189
f 272/292/185 271/297/183 290/294/190
f 270/296/180 289/299/191 290/294/190
f 269/298/182 288/300/189 289/299/191
f 268/117/140 287/116/139 288/300/189
f 305/267/188 306/130/152 157/132/154
f 305/267/188 304/269/189 307/136/157
f 303/271/139 308/135/138 307/136/157
f 302/270/190 309/137/158 308/135/138
f 301/275/191 310/139/152 309/137/158
f 300/277/189 311/144/157 310/139/152
f 299/279/139 312/143/138 311/144/157
f 298/278/190 313/145/158 312/143/138
f 297/283/191 314/147/152 313/145/158
f 296/285/189 315/152/157 314/147/152
f 295/287/139 316/151/138 315/152/157
f 294/286/190 317/153/158 316/151/138
f 293/291/188 318/155/152 317/153/158
f 292/293/189 319/157/157 318/155/152
f 291/295/139 320/159/138 319/157/157
f 290/294/190 321/161/158 320/159/138
f 289/299/191 322/163/152 321/161/158
f 289/299/191 288/300/189 323/167/157
f 287/116/139 324/115/138 323/167/157
f 165/129/151 325/310/200 326/301/192
f 168/302/193 167/125/147 327/303/194
f 170/122/144 169/124/146 329/305/196
f 171/307/142 331/311/199 332/308/198
f 166/127/149 326/301/192 327/303/194
f 169/124/146 168/302/193 328/304/195
f 171/119/142 170/122/144 330/306/197
f 172/114/137 332/308/198 325/310/200
