# Blender 5.1.2
# www.blender.org
mtllib truss_arm_inwards_outer_dual.mtl
o TrussRegistrationArmInwardsOuterDual
g truss_arm_inwards_outer_dual
v 0.332860 6.368430 -0.003189
v 0.332860 6.371054 -0.004276
v 0.332860 6.368430 0.002059
v 0.332860 6.374765 -0.000565
v 0.332860 6.373678 -0.003189
v -0.308430 6.000000 -0.006584
v 0.389472 6.301972 -0.006584
v 0.032570 6.200000 -0.006584
v -0.326433 6.019967 -0.006584
v 0.382570 6.329857 -0.006584
v 0.016921 6.223782 -0.006584
v -0.326433 6.000000 -0.006584
v 0.032570 6.200000 -0.002584
v 0.389472 6.301972 -0.002584
v -0.308430 6.000000 -0.002584
v 0.016921 6.223782 -0.002584
v 0.382570 6.329857 -0.002584
v -0.326433 6.019967 -0.002584
v -0.326433 6.000000 -0.002584
v 0.333338 6.315575 -0.002584
v 0.424473 6.301971 0.002416
v 0.333339 6.305421 0.002416
v 0.417574 6.329857 0.002415
v 0.332860 6.350000 -0.002304
v 0.432861 6.350000 -0.002304
v 0.332860 6.350000 0.002696
v 0.432861 6.350000 0.002696
v 0.432567 6.301970 -0.002584
v 0.432567 6.301970 0.002416
v 0.417574 6.329857 0.006415
v 0.424475 6.301972 0.006415
v -0.291429 6.000000 0.006416
v -0.291429 6.019967 0.006416
v 0.051925 6.223782 0.006416
v -0.273426 6.000000 0.006416
v 0.067574 6.200000 0.006416
v -0.291429 6.000000 0.002416
v 0.051925 6.223782 0.002416
v -0.291429 6.019967 0.002416
v 0.067574 6.200000 0.002416
v -0.273426 6.000000 0.002416
v 0.333338 6.301970 -0.002584
v 0.333338 6.301970 0.002416
v 0.432861 6.370000 0.020196
v 0.332860 6.370000 0.020196
v 0.432861 6.355858 0.014338
v 0.332860 6.355858 0.014338
v 0.432861 6.355858 -0.013946
v 0.332860 6.355858 -0.013946
v 0.432861 6.370000 -0.019804
v 0.332860 6.370000 -0.019804
v 0.432861 6.384142 -0.013946
v 0.332860 6.384142 -0.013946
v 0.432861 6.390000 0.000196
v 0.332860 6.390000 0.000196
v 0.432861 6.384142 0.014338
v 0.332860 6.384142 0.014338
v 0.332860 6.367343 -0.000565
v 0.432861 6.365844 0.000196
v 0.432861 6.369555 0.003907
v 0.432861 6.366931 0.002820
v 0.332860 6.371054 0.003146
v 0.432861 6.366931 -0.002428
v 0.432861 6.369555 -0.003515
v 0.432861 6.372180 -0.002428
v 0.432861 6.373267 0.000196
v 0.432861 6.372180 0.002820
v 0.332860 6.373678 0.002059
vn -0.0000 -0.0000 1.0000
vn -0.5104 0.8599 -0.0000
vn 0.5059 -0.8626 -0.0000
vn 0.9707 0.2402 -0.0000
vn -0.2786 0.9604 -0.0000
vn -0.2786 0.9604 -0.0001
vn 0.2747 -0.9615 -0.0000
vn -1.0000 -0.0000 -0.0000
vn -0.0026 -0.0091 1.0000
vn 0.0006 -0.0075 1.0000
vn -0.0038 -0.0110 0.9999
vn -1.0000 -0.0007 -0.0000
vn -1.0000 -0.0047 -0.0015
vn -1.0000 -0.0052 0.0027
vn 0.0003 0.0092 -1.0000
vn -0.0018 0.0095 -1.0000
vn 0.0025 0.0078 -1.0000
vn 0.2747 -0.9615 -0.0001
vn -0.2786 0.9604 0.0004
vn 0.9707 0.2402 -0.0001
vn 0.9707 0.2402 -0.0006
vn -0.0000 -1.0000 -0.0003
vn -0.0001 -1.0000 0.0011
vn -0.0000 -1.0000 -0.0000
vn -0.0000 -0.6807 0.7326
vn -0.0000 -0.8933 0.4495
vn -0.0000 -0.8933 -0.4495
vn -0.0000 -0.6807 -0.7326
vn -0.0000 -0.0000 -1.0000
vn -0.0000 0.7071 -0.7071
vn -0.0000 1.0000 -0.0000
vn -0.0000 0.7071 0.7071
vn 1.0000 -0.0023 -0.0000
vn 1.0000 -0.0000 -0.0000
vn -1.0000 0.0002 -0.0001
vn -0.0032 -0.0053 1.0000
vn -0.0000 -0.0058 1.0000
vn -0.0000 -0.0063 1.0000
vn -0.9825 -0.0065 -0.1862
vn -1.0000 -0.0001 -0.0000
vn -0.9996 -0.0070 0.0284
vn -0.5063 -0.0000 -0.8624
vn -1.0000 0.0002 -0.0000
vn 0.0022 0.0039 -1.0000
vn -0.0024 0.0081 -1.0000
vn -0.0000 -1.0000 0.0001
vn 1.0000 -0.0061 -0.0000
vn -1.0000 -0.0001 -0.0001
vn -1.0000 -0.0000 -0.0001
vn -1.0000 0.0001 0.0001
vn -1.0000 -0.0000 0.0001
vt 0.969856 0.000273
vt 0.982106 0.014273
vt 0.983856 0.014273
vt 0.982106 0.007273
vt 0.983856 0.007273
vt 0.980356 0.007273
vt 0.980356 0.014273
vt 0.978606 0.007273
vt 0.978606 0.014273
vt 0.976856 0.007273
vt 0.976856 0.014273
vt 0.975106 0.007273
vt 0.975106 0.014273
vt 0.973356 0.007273
vt 0.973356 0.014273
vt 0.971606 0.007273
vt 0.971606 0.014273
vt 0.969856 0.007273
vt 0.969856 0.014273
s 1
usemtl Catenary
f 13/1/1 42/1/1 16/1/1
f 18/1/2 11/1/2 9/1/2
f 13/1/3 6/1/3 8/1/3
f 17/1/4 7/1/4 10/1/4
f 16/1/5 20/1/6 10/1/5
f 14/1/7 8/1/7 7/1/7
f 19/1/8 9/1/8 12/1/8
f 27/1/9 22/1/10 23/1/11
f 3/2/12 42/1/13 22/1/14
f 17/1/15 24/1/16 25/1/17
f 32/1/8 39/1/8 37/1/8
f 21/1/18 36/1/7 40/1/7
f 34/1/5 23/1/5 22/1/19
f 23/1/20 31/1/21 21/1/21
f 36/1/3 41/1/3 40/1/3
f 33/1/2 38/1/2 39/1/2
f 14/1/22 21/1/23 42/1/24
f 34/1/1 36/1/1 30/1/1
f 45/3/1 46/4/25 44/5/1
f 47/2/25 27/6/26 46/4/25
f 24/7/27 48/8/28 25/6/27
f 49/9/28 50/10/29 48/8/28
f 51/11/29 52/12/30 50/10/29
f 53/13/30 54/14/31 52/12/30
f 55/15/31 56/16/32 54/14/31
f 57/17/32 44/18/1 56/16/32
f 25/6/33 59/6/34 27/1/33
f 40/1/29 38/1/29 43/1/29
f 51/11/8 4/15/35 57/17/8
f 11/1/29 7/1/29 8/1/29
f 44/5/34 67/16/34 52/12/34
f 16/1/1 18/1/1 19/1/1
f 19/1/1 15/1/1 13/1/1
f 13/1/1 14/1/1 42/1/1
f 42/1/1 20/1/1 16/1/1
f 16/1/1 19/1/1 13/1/1
f 18/1/2 16/1/2 11/1/2
f 13/1/3 15/1/3 6/1/3
f 17/1/4 14/1/4 7/1/4
f 10/1/5 11/1/5 16/1/5
f 20/1/6 17/1/5 10/1/5
f 14/1/7 13/1/7 8/1/7
f 19/1/8 18/1/8 9/1/8
f 21/1/36 29/1/37 27/1/9
f 27/1/9 26/1/38 22/1/10
f 23/1/11 21/1/36 27/1/9
f 26/7/39 47/2/8 3/2/12
f 3/2/12 58/1/40 24/1/41
f 24/1/41 20/1/42 42/1/13
f 42/1/13 43/1/43 22/1/14
f 22/1/14 26/7/39 3/2/12
f 3/2/12 24/1/41 42/1/13
f 28/1/44 14/1/29 17/1/15
f 17/1/15 20/1/45 24/1/16
f 25/1/17 28/1/44 17/1/15
f 32/1/8 33/1/8 39/1/8
f 21/1/18 31/1/18 36/1/7
f 22/1/19 38/1/5 34/1/5
f 34/1/5 30/1/5 23/1/5
f 23/1/20 30/1/4 31/1/21
f 36/1/3 35/1/3 41/1/3
f 33/1/2 34/1/2 38/1/2
f 14/1/22 28/1/24 29/1/46
f 21/1/23 43/1/24 42/1/24
f 14/1/22 29/1/46 21/1/23
f 34/1/1 33/1/1 32/1/1
f 32/1/1 35/1/1 36/1/1
f 36/1/1 31/1/1 30/1/1
f 34/1/1 32/1/1 36/1/1
f 45/3/1 47/2/25 46/4/25
f 47/2/25 26/7/26 27/6/26
f 24/7/27 49/9/28 48/8/28
f 49/9/28 51/11/29 50/10/29
f 51/11/29 53/13/30 52/12/30
f 53/13/30 55/15/31 54/14/31
f 55/15/31 57/17/32 56/16/32
f 57/17/32 45/19/1 44/18/1
f 25/6/33 48/8/34 50/10/34
f 50/10/34 52/12/34 65/12/34
f 50/10/34 65/12/34 64/10/34
f 29/1/47 28/1/47 25/6/33
f 25/6/33 50/10/34 64/10/34
f 25/6/33 64/10/34 63/8/34
f 27/1/33 29/1/47 25/6/33
f 61/4/34 46/4/34 27/1/33
f 25/6/33 63/8/34 59/6/34
f 59/6/34 61/4/34 27/1/33
f 40/1/29 41/1/29 37/1/29
f 37/1/29 39/1/29 38/1/29
f 38/1/29 22/1/29 43/1/29
f 43/1/29 21/1/29 40/1/29
f 40/1/29 37/1/29 38/1/29
f 55/15/8 53/13/8 51/11/8
f 51/11/8 49/9/8 24/7/41
f 24/7/41 58/7/40 1/9/48
f 24/7/41 1/9/48 2/11/49
f 57/17/8 55/15/8 51/11/8
f 47/2/8 45/19/8 57/17/8
f 62/3/50 3/2/12 47/2/8
f 68/17/51 62/3/50 47/2/8
f 51/11/8 24/7/41 2/11/49
f 51/11/8 2/11/49 5/13/35
f 68/17/51 47/2/8 57/17/8
f 51/11/8 5/13/35 4/15/35
f 4/15/35 68/17/51 57/17/8
f 8/1/29 6/1/29 12/1/29
f 12/1/29 9/1/29 11/1/29
f 11/1/29 10/1/29 7/1/29
f 8/1/29 12/1/29 11/1/29
f 54/14/34 56/16/34 44/5/34
f 44/5/34 46/4/34 61/4/34
f 44/5/34 61/4/34 60/18/34
f 52/12/34 54/14/34 44/5/34
f 66/14/34 65/12/34 52/12/34
f 44/5/34 60/18/34 67/16/34
f 67/16/34 66/14/34 52/12/34
o TrussGantryInsulator.005
v -0.300000 7.039817 0.008762
v -0.300000 7.054616 0.102362
v -0.300000 7.130641 0.022523
v -0.300000 7.140331 0.102362
v -0.300000 7.216355 0.038935
v -0.327709 7.216355 0.027457
v -0.370711 7.140331 0.073072
v -0.314843 7.130641 0.016375
v -0.370711 7.054616 0.073072
v -0.306374 7.039817 0.006122
v -0.339187 7.216355 -0.000252
v -0.400000 7.140331 0.002362
v -0.320992 7.130641 0.001532
v -0.400000 7.054616 0.002362
v -0.309014 7.039817 -0.000252
v -0.327709 7.216355 -0.027961
v -0.370711 7.140331 -0.068349
v -0.314040 7.130641 -0.014596
v -0.370711 7.054616 -0.068349
v -0.306374 7.039817 -0.006626
v -0.300000 7.216355 -0.039439
v -0.300000 7.140331 -0.097638
v -0.300000 7.130641 -0.020487
v -0.300000 7.054616 -0.097638
v -0.300000 7.039817 -0.009266
v -0.272291 7.216355 -0.027961
v -0.229289 7.140331 -0.068349
v -0.285960 7.130641 -0.014596
v -0.229289 7.054616 -0.068349
v -0.293626 7.039817 -0.006626
v -0.260813 7.216355 -0.000252
v -0.200000 7.140331 0.002362
v -0.279008 7.130641 0.001531
v -0.200000 7.054616 0.002362
v -0.290986 7.039817 -0.000252
v -0.272291 7.216355 0.027457
v -0.229289 7.140331 0.073072
v -0.285157 7.130641 0.016375
v -0.229289 7.054616 0.073072
v -0.293626 7.039817 0.006122
v -0.300000 7.216355 0.018017
v -0.312918 7.216355 0.012666
v -0.318269 7.216355 -0.000252
v -0.312918 7.216355 -0.013170
v -0.300000 7.216355 -0.018521
v -0.287082 7.216355 -0.013170
v -0.281731 7.216355 -0.000252
v -0.287082 7.216355 0.012666
v -0.300000 7.334884 0.018017
v -0.312918 7.334884 0.012666
v -0.318269 7.334884 -0.000252
v -0.312918 7.334884 -0.013170
v -0.300000 7.334884 -0.018521
v -0.287082 7.334884 -0.013170
v -0.281731 7.334884 -0.000252
v -0.287082 7.334884 0.012666
v -0.300000 7.350073 -0.000252
v -0.318269 7.350073 -0.000252
v -0.281731 7.350073 -0.000252
v -0.287082 7.334884 -0.034277
v -0.281731 7.334884 -0.021358
v -0.300000 7.334884 -0.039627
v -0.312918 7.334884 -0.034277
v -0.318269 7.334884 -0.021358
v -0.287082 7.350073 -0.034277
v -0.281731 7.350073 -0.021358
v -0.300000 7.350073 -0.039627
v -0.312918 7.350073 -0.034277
v -0.318269 7.350073 -0.021358
v -0.287082 7.334884 0.034282
v -0.300000 7.334884 0.039633
v -0.281731 7.334884 0.021364
v -0.312918 7.334884 0.034282
v -0.318269 7.334884 0.021364
v -0.287082 7.350073 0.034282
v -0.300000 7.350073 0.039633
v -0.281731 7.350073 0.021364
v -0.312918 7.350073 0.034282
v -0.318269 7.350073 0.021364
v 0.391315 6.379152 0.008762
v 0.384942 6.379152 0.006122
v 0.382301 6.379152 -0.000252
v 0.384942 6.379152 -0.006626
v 0.391315 6.379152 -0.009266
v 0.397689 6.379152 -0.006626
v 0.400329 6.379152 -0.000252
v 0.397689 6.379152 0.006122
vn 0.1109 -0.9875 0.1117
vn -0.0000 -0.9877 0.1562
vn 0.1122 -0.9875 0.1105
vn 0.4879 0.7231 0.4889
vn -0.0000 0.7242 0.6896
vn 0.0853 -0.9927 0.0856
vn -0.0000 -0.9927 0.1205
vn 0.0857 -0.9927 0.0852
vn 0.5436 0.6361 0.5477
vn -0.0000 0.6406 0.7679
vn 0.1605 -0.9870 0.0008
vn 0.1606 -0.9870 -0.0017
vn 0.6934 0.7206 0.0010
vn 0.4893 0.7231 0.4875
vn 0.1217 -0.9926 0.0002
vn 0.1213 -0.9926 -0.0010
vn 0.7808 0.6247 0.0042
vn 0.5489 0.6360 0.5424
vn 0.1162 -0.9865 -0.1154
vn 0.1149 -0.9865 -0.1167
vn 0.4952 0.7160 -0.4921
vn 0.6917 0.7222 -0.0052
vn 0.0876 -0.9924 -0.0869
vn 0.0857 -0.9924 -0.0888
vn 0.5609 0.6129 -0.5566
vn 0.7810 0.6245 -0.0066
vn -0.0000 -0.9863 -0.1652
vn -0.0000 0.7126 -0.7016
vn 0.4872 0.7158 -0.5003
vn -0.0000 -0.9922 -0.1245
vn -0.0000 -0.9922 -0.1246
vn -0.0000 0.6079 -0.7940
vn 0.5554 0.6128 -0.5621
vn -0.1149 -0.9865 -0.1167
vn -0.4872 0.7158 -0.5003
vn -0.4952 0.7160 -0.4921
vn -0.0857 -0.9924 -0.0888
vn -0.5554 0.6128 -0.5621
vn -0.5609 0.6129 -0.5566
vn -0.1606 -0.9870 -0.0017
vn -0.1162 -0.9865 -0.1154
vn -0.6917 0.7222 -0.0052
vn -0.6934 0.7206 0.0010
vn -0.1213 -0.9926 -0.0010
vn -0.0876 -0.9924 -0.0869
vn -0.7810 0.6245 -0.0066
vn -0.7808 0.6247 0.0042
vn -0.1122 -0.9875 0.1105
vn -0.1605 -0.9870 0.0008
vn -0.4893 0.7231 0.4875
vn -0.4879 0.7231 0.4889
vn -0.0857 -0.9927 0.0852
vn -0.1217 -0.9926 0.0002
vn -0.5489 0.6360 0.5424
vn -0.5436 0.6361 0.5477
vn -0.1109 -0.9875 0.1117
vn -0.0853 -0.9927 0.0856
vn -0.0000 0.7123 -0.7019
vn -0.0000 1.0000 -0.0000
vn -0.7071 -0.0000 -0.7071
vn -0.0000 -0.0000 -1.0000
vn 0.7071 -0.0000 -0.7071
vn 1.0000 -0.0000 -0.0000
vn 0.7071 -0.0000 0.7071
vn -0.0000 -0.0000 1.0000
vn -0.7071 -0.0000 0.7071
vn -1.0000 -0.0000 -0.0000
vn -0.9701 -0.2425 -0.0000
vn -0.9808 -0.0000 0.1951
vn -0.0000 -1.0000 -0.0000
vn -0.7319 -0.6657 -0.1456
vn 0.9808 -0.0000 -0.1951
vn 0.7319 -0.6657 -0.1456
vn 0.9701 -0.2425 -0.0000
vn -0.7319 -0.6657 0.1456
vn 0.7319 -0.6657 0.1456
vn 0.6909 0.7230 -0.0000
vn 0.6039 0.6319 -0.4859
vn 0.4982 0.5213 -0.6929
vn -0.6039 -0.6319 0.4859
vn -0.6909 -0.7230 -0.0000
vn -0.4982 -0.5213 0.6929
vn 0.1858 0.1944 -0.9632
vn -0.1858 -0.1944 -0.9632
vn -0.1858 -0.1944 0.9632
vn 0.1858 0.1944 0.9632
vn 0.4982 0.5213 0.6929
vn 0.6039 0.6319 0.4859
vn -0.4982 -0.5213 -0.6929
vn -0.6039 -0.6319 -0.4859
vn -0.9808 -0.0000 -0.1951
vn 0.9808 -0.0000 0.1951
vt 0.959703 0.009387
vt 0.960882 0.008099
vt 0.960684 0.009187
vt 0.957954 0.007566
vt 0.960035 0.007566
vt 0.962915 0.005744
vt 0.961736 0.007033
vt 0.961934 0.005945
vt 0.964664 0.007566
vt 0.962584 0.007566
vt 0.958751 0.010974
vt 0.960309 0.010184
vt 0.959740 0.011133
vt 0.957756 0.008654
vt 0.963867 0.004157
vt 0.962309 0.004947
vt 0.962878 0.003998
vt 0.964862 0.006477
vt 0.957301 0.012125
vt 0.959037 0.011934
vt 0.958171 0.012621
vt 0.957187 0.009603
vt 0.965317 0.003006
vt 0.963581 0.003197
vt 0.964447 0.002510
vt 0.965431 0.005529
vt 0.955539 0.012691
vt 0.957231 0.013124
vt 0.956177 0.013462
vt 0.956321 0.010290
vt 0.967079 0.002440
vt 0.965388 0.002008
vt 0.966441 0.001669
vt 0.966297 0.004841
vt 0.957231 0.002008
vt 0.955539 0.002440
vt 0.956177 0.001669
vt 0.956321 0.004841
vt 0.957301 0.003006
vt 0.965388 0.013124
vt 0.967079 0.012691
vt 0.966441 0.013462
vt 0.966297 0.010290
vt 0.965317 0.012125
vt 0.959037 0.003197
vt 0.958171 0.002510
vt 0.957187 0.005529
vt 0.958751 0.004157
vt 0.963581 0.011934
vt 0.964447 0.012621
vt 0.965431 0.009603
vt 0.963867 0.010974
vt 0.960309 0.004947
vt 0.959740 0.003998
vt 0.957756 0.006477
vt 0.959703 0.005744
vt 0.962309 0.010184
vt 0.962878 0.011133
vt 0.964862 0.008654
vt 0.962915 0.009387
vt 0.960882 0.007033
vt 0.960684 0.005945
vt 0.961736 0.008099
vt 0.961934 0.009187
vt 0.955268 0.010628
vt 0.967350 0.004503
vt 0.955268 0.004503
vt 0.967350 0.010628
vt 0.981114 0.009656
vt 0.982013 0.009945
vt 0.981114 0.005003
vt 0.980374 0.005590
vt 0.979888 0.006400
vt 0.979719 0.007329
vt 0.979888 0.008259
vt 0.980374 0.009069
vt 0.982013 0.004714
vt 0.924092 -0.341471
vt 0.974914 0.011060
vt 0.974174 0.011647
vt 0.976000 0.005093
vt 0.975514 0.004283
vt 0.973371 0.012076
vt 0.972472 0.012365
vt 0.976490 0.006874
vt 0.976321 0.005945
vt 0.976321 0.008714
vt 0.976490 0.007784
vt 0.972472 0.002294
vt 0.973371 0.002583
vt 0.975514 0.010376
vt 0.976000 0.009566
vt 0.974174 0.003012
vt 0.974914 0.003599
s 1
usemtl Catenary
f 107/20/52 69/21/53 108/22/54
f 107/20/55 71/23/56 70/24/56
f 105/25/57 71/26/58 106/27/59
f 105/25/60 73/28/61 72/29/61
f 102/30/62 108/31/54 103/32/63
f 102/30/64 106/33/65 107/20/55
f 100/34/66 106/35/59 101/36/67
f 100/34/68 104/37/69 105/25/60
f 97/38/70 103/39/63 98/40/71
f 97/38/72 101/41/73 102/30/64
f 95/42/74 101/43/67 96/44/75
f 95/42/76 99/45/77 100/34/68
f 92/46/78 98/47/71 93/48/78
f 92/46/79 96/49/80 97/38/72
f 90/50/81 96/51/75 91/52/82
f 90/50/83 94/53/84 95/42/76
f 88/54/85 92/55/78 93/56/78
f 86/57/86 92/55/79 87/58/87
f 86/59/88 90/60/81 91/61/82
f 84/62/89 90/60/83 85/63/90
f 83/64/91 87/58/92 88/65/85
f 81/66/93 87/58/87 82/67/94
f 81/68/95 85/63/96 86/69/88
f 79/70/97 85/63/90 80/71/98
f 78/72/99 82/67/100 83/73/91
f 76/74/101 82/67/94 77/75/102
f 76/76/103 80/71/104 81/77/95
f 74/78/105 80/71/98 75/79/106
f 69/80/53 77/75/107 78/81/99
f 71/23/56 77/75/102 70/24/56
f 71/82/58 75/79/108 76/83/103
f 73/28/61 75/79/106 72/29/61
f 107/20/52 70/24/53 69/21/53
f 107/20/55 106/33/65 71/23/56
f 105/25/57 72/29/58 71/26/58
f 105/25/60 104/37/69 73/28/61
f 102/30/62 107/20/52 108/31/54
f 102/30/64 101/41/73 106/33/65
f 100/34/66 105/25/57 106/35/59
f 100/34/68 99/45/77 104/37/69
f 97/38/70 102/30/62 103/39/63
f 97/38/72 96/49/80 101/41/73
f 95/42/74 100/34/66 101/43/67
f 95/42/76 94/53/84 99/45/77
f 92/46/78 97/38/70 98/47/71
f 92/46/79 91/84/109 96/49/80
f 90/50/81 95/42/74 96/51/75
f 90/50/83 89/85/83 94/53/84
f 88/54/85 87/58/92 92/55/78
f 86/57/86 91/86/109 92/55/79
f 86/59/88 85/63/96 90/60/81
f 84/62/89 89/87/83 90/60/83
f 83/64/91 82/67/100 87/58/92
f 81/66/93 86/57/86 87/58/87
f 81/68/95 80/71/104 85/63/96
f 79/70/97 84/62/89 85/63/90
f 78/72/99 77/75/107 82/67/100
f 76/74/101 81/66/93 82/67/94
f 76/76/103 75/79/108 80/71/104
f 74/78/105 79/70/97 80/71/98
f 69/80/53 70/24/53 77/75/107
f 71/23/56 76/74/101 77/75/102
f 71/82/58 72/29/58 75/79/108
f 73/28/61 74/78/105 75/79/106
f 99/45/110 116/37/110 104/37/110
f 79/70/110 112/62/110 84/62/110
f 94/53/110 115/45/110 99/45/110
f 74/78/110 111/70/110 79/70/110
f 89/85/110 114/53/110 94/53/110
f 74/78/110 109/28/110 110/78/110
f 104/37/110 109/28/110 73/28/110
f 84/62/110 113/87/110 89/87/110
f 112/88/111 121/89/112 113/89/112
f 114/90/113 123/91/114 115/91/114
f 116/92/115 117/93/116 109/93/116
f 109/93/116 118/94/117 110/94/117
f 111/95/118 120/88/111 112/88/111
f 113/96/112 122/90/113 114/90/113
f 115/91/114 124/92/115 116/92/115
f 110/94/117 119/95/118 111/95/118
f 119/95/119 147/95/120 126/95/118
f 121/89/121 131/88/121 130/89/121
f 126/95/118 132/95/122 119/95/119
f 117/93/121 141/94/121 118/94/121
s 0
f 125/97/110 145/97/110 127/97/110
f 125/97/110 135/97/110 136/97/110
s 1
f 121/96/121 128/90/121 122/90/121
f 117/93/121 138/92/121 139/93/121
f 131/88/111 135/89/112 130/89/112
f 128/90/113 134/91/123 129/91/124
f 132/95/122 136/88/111 131/88/111
f 130/96/112 133/90/113 128/90/113
s 0
f 125/97/110 137/97/110 126/97/110
s 1
f 123/91/125 134/91/123 127/91/114
s 0
f 125/97/110 134/97/110 133/97/110
s 1
f 120/88/121 132/95/122 131/88/121
f 122/90/121 129/91/124 123/91/125
s 0
f 125/97/110 133/97/110 135/97/110
s 1
f 141/94/117 147/95/120 142/95/126
f 138/92/115 144/93/116 139/93/116
f 139/93/116 146/94/117 141/94/117
f 140/91/127 143/92/115 138/92/115
f 127/91/114 140/91/127 123/91/125
f 124/92/121 140/91/127 138/92/121
s 0
f 125/97/110 147/97/110 146/97/110
f 125/97/110 144/97/110 143/97/110
f 125/97/110 146/97/110 144/97/110
s 1
f 118/94/121 142/95/126 119/95/119
f 103/98/128 153/99/129 98/99/130
f 78/100/131 150/101/132 149/100/133
f 98/102/130 152/103/134 93/103/135
f 69/104/136 149/105/133 148/104/137
f 108/106/138 148/107/137 155/106/139
f 93/108/135 151/109/140 88/109/141
f 103/110/128 155/111/139 154/110/128
f 88/112/141 150/113/132 83/113/132
f 99/45/110 115/45/110 116/37/110
f 79/70/110 111/70/110 112/62/110
f 94/53/110 114/53/110 115/45/110
f 74/78/110 110/78/110 111/70/110
f 89/85/110 113/85/110 114/53/110
f 74/78/110 73/28/110 109/28/110
f 104/37/110 116/37/110 109/28/110
f 84/62/110 112/62/110 113/87/110
f 112/88/111 120/88/111 121/89/112
f 114/90/113 122/90/113 123/91/114
f 116/92/115 124/92/115 117/93/116
f 109/93/116 117/93/116 118/94/117
f 111/95/118 119/95/118 120/88/111
f 113/96/112 121/96/112 122/90/113
f 115/91/114 123/91/114 124/92/115
f 110/94/117 118/94/117 119/95/118
f 119/95/119 142/95/126 147/95/120
f 121/89/121 120/88/121 131/88/121
f 126/95/118 137/95/142 132/95/122
f 117/93/121 139/93/121 141/94/121
s 0
f 125/97/110 143/97/110 145/97/110
s 1
f 121/96/121 130/96/121 128/90/121
f 117/93/121 124/92/121 138/92/121
f 131/88/111 136/88/111 135/89/112
f 128/90/113 133/90/113 134/91/123
f 132/95/122 137/95/142 136/88/111
f 130/96/112 135/96/112 133/90/113
s 0
f 125/97/110 136/97/110 137/97/110
s 1
f 123/91/125 129/91/124 134/91/123
s 0
f 125/97/110 127/97/110 134/97/110
s 1
f 120/88/121 119/95/119 132/95/122
f 122/90/121 128/90/121 129/91/124
f 141/94/117 146/94/117 147/95/120
f 138/92/115 143/92/115 144/93/116
f 139/93/116 144/93/116 146/94/117
f 140/91/127 145/91/143 143/92/115
f 127/91/114 145/91/143 140/91/127
f 124/92/121 123/91/125 140/91/127
s 0
f 125/97/110 126/97/110 147/97/110
s 1
f 118/94/121 141/94/121 142/95/126
f 103/98/128 154/98/128 153/99/129
f 78/100/131 83/101/132 150/101/132
f 98/102/130 153/102/129 152/103/134
f 69/104/136 78/105/131 149/105/133
f 108/106/138 69/107/136 148/107/137
f 93/108/135 152/108/134 151/109/140
f 103/110/128 108/111/138 155/111/139
f 88/112/141 151/112/140 150/113/132
o TrussGantryInsulatorSupport.005
v -0.340383 7.316891 0.178421
v -0.267523 7.316891 0.178420
v -0.340383 7.336663 0.178421
v -0.267523 7.336663 0.178420
v -0.340383 7.316891 -0.693176
v -0.267519 7.316891 -0.693177
v -0.340383 7.336663 -0.693176
v -0.267519 7.336663 -0.693177
vn -0.0000 -0.0000 1.0000
vn -0.0000 1.0000 -0.0000
vn -0.0000 -0.0000 -1.0000
vn -0.0000 -1.0000 -0.0000
vn -1.0000 -0.0000 -0.0000
vn 1.0000 -0.0000 -0.0000
vt 0.521748 0.499718
vt 0.514923 0.506544
vt 0.514923 0.499718
vt 0.521748 0.506544
vt 0.514923 0.513369
vt 0.521748 0.513369
vt 0.518431 0.806383
vt 0.527631 0.846481
vt 0.506738 0.846481
vt 0.508098 0.520194
vt 0.508098 0.513369
vt 0.528573 0.513369
vt 0.519002 0.806383
vt 0.528573 0.520194
s 0
usemtl Catenary
f 157/114/144 158/115/144 156/116/144
f 159/117/145 162/118/145 158/115/145
f 163/119/146 160/120/146 162/118/146
f 160/120/147 157/121/147 156/122/147
f 162/118/148 156/123/148 158/124/148
f 159/125/149 161/126/149 163/119/149
f 157/114/144 159/117/144 158/115/144
f 159/117/145 163/119/145 162/118/145
f 163/119/146 161/126/146 160/120/146
f 160/120/147 161/126/147 157/121/147
f 162/118/148 160/120/148 156/123/148
f 159/125/149 157/127/149 161/126/149
