# Blender 5.1.2
# www.blender.org
mtllib truss_arm_outer_single.mtl
o TrussRegistrationArmOuterSingle
g truss_arm_outer_single
v -0.932538 6.366487 0.003013
v -0.932538 6.369555 0.004284
v -0.932538 6.366487 -0.003125
v -0.932538 6.373896 -0.000056
v -0.932538 6.372624 0.003013
v -0.932544 6.350000 0.002288
v -1.032544 6.350000 0.002288
v -1.032539 6.370000 -0.020196
v -0.932539 6.370000 -0.020196
v -1.032539 6.355858 -0.014338
v -0.932539 6.355858 -0.014338
v -1.032539 6.355858 0.013946
v -0.932539 6.355858 0.013946
v -1.032539 6.370000 0.019804
v -0.932539 6.370000 0.019804
v -1.032539 6.384142 0.013946
v -0.932539 6.384142 0.013946
v -1.032539 6.390000 -0.000196
v -0.932539 6.390000 -0.000196
v -1.032539 6.384142 -0.014338
v -0.932539 6.384142 -0.014338
v -0.932538 6.365215 -0.000056
v -1.032539 6.365215 -0.000196
v -1.032539 6.369555 -0.004536
v -1.032539 6.366487 -0.003265
v -0.932538 6.369555 -0.004396
v -1.032539 6.366487 0.002873
v -1.032539 6.369555 0.004144
v -1.032539 6.372624 0.002873
v -1.032539 6.373896 -0.000196
v -1.032539 6.372624 -0.003265
v -0.932538 6.372624 -0.003125
v -0.308908 6.000000 0.006551
v -1.006810 6.301972 0.006552
v -0.649908 6.200000 0.006552
v -0.290905 6.019967 0.006551
v -0.999908 6.329857 0.006552
v -0.634259 6.223782 0.006552
v -0.290905 6.000000 0.006551
v -0.649908 6.200000 0.002552
v -1.006810 6.301972 0.002552
v -0.308908 6.000000 0.002551
v -0.634259 6.223782 0.002552
v -0.999908 6.329857 0.002552
v -0.290905 6.019967 0.002551
v -0.290905 6.000000 0.002551
v -0.932944 6.310431 0.002552
v -0.933026 6.301970 -0.002448
v -0.932544 6.350000 -0.002712
v -1.032544 6.350000 -0.002712
v -1.032256 6.301970 0.002552
v -1.032256 6.301970 -0.002448
v -0.933027 6.301970 0.002552
vn -0.0000 -0.0000 1.0000
vn -0.0000 -0.0000 -1.0000
vn -0.0000 -0.6805 -0.7328
vn -0.0000 -0.8930 -0.4500
vn -0.0000 -0.8935 0.4490
vn -0.0000 -0.6809 0.7324
vn -0.0000 -0.6808 0.7324
vn -0.0000 0.7071 0.7071
vn -0.0000 1.0000 -0.0000
vn -0.0000 0.7071 -0.7071
vn -1.0000 -0.0020 0.0001
vn -1.0000 0.0002 -0.0001
vn -1.0000 -0.0020 -0.0001
vn 1.0000 -0.0000 -0.0000
vn 1.0000 0.0001 -0.0000
vn -1.0000 -0.0000 -0.0000
vn 0.5104 0.8599 -0.0000
vn -0.5059 -0.8626 -0.0000
vn -0.9707 0.2402 -0.0000
vn 0.2786 0.9604 -0.0000
vn 0.2786 0.9604 0.0002
vn -0.2747 -0.9615 -0.0000
vn 1.0000 -0.0009 -0.0001
vn 0.9989 -0.0074 -0.0458
vn 1.0000 -0.0099 0.0002
vn -0.0000 -1.0000 0.0005
vn -0.0000 -1.0000 -0.0000
vn -0.0010 0.0086 1.0000
vn 0.0016 0.0079 1.0000
vn -0.0030 0.0082 1.0000
vn -0.0000 -0.0055 -1.0000
vn -0.0000 -0.6804 -0.7328
vn -1.0000 0.0001 0.0001
vn -1.0000 0.0001 -0.0000
vn -1.0000 -0.0060 -0.0000
vn 1.0000 -0.0002 0.0001
vn 1.0000 -0.0002 -0.0001
vn 1.0000 0.0001 0.0002
vn 1.0000 -0.0000 0.0001
vn 1.0000 -0.0002 -0.0000
vn 1.0000 -0.0001 -0.0001
vn 1.0000 0.0002 -0.0000
vn 0.9997 -0.0046 0.0230
vn 0.9999 -0.0100 -0.0000
vn 0.9988 -0.0098 0.0484
vn 0.0001 -1.0000 -0.0000
vn -0.0026 0.0030 1.0000
vn 0.0019 0.0067 1.0000
vt 0.969856 0.000273
vt 0.983856 0.014273
vt 0.982106 0.007273
vt 0.983856 0.007273
vt 0.980356 0.014273
vt 0.980356 0.007273
vt 0.978606 0.007273
vt 0.978606 0.014273
vt 0.976856 0.007273
vt 0.976856 0.014273
vt 0.975106 0.007273
vt 0.975106 0.014273
vt 0.973356 0.007273
vt 0.973356 0.014273
vt 0.971606 0.007273
vt 0.971606 0.014273
vt 0.969856 0.007273
vt 0.982106 0.014273
vt 0.969856 0.014273
s 1
usemtl Catenary
f 35/1/1 39/1/1 38/1/1
f 9/2/2 10/3/3 8/4/2
f 10/3/3 49/5/4 50/6/4
f 6/5/5 12/7/6 7/6/5
f 13/8/7 14/9/1 12/7/6
f 15/10/1 16/11/8 14/9/1
f 17/12/8 18/13/9 16/11/8
f 19/14/9 20/15/10 18/13/9
f 21/16/10 8/17/2 20/15/10
f 7/6/11 23/6/12 50/1/13
f 21/16/14 17/12/14 32/16/15
f 40/1/2 53/1/2 43/1/2
f 18/13/16 30/13/16 29/11/16
f 45/1/17 38/1/17 36/1/17
f 40/1/18 33/1/18 35/1/18
f 37/1/19 41/1/19 34/1/19
f 43/1/20 47/1/21 37/1/20
f 41/1/22 35/1/22 34/1/22
f 46/1/14 36/1/14 39/1/14
f 22/5/23 6/1/24 53/1/25
f 41/1/26 52/1/27 53/1/27
f 44/1/28 6/1/29 7/1/30
f 50/1/31 48/1/31 52/1/31
f 37/1/1 34/1/1 35/1/1
f 35/1/1 33/1/1 39/1/1
f 39/1/1 36/1/1 38/1/1
f 38/1/1 37/1/1 35/1/1
f 9/2/2 11/18/32 10/3/3
f 10/3/3 11/18/32 49/5/4
f 6/5/5 13/8/7 12/7/6
f 13/8/7 15/10/1 14/9/1
f 15/10/1 17/12/8 16/11/8
f 17/12/8 19/14/9 18/13/9
f 19/14/9 21/16/10 20/15/10
f 21/16/10 9/19/2 8/17/2
f 7/6/11 12/7/33 27/7/34
f 23/6/12 25/3/16 10/3/12
f 7/6/11 27/7/34 23/6/12
f 52/1/35 51/1/35 7/6/11
f 23/6/12 10/3/12 50/1/13
f 50/1/13 52/1/35 7/6/11
f 11/18/36 9/19/14 21/16/14
f 21/16/14 19/14/14 17/12/14
f 17/12/14 15/10/14 13/8/37
f 13/8/37 1/8/14 2/10/38
f 13/8/37 2/10/38 5/12/39
f 3/18/40 11/18/36 21/16/14
f 26/2/41 3/18/40 21/16/14
f 17/12/14 13/8/37 5/12/39
f 17/12/14 5/12/39 4/14/42
f 32/16/15 26/2/41 21/16/14
f 17/12/14 4/14/42 32/16/15
f 43/1/2 45/1/2 46/1/2
f 46/1/2 42/1/2 40/1/2
f 40/1/2 41/1/2 53/1/2
f 53/1/2 47/1/2 43/1/2
f 43/1/2 46/1/2 40/1/2
f 14/9/16 16/11/16 18/13/16
f 18/13/16 20/15/16 8/4/16
f 8/4/16 10/3/12 25/3/16
f 8/4/16 25/3/16 24/17/16
f 12/7/33 14/9/16 18/13/16
f 28/9/16 27/7/34 12/7/33
f 29/11/16 28/9/16 12/7/33
f 18/13/16 8/4/16 24/17/16
f 18/13/16 24/17/16 31/15/16
f 29/11/16 12/7/33 18/13/16
f 18/13/16 31/15/16 30/13/16
f 45/1/17 43/1/17 38/1/17
f 40/1/18 42/1/18 33/1/18
f 37/1/19 44/1/19 41/1/19
f 37/1/20 38/1/20 43/1/20
f 47/1/21 44/1/20 37/1/20
f 41/1/22 40/1/22 35/1/22
f 46/1/14 45/1/14 36/1/14
f 49/5/43 11/18/36 3/18/40
f 22/5/23 1/8/14 13/8/37
f 49/5/43 3/18/40 22/5/23
f 53/1/25 48/1/44 49/5/43
f 6/1/24 47/1/45 53/1/25
f 22/5/23 13/8/37 6/1/24
f 53/1/25 49/5/43 22/5/23
f 41/1/26 51/1/46 52/1/27
f 52/1/27 48/1/27 53/1/27
f 51/1/47 41/1/1 44/1/28
f 44/1/28 47/1/48 6/1/29
f 7/1/30 51/1/47 44/1/28
f 50/1/31 49/1/31 48/1/31
o TrussGantryInsulator.008
v -0.300000 7.039817 -0.008762
v -0.300000 7.054616 -0.102362
v -0.300000 7.130641 -0.022523
v -0.300000 7.140331 -0.102362
v -0.300000 7.216355 -0.038935
v -0.272291 7.216355 -0.027457
v -0.229289 7.140331 -0.073072
v -0.285157 7.130641 -0.016375
v -0.229289 7.054616 -0.073072
v -0.293626 7.039817 -0.006122
v -0.260813 7.216355 0.000252
v -0.200000 7.140331 -0.002362
v -0.279008 7.130641 -0.001531
v -0.200000 7.054616 -0.002362
v -0.290986 7.039817 0.000252
v -0.272291 7.216355 0.027961
v -0.229289 7.140331 0.068349
v -0.285960 7.130641 0.014596
v -0.229289 7.054616 0.068349
v -0.293626 7.039817 0.006626
v -0.300000 7.216355 0.039439
v -0.300000 7.140331 0.097638
v -0.300000 7.130641 0.020487
v -0.300000 7.054616 0.097638
v -0.300000 7.039817 0.009266
v -0.327709 7.216355 0.027961
v -0.370711 7.140331 0.068349
v -0.314040 7.130641 0.014596
v -0.370711 7.054616 0.068349
v -0.306374 7.039817 0.006626
v -0.339187 7.216355 0.000252
v -0.400000 7.140331 -0.002362
v -0.320992 7.130641 -0.001531
v -0.400000 7.054616 -0.002362
v -0.309014 7.039817 0.000252
v -0.327709 7.216355 -0.027457
v -0.370711 7.140331 -0.073072
v -0.314843 7.130641 -0.016375
v -0.370711 7.054616 -0.073072
v -0.306374 7.039817 -0.006122
v -0.300000 7.216355 -0.018017
v -0.287082 7.216355 -0.012666
v -0.281731 7.216355 0.000252
v -0.287082 7.216355 0.013170
v -0.300000 7.216355 0.018521
v -0.312918 7.216355 0.013170
v -0.318269 7.216355 0.000252
v -0.312918 7.216355 -0.012666
v -0.300000 7.334884 -0.018017
v -0.287082 7.334884 -0.012666
v -0.281731 7.334884 0.000252
v -0.287082 7.334884 0.013170
v -0.300000 7.334884 0.018521
v -0.312918 7.334884 0.013170
v -0.318269 7.334884 0.000252
v -0.312918 7.334884 -0.012666
v -0.300000 7.350073 0.000252
v -0.281731 7.350073 0.000252
v -0.318269 7.350073 0.000252
v -0.312918 7.334884 0.034277
v -0.318269 7.334884 0.021358
v -0.300000 7.334884 0.039627
v -0.287082 7.334884 0.034277
v -0.281731 7.334884 0.021358
v -0.312918 7.350073 0.034277
v -0.318269 7.350073 0.021358
v -0.300000 7.350073 0.039627
v -0.287082 7.350073 0.034277
v -0.281731 7.350073 0.021358
v -0.312918 7.334884 -0.034282
v -0.300000 7.334884 -0.039633
v -0.318269 7.334884 -0.021364
v -0.287082 7.334884 -0.034282
v -0.281731 7.334884 -0.021364
v -0.312918 7.350073 -0.034282
v -0.300000 7.350073 -0.039633
v -0.318269 7.350073 -0.021364
v -0.287082 7.350073 -0.034282
v -0.281731 7.350073 -0.021364
v -0.991315 6.379152 -0.008762
v -0.984942 6.379152 -0.006122
v -0.982301 6.379152 0.000252
v -0.984942 6.379152 0.006626
v -0.991315 6.379152 0.009266
v -0.997689 6.379152 0.006626
v -1.000329 6.379152 0.000252
v -0.997689 6.379152 -0.006122
vn -0.1109 -0.9875 -0.1117
vn -0.0000 -0.9877 -0.1562
vn -0.1122 -0.9875 -0.1105
vn -0.4879 0.7231 -0.4889
vn -0.0000 0.7242 -0.6896
vn -0.0853 -0.9927 -0.0856
vn -0.0000 -0.9927 -0.1205
vn -0.0857 -0.9927 -0.0852
vn -0.5436 0.6361 -0.5477
vn -0.0000 0.6406 -0.7679
vn -0.1605 -0.9870 -0.0008
vn -0.1606 -0.9870 0.0017
vn -0.6934 0.7206 -0.0010
vn -0.4893 0.7231 -0.4875
vn -0.1217 -0.9926 -0.0002
vn -0.1213 -0.9926 0.0010
vn -0.7808 0.6247 -0.0042
vn -0.5489 0.6360 -0.5424
vn -0.1162 -0.9865 0.1154
vn -0.1149 -0.9865 0.1167
vn -0.4952 0.7160 0.4921
vn -0.6917 0.7222 0.0052
vn -0.0876 -0.9924 0.0869
vn -0.0857 -0.9924 0.0888
vn -0.5609 0.6129 0.5566
vn -0.7810 0.6245 0.0066
vn -0.0000 -0.9863 0.1652
vn -0.0000 0.7126 0.7016
vn -0.4872 0.7158 0.5003
vn -0.0000 -0.9922 0.1245
vn -0.0000 -0.9922 0.1246
vn -0.0000 0.6079 0.7940
vn -0.5554 0.6128 0.5621
vn 0.1149 -0.9865 0.1167
vn 0.4872 0.7158 0.5003
vn 0.4952 0.7160 0.4921
vn 0.0857 -0.9924 0.0888
vn 0.5554 0.6128 0.5621
vn 0.5609 0.6129 0.5566
vn 0.1606 -0.9870 0.0017
vn 0.1162 -0.9865 0.1154
vn 0.6917 0.7222 0.0052
vn 0.6934 0.7206 -0.0010
vn 0.1213 -0.9926 0.0010
vn 0.0876 -0.9924 0.0869
vn 0.7810 0.6245 0.0066
vn 0.7808 0.6247 -0.0042
vn 0.1122 -0.9875 -0.1105
vn 0.1605 -0.9870 -0.0008
vn 0.4893 0.7231 -0.4875
vn 0.4879 0.7231 -0.4889
vn 0.0857 -0.9927 -0.0852
vn 0.1217 -0.9926 -0.0002
vn 0.5489 0.6360 -0.5424
vn 0.5436 0.6361 -0.5477
vn 0.1109 -0.9875 -0.1117
vn 0.0853 -0.9927 -0.0856
vn -0.0000 0.7123 0.7019
vn -0.0000 1.0000 -0.0000
vn 0.7071 -0.0000 0.7071
vn -0.0000 -0.0000 1.0000
vn -0.7071 -0.0000 0.7071
vn -1.0000 -0.0000 -0.0000
vn -0.7071 -0.0000 -0.7071
vn -0.0000 -0.0000 -1.0000
vn 0.7071 -0.0000 -0.7071
vn 1.0000 -0.0000 -0.0000
vn 0.9701 -0.2425 -0.0000
vn 0.9808 -0.0000 -0.1951
vn -0.0000 -1.0000 -0.0000
vn 0.7319 -0.6657 0.1456
vn -0.9808 -0.0000 0.1951
vn -0.7319 -0.6657 0.1456
vn -0.9701 -0.2425 -0.0000
vn 0.7319 -0.6657 -0.1456
vn -0.7319 -0.6657 -0.1456
vn -0.6909 0.7230 -0.0000
vn -0.6039 0.6319 0.4859
vn -0.4982 0.5213 0.6929
vn 0.6039 -0.6319 -0.4859
vn 0.6909 -0.7230 -0.0000
vn 0.4982 -0.5213 -0.6929
vn -0.1858 0.1944 0.9632
vn 0.1858 -0.1944 0.9632
vn 0.1858 -0.1944 -0.9632
vn -0.1858 0.1944 -0.9632
vn -0.4982 0.5213 -0.6929
vn -0.6039 0.6319 -0.4859
vn 0.4982 -0.5213 0.6929
vn 0.6039 -0.6319 0.4859
vn 0.9808 -0.0000 0.1951
vn -0.9808 -0.0000 -0.1951
vt 0.959703 0.009387
vt 0.960882 0.008099
vt 0.960684 0.009187
vt 0.957954 0.007566
vt 0.960035 0.007566
vt 0.962915 0.005744
vt 0.961736 0.007033
vt 0.961934 0.005945
vt 0.964664 0.007566
vt 0.962584 0.007566
vt 0.958751 0.010974
vt 0.960309 0.010184
vt 0.959740 0.011133
vt 0.957756 0.008654
vt 0.963867 0.004157
vt 0.962309 0.004947
vt 0.962878 0.003998
vt 0.964862 0.006477
vt 0.957301 0.012125
vt 0.959037 0.011934
vt 0.958171 0.012621
vt 0.957187 0.009603
vt 0.965317 0.003006
vt 0.963581 0.003197
vt 0.964447 0.002510
vt 0.965431 0.005529
vt 0.955539 0.012691
vt 0.957231 0.013124
vt 0.956177 0.013462
vt 0.956321 0.010290
vt 0.967079 0.002440
vt 0.965388 0.002008
vt 0.966441 0.001669
vt 0.966297 0.004841
vt 0.957231 0.002008
vt 0.955539 0.002440
vt 0.956177 0.001669
vt 0.956321 0.004841
vt 0.957301 0.003006
vt 0.965388 0.013124
vt 0.967079 0.012691
vt 0.966441 0.013462
vt 0.966297 0.010290
vt 0.965317 0.012125
vt 0.959037 0.003197
vt 0.958171 0.002510
vt 0.957187 0.005529
vt 0.958751 0.004157
vt 0.963581 0.011934
vt 0.964447 0.012621
vt 0.965431 0.009603
vt 0.963867 0.010974
vt 0.960309 0.004947
vt 0.959740 0.003998
vt 0.957756 0.006477
vt 0.959703 0.005744
vt 0.962309 0.010184
vt 0.962878 0.011133
vt 0.964862 0.008654
vt 0.962915 0.009387
vt 0.960882 0.007033
vt 0.960684 0.005945
vt 0.961736 0.008099
vt 0.961934 0.009187
vt 0.955268 0.010628
vt 0.967350 0.004503
vt 0.955268 0.004503
vt 0.967350 0.010628
vt 0.981114 0.009656
vt 0.982013 0.009945
vt 0.981114 0.005003
vt 0.980374 0.005590
vt 0.979888 0.006400
vt 0.979719 0.007329
vt 0.979888 0.008259
vt 0.980374 0.009069
vt 0.982013 0.004714
vt 0.924092 -0.341471
vt 0.974914 0.011060
vt 0.974174 0.011647
vt 0.976000 0.005093
vt 0.975514 0.004283
vt 0.973371 0.012076
vt 0.972472 0.012365
vt 0.976490 0.006874
vt 0.976321 0.005945
vt 0.976321 0.008714
vt 0.976490 0.007784
vt 0.972472 0.002294
vt 0.973371 0.002583
vt 0.975514 0.010376
vt 0.976000 0.009566
vt 0.974174 0.003012
vt 0.974914 0.003599
s 1
usemtl Catenary
f 92/20/49 54/21/50 93/22/51
f 92/20/52 56/23/53 55/24/53
f 90/25/54 56/26/55 91/27/56
f 90/25/57 58/28/58 57/29/58
f 87/30/59 93/31/51 88/32/60
f 87/30/61 91/33/62 92/20/52
f 85/34/63 91/35/56 86/36/64
f 85/34/65 89/37/66 90/25/57
f 82/38/67 88/39/60 83/40/68
f 82/38/69 86/41/70 87/30/61
f 80/42/71 86/43/64 81/44/72
f 80/42/73 84/45/74 85/34/65
f 77/46/75 83/47/68 78/48/75
f 77/46/76 81/49/77 82/38/69
f 75/50/78 81/51/72 76/52/79
f 75/50/80 79/53/81 80/42/73
f 73/54/82 77/55/75 78/56/75
f 71/57/83 77/55/76 72/58/84
f 71/59/85 75/60/78 76/61/79
f 69/62/86 75/60/80 70/63/87
f 68/64/88 72/58/89 73/65/82
f 66/66/90 72/58/84 67/67/91
f 66/68/92 70/63/93 71/69/85
f 64/70/94 70/63/87 65/71/95
f 63/72/96 67/67/97 68/73/88
f 61/74/98 67/67/91 62/75/99
f 61/76/100 65/71/101 66/77/92
f 59/78/102 65/71/95 60/79/103
f 54/80/50 62/75/104 63/81/96
f 56/23/53 62/75/99 55/24/53
f 56/82/55 60/79/105 61/83/100
f 58/28/58 60/79/103 57/29/58
f 92/20/49 55/24/50 54/21/50
f 92/20/52 91/33/62 56/23/53
f 90/25/54 57/29/55 56/26/55
f 90/25/57 89/37/66 58/28/58
f 87/30/59 92/20/49 93/31/51
f 87/30/61 86/41/70 91/33/62
f 85/34/63 90/25/54 91/35/56
f 85/34/65 84/45/74 89/37/66
f 82/38/67 87/30/59 88/39/60
f 82/38/69 81/49/77 86/41/70
f 80/42/71 85/34/63 86/43/64
f 80/42/73 79/53/81 84/45/74
f 77/46/75 82/38/67 83/47/68
f 77/46/76 76/84/106 81/49/77
f 75/50/78 80/42/71 81/51/72
f 75/50/80 74/85/80 79/53/81
f 73/54/82 72/58/89 77/55/75
f 71/57/83 76/86/106 77/55/76
f 71/59/85 70/63/93 75/60/78
f 69/62/86 74/87/80 75/60/80
f 68/64/88 67/67/97 72/58/89
f 66/66/90 71/57/83 72/58/84
f 66/68/92 65/71/101 70/63/93
f 64/70/94 69/62/86 70/63/87
f 63/72/96 62/75/104 67/67/97
f 61/74/98 66/66/90 67/67/91
f 61/76/100 60/79/105 65/71/101
f 59/78/102 64/70/94 65/71/95
f 54/80/50 55/24/50 62/75/104
f 56/23/53 61/74/98 62/75/99
f 56/82/55 57/29/55 60/79/105
f 58/28/58 59/78/102 60/79/103
f 84/45/107 101/37/107 89/37/107
f 64/70/107 97/62/107 69/62/107
f 79/53/107 100/45/107 84/45/107
f 59/78/107 96/70/107 64/70/107
f 74/85/107 99/53/107 79/53/107
f 59/78/107 94/28/107 95/78/107
f 89/37/107 94/28/107 58/28/107
f 69/62/107 98/87/107 74/87/107
f 97/88/108 106/89/109 98/89/109
f 99/90/110 108/91/111 100/91/111
f 101/92/112 102/93/113 94/93/113
f 94/93/113 103/94/114 95/94/114
f 96/95/115 105/88/108 97/88/108
f 98/96/109 107/90/110 99/90/110
f 100/91/111 109/92/112 101/92/112
f 95/94/114 104/95/115 96/95/115
f 104/95/116 132/95/117 111/95/115
f 106/89/118 116/88/118 115/89/118
f 111/95/115 117/95/119 104/95/116
f 102/93/118 126/94/118 103/94/118
s 0
f 110/97/107 130/97/107 112/97/107
f 110/97/107 120/97/107 121/97/107
s 1
f 106/96/118 113/90/118 107/90/118
f 102/93/118 123/92/118 124/93/118
f 116/88/108 120/89/109 115/89/109
f 113/90/110 119/91/120 114/91/121
f 117/95/119 121/88/108 116/88/108
f 115/96/109 118/90/110 113/90/110
s 0
f 110/97/107 122/97/107 111/97/107
s 1
f 108/91/122 119/91/120 112/91/111
s 0
f 110/97/107 119/97/107 118/97/107
s 1
f 105/88/118 117/95/119 116/88/118
f 107/90/118 114/91/121 108/91/122
s 0
f 110/97/107 118/97/107 120/97/107
s 1
f 126/94/114 132/95/117 127/95/123
f 123/92/112 129/93/113 124/93/113
f 124/93/113 131/94/114 126/94/114
f 125/91/124 128/92/112 123/92/112
f 112/91/111 125/91/124 108/91/122
f 109/92/118 125/91/124 123/92/118
s 0
f 110/97/107 132/97/107 131/97/107
f 110/97/107 129/97/107 128/97/107
f 110/97/107 131/97/107 129/97/107
s 1
f 103/94/118 127/95/123 104/95/116
f 88/98/125 138/99/126 83/99/127
f 63/100/128 135/101/129 134/100/130
f 83/102/127 137/103/131 78/103/132
f 54/104/133 134/105/130 133/104/134
f 93/106/135 133/107/134 140/106/136
f 78/108/132 136/109/137 73/109/138
f 88/110/125 140/111/136 139/110/125
f 73/112/138 135/113/129 68/113/129
f 84/45/107 100/45/107 101/37/107
f 64/70/107 96/70/107 97/62/107
f 79/53/107 99/53/107 100/45/107
f 59/78/107 95/78/107 96/70/107
f 74/85/107 98/85/107 99/53/107
f 59/78/107 58/28/107 94/28/107
f 89/37/107 101/37/107 94/28/107
f 69/62/107 97/62/107 98/87/107
f 97/88/108 105/88/108 106/89/109
f 99/90/110 107/90/110 108/91/111
f 101/92/112 109/92/112 102/93/113
f 94/93/113 102/93/113 103/94/114
f 96/95/115 104/95/115 105/88/108
f 98/96/109 106/96/109 107/90/110
f 100/91/111 108/91/111 109/92/112
f 95/94/114 103/94/114 104/95/115
f 104/95/116 127/95/123 132/95/117
f 106/89/118 105/88/118 116/88/118
f 111/95/115 122/95/139 117/95/119
f 102/93/118 124/93/118 126/94/118
s 0
f 110/97/107 128/97/107 130/97/107
s 1
f 106/96/118 115/96/118 113/90/118
f 102/93/118 109/92/118 123/92/118
f 116/88/108 121/88/108 120/89/109
f 113/90/110 118/90/110 119/91/120
f 117/95/119 122/95/139 121/88/108
f 115/96/109 120/96/109 118/90/110
s 0
f 110/97/107 121/97/107 122/97/107
s 1
f 108/91/122 114/91/121 119/91/120
s 0
f 110/97/107 112/97/107 119/97/107
s 1
f 105/88/118 104/95/116 117/95/119
f 107/90/118 113/90/118 114/91/121
f 126/94/114 131/94/114 132/95/117
f 123/92/112 128/92/112 129/93/113
f 124/93/113 129/93/113 131/94/114
f 125/91/124 130/91/140 128/92/112
f 112/91/111 130/91/140 125/91/124
f 109/92/118 108/91/122 125/91/124
s 0
f 110/97/107 111/97/107 132/97/107
s 1
f 103/94/118 126/94/118 127/95/123
f 88/98/125 139/98/125 138/99/126
f 63/100/128 68/101/129 135/101/129
f 83/102/127 138/102/126 137/103/131
f 54/104/133 63/105/128 134/105/130
f 93/106/135 54/107/133 133/107/134
f 78/108/132 137/108/131 136/109/137
f 88/110/125 93/111/135 140/111/136
f 73/112/138 136/112/137 135/113/129
o TrussGantryInsulatorSupport.008
v -0.340383 7.316891 0.178421
v -0.267523 7.316891 0.178420
v -0.340383 7.336663 0.178421
v -0.267523 7.336663 0.178420
v -0.340382 7.316891 -0.693176
v -0.267518 7.316891 -0.693177
v -0.340382 7.336663 -0.693176
v -0.267518 7.336663 -0.693177
vn -0.0000 -0.0000 1.0000
vn -0.0000 1.0000 -0.0000
vn -0.0000 -0.0000 -1.0000
vn -0.0000 -1.0000 -0.0000
vn -1.0000 -0.0000 -0.0000
vn 1.0000 -0.0000 -0.0000
vt 0.521748 0.499718
vt 0.514923 0.506544
vt 0.514923 0.499718
vt 0.521748 0.506544
vt 0.514923 0.513369
vt 0.521748 0.513369
vt 0.518431 0.806383
vt 0.527631 0.846481
vt 0.506738 0.846481
vt 0.508098 0.520194
vt 0.508098 0.513369
vt 0.528573 0.513369
vt 0.519002 0.806383
vt 0.528573 0.520194
s 0
usemtl Catenary
f 142/114/141 143/115/141 141/116/141
f 144/117/142 147/118/142 143/115/142
f 148/119/143 145/120/143 147/118/143
f 145/120/144 142/121/144 141/122/144
f 147/118/145 141/123/145 143/124/145
f 144/125/146 146/126/146 148/119/146
f 142/114/141 144/117/141 143/115/141
f 144/117/142 148/119/142 147/118/142
f 148/119/143 146/126/143 145/120/143
f 145/120/144 146/126/144 142/121/144
f 147/118/145 145/120/145 141/123/145
f 144/125/146 142/127/146 146/126/146
