# Blender 5.1.2
# www.blender.org
mtllib tunnel_middle_dual.mtl
o TunnelArmMiddleDual
g tunnel_middle_dual
v -0.008433 6.000000 -0.006696
v 0.689469 6.301972 -0.006697
v 0.332567 6.200000 -0.006696
v -0.026435 6.019967 -0.006696
v 0.682567 6.329857 -0.006697
v 0.316918 6.223782 -0.006696
v -0.026435 6.000000 -0.006696
v 0.332567 6.200000 -0.002696
v 0.689469 6.301972 -0.002697
v -0.008433 6.000000 -0.002696
v 0.316918 6.223782 -0.002696
v 0.682567 6.329857 -0.002697
v -0.026435 6.019967 -0.002696
v -0.026435 6.000000 -0.002696
v 0.724470 6.301971 0.002303
v 0.717571 6.329857 0.002303
v 0.717571 6.329857 0.006303
v 0.724472 6.301972 0.006303
v 0.008568 6.000000 0.006304
v 0.008568 6.019967 0.006304
v 0.351922 6.223782 0.006303
v 0.026571 6.000000 0.006304
v 0.367571 6.200000 0.006303
v 0.008568 6.000000 0.002304
v 0.351922 6.223782 0.002303
v 0.008568 6.019967 0.002304
v 0.367571 6.200000 0.002303
v 0.026571 6.000000 0.002304
vn -0.0000 -0.0000 -1.0000
vn -0.5104 0.8599 -0.0000
vn 0.5059 -0.8626 -0.0000
vn 0.9707 0.2402 -0.0000
vn -0.2786 0.9604 -0.0000
vn 0.2747 -0.9615 -0.0000
vn -1.0000 -0.0000 -0.0000
vn -0.0000 -0.0000 1.0000
vn 0.2747 -0.9615 -0.0001
vn 0.9707 0.2402 -0.0001
vn 0.9707 0.2402 -0.0006
vt 0.976897 0.007160
vt 0.983131 0.003687
vt 0.977168 0.007573
vt 0.983131 0.004034
vt 0.982818 0.003687
vt 0.970819 0.009415
vt 0.970699 0.008931
vt 0.982523 0.003687
vt 0.982523 0.004034
vt 0.970091 0.008931
vt 0.976289 0.007160
vt 0.976560 0.007573
vt 0.970211 0.009415
vt 0.982210 0.003687
vt 0.970091 0.008931
s 1
usemtl Catenary
f 3/1/1 7/2/1 6/3/1
f 13/4/2 6/3/2 4/4/2
f 8/1/3 1/5/3 3/1/3
f 12/6/4 2/7/4 5/6/4
f 11/3/5 5/6/5 6/3/5
f 9/7/6 3/1/6 2/7/6
f 14/2/7 4/4/7 7/2/7
f 11/3/8 14/2/8 8/1/8
f 19/8/7 26/9/7 24/8/7
f 15/10/9 23/11/6 27/11/6
f 21/12/5 16/13/5 25/12/5
f 17/13/10 15/10/11 16/13/4
f 23/11/3 28/14/3 27/11/3
f 20/9/2 25/12/2 26/9/2
f 21/12/8 23/11/8 17/13/8
f 27/11/1 25/12/1 15/10/1
f 5/6/1 2/7/1 3/1/1
f 3/1/1 1/5/1 7/2/1
f 7/2/1 4/4/1 6/3/1
f 6/3/1 5/6/1 3/1/1
f 13/4/2 11/3/2 6/3/2
f 8/1/3 10/5/3 1/5/3
f 12/6/4 9/7/4 2/7/4
f 11/3/5 12/6/5 5/6/5
f 9/7/6 8/1/6 3/1/6
f 14/2/7 13/4/7 4/4/7
f 8/1/8 9/7/8 12/6/8
f 11/3/8 13/4/8 14/2/8
f 14/2/8 10/5/8 8/1/8
f 8/1/8 12/6/8 11/3/8
f 19/8/7 20/9/7 26/9/7
f 15/10/9 18/15/9 23/11/6
f 21/12/5 17/13/5 16/13/5
f 17/13/10 18/15/11 15/10/11
f 23/11/3 22/14/3 28/14/3
f 20/9/2 21/12/2 25/12/2
f 21/12/8 20/9/8 19/8/8
f 19/8/8 22/14/8 23/11/8
f 23/11/8 18/15/8 17/13/8
f 21/12/8 19/8/8 23/11/8
f 27/11/1 28/14/1 24/8/1
f 24/8/1 26/9/1 25/12/1
f 25/12/1 16/13/1 15/10/1
f 27/11/1 24/8/1 25/12/1
o TunnelVerticalInsulator.006
v 0.000132 7.039817 -0.008762
v 0.000132 7.054616 -0.102362
v 0.000132 7.130641 -0.022523
v 0.000132 7.140331 -0.102362
v 0.000132 7.216355 -0.038935
v 0.027842 7.216355 -0.027458
v 0.070843 7.140331 -0.073073
v 0.014976 7.130641 -0.016375
v 0.070843 7.054616 -0.073073
v 0.006506 7.039817 -0.006122
v 0.039319 7.216355 0.000252
v 0.100132 7.140331 -0.002362
v 0.021124 7.130641 -0.001532
v 0.100132 7.054616 -0.002362
v 0.009146 7.039817 0.000252
v 0.027842 7.216355 0.027961
v 0.070843 7.140331 0.068349
v 0.014173 7.130641 0.014596
v 0.070843 7.054616 0.068349
v 0.006506 7.039817 0.006626
v 0.000132 7.216355 0.039439
v 0.000133 7.140331 0.097638
v 0.000132 7.130641 0.020487
v 0.000133 7.054616 0.097638
v 0.000132 7.039817 0.009266
v -0.027577 7.216355 0.027961
v -0.070578 7.140331 0.068349
v -0.013908 7.130641 0.014596
v -0.070578 7.054616 0.068349
v -0.006241 7.039817 0.006626
v -0.039054 7.216355 0.000252
v -0.099868 7.140331 -0.002362
v -0.020859 7.130641 -0.001532
v -0.099868 7.054616 -0.002362
v -0.008882 7.039817 0.000252
v -0.027577 7.216355 -0.027457
v -0.070578 7.140331 -0.073072
v -0.014711 7.130641 -0.016375
v -0.070578 7.054616 -0.073072
v -0.006241 7.039817 -0.006122
v 0.000132 7.216355 -0.018017
v 0.013051 7.216355 -0.012666
v 0.018401 7.216355 0.000252
v 0.013051 7.216355 0.013170
v 0.000132 7.216355 0.018521
v -0.012786 7.216355 0.013170
v -0.018137 7.216355 0.000252
v -0.012786 7.216355 -0.012666
v 0.000132 7.334884 -0.018017
v 0.013051 7.334884 -0.012666
v 0.018401 7.334884 0.000252
v 0.013051 7.334884 0.013170
v 0.000132 7.334884 0.018521
v -0.012786 7.334884 0.013170
v -0.018137 7.334884 0.000252
v -0.012786 7.334884 -0.012666
v 0.000132 7.350073 0.000252
v 0.018401 7.350073 0.000252
v -0.018137 7.350073 0.000252
v -0.012786 7.334884 0.034276
v -0.018137 7.334884 0.021358
v 0.000132 7.334884 0.039627
v 0.013051 7.334884 0.034276
v 0.018402 7.334884 0.021358
v -0.012786 7.350073 0.034276
v -0.018137 7.350073 0.021358
v 0.000132 7.350073 0.039627
v 0.013051 7.350073 0.034276
v 0.018402 7.350073 0.021358
v -0.012786 7.334884 -0.034282
v 0.000132 7.334884 -0.039633
v -0.018137 7.334884 -0.021364
v 0.013051 7.334884 -0.034282
v 0.018401 7.334884 -0.021364
v -0.012786 7.350073 -0.034282
v 0.000132 7.350073 -0.039633
v -0.018137 7.350073 -0.021364
v 0.013051 7.350073 -0.034282
v 0.018401 7.350073 -0.021364
v 0.000132 6.986049 -0.008762
v 0.006506 6.986049 -0.006122
v 0.009146 6.986049 0.000252
v 0.006506 6.986049 0.006626
v 0.000132 6.986049 0.009266
v -0.006241 6.986049 0.006626
v -0.008882 6.986049 0.000252
v -0.006241 6.986049 -0.006122
v 0.761674 6.334139 -0.008735
v 0.767783 6.335958 -0.006095
v 0.770313 6.336710 0.000279
v 0.767783 6.335958 0.006652
v 0.761674 6.334139 0.009293
v 0.755565 6.332321 0.006652
v 0.753034 6.331568 0.000279
v 0.755565 6.332321 -0.006095
vn -0.1109 -0.9875 -0.1117
vn -0.0000 -0.9877 -0.1562
vn -0.1122 -0.9875 -0.1105
vn -0.4879 0.7231 -0.4889
vn -0.0000 0.7242 -0.6896
vn -0.0853 -0.9927 -0.0856
vn -0.0000 -0.9927 -0.1205
vn -0.0857 -0.9927 -0.0852
vn -0.5436 0.6361 -0.5477
vn -0.0000 0.6406 -0.7679
vn -0.1605 -0.9870 -0.0008
vn -0.1606 -0.9870 0.0017
vn -0.6934 0.7206 -0.0010
vn -0.4893 0.7231 -0.4875
vn -0.1217 -0.9926 -0.0002
vn -0.1213 -0.9926 0.0010
vn -0.7808 0.6247 -0.0042
vn -0.5489 0.6360 -0.5424
vn -0.1162 -0.9865 0.1154
vn -0.1149 -0.9865 0.1167
vn -0.4952 0.7160 0.4921
vn -0.6917 0.7222 0.0052
vn -0.0876 -0.9924 0.0869
vn -0.0857 -0.9924 0.0888
vn -0.5609 0.6129 0.5566
vn -0.7810 0.6245 0.0066
vn -0.0000 -0.9863 0.1652
vn -0.0000 0.7126 0.7016
vn -0.4872 0.7158 0.5003
vn -0.0000 -0.9922 0.1245
vn -0.0000 -0.9922 0.1246
vn -0.0000 0.6079 0.7940
vn -0.5554 0.6128 0.5621
vn 0.1149 -0.9865 0.1167
vn 0.4872 0.7158 0.5003
vn 0.4952 0.7160 0.4921
vn 0.0857 -0.9924 0.0888
vn 0.5554 0.6128 0.5621
vn 0.5609 0.6129 0.5566
vn 0.1606 -0.9870 0.0017
vn 0.1162 -0.9865 0.1154
vn 0.6917 0.7222 0.0052
vn 0.6934 0.7206 -0.0010
vn 0.1213 -0.9926 0.0010
vn 0.0876 -0.9924 0.0869
vn 0.7810 0.6245 0.0066
vn 0.7808 0.6247 -0.0042
vn 0.1122 -0.9875 -0.1105
vn 0.1605 -0.9870 -0.0008
vn 0.4893 0.7231 -0.4875
vn 0.4879 0.7231 -0.4889
vn 0.0857 -0.9927 -0.0852
vn 0.1217 -0.9926 -0.0002
vn 0.5489 0.6360 -0.5424
vn 0.5436 0.6361 -0.5477
vn 0.1109 -0.9875 -0.1117
vn 0.0853 -0.9927 -0.0856
vn -0.0000 0.7123 0.7019
vn -0.0000 1.0000 -0.0000
vn 0.7071 -0.0000 0.7071
vn -0.0000 -0.0000 1.0000
vn -0.7071 -0.0000 0.7071
vn -1.0000 -0.0000 -0.0000
vn -0.7071 -0.0000 -0.7071
vn -0.0000 -0.0000 -1.0000
vn 0.7071 -0.0000 -0.7071
vn 1.0000 -0.0000 -0.0000
vn 0.9701 -0.2425 -0.0000
vn 0.9808 -0.0000 -0.1951
vn -0.0000 -1.0000 -0.0000
vn 0.7319 -0.6657 0.1456
vn -0.9808 -0.0000 0.1951
vn -0.7319 -0.6657 0.1456
vn -0.9701 -0.2425 -0.0000
vn 0.7319 -0.6657 -0.1456
vn -0.7319 -0.6657 -0.1456
vn 0.6494 0.7605 -0.0000
vn 0.5295 0.6205 -0.5785
vn 0.4764 0.5572 -0.6802
vn 0.4764 0.5572 0.6801
vn 0.1057 0.1241 0.9866
vn 0.5294 0.6205 0.5785
vn -0.5782 -0.6733 0.4609
vn -0.6512 -0.7589 -0.0000
vn -0.4486 -0.5233 0.7245
vn -0.1956 -0.2277 -0.9539
vn -0.4486 -0.5233 -0.7245
vn -0.5782 -0.6733 -0.4608
vn 0.1057 0.1241 -0.9866
vn 0.6490 0.7608 -0.0000
vn -0.1956 -0.2276 0.9539
vn -0.6516 -0.7586 -0.0000
vn 0.9808 -0.0000 0.1951
vn -0.9808 -0.0000 -0.1951
vt 0.959703 0.009387
vt 0.960882 0.008099
vt 0.960684 0.009187
vt 0.957954 0.007566
vt 0.960035 0.007566
vt 0.962915 0.005744
vt 0.961736 0.007033
vt 0.961934 0.005945
vt 0.964664 0.007566
vt 0.962584 0.007566
vt 0.958751 0.010974
vt 0.960309 0.010184
vt 0.959740 0.011133
vt 0.957756 0.008654
vt 0.963867 0.004157
vt 0.962309 0.004947
vt 0.962878 0.003998
vt 0.964862 0.006477
vt 0.957301 0.012125
vt 0.959037 0.011934
vt 0.958171 0.012621
vt 0.957187 0.009603
vt 0.965317 0.003006
vt 0.963581 0.003197
vt 0.964447 0.002510
vt 0.965431 0.005529
vt 0.955539 0.012691
vt 0.957231 0.013124
vt 0.956177 0.013462
vt 0.956321 0.010290
vt 0.967079 0.002440
vt 0.965388 0.002008
vt 0.966441 0.001669
vt 0.966297 0.004841
vt 0.957231 0.002008
vt 0.955539 0.002440
vt 0.956177 0.001669
vt 0.956321 0.004841
vt 0.957301 0.003006
vt 0.965388 0.013124
vt 0.967079 0.012691
vt 0.966441 0.013462
vt 0.966297 0.010290
vt 0.965317 0.012125
vt 0.959037 0.003197
vt 0.958171 0.002510
vt 0.957187 0.005529
vt 0.958751 0.004157
vt 0.963581 0.011934
vt 0.964447 0.012621
vt 0.965431 0.009603
vt 0.963867 0.010974
vt 0.960309 0.004947
vt 0.959740 0.003998
vt 0.957756 0.006477
vt 0.959703 0.005744
vt 0.962309 0.010184
vt 0.962878 0.011133
vt 0.964862 0.008654
vt 0.962915 0.009387
vt 0.960882 0.007033
vt 0.960684 0.005945
vt 0.961736 0.008099
vt 0.961934 0.009187
vt 0.955268 0.010628
vt 0.967350 0.004503
vt 0.955268 0.004503
vt 0.967350 0.010628
vt 0.981114 0.009656
vt 0.982013 0.009945
vt 0.981114 0.005003
vt 0.980374 0.005590
vt 0.979888 0.006400
vt 0.979719 0.007329
vt 0.979888 0.008259
vt 0.980374 0.009069
vt 0.982013 0.004714
vt 0.924092 -0.341471
vt 0.974914 0.011060
vt 0.974174 0.011647
vt 0.975514 0.004283
vt 0.976000 0.005093
vt 0.973371 0.012076
vt 0.972472 0.012365
vt 0.976321 0.005945
vt 0.976490 0.006874
vt 0.976490 0.007784
vt 0.976321 0.008714
vt 0.972472 0.002294
vt 0.973371 0.002583
vt 0.976000 0.009566
vt 0.975514 0.010376
vt 0.974174 0.003012
vt 0.974914 0.003599
s 1
usemtl Catenary
f 67/16/12 29/17/13 68/18/14
f 67/16/15 31/19/16 30/20/16
f 65/21/17 31/22/18 66/23/19
f 65/21/20 33/24/21 32/25/21
f 62/26/22 68/27/14 63/28/23
f 62/26/24 66/29/25 67/16/15
f 60/30/26 66/31/19 61/32/27
f 60/30/28 64/33/29 65/21/20
f 57/34/30 63/35/23 58/36/31
f 57/34/32 61/37/33 62/26/24
f 55/38/34 61/39/27 56/40/35
f 55/38/36 59/41/37 60/30/28
f 52/42/38 58/43/31 53/44/38
f 52/42/39 56/45/40 57/34/32
f 50/46/41 56/47/35 51/48/42
f 50/46/43 54/49/44 55/38/36
f 48/50/45 52/51/38 53/52/38
f 46/53/46 52/51/39 47/54/47
f 46/55/48 50/56/41 51/57/42
f 44/58/49 50/56/43 45/59/50
f 43/60/51 47/54/52 48/61/45
f 41/62/53 47/54/47 42/63/54
f 41/64/55 45/59/56 46/65/48
f 39/66/57 45/59/50 40/67/58
f 38/68/59 42/63/60 43/69/51
f 36/70/61 42/63/54 37/71/62
f 36/72/63 40/67/64 41/73/55
f 34/74/65 40/67/58 35/75/66
f 29/76/13 37/71/67 38/77/59
f 31/19/16 37/71/62 30/20/16
f 31/78/18 35/75/68 36/79/63
f 33/24/21 35/75/66 32/25/21
f 67/16/12 30/20/13 29/17/13
f 67/16/15 66/29/25 31/19/16
f 65/21/17 32/25/18 31/22/18
f 65/21/20 64/33/29 33/24/21
f 62/26/22 67/16/12 68/27/14
f 62/26/24 61/37/33 66/29/25
f 60/30/26 65/21/17 66/31/19
f 60/30/28 59/41/37 64/33/29
f 57/34/30 62/26/22 63/35/23
f 57/34/32 56/45/40 61/37/33
f 55/38/34 60/30/26 61/39/27
f 55/38/36 54/49/44 59/41/37
f 52/42/38 57/34/30 58/43/31
f 52/42/39 51/80/69 56/45/40
f 50/46/41 55/38/34 56/47/35
f 50/46/43 49/81/43 54/49/44
f 48/50/45 47/54/52 52/51/38
f 46/53/46 51/82/69 52/51/39
f 46/55/48 45/59/56 50/56/41
f 44/58/49 49/83/43 50/56/43
f 43/60/51 42/63/60 47/54/52
f 41/62/53 46/53/46 47/54/47
f 41/64/55 40/67/64 45/59/56
f 39/66/57 44/58/49 45/59/50
f 38/68/59 37/71/67 42/63/60
f 36/70/61 41/62/53 42/63/54
f 36/72/63 35/75/68 40/67/64
f 34/74/65 39/66/57 40/67/58
f 29/76/13 30/20/13 37/71/67
f 31/19/16 36/70/61 37/71/62
f 31/78/18 32/25/18 35/75/68
f 33/24/21 34/74/65 35/75/66
f 59/41/70 76/33/70 64/33/70
f 39/66/70 72/58/70 44/58/70
f 54/49/70 75/41/70 59/41/70
f 34/74/70 71/66/70 39/66/70
f 49/81/70 74/49/70 54/49/70
f 34/74/70 69/24/70 70/74/70
f 64/33/70 69/24/70 33/24/70
f 44/58/70 73/83/70 49/83/70
f 72/84/71 81/85/72 73/85/72
f 74/86/73 83/87/74 75/87/74
f 76/88/75 77/89/76 69/89/76
f 69/89/76 78/90/77 70/90/77
f 71/91/78 80/84/71 72/84/71
f 73/92/72 82/86/73 74/86/73
f 75/87/74 84/88/75 76/88/75
f 70/90/77 79/91/78 71/91/78
f 79/91/79 107/91/80 86/91/78
f 81/85/81 91/84/81 90/85/81
f 86/91/78 92/91/82 79/91/79
f 77/89/81 101/90/81 78/90/81
s 0
f 85/93/70 105/93/70 87/93/70
f 85/93/70 95/93/70 96/93/70
s 1
f 81/92/81 88/86/81 82/86/81
f 77/89/81 98/88/81 99/89/81
f 91/84/71 95/85/72 90/85/72
f 88/86/73 94/87/83 89/87/84
f 92/91/82 96/84/71 91/84/71
f 90/92/72 93/86/73 88/86/73
s 0
f 85/93/70 97/93/70 86/93/70
s 1
f 83/87/85 94/87/83 87/87/74
s 0
f 85/93/70 94/93/70 93/93/70
s 1
f 80/84/81 92/91/82 91/84/81
f 82/86/81 89/87/84 83/87/85
s 0
f 85/93/70 93/93/70 95/93/70
s 1
f 101/90/77 107/91/80 102/91/86
f 98/88/75 104/89/76 99/89/76
f 99/89/76 106/90/77 101/90/77
f 100/87/87 103/88/75 98/88/75
f 87/87/74 100/87/87 83/87/85
f 84/88/81 100/87/87 98/88/81
s 0
f 85/93/70 107/93/70 106/93/70
f 85/93/70 104/93/70 103/93/70
f 85/93/70 106/93/70 104/93/70
s 1
f 78/90/81 102/91/86 79/91/79
f 63/94/74 113/95/73 58/95/73
f 43/96/78 109/97/77 38/97/77
f 58/98/73 112/99/72 53/99/72
f 38/100/77 108/101/76 29/101/76
f 29/102/76 115/103/75 68/103/75
f 53/104/72 111/105/71 48/105/71
f 68/106/75 114/107/74 63/107/74
f 48/108/71 110/109/78 43/109/78
f 110/96/88 117/97/89 109/97/90
f 111/105/91 120/104/92 119/105/93
f 113/95/94 122/94/95 121/95/96
f 108/102/97 123/103/98 115/103/99
f 109/100/90 116/101/100 108/101/97
f 110/109/88 119/108/93 118/109/101
f 112/99/102 121/98/96 120/99/92
f 115/106/99 122/107/95 114/107/103
f 59/41/70 75/41/70 76/33/70
f 39/66/70 71/66/70 72/58/70
f 54/49/70 74/49/70 75/41/70
f 34/74/70 70/74/70 71/66/70
f 49/81/70 73/81/70 74/49/70
f 34/74/70 33/24/70 69/24/70
f 64/33/70 76/33/70 69/24/70
f 44/58/70 72/58/70 73/83/70
f 72/84/71 80/84/71 81/85/72
f 74/86/73 82/86/73 83/87/74
f 76/88/75 84/88/75 77/89/76
f 69/89/76 77/89/76 78/90/77
f 71/91/78 79/91/78 80/84/71
f 73/92/72 81/92/72 82/86/73
f 75/87/74 83/87/74 84/88/75
f 70/90/77 78/90/77 79/91/78
f 79/91/79 102/91/86 107/91/80
f 81/85/81 80/84/81 91/84/81
f 86/91/78 97/91/104 92/91/82
f 77/89/81 99/89/81 101/90/81
s 0
f 85/93/70 103/93/70 105/93/70
s 1
f 81/92/81 90/92/81 88/86/81
f 77/89/81 84/88/81 98/88/81
f 91/84/71 96/84/71 95/85/72
f 88/86/73 93/86/73 94/87/83
f 92/91/82 97/91/104 96/84/71
f 90/92/72 95/92/72 93/86/73
s 0
f 85/93/70 96/93/70 97/93/70
s 1
f 83/87/85 89/87/84 94/87/83
s 0
f 85/93/70 87/93/70 94/93/70
s 1
f 80/84/81 79/91/79 92/91/82
f 82/86/81 88/86/81 89/87/84
f 101/90/77 106/90/77 107/91/80
f 98/88/75 103/88/75 104/89/76
f 99/89/76 104/89/76 106/90/77
f 100/87/87 105/87/105 103/88/75
f 87/87/74 105/87/105 100/87/87
f 84/88/81 83/87/85 100/87/87
s 0
f 85/93/70 86/93/70 107/93/70
s 1
f 78/90/81 101/90/81 102/91/86
f 63/94/74 114/94/74 113/95/73
f 43/96/78 110/96/78 109/97/77
f 58/98/73 113/98/73 112/99/72
f 38/100/77 109/100/77 108/101/76
f 29/102/76 108/102/76 115/103/75
f 53/104/72 112/104/72 111/105/71
f 68/106/75 115/106/75 114/107/74
f 48/108/71 111/108/71 110/109/78
f 110/96/88 118/96/101 117/97/89
f 111/105/91 112/104/102 120/104/92
f 113/95/94 114/94/103 122/94/95
f 108/102/97 116/102/100 123/103/98
f 109/100/90 117/100/89 116/101/100
f 110/109/88 111/108/91 119/108/93
f 112/99/102 113/98/94 121/98/96
f 115/106/99 123/106/98 122/107/95
o TunnelAngledInsulator.004
v 0.790182 6.337460 -0.008746
v 0.804636 6.340643 -0.102362
v 0.878953 6.356662 -0.022524
v 0.888426 6.358705 -0.102362
v 0.962743 6.374724 -0.038935
v 0.968581 6.347637 -0.027458
v 0.903325 6.289581 -0.073073
v 0.882081 6.342153 -0.016375
v 0.819536 6.271520 -0.073073
v 0.791523 6.331240 -0.006111
v 0.971000 6.336417 0.000252
v 0.909497 6.260950 -0.002362
v 0.883376 6.336142 -0.001532
v 0.825707 6.242888 -0.002362
v 0.792078 6.328664 0.000252
v 0.968581 6.347637 0.027961
v 0.903325 6.289581 0.068349
v 0.881912 6.342937 0.014595
v 0.819536 6.271520 0.068349
v 0.791523 6.331240 0.006614
v 0.962743 6.374724 0.039439
v 0.888426 6.358704 0.097638
v 0.878953 6.356662 0.020487
v 0.804636 6.340643 0.097638
v 0.790182 6.337460 0.009249
v 0.956904 6.401811 0.027961
v 0.873526 6.427827 0.068349
v 0.875995 6.370388 0.014595
v 0.789736 6.409766 0.068349
v 0.788842 6.343679 0.006614
v 0.954485 6.413031 0.000252
v 0.867354 6.456459 -0.002362
v 0.874530 6.377183 -0.001532
v 0.783564 6.438398 -0.002362
v 0.788286 6.346255 0.000252
v 0.956904 6.401811 -0.027458
v 0.873526 6.427827 -0.073073
v 0.875825 6.371172 -0.016375
v 0.789736 6.409766 -0.073073
v 0.788842 6.343679 -0.006111
v 0.962721 6.374825 -0.011721
v 0.964505 6.366550 -0.008214
v 0.965244 6.363122 0.000252
v 0.964505 6.366550 0.008717
v 0.962721 6.374825 0.012224
v 0.960937 6.383101 0.008717
v 0.960198 6.386529 0.000252
v 0.960937 6.383101 -0.008214
v 0.648487 6.301192 -0.003615
v 0.650316 6.294751 -0.002482
v 0.650316 6.294751 0.002985
v 0.648487 6.301192 0.004118
v 0.646659 6.307634 0.002986
v 0.646659 6.307634 -0.002482
v 2.058688 6.616666 -0.011721
v 2.061000 6.608522 -0.008214
v 2.061957 6.605149 0.000251
v 2.061000 6.608522 0.008717
v 2.058688 6.616666 0.012224
v 2.056376 6.624810 0.008717
v 2.055418 6.628184 0.000251
v 2.056376 6.624810 -0.008214
v 0.727022 6.330034 0.006614
v 0.726302 6.332569 0.000252
v 0.730497 6.317792 -0.006111
v 0.731217 6.315258 0.000252
v 0.728760 6.323913 0.009249
v 0.728760 6.323913 -0.008746
v 0.727022 6.330034 -0.006111
v 0.730497 6.317792 0.006614
v 0.725258 6.329949 0.000252
v 0.728916 6.317065 0.000252
v 0.725258 6.329949 0.002985
v 0.728915 6.317065 -0.002482
v 0.727087 6.323507 0.004118
v 0.727087 6.323507 -0.003615
v 0.725258 6.329949 -0.002482
v 0.728915 6.317065 0.002985
vn -0.9887 -0.0997 -0.1116
vn -0.9655 -0.2082 -0.1562
vn -0.9890 -0.0985 -0.1105
vn 0.6041 0.6293 -0.4889
vn 0.7079 0.1526 -0.6896
vn -0.9884 -0.1257 -0.0856
vn -0.9704 -0.2092 -0.1205
vn -0.9884 -0.1254 -0.0852
vn 0.5072 0.6654 -0.5477
vn 0.6262 0.1350 -0.7679
vn -0.9987 -0.0512 -0.0008
vn -0.9987 -0.0511 0.0017
vn 0.5583 0.8296 -0.0010
vn 0.6038 0.6306 -0.4875
vn -0.9959 -0.0902 -0.0002
vn -0.9959 -0.0906 0.0010
vn 0.4462 0.8949 -0.0042
vn 0.5060 0.6706 -0.5424
vn -0.9888 -0.0943 0.1153
vn -0.9886 -0.0956 0.1167
vn 0.5955 0.6349 0.4921
vn 0.5602 0.8283 0.0052
vn -0.9885 -0.1235 0.0869
vn -0.9881 -0.1254 0.0888
vn 0.4810 0.6774 0.5566
vn 0.4459 0.8951 0.0066
vn -0.9641 -0.2078 0.1651
vn -0.9641 -0.2079 0.1651
vn 0.6966 0.1502 0.7016
vn 0.5971 0.6271 0.5003
vn -0.9699 -0.2091 0.1245
vn -0.9699 -0.2091 0.1246
vn 0.5942 0.1281 0.7940
vn 0.4820 0.6721 0.5621
vn -0.9401 -0.3203 0.1167
vn 0.8024 -0.3254 0.5003
vn 0.8042 -0.3332 0.4921
vn -0.9520 -0.2928 0.0888
vn 0.7161 -0.4138 0.5621
vn 0.7173 -0.4191 0.5566
vn -0.9310 -0.3651 0.0017
vn -0.9398 -0.3215 0.1154
vn 0.8517 -0.5240 0.0052
vn 0.8505 -0.5260 -0.0010
vn -0.9448 -0.3277 0.0010
vn -0.9516 -0.2947 0.0869
vn 0.7751 -0.6319 0.0066
vn 0.7752 -0.6316 -0.0042
vn -0.9417 -0.3178 -0.1105
vn -0.9310 -0.3650 -0.0008
vn 0.8100 -0.3259 -0.4875
vn 0.8097 -0.3246 -0.4889
vn -0.9523 -0.2929 -0.0852
vn -0.9446 -0.3281 -0.0002
vn 0.7373 -0.4026 -0.5424
vn 0.7363 -0.3974 -0.5477
vn -0.9420 -0.3165 -0.1118
vn -0.9524 -0.2926 -0.0856
vn -0.9656 -0.2081 -0.1562
vn 0.6963 0.1501 0.7019
vn 0.9775 0.2107 -0.0000
vn -0.2731 0.9620 -0.0000
vn 0.2731 -0.9620 -0.0003
vn 0.2731 -0.9620 -0.0000
vn -0.5733 -0.1619 0.8032
vn -0.0455 0.1604 0.9860
vn -0.0000 -0.0000 1.0000
vn -0.4693 -0.6621 -0.5844
vn -0.0000 -0.0000 -1.0000
vn -0.5733 -0.1619 -0.8031
vn -0.0455 0.1604 -0.9860
vn -0.7294 0.3425 -0.5922
vn 0.0455 -0.1604 0.9860
vn -0.4693 -0.6621 0.5844
vn -0.1522 0.6899 0.7077
vn -0.2155 0.9765 -0.0000
vn 0.0003 -0.0012 -1.0000
vn -0.1509 0.6839 -0.7138
vn 0.0031 -0.0141 -0.9999
vn 0.1525 -0.6911 -0.7065
vn 0.1540 -0.6980 -0.6993
vn 0.2155 -0.9765 -0.0000
vn 0.1540 -0.6980 0.6993
vn 0.1525 -0.6911 0.7065
vn 0.0003 -0.0012 1.0000
vn -0.1509 0.6839 0.7138
vn -0.1522 0.6899 -0.7077
vn 0.0031 -0.0141 0.9999
vn 0.1520 -0.6900 0.7076
vn 0.2152 -0.9766 -0.0000
vn 0.2151 -0.9766 -0.0000
vn -0.5942 0.4513 -0.6658
vn -0.2156 0.9765 -0.0000
vn -0.0003 0.0011 1.0000
vn -0.3114 -0.6865 0.6571
vn -0.1525 0.6911 -0.7065
vn -0.5070 -0.1342 -0.8514
vn -0.0003 0.0011 -1.0000
vn -0.3114 -0.6865 -0.6571
vn -0.1525 0.6911 0.7065
vn -0.5070 -0.1342 0.8514
vn 0.1520 -0.6900 -0.7076
vn -0.5942 0.4513 0.6658
vn -0.5109 -0.8596 -0.0000
vn -0.6176 -0.7865 -0.0000
vn -0.8700 0.4930 -0.0000
vn -0.9289 0.3703 -0.0000
vn -0.7294 0.3425 0.5922
vn -0.9620 -0.2731 -0.0000
vn 0.0455 -0.1604 -0.9860
vn 0.2731 -0.9620 0.0003
vt 0.959703 0.009387
vt 0.960882 0.008099
vt 0.960684 0.009187
vt 0.957954 0.007566
vt 0.960035 0.007566
vt 0.962915 0.005744
vt 0.961736 0.007033
vt 0.961934 0.005945
vt 0.964664 0.007566
vt 0.962584 0.007566
vt 0.958751 0.010974
vt 0.960309 0.010184
vt 0.959740 0.011133
vt 0.957756 0.008654
vt 0.963867 0.004157
vt 0.962309 0.004947
vt 0.962878 0.003998
vt 0.964862 0.006477
vt 0.957301 0.012125
vt 0.959037 0.011934
vt 0.958171 0.012621
vt 0.957187 0.009603
vt 0.965317 0.003006
vt 0.963581 0.003197
vt 0.964447 0.002510
vt 0.965431 0.005529
vt 0.955539 0.012691
vt 0.957231 0.013124
vt 0.956177 0.013462
vt 0.956321 0.010290
vt 0.967079 0.002440
vt 0.965388 0.002008
vt 0.966441 0.001669
vt 0.966297 0.004841
vt 0.957231 0.002008
vt 0.955539 0.002440
vt 0.956177 0.001669
vt 0.956321 0.004841
vt 0.957301 0.003006
vt 0.965388 0.013124
vt 0.967079 0.012691
vt 0.966441 0.013462
vt 0.966297 0.010290
vt 0.965317 0.012125
vt 0.959037 0.003197
vt 0.958171 0.002510
vt 0.957187 0.005529
vt 0.958751 0.004157
vt 0.963581 0.011934
vt 0.964447 0.012621
vt 0.965431 0.009603
vt 0.963867 0.010974
vt 0.960309 0.004947
vt 0.959740 0.003998
vt 0.957756 0.006477
vt 0.959703 0.005744
vt 0.962309 0.010184
vt 0.962878 0.011133
vt 0.964862 0.008654
vt 0.962915 0.009387
vt 0.960882 0.007033
vt 0.960684 0.005945
vt 0.961736 0.008099
vt 0.961934 0.009187
vt 0.955268 0.010628
vt 0.967350 0.004503
vt 0.955268 0.004503
vt 0.967350 0.010628
vt 0.974174 0.011647
vt 0.974914 0.011060
vt 0.976000 0.005093
vt 0.975514 0.004283
vt 0.972472 0.012365
vt 0.973371 0.012076
vt 0.976321 0.005945
vt 0.976490 0.006874
vt 0.976490 0.007784
vt 0.976321 0.008714
vt 0.972472 0.002294
vt 0.973371 0.002583
vt 0.975514 0.010376
vt 0.976000 0.009566
vt 0.974914 0.003599
vt 0.974174 0.003012
vt 0.977467 0.004841
vt 0.976600 0.005529
vt 0.975833 0.007566
vt 0.976031 0.006477
vt 0.976031 0.008654
vt 0.976600 0.009603
vt 0.977467 0.010290
vt 0.978520 0.004503
vt 0.978520 0.010628
s 1
usemtl Catenary
f 162/110/106 124/111/107 163/112/108
f 162/110/109 126/113/110 125/114/110
f 160/115/111 126/116/112 161/117/113
f 160/115/114 128/118/115 127/119/115
f 157/120/116 163/121/108 158/122/117
f 157/120/118 161/123/119 162/110/109
f 155/124/120 161/125/113 156/126/121
f 155/124/122 159/127/123 160/115/114
f 152/128/124 158/129/117 153/130/125
f 152/128/126 156/131/127 157/120/118
f 150/132/128 156/133/121 151/134/129
f 150/132/130 154/135/131 155/124/122
f 147/136/132 153/137/125 148/138/133
f 147/136/134 151/139/135 152/128/126
f 145/140/136 151/141/129 146/142/137
f 145/140/138 149/143/139 150/132/130
f 143/144/140 147/145/132 148/146/133
f 141/147/141 147/145/134 142/148/142
f 141/149/143 145/150/136 146/151/137
f 139/152/144 145/150/138 140/153/145
f 138/154/146 142/148/147 143/155/140
f 136/156/148 142/148/142 137/157/149
f 136/158/150 140/153/151 141/159/143
f 134/160/152 140/153/145 135/161/153
f 133/162/154 137/157/155 138/163/146
f 131/164/156 137/157/149 132/165/157
f 131/166/158 135/161/159 136/167/150
f 129/168/160 135/161/153 130/169/161
f 124/170/107 132/165/162 133/171/154
f 126/113/110 132/165/157 125/114/110
f 126/172/112 130/169/163 131/173/158
f 128/118/115 130/169/161 127/119/115
f 162/110/106 125/114/164 124/111/107
f 162/110/109 161/123/119 126/113/110
f 160/115/111 127/119/112 126/116/112
f 160/115/114 159/127/123 128/118/115
f 157/120/116 162/110/106 163/121/108
f 157/120/118 156/131/127 161/123/119
f 155/124/120 160/115/111 161/125/113
f 155/124/122 154/135/131 159/127/123
f 152/128/124 157/120/116 158/129/117
f 152/128/126 151/139/135 156/131/127
f 150/132/128 155/124/120 156/133/121
f 150/132/130 149/143/139 154/135/131
f 147/136/132 152/128/124 153/137/125
f 147/136/134 146/174/165 151/139/135
f 145/140/136 150/132/128 151/141/129
f 145/140/138 144/175/138 149/143/139
f 143/144/140 142/148/147 147/145/132
f 141/147/141 146/176/165 147/145/134
f 141/149/143 140/153/151 145/150/136
f 139/152/144 144/177/138 145/150/138
f 138/154/146 137/157/155 142/148/147
f 136/156/148 141/147/141 142/148/142
f 136/158/150 135/161/159 140/153/151
f 134/160/152 139/152/144 140/153/145
f 133/162/154 132/165/162 137/157/155
f 131/164/156 136/156/148 137/157/149
f 131/166/158 130/169/163 135/161/159
f 129/168/160 134/160/152 135/161/153
f 124/170/107 125/114/164 132/165/162
f 126/113/110 131/164/156 132/165/157
f 126/172/112 127/119/112 130/169/163
f 128/118/115 129/168/160 130/169/161
f 154/135/166 171/127/166 159/127/166
f 139/152/166 166/160/166 167/152/166
f 154/135/166 169/143/166 170/135/166
f 129/168/166 166/160/166 134/160/166
f 149/143/166 168/175/166 169/143/166
f 128/118/166 165/168/166 129/168/166
f 159/127/166 164/118/166 128/118/166
f 144/177/166 167/152/166 168/177/166
f 196/178/167 194/179/167 176/178/167
f 197/180/168 195/181/169 173/180/169
f 198/182/170 176/183/171 175/182/172
f 197/184/173 172/185/174 199/185/175
f 199/186/175 177/187/176 200/187/177
f 198/188/170 174/189/178 201/189/179
f 194/190/167 177/191/167 176/190/167
f 195/192/169 174/193/169 173/192/169
f 169/194/180 184/195/181 170/195/181
f 164/196/182 185/197/183 178/196/184
f 165/198/185 178/196/184 179/198/186
f 166/199/187 181/200/188 167/200/189
f 168/201/190 183/194/191 169/194/180
f 171/197/192 184/195/181 185/197/183
f 166/199/187 179/198/186 180/199/187
f 167/200/189 182/202/193 168/202/190
f 143/193/194 189/192/195 138/192/196
f 158/190/181 192/191/197 187/190/198
f 148/188/199 193/189/200 143/189/194
f 163/187/201 191/186/202 192/187/197
f 124/185/203 188/184/204 191/185/202
f 153/183/205 190/182/206 148/182/199
f 133/180/207 189/181/195 188/180/204
f 158/179/181 186/178/208 153/178/205
f 189/192/209 201/193/179 195/192/210
f 187/190/211 200/191/177 194/190/212
f 193/189/200 198/188/170 201/189/179
f 192/187/197 199/186/175 200/187/177
f 188/184/204 199/185/175 191/185/202
f 186/183/208 198/182/170 190/182/206
f 189/181/209 197/180/173 188/180/204
f 187/179/211 196/178/213 186/178/208
f 172/186/214 176/190/214 177/191/214
f 175/182/214 173/192/214 174/193/214
f 154/135/166 170/135/166 171/127/166
f 139/152/166 134/160/166 166/160/166
f 154/135/166 149/143/166 169/143/166
f 129/168/166 165/168/166 166/160/166
f 149/143/166 144/175/166 168/175/166
f 128/118/166 164/118/166 165/168/166
f 159/127/166 171/127/166 164/118/166
f 144/177/166 139/152/166 167/152/166
f 198/182/170 196/183/213 176/183/171
f 197/184/173 173/184/215 172/185/174
f 199/186/175 172/186/174 177/187/176
f 198/188/170 175/188/172 174/189/178
f 194/190/167 200/191/167 177/191/167
f 195/192/169 201/193/216 174/193/169
f 169/194/180 183/194/191 184/195/181
f 164/196/182 171/197/192 185/197/183
f 165/198/185 164/196/182 178/196/184
f 166/199/187 180/199/187 181/200/188
f 168/201/190 182/201/193 183/194/191
f 171/197/192 170/195/181 184/195/181
f 166/199/187 165/198/185 179/198/186
f 167/200/189 181/200/188 182/202/193
f 143/193/194 193/193/200 189/192/195
f 158/190/181 163/191/201 192/191/197
f 148/188/199 190/188/206 193/189/200
f 163/187/201 124/186/203 191/186/202
f 124/185/203 133/184/207 188/184/204
f 153/183/205 186/183/208 190/182/206
f 133/180/207 138/181/196 189/181/195
f 158/179/181 187/179/198 186/178/208
f 189/192/209 193/193/200 201/193/179
f 187/190/211 192/191/197 200/191/177
f 193/189/200 190/188/206 198/188/170
f 192/187/197 191/186/202 199/186/175
f 188/184/204 197/184/173 199/185/175
f 186/183/208 196/183/213 198/182/170
f 189/181/209 195/181/210 197/180/173
f 187/179/211 194/179/212 196/178/213
f 172/186/214 175/182/214 176/190/214
f 175/182/214 172/185/214 173/192/214
