# Blender 5.1.2
# www.blender.org
mtllib tunnel_inner_dual.mtl
o TunnelArmInnerDual
g tunnel_inner_dual
v -0.291435 6.000000 0.006696
v -0.989336 6.301972 0.006697
v -0.632435 6.200000 0.006696
v -0.273432 6.019967 0.006696
v -0.982435 6.329857 0.006697
v -0.616786 6.223782 0.006696
v -0.273432 6.000000 0.006696
v -0.632435 6.200000 0.002696
v -0.989336 6.301972 0.002697
v -0.291435 6.000000 0.002696
v -0.616786 6.223782 0.002696
v -0.982435 6.329857 0.002697
v -0.273432 6.019967 0.002696
v -0.273432 6.000000 0.002696
v -1.024338 6.301971 -0.002303
v -1.017439 6.329857 -0.002303
v -1.017439 6.329857 -0.006303
v -1.024340 6.301972 -0.006303
v -0.308436 6.000000 -0.006304
v -0.308436 6.019967 -0.006304
v -0.651789 6.223782 -0.006304
v -0.326438 6.000000 -0.006304
v -0.667439 6.200000 -0.006304
v -0.308436 6.000000 -0.002304
v -0.651789 6.223782 -0.002304
v -0.308436 6.019967 -0.002304
v -0.667439 6.200000 -0.002304
v -0.326438 6.000000 -0.002304
vn -0.0000 -0.0000 1.0000
vn 0.5104 0.8599 -0.0000
vn -0.5059 -0.8626 -0.0000
vn -0.9707 0.2402 -0.0000
vn 0.2786 0.9604 -0.0000
vn -0.2747 -0.9615 -0.0000
vn 1.0000 -0.0000 -0.0000
vn -0.0000 -0.0000 -1.0000
vn -0.2747 -0.9615 0.0001
vn -0.9707 0.2402 0.0001
vn -0.9707 0.2402 0.0006
vt 0.976897 0.007160
vt 0.983131 0.003687
vt 0.977168 0.007573
vt 0.983131 0.004034
vt 0.982818 0.003687
vt 0.970819 0.009415
vt 0.970699 0.008931
vt 0.982523 0.003687
vt 0.982523 0.004034
vt 0.970091 0.008931
vt 0.976289 0.007160
vt 0.976560 0.007573
vt 0.970211 0.009415
vt 0.982210 0.003687
vt 0.970091 0.008931
s 1
usemtl Catenary
f 3/1/1 7/2/1 6/3/1
f 13/4/2 6/3/2 4/4/2
f 8/1/3 1/5/3 3/1/3
f 12/6/4 2/7/4 5/6/4
f 11/3/5 5/6/5 6/3/5
f 9/7/6 3/1/6 2/7/6
f 14/2/7 4/4/7 7/2/7
f 11/3/8 14/2/8 8/1/8
f 19/8/7 26/9/7 24/8/7
f 15/10/9 23/11/6 27/11/6
f 21/12/5 16/13/5 25/12/5
f 17/13/10 15/10/11 16/13/4
f 23/11/3 28/14/3 27/11/3
f 20/9/2 25/12/2 26/9/2
f 21/12/8 23/11/8 17/13/8
f 27/11/1 25/12/1 15/10/1
f 5/6/1 2/7/1 3/1/1
f 3/1/1 1/5/1 7/2/1
f 7/2/1 4/4/1 6/3/1
f 6/3/1 5/6/1 3/1/1
f 13/4/2 11/3/2 6/3/2
f 8/1/3 10/5/3 1/5/3
f 12/6/4 9/7/4 2/7/4
f 11/3/5 12/6/5 5/6/5
f 9/7/6 8/1/6 3/1/6
f 14/2/7 13/4/7 4/4/7
f 8/1/8 9/7/8 12/6/8
f 11/3/8 13/4/8 14/2/8
f 14/2/8 10/5/8 8/1/8
f 8/1/8 12/6/8 11/3/8
f 19/8/7 20/9/7 26/9/7
f 15/10/9 18/15/9 23/11/6
f 21/12/5 17/13/5 16/13/5
f 17/13/10 18/15/11 15/10/11
f 23/11/3 22/14/3 28/14/3
f 20/9/2 21/12/2 25/12/2
f 21/12/8 20/9/8 19/8/8
f 19/8/8 22/14/8 23/11/8
f 23/11/8 18/15/8 17/13/8
f 21/12/8 19/8/8 23/11/8
f 27/11/1 28/14/1 24/8/1
f 24/8/1 26/9/1 25/12/1
f 25/12/1 16/13/1 15/10/1
f 27/11/1 24/8/1 25/12/1
o TunnelAngledInsulator
v -1.087870 6.340733 0.008746
v -1.102089 6.344838 0.102362
v -1.175223 6.365601 0.022523
v -1.184545 6.368248 0.102362
v -1.257679 6.389010 0.038935
v -1.265246 6.362355 0.027457
v -1.203857 6.300225 0.073072
v -1.179277 6.351322 0.016375
v -1.121401 6.276816 0.073072
v -1.089608 6.334612 0.006110
v -1.268381 6.351314 -0.000252
v -1.211856 6.272049 0.002362
v -1.180956 6.345407 0.001531
v -1.129400 6.248640 0.002362
v -1.090328 6.332077 -0.000252
v -1.265246 6.362355 -0.027961
v -1.203857 6.300225 -0.068349
v -1.179058 6.352095 -0.014596
v -1.121401 6.276816 -0.068349
v -1.089608 6.334612 -0.006614
v -1.257679 6.389010 -0.039439
v -1.184545 6.368248 -0.097638
v -1.175223 6.365601 -0.020487
v -1.102089 6.344838 -0.097638
v -1.087870 6.340733 -0.009250
v -1.250111 6.415667 -0.027961
v -1.165233 6.436270 -0.068349
v -1.171389 6.379107 -0.014596
v -1.082778 6.412861 -0.068349
v -1.086133 6.346853 -0.006614
v -1.246976 6.426708 -0.000252
v -1.157234 6.464446 0.002362
v -1.169490 6.385795 0.001531
v -1.074778 6.441037 0.002362
v -1.085413 6.349388 -0.000252
v -1.250111 6.415667 0.027457
v -1.165233 6.436270 0.073072
v -1.171170 6.379880 0.016375
v -1.082778 6.412861 0.073072
v -1.086133 6.346853 0.006110
v -1.257650 6.389111 0.011720
v -1.259962 6.380967 0.008214
v -1.260920 6.377594 -0.000252
v -1.259962 6.380967 -0.008718
v -1.257650 6.389111 -0.012224
v -1.255338 6.397254 -0.008718
v -1.254381 6.400628 -0.000252
v -1.255338 6.397254 0.008214
v -0.948355 6.301192 0.003614
v -0.950184 6.294751 0.002482
v -0.950184 6.294751 -0.002986
v -0.948355 6.301192 -0.004118
v -0.946526 6.307634 -0.002986
v -0.946526 6.307634 0.002482
v -2.058691 6.616666 0.011720
v -2.061003 6.608522 0.008214
v -2.061961 6.605149 -0.000252
v -2.061003 6.608522 -0.008718
v -2.058691 6.616666 -0.012224
v -2.056379 6.624810 -0.008718
v -2.055421 6.628184 -0.000252
v -2.056379 6.624810 0.008214
v -1.026890 6.330034 -0.006614
v -1.026170 6.332569 -0.000252
v -1.030365 6.317792 0.006110
v -1.031085 6.315258 -0.000252
v -1.028627 6.323913 -0.009250
v -1.028627 6.323913 0.008746
v -1.026890 6.330034 0.006110
v -1.030365 6.317792 -0.006614
v -1.025125 6.329949 -0.000252
v -1.028783 6.317065 -0.000252
v -1.025125 6.329949 -0.002986
v -1.028783 6.317065 0.002482
v -1.026954 6.323507 -0.004118
v -1.026954 6.323507 0.003614
v -1.025125 6.329949 0.002482
v -1.028783 6.317065 -0.002986
vn 0.9803 -0.1631 0.1116
vn 0.9502 -0.2698 0.1562
vn 0.9806 -0.1619 0.1105
vn -0.5624 0.6668 0.4889
vn -0.6967 0.1978 0.6896
vn 0.9782 -0.1890 0.0856
vn 0.9550 -0.2711 0.1205
vn 0.9783 -0.1887 0.0852
vn -0.4634 0.6966 0.5477
vn -0.6163 0.1750 0.7679
vn 0.9933 -0.1153 0.0008
vn 0.9933 -0.1152 -0.0017
vn -0.5038 0.8638 0.0010
vn -0.5620 0.6682 0.4875
vn 0.9881 -0.1540 0.0002
vn 0.9880 -0.1544 -0.0010
vn -0.3877 0.9218 0.0042
vn -0.4619 0.7017 0.5424
vn 0.9807 -0.1577 -0.1153
vn 0.9804 -0.1590 -0.1167
vn -0.5535 0.6719 -0.4921
vn -0.5058 0.8626 -0.0052
vn 0.9786 -0.1868 -0.0869
vn 0.9780 -0.1886 -0.0888
vn -0.4364 0.7069 -0.5566
vn -0.3875 0.9219 -0.0066
vn 0.9488 -0.2693 -0.1651
vn 0.9488 -0.2694 -0.1651
vn -0.6855 0.1946 -0.7016
vn -0.5555 0.6642 -0.5003
vn 0.9545 -0.2710 -0.1245
vn 0.9545 -0.2710 -0.1246
vn -0.5848 0.1660 -0.7940
vn -0.4378 0.7017 -0.5621
vn 0.9176 -0.3800 -0.1167
vn -0.8216 -0.2732 -0.5003
vn -0.8240 -0.2808 -0.4921
vn 0.9312 -0.3534 -0.0888
vn -0.7412 -0.3669 -0.5621
vn -0.7428 -0.3721 -0.5566
vn 0.9056 -0.4241 -0.0017
vn 0.9172 -0.3813 -0.1154
vn -0.8836 -0.4682 -0.0052
vn -0.8826 -0.4702 0.0010
vn 0.9218 -0.3878 -0.0010
vn 0.9307 -0.3552 -0.0869
vn -0.8141 -0.5807 -0.0066
vn -0.8142 -0.5805 0.0042
vn 0.9193 -0.3777 0.1105
vn 0.9056 -0.4241 0.0008
vn -0.8293 -0.2732 0.4875
vn -0.8289 -0.2718 0.4889
vn 0.9315 -0.3535 0.0852
vn 0.9216 -0.3882 0.0002
vn -0.7617 -0.3544 0.5424
vn -0.7603 -0.3492 0.5477
vn 0.9197 -0.3764 0.1118
vn 0.9316 -0.3532 0.0856
vn 0.9502 -0.2697 0.1562
vn -0.6852 0.1945 -0.7019
vn -0.9620 0.2731 -0.0000
vn 0.2731 0.9620 -0.0000
vn -0.2731 -0.9620 0.0003
vn -0.2731 -0.9620 -0.0000
vn 0.5733 -0.1619 -0.8032
vn 0.0455 0.1604 -0.9860
vn -0.0000 -0.0000 -1.0000
vn 0.4693 -0.6621 0.5844
vn -0.0000 -0.0000 1.0000
vn 0.5733 -0.1619 0.8031
vn 0.0455 0.1604 0.9860
vn 0.7294 0.3425 0.5922
vn -0.0455 -0.1604 -0.9860
vn 0.4693 -0.6621 -0.5844
vn 0.2733 0.9619 -0.0000
vn 0.1932 0.6802 -0.7071
vn 0.1932 0.6802 0.7071
vn -0.1932 -0.6802 0.7071
vn -0.1932 -0.6802 -0.7071
vn -0.2733 -0.9619 -0.0000
vn 0.2910 -0.6923 -0.6603
vn 0.1931 0.6802 0.7071
vn -0.1931 -0.6802 -0.7071
vn 0.6089 0.4360 0.6627
vn -0.1931 -0.6802 0.7071
vn 0.5047 -0.1437 0.8513
vn 0.1931 0.6802 -0.7071
vn 0.5047 -0.1437 -0.8513
vn 0.2910 -0.6923 0.6603
vn 0.6089 0.4360 -0.6627
vn 0.5109 -0.8596 -0.0000
vn 0.6176 -0.7865 -0.0000
vn 0.8700 0.4930 -0.0000
vn 0.9289 0.3703 -0.0000
vn 0.7294 0.3425 -0.5922
vn 0.9620 -0.2731 -0.0000
vn -0.0455 -0.1604 0.9860
vn -0.2731 -0.9620 -0.0003
vt 0.959703 0.009387
vt 0.960882 0.008099
vt 0.960684 0.009187
vt 0.957954 0.007566
vt 0.960035 0.007566
vt 0.962915 0.005744
vt 0.961736 0.007033
vt 0.961934 0.005945
vt 0.964664 0.007566
vt 0.962584 0.007566
vt 0.958751 0.010974
vt 0.960309 0.010184
vt 0.959740 0.011133
vt 0.957756 0.008654
vt 0.963867 0.004157
vt 0.962309 0.004947
vt 0.962878 0.003998
vt 0.964862 0.006477
vt 0.957301 0.012125
vt 0.959037 0.011934
vt 0.958171 0.012621
vt 0.957187 0.009603
vt 0.965317 0.003006
vt 0.963581 0.003197
vt 0.964447 0.002510
vt 0.965431 0.005529
vt 0.955539 0.012691
vt 0.957231 0.013124
vt 0.956177 0.013462
vt 0.956321 0.010290
vt 0.967079 0.002440
vt 0.965388 0.002008
vt 0.966441 0.001669
vt 0.966297 0.004841
vt 0.957231 0.002008
vt 0.955539 0.002440
vt 0.956177 0.001669
vt 0.956321 0.004841
vt 0.957301 0.003006
vt 0.965388 0.013124
vt 0.967079 0.012691
vt 0.966441 0.013462
vt 0.966297 0.010290
vt 0.965317 0.012125
vt 0.959037 0.003197
vt 0.958171 0.002510
vt 0.957187 0.005529
vt 0.958751 0.004157
vt 0.963581 0.011934
vt 0.964447 0.012621
vt 0.965431 0.009603
vt 0.963867 0.010974
vt 0.960309 0.004947
vt 0.959740 0.003998
vt 0.957756 0.006477
vt 0.959703 0.005744
vt 0.962309 0.010184
vt 0.962878 0.011133
vt 0.964862 0.008654
vt 0.962915 0.009387
vt 0.960882 0.007033
vt 0.960684 0.005945
vt 0.961736 0.008099
vt 0.961934 0.009187
vt 0.955268 0.010628
vt 0.967350 0.004503
vt 0.955268 0.004503
vt 0.967350 0.010628
vt 0.974174 0.011647
vt 0.974914 0.011060
vt 0.976000 0.005093
vt 0.975514 0.004283
vt 0.972472 0.012365
vt 0.973371 0.012076
vt 0.976321 0.005945
vt 0.976490 0.006874
vt 0.976490 0.007784
vt 0.976321 0.008714
vt 0.972472 0.002294
vt 0.973371 0.002583
vt 0.975514 0.010376
vt 0.976000 0.009566
vt 0.974914 0.003599
vt 0.974174 0.003012
vt 0.976600 0.005529
vt 0.977467 0.004841
vt 0.976031 0.006477
vt 0.975833 0.007566
vt 0.976031 0.008654
vt 0.977467 0.010290
vt 0.976600 0.009603
vt 0.978520 0.004503
vt 0.978520 0.010628
s 1
usemtl Catenary
f 67/16/12 29/17/13 68/18/14
f 67/16/15 31/19/16 30/20/16
f 65/21/17 31/22/18 66/23/19
f 65/21/20 33/24/21 32/25/21
f 62/26/22 68/27/14 63/28/23
f 62/26/24 66/29/25 67/16/15
f 60/30/26 66/31/19 61/32/27
f 60/30/28 64/33/29 65/21/20
f 57/34/30 63/35/23 58/36/31
f 57/34/32 61/37/33 62/26/24
f 55/38/34 61/39/27 56/40/35
f 55/38/36 59/41/37 60/30/28
f 52/42/38 58/43/31 53/44/39
f 52/42/40 56/45/41 57/34/32
f 50/46/42 56/47/35 51/48/43
f 50/46/44 54/49/45 55/38/36
f 48/50/46 52/51/38 53/52/39
f 46/53/47 52/51/40 47/54/48
f 46/55/49 50/56/42 51/57/43
f 44/58/50 50/56/44 45/59/51
f 43/60/52 47/54/53 48/61/46
f 41/62/54 47/54/48 42/63/55
f 41/64/56 45/59/57 46/65/49
f 39/66/58 45/59/51 40/67/59
f 38/68/60 42/63/61 43/69/52
f 36/70/62 42/63/55 37/71/63
f 36/72/64 40/67/65 41/73/56
f 34/74/66 40/67/59 35/75/67
f 29/76/13 37/71/68 38/77/60
f 31/19/16 37/71/63 30/20/16
f 31/78/18 35/75/69 36/79/64
f 33/24/21 35/75/67 32/25/21
f 67/16/12 30/20/70 29/17/13
f 67/16/15 66/29/25 31/19/16
f 65/21/17 32/25/18 31/22/18
f 65/21/20 64/33/29 33/24/21
f 62/26/22 67/16/12 68/27/14
f 62/26/24 61/37/33 66/29/25
f 60/30/26 65/21/17 66/31/19
f 60/30/28 59/41/37 64/33/29
f 57/34/30 62/26/22 63/35/23
f 57/34/32 56/45/41 61/37/33
f 55/38/34 60/30/26 61/39/27
f 55/38/36 54/49/45 59/41/37
f 52/42/38 57/34/30 58/43/31
f 52/42/40 51/80/71 56/45/41
f 50/46/42 55/38/34 56/47/35
f 50/46/44 49/81/44 54/49/45
f 48/50/46 47/54/53 52/51/38
f 46/53/47 51/82/71 52/51/40
f 46/55/49 45/59/57 50/56/42
f 44/58/50 49/83/44 50/56/44
f 43/60/52 42/63/61 47/54/53
f 41/62/54 46/53/47 47/54/48
f 41/64/56 40/67/65 45/59/57
f 39/66/58 44/58/50 45/59/51
f 38/68/60 37/71/68 42/63/61
f 36/70/62 41/62/54 42/63/55
f 36/72/64 35/75/69 40/67/65
f 34/74/66 39/66/58 40/67/59
f 29/76/13 30/20/70 37/71/68
f 31/19/16 36/70/62 37/71/63
f 31/78/18 32/25/18 35/75/69
f 33/24/21 34/74/66 35/75/67
f 59/41/72 76/33/72 64/33/72
f 44/58/72 71/66/72 72/58/72
f 59/41/72 74/49/72 75/41/72
f 34/74/72 71/66/72 39/66/72
f 54/49/72 73/81/72 74/49/72
f 33/24/72 70/74/72 34/74/72
f 64/33/72 69/24/72 33/24/72
f 49/83/72 72/58/72 73/83/72
f 101/84/73 99/85/73 81/84/73
f 102/86/74 100/87/75 78/86/75
f 103/88/76 81/89/77 80/88/78
f 102/90/79 77/91/80 104/91/81
f 104/92/81 82/93/82 105/93/83
f 103/94/76 79/95/84 106/95/85
f 99/96/73 82/97/73 81/96/73
f 100/98/75 79/99/75 78/98/75
f 75/100/86 88/101/87 89/100/86
f 76/102/88 83/103/80 69/103/80
f 69/103/80 84/104/89 70/104/89
f 72/105/90 85/106/91 86/105/90
f 74/101/87 87/107/78 88/101/87
f 75/100/86 90/102/88 76/102/88
f 70/104/89 85/106/91 71/106/91
f 73/108/78 86/105/90 87/108/78
f 43/98/75 98/99/92 94/98/75
f 68/97/93 92/96/73 63/96/73
f 53/94/78 98/95/92 48/95/94
f 29/92/80 97/93/95 68/93/93
f 38/90/96 96/91/97 29/91/80
f 58/89/98 95/88/99 53/88/78
f 43/87/75 93/86/100 38/86/96
f 63/85/73 91/84/101 58/84/98
f 94/98/102 106/99/85 100/98/103
f 92/96/104 105/97/83 99/96/105
f 98/95/92 103/94/76 106/95/85
f 97/93/95 104/92/81 105/93/83
f 93/90/100 104/91/81 96/91/97
f 91/89/101 103/88/76 95/88/99
f 94/87/102 102/86/79 93/86/100
f 92/85/104 101/84/106 91/84/101
f 77/92/107 81/96/107 82/97/107
f 80/88/107 78/98/107 79/99/107
f 59/41/72 75/41/72 76/33/72
f 44/58/72 39/66/72 71/66/72
f 59/41/72 54/49/72 74/49/72
f 34/74/72 70/74/72 71/66/72
f 54/49/72 49/81/72 73/81/72
f 33/24/72 69/24/72 70/74/72
f 64/33/72 76/33/72 69/24/72
f 49/83/72 44/58/72 72/58/72
f 103/88/76 101/89/106 81/89/77
f 102/90/79 78/90/108 77/91/80
f 104/92/81 77/92/80 82/93/82
f 103/94/76 80/94/78 79/95/84
f 99/96/73 105/97/73 82/97/73
f 100/98/75 106/99/109 79/99/75
f 75/100/86 74/101/87 88/101/87
f 76/102/88 90/102/88 83/103/80
f 69/103/80 83/103/80 84/104/89
f 72/105/90 71/106/91 85/106/91
f 74/101/87 73/107/78 87/107/78
f 75/100/86 89/100/86 90/102/88
f 70/104/89 84/104/89 85/106/91
f 73/108/78 72/105/90 86/105/90
f 43/98/75 48/99/94 98/99/92
f 68/97/93 97/97/95 92/96/73
f 53/94/78 95/94/99 98/95/92
f 29/92/80 96/92/97 97/93/95
f 38/90/96 93/90/100 96/91/97
f 58/89/98 91/89/101 95/88/99
f 43/87/75 94/87/75 93/86/100
f 63/85/73 92/85/73 91/84/101
f 94/98/102 98/99/92 106/99/85
f 92/96/104 97/97/95 105/97/83
f 98/95/92 95/94/99 103/94/76
f 97/93/95 96/92/97 104/92/81
f 93/90/100 102/90/79 104/91/81
f 91/89/101 101/89/106 103/88/76
f 94/87/102 100/87/103 102/86/79
f 92/85/104 99/85/105 101/84/106
f 77/92/107 80/88/107 81/96/107
f 80/88/107 77/91/107 78/98/107
o TunnelVerticalInsulator
v -0.300000 7.039817 0.008762
v -0.300000 7.054616 0.102362
v -0.300000 7.130641 0.022523
v -0.300000 7.140331 0.102362
v -0.300000 7.216355 0.038935
v -0.327709 7.216355 0.027457
v -0.370711 7.140331 0.073072
v -0.314843 7.130641 0.016375
v -0.370711 7.054616 0.073072
v -0.306374 7.039817 0.006122
v -0.339187 7.216355 -0.000252
v -0.400000 7.140331 0.002362
v -0.320992 7.130641 0.001532
v -0.400000 7.054616 0.002362
v -0.309014 7.039817 -0.000252
v -0.327709 7.216355 -0.027961
v -0.370711 7.140331 -0.068349
v -0.314040 7.130641 -0.014596
v -0.370711 7.054616 -0.068349
v -0.306374 7.039817 -0.006626
v -0.300000 7.216355 -0.039439
v -0.300000 7.140331 -0.097638
v -0.300000 7.130641 -0.020487
v -0.300000 7.054616 -0.097638
v -0.300000 7.039817 -0.009266
v -0.272291 7.216355 -0.027961
v -0.229289 7.140331 -0.068349
v -0.285960 7.130641 -0.014596
v -0.229289 7.054616 -0.068349
v -0.293626 7.039817 -0.006626
v -0.260813 7.216355 -0.000252
v -0.200000 7.140331 0.002362
v -0.279008 7.130641 0.001532
v -0.200000 7.054616 0.002362
v -0.290986 7.039817 -0.000252
v -0.272291 7.216355 0.027457
v -0.229289 7.140331 0.073072
v -0.285157 7.130641 0.016375
v -0.229289 7.054616 0.073072
v -0.293626 7.039817 0.006122
v -0.300000 7.216355 0.018017
v -0.312918 7.216355 0.012666
v -0.318269 7.216355 -0.000252
v -0.312918 7.216355 -0.013170
v -0.300000 7.216355 -0.018521
v -0.287082 7.216355 -0.013170
v -0.281731 7.216355 -0.000252
v -0.287082 7.216355 0.012666
v -0.300000 7.334884 0.018017
v -0.312918 7.334884 0.012666
v -0.318269 7.334884 -0.000252
v -0.312918 7.334884 -0.013170
v -0.300000 7.334884 -0.018521
v -0.287082 7.334884 -0.013170
v -0.281731 7.334884 -0.000252
v -0.287082 7.334884 0.012666
v -0.300000 7.350073 -0.000252
v -0.318269 7.350073 -0.000252
v -0.281731 7.350073 -0.000252
v -0.287082 7.334884 -0.034276
v -0.281731 7.334884 -0.021358
v -0.300000 7.334884 -0.039627
v -0.312918 7.334884 -0.034276
v -0.318269 7.334884 -0.021358
v -0.287082 7.350073 -0.034276
v -0.281731 7.350073 -0.021358
v -0.300000 7.350073 -0.039627
v -0.312918 7.350073 -0.034276
v -0.318269 7.350073 -0.021358
v -0.287082 7.334884 0.034282
v -0.300000 7.334884 0.039633
v -0.281731 7.334884 0.021364
v -0.312918 7.334884 0.034282
v -0.318269 7.334884 0.021364
v -0.287082 7.350073 0.034282
v -0.300000 7.350073 0.039633
v -0.281731 7.350073 0.021364
v -0.312918 7.350073 0.034282
v -0.318269 7.350073 0.021364
v -0.300000 6.986049 0.008762
v -0.306374 6.986049 0.006122
v -0.309014 6.986049 -0.000252
v -0.306374 6.986049 -0.006626
v -0.300000 6.986049 -0.009266
v -0.293626 6.986049 -0.006626
v -0.290986 6.986049 -0.000252
v -0.293626 6.986049 0.006122
v -1.061541 6.334139 0.008735
v -1.067650 6.335958 0.006095
v -1.070181 6.336710 -0.000279
v -1.067650 6.335958 -0.006653
v -1.061541 6.334139 -0.009293
v -1.055432 6.332321 -0.006653
v -1.052902 6.331568 -0.000279
v -1.055432 6.332321 0.006095
vn 0.1109 -0.9875 0.1117
vn -0.0000 -0.9877 0.1562
vn 0.1122 -0.9875 0.1105
vn 0.4879 0.7231 0.4889
vn -0.0000 0.7242 0.6896
vn 0.0853 -0.9927 0.0856
vn -0.0000 -0.9927 0.1205
vn 0.0857 -0.9927 0.0852
vn 0.5436 0.6361 0.5477
vn -0.0000 0.6406 0.7679
vn 0.1605 -0.9870 0.0008
vn 0.1606 -0.9870 -0.0017
vn 0.6934 0.7206 0.0010
vn 0.4893 0.7231 0.4875
vn 0.1217 -0.9926 0.0002
vn 0.1213 -0.9926 -0.0010
vn 0.7808 0.6247 0.0042
vn 0.5489 0.6360 0.5424
vn 0.1162 -0.9865 -0.1154
vn 0.1149 -0.9865 -0.1167
vn 0.4952 0.7160 -0.4921
vn 0.6917 0.7222 -0.0052
vn 0.0876 -0.9924 -0.0869
vn 0.0857 -0.9924 -0.0888
vn 0.5609 0.6129 -0.5566
vn 0.7810 0.6245 -0.0066
vn -0.0000 -0.9863 -0.1652
vn -0.0000 0.7126 -0.7016
vn 0.4872 0.7158 -0.5003
vn -0.0000 -0.9922 -0.1245
vn -0.0000 -0.9922 -0.1246
vn -0.0000 0.6079 -0.7940
vn 0.5554 0.6128 -0.5621
vn -0.1149 -0.9865 -0.1167
vn -0.4872 0.7158 -0.5003
vn -0.4952 0.7160 -0.4921
vn -0.0857 -0.9924 -0.0888
vn -0.5554 0.6128 -0.5621
vn -0.5609 0.6129 -0.5566
vn -0.1606 -0.9870 -0.0017
vn -0.1162 -0.9865 -0.1154
vn -0.6917 0.7222 -0.0052
vn -0.6934 0.7206 0.0010
vn -0.1213 -0.9926 -0.0010
vn -0.0876 -0.9924 -0.0869
vn -0.7810 0.6245 -0.0066
vn -0.7808 0.6247 0.0042
vn -0.1122 -0.9875 0.1105
vn -0.1605 -0.9870 0.0008
vn -0.4893 0.7231 0.4875
vn -0.4879 0.7231 0.4889
vn -0.0857 -0.9927 0.0852
vn -0.1217 -0.9926 0.0002
vn -0.5489 0.6360 0.5424
vn -0.5436 0.6361 0.5477
vn -0.1109 -0.9875 0.1117
vn -0.0853 -0.9927 0.0856
vn -0.0000 0.7123 -0.7019
vn -0.0000 1.0000 -0.0000
vn -0.7071 -0.0000 -0.7071
vn -0.0000 -0.0000 -1.0000
vn 0.7071 -0.0000 -0.7071
vn 1.0000 -0.0000 -0.0000
vn 0.7071 -0.0000 0.7071
vn -0.0000 -0.0000 1.0000
vn -0.7071 -0.0000 0.7071
vn -1.0000 -0.0000 -0.0000
vn -0.9701 -0.2425 -0.0000
vn -0.9808 -0.0000 0.1951
vn -0.0000 -1.0000 -0.0000
vn -0.7319 -0.6657 -0.1456
vn 0.9808 -0.0000 -0.1951
vn 0.7319 -0.6657 -0.1456
vn 0.9701 -0.2425 -0.0000
vn -0.7319 -0.6657 0.1456
vn 0.7319 -0.6657 0.1456
vn -0.6494 0.7605 -0.0000
vn -0.5295 0.6205 0.5785
vn -0.4764 0.5572 0.6802
vn -0.4764 0.5572 -0.6801
vn -0.1057 0.1241 -0.9866
vn -0.5294 0.6205 -0.5785
vn 0.5782 -0.6733 -0.4609
vn 0.6512 -0.7589 -0.0000
vn 0.4486 -0.5233 -0.7245
vn 0.1956 -0.2277 0.9539
vn 0.4486 -0.5233 0.7245
vn 0.5782 -0.6733 0.4608
vn -0.1057 0.1241 0.9866
vn -0.6490 0.7608 -0.0000
vn 0.1956 -0.2276 -0.9539
vn 0.6516 -0.7586 -0.0000
vn -0.9808 -0.0000 -0.1951
vn 0.9808 -0.0000 0.1951
vt 0.959703 0.009387
vt 0.960882 0.008099
vt 0.960684 0.009187
vt 0.957954 0.007566
vt 0.960035 0.007566
vt 0.962915 0.005744
vt 0.961736 0.007033
vt 0.961934 0.005945
vt 0.964664 0.007566
vt 0.962584 0.007566
vt 0.958751 0.010974
vt 0.960309 0.010184
vt 0.959740 0.011133
vt 0.957756 0.008654
vt 0.963867 0.004157
vt 0.962309 0.004947
vt 0.962878 0.003998
vt 0.964862 0.006477
vt 0.957301 0.012125
vt 0.959037 0.011934
vt 0.958171 0.012621
vt 0.957187 0.009603
vt 0.965317 0.003006
vt 0.963581 0.003197
vt 0.964447 0.002510
vt 0.965431 0.005529
vt 0.955539 0.012691
vt 0.957231 0.013124
vt 0.956177 0.013462
vt 0.956321 0.010290
vt 0.967079 0.002440
vt 0.965388 0.002008
vt 0.966441 0.001669
vt 0.966297 0.004841
vt 0.957231 0.002008
vt 0.955539 0.002440
vt 0.956177 0.001669
vt 0.956321 0.004841
vt 0.957301 0.003006
vt 0.965388 0.013124
vt 0.967079 0.012691
vt 0.966441 0.013462
vt 0.966297 0.010290
vt 0.965317 0.012125
vt 0.959037 0.003197
vt 0.958171 0.002510
vt 0.957187 0.005529
vt 0.958751 0.004157
vt 0.963581 0.011934
vt 0.964447 0.012621
vt 0.965431 0.009603
vt 0.963867 0.010974
vt 0.960309 0.004947
vt 0.959740 0.003998
vt 0.957756 0.006477
vt 0.959703 0.005744
vt 0.962309 0.010184
vt 0.962878 0.011133
vt 0.964862 0.008654
vt 0.962915 0.009387
vt 0.960882 0.007033
vt 0.960684 0.005945
vt 0.961736 0.008099
vt 0.961934 0.009187
vt 0.955268 0.010628
vt 0.967350 0.004503
vt 0.955268 0.004503
vt 0.967350 0.010628
vt 0.981114 0.009656
vt 0.982013 0.009945
vt 0.981114 0.005003
vt 0.980374 0.005590
vt 0.979888 0.006400
vt 0.979719 0.007329
vt 0.979888 0.008259
vt 0.980374 0.009069
vt 0.982013 0.004714
vt 0.924092 -0.341471
vt 0.974914 0.011060
vt 0.974174 0.011647
vt 0.975514 0.004283
vt 0.976000 0.005093
vt 0.973371 0.012076
vt 0.972472 0.012365
vt 0.976321 0.005945
vt 0.976490 0.006874
vt 0.976490 0.007784
vt 0.976321 0.008714
vt 0.972472 0.002294
vt 0.973371 0.002583
vt 0.976000 0.009566
vt 0.975514 0.010376
vt 0.974174 0.003012
vt 0.974914 0.003599
s 1
usemtl Catenary
f 145/109/110 107/110/111 146/111/112
f 145/109/113 109/112/114 108/113/114
f 143/114/115 109/115/116 144/116/117
f 143/114/118 111/117/119 110/118/119
f 140/119/120 146/120/112 141/121/121
f 140/119/122 144/122/123 145/109/113
f 138/123/124 144/124/117 139/125/125
f 138/123/126 142/126/127 143/114/118
f 135/127/128 141/128/121 136/129/129
f 135/127/130 139/130/131 140/119/122
f 133/131/132 139/132/125 134/133/133
f 133/131/134 137/134/135 138/123/126
f 130/135/136 136/136/129 131/137/136
f 130/135/137 134/138/138 135/127/130
f 128/139/139 134/140/133 129/141/140
f 128/139/141 132/142/142 133/131/134
f 126/143/143 130/144/136 131/145/136
f 124/146/144 130/144/137 125/147/145
f 124/148/146 128/149/139 129/150/140
f 122/151/147 128/149/141 123/152/148
f 121/153/149 125/147/150 126/154/143
f 119/155/151 125/147/145 120/156/152
f 119/157/153 123/152/154 124/158/146
f 117/159/155 123/152/148 118/160/156
f 116/161/157 120/156/158 121/162/149
f 114/163/159 120/156/152 115/164/160
f 114/165/161 118/160/162 119/166/153
f 112/167/163 118/160/156 113/168/164
f 107/169/111 115/164/165 116/170/157
f 109/112/114 115/164/160 108/113/114
f 109/171/116 113/168/166 114/172/161
f 111/117/119 113/168/164 110/118/119
f 145/109/110 108/113/111 107/110/111
f 145/109/113 144/122/123 109/112/114
f 143/114/115 110/118/116 109/115/116
f 143/114/118 142/126/127 111/117/119
f 140/119/120 145/109/110 146/120/112
f 140/119/122 139/130/131 144/122/123
f 138/123/124 143/114/115 144/124/117
f 138/123/126 137/134/135 142/126/127
f 135/127/128 140/119/120 141/128/121
f 135/127/130 134/138/138 139/130/131
f 133/131/132 138/123/124 139/132/125
f 133/131/134 132/142/142 137/134/135
f 130/135/136 135/127/128 136/136/129
f 130/135/137 129/173/167 134/138/138
f 128/139/139 133/131/132 134/140/133
f 128/139/141 127/174/141 132/142/142
f 126/143/143 125/147/150 130/144/136
f 124/146/144 129/175/167 130/144/137
f 124/148/146 123/152/154 128/149/139
f 122/151/147 127/176/141 128/149/141
f 121/153/149 120/156/158 125/147/150
f 119/155/151 124/146/144 125/147/145
f 119/157/153 118/160/162 123/152/154
f 117/159/155 122/151/147 123/152/148
f 116/161/157 115/164/165 120/156/158
f 114/163/159 119/155/151 120/156/152
f 114/165/161 113/168/166 118/160/162
f 112/167/163 117/159/155 118/160/156
f 107/169/111 108/113/111 115/164/165
f 109/112/114 114/163/159 115/164/160
f 109/171/116 110/118/116 113/168/166
f 111/117/119 112/167/163 113/168/164
f 137/134/168 154/126/168 142/126/168
f 117/159/168 150/151/168 122/151/168
f 132/142/168 153/134/168 137/134/168
f 112/167/168 149/159/168 117/159/168
f 127/174/168 152/142/168 132/142/168
f 112/167/168 147/117/168 148/167/168
f 142/126/168 147/117/168 111/117/168
f 122/151/168 151/176/168 127/176/168
f 150/177/169 159/178/170 151/178/170
f 152/179/171 161/180/172 153/180/172
f 154/181/173 155/182/174 147/182/174
f 147/182/174 156/183/175 148/183/175
f 149/184/176 158/177/169 150/177/169
f 151/185/170 160/179/171 152/179/171
f 153/180/172 162/181/173 154/181/173
f 148/183/175 157/184/176 149/184/176
f 157/184/177 185/184/178 164/184/176
f 159/178/179 169/177/179 168/178/179
f 164/184/176 170/184/180 157/184/177
f 155/182/179 179/183/179 156/183/179
s 0
f 163/186/168 183/186/168 165/186/168
f 163/186/168 173/186/168 174/186/168
s 1
f 159/185/179 166/179/179 160/179/179
f 155/182/179 176/181/179 177/182/179
f 169/177/169 173/178/170 168/178/170
f 166/179/171 172/180/181 167/180/182
f 170/184/180 174/177/169 169/177/169
f 168/185/170 171/179/171 166/179/171
s 0
f 163/186/168 175/186/168 164/186/168
s 1
f 161/180/183 172/180/181 165/180/172
s 0
f 163/186/168 172/186/168 171/186/168
s 1
f 158/177/179 170/184/180 169/177/179
f 160/179/179 167/180/182 161/180/183
s 0
f 163/186/168 171/186/168 173/186/168
s 1
f 179/183/175 185/184/178 180/184/184
f 176/181/173 182/182/174 177/182/174
f 177/182/174 184/183/175 179/183/175
f 178/180/185 181/181/173 176/181/173
f 165/180/172 178/180/185 161/180/183
f 162/181/179 178/180/185 176/181/179
s 0
f 163/186/168 185/186/168 184/186/168
f 163/186/168 182/186/168 181/186/168
f 163/186/168 184/186/168 182/186/168
s 1
f 156/183/179 180/184/184 157/184/177
f 141/187/172 191/188/171 136/188/171
f 121/189/176 187/190/175 116/190/175
f 136/191/171 190/192/170 131/192/170
f 116/193/175 186/194/174 107/194/174
f 107/195/174 193/196/173 146/196/173
f 131/197/170 189/198/169 126/198/169
f 146/199/173 192/200/172 141/200/172
f 126/201/169 188/202/176 121/202/176
f 188/189/186 195/190/187 187/190/188
f 189/198/189 198/197/190 197/198/191
f 191/188/192 200/187/193 199/188/194
f 186/195/195 201/196/196 193/196/197
f 187/193/188 194/194/198 186/194/195
f 188/202/186 197/201/191 196/202/199
f 190/192/200 199/191/194 198/192/190
f 193/199/197 200/200/193 192/200/201
f 137/134/168 153/134/168 154/126/168
f 117/159/168 149/159/168 150/151/168
f 132/142/168 152/142/168 153/134/168
f 112/167/168 148/167/168 149/159/168
f 127/174/168 151/174/168 152/142/168
f 112/167/168 111/117/168 147/117/168
f 142/126/168 154/126/168 147/117/168
f 122/151/168 150/151/168 151/176/168
f 150/177/169 158/177/169 159/178/170
f 152/179/171 160/179/171 161/180/172
f 154/181/173 162/181/173 155/182/174
f 147/182/174 155/182/174 156/183/175
f 149/184/176 157/184/176 158/177/169
f 151/185/170 159/185/170 160/179/171
f 153/180/172 161/180/172 162/181/173
f 148/183/175 156/183/175 157/184/176
f 157/184/177 180/184/184 185/184/178
f 159/178/179 158/177/179 169/177/179
f 164/184/176 175/184/202 170/184/180
f 155/182/179 177/182/179 179/183/179
s 0
f 163/186/168 181/186/168 183/186/168
s 1
f 159/185/179 168/185/179 166/179/179
f 155/182/179 162/181/179 176/181/179
f 169/177/169 174/177/169 173/178/170
f 166/179/171 171/179/171 172/180/181
f 170/184/180 175/184/202 174/177/169
f 168/185/170 173/185/170 171/179/171
s 0
f 163/186/168 174/186/168 175/186/168
s 1
f 161/180/183 167/180/182 172/180/181
s 0
f 163/186/168 165/186/168 172/186/168
s 1
f 158/177/179 157/184/177 170/184/180
f 160/179/179 166/179/179 167/180/182
f 179/183/175 184/183/175 185/184/178
f 176/181/173 181/181/173 182/182/174
f 177/182/174 182/182/174 184/183/175
f 178/180/185 183/180/203 181/181/173
f 165/180/172 183/180/203 178/180/185
f 162/181/179 161/180/183 178/180/185
s 0
f 163/186/168 164/186/168 185/186/168
s 1
f 156/183/179 179/183/179 180/184/184
f 141/187/172 192/187/172 191/188/171
f 121/189/176 188/189/176 187/190/175
f 136/191/171 191/191/171 190/192/170
f 116/193/175 187/193/175 186/194/174
f 107/195/174 186/195/174 193/196/173
f 131/197/170 190/197/170 189/198/169
f 146/199/173 193/199/173 192/200/172
f 126/201/169 189/201/169 188/202/176
f 188/189/186 196/189/199 195/190/187
f 189/198/189 190/197/200 198/197/190
f 191/188/192 192/187/201 200/187/193
f 186/195/195 194/195/198 201/196/196
f 187/193/188 195/193/187 194/194/198
f 188/202/186 189/201/189 197/201/191
f 190/192/200 191/191/192 199/191/194
f 193/199/197 201/199/196 200/200/193
