# Blender 5.1.2
# www.blender.org
mtllib tunnel_middle_single.mtl
o TunnelArmMiddleSingle
g tunnel_middle_single
v 0.008566 6.000000 -0.006696
v 0.706468 6.301972 -0.006697
v 0.349567 6.200000 -0.006696
v -0.009436 6.019967 -0.006696
v 0.699567 6.329857 -0.006697
v 0.333917 6.223782 -0.006696
v -0.009436 6.000000 -0.006696
v 0.349567 6.200000 -0.002696
v 0.706468 6.301972 -0.002697
v 0.008566 6.000000 -0.002696
v 0.333917 6.223782 -0.002696
v 0.699567 6.329857 -0.002697
v -0.009436 6.019967 -0.002696
v -0.009436 6.000000 -0.002696
vn -0.0000 -0.0000 -1.0000
vn -0.0000 -0.0000 1.0000
vn -0.5104 0.8599 -0.0000
vn 0.5059 -0.8626 -0.0000
vn 0.9707 0.2402 -0.0000
vn -0.2786 0.9604 -0.0000
vn 0.2747 -0.9615 -0.0000
vn -1.0000 -0.0000 -0.0000
vt 0.977026 0.007582
vt 0.969833 0.009091
vt 0.976724 0.007123
vt 0.969967 0.009630
vt 0.983656 0.003647
vt 0.983308 0.003261
vt 0.983656 0.003261
s 1
usemtl Catenary
f 6/1/1 2/2/1 3/3/1
f 8/3/2 12/4/2 11/1/2
f 13/5/3 6/1/3 4/5/3
f 8/3/4 1/6/4 3/3/4
f 12/4/5 2/2/5 5/4/5
f 11/1/6 5/4/6 6/1/6
f 9/2/7 3/3/7 2/2/7
f 14/7/8 4/5/8 7/7/8
f 3/3/1 1/6/1 7/7/1
f 7/7/1 4/5/1 6/1/1
f 6/1/1 5/4/1 2/2/1
f 3/3/1 7/7/1 6/1/1
f 11/1/2 13/5/2 14/7/2
f 14/7/2 10/6/2 8/3/2
f 8/3/2 9/2/2 12/4/2
f 11/1/2 14/7/2 8/3/2
f 13/5/3 11/1/3 6/1/3
f 8/3/4 10/6/4 1/6/4
f 12/4/5 9/2/5 2/2/5
f 11/1/6 12/4/6 5/4/6
f 9/2/7 8/3/7 3/3/7
f 14/7/8 13/5/8 4/5/8
o TunnelVerticalInsulator.010
v 0.000132 7.039817 -0.008762
v 0.000132 7.054616 -0.102362
v 0.000132 7.130641 -0.022523
v 0.000132 7.140331 -0.102362
v 0.000132 7.216355 -0.038935
v 0.027842 7.216355 -0.027458
v 0.070843 7.140331 -0.073073
v 0.014976 7.130641 -0.016375
v 0.070843 7.054616 -0.073073
v 0.006506 7.039817 -0.006122
v 0.039319 7.216355 0.000252
v 0.100132 7.140331 -0.002362
v 0.021124 7.130641 -0.001532
v 0.100132 7.054616 -0.002362
v 0.009146 7.039817 0.000252
v 0.027842 7.216355 0.027961
v 0.070843 7.140331 0.068349
v 0.014173 7.130641 0.014596
v 0.070843 7.054616 0.068349
v 0.006506 7.039817 0.006626
v 0.000132 7.216355 0.039439
v 0.000133 7.140331 0.097638
v 0.000132 7.130641 0.020487
v 0.000133 7.054616 0.097638
v 0.000132 7.039817 0.009266
v -0.027577 7.216355 0.027961
v -0.070578 7.140331 0.068349
v -0.013908 7.130641 0.014596
v -0.070578 7.054616 0.068349
v -0.006241 7.039817 0.006626
v -0.039054 7.216355 0.000252
v -0.099868 7.140331 -0.002362
v -0.020859 7.130641 -0.001532
v -0.099868 7.054616 -0.002362
v -0.008882 7.039817 0.000252
v -0.027577 7.216355 -0.027457
v -0.070578 7.140331 -0.073072
v -0.014711 7.130641 -0.016375
v -0.070578 7.054616 -0.073072
v -0.006241 7.039817 -0.006122
v 0.000132 7.216355 -0.018017
v 0.013051 7.216355 -0.012666
v 0.018401 7.216355 0.000252
v 0.013051 7.216355 0.013170
v 0.000132 7.216355 0.018521
v -0.012786 7.216355 0.013170
v -0.018137 7.216355 0.000252
v -0.012786 7.216355 -0.012666
v 0.000132 7.334884 -0.018017
v 0.013051 7.334884 -0.012666
v 0.018401 7.334884 0.000252
v 0.013051 7.334884 0.013170
v 0.000132 7.334884 0.018521
v -0.012786 7.334884 0.013170
v -0.018137 7.334884 0.000252
v -0.012786 7.334884 -0.012666
v 0.000132 7.350073 0.000252
v 0.018401 7.350073 0.000252
v -0.018137 7.350073 0.000252
v -0.012786 7.334884 0.034276
v -0.018137 7.334884 0.021358
v 0.000132 7.334884 0.039627
v 0.013051 7.334884 0.034276
v 0.018402 7.334884 0.021358
v -0.012786 7.350073 0.034276
v -0.018137 7.350073 0.021358
v 0.000132 7.350073 0.039627
v 0.013051 7.350073 0.034276
v 0.018402 7.350073 0.021358
v -0.012786 7.334884 -0.034282
v 0.000132 7.334884 -0.039633
v -0.018137 7.334884 -0.021364
v 0.013051 7.334884 -0.034282
v 0.018401 7.334884 -0.021364
v -0.012786 7.350073 -0.034282
v 0.000132 7.350073 -0.039633
v -0.018137 7.350073 -0.021364
v 0.013051 7.350073 -0.034282
v 0.018401 7.350073 -0.021364
v 0.000132 6.986049 -0.008762
v 0.006506 6.986049 -0.006122
v 0.009146 6.986049 0.000252
v 0.006506 6.986049 0.006626
v 0.000132 6.986049 0.009266
v -0.006241 6.986049 0.006626
v -0.008882 6.986049 0.000252
v -0.006241 6.986049 -0.006122
v 0.761674 6.334139 -0.008735
v 0.767783 6.335958 -0.006095
v 0.770313 6.336710 0.000279
v 0.767783 6.335958 0.006652
v 0.761674 6.334139 0.009293
v 0.755565 6.332321 0.006652
v 0.753034 6.331568 0.000279
v 0.755565 6.332321 -0.006095
vn -0.1109 -0.9875 -0.1117
vn -0.0000 -0.9877 -0.1562
vn -0.1122 -0.9875 -0.1105
vn -0.4879 0.7231 -0.4889
vn -0.0000 0.7242 -0.6896
vn -0.0853 -0.9927 -0.0856
vn -0.0000 -0.9927 -0.1205
vn -0.0857 -0.9927 -0.0852
vn -0.5436 0.6361 -0.5477
vn -0.0000 0.6406 -0.7679
vn -0.1605 -0.9870 -0.0008
vn -0.1606 -0.9870 0.0017
vn -0.6934 0.7206 -0.0010
vn -0.4893 0.7231 -0.4875
vn -0.1217 -0.9926 -0.0002
vn -0.1213 -0.9926 0.0010
vn -0.7808 0.6247 -0.0042
vn -0.5489 0.6360 -0.5424
vn -0.1162 -0.9865 0.1154
vn -0.1149 -0.9865 0.1167
vn -0.4952 0.7160 0.4921
vn -0.6917 0.7222 0.0052
vn -0.0876 -0.9924 0.0869
vn -0.0857 -0.9924 0.0888
vn -0.5609 0.6129 0.5566
vn -0.7810 0.6245 0.0066
vn -0.0000 -0.9863 0.1652
vn -0.0000 0.7126 0.7016
vn -0.4872 0.7158 0.5003
vn -0.0000 -0.9922 0.1245
vn -0.0000 -0.9922 0.1246
vn -0.0000 0.6079 0.7940
vn -0.5554 0.6128 0.5621
vn 0.1149 -0.9865 0.1167
vn 0.4872 0.7158 0.5003
vn 0.4952 0.7160 0.4921
vn 0.0857 -0.9924 0.0888
vn 0.5554 0.6128 0.5621
vn 0.5609 0.6129 0.5566
vn 0.1606 -0.9870 0.0017
vn 0.1162 -0.9865 0.1154
vn 0.6917 0.7222 0.0052
vn 0.6934 0.7206 -0.0010
vn 0.1213 -0.9926 0.0010
vn 0.0876 -0.9924 0.0869
vn 0.7810 0.6245 0.0066
vn 0.7808 0.6247 -0.0042
vn 0.1122 -0.9875 -0.1105
vn 0.1605 -0.9870 -0.0008
vn 0.4893 0.7231 -0.4875
vn 0.4879 0.7231 -0.4889
vn 0.0857 -0.9927 -0.0852
vn 0.1217 -0.9926 -0.0002
vn 0.5489 0.6360 -0.5424
vn 0.5436 0.6361 -0.5477
vn 0.1109 -0.9875 -0.1117
vn 0.0853 -0.9927 -0.0856
vn -0.0000 0.7123 0.7019
vn -0.0000 1.0000 -0.0000
vn 0.7071 -0.0000 0.7071
vn -0.0000 -0.0000 1.0000
vn -0.7071 -0.0000 0.7071
vn -1.0000 -0.0000 -0.0000
vn -0.7071 -0.0000 -0.7071
vn -0.0000 -0.0000 -1.0000
vn 0.7071 -0.0000 -0.7071
vn 1.0000 -0.0000 -0.0000
vn 0.9701 -0.2425 -0.0000
vn 0.9808 -0.0000 -0.1951
vn -0.0000 -1.0000 -0.0000
vn 0.7319 -0.6657 0.1456
vn -0.9808 -0.0000 0.1951
vn -0.7319 -0.6657 0.1456
vn -0.9701 -0.2425 -0.0000
vn 0.7319 -0.6657 -0.1456
vn -0.7319 -0.6657 -0.1456
vn 0.6494 0.7605 -0.0000
vn 0.5295 0.6205 -0.5785
vn 0.4764 0.5572 -0.6802
vn 0.4764 0.5572 0.6801
vn 0.1057 0.1241 0.9866
vn 0.5294 0.6205 0.5785
vn -0.5782 -0.6733 0.4609
vn -0.6512 -0.7589 -0.0000
vn -0.4486 -0.5233 0.7245
vn -0.1956 -0.2277 -0.9539
vn -0.4486 -0.5233 -0.7245
vn -0.5782 -0.6733 -0.4608
vn 0.1057 0.1241 -0.9866
vn 0.6490 0.7608 -0.0000
vn -0.1956 -0.2276 0.9539
vn -0.6516 -0.7586 -0.0000
vn 0.9808 -0.0000 0.1951
vn -0.9808 -0.0000 -0.1951
vt 0.959703 0.009387
vt 0.960882 0.008099
vt 0.960684 0.009187
vt 0.957954 0.007566
vt 0.960035 0.007566
vt 0.962915 0.005744
vt 0.961736 0.007033
vt 0.961934 0.005945
vt 0.964664 0.007566
vt 0.962584 0.007566
vt 0.958751 0.010974
vt 0.960309 0.010184
vt 0.959740 0.011133
vt 0.957756 0.008654
vt 0.963867 0.004157
vt 0.962309 0.004947
vt 0.962878 0.003998
vt 0.964862 0.006477
vt 0.957301 0.012125
vt 0.959037 0.011934
vt 0.958171 0.012621
vt 0.957187 0.009603
vt 0.965317 0.003006
vt 0.963581 0.003197
vt 0.964447 0.002510
vt 0.965431 0.005529
vt 0.955539 0.012691
vt 0.957231 0.013124
vt 0.956177 0.013462
vt 0.956321 0.010290
vt 0.967079 0.002440
vt 0.965388 0.002008
vt 0.966441 0.001669
vt 0.966297 0.004841
vt 0.957231 0.002008
vt 0.955539 0.002440
vt 0.956177 0.001669
vt 0.956321 0.004841
vt 0.957301 0.003006
vt 0.965388 0.013124
vt 0.967079 0.012691
vt 0.966441 0.013462
vt 0.966297 0.010290
vt 0.965317 0.012125
vt 0.959037 0.003197
vt 0.958171 0.002510
vt 0.957187 0.005529
vt 0.958751 0.004157
vt 0.963581 0.011934
vt 0.964447 0.012621
vt 0.965431 0.009603
vt 0.963867 0.010974
vt 0.960309 0.004947
vt 0.959740 0.003998
vt 0.957756 0.006477
vt 0.959703 0.005744
vt 0.962309 0.010184
vt 0.962878 0.011133
vt 0.964862 0.008654
vt 0.962915 0.009387
vt 0.960882 0.007033
vt 0.960684 0.005945
vt 0.961736 0.008099
vt 0.961934 0.009187
vt 0.955268 0.010628
vt 0.967350 0.004503
vt 0.955268 0.004503
vt 0.967350 0.010628
vt 0.981114 0.009656
vt 0.982013 0.009945
vt 0.981114 0.005003
vt 0.980374 0.005590
vt 0.979888 0.006400
vt 0.979719 0.007329
vt 0.979888 0.008259
vt 0.980374 0.009069
vt 0.982013 0.004714
vt 0.924092 -0.341471
vt 0.974914 0.011060
vt 0.974174 0.011647
vt 0.975514 0.004283
vt 0.976000 0.005093
vt 0.973371 0.012076
vt 0.972472 0.012365
vt 0.976321 0.005945
vt 0.976490 0.006874
vt 0.976490 0.007784
vt 0.976321 0.008714
vt 0.972472 0.002294
vt 0.973371 0.002583
vt 0.976000 0.009566
vt 0.975514 0.010376
vt 0.974174 0.003012
vt 0.974914 0.003599
s 1
usemtl Catenary
f 53/8/9 15/9/10 54/10/11
f 53/8/12 17/11/13 16/12/13
f 51/13/14 17/14/15 52/15/16
f 51/13/17 19/16/18 18/17/18
f 48/18/19 54/19/11 49/20/20
f 48/18/21 52/21/22 53/8/12
f 46/22/23 52/23/16 47/24/24
f 46/22/25 50/25/26 51/13/17
f 43/26/27 49/27/20 44/28/28
f 43/26/29 47/29/30 48/18/21
f 41/30/31 47/31/24 42/32/32
f 41/30/33 45/33/34 46/22/25
f 38/34/35 44/35/28 39/36/35
f 38/34/36 42/37/37 43/26/29
f 36/38/38 42/39/32 37/40/39
f 36/38/40 40/41/41 41/30/33
f 34/42/42 38/43/35 39/44/35
f 32/45/43 38/43/36 33/46/44
f 32/47/45 36/48/38 37/49/39
f 30/50/46 36/48/40 31/51/47
f 29/52/48 33/46/49 34/53/42
f 27/54/50 33/46/44 28/55/51
f 27/56/52 31/51/53 32/57/45
f 25/58/54 31/51/47 26/59/55
f 24/60/56 28/55/57 29/61/48
f 22/62/58 28/55/51 23/63/59
f 22/64/60 26/59/61 27/65/52
f 20/66/62 26/59/55 21/67/63
f 15/68/10 23/63/64 24/69/56
f 17/11/13 23/63/59 16/12/13
f 17/70/15 21/67/65 22/71/60
f 19/16/18 21/67/63 18/17/18
f 53/8/9 16/12/10 15/9/10
f 53/8/12 52/21/22 17/11/13
f 51/13/14 18/17/15 17/14/15
f 51/13/17 50/25/26 19/16/18
f 48/18/19 53/8/9 54/19/11
f 48/18/21 47/29/30 52/21/22
f 46/22/23 51/13/14 52/23/16
f 46/22/25 45/33/34 50/25/26
f 43/26/27 48/18/19 49/27/20
f 43/26/29 42/37/37 47/29/30
f 41/30/31 46/22/23 47/31/24
f 41/30/33 40/41/41 45/33/34
f 38/34/35 43/26/27 44/35/28
f 38/34/36 37/72/66 42/37/37
f 36/38/38 41/30/31 42/39/32
f 36/38/40 35/73/40 40/41/41
f 34/42/42 33/46/49 38/43/35
f 32/45/43 37/74/66 38/43/36
f 32/47/45 31/51/53 36/48/38
f 30/50/46 35/75/40 36/48/40
f 29/52/48 28/55/57 33/46/49
f 27/54/50 32/45/43 33/46/44
f 27/56/52 26/59/61 31/51/53
f 25/58/54 30/50/46 31/51/47
f 24/60/56 23/63/64 28/55/57
f 22/62/58 27/54/50 28/55/51
f 22/64/60 21/67/65 26/59/61
f 20/66/62 25/58/54 26/59/55
f 15/68/10 16/12/10 23/63/64
f 17/11/13 22/62/58 23/63/59
f 17/70/15 18/17/15 21/67/65
f 19/16/18 20/66/62 21/67/63
f 45/33/67 62/25/67 50/25/67
f 25/58/67 58/50/67 30/50/67
f 40/41/67 61/33/67 45/33/67
f 20/66/67 57/58/67 25/58/67
f 35/73/67 60/41/67 40/41/67
f 20/66/67 55/16/67 56/66/67
f 50/25/67 55/16/67 19/16/67
f 30/50/67 59/75/67 35/75/67
f 58/76/68 67/77/69 59/77/69
f 60/78/70 69/79/71 61/79/71
f 62/80/72 63/81/73 55/81/73
f 55/81/73 64/82/74 56/82/74
f 57/83/75 66/76/68 58/76/68
f 59/84/69 68/78/70 60/78/70
f 61/79/71 70/80/72 62/80/72
f 56/82/74 65/83/75 57/83/75
f 65/83/76 93/83/77 72/83/75
f 67/77/78 77/76/78 76/77/78
f 72/83/75 78/83/79 65/83/76
f 63/81/78 87/82/78 64/82/78
s 0
f 71/85/67 91/85/67 73/85/67
f 71/85/67 81/85/67 82/85/67
s 1
f 67/84/78 74/78/78 68/78/78
f 63/81/78 84/80/78 85/81/78
f 77/76/68 81/77/69 76/77/69
f 74/78/70 80/79/80 75/79/81
f 78/83/79 82/76/68 77/76/68
f 76/84/69 79/78/70 74/78/70
s 0
f 71/85/67 83/85/67 72/85/67
s 1
f 69/79/82 80/79/80 73/79/71
s 0
f 71/85/67 80/85/67 79/85/67
s 1
f 66/76/78 78/83/79 77/76/78
f 68/78/78 75/79/81 69/79/82
s 0
f 71/85/67 79/85/67 81/85/67
s 1
f 87/82/74 93/83/77 88/83/83
f 84/80/72 90/81/73 85/81/73
f 85/81/73 92/82/74 87/82/74
f 86/79/84 89/80/72 84/80/72
f 73/79/71 86/79/84 69/79/82
f 70/80/78 86/79/84 84/80/78
s 0
f 71/85/67 93/85/67 92/85/67
f 71/85/67 90/85/67 89/85/67
f 71/85/67 92/85/67 90/85/67
s 1
f 64/82/78 88/83/83 65/83/76
f 49/86/71 99/87/70 44/87/70
f 29/88/75 95/89/74 24/89/74
f 44/90/70 98/91/69 39/91/69
f 24/92/74 94/93/73 15/93/73
f 15/94/73 101/95/72 54/95/72
f 39/96/69 97/97/68 34/97/68
f 54/98/72 100/99/71 49/99/71
f 34/100/68 96/101/75 29/101/75
f 96/88/85 103/89/86 95/89/87
f 97/97/88 106/96/89 105/97/90
f 99/87/91 108/86/92 107/87/93
f 94/94/94 109/95/95 101/95/96
f 95/92/87 102/93/97 94/93/94
f 96/101/85 105/100/90 104/101/98
f 98/91/99 107/90/93 106/91/89
f 101/98/96 108/99/92 100/99/100
f 45/33/67 61/33/67 62/25/67
f 25/58/67 57/58/67 58/50/67
f 40/41/67 60/41/67 61/33/67
f 20/66/67 56/66/67 57/58/67
f 35/73/67 59/73/67 60/41/67
f 20/66/67 19/16/67 55/16/67
f 50/25/67 62/25/67 55/16/67
f 30/50/67 58/50/67 59/75/67
f 58/76/68 66/76/68 67/77/69
f 60/78/70 68/78/70 69/79/71
f 62/80/72 70/80/72 63/81/73
f 55/81/73 63/81/73 64/82/74
f 57/83/75 65/83/75 66/76/68
f 59/84/69 67/84/69 68/78/70
f 61/79/71 69/79/71 70/80/72
f 56/82/74 64/82/74 65/83/75
f 65/83/76 88/83/83 93/83/77
f 67/77/78 66/76/78 77/76/78
f 72/83/75 83/83/101 78/83/79
f 63/81/78 85/81/78 87/82/78
s 0
f 71/85/67 89/85/67 91/85/67
s 1
f 67/84/78 76/84/78 74/78/78
f 63/81/78 70/80/78 84/80/78
f 77/76/68 82/76/68 81/77/69
f 74/78/70 79/78/70 80/79/80
f 78/83/79 83/83/101 82/76/68
f 76/84/69 81/84/69 79/78/70
s 0
f 71/85/67 82/85/67 83/85/67
s 1
f 69/79/82 75/79/81 80/79/80
s 0
f 71/85/67 73/85/67 80/85/67
s 1
f 66/76/78 65/83/76 78/83/79
f 68/78/78 74/78/78 75/79/81
f 87/82/74 92/82/74 93/83/77
f 84/80/72 89/80/72 90/81/73
f 85/81/73 90/81/73 92/82/74
f 86/79/84 91/79/102 89/80/72
f 73/79/71 91/79/102 86/79/84
f 70/80/78 69/79/82 86/79/84
s 0
f 71/85/67 72/85/67 93/85/67
s 1
f 64/82/78 87/82/78 88/83/83
f 49/86/71 100/86/71 99/87/70
f 29/88/75 96/88/75 95/89/74
f 44/90/70 99/90/70 98/91/69
f 24/92/74 95/92/74 94/93/73
f 15/94/73 94/94/73 101/95/72
f 39/96/69 98/96/69 97/97/68
f 54/98/72 101/98/72 100/99/71
f 34/100/68 97/100/68 96/101/75
f 96/88/85 104/88/98 103/89/86
f 97/97/88 98/96/99 106/96/89
f 99/87/91 100/86/100 108/86/92
f 94/94/94 102/94/97 109/95/95
f 95/92/87 103/92/86 102/93/97
f 96/101/85 97/100/88 105/100/90
f 98/91/99 99/90/91 107/90/93
f 101/98/96 109/98/95 108/99/92
o TunnelAngledInsulator.011
v 0.790182 6.337460 -0.008746
v 0.804636 6.340643 -0.102362
v 0.878953 6.356662 -0.022524
v 0.888426 6.358705 -0.102362
v 0.962743 6.374724 -0.038935
v 0.968581 6.347637 -0.027458
v 0.903325 6.289581 -0.073073
v 0.882081 6.342153 -0.016375
v 0.819536 6.271520 -0.073073
v 0.791523 6.331240 -0.006111
v 0.971000 6.336417 0.000252
v 0.909497 6.260950 -0.002362
v 0.883376 6.336142 -0.001532
v 0.825707 6.242888 -0.002362
v 0.792078 6.328664 0.000252
v 0.968581 6.347637 0.027961
v 0.903325 6.289581 0.068349
v 0.881912 6.342937 0.014595
v 0.819536 6.271520 0.068349
v 0.791523 6.331240 0.006614
v 0.962743 6.374724 0.039439
v 0.888426 6.358704 0.097638
v 0.878953 6.356662 0.020487
v 0.804636 6.340643 0.097638
v 0.790182 6.337460 0.009249
v 0.956904 6.401811 0.027961
v 0.873526 6.427827 0.068349
v 0.875995 6.370388 0.014595
v 0.789736 6.409766 0.068349
v 0.788842 6.343679 0.006614
v 0.954485 6.413031 0.000252
v 0.867354 6.456459 -0.002362
v 0.874530 6.377183 -0.001532
v 0.783564 6.438398 -0.002362
v 0.788286 6.346255 0.000252
v 0.956904 6.401811 -0.027458
v 0.873526 6.427827 -0.073073
v 0.875825 6.371172 -0.016375
v 0.789736 6.409766 -0.073073
v 0.788842 6.343679 -0.006111
v 0.962721 6.374825 -0.011721
v 0.964505 6.366550 -0.008214
v 0.965244 6.363122 0.000252
v 0.964505 6.366550 0.008717
v 0.962721 6.374825 0.012224
v 0.960937 6.383101 0.008717
v 0.960198 6.386529 0.000252
v 0.960937 6.383101 -0.008214
v 0.648488 6.301192 -0.003615
v 0.650316 6.294751 -0.002482
v 0.650316 6.294751 0.002985
v 0.648488 6.301192 0.004118
v 0.646659 6.307634 0.002985
v 0.646659 6.307634 -0.002482
v 2.058688 6.616667 -0.011721
v 2.061000 6.608523 -0.008214
v 2.061957 6.605149 0.000251
v 2.061000 6.608523 0.008717
v 2.058688 6.616667 0.012224
v 2.056376 6.624811 0.008717
v 2.055418 6.628184 0.000251
v 2.056376 6.624811 -0.008214
v 0.727022 6.330034 0.006614
v 0.726302 6.332569 0.000252
v 0.730497 6.317792 -0.006111
v 0.731217 6.315258 0.000252
v 0.728760 6.323913 0.009249
v 0.728760 6.323913 -0.008746
v 0.727022 6.330034 -0.006111
v 0.730497 6.317792 0.006614
v 0.725258 6.329949 0.000252
v 0.728916 6.317065 0.000252
v 0.725258 6.329949 0.002985
v 0.728915 6.317065 -0.002482
v 0.727087 6.323507 0.004118
v 0.727087 6.323507 -0.003615
v 0.725258 6.329949 -0.002482
v 0.728915 6.317065 0.002985
vn -0.9887 -0.0997 -0.1116
vn -0.9655 -0.2082 -0.1562
vn -0.9890 -0.0985 -0.1105
vn 0.6041 0.6293 -0.4889
vn 0.7079 0.1526 -0.6896
vn -0.9884 -0.1257 -0.0856
vn -0.9704 -0.2092 -0.1205
vn -0.9884 -0.1254 -0.0852
vn 0.5072 0.6654 -0.5477
vn 0.6262 0.1350 -0.7679
vn -0.9987 -0.0512 -0.0008
vn -0.9987 -0.0511 0.0017
vn 0.5583 0.8296 -0.0010
vn 0.6038 0.6306 -0.4875
vn -0.9959 -0.0902 -0.0002
vn -0.9959 -0.0906 0.0010
vn 0.4462 0.8949 -0.0042
vn 0.5060 0.6706 -0.5424
vn -0.9888 -0.0943 0.1153
vn -0.9886 -0.0956 0.1167
vn 0.5955 0.6349 0.4921
vn 0.5602 0.8283 0.0052
vn -0.9885 -0.1235 0.0869
vn -0.9881 -0.1254 0.0888
vn 0.4810 0.6774 0.5566
vn 0.4459 0.8951 0.0066
vn -0.9641 -0.2078 0.1651
vn -0.9641 -0.2079 0.1651
vn 0.6966 0.1502 0.7016
vn 0.5971 0.6271 0.5003
vn -0.9699 -0.2091 0.1245
vn -0.9699 -0.2091 0.1246
vn 0.5942 0.1281 0.7940
vn 0.4820 0.6721 0.5621
vn -0.9401 -0.3203 0.1167
vn 0.8024 -0.3254 0.5003
vn 0.8042 -0.3332 0.4921
vn -0.9520 -0.2928 0.0888
vn 0.7161 -0.4138 0.5621
vn 0.7173 -0.4191 0.5566
vn -0.9310 -0.3651 0.0017
vn -0.9398 -0.3215 0.1154
vn 0.8517 -0.5240 0.0052
vn 0.8505 -0.5260 -0.0010
vn -0.9448 -0.3277 0.0010
vn -0.9516 -0.2947 0.0869
vn 0.7751 -0.6319 0.0066
vn 0.7752 -0.6316 -0.0042
vn -0.9417 -0.3178 -0.1105
vn -0.9310 -0.3650 -0.0008
vn 0.8100 -0.3259 -0.4875
vn 0.8097 -0.3246 -0.4889
vn -0.9523 -0.2929 -0.0852
vn -0.9446 -0.3281 -0.0002
vn 0.7373 -0.4026 -0.5424
vn 0.7363 -0.3974 -0.5477
vn -0.9420 -0.3165 -0.1118
vn -0.9524 -0.2926 -0.0856
vn -0.9656 -0.2081 -0.1562
vn 0.6963 0.1501 0.7019
vn 0.9775 0.2107 -0.0000
vn -0.2731 0.9620 -0.0000
vn 0.2731 -0.9620 -0.0003
vn 0.2731 -0.9620 -0.0000
vn -0.5733 -0.1619 0.8032
vn -0.0455 0.1604 0.9860
vn -0.0000 -0.0000 1.0000
vn -0.4693 -0.6621 -0.5844
vn -0.0000 -0.0000 -1.0000
vn -0.5733 -0.1619 -0.8031
vn -0.0455 0.1604 -0.9860
vn -0.7294 0.3425 -0.5922
vn 0.0455 -0.1604 0.9860
vn -0.4693 -0.6621 0.5844
vn -0.1522 0.6899 0.7077
vn -0.2155 0.9765 -0.0000
vn 0.0003 -0.0012 -1.0000
vn -0.1509 0.6839 -0.7138
vn 0.0031 -0.0141 -0.9999
vn 0.1525 -0.6911 -0.7065
vn 0.1540 -0.6980 -0.6993
vn 0.2155 -0.9765 -0.0000
vn 0.1540 -0.6980 0.6993
vn 0.1525 -0.6911 0.7065
vn 0.0003 -0.0012 1.0000
vn -0.1509 0.6839 0.7138
vn -0.1522 0.6899 -0.7077
vn 0.0031 -0.0141 0.9999
vn 0.1520 -0.6900 0.7076
vn 0.2152 -0.9766 -0.0000
vn 0.2151 -0.9766 -0.0000
vn -0.5942 0.4513 -0.6658
vn -0.2156 0.9765 -0.0000
vn -0.0003 0.0011 1.0000
vn -0.3114 -0.6865 0.6571
vn -0.1525 0.6911 -0.7065
vn -0.5070 -0.1342 -0.8514
vn -0.0003 0.0011 -1.0000
vn -0.3114 -0.6865 -0.6571
vn -0.1525 0.6911 0.7065
vn -0.5070 -0.1342 0.8514
vn 0.1520 -0.6900 -0.7076
vn -0.5942 0.4513 0.6658
vn -0.5109 -0.8596 -0.0000
vn -0.6176 -0.7865 -0.0000
vn -0.8700 0.4930 -0.0000
vn -0.9289 0.3703 -0.0000
vn -0.7294 0.3425 0.5922
vn -0.9620 -0.2731 -0.0000
vn 0.0455 -0.1604 -0.9860
vn 0.2731 -0.9620 0.0003
vt 0.959703 0.009387
vt 0.960882 0.008099
vt 0.960684 0.009187
vt 0.957954 0.007566
vt 0.960035 0.007566
vt 0.962915 0.005744
vt 0.961736 0.007033
vt 0.961934 0.005945
vt 0.964664 0.007566
vt 0.962584 0.007566
vt 0.958751 0.010974
vt 0.960309 0.010184
vt 0.959740 0.011133
vt 0.957756 0.008654
vt 0.963867 0.004157
vt 0.962309 0.004947
vt 0.962878 0.003998
vt 0.964862 0.006477
vt 0.957301 0.012125
vt 0.959037 0.011934
vt 0.958171 0.012621
vt 0.957187 0.009603
vt 0.965317 0.003006
vt 0.963581 0.003197
vt 0.964447 0.002510
vt 0.965431 0.005529
vt 0.955539 0.012691
vt 0.957231 0.013124
vt 0.956177 0.013462
vt 0.956321 0.010290
vt 0.967079 0.002440
vt 0.965388 0.002008
vt 0.966441 0.001669
vt 0.966297 0.004841
vt 0.957231 0.002008
vt 0.955539 0.002440
vt 0.956177 0.001669
vt 0.956321 0.004841
vt 0.957301 0.003006
vt 0.965388 0.013124
vt 0.967079 0.012691
vt 0.966441 0.013462
vt 0.966297 0.010290
vt 0.965317 0.012125
vt 0.959037 0.003197
vt 0.958171 0.002510
vt 0.957187 0.005529
vt 0.958751 0.004157
vt 0.963581 0.011934
vt 0.964447 0.012621
vt 0.965431 0.009603
vt 0.963867 0.010974
vt 0.960309 0.004947
vt 0.959740 0.003998
vt 0.957756 0.006477
vt 0.959703 0.005744
vt 0.962309 0.010184
vt 0.962878 0.011133
vt 0.964862 0.008654
vt 0.962915 0.009387
vt 0.960882 0.007033
vt 0.960684 0.005945
vt 0.961736 0.008099
vt 0.961934 0.009187
vt 0.955268 0.010628
vt 0.967350 0.004503
vt 0.955268 0.004503
vt 0.967350 0.010628
vt 0.974174 0.011647
vt 0.974914 0.011060
vt 0.976000 0.005093
vt 0.975514 0.004283
vt 0.972472 0.012365
vt 0.973371 0.012076
vt 0.976321 0.005945
vt 0.976490 0.006874
vt 0.976490 0.007784
vt 0.976321 0.008714
vt 0.972472 0.002294
vt 0.973371 0.002583
vt 0.975514 0.010376
vt 0.976000 0.009566
vt 0.974914 0.003599
vt 0.974174 0.003012
vt 0.977467 0.004841
vt 0.976600 0.005529
vt 0.975833 0.007566
vt 0.976031 0.006477
vt 0.976031 0.008654
vt 0.976600 0.009603
vt 0.977467 0.010290
vt 0.978520 0.004503
vt 0.978520 0.010628
s 1
usemtl Catenary
f 148/102/103 110/103/104 149/104/105
f 148/102/106 112/105/107 111/106/107
f 146/107/108 112/108/109 147/109/110
f 146/107/111 114/110/112 113/111/112
f 143/112/113 149/113/105 144/114/114
f 143/112/115 147/115/116 148/102/106
f 141/116/117 147/117/110 142/118/118
f 141/116/119 145/119/120 146/107/111
f 138/120/121 144/121/114 139/122/122
f 138/120/123 142/123/124 143/112/115
f 136/124/125 142/125/118 137/126/126
f 136/124/127 140/127/128 141/116/119
f 133/128/129 139/129/122 134/130/130
f 133/128/131 137/131/132 138/120/123
f 131/132/133 137/133/126 132/134/134
f 131/132/135 135/135/136 136/124/127
f 129/136/137 133/137/129 134/138/130
f 127/139/138 133/137/131 128/140/139
f 127/141/140 131/142/133 132/143/134
f 125/144/141 131/142/135 126/145/142
f 124/146/143 128/140/144 129/147/137
f 122/148/145 128/140/139 123/149/146
f 122/150/147 126/145/148 127/151/140
f 120/152/149 126/145/142 121/153/150
f 119/154/151 123/149/152 124/155/143
f 117/156/153 123/149/146 118/157/154
f 117/158/155 121/153/156 122/159/147
f 115/160/157 121/153/150 116/161/158
f 110/162/104 118/157/159 119/163/151
f 112/105/107 118/157/154 111/106/107
f 112/164/109 116/161/160 117/165/155
f 114/110/112 116/161/158 113/111/112
f 148/102/103 111/106/161 110/103/104
f 148/102/106 147/115/116 112/105/107
f 146/107/108 113/111/109 112/108/109
f 146/107/111 145/119/120 114/110/112
f 143/112/113 148/102/103 149/113/105
f 143/112/115 142/123/124 147/115/116
f 141/116/117 146/107/108 147/117/110
f 141/116/119 140/127/128 145/119/120
f 138/120/121 143/112/113 144/121/114
f 138/120/123 137/131/132 142/123/124
f 136/124/125 141/116/117 142/125/118
f 136/124/127 135/135/136 140/127/128
f 133/128/129 138/120/121 139/129/122
f 133/128/131 132/166/162 137/131/132
f 131/132/133 136/124/125 137/133/126
f 131/132/135 130/167/135 135/135/136
f 129/136/137 128/140/144 133/137/129
f 127/139/138 132/168/162 133/137/131
f 127/141/140 126/145/148 131/142/133
f 125/144/141 130/169/135 131/142/135
f 124/146/143 123/149/152 128/140/144
f 122/148/145 127/139/138 128/140/139
f 122/150/147 121/153/156 126/145/148
f 120/152/149 125/144/141 126/145/142
f 119/154/151 118/157/159 123/149/152
f 117/156/153 122/148/145 123/149/146
f 117/158/155 116/161/160 121/153/156
f 115/160/157 120/152/149 121/153/150
f 110/162/104 111/106/161 118/157/159
f 112/105/107 117/156/153 118/157/154
f 112/164/109 113/111/109 116/161/160
f 114/110/112 115/160/157 116/161/158
f 140/127/163 157/119/163 145/119/163
f 125/144/163 152/152/163 153/144/163
f 140/127/163 155/135/163 156/127/163
f 115/160/163 152/152/163 120/152/163
f 135/135/163 154/167/163 155/135/163
f 114/110/163 151/160/163 115/160/163
f 145/119/163 150/110/163 114/110/163
f 130/169/163 153/144/163 154/169/163
f 182/170/164 180/171/164 162/170/164
f 183/172/165 181/173/166 159/172/166
f 184/174/167 162/175/168 161/174/169
f 183/176/170 158/177/171 185/177/172
f 185/178/172 163/179/173 186/179/174
f 184/180/167 160/181/175 187/181/176
f 180/182/164 163/183/164 162/182/164
f 181/184/166 160/185/166 159/184/166
f 155/186/177 170/187/178 156/187/178
f 150/188/179 171/189/180 164/188/181
f 151/190/182 164/188/181 165/190/183
f 152/191/184 167/192/185 153/192/186
f 154/193/187 169/186/188 155/186/177
f 157/189/189 170/187/178 171/189/180
f 152/191/184 165/190/183 166/191/184
f 153/192/186 168/194/190 154/194/187
f 129/185/191 175/184/192 124/184/193
f 144/182/178 178/183/194 173/182/195
f 134/180/196 179/181/197 129/181/191
f 149/179/198 177/178/199 178/179/194
f 110/177/200 174/176/201 177/177/199
f 139/175/202 176/174/203 134/174/196
f 119/172/204 175/173/192 174/172/201
f 144/171/178 172/170/205 139/170/202
f 175/184/206 187/185/176 181/184/207
f 173/182/208 186/183/174 180/182/209
f 179/181/197 184/180/167 187/181/176
f 178/179/194 185/178/172 186/179/174
f 174/176/201 185/177/172 177/177/199
f 172/175/205 184/174/167 176/174/203
f 175/173/206 183/172/170 174/172/201
f 173/171/208 182/170/210 172/170/205
f 158/178/211 162/182/211 163/183/211
f 161/174/211 159/184/211 160/185/211
f 140/127/163 156/127/163 157/119/163
f 125/144/163 120/152/163 152/152/163
f 140/127/163 135/135/163 155/135/163
f 115/160/163 151/160/163 152/152/163
f 135/135/163 130/167/163 154/167/163
f 114/110/163 150/110/163 151/160/163
f 145/119/163 157/119/163 150/110/163
f 130/169/163 125/144/163 153/144/163
f 184/174/167 182/175/210 162/175/168
f 183/176/170 159/176/212 158/177/171
f 185/178/172 158/178/171 163/179/173
f 184/180/167 161/180/169 160/181/175
f 180/182/164 186/183/164 163/183/164
f 181/184/166 187/185/213 160/185/166
f 155/186/177 169/186/188 170/187/178
f 150/188/179 157/189/189 171/189/180
f 151/190/182 150/188/179 164/188/181
f 152/191/184 166/191/184 167/192/185
f 154/193/187 168/193/190 169/186/188
f 157/189/189 156/187/178 170/187/178
f 152/191/184 151/190/182 165/190/183
f 153/192/186 167/192/185 168/194/190
f 129/185/191 179/185/197 175/184/192
f 144/182/178 149/183/198 178/183/194
f 134/180/196 176/180/203 179/181/197
f 149/179/198 110/178/200 177/178/199
f 110/177/200 119/176/204 174/176/201
f 139/175/202 172/175/205 176/174/203
f 119/172/204 124/173/193 175/173/192
f 144/171/178 173/171/195 172/170/205
f 175/184/206 179/185/197 187/185/176
f 173/182/208 178/183/194 186/183/174
f 179/181/197 176/180/203 184/180/167
f 178/179/194 177/178/199 185/178/172
f 174/176/201 183/176/170 185/177/172
f 172/175/205 182/175/210 184/174/167
f 175/173/206 181/173/207 183/172/170
f 173/171/208 180/171/209 182/170/210
f 158/178/211 161/174/211 162/182/211
f 161/174/211 158/177/211 159/184/211
