# Blender 5.1.2
# www.blender.org
mtllib tunnel_outwards_inner_dual.mtl
o TunnelArmOutwardsInnerDual
g tunnel_outwards_inner_dual
v -0.308433 6.000000 -0.006696
v 0.389469 6.301972 -0.006697
v 0.032567 6.200000 -0.006696
v -0.326436 6.019967 -0.006696
v 0.382567 6.329857 -0.006697
v 0.016918 6.223782 -0.006696
v -0.326436 6.000000 -0.006696
v 0.032567 6.200000 -0.002696
v 0.389469 6.301972 -0.002697
v -0.308433 6.000000 -0.002696
v 0.016918 6.223782 -0.002696
v 0.382567 6.329857 -0.002697
v -0.326436 6.019967 -0.002696
v -0.326436 6.000000 -0.002696
v 0.424470 6.301971 0.002303
v 0.417571 6.329857 0.002303
v 0.417571 6.329857 0.006303
v 0.424472 6.301972 0.006303
v -0.291432 6.000000 0.006304
v -0.291432 6.019967 0.006304
v 0.051922 6.223782 0.006303
v -0.273429 6.000000 0.006304
v 0.067571 6.200000 0.006303
v -0.291432 6.000000 0.002304
v 0.051922 6.223782 0.002303
v -0.291432 6.019967 0.002304
v 0.067571 6.200000 0.002303
v -0.273429 6.000000 0.002304
vn -0.0000 -0.0000 -1.0000
vn -0.5104 0.8599 -0.0000
vn 0.5059 -0.8626 -0.0000
vn 0.9707 0.2402 -0.0000
vn -0.2786 0.9604 -0.0000
vn 0.2747 -0.9615 -0.0000
vn -1.0000 -0.0000 -0.0000
vn -0.0000 -0.0000 1.0000
vn 0.2747 -0.9615 -0.0001
vn 0.9707 0.2402 -0.0001
vn 0.9707 0.2402 -0.0006
vt 0.976897 0.007160
vt 0.983131 0.003687
vt 0.977168 0.007573
vt 0.983131 0.004034
vt 0.982818 0.003687
vt 0.970819 0.009415
vt 0.970699 0.008931
vt 0.982523 0.003687
vt 0.982523 0.004034
vt 0.970091 0.008931
vt 0.976289 0.007160
vt 0.976560 0.007573
vt 0.970211 0.009415
vt 0.982210 0.003687
vt 0.970091 0.008931
s 1
usemtl Catenary
f 3/1/1 7/2/1 6/3/1
f 13/4/2 6/3/2 4/4/2
f 8/1/3 1/5/3 3/1/3
f 12/6/4 2/7/4 5/6/4
f 11/3/5 5/6/5 6/3/5
f 9/7/6 3/1/6 2/7/6
f 14/2/7 4/4/7 7/2/7
f 11/3/8 14/2/8 8/1/8
f 19/8/7 26/9/7 24/8/7
f 15/10/9 23/11/6 27/11/6
f 21/12/5 16/13/5 25/12/5
f 17/13/10 15/10/11 16/13/4
f 23/11/3 28/14/3 27/11/3
f 20/9/2 25/12/2 26/9/2
f 21/12/8 23/11/8 17/13/8
f 27/11/1 25/12/1 15/10/1
f 5/6/1 2/7/1 3/1/1
f 3/1/1 1/5/1 7/2/1
f 7/2/1 4/4/1 6/3/1
f 6/3/1 5/6/1 3/1/1
f 13/4/2 11/3/2 6/3/2
f 8/1/3 10/5/3 1/5/3
f 12/6/4 9/7/4 2/7/4
f 11/3/5 12/6/5 5/6/5
f 9/7/6 8/1/6 3/1/6
f 14/2/7 13/4/7 4/4/7
f 8/1/8 9/7/8 12/6/8
f 11/3/8 13/4/8 14/2/8
f 14/2/8 10/5/8 8/1/8
f 8/1/8 12/6/8 11/3/8
f 19/8/7 20/9/7 26/9/7
f 15/10/9 18/15/9 23/11/6
f 21/12/5 17/13/5 16/13/5
f 17/13/10 18/15/11 15/10/11
f 23/11/3 22/14/3 28/14/3
f 20/9/2 21/12/2 25/12/2
f 21/12/8 20/9/8 19/8/8
f 19/8/8 22/14/8 23/11/8
f 23/11/8 18/15/8 17/13/8
f 21/12/8 19/8/8 23/11/8
f 27/11/1 28/14/1 24/8/1
f 24/8/1 26/9/1 25/12/1
f 25/12/1 16/13/1 15/10/1
f 27/11/1 24/8/1 25/12/1
o TunnelVerticalInsulator.007
v -0.299868 7.039817 -0.008762
v -0.299868 7.054616 -0.102362
v -0.299868 7.130641 -0.022523
v -0.299868 7.140331 -0.102362
v -0.299868 7.216355 -0.038935
v -0.272158 7.216355 -0.027458
v -0.229157 7.140331 -0.073073
v -0.285024 7.130641 -0.016375
v -0.229157 7.054616 -0.073073
v -0.293494 7.039817 -0.006122
v -0.260681 7.216355 0.000252
v -0.199868 7.140331 -0.002362
v -0.278876 7.130641 -0.001532
v -0.199868 7.054616 -0.002362
v -0.290854 7.039817 0.000252
v -0.272158 7.216355 0.027961
v -0.229157 7.140331 0.068349
v -0.285827 7.130641 0.014596
v -0.229157 7.054616 0.068349
v -0.293494 7.039817 0.006626
v -0.299868 7.216355 0.039439
v -0.299868 7.140331 0.097638
v -0.299868 7.130641 0.020487
v -0.299868 7.054616 0.097638
v -0.299868 7.039817 0.009266
v -0.327577 7.216355 0.027961
v -0.370578 7.140331 0.068349
v -0.313908 7.130641 0.014596
v -0.370578 7.054616 0.068349
v -0.306241 7.039817 0.006626
v -0.339054 7.216355 0.000252
v -0.399868 7.140331 -0.002362
v -0.320859 7.130641 -0.001532
v -0.399868 7.054616 -0.002362
v -0.308882 7.039817 0.000252
v -0.327577 7.216355 -0.027457
v -0.370578 7.140331 -0.073072
v -0.314711 7.130641 -0.016375
v -0.370578 7.054616 -0.073072
v -0.306241 7.039817 -0.006122
v -0.299868 7.216355 -0.018017
v -0.286949 7.216355 -0.012666
v -0.281599 7.216355 0.000252
v -0.286949 7.216355 0.013170
v -0.299868 7.216355 0.018521
v -0.312786 7.216355 0.013170
v -0.318137 7.216355 0.000252
v -0.312786 7.216355 -0.012666
v -0.299868 7.334884 -0.018017
v -0.286949 7.334884 -0.012666
v -0.281599 7.334884 0.000252
v -0.286949 7.334884 0.013170
v -0.299868 7.334884 0.018521
v -0.312786 7.334884 0.013170
v -0.318137 7.334884 0.000252
v -0.312786 7.334884 -0.012666
v -0.299868 7.350073 0.000252
v -0.281599 7.350073 0.000252
v -0.318137 7.350073 0.000252
v -0.312786 7.334884 0.034276
v -0.318137 7.334884 0.021358
v -0.299868 7.334884 0.039627
v -0.286949 7.334884 0.034276
v -0.281599 7.334884 0.021358
v -0.312786 7.350073 0.034276
v -0.318137 7.350073 0.021358
v -0.299868 7.350073 0.039627
v -0.286949 7.350073 0.034276
v -0.281599 7.350073 0.021358
v -0.312786 7.334884 -0.034282
v -0.299868 7.334884 -0.039633
v -0.318137 7.334884 -0.021364
v -0.286949 7.334884 -0.034282
v -0.281599 7.334884 -0.021364
v -0.312786 7.350073 -0.034282
v -0.299868 7.350073 -0.039633
v -0.318137 7.350073 -0.021364
v -0.286949 7.350073 -0.034282
v -0.281599 7.350073 -0.021364
v -0.299868 6.986049 -0.008762
v -0.293494 6.986049 -0.006122
v -0.290854 6.986049 0.000252
v -0.293494 6.986049 0.006626
v -0.299868 6.986049 0.009266
v -0.306241 6.986049 0.006626
v -0.308882 6.986049 0.000252
v -0.306241 6.986049 -0.006122
v 0.461674 6.334139 -0.008735
v 0.467783 6.335958 -0.006095
v 0.470313 6.336710 0.000279
v 0.467783 6.335958 0.006652
v 0.461674 6.334139 0.009293
v 0.455565 6.332321 0.006653
v 0.453034 6.331568 0.000279
v 0.455565 6.332321 -0.006095
vn -0.1109 -0.9875 -0.1117
vn -0.0000 -0.9877 -0.1562
vn -0.1122 -0.9875 -0.1105
vn -0.4879 0.7231 -0.4889
vn -0.0000 0.7242 -0.6896
vn -0.0853 -0.9927 -0.0856
vn -0.0000 -0.9927 -0.1205
vn -0.0857 -0.9927 -0.0852
vn -0.5436 0.6361 -0.5477
vn -0.0000 0.6406 -0.7679
vn -0.1605 -0.9870 -0.0008
vn -0.1606 -0.9870 0.0017
vn -0.6934 0.7206 -0.0010
vn -0.4893 0.7231 -0.4875
vn -0.1217 -0.9926 -0.0002
vn -0.1213 -0.9926 0.0010
vn -0.7808 0.6247 -0.0042
vn -0.5489 0.6360 -0.5424
vn -0.1162 -0.9865 0.1154
vn -0.1149 -0.9865 0.1167
vn -0.4952 0.7160 0.4921
vn -0.6917 0.7222 0.0052
vn -0.0876 -0.9924 0.0869
vn -0.0857 -0.9924 0.0888
vn -0.5609 0.6129 0.5566
vn -0.7810 0.6245 0.0066
vn -0.0000 -0.9863 0.1652
vn -0.0000 0.7126 0.7016
vn -0.4872 0.7158 0.5003
vn -0.0000 -0.9922 0.1245
vn -0.0000 -0.9922 0.1246
vn -0.0000 0.6079 0.7940
vn -0.5554 0.6128 0.5621
vn 0.1149 -0.9865 0.1167
vn 0.4872 0.7158 0.5003
vn 0.4952 0.7160 0.4921
vn 0.0857 -0.9924 0.0888
vn 0.5554 0.6128 0.5621
vn 0.5609 0.6129 0.5566
vn 0.1606 -0.9870 0.0017
vn 0.1162 -0.9865 0.1154
vn 0.6917 0.7222 0.0052
vn 0.6934 0.7206 -0.0010
vn 0.1213 -0.9926 0.0010
vn 0.0876 -0.9924 0.0869
vn 0.7810 0.6245 0.0066
vn 0.7808 0.6247 -0.0042
vn 0.1122 -0.9875 -0.1105
vn 0.1605 -0.9870 -0.0008
vn 0.4893 0.7231 -0.4875
vn 0.4879 0.7231 -0.4889
vn 0.0857 -0.9927 -0.0852
vn 0.1217 -0.9926 -0.0002
vn 0.5489 0.6360 -0.5424
vn 0.5436 0.6361 -0.5477
vn 0.1109 -0.9875 -0.1117
vn 0.0853 -0.9927 -0.0856
vn -0.0000 0.7123 0.7019
vn -0.0000 1.0000 -0.0000
vn 0.7071 -0.0000 0.7071
vn -0.0000 -0.0000 1.0000
vn -0.7071 -0.0000 0.7071
vn -1.0000 -0.0000 -0.0000
vn -0.7071 -0.0000 -0.7071
vn -0.0000 -0.0000 -1.0000
vn 0.7071 -0.0000 -0.7071
vn 1.0000 -0.0000 -0.0000
vn 0.9701 -0.2425 -0.0000
vn 0.9808 -0.0000 -0.1951
vn -0.0000 -1.0000 -0.0000
vn 0.7319 -0.6657 0.1456
vn -0.9808 -0.0000 0.1951
vn -0.7319 -0.6657 0.1456
vn -0.9701 -0.2425 -0.0000
vn 0.7319 -0.6657 -0.1456
vn -0.7319 -0.6657 -0.1456
vn 0.6494 0.7605 -0.0000
vn 0.5295 0.6205 -0.5785
vn 0.4764 0.5572 -0.6802
vn 0.4764 0.5572 0.6801
vn 0.1057 0.1241 0.9866
vn 0.5294 0.6205 0.5785
vn -0.5782 -0.6733 0.4609
vn -0.6512 -0.7589 -0.0000
vn -0.4486 -0.5233 0.7245
vn -0.1956 -0.2277 -0.9539
vn -0.4486 -0.5233 -0.7245
vn -0.5782 -0.6733 -0.4608
vn 0.1057 0.1241 -0.9866
vn 0.6490 0.7608 -0.0000
vn -0.1956 -0.2276 0.9539
vn -0.6516 -0.7586 -0.0000
vn 0.9808 -0.0000 0.1951
vn -0.9808 -0.0000 -0.1951
vt 0.959703 0.009387
vt 0.960882 0.008099
vt 0.960684 0.009187
vt 0.957954 0.007566
vt 0.960035 0.007566
vt 0.962915 0.005744
vt 0.961736 0.007033
vt 0.961934 0.005945
vt 0.964664 0.007566
vt 0.962584 0.007566
vt 0.958751 0.010974
vt 0.960309 0.010184
vt 0.959740 0.011133
vt 0.957756 0.008654
vt 0.963867 0.004157
vt 0.962309 0.004947
vt 0.962878 0.003998
vt 0.964862 0.006477
vt 0.957301 0.012125
vt 0.959037 0.011934
vt 0.958171 0.012621
vt 0.957187 0.009603
vt 0.965317 0.003006
vt 0.963581 0.003197
vt 0.964447 0.002510
vt 0.965431 0.005529
vt 0.955539 0.012691
vt 0.957231 0.013124
vt 0.956177 0.013462
vt 0.956321 0.010290
vt 0.967079 0.002440
vt 0.965388 0.002008
vt 0.966441 0.001669
vt 0.966297 0.004841
vt 0.957231 0.002008
vt 0.955539 0.002440
vt 0.956177 0.001669
vt 0.956321 0.004841
vt 0.957301 0.003006
vt 0.965388 0.013124
vt 0.967079 0.012691
vt 0.966441 0.013462
vt 0.966297 0.010290
vt 0.965317 0.012125
vt 0.959037 0.003197
vt 0.958171 0.002510
vt 0.957187 0.005529
vt 0.958751 0.004157
vt 0.963581 0.011934
vt 0.964447 0.012621
vt 0.965431 0.009603
vt 0.963867 0.010974
vt 0.960309 0.004947
vt 0.959740 0.003998
vt 0.957756 0.006477
vt 0.959703 0.005744
vt 0.962309 0.010184
vt 0.962878 0.011133
vt 0.964862 0.008654
vt 0.962915 0.009387
vt 0.960882 0.007033
vt 0.960684 0.005945
vt 0.961736 0.008099
vt 0.961934 0.009187
vt 0.955268 0.010628
vt 0.967350 0.004503
vt 0.955268 0.004503
vt 0.967350 0.010628
vt 0.981114 0.009656
vt 0.982013 0.009945
vt 0.981114 0.005003
vt 0.980374 0.005590
vt 0.979888 0.006400
vt 0.979719 0.007329
vt 0.979888 0.008259
vt 0.980374 0.009069
vt 0.982013 0.004714
vt 0.924092 -0.341471
vt 0.974914 0.011060
vt 0.974174 0.011647
vt 0.975514 0.004283
vt 0.976000 0.005093
vt 0.973371 0.012076
vt 0.972472 0.012365
vt 0.976321 0.005945
vt 0.976490 0.006874
vt 0.976490 0.007784
vt 0.976321 0.008714
vt 0.972472 0.002294
vt 0.973371 0.002583
vt 0.976000 0.009566
vt 0.975514 0.010376
vt 0.974174 0.003012
vt 0.974914 0.003599
s 1
usemtl Catenary
f 67/16/12 29/17/13 68/18/14
f 67/16/15 31/19/16 30/20/16
f 65/21/17 31/22/18 66/23/19
f 65/21/20 33/24/21 32/25/21
f 62/26/22 68/27/14 63/28/23
f 62/26/24 66/29/25 67/16/15
f 60/30/26 66/31/19 61/32/27
f 60/30/28 64/33/29 65/21/20
f 57/34/30 63/35/23 58/36/31
f 57/34/32 61/37/33 62/26/24
f 55/38/34 61/39/27 56/40/35
f 55/38/36 59/41/37 60/30/28
f 52/42/38 58/43/31 53/44/38
f 52/42/39 56/45/40 57/34/32
f 50/46/41 56/47/35 51/48/42
f 50/46/43 54/49/44 55/38/36
f 48/50/45 52/51/38 53/52/38
f 46/53/46 52/51/39 47/54/47
f 46/55/48 50/56/41 51/57/42
f 44/58/49 50/56/43 45/59/50
f 43/60/51 47/54/52 48/61/45
f 41/62/53 47/54/47 42/63/54
f 41/64/55 45/59/56 46/65/48
f 39/66/57 45/59/50 40/67/58
f 38/68/59 42/63/60 43/69/51
f 36/70/61 42/63/54 37/71/62
f 36/72/63 40/67/64 41/73/55
f 34/74/65 40/67/58 35/75/66
f 29/76/13 37/71/67 38/77/59
f 31/19/16 37/71/62 30/20/16
f 31/78/18 35/75/68 36/79/63
f 33/24/21 35/75/66 32/25/21
f 67/16/12 30/20/13 29/17/13
f 67/16/15 66/29/25 31/19/16
f 65/21/17 32/25/18 31/22/18
f 65/21/20 64/33/29 33/24/21
f 62/26/22 67/16/12 68/27/14
f 62/26/24 61/37/33 66/29/25
f 60/30/26 65/21/17 66/31/19
f 60/30/28 59/41/37 64/33/29
f 57/34/30 62/26/22 63/35/23
f 57/34/32 56/45/40 61/37/33
f 55/38/34 60/30/26 61/39/27
f 55/38/36 54/49/44 59/41/37
f 52/42/38 57/34/30 58/43/31
f 52/42/39 51/80/69 56/45/40
f 50/46/41 55/38/34 56/47/35
f 50/46/43 49/81/43 54/49/44
f 48/50/45 47/54/52 52/51/38
f 46/53/46 51/82/69 52/51/39
f 46/55/48 45/59/56 50/56/41
f 44/58/49 49/83/43 50/56/43
f 43/60/51 42/63/60 47/54/52
f 41/62/53 46/53/46 47/54/47
f 41/64/55 40/67/64 45/59/56
f 39/66/57 44/58/49 45/59/50
f 38/68/59 37/71/67 42/63/60
f 36/70/61 41/62/53 42/63/54
f 36/72/63 35/75/68 40/67/64
f 34/74/65 39/66/57 40/67/58
f 29/76/13 30/20/13 37/71/67
f 31/19/16 36/70/61 37/71/62
f 31/78/18 32/25/18 35/75/68
f 33/24/21 34/74/65 35/75/66
f 59/41/70 76/33/70 64/33/70
f 39/66/70 72/58/70 44/58/70
f 54/49/70 75/41/70 59/41/70
f 34/74/70 71/66/70 39/66/70
f 49/81/70 74/49/70 54/49/70
f 34/74/70 69/24/70 70/74/70
f 64/33/70 69/24/70 33/24/70
f 44/58/70 73/83/70 49/83/70
f 72/84/71 81/85/72 73/85/72
f 74/86/73 83/87/74 75/87/74
f 76/88/75 77/89/76 69/89/76
f 69/89/76 78/90/77 70/90/77
f 71/91/78 80/84/71 72/84/71
f 73/92/72 82/86/73 74/86/73
f 75/87/74 84/88/75 76/88/75
f 70/90/77 79/91/78 71/91/78
f 79/91/79 107/91/80 86/91/78
f 81/85/81 91/84/81 90/85/81
f 86/91/78 92/91/82 79/91/79
f 77/89/81 101/90/81 78/90/81
s 0
f 85/93/70 105/93/70 87/93/70
f 85/93/70 95/93/70 96/93/70
s 1
f 81/92/81 88/86/81 82/86/81
f 77/89/81 98/88/81 99/89/81
f 91/84/71 95/85/72 90/85/72
f 88/86/73 94/87/83 89/87/84
f 92/91/82 96/84/71 91/84/71
f 90/92/72 93/86/73 88/86/73
s 0
f 85/93/70 97/93/70 86/93/70
s 1
f 83/87/85 94/87/83 87/87/74
s 0
f 85/93/70 94/93/70 93/93/70
s 1
f 80/84/81 92/91/82 91/84/81
f 82/86/81 89/87/84 83/87/85
s 0
f 85/93/70 93/93/70 95/93/70
s 1
f 101/90/77 107/91/80 102/91/86
f 98/88/75 104/89/76 99/89/76
f 99/89/76 106/90/77 101/90/77
f 100/87/87 103/88/75 98/88/75
f 87/87/74 100/87/87 83/87/85
f 84/88/81 100/87/87 98/88/81
s 0
f 85/93/70 107/93/70 106/93/70
f 85/93/70 104/93/70 103/93/70
f 85/93/70 106/93/70 104/93/70
s 1
f 78/90/81 102/91/86 79/91/79
f 63/94/74 113/95/73 58/95/73
f 43/96/78 109/97/77 38/97/77
f 58/98/73 112/99/72 53/99/72
f 38/100/77 108/101/76 29/101/76
f 29/102/76 115/103/75 68/103/75
f 53/104/72 111/105/71 48/105/71
f 68/106/75 114/107/74 63/107/74
f 48/108/71 110/109/78 43/109/78
f 110/96/88 117/97/89 109/97/90
f 111/105/91 120/104/92 119/105/93
f 113/95/94 122/94/95 121/95/96
f 108/102/97 123/103/98 115/103/99
f 109/100/90 116/101/100 108/101/97
f 110/109/88 119/108/93 118/109/101
f 112/99/102 121/98/96 120/99/92
f 115/106/99 122/107/95 114/107/103
f 59/41/70 75/41/70 76/33/70
f 39/66/70 71/66/70 72/58/70
f 54/49/70 74/49/70 75/41/70
f 34/74/70 70/74/70 71/66/70
f 49/81/70 73/81/70 74/49/70
f 34/74/70 33/24/70 69/24/70
f 64/33/70 76/33/70 69/24/70
f 44/58/70 72/58/70 73/83/70
f 72/84/71 80/84/71 81/85/72
f 74/86/73 82/86/73 83/87/74
f 76/88/75 84/88/75 77/89/76
f 69/89/76 77/89/76 78/90/77
f 71/91/78 79/91/78 80/84/71
f 73/92/72 81/92/72 82/86/73
f 75/87/74 83/87/74 84/88/75
f 70/90/77 78/90/77 79/91/78
f 79/91/79 102/91/86 107/91/80
f 81/85/81 80/84/81 91/84/81
f 86/91/78 97/91/104 92/91/82
f 77/89/81 99/89/81 101/90/81
s 0
f 85/93/70 103/93/70 105/93/70
s 1
f 81/92/81 90/92/81 88/86/81
f 77/89/81 84/88/81 98/88/81
f 91/84/71 96/84/71 95/85/72
f 88/86/73 93/86/73 94/87/83
f 92/91/82 97/91/104 96/84/71
f 90/92/72 95/92/72 93/86/73
s 0
f 85/93/70 96/93/70 97/93/70
s 1
f 83/87/85 89/87/84 94/87/83
s 0
f 85/93/70 87/93/70 94/93/70
s 1
f 80/84/81 79/91/79 92/91/82
f 82/86/81 88/86/81 89/87/84
f 101/90/77 106/90/77 107/91/80
f 98/88/75 103/88/75 104/89/76
f 99/89/76 104/89/76 106/90/77
f 100/87/87 105/87/105 103/88/75
f 87/87/74 105/87/105 100/87/87
f 84/88/81 83/87/85 100/87/87
s 0
f 85/93/70 86/93/70 107/93/70
s 1
f 78/90/81 101/90/81 102/91/86
f 63/94/74 114/94/74 113/95/73
f 43/96/78 110/96/78 109/97/77
f 58/98/73 113/98/73 112/99/72
f 38/100/77 109/100/77 108/101/76
f 29/102/76 108/102/76 115/103/75
f 53/104/72 112/104/72 111/105/71
f 68/106/75 115/106/75 114/107/74
f 48/108/71 111/108/71 110/109/78
f 110/96/88 118/96/101 117/97/89
f 111/105/91 112/104/102 120/104/92
f 113/95/94 114/94/103 122/94/95
f 108/102/97 116/102/100 123/103/98
f 109/100/90 117/100/89 116/101/100
f 110/109/88 111/108/91 119/108/93
f 112/99/102 113/98/94 121/98/96
f 115/106/99 123/106/98 122/107/95
o TunnelAngledInsulator.008
v 0.489979 6.335397 -0.008746
v 0.504465 6.338427 -0.102362
v 0.578948 6.353658 -0.022524
v 0.588441 6.355599 -0.102362
v 0.662924 6.370830 -0.038935
v 0.668476 6.343683 -0.027458
v 0.602608 6.286323 -0.073073
v 0.581922 6.339116 -0.016375
v 0.518631 6.269150 -0.073073
v 0.491253 6.329164 -0.006111
v 0.670775 6.332438 0.000252
v 0.608476 6.257627 -0.002362
v 0.583153 6.333092 -0.001532
v 0.524499 6.240455 -0.002362
v 0.491781 6.326582 0.000252
v 0.668476 6.343683 0.027961
v 0.602608 6.286322 0.068349
v 0.581761 6.339903 0.014596
v 0.518631 6.269150 0.068349
v 0.491253 6.329164 0.006614
v 0.662924 6.370830 0.039439
v 0.588441 6.355599 0.097638
v 0.578948 6.353658 0.020487
v 0.504465 6.338427 0.097638
v 0.489979 6.335397 0.009250
v 0.657373 6.397978 0.027961
v 0.574275 6.424877 0.068349
v 0.576135 6.367414 0.014596
v 0.490299 6.407704 0.068349
v 0.488704 6.341630 0.006614
v 0.655073 6.409223 0.000252
v 0.568407 6.453572 -0.002362
v 0.574742 6.374224 -0.001532
v 0.484431 6.436400 -0.002362
v 0.488176 6.344213 0.000252
v 0.657373 6.397978 -0.027458
v 0.574275 6.424877 -0.073073
v 0.575974 6.368201 -0.016375
v 0.490299 6.407704 -0.073073
v 0.488704 6.341630 -0.006111
v 0.662903 6.370932 -0.011721
v 0.664599 6.362638 -0.008214
v 0.665302 6.359202 0.000252
v 0.664599 6.362638 0.008717
v 0.662903 6.370932 0.012224
v 0.661207 6.379226 0.008717
v 0.660505 6.382662 0.000252
v 0.661207 6.379226 -0.008214
v 0.348487 6.301192 -0.003615
v 0.350316 6.294751 -0.002482
v 0.350316 6.294751 0.002986
v 0.348487 6.301192 0.004118
v 0.346659 6.307634 0.002986
v 0.346659 6.307634 -0.002482
v 2.058369 6.616666 -0.011721
v 2.060681 6.608522 -0.008214
v 2.061638 6.605149 0.000251
v 2.060681 6.608522 0.008717
v 2.058369 6.616666 0.012224
v 2.056056 6.624810 0.008717
v 2.055099 6.628184 0.000251
v 2.056056 6.624810 -0.008214
v 0.427022 6.330034 0.006614
v 0.426302 6.332569 0.000252
v 0.430497 6.317792 -0.006111
v 0.431217 6.315258 0.000252
v 0.428760 6.323913 0.009250
v 0.428760 6.323913 -0.008746
v 0.427022 6.330034 -0.006111
v 0.430497 6.317792 0.006614
v 0.425258 6.329949 0.000252
v 0.428916 6.317065 0.000252
v 0.425258 6.329949 0.002986
v 0.428915 6.317065 -0.002482
v 0.427087 6.323507 0.004118
v 0.427087 6.323507 -0.003615
v 0.425258 6.329949 -0.002482
v 0.428915 6.317065 0.002986
vn -0.9897 -0.0892 -0.1116
vn -0.9677 -0.1979 -0.1562
vn -0.9900 -0.0880 -0.1105
vn 0.6107 0.6229 -0.4889
vn 0.7095 0.1451 -0.6896
vn -0.9896 -0.1153 -0.0856
vn -0.9726 -0.1989 -0.1205
vn -0.9897 -0.1149 -0.0852
vn 0.5143 0.6600 -0.5477
vn 0.6276 0.1283 -0.7679
vn -0.9992 -0.0406 -0.0008
vn -0.9992 -0.0405 0.0017
vn 0.5671 0.8237 -0.0010
vn 0.6105 0.6242 -0.4875
vn -0.9968 -0.0796 -0.0002
vn -0.9968 -0.0800 0.0010
vn 0.4556 0.8902 -0.0042
vn 0.5131 0.6652 -0.5424
vn -0.9898 -0.0838 0.1153
vn -0.9895 -0.0851 0.1167
vn 0.6022 0.6286 0.4921
vn 0.5690 0.8223 0.0052
vn -0.9898 -0.1130 0.0869
vn -0.9894 -0.1149 0.0888
vn 0.4881 0.6723 0.5566
vn 0.4554 0.8903 0.0066
vn -0.9663 -0.1976 0.1651
vn 0.6982 0.1428 0.7016
vn 0.6037 0.6207 0.5003
vn -0.9721 -0.1988 0.1245
vn -0.9721 -0.1988 0.1246
vn 0.5955 0.1218 0.7940
vn 0.4891 0.6669 0.5621
vn -0.9434 -0.3103 0.1167
vn 0.7989 -0.3339 0.5003
vn 0.8007 -0.3417 0.4921
vn -0.9551 -0.2827 0.0888
vn 0.7116 -0.4214 0.5621
vn 0.7129 -0.4267 0.5566
vn -0.9348 -0.3552 0.0017
vn -0.9432 -0.3115 0.1154
vn 0.8461 -0.5330 0.0052
vn 0.8449 -0.5349 -0.0010
vn -0.9482 -0.3177 0.0010
vn -0.9547 -0.2846 0.0869
vn 0.7683 -0.6400 0.0066
vn 0.7685 -0.6398 -0.0042
vn -0.9450 -0.3078 -0.1105
vn -0.9348 -0.3551 -0.0008
vn 0.8065 -0.3345 -0.4875
vn 0.8062 -0.3331 -0.4889
vn -0.9554 -0.2828 -0.0852
vn -0.9481 -0.3181 -0.0002
vn 0.7330 -0.4104 -0.5424
vn 0.7321 -0.4051 -0.5477
vn -0.9453 -0.3065 -0.1118
vn -0.9554 -0.2825 -0.0856
vn 0.6978 0.1427 0.7019
vn 0.9797 0.2003 -0.0000
vn -0.2731 0.9620 -0.0000
vn 0.2731 -0.9620 -0.0003
vn 0.2731 -0.9620 -0.0000
vn -0.5733 -0.1619 0.8032
vn -0.0455 0.1604 0.9860
vn -0.0000 -0.0000 1.0000
vn -0.4693 -0.6621 -0.5844
vn -0.0000 -0.0000 -1.0000
vn -0.5733 -0.1619 -0.8031
vn -0.0455 0.1604 -0.9860
vn -0.7294 0.3425 -0.5922
vn 0.0455 -0.1604 0.9860
vn -0.4693 -0.6621 0.5844
vn -0.1232 0.6998 0.7036
vn -0.1734 0.9849 -0.0000
vn -0.0012 0.0066 -1.0000
vn -0.1207 0.6856 -0.7179
vn 0.0043 -0.0246 -0.9997
vn 0.1221 -0.6932 -0.7103
vn 0.1251 -0.7100 -0.6930
vn 0.1735 -0.9848 -0.0000
vn 0.1251 -0.7100 0.6930
vn 0.1221 -0.6932 0.7103
vn -0.0012 0.0066 1.0000
vn -0.1207 0.6856 0.7179
vn -0.1232 0.6998 -0.7036
vn 0.0043 -0.0246 0.9997
vn 0.1304 -0.6971 0.7050
vn 0.1840 -0.9829 -0.0000
vn 0.1838 -0.9830 -0.0000
vn -0.1848 0.9828 -0.0000
vn -0.5862 0.4593 -0.6674
vn -0.1849 0.9828 -0.0000
vn 0.0007 -0.0040 1.0000
vn -0.3221 -0.6832 0.6554
vn -0.1302 0.6931 -0.7090
vn -0.5079 -0.1291 -0.8517
vn 0.0007 -0.0040 -1.0000
vn -0.3221 -0.6832 -0.6554
vn -0.1302 0.6931 0.7090
vn -0.5079 -0.1291 0.8517
vn 0.1304 -0.6971 -0.7050
vn -0.5862 0.4593 0.6674
vn -0.5109 -0.8596 -0.0000
vn -0.6176 -0.7865 -0.0000
vn -0.8700 0.4930 -0.0000
vn -0.9289 0.3703 -0.0000
vn -0.7294 0.3425 0.5922
vn -0.9620 -0.2731 -0.0000
vn 0.0455 -0.1604 -0.9860
vn 0.2731 -0.9620 0.0003
vt 0.959703 0.009387
vt 0.960882 0.008099
vt 0.960684 0.009187
vt 0.957954 0.007566
vt 0.960035 0.007566
vt 0.962915 0.005744
vt 0.961736 0.007033
vt 0.961934 0.005945
vt 0.964664 0.007566
vt 0.962584 0.007566
vt 0.958751 0.010974
vt 0.960309 0.010184
vt 0.959740 0.011133
vt 0.957756 0.008654
vt 0.963867 0.004157
vt 0.962309 0.004947
vt 0.962878 0.003998
vt 0.964862 0.006477
vt 0.957301 0.012125
vt 0.959037 0.011934
vt 0.958171 0.012621
vt 0.957187 0.009603
vt 0.965317 0.003006
vt 0.963581 0.003197
vt 0.964447 0.002510
vt 0.965431 0.005529
vt 0.955539 0.012691
vt 0.957231 0.013124
vt 0.956177 0.013462
vt 0.956321 0.010290
vt 0.967079 0.002440
vt 0.965388 0.002008
vt 0.966441 0.001669
vt 0.966297 0.004841
vt 0.957231 0.002008
vt 0.955539 0.002440
vt 0.956177 0.001669
vt 0.956321 0.004841
vt 0.957301 0.003006
vt 0.965388 0.013124
vt 0.967079 0.012691
vt 0.966441 0.013462
vt 0.966297 0.010290
vt 0.965317 0.012125
vt 0.959037 0.003197
vt 0.958171 0.002510
vt 0.957187 0.005529
vt 0.958751 0.004157
vt 0.963581 0.011934
vt 0.964447 0.012621
vt 0.965431 0.009603
vt 0.963867 0.010974
vt 0.960309 0.004947
vt 0.959740 0.003998
vt 0.957756 0.006477
vt 0.959703 0.005744
vt 0.962309 0.010184
vt 0.962878 0.011133
vt 0.964862 0.008654
vt 0.962915 0.009387
vt 0.960882 0.007033
vt 0.960684 0.005945
vt 0.961736 0.008099
vt 0.961934 0.009187
vt 0.955268 0.010628
vt 0.967350 0.004503
vt 0.955268 0.004503
vt 0.967350 0.010628
vt 0.974174 0.011647
vt 0.974914 0.011060
vt 0.976000 0.005093
vt 0.975514 0.004283
vt 0.972472 0.012365
vt 0.973371 0.012076
vt 0.976321 0.005945
vt 0.976490 0.006874
vt 0.976490 0.007784
vt 0.976321 0.008714
vt 0.972472 0.002294
vt 0.973371 0.002583
vt 0.975514 0.010376
vt 0.976000 0.009566
vt 0.974914 0.003599
vt 0.974174 0.003012
vt 0.977467 0.004841
vt 0.976600 0.005529
vt 0.975833 0.007566
vt 0.976031 0.006477
vt 0.976031 0.008654
vt 0.976600 0.009603
vt 0.977467 0.010290
vt 0.978520 0.004503
vt 0.978520 0.010628
s 1
usemtl Catenary
f 162/110/106 124/111/107 163/112/108
f 162/110/109 126/113/110 125/114/110
f 160/115/111 126/116/112 161/117/113
f 160/115/114 128/118/115 127/119/115
f 157/120/116 163/121/108 158/122/117
f 157/120/118 161/123/119 162/110/109
f 155/124/120 161/125/113 156/126/121
f 155/124/122 159/127/123 160/115/114
f 152/128/124 158/129/117 153/130/125
f 152/128/126 156/131/127 157/120/118
f 150/132/128 156/133/121 151/134/129
f 150/132/130 154/135/131 155/124/122
f 147/136/132 153/137/125 148/138/132
f 147/136/133 151/139/134 152/128/126
f 145/140/135 151/141/129 146/142/136
f 145/140/137 149/143/138 150/132/130
f 143/144/139 147/145/132 148/146/132
f 141/147/140 147/145/133 142/148/141
f 141/149/142 145/150/135 146/151/136
f 139/152/143 145/150/137 140/153/144
f 138/154/145 142/148/146 143/155/139
f 136/156/147 142/148/141 137/157/148
f 136/158/149 140/153/150 141/159/142
f 134/160/151 140/153/144 135/161/152
f 133/162/153 137/157/154 138/163/145
f 131/164/155 137/157/148 132/165/156
f 131/166/157 135/161/158 136/167/149
f 129/168/159 135/161/152 130/169/160
f 124/170/107 132/165/161 133/171/153
f 126/113/110 132/165/156 125/114/110
f 126/172/112 130/169/162 131/173/157
f 128/118/115 130/169/160 127/119/115
f 162/110/106 125/114/107 124/111/107
f 162/110/109 161/123/119 126/113/110
f 160/115/111 127/119/112 126/116/112
f 160/115/114 159/127/123 128/118/115
f 157/120/116 162/110/106 163/121/108
f 157/120/118 156/131/127 161/123/119
f 155/124/120 160/115/111 161/125/113
f 155/124/122 154/135/131 159/127/123
f 152/128/124 157/120/116 158/129/117
f 152/128/126 151/139/134 156/131/127
f 150/132/128 155/124/120 156/133/121
f 150/132/130 149/143/138 154/135/131
f 147/136/132 152/128/124 153/137/125
f 147/136/133 146/174/163 151/139/134
f 145/140/135 150/132/128 151/141/129
f 145/140/137 144/175/137 149/143/138
f 143/144/139 142/148/146 147/145/132
f 141/147/140 146/176/163 147/145/133
f 141/149/142 140/153/150 145/150/135
f 139/152/143 144/177/137 145/150/137
f 138/154/145 137/157/154 142/148/146
f 136/156/147 141/147/140 142/148/141
f 136/158/149 135/161/158 140/153/150
f 134/160/151 139/152/143 140/153/144
f 133/162/153 132/165/161 137/157/154
f 131/164/155 136/156/147 137/157/148
f 131/166/157 130/169/162 135/161/158
f 129/168/159 134/160/151 135/161/152
f 124/170/107 125/114/107 132/165/161
f 126/113/110 131/164/155 132/165/156
f 126/172/112 127/119/112 130/169/162
f 128/118/115 129/168/159 130/169/160
f 154/135/164 171/127/164 159/127/164
f 139/152/164 166/160/164 167/152/164
f 154/135/164 169/143/164 170/135/164
f 129/168/164 166/160/164 134/160/164
f 149/143/164 168/175/164 169/143/164
f 128/118/164 165/168/164 129/168/164
f 159/127/164 164/118/164 128/118/164
f 144/177/164 167/152/164 168/177/164
f 196/178/165 194/179/165 176/178/165
f 197/180/166 195/181/167 173/180/167
f 198/182/168 176/183/169 175/182/170
f 197/184/171 172/185/172 199/185/173
f 199/186/173 177/187/174 200/187/175
f 198/188/168 174/189/176 201/189/177
f 194/190/165 177/191/165 176/190/165
f 195/192/167 174/193/167 173/192/167
f 169/194/178 184/195/179 170/195/179
f 164/196/180 185/197/181 178/196/182
f 165/198/183 178/196/182 179/198/184
f 166/199/185 181/200/186 167/200/187
f 168/201/188 183/194/189 169/194/178
f 171/197/190 184/195/179 185/197/181
f 166/199/185 179/198/184 180/199/185
f 167/200/187 182/202/191 168/202/188
f 143/193/192 189/192/193 138/192/194
f 158/190/195 192/191/196 187/190/197
f 148/188/198 193/189/199 143/189/192
f 163/187/200 191/186/201 192/187/196
f 124/185/202 188/184/203 191/185/201
f 153/183/204 190/182/205 148/182/198
f 133/180/206 189/181/193 188/180/203
f 158/179/195 186/178/207 153/178/204
f 189/192/208 201/193/177 195/192/209
f 187/190/210 200/191/175 194/190/211
f 193/189/199 198/188/168 201/189/177
f 192/187/196 199/186/173 200/187/175
f 188/184/203 199/185/173 191/185/201
f 186/183/207 198/182/168 190/182/205
f 189/181/208 197/180/171 188/180/203
f 187/179/210 196/178/212 186/178/207
f 172/186/213 176/190/213 177/191/213
f 175/182/213 173/192/213 174/193/213
f 154/135/164 170/135/164 171/127/164
f 139/152/164 134/160/164 166/160/164
f 154/135/164 149/143/164 169/143/164
f 129/168/164 165/168/164 166/160/164
f 149/143/164 144/175/164 168/175/164
f 128/118/164 164/118/164 165/168/164
f 159/127/164 171/127/164 164/118/164
f 144/177/164 139/152/164 167/152/164
f 198/182/168 196/183/212 176/183/169
f 197/184/171 173/184/214 172/185/172
f 199/186/173 172/186/172 177/187/174
f 198/188/168 175/188/170 174/189/176
f 194/190/165 200/191/165 177/191/165
f 195/192/167 201/193/215 174/193/167
f 169/194/178 183/194/189 184/195/179
f 164/196/180 171/197/190 185/197/181
f 165/198/183 164/196/180 178/196/182
f 166/199/185 180/199/185 181/200/186
f 168/201/188 182/201/191 183/194/189
f 171/197/190 170/195/179 184/195/179
f 166/199/185 165/198/183 179/198/184
f 167/200/187 181/200/186 182/202/191
f 143/193/192 193/193/199 189/192/193
f 158/190/195 163/191/200 192/191/196
f 148/188/198 190/188/205 193/189/199
f 163/187/200 124/186/202 191/186/201
f 124/185/202 133/184/206 188/184/203
f 153/183/204 186/183/207 190/182/205
f 133/180/206 138/181/194 189/181/193
f 158/179/195 187/179/197 186/178/207
f 189/192/208 193/193/199 201/193/177
f 187/190/210 192/191/196 200/191/175
f 193/189/199 190/188/205 198/188/168
f 192/187/196 191/186/201 199/186/173
f 188/184/203 197/184/171 199/185/173
f 186/183/207 196/183/212 198/182/168
f 189/181/208 195/181/209 197/180/171
f 187/179/210 194/179/211 196/178/212
f 172/186/213 175/182/213 176/190/213
f 175/182/213 172/185/213 173/192/213
