# Blender 5.1.2
# www.blender.org
mtllib tunnel_inwards_outer_single.mtl
o TunnelArmInwardsOuterSingle
g tunnel_inwards_outer_single
v 0.291434 6.000000 0.006696
v -0.406468 6.301972 0.006697
v -0.049567 6.200000 0.006696
v 0.309436 6.019967 0.006696
v -0.399567 6.329857 0.006697
v -0.033917 6.223782 0.006696
v 0.309436 6.000000 0.006696
v -0.049567 6.200000 0.002696
v -0.406468 6.301972 0.002697
v 0.291434 6.000000 0.002696
v -0.033917 6.223782 0.002696
v -0.399567 6.329857 0.002697
v 0.309436 6.019967 0.002696
v 0.309436 6.000000 0.002696
vn -0.0000 -0.0000 1.0000
vn -0.0000 -0.0000 -1.0000
vn 0.5104 0.8599 -0.0000
vn -0.5059 -0.8626 -0.0000
vn -0.9707 0.2402 -0.0000
vn 0.2786 0.9604 -0.0000
vn -0.2747 -0.9615 -0.0000
vn 1.0000 -0.0000 -0.0000
vt 0.977026 0.007582
vt 0.969833 0.009091
vt 0.976724 0.007123
vt 0.969967 0.009630
vt 0.983656 0.003647
vt 0.983308 0.003261
vt 0.983656 0.003261
s 1
usemtl Catenary
f 6/1/1 2/2/1 3/3/1
f 8/3/2 12/4/2 11/1/2
f 13/5/3 6/1/3 4/5/3
f 8/3/4 1/6/4 3/3/4
f 12/4/5 2/2/5 5/4/5
f 11/1/6 5/4/6 6/1/6
f 9/2/7 3/3/7 2/2/7
f 14/7/8 4/5/8 7/7/8
f 3/3/1 1/6/1 7/7/1
f 7/7/1 4/5/1 6/1/1
f 6/1/1 5/4/1 2/2/1
f 3/3/1 7/7/1 6/1/1
f 11/1/2 13/5/2 14/7/2
f 14/7/2 10/6/2 8/3/2
f 8/3/2 9/2/2 12/4/2
f 11/1/2 14/7/2 8/3/2
f 13/5/3 11/1/3 6/1/3
f 8/3/4 10/6/4 1/6/4
f 12/4/5 9/2/5 2/2/5
f 11/1/6 12/4/6 5/4/6
f 9/2/7 8/3/7 3/3/7
f 14/7/8 13/5/8 4/5/8
o TunnelVerticalInsulator.008
v 0.299868 7.039817 0.008762
v 0.299868 7.054616 0.102362
v 0.299868 7.130641 0.022523
v 0.299868 7.140331 0.102362
v 0.299868 7.216355 0.038935
v 0.272158 7.216355 0.027457
v 0.229157 7.140331 0.073072
v 0.285024 7.130641 0.016375
v 0.229157 7.054616 0.073072
v 0.293494 7.039817 0.006122
v 0.260681 7.216355 -0.000252
v 0.199868 7.140331 0.002362
v 0.278876 7.130641 0.001532
v 0.199868 7.054616 0.002362
v 0.290854 7.039817 -0.000252
v 0.272158 7.216355 -0.027961
v 0.229157 7.140331 -0.068349
v 0.285827 7.130641 -0.014596
v 0.229157 7.054616 -0.068349
v 0.293494 7.039817 -0.006626
v 0.299868 7.216355 -0.039439
v 0.299868 7.140331 -0.097638
v 0.299868 7.130641 -0.020487
v 0.299868 7.054616 -0.097638
v 0.299868 7.039817 -0.009266
v 0.327577 7.216355 -0.027961
v 0.370578 7.140331 -0.068349
v 0.313908 7.130641 -0.014596
v 0.370578 7.054616 -0.068349
v 0.306241 7.039817 -0.006626
v 0.339054 7.216355 -0.000252
v 0.399868 7.140331 0.002362
v 0.320859 7.130641 0.001532
v 0.399868 7.054616 0.002362
v 0.308882 7.039817 -0.000252
v 0.327577 7.216355 0.027457
v 0.370578 7.140331 0.073072
v 0.314711 7.130641 0.016375
v 0.370578 7.054616 0.073072
v 0.306241 7.039817 0.006122
v 0.299868 7.216355 0.018017
v 0.286949 7.216355 0.012666
v 0.281599 7.216355 -0.000252
v 0.286949 7.216355 -0.013170
v 0.299868 7.216355 -0.018521
v 0.312786 7.216355 -0.013170
v 0.318137 7.216355 -0.000252
v 0.312786 7.216355 0.012666
v 0.299868 7.334884 0.018017
v 0.286949 7.334884 0.012666
v 0.281599 7.334884 -0.000252
v 0.286949 7.334884 -0.013170
v 0.299868 7.334884 -0.018521
v 0.312786 7.334884 -0.013170
v 0.318137 7.334884 -0.000252
v 0.312786 7.334884 0.012666
v 0.299868 7.350073 -0.000252
v 0.281599 7.350073 -0.000252
v 0.318137 7.350073 -0.000252
v 0.312786 7.334884 -0.034276
v 0.318137 7.334884 -0.021358
v 0.299868 7.334884 -0.039627
v 0.286949 7.334884 -0.034276
v 0.281599 7.334884 -0.021358
v 0.312786 7.350073 -0.034276
v 0.318137 7.350073 -0.021358
v 0.299868 7.350073 -0.039627
v 0.286949 7.350073 -0.034276
v 0.281599 7.350073 -0.021358
v 0.312786 7.334884 0.034282
v 0.299868 7.334884 0.039633
v 0.318137 7.334884 0.021364
v 0.286949 7.334884 0.034282
v 0.281599 7.334884 0.021364
v 0.312786 7.350073 0.034282
v 0.299868 7.350073 0.039633
v 0.318137 7.350073 0.021364
v 0.286949 7.350073 0.034282
v 0.281599 7.350073 0.021364
v 0.299868 6.986049 0.008762
v 0.293494 6.986049 0.006122
v 0.290854 6.986049 -0.000252
v 0.293494 6.986049 -0.006626
v 0.299868 6.986049 -0.009266
v 0.306241 6.986049 -0.006626
v 0.308882 6.986049 -0.000252
v 0.306241 6.986049 0.006122
v -0.461674 6.334139 0.008735
v -0.467783 6.335958 0.006095
v -0.470313 6.336710 -0.000279
v -0.467783 6.335958 -0.006653
v -0.461674 6.334139 -0.009293
v -0.455565 6.332321 -0.006653
v -0.453034 6.331568 -0.000279
v -0.455565 6.332321 0.006095
vn 0.1109 -0.9875 0.1117
vn -0.0000 -0.9877 0.1562
vn 0.1122 -0.9875 0.1105
vn 0.4879 0.7231 0.4889
vn -0.0000 0.7242 0.6896
vn 0.0853 -0.9927 0.0856
vn -0.0000 -0.9927 0.1205
vn 0.0857 -0.9927 0.0852
vn 0.5436 0.6361 0.5477
vn -0.0000 0.6406 0.7679
vn 0.1605 -0.9870 0.0008
vn 0.1606 -0.9870 -0.0017
vn 0.6934 0.7206 0.0010
vn 0.4893 0.7231 0.4875
vn 0.1217 -0.9926 0.0002
vn 0.1213 -0.9926 -0.0010
vn 0.7808 0.6247 0.0042
vn 0.5489 0.6360 0.5424
vn 0.1162 -0.9865 -0.1154
vn 0.1149 -0.9865 -0.1167
vn 0.4952 0.7160 -0.4921
vn 0.6917 0.7222 -0.0052
vn 0.0876 -0.9924 -0.0869
vn 0.0857 -0.9924 -0.0888
vn 0.5609 0.6129 -0.5566
vn 0.7810 0.6245 -0.0066
vn -0.0000 -0.9863 -0.1652
vn -0.0000 0.7126 -0.7016
vn 0.4872 0.7158 -0.5003
vn -0.0000 -0.9922 -0.1245
vn -0.0000 -0.9922 -0.1246
vn -0.0000 0.6079 -0.7940
vn 0.5554 0.6128 -0.5621
vn -0.1149 -0.9865 -0.1167
vn -0.4872 0.7158 -0.5003
vn -0.4952 0.7160 -0.4921
vn -0.0857 -0.9924 -0.0888
vn -0.5554 0.6128 -0.5621
vn -0.5609 0.6129 -0.5566
vn -0.1606 -0.9870 -0.0017
vn -0.1162 -0.9865 -0.1154
vn -0.6917 0.7222 -0.0052
vn -0.6934 0.7206 0.0010
vn -0.1213 -0.9926 -0.0010
vn -0.0876 -0.9924 -0.0869
vn -0.7810 0.6245 -0.0066
vn -0.7808 0.6247 0.0042
vn -0.1122 -0.9875 0.1105
vn -0.1605 -0.9870 0.0008
vn -0.4893 0.7231 0.4875
vn -0.4879 0.7231 0.4889
vn -0.0857 -0.9927 0.0852
vn -0.1217 -0.9926 0.0002
vn -0.5489 0.6360 0.5424
vn -0.5436 0.6361 0.5477
vn -0.1109 -0.9875 0.1117
vn -0.0853 -0.9927 0.0856
vn -0.0000 0.7123 -0.7019
vn -0.0000 1.0000 -0.0000
vn -0.7071 -0.0000 -0.7071
vn -0.0000 -0.0000 -1.0000
vn 0.7071 -0.0000 -0.7071
vn 1.0000 -0.0000 -0.0000
vn 0.7071 -0.0000 0.7071
vn -0.0000 -0.0000 1.0000
vn -0.7071 -0.0000 0.7071
vn -1.0000 -0.0000 -0.0000
vn -0.9701 -0.2425 -0.0000
vn -0.9808 -0.0000 0.1951
vn -0.0000 -1.0000 -0.0000
vn -0.7319 -0.6657 -0.1456
vn 0.9808 -0.0000 -0.1951
vn 0.7319 -0.6657 -0.1456
vn 0.9701 -0.2425 -0.0000
vn -0.7319 -0.6657 0.1456
vn 0.7319 -0.6657 0.1456
vn -0.6494 0.7605 -0.0000
vn -0.5295 0.6205 0.5785
vn -0.4764 0.5572 0.6802
vn -0.4764 0.5572 -0.6801
vn -0.1057 0.1241 -0.9866
vn -0.5294 0.6205 -0.5785
vn 0.5782 -0.6733 -0.4609
vn 0.6512 -0.7589 -0.0000
vn 0.4486 -0.5233 -0.7245
vn 0.1956 -0.2277 0.9539
vn 0.4486 -0.5233 0.7245
vn 0.5782 -0.6733 0.4608
vn -0.1057 0.1241 0.9866
vn -0.6490 0.7608 -0.0000
vn 0.1956 -0.2276 -0.9539
vn 0.6516 -0.7586 -0.0000
vn -0.9808 -0.0000 -0.1951
vn 0.9808 -0.0000 0.1951
vt 0.959703 0.009387
vt 0.960882 0.008099
vt 0.960684 0.009187
vt 0.957954 0.007566
vt 0.960035 0.007566
vt 0.962915 0.005744
vt 0.961736 0.007033
vt 0.961934 0.005945
vt 0.964664 0.007566
vt 0.962584 0.007566
vt 0.958751 0.010974
vt 0.960309 0.010184
vt 0.959740 0.011133
vt 0.957756 0.008654
vt 0.963867 0.004157
vt 0.962309 0.004947
vt 0.962878 0.003998
vt 0.964862 0.006477
vt 0.957301 0.012125
vt 0.959037 0.011934
vt 0.958171 0.012621
vt 0.957187 0.009603
vt 0.965317 0.003006
vt 0.963581 0.003197
vt 0.964447 0.002510
vt 0.965431 0.005529
vt 0.955539 0.012691
vt 0.957231 0.013124
vt 0.956177 0.013462
vt 0.956321 0.010290
vt 0.967079 0.002440
vt 0.965388 0.002008
vt 0.966441 0.001669
vt 0.966297 0.004841
vt 0.957231 0.002008
vt 0.955539 0.002440
vt 0.956177 0.001669
vt 0.956321 0.004841
vt 0.957301 0.003006
vt 0.965388 0.013124
vt 0.967079 0.012691
vt 0.966441 0.013462
vt 0.966297 0.010290
vt 0.965317 0.012125
vt 0.959037 0.003197
vt 0.958171 0.002510
vt 0.957187 0.005529
vt 0.958751 0.004157
vt 0.963581 0.011934
vt 0.964447 0.012621
vt 0.965431 0.009603
vt 0.963867 0.010974
vt 0.960309 0.004947
vt 0.959740 0.003998
vt 0.957756 0.006477
vt 0.959703 0.005744
vt 0.962309 0.010184
vt 0.962878 0.011133
vt 0.964862 0.008654
vt 0.962915 0.009387
vt 0.960882 0.007033
vt 0.960684 0.005945
vt 0.961736 0.008099
vt 0.961934 0.009187
vt 0.955268 0.010628
vt 0.967350 0.004503
vt 0.955268 0.004503
vt 0.967350 0.010628
vt 0.981114 0.009656
vt 0.982013 0.009945
vt 0.981114 0.005003
vt 0.980374 0.005590
vt 0.979888 0.006400
vt 0.979719 0.007329
vt 0.979888 0.008259
vt 0.980374 0.009069
vt 0.982013 0.004714
vt 0.924092 -0.341471
vt 0.974914 0.011060
vt 0.974174 0.011647
vt 0.975514 0.004283
vt 0.976000 0.005093
vt 0.973371 0.012076
vt 0.972472 0.012365
vt 0.976321 0.005945
vt 0.976490 0.006874
vt 0.976490 0.007784
vt 0.976321 0.008714
vt 0.972472 0.002294
vt 0.973371 0.002583
vt 0.976000 0.009566
vt 0.975514 0.010376
vt 0.974174 0.003012
vt 0.974914 0.003599
s 1
usemtl Catenary
f 53/8/9 15/9/10 54/10/11
f 53/8/12 17/11/13 16/12/13
f 51/13/14 17/14/15 52/15/16
f 51/13/17 19/16/18 18/17/18
f 48/18/19 54/19/11 49/20/20
f 48/18/21 52/21/22 53/8/12
f 46/22/23 52/23/16 47/24/24
f 46/22/25 50/25/26 51/13/17
f 43/26/27 49/27/20 44/28/28
f 43/26/29 47/29/30 48/18/21
f 41/30/31 47/31/24 42/32/32
f 41/30/33 45/33/34 46/22/25
f 38/34/35 44/35/28 39/36/35
f 38/34/36 42/37/37 43/26/29
f 36/38/38 42/39/32 37/40/39
f 36/38/40 40/41/41 41/30/33
f 34/42/42 38/43/35 39/44/35
f 32/45/43 38/43/36 33/46/44
f 32/47/45 36/48/38 37/49/39
f 30/50/46 36/48/40 31/51/47
f 29/52/48 33/46/49 34/53/42
f 27/54/50 33/46/44 28/55/51
f 27/56/52 31/51/53 32/57/45
f 25/58/54 31/51/47 26/59/55
f 24/60/56 28/55/57 29/61/48
f 22/62/58 28/55/51 23/63/59
f 22/64/60 26/59/61 27/65/52
f 20/66/62 26/59/55 21/67/63
f 15/68/10 23/63/64 24/69/56
f 17/11/13 23/63/59 16/12/13
f 17/70/15 21/67/65 22/71/60
f 19/16/18 21/67/63 18/17/18
f 53/8/9 16/12/10 15/9/10
f 53/8/12 52/21/22 17/11/13
f 51/13/14 18/17/15 17/14/15
f 51/13/17 50/25/26 19/16/18
f 48/18/19 53/8/9 54/19/11
f 48/18/21 47/29/30 52/21/22
f 46/22/23 51/13/14 52/23/16
f 46/22/25 45/33/34 50/25/26
f 43/26/27 48/18/19 49/27/20
f 43/26/29 42/37/37 47/29/30
f 41/30/31 46/22/23 47/31/24
f 41/30/33 40/41/41 45/33/34
f 38/34/35 43/26/27 44/35/28
f 38/34/36 37/72/66 42/37/37
f 36/38/38 41/30/31 42/39/32
f 36/38/40 35/73/40 40/41/41
f 34/42/42 33/46/49 38/43/35
f 32/45/43 37/74/66 38/43/36
f 32/47/45 31/51/53 36/48/38
f 30/50/46 35/75/40 36/48/40
f 29/52/48 28/55/57 33/46/49
f 27/54/50 32/45/43 33/46/44
f 27/56/52 26/59/61 31/51/53
f 25/58/54 30/50/46 31/51/47
f 24/60/56 23/63/64 28/55/57
f 22/62/58 27/54/50 28/55/51
f 22/64/60 21/67/65 26/59/61
f 20/66/62 25/58/54 26/59/55
f 15/68/10 16/12/10 23/63/64
f 17/11/13 22/62/58 23/63/59
f 17/70/15 18/17/15 21/67/65
f 19/16/18 20/66/62 21/67/63
f 45/33/67 62/25/67 50/25/67
f 25/58/67 58/50/67 30/50/67
f 40/41/67 61/33/67 45/33/67
f 20/66/67 57/58/67 25/58/67
f 35/73/67 60/41/67 40/41/67
f 20/66/67 55/16/67 56/66/67
f 50/25/67 55/16/67 19/16/67
f 30/50/67 59/75/67 35/75/67
f 58/76/68 67/77/69 59/77/69
f 60/78/70 69/79/71 61/79/71
f 62/80/72 63/81/73 55/81/73
f 55/81/73 64/82/74 56/82/74
f 57/83/75 66/76/68 58/76/68
f 59/84/69 68/78/70 60/78/70
f 61/79/71 70/80/72 62/80/72
f 56/82/74 65/83/75 57/83/75
f 65/83/76 93/83/77 72/83/75
f 67/77/78 77/76/78 76/77/78
f 72/83/75 78/83/79 65/83/76
f 63/81/78 87/82/78 64/82/78
s 0
f 71/85/67 91/85/67 73/85/67
f 71/85/67 81/85/67 82/85/67
s 1
f 67/84/78 74/78/78 68/78/78
f 63/81/78 84/80/78 85/81/78
f 77/76/68 81/77/69 76/77/69
f 74/78/70 80/79/80 75/79/81
f 78/83/79 82/76/68 77/76/68
f 76/84/69 79/78/70 74/78/70
s 0
f 71/85/67 83/85/67 72/85/67
s 1
f 69/79/82 80/79/80 73/79/71
s 0
f 71/85/67 80/85/67 79/85/67
s 1
f 66/76/78 78/83/79 77/76/78
f 68/78/78 75/79/81 69/79/82
s 0
f 71/85/67 79/85/67 81/85/67
s 1
f 87/82/74 93/83/77 88/83/83
f 84/80/72 90/81/73 85/81/73
f 85/81/73 92/82/74 87/82/74
f 86/79/84 89/80/72 84/80/72
f 73/79/71 86/79/84 69/79/82
f 70/80/78 86/79/84 84/80/78
s 0
f 71/85/67 93/85/67 92/85/67
f 71/85/67 90/85/67 89/85/67
f 71/85/67 92/85/67 90/85/67
s 1
f 64/82/78 88/83/83 65/83/76
f 49/86/71 99/87/70 44/87/70
f 29/88/75 95/89/74 24/89/74
f 44/90/70 98/91/69 39/91/69
f 24/92/74 94/93/73 15/93/73
f 15/94/73 101/95/72 54/95/72
f 39/96/69 97/97/68 34/97/68
f 54/98/72 100/99/71 49/99/71
f 34/100/68 96/101/75 29/101/75
f 96/88/85 103/89/86 95/89/87
f 97/97/88 106/96/89 105/97/90
f 99/87/91 108/86/92 107/87/93
f 94/94/94 109/95/95 101/95/96
f 95/92/87 102/93/97 94/93/94
f 96/101/85 105/100/90 104/101/98
f 98/91/99 107/90/93 106/91/89
f 101/98/96 108/99/92 100/99/100
f 45/33/67 61/33/67 62/25/67
f 25/58/67 57/58/67 58/50/67
f 40/41/67 60/41/67 61/33/67
f 20/66/67 56/66/67 57/58/67
f 35/73/67 59/73/67 60/41/67
f 20/66/67 19/16/67 55/16/67
f 50/25/67 62/25/67 55/16/67
f 30/50/67 58/50/67 59/75/67
f 58/76/68 66/76/68 67/77/69
f 60/78/70 68/78/70 69/79/71
f 62/80/72 70/80/72 63/81/73
f 55/81/73 63/81/73 64/82/74
f 57/83/75 65/83/75 66/76/68
f 59/84/69 67/84/69 68/78/70
f 61/79/71 69/79/71 70/80/72
f 56/82/74 64/82/74 65/83/75
f 65/83/76 88/83/83 93/83/77
f 67/77/78 66/76/78 77/76/78
f 72/83/75 83/83/101 78/83/79
f 63/81/78 85/81/78 87/82/78
s 0
f 71/85/67 89/85/67 91/85/67
s 1
f 67/84/78 76/84/78 74/78/78
f 63/81/78 70/80/78 84/80/78
f 77/76/68 82/76/68 81/77/69
f 74/78/70 79/78/70 80/79/80
f 78/83/79 83/83/101 82/76/68
f 76/84/69 81/84/69 79/78/70
s 0
f 71/85/67 82/85/67 83/85/67
s 1
f 69/79/82 75/79/81 80/79/80
s 0
f 71/85/67 73/85/67 80/85/67
s 1
f 66/76/78 65/83/76 78/83/79
f 68/78/78 74/78/78 75/79/81
f 87/82/74 92/82/74 93/83/77
f 84/80/72 89/80/72 90/81/73
f 85/81/73 90/81/73 92/82/74
f 86/79/84 91/79/102 89/80/72
f 73/79/71 91/79/102 86/79/84
f 70/80/78 69/79/82 86/79/84
s 0
f 71/85/67 72/85/67 93/85/67
s 1
f 64/82/78 87/82/78 88/83/83
f 49/86/71 100/86/71 99/87/70
f 29/88/75 96/88/75 95/89/74
f 44/90/70 99/90/70 98/91/69
f 24/92/74 95/92/74 94/93/73
f 15/94/73 94/94/73 101/95/72
f 39/96/69 98/96/69 97/97/68
f 54/98/72 101/98/72 100/99/71
f 34/100/68 97/100/68 96/101/75
f 96/88/85 104/88/98 103/89/86
f 97/97/88 98/96/99 106/96/89
f 99/87/91 100/86/100 108/86/92
f 94/94/94 102/94/97 109/95/95
f 95/92/87 103/92/86 102/93/97
f 96/101/85 97/100/88 105/100/90
f 98/91/99 99/90/91 107/90/93
f 101/98/96 109/98/95 108/99/92
o TunnelAngledInsulator.009
v -0.489979 6.335397 0.008746
v -0.504465 6.338427 0.102362
v -0.578948 6.353658 0.022523
v -0.588441 6.355599 0.102362
v -0.662924 6.370831 0.038935
v -0.668476 6.343683 0.027457
v -0.602608 6.286323 0.073072
v -0.581922 6.339116 0.016375
v -0.518631 6.269150 0.073072
v -0.491253 6.329164 0.006110
v -0.670775 6.332438 -0.000252
v -0.608476 6.257627 0.002362
v -0.583153 6.333092 0.001531
v -0.524499 6.240455 0.002362
v -0.491781 6.326582 -0.000252
v -0.668476 6.343683 -0.027961
v -0.602608 6.286322 -0.068349
v -0.581761 6.339903 -0.014596
v -0.518631 6.269150 -0.068349
v -0.491253 6.329164 -0.006614
v -0.662924 6.370830 -0.039439
v -0.588441 6.355599 -0.097638
v -0.578948 6.353658 -0.020487
v -0.504465 6.338427 -0.097638
v -0.489979 6.335397 -0.009250
v -0.657373 6.397978 -0.027961
v -0.574275 6.424877 -0.068349
v -0.576135 6.367414 -0.014596
v -0.490299 6.407704 -0.068349
v -0.488704 6.341630 -0.006614
v -0.655073 6.409223 -0.000252
v -0.568407 6.453572 0.002362
v -0.574742 6.374224 0.001531
v -0.484431 6.436400 0.002362
v -0.488176 6.344213 -0.000252
v -0.657373 6.397978 0.027457
v -0.574275 6.424877 0.073072
v -0.575974 6.368201 0.016375
v -0.490299 6.407704 0.073072
v -0.488704 6.341630 0.006110
v -0.662903 6.370932 0.011720
v -0.664599 6.362638 0.008214
v -0.665302 6.359202 -0.000252
v -0.664599 6.362638 -0.008718
v -0.662903 6.370932 -0.012224
v -0.661207 6.379226 -0.008718
v -0.660505 6.382662 -0.000252
v -0.661207 6.379226 0.008214
v -0.348487 6.301192 0.003614
v -0.350316 6.294751 0.002482
v -0.350316 6.294751 -0.002986
v -0.348487 6.301192 -0.004118
v -0.346659 6.307634 -0.002986
v -0.346659 6.307634 0.002482
v -2.058369 6.616667 0.011720
v -2.060681 6.608523 0.008214
v -2.061638 6.605150 -0.000252
v -2.060681 6.608523 -0.008718
v -2.058369 6.616667 -0.012225
v -2.056056 6.624811 -0.008718
v -2.055099 6.628184 -0.000252
v -2.056056 6.624811 0.008214
v -0.427022 6.330034 -0.006614
v -0.426302 6.332569 -0.000252
v -0.430497 6.317792 0.006110
v -0.431217 6.315258 -0.000252
v -0.428760 6.323913 -0.009250
v -0.428760 6.323913 0.008746
v -0.427022 6.330034 0.006110
v -0.430497 6.317792 -0.006614
v -0.425258 6.329949 -0.000252
v -0.428916 6.317065 -0.000252
v -0.425258 6.329949 -0.002986
v -0.428915 6.317065 0.002482
v -0.427087 6.323507 -0.004118
v -0.427087 6.323507 0.003614
v -0.425258 6.329949 0.002482
v -0.428915 6.317065 -0.002986
vn 0.9897 -0.0892 0.1116
vn 0.9677 -0.1979 0.1562
vn 0.9900 -0.0880 0.1105
vn -0.6107 0.6229 0.4889
vn -0.7095 0.1451 0.6896
vn 0.9896 -0.1153 0.0856
vn 0.9726 -0.1989 0.1205
vn 0.9897 -0.1149 0.0852
vn -0.5143 0.6600 0.5477
vn -0.6276 0.1283 0.7679
vn 0.9992 -0.0406 0.0008
vn 0.9992 -0.0405 -0.0017
vn -0.5671 0.8237 0.0010
vn -0.6105 0.6242 0.4875
vn 0.9968 -0.0796 0.0002
vn 0.9968 -0.0800 -0.0010
vn -0.4556 0.8902 0.0042
vn -0.5131 0.6652 0.5424
vn 0.9898 -0.0838 -0.1153
vn 0.9895 -0.0851 -0.1167
vn -0.6022 0.6286 -0.4921
vn -0.5690 0.8223 -0.0052
vn 0.9898 -0.1130 -0.0869
vn 0.9894 -0.1149 -0.0888
vn -0.4881 0.6723 -0.5566
vn -0.4554 0.8903 -0.0066
vn 0.9663 -0.1976 -0.1651
vn -0.6982 0.1428 -0.7016
vn -0.6037 0.6207 -0.5003
vn 0.9721 -0.1988 -0.1245
vn 0.9721 -0.1988 -0.1246
vn -0.5955 0.1218 -0.7940
vn -0.4891 0.6669 -0.5621
vn 0.9434 -0.3103 -0.1167
vn -0.7989 -0.3339 -0.5003
vn -0.8007 -0.3417 -0.4921
vn 0.9551 -0.2827 -0.0888
vn -0.7116 -0.4214 -0.5621
vn -0.7129 -0.4267 -0.5566
vn 0.9348 -0.3552 -0.0017
vn 0.9432 -0.3115 -0.1154
vn -0.8461 -0.5330 -0.0052
vn -0.8449 -0.5349 0.0010
vn 0.9482 -0.3177 -0.0010
vn 0.9547 -0.2846 -0.0869
vn -0.7683 -0.6400 -0.0066
vn -0.7685 -0.6398 0.0042
vn 0.9450 -0.3078 0.1105
vn 0.9348 -0.3551 0.0008
vn -0.8065 -0.3345 0.4875
vn -0.8062 -0.3331 0.4889
vn 0.9554 -0.2828 0.0852
vn 0.9481 -0.3181 0.0002
vn -0.7330 -0.4104 0.5424
vn -0.7321 -0.4051 0.5477
vn 0.9453 -0.3065 0.1118
vn 0.9554 -0.2825 0.0856
vn -0.6978 0.1427 -0.7019
vn -0.9797 0.2003 -0.0000
vn 0.2731 0.9620 -0.0000
vn -0.2731 -0.9620 0.0003
vn -0.2731 -0.9620 -0.0000
vn 0.5733 -0.1619 -0.8031
vn 0.0455 0.1604 -0.9860
vn -0.0000 -0.0000 -1.0000
vn 0.4693 -0.6621 0.5844
vn -0.0000 -0.0000 1.0000
vn 0.5733 -0.1619 0.8031
vn 0.0455 0.1604 0.9860
vn 0.7294 0.3425 0.5922
vn -0.0455 -0.1604 -0.9860
vn 0.4693 -0.6621 -0.5844
vn 0.1232 0.6998 -0.7036
vn 0.1734 0.9849 -0.0000
vn 0.0012 0.0066 1.0000
vn 0.1207 0.6856 0.7179
vn -0.0043 -0.0246 0.9997
vn -0.1221 -0.6932 0.7103
vn -0.1251 -0.7100 0.6930
vn -0.1735 -0.9848 -0.0000
vn -0.1251 -0.7100 -0.6930
vn -0.1221 -0.6932 -0.7103
vn 0.0012 0.0066 -1.0000
vn 0.1207 0.6856 -0.7179
vn 0.1232 0.6998 0.7036
vn -0.0043 -0.0246 -0.9997
vn -0.1304 -0.6971 -0.7050
vn -0.1840 -0.9829 -0.0000
vn -0.1838 -0.9830 -0.0000
vn 0.1848 0.9828 -0.0000
vn 0.5862 0.4593 0.6674
vn 0.1849 0.9828 -0.0000
vn -0.0007 -0.0040 -1.0000
vn 0.3221 -0.6832 -0.6554
vn 0.1302 0.6931 0.7090
vn 0.5079 -0.1291 0.8517
vn -0.0007 -0.0040 1.0000
vn 0.3221 -0.6832 0.6554
vn 0.1302 0.6931 -0.7090
vn 0.5079 -0.1291 -0.8517
vn -0.1304 -0.6971 0.7050
vn 0.5862 0.4593 -0.6674
vn 0.5109 -0.8596 -0.0000
vn 0.6176 -0.7865 -0.0000
vn 0.8700 0.4930 -0.0000
vn 0.9289 0.3703 -0.0000
vn 0.7294 0.3425 -0.5922
vn 0.9620 -0.2731 -0.0000
vn -0.0455 -0.1604 0.9860
vn -0.2731 -0.9620 -0.0003
vt 0.959703 0.009387
vt 0.960882 0.008099
vt 0.960684 0.009187
vt 0.957954 0.007566
vt 0.960035 0.007566
vt 0.962915 0.005744
vt 0.961736 0.007033
vt 0.961934 0.005945
vt 0.964664 0.007566
vt 0.962584 0.007566
vt 0.958751 0.010974
vt 0.960309 0.010184
vt 0.959740 0.011133
vt 0.957756 0.008654
vt 0.963867 0.004157
vt 0.962309 0.004947
vt 0.962878 0.003998
vt 0.964862 0.006477
vt 0.957301 0.012125
vt 0.959037 0.011934
vt 0.958171 0.012621
vt 0.957187 0.009603
vt 0.965317 0.003006
vt 0.963581 0.003197
vt 0.964447 0.002510
vt 0.965431 0.005529
vt 0.955539 0.012691
vt 0.957231 0.013124
vt 0.956177 0.013462
vt 0.956321 0.010290
vt 0.967079 0.002440
vt 0.965388 0.002008
vt 0.966441 0.001669
vt 0.966297 0.004841
vt 0.957231 0.002008
vt 0.955539 0.002440
vt 0.956177 0.001669
vt 0.956321 0.004841
vt 0.957301 0.003006
vt 0.965388 0.013124
vt 0.967079 0.012691
vt 0.966441 0.013462
vt 0.966297 0.010290
vt 0.965317 0.012125
vt 0.959037 0.003197
vt 0.958171 0.002510
vt 0.957187 0.005529
vt 0.958751 0.004157
vt 0.963581 0.011934
vt 0.964447 0.012621
vt 0.965431 0.009603
vt 0.963867 0.010974
vt 0.960309 0.004947
vt 0.959740 0.003998
vt 0.957756 0.006477
vt 0.959703 0.005744
vt 0.962309 0.010184
vt 0.962878 0.011133
vt 0.964862 0.008654
vt 0.962915 0.009387
vt 0.960882 0.007033
vt 0.960684 0.005945
vt 0.961736 0.008099
vt 0.961934 0.009187
vt 0.955268 0.010628
vt 0.967350 0.004503
vt 0.955268 0.004503
vt 0.967350 0.010628
vt 0.974174 0.011647
vt 0.974914 0.011060
vt 0.976000 0.005093
vt 0.975514 0.004283
vt 0.972472 0.012365
vt 0.973371 0.012076
vt 0.976321 0.005945
vt 0.976490 0.006874
vt 0.976490 0.007784
vt 0.976321 0.008714
vt 0.972472 0.002294
vt 0.973371 0.002583
vt 0.975514 0.010376
vt 0.976000 0.009566
vt 0.974914 0.003599
vt 0.974174 0.003012
vt 0.977467 0.004841
vt 0.976600 0.005529
vt 0.975833 0.007566
vt 0.976031 0.006477
vt 0.976031 0.008654
vt 0.976600 0.009603
vt 0.977467 0.010290
vt 0.978520 0.004503
vt 0.978520 0.010628
s 1
usemtl Catenary
f 148/102/103 110/103/104 149/104/105
f 148/102/106 112/105/107 111/106/107
f 146/107/108 112/108/109 147/109/110
f 146/107/111 114/110/112 113/111/112
f 143/112/113 149/113/105 144/114/114
f 143/112/115 147/115/116 148/102/106
f 141/116/117 147/117/110 142/118/118
f 141/116/119 145/119/120 146/107/111
f 138/120/121 144/121/114 139/122/122
f 138/120/123 142/123/124 143/112/115
f 136/124/125 142/125/118 137/126/126
f 136/124/127 140/127/128 141/116/119
f 133/128/129 139/129/122 134/130/129
f 133/128/130 137/131/131 138/120/123
f 131/132/132 137/133/126 132/134/133
f 131/132/134 135/135/135 136/124/127
f 129/136/136 133/137/129 134/138/129
f 127/139/137 133/137/130 128/140/138
f 127/141/139 131/142/132 132/143/133
f 125/144/140 131/142/134 126/145/141
f 124/146/142 128/140/143 129/147/136
f 122/148/144 128/140/138 123/149/145
f 122/150/146 126/145/147 127/151/139
f 120/152/148 126/145/141 121/153/149
f 119/154/150 123/149/151 124/155/142
f 117/156/152 123/149/145 118/157/153
f 117/158/154 121/153/155 122/159/146
f 115/160/156 121/153/149 116/161/157
f 110/162/104 118/157/158 119/163/150
f 112/105/107 118/157/153 111/106/107
f 112/164/109 116/161/159 117/165/154
f 114/110/112 116/161/157 113/111/112
f 148/102/103 111/106/104 110/103/104
f 148/102/106 147/115/116 112/105/107
f 146/107/108 113/111/109 112/108/109
f 146/107/111 145/119/120 114/110/112
f 143/112/113 148/102/103 149/113/105
f 143/112/115 142/123/124 147/115/116
f 141/116/117 146/107/108 147/117/110
f 141/116/119 140/127/128 145/119/120
f 138/120/121 143/112/113 144/121/114
f 138/120/123 137/131/131 142/123/124
f 136/124/125 141/116/117 142/125/118
f 136/124/127 135/135/135 140/127/128
f 133/128/129 138/120/121 139/129/122
f 133/128/130 132/166/160 137/131/131
f 131/132/132 136/124/125 137/133/126
f 131/132/134 130/167/134 135/135/135
f 129/136/136 128/140/143 133/137/129
f 127/139/137 132/168/160 133/137/130
f 127/141/139 126/145/147 131/142/132
f 125/144/140 130/169/134 131/142/134
f 124/146/142 123/149/151 128/140/143
f 122/148/144 127/139/137 128/140/138
f 122/150/146 121/153/155 126/145/147
f 120/152/148 125/144/140 126/145/141
f 119/154/150 118/157/158 123/149/151
f 117/156/152 122/148/144 123/149/145
f 117/158/154 116/161/159 121/153/155
f 115/160/156 120/152/148 121/153/149
f 110/162/104 111/106/104 118/157/158
f 112/105/107 117/156/152 118/157/153
f 112/164/109 113/111/109 116/161/159
f 114/110/112 115/160/156 116/161/157
f 140/127/161 157/119/161 145/119/161
f 125/144/161 152/152/161 153/144/161
f 140/127/161 155/135/161 156/127/161
f 115/160/161 152/152/161 120/152/161
f 135/135/161 154/167/161 155/135/161
f 114/110/161 151/160/161 115/160/161
f 145/119/161 150/110/161 114/110/161
f 130/169/161 153/144/161 154/169/161
f 182/170/162 180/171/162 162/170/162
f 183/172/163 181/173/164 159/172/164
f 184/174/165 162/175/166 161/174/167
f 183/176/168 158/177/169 185/177/170
f 185/178/170 163/179/171 186/179/172
f 184/180/165 160/181/173 187/181/174
f 180/182/162 163/183/162 162/182/162
f 181/184/164 160/185/164 159/184/164
f 155/186/175 170/187/176 156/187/176
f 150/188/177 171/189/178 164/188/179
f 151/190/180 164/188/179 165/190/181
f 152/191/182 167/192/183 153/192/184
f 154/193/185 169/186/186 155/186/175
f 157/189/187 170/187/176 171/189/178
f 152/191/182 165/190/181 166/191/182
f 153/192/184 168/194/188 154/194/185
f 129/185/189 175/184/190 124/184/191
f 144/182/192 178/183/193 173/182/194
f 134/180/195 179/181/196 129/181/189
f 149/179/197 177/178/198 178/179/193
f 110/177/199 174/176/200 177/177/198
f 139/175/201 176/174/202 134/174/195
f 119/172/203 175/173/190 174/172/200
f 144/171/192 172/170/204 139/170/201
f 175/184/205 187/185/174 181/184/206
f 173/182/207 186/183/172 180/182/208
f 179/181/196 184/180/165 187/181/174
f 178/179/193 185/178/170 186/179/172
f 174/176/200 185/177/170 177/177/198
f 172/175/204 184/174/165 176/174/202
f 175/173/205 183/172/168 174/172/200
f 173/171/207 182/170/209 172/170/204
f 158/178/210 162/182/210 163/183/210
f 161/174/210 159/184/210 160/185/210
f 140/127/161 156/127/161 157/119/161
f 125/144/161 120/152/161 152/152/161
f 140/127/161 135/135/161 155/135/161
f 115/160/161 151/160/161 152/152/161
f 135/135/161 130/167/161 154/167/161
f 114/110/161 150/110/161 151/160/161
f 145/119/161 157/119/161 150/110/161
f 130/169/161 125/144/161 153/144/161
f 184/174/165 182/175/209 162/175/166
f 183/176/168 159/176/211 158/177/169
f 185/178/170 158/178/169 163/179/171
f 184/180/165 161/180/167 160/181/173
f 180/182/162 186/183/162 163/183/162
f 181/184/164 187/185/212 160/185/164
f 155/186/175 169/186/186 170/187/176
f 150/188/177 157/189/187 171/189/178
f 151/190/180 150/188/177 164/188/179
f 152/191/182 166/191/182 167/192/183
f 154/193/185 168/193/188 169/186/186
f 157/189/187 156/187/176 170/187/176
f 152/191/182 151/190/180 165/190/181
f 153/192/184 167/192/183 168/194/188
f 129/185/189 179/185/196 175/184/190
f 144/182/192 149/183/197 178/183/193
f 134/180/195 176/180/202 179/181/196
f 149/179/197 110/178/199 177/178/198
f 110/177/199 119/176/203 174/176/200
f 139/175/201 172/175/204 176/174/202
f 119/172/203 124/173/191 175/173/190
f 144/171/192 173/171/194 172/170/204
f 175/184/205 179/185/196 187/185/174
f 173/182/207 178/183/193 186/183/172
f 179/181/196 176/180/202 184/180/165
f 178/179/193 177/178/198 185/178/170
f 174/176/200 183/176/168 185/177/170
f 172/175/204 182/175/209 184/174/165
f 175/173/205 181/173/206 183/172/168
f 173/171/207 180/171/208 182/170/209
f 158/178/210 161/174/210 162/182/210
f 161/174/210 158/177/210 159/184/210
