# Blender 5.1.2
# www.blender.org
mtllib tunnel_pole.mtl
o PoleTunnel
g tunnel_pole
v -0.380000 7.243035 0.049580
v -0.400000 7.243035 0.029580
v -0.400000 7.415119 0.029580
v -0.380000 7.415119 0.049580
v -0.400000 7.243035 -0.030420
v -0.380000 7.243035 -0.050420
v -0.380000 7.415119 -0.050420
v -0.400000 7.415119 -0.030420
v -0.200000 7.243035 0.029580
v -0.220000 7.243035 0.049580
v -0.220000 7.415119 0.049580
v -0.200000 7.415119 0.029580
v -0.220000 7.243035 -0.050420
v -0.200000 7.243035 -0.030420
v -0.200000 7.415119 -0.030420
v -0.220000 7.415119 -0.050420
vn -0.7071 -0.0000 0.7071
vn -0.7071 -0.0000 -0.7071
vn 0.7071 -0.0000 -0.7071
vn 0.7071 -0.0000 0.7071
vn -1.0000 -0.0000 -0.0000
vn -0.0000 -0.0000 1.0000
vn -0.0000 -1.0000 -0.0000
vn -0.0000 -0.0000 -1.0000
vn 1.0000 -0.0000 -0.0000
vt 0.007733 0.311901
vt 0.156398 0.287466
vt 0.156398 0.311901
vt 0.156398 0.689056
vt 0.007733 0.713491
vt 0.007733 0.689056
vt 0.156398 0.526396
vt 0.007733 0.550831
vt 0.007733 0.526396
vt 0.156398 0.450126
vt 0.007733 0.474561
vt 0.007733 0.450126
vt 0.007733 0.235631
vt 0.156398 0.235631
vt 0.225511 0.467404
vt 0.173676 0.294622
vt 0.156398 0.550831
vt 0.156398 0.474561
vt 0.007733 0.287466
vt 0.156398 0.713491
vt 0.225511 0.294623
vt 0.242789 0.311901
vt 0.242789 0.450126
vt 0.173676 0.467404
s 0
usemtl Catenary
f 4/1/1 2/2/1 1/3/1
f 6/4/2 8/5/2 7/6/2
f 14/7/3 16/8/3 15/9/3
f 10/10/4 12/11/4 11/12/4
f 2/2/5 8/13/5 5/14/5
f 11/12/6 1/3/6 10/10/6
f 14/15/7 10/10/7 2/16/7
f 7/6/8 13/17/8 6/4/8
f 15/9/9 9/18/9 14/7/9
f 4/1/1 3/19/1 2/2/1
f 6/4/2 5/20/2 8/5/2
f 14/7/3 13/17/3 16/8/3
f 10/10/4 9/18/4 12/11/4
f 2/2/5 3/19/5 8/13/5
f 11/12/6 4/1/6 1/3/6
f 2/16/7 5/21/7 6/22/7
f 6/22/7 13/23/7 14/15/7
f 14/15/7 9/24/7 10/10/7
f 10/10/7 1/3/7 2/16/7
f 2/16/7 6/22/7 14/15/7
f 7/6/8 16/8/8 13/17/8
f 15/9/9 12/11/9 9/18/9
o TunnelAngledInsulator.005
v -2.058620 6.616644 0.011720
v -2.060932 6.608500 0.008214
v -2.061890 6.605127 -0.000252
v -2.060932 6.608500 -0.008718
v -2.058620 6.616644 -0.012225
v -2.056308 6.624788 -0.008718
v -2.055350 6.628161 -0.000252
v -2.056308 6.624788 0.008214
v -2.203264 6.657848 0.011720
v -2.205576 6.649704 0.008214
v -2.206533 6.646330 -0.000252
v -2.205575 6.649704 -0.008718
v -2.203264 6.657848 -0.012225
v -2.200952 6.665992 -0.008718
v -2.199994 6.669365 -0.000252
v -2.200952 6.665992 0.008214
vn 0.2740 0.9617 -0.0000
vn 0.1938 0.6802 -0.7070
vn 0.1937 0.6799 0.7072
vn 0.0001 0.0002 1.0000
vn -0.0001 -0.0002 1.0000
vn -0.1937 -0.6799 0.7072
vn -0.1938 -0.6802 0.7070
vn -0.1938 -0.6802 -0.7070
vn -0.2740 -0.9617 -0.0000
vn -0.1937 -0.6799 -0.7072
vn 0.1937 0.6799 -0.7072
vn 0.0001 0.0002 -1.0000
vn 0.1938 0.6802 0.7070
vn -0.0001 -0.0002 -1.0000
vt 0.976600 0.005529
vt 0.977467 0.004841
vt 0.976031 0.006477
vt 0.975833 0.007566
vt 0.976031 0.008654
vt 0.977467 0.010290
vt 0.976600 0.009603
vt 0.978520 0.004503
vt 0.978520 0.010628
s 1
usemtl Catenary
f 23/25/10 30/26/11 31/25/10
f 24/27/12 25/28/13 17/28/14
f 17/28/14 26/29/15 18/29/16
f 20/30/17 27/31/18 28/30/19
f 22/26/20 29/32/21 30/26/11
f 23/25/10 32/27/22 24/27/12
f 18/29/16 27/31/18 19/31/18
f 21/33/23 28/30/19 29/33/21
f 23/25/10 22/26/20 30/26/11
f 24/27/12 32/27/22 25/28/13
f 17/28/14 25/28/13 26/29/15
f 20/30/17 19/31/18 27/31/18
f 22/26/20 21/32/23 29/32/21
f 23/25/10 31/25/10 32/27/22
f 18/29/16 26/29/15 27/31/18
f 21/33/23 20/30/17 28/30/19
