# Blender 5.1.2
# www.blender.org
mtllib tunnel_inner_single.mtl
o TunnelArmInnerSingle
g tunnel_inner_single
v -0.309101 6.000000 0.006696
v -1.007003 6.301972 0.006697
v -0.650101 6.200000 0.006696
v -0.291098 6.019967 0.006696
v -1.000101 6.329857 0.006697
v -0.634452 6.223782 0.006696
v -0.291098 6.000000 0.006696
v -0.650101 6.200000 0.002696
v -1.007003 6.301972 0.002697
v -0.309101 6.000000 0.002696
v -0.634452 6.223782 0.002696
v -1.000101 6.329857 0.002697
v -0.291098 6.019967 0.002696
v -0.291098 6.000000 0.002696
vn -0.0000 -0.0000 1.0000
vn -0.0000 -0.0000 -1.0000
vn 0.5104 0.8599 -0.0000
vn -0.5059 -0.8626 -0.0000
vn -0.9707 0.2402 -0.0000
vn 0.2786 0.9604 -0.0000
vn -0.2747 -0.9615 -0.0000
vn 1.0000 -0.0000 -0.0000
vt 0.977026 0.007582
vt 0.969833 0.009091
vt 0.976724 0.007123
vt 0.969967 0.009630
vt 0.983656 0.003647
vt 0.983308 0.003261
vt 0.983656 0.003261
s 1
usemtl Catenary
f 6/1/1 2/2/1 3/3/1
f 8/3/2 12/4/2 11/1/2
f 13/5/3 6/1/3 4/5/3
f 8/3/4 1/6/4 3/3/4
f 12/4/5 2/2/5 5/4/5
f 11/1/6 5/4/6 6/1/6
f 9/2/7 3/3/7 2/2/7
f 14/7/8 4/5/8 7/7/8
f 3/3/1 1/6/1 7/7/1
f 7/7/1 4/5/1 6/1/1
f 6/1/1 5/4/1 2/2/1
f 3/3/1 7/7/1 6/1/1
f 11/1/2 13/5/2 14/7/2
f 14/7/2 10/6/2 8/3/2
f 8/3/2 9/2/2 12/4/2
f 11/1/2 14/7/2 8/3/2
f 13/5/3 11/1/3 6/1/3
f 8/3/4 10/6/4 1/6/4
f 12/4/5 9/2/5 2/2/5
f 11/1/6 12/4/6 5/4/6
f 9/2/7 8/3/7 3/3/7
f 14/7/8 13/5/8 4/5/8
o TunnelAngledInsulator.001
v -1.087870 6.340733 0.008746
v -1.102089 6.344838 0.102362
v -1.175223 6.365601 0.022523
v -1.184545 6.368248 0.102362
v -1.257679 6.389010 0.038935
v -1.265246 6.362355 0.027457
v -1.203857 6.300225 0.073072
v -1.179277 6.351322 0.016375
v -1.121401 6.276816 0.073072
v -1.089608 6.334612 0.006110
v -1.268381 6.351314 -0.000252
v -1.211856 6.272049 0.002362
v -1.180956 6.345407 0.001531
v -1.129400 6.248640 0.002362
v -1.090328 6.332077 -0.000252
v -1.265246 6.362355 -0.027961
v -1.203857 6.300225 -0.068349
v -1.179058 6.352095 -0.014596
v -1.121401 6.276816 -0.068349
v -1.089608 6.334612 -0.006614
v -1.257679 6.389010 -0.039439
v -1.184545 6.368248 -0.097638
v -1.175223 6.365601 -0.020487
v -1.102089 6.344838 -0.097638
v -1.087870 6.340733 -0.009250
v -1.250111 6.415667 -0.027961
v -1.165233 6.436270 -0.068349
v -1.171389 6.379107 -0.014596
v -1.082778 6.412861 -0.068349
v -1.086133 6.346853 -0.006614
v -1.246976 6.426708 -0.000252
v -1.157234 6.464446 0.002362
v -1.169490 6.385795 0.001531
v -1.074778 6.441037 0.002362
v -1.085413 6.349388 -0.000252
v -1.250111 6.415667 0.027457
v -1.165233 6.436270 0.073072
v -1.171170 6.379880 0.016375
v -1.082778 6.412861 0.073072
v -1.086133 6.346853 0.006110
v -1.257650 6.389111 0.011720
v -1.259962 6.380967 0.008214
v -1.260920 6.377594 -0.000252
v -1.259962 6.380967 -0.008718
v -1.257650 6.389111 -0.012224
v -1.255338 6.397254 -0.008718
v -1.254381 6.400628 -0.000252
v -1.255338 6.397254 0.008214
v -0.948355 6.301192 0.003614
v -0.950184 6.294751 0.002482
v -0.950184 6.294751 -0.002986
v -0.948355 6.301192 -0.004118
v -0.946526 6.307634 -0.002986
v -0.946526 6.307634 0.002482
v -2.058691 6.616667 0.011720
v -2.061003 6.608523 0.008214
v -2.061960 6.605149 -0.000252
v -2.061003 6.608523 -0.008718
v -2.058691 6.616667 -0.012224
v -2.056379 6.624811 -0.008718
v -2.055421 6.628184 -0.000252
v -2.056379 6.624811 0.008214
v -1.026890 6.330034 -0.006614
v -1.026170 6.332569 -0.000252
v -1.030365 6.317792 0.006110
v -1.031085 6.315258 -0.000252
v -1.028627 6.323913 -0.009250
v -1.028627 6.323913 0.008746
v -1.026890 6.330034 0.006110
v -1.030365 6.317792 -0.006614
v -1.025125 6.329949 -0.000252
v -1.028783 6.317065 -0.000252
v -1.025125 6.329949 -0.002986
v -1.028783 6.317065 0.002482
v -1.026954 6.323507 -0.004118
v -1.026954 6.323507 0.003614
v -1.025125 6.329949 0.002482
v -1.028783 6.317065 -0.002986
vn 0.9803 -0.1631 0.1116
vn 0.9502 -0.2698 0.1562
vn 0.9806 -0.1619 0.1105
vn -0.5624 0.6668 0.4889
vn -0.6967 0.1978 0.6896
vn 0.9782 -0.1890 0.0856
vn 0.9550 -0.2711 0.1205
vn 0.9783 -0.1887 0.0852
vn -0.4634 0.6966 0.5477
vn -0.6163 0.1750 0.7679
vn 0.9933 -0.1153 0.0008
vn 0.9933 -0.1152 -0.0017
vn -0.5038 0.8638 0.0010
vn -0.5620 0.6682 0.4875
vn 0.9881 -0.1540 0.0002
vn 0.9880 -0.1544 -0.0010
vn -0.3877 0.9218 0.0042
vn -0.4619 0.7017 0.5424
vn 0.9807 -0.1577 -0.1153
vn 0.9804 -0.1590 -0.1167
vn -0.5535 0.6719 -0.4921
vn -0.5058 0.8626 -0.0052
vn 0.9786 -0.1868 -0.0869
vn 0.9780 -0.1886 -0.0888
vn -0.4364 0.7069 -0.5566
vn -0.3875 0.9219 -0.0066
vn 0.9488 -0.2693 -0.1651
vn 0.9488 -0.2694 -0.1651
vn -0.6855 0.1946 -0.7016
vn -0.5555 0.6642 -0.5003
vn 0.9545 -0.2710 -0.1245
vn 0.9545 -0.2710 -0.1246
vn -0.5848 0.1660 -0.7940
vn -0.4378 0.7017 -0.5621
vn 0.9176 -0.3800 -0.1167
vn -0.8216 -0.2732 -0.5003
vn -0.8240 -0.2808 -0.4921
vn 0.9312 -0.3534 -0.0888
vn -0.7412 -0.3669 -0.5621
vn -0.7428 -0.3721 -0.5566
vn 0.9056 -0.4241 -0.0017
vn 0.9172 -0.3813 -0.1154
vn -0.8836 -0.4682 -0.0052
vn -0.8826 -0.4702 0.0010
vn 0.9218 -0.3878 -0.0010
vn 0.9307 -0.3552 -0.0869
vn -0.8141 -0.5807 -0.0066
vn -0.8142 -0.5805 0.0042
vn 0.9193 -0.3777 0.1105
vn 0.9056 -0.4241 0.0008
vn -0.8293 -0.2732 0.4875
vn -0.8289 -0.2718 0.4889
vn 0.9315 -0.3535 0.0852
vn 0.9216 -0.3882 0.0002
vn -0.7617 -0.3544 0.5424
vn -0.7603 -0.3492 0.5477
vn 0.9197 -0.3764 0.1118
vn 0.9316 -0.3532 0.0856
vn 0.9502 -0.2697 0.1562
vn -0.6852 0.1945 -0.7019
vn -0.9620 0.2731 -0.0000
vn 0.2731 0.9620 -0.0000
vn -0.2731 -0.9620 0.0003
vn -0.2731 -0.9620 -0.0000
vn 0.5733 -0.1619 -0.8031
vn 0.0455 0.1604 -0.9860
vn -0.0000 -0.0000 -1.0000
vn 0.4693 -0.6621 0.5844
vn -0.0000 -0.0000 1.0000
vn 0.5733 -0.1619 0.8031
vn 0.0455 0.1604 0.9860
vn 0.7294 0.3425 0.5922
vn -0.0455 -0.1604 -0.9860
vn 0.4693 -0.6621 -0.5844
vn 0.2733 0.9619 -0.0000
vn 0.1932 0.6802 -0.7071
vn 0.1932 0.6802 0.7071
vn -0.1932 -0.6802 0.7071
vn -0.1932 -0.6802 -0.7071
vn -0.2733 -0.9619 -0.0000
vn 0.2910 -0.6923 -0.6603
vn 0.1931 0.6802 0.7071
vn -0.1931 -0.6802 -0.7071
vn 0.6089 0.4360 0.6627
vn -0.1931 -0.6802 0.7071
vn 0.5047 -0.1437 0.8513
vn 0.1931 0.6802 -0.7071
vn 0.5047 -0.1437 -0.8513
vn 0.2910 -0.6923 0.6603
vn 0.6089 0.4360 -0.6627
vn 0.5109 -0.8596 -0.0000
vn 0.6176 -0.7865 -0.0000
vn 0.8700 0.4930 -0.0000
vn 0.9289 0.3703 -0.0000
vn 0.7294 0.3425 -0.5922
vn 0.9620 -0.2731 -0.0000
vn -0.0455 -0.1604 0.9860
vn -0.2731 -0.9620 -0.0003
vt 0.959703 0.009387
vt 0.960882 0.008099
vt 0.960684 0.009187
vt 0.957954 0.007566
vt 0.960035 0.007566
vt 0.962915 0.005744
vt 0.961736 0.007033
vt 0.961934 0.005945
vt 0.964664 0.007566
vt 0.962584 0.007566
vt 0.958751 0.010974
vt 0.960309 0.010184
vt 0.959740 0.011133
vt 0.957756 0.008654
vt 0.963867 0.004157
vt 0.962309 0.004947
vt 0.962878 0.003998
vt 0.964862 0.006477
vt 0.957301 0.012125
vt 0.959037 0.011934
vt 0.958171 0.012621
vt 0.957187 0.009603
vt 0.965317 0.003006
vt 0.963581 0.003197
vt 0.964447 0.002510
vt 0.965431 0.005529
vt 0.955539 0.012691
vt 0.957231 0.013124
vt 0.956177 0.013462
vt 0.956321 0.010290
vt 0.967079 0.002440
vt 0.965388 0.002008
vt 0.966441 0.001669
vt 0.966297 0.004841
vt 0.957231 0.002008
vt 0.955539 0.002440
vt 0.956177 0.001669
vt 0.956321 0.004841
vt 0.957301 0.003006
vt 0.965388 0.013124
vt 0.967079 0.012691
vt 0.966441 0.013462
vt 0.966297 0.010290
vt 0.965317 0.012125
vt 0.959037 0.003197
vt 0.958171 0.002510
vt 0.957187 0.005529
vt 0.958751 0.004157
vt 0.963581 0.011934
vt 0.964447 0.012621
vt 0.965431 0.009603
vt 0.963867 0.010974
vt 0.960309 0.004947
vt 0.959740 0.003998
vt 0.957756 0.006477
vt 0.959703 0.005744
vt 0.962309 0.010184
vt 0.962878 0.011133
vt 0.964862 0.008654
vt 0.962915 0.009387
vt 0.960882 0.007033
vt 0.960684 0.005945
vt 0.961736 0.008099
vt 0.961934 0.009187
vt 0.955268 0.010628
vt 0.967350 0.004503
vt 0.955268 0.004503
vt 0.967350 0.010628
vt 0.974174 0.011647
vt 0.974914 0.011060
vt 0.976000 0.005093
vt 0.975514 0.004283
vt 0.972472 0.012365
vt 0.973371 0.012076
vt 0.976321 0.005945
vt 0.976490 0.006874
vt 0.976490 0.007784
vt 0.976321 0.008714
vt 0.972472 0.002294
vt 0.973371 0.002583
vt 0.975514 0.010376
vt 0.976000 0.009566
vt 0.974914 0.003599
vt 0.974174 0.003012
vt 0.976600 0.005529
vt 0.977467 0.004841
vt 0.976031 0.006477
vt 0.975833 0.007566
vt 0.976031 0.008654
vt 0.977467 0.010290
vt 0.976600 0.009603
vt 0.978520 0.004503
vt 0.978520 0.010628
s 1
usemtl Catenary
f 53/8/9 15/9/10 54/10/11
f 53/8/12 17/11/13 16/12/13
f 51/13/14 17/14/15 52/15/16
f 51/13/17 19/16/18 18/17/18
f 48/18/19 54/19/11 49/20/20
f 48/18/21 52/21/22 53/8/12
f 46/22/23 52/23/16 47/24/24
f 46/22/25 50/25/26 51/13/17
f 43/26/27 49/27/20 44/28/28
f 43/26/29 47/29/30 48/18/21
f 41/30/31 47/31/24 42/32/32
f 41/30/33 45/33/34 46/22/25
f 38/34/35 44/35/28 39/36/36
f 38/34/37 42/37/38 43/26/29
f 36/38/39 42/39/32 37/40/40
f 36/38/41 40/41/42 41/30/33
f 34/42/43 38/43/35 39/44/36
f 32/45/44 38/43/37 33/46/45
f 32/47/46 36/48/39 37/49/40
f 30/50/47 36/48/41 31/51/48
f 29/52/49 33/46/50 34/53/43
f 27/54/51 33/46/45 28/55/52
f 27/56/53 31/51/54 32/57/46
f 25/58/55 31/51/48 26/59/56
f 24/60/57 28/55/58 29/61/49
f 22/62/59 28/55/52 23/63/60
f 22/64/61 26/59/62 27/65/53
f 20/66/63 26/59/56 21/67/64
f 15/68/10 23/63/65 24/69/57
f 17/11/13 23/63/60 16/12/13
f 17/70/15 21/67/66 22/71/61
f 19/16/18 21/67/64 18/17/18
f 53/8/9 16/12/67 15/9/10
f 53/8/12 52/21/22 17/11/13
f 51/13/14 18/17/15 17/14/15
f 51/13/17 50/25/26 19/16/18
f 48/18/19 53/8/9 54/19/11
f 48/18/21 47/29/30 52/21/22
f 46/22/23 51/13/14 52/23/16
f 46/22/25 45/33/34 50/25/26
f 43/26/27 48/18/19 49/27/20
f 43/26/29 42/37/38 47/29/30
f 41/30/31 46/22/23 47/31/24
f 41/30/33 40/41/42 45/33/34
f 38/34/35 43/26/27 44/35/28
f 38/34/37 37/72/68 42/37/38
f 36/38/39 41/30/31 42/39/32
f 36/38/41 35/73/41 40/41/42
f 34/42/43 33/46/50 38/43/35
f 32/45/44 37/74/68 38/43/37
f 32/47/46 31/51/54 36/48/39
f 30/50/47 35/75/41 36/48/41
f 29/52/49 28/55/58 33/46/50
f 27/54/51 32/45/44 33/46/45
f 27/56/53 26/59/62 31/51/54
f 25/58/55 30/50/47 31/51/48
f 24/60/57 23/63/65 28/55/58
f 22/62/59 27/54/51 28/55/52
f 22/64/61 21/67/66 26/59/62
f 20/66/63 25/58/55 26/59/56
f 15/68/10 16/12/67 23/63/65
f 17/11/13 22/62/59 23/63/60
f 17/70/15 18/17/15 21/67/66
f 19/16/18 20/66/63 21/67/64
f 45/33/69 62/25/69 50/25/69
f 30/50/69 57/58/69 58/50/69
f 45/33/69 60/41/69 61/33/69
f 20/66/69 57/58/69 25/58/69
f 40/41/69 59/73/69 60/41/69
f 19/16/69 56/66/69 20/66/69
f 50/25/69 55/16/69 19/16/69
f 35/75/69 58/50/69 59/75/69
f 87/76/70 85/77/70 67/76/70
f 88/78/71 86/79/72 64/78/72
f 89/80/73 67/81/74 66/80/75
f 88/82/76 63/83/77 90/83/78
f 90/84/78 68/85/79 91/85/80
f 89/86/73 65/87/81 92/87/82
f 85/88/70 68/89/70 67/88/70
f 86/90/72 65/91/72 64/90/72
f 61/92/83 74/93/84 75/92/83
f 62/94/85 69/95/77 55/95/77
f 55/95/77 70/96/86 56/96/86
f 58/97/87 71/98/88 72/97/87
f 60/93/84 73/99/75 74/93/84
f 61/92/83 76/94/85 62/94/85
f 56/96/86 71/98/88 57/98/88
f 59/100/75 72/97/87 73/100/75
f 29/90/72 84/91/89 80/90/72
f 54/89/90 78/88/70 49/88/70
f 39/86/75 84/87/89 34/87/91
f 15/84/77 83/85/92 54/85/90
f 24/82/93 82/83/94 15/83/77
f 44/81/95 81/80/96 39/80/75
f 29/79/72 79/78/97 24/78/93
f 49/77/70 77/76/98 44/76/95
f 80/90/99 92/91/82 86/90/100
f 78/88/101 91/89/80 85/88/102
f 84/87/89 89/86/73 92/87/82
f 83/85/92 90/84/78 91/85/80
f 79/82/97 90/83/78 82/83/94
f 77/81/98 89/80/73 81/80/96
f 80/79/99 88/78/76 79/78/97
f 78/77/101 87/76/103 77/76/98
f 63/84/104 67/88/104 68/89/104
f 66/80/104 64/90/104 65/91/104
f 45/33/69 61/33/69 62/25/69
f 30/50/69 25/58/69 57/58/69
f 45/33/69 40/41/69 60/41/69
f 20/66/69 56/66/69 57/58/69
f 40/41/69 35/73/69 59/73/69
f 19/16/69 55/16/69 56/66/69
f 50/25/69 62/25/69 55/16/69
f 35/75/69 30/50/69 58/50/69
f 89/80/73 87/81/103 67/81/74
f 88/82/76 64/82/105 63/83/77
f 90/84/78 63/84/77 68/85/79
f 89/86/73 66/86/75 65/87/81
f 85/88/70 91/89/70 68/89/70
f 86/90/72 92/91/106 65/91/72
f 61/92/83 60/93/84 74/93/84
f 62/94/85 76/94/85 69/95/77
f 55/95/77 69/95/77 70/96/86
f 58/97/87 57/98/88 71/98/88
f 60/93/84 59/99/75 73/99/75
f 61/92/83 75/92/83 76/94/85
f 56/96/86 70/96/86 71/98/88
f 59/100/75 58/97/87 72/97/87
f 29/90/72 34/91/91 84/91/89
f 54/89/90 83/89/92 78/88/70
f 39/86/75 81/86/96 84/87/89
f 15/84/77 82/84/94 83/85/92
f 24/82/93 79/82/97 82/83/94
f 44/81/95 77/81/98 81/80/96
f 29/79/72 80/79/72 79/78/97
f 49/77/70 78/77/70 77/76/98
f 80/90/99 84/91/89 92/91/82
f 78/88/101 83/89/92 91/89/80
f 84/87/89 81/86/96 89/86/73
f 83/85/92 82/84/94 90/84/78
f 79/82/97 88/82/76 90/83/78
f 77/81/98 87/81/103 89/80/73
f 80/79/99 86/79/100 88/78/76
f 78/77/101 85/77/102 87/76/103
f 63/84/104 66/80/104 67/88/104
f 66/80/104 63/83/104 64/90/104
o TunnelVerticalInsulator.001
v -0.300000 7.039817 0.008762
v -0.300000 7.054616 0.102362
v -0.300000 7.130641 0.022523
v -0.300000 7.140331 0.102362
v -0.300000 7.216355 0.038935
v -0.327709 7.216355 0.027457
v -0.370711 7.140331 0.073072
v -0.314843 7.130641 0.016375
v -0.370711 7.054616 0.073072
v -0.306374 7.039817 0.006122
v -0.339187 7.216355 -0.000252
v -0.400000 7.140331 0.002362
v -0.320992 7.130641 0.001532
v -0.400000 7.054616 0.002362
v -0.309014 7.039817 -0.000252
v -0.327709 7.216355 -0.027961
v -0.370711 7.140331 -0.068349
v -0.314040 7.130641 -0.014596
v -0.370711 7.054616 -0.068349
v -0.306374 7.039817 -0.006626
v -0.300000 7.216355 -0.039439
v -0.300000 7.140331 -0.097638
v -0.300000 7.130641 -0.020487
v -0.300000 7.054616 -0.097638
v -0.300000 7.039817 -0.009266
v -0.272291 7.216355 -0.027961
v -0.229289 7.140331 -0.068349
v -0.285960 7.130641 -0.014596
v -0.229289 7.054616 -0.068349
v -0.293626 7.039817 -0.006626
v -0.260813 7.216355 -0.000252
v -0.200000 7.140331 0.002362
v -0.279008 7.130641 0.001532
v -0.200000 7.054616 0.002362
v -0.290986 7.039817 -0.000252
v -0.272291 7.216355 0.027457
v -0.229289 7.140331 0.073072
v -0.285157 7.130641 0.016375
v -0.229289 7.054616 0.073072
v -0.293626 7.039817 0.006122
v -0.300000 7.216355 0.018017
v -0.312918 7.216355 0.012666
v -0.318269 7.216355 -0.000252
v -0.312918 7.216355 -0.013170
v -0.300000 7.216355 -0.018521
v -0.287082 7.216355 -0.013170
v -0.281731 7.216355 -0.000252
v -0.287082 7.216355 0.012666
v -0.300000 7.334884 0.018017
v -0.312918 7.334884 0.012666
v -0.318269 7.334884 -0.000252
v -0.312918 7.334884 -0.013170
v -0.300000 7.334884 -0.018521
v -0.287082 7.334884 -0.013170
v -0.281731 7.334884 -0.000252
v -0.287082 7.334884 0.012666
v -0.300000 7.350073 -0.000252
v -0.318269 7.350073 -0.000252
v -0.281731 7.350073 -0.000252
v -0.287082 7.334884 -0.034276
v -0.281731 7.334884 -0.021358
v -0.300000 7.334884 -0.039627
v -0.312918 7.334884 -0.034276
v -0.318269 7.334884 -0.021358
v -0.287082 7.350073 -0.034276
v -0.281731 7.350073 -0.021358
v -0.300000 7.350073 -0.039627
v -0.312918 7.350073 -0.034276
v -0.318269 7.350073 -0.021358
v -0.287082 7.334884 0.034282
v -0.300000 7.334884 0.039633
v -0.281731 7.334884 0.021364
v -0.312918 7.334884 0.034282
v -0.318269 7.334884 0.021364
v -0.287082 7.350073 0.034282
v -0.300000 7.350073 0.039633
v -0.281731 7.350073 0.021364
v -0.312918 7.350073 0.034282
v -0.318269 7.350073 0.021364
v -0.300000 6.986049 0.008762
v -0.306374 6.986049 0.006122
v -0.309014 6.986049 -0.000252
v -0.306374 6.986049 -0.006626
v -0.300000 6.986049 -0.009266
v -0.293626 6.986049 -0.006626
v -0.290986 6.986049 -0.000252
v -0.293626 6.986049 0.006122
v -1.061541 6.334139 0.008735
v -1.067650 6.335958 0.006095
v -1.070181 6.336710 -0.000279
v -1.067650 6.335958 -0.006653
v -1.061541 6.334139 -0.009293
v -1.055432 6.332321 -0.006653
v -1.052902 6.331568 -0.000279
v -1.055432 6.332321 0.006095
vn 0.1109 -0.9875 0.1117
vn -0.0000 -0.9877 0.1562
vn 0.1122 -0.9875 0.1105
vn 0.4879 0.7231 0.4889
vn -0.0000 0.7242 0.6896
vn 0.0853 -0.9927 0.0856
vn -0.0000 -0.9927 0.1205
vn 0.0857 -0.9927 0.0852
vn 0.5436 0.6361 0.5477
vn -0.0000 0.6406 0.7679
vn 0.1605 -0.9870 0.0008
vn 0.1606 -0.9870 -0.0017
vn 0.6934 0.7206 0.0010
vn 0.4893 0.7231 0.4875
vn 0.1217 -0.9926 0.0002
vn 0.1213 -0.9926 -0.0010
vn 0.7808 0.6247 0.0042
vn 0.5489 0.6360 0.5424
vn 0.1162 -0.9865 -0.1154
vn 0.1149 -0.9865 -0.1167
vn 0.4952 0.7160 -0.4921
vn 0.6917 0.7222 -0.0052
vn 0.0876 -0.9924 -0.0869
vn 0.0857 -0.9924 -0.0888
vn 0.5609 0.6129 -0.5566
vn 0.7810 0.6245 -0.0066
vn -0.0000 -0.9863 -0.1652
vn -0.0000 0.7126 -0.7016
vn 0.4872 0.7158 -0.5003
vn -0.0000 -0.9922 -0.1245
vn -0.0000 -0.9922 -0.1246
vn -0.0000 0.6079 -0.7940
vn 0.5554 0.6128 -0.5621
vn -0.1149 -0.9865 -0.1167
vn -0.4872 0.7158 -0.5003
vn -0.4952 0.7160 -0.4921
vn -0.0857 -0.9924 -0.0888
vn -0.5554 0.6128 -0.5621
vn -0.5609 0.6129 -0.5566
vn -0.1606 -0.9870 -0.0017
vn -0.1162 -0.9865 -0.1154
vn -0.6917 0.7222 -0.0052
vn -0.6934 0.7206 0.0010
vn -0.1213 -0.9926 -0.0010
vn -0.0876 -0.9924 -0.0869
vn -0.7810 0.6245 -0.0066
vn -0.7808 0.6247 0.0042
vn -0.1122 -0.9875 0.1105
vn -0.1605 -0.9870 0.0008
vn -0.4893 0.7231 0.4875
vn -0.4879 0.7231 0.4889
vn -0.0857 -0.9927 0.0852
vn -0.1217 -0.9926 0.0002
vn -0.5489 0.6360 0.5424
vn -0.5436 0.6361 0.5477
vn -0.1109 -0.9875 0.1117
vn -0.0853 -0.9927 0.0856
vn -0.0000 0.7123 -0.7019
vn -0.0000 1.0000 -0.0000
vn -0.7071 -0.0000 -0.7071
vn -0.0000 -0.0000 -1.0000
vn 0.7071 -0.0000 -0.7071
vn 1.0000 -0.0000 -0.0000
vn 0.7071 -0.0000 0.7071
vn -0.0000 -0.0000 1.0000
vn -0.7071 -0.0000 0.7071
vn -1.0000 -0.0000 -0.0000
vn -0.9701 -0.2425 -0.0000
vn -0.9808 -0.0000 0.1951
vn -0.0000 -1.0000 -0.0000
vn -0.7319 -0.6657 -0.1456
vn 0.9808 -0.0000 -0.1951
vn 0.7319 -0.6657 -0.1456
vn 0.9701 -0.2425 -0.0000
vn -0.7319 -0.6657 0.1456
vn 0.7319 -0.6657 0.1456
vn -0.6494 0.7605 -0.0000
vn -0.5295 0.6205 0.5785
vn -0.4764 0.5572 0.6802
vn -0.4764 0.5572 -0.6801
vn -0.1057 0.1241 -0.9866
vn -0.5294 0.6205 -0.5785
vn 0.5782 -0.6733 -0.4609
vn 0.6512 -0.7589 -0.0000
vn 0.4486 -0.5233 -0.7245
vn 0.1956 -0.2277 0.9539
vn 0.4486 -0.5233 0.7245
vn 0.5782 -0.6733 0.4608
vn -0.1057 0.1241 0.9866
vn -0.6490 0.7608 -0.0000
vn 0.1956 -0.2276 -0.9539
vn 0.6516 -0.7586 -0.0000
vn -0.9808 -0.0000 -0.1951
vn 0.9808 -0.0000 0.1951
vt 0.959703 0.009387
vt 0.960882 0.008099
vt 0.960684 0.009187
vt 0.957954 0.007566
vt 0.960035 0.007566
vt 0.962915 0.005744
vt 0.961736 0.007033
vt 0.961934 0.005945
vt 0.964664 0.007566
vt 0.962584 0.007566
vt 0.958751 0.010974
vt 0.960309 0.010184
vt 0.959740 0.011133
vt 0.957756 0.008654
vt 0.963867 0.004157
vt 0.962309 0.004947
vt 0.962878 0.003998
vt 0.964862 0.006477
vt 0.957301 0.012125
vt 0.959037 0.011934
vt 0.958171 0.012621
vt 0.957187 0.009603
vt 0.965317 0.003006
vt 0.963581 0.003197
vt 0.964447 0.002510
vt 0.965431 0.005529
vt 0.955539 0.012691
vt 0.957231 0.013124
vt 0.956177 0.013462
vt 0.956321 0.010290
vt 0.967079 0.002440
vt 0.965388 0.002008
vt 0.966441 0.001669
vt 0.966297 0.004841
vt 0.957231 0.002008
vt 0.955539 0.002440
vt 0.956177 0.001669
vt 0.956321 0.004841
vt 0.957301 0.003006
vt 0.965388 0.013124
vt 0.967079 0.012691
vt 0.966441 0.013462
vt 0.966297 0.010290
vt 0.965317 0.012125
vt 0.959037 0.003197
vt 0.958171 0.002510
vt 0.957187 0.005529
vt 0.958751 0.004157
vt 0.963581 0.011934
vt 0.964447 0.012621
vt 0.965431 0.009603
vt 0.963867 0.010974
vt 0.960309 0.004947
vt 0.959740 0.003998
vt 0.957756 0.006477
vt 0.959703 0.005744
vt 0.962309 0.010184
vt 0.962878 0.011133
vt 0.964862 0.008654
vt 0.962915 0.009387
vt 0.960882 0.007033
vt 0.960684 0.005945
vt 0.961736 0.008099
vt 0.961934 0.009187
vt 0.955268 0.010628
vt 0.967350 0.004503
vt 0.955268 0.004503
vt 0.967350 0.010628
vt 0.981114 0.009656
vt 0.982013 0.009945
vt 0.981114 0.005003
vt 0.980374 0.005590
vt 0.979888 0.006400
vt 0.979719 0.007329
vt 0.979888 0.008259
vt 0.980374 0.009069
vt 0.982013 0.004714
vt 0.924092 -0.341471
vt 0.974914 0.011060
vt 0.974174 0.011647
vt 0.975514 0.004283
vt 0.976000 0.005093
vt 0.973371 0.012076
vt 0.972472 0.012365
vt 0.976321 0.005945
vt 0.976490 0.006874
vt 0.976490 0.007784
vt 0.976321 0.008714
vt 0.972472 0.002294
vt 0.973371 0.002583
vt 0.976000 0.009566
vt 0.975514 0.010376
vt 0.974174 0.003012
vt 0.974914 0.003599
s 1
usemtl Catenary
f 131/101/107 93/102/108 132/103/109
f 131/101/110 95/104/111 94/105/111
f 129/106/112 95/107/113 130/108/114
f 129/106/115 97/109/116 96/110/116
f 126/111/117 132/112/109 127/113/118
f 126/111/119 130/114/120 131/101/110
f 124/115/121 130/116/114 125/117/122
f 124/115/123 128/118/124 129/106/115
f 121/119/125 127/120/118 122/121/126
f 121/119/127 125/122/128 126/111/119
f 119/123/129 125/124/122 120/125/130
f 119/123/131 123/126/132 124/115/123
f 116/127/133 122/128/126 117/129/133
f 116/127/134 120/130/135 121/119/127
f 114/131/136 120/132/130 115/133/137
f 114/131/138 118/134/139 119/123/131
f 112/135/140 116/136/133 117/137/133
f 110/138/141 116/136/134 111/139/142
f 110/140/143 114/141/136 115/142/137
f 108/143/144 114/141/138 109/144/145
f 107/145/146 111/139/147 112/146/140
f 105/147/148 111/139/142 106/148/149
f 105/149/150 109/144/151 110/150/143
f 103/151/152 109/144/145 104/152/153
f 102/153/154 106/148/155 107/154/146
f 100/155/156 106/148/149 101/156/157
f 100/157/158 104/152/159 105/158/150
f 98/159/160 104/152/153 99/160/161
f 93/161/108 101/156/162 102/162/154
f 95/104/111 101/156/157 94/105/111
f 95/163/113 99/160/163 100/164/158
f 97/109/116 99/160/161 96/110/116
f 131/101/107 94/105/108 93/102/108
f 131/101/110 130/114/120 95/104/111
f 129/106/112 96/110/113 95/107/113
f 129/106/115 128/118/124 97/109/116
f 126/111/117 131/101/107 132/112/109
f 126/111/119 125/122/128 130/114/120
f 124/115/121 129/106/112 130/116/114
f 124/115/123 123/126/132 128/118/124
f 121/119/125 126/111/117 127/120/118
f 121/119/127 120/130/135 125/122/128
f 119/123/129 124/115/121 125/124/122
f 119/123/131 118/134/139 123/126/132
f 116/127/133 121/119/125 122/128/126
f 116/127/134 115/165/164 120/130/135
f 114/131/136 119/123/129 120/132/130
f 114/131/138 113/166/138 118/134/139
f 112/135/140 111/139/147 116/136/133
f 110/138/141 115/167/164 116/136/134
f 110/140/143 109/144/151 114/141/136
f 108/143/144 113/168/138 114/141/138
f 107/145/146 106/148/155 111/139/147
f 105/147/148 110/138/141 111/139/142
f 105/149/150 104/152/159 109/144/151
f 103/151/152 108/143/144 109/144/145
f 102/153/154 101/156/162 106/148/155
f 100/155/156 105/147/148 106/148/149
f 100/157/158 99/160/163 104/152/159
f 98/159/160 103/151/152 104/152/153
f 93/161/108 94/105/108 101/156/162
f 95/104/111 100/155/156 101/156/157
f 95/163/113 96/110/113 99/160/163
f 97/109/116 98/159/160 99/160/161
f 123/126/165 140/118/165 128/118/165
f 103/151/165 136/143/165 108/143/165
f 118/134/165 139/126/165 123/126/165
f 98/159/165 135/151/165 103/151/165
f 113/166/165 138/134/165 118/134/165
f 98/159/165 133/109/165 134/159/165
f 128/118/165 133/109/165 97/109/165
f 108/143/165 137/168/165 113/168/165
f 136/169/166 145/170/167 137/170/167
f 138/171/168 147/172/169 139/172/169
f 140/173/170 141/174/171 133/174/171
f 133/174/171 142/175/172 134/175/172
f 135/176/173 144/169/166 136/169/166
f 137/177/167 146/171/168 138/171/168
f 139/172/169 148/173/170 140/173/170
f 134/175/172 143/176/173 135/176/173
f 143/176/174 171/176/175 150/176/173
f 145/170/176 155/169/176 154/170/176
f 150/176/173 156/176/177 143/176/174
f 141/174/176 165/175/176 142/175/176
s 0
f 149/178/165 169/178/165 151/178/165
f 149/178/165 159/178/165 160/178/165
s 1
f 145/177/176 152/171/176 146/171/176
f 141/174/176 162/173/176 163/174/176
f 155/169/166 159/170/167 154/170/167
f 152/171/168 158/172/178 153/172/179
f 156/176/177 160/169/166 155/169/166
f 154/177/167 157/171/168 152/171/168
s 0
f 149/178/165 161/178/165 150/178/165
s 1
f 147/172/180 158/172/178 151/172/169
s 0
f 149/178/165 158/178/165 157/178/165
s 1
f 144/169/176 156/176/177 155/169/176
f 146/171/176 153/172/179 147/172/180
s 0
f 149/178/165 157/178/165 159/178/165
s 1
f 165/175/172 171/176/175 166/176/181
f 162/173/170 168/174/171 163/174/171
f 163/174/171 170/175/172 165/175/172
f 164/172/182 167/173/170 162/173/170
f 151/172/169 164/172/182 147/172/180
f 148/173/176 164/172/182 162/173/176
s 0
f 149/178/165 171/178/165 170/178/165
f 149/178/165 168/178/165 167/178/165
f 149/178/165 170/178/165 168/178/165
s 1
f 142/175/176 166/176/181 143/176/174
f 127/179/169 177/180/168 122/180/168
f 107/181/173 173/182/172 102/182/172
f 122/183/168 176/184/167 117/184/167
f 102/185/172 172/186/171 93/186/171
f 93/187/171 179/188/170 132/188/170
f 117/189/167 175/190/166 112/190/166
f 132/191/170 178/192/169 127/192/169
f 112/193/166 174/194/173 107/194/173
f 174/181/183 181/182/184 173/182/185
f 175/190/186 184/189/187 183/190/188
f 177/180/189 186/179/190 185/180/191
f 172/187/192 187/188/193 179/188/194
f 173/185/185 180/186/195 172/186/192
f 174/194/183 183/193/188 182/194/196
f 176/184/197 185/183/191 184/184/187
f 179/191/194 186/192/190 178/192/198
f 123/126/165 139/126/165 140/118/165
f 103/151/165 135/151/165 136/143/165
f 118/134/165 138/134/165 139/126/165
f 98/159/165 134/159/165 135/151/165
f 113/166/165 137/166/165 138/134/165
f 98/159/165 97/109/165 133/109/165
f 128/118/165 140/118/165 133/109/165
f 108/143/165 136/143/165 137/168/165
f 136/169/166 144/169/166 145/170/167
f 138/171/168 146/171/168 147/172/169
f 140/173/170 148/173/170 141/174/171
f 133/174/171 141/174/171 142/175/172
f 135/176/173 143/176/173 144/169/166
f 137/177/167 145/177/167 146/171/168
f 139/172/169 147/172/169 148/173/170
f 134/175/172 142/175/172 143/176/173
f 143/176/174 166/176/181 171/176/175
f 145/170/176 144/169/176 155/169/176
f 150/176/173 161/176/199 156/176/177
f 141/174/176 163/174/176 165/175/176
s 0
f 149/178/165 167/178/165 169/178/165
s 1
f 145/177/176 154/177/176 152/171/176
f 141/174/176 148/173/176 162/173/176
f 155/169/166 160/169/166 159/170/167
f 152/171/168 157/171/168 158/172/178
f 156/176/177 161/176/199 160/169/166
f 154/177/167 159/177/167 157/171/168
s 0
f 149/178/165 160/178/165 161/178/165
s 1
f 147/172/180 153/172/179 158/172/178
s 0
f 149/178/165 151/178/165 158/178/165
s 1
f 144/169/176 143/176/174 156/176/177
f 146/171/176 152/171/176 153/172/179
f 165/175/172 170/175/172 171/176/175
f 162/173/170 167/173/170 168/174/171
f 163/174/171 168/174/171 170/175/172
f 164/172/182 169/172/200 167/173/170
f 151/172/169 169/172/200 164/172/182
f 148/173/176 147/172/180 164/172/182
s 0
f 149/178/165 150/178/165 171/178/165
s 1
f 142/175/176 165/175/176 166/176/181
f 127/179/169 178/179/169 177/180/168
f 107/181/173 174/181/173 173/182/172
f 122/183/168 177/183/168 176/184/167
f 102/185/172 173/185/172 172/186/171
f 93/187/171 172/187/171 179/188/170
f 117/189/167 176/189/167 175/190/166
f 132/191/170 179/191/170 178/192/169
f 112/193/166 175/193/166 174/194/173
f 174/181/183 182/181/196 181/182/184
f 175/190/186 176/189/197 184/189/187
f 177/180/189 178/179/198 186/179/190
f 172/187/192 180/187/195 187/188/193
f 173/185/185 181/185/184 180/186/195
f 174/194/183 175/193/186 183/193/188
f 176/184/197 177/183/189 185/183/191
f 179/191/194 187/191/193 186/192/190
