# Blender 5.1.2
# www.blender.org
mtllib wire_half2_dual.mtl
o Dropper2.011
g wire_half2_dual
v -0.013605 6.001013 4.993004
v -0.000131 6.537673 4.992802
v 0.022566 6.001013 5.001462
v 0.009003 6.537673 5.001666
v -0.013335 6.001013 5.011002
v 0.000139 6.537673 5.010799
v -0.022469 6.001013 5.002138
v -0.008995 6.537673 5.001935
v -0.000131 6.199751 4.992802
v 0.000139 6.199751 5.010799
v 0.013702 6.001013 5.010596
v 0.013432 6.001013 4.992598
v 0.009003 6.199751 5.001666
v -0.008995 6.199751 5.001935
vn -0.0150 -0.0000 -0.9999
vn 0.9993 0.0346 -0.0150
vn -0.0150 -0.0153 -0.9998
vn 0.9999 -0.0000 -0.0150
vn 0.0150 -0.0153 0.9998
vn -0.0000 1.0000 -0.0000
vn 0.0150 -0.0000 0.9999
vn -0.9993 0.0344 0.0150
vn -0.9999 -0.0000 0.0150
vn -0.0000 -1.0000 -0.0000
vn 0.3616 -0.0236 0.9320
vn -0.3614 -0.0237 -0.9321
vn -0.3333 -0.0237 0.9425
vn 0.9976 0.0681 -0.0150
vn 0.3335 -0.0236 -0.9425
vn -0.9976 0.0677 0.0150
vt 0.976279 0.010611
vt 0.976275 0.004753
vt 0.976279 0.004753
vt 0.976275 0.010611
vt 0.976271 0.004753
vt 0.976271 0.010611
vt 0.976275 0.004753
vt 0.976275 0.010611
vt 0.976279 0.001308
vt 0.976275 0.001308
vt 0.976271 0.001308
vt 0.976275 0.001308
vt 0.976279 0.001308
vt 0.976271 0.001308
s 1
usemtl Catenary
f 2/1/1 13/2/2 9/3/3
f 4/4/4 10/5/5 13/2/2
f 2/1/6 6/6/6 4/4/6
f 6/6/7 14/7/8 10/5/5
f 8/8/9 9/3/3 14/7/8
f 12/9/10 3/10/10 11/11/10
f 7/12/10 1/13/10 5/14/10
f 5/14/11 9/3/3 10/5/5
f 10/5/5 12/9/12 11/11/13
f 13/2/2 11/11/13 3/10/14
f 12/9/12 13/2/2 3/10/14
f 14/7/8 1/13/15 7/12/16
f 5/14/11 14/7/8 7/12/16
f 2/1/1 4/4/4 13/2/2
f 4/4/4 6/6/7 10/5/5
f 2/1/6 8/8/6 6/6/6
f 6/6/7 8/8/9 14/7/8
f 8/8/9 2/1/1 9/3/3
f 5/14/11 1/13/15 9/3/3
f 10/5/5 9/3/3 12/9/12
f 13/2/2 10/5/5 11/11/13
f 12/9/12 9/3/3 13/2/2
f 14/7/8 9/3/3 1/13/15
f 5/14/11 10/5/5 14/7/8
o Dropper5.011
v -0.013605 6.001013 9.994802
v -0.000131 6.628192 9.994600
v 0.022566 6.001013 10.003261
v 0.009003 6.628192 10.003464
v -0.013335 6.001013 10.012800
v 0.000139 6.628192 10.012598
v -0.022469 6.001013 10.003936
v -0.008995 6.628192 10.003735
v -0.000131 6.199751 9.994600
v 0.000139 6.199751 10.012598
v 0.013702 6.001013 10.012395
v 0.013432 6.001013 9.994397
v 0.009003 6.199751 10.003464
v -0.008995 6.199751 10.003735
vn -0.0150 -0.0000 -0.9999
vn 0.9993 0.0346 -0.0150
vn -0.0150 -0.0153 -0.9998
vn 0.9999 -0.0000 -0.0150
vn 0.0150 -0.0153 0.9998
vn -0.0000 1.0000 -0.0000
vn 0.0150 -0.0000 0.9999
vn -0.9993 0.0344 0.0150
vn -0.9999 -0.0000 0.0150
vn -0.0000 -1.0000 -0.0000
vn 0.3616 -0.0236 0.9320
vn -0.3614 -0.0237 -0.9321
vn -0.3333 -0.0237 0.9425
vn 0.9976 0.0681 -0.0150
vn 0.3335 -0.0236 -0.9425
vn -0.9976 0.0677 0.0150
vt 0.983058 0.012180
vt 0.983054 0.004753
vt 0.983058 0.004753
vt 0.983054 0.012180
vt 0.983050 0.004753
vt 0.983050 0.012180
vt 0.983054 0.004753
vt 0.983054 0.012180
vt 0.983058 0.001308
vt 0.983054 0.001308
vt 0.983050 0.001308
vt 0.983054 0.001308
vt 0.983058 0.001308
vt 0.983050 0.001308
s 1
usemtl Catenary
f 16/15/17 27/16/18 23/17/19
f 18/18/20 24/19/21 27/16/18
f 16/15/22 20/20/22 18/18/22
f 20/20/23 28/21/24 24/19/21
f 22/22/25 23/17/19 28/21/24
f 26/23/26 17/24/26 25/25/26
f 21/26/26 15/27/26 19/28/26
f 19/28/27 23/17/19 24/19/21
f 24/19/21 26/23/28 25/25/29
f 26/23/28 27/16/18 17/24/30
f 28/21/24 15/27/31 21/26/32
f 19/28/27 28/21/24 21/26/32
f 27/16/18 25/25/29 17/24/30
f 16/15/17 18/18/20 27/16/18
f 18/18/20 20/20/23 24/19/21
f 16/15/22 22/22/22 20/20/22
f 20/20/23 22/22/25 28/21/24
f 22/22/25 16/15/17 23/17/19
f 19/28/27 15/27/31 23/17/19
f 24/19/21 23/17/19 26/23/28
f 26/23/28 23/17/19 27/16/18
f 28/21/24 23/17/19 15/27/31
f 19/28/27 24/19/21 28/21/24
f 27/16/18 24/19/21 25/25/29
o Dropper6.011
v -0.013605 6.001013 14.996502
v -0.000131 6.783418 14.996300
v 0.022566 6.001013 15.004960
v 0.009003 6.783418 15.005163
v -0.013335 6.001013 15.014500
v 0.000139 6.783418 15.014297
v -0.022469 6.001013 15.005635
v -0.008995 6.783418 15.005434
v -0.000131 6.199751 14.996300
v 0.000139 6.199751 15.014297
v 0.013702 6.001013 15.014094
v 0.013432 6.001013 14.996097
v 0.009003 6.199751 15.005163
v -0.008995 6.199751 15.005434
vn -0.0150 -0.0000 -0.9999
vn 0.9993 0.0346 -0.0150
vn -0.0150 -0.0153 -0.9998
vn 0.9999 -0.0000 -0.0150
vn 0.0150 -0.0153 0.9998
vn -0.0000 1.0000 -0.0000
vn 0.0150 -0.0000 0.9999
vn -0.9993 0.0344 0.0150
vn -0.9999 -0.0000 0.0150
vn -0.0000 -1.0000 -0.0000
vn 0.3616 -0.0236 0.9320
vn -0.3614 -0.0237 -0.9321
vn -0.3333 -0.0237 0.9425
vn 0.9976 0.0681 -0.0150
vn 0.3335 -0.0236 -0.9425
vn -0.9976 0.0677 0.0150
vt 0.971760 0.014870
vt 0.971756 0.004753
vt 0.971760 0.004753
vt 0.971756 0.014870
vt 0.971752 0.004753
vt 0.971752 0.014870
vt 0.971756 0.004753
vt 0.971756 0.014870
vt 0.971760 0.001308
vt 0.971756 0.001308
vt 0.971752 0.001308
vt 0.971756 0.001308
vt 0.971760 0.001308
vt 0.971752 0.001308
s 1
usemtl Catenary
f 30/29/33 41/30/34 37/31/35
f 32/32/36 38/33/37 41/30/34
f 30/29/38 34/34/38 32/32/38
f 34/34/39 42/35/40 38/33/37
f 36/36/41 37/31/35 42/35/40
f 40/37/42 31/38/42 39/39/42
f 35/40/42 29/41/42 33/42/42
f 33/42/43 37/31/35 38/33/37
f 38/33/37 40/37/44 39/39/45
f 41/30/34 39/39/45 31/38/46
f 40/37/44 41/30/34 31/38/46
f 42/35/40 29/41/47 35/40/48
f 33/42/43 42/35/40 35/40/48
f 30/29/33 32/32/36 41/30/34
f 32/32/36 34/34/39 38/33/37
f 30/29/38 36/36/38 34/34/38
f 34/34/39 36/36/41 42/35/40
f 36/36/41 30/29/33 37/31/35
f 33/42/43 29/41/47 37/31/35
f 38/33/37 37/31/35 40/37/44
f 41/30/34 38/33/37 39/39/45
f 40/37/44 37/31/35 41/30/34
f 42/35/40 37/31/35 29/41/47
f 33/42/43 38/33/37 42/35/40
o StitchDropper1.006
v -0.013605 6.001013 17.991203
v -0.000131 6.493850 17.991001
v 0.022566 6.001013 17.999662
v 0.009003 6.493850 17.999865
v -0.013335 6.001013 18.009201
v 0.000139 6.493850 18.008999
v -0.022469 6.001013 18.000338
v -0.008995 6.493850 18.000135
v -0.000131 6.199751 17.991001
v 0.000139 6.199751 18.008999
v 0.013702 6.001013 18.008795
v 0.013432 6.001013 17.990797
v 0.009003 6.199751 17.999865
v -0.008995 6.199751 18.000135
vn -0.0150 -0.0000 -0.9999
vn 0.9993 0.0346 -0.0150
vn -0.0150 -0.0153 -0.9998
vn 0.9999 -0.0000 -0.0150
vn 0.0150 -0.0153 0.9998
vn -0.0000 1.0000 -0.0000
vn 0.0150 -0.0000 0.9999
vn -0.9993 0.0344 0.0150
vn -0.9999 -0.0000 0.0150
vn -0.0000 -1.0000 -0.0000
vn 0.3616 -0.0236 0.9320
vn -0.3614 -0.0237 -0.9321
vn -0.3333 -0.0237 0.9425
vn 0.9976 0.0681 -0.0150
vn 0.3335 -0.0236 -0.9425
vn -0.9976 0.0677 0.0150
vt 0.970407 0.009851
vt 0.970403 0.004753
vt 0.970407 0.004753
vt 0.970403 0.009851
vt 0.970399 0.004753
vt 0.970399 0.009851
vt 0.970403 0.004753
vt 0.970403 0.009851
vt 0.970407 0.001308
vt 0.970403 0.001308
vt 0.970399 0.001308
vt 0.970403 0.001308
vt 0.970407 0.001308
vt 0.970399 0.001308
s 1
usemtl Catenary
f 44/43/49 55/44/50 51/45/51
f 46/46/52 52/47/53 55/44/50
f 44/43/54 48/48/54 46/46/54
f 48/48/55 56/49/56 52/47/53
f 50/50/57 51/45/51 56/49/56
f 54/51/58 45/52/58 53/53/58
f 49/54/58 43/55/58 47/56/58
f 47/56/59 51/45/51 52/47/53
f 52/47/53 54/51/60 53/53/61
f 55/44/50 53/53/61 45/52/62
f 54/51/60 55/44/50 45/52/62
f 56/49/56 43/55/63 49/54/64
f 47/56/59 56/49/56 49/54/64
f 44/43/49 46/46/52 55/44/50
f 46/46/52 48/48/55 52/47/53
f 44/43/54 50/50/54 48/48/54
f 48/48/55 50/50/57 56/49/56
f 50/50/57 44/43/49 51/45/51
f 47/56/59 43/55/63 51/45/51
f 52/47/53 51/45/51 54/51/60
f 55/44/50 52/47/53 53/53/61
f 54/51/60 51/45/51 55/44/50
f 56/49/56 51/45/51 43/55/63
f 47/56/59 52/47/53 56/49/56
o StitchWire1.006
v 0.000172 6.502542 20.007246
v 0.009171 6.493540 20.007107
v 0.000172 6.484542 20.007246
v -0.008827 6.493542 20.007381
v 0.000153 6.775814 15.005434
v 0.009152 6.766814 15.005300
v 0.000153 6.757814 15.005434
v -0.008846 6.766814 15.005569
v 0.000162 6.503176 17.999920
v 0.009161 6.494176 17.999784
v 0.000162 6.485176 17.999920
v -0.008837 6.494176 18.000055
vn 0.0004 0.9989 0.0465
vn 1.0000 -0.0003 -0.0000
vn 0.9998 -0.0207 -0.0019
vn -0.0003 -0.9990 -0.0446
vn -0.0069 -1.0000 -0.0003
vn -0.9998 -0.0200 -0.0018
vn -0.0068 1.0000 0.0003
vn -0.9991 0.0412 0.0038
vn 0.0077 0.9959 0.0907
vn 0.0058 -0.9959 -0.0907
vn 0.9992 0.0404 0.0037
vn -1.0000 -0.0001 -0.0000
vt 0.970403 0.010013
vt 0.969496 0.009846
vt 0.970403 0.009857
vt 0.970403 0.009701
vt 0.969496 0.009690
vt 0.970403 0.009857
vt 0.969496 0.010002
vt 0.971756 0.014583
vt 0.971756 0.014739
vt 0.971756 0.014427
vt 0.971756 0.014583
vt 0.969496 0.009846
s 1
usemtl Catenary
f 65/57/65 58/58/66 66/59/67
f 58/58/66 67/60/68 66/59/67
f 59/61/69 68/62/70 67/60/68
f 68/62/70 57/63/71 65/57/65
f 64/64/72 65/57/65 61/65/73
f 63/66/74 68/62/70 64/64/72
f 66/59/67 63/66/74 62/67/75
f 65/57/65 62/67/75 61/65/73
f 65/57/65 57/63/71 58/58/66
f 58/58/66 59/61/69 67/60/68
f 59/61/69 60/68/76 68/62/70
f 68/62/70 60/68/76 57/63/71
f 64/64/72 68/62/70 65/57/65
f 63/66/74 67/60/68 68/62/70
f 66/59/67 67/60/68 63/66/74
f 65/57/65 66/59/67 62/67/75
o Contact.009
v 0.017356 6.008989 -0.007509
v 0.017506 6.009011 20.006987
v 0.026355 5.999989 -0.007644
v 0.026505 6.000011 20.006851
v 0.017356 5.990989 -0.007509
v 0.017506 5.991011 20.006987
v 0.008357 5.999989 -0.007374
v 0.008507 6.000011 20.007122
v 0.017431 6.009000 -0.000261
v 0.026430 6.000000 -0.000396
v 0.017431 5.991000 -0.000261
v 0.008432 6.000000 -0.000126
vn 0.0067 1.0000 -0.0000
vn 1.0000 -0.0000 -0.0000
vn 0.0067 -1.0000 -0.0000
vn 0.0150 -0.0000 0.9999
vn -0.0067 -1.0000 -0.0000
vn -1.0000 -0.0000 -0.0000
vn -0.0067 1.0000 -0.0000
vn -0.0150 -0.0000 -0.9999
vt 0.993085 0.003062
vt 0.988422 0.002978
vt 0.993085 0.002978
vt 0.993085 0.002895
vt 0.988422 0.003062
vt 0.988422 0.002895
vt 0.993085 0.002978
vt 0.997748 0.003062
vt 0.997748 0.002895
vt 0.997748 0.002978
vt 0.988422 0.002978
vt 0.997748 0.002978
s 1
usemtl Catenary
f 77/69/77 72/70/78 78/71/78
f 72/70/78 79/72/79 78/71/78
f 70/73/80 74/74/80 72/70/80
f 74/74/81 80/75/82 79/72/79
f 80/75/82 70/73/83 77/69/77
f 69/76/84 73/77/84 75/78/84
f 77/69/77 70/73/83 72/70/78
f 72/70/78 74/74/81 79/72/79
f 70/73/80 76/79/80 74/74/80
f 74/74/81 76/79/82 80/75/82
f 80/75/82 76/79/82 70/73/83
f 69/76/84 71/80/84 73/77/84
o Messenger.015
v 0.000172 6.995421 20.007246
v 0.009171 6.986421 20.007111
v 0.000172 6.977421 20.007246
v -0.008827 6.986421 20.007381
v 0.000097 6.445485 -0.000002
v 0.009096 6.436485 -0.000137
v 0.000097 6.427485 -0.000002
v -0.008902 6.436485 0.000133
v 0.000134 6.636966 10.003622
v 0.009133 6.627966 10.003488
v 0.000134 6.618966 10.003622
v -0.008865 6.627966 10.003757
v 0.000153 6.792818 15.005434
v 0.009114 6.537566 5.001675
v 0.000116 6.528566 5.001810
v -0.008883 6.537566 5.001945
v 0.000116 6.546566 5.001810
v 0.009152 6.783818 15.005300
v 0.000153 6.774817 15.005435
v -0.008846 6.783818 15.005569
vn 0.0150 -0.0000 0.9999
vn -1.0000 -0.0031 0.0002
vn -0.0001 0.9998 -0.0191
vn -1.0000 0.0003 -0.0000
vn 0.0002 -0.9997 0.0245
vn 0.0001 -0.9998 0.0191
vn 1.0000 0.0006 -0.0000
vn 1.0000 -0.0028 0.0001
vn 0.0065 0.9998 -0.0202
vn 1.0000 -0.0090 0.0002
vn 0.0070 -0.9998 0.0202
vn -1.0000 -0.0092 0.0002
vn -1.0000 -0.0024 0.0002
vn -0.0002 0.9997 -0.0247
vn 0.0003 -0.9994 0.0357
vn 1.0000 -0.0018 0.0001
vn -0.0003 0.9994 -0.0359
vn 0.9998 0.0184 -0.0007
vn -0.0063 -0.9992 0.0405
vn -0.9998 0.0180 -0.0007
vn -0.0072 0.9992 -0.0405
vt 0.988422 0.012220
vt 0.988422 0.012053
vt 0.988422 0.012137
vt 0.990754 0.008809
vt 0.991919 0.008053
vt 0.991919 0.007969
vt 0.990754 0.008725
vt 0.991919 0.007886
vt 0.991919 0.007969
vt 0.990754 0.008809
vt 0.993085 0.007648
vt 0.993085 0.007564
vt 0.993085 0.007480
vt 0.989588 0.010256
vt 0.990754 0.008892
vt 0.989588 0.010172
vt 0.989588 0.010339
vt 0.988422 0.012137
s 1
usemtl Catenary
f 81/81/85 83/82/85 82/83/85
f 92/84/86 97/85/87 96/86/88
f 91/87/89 96/86/88 95/88/90
f 94/89/91 91/87/89 95/88/90
f 97/85/87 90/90/92 94/89/91
f 85/91/93 94/89/91 86/92/94
f 86/92/94 95/88/90 87/93/95
f 95/88/90 88/92/96 87/93/95
f 96/86/88 85/91/93 88/92/96
f 100/94/97 89/95/98 92/84/86
f 99/96/99 92/84/86 91/87/89
f 90/90/92 99/96/99 91/87/89
f 89/95/98 98/94/100 90/90/92
f 93/97/101 82/83/102 98/94/100
f 98/94/100 83/82/103 99/96/99
f 83/82/103 100/94/97 99/96/99
f 84/98/104 93/97/101 100/94/97
f 81/81/85 84/98/85 83/82/85
f 92/84/86 89/95/98 97/85/87
f 91/87/89 92/84/86 96/86/88
f 94/89/91 90/90/92 91/87/89
f 97/85/87 89/95/98 90/90/92
f 85/91/93 97/85/87 94/89/91
f 86/92/94 94/89/91 95/88/90
f 95/88/90 96/86/88 88/92/96
f 96/86/88 97/85/87 85/91/93
f 100/94/97 93/97/101 89/95/98
f 99/96/99 100/94/97 92/84/86
f 90/90/92 98/94/100 99/96/99
f 89/95/98 93/97/101 98/94/100
f 93/97/101 81/81/105 82/83/102
f 98/94/100 82/83/102 83/82/103
f 83/82/103 84/98/104 100/94/97
f 84/98/104 81/81/105 93/97/101
o Contact.010
v -0.017625 6.008989 -0.007509
v -0.017475 6.009011 20.006987
v -0.008626 5.999989 -0.007644
v -0.008476 6.000011 20.006851
v -0.017625 5.990989 -0.007509
v -0.017475 5.991011 20.006987
v -0.026624 5.999989 -0.007374
v -0.026474 6.000011 20.007122
v -0.017550 6.009000 -0.000261
v -0.008551 6.000000 -0.000396
v -0.017550 5.991000 -0.000261
v -0.026549 6.000000 -0.000126
vn 0.0067 1.0000 -0.0000
vn 1.0000 -0.0000 -0.0000
vn 0.0067 -1.0000 -0.0000
vn 0.0150 -0.0000 0.9999
vn -0.0067 -1.0000 -0.0000
vn -1.0000 -0.0000 -0.0000
vn -0.0067 1.0000 -0.0000
vn -0.0150 -0.0000 -0.9999
vt 0.993085 0.003062
vt 0.988422 0.002978
vt 0.993085 0.002978
vt 0.993085 0.002895
vt 0.988422 0.003062
vt 0.988422 0.002895
vt 0.993085 0.002978
vt 0.997748 0.003062
vt 0.997748 0.002895
vt 0.997748 0.002978
vt 0.988422 0.002978
vt 0.997748 0.002978
s 1
usemtl Catenary
f 109/99/106 104/100/107 110/101/107
f 104/100/107 111/102/108 110/101/107
f 102/103/109 106/104/109 104/100/109
f 106/104/110 112/105/111 111/102/108
f 112/105/111 102/103/112 109/99/106
f 101/106/113 105/107/113 107/108/113
f 109/99/106 102/103/112 104/100/107
f 104/100/107 106/104/110 111/102/108
f 102/103/109 108/109/109 106/104/109
f 106/104/110 108/109/111 112/105/111
f 112/105/111 108/109/111 102/103/112
f 101/106/113 103/110/113 105/107/113
