# Blender 5.1.2
# www.blender.org
mtllib wire_half_single_end.mtl
o Dropper3.013
g wire_half_single_end
v -0.000131 6.537527 4.992802
v 0.009003 6.537527 5.001666
v 0.000139 6.537527 5.010799
v -0.008995 6.537527 5.001935
v -0.000131 6.020014 4.992802
v 0.000139 6.020014 5.010799
v 0.009003 6.020014 5.001666
v -0.008995 6.020014 5.001935
vn -0.0150 -0.0000 -0.9999
vn 0.9999 -0.0000 -0.0150
vn 0.0150 -0.0000 0.9999
vn -0.0000 1.0000 -0.0000
vn -0.9999 -0.0000 0.0150
vt 0.978168 0.009692
vt 0.978163 0.001635
vt 0.978168 0.001635
vt 0.978163 0.009692
vt 0.978159 0.001635
vt 0.978159 0.009692
vt 0.978163 0.001635
vt 0.978163 0.009692
s 1
usemtl Catenary
f 1/1/1 7/2/2 5/3/1
f 2/4/2 6/5/3 7/2/2
f 1/1/4 3/6/4 2/4/4
f 3/6/3 8/7/5 6/5/3
f 4/8/5 5/3/1 8/7/5
f 1/1/1 2/4/2 7/2/2
f 2/4/2 3/6/3 6/5/3
f 1/1/4 4/8/4 3/6/4
f 3/6/3 4/8/5 8/7/5
f 4/8/5 1/1/1 5/3/1
o Dropper4.013
v -0.000131 6.627460 9.994600
v 0.009003 6.627460 10.003464
v 0.000139 6.627460 10.012598
v -0.008995 6.627460 10.003735
v -0.000131 6.020014 9.994600
v 0.000139 6.020014 10.012598
v 0.009003 6.020014 10.003464
v -0.008995 6.020014 10.003735
vn -0.0150 -0.0000 -0.9999
vn 0.9999 -0.0000 -0.0150
vn 0.0150 -0.0000 0.9999
vn -0.0000 1.0000 -0.0000
vn -0.9999 -0.0000 0.0150
vt 0.971043 0.011092
vt 0.971039 0.001635
vt 0.971043 0.001635
vt 0.971039 0.011092
vt 0.971035 0.001635
vt 0.971035 0.011092
vt 0.971039 0.001635
vt 0.971039 0.011092
s 1
usemtl Catenary
f 9/9/6 15/10/7 13/11/6
f 10/12/7 14/13/8 15/10/7
f 9/9/9 11/14/9 10/12/9
f 11/14/8 16/15/10 14/13/8
f 12/16/10 13/11/6 16/15/10
f 9/9/6 10/12/7 15/10/7
f 10/12/7 11/14/8 14/13/8
f 9/9/9 12/16/9 11/14/9
f 11/14/8 12/16/10 16/15/10
f 12/16/10 9/9/6 13/11/6
o Dropper7.013
v -0.000131 6.783311 14.996403
v 0.009003 6.783311 15.005266
v 0.000139 6.783311 15.014400
v -0.008995 6.783311 15.005537
v -0.000131 6.020014 14.996403
v 0.000139 6.020014 15.014400
v 0.009003 6.020014 15.005266
v -0.008995 6.020014 15.005537
vn -0.0150 -0.0000 -0.9999
vn 0.9999 -0.0000 -0.0150
vn 0.0150 -0.0000 0.9999
vn -0.0000 1.0000 -0.0000
vn -0.9999 -0.0000 0.0150
vt 0.982917 0.013518
vt 0.982913 0.001635
vt 0.982917 0.001635
vt 0.982913 0.013518
vt 0.982909 0.001635
vt 0.982909 0.013518
vt 0.982913 0.001635
vt 0.982913 0.013518
s 1
usemtl Catenary
f 17/17/11 23/18/12 21/19/11
f 18/20/12 22/21/13 23/18/12
f 17/17/14 19/22/14 18/20/14
f 19/22/13 24/23/15 22/21/13
f 20/24/15 21/19/11 24/23/15
f 17/17/11 18/20/12 23/18/12
f 18/20/12 19/22/13 22/21/13
f 17/17/14 20/24/14 19/22/14
f 19/22/13 20/24/15 24/23/15
f 20/24/15 17/17/11 21/19/11
o TerminationInsulator.009
v -0.000000 6.978387 19.522081
v -0.000000 7.072831 19.540356
v 0.000000 6.997821 19.657625
v 0.000000 7.078196 19.668816
v -0.000000 7.019583 19.785398
v 0.027709 7.008115 19.785877
v 0.070711 7.048933 19.670038
v 0.014843 6.991678 19.657881
v 0.070711 7.043568 19.541578
v 0.006374 6.975749 19.522192
v 0.039187 6.980430 19.787033
v 0.100000 6.978283 19.672987
v 0.020992 6.976847 19.658501
v 0.100000 6.972919 19.544529
v 0.009014 6.969381 19.522457
v 0.027709 6.952745 19.788189
v 0.070711 6.907634 19.675938
v 0.014040 6.960734 19.659174
v 0.070711 6.902269 19.547480
v 0.006374 6.963013 19.522722
v -0.000000 6.941278 19.788670
v -0.000000 6.878370 19.677160
v 0.000000 6.954848 19.659418
v -0.000000 6.873005 19.548700
v -0.000000 6.960375 19.522833
v -0.027709 6.952745 19.788189
v -0.070711 6.907634 19.675938
v -0.014040 6.960734 19.659174
v -0.070711 6.902269 19.547480
v -0.006374 6.963013 19.522722
v -0.039187 6.980430 19.787033
v -0.100000 6.978283 19.672987
v -0.020992 6.976847 19.658501
v -0.100000 6.972919 19.544529
v -0.009014 6.969381 19.522457
v -0.027709 7.008115 19.785877
v -0.070711 7.048933 19.670038
v -0.014843 6.991678 19.657881
v -0.070711 7.043568 19.541578
v -0.006374 6.975749 19.522192
v -0.000000 6.998683 19.786272
v 0.012918 6.993337 19.786495
v 0.018269 6.980430 19.787033
v 0.012918 6.967524 19.787573
v -0.000000 6.962177 19.787796
v -0.012918 6.967524 19.787573
v -0.018269 6.980430 19.787033
v -0.012918 6.993337 19.786495
v -0.000000 7.006102 19.963909
v 0.012918 7.000756 19.964132
v 0.018269 6.987849 19.964672
v 0.012918 6.974942 19.965212
v -0.000000 6.969596 19.965435
v -0.012918 6.974942 19.965212
v -0.018269 6.987849 19.964672
v -0.012918 7.000756 19.964132
v -0.012918 6.953854 19.966091
v -0.018269 6.966761 19.965553
v -0.000000 6.948508 19.966314
v 0.012918 6.953854 19.966091
v 0.018269 6.966761 19.965553
v -0.012918 6.954805 19.988855
v -0.018269 6.967711 19.988317
v -0.000000 6.949459 19.989079
v 0.012918 6.954805 19.988855
v 0.018269 6.967711 19.988317
v -0.012918 7.022353 19.963230
v -0.000000 7.027699 19.963007
v -0.018269 7.009446 19.963770
v 0.012918 7.022353 19.963230
v 0.018269 7.009446 19.963770
v -0.012918 7.023304 19.985994
v -0.000000 7.028650 19.985771
v -0.018269 7.010397 19.986534
v 0.012918 7.023304 19.985994
v 0.018269 7.010397 19.986534
vn 0.8430 0.1462 -0.5177
vn -0.0000 -0.0417 -0.9991
vn -0.1639 0.1243 -0.9786
vn -0.0000 0.1900 -0.9818
vn -0.1657 0.1225 -0.9785
vn 0.9864 -0.0069 -0.1642
vn 0.8430 0.1889 0.5037
vn -0.2370 -0.0393 -0.9707
vn -0.2371 -0.0431 -0.9705
vn -0.1269 0.0860 -0.9882
vn -0.0000 0.1379 -0.9904
vn -0.1274 0.0855 -0.9882
vn -0.8220 0.0250 0.5690
vn -0.5809 0.6022 0.5477
vn -0.5792 0.6038 0.5476
vn 0.6234 0.6356 0.4554
vn 0.8823 0.0244 0.4700
vn 0.6174 0.6416 0.4552
vn 0.8207 0.0176 0.5710
vn 0.5855 -0.5579 0.5882
vn 0.8220 0.0250 0.5690
vn 0.1803 -0.0425 -0.9827
vn 0.1301 -0.1700 -0.9768
vn 0.1273 -0.1729 -0.9767
vn -0.0000 -0.8710 0.4914
vn -0.6243 -0.6122 0.4852
vn -0.6305 -0.6060 0.4851
vn 0.6243 -0.6122 0.4852
vn 0.6305 -0.6060 0.4851
vn -0.5855 -0.5579 0.5882
vn -0.8207 0.0176 0.5710
vn -0.0000 -0.2258 -0.9742
vn -0.0000 -0.2260 -0.9741
vn -0.0000 0.8424 0.5388
vn 0.5792 0.6038 0.5476
vn -0.0000 -0.8039 0.5948
vn -0.5760 -0.5674 0.5884
vn -0.1301 -0.1700 -0.9768
vn -0.1803 -0.0425 -0.9827
vn -0.1273 -0.1729 -0.9767
vn -0.8824 0.0122 0.4703
vn -0.8823 0.0244 0.4700
vn 0.5760 -0.5674 0.5884
vn 0.1639 0.1243 -0.9786
vn 0.1657 0.1225 -0.9785
vn 0.1269 0.0860 -0.9882
vn 0.1274 0.0855 -0.9882
vn 0.8824 0.0122 0.4703
vn -0.0000 -0.2839 -0.9589
vn -0.1696 -0.2126 -0.9623
vn 0.1809 -0.0407 -0.9827
vn 0.5809 0.6022 0.5477
vn -0.1715 -0.2106 -0.9624
vn -0.0000 0.0417 0.9991
vn 0.7071 -0.7065 0.0295
vn -0.0000 -0.9991 0.0417
vn -0.7071 -0.7065 0.0295
vn -1.0000 -0.0000 -0.0000
vn -0.7071 0.7065 -0.0295
vn -0.0000 0.9991 -0.0417
vn 0.7071 0.7065 -0.0295
vn 1.0000 -0.0000 -0.0000
vn 0.8430 -0.1889 -0.5037
vn -0.8430 0.1889 0.5037
vn -0.8430 0.1462 -0.5177
vn -0.9864 -0.0069 -0.1642
vn 0.1696 -0.2126 -0.9623
vn -0.6174 0.6416 0.4552
vn -0.0000 0.8934 0.4492
vn -0.8430 -0.1462 0.5177
vn -0.8430 -0.1889 -0.5037
vn 0.2370 -0.0393 -0.9707
vn 0.2371 -0.0431 -0.9705
vn -0.1809 -0.0407 -0.9827
vn -0.6234 0.6356 0.4554
vn 0.1715 -0.2106 -0.9624
vn 0.8430 -0.1462 0.5177
vn -0.0000 -0.8042 0.5944
vt 0.974819 0.011201
vt 0.973782 0.009471
vt 0.973420 0.007486
vt 0.959078 0.009106
vt 0.959980 0.008121
vt 0.959829 0.008953
vt 0.958351 0.010320
vt 0.959541 0.009716
vt 0.959107 0.010441
vt 0.961534 0.006322
vt 0.960633 0.007306
vt 0.960784 0.006475
vt 0.957590 0.008546
vt 0.963023 0.008546
vt 0.962262 0.010320
vt 0.961534 0.009106
vt 0.957155 0.006157
vt 0.957242 0.004228
vt 0.958351 0.005108
vt 0.962043 0.011054
vt 0.963371 0.011200
vt 0.962706 0.011579
vt 0.964718 0.003795
vt 0.964120 0.005631
vt 0.963371 0.004228
vt 0.964120 0.009797
vt 0.964718 0.011632
vt 0.957242 0.011200
vt 0.957155 0.009271
vt 0.963425 0.011963
vt 0.964230 0.012222
vt 0.957741 0.007714
vt 0.959078 0.006322
vt 0.959332 0.007714
vt 0.955895 0.011632
vt 0.956493 0.009797
vt 0.962043 0.004374
vt 0.962706 0.003848
vt 0.963458 0.006157
vt 0.962262 0.005108
vt 0.956493 0.005631
vt 0.955895 0.003795
vt 0.963425 0.003464
vt 0.964230 0.003206
vt 0.959980 0.007306
vt 0.959829 0.006475
vt 0.960633 0.008121
vt 0.960784 0.008953
vt 0.963458 0.009271
vt 0.957188 0.011963
vt 0.956383 0.012222
vt 0.961071 0.009716
vt 0.961506 0.010441
vt 0.957590 0.006882
vt 0.958569 0.011054
vt 0.957907 0.011579
vt 0.964925 0.005373
vt 0.962871 0.007714
vt 0.976399 0.012455
vt 0.978320 0.013071
vt 0.976399 0.002518
vt 0.974819 0.003771
vt 0.973782 0.005502
vt 0.978320 0.001901
vt 0.957188 0.003464
vt 0.956383 0.003206
vt 0.961281 0.007714
vt 0.959541 0.005712
vt 0.959107 0.004987
vt 0.977217 0.003898
vt 0.961071 0.005712
vt 0.961506 0.004987
vt 0.963023 0.006882
vt 0.958569 0.004374
vt 0.957907 0.003848
vt 0.964925 0.010055
vt 0.955687 0.010055
vt 0.955687 0.005373
s 1
usemtl Catenary
f 95/25/16 74/26/17 73/27/17
f 63/28/18 25/29/19 64/30/20
f 75/25/21 95/25/16 100/25/22
f 58/31/23 64/32/20 59/33/24
f 61/34/25 27/35/26 62/36/27
f 58/31/28 62/37/29 63/28/30
f 30/38/31 36/39/32 31/40/33
f 37/41/34 43/42/35 38/43/36
f 37/44/37 41/45/38 42/46/39
f 46/47/40 50/48/41 51/49/42
f 40/50/43 46/51/40 41/45/44
f 53/52/45 57/53/46 58/31/28
f 42/54/39 46/51/47 47/55/48
f 27/56/49 33/57/50 26/58/49
f 48/59/51 52/60/52 53/52/45
f 51/49/53 57/61/54 52/62/55
f 51/49/42 55/63/56 56/64/57
f 42/65/58 48/66/51 43/42/35
f 46/47/47 52/67/55 47/68/48
f 25/69/19 33/57/59 34/70/60
f 27/71/26 31/40/61 32/72/62
f 35/73/63 41/45/44 36/39/32
f 48/59/64 54/74/65 49/75/64
f 32/76/62 36/39/66 37/77/37
f 32/78/67 38/43/36 33/57/50
f 53/52/68 59/79/24 54/80/65
f 69/81/69 70/48/69 50/48/69
f 65/82/69 66/38/69 30/38/69
f 68/83/70 77/84/71 69/84/71
f 70/85/72 79/86/73 71/86/73
f 72/87/74 73/27/75 65/27/75
f 65/27/75 74/26/76 66/26/76
f 67/25/77 76/83/70 68/83/70
f 69/88/71 78/85/72 70/85/72
f 71/86/73 80/87/74 72/87/74
f 66/26/76 75/25/77 67/25/77
f 63/28/30 27/56/49 26/58/49
f 77/84/17 76/83/17 85/25/78
f 98/86/79 93/86/80 79/86/81
f 44/89/82 48/66/64 49/90/64
f 61/34/83 29/82/84 28/91/84
f 84/83/70 88/84/71 83/84/71
f 81/85/72 87/86/85 82/86/86
f 85/25/78 89/83/70 84/83/70
f 83/88/71 86/85/72 81/85/72
f 34/92/60 38/43/87 39/93/88
f 98/94/79 87/94/85 100/94/22
f 94/26/76 100/25/22 95/25/16
f 91/87/74 97/27/75 92/27/75
f 92/27/75 99/26/76 94/26/76
f 93/86/80 96/87/74 91/87/74
f 56/64/89 62/95/27 57/96/54
f 56/64/57 60/97/90 61/34/83
f 39/98/88 43/42/91 44/99/82
f 29/82/84 31/40/33 28/91/84
f 80/87/17 79/86/81 93/86/80
f 93/86/80 91/87/17 73/27/17
f 91/87/17 92/27/17 73/27/17
f 92/27/17 94/26/17 73/27/17
f 94/26/17 95/25/16 73/27/17
f 95/25/16 75/25/21 74/26/17
f 73/27/17 80/87/17 93/86/80
f 63/28/18 26/58/19 25/29/19
f 100/25/22 90/25/92 75/25/21
f 90/25/92 85/25/78 75/25/21
f 58/31/23 63/28/18 64/32/20
f 61/34/25 28/91/26 27/35/26
f 58/31/28 57/53/46 62/37/29
f 30/38/31 35/73/63 36/39/32
f 37/41/34 42/65/58 43/42/35
f 37/44/37 36/39/66 41/45/38
f 46/47/40 45/81/40 50/48/41
f 40/50/43 45/100/40 46/51/40
f 53/52/45 52/60/52 57/53/46
f 42/54/39 41/45/38 46/51/47
f 27/56/49 32/78/67 33/57/50
f 48/59/51 47/101/93 52/60/52
f 51/49/53 56/64/89 57/61/54
f 51/49/42 50/48/41 55/63/56
f 42/65/58 47/102/93 48/66/51
f 46/47/47 51/49/53 52/67/55
f 25/69/19 26/58/19 33/57/59
f 27/71/26 28/91/26 31/40/61
f 35/73/63 40/50/43 41/45/44
f 48/59/64 53/52/68 54/74/65
f 32/76/62 31/40/61 36/39/66
f 32/78/67 37/41/34 38/43/36
f 53/52/68 58/31/23 59/79/24
f 50/48/69 45/100/69 69/81/69
f 45/100/69 40/50/69 69/81/69
f 40/50/69 35/73/69 67/73/69
f 40/50/69 67/73/69 68/50/69
f 60/97/69 55/63/69 71/63/69
f 55/63/69 50/48/69 71/63/69
f 71/63/69 72/97/69 60/97/69
f 40/50/69 68/50/69 69/81/69
f 70/48/69 71/63/69 50/48/69
f 30/38/69 29/82/69 65/82/69
f 29/82/69 60/97/69 65/82/69
f 60/97/69 72/97/69 65/82/69
f 66/38/69 67/73/69 35/73/69
f 66/38/69 35/73/69 30/38/69
f 68/83/70 76/83/70 77/84/71
f 70/85/72 78/85/72 79/86/73
f 72/87/74 80/87/74 73/27/75
f 65/27/75 73/27/75 74/26/76
f 67/25/77 75/25/77 76/83/70
f 69/88/71 77/88/71 78/85/72
f 71/86/73 79/86/73 80/87/74
f 66/26/76 74/26/76 75/25/77
f 63/28/30 62/37/29 27/56/49
f 82/86/86 79/86/81 78/85/17
f 82/86/86 78/85/17 77/84/17
f 83/88/17 81/85/17 77/84/17
f 81/85/17 82/86/86 77/84/17
f 85/25/78 84/83/17 77/84/17
f 84/83/17 83/88/17 77/84/17
f 76/83/17 75/25/21 85/25/78
f 82/86/86 87/86/85 79/86/81
f 87/86/85 98/86/79 79/86/81
f 44/89/82 43/42/91 48/66/64
f 61/34/83 60/97/90 29/82/84
f 84/83/70 89/83/70 88/84/71
f 81/85/72 86/85/72 87/86/85
f 85/25/78 90/25/92 89/83/70
f 83/88/71 88/88/71 86/85/72
f 34/92/60 33/57/59 38/43/87
f 86/94/69 88/94/69 89/94/69
f 89/94/69 90/94/92 86/94/69
f 90/94/92 100/94/22 87/94/85
f 86/94/69 90/94/92 87/94/85
f 100/94/22 99/94/69 97/94/69
f 97/94/69 96/94/69 100/94/22
f 96/94/69 98/94/79 100/94/22
f 94/26/76 99/26/76 100/25/22
f 91/87/74 96/87/74 97/27/75
f 92/27/75 97/27/75 99/26/76
f 93/86/80 98/86/79 96/87/74
f 56/64/89 61/34/25 62/95/27
f 56/64/57 55/63/56 60/97/90
f 39/98/88 38/43/87 43/42/91
f 29/82/84 30/38/31 31/40/33
o TerminationInsulator.010
v 0.008943 6.020125 19.513142
v 0.102524 6.020125 19.535423
v 0.022585 6.020125 19.649389
v 0.102411 6.020125 19.663994
v 0.038884 6.020125 19.777975
v 0.027407 5.992415 19.777964
v 0.073122 5.949414 19.663969
v 0.016437 6.005281 19.649384
v 0.073234 5.949414 19.535397
v 0.006303 6.013751 19.513138
v -0.000303 5.980938 19.777941
v 0.002411 5.920125 19.663906
v 0.001593 5.999133 19.649370
v 0.002524 5.920125 19.535336
v -0.000071 6.011111 19.513134
v -0.028012 5.992415 19.777916
v -0.068300 5.949414 19.663845
v -0.014534 6.006085 19.649357
v -0.068187 5.949414 19.535273
v -0.006444 6.013751 19.513128
v -0.039490 6.020125 19.777906
v -0.097589 6.020125 19.663818
v -0.020425 6.020125 19.649351
v -0.097476 6.020125 19.535248
v -0.009085 6.020125 19.513124
v -0.028012 6.047834 19.777916
v -0.068300 6.090836 19.663845
v -0.014534 6.034165 19.649357
v -0.068187 6.090836 19.535273
v -0.006444 6.026499 19.513128
v -0.000303 6.059312 19.777941
v 0.002411 6.120125 19.663906
v 0.001593 6.041117 19.649370
v 0.002524 6.120125 19.535336
v -0.000071 6.029139 19.513134
v 0.027407 6.047834 19.777964
v 0.073121 6.090836 19.663969
v 0.016437 6.034968 19.649384
v 0.073234 6.090836 19.535397
v 0.006303 6.026499 19.513138
v 0.017966 6.020125 19.777956
v 0.012615 6.007207 19.777952
v -0.000303 6.001856 19.777941
v -0.013221 6.007207 19.777929
v -0.018572 6.020125 19.777924
v -0.013221 6.033043 19.777929
v -0.000303 6.038394 19.777941
v 0.012615 6.033043 19.777952
v 0.017810 6.020125 19.955750
v 0.012460 6.007207 19.955744
v -0.000459 6.001856 19.955732
v -0.013377 6.007207 19.955723
v -0.018728 6.020125 19.955717
v -0.013377 6.033043 19.955723
v -0.000459 6.038394 19.955732
v 0.012460 6.033043 19.955744
v -0.034483 6.033043 19.955704
v -0.021565 6.038394 19.955715
v -0.039834 6.020125 19.955698
v -0.034483 6.007207 19.955704
v -0.021565 6.001856 19.955715
v -0.034503 6.033043 19.978487
v -0.021585 6.038394 19.978498
v -0.039854 6.020125 19.978483
v -0.034503 6.007207 19.978487
v -0.021585 6.001856 19.978498
v 0.034076 6.033043 19.955763
v 0.039427 6.020125 19.955769
v 0.021158 6.038394 19.955751
v 0.034076 6.007207 19.955763
v 0.021158 6.001856 19.955751
v 0.034056 6.033043 19.978548
v 0.039407 6.020125 19.978552
v 0.021138 6.038394 19.978537
v 0.034056 6.007207 19.978548
v 0.021138 6.001856 19.978537
vn 0.1681 -0.8430 -0.5110
vn 0.0009 -0.0000 -1.0000
vn 0.1659 0.1639 -0.9724
vn 0.2316 -0.0000 -0.9728
vn 0.1641 0.1657 -0.9724
vn 0.0001 -0.9864 -0.1644
vn 0.1672 -0.8430 0.5113
vn 0.0021 0.2370 -0.9715
vn -0.0017 0.2371 -0.9715
vn 0.1281 0.1269 -0.9836
vn 0.1800 -0.0000 -0.9837
vn 0.1275 0.1274 -0.9836
vn 0.0007 0.8220 0.5695
vn 0.5783 0.5809 0.5729
vn 0.5799 0.5792 0.5729
vn 0.6156 -0.6234 0.4820
vn 0.0043 -0.8823 0.4706
vn 0.6216 -0.6174 0.4822
vn -0.0067 -0.8207 0.5713
vn -0.5824 -0.5855 0.5639
vn 0.0007 -0.8220 0.5695
vn -0.0006 -0.1803 -0.9836
vn -0.1282 -0.1301 -0.9832
vn -0.1311 -0.1273 -0.9832
vn -0.8911 -0.0000 0.4538
vn -0.6323 0.6243 0.4587
vn -0.6261 0.6305 0.4588
vn -0.6323 -0.6243 0.4587
vn -0.6261 -0.6305 0.4588
vn -0.5824 0.5855 0.5639
vn -0.0067 0.8207 0.5713
vn -0.1841 -0.0000 -0.9829
vn -0.1843 -0.0000 -0.9829
vn 0.8187 -0.0000 0.5742
vn 0.5799 -0.5792 0.5729
vn -0.8285 -0.0000 0.5600
vn -0.5920 0.5760 0.5637
vn -0.1282 0.1301 -0.9832
vn -0.0006 0.1803 -0.9836
vn -0.1311 0.1273 -0.9832
vn -0.0079 0.8824 0.4704
vn 0.0043 0.8823 0.4706
vn -0.5920 -0.5760 0.5637
vn 0.1659 -0.1639 -0.9724
vn 0.1641 -0.1657 -0.9724
vn 0.1281 -0.1269 -0.9836
vn 0.1275 -0.1274 -0.9836
vn -0.0079 -0.8824 0.4704
vn -0.2428 -0.0000 -0.9701
vn -0.1714 0.1696 -0.9705
vn 0.0012 -0.1809 -0.9835
vn 0.5783 -0.5809 0.5729
vn -0.1694 0.1715 -0.9705
vn -0.0009 -0.0000 1.0000
vn -0.7071 -0.7071 -0.0006
vn -1.0000 -0.0000 -0.0009
vn -0.7071 0.7071 -0.0006
vn -0.0000 1.0000 -0.0000
vn 0.7071 0.7071 0.0006
vn 1.0000 -0.0000 0.0009
vn 0.7071 -0.7071 0.0006
vn -0.0000 -1.0000 -0.0000
vn -0.1672 -0.8430 -0.5113
vn 0.1672 0.8430 0.5113
vn 0.1681 0.8430 -0.5110
vn 0.0001 0.9864 -0.1644
vn -0.1714 -0.1696 -0.9705
vn 0.6216 0.6174 0.4822
vn 0.8735 -0.0000 0.4868
vn -0.1681 0.8430 0.5110
vn -0.1672 0.8430 -0.5113
vn 0.0021 -0.2370 -0.9715
vn -0.0017 -0.2371 -0.9715
vn 0.0012 0.1809 -0.9835
vn 0.6156 0.6234 0.4820
vn -0.1694 -0.1715 -0.9705
vn -0.1681 -0.8430 0.5110
vn -0.8287 -0.0000 0.5596
vt 0.974819 0.011201
vt 0.973782 0.009471
vt 0.973420 0.007486
vt 0.959078 0.009106
vt 0.959980 0.008121
vt 0.959829 0.008953
vt 0.958351 0.010320
vt 0.959541 0.009716
vt 0.959107 0.010441
vt 0.961534 0.006322
vt 0.960633 0.007306
vt 0.960784 0.006475
vt 0.957590 0.008546
vt 0.963023 0.008546
vt 0.962262 0.010320
vt 0.961534 0.009106
vt 0.957155 0.006157
vt 0.957242 0.004228
vt 0.958351 0.005108
vt 0.962043 0.011054
vt 0.963371 0.011200
vt 0.962706 0.011579
vt 0.964718 0.003795
vt 0.964120 0.005631
vt 0.963371 0.004228
vt 0.964120 0.009797
vt 0.964718 0.011632
vt 0.957242 0.011200
vt 0.957155 0.009271
vt 0.963425 0.011963
vt 0.964230 0.012222
vt 0.957741 0.007714
vt 0.959078 0.006322
vt 0.959332 0.007714
vt 0.955895 0.011632
vt 0.956493 0.009797
vt 0.962043 0.004374
vt 0.962706 0.003848
vt 0.963458 0.006157
vt 0.962262 0.005108
vt 0.956493 0.005631
vt 0.955895 0.003795
vt 0.963425 0.003464
vt 0.964230 0.003206
vt 0.959980 0.007306
vt 0.959829 0.006475
vt 0.960633 0.008121
vt 0.960784 0.008953
vt 0.963458 0.009271
vt 0.957188 0.011963
vt 0.956383 0.012222
vt 0.961071 0.009716
vt 0.961506 0.010441
vt 0.957590 0.006882
vt 0.958569 0.011054
vt 0.957907 0.011579
vt 0.964925 0.005373
vt 0.962871 0.007714
vt 0.976399 0.012455
vt 0.978320 0.013071
vt 0.976399 0.002518
vt 0.974819 0.003771
vt 0.973782 0.005502
vt 0.978320 0.001901
vt 0.957188 0.003464
vt 0.956383 0.003206
vt 0.961281 0.007714
vt 0.959541 0.005712
vt 0.959107 0.004987
vt 0.977217 0.003898
vt 0.961071 0.005712
vt 0.961506 0.004987
vt 0.963023 0.006882
vt 0.958569 0.004374
vt 0.957907 0.003848
vt 0.964925 0.010055
vt 0.955687 0.010055
vt 0.955687 0.005373
s 1
usemtl Catenary
f 171/103/94 150/104/95 149/105/95
f 139/106/96 101/107/97 140/108/98
f 151/103/99 171/103/94 176/103/100
f 134/109/101 140/110/98 135/111/102
f 137/112/103 103/113/104 138/114/105
f 134/109/106 138/115/107 139/106/108
f 106/116/109 112/117/110 107/118/111
f 113/119/112 119/120/113 114/121/114
f 113/122/115 117/123/116 118/124/117
f 122/125/118 126/126/119 127/127/120
f 116/128/121 122/129/118 117/123/122
f 129/130/123 133/131/124 134/109/106
f 118/132/117 122/129/125 123/133/126
f 103/134/127 109/135/128 102/136/127
f 124/137/129 128/138/130 129/130/123
f 127/127/131 133/139/132 128/140/133
f 127/127/120 131/141/134 132/142/135
f 118/143/136 124/144/129 119/120/113
f 122/125/125 128/145/133 123/146/126
f 101/147/97 109/135/137 110/148/138
f 103/149/104 107/118/139 108/150/140
f 111/151/141 117/123/122 112/117/110
f 124/137/142 130/152/143 125/153/142
f 108/154/140 112/117/144 113/155/115
f 108/156/145 114/121/114 109/135/128
f 129/130/146 135/157/102 130/158/143
f 145/159/147 146/126/147 126/126/147
f 141/160/147 142/116/147 106/116/147
f 144/161/148 153/162/149 145/162/149
f 146/163/150 155/164/151 147/164/151
f 148/165/152 149/105/153 141/105/153
f 141/105/153 150/104/154 142/104/154
f 143/103/155 152/161/148 144/161/148
f 145/166/149 154/163/150 146/163/150
f 147/164/151 156/165/152 148/165/152
f 142/104/154 151/103/155 143/103/155
f 139/106/108 103/134/127 102/136/127
f 153/162/95 152/161/95 161/103/156
f 174/164/157 169/164/158 155/164/159
f 120/167/160 124/144/142 125/168/142
f 137/112/161 105/160/162 104/169/162
f 160/161/148 164/162/149 159/162/149
f 157/163/150 163/164/163 158/164/164
f 161/103/156 165/161/148 160/161/148
f 159/166/149 162/163/150 157/163/150
f 110/170/138 114/121/165 115/171/166
f 174/172/157 163/172/163 176/172/100
f 170/104/154 176/103/100 171/103/94
f 167/165/152 173/105/153 168/105/153
f 168/105/153 175/104/154 170/104/154
f 169/164/158 172/165/152 167/165/152
f 132/142/167 138/173/105 133/174/132
f 132/142/135 136/175/168 137/112/161
f 115/176/166 119/120/169 120/177/160
f 105/160/162 107/118/111 104/169/162
f 156/165/95 155/164/159 169/164/158
f 169/164/158 167/165/95 149/105/95
f 167/165/95 168/105/95 149/105/95
f 168/105/95 170/104/95 149/105/95
f 170/104/95 171/103/94 149/105/95
f 171/103/94 151/103/99 150/104/95
f 149/105/95 156/165/95 169/164/158
f 139/106/96 102/136/97 101/107/97
f 176/103/100 166/103/170 151/103/99
f 166/103/170 161/103/156 151/103/99
f 134/109/101 139/106/96 140/110/98
f 137/112/103 104/169/104 103/113/104
f 134/109/106 133/131/124 138/115/107
f 106/116/109 111/151/141 112/117/110
f 113/119/112 118/143/136 119/120/113
f 113/122/115 112/117/144 117/123/116
f 122/125/118 121/159/118 126/126/119
f 116/128/121 121/178/118 122/129/118
f 129/130/123 128/138/130 133/131/124
f 118/132/117 117/123/116 122/129/125
f 103/134/127 108/156/145 109/135/128
f 124/137/129 123/179/171 128/138/130
f 127/127/131 132/142/167 133/139/132
f 127/127/120 126/126/119 131/141/134
f 118/143/136 123/180/171 124/144/129
f 122/125/125 127/127/131 128/145/133
f 101/147/97 102/136/97 109/135/137
f 103/149/104 104/169/104 107/118/139
f 111/151/141 116/128/121 117/123/122
f 124/137/142 129/130/146 130/152/143
f 108/154/140 107/118/139 112/117/144
f 108/156/145 113/119/112 114/121/114
f 129/130/146 134/109/101 135/157/102
f 126/126/147 121/178/147 145/159/147
f 121/178/147 116/128/147 145/159/147
f 116/128/147 111/151/147 143/151/147
f 116/128/147 143/151/147 144/128/147
f 136/175/147 131/141/147 147/141/147
f 131/141/147 126/126/147 147/141/147
f 147/141/147 148/175/147 136/175/147
f 116/128/147 144/128/147 145/159/147
f 146/126/147 147/141/147 126/126/147
f 106/116/147 105/160/147 141/160/147
f 105/160/147 136/175/147 141/160/147
f 136/175/147 148/175/147 141/160/147
f 142/116/147 143/151/147 111/151/147
f 142/116/147 111/151/147 106/116/147
f 144/161/148 152/161/148 153/162/149
f 146/163/150 154/163/150 155/164/151
f 148/165/152 156/165/152 149/105/153
f 141/105/153 149/105/153 150/104/154
f 143/103/155 151/103/155 152/161/148
f 145/166/149 153/166/149 154/163/150
f 147/164/151 155/164/151 156/165/152
f 142/104/154 150/104/154 151/103/155
f 139/106/108 138/115/107 103/134/127
f 158/164/164 155/164/159 154/163/95
f 158/164/164 154/163/95 153/162/95
f 159/166/95 157/163/95 153/162/95
f 157/163/95 158/164/164 153/162/95
f 161/103/156 160/161/95 153/162/95
f 160/161/95 159/166/95 153/162/95
f 152/161/95 151/103/99 161/103/156
f 158/164/164 163/164/163 155/164/159
f 163/164/163 174/164/157 155/164/159
f 120/167/160 119/120/169 124/144/142
f 137/112/161 136/175/168 105/160/162
f 160/161/148 165/161/148 164/162/149
f 157/163/150 162/163/150 163/164/163
f 161/103/156 166/103/170 165/161/148
f 159/166/149 164/166/149 162/163/150
f 110/170/138 109/135/137 114/121/165
f 162/172/147 164/172/147 165/172/147
f 165/172/147 166/172/170 162/172/147
f 166/172/170 176/172/100 163/172/163
f 162/172/147 166/172/170 163/172/163
f 176/172/100 175/172/147 173/172/147
f 173/172/147 172/172/147 176/172/100
f 172/172/147 174/172/157 176/172/100
f 170/104/154 175/104/154 176/103/100
f 167/165/152 172/165/152 173/105/153
f 168/105/153 173/105/153 175/104/154
f 169/164/158 174/164/157 172/165/152
f 132/142/167 137/112/103 138/173/105
f 132/142/135 131/141/134 136/175/168
f 115/176/166 114/121/165 119/120/169
f 105/160/162 106/116/109 107/118/111
o Messenger.021
v 0.000172 7.037938 21.007572
v 0.009171 7.028937 21.007437
v 0.000172 7.019938 21.007572
v -0.008827 7.028937 21.007708
v 0.000097 6.445485 -0.000002
v 0.009096 6.436485 -0.000137
v 0.000097 6.427485 -0.000002
v -0.008902 6.436485 0.000133
v 0.000134 6.636969 10.003622
v 0.009133 6.627968 10.003488
v 0.000134 6.618968 10.003622
v -0.008865 6.627968 10.003757
v 0.000153 6.792821 15.005434
v 0.009114 6.537568 5.001675
v 0.000116 6.528567 5.001810
v -0.008883 6.537568 5.001945
v 0.000116 6.546567 5.001810
v 0.009152 6.783821 15.005300
v 0.000153 6.774821 15.005434
v -0.008846 6.783821 15.005569
vn -0.0003 0.9993 -0.0361
vn 0.9998 0.0185 -0.0008
vn 1.0000 -0.0019 0.0001
vn -0.0063 -0.9991 0.0408
vn 0.0003 -0.9994 0.0359
vn 0.0150 -0.0000 0.9999
vn -1.0000 -0.0024 0.0002
vn -0.9998 0.0182 -0.0007
vn -1.0000 -0.0031 0.0002
vn -0.0001 0.9998 -0.0191
vn -1.0000 0.0003 -0.0000
vn 0.0002 -0.9997 0.0245
vn 0.0001 -0.9998 0.0191
vn 1.0000 0.0006 -0.0000
vn 1.0000 -0.0028 0.0001
vn 0.0065 0.9998 -0.0202
vn 1.0000 -0.0090 0.0002
vn 0.0070 -0.9998 0.0202
vn -1.0000 -0.0092 0.0002
vn -0.0002 0.9997 -0.0247
vn -0.0072 0.9991 -0.0408
vt 0.999930 0.013775
vt 0.996268 0.014691
vt 0.996268 0.013775
vt 0.992605 0.014691
vt 0.992605 0.013775
vt 0.988943 0.007219
vt 0.988943 0.000187
vt 0.992459 0.003703
vt 0.988943 0.013775
vt 0.988943 0.014691
vt 0.985280 0.013775
vt 0.988943 0.012859
vt 0.985280 0.011944
vt 0.988943 0.011944
vt 0.992605 0.012859
vt 0.992605 0.011944
vt 0.996268 0.011944
vt 0.999930 0.011944
vt 0.996268 0.012859
vt 0.999930 0.011028
vt 0.996268 0.011028
vt 0.992605 0.011028
vt 0.988943 0.011028
vt 0.985280 0.011028
vt 0.985280 0.012859
vt 0.999930 0.012859
vt 0.999930 0.014691
vt 0.985427 0.003703
vt 0.985280 0.014691
s 1
usemtl Catenary
f 189/181/172 178/182/173 194/183/174
f 194/183/174 179/184/175 195/185/176
f 177/186/177 179/187/177 178/188/177
f 179/184/175 196/189/178 195/185/176
f 180/190/179 189/191/172 196/189/178
f 188/192/180 193/193/181 192/194/182
f 187/195/183 192/194/182 191/196/184
f 190/197/185 187/195/183 191/196/184
f 193/198/181 186/199/186 190/197/185
f 181/200/187 190/197/185 182/201/188
f 182/201/188 191/196/184 183/202/189
f 191/196/184 184/203/190 183/202/189
f 192/194/182 181/204/187 184/203/190
f 196/189/178 185/205/191 188/192/180
f 195/185/176 188/192/180 187/195/183
f 186/199/186 195/185/176 187/195/183
f 185/206/191 194/183/174 186/199/186
f 189/181/172 177/207/192 178/182/173
f 194/183/174 178/182/173 179/184/175
f 177/186/177 180/208/177 179/187/177
f 179/184/175 180/190/179 196/189/178
f 180/190/179 177/209/192 189/191/172
f 188/192/180 185/205/191 193/193/181
f 187/195/183 188/192/180 192/194/182
f 190/197/185 186/199/186 187/195/183
f 193/198/181 185/206/191 186/199/186
f 181/200/187 193/198/181 190/197/185
f 182/201/188 190/197/185 191/196/184
f 191/196/184 192/194/182 184/203/190
f 192/194/182 193/193/181 181/204/187
f 196/189/178 189/191/172 185/205/191
f 195/185/176 196/189/178 188/192/180
f 186/199/186 194/183/174 195/185/176
f 185/206/191 189/181/172 194/183/174
o Contact.016
v 0.000000 6.029015 20.198603
v 0.009074 6.020015 20.198467
v 0.000000 6.011015 20.198603
v -0.008924 6.020015 20.198736
v 0.000000 6.028882 5.001657
v 0.009041 6.019882 5.001656
v 0.000000 6.010881 5.001617
v 0.000000 5.990999 -0.000261
v 0.009030 6.000000 -0.000259
v 0.000000 6.008999 -0.000290
v -0.008924 5.999999 -0.000276
v -0.009074 6.020015 20.198467
v 0.008924 6.020015 20.198736
v -0.009041 6.019882 5.001656
v -0.009030 6.000000 -0.000259
v 0.008924 5.999999 -0.000276
vn -0.0000 1.0000 -0.0020
vn 1.0000 -0.0000 -0.0000
vn 1.0000 0.0009 -0.0000
vn -0.0000 -1.0000 0.0020
vn -0.0000 -1.0000 -0.0000
vn 0.0149 -0.0000 0.9999
vn 0.0149 -0.0002 0.9999
vn 1.0000 -0.0011 -0.0000
vn -0.0000 -1.0000 0.0040
vn -0.0000 1.0000 -0.0040
vn 0.0009 -0.0016 -1.0000
vn 0.0009 -0.0025 -1.0000
vn -1.0000 -0.0000 -0.0000
vn -1.0000 0.0009 -0.0000
vn -0.0149 -0.0000 0.9999
vn -0.0149 0.0002 0.9999
vn -1.0000 -0.0011 -0.0000
vn -0.0009 -0.0016 -1.0000
vn -0.0009 -0.0007 -1.0000
vn -0.0000 1.0000 -0.0000
vn 0.0149 0.0002 0.9999
vn 0.0009 -0.0007 -1.0000
vn -0.0149 -0.0002 0.9999
vn -0.0009 -0.0025 -1.0000
vt 0.999930 0.011636
vt 0.996669 0.013085
vt 0.996669 0.011636
vt 0.993408 0.011636
vt 0.993408 0.013085
vt 0.993278 0.003302
vt 0.987017 0.003302
vt 0.990147 0.000171
vt 0.996669 0.011183
vt 0.993408 0.011183
vt 0.999930 0.011183
vt 0.996669 0.011183
vt 0.990147 0.006432
vt 0.999930 0.013085
s 1
usemtl Catenary
f 201/210/193 198/211/194 202/212/195
f 203/213/196 198/211/194 199/214/197
f 198/215/198 200/216/198 199/217/199
f 205/218/200 203/213/196 204/219/201
f 206/220/202 202/212/195 205/218/200
f 205/218/203 207/221/203 206/220/204
f 208/211/205 201/210/193 210/212/206
f 203/213/196 208/211/205 210/212/206
f 208/215/207 209/216/207 197/222/208
f 203/213/196 211/218/209 204/219/201
f 210/212/206 206/220/202 211/218/209
f 211/218/210 212/221/210 204/219/211
f 201/210/193 197/223/212 198/211/194
f 203/213/196 202/212/195 198/211/194
f 198/215/198 197/222/213 200/216/198
f 205/218/200 202/212/195 203/213/196
f 206/220/202 201/210/193 202/212/195
f 205/218/203 204/219/214 207/221/203
f 208/211/205 197/223/212 201/210/193
f 203/213/196 199/214/197 208/211/205
f 208/215/207 199/217/215 209/216/207
f 203/213/196 210/212/206 211/218/209
f 210/212/206 201/210/193 206/220/202
f 211/218/210 206/220/216 212/221/210
