# Blender 5.0.1
# www.blender.org
mtllib wire_quad_end.mtl
o Messenger.009
g wire_quad_end
v -0.017627 6.995409 -0.007250
v -0.017477 6.995411 40.007248
v -0.008628 6.986409 -0.007385
v -0.008478 6.986412 40.007111
v -0.017627 6.977408 -0.007250
v -0.017477 6.977412 40.007248
v -0.026626 6.986409 -0.007114
v -0.026476 6.986412 40.007381
v -0.017552 6.502918 19.999998
v -0.008553 6.493918 19.999863
v -0.017552 6.484918 19.999998
v -0.026551 6.493918 20.000134
v -0.017515 6.636961 30.003622
v -0.008590 6.627960 9.996239
v -0.017589 6.618960 9.996374
v -0.026588 6.627960 9.996510
v -0.017589 6.636960 9.996374
v -0.008516 6.627961 30.003487
v -0.017515 6.618961 30.003622
v -0.026514 6.627961 30.003757
v -0.017496 6.792810 35.005436
v -0.008609 6.783808 4.994427
v -0.017608 6.774808 4.994561
v -0.026607 6.783808 4.994697
v -0.017571 6.546563 14.998186
v -0.008534 6.537564 25.001675
v -0.017533 6.528564 25.001810
v -0.026532 6.537564 25.001945
v -0.017533 6.546564 25.001810
v -0.008572 6.537563 14.998051
v -0.017571 6.528563 14.998186
v -0.026570 6.537563 14.998322
v -0.017608 6.792808 4.994561
v -0.008497 6.783811 35.005299
v -0.017496 6.774810 35.005436
v -0.026495 6.783811 35.005569
vn 0.0150 -0.0000 0.9999
vn -0.0150 -0.0000 -0.9999
vn -1.0000 -0.0020 -0.0001
vn -0.0000 1.0000 -0.0000
vn 0.0001 0.9999 0.0134
vn -0.0000 -1.0000 -0.0000
vn -0.0001 -0.9999 -0.0134
vn 1.0000 -0.0039 -0.0000
vn 1.0000 -0.0022 -0.0001
vn 0.0002 0.9997 0.0247
vn 1.0000 -0.0024 -0.0002
vn 0.0003 0.9994 0.0359
vn 1.0000 -0.0031 -0.0002
vn -0.0003 -0.9994 -0.0357
vn -1.0000 -0.0028 -0.0001
vn -1.0000 -0.0018 -0.0001
vn -1.0000 -0.0031 0.0002
vn -0.0001 0.9999 -0.0134
vn -1.0000 -0.0022 0.0001
vn 0.0002 -0.9997 0.0245
vn 0.0001 -0.9999 0.0134
vn 1.0000 -0.0020 0.0001
vn 1.0000 -0.0028 0.0001
vn -1.0000 -0.0039 -0.0000
vn -0.9998 0.0184 0.0007
vn 0.0072 0.9992 0.0405
vn 0.0063 -0.9992 -0.0405
vn 0.9998 0.0180 0.0007
vn -0.0002 -0.9997 -0.0245
vn -0.9999 0.0139 -0.0004
vn -0.0002 0.9997 -0.0247
vn -0.0064 -0.9995 0.0311
vn 0.9999 0.0141 -0.0004
vn -0.0071 0.9995 -0.0311
vt 0.987016 0.012627
vt 0.987016 0.012439
vt 0.987016 0.012533
vt 0.997518 0.012532
vt 0.997518 0.012532
vt 0.997518 0.012627
vt 0.993580 0.007839
vt 0.992267 0.007477
vt 0.993580 0.007933
vt 0.992267 0.007289
vt 0.993580 0.007745
vt 0.992267 0.007383
vt 0.993580 0.007839
vt 0.994893 0.008879
vt 0.996205 0.010414
vt 0.996205 0.010508
vt 0.994893 0.008784
vt 0.996205 0.010320
vt 0.994892 0.008784
vt 0.996205 0.010414
vt 0.989641 0.008785
vt 0.990954 0.007934
vt 0.990954 0.007839
vt 0.989641 0.008691
vt 0.990954 0.007745
vt 0.990954 0.007839
vt 0.989641 0.008785
vt 0.992267 0.007383
vt 0.997518 0.012438
vt 0.994893 0.008690
vt 0.988329 0.010414
vt 0.989641 0.008879
vt 0.988329 0.010320
vt 0.988329 0.010414
vt 0.987016 0.012533
vt 0.988329 0.010508
s 1
usemtl Catenary
f 2/1/1 6/2/1 4/3/1
f 3/4/2 7/5/2 1/6/2
f 32/7/3 9/8/4 25/9/5
f 11/10/6 32/7/3 31/11/7
f 10/12/8 31/11/7 30/13/9
f 25/9/5 10/12/8 30/13/9
f 17/14/10 22/15/11 33/16/12
f 14/17/13 23/18/14 22/15/11
f 23/18/14 16/19/15 24/20/16
f 24/20/16 17/14/10 33/16/12
f 20/21/17 29/22/18 28/23/19
f 19/24/20 28/23/19 27/25/21
f 26/26/22 19/24/20 27/25/21
f 29/22/18 18/27/23 26/26/22
f 9/8/4 26/26/22 10/12/8
f 26/26/22 11/10/6 10/12/8
f 27/25/21 12/28/24 11/10/6
f 12/28/24 29/22/18 9/8/4
f 7/5/25 33/16/12 1/6/26
f 5/29/27 24/20/16 7/5/25
f 22/15/11 5/29/27 3/4/28
f 33/16/12 3/4/28 1/6/26
f 25/9/5 14/17/13 17/14/10
f 30/13/9 15/30/29 14/17/13
f 15/30/29 32/7/3 16/19/15
f 16/19/15 25/9/5 17/14/10
f 36/31/30 13/32/31 20/21/17
f 35/33/32 20/21/17 19/24/20
f 18/27/23 35/33/32 19/24/20
f 13/32/31 34/34/33 18/27/23
f 2/1/1 8/35/1 6/2/1
f 3/4/2 5/29/2 7/5/2
f 32/7/3 12/28/24 9/8/4
f 11/10/6 12/28/24 32/7/3
f 10/12/8 11/10/6 31/11/7
f 25/9/5 9/8/4 10/12/8
f 17/14/10 14/17/13 22/15/11
f 14/17/13 15/30/29 23/18/14
f 23/18/14 15/30/29 16/19/15
f 24/20/16 16/19/15 17/14/10
f 20/21/17 13/32/31 29/22/18
f 19/24/20 20/21/17 28/23/19
f 26/26/22 18/27/23 19/24/20
f 29/22/18 13/32/31 18/27/23
f 9/8/4 29/22/18 26/26/22
f 26/26/22 27/25/21 11/10/6
f 27/25/21 28/23/19 12/28/24
f 12/28/24 28/23/19 29/22/18
f 7/5/25 24/20/16 33/16/12
f 5/29/27 23/18/14 24/20/16
f 22/15/11 23/18/14 5/29/27
f 33/16/12 22/15/11 3/4/28
f 25/9/5 30/13/9 14/17/13
f 30/13/9 31/11/7 15/30/29
f 15/30/29 31/11/7 32/7/3
f 16/19/15 32/7/3 25/9/5
f 36/31/30 21/36/34 13/32/31
f 35/33/32 36/31/30 20/21/17
f 18/27/23 34/34/33 35/33/32
f 13/32/31 21/36/34 34/34/33
o Contact1.005
v 0.017357 6.008998 -0.007509
v 0.017507 6.029002 36.992970
v 0.026356 5.999999 -0.007645
v 0.026506 6.020002 36.992836
v 0.017357 5.990998 -0.007509
v 0.017507 6.011002 36.992970
v 0.008358 5.999999 -0.007374
v 0.008508 6.020002 36.993103
v 0.017432 6.029000 4.994560
v 0.026431 6.020000 4.994425
v 0.017432 6.011000 4.994560
v 0.008433 6.020000 4.994695
v 0.017469 6.028998 35.005199
v 0.026468 6.019998 35.005066
v 0.017469 6.010998 35.005199
v 0.008470 6.019998 35.005333
vn 0.0150 -0.0000 0.9999
vn -0.0150 -0.0000 -0.9999
vn -1.0000 -0.0018 -0.0000
vn -0.0000 1.0000 -0.0020
vn 0.0067 1.0000 -0.0040
vn -0.0000 -1.0000 0.0020
vn 0.0068 -1.0000 0.0040
vn 1.0000 0.0009 -0.0000
vn 1.0000 -0.0018 -0.0000
vn -1.0000 0.0009 -0.0000
vn -0.0068 1.0000 -0.0000
vn -0.0068 -1.0000 -0.0000
vn 1.0000 -0.0000 -0.0000
vn -1.0000 -0.0000 -0.0000
vt 0.987807 0.002522
vt 0.987807 0.002334
vt 0.987807 0.002428
vt 0.997518 0.002313
vt 0.997518 0.002124
vt 0.997518 0.002219
vt 0.996205 0.002522
vt 0.996205 0.002334
vt 0.996205 0.002428
vt 0.997518 0.002219
vt 0.996205 0.002428
vt 0.988329 0.002522
vt 0.988329 0.002334
vt 0.988329 0.002428
vt 0.988329 0.002428
s 1
usemtl Catenary
f 38/37/35 42/38/35 40/39/35
f 37/40/36 41/41/36 43/42/36
f 43/42/37 45/43/38 37/40/39
f 47/44/40 43/42/37 41/41/41
f 46/45/42 41/41/41 39/46/43
f 37/40/39 46/45/42 39/46/43
f 48/47/44 49/48/45 45/43/38
f 51/49/46 48/47/44 47/44/40
f 50/50/47 47/44/40 46/45/42
f 45/43/38 50/50/47 46/45/42
f 38/37/35 44/39/35 42/38/35
f 37/40/36 39/46/36 41/41/36
f 43/42/37 48/47/44 45/43/38
f 47/44/40 48/47/44 43/42/37
f 46/45/42 47/44/40 41/41/41
f 37/40/39 45/43/38 46/45/42
f 48/47/44 52/51/48 49/48/45
f 51/49/46 52/51/48 48/47/44
f 50/50/47 51/49/46 47/44/40
f 45/43/38 49/48/45 50/50/47
o Contact2.003
v -0.017627 6.008998 -0.006985
v -0.017477 6.029002 36.993492
v -0.008628 5.999999 -0.007120
v -0.008478 6.020002 36.993359
v -0.017627 5.990998 -0.006985
v -0.017477 6.011002 36.993492
v -0.026626 5.999999 -0.006849
v -0.026476 6.020002 36.993629
v -0.017552 6.029000 4.995085
v -0.008553 6.020000 4.994949
v -0.017552 6.011000 4.995085
v -0.026551 6.020000 4.995219
v -0.017515 6.028998 35.005722
v -0.008516 6.019998 35.005589
v -0.017515 6.010998 35.005722
v -0.026514 6.019998 35.005859
vn 0.0150 -0.0000 0.9999
vn -0.0150 -0.0000 -0.9999
vn -1.0000 -0.0018 -0.0000
vn -0.0000 1.0000 -0.0020
vn 0.0067 1.0000 -0.0040
vn -0.0000 -1.0000 0.0020
vn 0.0068 -1.0000 0.0040
vn 1.0000 0.0009 -0.0000
vn 1.0000 -0.0018 -0.0000
vn -1.0000 0.0009 -0.0000
vn -0.0068 1.0000 -0.0000
vn -0.0068 -1.0000 -0.0000
vn 1.0000 -0.0000 -0.0000
vn -1.0000 -0.0000 -0.0000
vt 0.987807 0.002522
vt 0.987807 0.002334
vt 0.987807 0.002428
vt 0.997518 0.002313
vt 0.997518 0.002124
vt 0.997518 0.002219
vt 0.996205 0.002522
vt 0.996205 0.002334
vt 0.996205 0.002428
vt 0.997518 0.002219
vt 0.996205 0.002428
vt 0.988329 0.002522
vt 0.988329 0.002334
vt 0.988329 0.002428
vt 0.988329 0.002428
s 1
usemtl Catenary
f 54/52/49 58/53/49 56/54/49
f 53/55/50 57/56/50 59/57/50
f 59/57/51 61/58/52 53/55/53
f 63/59/54 59/57/51 57/56/55
f 62/60/56 57/56/55 55/61/57
f 53/55/53 62/60/56 55/61/57
f 64/62/58 65/63/59 61/58/52
f 67/64/60 64/62/58 63/59/54
f 66/65/61 63/59/54 62/60/56
f 61/58/52 66/65/61 62/60/56
f 54/52/49 60/54/49 58/53/49
f 53/55/50 55/61/50 57/56/50
f 59/57/51 64/62/58 61/58/52
f 63/59/54 64/62/58 59/57/51
f 62/60/56 63/59/54 57/56/55
f 53/55/53 61/58/52 62/60/56
f 64/62/58 68/66/62 65/63/59
f 67/64/60 68/66/62 64/62/58
f 66/65/61 67/64/60 63/59/54
f 61/58/52 65/63/59 66/65/61
o StitchWire2.007
v -0.017724 6.502542 -0.007246
v -0.026723 6.493540 -0.007107
v -0.017724 6.484542 -0.007246
v -0.008725 6.493542 -0.007381
v -0.017703 6.775814 4.994565
v -0.026702 6.766814 4.994700
v -0.017703 6.757814 4.994565
v -0.008704 6.766814 4.994431
v -0.017714 6.503176 2.000081
v -0.026713 6.494176 2.000216
v -0.017714 6.485176 2.000081
v -0.008715 6.494176 1.999946
vn -0.0004 0.9989 -0.0465
vn -1.0000 -0.0003 -0.0000
vn -0.9998 -0.0207 0.0019
vn 0.0003 -0.9990 0.0446
vn 0.0069 -1.0000 0.0003
vn 0.9998 -0.0200 0.0018
vn 0.0068 1.0000 -0.0003
vn 0.9991 0.0412 -0.0038
vn -0.0077 0.9959 -0.0907
vn -0.0058 -0.9959 0.0907
vn -0.9992 0.0404 -0.0037
vn 1.0000 -0.0001 -0.0000
vt 0.970403 0.010013
vt 0.969496 0.009846
vt 0.970403 0.009857
vt 0.970403 0.009701
vt 0.969496 0.009690
vt 0.970403 0.009857
vt 0.969496 0.010002
vt 0.971756 0.014583
vt 0.971756 0.014739
vt 0.971756 0.014427
vt 0.971756 0.014583
vt 0.969496 0.009846
s 1
usemtl Catenary
f 77/67/63 70/68/64 78/69/65
f 70/68/64 79/70/66 78/69/65
f 71/71/67 80/72/68 79/70/66
f 80/72/68 69/73/69 77/67/63
f 76/74/70 77/67/63 73/75/71
f 75/76/72 80/72/68 76/74/70
f 78/69/65 75/76/72 74/77/73
f 77/67/63 74/77/73 73/75/71
f 77/67/63 69/73/69 70/68/64
f 70/68/64 71/71/67 79/70/66
f 71/71/67 72/78/74 80/72/68
f 80/72/68 72/78/74 69/73/69
f 76/74/70 80/72/68 77/67/63
f 75/76/72 79/70/66 80/72/68
f 78/69/65 79/70/66 75/76/72
f 77/67/63 78/69/65 74/77/73
o Messenger.010
v 0.017357 6.995409 -0.007250
v 0.017507 6.995411 40.007248
v 0.026356 6.986409 -0.007385
v 0.026506 6.986412 40.007111
v 0.017357 6.977408 -0.007250
v 0.017507 6.977412 40.007248
v 0.008358 6.986409 -0.007114
v 0.008508 6.986412 40.007381
v 0.017432 6.502918 19.999998
v 0.026431 6.493918 19.999863
v 0.017432 6.484918 19.999998
v 0.008433 6.493918 20.000134
v 0.017469 6.636961 30.003622
v 0.026394 6.627960 9.996239
v 0.017395 6.618960 9.996374
v 0.008396 6.627960 9.996510
v 0.017395 6.636960 9.996374
v 0.026468 6.627961 30.003487
v 0.017469 6.618961 30.003622
v 0.008470 6.627961 30.003757
v 0.017488 6.792810 35.005436
v 0.026375 6.783808 4.994427
v 0.017376 6.774808 4.994561
v 0.008377 6.783808 4.994697
v 0.017413 6.546563 14.998186
v 0.026450 6.537564 25.001675
v 0.017451 6.528564 25.001810
v 0.008452 6.537564 25.001945
v 0.017451 6.546564 25.001810
v 0.026412 6.537563 14.998051
v 0.017413 6.528563 14.998186
v 0.008414 6.537563 14.998322
v 0.017376 6.792808 4.994561
v 0.026487 6.783811 35.005299
v 0.017488 6.774810 35.005436
v 0.008489 6.783811 35.005569
vn 0.0150 -0.0000 0.9999
vn -0.0150 -0.0000 -0.9999
vn -1.0000 -0.0020 -0.0001
vn -0.0000 1.0000 -0.0000
vn 0.0001 0.9999 0.0134
vn -0.0000 -1.0000 -0.0000
vn -0.0001 -0.9999 -0.0134
vn 1.0000 -0.0039 -0.0000
vn 1.0000 -0.0022 -0.0001
vn 0.0002 0.9997 0.0247
vn 1.0000 -0.0024 -0.0002
vn 0.0003 0.9994 0.0359
vn 1.0000 -0.0031 -0.0002
vn -0.0003 -0.9994 -0.0357
vn -1.0000 -0.0028 -0.0001
vn -1.0000 -0.0018 -0.0001
vn -1.0000 -0.0031 0.0002
vn -0.0001 0.9999 -0.0134
vn -1.0000 -0.0022 0.0001
vn 0.0002 -0.9997 0.0245
vn 0.0001 -0.9999 0.0134
vn 1.0000 -0.0020 0.0001
vn 1.0000 -0.0028 0.0001
vn -1.0000 -0.0039 -0.0000
vn -0.9998 0.0184 0.0007
vn 0.0072 0.9992 0.0405
vn 0.0063 -0.9992 -0.0405
vn 0.9998 0.0180 0.0007
vn -0.0002 -0.9997 -0.0245
vn -0.9999 0.0139 -0.0004
vn -0.0002 0.9997 -0.0247
vn -0.0064 -0.9995 0.0311
vn 0.9999 0.0141 -0.0004
vn -0.0071 0.9995 -0.0311
vt 0.987016 0.012627
vt 0.987016 0.012439
vt 0.987016 0.012533
vt 0.997518 0.012532
vt 0.997518 0.012532
vt 0.997518 0.012627
vt 0.993580 0.007839
vt 0.992267 0.007477
vt 0.993580 0.007933
vt 0.992267 0.007289
vt 0.993580 0.007745
vt 0.992267 0.007383
vt 0.993580 0.007839
vt 0.994893 0.008879
vt 0.996205 0.010414
vt 0.996205 0.010508
vt 0.994893 0.008784
vt 0.996205 0.010320
vt 0.994892 0.008784
vt 0.996205 0.010414
vt 0.989641 0.008785
vt 0.990954 0.007934
vt 0.990954 0.007839
vt 0.989641 0.008691
vt 0.990954 0.007745
vt 0.990954 0.007839
vt 0.989641 0.008785
vt 0.992267 0.007383
vt 0.997518 0.012438
vt 0.994893 0.008690
vt 0.988329 0.010414
vt 0.989641 0.008879
vt 0.988329 0.010320
vt 0.988329 0.010414
vt 0.987016 0.012533
vt 0.988329 0.010508
s 1
usemtl Catenary
f 82/79/75 86/80/75 84/81/75
f 83/82/76 87/83/76 81/84/76
f 112/85/77 89/86/78 105/87/79
f 91/88/80 112/85/77 111/89/81
f 90/90/82 111/89/81 110/91/83
f 105/87/79 90/90/82 110/91/83
f 97/92/84 102/93/85 113/94/86
f 94/95/87 103/96/88 102/93/85
f 103/96/88 96/97/89 104/98/90
f 104/98/90 97/92/84 113/94/86
f 100/99/91 109/100/92 108/101/93
f 99/102/94 108/101/93 107/103/95
f 106/104/96 99/102/94 107/103/95
f 109/100/92 98/105/97 106/104/96
f 89/86/78 106/104/96 90/90/82
f 106/104/96 91/88/80 90/90/82
f 107/103/95 92/106/98 91/88/80
f 92/106/98 109/100/92 89/86/78
f 87/83/99 113/94/86 81/84/100
f 85/107/101 104/98/90 87/83/99
f 102/93/85 85/107/101 83/82/102
f 113/94/86 83/82/102 81/84/100
f 105/87/79 94/95/87 97/92/84
f 110/91/83 95/108/103 94/95/87
f 95/108/103 112/85/77 96/97/89
f 96/97/89 105/87/79 97/92/84
f 116/109/104 93/110/105 100/99/91
f 115/111/106 100/99/91 99/102/94
f 98/105/97 115/111/106 99/102/94
f 93/110/105 114/112/107 98/105/97
f 82/79/75 88/113/75 86/80/75
f 83/82/76 85/107/76 87/83/76
f 112/85/77 92/106/98 89/86/78
f 91/88/80 92/106/98 112/85/77
f 90/90/82 91/88/80 111/89/81
f 105/87/79 89/86/78 90/90/82
f 97/92/84 94/95/87 102/93/85
f 94/95/87 95/108/103 103/96/88
f 103/96/88 95/108/103 96/97/89
f 104/98/90 96/97/89 97/92/84
f 100/99/91 93/110/105 109/100/92
f 99/102/94 100/99/91 108/101/93
f 106/104/96 98/105/97 99/102/94
f 109/100/92 93/110/105 98/105/97
f 89/86/78 109/100/92 106/104/96
f 106/104/96 107/103/95 91/88/80
f 107/103/95 108/101/93 92/106/98
f 92/106/98 108/101/93 109/100/92
f 87/83/99 104/98/90 113/94/86
f 85/107/101 103/96/88 104/98/90
f 102/93/85 103/96/88 85/107/101
f 113/94/86 102/93/85 83/82/102
f 105/87/79 110/91/83 94/95/87
f 110/91/83 111/89/81 95/108/103
f 95/108/103 111/89/81 112/85/77
f 96/97/89 112/85/77 105/87/79
f 116/109/104 101/114/108 93/110/105
f 115/111/106 116/109/104 100/99/91
f 98/105/97 114/112/107 115/111/106
f 93/110/105 101/114/108 114/112/107
o StitchWire2.008
v 0.017260 6.502542 -0.007246
v 0.008261 6.493540 -0.007107
v 0.017260 6.484542 -0.007246
v 0.026259 6.493542 -0.007381
v 0.017281 6.775814 4.994565
v 0.008282 6.766814 4.994700
v 0.017281 6.757814 4.994565
v 0.026280 6.766814 4.994431
v 0.017270 6.503176 2.000081
v 0.008271 6.494176 2.000216
v 0.017270 6.485176 2.000081
v 0.026269 6.494176 1.999946
vn -0.0004 0.9989 -0.0465
vn -1.0000 -0.0003 -0.0000
vn -0.9998 -0.0207 0.0019
vn 0.0003 -0.9990 0.0446
vn 0.0069 -1.0000 0.0003
vn 0.9998 -0.0200 0.0018
vn 0.0068 1.0000 -0.0003
vn 0.9991 0.0412 -0.0038
vn -0.0077 0.9959 -0.0907
vn -0.0058 -0.9959 0.0907
vn -0.9992 0.0404 -0.0037
vn 1.0000 -0.0001 -0.0000
vt 0.970403 0.010013
vt 0.969496 0.009846
vt 0.970403 0.009857
vt 0.970403 0.009701
vt 0.969496 0.009690
vt 0.970403 0.009857
vt 0.969496 0.010002
vt 0.971756 0.014583
vt 0.971756 0.014739
vt 0.971756 0.014427
vt 0.971756 0.014583
vt 0.969496 0.009846
s 1
usemtl Catenary
f 125/115/109 118/116/110 126/117/111
f 118/116/110 127/118/112 126/117/111
f 119/119/113 128/120/114 127/118/112
f 128/120/114 117/121/115 125/115/109
f 124/122/116 125/115/109 121/123/117
f 123/124/118 128/120/114 124/122/116
f 126/117/111 123/124/118 122/125/119
f 125/115/109 122/125/119 121/123/117
f 125/115/109 117/121/115 118/116/110
f 118/116/110 119/119/113 127/118/112
f 119/119/113 120/126/120 128/120/114
f 128/120/114 120/126/120 117/121/115
f 124/122/116 128/120/114 125/115/109
f 123/124/118 127/118/112 128/120/114
f 126/117/111 127/118/112 123/124/118
f 125/115/109 126/117/111 122/125/119
o Dropper1.007
v -0.017683 6.493850 19.991325
v -0.008549 6.493850 20.000189
v -0.017413 6.493850 20.009323
v -0.026547 6.493850 20.000460
v -0.017683 6.020014 19.991325
v -0.017413 6.020014 20.009323
v -0.008549 6.020014 20.000189
v -0.026547 6.020014 20.000460
vn -0.0150 -0.0000 -0.9999
vn 0.9999 -0.0000 -0.0150
vn 0.0150 -0.0000 0.9999
vn -0.0000 1.0000 -0.0000
vn -0.9999 -0.0000 0.0150
vt 0.975793 0.009012
vt 0.975788 0.001635
vt 0.975793 0.001635
vt 0.975788 0.009012
vt 0.975784 0.001635
vt 0.975784 0.009012
vt 0.975788 0.001635
vt 0.975788 0.009012
s 1
usemtl Catenary
f 129/127/121 135/128/122 133/129/121
f 130/130/122 134/131/123 135/128/122
f 129/127/124 131/132/124 130/130/124
f 131/132/123 136/133/125 134/131/123
f 132/134/125 133/129/121 136/133/125
f 129/127/121 130/130/122 135/128/122
f 130/130/122 131/132/123 134/131/123
f 129/127/124 132/134/124 131/132/124
f 131/132/123 132/134/125 136/133/125
f 132/134/125 129/127/121 133/129/121
o Dropper2.007
v -0.017683 6.537527 14.989301
v -0.008549 6.537527 14.998164
v -0.017413 6.537527 15.007298
v -0.026547 6.537527 14.998435
v -0.017683 6.020014 14.989301
v -0.017413 6.020014 15.007298
v -0.008549 6.020014 14.998164
v -0.026547 6.020014 14.998435
vn -0.0150 -0.0000 -0.9999
vn 0.9999 -0.0000 -0.0150
vn 0.0150 -0.0000 0.9999
vn -0.0000 1.0000 -0.0000
vn -0.9999 -0.0000 0.0150
vt 0.978168 0.009692
vt 0.978163 0.001635
vt 0.978168 0.001635
vt 0.978163 0.009692
vt 0.978159 0.001635
vt 0.978159 0.009692
vt 0.978163 0.001635
vt 0.978163 0.009692
s 1
usemtl Catenary
f 137/135/126 143/136/127 141/137/126
f 138/138/127 142/139/128 143/136/127
f 137/135/129 139/140/129 138/138/129
f 139/140/128 144/141/130 142/139/128
f 140/142/130 141/137/126 144/141/130
f 137/135/126 138/138/127 143/136/127
f 138/138/127 139/140/128 142/139/128
f 137/135/129 140/142/129 139/140/129
f 139/140/128 140/142/130 144/141/130
f 140/142/130 137/135/126 141/137/126
o Dropper3.007
v -0.017683 6.537527 24.992802
v -0.008549 6.537527 25.001665
v -0.017413 6.537527 25.010799
v -0.026547 6.537527 25.001936
v -0.017683 6.020014 24.992802
v -0.017413 6.020014 25.010799
v -0.008549 6.020014 25.001665
v -0.026547 6.020014 25.001936
vn -0.0150 -0.0000 -0.9999
vn 0.9999 -0.0000 -0.0150
vn 0.0150 -0.0000 0.9999
vn -0.0000 1.0000 -0.0000
vn -0.9999 -0.0000 0.0150
vt 0.978168 0.009692
vt 0.978163 0.001635
vt 0.978168 0.001635
vt 0.978163 0.009692
vt 0.978159 0.001635
vt 0.978159 0.009692
vt 0.978163 0.001635
vt 0.978163 0.009692
s 1
usemtl Catenary
f 145/143/131 151/144/132 149/145/131
f 146/146/132 150/147/133 151/144/132
f 145/143/134 147/148/134 146/146/134
f 147/148/133 152/149/135 150/147/133
f 148/150/135 149/145/131 152/149/135
f 145/143/131 146/146/132 151/144/132
f 146/146/132 147/148/133 150/147/133
f 145/143/134 148/150/134 147/148/134
f 147/148/133 148/150/135 152/149/135
f 148/150/135 145/143/131 149/145/131
o Dropper4.007
v -0.017683 6.627460 29.994600
v -0.008549 6.627460 30.003464
v -0.017413 6.627460 30.012598
v -0.026547 6.627460 30.003735
v -0.017683 6.020014 29.994600
v -0.017413 6.020014 30.012598
v -0.008549 6.020014 30.003464
v -0.026547 6.020014 30.003735
vn -0.0150 -0.0000 -0.9999
vn 0.9999 -0.0000 -0.0150
vn 0.0150 -0.0000 0.9999
vn -0.0000 1.0000 -0.0000
vn -0.9999 -0.0000 0.0150
vt 0.971043 0.011092
vt 0.971039 0.001635
vt 0.971043 0.001635
vt 0.971039 0.011092
vt 0.971035 0.001635
vt 0.971035 0.011092
vt 0.971039 0.001635
vt 0.971039 0.011092
s 1
usemtl Catenary
f 153/151/136 159/152/137 157/153/136
f 154/154/137 158/155/138 159/152/137
f 153/151/139 155/156/139 154/154/139
f 155/156/138 160/157/140 158/155/138
f 156/158/140 157/153/136 160/157/140
f 153/151/136 154/154/137 159/152/137
f 154/154/137 155/156/138 158/155/138
f 153/151/139 156/158/139 155/156/139
f 155/156/138 156/158/140 160/157/140
f 156/158/140 153/151/136 157/153/136
o Dropper5.007
v -0.017683 6.627460 9.987371
v -0.008549 6.627460 9.996235
v -0.017413 6.627460 10.005369
v -0.026547 6.627460 9.996506
v -0.017683 6.020014 9.987371
v -0.017413 6.020014 10.005369
v -0.008549 6.020014 9.996235
v -0.026547 6.020014 9.996506
vn -0.0150 -0.0000 -0.9999
vn 0.9999 -0.0000 -0.0150
vn 0.0150 -0.0000 0.9999
vn -0.0000 1.0000 -0.0000
vn -0.9999 -0.0000 0.0150
vt 0.971043 0.011092
vt 0.971039 0.001635
vt 0.971043 0.001635
vt 0.971039 0.011092
vt 0.971035 0.001635
vt 0.971035 0.011092
vt 0.971039 0.001635
vt 0.971039 0.011092
s 1
usemtl Catenary
f 161/159/141 167/160/142 165/161/141
f 162/162/142 166/163/143 167/160/142
f 161/159/144 163/164/144 162/162/144
f 163/164/143 168/165/145 166/163/143
f 164/166/145 165/161/141 168/165/145
f 161/159/141 162/162/142 167/160/142
f 162/162/142 163/164/143 166/163/143
f 161/159/144 164/166/144 163/164/144
f 163/164/143 164/166/145 168/165/145
f 164/166/145 161/159/141 165/161/141
o Dropper6.007
v -0.017683 6.783311 4.985561
v -0.008549 6.783311 4.994425
v -0.017413 6.783311 5.003559
v -0.026547 6.783311 4.994695
v -0.017683 6.020014 4.985561
v -0.017413 6.020014 5.003559
v -0.008549 6.020014 4.994425
v -0.026547 6.020014 4.994695
vn -0.0150 -0.0000 -0.9999
vn 0.9999 -0.0000 -0.0150
vn 0.0150 -0.0000 0.9999
vn -0.0000 1.0000 -0.0000
vn -0.9999 -0.0000 0.0150
vt 0.982917 0.013518
vt 0.982913 0.001635
vt 0.982917 0.001635
vt 0.982913 0.013518
vt 0.982909 0.001635
vt 0.982909 0.013518
vt 0.982913 0.001635
vt 0.982913 0.013518
s 1
usemtl Catenary
f 169/167/146 175/168/147 173/169/146
f 170/170/147 174/171/148 175/168/147
f 169/167/149 171/172/149 170/170/149
f 171/172/148 176/173/150 174/171/148
f 172/174/150 173/169/146 176/173/150
f 169/167/146 170/170/147 175/168/147
f 170/170/147 171/172/148 174/171/148
f 169/167/149 172/174/149 171/172/149
f 171/172/148 172/174/150 176/173/150
f 172/174/150 169/167/146 173/169/146
o Dropper7.007
v -0.017683 6.783311 34.996403
v -0.008549 6.783311 35.005268
v -0.017413 6.783311 35.014400
v -0.026547 6.783311 35.005535
v -0.017683 6.020014 34.996403
v -0.017413 6.020014 35.014400
v -0.008549 6.020014 35.005268
v -0.026547 6.020014 35.005535
vn -0.0150 -0.0000 -0.9999
vn 0.9999 -0.0000 -0.0150
vn 0.0150 -0.0000 0.9999
vn -0.0000 1.0000 -0.0000
vn -0.9999 -0.0000 0.0150
vt 0.982917 0.013518
vt 0.982913 0.001635
vt 0.982917 0.001635
vt 0.982913 0.013518
vt 0.982909 0.001635
vt 0.982909 0.013518
vt 0.982913 0.001635
vt 0.982913 0.013518
s 1
usemtl Catenary
f 177/175/151 183/176/152 181/177/151
f 178/178/152 182/179/153 183/176/152
f 177/175/154 179/180/154 178/178/154
f 179/180/153 184/181/155 182/179/153
f 180/182/155 181/177/151 184/181/155
f 177/175/151 178/178/152 183/176/152
f 178/178/152 179/180/153 182/179/153
f 177/175/154 180/182/154 179/180/154
f 179/180/153 180/182/155 184/181/155
f 180/182/155 177/175/151 181/177/151
o StitchDropper2.007
v -0.017683 6.493850 1.991001
v -0.008549 6.493850 1.999865
v -0.017413 6.493850 2.008999
v -0.026547 6.493850 2.000135
v -0.017683 6.000014 1.991001
v -0.017413 6.000014 2.008999
v -0.008549 6.000014 1.999865
v -0.026547 6.000014 2.000135
vn -0.0150 -0.0000 -0.9999
vn 0.9999 -0.0000 -0.0150
vn 0.0150 -0.0000 0.9999
vn -0.0000 1.0000 -0.0000
vn -0.9999 -0.0000 0.0150
vt 0.982385 0.009566
vt 0.982382 0.002719
vt 0.982385 0.002719
vt 0.982382 0.009566
vt 0.982378 0.002719
vt 0.982378 0.009566
vt 0.982382 0.002719
vt 0.982382 0.009566
s 1
usemtl Catenary
f 185/183/156 191/184/157 189/185/156
f 186/186/157 190/187/158 191/184/157
f 185/183/159 187/188/159 186/186/159
f 187/188/158 192/189/160 190/187/158
f 188/190/160 189/185/156 192/189/160
f 185/183/156 186/186/157 191/184/157
f 186/186/157 187/188/158 190/187/158
f 185/183/159 188/190/159 187/188/159
f 187/188/158 188/190/160 192/189/160
f 188/190/160 185/183/156 189/185/156
o Dropper1.008
v 0.017301 6.493850 19.991325
v 0.026435 6.493850 20.000189
v 0.017571 6.493850 20.009323
v 0.008437 6.493850 20.000460
v 0.017301 6.020014 19.991325
v 0.017571 6.020014 20.009323
v 0.026435 6.020014 20.000189
v 0.008437 6.020014 20.000460
vn -0.0150 -0.0000 -0.9999
vn 0.9999 -0.0000 -0.0150
vn 0.0150 -0.0000 0.9999
vn -0.0000 1.0000 -0.0000
vn -0.9999 -0.0000 0.0150
vt 0.975793 0.009012
vt 0.975788 0.001635
vt 0.975793 0.001635
vt 0.975788 0.009012
vt 0.975784 0.001635
vt 0.975784 0.009012
vt 0.975788 0.001635
vt 0.975788 0.009012
s 1
usemtl Catenary
f 193/191/161 199/192/162 197/193/161
f 194/194/162 198/195/163 199/192/162
f 193/191/164 195/196/164 194/194/164
f 195/196/163 200/197/165 198/195/163
f 196/198/165 197/193/161 200/197/165
f 193/191/161 194/194/162 199/192/162
f 194/194/162 195/196/163 198/195/163
f 193/191/164 196/198/164 195/196/164
f 195/196/163 196/198/165 200/197/165
f 196/198/165 193/191/161 197/193/161
o Dropper2.008
v 0.017301 6.537527 14.989301
v 0.026435 6.537527 14.998164
v 0.017571 6.537527 15.007298
v 0.008437 6.537527 14.998435
v 0.017301 6.020014 14.989301
v 0.017571 6.020014 15.007298
v 0.026435 6.020014 14.998164
v 0.008437 6.020014 14.998435
vn -0.0150 -0.0000 -0.9999
vn 0.9999 -0.0000 -0.0150
vn 0.0150 -0.0000 0.9999
vn -0.0000 1.0000 -0.0000
vn -0.9999 -0.0000 0.0150
vt 0.978168 0.009692
vt 0.978163 0.001635
vt 0.978168 0.001635
vt 0.978163 0.009692
vt 0.978159 0.001635
vt 0.978159 0.009692
vt 0.978163 0.001635
vt 0.978163 0.009692
s 1
usemtl Catenary
f 201/199/166 207/200/167 205/201/166
f 202/202/167 206/203/168 207/200/167
f 201/199/169 203/204/169 202/202/169
f 203/204/168 208/205/170 206/203/168
f 204/206/170 205/201/166 208/205/170
f 201/199/166 202/202/167 207/200/167
f 202/202/167 203/204/168 206/203/168
f 201/199/169 204/206/169 203/204/169
f 203/204/168 204/206/170 208/205/170
f 204/206/170 201/199/166 205/201/166
o Dropper3.008
v 0.017301 6.537527 24.992802
v 0.026435 6.537527 25.001665
v 0.017571 6.537527 25.010799
v 0.008437 6.537527 25.001936
v 0.017301 6.020014 24.992802
v 0.017571 6.020014 25.010799
v 0.026435 6.020014 25.001665
v 0.008437 6.020014 25.001936
vn -0.0150 -0.0000 -0.9999
vn 0.9999 -0.0000 -0.0150
vn 0.0150 -0.0000 0.9999
vn -0.0000 1.0000 -0.0000
vn -0.9999 -0.0000 0.0150
vt 0.978168 0.009692
vt 0.978163 0.001635
vt 0.978168 0.001635
vt 0.978163 0.009692
vt 0.978159 0.001635
vt 0.978159 0.009692
vt 0.978163 0.001635
vt 0.978163 0.009692
s 1
usemtl Catenary
f 209/207/171 215/208/172 213/209/171
f 210/210/172 214/211/173 215/208/172
f 209/207/174 211/212/174 210/210/174
f 211/212/173 216/213/175 214/211/173
f 212/214/175 213/209/171 216/213/175
f 209/207/171 210/210/172 215/208/172
f 210/210/172 211/212/173 214/211/173
f 209/207/174 212/214/174 211/212/174
f 211/212/173 212/214/175 216/213/175
f 212/214/175 209/207/171 213/209/171
o Dropper4.008
v 0.017301 6.627460 29.994600
v 0.026435 6.627460 30.003464
v 0.017571 6.627460 30.012598
v 0.008437 6.627460 30.003735
v 0.017301 6.020014 29.994600
v 0.017571 6.020014 30.012598
v 0.026435 6.020014 30.003464
v 0.008437 6.020014 30.003735
vn -0.0150 -0.0000 -0.9999
vn 0.9999 -0.0000 -0.0150
vn 0.0150 -0.0000 0.9999
vn -0.0000 1.0000 -0.0000
vn -0.9999 -0.0000 0.0150
vt 0.971043 0.011092
vt 0.971039 0.001635
vt 0.971043 0.001635
vt 0.971039 0.011092
vt 0.971035 0.001635
vt 0.971035 0.011092
vt 0.971039 0.001635
vt 0.971039 0.011092
s 1
usemtl Catenary
f 217/215/176 223/216/177 221/217/176
f 218/218/177 222/219/178 223/216/177
f 217/215/179 219/220/179 218/218/179
f 219/220/178 224/221/180 222/219/178
f 220/222/180 221/217/176 224/221/180
f 217/215/176 218/218/177 223/216/177
f 218/218/177 219/220/178 222/219/178
f 217/215/179 220/222/179 219/220/179
f 219/220/178 220/222/180 224/221/180
f 220/222/180 217/215/176 221/217/176
o Dropper5.008
v 0.017301 6.627460 9.987371
v 0.026435 6.627460 9.996235
v 0.017571 6.627460 10.005369
v 0.008437 6.627460 9.996506
v 0.017301 6.020014 9.987371
v 0.017571 6.020014 10.005369
v 0.026435 6.020014 9.996235
v 0.008437 6.020014 9.996506
vn -0.0150 -0.0000 -0.9999
vn 0.9999 -0.0000 -0.0150
vn 0.0150 -0.0000 0.9999
vn -0.0000 1.0000 -0.0000
vn -0.9999 -0.0000 0.0150
vt 0.971043 0.011092
vt 0.971039 0.001635
vt 0.971043 0.001635
vt 0.971039 0.011092
vt 0.971035 0.001635
vt 0.971035 0.011092
vt 0.971039 0.001635
vt 0.971039 0.011092
s 1
usemtl Catenary
f 225/223/181 231/224/182 229/225/181
f 226/226/182 230/227/183 231/224/182
f 225/223/184 227/228/184 226/226/184
f 227/228/183 232/229/185 230/227/183
f 228/230/185 229/225/181 232/229/185
f 225/223/181 226/226/182 231/224/182
f 226/226/182 227/228/183 230/227/183
f 225/223/184 228/230/184 227/228/184
f 227/228/183 228/230/185 232/229/185
f 228/230/185 225/223/181 229/225/181
o Dropper6.008
v 0.017301 6.783311 4.985561
v 0.026435 6.783311 4.994425
v 0.017571 6.783311 5.003559
v 0.008437 6.783311 4.994695
v 0.017301 6.020014 4.985561
v 0.017571 6.020014 5.003559
v 0.026435 6.020014 4.994425
v 0.008437 6.020014 4.994695
vn -0.0150 -0.0000 -0.9999
vn 0.9999 -0.0000 -0.0150
vn 0.0150 -0.0000 0.9999
vn -0.0000 1.0000 -0.0000
vn -0.9999 -0.0000 0.0150
vt 0.982917 0.013518
vt 0.982913 0.001635
vt 0.982917 0.001635
vt 0.982913 0.013518
vt 0.982909 0.001635
vt 0.982909 0.013518
vt 0.982913 0.001635
vt 0.982913 0.013518
s 1
usemtl Catenary
f 233/231/186 239/232/187 237/233/186
f 234/234/187 238/235/188 239/232/187
f 233/231/189 235/236/189 234/234/189
f 235/236/188 240/237/190 238/235/188
f 236/238/190 237/233/186 240/237/190
f 233/231/186 234/234/187 239/232/187
f 234/234/187 235/236/188 238/235/188
f 233/231/189 236/238/189 235/236/189
f 235/236/188 236/238/190 240/237/190
f 236/238/190 233/231/186 237/233/186
o Dropper7.008
v 0.017301 6.783311 34.996403
v 0.026435 6.783311 35.005268
v 0.017571 6.783311 35.014400
v 0.008437 6.783311 35.005535
v 0.017301 6.020014 34.996403
v 0.017571 6.020014 35.014400
v 0.026435 6.020014 35.005268
v 0.008437 6.020014 35.005535
vn -0.0150 -0.0000 -0.9999
vn 0.9999 -0.0000 -0.0150
vn 0.0150 -0.0000 0.9999
vn -0.0000 1.0000 -0.0000
vn -0.9999 -0.0000 0.0150
vt 0.982917 0.013518
vt 0.982913 0.001635
vt 0.982917 0.001635
vt 0.982913 0.013518
vt 0.982909 0.001635
vt 0.982909 0.013518
vt 0.982913 0.001635
vt 0.982913 0.013518
s 1
usemtl Catenary
f 241/239/191 247/240/192 245/241/191
f 242/242/192 246/243/193 247/240/192
f 241/239/194 243/244/194 242/242/194
f 243/244/193 248/245/195 246/243/193
f 244/246/195 245/241/191 248/245/195
f 241/239/191 242/242/192 247/240/192
f 242/242/192 243/244/193 246/243/193
f 241/239/194 244/246/194 243/244/194
f 243/244/193 244/246/195 248/245/195
f 244/246/195 241/239/191 245/241/191
o StitchDropper2.008
v 0.017301 6.493850 1.991001
v 0.026435 6.493850 1.999865
v 0.017571 6.493850 2.008999
v 0.008437 6.493850 2.000135
v 0.017301 6.000014 1.991001
v 0.017571 6.000014 2.008999
v 0.026435 6.000014 1.999865
v 0.008437 6.000014 2.000135
vn -0.0150 -0.0000 -0.9999
vn 0.9999 -0.0000 -0.0150
vn 0.0150 -0.0000 0.9999
vn -0.0000 1.0000 -0.0000
vn -0.9999 -0.0000 0.0150
vt 0.982385 0.009566
vt 0.982382 0.002719
vt 0.982385 0.002719
vt 0.982382 0.009566
vt 0.982378 0.002719
vt 0.982378 0.009566
vt 0.982382 0.002719
vt 0.982382 0.009566
s 1
usemtl Catenary
f 249/247/196 255/248/197 253/249/196
f 250/250/197 254/251/198 255/248/197
f 249/247/199 251/252/199 250/250/199
f 251/252/198 256/253/200 254/251/198
f 252/254/200 253/249/196 256/253/200
f 249/247/196 250/250/197 255/248/197
f 250/250/197 251/252/198 254/251/198
f 249/247/199 252/254/199 251/252/199
f 251/252/198 252/254/200 256/253/200
f 252/254/200 249/247/196 253/249/196
