# Blender 5.1.2
# www.blender.org
mtllib wire_half1_dual.mtl
o Dropper3.009
g wire_half1_dual
v -0.013605 6.001013 14.989304
v -0.000131 6.537673 14.989101
v 0.022566 6.001013 14.997762
v 0.009003 6.537673 14.997965
v -0.013335 6.001013 15.007301
v 0.000139 6.537673 15.007099
v -0.022469 6.001013 14.998437
v -0.008995 6.537673 14.998236
v -0.000131 6.199751 14.989101
v 0.000139 6.199751 15.007099
v 0.013702 6.001013 15.006896
v 0.013432 6.001013 14.988898
v 0.009003 6.199751 14.997965
v -0.008995 6.199751 14.998236
vn -0.0150 -0.0000 -0.9999
vn 0.9993 0.0346 -0.0150
vn -0.0150 -0.0153 -0.9998
vn 0.9999 -0.0000 -0.0150
vn 0.0150 -0.0153 0.9998
vn -0.0000 1.0000 -0.0000
vn 0.0150 -0.0000 0.9999
vn -0.9993 0.0344 0.0150
vn -0.9999 -0.0000 0.0150
vn -0.0000 -1.0000 -0.0000
vn 0.3616 -0.0236 0.9320
vn -0.3614 -0.0237 -0.9321
vn -0.3333 -0.0237 0.9425
vn 0.9976 0.0681 -0.0150
vn 0.3335 -0.0236 -0.9425
vn -0.9976 0.0677 0.0150
vt 0.976279 0.010611
vt 0.976275 0.004753
vt 0.976279 0.004753
vt 0.976275 0.010611
vt 0.976271 0.004753
vt 0.976271 0.010611
vt 0.976275 0.004753
vt 0.976275 0.010611
vt 0.976279 0.001308
vt 0.976275 0.001308
vt 0.976271 0.001308
vt 0.976275 0.001308
vt 0.976279 0.001308
vt 0.976271 0.001308
s 1
usemtl Catenary
f 2/1/1 13/2/2 9/3/3
f 4/4/4 10/5/5 13/2/2
f 2/1/6 6/6/6 4/4/6
f 6/6/7 14/7/8 10/5/5
f 8/8/9 9/3/3 14/7/8
f 12/9/10 3/10/10 11/11/10
f 7/12/10 1/13/10 5/14/10
f 5/14/11 9/3/3 10/5/5
f 10/5/5 12/9/12 11/11/13
f 13/2/2 11/11/13 3/10/14
f 12/9/12 13/2/2 3/10/14
f 14/7/8 1/13/15 7/12/16
f 5/14/11 14/7/8 7/12/16
f 2/1/1 4/4/4 13/2/2
f 4/4/4 6/6/7 10/5/5
f 2/1/6 8/8/6 6/6/6
f 6/6/7 8/8/9 14/7/8
f 8/8/9 2/1/1 9/3/3
f 5/14/11 1/13/15 9/3/3
f 10/5/5 9/3/3 12/9/12
f 13/2/2 10/5/5 11/11/13
f 12/9/12 9/3/3 13/2/2
f 14/7/8 9/3/3 1/13/15
f 5/14/11 10/5/5 14/7/8
o Dropper4.009
v -0.013605 6.001013 9.987574
v -0.000131 6.628192 9.987371
v 0.022566 6.001013 9.996032
v 0.009003 6.628192 9.996235
v -0.013335 6.001013 10.005571
v 0.000139 6.628192 10.005369
v -0.022469 6.001013 9.996707
v -0.008995 6.628192 9.996506
v -0.000131 6.199751 9.987371
v 0.000139 6.199751 10.005369
v 0.013702 6.001013 10.005166
v 0.013432 6.001013 9.987168
v 0.009003 6.199751 9.996235
v -0.008995 6.199751 9.996506
vn -0.0150 -0.0000 -0.9999
vn 0.9993 0.0346 -0.0150
vn -0.0150 -0.0153 -0.9998
vn 0.9999 -0.0000 -0.0150
vn 0.0150 -0.0153 0.9998
vn -0.0000 1.0000 -0.0000
vn 0.0150 -0.0000 0.9999
vn -0.9993 0.0344 0.0150
vn -0.9999 -0.0000 0.0150
vn -0.0000 -1.0000 -0.0000
vn 0.3616 -0.0236 0.9320
vn -0.3614 -0.0237 -0.9321
vn -0.3333 -0.0237 0.9425
vn 0.9976 0.0681 -0.0150
vn 0.3335 -0.0236 -0.9425
vn -0.9976 0.0677 0.0150
vt 0.983058 0.012180
vt 0.983054 0.004753
vt 0.983058 0.004753
vt 0.983054 0.012180
vt 0.983050 0.004753
vt 0.983050 0.012180
vt 0.983054 0.004753
vt 0.983054 0.012180
vt 0.983058 0.001308
vt 0.983054 0.001308
vt 0.983050 0.001308
vt 0.983054 0.001308
vt 0.983058 0.001308
vt 0.983050 0.001308
s 1
usemtl Catenary
f 16/15/17 27/16/18 23/17/19
f 18/18/20 24/19/21 27/16/18
f 16/15/22 20/20/22 18/18/22
f 20/20/23 28/21/24 24/19/21
f 22/22/25 23/17/19 28/21/24
f 26/23/26 17/24/26 25/25/26
f 21/26/26 15/27/26 19/28/26
f 19/28/27 23/17/19 24/19/21
f 24/19/21 26/23/28 25/25/29
f 26/23/28 27/16/18 17/24/30
f 28/21/24 15/27/31 21/26/32
f 19/28/27 28/21/24 21/26/32
f 27/16/18 25/25/29 17/24/30
f 16/15/17 18/18/20 27/16/18
f 18/18/20 20/20/23 24/19/21
f 16/15/22 22/22/22 20/20/22
f 20/20/23 22/22/25 28/21/24
f 22/22/25 16/15/17 23/17/19
f 19/28/27 15/27/31 23/17/19
f 24/19/21 23/17/19 26/23/28
f 26/23/28 23/17/19 27/16/18
f 28/21/24 23/17/19 15/27/31
f 19/28/27 24/19/21 28/21/24
f 27/16/18 24/19/21 25/25/29
o Dropper7.009
v -0.013605 6.001013 4.985763
v -0.000131 6.783418 4.985561
v 0.022566 6.001013 4.994221
v 0.009003 6.783418 4.994425
v -0.013335 6.001013 5.003761
v 0.000139 6.783418 5.003559
v -0.022469 6.001013 4.994897
v -0.008995 6.783418 4.994695
v -0.000131 6.199751 4.985561
v 0.000139 6.199751 5.003559
v 0.013702 6.001013 5.003356
v 0.013432 6.001013 4.985357
v 0.009003 6.199751 4.994425
v -0.008995 6.199751 4.994695
vn -0.0150 -0.0000 -0.9999
vn 0.9993 0.0346 -0.0150
vn -0.0150 -0.0153 -0.9998
vn 0.9999 -0.0000 -0.0150
vn 0.0150 -0.0153 0.9998
vn -0.0000 1.0000 -0.0000
vn 0.0150 -0.0000 0.9999
vn -0.9993 0.0344 0.0150
vn -0.9999 -0.0000 0.0150
vn -0.0000 -1.0000 -0.0000
vn 0.3616 -0.0236 0.9320
vn -0.3614 -0.0237 -0.9321
vn -0.3333 -0.0237 0.9425
vn 0.9976 0.0681 -0.0150
vn 0.3335 -0.0236 -0.9425
vn -0.9976 0.0677 0.0150
vt 0.971760 0.014870
vt 0.971756 0.004753
vt 0.971760 0.004753
vt 0.971756 0.014870
vt 0.971752 0.004753
vt 0.971752 0.014870
vt 0.971756 0.004753
vt 0.971756 0.014870
vt 0.971760 0.001308
vt 0.971756 0.001308
vt 0.971752 0.001308
vt 0.971756 0.001308
vt 0.971760 0.001308
vt 0.971752 0.001308
s 1
usemtl Catenary
f 30/29/33 41/30/34 37/31/35
f 32/32/36 38/33/37 41/30/34
f 30/29/38 34/34/38 32/32/38
f 34/34/39 42/35/40 38/33/37
f 36/36/41 37/31/35 42/35/40
f 40/37/42 31/38/42 39/39/42
f 35/40/42 29/41/42 33/42/42
f 33/42/43 37/31/35 38/33/37
f 38/33/37 40/37/44 39/39/45
f 41/30/34 39/39/45 31/38/46
f 40/37/44 41/30/34 31/38/46
f 42/35/40 29/41/47 35/40/48
f 33/42/43 42/35/40 35/40/48
f 30/29/33 32/32/36 41/30/34
f 32/32/36 34/34/39 38/33/37
f 30/29/38 36/36/38 34/34/38
f 34/34/39 36/36/41 42/35/40
f 36/36/41 30/29/33 37/31/35
f 33/42/43 29/41/47 37/31/35
f 38/33/37 37/31/35 40/37/44
f 41/30/34 38/33/37 39/39/45
f 40/37/44 37/31/35 41/30/34
f 42/35/40 37/31/35 29/41/47
f 33/42/43 38/33/37 42/35/40
o StitchDropper2.010
v -0.013605 6.001013 1.991203
v -0.000131 6.493850 1.991001
v 0.022566 6.001013 1.999662
v 0.009003 6.493850 1.999865
v -0.013335 6.001013 2.009201
v 0.000139 6.493850 2.008999
v -0.022469 6.001013 2.000337
v -0.008995 6.493850 2.000135
v -0.000131 6.199751 1.991001
v 0.000139 6.199751 2.008999
v 0.013702 6.001013 2.008795
v 0.013432 6.001013 1.990798
v 0.009003 6.199751 1.999865
v -0.008995 6.199751 2.000135
vn -0.0150 -0.0000 -0.9999
vn 0.9993 0.0346 -0.0150
vn -0.0150 -0.0153 -0.9998
vn 0.9999 -0.0000 -0.0150
vn 0.0150 -0.0153 0.9998
vn -0.0000 1.0000 -0.0000
vn 0.0150 -0.0000 0.9999
vn -0.9993 0.0344 0.0150
vn -0.9999 -0.0000 0.0150
vn -0.0000 -1.0000 -0.0000
vn 0.3616 -0.0236 0.9320
vn -0.3614 -0.0237 -0.9321
vn -0.3333 -0.0237 0.9425
vn 0.9976 0.0681 -0.0150
vn 0.3335 -0.0236 -0.9425
vn -0.9976 0.0677 0.0150
vt 0.970407 0.009851
vt 0.970403 0.004753
vt 0.970407 0.004753
vt 0.970403 0.009851
vt 0.970399 0.004753
vt 0.970399 0.009851
vt 0.970403 0.004753
vt 0.970403 0.009851
vt 0.970407 0.001308
vt 0.970403 0.001308
vt 0.970399 0.001308
vt 0.970403 0.001308
vt 0.970407 0.001308
vt 0.970399 0.001308
s 1
usemtl Catenary
f 44/43/49 55/44/50 51/45/51
f 46/46/52 52/47/53 55/44/50
f 44/43/54 48/48/54 46/46/54
f 48/48/55 56/49/56 52/47/53
f 50/50/57 51/45/51 56/49/56
f 54/51/58 45/52/58 53/53/58
f 49/54/58 43/55/58 47/56/58
f 47/56/59 51/45/51 52/47/53
f 52/47/53 54/51/60 53/53/61
f 55/44/50 53/53/61 45/52/62
f 54/51/60 55/44/50 45/52/62
f 56/49/56 43/55/63 49/54/64
f 47/56/59 56/49/56 49/54/64
f 44/43/49 46/46/52 55/44/50
f 46/46/52 48/48/55 52/47/53
f 44/43/54 50/50/54 48/48/54
f 48/48/55 50/50/57 56/49/56
f 50/50/57 44/43/49 51/45/51
f 47/56/59 43/55/63 51/45/51
f 52/47/53 51/45/51 54/51/60
f 55/44/50 52/47/53 53/53/61
f 54/51/60 51/45/51 55/44/50
f 56/49/56 51/45/51 43/55/63
f 47/56/59 52/47/53 56/49/56
o StitchWire2.010
v -0.000172 6.502542 -0.007246
v -0.009171 6.493540 -0.007107
v -0.000172 6.484542 -0.007246
v 0.008827 6.493542 -0.007381
v -0.000151 6.775814 4.994565
v -0.009150 6.766814 4.994700
v -0.000151 6.757814 4.994565
v 0.008848 6.766814 4.994431
v -0.000162 6.503176 2.000081
v -0.009161 6.494176 2.000216
v -0.000162 6.485176 2.000081
v 0.008837 6.494176 1.999946
vn -0.0004 0.9989 -0.0465
vn -1.0000 -0.0003 -0.0000
vn -0.9998 -0.0207 0.0019
vn 0.0003 -0.9990 0.0446
vn 0.0069 -1.0000 0.0003
vn 0.9998 -0.0200 0.0018
vn 0.0068 1.0000 -0.0003
vn 0.9991 0.0412 -0.0038
vn -0.0077 0.9959 -0.0907
vn -0.0058 -0.9959 0.0907
vn -0.9992 0.0404 -0.0037
vn 1.0000 -0.0001 -0.0000
vt 0.970403 0.010013
vt 0.969496 0.009846
vt 0.970403 0.009857
vt 0.970403 0.009701
vt 0.969496 0.009690
vt 0.970403 0.009857
vt 0.969496 0.010002
vt 0.971756 0.014583
vt 0.971756 0.014739
vt 0.971756 0.014427
vt 0.971756 0.014583
vt 0.969496 0.009846
s 1
usemtl Catenary
f 65/57/65 58/58/66 66/59/67
f 58/58/66 67/60/68 66/59/67
f 59/61/69 68/62/70 67/60/68
f 68/62/70 57/63/71 65/57/65
f 64/64/72 65/57/65 61/65/73
f 63/66/74 68/62/70 64/64/72
f 66/59/67 63/66/74 62/67/75
f 65/57/65 62/67/75 61/65/73
f 65/57/65 57/63/71 58/58/66
f 58/58/66 59/61/69 67/60/68
f 59/61/69 60/68/76 68/62/70
f 68/62/70 60/68/76 57/63/71
f 64/64/72 68/62/70 65/57/65
f 63/66/74 67/60/68 68/62/70
f 66/59/67 67/60/68 63/66/74
f 65/57/65 66/59/67 62/67/75
o Contact.005
v 0.017355 6.008989 -0.007509
v 0.017505 6.009011 20.006987
v 0.026354 5.999989 -0.007645
v 0.026504 6.000011 20.006851
v 0.017355 5.990989 -0.007509
v 0.017505 5.991011 20.006987
v 0.008356 5.999989 -0.007374
v 0.008506 6.000011 20.007122
v 0.017430 6.009000 19.999739
v 0.026429 6.000000 19.999603
v 0.017430 5.991000 19.999739
v 0.008431 6.000000 19.999874
vn 0.0150 -0.0000 0.9999
vn -0.0150 -0.0000 -0.9999
vn -1.0000 -0.0000 -0.0000
vn -0.0067 1.0000 -0.0000
vn 0.0067 1.0000 -0.0000
vn -0.0067 -1.0000 -0.0000
vn 0.0067 -1.0000 -0.0000
vn 1.0000 -0.0000 -0.0000
vt 0.988422 0.003062
vt 0.988422 0.002895
vt 0.988422 0.002978
vt 0.997748 0.003062
vt 0.997748 0.002895
vt 0.997748 0.002978
vt 0.993085 0.003062
vt 0.993085 0.002895
vt 0.993085 0.002978
vt 0.997748 0.002978
vt 0.988422 0.002978
vt 0.993085 0.002978
s 1
usemtl Catenary
f 70/69/77 74/70/77 72/71/77
f 69/72/78 73/73/78 75/74/78
f 75/74/79 77/75/80 69/72/81
f 79/76/82 75/74/79 73/73/83
f 78/77/84 73/73/83 71/78/84
f 69/72/81 78/77/84 71/78/84
f 70/69/77 76/79/77 74/70/77
f 69/72/78 71/78/78 73/73/78
f 75/74/79 80/80/79 77/75/80
f 79/76/82 80/80/79 75/74/79
f 78/77/84 79/76/82 73/73/83
f 69/72/81 77/75/80 78/77/84
o Contact.008
v -0.017624 6.008989 -0.007509
v -0.017475 6.009011 20.006987
v -0.008625 5.999989 -0.007645
v -0.008476 6.000011 20.006851
v -0.017624 5.990989 -0.007509
v -0.017475 5.991011 20.006987
v -0.026623 5.999989 -0.007374
v -0.026474 6.000011 20.007122
v -0.017550 6.009000 19.999739
v -0.008551 6.000000 19.999603
v -0.017550 5.991000 19.999739
v -0.026549 6.000000 19.999874
vn 0.0150 -0.0000 0.9999
vn -0.0150 -0.0000 -0.9999
vn -1.0000 -0.0000 -0.0000
vn -0.0067 1.0000 -0.0000
vn 0.0067 1.0000 -0.0000
vn -0.0067 -1.0000 -0.0000
vn 0.0067 -1.0000 -0.0000
vn 1.0000 -0.0000 -0.0000
vt 0.988422 0.003062
vt 0.988422 0.002895
vt 0.988422 0.002978
vt 0.997748 0.003062
vt 0.997748 0.002895
vt 0.997748 0.002978
vt 0.993085 0.003062
vt 0.993085 0.002895
vt 0.993085 0.002978
vt 0.997748 0.002978
vt 0.988422 0.002978
vt 0.993085 0.002978
s 1
usemtl Catenary
f 82/81/85 86/82/85 84/83/85
f 81/84/86 85/85/86 87/86/86
f 87/86/87 89/87/88 81/84/89
f 91/88/90 87/86/87 85/85/91
f 90/89/92 85/85/91 83/90/92
f 81/84/89 90/89/92 83/90/92
f 82/81/85 88/91/85 86/82/85
f 81/84/86 83/90/86 85/85/86
f 87/86/87 92/92/87 89/87/88
f 91/88/90 92/92/87 87/86/87
f 90/89/92 91/88/90 85/85/91
f 81/84/89 89/87/88 90/89/92
o Messenger.011
v 0.000022 6.995399 -0.007250
v 0.009021 6.986399 -0.007385
v 0.000022 6.977399 -0.007250
v -0.008977 6.986399 -0.007114
v 0.000097 6.445485 19.999998
v 0.009096 6.436485 19.999863
v 0.000097 6.427485 19.999998
v -0.008902 6.436485 20.000134
v 0.009058 6.627955 9.996239
v 0.000059 6.618955 9.996374
v -0.008940 6.627955 9.996510
v 0.000059 6.636955 9.996374
v 0.009040 6.783801 4.994427
v 0.000041 6.774801 4.994561
v -0.008958 6.783801 4.994697
v 0.000078 6.546561 14.998186
v 0.009077 6.537561 14.998051
v 0.000078 6.528561 14.998186
v -0.008921 6.537561 14.998322
v 0.000041 6.792801 4.994561
vn -0.0150 -0.0000 -0.9999
vn -1.0000 0.0006 -0.0000
vn -0.0065 0.9998 0.0202
vn 0.0001 0.9998 0.0191
vn -0.0001 -0.9998 -0.0191
vn -1.0000 -0.0090 -0.0002
vn 1.0000 -0.0092 -0.0002
vn 1.0000 0.0003 -0.0000
vn 0.0002 0.9997 0.0247
vn 1.0000 -0.0024 -0.0002
vn 0.0003 0.9994 0.0359
vn 1.0000 -0.0031 -0.0002
vn -0.0003 -0.9994 -0.0357
vn -1.0000 -0.0028 -0.0001
vn -1.0000 -0.0018 -0.0001
vn -0.9998 0.0184 0.0007
vn 0.0072 0.9992 0.0405
vn 0.0063 -0.9992 -0.0405
vn 0.9998 0.0180 0.0007
vn -0.0002 -0.9997 -0.0245
vn -0.0070 -0.9998 -0.0202
vt 0.997748 0.012137
vt 0.997748 0.012137
vt 0.997748 0.012220
vt 0.994251 0.007969
vt 0.993085 0.007648
vt 0.994251 0.008053
vt 0.994251 0.007886
vt 0.993085 0.007564
vt 0.994251 0.007969
vt 0.995417 0.008892
vt 0.996582 0.010256
vt 0.996582 0.010339
vt 0.995417 0.008809
vt 0.996582 0.010172
vt 0.995417 0.008809
vt 0.996582 0.010256
vt 0.997748 0.012053
vt 0.995417 0.008725
vt 0.993085 0.007480
s 1
usemtl Catenary
f 94/93/93 96/94/93 93/95/93
f 111/96/94 97/97/95 108/98/96
f 110/99/97 100/100/98 111/96/94
f 98/100/99 110/99/97 109/101/100
f 97/97/95 109/101/100 108/98/96
f 104/102/101 105/103/102 112/104/103
f 101/105/104 106/106/105 105/103/102
f 106/106/105 103/107/106 107/108/107
f 107/108/107 104/102/101 112/104/103
f 96/94/108 112/104/103 93/95/109
f 95/109/110 107/108/107 96/94/108
f 105/103/102 95/109/110 94/93/111
f 112/104/103 94/93/111 93/95/109
f 108/98/96 101/105/104 104/102/101
f 109/101/100 102/110/112 101/105/104
f 102/110/112 111/96/94 103/107/106
f 103/107/106 108/98/96 104/102/101
f 94/93/93 95/109/93 96/94/93
f 111/96/94 100/100/98 97/97/95
f 110/99/97 99/111/113 100/100/98
f 98/100/99 99/111/113 110/99/97
f 97/97/95 98/100/99 109/101/100
f 104/102/101 101/105/104 105/103/102
f 101/105/104 102/110/112 106/106/105
f 106/106/105 102/110/112 103/107/106
f 107/108/107 103/107/106 104/102/101
f 96/94/108 107/108/107 112/104/103
f 95/109/110 106/106/105 107/108/107
f 105/103/102 106/106/105 95/109/110
f 112/104/103 105/103/102 94/93/111
f 108/98/96 109/101/100 101/105/104
f 109/101/100 110/99/97 102/110/112
f 102/110/112 110/99/97 111/96/94
f 103/107/106 111/96/94 108/98/96
