# Blender 5.1.2
# www.blender.org
mtllib wire_half1_single.mtl
o StitchWire2.009
g wire_half1_single
v -0.000172 6.502542 -0.007246
v -0.009171 6.493540 -0.007107
v -0.000172 6.484542 -0.007246
v 0.008827 6.493542 -0.007381
v -0.000151 6.775813 4.994565
v -0.009150 6.766813 4.994700
v -0.000151 6.757813 4.994565
v 0.008848 6.766813 4.994431
v -0.000162 6.503176 2.000081
v -0.009161 6.494175 2.000216
v -0.000162 6.485176 2.000081
v 0.008837 6.494175 1.999946
vn -0.0004 0.9989 -0.0465
vn -1.0000 -0.0003 -0.0000
vn -0.9998 -0.0207 0.0019
vn 0.0003 -0.9990 0.0446
vn 0.0069 -1.0000 0.0003
vn 0.9998 -0.0200 0.0018
vn 0.0068 1.0000 -0.0003
vn 0.9991 0.0412 -0.0038
vn -0.0077 0.9959 -0.0907
vn -0.0058 -0.9959 0.0907
vn -0.9992 0.0404 -0.0037
vn 1.0000 -0.0001 -0.0000
vt 0.970403 0.010013
vt 0.969496 0.009846
vt 0.970403 0.009857
vt 0.970403 0.009701
vt 0.969496 0.009690
vt 0.970403 0.009857
vt 0.969496 0.010002
vt 0.971756 0.014583
vt 0.971756 0.014739
vt 0.971756 0.014427
vt 0.971756 0.014583
vt 0.969496 0.009846
s 1
usemtl Catenary
f 9/1/1 2/2/2 10/3/3
f 2/2/2 11/4/4 10/3/3
f 3/5/5 12/6/6 11/4/4
f 12/6/6 1/7/7 9/1/1
f 8/8/8 9/1/1 5/9/9
f 7/10/10 12/6/6 8/8/8
f 10/3/3 7/10/10 6/11/11
f 9/1/1 6/11/11 5/9/9
f 9/1/1 1/7/7 2/2/2
f 2/2/2 3/5/5 11/4/4
f 3/5/5 4/12/12 12/6/6
f 12/6/6 4/12/12 1/7/7
f 8/8/8 12/6/6 9/1/1
f 7/10/10 11/4/4 12/6/6
f 10/3/3 11/4/4 7/10/10
f 9/1/1 10/3/3 6/11/11
o Dropper2.009
v -0.000131 6.537527 14.989301
v 0.009003 6.537527 14.998164
v 0.000139 6.537527 15.007298
v -0.008995 6.537527 14.998435
v -0.000131 6.000014 14.989301
v 0.000139 6.000014 15.007298
v 0.009003 6.000014 14.998164
v -0.008995 6.000014 14.998435
vn -0.0150 -0.0000 -0.9999
vn 0.9999 -0.0000 -0.0150
vn 0.0150 -0.0000 0.9999
vn -0.0000 1.0000 -0.0000
vn -0.9999 -0.0000 0.0150
vt 0.977348 0.010171
vt 0.977345 0.002719
vt 0.977348 0.002719
vt 0.977345 0.010171
vt 0.977341 0.002719
vt 0.977341 0.010171
vt 0.977345 0.002719
vt 0.977345 0.010171
s 1
usemtl Catenary
f 13/13/13 19/14/14 17/15/13
f 14/16/14 18/17/15 19/14/14
f 13/13/16 15/18/16 14/16/16
f 15/18/15 20/19/17 18/17/15
f 16/20/17 17/15/13 20/19/17
f 13/13/13 14/16/14 19/14/14
f 14/16/14 15/18/15 18/17/15
f 13/13/16 16/20/16 15/18/16
f 15/18/15 16/20/17 20/19/17
f 16/20/17 13/13/13 17/15/13
o Dropper5.009
v -0.000131 6.627460 9.987371
v 0.009003 6.627460 9.996235
v 0.000139 6.627460 10.005369
v -0.008995 6.627460 9.996506
v -0.000131 6.000014 9.987371
v 0.000139 6.000014 10.005369
v 0.009003 6.000014 9.996235
v -0.008995 6.000014 9.996506
vn -0.0150 -0.0000 -0.9999
vn 0.9999 -0.0000 -0.0150
vn 0.0150 -0.0000 0.9999
vn -0.0000 1.0000 -0.0000
vn -0.9999 -0.0000 0.0150
vt 0.971533 0.011418
vt 0.971530 0.002719
vt 0.971533 0.002719
vt 0.971530 0.011418
vt 0.971526 0.002719
vt 0.971526 0.011418
vt 0.971530 0.002719
vt 0.971530 0.011418
s 1
usemtl Catenary
f 21/21/18 27/22/19 25/23/18
f 22/24/19 26/25/20 27/22/19
f 21/21/21 23/26/21 22/24/21
f 23/26/20 28/27/22 26/25/20
f 24/28/22 25/23/18 28/27/22
f 21/21/18 22/24/19 27/22/19
f 22/24/19 23/26/20 26/25/20
f 21/21/21 24/28/21 23/26/21
f 23/26/20 24/28/22 28/27/22
f 24/28/22 21/21/18 25/23/18
o Dropper6.009
v -0.000131 6.783311 4.985561
v 0.009003 6.783311 4.994425
v 0.000139 6.783311 5.003559
v -0.008995 6.783311 4.994695
v -0.000131 6.000014 4.985561
v 0.000139 6.000014 5.003559
v 0.009003 6.000014 4.994425
v -0.008995 6.000014 4.994695
vn -0.0150 -0.0000 -0.9999
vn 0.9999 -0.0000 -0.0150
vn 0.0150 -0.0000 0.9999
vn -0.0000 1.0000 -0.0000
vn -0.9999 -0.0000 0.0150
vt 0.981225 0.013579
vt 0.981221 0.002719
vt 0.981225 0.002719
vt 0.981221 0.013579
vt 0.981218 0.002719
vt 0.981218 0.013579
vt 0.981221 0.002719
vt 0.981221 0.013579
s 1
usemtl Catenary
f 29/29/23 35/30/24 33/31/23
f 30/32/24 34/33/25 35/30/24
f 29/29/26 31/34/26 30/32/26
f 31/34/25 36/35/27 34/33/25
f 32/36/27 33/31/23 36/35/27
f 29/29/23 30/32/24 35/30/24
f 30/32/24 31/34/25 34/33/25
f 29/29/26 32/36/26 31/34/26
f 31/34/25 32/36/27 36/35/27
f 32/36/27 29/29/23 33/31/23
o StitchDropper2.009
v -0.000131 6.493850 1.991001
v 0.009003 6.493850 1.999865
v 0.000139 6.493850 2.008999
v -0.008995 6.493850 2.000135
v -0.000131 6.000014 1.991001
v 0.000139 6.000014 2.008999
v 0.009003 6.000014 1.999865
v -0.008995 6.000014 2.000135
vn -0.0150 -0.0000 -0.9999
vn 0.9999 -0.0000 -0.0150
vn 0.0150 -0.0000 0.9999
vn -0.0000 1.0000 -0.0000
vn -0.9999 -0.0000 0.0150
vt 0.982385 0.009566
vt 0.982382 0.002719
vt 0.982385 0.002719
vt 0.982382 0.009566
vt 0.982378 0.002719
vt 0.982378 0.009566
vt 0.982382 0.002719
vt 0.982382 0.009566
s 1
usemtl Catenary
f 37/37/28 43/38/29 41/39/28
f 38/40/29 42/41/30 43/38/29
f 37/37/31 39/42/31 38/40/31
f 39/42/30 44/43/32 42/41/30
f 40/44/32 41/39/28 44/43/32
f 37/37/28 38/40/29 43/38/29
f 38/40/29 39/42/30 42/41/30
f 37/37/31 40/44/31 39/42/31
f 39/42/30 40/44/32 44/43/32
f 40/44/32 37/37/28 41/39/28
o Messenger.013
v 0.000022 6.995404 -0.007250
v 0.009021 6.986404 -0.007385
v 0.000022 6.977404 -0.007250
v -0.008977 6.986404 -0.007114
v 0.000097 6.445485 19.999998
v 0.009096 6.436485 19.999863
v 0.000097 6.427485 19.999998
v -0.008902 6.436485 20.000134
v 0.009058 6.627957 9.996239
v 0.000059 6.618958 9.996374
v -0.008940 6.627957 9.996510
v 0.000059 6.636958 9.996374
v 0.009040 6.783804 4.994427
v 0.000041 6.774805 4.994561
v -0.008958 6.783804 4.994697
v 0.000078 6.546562 14.998186
v 0.009077 6.537562 14.998051
v 0.000078 6.528562 14.998186
v -0.008921 6.537562 14.998322
v 0.000041 6.792805 4.994561
vn -0.0150 -0.0000 -0.9999
vn -1.0000 0.0006 -0.0000
vn -0.0065 0.9998 0.0202
vn 0.0001 0.9998 0.0191
vn -0.0001 -0.9998 -0.0191
vn -1.0000 -0.0090 -0.0002
vn 1.0000 -0.0092 -0.0002
vn 1.0000 0.0003 -0.0000
vn 0.0002 0.9997 0.0247
vn 1.0000 -0.0024 -0.0002
vn 0.0003 0.9994 0.0359
vn 1.0000 -0.0031 -0.0002
vn -0.0003 -0.9994 -0.0357
vn -1.0000 -0.0028 -0.0001
vn -1.0000 -0.0018 -0.0001
vn -0.9998 0.0184 0.0007
vn 0.0072 0.9992 0.0405
vn 0.0063 -0.9992 -0.0405
vn 0.9998 0.0180 0.0007
vn -0.0002 -0.9997 -0.0245
vn -0.0070 -0.9998 -0.0202
vt 0.997748 0.012137
vt 0.997748 0.012137
vt 0.997748 0.012220
vt 0.994251 0.007969
vt 0.993085 0.007648
vt 0.994251 0.008053
vt 0.994251 0.007886
vt 0.993085 0.007564
vt 0.994251 0.007969
vt 0.995417 0.008892
vt 0.996582 0.010256
vt 0.996582 0.010339
vt 0.995417 0.008809
vt 0.996582 0.010172
vt 0.995417 0.008809
vt 0.996582 0.010256
vt 0.997748 0.012053
vt 0.995417 0.008725
vt 0.993085 0.007480
s 1
usemtl Catenary
f 46/45/33 48/46/33 45/47/33
f 63/48/34 49/49/35 60/50/36
f 62/51/37 52/52/38 63/48/34
f 50/52/39 62/51/37 61/53/40
f 49/49/35 61/53/40 60/50/36
f 56/54/41 57/55/42 64/56/43
f 53/57/44 58/58/45 57/55/42
f 58/58/45 55/59/46 59/60/47
f 59/60/47 56/54/41 64/56/43
f 48/46/48 64/56/43 45/47/49
f 47/61/50 59/60/47 48/46/48
f 57/55/42 47/61/50 46/45/51
f 64/56/43 46/45/51 45/47/49
f 60/50/36 53/57/44 56/54/41
f 61/53/40 54/62/52 53/57/44
f 54/62/52 63/48/34 55/59/46
f 55/59/46 60/50/36 56/54/41
f 46/45/33 47/61/33 48/46/33
f 63/48/34 52/52/38 49/49/35
f 62/51/37 51/63/53 52/52/38
f 50/52/39 51/63/53 62/51/37
f 49/49/35 50/52/39 61/53/40
f 56/54/41 53/57/44 57/55/42
f 53/57/44 54/62/52 58/58/45
f 58/58/45 54/62/52 55/59/46
f 59/60/47 55/59/46 56/54/41
f 48/46/48 59/60/47 64/56/43
f 47/61/50 58/58/45 59/60/47
f 57/55/42 58/58/45 47/61/50
f 64/56/43 57/55/42 46/45/51
f 60/50/36 61/53/40 53/57/44
f 61/53/40 62/51/37 54/62/52
f 54/62/52 62/51/37 63/48/34
f 55/59/46 63/48/34 60/50/36
o Contact.006
v -0.000075 6.008994 -0.007509
v 0.000075 6.009011 20.006987
v 0.008924 5.999994 -0.007645
v 0.009074 6.000011 20.006851
v -0.000075 5.990993 -0.007509
v 0.000075 5.991011 20.006987
v -0.009074 5.999994 -0.007374
v -0.008924 6.000011 20.007122
v -0.000000 6.009000 19.999739
v 0.008999 6.000000 19.999603
v 0.000000 5.991000 19.999739
v -0.008999 6.000000 19.999874
vn 0.0150 -0.0000 0.9999
vn -0.0150 -0.0000 -0.9999
vn -1.0000 -0.0000 -0.0000
vn -0.0067 1.0000 -0.0000
vn 0.0067 1.0000 -0.0000
vn -0.0067 -1.0000 -0.0000
vn 0.0067 -1.0000 -0.0000
vn 1.0000 -0.0000 -0.0000
vt 0.988422 0.003062
vt 0.988422 0.002895
vt 0.988422 0.002978
vt 0.997748 0.003062
vt 0.997748 0.002895
vt 0.997748 0.002978
vt 0.993085 0.003062
vt 0.993085 0.002895
vt 0.993085 0.002978
vt 0.997748 0.002978
vt 0.988422 0.002978
vt 0.993085 0.002978
s 1
usemtl Catenary
f 66/64/54 70/65/54 68/66/54
f 65/67/55 69/68/55 71/69/55
f 71/69/56 73/70/57 65/67/58
f 75/71/59 71/69/56 69/68/60
f 74/72/61 69/68/60 67/73/61
f 65/67/58 74/72/61 67/73/61
f 66/64/54 72/74/54 70/65/54
f 65/67/55 67/73/55 69/68/55
f 71/69/56 76/75/56 73/70/57
f 75/71/59 76/75/56 71/69/56
f 74/72/61 75/71/59 69/68/60
f 65/67/58 73/70/57 74/72/61
