# Blender 5.0.1
# www.blender.org
mtllib wire_middle_anchor_dual.mtl
o Messenger
g wire_middle_anchor_dual
v 0.000022 6.995409 -0.007250
v 0.000172 6.995411 40.007248
v 0.009021 6.986409 -0.007385
v 0.009171 6.986412 40.007111
v 0.000022 6.977408 -0.007250
v 0.000172 6.977412 40.007248
v -0.008977 6.986409 -0.007114
v -0.008827 6.986412 40.007381
v 0.000097 6.502918 19.999998
v 0.009096 6.493918 19.999863
v 0.000097 6.484918 19.999998
v -0.008902 6.493918 20.000134
v 0.000134 6.636961 30.003622
v 0.009058 6.627960 9.996239
v 0.000059 6.618960 9.996374
v -0.008940 6.627960 9.996510
v 0.000059 6.636960 9.996374
v 0.009133 6.627961 30.003487
v 0.000134 6.618961 30.003622
v -0.008865 6.627961 30.003757
v 0.000153 6.792810 35.005436
v 0.009040 6.783808 4.994427
v 0.000041 6.774808 4.994561
v -0.008958 6.783808 4.994697
v 0.000078 6.546563 14.998186
v 0.009115 6.537564 25.001675
v 0.000116 6.528564 25.001810
v -0.008883 6.537564 25.001945
v 0.000116 6.546564 25.001810
v 0.009077 6.537563 14.998051
v 0.000078 6.528563 14.998186
v -0.008921 6.537563 14.998322
v 0.000041 6.792808 4.994561
v 0.009152 6.783811 35.005299
v 0.000153 6.774810 35.005436
v -0.008846 6.783811 35.005569
vn 0.0150 -0.0000 0.9999
vn -0.0150 -0.0000 -0.9999
vn -1.0000 -0.0020 -0.0001
vn -0.0000 1.0000 -0.0000
vn 0.0001 0.9999 0.0134
vn -0.0000 -1.0000 -0.0000
vn -0.0001 -0.9999 -0.0134
vn 1.0000 -0.0039 -0.0000
vn 1.0000 -0.0022 -0.0001
vn 0.0002 0.9997 0.0247
vn 1.0000 -0.0024 -0.0002
vn 0.0003 0.9994 0.0359
vn 1.0000 -0.0031 -0.0002
vn -0.0003 -0.9994 -0.0357
vn -1.0000 -0.0028 -0.0001
vn -1.0000 -0.0018 -0.0001
vn -1.0000 -0.0031 0.0002
vn -0.0001 0.9999 -0.0134
vn -1.0000 -0.0022 0.0001
vn 0.0002 -0.9997 0.0245
vn 0.0001 -0.9999 0.0134
vn 1.0000 -0.0020 0.0001
vn 1.0000 -0.0028 0.0001
vn -1.0000 -0.0039 -0.0000
vn -0.9998 0.0184 0.0007
vn 0.0072 0.9992 0.0405
vn 0.0063 -0.9992 -0.0405
vn 0.9998 0.0180 0.0007
vn -0.0002 -0.9997 -0.0245
vn -1.0000 -0.0024 0.0002
vn -0.0002 0.9997 -0.0247
vn 0.0003 -0.9994 0.0357
vn 1.0000 -0.0018 0.0001
vn -0.0003 0.9994 -0.0359
vn 0.9998 0.0184 -0.0007
vn -0.0063 -0.9992 0.0405
vn -0.9998 0.0180 -0.0007
vn -0.0072 0.9992 -0.0405
vt 0.988422 0.012220
vt 0.988422 0.012053
vt 0.988422 0.012137
vt 0.997748 0.012137
vt 0.997748 0.012137
vt 0.997748 0.012220
vt 0.994251 0.007969
vt 0.993085 0.007648
vt 0.994251 0.008053
vt 0.993085 0.007480
vt 0.994251 0.007886
vt 0.993085 0.007564
vt 0.994251 0.007969
vt 0.995417 0.008892
vt 0.996582 0.010256
vt 0.996582 0.010339
vt 0.995417 0.008809
vt 0.996582 0.010172
vt 0.995417 0.008809
vt 0.996582 0.010256
vt 0.990754 0.008809
vt 0.991919 0.008053
vt 0.991919 0.007969
vt 0.990754 0.008725
vt 0.991919 0.007886
vt 0.991919 0.007969
vt 0.990754 0.008809
vt 0.997748 0.012053
vt 0.995417 0.008725
vt 0.989588 0.010256
vt 0.990754 0.008892
vt 0.989588 0.010172
vt 0.989588 0.010339
vt 0.988422 0.012137
s 1
usemtl Catenary
f 2/1/1 6/2/1 4/3/1
f 3/4/2 7/5/2 1/6/2
f 32/7/3 9/8/4 25/9/5
f 11/10/6 32/7/3 31/11/7
f 10/12/8 31/11/7 30/13/9
f 25/9/5 10/12/8 30/13/9
f 17/14/10 22/15/11 33/16/12
f 14/17/13 23/18/14 22/15/11
f 23/18/14 16/19/15 24/20/16
f 24/20/16 17/14/10 33/16/12
f 20/21/17 29/22/18 28/23/19
f 19/24/20 28/23/19 27/25/21
f 26/26/22 19/24/20 27/25/21
f 29/22/18 18/27/23 26/26/22
f 9/8/4 26/26/22 10/12/8
f 26/26/22 11/10/6 10/12/8
f 27/25/21 12/12/24 11/10/6
f 12/12/24 29/22/18 9/8/4
f 7/5/25 33/16/12 1/6/26
f 5/28/27 24/20/16 7/5/25
f 22/15/11 5/28/27 3/4/28
f 33/16/12 3/4/28 1/6/26
f 25/9/5 14/17/13 17/14/10
f 30/13/9 15/29/29 14/17/13
f 15/29/29 32/7/3 16/19/15
f 16/19/15 25/9/5 17/14/10
f 36/30/30 13/31/31 20/21/17
f 35/32/32 20/21/17 19/24/20
f 18/27/23 35/32/32 19/24/20
f 13/31/31 34/30/33 18/27/23
f 21/33/34 4/3/35 34/30/33
f 34/30/33 6/2/36 35/32/32
f 6/2/36 36/30/30 35/32/32
f 8/34/37 21/33/34 36/30/30
f 2/1/1 8/34/1 6/2/1
f 3/4/2 5/28/2 7/5/2
f 32/7/3 12/12/24 9/8/4
f 11/10/6 12/12/24 32/7/3
f 10/12/8 11/10/6 31/11/7
f 25/9/5 9/8/4 10/12/8
f 17/14/10 14/17/13 22/15/11
f 14/17/13 15/29/29 23/18/14
f 23/18/14 15/29/29 16/19/15
f 24/20/16 16/19/15 17/14/10
f 20/21/17 13/31/31 29/22/18
f 19/24/20 20/21/17 28/23/19
f 26/26/22 18/27/23 19/24/20
f 29/22/18 13/31/31 18/27/23
f 9/8/4 29/22/18 26/26/22
f 26/26/22 27/25/21 11/10/6
f 27/25/21 28/23/19 12/12/24
f 12/12/24 28/23/19 29/22/18
f 7/5/25 24/20/16 33/16/12
f 5/28/27 23/18/14 24/20/16
f 22/15/11 23/18/14 5/28/27
f 33/16/12 22/15/11 3/4/28
f 25/9/5 30/13/9 14/17/13
f 30/13/9 31/11/7 15/29/29
f 15/29/29 31/11/7 32/7/3
f 16/19/15 32/7/3 25/9/5
f 36/30/30 21/33/34 13/31/31
f 35/32/32 36/30/30 20/21/17
f 18/27/23 34/30/33 35/32/32
f 13/31/31 21/33/34 34/30/33
f 21/33/34 2/1/38 4/3/35
f 34/30/33 4/3/35 6/2/36
f 6/2/36 8/34/37 36/30/30
f 8/34/37 2/1/38 21/33/34
o Contact1
v 0.017357 6.008998 -0.007509
v 0.017507 6.009002 40.006989
v 0.026356 5.999999 -0.007645
v 0.026506 6.000001 40.006851
v 0.017357 5.990998 -0.007509
v 0.017507 5.991002 40.006989
v 0.008358 5.999999 -0.007374
v 0.008508 6.000001 40.007122
vn 0.0066 1.0000 -0.0000
vn 1.0000 -0.0000 -0.0000
vn 0.0066 -1.0000 -0.0000
vn 0.0150 -0.0000 0.9999
vn -0.0066 -1.0000 -0.0000
vn -1.0000 -0.0000 -0.0000
vn -0.0066 1.0000 -0.0000
vn -0.0150 -0.0000 -0.9999
vt 0.997748 0.003062
vt 0.988422 0.002978
vt 0.997748 0.002978
vt 0.997748 0.002895
vt 0.988422 0.003062
vt 0.988422 0.002895
vt 0.997748 0.002978
vt 0.988422 0.002978
s 1
usemtl Catenary
f 37/35/39 40/36/40 39/37/40
f 40/36/40 41/38/41 39/37/40
f 38/39/42 42/40/42 40/36/42
f 42/40/43 43/41/44 41/38/41
f 43/41/44 38/39/45 37/35/39
f 37/35/46 41/38/46 43/41/46
f 37/35/39 38/39/45 40/36/40
f 40/36/40 42/40/43 41/38/41
f 38/39/42 44/42/42 42/40/42
f 42/40/43 44/42/44 43/41/44
f 43/41/44 44/42/44 38/39/45
f 37/35/46 39/37/46 41/38/46
o Dropper1
v -0.013605 6.001013 19.991528
v -0.000131 6.493850 19.991325
v 0.022566 6.001013 19.999987
v 0.009003 6.493850 20.000189
v -0.013335 6.001013 20.009525
v 0.000139 6.493850 20.009323
v -0.022469 6.001013 20.000662
v -0.008995 6.493850 20.000460
v -0.000131 6.199751 19.991325
v 0.000139 6.199751 20.009323
v 0.013702 6.001013 20.009119
v 0.013432 6.001013 19.991121
v 0.009003 6.199751 20.000189
v -0.008995 6.199751 20.000460
vn -0.0150 -0.0000 -0.9999
vn 0.9993 0.0346 -0.0150
vn -0.0150 -0.0153 -0.9998
vn 0.9999 -0.0000 -0.0150
vn 0.0150 -0.0153 0.9998
vn -0.0000 1.0000 -0.0000
vn 0.0150 -0.0000 0.9999
vn -0.9993 0.0344 0.0150
vn -0.9999 -0.0000 0.0150
vn -0.0000 -1.0000 -0.0000
vn 0.3616 -0.0236 0.9320
vn -0.3614 -0.0237 -0.9321
vn -0.3333 -0.0237 0.9425
vn 0.9976 0.0681 -0.0150
vn 0.3335 -0.0236 -0.9425
vn -0.9976 0.0677 0.0150
vt 0.970407 0.009851
vt 0.970403 0.004753
vt 0.970407 0.004753
vt 0.970403 0.009851
vt 0.970399 0.004753
vt 0.970399 0.009851
vt 0.970403 0.004753
vt 0.970403 0.009851
vt 0.970407 0.001308
vt 0.970403 0.001308
vt 0.970399 0.001308
vt 0.970403 0.001308
vt 0.970407 0.001308
vt 0.970399 0.001308
s 1
usemtl Catenary
f 46/43/47 57/44/48 53/45/49
f 48/46/50 54/47/51 57/44/48
f 46/43/52 50/48/52 48/46/52
f 50/48/53 58/49/54 54/47/51
f 52/50/55 53/45/49 58/49/54
f 56/51/56 47/52/56 55/53/56
f 51/54/56 45/55/56 49/56/56
f 49/56/57 53/45/49 54/47/51
f 54/47/51 56/51/58 55/53/59
f 57/44/48 55/53/59 47/52/60
f 56/51/58 57/44/48 47/52/60
f 58/49/54 45/55/61 51/54/62
f 49/56/57 58/49/54 51/54/62
f 46/43/47 48/46/50 57/44/48
f 48/46/50 50/48/53 54/47/51
f 46/43/52 52/50/52 50/48/52
f 50/48/53 52/50/55 58/49/54
f 52/50/55 46/43/47 53/45/49
f 49/56/57 45/55/61 53/45/49
f 54/47/51 53/45/49 56/51/58
f 57/44/48 54/47/51 55/53/59
f 56/51/58 53/45/49 57/44/48
f 58/49/54 53/45/49 45/55/61
f 49/56/57 54/47/51 58/49/54
o Contact2
v -0.017627 6.008998 -0.006985
v -0.017477 6.009002 40.007511
v -0.008628 5.999999 -0.007120
v -0.008478 6.000001 40.007378
v -0.017627 5.990998 -0.006985
v -0.017477 5.991002 40.007511
v -0.026626 5.999999 -0.006849
v -0.026476 6.000001 40.007645
vn 0.0066 1.0000 -0.0000
vn 1.0000 -0.0000 -0.0000
vn 0.0066 -1.0000 -0.0000
vn 0.0150 -0.0000 0.9999
vn -0.0066 -1.0000 -0.0000
vn -1.0000 -0.0000 -0.0000
vn -0.0066 1.0000 -0.0000
vn -0.0150 -0.0000 -0.9999
vt 0.997748 0.003062
vt 0.988422 0.002978
vt 0.997748 0.002978
vt 0.997748 0.002895
vt 0.988422 0.003062
vt 0.988422 0.002895
vt 0.997748 0.002978
vt 0.988422 0.002978
s 1
usemtl Catenary
f 59/57/63 62/58/64 61/59/64
f 62/58/64 63/60/65 61/59/64
f 60/61/66 64/62/66 62/58/66
f 64/62/67 65/63/68 63/60/65
f 65/63/68 60/61/69 59/57/63
f 59/57/70 63/60/70 65/63/70
f 59/57/63 60/61/69 62/58/64
f 62/58/64 64/62/67 63/60/65
f 60/61/66 66/64/66 64/62/66
f 64/62/67 66/64/68 65/63/68
f 65/63/68 66/64/68 60/61/69
f 59/57/70 61/59/70 63/60/70
o Dropper2
v -0.013605 6.001013 24.993004
v -0.000131 6.537673 24.992802
v 0.022566 6.001013 25.001463
v 0.009003 6.537673 25.001665
v -0.013335 6.001013 25.011002
v 0.000139 6.537673 25.010799
v -0.022469 6.001013 25.002138
v -0.008995 6.537673 25.001936
v -0.000131 6.199751 24.992802
v 0.000139 6.199751 25.010799
v 0.013702 6.001013 25.010595
v 0.013432 6.001013 24.992598
v 0.009003 6.199751 25.001665
v -0.008995 6.199751 25.001936
vn -0.0150 -0.0000 -0.9999
vn 0.9993 0.0346 -0.0150
vn -0.0150 -0.0153 -0.9998
vn 0.9999 -0.0000 -0.0150
vn 0.0150 -0.0153 0.9998
vn -0.0000 1.0000 -0.0000
vn 0.0150 -0.0000 0.9999
vn -0.9993 0.0344 0.0150
vn -0.9999 -0.0000 0.0150
vn -0.0000 -1.0000 -0.0000
vn 0.3616 -0.0236 0.9320
vn -0.3614 -0.0237 -0.9321
vn -0.3333 -0.0237 0.9425
vn 0.9976 0.0681 -0.0150
vn 0.3335 -0.0236 -0.9425
vn -0.9976 0.0677 0.0150
vt 0.976279 0.010611
vt 0.976275 0.004753
vt 0.976279 0.004753
vt 0.976275 0.010611
vt 0.976271 0.004753
vt 0.976271 0.010611
vt 0.976275 0.004753
vt 0.976275 0.010611
vt 0.976279 0.001308
vt 0.976275 0.001308
vt 0.976271 0.001308
vt 0.976275 0.001308
vt 0.976279 0.001308
vt 0.976271 0.001308
s 1
usemtl Catenary
f 68/65/71 79/66/72 75/67/73
f 70/68/74 76/69/75 79/66/72
f 68/65/76 72/70/76 70/68/76
f 72/70/77 80/71/78 76/69/75
f 74/72/79 75/67/73 80/71/78
f 78/73/80 69/74/80 77/75/80
f 73/76/80 67/77/80 71/78/80
f 71/78/81 75/67/73 76/69/75
f 76/69/75 78/73/82 77/75/83
f 79/66/72 77/75/83 69/74/84
f 78/73/82 79/66/72 69/74/84
f 80/71/78 67/77/85 73/76/86
f 71/78/81 80/71/78 73/76/86
f 68/65/71 70/68/74 79/66/72
f 70/68/74 72/70/77 76/69/75
f 68/65/76 74/72/76 72/70/76
f 72/70/77 74/72/79 80/71/78
f 74/72/79 68/65/71 75/67/73
f 71/78/81 67/77/85 75/67/73
f 76/69/75 75/67/73 78/73/82
f 79/66/72 76/69/75 77/75/83
f 78/73/82 75/67/73 79/66/72
f 80/71/78 75/67/73 67/77/85
f 71/78/81 76/69/75 80/71/78
o Dropper3
v -0.013605 6.001013 14.989304
v -0.000131 6.537673 14.989101
v 0.022566 6.001013 14.997762
v 0.009003 6.537673 14.997965
v -0.013335 6.001013 15.007301
v 0.000139 6.537673 15.007099
v -0.022469 6.001013 14.998437
v -0.008995 6.537673 14.998236
v -0.000131 6.199751 14.989101
v 0.000139 6.199751 15.007099
v 0.013702 6.001013 15.006896
v 0.013432 6.001013 14.988898
v 0.009003 6.199751 14.997965
v -0.008995 6.199751 14.998236
vn -0.0150 -0.0000 -0.9999
vn 0.9993 0.0346 -0.0150
vn -0.0150 -0.0153 -0.9998
vn 0.9999 -0.0000 -0.0150
vn 0.0150 -0.0153 0.9998
vn -0.0000 1.0000 -0.0000
vn 0.0150 -0.0000 0.9999
vn -0.9993 0.0344 0.0150
vn -0.9999 -0.0000 0.0150
vn -0.0000 -1.0000 -0.0000
vn 0.3616 -0.0236 0.9320
vn -0.3614 -0.0237 -0.9321
vn -0.3333 -0.0237 0.9425
vn 0.9976 0.0681 -0.0150
vn 0.3335 -0.0236 -0.9425
vn -0.9976 0.0677 0.0150
vt 0.976279 0.010611
vt 0.976275 0.004753
vt 0.976279 0.004753
vt 0.976275 0.010611
vt 0.976271 0.004753
vt 0.976271 0.010611
vt 0.976275 0.004753
vt 0.976275 0.010611
vt 0.976279 0.001308
vt 0.976275 0.001308
vt 0.976271 0.001308
vt 0.976275 0.001308
vt 0.976279 0.001308
vt 0.976271 0.001308
s 1
usemtl Catenary
f 82/79/87 93/80/88 89/81/89
f 84/82/90 90/83/91 93/80/88
f 82/79/92 86/84/92 84/82/92
f 86/84/93 94/85/94 90/83/91
f 88/86/95 89/81/89 94/85/94
f 92/87/96 83/88/96 91/89/96
f 87/90/96 81/91/96 85/92/96
f 85/92/97 89/81/89 90/83/91
f 90/83/91 92/87/98 91/89/99
f 93/80/88 91/89/99 83/88/100
f 92/87/98 93/80/88 83/88/100
f 94/85/94 81/91/101 87/90/102
f 85/92/97 94/85/94 87/90/102
f 82/79/87 84/82/90 93/80/88
f 84/82/90 86/84/93 90/83/91
f 82/79/92 88/86/92 86/84/92
f 86/84/93 88/86/95 94/85/94
f 88/86/95 82/79/87 89/81/89
f 85/92/97 81/91/101 89/81/89
f 90/83/91 89/81/89 92/87/98
f 93/80/88 90/83/91 91/89/99
f 92/87/98 89/81/89 93/80/88
f 94/85/94 89/81/89 81/91/101
f 85/92/97 90/83/91 94/85/94
o Dropper4
v -0.013605 6.001013 9.987574
v -0.000131 6.628192 9.987371
v 0.022566 6.001013 9.996032
v 0.009003 6.628192 9.996235
v -0.013335 6.001013 10.005571
v 0.000139 6.628192 10.005369
v -0.022469 6.001013 9.996707
v -0.008995 6.628192 9.996506
v -0.000131 6.199751 9.987371
v 0.000139 6.199751 10.005369
v 0.013702 6.001013 10.005166
v 0.013432 6.001013 9.987168
v 0.009003 6.199751 9.996235
v -0.008995 6.199751 9.996506
vn -0.0150 -0.0000 -0.9999
vn 0.9993 0.0346 -0.0150
vn -0.0150 -0.0153 -0.9998
vn 0.9999 -0.0000 -0.0150
vn 0.0150 -0.0153 0.9998
vn -0.0000 1.0000 -0.0000
vn 0.0150 -0.0000 0.9999
vn -0.9993 0.0344 0.0150
vn -0.9999 -0.0000 0.0150
vn -0.0000 -1.0000 -0.0000
vn 0.3616 -0.0236 0.9320
vn -0.3614 -0.0237 -0.9321
vn -0.3333 -0.0237 0.9425
vn 0.9976 0.0681 -0.0150
vn 0.3335 -0.0236 -0.9425
vn -0.9976 0.0677 0.0150
vt 0.983058 0.012180
vt 0.983054 0.004753
vt 0.983058 0.004753
vt 0.983054 0.012180
vt 0.983050 0.004753
vt 0.983050 0.012180
vt 0.983054 0.004753
vt 0.983054 0.012180
vt 0.983058 0.001308
vt 0.983054 0.001308
vt 0.983050 0.001308
vt 0.983054 0.001308
vt 0.983058 0.001308
vt 0.983050 0.001308
s 1
usemtl Catenary
f 96/93/103 107/94/104 103/95/105
f 98/96/106 104/97/107 107/94/104
f 96/93/108 100/98/108 98/96/108
f 100/98/109 108/99/110 104/97/107
f 102/100/111 103/95/105 108/99/110
f 106/101/112 97/102/112 105/103/112
f 101/104/112 95/105/112 99/106/112
f 99/106/113 103/95/105 104/97/107
f 104/97/107 106/101/114 105/103/115
f 106/101/114 107/94/104 97/102/116
f 108/99/110 95/105/117 101/104/118
f 99/106/113 108/99/110 101/104/118
f 107/94/104 105/103/115 97/102/116
f 96/93/103 98/96/106 107/94/104
f 98/96/106 100/98/109 104/97/107
f 96/93/108 102/100/108 100/98/108
f 100/98/109 102/100/111 108/99/110
f 102/100/111 96/93/103 103/95/105
f 99/106/113 95/105/117 103/95/105
f 104/97/107 103/95/105 106/101/114
f 106/101/114 103/95/105 107/94/104
f 108/99/110 103/95/105 95/105/117
f 99/106/113 104/97/107 108/99/110
f 107/94/104 104/97/107 105/103/115
o Dropper5
v -0.013605 6.001013 29.994802
v -0.000131 6.628192 29.994600
v 0.022566 6.001013 30.003262
v 0.009003 6.628192 30.003464
v -0.013335 6.001013 30.012800
v 0.000139 6.628192 30.012598
v -0.022469 6.001013 30.003937
v -0.008995 6.628192 30.003735
v -0.000131 6.199751 29.994600
v 0.000139 6.199751 30.012598
v 0.013702 6.001013 30.012394
v 0.013432 6.001013 29.994396
v 0.009003 6.199751 30.003464
v -0.008995 6.199751 30.003735
vn -0.0150 -0.0000 -0.9999
vn 0.9993 0.0346 -0.0150
vn -0.0150 -0.0153 -0.9998
vn 0.9999 -0.0000 -0.0150
vn 0.0150 -0.0153 0.9998
vn -0.0000 1.0000 -0.0000
vn 0.0150 -0.0000 0.9999
vn -0.9993 0.0344 0.0150
vn -0.9999 -0.0000 0.0150
vn -0.0000 -1.0000 -0.0000
vn 0.3616 -0.0236 0.9320
vn -0.3614 -0.0237 -0.9321
vn -0.3333 -0.0237 0.9425
vn 0.9976 0.0681 -0.0150
vn 0.3335 -0.0236 -0.9425
vn -0.9976 0.0677 0.0150
vt 0.983058 0.012180
vt 0.983054 0.004753
vt 0.983058 0.004753
vt 0.983054 0.012180
vt 0.983050 0.004753
vt 0.983050 0.012180
vt 0.983054 0.004753
vt 0.983054 0.012180
vt 0.983058 0.001308
vt 0.983054 0.001308
vt 0.983050 0.001308
vt 0.983054 0.001308
vt 0.983058 0.001308
vt 0.983050 0.001308
s 1
usemtl Catenary
f 110/107/119 121/108/120 117/109/121
f 112/110/122 118/111/123 121/108/120
f 110/107/124 114/112/124 112/110/124
f 114/112/125 122/113/126 118/111/123
f 116/114/127 117/109/121 122/113/126
f 120/115/128 111/116/128 119/117/128
f 115/118/128 109/119/128 113/120/128
f 113/120/129 117/109/121 118/111/123
f 118/111/123 120/115/130 119/117/131
f 120/115/130 121/108/120 111/116/132
f 122/113/126 109/119/133 115/118/134
f 113/120/129 122/113/126 115/118/134
f 121/108/120 119/117/131 111/116/132
f 110/107/119 112/110/122 121/108/120
f 112/110/122 114/112/125 118/111/123
f 110/107/124 116/114/124 114/112/124
f 114/112/125 116/114/127 122/113/126
f 116/114/127 110/107/119 117/109/121
f 113/120/129 109/119/133 117/109/121
f 118/111/123 117/109/121 120/115/130
f 120/115/130 117/109/121 121/108/120
f 122/113/126 117/109/121 109/119/133
f 113/120/129 118/111/123 122/113/126
f 121/108/120 118/111/123 119/117/131
o Dropper6
v -0.013605 6.001013 34.996502
v -0.000131 6.783418 34.996300
v 0.022566 6.001013 35.004959
v 0.009003 6.783418 35.005165
v -0.013335 6.001013 35.014500
v 0.000139 6.783418 35.014297
v -0.022469 6.001013 35.005634
v -0.008995 6.783418 35.005432
v -0.000131 6.199751 34.996300
v 0.000139 6.199751 35.014297
v 0.013702 6.001013 35.014095
v 0.013432 6.001013 34.996098
v 0.009003 6.199751 35.005165
v -0.008995 6.199751 35.005432
vn -0.0150 -0.0000 -0.9999
vn 0.9993 0.0346 -0.0150
vn -0.0150 -0.0153 -0.9998
vn 0.9999 -0.0000 -0.0150
vn 0.0150 -0.0153 0.9998
vn -0.0000 1.0000 -0.0000
vn 0.0150 -0.0000 0.9999
vn -0.9993 0.0344 0.0150
vn -0.9999 -0.0000 0.0150
vn -0.0000 -1.0000 -0.0000
vn 0.3616 -0.0236 0.9320
vn -0.3614 -0.0237 -0.9321
vn -0.3333 -0.0237 0.9425
vn 0.9976 0.0681 -0.0150
vn 0.3335 -0.0236 -0.9425
vn -0.9976 0.0677 0.0150
vt 0.971760 0.014870
vt 0.971756 0.004753
vt 0.971760 0.004753
vt 0.971756 0.014870
vt 0.971752 0.004753
vt 0.971752 0.014870
vt 0.971756 0.004753
vt 0.971756 0.014870
vt 0.971760 0.001308
vt 0.971756 0.001308
vt 0.971752 0.001308
vt 0.971756 0.001308
vt 0.971760 0.001308
vt 0.971752 0.001308
s 1
usemtl Catenary
f 124/121/135 135/122/136 131/123/137
f 126/124/138 132/125/139 135/122/136
f 124/121/140 128/126/140 126/124/140
f 128/126/141 136/127/142 132/125/139
f 130/128/143 131/123/137 136/127/142
f 134/129/144 125/130/144 133/131/144
f 129/132/144 123/133/144 127/134/144
f 127/134/145 131/123/137 132/125/139
f 132/125/139 134/129/146 133/131/147
f 135/122/136 133/131/147 125/130/148
f 134/129/146 135/122/136 125/130/148
f 136/127/142 123/133/149 129/132/150
f 127/134/145 136/127/142 129/132/150
f 124/121/135 126/124/138 135/122/136
f 126/124/138 128/126/141 132/125/139
f 124/121/140 130/128/140 128/126/140
f 128/126/141 130/128/143 136/127/142
f 130/128/143 124/121/135 131/123/137
f 127/134/145 123/133/149 131/123/137
f 132/125/139 131/123/137 134/129/146
f 135/122/136 132/125/139 133/131/147
f 134/129/146 131/123/137 135/122/136
f 136/127/142 131/123/137 123/133/149
f 127/134/145 132/125/139 136/127/142
o Dropper7
v -0.013605 6.001013 4.985763
v -0.000131 6.783418 4.985561
v 0.022566 6.001013 4.994221
v 0.009003 6.783418 4.994425
v -0.013335 6.001013 5.003761
v 0.000139 6.783418 5.003559
v -0.022469 6.001013 4.994897
v -0.008995 6.783418 4.994695
v -0.000131 6.199751 4.985561
v 0.000139 6.199751 5.003559
v 0.013702 6.001013 5.003356
v 0.013432 6.001013 4.985357
v 0.009003 6.199751 4.994425
v -0.008995 6.199751 4.994695
vn -0.0150 -0.0000 -0.9999
vn 0.9993 0.0346 -0.0150
vn -0.0150 -0.0153 -0.9998
vn 0.9999 -0.0000 -0.0150
vn 0.0150 -0.0153 0.9998
vn -0.0000 1.0000 -0.0000
vn 0.0150 -0.0000 0.9999
vn -0.9993 0.0344 0.0150
vn -0.9999 -0.0000 0.0150
vn -0.0000 -1.0000 -0.0000
vn 0.3616 -0.0236 0.9320
vn -0.3614 -0.0237 -0.9321
vn -0.3333 -0.0237 0.9425
vn 0.9976 0.0681 -0.0150
vn 0.3335 -0.0236 -0.9425
vn -0.9976 0.0677 0.0150
vt 0.971760 0.014870
vt 0.971756 0.004753
vt 0.971760 0.004753
vt 0.971756 0.014870
vt 0.971752 0.004753
vt 0.971752 0.014870
vt 0.971756 0.004753
vt 0.971756 0.014870
vt 0.971760 0.001308
vt 0.971756 0.001308
vt 0.971752 0.001308
vt 0.971756 0.001308
vt 0.971760 0.001308
vt 0.971752 0.001308
s 1
usemtl Catenary
f 138/135/151 149/136/152 145/137/153
f 140/138/154 146/139/155 149/136/152
f 138/135/156 142/140/156 140/138/156
f 142/140/157 150/141/158 146/139/155
f 144/142/159 145/137/153 150/141/158
f 148/143/160 139/144/160 147/145/160
f 143/146/160 137/147/160 141/148/160
f 141/148/161 145/137/153 146/139/155
f 146/139/155 148/143/162 147/145/163
f 149/136/152 147/145/163 139/144/164
f 148/143/162 149/136/152 139/144/164
f 150/141/158 137/147/165 143/146/166
f 141/148/161 150/141/158 143/146/166
f 138/135/151 140/138/154 149/136/152
f 140/138/154 142/140/157 146/139/155
f 138/135/156 144/142/156 142/140/156
f 142/140/157 144/142/159 150/141/158
f 144/142/159 138/135/151 145/137/153
f 141/148/161 137/147/165 145/137/153
f 146/139/155 145/137/153 148/143/162
f 149/136/152 146/139/155 147/145/163
f 148/143/162 145/137/153 149/136/152
f 150/141/158 145/137/153 137/147/165
f 141/148/161 146/139/155 150/141/158
o StitchDropper1
v -0.013605 6.001013 37.991203
v -0.000131 6.493850 37.991001
v 0.022566 6.001013 37.999660
v 0.009003 6.493850 37.999866
v -0.013335 6.001013 38.009201
v 0.000139 6.493850 38.008999
v -0.022469 6.001013 38.000336
v -0.008995 6.493850 38.000134
v -0.000131 6.199751 37.991001
v 0.000139 6.199751 38.008999
v 0.013702 6.001013 38.008797
v 0.013432 6.001013 37.990799
v 0.009003 6.199751 37.999866
v -0.008995 6.199751 38.000134
vn -0.0150 -0.0000 -0.9999
vn 0.9993 0.0346 -0.0150
vn -0.0150 -0.0153 -0.9998
vn 0.9999 -0.0000 -0.0150
vn 0.0150 -0.0153 0.9998
vn -0.0000 1.0000 -0.0000
vn 0.0150 -0.0000 0.9999
vn -0.9993 0.0344 0.0150
vn -0.9999 -0.0000 0.0150
vn -0.0000 -1.0000 -0.0000
vn 0.3616 -0.0236 0.9320
vn -0.3614 -0.0237 -0.9321
vn -0.3333 -0.0237 0.9425
vn 0.9976 0.0681 -0.0150
vn 0.3335 -0.0236 -0.9425
vn -0.9976 0.0677 0.0150
vt 0.970407 0.009851
vt 0.970403 0.004753
vt 0.970407 0.004753
vt 0.970403 0.009851
vt 0.970399 0.004753
vt 0.970399 0.009851
vt 0.970403 0.004753
vt 0.970403 0.009851
vt 0.970407 0.001308
vt 0.970403 0.001308
vt 0.970399 0.001308
vt 0.970403 0.001308
vt 0.970407 0.001308
vt 0.970399 0.001308
s 1
usemtl Catenary
f 152/149/167 163/150/168 159/151/169
f 154/152/170 160/153/171 163/150/168
f 152/149/172 156/154/172 154/152/172
f 156/154/173 164/155/174 160/153/171
f 158/156/175 159/151/169 164/155/174
f 162/157/176 153/158/176 161/159/176
f 157/160/176 151/161/176 155/162/176
f 155/162/177 159/151/169 160/153/171
f 160/153/171 162/157/178 161/159/179
f 163/150/168 161/159/179 153/158/180
f 162/157/178 163/150/168 153/158/180
f 164/155/174 151/161/181 157/160/182
f 155/162/177 164/155/174 157/160/182
f 152/149/167 154/152/170 163/150/168
f 154/152/170 156/154/173 160/153/171
f 152/149/172 158/156/172 156/154/172
f 156/154/173 158/156/175 164/155/174
f 158/156/175 152/149/167 159/151/169
f 155/162/177 151/161/181 159/151/169
f 160/153/171 159/151/169 162/157/178
f 163/150/168 160/153/171 161/159/179
f 162/157/178 159/151/169 163/150/168
f 164/155/174 159/151/169 151/161/181
f 155/162/177 160/153/171 164/155/174
o StitchDropper2
v -0.013605 6.001013 1.991203
v -0.000131 6.493850 1.991001
v 0.022566 6.001013 1.999662
v 0.009003 6.493850 1.999865
v -0.013335 6.001013 2.009201
v 0.000139 6.493850 2.008999
v -0.022469 6.001013 2.000337
v -0.008995 6.493850 2.000135
v -0.000131 6.199751 1.991001
v 0.000139 6.199751 2.008999
v 0.013702 6.001013 2.008795
v 0.013432 6.001013 1.990798
v 0.009003 6.199751 1.999865
v -0.008995 6.199751 2.000135
vn -0.0150 -0.0000 -0.9999
vn 0.9993 0.0346 -0.0150
vn -0.0150 -0.0153 -0.9998
vn 0.9999 -0.0000 -0.0150
vn 0.0150 -0.0153 0.9998
vn -0.0000 1.0000 -0.0000
vn 0.0150 -0.0000 0.9999
vn -0.9993 0.0344 0.0150
vn -0.9999 -0.0000 0.0150
vn -0.0000 -1.0000 -0.0000
vn 0.3616 -0.0236 0.9320
vn -0.3614 -0.0237 -0.9321
vn -0.3333 -0.0237 0.9425
vn 0.9976 0.0681 -0.0150
vn 0.3335 -0.0236 -0.9425
vn -0.9976 0.0677 0.0150
vt 0.970407 0.009851
vt 0.970403 0.004753
vt 0.970407 0.004753
vt 0.970403 0.009851
vt 0.970399 0.004753
vt 0.970399 0.009851
vt 0.970403 0.004753
vt 0.970403 0.009851
vt 0.970407 0.001308
vt 0.970403 0.001308
vt 0.970399 0.001308
vt 0.970403 0.001308
vt 0.970407 0.001308
vt 0.970399 0.001308
s 1
usemtl Catenary
f 166/163/183 177/164/184 173/165/185
f 168/166/186 174/167/187 177/164/184
f 166/163/188 170/168/188 168/166/188
f 170/168/189 178/169/190 174/167/187
f 172/170/191 173/165/185 178/169/190
f 176/171/192 167/172/192 175/173/192
f 171/174/192 165/175/192 169/176/192
f 169/176/193 173/165/185 174/167/187
f 174/167/187 176/171/194 175/173/195
f 177/164/184 175/173/195 167/172/196
f 176/171/194 177/164/184 167/172/196
f 178/169/190 165/175/197 171/174/198
f 169/176/193 178/169/190 171/174/198
f 166/163/183 168/166/186 177/164/184
f 168/166/186 170/168/189 174/167/187
f 166/163/188 172/170/188 170/168/188
f 170/168/189 172/170/191 178/169/190
f 172/170/191 166/163/183 173/165/185
f 169/176/193 165/175/197 173/165/185
f 174/167/187 173/165/185 176/171/194
f 177/164/184 174/167/187 175/173/195
f 176/171/194 173/165/185 177/164/184
f 178/169/190 173/165/185 165/175/197
f 169/176/193 174/167/187 178/169/190
o StitchWire1
v 0.000172 6.502542 40.007248
v 0.009171 6.493540 40.007107
v 0.000172 6.484542 40.007248
v -0.008827 6.493542 40.007381
v 0.000153 6.775814 35.005436
v 0.009152 6.766814 35.005299
v 0.000153 6.757814 35.005436
v -0.008846 6.766814 35.005569
v 0.000162 6.503176 37.999920
v 0.009161 6.494176 37.999786
v 0.000162 6.485176 37.999920
v -0.008837 6.494176 38.000053
vn 0.0004 0.9989 0.0465
vn 1.0000 -0.0003 -0.0000
vn 0.9998 -0.0207 -0.0019
vn -0.0003 -0.9990 -0.0446
vn -0.0069 -1.0000 -0.0003
vn -0.9998 -0.0200 -0.0018
vn -0.0068 1.0000 0.0003
vn -0.9991 0.0412 0.0038
vn 0.0077 0.9959 0.0907
vn 0.0058 -0.9959 -0.0907
vn 0.9992 0.0404 0.0037
vn -1.0000 -0.0001 -0.0000
vt 0.970403 0.010013
vt 0.969496 0.009846
vt 0.970403 0.009857
vt 0.970403 0.009701
vt 0.969496 0.009690
vt 0.970403 0.009857
vt 0.969496 0.010002
vt 0.971756 0.014583
vt 0.971756 0.014739
vt 0.971756 0.014427
vt 0.971756 0.014583
vt 0.969496 0.009846
s 1
usemtl Catenary
f 187/177/199 180/178/200 188/179/201
f 180/178/200 189/180/202 188/179/201
f 181/181/203 190/182/204 189/180/202
f 190/182/204 179/183/205 187/177/199
f 186/184/206 187/177/199 183/185/207
f 185/186/208 190/182/204 186/184/206
f 188/179/201 185/186/208 184/187/209
f 187/177/199 184/187/209 183/185/207
f 187/177/199 179/183/205 180/178/200
f 180/178/200 181/181/203 189/180/202
f 181/181/203 182/188/210 190/182/204
f 190/182/204 182/188/210 179/183/205
f 186/184/206 190/182/204 187/177/199
f 185/186/208 189/180/202 190/182/204
f 188/179/201 189/180/202 185/186/208
f 187/177/199 188/179/201 184/187/209
o StitchWire2
v -0.000172 6.502542 -0.007246
v -0.009171 6.493540 -0.007107
v -0.000172 6.484542 -0.007246
v 0.008827 6.493542 -0.007381
v -0.000151 6.775814 4.994565
v -0.009150 6.766814 4.994700
v -0.000151 6.757814 4.994565
v 0.008848 6.766814 4.994431
v -0.000162 6.503176 2.000081
v -0.009161 6.494176 2.000216
v -0.000162 6.485176 2.000081
v 0.008837 6.494176 1.999946
vn -0.0004 0.9989 -0.0465
vn -1.0000 -0.0003 -0.0000
vn -0.9998 -0.0207 0.0019
vn 0.0003 -0.9990 0.0446
vn 0.0069 -1.0000 0.0003
vn 0.9998 -0.0200 0.0018
vn 0.0068 1.0000 -0.0003
vn 0.9991 0.0412 -0.0038
vn -0.0077 0.9959 -0.0907
vn -0.0058 -0.9959 0.0907
vn -0.9992 0.0404 -0.0037
vn 1.0000 -0.0001 -0.0000
vt 0.970403 0.010013
vt 0.969496 0.009846
vt 0.970403 0.009857
vt 0.970403 0.009701
vt 0.969496 0.009690
vt 0.970403 0.009857
vt 0.969496 0.010002
vt 0.971756 0.014583
vt 0.971756 0.014739
vt 0.971756 0.014427
vt 0.971756 0.014583
vt 0.969496 0.009846
s 1
usemtl Catenary
f 199/189/211 192/190/212 200/191/213
f 192/190/212 201/192/214 200/191/213
f 193/193/215 202/194/216 201/192/214
f 202/194/216 191/195/217 199/189/211
f 198/196/218 199/189/211 195/197/219
f 197/198/220 202/194/216 198/196/218
f 200/191/213 197/198/220 196/199/221
f 199/189/211 196/199/221 195/197/219
f 199/189/211 191/195/217 192/190/212
f 192/190/212 193/193/215 201/192/214
f 193/193/215 194/200/222 202/194/216
f 202/194/216 194/200/222 191/195/217
f 198/196/218 202/194/216 199/189/211
f 197/198/220 201/192/214 202/194/216
f 200/191/213 201/192/214 197/198/220
f 199/189/211 200/191/213 196/199/221
o AnchorWire
v 0.000097 6.026077 19.999998
v 0.009096 6.017077 19.999863
v 0.000097 6.008077 19.999998
v -0.008902 6.017077 20.000134
v 0.000078 6.530177 14.998186
v 0.009115 6.521177 25.001675
v 0.000116 6.512177 25.001810
v -0.008883 6.521177 25.001945
v 0.000116 6.530177 25.001810
v 0.009077 6.521176 14.998051
v 0.000078 6.512177 14.998186
v -0.008921 6.521176 14.998322
vn -0.0000 1.0000 -0.0000
vn 0.9990 -0.0451 -0.0001
vn -0.0000 -1.0000 -0.0000
vn -0.9990 -0.0451 0.0001
vn 0.0078 0.9949 0.1003
vn 0.9990 0.0455 -0.0046
vn -0.0056 -0.9949 0.1003
vn -0.9990 0.0447 -0.0045
vn -0.0078 0.9949 -0.1003
vn 0.9990 0.0447 0.0045
vn 0.0056 -0.9949 -0.1003
vn -0.9990 0.0455 0.0046
vt 0.980794 0.010325
vt 0.978535 0.001743
vt 0.980794 0.010481
vt 0.980794 0.010169
vt 0.978535 0.001587
vt 0.978535 0.001587
vt 0.980794 0.010325
vt 0.976275 0.010325
vt 0.976275 0.010169
vt 0.978535 0.001431
vt 0.976275 0.010325
vt 0.976275 0.010481
s 1
usemtl Catenary
f 214/201/234 203/202/223 207/203/227
f 213/204/233 206/205/226 214/201/234
f 204/206/224 213/204/233 212/207/232
f 203/202/223 212/207/232 207/203/227
f 203/202/223 208/208/228 204/206/224
f 204/206/224 209/209/229 205/210/225
f 209/209/229 206/205/226 205/210/225
f 210/211/230 203/202/223 206/205/226
f 214/201/234 206/205/226 203/202/223
f 213/204/233 205/210/225 206/205/226
f 204/206/224 205/210/225 213/204/233
f 203/202/223 204/206/224 212/207/232
f 203/202/223 211/212/231 208/208/228
f 204/206/224 208/208/228 209/209/229
f 209/209/229 210/211/230 206/205/226
f 210/211/230 211/212/231 203/202/223
