# Blender 5.0.1
# www.blender.org
mtllib wire_single_end.mtl
o StitchWire2.003
g wire_single_end
v -0.000172 6.502542 -0.007246
v -0.009171 6.493540 -0.007107
v -0.000172 6.484542 -0.007246
v 0.008827 6.493542 -0.007381
v -0.000151 6.775812 4.994565
v -0.009150 6.766811 4.994700
v -0.000151 6.757812 4.994565
v 0.008848 6.766811 4.994431
v -0.000162 6.503175 2.000081
v -0.009161 6.494175 2.000216
v -0.000162 6.485175 2.000081
v 0.008837 6.494175 1.999946
vn -0.0004 0.9989 -0.0465
vn -1.0000 -0.0003 -0.0000
vn -0.9998 -0.0207 0.0019
vn 0.0003 -0.9990 0.0446
vn 0.0069 -1.0000 0.0003
vn 0.9998 -0.0200 0.0018
vn 0.0068 1.0000 -0.0003
vn 0.9991 0.0412 -0.0038
vn -0.0077 0.9959 -0.0907
vn -0.0058 -0.9959 0.0907
vn -0.9992 0.0404 -0.0037
vn 1.0000 -0.0001 -0.0000
vt 0.970403 0.010013
vt 0.969496 0.009846
vt 0.970403 0.009857
vt 0.970403 0.009701
vt 0.969496 0.009690
vt 0.970403 0.009857
vt 0.969496 0.010002
vt 0.971756 0.014583
vt 0.971756 0.014739
vt 0.971756 0.014427
vt 0.971756 0.014583
vt 0.969496 0.009846
s 1
usemtl Catenary
f 9/1/1 2/2/2 10/3/3
f 2/2/2 11/4/4 10/3/3
f 3/5/5 12/6/6 11/4/4
f 12/6/6 1/7/7 9/1/1
f 8/8/8 9/1/1 5/9/9
f 7/10/10 12/6/6 8/8/8
f 10/3/3 7/10/10 6/11/11
f 9/1/1 6/11/11 5/9/9
f 9/1/1 1/7/7 2/2/2
f 2/2/2 3/5/5 11/4/4
f 3/5/5 4/12/12 12/6/6
f 12/6/6 4/12/12 1/7/7
f 8/8/8 12/6/6 9/1/1
f 7/10/10 11/4/4 12/6/6
f 10/3/3 11/4/4 7/10/10
f 9/1/1 10/3/3 6/11/11
o StitchDropper2.003
v -0.000131 6.493850 1.991001
v 0.009003 6.493850 1.999865
v 0.000139 6.493850 2.008999
v -0.008995 6.493850 2.000135
v -0.000131 6.000014 1.991001
v 0.000139 6.000014 2.008999
v 0.009003 6.000014 1.999865
v -0.008995 6.000014 2.000135
vn -0.0150 -0.0000 -0.9999
vn 0.9999 -0.0000 -0.0150
vn 0.0150 -0.0000 0.9999
vn -0.0000 1.0000 -0.0000
vn -0.9999 -0.0000 0.0150
vt 0.982385 0.009566
vt 0.982382 0.002719
vt 0.982385 0.002719
vt 0.982382 0.009566
vt 0.982378 0.002719
vt 0.982378 0.009566
vt 0.982382 0.002719
vt 0.982382 0.009566
s 1
usemtl Catenary
f 13/13/13 19/14/14 17/15/13
f 14/16/14 18/17/15 19/14/14
f 13/13/16 15/18/16 14/16/16
f 15/18/15 20/19/17 18/17/15
f 16/20/17 17/15/13 20/19/17
f 13/13/13 14/16/14 19/14/14
f 14/16/14 15/18/15 18/17/15
f 13/13/16 16/20/16 15/18/16
f 15/18/15 16/20/17 20/19/17
f 16/20/17 13/13/13 17/15/13
o Contact.001
v -0.000075 6.008989 -0.007509
v 0.000075 6.029011 37.583565
v 0.008924 5.999989 -0.007645
v 0.009074 6.020011 37.583427
v -0.000075 5.990989 -0.007509
v 0.000075 6.011011 37.583565
v -0.009074 5.999989 -0.007374
v -0.008924 6.020011 37.583702
v -0.000000 6.029000 4.994558
v 0.008999 6.020000 4.994423
v -0.000000 6.011000 4.994558
v -0.008999 6.020000 4.994693
v 0.000038 6.029006 35.005299
v 0.009037 6.020005 35.005161
v 0.000038 6.011005 35.005299
v -0.008961 6.020005 35.005432
vn 0.0150 -0.0000 0.9999
vn 0.0152 -0.0000 0.9999
vn -0.0150 -0.0000 -0.9999
vn -1.0000 -0.0018 -0.0000
vn -0.0000 1.0000 -0.0020
vn 0.0067 1.0000 -0.0040
vn -0.0000 -1.0000 0.0020
vn 0.0068 -1.0000 0.0040
vn 1.0000 0.0009 -0.0000
vn 1.0000 -0.0018 -0.0000
vn -1.0000 0.0009 -0.0000
vn -0.0067 1.0000 -0.0000
vn -0.0067 -1.0000 -0.0000
vn 1.0000 -0.0000 -0.0000
vn 0.0148 -0.0000 0.9999
vn -1.0000 -0.0000 -0.0000
vt 0.986423 0.012485
vt 0.986423 0.007687
vt 0.986423 0.010086
vt 0.996559 0.007148
vt 0.996559 0.002350
vt 0.996558 0.004749
vt 0.995210 0.012482
vt 0.995210 0.007684
vt 0.995210 0.010083
vt 0.996559 0.004749
vt 0.995210 0.010083
vt 0.987118 0.012483
vt 0.987118 0.007685
vt 0.987118 0.010084
vt 0.986423 0.010086
vt 0.987118 0.010084
s 1
usemtl Catenary
f 22/21/18 26/22/18 24/23/19
f 21/24/20 25/25/20 27/26/20
f 27/26/21 29/27/22 21/24/23
f 31/28/24 27/26/21 25/25/25
f 30/29/26 25/25/25 23/30/27
f 21/24/23 30/29/26 23/30/27
f 32/31/28 33/32/29 29/27/22
f 35/33/30 32/31/28 31/28/24
f 34/34/31 31/28/24 30/29/26
f 29/27/22 34/34/31 30/29/26
f 22/21/18 28/35/32 26/22/18
f 21/24/20 23/30/20 25/25/20
f 27/26/21 32/31/28 29/27/22
f 31/28/24 32/31/28 27/26/21
f 30/29/26 31/28/24 25/25/25
f 21/24/23 29/27/22 30/29/26
f 32/31/28 36/36/33 33/32/29
f 35/33/30 36/36/33 32/31/28
f 34/34/31 35/33/30 31/28/24
f 29/27/22 33/32/29 34/34/31
o Dropper1.003
v -0.000131 6.493850 19.991325
v 0.009003 6.493850 20.000189
v 0.000139 6.493850 20.009323
v -0.008995 6.493850 20.000460
v -0.000131 6.020014 19.991325
v 0.000139 6.020014 20.009323
v 0.009003 6.020014 20.000189
v -0.008995 6.020014 20.000460
vn -0.0150 -0.0000 -0.9999
vn 0.9999 -0.0000 -0.0150
vn 0.0150 -0.0000 0.9999
vn -0.0000 1.0000 -0.0000
vn -0.9999 -0.0000 0.0150
vt 0.975793 0.009012
vt 0.975788 0.001635
vt 0.975793 0.001635
vt 0.975788 0.009012
vt 0.975784 0.001635
vt 0.975784 0.009012
vt 0.975788 0.001635
vt 0.975788 0.009012
s 1
usemtl Catenary
f 37/37/34 43/38/35 41/39/34
f 38/40/35 42/41/36 43/38/35
f 37/37/37 39/42/37 38/40/37
f 39/42/36 44/43/38 42/41/36
f 40/44/38 41/39/34 44/43/38
f 37/37/34 38/40/35 43/38/35
f 38/40/35 39/42/36 42/41/36
f 37/37/37 40/44/37 39/42/37
f 39/42/36 40/44/38 44/43/38
f 40/44/38 37/37/34 41/39/34
o Dropper2.003
v -0.000131 6.537527 14.989301
v 0.009003 6.537527 14.998164
v 0.000139 6.537527 15.007298
v -0.008995 6.537527 14.998435
v -0.000131 6.020014 14.989301
v 0.000139 6.020014 15.007298
v 0.009003 6.020014 14.998164
v -0.008995 6.020014 14.998435
vn -0.0150 -0.0000 -0.9999
vn 0.9999 -0.0000 -0.0150
vn 0.0150 -0.0000 0.9999
vn -0.0000 1.0000 -0.0000
vn -0.9999 -0.0000 0.0150
vt 0.978168 0.009692
vt 0.978163 0.001635
vt 0.978168 0.001635
vt 0.978163 0.009692
vt 0.978159 0.001635
vt 0.978159 0.009692
vt 0.978163 0.001635
vt 0.978163 0.009692
s 1
usemtl Catenary
f 45/45/39 51/46/40 49/47/39
f 46/48/40 50/49/41 51/46/40
f 45/45/42 47/50/42 46/48/42
f 47/50/41 52/51/43 50/49/41
f 48/52/43 49/47/39 52/51/43
f 45/45/39 46/48/40 51/46/40
f 46/48/40 47/50/41 50/49/41
f 45/45/42 48/52/42 47/50/42
f 47/50/41 48/52/43 52/51/43
f 48/52/43 45/45/39 49/47/39
o Dropper3.003
v -0.000131 6.537527 24.992802
v 0.009003 6.537527 25.001665
v 0.000139 6.537527 25.010799
v -0.008995 6.537527 25.001936
v -0.000131 6.020014 24.992802
v 0.000139 6.020014 25.010799
v 0.009003 6.020014 25.001665
v -0.008995 6.020014 25.001936
vn -0.0150 -0.0000 -0.9999
vn 0.9999 -0.0000 -0.0150
vn 0.0150 -0.0000 0.9999
vn -0.0000 1.0000 -0.0000
vn -0.9999 -0.0000 0.0150
vt 0.978168 0.009692
vt 0.978163 0.001635
vt 0.978168 0.001635
vt 0.978163 0.009692
vt 0.978159 0.001635
vt 0.978159 0.009692
vt 0.978163 0.001635
vt 0.978163 0.009692
s 1
usemtl Catenary
f 53/53/44 59/54/45 57/55/44
f 54/56/45 58/57/46 59/54/45
f 53/53/47 55/58/47 54/56/47
f 55/58/46 60/59/48 58/57/46
f 56/60/48 57/55/44 60/59/48
f 53/53/44 54/56/45 59/54/45
f 54/56/45 55/58/46 58/57/46
f 53/53/47 56/60/47 55/58/47
f 55/58/46 56/60/48 60/59/48
f 56/60/48 53/53/44 57/55/44
o Dropper4.003
v -0.000131 6.627460 29.994600
v 0.009003 6.627460 30.003464
v 0.000139 6.627460 30.012598
v -0.008995 6.627460 30.003735
v -0.000131 6.020014 29.994600
v 0.000139 6.020014 30.012598
v 0.009003 6.020014 30.003464
v -0.008995 6.020014 30.003735
vn -0.0150 -0.0000 -0.9999
vn 0.9999 -0.0000 -0.0150
vn 0.0150 -0.0000 0.9999
vn -0.0000 1.0000 -0.0000
vn -0.9999 -0.0000 0.0150
vt 0.971043 0.011092
vt 0.971039 0.001635
vt 0.971043 0.001635
vt 0.971039 0.011092
vt 0.971035 0.001635
vt 0.971035 0.011092
vt 0.971039 0.001635
vt 0.971039 0.011092
s 1
usemtl Catenary
f 61/61/49 67/62/50 65/63/49
f 62/64/50 66/65/51 67/62/50
f 61/61/52 63/66/52 62/64/52
f 63/66/51 68/67/53 66/65/51
f 64/68/53 65/63/49 68/67/53
f 61/61/49 62/64/50 67/62/50
f 62/64/50 63/66/51 66/65/51
f 61/61/52 64/68/52 63/66/52
f 63/66/51 64/68/53 68/67/53
f 64/68/53 61/61/49 65/63/49
o Dropper5.003
v -0.000131 6.627460 9.987371
v 0.009003 6.627460 9.996235
v 0.000139 6.627460 10.005369
v -0.008995 6.627460 9.996506
v -0.000131 6.020014 9.987371
v 0.000139 6.020014 10.005369
v 0.009003 6.020014 9.996235
v -0.008995 6.020014 9.996506
vn -0.0150 -0.0000 -0.9999
vn 0.9999 -0.0000 -0.0150
vn 0.0150 -0.0000 0.9999
vn -0.0000 1.0000 -0.0000
vn -0.9999 -0.0000 0.0150
vt 0.971043 0.011092
vt 0.971039 0.001635
vt 0.971043 0.001635
vt 0.971039 0.011092
vt 0.971035 0.001635
vt 0.971035 0.011092
vt 0.971039 0.001635
vt 0.971039 0.011092
s 1
usemtl Catenary
f 69/69/54 75/70/55 73/71/54
f 70/72/55 74/73/56 75/70/55
f 69/69/57 71/74/57 70/72/57
f 71/74/56 76/75/58 74/73/56
f 72/76/58 73/71/54 76/75/58
f 69/69/54 70/72/55 75/70/55
f 70/72/55 71/74/56 74/73/56
f 69/69/57 72/76/57 71/74/57
f 71/74/56 72/76/58 76/75/58
f 72/76/58 69/69/54 73/71/54
o Dropper6.003
v -0.000131 6.783311 4.985561
v 0.009003 6.783311 4.994425
v 0.000139 6.783311 5.003559
v -0.008995 6.783311 4.994695
v -0.000131 6.020014 4.985561
v 0.000139 6.020014 5.003559
v 0.009003 6.020014 4.994425
v -0.008995 6.020014 4.994695
vn -0.0150 -0.0000 -0.9999
vn 0.9999 -0.0000 -0.0150
vn 0.0150 -0.0000 0.9999
vn -0.0000 1.0000 -0.0000
vn -0.9999 -0.0000 0.0150
vt 0.982917 0.013518
vt 0.982913 0.001635
vt 0.982917 0.001635
vt 0.982913 0.013518
vt 0.982909 0.001635
vt 0.982909 0.013518
vt 0.982913 0.001635
vt 0.982913 0.013518
s 1
usemtl Catenary
f 77/77/59 83/78/60 81/79/59
f 78/80/60 82/81/61 83/78/60
f 77/77/62 79/82/62 78/80/62
f 79/82/61 84/83/63 82/81/61
f 80/84/63 81/79/59 84/83/63
f 77/77/59 78/80/60 83/78/60
f 78/80/60 79/82/61 82/81/61
f 77/77/62 80/84/62 79/82/62
f 79/82/61 80/84/63 84/83/63
f 80/84/63 77/77/59 81/79/59
o Dropper7.003
v -0.000131 6.783311 34.996403
v 0.009003 6.783311 35.005268
v 0.000139 6.783311 35.014400
v -0.008995 6.783311 35.005535
v -0.000131 6.020014 34.996403
v 0.000139 6.020014 35.014400
v 0.009003 6.020014 35.005268
v -0.008995 6.020014 35.005535
vn -0.0150 -0.0000 -0.9999
vn 0.9999 -0.0000 -0.0150
vn 0.0150 -0.0000 0.9999
vn -0.0000 1.0000 -0.0000
vn -0.9999 -0.0000 0.0150
vt 0.982917 0.013518
vt 0.982913 0.001635
vt 0.982917 0.001635
vt 0.982913 0.013518
vt 0.982909 0.001635
vt 0.982909 0.013518
vt 0.982913 0.001635
vt 0.982913 0.013518
s 1
usemtl Catenary
f 85/85/64 91/86/65 89/87/64
f 86/88/65 90/89/66 91/86/65
f 85/85/67 87/90/67 86/88/67
f 87/90/66 92/91/68 90/89/66
f 88/92/68 89/87/64 92/91/68
f 85/85/64 86/88/65 91/86/65
f 86/88/65 87/90/66 90/89/66
f 85/85/67 88/92/67 87/90/67
f 87/90/66 88/92/68 92/91/68
f 88/92/68 85/85/64 89/87/64
o Messenger.006
v 0.000022 6.995399 -0.007250
v 0.000172 6.995421 40.007248
v 0.009021 6.986399 -0.007385
v 0.009171 6.986421 40.007111
v 0.000022 6.977399 -0.007250
v 0.000172 6.977421 40.007248
v -0.008977 6.986399 -0.007114
v -0.008827 6.986421 40.007381
v 0.000097 6.502918 19.999998
v 0.009096 6.493918 19.999863
v 0.000097 6.484918 19.999998
v -0.008902 6.493918 20.000134
v 0.000134 6.636966 30.003622
v 0.009058 6.627955 9.996239
v 0.000059 6.618955 9.996374
v -0.008940 6.627955 9.996510
v 0.000059 6.636955 9.996374
v 0.009133 6.627966 30.003487
v 0.000134 6.618966 30.003622
v -0.008865 6.627966 30.003757
v 0.000153 6.792818 35.005432
v 0.009040 6.783801 4.994427
v 0.000041 6.774801 4.994561
v -0.008958 6.783801 4.994697
v 0.000078 6.546561 14.998186
v 0.009114 6.537566 25.001675
v 0.000116 6.528566 25.001810
v -0.008883 6.537566 25.001945
v 0.000116 6.546566 25.001810
v 0.009077 6.537561 14.998051
v 0.000078 6.528561 14.998186
v -0.008921 6.537561 14.998322
v 0.000041 6.792801 4.994561
v 0.009152 6.783818 35.005299
v 0.000153 6.774817 35.005436
v -0.008846 6.783818 35.005569
vn 0.0150 -0.0000 0.9999
vn -0.0150 -0.0000 -0.9999
vn -1.0000 -0.0020 -0.0001
vn -0.0000 1.0000 -0.0000
vn 0.0001 0.9999 0.0134
vn -0.0000 -1.0000 -0.0000
vn -0.0001 -0.9999 -0.0134
vn 1.0000 -0.0039 -0.0000
vn 1.0000 -0.0022 -0.0001
vn 0.0002 0.9997 0.0247
vn 1.0000 -0.0024 -0.0002
vn 0.0003 0.9994 0.0359
vn 1.0000 -0.0031 -0.0002
vn -0.0003 -0.9994 -0.0357
vn -1.0000 -0.0028 -0.0001
vn -1.0000 -0.0018 -0.0001
vn -1.0000 -0.0031 0.0002
vn -0.0001 0.9999 -0.0134
vn -1.0000 -0.0022 0.0001
vn 0.0002 -0.9997 0.0245
vn 0.0001 -0.9999 0.0134
vn 1.0000 -0.0020 0.0001
vn 1.0000 -0.0028 0.0001
vn -1.0000 -0.0039 -0.0000
vn -0.9998 0.0184 0.0007
vn 0.0072 0.9992 0.0405
vn 0.0063 -0.9992 -0.0405
vn 0.9998 0.0180 0.0007
vn -0.0002 -0.9997 -0.0245
vn -0.9999 0.0139 -0.0004
vn -0.0002 0.9997 -0.0247
vn -0.0064 -0.9995 0.0311
vn 0.9999 0.0141 -0.0004
vn -0.0071 0.9995 -0.0311
vt 0.987016 0.012627
vt 0.987016 0.012439
vt 0.987016 0.012533
vt 0.997518 0.012532
vt 0.997518 0.012532
vt 0.997518 0.012627
vt 0.993580 0.007839
vt 0.992267 0.007477
vt 0.993580 0.007933
vt 0.992267 0.007289
vt 0.993580 0.007745
vt 0.992267 0.007383
vt 0.993580 0.007839
vt 0.994893 0.008879
vt 0.996205 0.010414
vt 0.996205 0.010508
vt 0.994893 0.008784
vt 0.996205 0.010320
vt 0.994892 0.008784
vt 0.996205 0.010414
vt 0.989641 0.008785
vt 0.990954 0.007934
vt 0.990954 0.007839
vt 0.989641 0.008691
vt 0.990954 0.007745
vt 0.990954 0.007839
vt 0.989641 0.008785
vt 0.992267 0.007383
vt 0.997518 0.012438
vt 0.994893 0.008690
vt 0.988329 0.010414
vt 0.989641 0.008879
vt 0.988329 0.010320
vt 0.988329 0.010414
vt 0.987016 0.012533
vt 0.988329 0.010508
s 1
usemtl Catenary
f 94/93/69 98/94/69 96/95/69
f 95/96/70 99/97/70 93/98/70
f 124/99/71 101/100/72 117/101/73
f 103/102/74 124/99/71 123/103/75
f 102/104/76 123/103/75 122/105/77
f 117/101/73 102/104/76 122/105/77
f 109/106/78 114/107/79 125/108/80
f 106/109/81 115/110/82 114/107/79
f 115/110/82 108/111/83 116/112/84
f 116/112/84 109/106/78 125/108/80
f 112/113/85 121/114/86 120/115/87
f 111/116/88 120/115/87 119/117/89
f 118/118/90 111/116/88 119/117/89
f 121/114/86 110/119/91 118/118/90
f 101/100/72 118/118/90 102/104/76
f 118/118/90 103/102/74 102/104/76
f 119/117/89 104/120/92 103/102/74
f 104/120/92 121/114/86 101/100/72
f 99/97/93 125/108/80 93/98/94
f 97/121/95 116/112/84 99/97/93
f 114/107/79 97/121/95 95/96/96
f 125/108/80 95/96/96 93/98/94
f 117/101/73 106/109/81 109/106/78
f 122/105/77 107/122/97 106/109/81
f 107/122/97 124/99/71 108/111/83
f 108/111/83 117/101/73 109/106/78
f 128/123/98 105/124/99 112/113/85
f 127/125/100 112/113/85 111/116/88
f 110/119/91 127/125/100 111/116/88
f 105/124/99 126/126/101 110/119/91
f 94/93/69 100/127/69 98/94/69
f 95/96/70 97/121/70 99/97/70
f 124/99/71 104/120/92 101/100/72
f 103/102/74 104/120/92 124/99/71
f 102/104/76 103/102/74 123/103/75
f 117/101/73 101/100/72 102/104/76
f 109/106/78 106/109/81 114/107/79
f 106/109/81 107/122/97 115/110/82
f 115/110/82 107/122/97 108/111/83
f 116/112/84 108/111/83 109/106/78
f 112/113/85 105/124/99 121/114/86
f 111/116/88 112/113/85 120/115/87
f 118/118/90 110/119/91 111/116/88
f 121/114/86 105/124/99 110/119/91
f 101/100/72 121/114/86 118/118/90
f 118/118/90 119/117/89 103/102/74
f 119/117/89 120/115/87 104/120/92
f 104/120/92 120/115/87 121/114/86
f 99/97/93 116/112/84 125/108/80
f 97/121/95 115/110/82 116/112/84
f 114/107/79 115/110/82 97/121/95
f 125/108/80 114/107/79 95/96/96
f 117/101/73 122/105/77 106/109/81
f 122/105/77 123/103/75 107/122/97
f 107/122/97 123/103/75 124/99/71
f 108/111/83 124/99/71 117/101/73
f 128/123/98 113/128/102 105/124/99
f 127/125/100 128/123/98 112/113/85
f 110/119/91 126/126/101 127/125/100
f 105/124/99 113/128/102 126/126/101
