# Blender 5.1.2
# www.blender.org
mtllib wire_half1_quad.mtl
o StitchWire2.011
g wire_half1_quad
v 0.017162 6.502542 -0.007246
v 0.008163 6.493540 -0.007107
v 0.017162 6.484542 -0.007246
v 0.026161 6.493542 -0.007381
v 0.017183 6.775813 4.994565
v 0.008184 6.766813 4.994700
v 0.017183 6.757813 4.994565
v 0.026182 6.766813 4.994431
v 0.017172 6.503176 2.000081
v 0.008173 6.494175 2.000216
v 0.017172 6.485176 2.000081
v 0.026171 6.494175 1.999946
vn -0.0004 0.9989 -0.0465
vn -1.0000 -0.0003 -0.0000
vn -0.9998 -0.0207 0.0019
vn 0.0003 -0.9990 0.0446
vn 0.0069 -1.0000 0.0003
vn 0.9998 -0.0200 0.0018
vn 0.0068 1.0000 -0.0003
vn 0.9991 0.0412 -0.0038
vn -0.0077 0.9959 -0.0907
vn -0.0058 -0.9959 0.0907
vn -0.9992 0.0404 -0.0037
vn 1.0000 -0.0001 -0.0000
vt 0.970403 0.010013
vt 0.969496 0.009846
vt 0.970403 0.009857
vt 0.970403 0.009701
vt 0.969496 0.009690
vt 0.970403 0.009857
vt 0.969496 0.010002
vt 0.971756 0.014583
vt 0.971756 0.014739
vt 0.971756 0.014427
vt 0.971756 0.014583
vt 0.969496 0.009846
s 1
usemtl Catenary
f 9/1/1 2/2/2 10/3/3
f 2/2/2 11/4/4 10/3/3
f 3/5/5 12/6/6 11/4/4
f 12/6/6 1/7/7 9/1/1
f 8/8/8 9/1/1 5/9/9
f 7/10/10 12/6/6 8/8/8
f 10/3/3 7/10/10 6/11/11
f 9/1/1 6/11/11 5/9/9
f 9/1/1 1/7/7 2/2/2
f 2/2/2 3/5/5 11/4/4
f 3/5/5 4/12/12 12/6/6
f 12/6/6 4/12/12 1/7/7
f 8/8/8 12/6/6 9/1/1
f 7/10/10 11/4/4 12/6/6
f 10/3/3 11/4/4 7/10/10
f 9/1/1 10/3/3 6/11/11
o Dropper2.010
v 0.017202 6.537527 14.989301
v 0.026336 6.537527 14.998164
v 0.017472 6.537527 15.007298
v 0.008338 6.537527 14.998435
v 0.017202 6.000014 14.989301
v 0.017472 6.000014 15.007298
v 0.026336 6.000014 14.998164
v 0.008338 6.000014 14.998435
vn -0.0150 -0.0000 -0.9999
vn 0.9999 -0.0000 -0.0150
vn 0.0150 -0.0000 0.9999
vn -0.0000 1.0000 -0.0000
vn -0.9999 -0.0000 0.0150
vt 0.977348 0.010171
vt 0.977345 0.002719
vt 0.977348 0.002719
vt 0.977345 0.010171
vt 0.977341 0.002719
vt 0.977341 0.010171
vt 0.977345 0.002719
vt 0.977345 0.010171
s 1
usemtl Catenary
f 13/13/13 19/14/14 17/15/13
f 14/16/14 18/17/15 19/14/14
f 13/13/16 15/18/16 14/16/16
f 15/18/15 20/19/17 18/17/15
f 16/20/17 17/15/13 20/19/17
f 13/13/13 14/16/14 19/14/14
f 14/16/14 15/18/15 18/17/15
f 13/13/16 16/20/16 15/18/16
f 15/18/15 16/20/17 20/19/17
f 16/20/17 13/13/13 17/15/13
o Dropper5.010
v 0.017202 6.627460 9.987371
v 0.026336 6.627460 9.996235
v 0.017472 6.627460 10.005369
v 0.008338 6.627460 9.996506
v 0.017202 6.000014 9.987371
v 0.017472 6.000014 10.005369
v 0.026336 6.000014 9.996235
v 0.008338 6.000014 9.996506
vn -0.0150 -0.0000 -0.9999
vn 0.9999 -0.0000 -0.0150
vn 0.0150 -0.0000 0.9999
vn -0.0000 1.0000 -0.0000
vn -0.9999 -0.0000 0.0150
vt 0.971533 0.011418
vt 0.971530 0.002719
vt 0.971533 0.002719
vt 0.971530 0.011418
vt 0.971526 0.002719
vt 0.971526 0.011418
vt 0.971530 0.002719
vt 0.971530 0.011418
s 1
usemtl Catenary
f 21/21/18 27/22/19 25/23/18
f 22/24/19 26/25/20 27/22/19
f 21/21/21 23/26/21 22/24/21
f 23/26/20 28/27/22 26/25/20
f 24/28/22 25/23/18 28/27/22
f 21/21/18 22/24/19 27/22/19
f 22/24/19 23/26/20 26/25/20
f 21/21/21 24/28/21 23/26/21
f 23/26/20 24/28/22 28/27/22
f 24/28/22 21/21/18 25/23/18
o Dropper6.010
v 0.017202 6.783311 4.985561
v 0.026336 6.783311 4.994425
v 0.017472 6.783311 5.003559
v 0.008338 6.783311 4.994695
v 0.017202 6.000014 4.985561
v 0.017472 6.000014 5.003559
v 0.026336 6.000014 4.994425
v 0.008338 6.000014 4.994695
vn -0.0150 -0.0000 -0.9999
vn 0.9999 -0.0000 -0.0150
vn 0.0150 -0.0000 0.9999
vn -0.0000 1.0000 -0.0000
vn -0.9999 -0.0000 0.0150
vt 0.981225 0.013579
vt 0.981221 0.002719
vt 0.981225 0.002719
vt 0.981221 0.013579
vt 0.981218 0.002719
vt 0.981218 0.013579
vt 0.981221 0.002719
vt 0.981221 0.013579
s 1
usemtl Catenary
f 29/29/23 35/30/24 33/31/23
f 30/32/24 34/33/25 35/30/24
f 29/29/26 31/34/26 30/32/26
f 31/34/25 36/35/27 34/33/25
f 32/36/27 33/31/23 36/35/27
f 29/29/23 30/32/24 35/30/24
f 30/32/24 31/34/25 34/33/25
f 29/29/26 32/36/26 31/34/26
f 31/34/25 32/36/27 36/35/27
f 32/36/27 29/29/23 33/31/23
o StitchDropper2.011
v 0.017202 6.493850 1.991001
v 0.026336 6.493850 1.999865
v 0.017472 6.493850 2.008999
v 0.008338 6.493850 2.000135
v 0.017202 6.000014 1.991001
v 0.017472 6.000014 2.008999
v 0.026336 6.000014 1.999865
v 0.008338 6.000014 2.000135
vn -0.0150 -0.0000 -0.9999
vn 0.9999 -0.0000 -0.0150
vn 0.0150 -0.0000 0.9999
vn -0.0000 1.0000 -0.0000
vn -0.9999 -0.0000 0.0150
vt 0.982385 0.009566
vt 0.982382 0.002719
vt 0.982385 0.002719
vt 0.982382 0.009566
vt 0.982378 0.002719
vt 0.982378 0.009566
vt 0.982382 0.002719
vt 0.982382 0.009566
s 1
usemtl Catenary
f 37/37/28 43/38/29 41/39/28
f 38/40/29 42/41/30 43/38/29
f 37/37/31 39/42/31 38/40/31
f 39/42/30 44/43/32 42/41/30
f 40/44/32 41/39/28 44/43/32
f 37/37/28 38/40/29 43/38/29
f 38/40/29 39/42/30 42/41/30
f 37/37/31 40/44/31 39/42/31
f 39/42/30 40/44/32 44/43/32
f 40/44/32 37/37/28 41/39/28
o Dropper1.009
v 0.017202 6.436894 19.991325
v 0.026336 6.436894 20.000189
v 0.017472 6.436894 20.009323
v 0.008338 6.436894 20.000460
v 0.017202 6.000014 19.991325
v 0.017472 6.000014 20.009323
v 0.026336 6.000014 20.000189
v 0.008338 6.000014 20.000460
vn -0.0150 -0.0000 -0.9999
vn 0.9999 -0.0000 -0.0150
vn 0.0150 -0.0000 0.9999
vn -0.0000 1.0000 -0.0000
vn -0.9999 -0.0000 0.0150
vt 0.982385 0.009566
vt 0.982382 0.002719
vt 0.982385 0.002719
vt 0.982382 0.009566
vt 0.982378 0.002719
vt 0.982378 0.009566
vt 0.982382 0.002719
vt 0.982382 0.009566
s 1
usemtl Catenary
f 45/45/33 51/46/34 49/47/33
f 46/48/34 50/49/35 51/46/34
f 45/45/36 47/50/36 46/48/36
f 47/50/35 52/51/37 50/49/35
f 48/52/37 49/47/33 52/51/37
f 45/45/33 46/48/34 51/46/34
f 46/48/34 47/50/35 50/49/35
f 45/45/36 48/52/36 47/50/36
f 47/50/35 48/52/37 52/51/37
f 48/52/37 45/45/33 49/47/33
o Messenger.016
v 0.017356 6.995404 -0.007250
v 0.026355 6.986404 -0.007385
v 0.017356 6.977404 -0.007250
v 0.008357 6.986404 -0.007114
v 0.017431 6.445485 19.999998
v 0.026430 6.436485 19.999863
v 0.017431 6.427485 19.999998
v 0.008432 6.436485 20.000134
v 0.026392 6.627957 9.996239
v 0.017393 6.618958 9.996374
v 0.008394 6.627957 9.996510
v 0.017393 6.636958 9.996374
v 0.026373 6.783804 4.994427
v 0.017374 6.774805 4.994561
v 0.008375 6.783804 4.994697
v 0.017412 6.546562 14.998186
v 0.026411 6.537562 14.998051
v 0.017412 6.528562 14.998186
v 0.008413 6.537562 14.998322
v 0.017374 6.792805 4.994561
vn -0.0150 -0.0000 -0.9999
vn -1.0000 0.0006 -0.0000
vn -0.0065 0.9998 0.0202
vn 0.0001 0.9998 0.0191
vn -0.0001 -0.9998 -0.0191
vn -1.0000 -0.0090 -0.0002
vn 1.0000 -0.0092 -0.0002
vn 1.0000 0.0003 -0.0000
vn 0.0002 0.9997 0.0247
vn 1.0000 -0.0024 -0.0002
vn 0.0003 0.9994 0.0359
vn 1.0000 -0.0031 -0.0002
vn -0.0003 -0.9994 -0.0357
vn -1.0000 -0.0028 -0.0001
vn -1.0000 -0.0018 -0.0001
vn -0.9998 0.0184 0.0007
vn 0.0072 0.9992 0.0405
vn 0.0063 -0.9992 -0.0405
vn 0.9998 0.0180 0.0007
vn -0.0002 -0.9997 -0.0245
vn -0.0070 -0.9998 -0.0202
vt 0.997748 0.012137
vt 0.997748 0.012137
vt 0.997748 0.012220
vt 0.994251 0.007969
vt 0.993085 0.007648
vt 0.994251 0.008053
vt 0.994251 0.007886
vt 0.993085 0.007564
vt 0.994251 0.007969
vt 0.995417 0.008892
vt 0.996582 0.010256
vt 0.996582 0.010339
vt 0.995417 0.008809
vt 0.996582 0.010172
vt 0.995417 0.008809
vt 0.996582 0.010256
vt 0.997748 0.012053
vt 0.995417 0.008725
vt 0.993085 0.007480
s 1
usemtl Catenary
f 54/53/38 56/54/38 53/55/38
f 71/56/39 57/57/40 68/58/41
f 70/59/42 60/60/43 71/56/39
f 58/60/44 70/59/42 69/61/45
f 57/57/40 69/61/45 68/58/41
f 64/62/46 65/63/47 72/64/48
f 61/65/49 66/66/50 65/63/47
f 66/66/50 63/67/51 67/68/52
f 67/68/52 64/62/46 72/64/48
f 56/54/53 72/64/48 53/55/54
f 55/69/55 67/68/52 56/54/53
f 65/63/47 55/69/55 54/53/56
f 72/64/48 54/53/56 53/55/54
f 68/58/41 61/65/49 64/62/46
f 69/61/45 62/70/57 61/65/49
f 62/70/57 71/56/39 63/67/51
f 63/67/51 68/58/41 64/62/46
f 54/53/38 55/69/38 56/54/38
f 71/56/39 60/60/43 57/57/40
f 70/59/42 59/71/58 60/60/43
f 58/60/44 59/71/58 70/59/42
f 57/57/40 58/60/44 69/61/45
f 64/62/46 61/65/49 65/63/47
f 61/65/49 62/70/57 66/66/50
f 66/66/50 62/70/57 63/67/51
f 67/68/52 63/67/51 64/62/46
f 56/54/53 67/68/52 72/64/48
f 55/69/55 66/66/50 67/68/52
f 65/63/47 66/66/50 55/69/55
f 72/64/48 65/63/47 54/53/56
f 68/58/41 69/61/45 61/65/49
f 69/61/45 70/59/42 62/70/57
f 62/70/57 70/59/42 71/56/39
f 63/67/51 71/56/39 68/58/41
o Contact.011
v 0.017259 6.008994 -0.007509
v 0.017409 6.009011 20.006987
v 0.026258 5.999994 -0.007645
v 0.026408 6.000011 20.006851
v 0.017259 5.990993 -0.007509
v 0.017409 5.991011 20.006987
v 0.008260 5.999994 -0.007374
v 0.008410 6.000011 20.007122
v 0.017334 6.009000 19.999739
v 0.026333 6.000000 19.999603
v 0.017334 5.991000 19.999739
v 0.008335 6.000000 19.999874
vn 0.0150 -0.0000 0.9999
vn -0.0150 -0.0000 -0.9999
vn -1.0000 -0.0000 -0.0000
vn -0.0067 1.0000 -0.0000
vn 0.0067 1.0000 -0.0000
vn -0.0067 -1.0000 -0.0000
vn 0.0067 -1.0000 -0.0000
vn 1.0000 -0.0000 -0.0000
vt 0.988422 0.003062
vt 0.988422 0.002895
vt 0.988422 0.002978
vt 0.997748 0.003062
vt 0.997748 0.002895
vt 0.997748 0.002978
vt 0.993085 0.003062
vt 0.993085 0.002895
vt 0.993085 0.002978
vt 0.997748 0.002978
vt 0.988422 0.002978
vt 0.993085 0.002978
s 1
usemtl Catenary
f 74/72/59 78/73/59 76/74/59
f 73/75/60 77/76/60 79/77/60
f 79/77/61 81/78/62 73/75/63
f 83/79/64 79/77/61 77/76/65
f 82/80/66 77/76/65 75/81/66
f 73/75/63 82/80/66 75/81/66
f 74/72/59 80/82/59 78/73/59
f 73/75/60 75/81/60 77/76/60
f 79/77/61 84/83/61 81/78/62
f 83/79/64 84/83/61 79/77/61
f 82/80/66 83/79/64 77/76/65
f 73/75/63 81/78/62 82/80/66
o StitchWire2.012
v -0.017622 6.502542 -0.007246
v -0.026621 6.493540 -0.007107
v -0.017622 6.484542 -0.007246
v -0.008623 6.493542 -0.007381
v -0.017601 6.775813 4.994565
v -0.026600 6.766813 4.994700
v -0.017601 6.757813 4.994565
v -0.008602 6.766813 4.994431
v -0.017612 6.503176 2.000081
v -0.026611 6.494175 2.000216
v -0.017612 6.485176 2.000081
v -0.008613 6.494175 1.999946
vn -0.0004 0.9989 -0.0465
vn -1.0000 -0.0003 -0.0000
vn -0.9998 -0.0207 0.0019
vn 0.0003 -0.9990 0.0446
vn 0.0069 -1.0000 0.0003
vn 0.9998 -0.0200 0.0018
vn 0.0068 1.0000 -0.0003
vn 0.9991 0.0412 -0.0038
vn -0.0077 0.9959 -0.0907
vn -0.0058 -0.9959 0.0907
vn -0.9992 0.0404 -0.0037
vn 1.0000 -0.0001 -0.0000
vt 0.970403 0.010013
vt 0.969496 0.009846
vt 0.970403 0.009857
vt 0.970403 0.009701
vt 0.969496 0.009690
vt 0.970403 0.009857
vt 0.969496 0.010002
vt 0.971756 0.014583
vt 0.971756 0.014739
vt 0.971756 0.014427
vt 0.971756 0.014583
vt 0.969496 0.009846
s 1
usemtl Catenary
f 93/84/67 86/85/68 94/86/69
f 86/85/68 95/87/70 94/86/69
f 87/88/71 96/89/72 95/87/70
f 96/89/72 85/90/73 93/84/67
f 92/91/74 93/84/67 89/92/75
f 91/93/76 96/89/72 92/91/74
f 94/86/69 91/93/76 90/94/77
f 93/84/67 90/94/77 89/92/75
f 93/84/67 85/90/73 86/85/68
f 86/85/68 87/88/71 95/87/70
f 87/88/71 88/95/78 96/89/72
f 96/89/72 88/95/78 85/90/73
f 92/91/74 96/89/72 93/84/67
f 91/93/76 95/87/70 96/89/72
f 94/86/69 95/87/70 91/93/76
f 93/84/67 94/86/69 90/94/77
o Dropper2.012
v -0.017582 6.537527 14.989301
v -0.008448 6.537527 14.998164
v -0.017312 6.537527 15.007298
v -0.026446 6.537527 14.998435
v -0.017582 6.000014 14.989301
v -0.017312 6.000014 15.007298
v -0.008448 6.000014 14.998164
v -0.026446 6.000014 14.998435
vn -0.0150 -0.0000 -0.9999
vn 0.9999 -0.0000 -0.0150
vn 0.0150 -0.0000 0.9999
vn -0.0000 1.0000 -0.0000
vn -0.9999 -0.0000 0.0150
vt 0.977348 0.010171
vt 0.977345 0.002719
vt 0.977348 0.002719
vt 0.977345 0.010171
vt 0.977341 0.002719
vt 0.977341 0.010171
vt 0.977345 0.002719
vt 0.977345 0.010171
s 1
usemtl Catenary
f 97/96/79 103/97/80 101/98/79
f 98/99/80 102/100/81 103/97/80
f 97/96/82 99/101/82 98/99/82
f 99/101/81 104/102/83 102/100/81
f 100/103/83 101/98/79 104/102/83
f 97/96/79 98/99/80 103/97/80
f 98/99/80 99/101/81 102/100/81
f 97/96/82 100/103/82 99/101/82
f 99/101/81 100/103/83 104/102/83
f 100/103/83 97/96/79 101/98/79
o Dropper5.012
v -0.017582 6.627460 9.987371
v -0.008448 6.627460 9.996235
v -0.017312 6.627460 10.005369
v -0.026446 6.627460 9.996506
v -0.017582 6.000014 9.987371
v -0.017312 6.000014 10.005369
v -0.008448 6.000014 9.996235
v -0.026446 6.000014 9.996506
vn -0.0150 -0.0000 -0.9999
vn 0.9999 -0.0000 -0.0150
vn 0.0150 -0.0000 0.9999
vn -0.0000 1.0000 -0.0000
vn -0.9999 -0.0000 0.0150
vt 0.971533 0.011418
vt 0.971530 0.002719
vt 0.971533 0.002719
vt 0.971530 0.011418
vt 0.971526 0.002719
vt 0.971526 0.011418
vt 0.971530 0.002719
vt 0.971530 0.011418
s 1
usemtl Catenary
f 105/104/84 111/105/85 109/106/84
f 106/107/85 110/108/86 111/105/85
f 105/104/87 107/109/87 106/107/87
f 107/109/86 112/110/88 110/108/86
f 108/111/88 109/106/84 112/110/88
f 105/104/84 106/107/85 111/105/85
f 106/107/85 107/109/86 110/108/86
f 105/104/87 108/111/87 107/109/87
f 107/109/86 108/111/88 112/110/88
f 108/111/88 105/104/84 109/106/84
o Dropper6.012
v -0.017582 6.783311 4.985561
v -0.008448 6.783311 4.994425
v -0.017312 6.783311 5.003559
v -0.026446 6.783311 4.994695
v -0.017582 6.000014 4.985561
v -0.017312 6.000014 5.003559
v -0.008448 6.000014 4.994425
v -0.026446 6.000014 4.994695
vn -0.0150 -0.0000 -0.9999
vn 0.9999 -0.0000 -0.0150
vn 0.0150 -0.0000 0.9999
vn -0.0000 1.0000 -0.0000
vn -0.9999 -0.0000 0.0150
vt 0.981225 0.013579
vt 0.981221 0.002719
vt 0.981225 0.002719
vt 0.981221 0.013579
vt 0.981218 0.002719
vt 0.981218 0.013579
vt 0.981221 0.002719
vt 0.981221 0.013579
s 1
usemtl Catenary
f 113/112/89 119/113/90 117/114/89
f 114/115/90 118/116/91 119/113/90
f 113/112/92 115/117/92 114/115/92
f 115/117/91 120/118/93 118/116/91
f 116/119/93 117/114/89 120/118/93
f 113/112/89 114/115/90 119/113/90
f 114/115/90 115/117/91 118/116/91
f 113/112/92 116/119/92 115/117/92
f 115/117/91 116/119/93 120/118/93
f 116/119/93 113/112/89 117/114/89
o StitchDropper2.012
v -0.017582 6.493850 1.991001
v -0.008448 6.493850 1.999865
v -0.017312 6.493850 2.008999
v -0.026446 6.493850 2.000135
v -0.017582 6.000014 1.991001
v -0.017312 6.000014 2.008999
v -0.008448 6.000014 1.999865
v -0.026446 6.000014 2.000135
vn -0.0150 -0.0000 -0.9999
vn 0.9999 -0.0000 -0.0150
vn 0.0150 -0.0000 0.9999
vn -0.0000 1.0000 -0.0000
vn -0.9999 -0.0000 0.0150
vt 0.982385 0.009566
vt 0.982382 0.002719
vt 0.982385 0.002719
vt 0.982382 0.009566
vt 0.982378 0.002719
vt 0.982378 0.009566
vt 0.982382 0.002719
vt 0.982382 0.009566
s 1
usemtl Catenary
f 121/120/94 127/121/95 125/122/94
f 122/123/95 126/124/96 127/121/95
f 121/120/97 123/125/97 122/123/97
f 123/125/96 128/126/98 126/124/96
f 124/127/98 125/122/94 128/126/98
f 121/120/94 122/123/95 127/121/95
f 122/123/95 123/125/96 126/124/96
f 121/120/97 124/127/97 123/125/97
f 123/125/96 124/127/98 128/126/98
f 124/127/98 121/120/94 125/122/94
o Dropper1.012
v -0.017582 6.436894 19.991325
v -0.008448 6.436894 20.000189
v -0.017312 6.436894 20.009323
v -0.026446 6.436894 20.000460
v -0.017582 6.000014 19.991325
v -0.017312 6.000014 20.009323
v -0.008448 6.000014 20.000189
v -0.026446 6.000014 20.000460
vn -0.0150 -0.0000 -0.9999
vn 0.9999 -0.0000 -0.0150
vn 0.0150 -0.0000 0.9999
vn -0.0000 1.0000 -0.0000
vn -0.9999 -0.0000 0.0150
vt 0.982385 0.009566
vt 0.982382 0.002719
vt 0.982385 0.002719
vt 0.982382 0.009566
vt 0.982378 0.002719
vt 0.982378 0.009566
vt 0.982382 0.002719
vt 0.982382 0.009566
s 1
usemtl Catenary
f 129/128/99 135/129/100 133/130/99
f 130/131/100 134/132/101 135/129/100
f 129/128/102 131/133/102 130/131/102
f 131/133/101 136/134/103 134/132/101
f 132/135/103 133/130/99 136/134/103
f 129/128/99 130/131/100 135/129/100
f 130/131/100 131/133/101 134/132/101
f 129/128/102 132/135/102 131/133/102
f 131/133/101 132/135/103 136/134/103
f 132/135/103 129/128/99 133/130/99
o Messenger.017
v -0.017428 6.995404 -0.007250
v -0.008429 6.986404 -0.007385
v -0.017428 6.977404 -0.007250
v -0.026427 6.986404 -0.007114
v -0.017354 6.445485 19.999998
v -0.008355 6.436485 19.999863
v -0.017354 6.427485 19.999998
v -0.026353 6.436485 20.000134
v -0.008392 6.627957 9.996239
v -0.017391 6.618958 9.996374
v -0.026390 6.627957 9.996510
v -0.017391 6.636958 9.996374
v -0.008411 6.783804 4.994427
v -0.017410 6.774805 4.994561
v -0.026409 6.783804 4.994697
v -0.017372 6.546562 14.998186
v -0.008373 6.537562 14.998051
v -0.017372 6.528562 14.998186
v -0.026371 6.537562 14.998322
v -0.017410 6.792805 4.994561
vn -0.0150 -0.0000 -0.9999
vn -1.0000 0.0006 -0.0000
vn -0.0065 0.9998 0.0202
vn 0.0001 0.9998 0.0191
vn -0.0001 -0.9998 -0.0191
vn -1.0000 -0.0090 -0.0002
vn 1.0000 -0.0092 -0.0002
vn 1.0000 0.0003 -0.0000
vn 0.0002 0.9997 0.0247
vn 1.0000 -0.0024 -0.0002
vn 0.0003 0.9994 0.0359
vn 1.0000 -0.0031 -0.0002
vn -0.0003 -0.9994 -0.0357
vn -1.0000 -0.0028 -0.0001
vn -1.0000 -0.0018 -0.0001
vn -0.9998 0.0184 0.0007
vn 0.0072 0.9992 0.0405
vn 0.0063 -0.9992 -0.0405
vn 0.9998 0.0180 0.0007
vn -0.0002 -0.9997 -0.0245
vn -0.0070 -0.9998 -0.0202
vt 0.997748 0.012137
vt 0.997748 0.012137
vt 0.997748 0.012220
vt 0.994251 0.007969
vt 0.993085 0.007648
vt 0.994251 0.008053
vt 0.994251 0.007886
vt 0.993085 0.007564
vt 0.994251 0.007969
vt 0.995417 0.008892
vt 0.996582 0.010256
vt 0.996582 0.010339
vt 0.995417 0.008809
vt 0.996582 0.010172
vt 0.995417 0.008809
vt 0.996582 0.010256
vt 0.997748 0.012053
vt 0.995417 0.008725
vt 0.993085 0.007480
s 1
usemtl Catenary
f 138/136/104 140/137/104 137/138/104
f 155/139/105 141/140/106 152/141/107
f 154/142/108 144/143/109 155/139/105
f 142/143/110 154/142/108 153/144/111
f 141/140/106 153/144/111 152/141/107
f 148/145/112 149/146/113 156/147/114
f 145/148/115 150/149/116 149/146/113
f 150/149/116 147/150/117 151/151/118
f 151/151/118 148/145/112 156/147/114
f 140/137/119 156/147/114 137/138/120
f 139/152/121 151/151/118 140/137/119
f 149/146/113 139/152/121 138/136/122
f 156/147/114 138/136/122 137/138/120
f 152/141/107 145/148/115 148/145/112
f 153/144/111 146/153/123 145/148/115
f 146/153/123 155/139/105 147/150/117
f 147/150/117 152/141/107 148/145/112
f 138/136/104 139/152/104 140/137/104
f 155/139/105 144/143/109 141/140/106
f 154/142/108 143/154/124 144/143/109
f 142/143/110 143/154/124 154/142/108
f 141/140/106 142/143/110 153/144/111
f 148/145/112 145/148/115 149/146/113
f 145/148/115 146/153/123 150/149/116
f 150/149/116 146/153/123 147/150/117
f 151/151/118 147/150/117 148/145/112
f 140/137/119 151/151/118 156/147/114
f 139/152/121 150/149/116 151/151/118
f 149/146/113 150/149/116 139/152/121
f 156/147/114 149/146/113 138/136/122
f 152/141/107 153/144/111 145/148/115
f 153/144/111 154/142/108 146/153/123
f 146/153/123 154/142/108 155/139/105
f 147/150/117 155/139/105 152/141/107
o Contact.012
v -0.017525 6.008994 -0.007509
v -0.017375 6.009011 20.006987
v -0.008526 5.999994 -0.007645
v -0.008376 6.000011 20.006851
v -0.017525 5.990993 -0.007509
v -0.017375 5.991011 20.006987
v -0.026524 5.999994 -0.007374
v -0.026374 6.000011 20.007122
v -0.017450 6.009000 19.999739
v -0.008451 6.000000 19.999603
v -0.017450 5.991000 19.999739
v -0.026449 6.000000 19.999874
vn 0.0150 -0.0000 0.9999
vn -0.0150 -0.0000 -0.9999
vn -1.0000 -0.0000 -0.0000
vn -0.0067 1.0000 -0.0000
vn 0.0067 1.0000 -0.0000
vn -0.0067 -1.0000 -0.0000
vn 0.0067 -1.0000 -0.0000
vn 1.0000 -0.0000 -0.0000
vt 0.988422 0.003062
vt 0.988422 0.002895
vt 0.988422 0.002978
vt 0.997748 0.003062
vt 0.997748 0.002895
vt 0.997748 0.002978
vt 0.993085 0.003062
vt 0.993085 0.002895
vt 0.993085 0.002978
vt 0.997748 0.002978
vt 0.988422 0.002978
vt 0.993085 0.002978
s 1
usemtl Catenary
f 158/155/125 162/156/125 160/157/125
f 157/158/126 161/159/126 163/160/126
f 163/160/127 165/161/128 157/158/129
f 167/162/130 163/160/127 161/159/131
f 166/163/132 161/159/131 159/164/132
f 157/158/129 166/163/132 159/164/132
f 158/155/125 164/165/125 162/156/125
f 157/158/126 159/164/126 161/159/126
f 163/160/127 168/166/127 165/161/128
f 167/162/130 168/166/127 163/160/127
f 166/163/132 167/162/130 161/159/131
f 157/158/129 165/161/128 166/163/132
