# Blender 5.1.2
# www.blender.org
mtllib wire_half2_quad.mtl
o StitchWire1.004
g wire_half2_quad
v 0.017505 6.502542 20.007246
v 0.026504 6.493540 20.007107
v 0.017505 6.484542 20.007246
v 0.008506 6.493542 20.007381
v 0.017487 6.775813 15.005434
v 0.026486 6.766813 15.005300
v 0.017487 6.757813 15.005434
v 0.008488 6.766813 15.005569
v 0.017496 6.503176 17.999920
v 0.026495 6.494175 17.999784
v 0.017496 6.485176 17.999920
v 0.008497 6.494175 18.000055
vn 0.0004 0.9989 0.0465
vn 1.0000 -0.0003 -0.0000
vn 0.9998 -0.0207 -0.0019
vn -0.0003 -0.9990 -0.0446
vn -0.0069 -1.0000 -0.0003
vn -0.9998 -0.0200 -0.0018
vn -0.0068 1.0000 0.0003
vn -0.9991 0.0412 0.0038
vn 0.0077 0.9959 0.0907
vn 0.0058 -0.9959 -0.0907
vn 0.9992 0.0404 0.0037
vn -1.0000 -0.0001 -0.0000
vt 0.970403 0.010013
vt 0.969496 0.009846
vt 0.970403 0.009857
vt 0.970403 0.009701
vt 0.969496 0.009690
vt 0.970403 0.009857
vt 0.969496 0.010002
vt 0.971756 0.014583
vt 0.971756 0.014739
vt 0.971756 0.014427
vt 0.971756 0.014583
vt 0.969496 0.009846
s 1
usemtl Catenary
f 9/1/1 2/2/2 10/3/3
f 2/2/2 11/4/4 10/3/3
f 3/5/5 12/6/6 11/4/4
f 12/6/6 1/7/7 9/1/1
f 8/8/8 9/1/1 5/9/9
f 7/10/10 12/6/6 8/8/8
f 10/3/3 7/10/10 6/11/11
f 9/1/1 6/11/11 5/9/9
f 9/1/1 1/7/7 2/2/2
f 2/2/2 3/5/5 11/4/4
f 3/5/5 4/12/12 12/6/6
f 12/6/6 4/12/12 1/7/7
f 8/8/8 12/6/6 9/1/1
f 7/10/10 11/4/4 12/6/6
f 10/3/3 11/4/4 7/10/10
f 9/1/1 10/3/3 6/11/11
o Dropper3.011
v 0.017202 6.537527 4.992802
v 0.026336 6.537527 5.001666
v 0.017472 6.537527 5.010799
v 0.008338 6.537527 5.001935
v 0.017202 6.000014 4.992802
v 0.017472 6.000014 5.010799
v 0.026336 6.000014 5.001666
v 0.008338 6.000014 5.001935
vn -0.0150 -0.0000 -0.9999
vn 0.9999 -0.0000 -0.0150
vn 0.0150 -0.0000 0.9999
vn -0.0000 1.0000 -0.0000
vn -0.9999 -0.0000 0.0150
vt 0.977348 0.010171
vt 0.977345 0.002719
vt 0.977348 0.002719
vt 0.977345 0.010171
vt 0.977341 0.002719
vt 0.977341 0.010171
vt 0.977345 0.002719
vt 0.977345 0.010171
s 1
usemtl Catenary
f 13/13/13 19/14/14 17/15/13
f 14/16/14 18/17/15 19/14/14
f 13/13/16 15/18/16 14/16/16
f 15/18/15 20/19/17 18/17/15
f 16/20/17 17/15/13 20/19/17
f 13/13/13 14/16/14 19/14/14
f 14/16/14 15/18/15 18/17/15
f 13/13/16 16/20/16 15/18/16
f 15/18/15 16/20/17 20/19/17
f 16/20/17 13/13/13 17/15/13
o Dropper4.011
v 0.017202 6.627460 9.994600
v 0.026336 6.627460 10.003464
v 0.017472 6.627460 10.012598
v 0.008338 6.627460 10.003735
v 0.017202 6.000014 9.994600
v 0.017472 6.000014 10.012598
v 0.026336 6.000014 10.003464
v 0.008338 6.000014 10.003735
vn -0.0150 -0.0000 -0.9999
vn 0.9999 -0.0000 -0.0150
vn 0.0150 -0.0000 0.9999
vn -0.0000 1.0000 -0.0000
vn -0.9999 -0.0000 0.0150
vt 0.971533 0.011418
vt 0.971530 0.002719
vt 0.971533 0.002719
vt 0.971530 0.011418
vt 0.971526 0.002719
vt 0.971526 0.011418
vt 0.971530 0.002719
vt 0.971530 0.011418
s 1
usemtl Catenary
f 21/21/18 27/22/19 25/23/18
f 22/24/19 26/25/20 27/22/19
f 21/21/21 23/26/21 22/24/21
f 23/26/20 28/27/22 26/25/20
f 24/28/22 25/23/18 28/27/22
f 21/21/18 22/24/19 27/22/19
f 22/24/19 23/26/20 26/25/20
f 21/21/21 24/28/21 23/26/21
f 23/26/20 24/28/22 28/27/22
f 24/28/22 21/21/18 25/23/18
o Dropper7.011
v 0.017202 6.783311 14.996403
v 0.026336 6.783311 15.005266
v 0.017472 6.783311 15.014400
v 0.008338 6.783311 15.005537
v 0.017202 6.000014 14.996403
v 0.017472 6.000014 15.014400
v 0.026336 6.000014 15.005266
v 0.008338 6.000014 15.005537
vn -0.0150 -0.0000 -0.9999
vn 0.9999 -0.0000 -0.0150
vn 0.0150 -0.0000 0.9999
vn -0.0000 1.0000 -0.0000
vn -0.9999 -0.0000 0.0150
vt 0.981225 0.013579
vt 0.981221 0.002719
vt 0.981225 0.002719
vt 0.981221 0.013579
vt 0.981218 0.002719
vt 0.981218 0.013579
vt 0.981221 0.002719
vt 0.981221 0.013579
s 1
usemtl Catenary
f 29/29/23 35/30/24 33/31/23
f 30/32/24 34/33/25 35/30/24
f 29/29/26 31/34/26 30/32/26
f 31/34/25 36/35/27 34/33/25
f 32/36/27 33/31/23 36/35/27
f 29/29/23 30/32/24 35/30/24
f 30/32/24 31/34/25 34/33/25
f 29/29/26 32/36/26 31/34/26
f 31/34/25 32/36/27 36/35/27
f 32/36/27 29/29/23 33/31/23
o StitchDropper1.004
v 0.017202 6.493850 17.991001
v 0.026336 6.493850 17.999865
v 0.017472 6.493850 18.008999
v 0.008338 6.493850 18.000135
v 0.017202 6.000014 17.991001
v 0.017472 6.000014 18.008999
v 0.026336 6.000014 17.999865
v 0.008338 6.000014 18.000135
vn -0.0150 -0.0000 -0.9999
vn 0.9999 -0.0000 -0.0150
vn 0.0150 -0.0000 0.9999
vn -0.0000 1.0000 -0.0000
vn -0.9999 -0.0000 0.0150
vt 0.982385 0.009566
vt 0.982382 0.002719
vt 0.982385 0.002719
vt 0.982382 0.009566
vt 0.982378 0.002719
vt 0.982378 0.009566
vt 0.982382 0.002719
vt 0.982382 0.009566
s 1
usemtl Catenary
f 37/37/28 43/38/29 41/39/28
f 38/40/29 42/41/30 43/38/29
f 37/37/31 39/42/31 38/40/31
f 39/42/30 44/43/32 42/41/30
f 40/44/32 41/39/28 44/43/32
f 37/37/28 38/40/29 43/38/29
f 38/40/29 39/42/30 42/41/30
f 37/37/31 40/44/31 39/42/31
f 39/42/30 40/44/32 44/43/32
f 40/44/32 37/37/28 41/39/28
o Contact.013
v 0.017259 6.008989 -0.007509
v 0.017408 6.009007 20.006987
v 0.026258 5.999989 -0.007644
v 0.026407 6.000006 20.006851
v 0.017259 5.990989 -0.007509
v 0.017408 5.991006 20.006987
v 0.008260 5.999989 -0.007374
v 0.008410 6.000006 20.007122
v 0.017334 6.009000 -0.000261
v 0.026333 6.000000 -0.000396
v 0.017334 5.991000 -0.000261
v 0.008335 6.000000 -0.000126
vn 0.0067 1.0000 -0.0000
vn 1.0000 -0.0000 -0.0000
vn 0.0067 -1.0000 -0.0000
vn 0.0150 -0.0000 0.9999
vn -0.0067 -1.0000 -0.0000
vn -1.0000 -0.0000 -0.0000
vn -0.0067 1.0000 -0.0000
vn -0.0150 -0.0000 -0.9999
vt 0.993085 0.003062
vt 0.988422 0.002978
vt 0.993085 0.002978
vt 0.993085 0.002895
vt 0.988422 0.003062
vt 0.988422 0.002895
vt 0.993085 0.002978
vt 0.997748 0.003062
vt 0.997748 0.002895
vt 0.997748 0.002978
vt 0.988422 0.002978
vt 0.997748 0.002978
s 1
usemtl Catenary
f 53/45/33 48/46/34 54/47/34
f 48/46/34 55/48/35 54/47/34
f 46/49/36 50/50/36 48/46/36
f 50/50/37 56/51/38 55/48/35
f 56/51/38 46/49/39 53/45/33
f 45/52/40 49/53/40 51/54/40
f 53/45/33 46/49/39 48/46/34
f 48/46/34 50/50/37 55/48/35
f 46/49/36 52/55/36 50/50/36
f 50/50/37 52/55/38 56/51/38
f 56/51/38 52/55/38 46/49/39
f 45/52/40 47/56/40 49/53/40
o Messenger.018
v 0.017505 6.995416 20.007246
v 0.026504 6.986416 20.007111
v 0.017505 6.977417 20.007246
v 0.008506 6.986416 20.007381
v 0.017430 6.445485 -0.000002
v 0.026429 6.436485 -0.000137
v 0.017430 6.427485 -0.000002
v 0.008431 6.436485 0.000133
v 0.017468 6.636964 10.003622
v 0.026467 6.627964 10.003488
v 0.017468 6.618964 10.003622
v 0.008469 6.627964 10.003757
v 0.017487 6.792814 15.005435
v 0.026448 6.537565 5.001675
v 0.017449 6.528565 5.001810
v 0.008450 6.537565 5.001945
v 0.017449 6.546565 5.001810
v 0.026486 6.783814 15.005300
v 0.017487 6.774814 15.005435
v 0.008488 6.783814 15.005569
vn 0.0150 -0.0000 0.9999
vn -1.0000 -0.0031 0.0002
vn -0.0001 0.9998 -0.0191
vn -1.0000 0.0003 -0.0000
vn 0.0002 -0.9997 0.0245
vn 0.0001 -0.9998 0.0191
vn 1.0000 0.0006 -0.0000
vn 1.0000 -0.0028 0.0001
vn 0.0065 0.9998 -0.0202
vn 1.0000 -0.0090 0.0002
vn 0.0070 -0.9998 0.0202
vn -1.0000 -0.0092 0.0002
vn -1.0000 -0.0024 0.0002
vn -0.0002 0.9997 -0.0247
vn 0.0003 -0.9994 0.0357
vn 1.0000 -0.0018 0.0001
vn -0.0003 0.9994 -0.0359
vn 0.9998 0.0184 -0.0007
vn -0.0063 -0.9992 0.0405
vn -0.9998 0.0180 -0.0007
vn -0.0072 0.9992 -0.0405
vt 0.988422 0.012220
vt 0.988422 0.012053
vt 0.988422 0.012137
vt 0.990754 0.008809
vt 0.991919 0.008053
vt 0.991919 0.007969
vt 0.990754 0.008725
vt 0.991919 0.007886
vt 0.991919 0.007969
vt 0.990754 0.008809
vt 0.993085 0.007648
vt 0.993085 0.007564
vt 0.993085 0.007480
vt 0.989588 0.010256
vt 0.990754 0.008892
vt 0.989588 0.010172
vt 0.989588 0.010339
vt 0.988422 0.012137
s 1
usemtl Catenary
f 57/57/41 59/58/41 58/59/41
f 68/60/42 73/61/43 72/62/44
f 67/63/45 72/62/44 71/64/46
f 70/65/47 67/63/45 71/64/46
f 73/61/43 66/66/48 70/65/47
f 61/67/49 70/65/47 62/68/50
f 62/68/50 71/64/46 63/69/51
f 71/64/46 64/68/52 63/69/51
f 72/62/44 61/67/49 64/68/52
f 76/70/53 65/71/54 68/60/42
f 75/72/55 68/60/42 67/63/45
f 66/66/48 75/72/55 67/63/45
f 65/71/54 74/70/56 66/66/48
f 69/73/57 58/59/58 74/70/56
f 74/70/56 59/58/59 75/72/55
f 59/58/59 76/70/53 75/72/55
f 60/74/60 69/73/57 76/70/53
f 57/57/41 60/74/41 59/58/41
f 68/60/42 65/71/54 73/61/43
f 67/63/45 68/60/42 72/62/44
f 70/65/47 66/66/48 67/63/45
f 73/61/43 65/71/54 66/66/48
f 61/67/49 73/61/43 70/65/47
f 62/68/50 70/65/47 71/64/46
f 71/64/46 72/62/44 64/68/52
f 72/62/44 73/61/43 61/67/49
f 76/70/53 69/73/57 65/71/54
f 75/72/55 76/70/53 68/60/42
f 66/66/48 74/70/56 75/72/55
f 65/71/54 69/73/57 74/70/56
f 69/73/57 57/57/61 58/59/58
f 74/70/56 58/59/58 59/58/59
f 59/58/59 60/74/60 76/70/53
f 60/74/60 57/57/61 69/73/57
o StitchWire1.007
v -0.017377 6.502542 20.007246
v -0.008378 6.493540 20.007107
v -0.017377 6.484542 20.007246
v -0.026376 6.493542 20.007381
v -0.017396 6.775813 15.005434
v -0.008397 6.766813 15.005300
v -0.017396 6.757813 15.005434
v -0.026395 6.766813 15.005569
v -0.017386 6.503176 17.999920
v -0.008387 6.494175 17.999784
v -0.017386 6.485176 17.999920
v -0.026385 6.494175 18.000055
vn 0.0004 0.9989 0.0465
vn 1.0000 -0.0003 -0.0000
vn 0.9998 -0.0207 -0.0019
vn -0.0003 -0.9990 -0.0446
vn -0.0069 -1.0000 -0.0003
vn -0.9998 -0.0200 -0.0018
vn -0.0068 1.0000 0.0003
vn -0.9991 0.0412 0.0038
vn 0.0077 0.9959 0.0907
vn 0.0058 -0.9959 -0.0907
vn 0.9992 0.0404 0.0037
vn -1.0000 -0.0001 -0.0000
vt 0.970403 0.010013
vt 0.969496 0.009846
vt 0.970403 0.009857
vt 0.970403 0.009701
vt 0.969496 0.009690
vt 0.970403 0.009857
vt 0.969496 0.010002
vt 0.971756 0.014583
vt 0.971756 0.014739
vt 0.971756 0.014427
vt 0.971756 0.014583
vt 0.969496 0.009846
s 1
usemtl Catenary
f 85/75/62 78/76/63 86/77/64
f 78/76/63 87/78/65 86/77/64
f 79/79/66 88/80/67 87/78/65
f 88/80/67 77/81/68 85/75/62
f 84/82/69 85/75/62 81/83/70
f 83/84/71 88/80/67 84/82/69
f 86/77/64 83/84/71 82/85/72
f 85/75/62 82/85/72 81/83/70
f 85/75/62 77/81/68 78/76/63
f 78/76/63 79/79/66 87/78/65
f 79/79/66 80/86/73 88/80/67
f 88/80/67 80/86/73 77/81/68
f 84/82/69 88/80/67 85/75/62
f 83/84/71 87/78/65 88/80/67
f 86/77/64 87/78/65 83/84/71
f 85/75/62 86/77/64 82/85/72
o Dropper3.012
v -0.017680 6.537527 4.992802
v -0.008546 6.537527 5.001666
v -0.017410 6.537527 5.010799
v -0.026544 6.537527 5.001935
v -0.017680 6.000014 4.992802
v -0.017410 6.000014 5.010799
v -0.008546 6.000014 5.001666
v -0.026544 6.000014 5.001935
vn -0.0150 -0.0000 -0.9999
vn 0.9999 -0.0000 -0.0150
vn 0.0150 -0.0000 0.9999
vn -0.0000 1.0000 -0.0000
vn -0.9999 -0.0000 0.0150
vt 0.977348 0.010171
vt 0.977345 0.002719
vt 0.977348 0.002719
vt 0.977345 0.010171
vt 0.977341 0.002719
vt 0.977341 0.010171
vt 0.977345 0.002719
vt 0.977345 0.010171
s 1
usemtl Catenary
f 89/87/74 95/88/75 93/89/74
f 90/90/75 94/91/76 95/88/75
f 89/87/77 91/92/77 90/90/77
f 91/92/76 96/93/78 94/91/76
f 92/94/78 93/89/74 96/93/78
f 89/87/74 90/90/75 95/88/75
f 90/90/75 91/92/76 94/91/76
f 89/87/77 92/94/77 91/92/77
f 91/92/76 92/94/78 96/93/78
f 92/94/78 89/87/74 93/89/74
o Dropper4.012
v -0.017680 6.627460 9.994600
v -0.008546 6.627460 10.003464
v -0.017410 6.627460 10.012598
v -0.026544 6.627460 10.003735
v -0.017680 6.000014 9.994600
v -0.017410 6.000014 10.012598
v -0.008546 6.000014 10.003464
v -0.026544 6.000014 10.003735
vn -0.0150 -0.0000 -0.9999
vn 0.9999 -0.0000 -0.0150
vn 0.0150 -0.0000 0.9999
vn -0.0000 1.0000 -0.0000
vn -0.9999 -0.0000 0.0150
vt 0.971533 0.011418
vt 0.971530 0.002719
vt 0.971533 0.002719
vt 0.971530 0.011418
vt 0.971526 0.002719
vt 0.971526 0.011418
vt 0.971530 0.002719
vt 0.971530 0.011418
s 1
usemtl Catenary
f 97/95/79 103/96/80 101/97/79
f 98/98/80 102/99/81 103/96/80
f 97/95/82 99/100/82 98/98/82
f 99/100/81 104/101/83 102/99/81
f 100/102/83 101/97/79 104/101/83
f 97/95/79 98/98/80 103/96/80
f 98/98/80 99/100/81 102/99/81
f 97/95/82 100/102/82 99/100/82
f 99/100/81 100/102/83 104/101/83
f 100/102/83 97/95/79 101/97/79
o Dropper7.012
v -0.017680 6.783311 14.996403
v -0.008546 6.783311 15.005266
v -0.017410 6.783311 15.014400
v -0.026544 6.783311 15.005537
v -0.017680 6.000014 14.996403
v -0.017410 6.000014 15.014400
v -0.008546 6.000014 15.005266
v -0.026544 6.000014 15.005537
vn -0.0150 -0.0000 -0.9999
vn 0.9999 -0.0000 -0.0150
vn 0.0150 -0.0000 0.9999
vn -0.0000 1.0000 -0.0000
vn -0.9999 -0.0000 0.0150
vt 0.981225 0.013579
vt 0.981221 0.002719
vt 0.981225 0.002719
vt 0.981221 0.013579
vt 0.981218 0.002719
vt 0.981218 0.013579
vt 0.981221 0.002719
vt 0.981221 0.013579
s 1
usemtl Catenary
f 105/103/84 111/104/85 109/105/84
f 106/106/85 110/107/86 111/104/85
f 105/103/87 107/108/87 106/106/87
f 107/108/86 112/109/88 110/107/86
f 108/110/88 109/105/84 112/109/88
f 105/103/84 106/106/85 111/104/85
f 106/106/85 107/108/86 110/107/86
f 105/103/87 108/110/87 107/108/87
f 107/108/86 108/110/88 112/109/88
f 108/110/88 105/103/84 109/105/84
o StitchDropper1.007
v -0.017680 6.493850 17.991001
v -0.008546 6.493850 17.999865
v -0.017410 6.493850 18.008999
v -0.026544 6.493850 18.000135
v -0.017680 6.000014 17.991001
v -0.017410 6.000014 18.008999
v -0.008546 6.000014 17.999865
v -0.026544 6.000014 18.000135
vn -0.0150 -0.0000 -0.9999
vn 0.9999 -0.0000 -0.0150
vn 0.0150 -0.0000 0.9999
vn -0.0000 1.0000 -0.0000
vn -0.9999 -0.0000 0.0150
vt 0.982385 0.009566
vt 0.982382 0.002719
vt 0.982385 0.002719
vt 0.982382 0.009566
vt 0.982378 0.002719
vt 0.982378 0.009566
vt 0.982382 0.002719
vt 0.982382 0.009566
s 1
usemtl Catenary
f 113/111/89 119/112/90 117/113/89
f 114/114/90 118/115/91 119/112/90
f 113/111/92 115/116/92 114/114/92
f 115/116/91 120/117/93 118/115/91
f 116/118/93 117/113/89 120/117/93
f 113/111/89 114/114/90 119/112/90
f 114/114/90 115/116/91 118/115/91
f 113/111/92 116/118/92 115/116/92
f 115/116/91 116/118/93 120/117/93
f 116/118/93 113/111/89 117/113/89
o Contact.014
v -0.017623 6.008989 -0.007509
v -0.017474 6.009007 20.006987
v -0.008624 5.999989 -0.007644
v -0.008475 6.000006 20.006851
v -0.017623 5.990989 -0.007509
v -0.017474 5.991006 20.006987
v -0.026622 5.999989 -0.007374
v -0.026473 6.000006 20.007122
v -0.017549 6.009000 -0.000261
v -0.008550 6.000000 -0.000396
v -0.017549 5.991000 -0.000261
v -0.026548 6.000000 -0.000126
vn 0.0067 1.0000 -0.0000
vn 1.0000 -0.0000 -0.0000
vn 0.0067 -1.0000 -0.0000
vn 0.0150 -0.0000 0.9999
vn -0.0067 -1.0000 -0.0000
vn -1.0000 -0.0000 -0.0000
vn -0.0067 1.0000 -0.0000
vn -0.0150 -0.0000 -0.9999
vt 0.993085 0.003062
vt 0.988422 0.002978
vt 0.993085 0.002978
vt 0.993085 0.002895
vt 0.988422 0.003062
vt 0.988422 0.002895
vt 0.993085 0.002978
vt 0.997748 0.003062
vt 0.997748 0.002895
vt 0.997748 0.002978
vt 0.988422 0.002978
vt 0.997748 0.002978
s 1
usemtl Catenary
f 129/119/94 124/120/95 130/121/95
f 124/120/95 131/122/96 130/121/95
f 122/123/97 126/124/97 124/120/97
f 126/124/98 132/125/99 131/122/96
f 132/125/99 122/123/100 129/119/94
f 121/126/101 125/127/101 127/128/101
f 129/119/94 122/123/100 124/120/95
f 124/120/95 126/124/98 131/122/96
f 122/123/97 128/129/97 126/124/97
f 126/124/98 128/129/99 132/125/99
f 132/125/99 128/129/99 122/123/100
f 121/126/101 123/130/101 125/127/101
o Messenger.019
v -0.017377 6.995416 20.007246
v -0.008378 6.986416 20.007111
v -0.017377 6.977417 20.007246
v -0.026376 6.986416 20.007381
v -0.017452 6.445485 -0.000002
v -0.008453 6.436485 -0.000137
v -0.017452 6.427485 -0.000002
v -0.026451 6.436485 0.000133
v -0.017414 6.636964 10.003622
v -0.008415 6.627964 10.003488
v -0.017414 6.618964 10.003622
v -0.026413 6.627964 10.003757
v -0.017396 6.792814 15.005435
v -0.008434 6.537565 5.001675
v -0.017433 6.528565 5.001810
v -0.026432 6.537565 5.001945
v -0.017433 6.546565 5.001810
v -0.008397 6.783814 15.005300
v -0.017396 6.774814 15.005435
v -0.026395 6.783814 15.005569
vn 0.0150 -0.0000 0.9999
vn -1.0000 -0.0031 0.0002
vn -0.0001 0.9998 -0.0191
vn -1.0000 0.0003 -0.0000
vn 0.0002 -0.9997 0.0245
vn 0.0001 -0.9998 0.0191
vn 1.0000 0.0006 -0.0000
vn 1.0000 -0.0028 0.0001
vn 0.0065 0.9998 -0.0202
vn 1.0000 -0.0090 0.0002
vn 0.0070 -0.9998 0.0202
vn -1.0000 -0.0092 0.0002
vn -1.0000 -0.0024 0.0002
vn -0.0002 0.9997 -0.0247
vn 0.0003 -0.9994 0.0357
vn 1.0000 -0.0018 0.0001
vn -0.0003 0.9994 -0.0359
vn 0.9998 0.0184 -0.0007
vn -0.0063 -0.9992 0.0405
vn -0.9998 0.0180 -0.0007
vn -0.0072 0.9992 -0.0405
vt 0.988422 0.012220
vt 0.988422 0.012053
vt 0.988422 0.012137
vt 0.990754 0.008809
vt 0.991919 0.008053
vt 0.991919 0.007969
vt 0.990754 0.008725
vt 0.991919 0.007886
vt 0.991919 0.007969
vt 0.990754 0.008809
vt 0.993085 0.007648
vt 0.993085 0.007564
vt 0.993085 0.007480
vt 0.989588 0.010256
vt 0.990754 0.008892
vt 0.989588 0.010172
vt 0.989588 0.010339
vt 0.988422 0.012137
s 1
usemtl Catenary
f 133/131/102 135/132/102 134/133/102
f 144/134/103 149/135/104 148/136/105
f 143/137/106 148/136/105 147/138/107
f 146/139/108 143/137/106 147/138/107
f 149/135/104 142/140/109 146/139/108
f 137/141/110 146/139/108 138/142/111
f 138/142/111 147/138/107 139/143/112
f 147/138/107 140/142/113 139/143/112
f 148/136/105 137/141/110 140/142/113
f 152/144/114 141/145/115 144/134/103
f 151/146/116 144/134/103 143/137/106
f 142/140/109 151/146/116 143/137/106
f 141/145/115 150/144/117 142/140/109
f 145/147/118 134/133/119 150/144/117
f 150/144/117 135/132/120 151/146/116
f 135/132/120 152/144/114 151/146/116
f 136/148/121 145/147/118 152/144/114
f 133/131/102 136/148/102 135/132/102
f 144/134/103 141/145/115 149/135/104
f 143/137/106 144/134/103 148/136/105
f 146/139/108 142/140/109 143/137/106
f 149/135/104 141/145/115 142/140/109
f 137/141/110 149/135/104 146/139/108
f 138/142/111 146/139/108 147/138/107
f 147/138/107 148/136/105 140/142/113
f 148/136/105 149/135/104 137/141/110
f 152/144/114 145/147/118 141/145/115
f 151/146/116 152/144/114 144/134/103
f 142/140/109 150/144/117 151/146/116
f 141/145/115 145/147/118 150/144/117
f 145/147/118 133/131/122 134/133/119
f 150/144/117 134/133/119 135/132/120
f 135/132/120 136/148/121 152/144/114
f 136/148/121 133/131/122 145/147/118
