# Blender 5.0.1
# www.blender.org
mtllib wire_dual_end.mtl
o StitchDropper2.001
g wire_dual_end
v -0.013605 6.001013 1.991203
v -0.000131 6.493850 1.991001
v 0.022566 6.001013 1.999662
v 0.009003 6.493850 1.999865
v -0.013335 6.001013 2.009201
v 0.000139 6.493850 2.008999
v -0.022469 6.001013 2.000337
v -0.008995 6.493850 2.000135
v -0.000131 6.199751 1.991001
v 0.000139 6.199751 2.008999
v 0.013702 6.001013 2.008795
v 0.013432 6.001013 1.990798
v 0.009003 6.199751 1.999865
v -0.008995 6.199751 2.000135
vn -0.0150 -0.0000 -0.9999
vn 0.9993 0.0346 -0.0150
vn -0.0150 -0.0153 -0.9998
vn 0.9999 -0.0000 -0.0150
vn 0.0150 -0.0153 0.9998
vn -0.0000 1.0000 -0.0000
vn 0.0150 -0.0000 0.9999
vn -0.9993 0.0344 0.0150
vn -0.9999 -0.0000 0.0150
vn -0.0000 -1.0000 -0.0000
vn 0.3616 -0.0236 0.9320
vn -0.3614 -0.0237 -0.9321
vn -0.3333 -0.0237 0.9425
vn 0.9976 0.0681 -0.0150
vn 0.3335 -0.0236 -0.9425
vn -0.9976 0.0677 0.0150
vt 0.970407 0.009851
vt 0.970403 0.004753
vt 0.970407 0.004753
vt 0.970403 0.009851
vt 0.970399 0.004753
vt 0.970399 0.009851
vt 0.970403 0.004753
vt 0.970403 0.009851
vt 0.970407 0.001308
vt 0.970403 0.001308
vt 0.970399 0.001308
vt 0.970403 0.001308
vt 0.970407 0.001308
vt 0.970399 0.001308
s 1
usemtl Catenary
f 2/1/1 13/2/2 9/3/3
f 4/4/4 10/5/5 13/2/2
f 2/1/6 6/6/6 4/4/6
f 6/6/7 14/7/8 10/5/5
f 8/8/9 9/3/3 14/7/8
f 12/9/10 3/10/10 11/11/10
f 7/12/10 1/13/10 5/14/10
f 5/14/11 9/3/3 10/5/5
f 10/5/5 12/9/12 11/11/13
f 13/2/2 11/11/13 3/10/14
f 12/9/12 13/2/2 3/10/14
f 14/7/8 1/13/15 7/12/16
f 5/14/11 14/7/8 7/12/16
f 2/1/1 4/4/4 13/2/2
f 4/4/4 6/6/7 10/5/5
f 2/1/6 8/8/6 6/6/6
f 6/6/7 8/8/9 14/7/8
f 8/8/9 2/1/1 9/3/3
f 5/14/11 1/13/15 9/3/3
f 10/5/5 9/3/3 12/9/12
f 13/2/2 10/5/5 11/11/13
f 12/9/12 9/3/3 13/2/2
f 14/7/8 9/3/3 1/13/15
f 5/14/11 10/5/5 14/7/8
o StitchWire2.001
v -0.000172 6.502542 -0.007246
v -0.009171 6.493540 -0.007107
v -0.000172 6.484542 -0.007246
v 0.008827 6.493542 -0.007381
v -0.000151 6.775813 4.994565
v -0.009150 6.766813 4.994700
v -0.000151 6.757813 4.994565
v 0.008848 6.766813 4.994431
v -0.000162 6.503176 2.000081
v -0.009161 6.494175 2.000216
v -0.000162 6.485176 2.000081
v 0.008837 6.494175 1.999946
vn -0.0004 0.9989 -0.0465
vn -1.0000 -0.0003 -0.0000
vn -0.9998 -0.0207 0.0019
vn 0.0003 -0.9990 0.0446
vn 0.0069 -1.0000 0.0003
vn 0.9998 -0.0200 0.0018
vn 0.0068 1.0000 -0.0003
vn 0.9991 0.0412 -0.0038
vn -0.0077 0.9959 -0.0907
vn -0.0058 -0.9959 0.0907
vn -0.9992 0.0404 -0.0037
vn 1.0000 -0.0001 -0.0000
vt 0.970403 0.010013
vt 0.969496 0.009846
vt 0.970403 0.009857
vt 0.970403 0.009701
vt 0.969496 0.009690
vt 0.970403 0.009857
vt 0.969496 0.010002
vt 0.971756 0.014583
vt 0.971756 0.014739
vt 0.971756 0.014427
vt 0.971756 0.014583
vt 0.969496 0.009846
s 1
usemtl Catenary
f 23/15/17 16/16/18 24/17/19
f 16/16/18 25/18/20 24/17/19
f 17/19/21 26/20/22 25/18/20
f 26/20/22 15/21/23 23/15/17
f 22/22/24 23/15/17 19/23/25
f 21/24/26 26/20/22 22/22/24
f 24/17/19 21/24/26 20/25/27
f 23/15/17 20/25/27 19/23/25
f 23/15/17 15/21/23 16/16/18
f 16/16/18 17/19/21 25/18/20
f 17/19/21 18/26/28 26/20/22
f 26/20/22 18/26/28 15/21/23
f 22/22/24 26/20/22 23/15/17
f 21/24/26 25/18/20 26/20/22
f 24/17/19 25/18/20 21/24/26
f 23/15/17 24/17/19 20/25/27
o Contact1.001
v 0.017357 6.008994 -0.007509
v 0.017507 6.029006 36.992970
v 0.026356 5.999994 -0.007645
v 0.026506 6.020006 36.992836
v 0.017357 5.990993 -0.007509
v 0.017507 6.011006 36.992970
v 0.008358 5.999994 -0.007374
v 0.008508 6.020006 36.993103
v 0.017432 6.028996 4.994560
v 0.026431 6.019996 4.994425
v 0.017432 6.010996 4.994560
v 0.008433 6.019996 4.994695
v 0.017469 6.029001 35.005199
v 0.026468 6.020001 35.005066
v 0.017469 6.011002 35.005199
v 0.008470 6.020001 35.005333
vn 0.0150 -0.0000 0.9999
vn -0.0150 -0.0000 -0.9999
vn -1.0000 -0.0018 -0.0000
vn -0.0000 1.0000 -0.0020
vn 0.0067 1.0000 -0.0040
vn -0.0000 -1.0000 0.0020
vn 0.0068 -1.0000 0.0040
vn 1.0000 0.0009 -0.0000
vn 1.0000 -0.0018 -0.0000
vn -1.0000 0.0009 -0.0000
vn -0.0068 1.0000 -0.0000
vn -0.0068 -1.0000 -0.0000
vn 1.0000 -0.0000 -0.0000
vn -1.0000 -0.0000 -0.0000
vt 0.987807 0.002522
vt 0.987807 0.002334
vt 0.987807 0.002428
vt 0.997518 0.002313
vt 0.997518 0.002124
vt 0.997518 0.002219
vt 0.996205 0.002522
vt 0.996205 0.002334
vt 0.996205 0.002428
vt 0.997518 0.002219
vt 0.996205 0.002428
vt 0.988329 0.002522
vt 0.988329 0.002334
vt 0.988329 0.002428
vt 0.988329 0.002428
s 1
usemtl Catenary
f 28/27/29 32/28/29 30/29/29
f 27/30/30 31/31/30 33/32/30
f 33/32/31 35/33/32 27/30/33
f 37/34/34 33/32/31 31/31/35
f 36/35/36 31/31/35 29/36/37
f 27/30/33 36/35/36 29/36/37
f 38/37/38 39/38/39 35/33/32
f 41/39/40 38/37/38 37/34/34
f 40/40/41 37/34/34 36/35/36
f 35/33/32 40/40/41 36/35/36
f 28/27/29 34/29/29 32/28/29
f 27/30/30 29/36/30 31/31/30
f 33/32/31 38/37/38 35/33/32
f 37/34/34 38/37/38 33/32/31
f 36/35/36 37/34/34 31/31/35
f 27/30/33 35/33/32 36/35/36
f 38/37/38 42/41/42 39/38/39
f 41/39/40 42/41/42 38/37/38
f 40/40/41 41/39/40 37/34/34
f 35/33/32 39/38/39 40/40/41
o Dropper1.001
v -0.013605 6.021013 19.991528
v -0.000131 6.493850 19.991325
v 0.022566 6.021013 19.999987
v 0.009003 6.493850 20.000189
v -0.013335 6.021013 20.009525
v 0.000139 6.493850 20.009323
v -0.022469 6.021013 20.000662
v -0.008995 6.493850 20.000460
v -0.000131 6.219751 19.991325
v 0.000139 6.219751 20.009323
v 0.013702 6.021013 20.009119
v 0.013432 6.021013 19.991121
v 0.009003 6.219751 20.000189
v -0.008995 6.219751 20.000460
vn -0.0150 -0.0000 -0.9999
vn 0.9993 0.0346 -0.0150
vn -0.0150 -0.0153 -0.9998
vn 0.9999 -0.0000 -0.0150
vn 0.0150 -0.0153 0.9998
vn -0.0000 1.0000 -0.0000
vn 0.0150 -0.0000 0.9999
vn -0.9993 0.0344 0.0150
vn -0.9999 -0.0000 0.0150
vn -0.0000 -1.0000 -0.0000
vn 0.3616 -0.0236 0.9320
vn -0.3614 -0.0237 -0.9321
vn -0.3333 -0.0237 0.9425
vn 0.3335 -0.0236 -0.9425
vn -0.9976 0.0677 0.0150
vn 0.9976 0.0681 -0.0150
vt 0.977712 0.008814
vt 0.977708 0.004677
vt 0.977712 0.004677
vt 0.977708 0.008814
vt 0.977704 0.004677
vt 0.977704 0.008814
vt 0.977708 0.004677
vt 0.977708 0.008814
vt 0.977712 0.001677
vt 0.977708 0.001677
vt 0.977704 0.001677
vt 0.977708 0.001677
vt 0.977712 0.001677
vt 0.977704 0.001677
s 1
usemtl Catenary
f 44/42/43 55/43/44 51/44/45
f 46/45/46 52/46/47 55/43/44
f 44/42/48 48/47/48 46/45/48
f 48/47/49 56/48/50 52/46/47
f 50/49/51 51/44/45 56/48/50
f 54/50/52 45/51/52 53/52/52
f 49/53/52 43/54/52 47/55/52
f 47/55/53 51/44/45 52/46/47
f 52/46/47 54/50/54 53/52/55
f 56/48/50 43/54/56 49/53/57
f 54/50/54 55/43/44 45/51/58
f 47/55/53 56/48/50 49/53/57
f 55/43/44 53/52/55 45/51/58
f 44/42/43 46/45/46 55/43/44
f 46/45/46 48/47/49 52/46/47
f 44/42/48 50/49/48 48/47/48
f 48/47/49 50/49/51 56/48/50
f 50/49/51 44/42/43 51/44/45
f 47/55/53 43/54/56 51/44/45
f 52/46/47 51/44/45 54/50/54
f 56/48/50 51/44/45 43/54/56
f 54/50/54 51/44/45 55/43/44
f 47/55/53 52/46/47 56/48/50
f 55/43/44 52/46/47 53/52/55
o Contact2.001
v -0.017627 6.008994 -0.006985
v -0.017477 6.029006 36.993492
v -0.008628 5.999994 -0.007120
v -0.008478 6.020006 36.993359
v -0.017627 5.990993 -0.006985
v -0.017477 6.011006 36.993492
v -0.026626 5.999994 -0.006849
v -0.026476 6.020006 36.993629
v -0.017552 6.028996 4.995085
v -0.008553 6.019996 4.994949
v -0.017552 6.010996 4.995085
v -0.026551 6.019996 4.995219
v -0.017515 6.029001 35.005722
v -0.008516 6.020001 35.005589
v -0.017515 6.011002 35.005722
v -0.026514 6.020001 35.005859
vn 0.0150 -0.0000 0.9999
vn -0.0150 -0.0000 -0.9999
vn -1.0000 -0.0018 -0.0000
vn -0.0000 1.0000 -0.0020
vn 0.0067 1.0000 -0.0040
vn -0.0000 -1.0000 0.0020
vn 0.0068 -1.0000 0.0040
vn 1.0000 0.0009 -0.0000
vn 1.0000 -0.0018 -0.0000
vn -1.0000 0.0009 -0.0000
vn -0.0068 1.0000 -0.0000
vn -0.0068 -1.0000 -0.0000
vn 1.0000 -0.0000 -0.0000
vn -1.0000 -0.0000 -0.0000
vt 0.987807 0.002522
vt 0.987807 0.002334
vt 0.987807 0.002428
vt 0.997518 0.002313
vt 0.997518 0.002124
vt 0.997518 0.002219
vt 0.996205 0.002522
vt 0.996205 0.002334
vt 0.996205 0.002428
vt 0.997518 0.002219
vt 0.996205 0.002428
vt 0.988329 0.002522
vt 0.988329 0.002334
vt 0.988329 0.002428
vt 0.988329 0.002428
s 1
usemtl Catenary
f 58/56/59 62/57/59 60/58/59
f 57/59/60 61/60/60 63/61/60
f 63/61/61 65/62/62 57/59/63
f 67/63/64 63/61/61 61/60/65
f 66/64/66 61/60/65 59/65/67
f 57/59/63 66/64/66 59/65/67
f 68/66/68 69/67/69 65/62/62
f 71/68/70 68/66/68 67/63/64
f 70/69/71 67/63/64 66/64/66
f 65/62/62 70/69/71 66/64/66
f 58/56/59 64/58/59 62/57/59
f 57/59/60 59/65/60 61/60/60
f 63/61/61 68/66/68 65/62/62
f 67/63/64 68/66/68 63/61/61
f 66/64/66 67/63/64 61/60/65
f 57/59/63 65/62/62 66/64/66
f 68/66/68 72/70/72 69/67/69
f 71/68/70 72/70/72 68/66/68
f 70/69/71 71/68/70 67/63/64
f 65/62/62 69/67/69 70/69/71
o Dropper2.001
v -0.013605 6.021013 24.993004
v -0.000131 6.537673 24.992802
v 0.022566 6.021013 25.001463
v 0.009003 6.537673 25.001665
v -0.013335 6.021013 25.011002
v 0.000139 6.537673 25.010799
v -0.022469 6.021013 25.002138
v -0.008995 6.537673 25.001936
v -0.000131 6.219751 24.992802
v 0.000139 6.219751 25.010799
v 0.013702 6.021013 25.010595
v 0.013432 6.021013 24.992598
v 0.009003 6.219751 25.001665
v -0.008995 6.219751 25.001936
vn -0.0150 -0.0000 -0.9999
vn 0.9993 0.0346 -0.0150
vn -0.0150 -0.0153 -0.9998
vn 0.9999 -0.0000 -0.0150
vn 0.0150 -0.0153 0.9998
vn -0.0000 1.0000 -0.0000
vn 0.0150 -0.0000 0.9999
vn -0.9993 0.0344 0.0150
vn -0.9999 -0.0000 0.0150
vn -0.0000 -1.0000 -0.0000
vn 0.3616 -0.0236 0.9320
vn -0.3614 -0.0237 -0.9321
vn -0.3333 -0.0237 0.9425
vn 0.3335 -0.0236 -0.9425
vn -0.9976 0.0677 0.0150
vn 0.9976 0.0681 -0.0150
vt 0.975413 0.009476
vt 0.975408 0.004677
vt 0.975413 0.004677
vt 0.975408 0.009476
vt 0.975404 0.004677
vt 0.975404 0.009476
vt 0.975408 0.004677
vt 0.975408 0.009476
vt 0.975413 0.001677
vt 0.975409 0.001677
vt 0.975404 0.001677
vt 0.975408 0.001677
vt 0.975412 0.001677
vt 0.975404 0.001677
s 1
usemtl Catenary
f 74/71/73 85/72/74 81/73/75
f 76/74/76 82/75/77 85/72/74
f 74/71/78 78/76/78 76/74/78
f 78/76/79 86/77/80 82/75/77
f 80/78/81 81/73/75 86/77/80
f 84/79/82 75/80/82 83/81/82
f 79/82/82 73/83/82 77/84/82
f 77/84/83 81/73/75 82/75/77
f 82/75/77 84/79/84 83/81/85
f 86/77/80 73/83/86 79/82/87
f 84/79/84 85/72/74 75/80/88
f 77/84/83 86/77/80 79/82/87
f 85/72/74 83/81/85 75/80/88
f 74/71/73 76/74/76 85/72/74
f 76/74/76 78/76/79 82/75/77
f 74/71/78 80/78/78 78/76/78
f 78/76/79 80/78/81 86/77/80
f 80/78/81 74/71/73 81/73/75
f 77/84/83 73/83/86 81/73/75
f 82/75/77 81/73/75 84/79/84
f 86/77/80 81/73/75 73/83/86
f 84/79/84 81/73/75 85/72/74
f 77/84/83 82/75/77 86/77/80
f 85/72/74 82/75/77 83/81/85
o Dropper3.001
v -0.013605 6.021013 14.989304
v -0.000131 6.537673 14.989101
v 0.022566 6.021013 14.997762
v 0.009003 6.537673 14.997965
v -0.013335 6.021013 15.007301
v 0.000139 6.537673 15.007099
v -0.022469 6.021013 14.998437
v -0.008995 6.537673 14.998236
v -0.000131 6.219751 14.989101
v 0.000139 6.219751 15.007099
v 0.013702 6.021013 15.006896
v 0.013432 6.021013 14.988898
v 0.009003 6.219751 14.997965
v -0.008995 6.219751 14.998236
vn -0.0150 -0.0000 -0.9999
vn 0.9993 0.0346 -0.0150
vn -0.0150 -0.0153 -0.9998
vn 0.9999 -0.0000 -0.0150
vn 0.0150 -0.0153 0.9998
vn -0.0000 1.0000 -0.0000
vn 0.0150 -0.0000 0.9999
vn -0.9993 0.0344 0.0150
vn -0.9999 -0.0000 0.0150
vn -0.0000 -1.0000 -0.0000
vn 0.3616 -0.0236 0.9320
vn -0.3614 -0.0237 -0.9321
vn -0.3333 -0.0237 0.9425
vn 0.3335 -0.0236 -0.9425
vn -0.9976 0.0677 0.0150
vn 0.9976 0.0681 -0.0150
vt 0.975413 0.009476
vt 0.975408 0.004677
vt 0.975413 0.004677
vt 0.975408 0.009476
vt 0.975404 0.004677
vt 0.975404 0.009476
vt 0.975408 0.004677
vt 0.975408 0.009476
vt 0.975413 0.001677
vt 0.975409 0.001677
vt 0.975404 0.001677
vt 0.975408 0.001677
vt 0.975412 0.001677
vt 0.975404 0.001677
s 1
usemtl Catenary
f 88/85/89 99/86/90 95/87/91
f 90/88/92 96/89/93 99/86/90
f 88/85/94 92/90/94 90/88/94
f 92/90/95 100/91/96 96/89/93
f 94/92/97 95/87/91 100/91/96
f 98/93/98 89/94/98 97/95/98
f 93/96/98 87/97/98 91/98/98
f 91/98/99 95/87/91 96/89/93
f 96/89/93 98/93/100 97/95/101
f 100/91/96 87/97/102 93/96/103
f 98/93/100 99/86/90 89/94/104
f 91/98/99 100/91/96 93/96/103
f 99/86/90 97/95/101 89/94/104
f 88/85/89 90/88/92 99/86/90
f 90/88/92 92/90/95 96/89/93
f 88/85/94 94/92/94 92/90/94
f 92/90/95 94/92/97 100/91/96
f 94/92/97 88/85/89 95/87/91
f 91/98/99 87/97/102 95/87/91
f 96/89/93 95/87/91 98/93/100
f 100/91/96 95/87/91 87/97/102
f 98/93/100 95/87/91 99/86/90
f 91/98/99 96/89/93 100/91/96
f 99/86/90 96/89/93 97/95/101
o Dropper4.001
v -0.013605 6.021013 9.987574
v -0.000131 6.628192 9.987371
v 0.022566 6.021013 9.996032
v 0.009003 6.628192 9.996235
v -0.013335 6.021013 10.005571
v 0.000139 6.628192 10.005369
v -0.022469 6.021013 9.996707
v -0.008995 6.628192 9.996506
v -0.000131 6.219751 9.987371
v 0.000139 6.219751 10.005369
v 0.013702 6.021013 10.005166
v 0.013432 6.021013 9.987168
v 0.009003 6.219751 9.996235
v -0.008995 6.219751 9.996506
vn -0.0150 -0.0000 -0.9999
vn 0.9993 0.0346 -0.0150
vn -0.0150 -0.0153 -0.9998
vn 0.9999 -0.0000 -0.0150
vn 0.0150 -0.0153 0.9998
vn -0.0000 1.0000 -0.0000
vn 0.0150 -0.0000 0.9999
vn -0.9993 0.0344 0.0150
vn -0.9999 -0.0000 0.0150
vn -0.0000 -1.0000 -0.0000
vn 0.3616 -0.0236 0.9320
vn -0.3614 -0.0237 -0.9321
vn -0.3333 -0.0237 0.9425
vn 0.3335 -0.0236 -0.9425
vn -0.9976 0.0677 0.0150
vn 0.9976 0.0681 -0.0150
vt 0.982312 0.010842
vt 0.982308 0.004677
vt 0.982312 0.004677
vt 0.982308 0.010842
vt 0.982304 0.004677
vt 0.982304 0.010842
vt 0.982308 0.004677
vt 0.982308 0.010842
vt 0.982312 0.001677
vt 0.982308 0.001677
vt 0.982304 0.001677
vt 0.982308 0.001677
vt 0.982312 0.001677
vt 0.982304 0.001677
s 1
usemtl Catenary
f 102/99/105 113/100/106 109/101/107
f 104/102/108 110/103/109 113/100/106
f 102/99/110 106/104/110 104/102/110
f 106/104/111 114/105/112 110/103/109
f 108/106/113 109/101/107 114/105/112
f 112/107/114 103/108/114 111/109/114
f 107/110/114 101/111/114 105/112/114
f 105/112/115 109/101/107 110/103/109
f 110/103/109 112/107/116 111/109/117
f 114/105/112 101/111/118 107/110/119
f 105/112/115 114/105/112 107/110/119
f 112/107/116 113/100/106 103/108/120
f 113/100/106 111/109/117 103/108/120
f 102/99/105 104/102/108 113/100/106
f 104/102/108 106/104/111 110/103/109
f 102/99/110 108/106/110 106/104/110
f 106/104/111 108/106/113 114/105/112
f 108/106/113 102/99/105 109/101/107
f 105/112/115 101/111/118 109/101/107
f 110/103/109 109/101/107 112/107/116
f 114/105/112 109/101/107 101/111/118
f 105/112/115 110/103/109 114/105/112
f 112/107/116 109/101/107 113/100/106
f 113/100/106 110/103/109 111/109/117
o Dropper5.001
v -0.013605 6.021013 29.994802
v -0.000131 6.628192 29.994600
v 0.022566 6.021013 30.003262
v 0.009003 6.628192 30.003464
v -0.013335 6.021013 30.012800
v 0.000139 6.628192 30.012598
v -0.022469 6.021013 30.003937
v -0.008995 6.628192 30.003735
v -0.000131 6.219751 29.994600
v 0.000139 6.219751 30.012598
v 0.013702 6.021013 30.012394
v 0.013432 6.021013 29.994396
v 0.009003 6.219751 30.003464
v -0.008995 6.219751 30.003735
vn -0.0150 -0.0000 -0.9999
vn 0.9993 0.0346 -0.0150
vn -0.0150 -0.0153 -0.9998
vn 0.9999 -0.0000 -0.0150
vn 0.0150 -0.0153 0.9998
vn -0.0000 1.0000 -0.0000
vn 0.0150 -0.0000 0.9999
vn -0.9993 0.0344 0.0150
vn -0.9999 -0.0000 0.0150
vn -0.0000 -1.0000 -0.0000
vn 0.3616 -0.0236 0.9320
vn -0.3614 -0.0237 -0.9321
vn -0.3333 -0.0237 0.9425
vn 0.3335 -0.0236 -0.9425
vn -0.9976 0.0677 0.0150
vn 0.9976 0.0681 -0.0150
vt 0.982312 0.010842
vt 0.982308 0.004677
vt 0.982312 0.004677
vt 0.982308 0.010842
vt 0.982304 0.004677
vt 0.982304 0.010842
vt 0.982308 0.004677
vt 0.982308 0.010842
vt 0.982312 0.001677
vt 0.982308 0.001677
vt 0.982304 0.001677
vt 0.982308 0.001677
vt 0.982312 0.001677
vt 0.982304 0.001677
s 1
usemtl Catenary
f 116/113/121 127/114/122 123/115/123
f 118/116/124 124/117/125 127/114/122
f 116/113/126 120/118/126 118/116/126
f 120/118/127 128/119/128 124/117/125
f 122/120/129 123/115/123 128/119/128
f 126/121/130 117/122/130 125/123/130
f 121/124/130 115/125/130 119/126/130
f 119/126/131 123/115/123 124/117/125
f 124/117/125 126/121/132 125/123/133
f 128/119/128 115/125/134 121/124/135
f 119/126/131 128/119/128 121/124/135
f 126/121/132 127/114/122 117/122/136
f 127/114/122 125/123/133 117/122/136
f 116/113/121 118/116/124 127/114/122
f 118/116/124 120/118/127 124/117/125
f 116/113/126 122/120/126 120/118/126
f 120/118/127 122/120/129 128/119/128
f 122/120/129 116/113/121 123/115/123
f 119/126/131 115/125/134 123/115/123
f 124/117/125 123/115/123 126/121/132
f 128/119/128 123/115/123 115/125/134
f 119/126/131 124/117/125 128/119/128
f 126/121/132 123/115/123 127/114/122
f 127/114/122 124/117/125 125/123/133
o Dropper6.001
v -0.013605 6.021013 34.996502
v -0.000131 6.783418 34.996300
v 0.022566 6.021013 35.004959
v 0.009003 6.783418 35.005165
v -0.013335 6.021013 35.014500
v 0.000139 6.783418 35.014297
v -0.022469 6.021013 35.005634
v -0.008995 6.783418 35.005432
v -0.000131 6.219751 34.996300
v 0.000139 6.219751 35.014297
v 0.013702 6.021013 35.014095
v 0.013432 6.021013 34.996098
v 0.009003 6.219751 35.005165
v -0.008995 6.219751 35.005432
vn -0.0150 -0.0000 -0.9999
vn 0.9993 0.0346 -0.0150
vn -0.0150 -0.0153 -0.9998
vn 0.9999 -0.0000 -0.0150
vn 0.0150 -0.0153 0.9998
vn -0.0000 1.0000 -0.0000
vn 0.0150 -0.0000 0.9999
vn -0.9993 0.0344 0.0150
vn -0.9999 -0.0000 0.0150
vn -0.0000 -1.0000 -0.0000
vn 0.3616 -0.0236 0.9320
vn -0.3614 -0.0237 -0.9321
vn -0.3333 -0.0237 0.9425
vn -0.9976 0.0677 0.0150
vn 0.3335 -0.0236 -0.9425
vn 0.9976 0.0681 -0.0150
vt 0.970813 0.013185
vt 0.970809 0.004677
vt 0.970813 0.004677
vt 0.970809 0.013185
vt 0.970805 0.004677
vt 0.970805 0.013185
vt 0.970809 0.004677
vt 0.970809 0.013185
vt 0.970813 0.001677
vt 0.970809 0.001677
vt 0.970805 0.001677
vt 0.970809 0.001677
vt 0.970813 0.001677
vt 0.970804 0.001677
s 1
usemtl Catenary
f 130/127/137 141/128/138 137/129/139
f 132/130/140 138/131/141 141/128/138
f 130/127/142 134/132/142 132/130/142
f 134/132/143 142/133/144 138/131/141
f 136/134/145 137/129/139 142/133/144
f 140/135/146 131/136/146 139/137/146
f 135/138/146 129/139/146 133/140/146
f 133/140/147 137/129/139 138/131/141
f 138/131/141 140/135/148 139/137/149
f 133/140/147 142/133/144 135/138/150
f 142/133/144 129/139/151 135/138/150
f 141/128/138 139/137/149 131/136/152
f 140/135/148 141/128/138 131/136/152
f 130/127/137 132/130/140 141/128/138
f 132/130/140 134/132/143 138/131/141
f 130/127/142 136/134/142 134/132/142
f 134/132/143 136/134/145 142/133/144
f 136/134/145 130/127/137 137/129/139
f 133/140/147 129/139/151 137/129/139
f 138/131/141 137/129/139 140/135/148
f 133/140/147 138/131/141 142/133/144
f 142/133/144 137/129/139 129/139/151
f 141/128/138 138/131/141 139/137/149
f 140/135/148 137/129/139 141/128/138
o Dropper7.001
v -0.013605 6.021013 4.985763
v -0.000131 6.783418 4.985561
v 0.022566 6.021013 4.994221
v 0.009003 6.783418 4.994425
v -0.013335 6.021013 5.003761
v 0.000139 6.783418 5.003559
v -0.022469 6.021013 4.994897
v -0.008995 6.783418 4.994695
v -0.000131 6.219751 4.985561
v 0.000139 6.219751 5.003559
v 0.013702 6.021013 5.003356
v 0.013432 6.021013 4.985357
v 0.009003 6.219751 4.994425
v -0.008995 6.219751 4.994695
vn -0.0150 -0.0000 -0.9999
vn 0.9993 0.0346 -0.0150
vn -0.0150 -0.0153 -0.9998
vn 0.9999 -0.0000 -0.0150
vn 0.0150 -0.0153 0.9998
vn -0.0000 1.0000 -0.0000
vn 0.0150 -0.0000 0.9999
vn -0.9993 0.0344 0.0150
vn -0.9999 -0.0000 0.0150
vn -0.0000 -1.0000 -0.0000
vn 0.3616 -0.0236 0.9320
vn -0.3614 -0.0237 -0.9321
vn -0.3333 -0.0237 0.9425
vn -0.9976 0.0677 0.0150
vn 0.3335 -0.0236 -0.9425
vn 0.9976 0.0681 -0.0150
vt 0.970813 0.013185
vt 0.970809 0.004677
vt 0.970813 0.004677
vt 0.970809 0.013185
vt 0.970805 0.004677
vt 0.970805 0.013185
vt 0.970809 0.004677
vt 0.970809 0.013185
vt 0.970813 0.001677
vt 0.970809 0.001677
vt 0.970805 0.001677
vt 0.970809 0.001677
vt 0.970813 0.001677
vt 0.970804 0.001677
s 1
usemtl Catenary
f 144/141/153 155/142/154 151/143/155
f 146/144/156 152/145/157 155/142/154
f 144/141/158 148/146/158 146/144/158
f 148/146/159 156/147/160 152/145/157
f 150/148/161 151/143/155 156/147/160
f 154/149/162 145/150/162 153/151/162
f 149/152/162 143/153/162 147/154/162
f 147/154/163 151/143/155 152/145/157
f 152/145/157 154/149/164 153/151/165
f 147/154/163 156/147/160 149/152/166
f 156/147/160 143/153/167 149/152/166
f 155/142/154 153/151/165 145/150/168
f 154/149/164 155/142/154 145/150/168
f 144/141/153 146/144/156 155/142/154
f 146/144/156 148/146/159 152/145/157
f 144/141/158 150/148/158 148/146/158
f 148/146/159 150/148/161 156/147/160
f 150/148/161 144/141/153 151/143/155
f 147/154/163 143/153/167 151/143/155
f 152/145/157 151/143/155 154/149/164
f 147/154/163 152/145/157 156/147/160
f 156/147/160 151/143/155 143/153/167
f 155/142/154 152/145/157 153/151/165
f 154/149/164 151/143/155 155/142/154
o Messenger.003
v 0.000022 6.995394 -0.007250
v 0.000172 6.995426 40.007248
v 0.009021 6.986394 -0.007385
v 0.009171 6.986426 40.007111
v 0.000022 6.977394 -0.007250
v 0.000172 6.977426 40.007248
v -0.008977 6.986394 -0.007114
v -0.008827 6.986426 40.007381
v 0.000097 6.502918 19.999998
v 0.009096 6.493918 19.999863
v 0.000097 6.484918 19.999998
v -0.008902 6.493918 20.000134
v 0.000134 6.636969 30.003622
v 0.009058 6.627953 9.996239
v 0.000059 6.618953 9.996374
v -0.008940 6.627953 9.996510
v 0.000059 6.636953 9.996374
v 0.009133 6.627968 30.003487
v 0.000134 6.618968 30.003622
v -0.008865 6.627968 30.003757
v 0.000153 6.792821 35.005432
v 0.009040 6.783797 4.994427
v 0.000041 6.774797 4.994561
v -0.008958 6.783797 4.994697
v 0.000078 6.546559 14.998186
v 0.009114 6.537568 25.001675
v 0.000116 6.528567 25.001810
v -0.008883 6.537568 25.001945
v 0.000116 6.546567 25.001810
v 0.009077 6.537560 14.998051
v 0.000078 6.528560 14.998186
v -0.008921 6.537560 14.998322
v 0.000041 6.792798 4.994561
v 0.009152 6.783821 35.005299
v 0.000153 6.774821 35.005432
v -0.008846 6.783821 35.005569
vn 0.0150 -0.0000 0.9999
vn -0.0150 -0.0000 -0.9999
vn -1.0000 -0.0020 -0.0001
vn -0.0000 1.0000 -0.0000
vn 0.0001 0.9999 0.0134
vn -0.0000 -1.0000 -0.0000
vn -0.0001 -0.9999 -0.0134
vn 1.0000 -0.0039 -0.0000
vn 1.0000 -0.0022 -0.0001
vn 0.0002 0.9997 0.0247
vn 1.0000 -0.0024 -0.0002
vn 0.0003 0.9994 0.0359
vn 1.0000 -0.0031 -0.0002
vn -0.0003 -0.9994 -0.0357
vn -1.0000 -0.0028 -0.0001
vn -1.0000 -0.0018 -0.0001
vn -1.0000 -0.0031 0.0002
vn -0.0001 0.9999 -0.0134
vn -1.0000 -0.0022 0.0001
vn 0.0002 -0.9997 0.0245
vn 0.0001 -0.9999 0.0134
vn 1.0000 -0.0020 0.0001
vn 1.0000 -0.0028 0.0001
vn -1.0000 -0.0039 -0.0000
vn -0.9998 0.0184 0.0007
vn 0.0072 0.9992 0.0405
vn 0.0063 -0.9992 -0.0405
vn 0.9998 0.0180 0.0007
vn -0.0002 -0.9997 -0.0245
vn -0.9999 0.0139 -0.0004
vn -0.0002 0.9997 -0.0247
vn -0.0064 -0.9995 0.0311
vn 0.9999 0.0141 -0.0004
vn -0.0071 0.9995 -0.0311
vt 0.987016 0.012627
vt 0.987016 0.012439
vt 0.987016 0.012533
vt 0.997518 0.012532
vt 0.997518 0.012532
vt 0.997518 0.012627
vt 0.993580 0.007839
vt 0.992267 0.007477
vt 0.993580 0.007933
vt 0.992267 0.007289
vt 0.993580 0.007745
vt 0.992267 0.007383
vt 0.993580 0.007839
vt 0.994893 0.008879
vt 0.996205 0.010414
vt 0.996205 0.010508
vt 0.994893 0.008784
vt 0.996205 0.010320
vt 0.994892 0.008784
vt 0.996205 0.010414
vt 0.989641 0.008785
vt 0.990954 0.007934
vt 0.990954 0.007839
vt 0.989641 0.008691
vt 0.990954 0.007745
vt 0.990954 0.007839
vt 0.989641 0.008785
vt 0.992267 0.007383
vt 0.997518 0.012438
vt 0.994893 0.008690
vt 0.988329 0.010414
vt 0.989641 0.008879
vt 0.988329 0.010320
vt 0.988329 0.010414
vt 0.987016 0.012533
vt 0.988329 0.010508
s 1
usemtl Catenary
f 158/155/169 162/156/169 160/157/169
f 159/158/170 163/159/170 157/160/170
f 188/161/171 165/162/172 181/163/173
f 167/164/174 188/161/171 187/165/175
f 166/166/176 187/165/175 186/167/177
f 181/163/173 166/166/176 186/167/177
f 173/168/178 178/169/179 189/170/180
f 170/171/181 179/172/182 178/169/179
f 179/172/182 172/173/183 180/174/184
f 180/174/184 173/168/178 189/170/180
f 176/175/185 185/176/186 184/177/187
f 175/178/188 184/177/187 183/179/189
f 182/180/190 175/178/188 183/179/189
f 185/176/186 174/181/191 182/180/190
f 165/162/172 182/180/190 166/166/176
f 182/180/190 167/164/174 166/166/176
f 183/179/189 168/182/192 167/164/174
f 168/182/192 185/176/186 165/162/172
f 163/159/193 189/170/180 157/160/194
f 161/183/195 180/174/184 163/159/193
f 178/169/179 161/183/195 159/158/196
f 189/170/180 159/158/196 157/160/194
f 181/163/173 170/171/181 173/168/178
f 186/167/177 171/184/197 170/171/181
f 171/184/197 188/161/171 172/173/183
f 172/173/183 181/163/173 173/168/178
f 192/185/198 169/186/199 176/175/185
f 191/187/200 176/175/185 175/178/188
f 174/181/191 191/187/200 175/178/188
f 169/186/199 190/188/201 174/181/191
f 158/155/169 164/189/169 162/156/169
f 159/158/170 161/183/170 163/159/170
f 188/161/171 168/182/192 165/162/172
f 167/164/174 168/182/192 188/161/171
f 166/166/176 167/164/174 187/165/175
f 181/163/173 165/162/172 166/166/176
f 173/168/178 170/171/181 178/169/179
f 170/171/181 171/184/197 179/172/182
f 179/172/182 171/184/197 172/173/183
f 180/174/184 172/173/183 173/168/178
f 176/175/185 169/186/199 185/176/186
f 175/178/188 176/175/185 184/177/187
f 182/180/190 174/181/191 175/178/188
f 185/176/186 169/186/199 174/181/191
f 165/162/172 185/176/186 182/180/190
f 182/180/190 183/179/189 167/164/174
f 183/179/189 184/177/187 168/182/192
f 168/182/192 184/177/187 185/176/186
f 163/159/193 180/174/184 189/170/180
f 161/183/195 179/172/182 180/174/184
f 178/169/179 179/172/182 161/183/195
f 189/170/180 178/169/179 159/158/196
f 181/163/173 186/167/177 170/171/181
f 186/167/177 187/165/175 171/184/197
f 171/184/197 187/165/175 188/161/171
f 172/173/183 188/161/171 181/163/173
f 192/185/198 177/190/202 169/186/199
f 191/187/200 192/185/198 176/175/185
f 174/181/191 190/188/201 191/187/200
f 169/186/199 177/190/202 190/188/201
