# Blender 5.0.1
# www.blender.org
mtllib end_pole_anchor.mtl
o PoleAnchor
g end_pole_anchor
v -2.400000 -8.350693 13.859507
v -2.400000 -8.067850 14.142349
v -2.400000 0.282098 5.226716
v -2.400000 0.564940 5.509558
v -2.000000 -8.350693 13.859507
v -2.000000 -8.067850 14.142349
v -2.000000 0.282098 5.226716
v -2.000000 0.564940 5.509558
v -2.212977 5.653824 0.102476
v -2.212977 5.689179 0.137832
v -2.187022 5.653824 0.102476
v -2.187022 5.689179 0.137832
v -2.212977 0.802167 4.954134
v -2.212977 0.837523 4.989489
v -2.187022 0.802167 4.954133
v -2.187022 0.837522 4.989490
v -2.400000 -10.282407 8.131989
v -2.400000 -10.081719 8.478002
v -2.400000 0.278413 2.006692
v -2.400000 0.479101 2.352704
v -2.000000 -10.282407 8.131989
v -2.000000 -10.081719 8.478002
v -2.000000 0.278413 2.006692
v -2.000000 0.479101 2.352704
v -2.212977 0.676611 1.978041
v -2.212977 0.701697 2.021293
v -2.212977 3.969069 0.068409
v -2.212977 3.994155 0.111660
v -2.187022 0.676611 1.978041
v -2.187022 0.701697 2.021293
v -2.187022 3.969069 0.068409
v -2.187022 3.994155 0.111660
v -2.212977 0.851054 1.876864
v -2.212977 0.793734 1.910109
v -2.212977 0.818820 1.953361
v -2.212977 0.876140 1.920115
v -2.187022 0.793734 1.910109
v -2.187022 0.851054 1.876864
v -2.187022 0.876139 1.920115
v -2.187022 0.818820 1.953361
v -2.212977 0.821329 1.957686
v -2.212977 0.878649 1.924441
v -2.187022 0.878648 1.924441
v -2.187022 0.821329 1.957686
v -2.212977 0.848545 1.872539
v -2.212977 0.791226 1.905784
v -2.187022 0.791226 1.905784
v -2.187022 0.848546 1.872539
v -2.212977 0.833493 1.846588
v -2.212977 0.776174 1.879833
v -2.187022 0.776174 1.879833
v -2.187022 0.833494 1.846588
v -2.212977 0.836380 1.983637
v -2.212977 0.893700 1.950391
v -2.187022 0.893700 1.950392
v -2.187022 0.836380 1.983637
v -2.212977 0.390236 2.207721
v -2.187022 0.390236 2.207721
v -2.187022 0.360133 2.155819
v -2.212977 0.360133 2.155819
v -2.187022 0.345082 2.129868
v -2.212977 0.345082 2.129868
v -2.212977 0.405288 2.233671
v -2.187022 0.405288 2.233671
v -2.212977 0.903354 1.910111
v -2.187022 0.903354 1.910112
v -2.187022 0.873251 1.858209
v -2.212977 0.873250 1.858210
v -2.187022 0.858199 1.832258
v -2.212977 0.858199 1.832259
v -2.212977 0.918406 1.936062
v -2.187022 0.918405 1.936062
v -2.177022 0.793734 1.910109
v -2.177022 0.851054 1.876864
v -2.177022 0.876139 1.920115
v -2.177022 0.818820 1.953361
v -2.177022 0.878648 1.924441
v -2.177022 0.821329 1.957686
v -2.177022 0.791226 1.905784
v -2.177022 0.848546 1.872539
v -2.177022 0.776174 1.879833
v -2.177022 0.833494 1.846588
v -2.177022 0.893700 1.950392
v -2.177022 0.836380 1.983637
v -2.222977 0.851054 1.876864
v -2.222977 0.793734 1.910109
v -2.222977 0.818820 1.953361
v -2.222977 0.876140 1.920115
v -2.222977 0.821329 1.957686
v -2.222977 0.878649 1.924441
v -2.222977 0.848545 1.872539
v -2.222977 0.791226 1.905784
v -2.222977 0.833493 1.846588
v -2.222977 0.776174 1.879833
v -2.222977 0.836380 1.983637
v -2.222977 0.893700 1.950391
v -2.212977 0.659617 5.096773
v -2.212977 0.694983 5.132117
v -2.187022 0.659617 5.096773
v -2.187022 0.694983 5.132117
v -2.212977 0.802167 4.954133
v -2.212977 0.755327 5.001002
v -2.212977 0.790694 5.036346
v -2.212977 0.837534 4.989477
v -2.187022 0.755328 5.001002
v -2.187022 0.802168 4.954132
v -2.187022 0.837534 4.989477
v -2.187022 0.790694 5.036346
v -2.212977 0.794231 5.039881
v -2.212977 0.841071 4.993011
v -2.187022 0.841070 4.993011
v -2.187022 0.794231 5.039881
v -2.212977 0.798631 4.950598
v -2.212977 0.751791 4.997468
v -2.187022 0.751791 4.997468
v -2.187022 0.798631 4.950598
v -2.212977 0.777411 4.929392
v -2.212977 0.730571 4.976262
v -2.187022 0.730571 4.976261
v -2.187022 0.777411 4.929391
v -2.212977 0.815450 5.061088
v -2.212977 0.862291 5.014217
v -2.187022 0.862291 5.014218
v -2.187022 0.815450 5.061088
v -2.212977 0.441951 5.392383
v -2.187022 0.441951 5.392383
v -2.187022 0.399512 5.349970
v -2.212977 0.399512 5.349970
v -2.187022 0.378292 5.328763
v -2.212977 0.378292 5.328763
v -2.212977 0.463171 5.413589
v -2.187022 0.463171 5.413589
v -2.212977 0.861260 4.972810
v -2.187022 0.861259 4.972810
v -2.187022 0.818820 4.930397
v -2.212977 0.818820 4.930397
v -2.187022 0.797600 4.909190
v -2.212977 0.797600 4.909190
v -2.212977 0.882480 4.994016
v -2.187022 0.882479 4.994016
v -2.177022 0.755328 5.001002
v -2.177022 0.802168 4.954132
v -2.177022 0.837534 4.989477
v -2.177022 0.790694 5.036346
v -2.177022 0.841070 4.993011
v -2.177022 0.794231 5.039881
v -2.177022 0.751791 4.997468
v -2.177022 0.798631 4.950598
v -2.177022 0.730571 4.976261
v -2.177022 0.777411 4.929391
v -2.177022 0.862291 5.014218
v -2.177022 0.815450 5.061088
v -2.222977 0.802167 4.954133
v -2.222977 0.755327 5.001002
v -2.222977 0.790694 5.036346
v -2.222977 0.837534 4.989477
v -2.222977 0.794231 5.039881
v -2.222977 0.841071 4.993011
v -2.222977 0.798631 4.950598
v -2.222977 0.751791 4.997468
v -2.222977 0.777411 4.929392
v -2.222977 0.730571 4.976262
v -2.222977 0.815450 5.061088
v -2.222977 0.862291 5.014217
vn -1.0000 -0.0000 -0.0000
vn -0.0000 0.7071 -0.7071
vn 1.0000 -0.0000 -0.0000
vn -0.0000 -0.7071 -0.7071
vn -0.0000 0.7071 0.7071
vn -0.7071 0.5000 0.5000
vn -0.7071 -0.5000 -0.5000
vn 0.7071 0.5000 0.5000
vn 0.7071 -0.5000 -0.5000
vn -0.0000 0.8650 -0.5017
vn -0.0000 -0.5017 -0.8650
vn -0.0000 0.5017 0.8650
vn -0.7071 0.3548 0.6117
vn -0.7071 -0.3548 -0.6117
vn -0.0000 -0.8650 0.5017
vn 0.7071 0.3548 0.6117
vn 0.7071 -0.3548 -0.6117
vn -0.0000 0.8650 -0.5018
vn -0.0000 -0.8650 0.5018
vn -0.0000 -0.7069 0.7073
vn -0.0000 -0.7073 -0.7069
vn -0.0000 0.7073 0.7069
vn -0.0000 0.7068 -0.7074
vn -0.0000 0.7069 -0.7073
vn -0.0000 -0.7069 0.7074
vn -0.0000 -0.7068 0.7074
vn -0.0000 0.7069 -0.7074
vt 0.249994 -2.687500
vt 0.000002 2.937500
vt 0.000002 -2.687500
vt 0.249994 0.250000
vt 0.000002 0.500000
vt 0.000002 0.250000
vt -0.000002 3.437410
vt 0.249998 -2.187410
vt 0.249998 3.437410
vt -0.000002 3.187410
vt 0.249998 -2.437410
vt 0.249998 3.187410
vt -0.000002 3.687410
vt 0.249998 -1.937410
vt 0.249998 3.687410
vt 0.602785 -0.113258
vt 0.610072 0.886737
vt 0.610072 -0.113258
vt 0.606570 0.886738
vt 0.602787 -0.113261
vt 0.606570 -0.113261
vt 0.602787 0.886738
vt 0.606570 -0.113261
vt 0.602787 -0.113261
vt 0.602785 0.886737
vt 0.610072 -0.113258
vt 0.249994 2.937500
vt 0.602533 0.163360
vt 0.610801 0.684720
vt 0.609766 0.163346
vt 0.607112 0.052851
vt 0.607112 0.050192
vt 0.607112 0.052382
vt 0.607112 0.050661
vt 0.606627 0.050192
vt 0.606627 0.052382
vt 0.606627 0.050661
vt 0.604823 0.684768
vt 0.608511 0.163326
vt 0.608511 0.684768
vt 0.976845 0.010528
vt 0.977032 0.010809
vt 0.976845 0.010809
vt 0.608511 0.684754
vt 0.604823 0.163312
vt 0.604823 0.684754
vt 0.976845 0.012444
vt 0.977032 0.012397
vt 0.976845 0.012397
vt 0.602533 0.163360
vt 0.609766 0.163346
vt 0.976845 0.010856
vt 0.977032 0.011325
vt 0.976845 0.011325
vt 0.976359 0.011325
vt 0.976172 0.010856
vt 0.976359 0.010856
vt 0.976845 0.011881
vt 0.976845 0.012061
vt 0.976845 0.012343
vt 0.976359 0.012444
vt 0.976172 0.012725
vt 0.976359 0.012725
vt 0.976359 0.012397
vt 0.976359 0.011372
vt 0.976845 0.011654
vt 0.976845 0.003313
vt 0.976845 0.011372
vt 0.976359 0.011881
vt 0.976172 0.011928
vt 0.976359 0.011928
vt 0.976359 0.011600
vt 0.976359 0.010528
vt 0.977032 0.011654
vt 0.976845 0.012906
vt 0.976172 0.012444
vt 0.976845 0.012725
vt 0.976359 0.011654
vt 0.976172 0.011654
vt 0.976359 0.010809
vt 0.976845 0.002750
vt 0.976845 0.011600
vt 0.977032 0.010528
vt 0.125000 0.666667
vt 0.375000 0.666667
vt 0.625000 0.666667
vt 0.875000 0.666667
vt 0.976359 0.002469
vt 0.976359 0.002750
vt 0.976359 0.003594
vt 0.976845 0.003594
vt 0.976359 0.003313
vt 0.976845 0.002469
vt 0.976359 0.012906
vt 0.976845 0.013187
vt 0.976359 0.012343
vt 0.976359 0.012061
vt 0.976359 0.013187
vt 0.977032 0.011372
vt 0.977032 0.011928
vt 0.977032 0.011881
vt 0.977032 0.010856
vt 0.977032 0.011600
vt 0.977032 0.012725
vt 0.977032 0.012444
vt 0.976845 0.011928
vt 0.976172 0.011325
vt 0.976172 0.012397
vt 0.976172 0.010809
vt 0.976172 0.011881
vt 0.976172 0.010528
vt 0.976172 0.011600
vt 0.976172 0.011372
vt 0.607112 0.052325
vt 0.607112 0.049875
vt 0.607112 0.051664
vt 0.607112 0.050536
vt 0.606627 0.049875
vt 0.606627 0.051664
vt 0.606627 0.050536
vt 0.976845 0.009675
vt 0.977032 0.010072
vt 0.976845 0.010072
vt 0.976845 0.011741
vt 0.977032 0.011675
vt 0.976845 0.011675
vt 0.976845 0.010138
vt 0.977032 0.010799
vt 0.976845 0.010799
vt 0.976359 0.009010
vt 0.976359 0.010138
vt 0.976359 0.008349
vt 0.976359 0.010799
vt 0.976172 0.010138
vt 0.976845 0.010948
vt 0.976845 0.010929
vt 0.976845 0.011325
vt 0.976359 0.011741
vt 0.976172 0.012138
vt 0.976359 0.012138
vt 0.976359 0.011675
vt 0.976359 0.010866
vt 0.976845 0.010866
vt 0.976845 0.004676
vt 0.976845 0.004280
vt 0.976359 0.010948
vt 0.976172 0.011014
vt 0.976359 0.011014
vt 0.976359 0.010551
vt 0.976359 0.009675
vt 0.977032 0.011262
vt 0.976845 0.011262
vt 0.976845 0.012119
vt 0.976172 0.011741
vt 0.976845 0.012138
vt 0.976359 0.011262
vt 0.976172 0.011262
vt 0.976359 0.010072
vt 0.976845 0.003486
vt 0.976845 0.010551
vt 0.977032 0.009675
vt 0.976359 0.003090
vt 0.976359 0.003486
vt 0.976359 0.004676
vt 0.976359 0.004280
vt 0.976845 0.003090
vt 0.976359 0.012119
vt 0.976845 0.012515
vt 0.976359 0.010929
vt 0.976359 0.012515
vt 0.977032 0.010866
vt 0.977032 0.010138
vt 0.977032 0.010948
vt 0.977032 0.011014
vt 0.977032 0.010551
vt 0.977032 0.012138
vt 0.977032 0.011741
vt 0.976845 0.011014
vt 0.976172 0.010799
vt 0.976172 0.011675
vt 0.976172 0.010866
vt 0.976172 0.010072
vt 0.976172 0.010948
vt 0.976172 0.009675
vt 0.976172 0.010551
vt 0.249994 0.500000
vt -0.000002 -2.187410
vt -0.000002 -2.437410
vt -0.000002 -1.937410
vt 0.602785 -0.113258
vt 0.603569 0.684735
vt 0.606627 0.052851
vt 0.604823 0.163326
vt 0.608511 0.163312
vt 0.606627 0.052325
s 0
usemtl Catenary
f 2/1/1 3/2/1 1/3/1
f 4/4/2 7/5/2 3/6/2
f 8/7/3 5/8/3 7/9/3
f 7/10/4 1/11/4 3/12/4
f 4/13/5 6/14/5 8/15/5
s 1
f 14/16/6 9/17/7 13/18/7
f 12/19/8 14/20/6 16/21/8
f 9/22/7 15/23/9 13/24/7
f 12/25/8 15/26/9 11/17/9
s 0
f 17/3/1 20/27/1 19/2/1
f 20/4/10 23/5/10 19/6/10
f 24/7/3 21/8/3 23/9/3
f 23/10/11 17/11/11 19/12/11
f 20/13/12 22/14/12 24/15/12
s 1
f 36/28/13 27/29/14 33/30/14
s 0
f 40/31/3 29/32/3 37/33/3
f 30/34/15 25/35/15 29/32/15
f 34/36/11 29/32/11 25/35/11
f 40/31/12 26/37/12 30/34/12
s 1
f 28/38/13 39/39/16 32/40/16
s 0
f 51/41/15 79/42/15 47/43/15
s 1
f 31/44/17 33/45/14 27/46/14
s 0
f 43/47/10 75/48/10 39/49/10
s 1
f 31/29/17 39/50/16 38/51/17
s 0
f 37/52/15 76/53/15 40/54/15
f 26/37/1 34/36/1 25/35/1
f 35/55/15 86/56/15 34/57/15
f 48/58/3 69/59/3 67/60/3
f 42/61/10 96/62/10 54/63/10
f 36/64/18 43/47/18 39/49/18
f 40/54/15 41/65/15 35/55/15
f 56/66/3 58/67/3 44/68/3
f 45/69/10 85/70/10 33/71/10
f 33/71/10 48/58/10 45/69/10
f 34/57/15 47/43/15 37/52/15
f 49/72/11 51/41/11 50/73/11
f 44/68/15 84/74/15 56/66/15
f 42/61/11 66/75/11 43/47/11
f 36/64/10 90/76/10 42/61/10
f 55/77/12 53/78/12 56/66/12
f 54/63/12 95/79/12 53/78/12
f 46/80/12 59/81/12 47/43/12
f 52/82/11 81/83/11 51/41/11
f 60/84/15 61/85/15 59/85/15
f 58/86/15 63/87/15 57/87/15
f 46/80/1 62/88/1 60/89/1
f 56/66/12 63/90/12 64/91/12
f 44/68/11 57/92/11 41/65/11
f 47/43/3 61/93/3 51/41/3
f 41/65/1 63/90/1 53/78/1
f 50/73/11 61/93/11 62/88/11
f 65/94/10 72/95/10 66/75/10
f 68/96/10 69/59/10 70/97/10
f 43/47/3 72/95/3 55/77/3
f 52/82/11 70/97/11 69/59/11
f 49/72/1 68/96/1 70/97/1
f 48/58/12 68/96/12 45/69/12
f 54/63/1 65/94/1 42/61/1
f 54/63/12 72/95/12 71/98/12
f 75/48/3 78/99/3 76/53/3
f 74/100/3 79/42/3 80/101/3
f 75/48/3 73/102/3 74/100/3
f 79/42/3 82/103/3 80/101/3
f 78/99/3 83/104/3 84/74/3
f 56/66/12 83/104/12 55/77/12
f 48/58/10 82/103/10 52/82/10
f 40/54/15 78/99/15 44/68/15
f 55/77/10 77/105/10 43/47/10
f 47/43/19 73/102/19 37/52/19
f 39/49/10 74/100/10 38/106/10
f 38/106/10 80/101/10 48/58/10
f 87/107/1 85/70/1 86/56/1
f 87/107/1 90/76/1 88/108/1
f 85/70/1 92/109/1 86/56/1
f 91/110/1 94/111/1 92/109/1
f 90/76/1 95/79/1 96/62/1
f 34/57/15 92/109/15 46/80/15
f 33/71/10 88/108/10 36/64/10
f 50/73/11 93/112/11 49/72/11
f 41/65/15 87/107/15 35/55/15
f 49/72/10 91/110/10 45/69/10
f 53/78/15 89/113/15 41/65/15
f 46/80/15 94/111/15 50/73/15
f 108/114/3 99/115/3 105/116/3
f 100/117/20 97/118/20 99/115/20
f 102/119/21 99/115/21 97/118/21
f 108/114/22 98/120/22 100/117/22
f 119/121/20 147/122/20 115/123/20
f 111/124/23 143/125/23 107/126/23
f 105/127/20 144/128/20 108/129/20
f 98/130/1 102/131/1 97/132/1
f 103/133/20 154/134/20 102/131/20
f 116/135/3 137/136/3 135/137/3
f 110/138/24 164/139/24 122/140/24
f 104/141/24 111/124/24 107/126/24
f 108/129/20 109/142/20 103/133/20
f 112/143/3 132/144/3 126/145/3
f 113/146/24 153/147/24 101/148/24
f 101/148/24 116/135/24 113/146/24
f 102/131/25 115/123/25 105/127/25
f 117/149/21 119/121/21 118/150/21
f 112/143/20 152/151/20 124/152/20
f 110/138/21 134/153/21 111/124/21
f 104/141/24 158/154/24 110/138/24
f 123/155/22 121/156/22 124/152/22
f 122/140/22 163/157/22 121/156/22
f 114/158/22 127/159/22 115/123/22
f 120/160/21 149/161/21 119/121/21
f 114/158/1 130/162/1 128/163/1
f 124/152/22 131/164/22 132/144/22
f 112/143/21 125/165/21 109/142/21
f 115/123/3 129/166/3 119/121/3
f 109/142/1 131/164/1 121/156/1
f 118/150/21 129/166/21 130/162/21
f 133/167/24 140/168/24 134/153/24
f 135/137/24 138/169/24 136/55/24
f 123/155/3 134/153/3 140/168/3
f 120/160/21 138/169/21 137/136/21
f 113/146/1 138/169/1 117/149/1
f 116/135/22 136/55/22 113/146/22
f 122/140/1 133/167/1 110/138/1
f 122/140/22 140/168/22 139/170/22
f 143/125/3 146/171/3 144/128/3
f 141/172/3 148/173/3 142/174/3
f 143/125/3 141/172/3 142/174/3
f 148/173/3 149/161/3 150/175/3
f 146/171/3 151/176/3 152/151/3
f 124/152/22 151/176/22 123/155/22
f 116/135/24 150/175/24 120/160/24
f 108/129/26 146/171/26 112/143/26
f 123/155/24 145/177/24 111/124/24
f 115/123/26 141/172/26 105/127/26
f 107/126/24 142/174/24 106/178/24
f 106/178/24 148/173/24 116/135/24
f 155/179/1 153/147/1 154/134/1
f 156/180/1 157/181/1 158/154/1
f 153/147/1 160/182/1 154/134/1
f 159/183/1 162/184/1 160/182/1
f 158/154/1 163/157/1 164/139/1
f 102/131/26 160/182/26 114/158/26
f 101/148/24 156/180/24 104/141/24
f 118/150/21 161/185/21 117/149/21
f 109/142/26 155/179/26 103/133/26
f 117/149/24 159/183/24 113/146/24
f 121/156/20 157/181/20 109/142/20
f 114/158/20 162/184/20 118/150/20
f 2/1/1 4/27/1 3/2/1
f 4/4/2 8/186/2 7/5/2
f 8/7/3 6/187/3 5/8/3
f 7/10/4 5/188/4 1/11/4
f 4/13/5 2/189/5 6/14/5
s 1
f 14/16/6 10/25/6 9/17/7
f 12/19/8 10/22/6 14/20/6
f 9/22/7 11/19/9 15/23/9
f 12/25/8 16/190/8 15/26/9
s 0
f 17/3/1 18/1/1 20/27/1
f 20/4/10 24/186/10 23/5/10
f 24/7/3 22/187/3 21/8/3
f 23/10/11 21/188/11 17/11/11
f 20/13/12 18/189/12 22/14/12
s 1
f 36/28/13 28/191/13 27/29/14
s 0
f 40/31/3 30/34/3 29/32/3
f 30/34/15 26/37/15 25/35/15
f 34/36/11 37/33/11 29/32/11
f 40/31/12 35/192/12 26/37/12
s 1
f 28/38/13 36/193/13 39/39/16
s 0
f 51/41/15 81/83/15 79/42/15
s 1
f 31/44/17 38/194/17 33/45/14
s 0
f 43/47/10 77/105/10 75/48/10
s 1
f 31/29/17 32/191/16 39/50/16
s 0
f 37/52/15 73/102/15 76/53/15
f 26/37/1 35/192/1 34/36/1
f 35/55/15 87/107/15 86/56/15
f 48/58/3 52/82/3 69/59/3
f 42/61/10 90/76/10 96/62/10
f 36/64/10 42/61/10 43/47/10
f 40/54/15 44/68/15 41/65/15
f 56/66/3 64/91/3 58/67/3
f 45/69/10 91/110/10 85/70/10
f 33/71/10 38/106/10 48/58/10
f 34/57/15 46/80/15 47/43/15
f 49/72/11 52/82/11 51/41/11
f 44/68/15 78/99/15 84/74/15
f 42/61/11 65/94/11 66/75/11
f 36/64/10 88/108/10 90/76/10
f 55/77/12 54/63/12 53/78/12
f 54/63/12 96/62/12 95/79/12
f 46/80/12 60/89/12 59/81/12
f 52/82/11 82/103/11 81/83/11
f 60/84/15 62/84/15 61/85/15
f 58/86/15 64/86/15 63/87/15
f 46/80/1 50/73/1 62/88/1
f 56/66/12 53/78/12 63/90/12
f 44/68/11 58/67/11 57/92/11
f 47/43/3 59/81/3 61/93/3
f 41/65/1 57/92/1 63/90/1
f 50/73/11 51/41/11 61/93/11
f 65/94/10 71/98/10 72/95/10
f 68/96/10 67/60/10 69/59/10
f 43/47/3 66/75/3 72/95/3
f 52/82/11 49/72/11 70/97/11
f 49/72/1 45/69/1 68/96/1
f 48/58/12 67/60/12 68/96/12
f 54/63/1 71/98/1 65/94/1
f 54/63/12 55/77/12 72/95/12
f 75/48/3 77/105/3 78/99/3
f 74/100/3 73/102/3 79/42/3
f 75/48/3 76/53/3 73/102/3
f 79/42/3 81/83/3 82/103/3
f 78/99/3 77/105/3 83/104/3
f 56/66/12 84/74/12 83/104/12
f 48/58/10 80/101/10 82/103/10
f 40/54/19 76/53/19 78/99/19
f 55/77/10 83/104/10 77/105/10
f 47/43/15 79/42/15 73/102/15
f 39/49/10 75/48/10 74/100/10
f 38/106/10 74/100/10 80/101/10
f 87/107/1 88/108/1 85/70/1
f 87/107/1 89/113/1 90/76/1
f 85/70/1 91/110/1 92/109/1
f 91/110/1 93/112/1 94/111/1
f 90/76/1 89/113/1 95/79/1
f 34/57/15 86/56/15 92/109/15
f 33/71/10 85/70/10 88/108/10
f 50/73/11 94/111/11 93/112/11
f 41/65/15 89/113/15 87/107/15
f 49/72/10 93/112/10 91/110/10
f 53/78/15 95/79/15 89/113/15
f 46/80/15 92/109/15 94/111/15
f 108/114/3 100/117/3 99/115/3
f 100/117/20 98/120/20 97/118/20
f 102/119/21 105/116/21 99/115/21
f 108/114/22 103/195/22 98/120/22
f 119/121/20 149/161/20 147/122/20
f 111/124/24 145/177/24 143/125/24
f 105/127/20 141/172/20 144/128/20
f 98/130/1 103/133/1 102/131/1
f 103/133/20 155/179/20 154/134/20
f 116/135/3 120/160/3 137/136/3
f 110/138/24 158/154/24 164/139/24
f 104/141/27 110/138/27 111/124/27
f 108/129/25 112/143/25 109/142/25
f 112/143/3 124/152/3 132/144/3
f 113/146/24 159/183/24 153/147/24
f 101/148/27 106/178/27 116/135/27
f 102/131/26 114/158/26 115/123/26
f 117/149/21 120/160/21 119/121/21
f 112/143/20 146/171/20 152/151/20
f 110/138/21 133/167/21 134/153/21
f 104/141/23 156/180/23 158/154/23
f 123/155/22 122/140/22 121/156/22
f 122/140/22 164/139/22 163/157/22
f 114/158/22 128/163/22 127/159/22
f 120/160/21 150/175/21 149/161/21
f 114/158/1 118/150/1 130/162/1
f 124/152/22 121/156/22 131/164/22
f 112/143/21 126/145/21 125/165/21
f 115/123/3 127/159/3 129/166/3
f 109/142/1 125/165/1 131/164/1
f 118/150/21 119/121/21 129/166/21
f 133/167/24 139/170/24 140/168/24
f 135/137/24 137/136/24 138/169/24
f 123/155/3 111/124/3 134/153/3
f 120/160/21 117/149/21 138/169/21
f 113/146/1 136/55/1 138/169/1
f 116/135/22 135/137/22 136/55/22
f 122/140/1 139/170/1 133/167/1
f 122/140/22 123/155/22 140/168/22
f 143/125/3 145/177/3 146/171/3
f 141/172/3 147/122/3 148/173/3
f 143/125/3 144/128/3 141/172/3
f 148/173/3 147/122/3 149/161/3
f 146/171/3 145/177/3 151/176/3
f 124/152/22 152/151/22 151/176/22
f 116/135/24 148/173/24 150/175/24
f 108/129/26 144/128/26 146/171/26
f 123/155/24 151/176/24 145/177/24
f 115/123/26 147/122/26 141/172/26
f 107/126/24 143/125/24 142/174/24
f 106/178/24 142/174/24 148/173/24
f 155/179/1 156/180/1 153/147/1
f 156/180/1 155/179/1 157/181/1
f 153/147/1 159/183/1 160/182/1
f 159/183/1 161/185/1 162/184/1
f 158/154/1 157/181/1 163/157/1
f 102/131/20 154/134/20 160/182/20
f 101/148/24 153/147/24 156/180/24
f 118/150/21 162/184/21 161/185/21
f 109/142/20 157/181/20 155/179/20
f 117/149/24 161/185/24 159/183/24
f 121/156/20 163/157/20 157/181/20
f 114/158/20 160/182/20 162/184/20
