# Blender 5.1.2
# www.blender.org
mtllib intermediate_inner_single.mtl
o HalfWireArmInnerSingle
g intermediate_inner_single
v -0.308566 6.000000 0.006696
v -1.006468 6.301972 0.006697
v -0.649567 6.200000 0.006696
v -0.290564 6.019967 0.006696
v -0.999567 6.329857 0.006697
v -0.633917 6.223782 0.006696
v -0.290564 6.000000 0.006696
v -0.649567 6.200000 0.002696
v -1.006468 6.301972 0.002697
v -0.308566 6.000000 0.002696
v -0.633917 6.223782 0.002696
v -0.999567 6.329857 0.002697
v -0.290564 6.019967 0.002696
v -0.290564 6.000000 0.002696
vn -0.0000 -0.0000 1.0000
vn -0.0000 -0.0000 -1.0000
vn 0.5104 0.8599 -0.0000
vn -0.5059 -0.8626 -0.0000
vn -0.9707 0.2402 -0.0000
vn 0.2786 0.9604 -0.0000
vn -0.2747 -0.9615 -0.0000
vn 1.0000 -0.0000 -0.0000
vt 0.977026 0.007582
vt 0.969833 0.009091
vt 0.976724 0.007123
vt 0.969967 0.009630
vt 0.983656 0.003647
vt 0.983308 0.003261
vt 0.983656 0.003261
s 1
usemtl Catenary
f 6/1/1 2/2/1 3/3/1
f 8/3/2 12/4/2 11/1/2
f 13/5/3 6/1/3 4/5/3
f 8/3/4 1/6/4 3/3/4
f 12/4/5 2/2/5 5/4/5
f 11/1/6 5/4/6 6/1/6
f 9/2/7 3/3/7 2/2/7
f 14/7/8 4/5/8 7/7/8
f 3/3/1 1/6/1 7/7/1
f 7/7/1 4/5/1 6/1/1
f 6/1/1 5/4/1 2/2/1
f 3/3/1 7/7/1 6/1/1
f 11/1/2 13/5/2 14/7/2
f 14/7/2 10/6/2 8/3/2
f 8/3/2 9/2/2 12/4/2
f 11/1/2 14/7/2 8/3/2
f 13/5/3 11/1/3 6/1/3
f 8/3/4 10/6/4 1/6/4
f 12/4/5 9/2/5 2/2/5
f 11/1/6 12/4/6 5/4/6
f 9/2/7 8/3/7 3/3/7
f 14/7/8 13/5/8 4/5/8
o MessengerHolder.003
v -0.300132 6.436639 0.008762
v -0.301182 6.442926 0.006122
v -0.301617 6.445530 -0.000252
v -0.301182 6.442926 -0.006626
v -0.300132 6.436639 -0.009266
v -0.299082 6.430352 -0.006626
v -0.298647 6.427748 -0.000252
v -0.299082 6.430352 0.006122
v -1.200688 6.371125 0.008735
v -1.204069 6.376528 0.006095
v -1.205469 6.378767 -0.000279
v -1.204069 6.376528 -0.006653
v -1.200688 6.371125 -0.009293
v -1.197308 6.365721 -0.006653
v -1.195908 6.363483 -0.000279
v -1.197308 6.365721 0.006095
vn -0.0733 0.9973 -0.0000
vn -0.0585 0.7923 0.6074
vn -0.0510 0.6953 0.7169
vn -0.0509 0.6953 -0.7169
vn -0.0098 0.1315 -0.9913
vn -0.0584 0.7923 -0.6074
vn 0.0515 -0.7179 -0.6942
vn 0.0718 -0.9974 -0.0000
vn 0.0493 -0.6822 -0.7295
vn 0.0015 -0.0228 0.9997
vn 0.0493 -0.6822 0.7295
vn 0.0515 -0.7179 0.6942
vn -0.0098 0.1314 0.9913
vn -0.0737 0.9973 -0.0000
vn 0.0015 -0.0228 -0.9997
vn 0.0714 -0.9974 -0.0000
vt 0.975514 0.004283
vt 0.976000 0.005093
vt 0.973371 0.002583
vt 0.972472 0.002294
vt 0.974174 0.011647
vt 0.974914 0.011060
vt 0.976490 0.007784
vt 0.976321 0.008714
vt 0.976321 0.005945
vt 0.976490 0.006874
vt 0.974914 0.003599
vt 0.974174 0.003012
vt 0.972472 0.012365
vt 0.973371 0.012076
vt 0.976000 0.009566
vt 0.975514 0.010376
s 1
usemtl Catenary
f 17/8/9 24/9/10 16/9/11
f 18/10/12 27/11/13 26/10/14
f 20/12/15 29/13/16 28/12/17
f 15/14/18 30/15/19 22/15/20
f 16/16/11 23/17/21 15/17/18
f 17/18/9 26/19/14 25/18/22
f 19/20/23 28/21/17 27/20/13
f 22/22/20 29/23/16 21/23/24
f 17/8/9 25/8/22 24/9/10
f 18/10/12 19/11/23 27/11/13
f 20/12/15 21/13/24 29/13/16
f 15/14/18 23/14/21 30/15/19
f 16/16/11 24/16/10 23/17/21
f 17/18/9 18/19/12 26/19/14
f 19/20/23 20/21/15 28/21/17
f 22/22/20 30/22/19 29/23/16
o AngledInsulator.002
v -1.625368 6.490236 0.008746
v -1.639613 6.494250 0.102362
v -1.712880 6.514540 0.022523
v -1.722219 6.517126 0.102362
v -1.795485 6.537416 0.038935
v -1.802880 6.510712 0.027457
v -1.741090 6.448980 0.073072
v -1.716842 6.500235 0.016375
v -1.658485 6.426104 0.073072
v -1.627066 6.484105 0.006111
v -1.805944 6.499650 -0.000252
v -1.748907 6.420753 0.002362
v -1.718483 6.494309 0.001532
v -1.666302 6.397877 0.002362
v -1.627770 6.481565 -0.000252
v -1.802880 6.510712 -0.027961
v -1.741090 6.448980 -0.068349
v -1.716627 6.501009 -0.014596
v -1.658485 6.426104 -0.068349
v -1.627066 6.484105 -0.006614
v -1.795485 6.537416 -0.039439
v -1.722219 6.517126 -0.097638
v -1.712880 6.514540 -0.020487
v -1.639613 6.494250 -0.097638
v -1.625368 6.490236 -0.009250
v -1.788090 6.564120 -0.027961
v -1.703347 6.585272 -0.068349
v -1.709133 6.528071 -0.014596
v -1.620742 6.562396 -0.068349
v -1.623670 6.496368 -0.006614
v -1.785027 6.575181 -0.000252
v -1.695530 6.613499 0.002362
v -1.707278 6.534770 0.001532
v -1.612925 6.590623 0.002362
v -1.622967 6.498908 -0.000252
v -1.788090 6.564120 0.027457
v -1.703347 6.585272 0.073072
v -1.708919 6.528845 0.016375
v -1.620742 6.562396 0.073072
v -1.623670 6.496368 0.006111
v -1.795457 6.537516 0.011720
v -1.797717 6.529357 0.008214
v -1.798653 6.525978 -0.000252
v -1.797717 6.529357 -0.008718
v -1.795457 6.537516 -0.012224
v -1.793198 6.545675 -0.008718
v -1.792262 6.549054 -0.000252
v -1.793198 6.545675 0.008214
v -0.948488 6.301192 0.003614
v -0.950316 6.294751 0.002482
v -0.950316 6.294751 -0.002986
v -0.948488 6.301192 -0.004118
v -0.946659 6.307634 -0.002986
v -0.946659 6.307634 0.002482
v -2.067472 6.616667 0.011720
v -2.069784 6.608523 0.008214
v -2.070741 6.605149 -0.000252
v -2.069784 6.608523 -0.008718
v -2.067472 6.616667 -0.012224
v -2.065160 6.624811 -0.008718
v -2.064202 6.628184 -0.000252
v -2.065160 6.624811 0.008214
v -1.027022 6.330034 -0.006614
v -1.026302 6.332569 -0.000252
v -1.030497 6.317792 0.006110
v -1.031217 6.315258 -0.000252
v -1.028760 6.323913 -0.009250
v -1.028760 6.323913 0.008746
v -1.027022 6.330034 0.006110
v -1.030497 6.317792 -0.006614
v -1.025258 6.329949 -0.000252
v -1.028916 6.317065 -0.000252
v -1.025258 6.329949 -0.002986
v -1.028915 6.317065 0.002482
v -1.027087 6.323507 -0.004118
v -1.027087 6.323507 0.003614
v -1.025258 6.329949 0.002482
v -1.028915 6.317065 -0.002986
vn 0.9813 -0.1567 0.1116
vn 0.9519 -0.2637 0.1562
vn 0.9816 -0.1556 0.1105
vn -0.5667 0.6632 0.4889
vn -0.6979 0.1933 0.6896
vn 0.9794 -0.1827 0.0856
vn 0.9567 -0.2649 0.1205
vn 0.9795 -0.1824 0.0852
vn -0.4679 0.6936 0.5477
vn -0.6174 0.1710 0.7679
vn 0.9941 -0.1089 0.0008
vn 0.9941 -0.1088 -0.0017
vn -0.5094 0.8605 0.0010
vn -0.5663 0.6645 0.4875
vn 0.9890 -0.1476 0.0002
vn 0.9890 -0.1480 -0.0010
vn -0.3937 0.9192 0.0042
vn -0.4664 0.6987 0.5424
vn 0.9817 -0.1513 -0.1153
vn 0.9814 -0.1526 -0.1167
vn -0.5578 0.6683 -0.4921
vn -0.5114 0.8593 -0.0052
vn 0.9797 -0.1805 -0.0869
vn 0.9792 -0.1823 -0.0888
vn -0.4410 0.7041 -0.5566
vn -0.3934 0.9193 -0.0066
vn 0.9505 -0.2632 -0.1651
vn 0.9505 -0.2633 -0.1651
vn -0.6868 0.1902 -0.7016
vn -0.5598 0.6606 -0.5003
vn 0.9562 -0.2648 -0.1245
vn 0.9562 -0.2648 -0.1246
vn -0.5858 0.1622 -0.7940
vn -0.4423 0.6988 -0.5621
vn 0.9200 -0.3741 -0.1167
vn -0.8199 -0.2785 -0.5003
vn -0.8222 -0.2861 -0.4921
vn 0.9335 -0.3474 -0.0888
vn -0.7388 -0.3717 -0.5621
vn -0.7404 -0.3769 -0.5566
vn 0.9083 -0.4183 -0.0017
vn 0.9197 -0.3753 -0.1154
vn -0.8806 -0.4739 -0.0052
vn -0.8795 -0.4759 0.0010
vn 0.9242 -0.3818 -0.0010
vn 0.9330 -0.3492 -0.0869
vn -0.8103 -0.5860 -0.0066
vn -0.8105 -0.5858 0.0042
vn 0.9217 -0.3717 0.1105
vn 0.9084 -0.4182 0.0008
vn -0.8275 -0.2785 0.4875
vn -0.8271 -0.2772 0.4889
vn 0.9338 -0.3475 0.0852
vn 0.9241 -0.3822 0.0002
vn -0.7594 -0.3593 0.5424
vn -0.7581 -0.3541 0.5477
vn 0.9221 -0.3705 0.1118
vn 0.9339 -0.3472 0.0856
vn 0.9519 -0.2636 0.1562
vn -0.6865 0.1901 -0.7019
vn -0.9637 0.2669 -0.0000
vn 0.2731 0.9620 -0.0000
vn -0.2731 -0.9620 0.0003
vn -0.2731 -0.9620 -0.0000
vn 0.5733 -0.1619 -0.8031
vn 0.0455 0.1604 -0.9860
vn -0.0000 -0.0000 -1.0000
vn 0.4693 -0.6621 0.5844
vn -0.0000 -0.0000 1.0000
vn 0.5733 -0.1619 0.8031
vn 0.0455 0.1604 0.9860
vn 0.7294 0.3425 0.5922
vn -0.0455 -0.1604 -0.9860
vn 0.4693 -0.6621 -0.5844
vn 0.2794 0.9602 -0.0000
vn 0.1978 0.6797 -0.7063
vn 0.1971 0.6774 0.7087
vn 0.0004 0.0015 1.0000
vn -0.0009 -0.0030 1.0000
vn -0.1973 -0.6782 0.7079
vn -0.1980 -0.6805 0.7055
vn -0.1980 -0.6805 -0.7055
vn -0.2794 -0.9602 -0.0000
vn -0.1973 -0.6782 -0.7079
vn 0.1971 0.6774 -0.7087
vn 0.0004 0.0015 -1.0000
vn 0.1978 0.6797 0.7063
vn -0.0009 -0.0030 -1.0000
vn -0.1898 -0.6809 -0.7073
vn -0.2685 -0.9633 -0.0000
vn 0.2685 0.9633 -0.0000
vn 0.6077 0.4372 0.6630
vn 0.0001 0.0004 -1.0000
vn 0.2927 -0.6919 -0.6600
vn 0.1899 0.6813 0.7069
vn 0.5049 -0.1429 0.8513
vn 0.0001 0.0004 1.0000
vn 0.2927 -0.6919 0.6600
vn 0.1899 0.6813 -0.7069
vn 0.5049 -0.1429 -0.8513
vn -0.1898 -0.6809 0.7073
vn 0.6077 0.4372 -0.6630
vn 0.5109 -0.8596 -0.0000
vn 0.6176 -0.7865 -0.0000
vn 0.8700 0.4930 -0.0000
vn 0.9289 0.3703 -0.0000
vn 0.7294 0.3425 -0.5922
vn 0.9620 -0.2731 -0.0000
vn -0.0455 -0.1604 0.9860
vn -0.2731 -0.9620 -0.0003
vt 0.959703 0.009387
vt 0.960882 0.008099
vt 0.960684 0.009187
vt 0.957954 0.007566
vt 0.960035 0.007566
vt 0.962915 0.005744
vt 0.961736 0.007033
vt 0.961934 0.005945
vt 0.964664 0.007566
vt 0.962584 0.007566
vt 0.958751 0.010974
vt 0.960309 0.010184
vt 0.959740 0.011133
vt 0.957756 0.008654
vt 0.963867 0.004157
vt 0.962309 0.004947
vt 0.962878 0.003998
vt 0.964862 0.006477
vt 0.957301 0.012125
vt 0.959037 0.011934
vt 0.958171 0.012621
vt 0.957187 0.009603
vt 0.965317 0.003006
vt 0.963581 0.003197
vt 0.964447 0.002510
vt 0.965431 0.005529
vt 0.955539 0.012691
vt 0.957231 0.013124
vt 0.956177 0.013462
vt 0.956321 0.010290
vt 0.967079 0.002440
vt 0.965388 0.002008
vt 0.966441 0.001669
vt 0.966297 0.004841
vt 0.957231 0.002008
vt 0.955539 0.002440
vt 0.956177 0.001669
vt 0.956321 0.004841
vt 0.957301 0.003006
vt 0.965388 0.013124
vt 0.967079 0.012691
vt 0.966441 0.013462
vt 0.966297 0.010290
vt 0.965317 0.012125
vt 0.959037 0.003197
vt 0.958171 0.002510
vt 0.957187 0.005529
vt 0.958751 0.004157
vt 0.963581 0.011934
vt 0.964447 0.012621
vt 0.965431 0.009603
vt 0.963867 0.010974
vt 0.960309 0.004947
vt 0.959740 0.003998
vt 0.957756 0.006477
vt 0.959703 0.005744
vt 0.962309 0.010184
vt 0.962878 0.011133
vt 0.964862 0.008654
vt 0.962915 0.009387
vt 0.960882 0.007033
vt 0.960684 0.005945
vt 0.961736 0.008099
vt 0.961934 0.009187
vt 0.955268 0.010628
vt 0.967350 0.004503
vt 0.955268 0.004503
vt 0.967350 0.010628
vt 0.974174 0.011647
vt 0.974914 0.011060
vt 0.976000 0.005093
vt 0.975514 0.004283
vt 0.972472 0.012365
vt 0.973371 0.012076
vt 0.976321 0.005945
vt 0.976490 0.006874
vt 0.976490 0.007784
vt 0.976321 0.008714
vt 0.972472 0.002294
vt 0.973371 0.002583
vt 0.975514 0.010376
vt 0.976000 0.009566
vt 0.974914 0.003599
vt 0.974174 0.003012
vt 0.976600 0.005529
vt 0.977467 0.004841
vt 0.976031 0.006477
vt 0.975833 0.007566
vt 0.976031 0.008654
vt 0.977467 0.010290
vt 0.976600 0.009603
vt 0.978520 0.004503
vt 0.978520 0.010628
s 1
usemtl Catenary
f 69/24/25 31/25/26 70/26/27
f 69/24/28 33/27/29 32/28/29
f 67/29/30 33/30/31 68/31/32
f 67/29/33 35/32/34 34/33/34
f 64/34/35 70/35/27 65/36/36
f 64/34/37 68/37/38 69/24/28
f 62/38/39 68/39/32 63/40/40
f 62/38/41 66/41/42 67/29/33
f 59/42/43 65/43/36 60/44/44
f 59/42/45 63/45/46 64/34/37
f 57/46/47 63/47/40 58/48/48
f 57/46/49 61/49/50 62/38/41
f 54/50/51 60/51/44 55/52/52
f 54/50/53 58/53/54 59/42/45
f 52/54/55 58/55/48 53/56/56
f 52/54/57 56/57/58 57/46/49
f 50/58/59 54/59/51 55/60/52
f 48/61/60 54/59/53 49/62/61
f 48/63/62 52/64/55 53/65/56
f 46/66/63 52/64/57 47/67/64
f 45/68/65 49/62/66 50/69/59
f 43/70/67 49/62/61 44/71/68
f 43/72/69 47/67/70 48/73/62
f 41/74/71 47/67/64 42/75/72
f 40/76/73 44/71/74 45/77/65
f 38/78/75 44/71/68 39/79/76
f 38/80/77 42/75/78 43/81/69
f 36/82/79 42/75/72 37/83/80
f 31/84/26 39/79/81 40/85/73
f 33/27/29 39/79/76 32/28/29
f 33/86/31 37/83/82 38/87/77
f 35/32/34 37/83/80 34/33/34
f 69/24/25 32/28/83 31/25/26
f 69/24/28 68/37/38 33/27/29
f 67/29/30 34/33/31 33/30/31
f 67/29/33 66/41/42 35/32/34
f 64/34/35 69/24/25 70/35/27
f 64/34/37 63/45/46 68/37/38
f 62/38/39 67/29/30 68/39/32
f 62/38/41 61/49/50 66/41/42
f 59/42/43 64/34/35 65/43/36
f 59/42/45 58/53/54 63/45/46
f 57/46/47 62/38/39 63/47/40
f 57/46/49 56/57/58 61/49/50
f 54/50/51 59/42/43 60/51/44
f 54/50/53 53/88/84 58/53/54
f 52/54/55 57/46/47 58/55/48
f 52/54/57 51/89/57 56/57/58
f 50/58/59 49/62/66 54/59/51
f 48/61/60 53/90/84 54/59/53
f 48/63/62 47/67/70 52/64/55
f 46/66/63 51/91/57 52/64/57
f 45/68/65 44/71/74 49/62/66
f 43/70/67 48/61/60 49/62/61
f 43/72/69 42/75/78 47/67/70
f 41/74/71 46/66/63 47/67/64
f 40/76/73 39/79/81 44/71/74
f 38/78/75 43/70/67 44/71/68
f 38/80/77 37/83/82 42/75/78
f 36/82/79 41/74/71 42/75/72
f 31/84/26 32/28/83 39/79/81
f 33/27/29 38/78/75 39/79/76
f 33/86/31 34/33/31 37/83/82
f 35/32/34 36/82/79 37/83/80
f 61/49/85 78/41/85 66/41/85
f 46/66/85 73/74/85 74/66/85
f 61/49/85 76/57/85 77/49/85
f 36/82/85 73/74/85 41/74/85
f 56/57/85 75/89/85 76/57/85
f 35/32/85 72/82/85 36/82/85
f 66/41/85 71/32/85 35/32/85
f 51/91/85 74/66/85 75/91/85
f 103/92/86 101/93/86 83/92/86
f 104/94/87 102/95/88 80/94/88
f 105/96/89 83/97/90 82/96/91
f 104/98/92 79/99/93 106/99/94
f 106/100/94 84/101/95 107/101/96
f 105/102/89 81/103/97 108/103/98
f 101/104/86 84/105/86 83/104/86
f 102/106/88 81/107/88 80/106/88
f 77/108/99 90/109/100 91/108/99
f 78/110/101 85/111/102 71/111/103
f 71/111/103 86/112/104 72/112/105
f 74/113/106 87/114/107 88/113/108
f 76/109/109 89/115/110 90/109/100
f 77/108/99 92/110/111 78/110/101
f 72/112/105 87/114/107 73/114/107
f 75/116/112 88/113/108 89/116/110
f 50/107/113 96/106/114 45/106/114
f 65/104/115 99/105/116 94/104/115
f 55/102/117 100/103/118 50/103/113
f 70/101/119 98/100/120 99/101/116
f 31/99/121 95/98/122 98/99/120
f 60/97/123 97/96/124 55/96/117
f 40/94/125 96/95/114 95/94/122
f 65/93/115 93/92/126 60/92/123
f 96/106/127 108/107/98 102/106/128
f 94/104/129 107/105/96 101/104/130
f 100/103/118 105/102/89 108/103/98
f 99/101/116 106/100/94 107/101/96
f 95/98/122 106/99/94 98/99/120
f 93/97/126 105/96/89 97/96/124
f 96/95/127 104/94/92 95/94/122
f 94/93/129 103/92/131 93/92/126
f 79/100/132 83/104/132 84/105/132
f 82/96/132 80/106/132 81/107/132
f 61/49/85 77/49/85 78/41/85
f 46/66/85 41/74/85 73/74/85
f 61/49/85 56/57/85 76/57/85
f 36/82/85 72/82/85 73/74/85
f 56/57/85 51/89/85 75/89/85
f 35/32/85 71/32/85 72/82/85
f 66/41/85 78/41/85 71/32/85
f 51/91/85 46/66/85 74/66/85
f 105/96/89 103/97/131 83/97/90
f 104/98/92 80/98/133 79/99/93
f 106/100/94 79/100/93 84/101/95
f 105/102/89 82/102/91 81/103/97
f 101/104/86 107/105/86 84/105/86
f 102/106/88 108/107/134 81/107/88
f 77/108/99 76/109/109 90/109/100
f 78/110/101 92/110/111 85/111/102
f 71/111/103 85/111/102 86/112/104
f 74/113/106 73/114/107 87/114/107
f 76/109/109 75/115/112 89/115/110
f 77/108/99 91/108/99 92/110/111
f 72/112/105 86/112/104 87/114/107
f 75/116/112 74/113/106 88/113/108
f 50/107/113 100/107/118 96/106/114
f 65/104/115 70/105/119 99/105/116
f 55/102/117 97/102/124 100/103/118
f 70/101/119 31/100/121 98/100/120
f 31/99/121 40/98/125 95/98/122
f 60/97/123 93/97/126 97/96/124
f 40/94/125 45/95/114 96/95/114
f 65/93/115 94/93/115 93/92/126
f 96/106/127 100/107/118 108/107/98
f 94/104/129 99/105/116 107/105/96
f 100/103/118 97/102/124 105/102/89
f 99/101/116 98/100/120 106/100/94
f 95/98/122 104/98/92 106/99/94
f 93/97/126 103/97/131 105/96/89
f 96/95/127 102/95/128 104/94/92
f 94/93/129 101/93/130 103/92/131
f 79/100/132 82/96/132 83/104/132
f 82/96/132 79/99/132 80/106/132
