# Blender 5.1.2
# www.blender.org
mtllib intermediate_outer_dual.mtl
o HalfWireArmInwardsOuterDual
g intermediate_outer_dual
v 0.308433 6.000000 0.006696
v -0.389469 6.301972 0.006697
v -0.032567 6.200000 0.006696
v 0.326436 6.019967 0.006696
v -0.382567 6.329857 0.006697
v -0.016918 6.223782 0.006696
v 0.326436 6.000000 0.006696
v -0.032567 6.200000 0.002696
v -0.389469 6.301972 0.002697
v 0.308433 6.000000 0.002696
v -0.016918 6.223782 0.002696
v -0.382567 6.329857 0.002697
v 0.326436 6.019967 0.002696
v 0.326436 6.000000 0.002696
v -0.424470 6.301971 -0.002303
v -0.417571 6.329857 -0.002303
v -0.417571 6.329857 -0.006303
v -0.424472 6.301972 -0.006303
v 0.291432 6.000000 -0.006304
v 0.291432 6.019967 -0.006304
v -0.051922 6.223782 -0.006304
v 0.273429 6.000000 -0.006304
v -0.067571 6.200000 -0.006304
v 0.291432 6.000000 -0.002304
v -0.051922 6.223782 -0.002304
v 0.291432 6.019967 -0.002304
v -0.067571 6.200000 -0.002304
v 0.273429 6.000000 -0.002304
vn -0.0000 -0.0000 1.0000
vn 0.5104 0.8599 -0.0000
vn -0.5059 -0.8626 -0.0000
vn -0.9707 0.2402 -0.0000
vn 0.2786 0.9604 -0.0000
vn -0.2747 -0.9615 -0.0000
vn 1.0000 -0.0000 -0.0000
vn -0.0000 -0.0000 -1.0000
vn -0.2747 -0.9615 0.0001
vn -0.9707 0.2402 0.0001
vn -0.9707 0.2402 0.0006
vt 0.976897 0.007160
vt 0.983131 0.003687
vt 0.977168 0.007573
vt 0.983131 0.004034
vt 0.982818 0.003687
vt 0.970819 0.009415
vt 0.970699 0.008931
vt 0.982523 0.003687
vt 0.982523 0.004034
vt 0.970091 0.008931
vt 0.976289 0.007160
vt 0.976560 0.007573
vt 0.970211 0.009415
vt 0.982210 0.003687
vt 0.970091 0.008931
s 1
usemtl Catenary
f 3/1/1 7/2/1 6/3/1
f 13/4/2 6/3/2 4/4/2
f 8/1/3 1/5/3 3/1/3
f 12/6/4 2/7/4 5/6/4
f 11/3/5 5/6/5 6/3/5
f 9/7/6 3/1/6 2/7/6
f 14/2/7 4/4/7 7/2/7
f 11/3/8 14/2/8 8/1/8
f 19/8/7 26/9/7 24/8/7
f 15/10/9 23/11/6 27/11/6
f 21/12/5 16/13/5 25/12/5
f 17/13/10 15/10/11 16/13/4
f 23/11/3 28/14/3 27/11/3
f 20/9/2 25/12/2 26/9/2
f 21/12/8 23/11/8 17/13/8
f 27/11/1 25/12/1 15/10/1
f 5/6/1 2/7/1 3/1/1
f 3/1/1 1/5/1 7/2/1
f 7/2/1 4/4/1 6/3/1
f 6/3/1 5/6/1 3/1/1
f 13/4/2 11/3/2 6/3/2
f 8/1/3 10/5/3 1/5/3
f 12/6/4 9/7/4 2/7/4
f 11/3/5 12/6/5 5/6/5
f 9/7/6 8/1/6 3/1/6
f 14/2/7 13/4/7 4/4/7
f 8/1/8 9/7/8 12/6/8
f 11/3/8 13/4/8 14/2/8
f 14/2/8 10/5/8 8/1/8
f 8/1/8 12/6/8 11/3/8
f 19/8/7 20/9/7 26/9/7
f 15/10/9 18/15/9 23/11/6
f 21/12/5 17/13/5 16/13/5
f 17/13/10 18/15/11 15/10/11
f 23/11/3 22/14/3 28/14/3
f 20/9/2 21/12/2 25/12/2
f 21/12/8 20/9/8 19/8/8
f 19/8/8 22/14/8 23/11/8
f 23/11/8 18/15/8 17/13/8
f 21/12/8 19/8/8 23/11/8
f 27/11/1 28/14/1 24/8/1
f 24/8/1 26/9/1 25/12/1
f 25/12/1 16/13/1 15/10/1
f 27/11/1 24/8/1 25/12/1
o MessengerHolder.004
v 0.299868 6.436636 0.008762
v 0.298699 6.442902 0.006122
v 0.298215 6.445498 -0.000252
v 0.298699 6.442902 -0.006626
v 0.299868 6.436636 -0.009266
v 0.301037 6.430370 -0.006626
v 0.301521 6.427775 -0.000252
v 0.301037 6.430370 0.006122
v -0.599288 6.354104 0.008735
v -0.602770 6.359443 0.006095
v -0.604213 6.361654 -0.000279
v -0.602770 6.359443 -0.006653
v -0.599288 6.354104 -0.009293
v -0.595807 6.348765 -0.006653
v -0.594364 6.346554 -0.000279
v -0.595807 6.348765 0.006095
vn -0.0922 0.9957 -0.0000
vn -0.0735 0.7910 0.6074
vn -0.0641 0.6942 0.7169
vn -0.0641 0.6942 -0.7169
vn -0.0123 0.1313 -0.9913
vn -0.0734 0.7910 -0.6074
vn 0.0651 -0.7168 -0.6942
vn 0.0906 -0.9959 -0.0000
vn 0.0622 -0.6812 -0.7295
vn 0.0019 -0.0227 0.9997
vn 0.0622 -0.6812 0.7295
vn 0.0650 -0.7168 0.6942
vn -0.0123 0.1312 0.9913
vn -0.0925 0.9957 -0.0000
vn 0.0019 -0.0227 -0.9997
vn 0.0903 -0.9959 -0.0000
vt 0.975514 0.004283
vt 0.976000 0.005093
vt 0.973371 0.002583
vt 0.972472 0.002294
vt 0.974174 0.011647
vt 0.974914 0.011060
vt 0.976490 0.007784
vt 0.976321 0.008714
vt 0.976321 0.005945
vt 0.976490 0.006874
vt 0.974914 0.003599
vt 0.974174 0.003012
vt 0.972472 0.012365
vt 0.973371 0.012076
vt 0.976000 0.009566
vt 0.975514 0.010376
s 1
usemtl Catenary
f 31/16/12 38/17/13 30/17/14
f 32/18/15 41/19/16 40/18/17
f 34/20/18 43/21/19 42/20/20
f 29/22/21 44/23/22 36/23/23
f 30/24/14 37/25/24 29/25/21
f 31/26/12 40/27/17 39/26/25
f 33/28/26 42/29/20 41/28/16
f 36/30/23 43/31/19 35/31/27
f 31/16/12 39/16/25 38/17/13
f 32/18/15 33/19/26 41/19/16
f 34/20/18 35/21/27 43/21/19
f 29/22/21 37/22/24 44/23/22
f 30/24/14 38/24/13 37/25/24
f 31/26/12 32/27/15 40/27/17
f 33/28/26 34/29/18 42/29/20
f 36/30/23 44/30/22 43/31/19
o AngledInsulator.006
v -1.612369 6.535172 0.008746
v -1.626921 6.537868 0.102362
v -1.701735 6.551381 0.022523
v -1.711271 6.553102 0.102362
v -1.786085 6.566615 0.038935
v -1.791010 6.539347 0.027457
v -1.723839 6.483518 0.073072
v -1.704373 6.536773 0.016375
v -1.639489 6.468284 0.073072
v -1.613500 6.528912 0.006111
v -1.793049 6.528052 -0.000252
v -1.729044 6.454695 0.002362
v -1.705466 6.530723 0.001532
v -1.644695 6.439460 0.002362
v -1.613968 6.526318 -0.000252
v -1.791010 6.539347 -0.027961
v -1.723839 6.483518 -0.068349
v -1.704231 6.537564 -0.014596
v -1.639489 6.468284 -0.068349
v -1.613500 6.528912 -0.006614
v -1.786085 6.566615 -0.039439
v -1.711271 6.553102 -0.097638
v -1.701735 6.551381 -0.020487
v -1.626921 6.537868 -0.097638
v -1.612369 6.535172 -0.009250
v -1.781160 6.593883 -0.027961
v -1.698703 6.622687 -0.068349
v -1.699240 6.565197 -0.014596
v -1.614354 6.607453 -0.068349
v -1.611238 6.541434 -0.006614
v -1.779120 6.605178 -0.000252
v -1.693498 6.651511 0.002362
v -1.698004 6.572038 0.001532
v -1.609148 6.636276 0.002362
v -1.610770 6.544027 -0.000252
v -1.781160 6.593883 0.027457
v -1.698703 6.622687 0.073072
v -1.699097 6.565988 0.016375
v -1.614354 6.607453 0.073072
v -1.611238 6.541434 0.006111
v -1.786066 6.566717 0.011720
v -1.787571 6.558386 0.008214
v -1.788194 6.554935 -0.000252
v -1.787571 6.558386 -0.008718
v -1.786066 6.566717 -0.012224
v -1.784562 6.575048 -0.008718
v -1.783938 6.578499 -0.000252
v -1.784562 6.575048 0.008214
v -0.348487 6.301192 0.003614
v -0.350316 6.294751 0.002482
v -0.350316 6.294751 -0.002986
v -0.348487 6.301192 -0.004118
v -0.346659 6.307634 -0.002986
v -0.346659 6.307634 0.002482
v -2.056376 6.616666 0.011720
v -2.058688 6.608522 0.008214
v -2.059645 6.605149 -0.000252
v -2.058688 6.608522 -0.008718
v -2.056376 6.616666 -0.012224
v -2.054064 6.624810 -0.008718
v -2.053106 6.628184 -0.000252
v -2.054064 6.624810 0.008214
v -0.427022 6.330034 -0.006614
v -0.426302 6.332569 -0.000252
v -0.430497 6.317792 0.006110
v -0.431217 6.315258 -0.000252
v -0.428760 6.323913 -0.009250
v -0.428760 6.323913 0.008746
v -0.427022 6.330034 0.006110
v -0.430497 6.317792 -0.006614
v -0.425258 6.329949 -0.000252
v -0.428916 6.317065 -0.000252
v -0.425258 6.329949 -0.002986
v -0.428915 6.317065 0.002482
v -0.427087 6.323507 -0.004118
v -0.427087 6.323507 0.003614
v -0.425258 6.329949 0.002482
v -0.428915 6.317065 -0.002986
vn 0.9915 -0.0664 0.1116
vn 0.9720 -0.1756 0.1561
vn 0.9917 -0.0652 0.1105
vn -0.6249 0.6087 0.4889
vn -0.7127 0.1287 0.6896
vn 0.9920 -0.0925 0.0856
vn 0.9769 -0.1764 0.1205
vn 0.9921 -0.0921 0.0852
vn -0.5293 0.6480 0.5477
vn -0.6304 0.1139 0.7679
vn 0.9998 -0.0176 0.0008
vn 0.9998 -0.0175 -0.0017
vn -0.5859 0.8104 0.0010
vn -0.6247 0.6100 0.4875
vn 0.9984 -0.0566 0.0002
vn 0.9984 -0.0571 -0.0010
vn -0.4760 0.8794 0.0042
vn -0.5283 0.6532 0.5424
vn 0.9915 -0.0610 -0.1153
vn 0.9912 -0.0623 -0.1167
vn -0.6166 0.6145 -0.4921
vn -0.5877 0.8090 -0.0052
vn 0.9921 -0.0902 -0.0869
vn 0.9918 -0.0921 -0.0888
vn -0.5035 0.6609 -0.5566
vn -0.4758 0.8796 -0.0066
vn 0.9706 -0.1753 -0.1651
vn -0.7013 0.1267 -0.7016
vn -0.6178 0.6067 -0.5003
vn 0.9764 -0.1764 -0.1245
vn 0.9764 -0.1763 -0.1246
vn -0.5982 0.1080 -0.7940
vn -0.5043 0.6555 -0.5621
vn 0.9503 -0.2885 -0.1167
vn -0.7910 -0.3522 -0.5003
vn -0.7926 -0.3600 -0.4921
vn 0.9613 -0.2607 -0.0888
vn -0.7018 -0.4377 -0.5621
vn -0.7028 -0.4430 -0.5566
vn 0.9427 -0.3336 -0.0017
vn 0.9501 -0.2897 -0.1154
vn -0.8336 -0.5523 -0.0052
vn -0.8323 -0.5543 0.0010
vn 0.9553 -0.2958 -0.0010
vn 0.9610 -0.2625 -0.0869
vn -0.7534 -0.6576 -0.0066
vn -0.7536 -0.6574 0.0042
vn 0.9518 -0.2860 0.1105
vn 0.9428 -0.3335 0.0008
vn -0.7986 -0.3529 0.4875
vn -0.7983 -0.3516 0.4889
vn 0.9616 -0.2608 0.0852
vn 0.9551 -0.2962 0.0002
vn -0.7234 -0.4272 0.5424
vn -0.7226 -0.4219 0.5477
vn 0.9521 -0.2847 0.1118
vn 0.9617 -0.2604 0.0856
vn 0.9720 -0.1755 0.1562
vn -0.7009 0.1266 -0.7019
vn -0.9841 0.1777 -0.0000
vn 0.2731 0.9620 -0.0000
vn -0.2731 -0.9620 0.0003
vn -0.2731 -0.9620 -0.0000
vn 0.5733 -0.1619 -0.8032
vn 0.0455 0.1604 -0.9860
vn -0.0000 -0.0000 -1.0000
vn 0.4693 -0.6621 0.5844
vn -0.0000 -0.0000 1.0000
vn 0.5733 -0.1619 0.8031
vn 0.0455 0.1604 0.9860
vn 0.7294 0.3425 0.5922
vn -0.0455 -0.1604 -0.9860
vn 0.4693 -0.6621 -0.5844
vn 0.1283 0.6949 -0.7076
vn 0.1816 0.9834 -0.0000
vn 0.1815 0.9834 -0.0000
vn -0.0002 -0.0009 1.0000
vn 0.1266 0.6853 0.7172
vn -0.0042 -0.0225 0.9997
vn -0.1287 -0.6958 0.7066
vn -0.1309 -0.7077 0.6943
vn -0.1818 -0.9833 -0.0000
vn -0.1309 -0.7077 -0.6943
vn -0.1286 -0.6958 -0.7066
vn -0.0002 -0.0009 -1.0000
vn 0.1266 0.6853 -0.7172
vn 0.1283 0.6949 0.7076
vn -0.1819 -0.9833 -0.0000
vn -0.0042 -0.0225 -0.9997
vn -0.1243 -0.6964 -0.7068
vn -0.1757 -0.9844 -0.0000
vn 0.1757 0.9844 -0.0000
vn 0.5838 0.4617 0.6678
vn -0.0001 -0.0005 -1.0000
vn 0.3250 -0.6823 -0.6549
vn 0.1242 0.6959 0.7074
vn 0.5082 -0.1276 0.8518
vn -0.0001 -0.0005 1.0000
vn 0.3250 -0.6823 0.6549
vn 0.1242 0.6959 -0.7074
vn 0.5082 -0.1276 -0.8518
vn -0.1243 -0.6964 0.7068
vn 0.5838 0.4617 -0.6678
vn 0.5109 -0.8596 -0.0000
vn 0.6176 -0.7865 -0.0000
vn 0.8700 0.4930 -0.0000
vn 0.9289 0.3703 -0.0000
vn 0.7294 0.3425 -0.5922
vn 0.9620 -0.2731 -0.0000
vn -0.0455 -0.1604 0.9860
vn -0.2731 -0.9620 -0.0003
vt 0.959703 0.009387
vt 0.960882 0.008099
vt 0.960684 0.009187
vt 0.957954 0.007566
vt 0.960035 0.007566
vt 0.962915 0.005744
vt 0.961736 0.007033
vt 0.961934 0.005945
vt 0.964664 0.007566
vt 0.962584 0.007566
vt 0.958751 0.010974
vt 0.960309 0.010184
vt 0.959740 0.011133
vt 0.957756 0.008654
vt 0.963867 0.004157
vt 0.962309 0.004947
vt 0.962878 0.003998
vt 0.964862 0.006477
vt 0.957301 0.012125
vt 0.959037 0.011934
vt 0.958171 0.012621
vt 0.957187 0.009603
vt 0.965317 0.003006
vt 0.963581 0.003197
vt 0.964447 0.002510
vt 0.965431 0.005529
vt 0.955539 0.012691
vt 0.957231 0.013124
vt 0.956177 0.013462
vt 0.956321 0.010290
vt 0.967079 0.002440
vt 0.965388 0.002008
vt 0.966441 0.001669
vt 0.966297 0.004841
vt 0.957231 0.002008
vt 0.955539 0.002440
vt 0.956177 0.001669
vt 0.956321 0.004841
vt 0.957301 0.003006
vt 0.965388 0.013124
vt 0.967079 0.012691
vt 0.966441 0.013462
vt 0.966297 0.010290
vt 0.965317 0.012125
vt 0.959037 0.003197
vt 0.958171 0.002510
vt 0.957187 0.005529
vt 0.958751 0.004157
vt 0.963581 0.011934
vt 0.964447 0.012621
vt 0.965431 0.009603
vt 0.963867 0.010974
vt 0.960309 0.004947
vt 0.959740 0.003998
vt 0.957756 0.006477
vt 0.959703 0.005744
vt 0.962309 0.010184
vt 0.962878 0.011133
vt 0.964862 0.008654
vt 0.962915 0.009387
vt 0.960882 0.007033
vt 0.960684 0.005945
vt 0.961736 0.008099
vt 0.961934 0.009187
vt 0.955268 0.010628
vt 0.967350 0.004503
vt 0.955268 0.004503
vt 0.967350 0.010628
vt 0.974174 0.011647
vt 0.974914 0.011060
vt 0.976000 0.005093
vt 0.975514 0.004283
vt 0.972472 0.012365
vt 0.973371 0.012076
vt 0.976321 0.005945
vt 0.976490 0.006874
vt 0.976490 0.007784
vt 0.976321 0.008714
vt 0.972472 0.002294
vt 0.973371 0.002583
vt 0.975514 0.010376
vt 0.976000 0.009566
vt 0.974914 0.003599
vt 0.974174 0.003012
vt 0.977467 0.004841
vt 0.976600 0.005529
vt 0.975833 0.007566
vt 0.976031 0.006477
vt 0.976031 0.008654
vt 0.976600 0.009603
vt 0.977467 0.010290
vt 0.978520 0.004503
vt 0.978520 0.010628
s 1
usemtl Catenary
f 83/32/28 45/33/29 84/34/30
f 83/32/31 47/35/32 46/36/32
f 81/37/33 47/38/34 82/39/35
f 81/37/36 49/40/37 48/41/37
f 78/42/38 84/43/30 79/44/39
f 78/42/40 82/45/41 83/32/31
f 76/46/42 82/47/35 77/48/43
f 76/46/44 80/49/45 81/37/36
f 73/50/46 79/51/39 74/52/47
f 73/50/48 77/53/49 78/42/40
f 71/54/50 77/55/43 72/56/51
f 71/54/52 75/57/53 76/46/44
f 68/58/54 74/59/47 69/60/54
f 68/58/55 72/61/56 73/50/48
f 66/62/57 72/63/51 67/64/58
f 66/62/59 70/65/60 71/54/52
f 64/66/61 68/67/54 69/68/54
f 62/69/62 68/67/55 63/70/63
f 62/71/64 66/72/57 67/73/58
f 60/74/65 66/72/59 61/75/66
f 59/76/67 63/70/68 64/77/61
f 57/78/69 63/70/63 58/79/70
f 57/80/71 61/75/72 62/81/64
f 55/82/73 61/75/66 56/83/74
f 54/84/75 58/79/76 59/85/67
f 52/86/77 58/79/70 53/87/78
f 52/88/79 56/83/80 57/89/71
f 50/90/81 56/83/74 51/91/82
f 45/92/29 53/87/83 54/93/75
f 47/35/32 53/87/78 46/36/32
f 47/94/34 51/91/84 52/95/79
f 49/40/37 51/91/82 48/41/37
f 83/32/28 46/36/85 45/33/29
f 83/32/31 82/45/41 47/35/32
f 81/37/33 48/41/34 47/38/34
f 81/37/36 80/49/45 49/40/37
f 78/42/38 83/32/28 84/43/30
f 78/42/40 77/53/49 82/45/41
f 76/46/42 81/37/33 82/47/35
f 76/46/44 75/57/53 80/49/45
f 73/50/46 78/42/38 79/51/39
f 73/50/48 72/61/56 77/53/49
f 71/54/50 76/46/42 77/55/43
f 71/54/52 70/65/60 75/57/53
f 68/58/54 73/50/46 74/59/47
f 68/58/55 67/96/86 72/61/56
f 66/62/57 71/54/50 72/63/51
f 66/62/59 65/97/59 70/65/60
f 64/66/61 63/70/68 68/67/54
f 62/69/62 67/98/86 68/67/55
f 62/71/64 61/75/72 66/72/57
f 60/74/65 65/99/59 66/72/59
f 59/76/67 58/79/76 63/70/68
f 57/78/69 62/69/62 63/70/63
f 57/80/71 56/83/80 61/75/72
f 55/82/73 60/74/65 61/75/66
f 54/84/75 53/87/83 58/79/76
f 52/86/77 57/78/69 58/79/70
f 52/88/79 51/91/84 56/83/80
f 50/90/81 55/82/73 56/83/74
f 45/92/29 46/36/85 53/87/83
f 47/35/32 52/86/77 53/87/78
f 47/94/34 48/41/34 51/91/84
f 49/40/37 50/90/81 51/91/82
f 75/57/87 92/49/87 80/49/87
f 60/74/87 87/82/87 88/74/87
f 75/57/87 90/65/87 91/57/87
f 50/90/87 87/82/87 55/82/87
f 70/65/87 89/97/87 90/65/87
f 49/40/87 86/90/87 50/90/87
f 80/49/87 85/40/87 49/40/87
f 65/99/87 88/74/87 89/99/87
f 117/100/88 115/101/88 97/100/88
f 118/102/89 116/103/90 94/102/90
f 119/104/91 97/105/92 96/104/93
f 118/106/94 93/107/95 120/107/96
f 120/108/96 98/109/97 121/109/98
f 119/110/91 95/111/99 122/111/100
f 115/112/88 98/113/88 97/112/88
f 116/114/90 95/115/90 94/114/90
f 90/116/101 105/117/102 91/117/103
f 85/118/104 106/119/105 99/118/106
f 86/120/107 99/118/106 100/120/108
f 87/121/109 102/122/110 88/122/111
f 89/123/112 104/116/113 90/116/101
f 92/119/114 105/117/102 106/119/105
f 87/121/109 100/120/108 101/121/115
f 88/122/111 103/124/116 89/124/112
f 64/115/117 110/114/118 59/114/118
f 79/112/119 113/113/120 108/112/119
f 69/110/121 114/111/122 64/111/117
f 84/109/123 112/108/124 113/109/120
f 45/107/125 109/106/126 112/107/124
f 74/105/127 111/104/128 69/104/121
f 54/102/129 110/103/118 109/102/126
f 79/101/119 107/100/130 74/100/127
f 110/114/131 122/115/100 116/114/132
f 108/112/133 121/113/98 115/112/134
f 114/111/122 119/110/91 122/111/100
f 113/109/120 120/108/96 121/109/98
f 109/106/126 120/107/96 112/107/124
f 107/105/130 119/104/91 111/104/128
f 110/103/131 118/102/94 109/102/126
f 108/101/133 117/100/135 107/100/130
f 93/108/136 97/112/136 98/113/136
f 96/104/136 94/114/136 95/115/136
f 75/57/87 91/57/87 92/49/87
f 60/74/87 55/82/87 87/82/87
f 75/57/87 70/65/87 90/65/87
f 50/90/87 86/90/87 87/82/87
f 70/65/87 65/97/87 89/97/87
f 49/40/87 85/40/87 86/90/87
f 80/49/87 92/49/87 85/40/87
f 65/99/87 60/74/87 88/74/87
f 119/104/91 117/105/135 97/105/92
f 118/106/94 94/106/137 93/107/95
f 120/108/96 93/108/95 98/109/97
f 119/110/91 96/110/93 95/111/99
f 115/112/88 121/113/88 98/113/88
f 116/114/90 122/115/138 95/115/90
f 90/116/101 104/116/113 105/117/102
f 85/118/104 92/119/114 106/119/105
f 86/120/107 85/118/104 99/118/106
f 87/121/109 101/121/115 102/122/110
f 89/123/112 103/123/116 104/116/113
f 92/119/114 91/117/103 105/117/102
f 87/121/109 86/120/107 100/120/108
f 88/122/111 102/122/110 103/124/116
f 64/115/117 114/115/122 110/114/118
f 79/112/119 84/113/123 113/113/120
f 69/110/121 111/110/128 114/111/122
f 84/109/123 45/108/125 112/108/124
f 45/107/125 54/106/129 109/106/126
f 74/105/127 107/105/130 111/104/128
f 54/102/129 59/103/118 110/103/118
f 79/101/119 108/101/119 107/100/130
f 110/114/131 114/115/122 122/115/100
f 108/112/133 113/113/120 121/113/98
f 114/111/122 111/110/128 119/110/91
f 113/109/120 112/108/124 120/108/96
f 109/106/126 118/106/94 120/107/96
f 107/105/130 117/105/135 119/104/91
f 110/103/131 116/103/132 118/102/94
f 108/101/133 115/101/134 117/100/135
f 93/108/136 96/104/136 97/112/136
f 96/104/136 93/107/136 94/114/136
