# Blender 5.1.2
# www.blender.org
mtllib intermediate_outer_single.mtl
o HalfWireArmInwardsOuterSingle
g intermediate_outer_single
v 0.291434 6.000000 0.006696
v -0.406468 6.301972 0.006697
v -0.049567 6.200000 0.006696
v 0.309436 6.019967 0.006696
v -0.399567 6.329857 0.006697
v -0.033917 6.223782 0.006696
v 0.309436 6.000000 0.006696
v -0.049567 6.200000 0.002696
v -0.406468 6.301972 0.002697
v 0.291434 6.000000 0.002696
v -0.033917 6.223782 0.002696
v -0.399567 6.329857 0.002697
v 0.309436 6.019967 0.002696
v 0.309436 6.000000 0.002696
vn -0.0000 -0.0000 1.0000
vn -0.0000 -0.0000 -1.0000
vn 0.5104 0.8599 -0.0000
vn -0.5059 -0.8626 -0.0000
vn -0.9707 0.2402 -0.0000
vn 0.2786 0.9604 -0.0000
vn -0.2747 -0.9615 -0.0000
vn 1.0000 -0.0000 -0.0000
vt 0.977026 0.007582
vt 0.969833 0.009091
vt 0.976724 0.007123
vt 0.969967 0.009630
vt 0.983656 0.003647
vt 0.983308 0.003261
vt 0.983656 0.003261
s 1
usemtl Catenary
f 6/1/1 2/2/1 3/3/1
f 8/3/2 12/4/2 11/1/2
f 13/5/3 6/1/3 4/5/3
f 8/3/4 1/6/4 3/3/4
f 12/4/5 2/2/5 5/4/5
f 11/1/6 5/4/6 6/1/6
f 9/2/7 3/3/7 2/2/7
f 14/7/8 4/5/8 7/7/8
f 3/3/1 1/6/1 7/7/1
f 7/7/1 4/5/1 6/1/1
f 6/1/1 5/4/1 2/2/1
f 3/3/1 7/7/1 6/1/1
f 11/1/2 13/5/2 14/7/2
f 14/7/2 10/6/2 8/3/2
f 8/3/2 9/2/2 12/4/2
f 11/1/2 14/7/2 8/3/2
f 13/5/3 11/1/3 6/1/3
f 8/3/4 10/6/4 1/6/4
f 12/4/5 9/2/5 2/2/5
f 11/1/6 12/4/6 5/4/6
f 9/2/7 8/3/7 3/3/7
f 14/7/8 13/5/8 4/5/8
o MessengerHolder.005
v 0.299868 6.436636 0.008762
v 0.298699 6.442902 0.006122
v 0.298215 6.445498 -0.000252
v 0.298699 6.442902 -0.006626
v 0.299868 6.436636 -0.009266
v 0.301037 6.430370 -0.006626
v 0.301521 6.427775 -0.000252
v 0.301037 6.430370 0.006122
v -0.599288 6.354103 0.008735
v -0.602770 6.359442 0.006095
v -0.604212 6.361653 -0.000279
v -0.602770 6.359442 -0.006653
v -0.599288 6.354103 -0.009293
v -0.595807 6.348764 -0.006653
v -0.594364 6.346553 -0.000279
v -0.595807 6.348764 0.006095
vn -0.0922 0.9957 -0.0000
vn -0.0735 0.7910 0.6074
vn -0.0641 0.6942 0.7169
vn -0.0641 0.6942 -0.7169
vn -0.0123 0.1313 -0.9913
vn -0.0734 0.7910 -0.6074
vn 0.0651 -0.7168 -0.6942
vn 0.0906 -0.9959 -0.0000
vn 0.0622 -0.6812 -0.7295
vn 0.0019 -0.0227 0.9997
vn 0.0622 -0.6812 0.7295
vn 0.0650 -0.7168 0.6942
vn -0.0123 0.1312 0.9913
vn -0.0925 0.9957 -0.0000
vn 0.0019 -0.0227 -0.9997
vn 0.0903 -0.9959 -0.0000
vt 0.975514 0.004283
vt 0.976000 0.005093
vt 0.973371 0.002583
vt 0.972472 0.002294
vt 0.974174 0.011647
vt 0.974914 0.011060
vt 0.976490 0.007784
vt 0.976321 0.008714
vt 0.976321 0.005945
vt 0.976490 0.006874
vt 0.974914 0.003599
vt 0.974174 0.003012
vt 0.972472 0.012365
vt 0.973371 0.012076
vt 0.976000 0.009566
vt 0.975514 0.010376
s 1
usemtl Catenary
f 17/8/9 24/9/10 16/9/11
f 18/10/12 27/11/13 26/10/14
f 20/12/15 29/13/16 28/12/17
f 15/14/18 30/15/19 22/15/20
f 16/16/11 23/17/21 15/17/18
f 17/18/9 26/19/14 25/18/22
f 19/20/23 28/21/17 27/20/13
f 22/22/20 29/23/16 21/23/24
f 17/8/9 25/8/22 24/9/10
f 18/10/12 19/11/23 27/11/13
f 20/12/15 21/13/24 29/13/16
f 15/14/18 23/14/21 30/15/19
f 16/16/11 24/16/10 23/17/21
f 17/18/9 18/19/12 26/19/14
f 19/20/23 20/21/15 28/21/17
f 22/22/20 30/22/19 29/23/16
o AngledInsulator.003
v -1.612369 6.535173 0.008746
v -1.626921 6.537868 0.102362
v -1.701735 6.551381 0.022523
v -1.711271 6.553103 0.102362
v -1.786085 6.566615 0.038935
v -1.791009 6.539347 0.027457
v -1.723839 6.483518 0.073072
v -1.704373 6.536774 0.016375
v -1.639489 6.468284 0.073072
v -1.613500 6.528912 0.006110
v -1.793049 6.528052 -0.000252
v -1.729044 6.454695 0.002362
v -1.705466 6.530723 0.001531
v -1.644695 6.439461 0.002362
v -1.613968 6.526318 -0.000252
v -1.791009 6.539347 -0.027961
v -1.723839 6.483518 -0.068349
v -1.704231 6.537564 -0.014596
v -1.639489 6.468284 -0.068349
v -1.613500 6.528912 -0.006614
v -1.786085 6.566615 -0.039439
v -1.711271 6.553103 -0.097638
v -1.701735 6.551381 -0.020487
v -1.626921 6.537868 -0.097638
v -1.612369 6.535173 -0.009250
v -1.781160 6.593883 -0.027961
v -1.698703 6.622688 -0.068349
v -1.699240 6.565197 -0.014596
v -1.614354 6.607453 -0.068349
v -1.611238 6.541434 -0.006614
v -1.779120 6.605178 -0.000252
v -1.693498 6.651511 0.002362
v -1.698004 6.572038 0.001531
v -1.609148 6.636277 0.002362
v -1.610770 6.544027 -0.000252
v -1.781160 6.593883 0.027457
v -1.698703 6.622688 0.073072
v -1.699097 6.565988 0.016375
v -1.614354 6.607453 0.073072
v -1.611238 6.541434 0.006110
v -1.786066 6.566717 0.011720
v -1.787571 6.558386 0.008214
v -1.788194 6.554935 -0.000252
v -1.787571 6.558386 -0.008718
v -1.786066 6.566717 -0.012224
v -1.784562 6.575048 -0.008718
v -1.783938 6.578499 -0.000252
v -1.784562 6.575048 0.008214
v -0.348487 6.301192 0.003614
v -0.350316 6.294751 0.002482
v -0.350316 6.294751 -0.002986
v -0.348487 6.301192 -0.004118
v -0.346659 6.307634 -0.002986
v -0.346659 6.307634 0.002482
v -2.056376 6.616667 0.011720
v -2.058688 6.608523 0.008214
v -2.059645 6.605149 -0.000252
v -2.058688 6.608523 -0.008718
v -2.056376 6.616667 -0.012225
v -2.054063 6.624811 -0.008718
v -2.053106 6.628184 -0.000252
v -2.054063 6.624811 0.008214
v -0.427022 6.330034 -0.006614
v -0.426302 6.332569 -0.000252
v -0.430497 6.317792 0.006110
v -0.431217 6.315258 -0.000252
v -0.428760 6.323913 -0.009250
v -0.428760 6.323913 0.008746
v -0.427022 6.330034 0.006110
v -0.430497 6.317792 -0.006614
v -0.425258 6.329949 -0.000252
v -0.428916 6.317065 -0.000252
v -0.425258 6.329949 -0.002986
v -0.428915 6.317065 0.002482
v -0.427087 6.323507 -0.004118
v -0.427087 6.323507 0.003614
v -0.425258 6.329949 0.002482
v -0.428915 6.317065 -0.002986
vn 0.9915 -0.0664 0.1116
vn 0.9720 -0.1756 0.1561
vn 0.9917 -0.0652 0.1105
vn -0.6249 0.6087 0.4889
vn -0.7127 0.1287 0.6896
vn 0.9920 -0.0925 0.0856
vn 0.9769 -0.1764 0.1205
vn 0.9921 -0.0921 0.0852
vn -0.5293 0.6480 0.5477
vn -0.6304 0.1139 0.7679
vn 0.9998 -0.0176 0.0008
vn 0.9998 -0.0175 -0.0017
vn -0.5859 0.8104 0.0010
vn -0.6247 0.6100 0.4875
vn 0.9984 -0.0566 0.0002
vn 0.9984 -0.0571 -0.0010
vn -0.4760 0.8794 0.0042
vn -0.5283 0.6532 0.5424
vn 0.9915 -0.0610 -0.1153
vn 0.9912 -0.0623 -0.1167
vn -0.6166 0.6145 -0.4921
vn -0.5877 0.8090 -0.0052
vn 0.9921 -0.0902 -0.0869
vn 0.9918 -0.0921 -0.0888
vn -0.5035 0.6609 -0.5566
vn -0.4758 0.8796 -0.0066
vn 0.9706 -0.1753 -0.1651
vn -0.7013 0.1267 -0.7016
vn -0.6178 0.6067 -0.5003
vn 0.9764 -0.1764 -0.1245
vn 0.9764 -0.1763 -0.1246
vn -0.5982 0.1080 -0.7940
vn -0.5043 0.6555 -0.5621
vn 0.9503 -0.2885 -0.1167
vn -0.7910 -0.3522 -0.5003
vn -0.7926 -0.3600 -0.4921
vn 0.9613 -0.2607 -0.0888
vn -0.7018 -0.4377 -0.5621
vn -0.7028 -0.4430 -0.5566
vn 0.9427 -0.3336 -0.0017
vn 0.9501 -0.2897 -0.1154
vn -0.8336 -0.5523 -0.0052
vn -0.8323 -0.5543 0.0010
vn 0.9553 -0.2958 -0.0010
vn 0.9610 -0.2625 -0.0869
vn -0.7534 -0.6576 -0.0066
vn -0.7536 -0.6574 0.0042
vn 0.9518 -0.2860 0.1105
vn 0.9428 -0.3335 0.0008
vn -0.7986 -0.3529 0.4875
vn -0.7983 -0.3516 0.4889
vn 0.9616 -0.2608 0.0852
vn 0.9551 -0.2962 0.0002
vn -0.7234 -0.4272 0.5424
vn -0.7226 -0.4219 0.5477
vn 0.9521 -0.2847 0.1118
vn 0.9617 -0.2604 0.0856
vn 0.9720 -0.1755 0.1562
vn -0.7009 0.1266 -0.7019
vn -0.9841 0.1777 -0.0000
vn 0.2731 0.9620 -0.0000
vn -0.2731 -0.9620 0.0003
vn -0.2731 -0.9620 -0.0000
vn 0.5733 -0.1619 -0.8031
vn 0.0455 0.1604 -0.9860
vn -0.0000 -0.0000 -1.0000
vn 0.4693 -0.6621 0.5844
vn -0.0000 -0.0000 1.0000
vn 0.5733 -0.1619 0.8031
vn 0.0455 0.1604 0.9860
vn 0.7294 0.3425 0.5922
vn -0.0455 -0.1604 -0.9860
vn 0.4693 -0.6621 -0.5844
vn 0.1283 0.6949 -0.7076
vn 0.1816 0.9834 -0.0000
vn 0.1815 0.9834 -0.0000
vn -0.0002 -0.0009 1.0000
vn 0.1266 0.6853 0.7172
vn -0.0042 -0.0225 0.9997
vn -0.1287 -0.6958 0.7066
vn -0.1309 -0.7077 0.6943
vn -0.1818 -0.9833 -0.0000
vn -0.1309 -0.7077 -0.6943
vn -0.1286 -0.6958 -0.7066
vn -0.0002 -0.0009 -1.0000
vn 0.1266 0.6853 -0.7172
vn 0.1283 0.6949 0.7076
vn -0.1819 -0.9833 -0.0000
vn -0.0042 -0.0225 -0.9997
vn -0.1243 -0.6964 -0.7068
vn -0.1757 -0.9844 -0.0000
vn 0.1757 0.9844 -0.0000
vn 0.5838 0.4617 0.6678
vn -0.0001 -0.0005 -1.0000
vn 0.3250 -0.6823 -0.6549
vn 0.1242 0.6959 0.7074
vn 0.5082 -0.1276 0.8518
vn -0.0001 -0.0005 1.0000
vn 0.3250 -0.6823 0.6549
vn 0.1242 0.6959 -0.7074
vn 0.5082 -0.1276 -0.8518
vn -0.1243 -0.6964 0.7068
vn 0.5838 0.4617 -0.6678
vn 0.5109 -0.8596 -0.0000
vn 0.6176 -0.7865 -0.0000
vn 0.8700 0.4930 -0.0000
vn 0.9289 0.3703 -0.0000
vn 0.7294 0.3425 -0.5922
vn 0.9620 -0.2731 -0.0000
vn -0.0455 -0.1604 0.9860
vn -0.2731 -0.9620 -0.0003
vt 0.959703 0.009387
vt 0.960882 0.008099
vt 0.960684 0.009187
vt 0.957954 0.007566
vt 0.960035 0.007566
vt 0.962915 0.005744
vt 0.961736 0.007033
vt 0.961934 0.005945
vt 0.964664 0.007566
vt 0.962584 0.007566
vt 0.958751 0.010974
vt 0.960309 0.010184
vt 0.959740 0.011133
vt 0.957756 0.008654
vt 0.963867 0.004157
vt 0.962309 0.004947
vt 0.962878 0.003998
vt 0.964862 0.006477
vt 0.957301 0.012125
vt 0.959037 0.011934
vt 0.958171 0.012621
vt 0.957187 0.009603
vt 0.965317 0.003006
vt 0.963581 0.003197
vt 0.964447 0.002510
vt 0.965431 0.005529
vt 0.955539 0.012691
vt 0.957231 0.013124
vt 0.956177 0.013462
vt 0.956321 0.010290
vt 0.967079 0.002440
vt 0.965388 0.002008
vt 0.966441 0.001669
vt 0.966297 0.004841
vt 0.957231 0.002008
vt 0.955539 0.002440
vt 0.956177 0.001669
vt 0.956321 0.004841
vt 0.957301 0.003006
vt 0.965388 0.013124
vt 0.967079 0.012691
vt 0.966441 0.013462
vt 0.966297 0.010290
vt 0.965317 0.012125
vt 0.959037 0.003197
vt 0.958171 0.002510
vt 0.957187 0.005529
vt 0.958751 0.004157
vt 0.963581 0.011934
vt 0.964447 0.012621
vt 0.965431 0.009603
vt 0.963867 0.010974
vt 0.960309 0.004947
vt 0.959740 0.003998
vt 0.957756 0.006477
vt 0.959703 0.005744
vt 0.962309 0.010184
vt 0.962878 0.011133
vt 0.964862 0.008654
vt 0.962915 0.009387
vt 0.960882 0.007033
vt 0.960684 0.005945
vt 0.961736 0.008099
vt 0.961934 0.009187
vt 0.955268 0.010628
vt 0.967350 0.004503
vt 0.955268 0.004503
vt 0.967350 0.010628
vt 0.974174 0.011647
vt 0.974914 0.011060
vt 0.976000 0.005093
vt 0.975514 0.004283
vt 0.972472 0.012365
vt 0.973371 0.012076
vt 0.976321 0.005945
vt 0.976490 0.006874
vt 0.976490 0.007784
vt 0.976321 0.008714
vt 0.972472 0.002294
vt 0.973371 0.002583
vt 0.975514 0.010376
vt 0.976000 0.009566
vt 0.974914 0.003599
vt 0.974174 0.003012
vt 0.977467 0.004841
vt 0.976600 0.005529
vt 0.975833 0.007566
vt 0.976031 0.006477
vt 0.976031 0.008654
vt 0.976600 0.009603
vt 0.977467 0.010290
vt 0.978520 0.004503
vt 0.978520 0.010628
s 1
usemtl Catenary
f 69/24/25 31/25/26 70/26/27
f 69/24/28 33/27/29 32/28/29
f 67/29/30 33/30/31 68/31/32
f 67/29/33 35/32/34 34/33/34
f 64/34/35 70/35/27 65/36/36
f 64/34/37 68/37/38 69/24/28
f 62/38/39 68/39/32 63/40/40
f 62/38/41 66/41/42 67/29/33
f 59/42/43 65/43/36 60/44/44
f 59/42/45 63/45/46 64/34/37
f 57/46/47 63/47/40 58/48/48
f 57/46/49 61/49/50 62/38/41
f 54/50/51 60/51/44 55/52/51
f 54/50/52 58/53/53 59/42/45
f 52/54/54 58/55/48 53/56/55
f 52/54/56 56/57/57 57/46/49
f 50/58/58 54/59/51 55/60/51
f 48/61/59 54/59/52 49/62/60
f 48/63/61 52/64/54 53/65/55
f 46/66/62 52/64/56 47/67/63
f 45/68/64 49/62/65 50/69/58
f 43/70/66 49/62/60 44/71/67
f 43/72/68 47/67/69 48/73/61
f 41/74/70 47/67/63 42/75/71
f 40/76/72 44/71/73 45/77/64
f 38/78/74 44/71/67 39/79/75
f 38/80/76 42/75/77 43/81/68
f 36/82/78 42/75/71 37/83/79
f 31/84/26 39/79/80 40/85/72
f 33/27/29 39/79/75 32/28/29
f 33/86/31 37/83/81 38/87/76
f 35/32/34 37/83/79 34/33/34
f 69/24/25 32/28/82 31/25/26
f 69/24/28 68/37/38 33/27/29
f 67/29/30 34/33/31 33/30/31
f 67/29/33 66/41/42 35/32/34
f 64/34/35 69/24/25 70/35/27
f 64/34/37 63/45/46 68/37/38
f 62/38/39 67/29/30 68/39/32
f 62/38/41 61/49/50 66/41/42
f 59/42/43 64/34/35 65/43/36
f 59/42/45 58/53/53 63/45/46
f 57/46/47 62/38/39 63/47/40
f 57/46/49 56/57/57 61/49/50
f 54/50/51 59/42/43 60/51/44
f 54/50/52 53/88/83 58/53/53
f 52/54/54 57/46/47 58/55/48
f 52/54/56 51/89/56 56/57/57
f 50/58/58 49/62/65 54/59/51
f 48/61/59 53/90/83 54/59/52
f 48/63/61 47/67/69 52/64/54
f 46/66/62 51/91/56 52/64/56
f 45/68/64 44/71/73 49/62/65
f 43/70/66 48/61/59 49/62/60
f 43/72/68 42/75/77 47/67/69
f 41/74/70 46/66/62 47/67/63
f 40/76/72 39/79/80 44/71/73
f 38/78/74 43/70/66 44/71/67
f 38/80/76 37/83/81 42/75/77
f 36/82/78 41/74/70 42/75/71
f 31/84/26 32/28/82 39/79/80
f 33/27/29 38/78/74 39/79/75
f 33/86/31 34/33/31 37/83/81
f 35/32/34 36/82/78 37/83/79
f 61/49/84 78/41/84 66/41/84
f 46/66/84 73/74/84 74/66/84
f 61/49/84 76/57/84 77/49/84
f 36/82/84 73/74/84 41/74/84
f 56/57/84 75/89/84 76/57/84
f 35/32/84 72/82/84 36/82/84
f 66/41/84 71/32/84 35/32/84
f 51/91/84 74/66/84 75/91/84
f 103/92/85 101/93/85 83/92/85
f 104/94/86 102/95/87 80/94/87
f 105/96/88 83/97/89 82/96/90
f 104/98/91 79/99/92 106/99/93
f 106/100/93 84/101/94 107/101/95
f 105/102/88 81/103/96 108/103/97
f 101/104/85 84/105/85 83/104/85
f 102/106/87 81/107/87 80/106/87
f 76/108/98 91/109/99 77/109/100
f 71/110/101 92/111/102 85/110/103
f 72/112/104 85/110/103 86/112/105
f 73/113/106 88/114/107 74/114/108
f 75/115/109 90/108/110 76/108/98
f 78/111/111 91/109/99 92/111/102
f 73/113/106 86/112/105 87/113/112
f 74/114/108 89/116/113 75/116/109
f 50/107/114 96/106/115 45/106/115
f 65/104/116 99/105/117 94/104/116
f 55/102/118 100/103/119 50/103/114
f 70/101/120 98/100/121 99/101/117
f 31/99/122 95/98/123 98/99/121
f 60/97/124 97/96/125 55/96/118
f 40/94/126 96/95/115 95/94/123
f 65/93/116 93/92/127 60/92/124
f 96/106/128 108/107/97 102/106/129
f 94/104/130 107/105/95 101/104/131
f 100/103/119 105/102/88 108/103/97
f 99/101/117 106/100/93 107/101/95
f 95/98/123 106/99/93 98/99/121
f 93/97/127 105/96/88 97/96/125
f 96/95/128 104/94/91 95/94/123
f 94/93/130 103/92/132 93/92/127
f 79/100/133 83/104/133 84/105/133
f 82/96/133 80/106/133 81/107/133
f 61/49/84 77/49/84 78/41/84
f 46/66/84 41/74/84 73/74/84
f 61/49/84 56/57/84 76/57/84
f 36/82/84 72/82/84 73/74/84
f 56/57/84 51/89/84 75/89/84
f 35/32/84 71/32/84 72/82/84
f 66/41/84 78/41/84 71/32/84
f 51/91/84 46/66/84 74/66/84
f 105/96/88 103/97/132 83/97/89
f 104/98/91 80/98/134 79/99/92
f 106/100/93 79/100/92 84/101/94
f 105/102/88 82/102/90 81/103/96
f 101/104/85 107/105/85 84/105/85
f 102/106/87 108/107/135 81/107/87
f 76/108/98 90/108/110 91/109/99
f 71/110/101 78/111/111 92/111/102
f 72/112/104 71/110/101 85/110/103
f 73/113/106 87/113/112 88/114/107
f 75/115/109 89/115/113 90/108/110
f 78/111/111 77/109/100 91/109/99
f 73/113/106 72/112/104 86/112/105
f 74/114/108 88/114/107 89/116/113
f 50/107/114 100/107/119 96/106/115
f 65/104/116 70/105/120 99/105/117
f 55/102/118 97/102/125 100/103/119
f 70/101/120 31/100/122 98/100/121
f 31/99/122 40/98/126 95/98/123
f 60/97/124 93/97/127 97/96/125
f 40/94/126 45/95/115 96/95/115
f 65/93/116 94/93/116 93/92/127
f 96/106/128 100/107/119 108/107/97
f 94/104/130 99/105/117 107/105/95
f 100/103/119 97/102/125 105/102/88
f 99/101/117 98/100/121 106/100/93
f 95/98/123 104/98/91 106/99/93
f 93/97/127 103/97/132 105/96/88
f 96/95/128 102/95/129 104/94/91
f 94/93/130 101/93/131 103/92/132
f 79/100/133 82/96/133 83/104/133
f 82/96/133 79/99/133 80/106/133
