# Blender 5.1.2
# www.blender.org
mtllib intermediate_middle_single.mtl
o HalfWireArmMiddleInnerSingle
g intermediate_middle_single
v -0.008566 6.000000 0.006696
v -0.706468 6.301972 0.006697
v -0.349567 6.200000 0.006696
v 0.009436 6.019967 0.006696
v -0.699567 6.329857 0.006697
v -0.333917 6.223782 0.006696
v 0.009436 6.000000 0.006696
v -0.349567 6.200000 0.002696
v -0.706468 6.301972 0.002697
v -0.008566 6.000000 0.002696
v -0.333917 6.223782 0.002696
v -0.699567 6.329857 0.002697
v 0.009436 6.019967 0.002696
v 0.009436 6.000000 0.002696
vn -0.0000 -0.0000 1.0000
vn -0.0000 -0.0000 -1.0000
vn 0.5104 0.8599 -0.0000
vn -0.5059 -0.8626 -0.0000
vn -0.9707 0.2402 -0.0000
vn 0.2786 0.9604 -0.0000
vn -0.2747 -0.9615 -0.0000
vn 1.0000 -0.0000 -0.0000
vt 0.977026 0.007582
vt 0.969833 0.009091
vt 0.976724 0.007123
vt 0.969967 0.009630
vt 0.983656 0.003647
vt 0.983308 0.003261
vt 0.983656 0.003261
s 1
usemtl Catenary
f 6/1/1 2/2/1 3/3/1
f 8/3/2 12/4/2 11/1/2
f 13/5/3 6/1/3 4/5/3
f 8/3/4 1/6/4 3/3/4
f 12/4/5 2/2/5 5/4/5
f 11/1/6 5/4/6 6/1/6
f 9/2/7 3/3/7 2/2/7
f 14/7/8 4/5/8 7/7/8
f 3/3/1 1/6/1 7/7/1
f 7/7/1 4/5/1 6/1/1
f 6/1/1 5/4/1 2/2/1
f 3/3/1 7/7/1 6/1/1
f 11/1/2 13/5/2 14/7/2
f 14/7/2 10/6/2 8/3/2
f 8/3/2 9/2/2 12/4/2
f 11/1/2 14/7/2 8/3/2
f 13/5/3 11/1/3 6/1/3
f 8/3/4 10/6/4 1/6/4
f 12/4/5 9/2/5 2/2/5
f 11/1/6 12/4/6 5/4/6
f 9/2/7 8/3/7 3/3/7
f 14/7/8 13/5/8 4/5/8
o AngledInsulator.001
v -1.615292 6.518121 0.008746
v -1.629746 6.521304 0.102362
v -1.704063 6.537324 0.022523
v -1.713535 6.539366 0.102362
v -1.787853 6.555385 0.038935
v -1.793691 6.528298 0.027457
v -1.728435 6.470243 0.073072
v -1.707191 6.522814 0.016375
v -1.644645 6.452181 0.073072
v -1.616633 6.511901 0.006110
v -1.796110 6.517078 -0.000252
v -1.734607 6.441611 0.002362
v -1.708486 6.516803 0.001532
v -1.650817 6.423550 0.002362
v -1.617188 6.509325 -0.000252
v -1.793691 6.528298 -0.027961
v -1.728435 6.470243 -0.068349
v -1.707021 6.523599 -0.014596
v -1.644645 6.452181 -0.068349
v -1.616633 6.511901 -0.006614
v -1.787853 6.555385 -0.039439
v -1.713535 6.539366 -0.097638
v -1.704063 6.537324 -0.020487
v -1.629745 6.521304 -0.097638
v -1.615292 6.518121 -0.009250
v -1.782014 6.582472 -0.027961
v -1.698636 6.608489 -0.068349
v -1.701105 6.551049 -0.014596
v -1.614846 6.590427 -0.068349
v -1.613951 6.524340 -0.006614
v -1.779595 6.593692 -0.000252
v -1.692464 6.637120 0.002362
v -1.699640 6.557844 0.001532
v -1.608674 6.619059 0.002362
v -1.613396 6.526917 -0.000252
v -1.782014 6.582472 0.027457
v -1.698636 6.608489 0.073072
v -1.700935 6.551834 0.016375
v -1.614846 6.590427 0.073072
v -1.613951 6.524340 0.006110
v -1.787831 6.555487 0.011720
v -1.789614 6.547211 0.008214
v -1.790353 6.543783 -0.000252
v -1.789614 6.547211 -0.008718
v -1.787831 6.555487 -0.012224
v -1.786047 6.563762 -0.008718
v -1.785308 6.567190 -0.000252
v -1.786047 6.563762 0.008214
v -0.648488 6.301192 0.003614
v -0.650316 6.294751 0.002482
v -0.650316 6.294751 -0.002986
v -0.648488 6.301192 -0.004118
v -0.646659 6.307634 -0.002986
v -0.646659 6.307634 0.002482
v -2.058688 6.616667 0.011720
v -2.061000 6.608523 0.008214
v -2.061957 6.605149 -0.000252
v -2.061000 6.608523 -0.008718
v -2.058688 6.616667 -0.012225
v -2.056376 6.624811 -0.008718
v -2.055418 6.628184 -0.000252
v -2.056376 6.624811 0.008214
v -0.727022 6.330034 -0.006614
v -0.726302 6.332569 -0.000252
v -0.730497 6.317792 0.006110
v -0.731217 6.315258 -0.000252
v -0.728760 6.323913 -0.009250
v -0.728760 6.323913 0.008746
v -0.727022 6.330034 0.006110
v -0.730497 6.317792 -0.006614
v -0.725258 6.329949 -0.000252
v -0.728916 6.317065 -0.000252
v -0.725258 6.329949 -0.002986
v -0.728915 6.317065 0.002482
v -0.727087 6.323507 -0.004118
v -0.727087 6.323507 0.003614
v -0.725258 6.329949 0.002482
v -0.728915 6.317065 -0.002986
vn 0.9887 -0.0997 0.1116
vn 0.9655 -0.2082 0.1562
vn 0.9890 -0.0985 0.1105
vn -0.6041 0.6293 0.4889
vn -0.7079 0.1526 0.6896
vn 0.9884 -0.1258 0.0856
vn 0.9704 -0.2092 0.1205
vn 0.9884 -0.1254 0.0852
vn -0.5072 0.6654 0.5477
vn -0.6262 0.1350 0.7679
vn 0.9987 -0.0512 0.0008
vn 0.9987 -0.0511 -0.0017
vn -0.5583 0.8296 0.0010
vn -0.6038 0.6306 0.4875
vn 0.9959 -0.0902 0.0002
vn 0.9959 -0.0906 -0.0010
vn -0.4462 0.8949 0.0042
vn -0.5060 0.6706 0.5424
vn 0.9888 -0.0943 -0.1153
vn 0.9886 -0.0956 -0.1167
vn -0.5955 0.6349 -0.4921
vn -0.5602 0.8283 -0.0052
vn 0.9885 -0.1235 -0.0869
vn 0.9881 -0.1254 -0.0888
vn -0.4810 0.6774 -0.5566
vn -0.4459 0.8951 -0.0066
vn 0.9641 -0.2078 -0.1651
vn 0.9641 -0.2079 -0.1651
vn -0.6966 0.1502 -0.7016
vn -0.5971 0.6271 -0.5003
vn 0.9699 -0.2091 -0.1245
vn 0.9699 -0.2091 -0.1246
vn -0.5942 0.1281 -0.7940
vn -0.4820 0.6721 -0.5621
vn 0.9401 -0.3203 -0.1167
vn -0.8024 -0.3254 -0.5003
vn -0.8042 -0.3332 -0.4921
vn 0.9520 -0.2928 -0.0888
vn -0.7161 -0.4138 -0.5621
vn -0.7173 -0.4191 -0.5566
vn 0.9310 -0.3650 -0.0017
vn 0.9398 -0.3215 -0.1154
vn -0.8517 -0.5240 -0.0052
vn -0.8505 -0.5260 0.0010
vn 0.9448 -0.3277 -0.0010
vn 0.9516 -0.2947 -0.0869
vn -0.7751 -0.6319 -0.0066
vn -0.7752 -0.6316 0.0042
vn 0.9417 -0.3178 0.1105
vn 0.9310 -0.3650 0.0008
vn -0.8100 -0.3259 0.4875
vn -0.8097 -0.3246 0.4889
vn 0.9523 -0.2929 0.0852
vn 0.9446 -0.3281 0.0002
vn -0.7373 -0.4026 0.5424
vn -0.7363 -0.3974 0.5477
vn 0.9420 -0.3165 0.1118
vn 0.9524 -0.2926 0.0856
vn 0.9656 -0.2081 0.1562
vn -0.6963 0.1501 -0.7019
vn -0.9775 0.2107 -0.0000
vn -0.9776 0.2107 -0.0000
vn 0.2731 0.9620 -0.0000
vn -0.2731 -0.9620 0.0003
vn -0.2731 -0.9620 -0.0000
vn 0.5733 -0.1619 -0.8031
vn 0.0455 0.1604 -0.9860
vn -0.0000 -0.0000 -1.0000
vn 0.4693 -0.6621 0.5844
vn -0.0000 -0.0000 1.0000
vn 0.5733 -0.1619 0.8031
vn 0.0455 0.1604 0.9860
vn 0.7294 0.3425 0.5922
vn -0.0455 -0.1604 -0.9860
vn 0.4693 -0.6621 -0.5844
vn 0.1555 0.6886 -0.7083
vn 0.2203 0.9754 -0.0000
vn -0.0005 -0.0023 1.0000
vn 0.1544 0.6837 0.7133
vn -0.0029 -0.0129 0.9999
vn -0.1561 -0.6909 0.7059
vn -0.1574 -0.6966 0.7000
vn -0.2204 -0.9754 -0.0000
vn -0.1574 -0.6966 -0.7000
vn -0.1561 -0.6909 -0.7059
vn -0.0005 -0.0023 -1.0000
vn 0.1544 0.6837 -0.7133
vn 0.1555 0.6886 0.7083
vn -0.0029 -0.0129 -0.9999
vn -0.1512 -0.6903 -0.7075
vn -0.2140 -0.9768 -0.0000
vn 0.2140 0.9768 -0.0000
vn 0.5938 0.4517 0.6659
vn 0.0002 0.0008 -1.0000
vn 0.3118 -0.6863 -0.6570
vn 0.1514 0.6911 0.7067
vn 0.5070 -0.1339 0.8515
vn 0.0002 0.0008 1.0000
vn 0.3118 -0.6863 0.6570
vn 0.1514 0.6911 -0.7067
vn 0.5070 -0.1339 -0.8515
vn -0.1512 -0.6903 0.7075
vn 0.5938 0.4517 -0.6659
vn 0.5109 -0.8596 -0.0000
vn 0.6176 -0.7865 -0.0000
vn 0.8700 0.4930 -0.0000
vn 0.9289 0.3703 -0.0000
vn 0.7294 0.3425 -0.5922
vn 0.9620 -0.2731 -0.0000
vn -0.0455 -0.1604 0.9860
vn -0.2731 -0.9620 -0.0003
vt 0.959703 0.009387
vt 0.960882 0.008099
vt 0.960684 0.009187
vt 0.957954 0.007566
vt 0.960035 0.007566
vt 0.962915 0.005744
vt 0.961736 0.007033
vt 0.961934 0.005945
vt 0.964664 0.007566
vt 0.962584 0.007566
vt 0.958751 0.010974
vt 0.960309 0.010184
vt 0.959740 0.011133
vt 0.957756 0.008654
vt 0.963867 0.004157
vt 0.962309 0.004947
vt 0.962878 0.003998
vt 0.964862 0.006477
vt 0.957301 0.012125
vt 0.959037 0.011934
vt 0.958171 0.012621
vt 0.957187 0.009603
vt 0.965317 0.003006
vt 0.963581 0.003197
vt 0.964447 0.002510
vt 0.965431 0.005529
vt 0.955539 0.012691
vt 0.957231 0.013124
vt 0.956177 0.013462
vt 0.956321 0.010290
vt 0.967079 0.002440
vt 0.965388 0.002008
vt 0.966441 0.001669
vt 0.966297 0.004841
vt 0.957231 0.002008
vt 0.955539 0.002440
vt 0.956177 0.001669
vt 0.956321 0.004841
vt 0.957301 0.003006
vt 0.965388 0.013124
vt 0.967079 0.012691
vt 0.966441 0.013462
vt 0.966297 0.010290
vt 0.965317 0.012125
vt 0.959037 0.003197
vt 0.958171 0.002510
vt 0.957187 0.005529
vt 0.958751 0.004157
vt 0.963581 0.011934
vt 0.964447 0.012621
vt 0.965431 0.009603
vt 0.963867 0.010974
vt 0.960309 0.004947
vt 0.959740 0.003998
vt 0.957756 0.006477
vt 0.959703 0.005744
vt 0.962309 0.010184
vt 0.962878 0.011133
vt 0.964862 0.008654
vt 0.962915 0.009387
vt 0.960882 0.007033
vt 0.960684 0.005945
vt 0.961736 0.008099
vt 0.961934 0.009187
vt 0.955268 0.010628
vt 0.967350 0.004503
vt 0.955268 0.004503
vt 0.967350 0.010628
vt 0.974174 0.011647
vt 0.974914 0.011060
vt 0.976000 0.005093
vt 0.975514 0.004283
vt 0.972472 0.012365
vt 0.973371 0.012076
vt 0.976321 0.005945
vt 0.976490 0.006874
vt 0.976490 0.007784
vt 0.976321 0.008714
vt 0.972472 0.002294
vt 0.973371 0.002583
vt 0.975514 0.010376
vt 0.976000 0.009566
vt 0.974914 0.003599
vt 0.974174 0.003012
vt 0.977467 0.004841
vt 0.976600 0.005529
vt 0.975833 0.007566
vt 0.976031 0.006477
vt 0.976031 0.008654
vt 0.976600 0.009603
vt 0.977467 0.010290
vt 0.978520 0.004503
vt 0.978520 0.010628
s 1
usemtl Catenary
f 53/8/9 15/9/10 54/10/11
f 53/8/12 17/11/13 16/12/13
f 51/13/14 17/14/15 52/15/16
f 51/13/17 19/16/18 18/17/18
f 48/18/19 54/19/11 49/20/20
f 48/18/21 52/21/22 53/8/12
f 46/22/23 52/23/16 47/24/24
f 46/22/25 50/25/26 51/13/17
f 43/26/27 49/27/20 44/28/28
f 43/26/29 47/29/30 48/18/21
f 41/30/31 47/31/24 42/32/32
f 41/30/33 45/33/34 46/22/25
f 38/34/35 44/35/28 39/36/36
f 38/34/37 42/37/38 43/26/29
f 36/38/39 42/39/32 37/40/40
f 36/38/41 40/41/42 41/30/33
f 34/42/43 38/43/35 39/44/36
f 32/45/44 38/43/37 33/46/45
f 32/47/46 36/48/39 37/49/40
f 30/50/47 36/48/41 31/51/48
f 29/52/49 33/46/50 34/53/43
f 27/54/51 33/46/45 28/55/52
f 27/56/53 31/51/54 32/57/46
f 25/58/55 31/51/48 26/59/56
f 24/60/57 28/55/58 29/61/49
f 22/62/59 28/55/52 23/63/60
f 22/64/61 26/59/62 27/65/53
f 20/66/63 26/59/56 21/67/64
f 15/68/10 23/63/65 24/69/57
f 17/11/13 23/63/60 16/12/13
f 17/70/15 21/67/66 22/71/61
f 19/16/18 21/67/64 18/17/18
f 53/8/9 16/12/67 15/9/10
f 53/8/12 52/21/22 17/11/13
f 51/13/14 18/17/15 17/14/15
f 51/13/17 50/25/26 19/16/18
f 48/18/19 53/8/9 54/19/11
f 48/18/21 47/29/30 52/21/22
f 46/22/23 51/13/14 52/23/16
f 46/22/25 45/33/34 50/25/26
f 43/26/27 48/18/19 49/27/20
f 43/26/29 42/37/38 47/29/30
f 41/30/31 46/22/23 47/31/24
f 41/30/33 40/41/42 45/33/34
f 38/34/35 43/26/27 44/35/28
f 38/34/37 37/72/68 42/37/38
f 36/38/39 41/30/31 42/39/32
f 36/38/41 35/73/41 40/41/42
f 34/42/43 33/46/50 38/43/35
f 32/45/44 37/74/68 38/43/37
f 32/47/46 31/51/54 36/48/39
f 30/50/47 35/75/41 36/48/41
f 29/52/49 28/55/58 33/46/50
f 27/54/51 32/45/44 33/46/45
f 27/56/53 26/59/62 31/51/54
f 25/58/55 30/50/47 31/51/48
f 24/60/57 23/63/65 28/55/58
f 22/62/59 27/54/51 28/55/52
f 22/64/61 21/67/66 26/59/62
f 20/66/63 25/58/55 26/59/56
f 15/68/10 16/12/67 23/63/65
f 17/11/13 22/62/59 23/63/60
f 17/70/15 18/17/15 21/67/66
f 19/16/18 20/66/63 21/67/64
f 45/33/69 62/25/69 50/25/69
f 30/50/69 57/58/69 58/50/69
f 45/33/69 60/41/69 61/33/69
f 20/66/69 57/58/69 25/58/69
f 40/41/69 59/73/70 60/41/69
f 19/16/69 56/66/69 20/66/69
f 50/25/69 55/16/69 19/16/69
f 35/75/69 58/50/69 59/75/70
f 87/76/71 85/77/71 67/76/71
f 88/78/72 86/79/73 64/78/73
f 89/80/74 67/81/75 66/80/76
f 88/82/77 63/83/78 90/83/79
f 90/84/79 68/85/80 91/85/81
f 89/86/74 65/87/82 92/87/83
f 85/88/71 68/89/71 67/88/71
f 86/90/73 65/91/73 64/90/73
f 60/92/84 75/93/85 61/93/85
f 55/94/86 76/95/87 69/94/88
f 56/96/89 69/94/88 70/96/90
f 57/97/91 72/98/92 58/98/93
f 59/99/94 74/92/95 60/92/84
f 62/95/96 75/93/85 76/95/87
f 57/97/91 70/96/90 71/97/91
f 58/98/93 73/100/97 59/100/94
f 34/91/98 80/90/99 29/90/99
f 49/88/100 83/89/101 78/88/100
f 39/86/102 84/87/103 34/87/98
f 54/85/104 82/84/105 83/85/101
f 15/83/106 79/82/107 82/83/105
f 44/81/108 81/80/109 39/80/102
f 24/78/110 80/79/99 79/78/107
f 49/77/100 77/76/111 44/76/108
f 80/90/112 92/91/83 86/90/113
f 78/88/114 91/89/81 85/88/115
f 84/87/103 89/86/74 92/87/83
f 83/85/101 90/84/79 91/85/81
f 79/82/107 90/83/79 82/83/105
f 77/81/111 89/80/74 81/80/109
f 80/79/112 88/78/77 79/78/107
f 78/77/114 87/76/116 77/76/111
f 63/84/117 67/88/117 68/89/117
f 66/80/117 64/90/117 65/91/117
f 45/33/69 61/33/69 62/25/69
f 30/50/69 25/58/69 57/58/69
f 45/33/69 40/41/69 60/41/69
f 20/66/69 56/66/69 57/58/69
f 40/41/69 35/73/69 59/73/70
f 19/16/69 55/16/69 56/66/69
f 50/25/69 62/25/69 55/16/69
f 35/75/69 30/50/69 58/50/69
f 89/80/74 87/81/116 67/81/75
f 88/82/77 64/82/118 63/83/78
f 90/84/79 63/84/78 68/85/80
f 89/86/74 66/86/76 65/87/82
f 85/88/71 91/89/71 68/89/71
f 86/90/73 92/91/119 65/91/73
f 60/92/84 74/92/95 75/93/85
f 55/94/86 62/95/96 76/95/87
f 56/96/89 55/94/86 69/94/88
f 57/97/91 71/97/91 72/98/92
f 59/99/94 73/99/97 74/92/95
f 62/95/96 61/93/85 75/93/85
f 57/97/91 56/96/89 70/96/90
f 58/98/93 72/98/92 73/100/97
f 34/91/98 84/91/103 80/90/99
f 49/88/100 54/89/104 83/89/101
f 39/86/102 81/86/109 84/87/103
f 54/85/104 15/84/106 82/84/105
f 15/83/106 24/82/110 79/82/107
f 44/81/108 77/81/111 81/80/109
f 24/78/110 29/79/99 80/79/99
f 49/77/100 78/77/100 77/76/111
f 80/90/112 84/91/103 92/91/83
f 78/88/114 83/89/101 91/89/81
f 84/87/103 81/86/109 89/86/74
f 83/85/101 82/84/105 90/84/79
f 79/82/107 88/82/77 90/83/79
f 77/81/111 87/81/116 89/80/74
f 80/79/112 86/79/113 88/78/77
f 78/77/114 85/77/115 87/76/116
f 63/84/117 66/80/117 67/88/117
f 66/80/117 63/83/117 64/90/117
o MessengerHolder.001
v -0.000132 6.436637 0.008762
v -0.001251 6.442912 0.006122
v -0.001714 6.445511 -0.000252
v -0.001251 6.442912 -0.006626
v -0.000132 6.436637 -0.009266
v 0.000987 6.430363 -0.006626
v 0.001450 6.427763 -0.000252
v 0.000987 6.430363 0.006122
v -0.899918 6.361283 0.008735
v -0.903358 6.366650 0.006095
v -0.904782 6.368873 -0.000279
v -0.903358 6.366650 -0.006653
v -0.899918 6.361283 -0.009293
v -0.896479 6.355917 -0.006653
v -0.895055 6.353694 -0.000279
v -0.896479 6.355917 0.006095
vn -0.0842 0.9964 -0.0000
vn -0.0671 0.7916 0.6074
vn -0.0586 0.6947 0.7169
vn -0.0585 0.6947 -0.7169
vn -0.0112 0.1314 -0.9913
vn -0.0671 0.7916 -0.6074
vn 0.0594 -0.7173 -0.6942
vn 0.0827 -0.9966 -0.0000
vn 0.0568 -0.6816 -0.7295
vn 0.0017 -0.0228 0.9997
vn 0.0567 -0.6817 0.7295
vn 0.0593 -0.7173 0.6942
vn -0.0113 0.1313 0.9913
vn -0.0846 0.9964 -0.0000
vn 0.0018 -0.0227 -0.9997
vn 0.0823 -0.9966 -0.0000
vt 0.975514 0.004283
vt 0.976000 0.005093
vt 0.973371 0.002583
vt 0.972472 0.002294
vt 0.974174 0.011647
vt 0.974914 0.011060
vt 0.976490 0.007784
vt 0.976321 0.008714
vt 0.976321 0.005945
vt 0.976490 0.006874
vt 0.974914 0.003599
vt 0.974174 0.003012
vt 0.972472 0.012365
vt 0.973371 0.012076
vt 0.976000 0.009566
vt 0.975514 0.010376
s 1
usemtl Catenary
f 95/101/120 102/102/121 94/102/122
f 96/103/123 105/104/124 104/103/125
f 98/105/126 107/106/127 106/105/128
f 93/107/129 108/108/130 100/108/131
f 94/109/122 101/110/132 93/110/129
f 95/111/120 104/112/125 103/111/133
f 97/113/134 106/114/128 105/113/124
f 100/115/131 107/116/127 99/116/135
f 95/101/120 103/101/133 102/102/121
f 96/103/123 97/104/134 105/104/124
f 98/105/126 99/106/135 107/106/127
f 93/107/129 101/107/132 108/108/130
f 94/109/122 102/109/121 101/110/132
f 95/111/120 96/112/123 104/112/125
f 97/113/134 98/114/126 106/114/128
f 100/115/131 108/115/130 107/116/127
