# Blender 5.1.2
# www.blender.org
mtllib intermediate_middle_dual.mtl
o HalfWireArmMiddleInnerDual
g intermediate_middle_dual
v 0.008433 6.000000 0.006696
v -0.689469 6.301972 0.006697
v -0.332567 6.200000 0.006696
v 0.026435 6.019967 0.006696
v -0.682567 6.329857 0.006697
v -0.316918 6.223782 0.006696
v 0.026435 6.000000 0.006696
v -0.332567 6.200000 0.002696
v -0.689469 6.301972 0.002697
v 0.008433 6.000000 0.002696
v -0.316918 6.223782 0.002696
v -0.682567 6.329857 0.002697
v 0.026435 6.019967 0.002696
v 0.026435 6.000000 0.002696
v -0.724470 6.301971 -0.002303
v -0.717571 6.329857 -0.002303
v -0.717571 6.329857 -0.006303
v -0.724472 6.301972 -0.006303
v -0.008568 6.000000 -0.006304
v -0.008568 6.019967 -0.006304
v -0.351922 6.223782 -0.006304
v -0.026571 6.000000 -0.006304
v -0.367571 6.200000 -0.006304
v -0.008568 6.000000 -0.002304
v -0.351922 6.223782 -0.002304
v -0.008568 6.019967 -0.002304
v -0.367571 6.200000 -0.002304
v -0.026571 6.000000 -0.002304
vn -0.0000 -0.0000 1.0000
vn 0.5104 0.8599 -0.0000
vn -0.5059 -0.8626 -0.0000
vn -0.9707 0.2402 -0.0000
vn 0.2786 0.9604 -0.0000
vn -0.2747 -0.9615 -0.0000
vn 1.0000 -0.0000 -0.0000
vn -0.0000 -0.0000 -1.0000
vn -0.2747 -0.9615 0.0001
vn -0.9707 0.2402 0.0001
vn -0.9707 0.2402 0.0006
vt 0.976897 0.007160
vt 0.983131 0.003687
vt 0.977168 0.007573
vt 0.983131 0.004034
vt 0.982818 0.003687
vt 0.970819 0.009415
vt 0.970699 0.008931
vt 0.982523 0.003687
vt 0.982523 0.004034
vt 0.970091 0.008931
vt 0.976289 0.007160
vt 0.976560 0.007573
vt 0.970211 0.009415
vt 0.982210 0.003687
vt 0.970091 0.008931
s 1
usemtl Catenary
f 3/1/1 7/2/1 6/3/1
f 13/4/2 6/3/2 4/4/2
f 8/1/3 1/5/3 3/1/3
f 12/6/4 2/7/4 5/6/4
f 11/3/5 5/6/5 6/3/5
f 9/7/6 3/1/6 2/7/6
f 14/2/7 4/4/7 7/2/7
f 11/3/8 14/2/8 8/1/8
f 19/8/7 26/9/7 24/8/7
f 15/10/9 23/11/6 27/11/6
f 21/12/5 16/13/5 25/12/5
f 17/13/10 15/10/11 16/13/4
f 23/11/3 28/14/3 27/11/3
f 20/9/2 25/12/2 26/9/2
f 21/12/8 23/11/8 17/13/8
f 27/11/1 25/12/1 15/10/1
f 5/6/1 2/7/1 3/1/1
f 3/1/1 1/5/1 7/2/1
f 7/2/1 4/4/1 6/3/1
f 6/3/1 5/6/1 3/1/1
f 13/4/2 11/3/2 6/3/2
f 8/1/3 10/5/3 1/5/3
f 12/6/4 9/7/4 2/7/4
f 11/3/5 12/6/5 5/6/5
f 9/7/6 8/1/6 3/1/6
f 14/2/7 13/4/7 4/4/7
f 8/1/8 9/7/8 12/6/8
f 11/3/8 13/4/8 14/2/8
f 14/2/8 10/5/8 8/1/8
f 8/1/8 12/6/8 11/3/8
f 19/8/7 20/9/7 26/9/7
f 15/10/9 18/15/9 23/11/6
f 21/12/5 17/13/5 16/13/5
f 17/13/10 18/15/11 15/10/11
f 23/11/3 22/14/3 28/14/3
f 20/9/2 21/12/2 25/12/2
f 21/12/8 20/9/8 19/8/8
f 19/8/8 22/14/8 23/11/8
f 23/11/8 18/15/8 17/13/8
f 21/12/8 19/8/8 23/11/8
f 27/11/1 28/14/1 24/8/1
f 24/8/1 26/9/1 25/12/1
f 25/12/1 16/13/1 15/10/1
f 27/11/1 24/8/1 25/12/1
o AngledInsulator
v -1.615292 6.518121 0.008746
v -1.629746 6.521304 0.102362
v -1.704063 6.537323 0.022523
v -1.713535 6.539365 0.102362
v -1.787853 6.555385 0.038935
v -1.793691 6.528298 0.027457
v -1.728435 6.470243 0.073072
v -1.707191 6.522813 0.016375
v -1.644645 6.452181 0.073072
v -1.616633 6.511901 0.006111
v -1.796110 6.517078 -0.000252
v -1.734607 6.441611 0.002362
v -1.708486 6.516803 0.001532
v -1.650817 6.423549 0.002362
v -1.617188 6.509325 -0.000252
v -1.793691 6.528298 -0.027961
v -1.728435 6.470243 -0.068349
v -1.707021 6.523599 -0.014596
v -1.644645 6.452181 -0.068349
v -1.616633 6.511901 -0.006614
v -1.787853 6.555385 -0.039439
v -1.713535 6.539365 -0.097638
v -1.704063 6.537323 -0.020487
v -1.629746 6.521304 -0.097638
v -1.615292 6.518121 -0.009250
v -1.782014 6.582472 -0.027961
v -1.698636 6.608489 -0.068349
v -1.701105 6.551048 -0.014596
v -1.614846 6.590427 -0.068349
v -1.613952 6.524340 -0.006614
v -1.779595 6.593692 -0.000252
v -1.692464 6.637120 0.002362
v -1.699640 6.557844 0.001532
v -1.608674 6.619059 0.002362
v -1.613396 6.526917 -0.000252
v -1.782014 6.582472 0.027457
v -1.698636 6.608489 0.073072
v -1.700935 6.551834 0.016375
v -1.614846 6.590427 0.073072
v -1.613952 6.524340 0.006111
v -1.787831 6.555487 0.011720
v -1.789614 6.547211 0.008214
v -1.790353 6.543783 -0.000252
v -1.789614 6.547211 -0.008718
v -1.787831 6.555487 -0.012224
v -1.786047 6.563762 -0.008718
v -1.785308 6.567190 -0.000252
v -1.786047 6.563762 0.008214
v -0.648487 6.301192 0.003614
v -0.650316 6.294751 0.002482
v -0.650316 6.294751 -0.002986
v -0.648487 6.301192 -0.004118
v -0.646659 6.307634 -0.002986
v -0.646659 6.307634 0.002482
v -2.058688 6.616666 0.011720
v -2.061000 6.608522 0.008214
v -2.061957 6.605149 -0.000252
v -2.061000 6.608522 -0.008718
v -2.058688 6.616666 -0.012224
v -2.056376 6.624810 -0.008718
v -2.055418 6.628184 -0.000252
v -2.056376 6.624810 0.008214
v -0.727022 6.330034 -0.006614
v -0.726302 6.332569 -0.000252
v -0.730497 6.317792 0.006110
v -0.731217 6.315258 -0.000252
v -0.728760 6.323913 -0.009250
v -0.728760 6.323913 0.008746
v -0.727022 6.330034 0.006110
v -0.730497 6.317792 -0.006614
v -0.725258 6.329949 -0.000252
v -0.728916 6.317065 -0.000252
v -0.725258 6.329949 -0.002986
v -0.728915 6.317065 0.002482
v -0.727087 6.323507 -0.004118
v -0.727087 6.323507 0.003614
v -0.725258 6.329949 0.002482
v -0.728915 6.317065 -0.002986
vn 0.9887 -0.0997 0.1116
vn 0.9655 -0.2082 0.1562
vn 0.9890 -0.0985 0.1105
vn -0.6041 0.6293 0.4889
vn -0.7079 0.1526 0.6896
vn 0.9884 -0.1258 0.0856
vn 0.9704 -0.2092 0.1205
vn 0.9884 -0.1254 0.0852
vn -0.5072 0.6654 0.5477
vn -0.6262 0.1350 0.7679
vn 0.9987 -0.0512 0.0008
vn 0.9987 -0.0511 -0.0017
vn -0.5583 0.8296 0.0010
vn -0.6038 0.6306 0.4875
vn 0.9959 -0.0902 0.0002
vn 0.9959 -0.0906 -0.0010
vn -0.4462 0.8949 0.0042
vn -0.5060 0.6706 0.5424
vn 0.9888 -0.0943 -0.1153
vn 0.9886 -0.0956 -0.1167
vn -0.5955 0.6349 -0.4921
vn -0.5602 0.8283 -0.0052
vn 0.9885 -0.1235 -0.0869
vn 0.9881 -0.1254 -0.0888
vn -0.4810 0.6774 -0.5566
vn -0.4459 0.8951 -0.0066
vn 0.9641 -0.2078 -0.1651
vn 0.9641 -0.2079 -0.1651
vn -0.6966 0.1502 -0.7016
vn -0.5971 0.6271 -0.5003
vn 0.9699 -0.2091 -0.1245
vn 0.9699 -0.2091 -0.1246
vn -0.5942 0.1281 -0.7940
vn -0.4820 0.6721 -0.5621
vn 0.9401 -0.3203 -0.1167
vn -0.8024 -0.3254 -0.5003
vn -0.8042 -0.3332 -0.4921
vn 0.9520 -0.2928 -0.0888
vn -0.7161 -0.4138 -0.5621
vn -0.7173 -0.4191 -0.5566
vn 0.9310 -0.3650 -0.0017
vn 0.9398 -0.3215 -0.1154
vn -0.8517 -0.5240 -0.0052
vn -0.8505 -0.5260 0.0010
vn 0.9448 -0.3277 -0.0010
vn 0.9516 -0.2947 -0.0869
vn -0.7751 -0.6319 -0.0066
vn -0.7752 -0.6316 0.0042
vn 0.9417 -0.3178 0.1105
vn 0.9310 -0.3650 0.0008
vn -0.8100 -0.3259 0.4875
vn -0.8097 -0.3246 0.4889
vn 0.9523 -0.2929 0.0852
vn 0.9446 -0.3281 0.0002
vn -0.7373 -0.4026 0.5424
vn -0.7363 -0.3974 0.5477
vn 0.9420 -0.3165 0.1118
vn 0.9524 -0.2926 0.0856
vn 0.9656 -0.2081 0.1562
vn -0.6963 0.1501 -0.7019
vn -0.9775 0.2107 -0.0000
vn -0.9776 0.2107 -0.0000
vn 0.2731 0.9620 -0.0000
vn -0.2731 -0.9620 0.0003
vn -0.2731 -0.9620 -0.0000
vn 0.5733 -0.1619 -0.8032
vn 0.0455 0.1604 -0.9860
vn -0.0000 -0.0000 -1.0000
vn 0.4693 -0.6621 0.5844
vn -0.0000 -0.0000 1.0000
vn 0.5733 -0.1619 0.8031
vn 0.0455 0.1604 0.9860
vn 0.7294 0.3425 0.5922
vn -0.0455 -0.1604 -0.9860
vn 0.4693 -0.6621 -0.5844
vn 0.1555 0.6886 -0.7083
vn 0.2203 0.9754 -0.0000
vn -0.0005 -0.0023 1.0000
vn 0.1544 0.6837 0.7133
vn -0.0029 -0.0129 0.9999
vn -0.1561 -0.6909 0.7059
vn -0.1574 -0.6966 0.7000
vn -0.2204 -0.9754 -0.0000
vn -0.1574 -0.6966 -0.7000
vn -0.1561 -0.6909 -0.7059
vn -0.0005 -0.0023 -1.0000
vn 0.1544 0.6837 -0.7133
vn 0.1555 0.6886 0.7083
vn -0.0029 -0.0129 -0.9999
vn -0.1512 -0.6903 -0.7075
vn -0.2140 -0.9768 -0.0000
vn 0.2140 0.9768 -0.0000
vn 0.5938 0.4517 0.6659
vn 0.0002 0.0008 -1.0000
vn 0.3118 -0.6863 -0.6570
vn 0.1514 0.6911 0.7067
vn 0.5070 -0.1339 0.8515
vn 0.0002 0.0008 1.0000
vn 0.3118 -0.6863 0.6570
vn 0.1514 0.6911 -0.7067
vn 0.5070 -0.1339 -0.8515
vn -0.1512 -0.6903 0.7075
vn 0.5938 0.4517 -0.6659
vn 0.5109 -0.8596 -0.0000
vn 0.6176 -0.7865 -0.0000
vn 0.8700 0.4930 -0.0000
vn 0.9289 0.3703 -0.0000
vn 0.7294 0.3425 -0.5922
vn 0.9620 -0.2731 -0.0000
vn -0.0455 -0.1604 0.9860
vn -0.2731 -0.9620 -0.0003
vt 0.959703 0.009387
vt 0.960882 0.008099
vt 0.960684 0.009187
vt 0.957954 0.007566
vt 0.960035 0.007566
vt 0.962915 0.005744
vt 0.961736 0.007033
vt 0.961934 0.005945
vt 0.964664 0.007566
vt 0.962584 0.007566
vt 0.958751 0.010974
vt 0.960309 0.010184
vt 0.959740 0.011133
vt 0.957756 0.008654
vt 0.963867 0.004157
vt 0.962309 0.004947
vt 0.962878 0.003998
vt 0.964862 0.006477
vt 0.957301 0.012125
vt 0.959037 0.011934
vt 0.958171 0.012621
vt 0.957187 0.009603
vt 0.965317 0.003006
vt 0.963581 0.003197
vt 0.964447 0.002510
vt 0.965431 0.005529
vt 0.955539 0.012691
vt 0.957231 0.013124
vt 0.956177 0.013462
vt 0.956321 0.010290
vt 0.967079 0.002440
vt 0.965388 0.002008
vt 0.966441 0.001669
vt 0.966297 0.004841
vt 0.957231 0.002008
vt 0.955539 0.002440
vt 0.956177 0.001669
vt 0.956321 0.004841
vt 0.957301 0.003006
vt 0.965388 0.013124
vt 0.967079 0.012691
vt 0.966441 0.013462
vt 0.966297 0.010290
vt 0.965317 0.012125
vt 0.959037 0.003197
vt 0.958171 0.002510
vt 0.957187 0.005529
vt 0.958751 0.004157
vt 0.963581 0.011934
vt 0.964447 0.012621
vt 0.965431 0.009603
vt 0.963867 0.010974
vt 0.960309 0.004947
vt 0.959740 0.003998
vt 0.957756 0.006477
vt 0.959703 0.005744
vt 0.962309 0.010184
vt 0.962878 0.011133
vt 0.964862 0.008654
vt 0.962915 0.009387
vt 0.960882 0.007033
vt 0.960684 0.005945
vt 0.961736 0.008099
vt 0.961934 0.009187
vt 0.955268 0.010628
vt 0.967350 0.004503
vt 0.955268 0.004503
vt 0.967350 0.010628
vt 0.974174 0.011647
vt 0.974914 0.011060
vt 0.976000 0.005093
vt 0.975514 0.004283
vt 0.972472 0.012365
vt 0.973371 0.012076
vt 0.976321 0.005945
vt 0.976490 0.006874
vt 0.976490 0.007784
vt 0.976321 0.008714
vt 0.972472 0.002294
vt 0.973371 0.002583
vt 0.975514 0.010376
vt 0.976000 0.009566
vt 0.974914 0.003599
vt 0.974174 0.003012
vt 0.977467 0.004841
vt 0.976600 0.005529
vt 0.975833 0.007566
vt 0.976031 0.006477
vt 0.976031 0.008654
vt 0.976600 0.009603
vt 0.977467 0.010290
vt 0.978520 0.004503
vt 0.978520 0.010628
s 1
usemtl Catenary
f 67/16/12 29/17/13 68/18/14
f 67/16/15 31/19/16 30/20/16
f 65/21/17 31/22/18 66/23/19
f 65/21/20 33/24/21 32/25/21
f 62/26/22 68/27/14 63/28/23
f 62/26/24 66/29/25 67/16/15
f 60/30/26 66/31/19 61/32/27
f 60/30/28 64/33/29 65/21/20
f 57/34/30 63/35/23 58/36/31
f 57/34/32 61/37/33 62/26/24
f 55/38/34 61/39/27 56/40/35
f 55/38/36 59/41/37 60/30/28
f 52/42/38 58/43/31 53/44/39
f 52/42/40 56/45/41 57/34/32
f 50/46/42 56/47/35 51/48/43
f 50/46/44 54/49/45 55/38/36
f 48/50/46 52/51/38 53/52/39
f 46/53/47 52/51/40 47/54/48
f 46/55/49 50/56/42 51/57/43
f 44/58/50 50/56/44 45/59/51
f 43/60/52 47/54/53 48/61/46
f 41/62/54 47/54/48 42/63/55
f 41/64/56 45/59/57 46/65/49
f 39/66/58 45/59/51 40/67/59
f 38/68/60 42/63/61 43/69/52
f 36/70/62 42/63/55 37/71/63
f 36/72/64 40/67/65 41/73/56
f 34/74/66 40/67/59 35/75/67
f 29/76/13 37/71/68 38/77/60
f 31/19/16 37/71/63 30/20/16
f 31/78/18 35/75/69 36/79/64
f 33/24/21 35/75/67 32/25/21
f 67/16/12 30/20/70 29/17/13
f 67/16/15 66/29/25 31/19/16
f 65/21/17 32/25/18 31/22/18
f 65/21/20 64/33/29 33/24/21
f 62/26/22 67/16/12 68/27/14
f 62/26/24 61/37/33 66/29/25
f 60/30/26 65/21/17 66/31/19
f 60/30/28 59/41/37 64/33/29
f 57/34/30 62/26/22 63/35/23
f 57/34/32 56/45/41 61/37/33
f 55/38/34 60/30/26 61/39/27
f 55/38/36 54/49/45 59/41/37
f 52/42/38 57/34/30 58/43/31
f 52/42/40 51/80/71 56/45/41
f 50/46/42 55/38/34 56/47/35
f 50/46/44 49/81/44 54/49/45
f 48/50/46 47/54/53 52/51/38
f 46/53/47 51/82/71 52/51/40
f 46/55/49 45/59/57 50/56/42
f 44/58/50 49/83/44 50/56/44
f 43/60/52 42/63/61 47/54/53
f 41/62/54 46/53/47 47/54/48
f 41/64/56 40/67/65 45/59/57
f 39/66/58 44/58/50 45/59/51
f 38/68/60 37/71/68 42/63/61
f 36/70/62 41/62/54 42/63/55
f 36/72/64 35/75/69 40/67/65
f 34/74/66 39/66/58 40/67/59
f 29/76/13 30/20/70 37/71/68
f 31/19/16 36/70/62 37/71/63
f 31/78/18 32/25/18 35/75/69
f 33/24/21 34/74/66 35/75/67
f 59/41/72 76/33/72 64/33/72
f 44/58/72 71/66/72 72/58/72
f 59/41/72 74/49/72 75/41/72
f 34/74/72 71/66/72 39/66/72
f 54/49/72 73/81/73 74/49/72
f 33/24/72 70/74/72 34/74/72
f 64/33/72 69/24/72 33/24/72
f 49/83/72 72/58/72 73/83/73
f 101/84/74 99/85/74 81/84/74
f 102/86/75 100/87/76 78/86/76
f 103/88/77 81/89/78 80/88/79
f 102/90/80 77/91/81 104/91/82
f 104/92/82 82/93/83 105/93/84
f 103/94/77 79/95/85 106/95/86
f 99/96/74 82/97/74 81/96/74
f 100/98/76 79/99/76 78/98/76
f 74/100/87 89/101/88 75/101/88
f 69/102/89 90/103/90 83/102/91
f 70/104/92 83/102/91 84/104/93
f 71/105/94 86/106/95 72/106/96
f 73/107/97 88/100/98 74/100/87
f 76/103/99 89/101/88 90/103/90
f 71/105/94 84/104/93 85/105/94
f 72/106/96 87/108/100 73/108/97
f 48/99/101 94/98/102 43/98/102
f 63/96/103 97/97/104 92/96/103
f 53/94/105 98/95/106 48/95/101
f 68/93/107 96/92/108 97/93/104
f 29/91/109 93/90/110 96/91/108
f 58/89/111 95/88/112 53/88/105
f 38/86/113 94/87/102 93/86/110
f 63/85/103 91/84/114 58/84/111
f 94/98/115 106/99/86 100/98/116
f 92/96/117 105/97/84 99/96/118
f 98/95/106 103/94/77 106/95/86
f 97/93/104 104/92/82 105/93/84
f 93/90/110 104/91/82 96/91/108
f 91/89/114 103/88/77 95/88/112
f 94/87/115 102/86/80 93/86/110
f 92/85/117 101/84/119 91/84/114
f 77/92/120 81/96/120 82/97/120
f 80/88/120 78/98/120 79/99/120
f 59/41/72 75/41/72 76/33/72
f 44/58/72 39/66/72 71/66/72
f 59/41/72 54/49/72 74/49/72
f 34/74/72 70/74/72 71/66/72
f 54/49/72 49/81/72 73/81/73
f 33/24/72 69/24/72 70/74/72
f 64/33/72 76/33/72 69/24/72
f 49/83/72 44/58/72 72/58/72
f 103/88/77 101/89/119 81/89/78
f 102/90/80 78/90/121 77/91/81
f 104/92/82 77/92/81 82/93/83
f 103/94/77 80/94/79 79/95/85
f 99/96/74 105/97/74 82/97/74
f 100/98/76 106/99/122 79/99/76
f 74/100/87 88/100/98 89/101/88
f 69/102/89 76/103/99 90/103/90
f 70/104/92 69/102/89 83/102/91
f 71/105/94 85/105/94 86/106/95
f 73/107/97 87/107/100 88/100/98
f 76/103/99 75/101/88 89/101/88
f 71/105/94 70/104/92 84/104/93
f 72/106/96 86/106/95 87/108/100
f 48/99/101 98/99/106 94/98/102
f 63/96/103 68/97/107 97/97/104
f 53/94/105 95/94/112 98/95/106
f 68/93/107 29/92/109 96/92/108
f 29/91/109 38/90/113 93/90/110
f 58/89/111 91/89/114 95/88/112
f 38/86/113 43/87/102 94/87/102
f 63/85/103 92/85/103 91/84/114
f 94/98/115 98/99/106 106/99/86
f 92/96/117 97/97/104 105/97/84
f 98/95/106 95/94/112 103/94/77
f 97/93/104 96/92/108 104/92/82
f 93/90/110 102/90/80 104/91/82
f 91/89/114 101/89/119 103/88/77
f 94/87/115 100/87/116 102/86/80
f 92/85/117 99/85/118 101/84/119
f 77/92/120 80/88/120 81/96/120
f 80/88/120 77/91/120 78/98/120
o MessengerHolder
v -0.000132 6.436637 0.008762
v -0.001251 6.442912 0.006122
v -0.001714 6.445511 -0.000252
v -0.001251 6.442912 -0.006626
v -0.000132 6.436637 -0.009266
v 0.000987 6.430363 -0.006626
v 0.001450 6.427763 -0.000252
v 0.000987 6.430363 0.006122
v -0.899918 6.361283 0.008735
v -0.903358 6.366650 0.006095
v -0.904782 6.368873 -0.000279
v -0.903358 6.366650 -0.006653
v -0.899918 6.361283 -0.009293
v -0.896479 6.355917 -0.006653
v -0.895055 6.353694 -0.000279
v -0.896479 6.355917 0.006095
vn -0.0842 0.9964 -0.0000
vn -0.0671 0.7916 0.6074
vn -0.0586 0.6947 0.7169
vn -0.0585 0.6947 -0.7169
vn -0.0112 0.1314 -0.9913
vn -0.0671 0.7916 -0.6074
vn 0.0594 -0.7173 -0.6942
vn 0.0827 -0.9966 -0.0000
vn 0.0568 -0.6816 -0.7295
vn 0.0017 -0.0228 0.9997
vn 0.0567 -0.6817 0.7295
vn 0.0593 -0.7173 0.6942
vn -0.0113 0.1313 0.9913
vn -0.0846 0.9964 -0.0000
vn 0.0018 -0.0227 -0.9997
vn 0.0823 -0.9966 -0.0000
vt 0.975514 0.004283
vt 0.976000 0.005093
vt 0.973371 0.002583
vt 0.972472 0.002294
vt 0.974174 0.011647
vt 0.974914 0.011060
vt 0.976490 0.007784
vt 0.976321 0.008714
vt 0.976321 0.005945
vt 0.976490 0.006874
vt 0.974914 0.003599
vt 0.974174 0.003012
vt 0.972472 0.012365
vt 0.973371 0.012076
vt 0.976000 0.009566
vt 0.975514 0.010376
s 1
usemtl Catenary
f 109/109/123 116/110/124 108/110/125
f 110/111/126 119/112/127 118/111/128
f 112/113/129 121/114/130 120/113/131
f 107/115/132 122/116/133 114/116/134
f 108/117/125 115/118/135 107/118/132
f 109/119/123 118/120/128 117/119/136
f 111/121/137 120/122/131 119/121/127
f 114/123/134 121/124/130 113/124/138
f 109/109/123 117/109/136 116/110/124
f 110/111/126 111/112/137 119/112/127
f 112/113/129 113/114/138 121/114/130
f 107/115/132 115/115/135 122/116/133
f 108/117/125 116/117/124 115/118/135
f 109/119/123 110/120/126 118/120/128
f 111/121/137 112/122/129 120/122/131
f 114/123/134 122/123/133 121/124/130
