# Blender 5.1.2
# www.blender.org
mtllib intermediate_inner_dual.mtl
o HalfWireArmInnerDual
g intermediate_inner_dual
v -0.291567 6.000000 0.006696
v -0.989469 6.301972 0.006697
v -0.632567 6.200000 0.006696
v -0.273565 6.019967 0.006696
v -0.982567 6.329857 0.006697
v -0.616918 6.223782 0.006696
v -0.273565 6.000000 0.006696
v -0.632567 6.200000 0.002696
v -0.989469 6.301972 0.002697
v -0.291567 6.000000 0.002696
v -0.616918 6.223782 0.002696
v -0.982567 6.329857 0.002697
v -0.273565 6.019967 0.002696
v -0.273565 6.000000 0.002696
v -1.024470 6.301971 -0.002303
v -1.017571 6.329857 -0.002303
v -1.017571 6.329857 -0.006303
v -1.024472 6.301972 -0.006303
v -0.308568 6.000000 -0.006304
v -0.308568 6.019967 -0.006304
v -0.651922 6.223782 -0.006304
v -0.326571 6.000000 -0.006304
v -0.667571 6.200000 -0.006304
v -0.308568 6.000000 -0.002304
v -0.651922 6.223782 -0.002304
v -0.308568 6.019967 -0.002304
v -0.667571 6.200000 -0.002304
v -0.326571 6.000000 -0.002304
vn -0.0000 -0.0000 1.0000
vn 0.5104 0.8599 -0.0000
vn -0.5059 -0.8626 -0.0000
vn -0.9707 0.2402 -0.0000
vn 0.2786 0.9604 -0.0000
vn -0.2747 -0.9615 -0.0000
vn 1.0000 -0.0000 -0.0000
vn -0.0000 -0.0000 -1.0000
vn -0.2747 -0.9615 0.0001
vn -0.9707 0.2402 0.0001
vn -0.9707 0.2402 0.0006
vt 0.976897 0.007160
vt 0.983131 0.003687
vt 0.977168 0.007573
vt 0.983131 0.004034
vt 0.982818 0.003687
vt 0.970819 0.009415
vt 0.970699 0.008931
vt 0.982523 0.003687
vt 0.982523 0.004034
vt 0.970091 0.008931
vt 0.976289 0.007160
vt 0.976560 0.007573
vt 0.970211 0.009415
vt 0.982210 0.003687
vt 0.970091 0.008931
s 1
usemtl Catenary
f 3/1/1 7/2/1 6/3/1
f 13/4/2 6/3/2 4/4/2
f 8/1/3 1/5/3 3/1/3
f 12/6/4 2/7/4 5/6/4
f 11/3/5 5/6/5 6/3/5
f 9/7/6 3/1/6 2/7/6
f 14/2/7 4/4/7 7/2/7
f 11/3/8 14/2/8 8/1/8
f 19/8/7 26/9/7 24/8/7
f 15/10/9 23/11/6 27/11/6
f 21/12/5 16/13/5 25/12/5
f 17/13/10 15/10/11 16/13/4
f 23/11/3 28/14/3 27/11/3
f 20/9/2 25/12/2 26/9/2
f 21/12/8 23/11/8 17/13/8
f 27/11/1 25/12/1 15/10/1
f 5/6/1 2/7/1 3/1/1
f 3/1/1 1/5/1 7/2/1
f 7/2/1 4/4/1 6/3/1
f 6/3/1 5/6/1 3/1/1
f 13/4/2 11/3/2 6/3/2
f 8/1/3 10/5/3 1/5/3
f 12/6/4 9/7/4 2/7/4
f 11/3/5 12/6/5 5/6/5
f 9/7/6 8/1/6 3/1/6
f 14/2/7 13/4/7 4/4/7
f 8/1/8 9/7/8 12/6/8
f 11/3/8 13/4/8 14/2/8
f 14/2/8 10/5/8 8/1/8
f 8/1/8 12/6/8 11/3/8
f 19/8/7 20/9/7 26/9/7
f 15/10/9 18/15/9 23/11/6
f 21/12/5 17/13/5 16/13/5
f 17/13/10 18/15/11 15/10/11
f 23/11/3 22/14/3 28/14/3
f 20/9/2 21/12/2 25/12/2
f 21/12/8 20/9/8 19/8/8
f 19/8/8 22/14/8 23/11/8
f 23/11/8 18/15/8 17/13/8
f 21/12/8 19/8/8 23/11/8
f 27/11/1 28/14/1 24/8/1
f 24/8/1 26/9/1 25/12/1
f 25/12/1 16/13/1 15/10/1
f 27/11/1 24/8/1 25/12/1
o MessengerHolder.002
v -0.300132 6.436639 0.008762
v -0.301182 6.442926 0.006122
v -0.301617 6.445530 -0.000252
v -0.301182 6.442926 -0.006626
v -0.300132 6.436639 -0.009266
v -0.299082 6.430352 -0.006626
v -0.298647 6.427748 -0.000252
v -0.299082 6.430352 0.006122
v -1.200688 6.371125 0.008735
v -1.204069 6.376529 0.006095
v -1.205469 6.378767 -0.000279
v -1.204069 6.376529 -0.006653
v -1.200688 6.371125 -0.009293
v -1.197308 6.365721 -0.006653
v -1.195908 6.363483 -0.000279
v -1.197308 6.365721 0.006095
vn -0.0733 0.9973 -0.0000
vn -0.0585 0.7923 0.6074
vn -0.0510 0.6953 0.7169
vn -0.0509 0.6953 -0.7169
vn -0.0098 0.1315 -0.9913
vn -0.0584 0.7923 -0.6074
vn 0.0515 -0.7179 -0.6942
vn 0.0718 -0.9974 -0.0000
vn 0.0493 -0.6822 -0.7295
vn 0.0015 -0.0228 0.9997
vn 0.0493 -0.6822 0.7295
vn 0.0515 -0.7179 0.6942
vn -0.0098 0.1314 0.9913
vn -0.0737 0.9973 -0.0000
vn 0.0015 -0.0228 -0.9997
vn 0.0714 -0.9974 -0.0000
vt 0.975514 0.004283
vt 0.976000 0.005093
vt 0.973371 0.002583
vt 0.972472 0.002294
vt 0.974174 0.011647
vt 0.974914 0.011060
vt 0.976490 0.007784
vt 0.976321 0.008714
vt 0.976321 0.005945
vt 0.976490 0.006874
vt 0.974914 0.003599
vt 0.974174 0.003012
vt 0.972472 0.012365
vt 0.973371 0.012076
vt 0.976000 0.009566
vt 0.975514 0.010376
s 1
usemtl Catenary
f 31/16/12 38/17/13 30/17/14
f 32/18/15 41/19/16 40/18/17
f 34/20/18 43/21/19 42/20/20
f 29/22/21 44/23/22 36/23/23
f 30/24/14 37/25/24 29/25/21
f 31/26/12 40/27/17 39/26/25
f 33/28/26 42/29/20 41/28/16
f 36/30/23 43/31/19 35/31/27
f 31/16/12 39/16/25 38/17/13
f 32/18/15 33/19/26 41/19/16
f 34/20/18 35/21/27 43/21/19
f 29/22/21 37/22/24 44/23/22
f 30/24/14 38/24/13 37/25/24
f 31/26/12 32/27/15 40/27/17
f 33/28/26 34/29/18 42/29/20
f 36/30/23 44/30/22 43/31/19
o AngledInsulator.004
v -1.625368 6.490236 0.008746
v -1.639613 6.494250 0.102362
v -1.712880 6.514540 0.022523
v -1.722219 6.517126 0.102362
v -1.795485 6.537416 0.038935
v -1.802881 6.510712 0.027457
v -1.741090 6.448980 0.073072
v -1.716842 6.500235 0.016375
v -1.658485 6.426104 0.073072
v -1.627066 6.484104 0.006111
v -1.805944 6.499650 -0.000252
v -1.748907 6.420753 0.002362
v -1.718483 6.494309 0.001532
v -1.666302 6.397877 0.002362
v -1.627770 6.481565 -0.000252
v -1.802881 6.510712 -0.027961
v -1.741090 6.448980 -0.068349
v -1.716627 6.501009 -0.014596
v -1.658485 6.426104 -0.068349
v -1.627066 6.484104 -0.006614
v -1.795485 6.537416 -0.039439
v -1.722219 6.517126 -0.097638
v -1.712880 6.514540 -0.020487
v -1.639613 6.494250 -0.097638
v -1.625368 6.490236 -0.009250
v -1.788090 6.564120 -0.027961
v -1.703347 6.585272 -0.068349
v -1.709133 6.528071 -0.014596
v -1.620742 6.562396 -0.068349
v -1.623670 6.496367 -0.006614
v -1.785027 6.575181 -0.000252
v -1.695530 6.613499 0.002362
v -1.707278 6.534770 0.001532
v -1.612925 6.590623 0.002362
v -1.622967 6.498908 -0.000252
v -1.788090 6.564120 0.027457
v -1.703347 6.585272 0.073072
v -1.708919 6.528845 0.016375
v -1.620742 6.562396 0.073072
v -1.623670 6.496367 0.006111
v -1.795457 6.537516 0.011720
v -1.797717 6.529357 0.008214
v -1.798653 6.525978 -0.000252
v -1.797717 6.529357 -0.008718
v -1.795457 6.537516 -0.012224
v -1.793198 6.545675 -0.008718
v -1.792262 6.549054 -0.000252
v -1.793198 6.545675 0.008214
v -0.948488 6.301192 0.003614
v -0.950316 6.294751 0.002482
v -0.950316 6.294751 -0.002986
v -0.948488 6.301192 -0.004118
v -0.946659 6.307634 -0.002986
v -0.946659 6.307634 0.002482
v -2.067472 6.616666 0.011720
v -2.069784 6.608522 0.008214
v -2.070741 6.605149 -0.000252
v -2.069784 6.608522 -0.008718
v -2.067472 6.616666 -0.012224
v -2.065160 6.624810 -0.008718
v -2.064202 6.628184 -0.000252
v -2.065160 6.624810 0.008214
v -1.027022 6.330034 -0.006614
v -1.026302 6.332569 -0.000252
v -1.030497 6.317792 0.006110
v -1.031217 6.315258 -0.000252
v -1.028760 6.323913 -0.009250
v -1.028760 6.323913 0.008746
v -1.027022 6.330034 0.006110
v -1.030497 6.317792 -0.006614
v -1.025258 6.329949 -0.000252
v -1.028916 6.317065 -0.000252
v -1.025258 6.329949 -0.002986
v -1.028915 6.317065 0.002482
v -1.027087 6.323507 -0.004118
v -1.027087 6.323507 0.003614
v -1.025258 6.329949 0.002482
v -1.028915 6.317065 -0.002986
vn 0.9813 -0.1567 0.1116
vn 0.9519 -0.2637 0.1562
vn 0.9816 -0.1556 0.1105
vn -0.5667 0.6632 0.4889
vn -0.6979 0.1933 0.6896
vn 0.9794 -0.1827 0.0856
vn 0.9567 -0.2649 0.1205
vn 0.9795 -0.1823 0.0852
vn -0.4679 0.6936 0.5477
vn -0.6174 0.1710 0.7679
vn 0.9941 -0.1089 0.0008
vn 0.9941 -0.1088 -0.0017
vn -0.5094 0.8605 0.0010
vn -0.5663 0.6645 0.4875
vn 0.9890 -0.1476 0.0002
vn 0.9890 -0.1480 -0.0010
vn -0.3937 0.9192 0.0042
vn -0.4664 0.6987 0.5424
vn 0.9817 -0.1513 -0.1153
vn 0.9814 -0.1526 -0.1167
vn -0.5578 0.6683 -0.4921
vn -0.5114 0.8593 -0.0052
vn 0.9797 -0.1805 -0.0869
vn 0.9792 -0.1823 -0.0888
vn -0.4410 0.7041 -0.5566
vn -0.3934 0.9193 -0.0066
vn 0.9505 -0.2632 -0.1651
vn 0.9505 -0.2633 -0.1651
vn -0.6868 0.1902 -0.7016
vn -0.5598 0.6606 -0.5003
vn 0.9562 -0.2648 -0.1245
vn 0.9562 -0.2648 -0.1246
vn -0.5858 0.1622 -0.7940
vn -0.4423 0.6988 -0.5621
vn 0.9200 -0.3741 -0.1167
vn -0.8199 -0.2785 -0.5003
vn -0.8222 -0.2861 -0.4921
vn 0.9335 -0.3474 -0.0888
vn -0.7388 -0.3717 -0.5621
vn -0.7404 -0.3769 -0.5566
vn 0.9083 -0.4183 -0.0017
vn 0.9197 -0.3753 -0.1154
vn -0.8806 -0.4739 -0.0052
vn -0.8795 -0.4759 0.0010
vn 0.9242 -0.3818 -0.0010
vn 0.9330 -0.3492 -0.0869
vn -0.8103 -0.5860 -0.0066
vn -0.8105 -0.5858 0.0042
vn 0.9217 -0.3717 0.1105
vn 0.9084 -0.4182 0.0008
vn -0.8275 -0.2785 0.4875
vn -0.8271 -0.2772 0.4889
vn 0.9338 -0.3475 0.0852
vn 0.9241 -0.3822 0.0002
vn -0.7594 -0.3593 0.5424
vn -0.7581 -0.3541 0.5477
vn 0.9221 -0.3705 0.1118
vn 0.9339 -0.3472 0.0856
vn 0.9519 -0.2636 0.1562
vn -0.6865 0.1901 -0.7019
vn -0.9637 0.2669 -0.0000
vn 0.2731 0.9620 -0.0000
vn -0.2731 -0.9620 0.0003
vn -0.2731 -0.9620 -0.0000
vn 0.5733 -0.1619 -0.8032
vn 0.0455 0.1604 -0.9860
vn -0.0000 -0.0000 -1.0000
vn 0.4693 -0.6621 0.5844
vn -0.0000 -0.0000 1.0000
vn 0.5733 -0.1619 0.8031
vn 0.0455 0.1604 0.9860
vn 0.7294 0.3425 0.5922
vn -0.0455 -0.1604 -0.9860
vn 0.4693 -0.6621 -0.5844
vn 0.2794 0.9602 -0.0000
vn 0.1978 0.6797 -0.7063
vn 0.1971 0.6774 0.7087
vn 0.0004 0.0015 1.0000
vn -0.0009 -0.0030 1.0000
vn -0.1973 -0.6782 0.7079
vn -0.1980 -0.6805 0.7055
vn -0.1980 -0.6805 -0.7055
vn -0.2794 -0.9602 -0.0000
vn -0.1973 -0.6782 -0.7079
vn 0.1971 0.6774 -0.7087
vn 0.0004 0.0015 -1.0000
vn 0.1978 0.6797 0.7063
vn -0.0009 -0.0030 -1.0000
vn -0.1898 -0.6809 -0.7073
vn -0.2685 -0.9633 -0.0000
vn 0.2685 0.9633 -0.0000
vn 0.6077 0.4372 0.6630
vn 0.0001 0.0004 -1.0000
vn 0.2927 -0.6919 -0.6600
vn 0.1899 0.6813 0.7069
vn 0.5049 -0.1429 0.8513
vn 0.0001 0.0004 1.0000
vn 0.2927 -0.6919 0.6600
vn 0.1899 0.6813 -0.7069
vn 0.5049 -0.1429 -0.8513
vn -0.1898 -0.6809 0.7073
vn 0.6077 0.4372 -0.6630
vn 0.5109 -0.8596 -0.0000
vn 0.6176 -0.7865 -0.0000
vn 0.8700 0.4930 -0.0000
vn 0.9289 0.3703 -0.0000
vn 0.7294 0.3425 -0.5922
vn 0.9620 -0.2731 -0.0000
vn -0.0455 -0.1604 0.9860
vn -0.2731 -0.9620 -0.0003
vt 0.959703 0.009387
vt 0.960882 0.008099
vt 0.960684 0.009187
vt 0.957954 0.007566
vt 0.960035 0.007566
vt 0.962915 0.005744
vt 0.961736 0.007033
vt 0.961934 0.005945
vt 0.964664 0.007566
vt 0.962584 0.007566
vt 0.958751 0.010974
vt 0.960309 0.010184
vt 0.959740 0.011133
vt 0.957756 0.008654
vt 0.963867 0.004157
vt 0.962309 0.004947
vt 0.962878 0.003998
vt 0.964862 0.006477
vt 0.957301 0.012125
vt 0.959037 0.011934
vt 0.958171 0.012621
vt 0.957187 0.009603
vt 0.965317 0.003006
vt 0.963581 0.003197
vt 0.964447 0.002510
vt 0.965431 0.005529
vt 0.955539 0.012691
vt 0.957231 0.013124
vt 0.956177 0.013462
vt 0.956321 0.010290
vt 0.967079 0.002440
vt 0.965388 0.002008
vt 0.966441 0.001669
vt 0.966297 0.004841
vt 0.957231 0.002008
vt 0.955539 0.002440
vt 0.956177 0.001669
vt 0.956321 0.004841
vt 0.957301 0.003006
vt 0.965388 0.013124
vt 0.967079 0.012691
vt 0.966441 0.013462
vt 0.966297 0.010290
vt 0.965317 0.012125
vt 0.959037 0.003197
vt 0.958171 0.002510
vt 0.957187 0.005529
vt 0.958751 0.004157
vt 0.963581 0.011934
vt 0.964447 0.012621
vt 0.965431 0.009603
vt 0.963867 0.010974
vt 0.960309 0.004947
vt 0.959740 0.003998
vt 0.957756 0.006477
vt 0.959703 0.005744
vt 0.962309 0.010184
vt 0.962878 0.011133
vt 0.964862 0.008654
vt 0.962915 0.009387
vt 0.960882 0.007033
vt 0.960684 0.005945
vt 0.961736 0.008099
vt 0.961934 0.009187
vt 0.955268 0.010628
vt 0.967350 0.004503
vt 0.955268 0.004503
vt 0.967350 0.010628
vt 0.974174 0.011647
vt 0.974914 0.011060
vt 0.976000 0.005093
vt 0.975514 0.004283
vt 0.972472 0.012365
vt 0.973371 0.012076
vt 0.976321 0.005945
vt 0.976490 0.006874
vt 0.976490 0.007784
vt 0.976321 0.008714
vt 0.972472 0.002294
vt 0.973371 0.002583
vt 0.975514 0.010376
vt 0.976000 0.009566
vt 0.974914 0.003599
vt 0.974174 0.003012
vt 0.976600 0.005529
vt 0.977467 0.004841
vt 0.976031 0.006477
vt 0.975833 0.007566
vt 0.976031 0.008654
vt 0.977467 0.010290
vt 0.976600 0.009603
vt 0.978520 0.004503
vt 0.978520 0.010628
s 1
usemtl Catenary
f 83/32/28 45/33/29 84/34/30
f 83/32/31 47/35/32 46/36/32
f 81/37/33 47/38/34 82/39/35
f 81/37/36 49/40/37 48/41/37
f 78/42/38 84/43/30 79/44/39
f 78/42/40 82/45/41 83/32/31
f 76/46/42 82/47/35 77/48/43
f 76/46/44 80/49/45 81/37/36
f 73/50/46 79/51/39 74/52/47
f 73/50/48 77/53/49 78/42/40
f 71/54/50 77/55/43 72/56/51
f 71/54/52 75/57/53 76/46/44
f 68/58/54 74/59/47 69/60/55
f 68/58/56 72/61/57 73/50/48
f 66/62/58 72/63/51 67/64/59
f 66/62/60 70/65/61 71/54/52
f 64/66/62 68/67/54 69/68/55
f 62/69/63 68/67/56 63/70/64
f 62/71/65 66/72/58 67/73/59
f 60/74/66 66/72/60 61/75/67
f 59/76/68 63/70/69 64/77/62
f 57/78/70 63/70/64 58/79/71
f 57/80/72 61/75/73 62/81/65
f 55/82/74 61/75/67 56/83/75
f 54/84/76 58/79/77 59/85/68
f 52/86/78 58/79/71 53/87/79
f 52/88/80 56/83/81 57/89/72
f 50/90/82 56/83/75 51/91/83
f 45/92/29 53/87/84 54/93/76
f 47/35/32 53/87/79 46/36/32
f 47/94/34 51/91/85 52/95/80
f 49/40/37 51/91/83 48/41/37
f 83/32/28 46/36/86 45/33/29
f 83/32/31 82/45/41 47/35/32
f 81/37/33 48/41/34 47/38/34
f 81/37/36 80/49/45 49/40/37
f 78/42/38 83/32/28 84/43/30
f 78/42/40 77/53/49 82/45/41
f 76/46/42 81/37/33 82/47/35
f 76/46/44 75/57/53 80/49/45
f 73/50/46 78/42/38 79/51/39
f 73/50/48 72/61/57 77/53/49
f 71/54/50 76/46/42 77/55/43
f 71/54/52 70/65/61 75/57/53
f 68/58/54 73/50/46 74/59/47
f 68/58/56 67/96/87 72/61/57
f 66/62/58 71/54/50 72/63/51
f 66/62/60 65/97/60 70/65/61
f 64/66/62 63/70/69 68/67/54
f 62/69/63 67/98/87 68/67/56
f 62/71/65 61/75/73 66/72/58
f 60/74/66 65/99/60 66/72/60
f 59/76/68 58/79/77 63/70/69
f 57/78/70 62/69/63 63/70/64
f 57/80/72 56/83/81 61/75/73
f 55/82/74 60/74/66 61/75/67
f 54/84/76 53/87/84 58/79/77
f 52/86/78 57/78/70 58/79/71
f 52/88/80 51/91/85 56/83/81
f 50/90/82 55/82/74 56/83/75
f 45/92/29 46/36/86 53/87/84
f 47/35/32 52/86/78 53/87/79
f 47/94/34 48/41/34 51/91/85
f 49/40/37 50/90/82 51/91/83
f 75/57/88 92/49/88 80/49/88
f 60/74/88 87/82/88 88/74/88
f 75/57/88 90/65/88 91/57/88
f 50/90/88 87/82/88 55/82/88
f 70/65/88 89/97/88 90/65/88
f 49/40/88 86/90/88 50/90/88
f 80/49/88 85/40/88 49/40/88
f 65/99/88 88/74/88 89/99/88
f 117/100/89 115/101/89 97/100/89
f 118/102/90 116/103/91 94/102/91
f 119/104/92 97/105/93 96/104/94
f 118/106/95 93/107/96 120/107/97
f 120/108/97 98/109/98 121/109/99
f 119/110/92 95/111/100 122/111/101
f 115/112/89 98/113/89 97/112/89
f 116/114/91 95/115/91 94/114/91
f 91/116/102 104/117/103 105/116/102
f 92/118/104 99/119/105 85/119/106
f 85/119/106 100/120/107 86/120/108
f 88/121/109 101/122/110 102/121/111
f 90/117/112 103/123/113 104/117/103
f 91/116/102 106/118/114 92/118/104
f 86/120/108 101/122/110 87/122/110
f 89/124/115 102/121/111 103/124/113
f 64/115/116 110/114/117 59/114/117
f 79/112/118 113/113/119 108/112/118
f 69/110/120 114/111/121 64/111/116
f 84/109/122 112/108/123 113/109/119
f 45/107/124 109/106/125 112/107/123
f 74/105/126 111/104/127 69/104/120
f 54/102/128 110/103/117 109/102/125
f 79/101/118 107/100/129 74/100/126
f 110/114/130 122/115/101 116/114/131
f 108/112/132 121/113/99 115/112/133
f 114/111/121 119/110/92 122/111/101
f 113/109/119 120/108/97 121/109/99
f 109/106/125 120/107/97 112/107/123
f 107/105/129 119/104/92 111/104/127
f 110/103/130 118/102/95 109/102/125
f 108/101/132 117/100/134 107/100/129
f 93/108/135 97/112/135 98/113/135
f 96/104/135 94/114/135 95/115/135
f 75/57/88 91/57/88 92/49/88
f 60/74/88 55/82/88 87/82/88
f 75/57/88 70/65/88 90/65/88
f 50/90/88 86/90/88 87/82/88
f 70/65/88 65/97/88 89/97/88
f 49/40/88 85/40/88 86/90/88
f 80/49/88 92/49/88 85/40/88
f 65/99/88 60/74/88 88/74/88
f 119/104/92 117/105/134 97/105/93
f 118/106/95 94/106/136 93/107/96
f 120/108/97 93/108/96 98/109/98
f 119/110/92 96/110/94 95/111/100
f 115/112/89 121/113/89 98/113/89
f 116/114/91 122/115/137 95/115/91
f 91/116/102 90/117/112 104/117/103
f 92/118/104 106/118/114 99/119/105
f 85/119/106 99/119/105 100/120/107
f 88/121/109 87/122/110 101/122/110
f 90/117/112 89/123/115 103/123/113
f 91/116/102 105/116/102 106/118/114
f 86/120/108 100/120/107 101/122/110
f 89/124/115 88/121/109 102/121/111
f 64/115/116 114/115/121 110/114/117
f 79/112/118 84/113/122 113/113/119
f 69/110/120 111/110/127 114/111/121
f 84/109/122 45/108/124 112/108/123
f 45/107/124 54/106/128 109/106/125
f 74/105/126 107/105/129 111/104/127
f 54/102/128 59/103/117 110/103/117
f 79/101/118 108/101/118 107/100/129
f 110/114/130 114/115/121 122/115/101
f 108/112/132 113/113/119 121/113/99
f 114/111/121 111/110/127 119/110/92
f 113/109/119 112/108/123 120/108/97
f 109/106/125 118/106/95 120/107/97
f 107/105/129 117/105/134 119/104/92
f 110/103/130 116/103/131 118/102/95
f 108/101/132 115/101/133 117/100/134
f 93/108/135 96/104/135 97/112/135
f 96/104/135 93/107/135 94/114/135
