# Blender 5.0.1
# www.blender.org
mtllib pole_foundation.mtl
o Foundation
g pole_foundation
v -2.400000 -10.050371 0.200000
v -2.400000 0.108680 0.200000
v -2.400000 -10.050371 -0.200000
v -2.400000 0.108680 -0.200000
v -2.000000 -10.050371 0.200000
v -2.000000 0.108680 0.200000
v -2.000000 -10.050371 -0.200000
v -2.000000 0.108680 -0.200000
v -2.200000 0.141995 0.000000
vn -1.0000 -0.0000 -0.0000
vn -0.0000 -0.0000 -1.0000
vn 1.0000 -0.0000 -0.0000
vn -0.0000 -0.0000 1.0000
vn -0.0000 0.9864 -0.1643
vn -0.1643 0.9864 -0.0000
vn -0.0000 0.9864 0.1643
vn 0.1643 0.9864 -0.0000
vt 0.249997 3.314017
vt -0.000003 -2.311018
vt 0.249997 -2.311018
vt 0.249997 3.187517
vt -0.000003 -2.437517
vt 0.249997 -2.437517
vt 0.249997 3.437517
vt -0.000003 -2.187517
vt 0.249997 -2.187517
vt 0.249997 3.687516
vt -0.000003 -1.937517
vt 0.249997 -1.937517
vt -0.000004 0.500000
vt 0.249997 0.500000
vt 0.124997 0.625000
vt 0.249997 0.750000
vt -0.000004 0.750000
vt -0.000003 3.314017
vt -0.000003 3.187517
vt -0.000003 3.437517
vt -0.000003 3.687516
s 0
usemtl Catenary
f 2/1/1 3/2/1 1/3/1
f 4/4/2 7/5/2 3/6/2
f 8/7/3 5/8/3 7/9/3
f 6/10/4 1/11/4 5/12/4
f 8/13/5 4/14/5 9/15/5
f 4/14/6 2/16/6 9/15/6
f 2/16/7 6/17/7 9/15/7
f 6/17/8 8/13/8 9/15/8
f 2/1/1 4/18/1 3/2/1
f 4/4/2 8/19/2 7/5/2
f 8/7/3 6/20/3 5/8/3
f 6/10/4 2/21/4 1/11/4
