# Blender 5.0.1
# www.blender.org
mtllib pole.mtl
o Pole
g pole
v -2.200000 -0.600000 -0.150000
v -2.200000 8.452378 -0.150000
v -2.142597 -0.600000 -0.138582
v -2.142597 8.452378 -0.138582
v -2.093934 -0.600000 -0.106066
v -2.093934 8.452378 -0.106066
v -2.061418 -0.600000 -0.057403
v -2.061418 8.452378 -0.057403
v -2.050000 -0.600000 -0.000000
v -2.050000 8.452378 -0.000000
v -2.061418 -0.600000 0.057403
v -2.061418 8.452378 0.057403
v -2.093934 -0.600000 0.106066
v -2.093934 8.452378 0.106066
v -2.142597 -0.600000 0.138582
v -2.142597 8.452378 0.138582
v -2.200000 -0.600000 0.150000
v -2.200000 8.452378 0.150000
v -2.257403 -0.600000 0.138582
v -2.257403 8.452378 0.138582
v -2.306066 -0.600000 0.106066
v -2.306066 8.452378 0.106066
v -2.338582 -0.600000 0.057403
v -2.338582 8.452378 0.057403
v -2.350000 -0.600000 -0.000000
v -2.350000 8.452378 -0.000000
v -2.338582 -0.600000 -0.057403
v -2.338582 8.452378 -0.057403
v -2.306066 -0.600000 -0.106066
v -2.306066 8.452378 -0.106066
v -2.257403 -0.600000 -0.138582
v -2.257403 8.452378 -0.138582
vn -0.0000 -0.0000 -1.0000
vn 0.3827 -0.0000 -0.9239
vn 0.7071 -0.0000 -0.7071
vn 0.9239 -0.0000 -0.3827
vn 1.0000 -0.0000 -0.0000
vn 0.9239 -0.0000 0.3827
vn 0.7071 -0.0000 0.7071
vn 0.3827 -0.0000 0.9239
vn -0.0000 -0.0000 1.0000
vn -0.3827 -0.0000 0.9239
vn -0.7071 -0.0000 0.7071
vn -0.9239 -0.0000 0.3827
vn -1.0000 -0.0000 -0.0000
vn -0.9239 -0.0000 -0.3827
vn -0.0000 1.0000 -0.0000
vn -0.7071 -0.0000 -0.7071
vn -0.3827 -0.0000 -0.9239
vt 0.000002 -1.374996
vt 0.015627 1.000000
vt 0.000002 1.000000
vt 0.015627 -1.374996
vt 0.031251 1.000000
vt 0.031251 -1.374996
vt 0.046876 1.000000
vt 0.046876 -1.374996
vt 0.062501 1.000000
vt 0.062501 -1.374996
vt 0.078126 1.000000
vt 0.078126 -1.374996
vt 0.093751 1.000000
vt 0.093751 -1.374996
vt 0.109375 1.000001
vt 0.109375 -1.374996
vt 0.125000 1.000001
vt 0.125000 -1.374996
vt 0.140625 1.000001
vt 0.140625 -1.374996
vt 0.156250 1.000001
vt 0.156250 -1.374996
vt 0.171875 1.000001
vt 0.171875 -1.374996
vt 0.187499 1.000001
vt 0.187499 -1.374996
vt 0.203124 1.000001
vt 0.036613 0.161613
vt 0.213386 0.161613
vt 0.213386 0.338386
vt 0.203124 -1.374996
vt 0.218749 1.000001
vt 0.218749 -1.374996
vt 0.234374 1.000001
vt 0.234374 -1.374995
vt 0.249999 1.000001
vt 0.172834 0.365482
vt 0.124999 0.374997
vt 0.077165 0.365482
vt 0.036613 0.338386
vt 0.009517 0.297834
vt 0.000002 0.250000
vt 0.009517 0.202165
vt 0.077165 0.134518
vt 0.124999 0.125003
vt 0.172834 0.134518
vt 0.240482 0.202165
vt 0.249997 0.250000
vt 0.240482 0.297834
vt 0.249999 -1.374995
s 1
usemtl Catenary
f 2/1/1 3/2/2 1/3/1
f 4/4/2 5/5/3 3/2/2
f 6/6/3 7/7/4 5/5/3
f 8/8/4 9/9/5 7/7/4
f 10/10/5 11/11/6 9/9/5
f 12/12/6 13/13/7 11/11/6
f 14/14/7 15/15/8 13/13/7
f 16/16/8 17/17/9 15/15/8
f 18/18/9 19/19/10 17/17/9
f 20/20/10 21/21/11 19/19/10
f 22/22/11 23/23/12 21/21/11
f 24/24/12 25/25/13 23/23/12
f 26/26/13 27/27/14 25/25/13
f 22/28/15 14/29/15 6/30/15
f 28/31/14 29/32/16 27/27/14
f 30/33/16 31/34/17 29/32/16
f 32/35/17 1/36/1 31/34/17
f 2/1/1 4/4/2 3/2/2
f 4/4/2 6/6/3 5/5/3
f 6/6/3 8/8/4 7/7/4
f 8/8/4 10/10/5 9/9/5
f 10/10/5 12/12/6 11/11/6
f 12/12/6 14/14/7 13/13/7
f 14/14/7 16/16/8 15/15/8
f 16/16/8 18/18/9 17/17/9
f 18/18/9 20/20/10 19/19/10
f 20/20/10 22/22/11 21/21/11
f 22/22/11 24/24/12 23/23/12
f 24/24/12 26/26/13 25/25/13
f 26/26/13 28/31/14 27/27/14
f 6/30/15 4/37/15 2/38/15
f 2/38/15 32/39/15 30/40/15
f 30/40/15 28/41/15 26/42/15
f 26/42/15 24/43/15 22/28/15
f 22/28/15 20/44/15 18/45/15
f 18/45/15 16/46/15 14/29/15
f 14/29/15 12/47/15 10/48/15
f 10/48/15 8/49/15 6/30/15
f 6/30/15 2/38/15 30/40/15
f 30/40/15 26/42/15 22/28/15
f 22/28/15 18/45/15 14/29/15
f 14/29/15 10/48/15 6/30/15
f 6/30/15 30/40/15 22/28/15
f 28/31/14 30/33/16 29/32/16
f 30/33/16 32/35/17 31/34/17
f 32/35/17 2/50/1 1/36/1
