# Blender 5.0.1
# www.blender.org
mtllib side_rail.mtl
o SideRail
g side_rail
v -0.067000 4.209215 10.050000
v -0.067000 4.209215 -0.050000
v 0.067000 4.209215 10.050000
v 0.067000 4.209215 -0.050000
v -0.067000 4.219220 10.050000
v -0.007370 4.236220 10.050000
v -0.007370 4.307215 10.050000
v -0.030820 4.320220 10.050000
v -0.030820 4.320220 -0.050000
v -0.007370 4.307215 -0.050000
v -0.007370 4.236220 -0.050000
v -0.067000 4.219220 -0.050000
v 0.030820 4.320220 -0.050000
v 0.007370 4.307215 -0.050000
v 0.007370 4.236220 -0.050000
v 0.067000 4.219220 -0.050000
v 0.030820 4.320220 10.050000
v 0.007370 4.307215 10.050000
v 0.007370 4.236220 10.050000
v 0.067000 4.219220 10.050000
v -0.020820 4.354215 10.050000
v -0.030820 4.344215 10.050000
v -0.027891 4.351286 10.050000
v -0.030820 4.344215 -0.050000
v -0.020820 4.354215 -0.050000
v -0.027891 4.351286 -0.050000
v 0.030820 4.344215 10.050000
v 0.020820 4.354215 10.050000
v 0.027891 4.351286 10.050000
v 0.020820 4.354215 -0.050000
v 0.030820 4.344215 -0.050000
v 0.027891 4.351286 -0.050000
vn -0.0000 -1.0000 -0.0000
vn -0.0000 -0.0000 1.0000
vn 1.0000 -0.0000 -0.0000
vn 0.2742 0.9617 -0.0000
vn 0.4850 -0.8745 -0.0000
vn -0.0000 -0.0000 -1.0000
vn -1.0000 -0.0000 -0.0000
vn -0.2742 0.9617 -0.0000
vn -0.4850 -0.8745 -0.0000
vn -0.1951 0.9808 -0.0000
vn -0.7071 0.7071 -0.0000
vn -0.9808 0.1951 -0.0000
vn 0.1951 0.9808 -0.0000
vn 0.7071 0.7071 -0.0000
vn 0.9808 0.1951 -0.0000
vn -0.0000 -0.0003 1.0000
vn -0.0000 -0.0001 1.0000
vt 0.980086 0.007447
vt 0.970967 0.007447
vt 0.970967 0.008809
vt 0.970967 0.009463
vt 0.970967 0.009324
vt 0.980086 0.007586
vt 0.980086 0.007823
vt 0.970967 0.007586
vt 0.980086 0.008809
vt 0.970967 0.007823
vt 0.980086 0.008990
vt 0.980086 0.009463
vt 0.980086 0.009324
vt 0.970967 0.008990
vt 0.970967 0.009422
vt 0.980086 0.009422
s 1
usemtl Catenary
f 4/1/1 1/2/1 2/1/1
f 18/3/2 21/4/2 22/5/2
f 16/6/3 3/2/3 4/1/3
f 15/7/4 20/8/4 16/6/4
f 14/9/3 19/10/3 15/7/3
f 13/11/5 18/3/5 14/9/5
f 10/9/6 30/12/6 31/13/6
f 5/8/7 2/1/7 1/2/7
f 6/10/8 12/6/8 5/8/8
f 7/3/7 11/7/7 6/10/7
f 8/14/9 10/9/9 7/3/9
f 25/12/10 23/15/11 21/4/10
f 26/16/11 22/5/12 23/15/11
f 28/4/13 32/16/14 30/12/13
f 29/15/14 31/13/15 32/16/14
f 22/5/12 9/11/7 8/14/7
f 25/12/10 28/4/13 30/12/13
f 31/13/15 17/14/3 13/11/3
f 4/1/1 3/2/1 1/2/1
f 3/2/2 20/8/2 19/10/2
f 18/3/2 17/14/2 27/5/2
f 1/2/2 3/2/2 19/10/2
f 18/3/2 27/5/2 29/15/2
f 5/8/2 1/2/2 19/10/2
f 6/10/16 5/8/2 19/10/2
f 18/3/2 29/15/2 28/4/2
f 6/10/16 19/10/2 18/3/2
f 22/5/2 8/14/2 7/3/2
f 7/3/2 6/10/16 18/3/2
f 18/3/2 28/4/2 21/4/2
f 21/4/2 23/15/17 22/5/2
f 22/5/2 7/3/2 18/3/2
f 16/6/3 20/8/3 3/2/3
f 15/7/4 19/10/4 20/8/4
f 14/9/3 18/3/3 19/10/3
f 13/11/5 17/14/5 18/3/5
f 2/1/6 12/6/6 11/7/6
f 10/9/6 9/11/6 24/13/6
f 4/1/6 2/1/6 11/7/6
f 10/9/6 24/13/6 26/16/6
f 16/6/6 4/1/6 11/7/6
f 15/7/6 16/6/6 11/7/6
f 10/9/6 26/16/6 25/12/6
f 15/7/6 11/7/6 10/9/6
f 31/13/6 13/11/6 14/9/6
f 14/9/6 15/7/6 10/9/6
f 10/9/6 25/12/6 30/12/6
f 30/12/6 32/16/6 31/13/6
f 31/13/6 14/9/6 10/9/6
f 5/8/7 12/6/7 2/1/7
f 6/10/8 11/7/8 12/6/8
f 7/3/7 10/9/7 11/7/7
f 8/14/9 9/11/9 10/9/9
f 25/12/10 26/16/11 23/15/11
f 26/16/11 24/13/12 22/5/12
f 28/4/13 29/15/14 32/16/14
f 29/15/14 27/5/15 31/13/15
f 22/5/12 24/13/12 9/11/7
f 25/12/10 21/4/10 28/4/13
f 31/13/15 27/5/15 17/14/3
