# Blender 5.0.1
# www.blender.org
mtllib side_rail_end.mtl
o SideRailEnd
g side_rail_end
v -0.067000 4.209215 10.050000
v -0.067000 4.209215 -0.050000
v 0.067000 4.209215 10.050000
v 0.067000 4.209215 -0.050000
v -0.067000 4.219220 10.050000
v -0.007370 4.236220 10.050000
v -0.007370 4.307215 10.050000
v -0.030820 4.320220 10.050000
v -0.030820 4.320220 -0.050000
v -0.007370 4.307215 -0.050000
v -0.007370 4.236220 -0.050000
v -0.067000 4.219220 -0.050000
v 0.030820 4.320220 -0.050000
v 0.007370 4.307215 -0.050000
v 0.007370 4.236220 -0.050000
v 0.067000 4.219220 -0.050000
v 0.030820 4.320220 10.050000
v 0.007370 4.307215 10.050000
v 0.007370 4.236220 10.050000
v 0.067000 4.219220 10.050000
v -0.020820 4.354215 10.050000
v -0.030820 4.344215 10.050000
v -0.027891 4.351286 10.050000
v -0.030820 4.344215 -0.050000
v -0.020820 4.354215 -0.050000
v -0.027891 4.351286 -0.050000
v 0.030820 4.344215 10.050000
v 0.020820 4.354215 10.050000
v 0.027891 4.351286 10.050000
v 0.020820 4.354220 -0.050000
v 0.030820 4.344215 -0.050000
v 0.027891 4.351286 -0.050000
v -0.067000 4.097316 11.050000
v 0.067000 4.097316 11.050000
v -0.067000 4.107321 11.050000
v -0.007370 4.124321 11.050000
v -0.007370 4.151793 11.050000
v -0.030820 4.164798 11.050000
v 0.030820 4.164798 11.050000
v 0.007370 4.151793 11.050000
v 0.007370 4.124321 11.050000
v 0.067000 4.107321 11.050000
v -0.020820 4.198792 11.050000
v -0.030820 4.188792 11.050000
v -0.027891 4.195864 11.050000
v 0.030820 4.188792 11.050000
v 0.020820 4.198792 11.050000
v 0.027891 4.195864 11.050000
vn -0.0000 -1.0000 -0.0000
vn 0.2726 0.9562 0.1070
vn 1.0000 -0.0000 -0.0000
vn 0.2742 0.9617 -0.0000
vn 0.4850 -0.8745 -0.0000
vn -0.0000 -0.0000 -1.0000
vn -1.0000 -0.0000 -0.0000
vn -0.2742 0.9617 -0.0000
vn -0.4850 -0.8745 -0.0000
vn -0.1951 0.9808 -0.0000
vn -0.7071 0.7071 -0.0000
vn -0.9808 0.1951 -0.0000
vn 0.1951 0.9808 -0.0000
vn 0.7073 0.7069 -0.0000
vn 0.1953 0.9807 -0.0000
vn 0.7071 0.7071 -0.0000
vn 0.9808 0.1951 -0.0000
vn -0.0000 -0.0000 1.0000
vn 0.9839 0.1765 0.0274
vn -0.6845 0.7203 0.1120
vn -0.1966 0.9689 0.1506
vn -0.1893 0.9703 0.1508
vn 0.1966 0.9689 0.1506
vn 0.1893 0.9703 0.1508
vn -0.0000 -0.9938 -0.1112
vn -0.9839 0.1765 0.0274
vn -0.9764 0.2132 0.0331
vn 0.6845 0.7203 0.1120
vn 0.7222 0.6835 0.1062
vn -0.2726 0.9562 0.1070
vn 0.4806 -0.8665 -0.1347
vn -0.7222 0.6835 0.1062
vn -0.4806 -0.8665 -0.1347
vn 0.9764 0.2132 0.0331
vn -0.0000 -0.0001 1.0000
vt 0.983322 0.005642
vt 0.972664 0.005642
vt 0.972664 0.005823
vt 0.971609 0.004104
vt 0.971609 0.003796
vt 0.983322 0.005823
vt 0.983322 0.006131
vt 0.983322 0.007417
vt 0.972664 0.006131
vt 0.983322 0.007652
vt 0.972664 0.007417
vt 0.983322 0.008268
vt 0.983322 0.008087
vt 0.972664 0.007652
vt 0.983322 0.008268
vt 0.972664 0.008215
vt 0.972664 0.008268
vt 0.983322 0.008215
vt 0.972664 0.008087
vt 0.971609 0.004602
vt 0.971609 0.005453
vt 0.971609 0.005272
vt 0.971609 0.004837
vt 0.971609 0.003615
vt 0.971609 0.005400
s 1
usemtl Catenary
f 4/1/1 1/2/1 2/1/1
f 20/3/2 41/4/2 42/5/2
f 16/6/3 3/2/3 4/1/3
f 15/7/4 20/3/4 16/6/4
f 14/8/3 19/9/3 15/7/3
f 13/10/5 18/11/5 14/8/5
f 10/8/6 30/12/6 31/13/6
f 5/3/7 2/1/7 1/2/7
f 6/9/8 12/6/8 5/3/8
f 7/11/7 11/7/7 6/9/7
f 8/14/9 10/8/9 7/11/9
f 25/15/10 23/16/11 21/17/10
f 26/18/11 22/19/12 23/16/11
f 28/17/13 32/18/14 30/12/15
f 29/16/16 31/13/17 32/18/14
f 22/19/12 9/10/7 8/14/7
f 25/15/10 28/17/13 30/12/15
f 31/13/17 17/14/3 13/10/3
f 40/20/18 43/21/18 44/22/18
f 17/14/3 46/22/19 39/23/3
f 3/2/3 42/5/3 34/24/3
f 23/16/20 43/21/21 21/17/22
f 21/17/22 47/21/23 28/17/24
f 3/2/25 33/24/25 1/2/25
f 8/14/7 44/22/26 22/19/27
f 1/2/7 35/5/7 5/3/7
f 29/16/28 47/21/23 48/25/29
f 5/3/30 36/4/30 6/9/30
f 6/9/7 37/20/7 7/11/7
f 18/11/31 39/23/31 40/20/31
f 22/19/27 45/25/32 23/16/20
f 7/11/33 38/23/33 8/14/33
f 27/19/34 48/25/29 46/22/19
f 19/9/3 40/20/3 41/4/3
f 4/1/1 3/2/1 1/2/1
f 20/3/2 19/9/2 41/4/2
f 16/6/3 20/3/3 3/2/3
f 15/7/4 19/9/4 20/3/4
f 14/8/3 18/11/3 19/9/3
f 13/10/5 17/14/5 18/11/5
f 2/1/6 12/6/6 11/7/6
f 10/8/6 9/10/6 24/13/6
f 4/1/6 2/1/6 11/7/6
f 10/8/6 24/13/6 26/18/6
f 16/6/6 4/1/6 11/7/6
f 15/7/6 16/6/6 11/7/6
f 10/8/6 26/18/6 25/15/6
f 15/7/6 11/7/6 10/8/6
f 31/13/6 13/10/6 14/8/6
f 14/8/6 15/7/6 10/8/6
f 10/8/6 25/15/6 30/12/6
f 30/12/6 32/18/6 31/13/6
f 31/13/6 14/8/6 10/8/6
f 5/3/7 12/6/7 2/1/7
f 6/9/8 11/7/8 12/6/8
f 7/11/7 10/8/7 11/7/7
f 8/14/9 9/10/9 10/8/9
f 25/15/10 26/18/11 23/16/11
f 26/18/11 24/13/12 22/19/12
f 28/17/13 29/16/16 32/18/14
f 29/16/16 27/19/17 31/13/17
f 22/19/12 24/13/12 9/10/7
f 25/15/10 21/17/10 28/17/13
f 31/13/17 27/19/17 17/14/3
f 34/24/18 42/5/18 41/4/18
f 40/20/18 39/23/18 46/22/35
f 33/24/18 34/24/18 41/4/18
f 40/20/18 46/22/35 48/25/18
f 35/5/18 33/24/18 41/4/18
f 36/4/18 35/5/18 41/4/18
f 40/20/18 48/25/18 47/21/18
f 36/4/18 41/4/18 40/20/18
f 44/22/18 38/23/18 37/20/18
f 37/20/18 36/4/18 40/20/18
f 40/20/18 47/21/18 43/21/18
f 43/21/18 45/25/18 44/22/18
f 44/22/18 37/20/18 40/20/18
f 17/14/3 27/19/34 46/22/19
f 3/2/3 20/3/3 42/5/3
f 23/16/20 45/25/32 43/21/21
f 21/17/22 43/21/21 47/21/23
f 3/2/25 34/24/25 33/24/25
f 8/14/7 38/23/7 44/22/26
f 1/2/7 33/24/7 35/5/7
f 29/16/28 28/17/24 47/21/23
f 5/3/30 35/5/30 36/4/30
f 6/9/7 36/4/7 37/20/7
f 18/11/31 17/14/31 39/23/31
f 22/19/27 44/22/26 45/25/32
f 7/11/33 37/20/33 38/23/33
f 27/19/34 29/16/28 48/25/29
f 19/9/3 18/11/3 40/20/3
