# Blender 5.0.1
# www.blender.org
mtllib side_pole.mtl
o SidePole
g side_pole
v -2.304010 3.899355 -0.059753
v -2.304010 4.209355 -0.059753
v -2.261758 3.899355 -0.042251
v -2.261758 4.209355 -0.042251
v -2.244257 3.899355 0.000000
v -2.244257 4.209355 0.000000
v -2.261758 3.899355 0.042252
v -2.261758 4.209355 0.042252
v -2.304010 3.899355 0.059754
v -2.304010 4.209355 0.059754
v -2.346262 3.899355 0.042252
v -2.346262 4.209355 0.042252
v -2.363763 3.899355 0.000000
v -2.363763 4.209355 0.000000
v -2.346262 3.899355 -0.042251
v -2.346262 4.209355 -0.042251
v -2.304010 3.985379 -0.059753
v -2.304010 3.995070 -0.100000
v -2.304010 4.071094 -0.059753
v -2.304010 4.080784 -0.100000
v -2.304010 4.156808 -0.059753
v -2.304010 4.166498 -0.100000
v -2.233299 4.166498 -0.070711
v -2.261758 4.156808 -0.042251
v -2.233299 4.080784 -0.070711
v -2.261758 4.071094 -0.042251
v -2.233299 3.995070 -0.070711
v -2.261758 3.985379 -0.042251
v -2.204010 4.166498 0.000000
v -2.244257 4.156808 0.000000
v -2.204010 4.080784 0.000000
v -2.244257 4.071094 0.000000
v -2.204010 3.995070 0.000000
v -2.244257 3.985379 0.000000
v -2.233299 4.166498 0.070711
v -2.261758 4.156808 0.042252
v -2.233299 4.080784 0.070711
v -2.261758 4.071094 0.042252
v -2.233299 3.995070 0.070711
v -2.261758 3.985379 0.042252
v -2.304010 4.166498 0.100000
v -2.304010 4.156808 0.059754
v -2.304010 4.080784 0.100000
v -2.304010 4.071094 0.059754
v -2.304010 3.995070 0.100000
v -2.304010 3.985379 0.059754
v -2.374721 4.166498 0.070711
v -2.346262 4.156808 0.042252
v -2.374721 4.080784 0.070711
v -2.346262 4.071094 0.042252
v -2.374721 3.995070 0.070711
v -2.346262 3.985379 0.042252
v -2.404010 4.166498 0.000000
v -2.363763 4.156808 0.000000
v -2.404010 4.080784 0.000000
v -2.363763 4.071094 0.000000
v -2.404010 3.995070 0.000000
v -2.363763 3.985379 0.000000
v -2.374721 4.166498 -0.070711
v -2.346262 4.156808 -0.042251
v -2.374721 4.080784 -0.070711
v -2.346262 4.071094 -0.042251
v -2.374721 3.995070 -0.070711
v -2.346262 3.985379 -0.042251
v -2.304010 3.899355 0.088820
v -2.241205 3.899355 0.062806
v -2.215190 3.899355 0.000001
v -2.241205 3.899355 -0.062804
v -2.304010 3.899355 -0.088819
v -2.241205 0.120170 0.062806
v -2.304010 0.120170 0.088820
v -2.366815 3.899355 -0.062804
v -2.392830 3.899355 0.000001
v -2.366815 3.899355 0.062806
v -2.215190 0.120170 0.000001
v -2.241205 0.120170 -0.062804
v -2.304010 0.120170 -0.088819
v -2.366815 0.120170 -0.062804
v -2.392830 0.120170 0.000001
v -2.366815 0.120170 0.062806
v -2.210211 0.110175 0.093799
v -2.304010 0.110175 0.132652
v -2.171359 0.110175 0.000001
v -2.210211 0.110175 -0.093798
v -2.304010 0.110175 -0.132651
v -2.397809 0.110175 -0.093798
v -2.436661 0.110175 0.000001
v -2.397809 0.110175 0.093799
v -2.210211 -4.986866 0.093799
v -2.304010 -4.986866 0.132652
v -2.171359 -4.986866 0.000001
v -2.210211 -4.986866 -0.093798
v -2.304010 -4.986866 -0.132651
v -2.397809 -4.986866 -0.093798
v -2.436661 -4.986866 0.000001
v -2.397809 -4.986866 0.093799
vn -0.0000 0.6846 -0.7290
vn 0.5154 0.6846 -0.5155
vn 0.5154 0.6846 -0.5154
vn 0.7290 0.6846 -0.0000
vn 0.5155 0.6846 0.5154
vn 0.5155 0.6846 0.5155
vn -0.0000 0.6846 0.7290
vn -0.5155 0.6846 0.5155
vn -0.5155 0.6846 0.5154
vn -0.7290 0.6846 -0.0000
vn -0.0000 1.0000 -0.0000
vn -0.5154 0.6846 -0.5154
vn -0.5154 0.6846 -0.5155
vn -0.7071 -0.0000 -0.7071
vn -0.0000 -0.0000 -1.0000
vn -0.1655 -0.9722 -0.1655
vn -0.0000 -0.9722 -0.2341
vn -0.6249 0.4679 -0.6249
vn -0.0000 0.4679 -0.8838
vn -1.0000 -0.0000 -0.0000
vn -0.2341 -0.9722 -0.0000
vn -0.8838 0.4679 -0.0000
vn -0.7071 -0.0000 0.7071
vn -0.1655 -0.9722 0.1655
vn -0.6249 0.4679 0.6249
vn -0.0000 -0.0000 1.0000
vn -0.0000 -0.9722 0.2341
vn -0.0000 0.4679 0.8838
vn 0.7071 -0.0000 0.7071
vn 0.1655 -0.9722 0.1655
vn 0.6249 0.4679 0.6249
vn 1.0000 -0.0000 -0.0000
vn 0.2341 -0.9722 -0.0000
vn 0.8838 0.4679 -0.0000
vn 0.7071 -0.0000 -0.7071
vn 0.1655 -0.9722 -0.1655
vn 0.6249 0.4679 -0.6249
vn 0.1572 0.9750 0.1572
vn -0.0000 0.9750 0.2223
vn -0.2223 0.9750 -0.0000
vn -0.1572 0.9750 -0.1572
vn -0.0000 0.9750 -0.2223
vn -0.1572 0.9750 0.1572
vn 0.2223 0.9750 -0.0000
vn 0.1572 0.9750 -0.1572
vt 0.962202 0.007817
vt 0.963622 0.005110
vt 0.964357 0.007817
vt 0.961763 0.006200
vt 0.961619 0.003147
vt 0.960567 0.005026
vt 0.958899 0.002465
vt 0.958941 0.004619
vt 0.956207 0.003253
vt 0.956207 0.012382
vt 0.958941 0.011015
vt 0.958899 0.013170
vt 0.960567 0.010608
vt 0.961619 0.012488
vt 0.960411 0.010211
vt 0.957332 0.010545
vt 0.956998 0.007466
vt 0.961763 0.009435
vt 0.963622 0.010524
vt 0.975845 0.009350
vt 0.977285 0.008055
vt 0.977285 0.009350
vt 0.959478 0.009817
vt 0.960752 0.008424
vt 0.960538 0.009601
vt 0.957587 0.007848
vt 0.959836 0.007848
vt 0.962950 0.005880
vt 0.961675 0.007272
vt 0.961889 0.006096
vt 0.964840 0.007848
vt 0.962591 0.007848
vt 0.965568 0.008731
vt 0.965129 0.010348
vt 0.975845 0.010645
vt 0.977285 0.010645
vt 0.958449 0.011533
vt 0.960132 0.010679
vt 0.959517 0.011705
vt 0.957373 0.009025
vt 0.963979 0.004163
vt 0.962295 0.005018
vt 0.962910 0.003992
vt 0.965055 0.006672
vt 0.964205 0.011925
vt 0.963008 0.013098
vt 0.975845 0.011940
vt 0.977285 0.011940
vt 0.956881 0.012777
vt 0.958758 0.012571
vt 0.957821 0.013314
vt 0.956758 0.010050
vt 0.965546 0.002920
vt 0.963670 0.003126
vt 0.964606 0.002383
vt 0.965669 0.005646
vt 0.961414 0.013991
vt 0.959788 0.014398
vt 0.975845 0.013235
vt 0.977285 0.013235
vt 0.954976 0.013389
vt 0.956805 0.013857
vt 0.955666 0.014222
vt 0.955821 0.010793
vt 0.967452 0.002308
vt 0.965623 0.001840
vt 0.966761 0.001474
vt 0.966606 0.004903
vt 0.957961 0.014363
vt 0.956353 0.013892
vt 0.975845 0.004170
vt 0.977285 0.002875
vt 0.977285 0.004170
vt 0.956805 0.001840
vt 0.954976 0.002308
vt 0.955666 0.001474
vt 0.955821 0.004903
vt 0.956881 0.002920
vt 0.965623 0.013857
vt 0.967452 0.013389
vt 0.966761 0.014222
vt 0.966606 0.010793
vt 0.965546 0.012777
vt 0.957961 0.001272
vt 0.956353 0.001743
vt 0.975845 0.005465
vt 0.977285 0.005465
vt 0.958758 0.003126
vt 0.957821 0.002383
vt 0.956758 0.005646
vt 0.958449 0.004163
vt 0.963670 0.012571
vt 0.964606 0.013314
vt 0.965669 0.010050
vt 0.963979 0.011533
vt 0.961414 0.001643
vt 0.959788 0.001236
vt 0.975845 0.006760
vt 0.977285 0.006760
vt 0.960132 0.005018
vt 0.959517 0.003992
vt 0.957373 0.006672
vt 0.959478 0.005880
vt 0.962295 0.010679
vt 0.962910 0.011705
vt 0.965055 0.009025
vt 0.962950 0.009817
vt 0.964205 0.003710
vt 0.963008 0.002536
vt 0.975845 0.008055
vt 0.960752 0.007272
vt 0.960538 0.006096
vt 0.961675 0.008424
vt 0.961889 0.009601
vt 0.965568 0.006904
vt 0.965129 0.005286
vt 0.957332 0.005090
vt 0.958469 0.006661
vt 0.960077 0.007132
vt 0.960882 0.008602
vt 0.956528 0.009075
vt 0.954683 0.011159
vt 0.967745 0.004538
vt 0.975845 0.002875
vt 0.954683 0.004538
vt 0.967745 0.011159
vt 0.122899 0.503535
vt 0.152383 0.526199
vt 0.122899 0.526199
vt 0.093415 0.503535
vt 0.093415 0.526199
vt 0.211351 0.503536
vt 0.181867 0.526199
vt 0.181867 0.503536
vt 0.034448 0.503535
vt 0.004964 0.526199
vt 0.004964 0.503535
vt 0.063931 0.526199
vt 0.034448 0.526199
vt 0.063931 0.503535
vt 0.240834 0.503536
vt 0.211351 0.526199
vt 0.152383 0.503536
vt 0.156198 1.406250
vt 0.187391 -0.406276
vt 0.187391 1.406250
vt 0.125004 1.406250
vt 0.156198 -0.406276
vt 0.062618 1.406250
vt 0.093811 -0.406276
vt 0.093811 1.406250
vt 0.031425 1.406250
vt 0.062618 -0.406276
vt 0.218584 -0.406276
vt 0.218584 1.406250
vt 0.000232 1.406250
vt 0.031425 -0.406276
vt 0.125004 -0.406276
vt 0.249777 -0.406276
vt 0.249777 1.406250
vt 0.213710 0.501107
vt 0.243243 0.526339
vt 0.213710 0.526339
vt 0.066043 0.501107
vt 0.095577 0.526339
vt 0.066043 0.526339
vt 0.125110 0.501107
vt 0.095577 0.501107
vt 0.036510 0.501107
vt 0.036510 0.526339
vt 0.006977 0.501107
vt 0.006977 0.526339
vt 0.184176 0.526339
vt 0.184176 0.501107
vt 0.154643 0.501107
vt 0.125110 0.526339
vt 0.154643 0.526339
vt 0.155002 1.010048
vt 0.126269 -0.000364
vt 0.126269 1.010048
vt 0.183734 1.010048
vt 0.155002 -0.000364
vt 0.241199 1.010048
vt 0.212467 -0.000364
vt 0.212467 1.010048
vt 0.097537 1.010048
vt 0.068805 -0.000364
vt 0.068805 1.010048
vt 0.097537 -0.000364
vt 0.040072 -0.000364
vt 0.040072 1.010048
vt 0.183734 -0.000364
vt 0.011340 -0.000364
vt 0.011340 1.010048
vt 0.240834 0.526199
vt 0.000232 -0.406276
vt 0.243243 0.501107
vt 0.241199 -0.000364
s 1
usemtl Catenary
f 2/1/1 23/2/2 22/3/1
f 4/4/3 29/5/4 23/2/2
f 6/6/4 35/7/5 29/5/4
f 8/8/6 41/9/7 35/7/5
f 41/10/7 12/11/8 47/12/9
f 47/12/9 14/13/10 53/14/10
f 14/15/11 10/16/11 6/17/11
f 53/14/10 16/18/12 59/19/13
f 59/19/13 2/1/1 22/3/1
f 64/20/14 1/21/15 15/22/14
f 63/23/16 17/24/17 64/25/16
f 63/23/18 19/26/19 18/27/19
f 61/28/16 19/29/17 62/30/16
f 61/28/18 21/31/19 20/32/19
f 59/19/16 21/33/17 60/34/16
f 58/35/20 15/22/14 13/36/20
f 57/37/21 64/38/16 58/39/21
f 57/37/22 62/40/18 63/23/18
f 55/41/21 62/42/16 56/43/21
f 55/41/22 60/44/18 61/28/18
f 53/14/21 60/45/16 54/46/21
f 52/47/23 13/36/20 11/48/23
f 51/49/24 58/50/21 52/51/24
f 51/49/25 56/52/22 57/37/22
f 49/53/24 56/54/21 50/55/24
f 49/53/25 54/56/22 55/41/22
f 47/12/24 54/57/21 48/58/24
f 46/59/26 11/48/23 9/60/26
f 45/61/27 52/62/24 46/63/27
f 45/61/28 50/64/25 51/49/25
f 43/65/27 50/66/24 44/67/27
f 43/65/28 48/68/25 49/53/25
f 41/10/27 48/69/24 42/70/27
f 40/71/29 9/72/26 7/73/29
f 40/74/30 45/75/27 46/76/27
f 38/77/31 45/75/28 39/78/31
f 38/79/30 43/80/27 44/81/27
f 36/82/31 43/80/28 37/83/31
f 36/84/30 41/9/27 42/85/27
f 34/86/32 7/73/29 5/87/32
f 34/88/33 39/78/30 40/89/30
f 32/90/34 39/78/31 33/91/34
f 32/92/33 37/83/30 38/93/30
f 30/94/34 37/83/31 31/95/34
f 30/96/33 35/7/30 36/97/30
f 28/98/35 5/87/32 3/99/35
f 28/100/36 33/91/33 34/101/33
f 26/102/37 33/91/34 27/103/37
f 26/104/36 31/95/33 32/105/33
f 24/106/37 31/95/34 25/107/37
f 24/108/36 29/5/33 30/109/33
f 17/110/15 3/99/35 1/21/15
f 17/111/17 27/103/36 28/112/36
f 19/26/19 27/103/37 18/27/19
f 19/113/17 25/107/36 26/114/36
f 21/31/19 25/107/37 20/32/19
f 21/115/17 23/2/36 24/116/36
f 2/1/1 4/4/3 23/2/2
f 4/4/3 6/6/4 29/5/4
f 6/6/4 8/8/6 35/7/5
f 8/8/6 10/117/7 41/9/7
f 41/10/7 10/16/7 12/11/8
f 47/12/9 12/11/8 14/13/10
f 6/17/11 4/118/11 2/119/11
f 2/119/11 16/120/11 14/15/11
f 14/15/11 12/11/11 10/16/11
f 10/16/11 8/121/11 6/17/11
f 6/17/11 2/119/11 14/15/11
f 53/14/10 14/13/10 16/18/12
f 59/19/13 16/18/12 2/1/1
f 64/20/14 17/110/15 1/21/15
f 63/23/16 18/27/17 17/24/17
f 63/23/18 62/40/18 19/26/19
f 61/28/16 20/32/17 19/29/17
f 61/28/18 60/44/18 21/31/19
f 59/19/16 22/3/17 21/33/17
f 58/35/20 64/20/14 15/22/14
f 57/37/21 63/23/16 64/38/16
f 57/37/22 56/52/22 62/40/18
f 55/41/21 61/28/16 62/42/16
f 55/41/22 54/56/22 60/44/18
f 53/14/21 59/19/16 60/45/16
f 52/47/23 58/35/20 13/36/20
f 51/49/24 57/37/21 58/50/21
f 51/49/25 50/64/25 56/52/22
f 49/53/24 55/41/21 56/54/21
f 49/53/25 48/68/25 54/56/22
f 47/12/24 53/14/21 54/57/21
f 46/59/26 52/47/23 11/48/23
f 45/61/27 51/49/24 52/62/24
f 45/61/28 44/122/28 50/64/25
f 43/65/27 49/53/24 50/66/24
f 43/65/28 42/123/28 48/68/25
f 41/10/27 47/12/24 48/69/24
f 40/71/29 46/124/26 9/72/26
f 40/74/30 39/78/30 45/75/27
f 38/77/31 44/125/28 45/75/28
f 38/79/30 37/83/30 43/80/27
f 36/82/31 42/126/28 43/80/28
f 36/84/30 35/7/30 41/9/27
f 34/86/32 40/71/29 7/73/29
f 34/88/33 33/91/33 39/78/30
f 32/90/34 38/77/31 39/78/31
f 32/92/33 31/95/33 37/83/30
f 30/94/34 36/82/31 37/83/31
f 30/96/33 29/5/33 35/7/30
f 28/98/35 34/86/32 5/87/32
f 28/100/36 27/103/36 33/91/33
f 26/102/37 32/90/34 33/91/34
f 26/104/36 25/107/36 31/95/33
f 24/106/37 30/94/34 31/95/34
f 24/108/36 23/2/36 29/5/33
f 17/110/15 28/98/35 3/99/35
f 17/111/17 18/27/17 27/103/36
f 19/26/19 26/102/37 27/103/37
f 19/113/17 20/32/17 25/107/36
f 21/31/19 24/106/37 25/107/37
f 21/115/17 22/3/17 23/2/36
f 1/127/11 68/128/11 69/129/11
f 15/130/11 69/129/11 72/131/11
f 7/132/11 67/133/11 5/134/11
f 11/135/11 65/136/11 9/137/11
f 11/135/11 73/138/11 74/139/11
f 13/140/11 72/131/11 73/138/11
f 9/141/11 66/142/11 7/132/11
f 5/134/11 68/128/11 3/143/11
f 68/144/35 77/145/15 69/146/15
f 67/147/32 76/148/35 68/144/35
f 65/149/26 70/150/29 66/151/29
f 74/152/23 71/153/26 65/149/26
f 69/146/15 78/154/14 72/155/14
f 73/156/20 80/157/23 74/152/23
f 66/151/29 75/158/32 67/147/32
f 72/155/14 79/159/20 73/160/20
f 70/161/38 82/162/39 81/163/38
f 79/164/40 86/165/41 87/166/40
f 77/167/42 86/165/41 78/168/41
f 80/169/43 87/166/40 88/170/43
f 71/171/39 88/170/43 82/172/39
f 70/161/38 83/173/44 75/174/44
f 76/175/45 85/176/42 77/167/42
f 75/174/44 84/177/45 76/175/45
f 84/178/35 93/179/15 85/180/15
f 83/181/32 92/182/35 84/178/35
f 82/183/26 89/184/29 81/185/29
f 86/186/14 95/187/20 87/188/20
f 85/180/15 94/189/14 86/186/14
f 87/188/20 96/190/23 88/191/23
f 81/185/29 91/192/32 83/181/32
f 88/191/23 90/193/26 82/194/26
f 1/127/11 3/143/11 68/128/11
f 15/130/11 1/127/11 69/129/11
f 7/132/11 66/142/11 67/133/11
f 11/135/11 74/139/11 65/136/11
f 11/135/11 13/140/11 73/138/11
f 13/140/11 15/130/11 72/131/11
f 9/141/11 65/195/11 66/142/11
f 5/134/11 67/133/11 68/128/11
f 68/144/35 76/148/35 77/145/15
f 67/147/32 75/158/32 76/148/35
f 65/149/26 71/153/26 70/150/29
f 74/152/23 80/157/23 71/153/26
f 69/146/15 77/145/15 78/154/14
f 73/156/20 79/196/20 80/157/23
f 66/151/29 70/150/29 75/158/32
f 72/155/14 78/154/14 79/159/20
f 70/161/38 71/197/39 82/162/39
f 79/164/40 78/168/41 86/165/41
f 77/167/42 85/176/42 86/165/41
f 80/169/43 79/164/40 87/166/40
f 71/171/39 80/169/43 88/170/43
f 70/161/38 81/163/38 83/173/44
f 76/175/45 84/177/45 85/176/42
f 75/174/44 83/173/44 84/177/45
f 84/178/35 92/182/35 93/179/15
f 83/181/32 91/192/32 92/182/35
f 82/183/26 90/198/26 89/184/29
f 86/186/14 94/189/14 95/187/20
f 85/180/15 93/179/15 94/189/14
f 87/188/20 95/187/20 96/190/23
f 81/185/29 89/184/29 91/192/32
f 88/191/23 96/190/23 90/193/26
