# Blender 5.1.2
# www.blender.org
mtllib tunnel_inner_dual.mtl
o TunnelArmInnerDual
g tunnel_inner_dual
v -0.291435 6.000000 0.006696
v -0.989336 6.301972 0.006697
v -0.632435 6.200000 0.006696
v -0.273432 6.019967 0.006696
v -0.982435 6.329857 0.006697
v -0.616786 6.223782 0.006696
v -0.273432 6.000000 0.006696
v -0.632435 6.200000 0.002696
v -0.989336 6.301972 0.002697
v -0.291435 6.000000 0.002696
v -0.616786 6.223782 0.002696
v -0.982435 6.329857 0.002697
v -0.273432 6.019967 0.002696
v -0.273432 6.000000 0.002696
v -1.024338 6.301971 -0.002303
v -1.017439 6.329857 -0.002303
v -1.017439 6.329857 -0.006303
v -1.024340 6.301972 -0.006303
v -0.308436 6.000000 -0.006304
v -0.308436 6.019967 -0.006304
v -0.651789 6.223782 -0.006304
v -0.326438 6.000000 -0.006304
v -0.667439 6.200000 -0.006304
v -0.308436 6.000000 -0.002304
v -0.651789 6.223782 -0.002304
v -0.308436 6.019967 -0.002304
v -0.667439 6.200000 -0.002304
v -0.326438 6.000000 -0.002304
vn -0.0000 -0.0000 1.0000
vn 0.5104 0.8599 -0.0000
vn -0.5059 -0.8626 -0.0000
vn -0.9707 0.2402 -0.0000
vn 0.2786 0.9604 -0.0000
vn -0.2747 -0.9615 -0.0000
vn 1.0000 -0.0000 -0.0000
vn -0.0000 -0.0000 -1.0000
vn -0.2747 -0.9615 0.0001
vn -0.9707 0.2402 0.0001
vn -0.9707 0.2402 0.0006
vt 0.976897 0.007160
vt 0.983131 0.003687
vt 0.977168 0.007573
vt 0.983131 0.004034
vt 0.982818 0.003687
vt 0.970819 0.009415
vt 0.970699 0.008931
vt 0.982523 0.003687
vt 0.982523 0.004034
vt 0.970091 0.008931
vt 0.976289 0.007160
vt 0.976560 0.007573
vt 0.970211 0.009415
vt 0.982210 0.003687
vt 0.970091 0.008931
s 1
usemtl Catenary
f 3/1/1 7/2/1 6/3/1
f 13/4/2 6/3/2 4/4/2
f 8/1/3 1/5/3 3/1/3
f 12/6/4 2/7/4 5/6/4
f 11/3/5 5/6/5 6/3/5
f 9/7/6 3/1/6 2/7/6
f 14/2/7 4/4/7 7/2/7
f 11/3/8 14/2/8 8/1/8
f 19/8/7 26/9/7 24/8/7
f 15/10/9 23/11/6 27/11/6
f 21/12/5 16/13/5 25/12/5
f 17/13/10 15/10/11 16/13/4
f 23/11/3 28/14/3 27/11/3
f 20/9/2 25/12/2 26/9/2
f 21/12/8 23/11/8 17/13/8
f 27/11/1 25/12/1 15/10/1
f 5/6/1 2/7/1 3/1/1
f 3/1/1 1/5/1 7/2/1
f 7/2/1 4/4/1 6/3/1
f 6/3/1 5/6/1 3/1/1
f 13/4/2 11/3/2 6/3/2
f 8/1/3 10/5/3 1/5/3
f 12/6/4 9/7/4 2/7/4
f 11/3/5 12/6/5 5/6/5
f 9/7/6 8/1/6 3/1/6
f 14/2/7 13/4/7 4/4/7
f 8/1/8 9/7/8 12/6/8
f 11/3/8 13/4/8 14/2/8
f 14/2/8 10/5/8 8/1/8
f 8/1/8 12/6/8 11/3/8
f 19/8/7 20/9/7 26/9/7
f 15/10/9 18/15/9 23/11/6
f 21/12/5 17/13/5 16/13/5
f 17/13/10 18/15/11 15/10/11
f 23/11/3 22/14/3 28/14/3
f 20/9/2 21/12/2 25/12/2
f 21/12/8 20/9/8 19/8/8
f 19/8/8 22/14/8 23/11/8
f 23/11/8 18/15/8 17/13/8
f 21/12/8 19/8/8 23/11/8
f 27/11/1 28/14/1 24/8/1
f 24/8/1 26/9/1 25/12/1
f 25/12/1 16/13/1 15/10/1
f 27/11/1 24/8/1 25/12/1
o TunnelAngledInsulator
v -1.087852 6.340796 0.003614
v -1.102089 6.344838 0.102362
v -1.175223 6.365601 0.022523
v -1.184545 6.368248 0.102362
v -1.257679 6.389010 0.038935
v -1.265246 6.362355 0.027457
v -1.203857 6.300225 0.073072
v -1.179277 6.351322 0.016375
v -1.121401 6.276816 0.073072
v -1.088599 6.338166 0.002482
v -1.268381 6.351314 -0.000252
v -1.211856 6.272049 0.002362
v -1.180956 6.345407 0.001531
v -1.129400 6.248640 0.002362
v -1.088908 6.337077 -0.000252
v -1.265246 6.362355 -0.027961
v -1.203857 6.300225 -0.068349
v -1.179058 6.352095 -0.014596
v -1.121401 6.276816 -0.068349
v -1.088599 6.338166 -0.002986
v -1.257679 6.389010 -0.039439
v -1.184545 6.368248 -0.097638
v -1.175223 6.365601 -0.020487
v -1.102089 6.344838 -0.097638
v -1.087852 6.340796 -0.004118
v -1.250111 6.415667 -0.027961
v -1.165233 6.436270 -0.068349
v -1.171389 6.379107 -0.014596
v -1.082778 6.412861 -0.068349
v -1.087106 6.343426 -0.002986
v -1.246976 6.426708 -0.000252
v -1.157234 6.464446 0.002362
v -1.169490 6.385795 0.001531
v -1.074778 6.441037 0.002362
v -1.086796 6.344515 -0.000252
v -1.250111 6.415667 0.027457
v -1.165233 6.436270 0.073072
v -1.171170 6.379880 0.016375
v -1.082778 6.412861 0.073072
v -1.087106 6.343426 0.002482
v -1.257659 6.389081 0.004892
v -1.258652 6.385581 0.003386
v -1.259064 6.384132 -0.000252
v -1.258652 6.385581 -0.003890
v -1.257659 6.389081 -0.005396
v -1.256665 6.392580 -0.003890
v -1.256254 6.394030 -0.000252
v -1.256665 6.392580 0.003386
v -0.948355 6.301192 0.003614
v -0.950184 6.294751 0.002482
v -0.950184 6.294751 -0.002986
v -0.948355 6.301192 -0.004118
v -0.946526 6.307634 -0.002986
v -0.946526 6.307634 0.002482
v -2.058720 6.616563 0.004892
v -2.059713 6.613064 0.003386
v -2.060125 6.611615 -0.000252
v -2.059713 6.613064 -0.003890
v -2.058720 6.616563 -0.005396
v -2.057727 6.620063 -0.003890
v -2.057315 6.621512 -0.000252
v -2.057727 6.620063 0.003386
v -0.986310 6.314810 -0.002986
v -0.986001 6.315899 -0.000252
v -0.987804 6.309550 0.002482
v -0.988113 6.308461 -0.000252
v -0.987057 6.312180 -0.004118
v -0.987057 6.312180 0.003614
v -0.986310 6.314810 0.002482
v -0.987804 6.309550 -0.002986
v -0.983573 6.318152 -0.000252
v -0.987231 6.305268 -0.000252
v -0.983573 6.318152 -0.002986
v -0.987231 6.305269 0.002482
v -0.985402 6.311710 -0.004118
v -0.985402 6.311710 0.003614
v -0.983573 6.318152 0.002482
v -0.987231 6.305269 -0.002986
vn 0.9799 -0.1688 0.1060
vn 0.9514 -0.2701 0.1482
vn 0.9802 -0.1677 0.1049
vn -0.5624 0.6668 0.4889
vn -0.6967 0.1978 0.6896
vn 0.9782 -0.1890 0.0856
vn 0.9550 -0.2711 0.1205
vn 0.9783 -0.1887 0.0852
vn -0.4634 0.6966 0.5477
vn -0.6163 0.1750 0.7679
vn 0.9923 -0.1236 0.0007
vn 0.9923 -0.1235 -0.0016
vn -0.5038 0.8638 0.0010
vn -0.5620 0.6682 0.4875
vn 0.9881 -0.1540 0.0002
vn 0.9880 -0.1544 -0.0010
vn -0.3877 0.9218 0.0042
vn -0.4619 0.7017 0.5424
vn 0.9804 -0.1640 -0.1093
vn 0.9801 -0.1651 -0.1105
vn -0.5535 0.6719 -0.4921
vn -0.5058 0.8626 -0.0052
vn 0.9786 -0.1868 -0.0869
vn 0.9780 -0.1886 -0.0888
vn -0.4364 0.7069 -0.5566
vn -0.3875 0.9219 -0.0066
vn 0.9502 -0.2698 -0.1563
vn -0.6855 0.1946 -0.7016
vn -0.5555 0.6642 -0.5003
vn 0.9545 -0.2710 -0.1245
vn 0.9545 -0.2710 -0.1246
vn -0.5848 0.1660 -0.7940
vn -0.4378 0.7017 -0.5621
vn 0.9206 -0.3745 -0.1105
vn -0.8216 -0.2732 -0.5003
vn -0.8240 -0.2808 -0.4921
vn 0.9312 -0.3534 -0.0888
vn -0.7412 -0.3669 -0.5621
vn -0.7428 -0.3721 -0.5566
vn 0.9092 -0.4163 -0.0016
vn 0.9203 -0.3756 -0.1093
vn -0.8836 -0.4682 -0.0052
vn -0.8826 -0.4702 0.0010
vn 0.9218 -0.3878 -0.0010
vn 0.9307 -0.3552 -0.0869
vn -0.8141 -0.5807 -0.0066
vn -0.8142 -0.5805 0.0042
vn 0.9221 -0.3724 0.1049
vn 0.9092 -0.4163 0.0007
vn -0.8293 -0.2732 0.4875
vn -0.8289 -0.2718 0.4889
vn 0.9315 -0.3535 0.0852
vn 0.9216 -0.3882 0.0002
vn -0.7617 -0.3544 0.5424
vn -0.7603 -0.3492 0.5477
vn 0.9225 -0.3713 0.1060
vn 0.9316 -0.3532 0.0856
vn -0.6852 0.1945 -0.7019
vn -0.9620 0.2731 -0.0000
vn 0.2731 0.9620 -0.0000
vn -0.2731 -0.9620 0.0003
vn -0.2731 -0.9620 -0.0000
vn -0.4283 0.5175 -0.7408
vn -0.0000 -0.0000 -1.0000
vn -0.0644 0.0183 -0.9978
vn -0.6364 -0.2152 0.7407
vn -0.0000 -0.0000 1.0000
vn -0.0644 0.0183 0.9978
vn 0.0455 0.1604 0.9860
vn -0.4283 0.5175 0.7408
vn -0.0455 -0.1604 -0.9860
vn -0.6364 -0.2152 -0.7407
vn 0.2732 0.9620 -0.0000
vn 0.1932 0.6802 -0.7071
vn 0.1932 0.6802 0.7071
vn -0.1932 -0.6802 0.7071
vn -0.1932 -0.6802 -0.7071
vn -0.2732 -0.9620 -0.0000
vn -0.1931 -0.6802 -0.7071
vn 0.1931 0.6802 0.7071
vn -0.4445 -0.4125 -0.7952
vn -0.1615 0.5845 0.7952
vn -0.1931 -0.6802 0.7071
vn 0.1931 0.6802 -0.7071
vn -0.4445 -0.4125 0.7952
vn -0.1615 0.5845 -0.7952
vn -0.9834 -0.1815 -0.0000
vn -0.9639 -0.2663 -0.0000
vn -0.7413 0.6711 -0.0000
vn -0.6802 0.7331 -0.0000
vn 0.9620 -0.2731 -0.0000
vn 0.0455 0.1604 -0.9860
vn -0.0455 -0.1604 0.9860
vn -0.2731 -0.9620 -0.0003
vt 0.959703 0.009387
vt 0.960882 0.008099
vt 0.960684 0.009187
vt 0.957954 0.007566
vt 0.960035 0.007566
vt 0.962915 0.005744
vt 0.961736 0.007033
vt 0.961934 0.005945
vt 0.964664 0.007566
vt 0.962584 0.007566
vt 0.958751 0.010974
vt 0.960309 0.010184
vt 0.959740 0.011133
vt 0.957756 0.008654
vt 0.963867 0.004157
vt 0.962309 0.004947
vt 0.962878 0.003998
vt 0.964862 0.006477
vt 0.957301 0.012125
vt 0.959037 0.011934
vt 0.958171 0.012621
vt 0.957187 0.009603
vt 0.965317 0.003006
vt 0.963581 0.003197
vt 0.964447 0.002510
vt 0.965431 0.005529
vt 0.955539 0.012691
vt 0.957231 0.013124
vt 0.956177 0.013462
vt 0.956321 0.010290
vt 0.967079 0.002440
vt 0.965388 0.002008
vt 0.966441 0.001669
vt 0.966297 0.004841
vt 0.957231 0.002008
vt 0.955539 0.002440
vt 0.956177 0.001669
vt 0.956321 0.004841
vt 0.957301 0.003006
vt 0.965388 0.013124
vt 0.967079 0.012691
vt 0.966441 0.013462
vt 0.966297 0.010290
vt 0.965317 0.012125
vt 0.959037 0.003197
vt 0.958171 0.002510
vt 0.957187 0.005529
vt 0.958751 0.004157
vt 0.963581 0.011934
vt 0.964447 0.012621
vt 0.965431 0.009603
vt 0.963867 0.010974
vt 0.960309 0.004947
vt 0.959740 0.003998
vt 0.957756 0.006477
vt 0.959703 0.005744
vt 0.962309 0.010184
vt 0.962878 0.011133
vt 0.964862 0.008654
vt 0.962915 0.009387
vt 0.960882 0.007033
vt 0.960684 0.005945
vt 0.961736 0.008099
vt 0.961934 0.009187
vt 0.955268 0.010628
vt 0.967350 0.004503
vt 0.955268 0.004503
vt 0.967350 0.010628
vt 0.974174 0.011647
vt 0.974914 0.011060
vt 0.976000 0.005093
vt 0.975514 0.004283
vt 0.973371 0.012076
vt 0.972472 0.012365
vt 0.976321 0.005945
vt 0.976490 0.006874
vt 0.976490 0.007784
vt 0.976321 0.008714
vt 0.972472 0.002294
vt 0.973371 0.002583
vt 0.975514 0.010376
vt 0.976000 0.009566
vt 0.974914 0.003599
vt 0.974174 0.003012
vt 0.976600 0.005529
vt 0.977467 0.004841
vt 0.976031 0.006477
vt 0.975833 0.007566
vt 0.976031 0.008654
vt 0.977467 0.010290
vt 0.976600 0.009603
vt 0.978520 0.004503
vt 0.978520 0.010628
s 1
usemtl Catenary
f 67/16/12 29/17/13 68/18/14
f 67/16/15 31/19/16 30/20/16
f 65/21/17 31/22/18 66/23/19
f 65/21/20 33/24/21 32/25/21
f 62/26/22 68/27/14 63/28/23
f 62/26/24 66/29/25 67/16/15
f 60/30/26 66/31/19 61/32/27
f 60/30/28 64/33/29 65/21/20
f 57/34/30 63/35/23 58/36/31
f 57/34/32 61/37/33 62/26/24
f 55/38/34 61/39/27 56/40/35
f 55/38/36 59/41/37 60/30/28
f 52/42/38 58/43/31 53/44/38
f 52/42/39 56/45/40 57/34/32
f 50/46/41 56/47/35 51/48/42
f 50/46/43 54/49/44 55/38/36
f 48/50/45 52/51/38 53/52/38
f 46/53/46 52/51/39 47/54/47
f 46/55/48 50/56/41 51/57/42
f 44/58/49 50/56/43 45/59/50
f 43/60/51 47/54/52 48/61/45
f 41/62/53 47/54/47 42/63/54
f 41/64/55 45/59/56 46/65/48
f 39/66/57 45/59/50 40/67/58
f 38/68/59 42/63/60 43/69/51
f 36/70/61 42/63/54 37/71/62
f 36/72/63 40/67/64 41/73/55
f 34/74/65 40/67/58 35/75/66
f 29/76/13 37/71/67 38/77/59
f 31/19/16 37/71/62 30/20/16
f 31/78/18 35/75/68 36/79/63
f 33/24/21 35/75/66 32/25/21
f 67/16/12 30/20/13 29/17/13
f 67/16/15 66/29/25 31/19/16
f 65/21/17 32/25/18 31/22/18
f 65/21/20 64/33/29 33/24/21
f 62/26/22 67/16/12 68/27/14
f 62/26/24 61/37/33 66/29/25
f 60/30/26 65/21/17 66/31/19
f 60/30/28 59/41/37 64/33/29
f 57/34/30 62/26/22 63/35/23
f 57/34/32 56/45/40 61/37/33
f 55/38/34 60/30/26 61/39/27
f 55/38/36 54/49/44 59/41/37
f 52/42/38 57/34/30 58/43/31
f 52/42/39 51/80/69 56/45/40
f 50/46/41 55/38/34 56/47/35
f 50/46/43 49/81/43 54/49/44
f 48/50/45 47/54/52 52/51/38
f 46/53/46 51/82/69 52/51/39
f 46/55/48 45/59/56 50/56/41
f 44/58/49 49/83/43 50/56/43
f 43/60/51 42/63/60 47/54/52
f 41/62/53 46/53/46 47/54/47
f 41/64/55 40/67/64 45/59/56
f 39/66/57 44/58/49 45/59/50
f 38/68/59 37/71/67 42/63/60
f 36/70/61 41/62/53 42/63/54
f 36/72/63 35/75/68 40/67/64
f 34/74/65 39/66/57 40/67/58
f 29/76/13 30/20/13 37/71/67
f 31/19/16 36/70/61 37/71/62
f 31/78/18 32/25/18 35/75/68
f 33/24/21 34/74/65 35/75/66
f 59/41/70 76/33/70 64/33/70
f 44/58/70 71/66/70 72/58/70
f 59/41/70 74/49/70 75/41/70
f 34/74/70 71/66/70 39/66/70
f 54/49/70 73/81/70 74/49/70
f 33/24/70 70/74/70 34/74/70
f 64/33/70 69/24/70 33/24/70
f 49/83/70 72/58/70 73/83/70
f 101/84/71 99/85/71 81/84/71
f 102/86/72 100/87/73 78/86/73
f 101/88/74 80/89/75 103/89/76
f 102/90/77 77/91/78 104/91/79
f 104/92/79 82/93/80 105/93/81
f 103/94/76 79/95/82 106/95/83
f 99/96/71 82/97/71 81/96/71
f 100/98/73 79/99/73 78/98/73
f 75/100/84 88/101/85 89/100/84
f 76/102/86 83/103/78 69/103/78
f 69/103/78 84/104/87 70/104/87
f 72/105/88 85/106/89 86/105/88
f 74/101/85 87/107/75 88/101/85
f 75/100/84 90/102/86 76/102/86
f 70/104/87 85/106/89 71/106/89
f 73/108/75 86/105/88 87/108/75
f 48/99/90 94/98/73 43/98/73
f 68/97/91 92/96/71 63/96/71
f 53/94/75 98/95/92 48/95/90
f 29/92/78 97/93/93 68/93/91
f 38/90/94 96/91/78 29/91/78
f 58/88/95 95/89/75 53/89/75
f 43/87/73 93/86/96 38/86/94
f 63/85/71 91/84/97 58/84/95
f 94/98/98 106/99/83 100/98/99
f 92/96/100 105/97/81 99/96/101
f 98/95/92 103/94/76 106/95/83
f 97/93/93 104/92/79 105/93/81
f 93/90/96 104/91/79 96/91/78
f 91/88/97 103/89/76 95/89/75
f 94/87/98 102/86/77 93/86/96
f 92/85/100 101/84/74 91/84/97
f 77/92/102 81/96/102 82/97/102
f 80/89/102 78/98/102 79/99/102
f 59/41/70 75/41/70 76/33/70
f 44/58/70 39/66/70 71/66/70
f 59/41/70 54/49/70 74/49/70
f 34/74/70 70/74/70 71/66/70
f 54/49/70 49/81/70 73/81/70
f 33/24/70 69/24/70 70/74/70
f 64/33/70 76/33/70 69/24/70
f 49/83/70 44/58/70 72/58/70
f 101/88/74 81/88/103 80/89/75
f 102/90/77 78/90/104 77/91/78
f 104/92/79 77/92/78 82/93/80
f 103/94/76 80/94/75 79/95/82
f 99/96/71 105/97/71 82/97/71
f 100/98/73 106/99/105 79/99/73
f 75/100/84 74/101/85 88/101/85
f 76/102/86 90/102/86 83/103/78
f 69/103/78 83/103/78 84/104/87
f 72/105/88 71/106/89 85/106/89
f 74/101/85 73/107/75 87/107/75
f 75/100/84 89/100/84 90/102/86
f 70/104/87 84/104/87 85/106/89
f 73/108/75 72/105/88 86/105/88
f 48/99/90 98/99/92 94/98/73
f 68/97/91 97/97/93 92/96/71
f 53/94/75 95/94/75 98/95/92
f 29/92/78 96/92/78 97/93/93
f 38/90/94 93/90/96 96/91/78
f 58/88/95 91/88/97 95/89/75
f 43/87/73 94/87/73 93/86/96
f 63/85/71 92/85/71 91/84/97
f 94/98/98 98/99/92 106/99/83
f 92/96/100 97/97/93 105/97/81
f 98/95/92 95/94/75 103/94/76
f 97/93/93 96/92/78 104/92/79
f 93/90/96 102/90/77 104/91/79
f 91/88/97 101/88/74 103/89/76
f 94/87/98 100/87/99 102/86/77
f 92/85/100 99/85/101 101/84/74
f 77/92/102 80/89/102 81/96/102
f 80/89/102 77/91/102 78/98/102
o TunnelVerticalInsulator
v -0.300000 7.039817 0.008762
v -0.300000 7.054616 0.102362
v -0.300000 7.130641 0.022523
v -0.300000 7.140331 0.102362
v -0.300000 7.216355 0.038935
v -0.327709 7.216355 0.027457
v -0.370711 7.140331 0.073072
v -0.314843 7.130641 0.016375
v -0.370711 7.054616 0.073072
v -0.306374 7.039817 0.006122
v -0.339187 7.216355 -0.000252
v -0.400000 7.140331 0.002362
v -0.320992 7.130641 0.001532
v -0.400000 7.054616 0.002362
v -0.309014 7.039817 -0.000252
v -0.327709 7.216355 -0.027961
v -0.370711 7.140331 -0.068349
v -0.314040 7.130641 -0.014596
v -0.370711 7.054616 -0.068349
v -0.306374 7.039817 -0.006626
v -0.300000 7.216355 -0.039439
v -0.300000 7.140331 -0.097638
v -0.300000 7.130641 -0.020487
v -0.300000 7.054616 -0.097638
v -0.300000 7.039817 -0.009266
v -0.272291 7.216355 -0.027961
v -0.229289 7.140331 -0.068349
v -0.285960 7.130641 -0.014596
v -0.229289 7.054616 -0.068349
v -0.293626 7.039817 -0.006626
v -0.260813 7.216355 -0.000252
v -0.200000 7.140331 0.002362
v -0.279008 7.130641 0.001532
v -0.200000 7.054616 0.002362
v -0.290986 7.039817 -0.000252
v -0.272291 7.216355 0.027457
v -0.229289 7.140331 0.073072
v -0.285157 7.130641 0.016375
v -0.229289 7.054616 0.073072
v -0.293626 7.039817 0.006122
v -0.300000 7.216355 0.018017
v -0.312918 7.216355 0.012666
v -0.318269 7.216355 -0.000252
v -0.312918 7.216355 -0.013170
v -0.300000 7.216355 -0.018521
v -0.287082 7.216355 -0.013170
v -0.281731 7.216355 -0.000252
v -0.287082 7.216355 0.012666
v -0.300000 7.334884 0.018017
v -0.312918 7.334884 0.012666
v -0.318269 7.334884 -0.000252
v -0.312918 7.334884 -0.013170
v -0.300000 7.334884 -0.018521
v -0.287082 7.334884 -0.013170
v -0.281731 7.334884 -0.000252
v -0.287082 7.334884 0.012666
v -0.300000 7.350073 -0.000252
v -0.318269 7.350073 -0.000252
v -0.281731 7.350073 -0.000252
v -0.287082 7.334884 -0.034276
v -0.281731 7.334884 -0.021358
v -0.300000 7.334884 -0.039627
v -0.312918 7.334884 -0.034276
v -0.318269 7.334884 -0.021358
v -0.287082 7.350073 -0.034276
v -0.281731 7.350073 -0.021358
v -0.300000 7.350073 -0.039627
v -0.312918 7.350073 -0.034276
v -0.318269 7.350073 -0.021358
v -0.287082 7.334884 0.034282
v -0.300000 7.334884 0.039633
v -0.281731 7.334884 0.021364
v -0.312918 7.334884 0.034282
v -0.318269 7.334884 0.021364
v -0.287082 7.350073 0.034282
v -0.300000 7.350073 0.039633
v -0.281731 7.350073 0.021364
v -0.312918 7.350073 0.034282
v -0.318269 7.350073 0.021364
v -0.300000 6.986049 0.008762
v -0.306374 6.986049 0.006122
v -0.309014 6.986049 -0.000252
v -0.306374 6.986049 -0.006626
v -0.300000 6.986049 -0.009266
v -0.293626 6.986049 -0.006626
v -0.290986 6.986049 -0.000252
v -0.293626 6.986049 0.006122
vn 0.1109 -0.9875 0.1117
vn -0.0000 -0.9877 0.1562
vn 0.1122 -0.9875 0.1105
vn 0.4879 0.7231 0.4889
vn -0.0000 0.7242 0.6896
vn 0.0853 -0.9927 0.0856
vn -0.0000 -0.9927 0.1205
vn 0.0857 -0.9927 0.0852
vn 0.5436 0.6361 0.5477
vn -0.0000 0.6406 0.7679
vn 0.1605 -0.9870 0.0008
vn 0.1606 -0.9870 -0.0017
vn 0.6934 0.7206 0.0010
vn 0.4893 0.7231 0.4875
vn 0.1217 -0.9926 0.0002
vn 0.1213 -0.9926 -0.0010
vn 0.7808 0.6247 0.0042
vn 0.5489 0.6360 0.5424
vn 0.1162 -0.9865 -0.1154
vn 0.1149 -0.9865 -0.1167
vn 0.4952 0.7160 -0.4921
vn 0.6917 0.7222 -0.0052
vn 0.0876 -0.9924 -0.0869
vn 0.0857 -0.9924 -0.0888
vn 0.5609 0.6129 -0.5566
vn 0.7810 0.6245 -0.0066
vn -0.0000 -0.9863 -0.1652
vn -0.0000 0.7126 -0.7016
vn 0.4872 0.7158 -0.5003
vn -0.0000 -0.9922 -0.1245
vn -0.0000 -0.9922 -0.1246
vn -0.0000 0.6079 -0.7940
vn 0.5554 0.6128 -0.5621
vn -0.1149 -0.9865 -0.1167
vn -0.4872 0.7158 -0.5003
vn -0.4952 0.7160 -0.4921
vn -0.0857 -0.9924 -0.0888
vn -0.5554 0.6128 -0.5621
vn -0.5609 0.6129 -0.5566
vn -0.1606 -0.9870 -0.0017
vn -0.1162 -0.9865 -0.1154
vn -0.6917 0.7222 -0.0052
vn -0.6934 0.7206 0.0010
vn -0.1213 -0.9926 -0.0010
vn -0.0876 -0.9924 -0.0869
vn -0.7810 0.6245 -0.0066
vn -0.7808 0.6247 0.0042
vn -0.1122 -0.9875 0.1105
vn -0.1605 -0.9870 0.0008
vn -0.4893 0.7231 0.4875
vn -0.4879 0.7231 0.4889
vn -0.0857 -0.9927 0.0852
vn -0.1217 -0.9926 0.0002
vn -0.5489 0.6360 0.5424
vn -0.5436 0.6361 0.5477
vn -0.1109 -0.9875 0.1117
vn -0.0853 -0.9927 0.0856
vn -0.0000 0.7123 -0.7019
vn -0.0000 1.0000 -0.0000
vn -0.7071 -0.0000 -0.7071
vn -0.0000 -0.0000 -1.0000
vn 0.7071 -0.0000 -0.7071
vn 1.0000 -0.0000 -0.0000
vn 0.7071 -0.0000 0.7071
vn -0.0000 -0.0000 1.0000
vn -0.7071 -0.0000 0.7071
vn -1.0000 -0.0000 -0.0000
vn -0.9701 -0.2425 -0.0000
vn -0.9808 -0.0000 0.1951
vn -0.0000 -1.0000 -0.0000
vn -0.7319 -0.6657 -0.1456
vn 0.9808 -0.0000 -0.1951
vn 0.7319 -0.6657 -0.1456
vn 0.9701 -0.2425 -0.0000
vn -0.7319 -0.6657 0.1456
vn 0.7319 -0.6657 0.1456
vn -0.9808 -0.0000 -0.1951
vn 0.9808 -0.0000 0.1951
vt 0.959703 0.009387
vt 0.960882 0.008099
vt 0.960684 0.009187
vt 0.957954 0.007566
vt 0.960035 0.007566
vt 0.962915 0.005744
vt 0.961736 0.007033
vt 0.961934 0.005945
vt 0.964664 0.007566
vt 0.962584 0.007566
vt 0.958751 0.010974
vt 0.960309 0.010184
vt 0.959740 0.011133
vt 0.957756 0.008654
vt 0.963867 0.004157
vt 0.962309 0.004947
vt 0.962878 0.003998
vt 0.964862 0.006477
vt 0.957301 0.012125
vt 0.959037 0.011934
vt 0.958171 0.012621
vt 0.957187 0.009603
vt 0.965317 0.003006
vt 0.963581 0.003197
vt 0.964447 0.002510
vt 0.965431 0.005529
vt 0.955539 0.012691
vt 0.957231 0.013124
vt 0.956177 0.013462
vt 0.956321 0.010290
vt 0.967079 0.002440
vt 0.965388 0.002008
vt 0.966441 0.001669
vt 0.966297 0.004841
vt 0.957231 0.002008
vt 0.955539 0.002440
vt 0.956177 0.001669
vt 0.956321 0.004841
vt 0.957301 0.003006
vt 0.965388 0.013124
vt 0.967079 0.012691
vt 0.966441 0.013462
vt 0.966297 0.010290
vt 0.965317 0.012125
vt 0.959037 0.003197
vt 0.958171 0.002510
vt 0.957187 0.005529
vt 0.958751 0.004157
vt 0.963581 0.011934
vt 0.964447 0.012621
vt 0.965431 0.009603
vt 0.963867 0.010974
vt 0.960309 0.004947
vt 0.959740 0.003998
vt 0.957756 0.006477
vt 0.959703 0.005744
vt 0.962309 0.010184
vt 0.962878 0.011133
vt 0.964862 0.008654
vt 0.962915 0.009387
vt 0.960882 0.007033
vt 0.960684 0.005945
vt 0.961736 0.008099
vt 0.961934 0.009187
vt 0.955268 0.010628
vt 0.967350 0.004503
vt 0.955268 0.004503
vt 0.967350 0.010628
vt 0.981114 0.009656
vt 0.982013 0.009945
vt 0.981114 0.005003
vt 0.980374 0.005590
vt 0.979888 0.006400
vt 0.979719 0.007329
vt 0.979888 0.008259
vt 0.980374 0.009069
vt 0.982013 0.004714
vt 0.924092 -0.341471
vt 0.974914 0.011060
vt 0.974174 0.011647
vt 0.975514 0.004283
vt 0.976000 0.005093
vt 0.973371 0.012076
vt 0.972472 0.012365
vt 0.976321 0.005945
vt 0.976490 0.006874
vt 0.976490 0.007784
vt 0.976321 0.008714
vt 0.972472 0.002294
vt 0.973371 0.002583
vt 0.976000 0.009566
vt 0.975514 0.010376
vt 0.974174 0.003012
vt 0.974914 0.003599
s 1
usemtl Catenary
f 145/109/106 107/110/107 146/111/108
f 145/109/109 109/112/110 108/113/110
f 143/114/111 109/115/112 144/116/113
f 143/114/114 111/117/115 110/118/115
f 140/119/116 146/120/108 141/121/117
f 140/119/118 144/122/119 145/109/109
f 138/123/120 144/124/113 139/125/121
f 138/123/122 142/126/123 143/114/114
f 135/127/124 141/128/117 136/129/125
f 135/127/126 139/130/127 140/119/118
f 133/131/128 139/132/121 134/133/129
f 133/131/130 137/134/131 138/123/122
f 130/135/132 136/136/125 131/137/132
f 130/135/133 134/138/134 135/127/126
f 128/139/135 134/140/129 129/141/136
f 128/139/137 132/142/138 133/131/130
f 126/143/139 130/144/132 131/145/132
f 124/146/140 130/144/133 125/147/141
f 124/148/142 128/149/135 129/150/136
f 122/151/143 128/149/137 123/152/144
f 121/153/145 125/147/146 126/154/139
f 119/155/147 125/147/141 120/156/148
f 119/157/149 123/152/150 124/158/142
f 117/159/151 123/152/144 118/160/152
f 116/161/153 120/156/154 121/162/145
f 114/163/155 120/156/148 115/164/156
f 114/165/157 118/160/158 119/166/149
f 112/167/159 118/160/152 113/168/160
f 107/169/107 115/164/161 116/170/153
f 109/112/110 115/164/156 108/113/110
f 109/171/112 113/168/162 114/172/157
f 111/117/115 113/168/160 110/118/115
f 145/109/106 108/113/107 107/110/107
f 145/109/109 144/122/119 109/112/110
f 143/114/111 110/118/112 109/115/112
f 143/114/114 142/126/123 111/117/115
f 140/119/116 145/109/106 146/120/108
f 140/119/118 139/130/127 144/122/119
f 138/123/120 143/114/111 144/124/113
f 138/123/122 137/134/131 142/126/123
f 135/127/124 140/119/116 141/128/117
f 135/127/126 134/138/134 139/130/127
f 133/131/128 138/123/120 139/132/121
f 133/131/130 132/142/138 137/134/131
f 130/135/132 135/127/124 136/136/125
f 130/135/133 129/173/163 134/138/134
f 128/139/135 133/131/128 134/140/129
f 128/139/137 127/174/137 132/142/138
f 126/143/139 125/147/146 130/144/132
f 124/146/140 129/175/163 130/144/133
f 124/148/142 123/152/150 128/149/135
f 122/151/143 127/176/137 128/149/137
f 121/153/145 120/156/154 125/147/146
f 119/155/147 124/146/140 125/147/141
f 119/157/149 118/160/158 123/152/150
f 117/159/151 122/151/143 123/152/144
f 116/161/153 115/164/161 120/156/154
f 114/163/155 119/155/147 120/156/148
f 114/165/157 113/168/162 118/160/158
f 112/167/159 117/159/151 118/160/152
f 107/169/107 108/113/107 115/164/161
f 109/112/110 114/163/155 115/164/156
f 109/171/112 110/118/112 113/168/162
f 111/117/115 112/167/159 113/168/160
f 137/134/164 154/126/164 142/126/164
f 117/159/164 150/151/164 122/151/164
f 132/142/164 153/134/164 137/134/164
f 112/167/164 149/159/164 117/159/164
f 127/174/164 152/142/164 132/142/164
f 112/167/164 147/117/164 148/167/164
f 142/126/164 147/117/164 111/117/164
f 122/151/164 151/176/164 127/176/164
f 150/177/165 159/178/166 151/178/166
f 152/179/167 161/180/168 153/180/168
f 154/181/169 155/182/170 147/182/170
f 147/182/170 156/183/171 148/183/171
f 149/184/172 158/177/165 150/177/165
f 151/185/166 160/179/167 152/179/167
f 153/180/168 162/181/169 154/181/169
f 148/183/171 157/184/172 149/184/172
f 157/184/173 185/184/174 164/184/172
f 159/178/175 169/177/175 168/178/175
f 164/184/172 170/184/176 157/184/173
f 155/182/175 179/183/175 156/183/175
s 0
f 163/186/164 183/186/164 165/186/164
f 163/186/164 173/186/164 174/186/164
s 1
f 159/185/175 166/179/175 160/179/175
f 155/182/175 176/181/175 177/182/175
f 169/177/165 173/178/166 168/178/166
f 166/179/167 172/180/177 167/180/178
f 170/184/176 174/177/165 169/177/165
f 168/185/166 171/179/167 166/179/167
s 0
f 163/186/164 175/186/164 164/186/164
s 1
f 161/180/179 172/180/177 165/180/168
s 0
f 163/186/164 172/186/164 171/186/164
s 1
f 158/177/175 170/184/176 169/177/175
f 160/179/175 167/180/178 161/180/179
s 0
f 163/186/164 171/186/164 173/186/164
s 1
f 179/183/171 185/184/174 180/184/180
f 176/181/169 182/182/170 177/182/170
f 177/182/170 184/183/171 179/183/171
f 178/180/181 181/181/169 176/181/169
f 165/180/168 178/180/181 161/180/179
f 162/181/175 178/180/181 176/181/175
s 0
f 163/186/164 185/186/164 184/186/164
f 163/186/164 182/186/164 181/186/164
f 163/186/164 184/186/164 182/186/164
s 1
f 156/183/175 180/184/180 157/184/173
f 141/187/168 191/188/167 136/188/167
f 121/189/172 187/190/171 116/190/171
f 136/191/167 190/192/166 131/192/166
f 116/193/171 186/194/170 107/194/170
f 107/195/170 193/196/169 146/196/169
f 131/197/166 189/198/165 126/198/165
f 146/199/169 192/200/168 141/200/168
f 126/201/165 188/202/172 121/202/172
f 137/134/164 153/134/164 154/126/164
f 117/159/164 149/159/164 150/151/164
f 132/142/164 152/142/164 153/134/164
f 112/167/164 148/167/164 149/159/164
f 127/174/164 151/174/164 152/142/164
f 112/167/164 111/117/164 147/117/164
f 142/126/164 154/126/164 147/117/164
f 122/151/164 150/151/164 151/176/164
f 150/177/165 158/177/165 159/178/166
f 152/179/167 160/179/167 161/180/168
f 154/181/169 162/181/169 155/182/170
f 147/182/170 155/182/170 156/183/171
f 149/184/172 157/184/172 158/177/165
f 151/185/166 159/185/166 160/179/167
f 153/180/168 161/180/168 162/181/169
f 148/183/171 156/183/171 157/184/172
f 157/184/173 180/184/180 185/184/174
f 159/178/175 158/177/175 169/177/175
f 164/184/172 175/184/182 170/184/176
f 155/182/175 177/182/175 179/183/175
s 0
f 163/186/164 181/186/164 183/186/164
s 1
f 159/185/175 168/185/175 166/179/175
f 155/182/175 162/181/175 176/181/175
f 169/177/165 174/177/165 173/178/166
f 166/179/167 171/179/167 172/180/177
f 170/184/176 175/184/182 174/177/165
f 168/185/166 173/185/166 171/179/167
s 0
f 163/186/164 174/186/164 175/186/164
s 1
f 161/180/179 167/180/178 172/180/177
s 0
f 163/186/164 165/186/164 172/186/164
s 1
f 158/177/175 157/184/173 170/184/176
f 160/179/175 166/179/175 167/180/178
f 179/183/171 184/183/171 185/184/174
f 176/181/169 181/181/169 182/182/170
f 177/182/170 182/182/170 184/183/171
f 178/180/181 183/180/183 181/181/169
f 165/180/168 183/180/183 178/180/181
f 162/181/175 161/180/179 178/180/181
s 0
f 163/186/164 164/186/164 185/186/164
s 1
f 156/183/175 179/183/175 180/184/180
f 141/187/168 192/187/168 191/188/167
f 121/189/172 188/189/172 187/190/171
f 136/191/167 191/191/167 190/192/166
f 116/193/171 187/193/171 186/194/170
f 107/195/170 186/195/170 193/196/169
f 131/197/166 190/197/166 189/198/165
f 146/199/169 193/199/169 192/200/168
f 126/201/165 189/201/165 188/202/172
