# Blender 5.1.2
# www.blender.org
mtllib tunnel_outer_single.mtl
o TunnelArmOuterSingle
g tunnel_outer_single
v 0.309101 6.000000 -0.006696
v 1.007003 6.301972 -0.006697
v 0.650101 6.200000 -0.006696
v 0.291098 6.019967 -0.006696
v 1.000101 6.329857 -0.006697
v 0.634452 6.223782 -0.006696
v 0.291098 6.000000 -0.006696
v 0.650101 6.200000 -0.002696
v 1.007003 6.301972 -0.002697
v 0.309101 6.000000 -0.002696
v 0.634452 6.223782 -0.002696
v 1.000101 6.329857 -0.002697
v 0.291098 6.019967 -0.002696
v 0.291098 6.000000 -0.002696
vn -0.0000 -0.0000 -1.0000
vn -0.0000 -0.0000 1.0000
vn -0.5104 0.8599 -0.0000
vn 0.5059 -0.8626 -0.0000
vn 0.9707 0.2402 -0.0000
vn -0.2786 0.9604 -0.0000
vn 0.2747 -0.9615 -0.0000
vn -1.0000 -0.0000 -0.0000
vt 0.977026 0.007582
vt 0.969833 0.009091
vt 0.976724 0.007123
vt 0.969967 0.009630
vt 0.983656 0.003647
vt 0.983308 0.003261
vt 0.983656 0.003261
s 1
usemtl Catenary
f 6/1/1 2/2/1 3/3/1
f 8/3/2 12/4/2 11/1/2
f 13/5/3 6/1/3 4/5/3
f 8/3/4 1/6/4 3/3/4
f 12/4/5 2/2/5 5/4/5
f 11/1/6 5/4/6 6/1/6
f 9/2/7 3/3/7 2/2/7
f 14/7/8 4/5/8 7/7/8
f 3/3/1 1/6/1 7/7/1
f 7/7/1 4/5/1 6/1/1
f 6/1/1 5/4/1 2/2/1
f 3/3/1 7/7/1 6/1/1
f 11/1/2 13/5/2 14/7/2
f 14/7/2 10/6/2 8/3/2
f 8/3/2 9/2/2 12/4/2
f 11/1/2 14/7/2 8/3/2
f 13/5/3 11/1/3 6/1/3
f 8/3/4 10/6/4 1/6/4
f 12/4/5 9/2/5 2/2/5
f 11/1/6 12/4/6 5/4/6
f 9/2/7 8/3/7 3/3/7
f 14/7/8 13/5/8 4/5/8
o TunnelAngledInsulator.003
v 1.087852 6.340796 -0.003615
v 1.102089 6.344838 -0.102362
v 1.175223 6.365601 -0.022524
v 1.184545 6.368248 -0.102362
v 1.257679 6.389010 -0.038935
v 1.265246 6.362355 -0.027458
v 1.203857 6.300225 -0.073073
v 1.179277 6.351322 -0.016375
v 1.121401 6.276816 -0.073073
v 1.088599 6.338166 -0.002482
v 1.268381 6.351314 0.000252
v 1.211856 6.272049 -0.002362
v 1.180956 6.345407 -0.001532
v 1.129400 6.248640 -0.002362
v 1.088908 6.337077 0.000252
v 1.265246 6.362355 0.027961
v 1.203857 6.300225 0.068349
v 1.179058 6.352095 0.014595
v 1.121401 6.276816 0.068349
v 1.088599 6.338166 0.002985
v 1.257679 6.389010 0.039438
v 1.184545 6.368248 0.097638
v 1.175223 6.365601 0.020487
v 1.102089 6.344838 0.097638
v 1.087852 6.340796 0.004118
v 1.250111 6.415667 0.027961
v 1.165233 6.436270 0.068349
v 1.171389 6.379107 0.014595
v 1.082778 6.412861 0.068349
v 1.087106 6.343426 0.002985
v 1.246976 6.426708 0.000252
v 1.157234 6.464446 -0.002362
v 1.169490 6.385795 -0.001532
v 1.074778 6.441037 -0.002362
v 1.086796 6.344515 0.000252
v 1.250111 6.415667 -0.027458
v 1.165233 6.436270 -0.073073
v 1.171170 6.379880 -0.016375
v 1.082778 6.412861 -0.073073
v 1.087106 6.343426 -0.002482
v 1.257659 6.389081 -0.004893
v 1.258652 6.385581 -0.003386
v 1.259064 6.384132 0.000252
v 1.258652 6.385581 0.003889
v 1.257659 6.389081 0.005396
v 1.256665 6.392580 0.003889
v 1.256254 6.394030 0.000252
v 1.256665 6.392580 -0.003386
v 0.948355 6.301192 -0.003615
v 0.950184 6.294751 -0.002482
v 0.950184 6.294751 0.002985
v 0.948355 6.301192 0.004118
v 0.946526 6.307634 0.002985
v 0.946526 6.307634 -0.002482
v 2.058720 6.616564 -0.004893
v 2.059713 6.613064 -0.003386
v 2.060125 6.611615 0.000251
v 2.059713 6.613064 0.003889
v 2.058720 6.616564 0.005396
v 2.057726 6.620063 0.003889
v 2.057315 6.621512 0.000251
v 2.057726 6.620063 -0.003386
v 0.986310 6.314810 0.002985
v 0.986001 6.315899 0.000252
v 0.987804 6.309550 -0.002482
v 0.988113 6.308461 0.000252
v 0.987057 6.312180 0.004118
v 0.987057 6.312180 -0.003615
v 0.986310 6.314810 -0.002482
v 0.987804 6.309550 0.002985
v 0.983573 6.318152 0.000252
v 0.987231 6.305268 0.000252
v 0.983573 6.318152 0.002985
v 0.987231 6.305269 -0.002482
v 0.985402 6.311710 0.004118
v 0.985402 6.311710 -0.003615
v 0.983573 6.318152 -0.002482
v 0.987231 6.305269 0.002985
vn -0.9799 -0.1688 -0.1060
vn -0.9514 -0.2701 -0.1482
vn -0.9802 -0.1677 -0.1049
vn 0.5624 0.6668 -0.4889
vn 0.6967 0.1978 -0.6896
vn -0.9782 -0.1890 -0.0856
vn -0.9550 -0.2711 -0.1205
vn -0.9783 -0.1887 -0.0852
vn 0.4634 0.6966 -0.5477
vn 0.6163 0.1750 -0.7679
vn -0.9923 -0.1236 -0.0007
vn -0.9923 -0.1235 0.0016
vn 0.5038 0.8638 -0.0010
vn 0.5620 0.6682 -0.4875
vn -0.9881 -0.1540 -0.0002
vn -0.9880 -0.1544 0.0010
vn 0.3877 0.9218 -0.0042
vn 0.4619 0.7017 -0.5424
vn -0.9804 -0.1640 0.1093
vn -0.9801 -0.1651 0.1105
vn 0.5535 0.6719 0.4921
vn 0.5058 0.8626 0.0052
vn -0.9786 -0.1868 0.0869
vn -0.9780 -0.1886 0.0888
vn 0.4364 0.7069 0.5566
vn 0.3875 0.9219 0.0066
vn -0.9502 -0.2698 0.1563
vn 0.6855 0.1946 0.7016
vn 0.5555 0.6642 0.5003
vn -0.9545 -0.2710 0.1245
vn -0.9545 -0.2710 0.1246
vn 0.5848 0.1660 0.7940
vn 0.4378 0.7017 0.5621
vn -0.9206 -0.3745 0.1105
vn 0.8216 -0.2732 0.5003
vn 0.8240 -0.2808 0.4921
vn -0.9312 -0.3534 0.0888
vn 0.7412 -0.3669 0.5621
vn 0.7428 -0.3721 0.5566
vn -0.9092 -0.4163 0.0016
vn -0.9203 -0.3756 0.1093
vn 0.8836 -0.4682 0.0052
vn 0.8826 -0.4702 -0.0010
vn -0.9218 -0.3878 0.0010
vn -0.9307 -0.3552 0.0869
vn 0.8141 -0.5807 0.0066
vn 0.8142 -0.5805 -0.0042
vn -0.9221 -0.3724 -0.1049
vn -0.9092 -0.4163 -0.0007
vn 0.8293 -0.2732 -0.4875
vn 0.8289 -0.2718 -0.4889
vn -0.9315 -0.3535 -0.0852
vn -0.9216 -0.3882 -0.0002
vn 0.7617 -0.3544 -0.5424
vn 0.7603 -0.3492 -0.5477
vn -0.9225 -0.3713 -0.1060
vn -0.9316 -0.3532 -0.0856
vn 0.6852 0.1945 0.7019
vn 0.9620 0.2731 -0.0000
vn -0.2731 0.9620 -0.0000
vn 0.2731 -0.9620 -0.0003
vn 0.2731 -0.9620 -0.0000
vn 0.4283 0.5175 0.7408
vn -0.0000 -0.0000 1.0000
vn 0.0644 0.0183 0.9978
vn 0.6364 -0.2152 -0.7407
vn -0.0000 -0.0000 -1.0000
vn 0.0644 0.0183 -0.9978
vn -0.0455 0.1604 -0.9860
vn 0.4283 0.5175 -0.7408
vn 0.0455 -0.1604 0.9860
vn 0.6364 -0.2152 0.7407
vn -0.2732 0.9620 -0.0000
vn -0.1932 0.6802 0.7071
vn -0.1932 0.6802 -0.7071
vn 0.1932 -0.6802 -0.7071
vn 0.1932 -0.6802 0.7071
vn 0.2732 -0.9620 -0.0000
vn 0.1931 -0.6802 0.7071
vn -0.1931 0.6802 -0.7071
vn 0.4445 -0.4125 0.7952
vn 0.1615 0.5845 -0.7952
vn 0.1931 -0.6802 -0.7071
vn -0.1931 0.6802 0.7071
vn 0.4445 -0.4125 -0.7952
vn 0.1615 0.5845 0.7952
vn 0.9834 -0.1815 -0.0000
vn 0.9639 -0.2663 -0.0000
vn 0.7413 0.6711 -0.0000
vn 0.6802 0.7331 -0.0000
vn -0.9620 -0.2731 -0.0000
vn -0.0455 0.1604 0.9860
vn 0.0455 -0.1604 -0.9860
vn 0.2731 -0.9620 0.0003
vt 0.959703 0.009387
vt 0.960882 0.008099
vt 0.960684 0.009187
vt 0.957954 0.007566
vt 0.960035 0.007566
vt 0.962915 0.005744
vt 0.961736 0.007033
vt 0.961934 0.005945
vt 0.964664 0.007566
vt 0.962584 0.007566
vt 0.958751 0.010974
vt 0.960309 0.010184
vt 0.959740 0.011133
vt 0.957756 0.008654
vt 0.963867 0.004157
vt 0.962309 0.004947
vt 0.962878 0.003998
vt 0.964862 0.006477
vt 0.957301 0.012125
vt 0.959037 0.011934
vt 0.958171 0.012621
vt 0.957187 0.009603
vt 0.965317 0.003006
vt 0.963581 0.003197
vt 0.964447 0.002510
vt 0.965431 0.005529
vt 0.955539 0.012691
vt 0.957231 0.013124
vt 0.956177 0.013462
vt 0.956321 0.010290
vt 0.967079 0.002440
vt 0.965388 0.002008
vt 0.966441 0.001669
vt 0.966297 0.004841
vt 0.957231 0.002008
vt 0.955539 0.002440
vt 0.956177 0.001669
vt 0.956321 0.004841
vt 0.957301 0.003006
vt 0.965388 0.013124
vt 0.967079 0.012691
vt 0.966441 0.013462
vt 0.966297 0.010290
vt 0.965317 0.012125
vt 0.959037 0.003197
vt 0.958171 0.002510
vt 0.957187 0.005529
vt 0.958751 0.004157
vt 0.963581 0.011934
vt 0.964447 0.012621
vt 0.965431 0.009603
vt 0.963867 0.010974
vt 0.960309 0.004947
vt 0.959740 0.003998
vt 0.957756 0.006477
vt 0.959703 0.005744
vt 0.962309 0.010184
vt 0.962878 0.011133
vt 0.964862 0.008654
vt 0.962915 0.009387
vt 0.960882 0.007033
vt 0.960684 0.005945
vt 0.961736 0.008099
vt 0.961934 0.009187
vt 0.955268 0.010628
vt 0.967350 0.004503
vt 0.955268 0.004503
vt 0.967350 0.010628
vt 0.974174 0.011647
vt 0.974914 0.011060
vt 0.976000 0.005093
vt 0.975514 0.004283
vt 0.973371 0.012076
vt 0.972472 0.012365
vt 0.976321 0.005945
vt 0.976490 0.006874
vt 0.976490 0.007784
vt 0.976321 0.008714
vt 0.972472 0.002294
vt 0.973371 0.002583
vt 0.975514 0.010376
vt 0.976000 0.009566
vt 0.974914 0.003599
vt 0.974174 0.003012
vt 0.976600 0.005529
vt 0.977467 0.004841
vt 0.976031 0.006477
vt 0.975833 0.007566
vt 0.976031 0.008654
vt 0.977467 0.010290
vt 0.976600 0.009603
vt 0.978520 0.004503
vt 0.978520 0.010628
s 1
usemtl Catenary
f 53/8/9 15/9/10 54/10/11
f 53/8/12 17/11/13 16/12/13
f 51/13/14 17/14/15 52/15/16
f 51/13/17 19/16/18 18/17/18
f 48/18/19 54/19/11 49/20/20
f 48/18/21 52/21/22 53/8/12
f 46/22/23 52/23/16 47/24/24
f 46/22/25 50/25/26 51/13/17
f 43/26/27 49/27/20 44/28/28
f 43/26/29 47/29/30 48/18/21
f 41/30/31 47/31/24 42/32/32
f 41/30/33 45/33/34 46/22/25
f 38/34/35 44/35/28 39/36/35
f 38/34/36 42/37/37 43/26/29
f 36/38/38 42/39/32 37/40/39
f 36/38/40 40/41/41 41/30/33
f 34/42/42 38/43/35 39/44/35
f 32/45/43 38/43/36 33/46/44
f 32/47/45 36/48/38 37/49/39
f 30/50/46 36/48/40 31/51/47
f 29/52/48 33/46/49 34/53/42
f 27/54/50 33/46/44 28/55/51
f 27/56/52 31/51/53 32/57/45
f 25/58/54 31/51/47 26/59/55
f 24/60/56 28/55/57 29/61/48
f 22/62/58 28/55/51 23/63/59
f 22/64/60 26/59/61 27/65/52
f 20/66/62 26/59/55 21/67/63
f 15/68/10 23/63/64 24/69/56
f 17/11/13 23/63/59 16/12/13
f 17/70/15 21/67/65 22/71/60
f 19/16/18 21/67/63 18/17/18
f 53/8/9 16/12/10 15/9/10
f 53/8/12 52/21/22 17/11/13
f 51/13/14 18/17/15 17/14/15
f 51/13/17 50/25/26 19/16/18
f 48/18/19 53/8/9 54/19/11
f 48/18/21 47/29/30 52/21/22
f 46/22/23 51/13/14 52/23/16
f 46/22/25 45/33/34 50/25/26
f 43/26/27 48/18/19 49/27/20
f 43/26/29 42/37/37 47/29/30
f 41/30/31 46/22/23 47/31/24
f 41/30/33 40/41/41 45/33/34
f 38/34/35 43/26/27 44/35/28
f 38/34/36 37/72/66 42/37/37
f 36/38/38 41/30/31 42/39/32
f 36/38/40 35/73/40 40/41/41
f 34/42/42 33/46/49 38/43/35
f 32/45/43 37/74/66 38/43/36
f 32/47/45 31/51/53 36/48/38
f 30/50/46 35/75/40 36/48/40
f 29/52/48 28/55/57 33/46/49
f 27/54/50 32/45/43 33/46/44
f 27/56/52 26/59/61 31/51/53
f 25/58/54 30/50/46 31/51/47
f 24/60/56 23/63/64 28/55/57
f 22/62/58 27/54/50 28/55/51
f 22/64/60 21/67/65 26/59/61
f 20/66/62 25/58/54 26/59/55
f 15/68/10 16/12/10 23/63/64
f 17/11/13 22/62/58 23/63/59
f 17/70/15 18/17/15 21/67/65
f 19/16/18 20/66/62 21/67/63
f 45/33/67 62/25/67 50/25/67
f 30/50/67 57/58/67 58/50/67
f 45/33/67 60/41/67 61/33/67
f 20/66/67 57/58/67 25/58/67
f 40/41/67 59/73/67 60/41/67
f 19/16/67 56/66/67 20/66/67
f 50/25/67 55/16/67 19/16/67
f 35/75/67 58/50/67 59/75/67
f 87/76/68 85/77/68 67/76/68
f 88/78/69 86/79/70 64/78/70
f 87/80/71 66/81/72 89/81/73
f 88/82/74 63/83/75 90/83/76
f 90/84/76 68/85/77 91/85/78
f 89/86/73 65/87/79 92/87/80
f 85/88/68 68/89/68 67/88/68
f 86/90/70 65/91/70 64/90/70
f 61/92/81 74/93/82 75/92/81
f 62/94/83 69/95/75 55/95/75
f 55/95/75 70/96/84 56/96/84
f 58/97/85 71/98/86 72/97/85
f 60/93/82 73/99/72 74/93/82
f 61/92/81 76/94/83 62/94/83
f 56/96/84 71/98/86 57/98/86
f 59/100/72 72/97/85 73/100/72
f 34/91/87 80/90/70 29/90/70
f 54/89/88 78/88/68 49/88/68
f 39/86/72 84/87/89 34/87/87
f 15/84/75 83/85/90 54/85/88
f 24/82/91 82/83/75 15/83/75
f 44/80/92 81/81/72 39/81/72
f 29/79/70 79/78/93 24/78/91
f 49/77/68 77/76/94 44/76/92
f 80/90/95 92/91/80 86/90/96
f 78/88/97 91/89/78 85/88/98
f 84/87/89 89/86/73 92/87/80
f 83/85/90 90/84/76 91/85/78
f 79/82/93 90/83/76 82/83/75
f 77/80/94 89/81/73 81/81/72
f 80/79/95 88/78/74 79/78/93
f 78/77/97 87/76/71 77/76/94
f 63/84/99 67/88/99 68/89/99
f 66/81/99 64/90/99 65/91/99
f 45/33/67 61/33/67 62/25/67
f 30/50/67 25/58/67 57/58/67
f 45/33/67 40/41/67 60/41/67
f 20/66/67 56/66/67 57/58/67
f 40/41/67 35/73/67 59/73/67
f 19/16/67 55/16/67 56/66/67
f 50/25/67 62/25/67 55/16/67
f 35/75/67 30/50/67 58/50/67
f 87/80/71 67/80/100 66/81/72
f 88/82/74 64/82/101 63/83/75
f 90/84/76 63/84/75 68/85/77
f 89/86/73 66/86/72 65/87/79
f 85/88/68 91/89/68 68/89/68
f 86/90/70 92/91/102 65/91/70
f 61/92/81 60/93/82 74/93/82
f 62/94/83 76/94/83 69/95/75
f 55/95/75 69/95/75 70/96/84
f 58/97/85 57/98/86 71/98/86
f 60/93/82 59/99/72 73/99/72
f 61/92/81 75/92/81 76/94/83
f 56/96/84 70/96/84 71/98/86
f 59/100/72 58/97/85 72/97/85
f 34/91/87 84/91/89 80/90/70
f 54/89/88 83/89/90 78/88/68
f 39/86/72 81/86/72 84/87/89
f 15/84/75 82/84/75 83/85/90
f 24/82/91 79/82/93 82/83/75
f 44/80/92 77/80/94 81/81/72
f 29/79/70 80/79/70 79/78/93
f 49/77/68 78/77/68 77/76/94
f 80/90/95 84/91/89 92/91/80
f 78/88/97 83/89/90 91/89/78
f 84/87/89 81/86/72 89/86/73
f 83/85/90 82/84/75 90/84/76
f 79/82/93 88/82/74 90/83/76
f 77/80/94 87/80/71 89/81/73
f 80/79/95 86/79/96 88/78/74
f 78/77/97 85/77/98 87/76/71
f 63/84/99 66/81/99 67/88/99
f 66/81/99 63/83/99 64/90/99
o TunnelVerticalInsulator.003
v 0.300000 7.039817 -0.008762
v 0.300000 7.054616 -0.102362
v 0.300000 7.130641 -0.022523
v 0.300000 7.140331 -0.102362
v 0.300000 7.216355 -0.038935
v 0.327709 7.216355 -0.027458
v 0.370711 7.140331 -0.073073
v 0.314843 7.130641 -0.016375
v 0.370711 7.054616 -0.073073
v 0.306374 7.039817 -0.006122
v 0.339187 7.216355 0.000252
v 0.400000 7.140331 -0.002362
v 0.320992 7.130641 -0.001532
v 0.400000 7.054616 -0.002362
v 0.309014 7.039817 0.000252
v 0.327709 7.216355 0.027961
v 0.370711 7.140331 0.068349
v 0.314040 7.130641 0.014596
v 0.370711 7.054616 0.068349
v 0.306374 7.039817 0.006626
v 0.300000 7.216355 0.039439
v 0.300000 7.140331 0.097638
v 0.300000 7.130641 0.020487
v 0.300000 7.054616 0.097638
v 0.300000 7.039817 0.009266
v 0.272291 7.216355 0.027961
v 0.229289 7.140331 0.068349
v 0.285960 7.130641 0.014596
v 0.229289 7.054616 0.068349
v 0.293626 7.039817 0.006626
v 0.260813 7.216355 0.000252
v 0.200000 7.140331 -0.002362
v 0.279008 7.130641 -0.001532
v 0.200000 7.054616 -0.002362
v 0.290986 7.039817 0.000252
v 0.272291 7.216355 -0.027458
v 0.229289 7.140331 -0.073072
v 0.285157 7.130641 -0.016375
v 0.229289 7.054616 -0.073072
v 0.293626 7.039817 -0.006122
v 0.300000 7.216355 -0.018017
v 0.312918 7.216355 -0.012666
v 0.318269 7.216355 0.000252
v 0.312918 7.216355 0.013170
v 0.300000 7.216355 0.018521
v 0.287082 7.216355 0.013170
v 0.281731 7.216355 0.000252
v 0.287082 7.216355 -0.012666
v 0.300000 7.334884 -0.018017
v 0.312918 7.334884 -0.012666
v 0.318269 7.334884 0.000252
v 0.312918 7.334884 0.013170
v 0.300000 7.334884 0.018521
v 0.287082 7.334884 0.013170
v 0.281731 7.334884 0.000252
v 0.287082 7.334884 -0.012666
v 0.300000 7.350073 0.000252
v 0.318269 7.350073 0.000252
v 0.281731 7.350073 0.000252
v 0.287082 7.334884 0.034276
v 0.281731 7.334884 0.021358
v 0.300000 7.334884 0.039627
v 0.312918 7.334884 0.034276
v 0.318269 7.334884 0.021358
v 0.287082 7.350073 0.034276
v 0.281731 7.350073 0.021358
v 0.300000 7.350073 0.039627
v 0.312918 7.350073 0.034276
v 0.318269 7.350073 0.021358
v 0.287082 7.334884 -0.034283
v 0.300000 7.334884 -0.039633
v 0.281731 7.334884 -0.021364
v 0.312918 7.334884 -0.034283
v 0.318269 7.334884 -0.021364
v 0.287082 7.350073 -0.034283
v 0.300000 7.350073 -0.039633
v 0.281731 7.350073 -0.021364
v 0.312918 7.350073 -0.034283
v 0.318269 7.350073 -0.021364
v 0.300000 6.986049 -0.008762
v 0.306374 6.986049 -0.006122
v 0.309014 6.986049 0.000252
v 0.306374 6.986049 0.006626
v 0.300000 6.986049 0.009266
v 0.293626 6.986049 0.006626
v 0.290986 6.986049 0.000252
v 0.293626 6.986049 -0.006122
vn -0.1109 -0.9875 -0.1117
vn -0.0000 -0.9877 -0.1562
vn -0.1122 -0.9875 -0.1105
vn -0.4879 0.7231 -0.4889
vn -0.0000 0.7242 -0.6896
vn -0.0853 -0.9927 -0.0856
vn -0.0000 -0.9927 -0.1205
vn -0.0857 -0.9927 -0.0852
vn -0.5436 0.6361 -0.5477
vn -0.0000 0.6406 -0.7679
vn -0.1605 -0.9870 -0.0008
vn -0.1606 -0.9870 0.0017
vn -0.6934 0.7206 -0.0010
vn -0.4893 0.7231 -0.4875
vn -0.1217 -0.9926 -0.0002
vn -0.1213 -0.9926 0.0010
vn -0.7808 0.6247 -0.0042
vn -0.5489 0.6360 -0.5424
vn -0.1162 -0.9865 0.1154
vn -0.1149 -0.9865 0.1167
vn -0.4952 0.7160 0.4921
vn -0.6917 0.7222 0.0052
vn -0.0876 -0.9924 0.0869
vn -0.0857 -0.9924 0.0888
vn -0.5609 0.6129 0.5566
vn -0.7810 0.6245 0.0066
vn -0.0000 -0.9863 0.1652
vn -0.0000 0.7126 0.7016
vn -0.4872 0.7158 0.5003
vn -0.0000 -0.9922 0.1245
vn -0.0000 -0.9922 0.1246
vn -0.0000 0.6079 0.7940
vn -0.5554 0.6128 0.5621
vn 0.1149 -0.9865 0.1167
vn 0.4872 0.7158 0.5003
vn 0.4952 0.7160 0.4921
vn 0.0857 -0.9924 0.0888
vn 0.5554 0.6128 0.5621
vn 0.5609 0.6129 0.5566
vn 0.1606 -0.9870 0.0017
vn 0.1162 -0.9865 0.1154
vn 0.6917 0.7222 0.0052
vn 0.6934 0.7206 -0.0010
vn 0.1213 -0.9926 0.0010
vn 0.0876 -0.9924 0.0869
vn 0.7810 0.6245 0.0066
vn 0.7808 0.6247 -0.0042
vn 0.1122 -0.9875 -0.1105
vn 0.1605 -0.9870 -0.0008
vn 0.4893 0.7231 -0.4875
vn 0.4879 0.7231 -0.4889
vn 0.0857 -0.9927 -0.0852
vn 0.1217 -0.9926 -0.0002
vn 0.5489 0.6360 -0.5424
vn 0.5436 0.6361 -0.5477
vn 0.1109 -0.9875 -0.1117
vn 0.0853 -0.9927 -0.0856
vn -0.0000 0.7123 0.7019
vn -0.0000 1.0000 -0.0000
vn 0.7071 -0.0000 0.7071
vn -0.0000 -0.0000 1.0000
vn -0.7071 -0.0000 0.7071
vn -1.0000 -0.0000 -0.0000
vn -0.7071 -0.0000 -0.7071
vn -0.0000 -0.0000 -1.0000
vn 0.7071 -0.0000 -0.7071
vn 1.0000 -0.0000 -0.0000
vn 0.9701 -0.2425 -0.0000
vn 0.9808 -0.0000 -0.1951
vn -0.0000 -1.0000 -0.0000
vn 0.7319 -0.6657 0.1456
vn -0.9808 -0.0000 0.1951
vn -0.7319 -0.6657 0.1456
vn -0.9701 -0.2425 -0.0000
vn 0.7319 -0.6657 -0.1456
vn -0.7319 -0.6657 -0.1456
vn 0.9808 -0.0000 0.1951
vn -0.9808 -0.0000 -0.1951
vt 0.959703 0.009387
vt 0.960882 0.008099
vt 0.960684 0.009187
vt 0.957954 0.007566
vt 0.960035 0.007566
vt 0.962915 0.005744
vt 0.961736 0.007033
vt 0.961934 0.005945
vt 0.964664 0.007566
vt 0.962584 0.007566
vt 0.958751 0.010974
vt 0.960309 0.010184
vt 0.959740 0.011133
vt 0.957756 0.008654
vt 0.963867 0.004157
vt 0.962309 0.004947
vt 0.962878 0.003998
vt 0.964862 0.006477
vt 0.957301 0.012125
vt 0.959037 0.011934
vt 0.958171 0.012621
vt 0.957187 0.009603
vt 0.965317 0.003006
vt 0.963581 0.003197
vt 0.964447 0.002510
vt 0.965431 0.005529
vt 0.955539 0.012691
vt 0.957231 0.013124
vt 0.956177 0.013462
vt 0.956321 0.010290
vt 0.967079 0.002440
vt 0.965388 0.002008
vt 0.966441 0.001669
vt 0.966297 0.004841
vt 0.957231 0.002008
vt 0.955539 0.002440
vt 0.956177 0.001669
vt 0.956321 0.004841
vt 0.957301 0.003006
vt 0.965388 0.013124
vt 0.967079 0.012691
vt 0.966441 0.013462
vt 0.966297 0.010290
vt 0.965317 0.012125
vt 0.959037 0.003197
vt 0.958171 0.002510
vt 0.957187 0.005529
vt 0.958751 0.004157
vt 0.963581 0.011934
vt 0.964447 0.012621
vt 0.965431 0.009603
vt 0.963867 0.010974
vt 0.960309 0.004947
vt 0.959740 0.003998
vt 0.957756 0.006477
vt 0.959703 0.005744
vt 0.962309 0.010184
vt 0.962878 0.011133
vt 0.964862 0.008654
vt 0.962915 0.009387
vt 0.960882 0.007033
vt 0.960684 0.005945
vt 0.961736 0.008099
vt 0.961934 0.009187
vt 0.955268 0.010628
vt 0.967350 0.004503
vt 0.955268 0.004503
vt 0.967350 0.010628
vt 0.981114 0.009656
vt 0.982013 0.009945
vt 0.981114 0.005003
vt 0.980374 0.005590
vt 0.979888 0.006400
vt 0.979719 0.007329
vt 0.979888 0.008259
vt 0.980374 0.009069
vt 0.982013 0.004714
vt 0.924092 -0.341471
vt 0.974914 0.011060
vt 0.974174 0.011647
vt 0.975514 0.004283
vt 0.976000 0.005093
vt 0.973371 0.012076
vt 0.972472 0.012365
vt 0.976321 0.005945
vt 0.976490 0.006874
vt 0.976490 0.007784
vt 0.976321 0.008714
vt 0.972472 0.002294
vt 0.973371 0.002583
vt 0.976000 0.009566
vt 0.975514 0.010376
vt 0.974174 0.003012
vt 0.974914 0.003599
s 1
usemtl Catenary
f 131/101/103 93/102/104 132/103/105
f 131/101/106 95/104/107 94/105/107
f 129/106/108 95/107/109 130/108/110
f 129/106/111 97/109/112 96/110/112
f 126/111/113 132/112/105 127/113/114
f 126/111/115 130/114/116 131/101/106
f 124/115/117 130/116/110 125/117/118
f 124/115/119 128/118/120 129/106/111
f 121/119/121 127/120/114 122/121/122
f 121/119/123 125/122/124 126/111/115
f 119/123/125 125/124/118 120/125/126
f 119/123/127 123/126/128 124/115/119
f 116/127/129 122/128/122 117/129/129
f 116/127/130 120/130/131 121/119/123
f 114/131/132 120/132/126 115/133/133
f 114/131/134 118/134/135 119/123/127
f 112/135/136 116/136/129 117/137/129
f 110/138/137 116/136/130 111/139/138
f 110/140/139 114/141/132 115/142/133
f 108/143/140 114/141/134 109/144/141
f 107/145/142 111/139/143 112/146/136
f 105/147/144 111/139/138 106/148/145
f 105/149/146 109/144/147 110/150/139
f 103/151/148 109/144/141 104/152/149
f 102/153/150 106/148/151 107/154/142
f 100/155/152 106/148/145 101/156/153
f 100/157/154 104/152/155 105/158/146
f 98/159/156 104/152/149 99/160/157
f 93/161/104 101/156/158 102/162/150
f 95/104/107 101/156/153 94/105/107
f 95/163/109 99/160/159 100/164/154
f 97/109/112 99/160/157 96/110/112
f 131/101/103 94/105/104 93/102/104
f 131/101/106 130/114/116 95/104/107
f 129/106/108 96/110/109 95/107/109
f 129/106/111 128/118/120 97/109/112
f 126/111/113 131/101/103 132/112/105
f 126/111/115 125/122/124 130/114/116
f 124/115/117 129/106/108 130/116/110
f 124/115/119 123/126/128 128/118/120
f 121/119/121 126/111/113 127/120/114
f 121/119/123 120/130/131 125/122/124
f 119/123/125 124/115/117 125/124/118
f 119/123/127 118/134/135 123/126/128
f 116/127/129 121/119/121 122/128/122
f 116/127/130 115/165/160 120/130/131
f 114/131/132 119/123/125 120/132/126
f 114/131/134 113/166/134 118/134/135
f 112/135/136 111/139/143 116/136/129
f 110/138/137 115/167/160 116/136/130
f 110/140/139 109/144/147 114/141/132
f 108/143/140 113/168/134 114/141/134
f 107/145/142 106/148/151 111/139/143
f 105/147/144 110/138/137 111/139/138
f 105/149/146 104/152/155 109/144/147
f 103/151/148 108/143/140 109/144/141
f 102/153/150 101/156/158 106/148/151
f 100/155/152 105/147/144 106/148/145
f 100/157/154 99/160/159 104/152/155
f 98/159/156 103/151/148 104/152/149
f 93/161/104 94/105/104 101/156/158
f 95/104/107 100/155/152 101/156/153
f 95/163/109 96/110/109 99/160/159
f 97/109/112 98/159/156 99/160/157
f 123/126/161 140/118/161 128/118/161
f 103/151/161 136/143/161 108/143/161
f 118/134/161 139/126/161 123/126/161
f 98/159/161 135/151/161 103/151/161
f 113/166/161 138/134/161 118/134/161
f 98/159/161 133/109/161 134/159/161
f 128/118/161 133/109/161 97/109/161
f 108/143/161 137/168/161 113/168/161
f 136/169/162 145/170/163 137/170/163
f 138/171/164 147/172/165 139/172/165
f 140/173/166 141/174/167 133/174/167
f 133/174/167 142/175/168 134/175/168
f 135/176/169 144/169/162 136/169/162
f 137/177/163 146/171/164 138/171/164
f 139/172/165 148/173/166 140/173/166
f 134/175/168 143/176/169 135/176/169
f 143/176/170 171/176/171 150/176/169
f 145/170/172 155/169/172 154/170/172
f 150/176/169 156/176/173 143/176/170
f 141/174/172 165/175/172 142/175/172
s 0
f 149/178/161 169/178/161 151/178/161
f 149/178/161 159/178/161 160/178/161
s 1
f 145/177/172 152/171/172 146/171/172
f 141/174/172 162/173/172 163/174/172
f 155/169/162 159/170/163 154/170/163
f 152/171/164 158/172/174 153/172/175
f 156/176/173 160/169/162 155/169/162
f 154/177/163 157/171/164 152/171/164
s 0
f 149/178/161 161/178/161 150/178/161
s 1
f 147/172/176 158/172/174 151/172/165
s 0
f 149/178/161 158/178/161 157/178/161
s 1
f 144/169/172 156/176/173 155/169/172
f 146/171/172 153/172/175 147/172/176
s 0
f 149/178/161 157/178/161 159/178/161
s 1
f 165/175/168 171/176/171 166/176/177
f 162/173/166 168/174/167 163/174/167
f 163/174/167 170/175/168 165/175/168
f 164/172/178 167/173/166 162/173/166
f 151/172/165 164/172/178 147/172/176
f 148/173/172 164/172/178 162/173/172
s 0
f 149/178/161 171/178/161 170/178/161
f 149/178/161 168/178/161 167/178/161
f 149/178/161 170/178/161 168/178/161
s 1
f 142/175/172 166/176/177 143/176/170
f 127/179/165 177/180/164 122/180/164
f 107/181/169 173/182/168 102/182/168
f 122/183/164 176/184/163 117/184/163
f 102/185/168 172/186/167 93/186/167
f 93/187/167 179/188/166 132/188/166
f 117/189/163 175/190/162 112/190/162
f 132/191/166 178/192/165 127/192/165
f 112/193/162 174/194/169 107/194/169
f 123/126/161 139/126/161 140/118/161
f 103/151/161 135/151/161 136/143/161
f 118/134/161 138/134/161 139/126/161
f 98/159/161 134/159/161 135/151/161
f 113/166/161 137/166/161 138/134/161
f 98/159/161 97/109/161 133/109/161
f 128/118/161 140/118/161 133/109/161
f 108/143/161 136/143/161 137/168/161
f 136/169/162 144/169/162 145/170/163
f 138/171/164 146/171/164 147/172/165
f 140/173/166 148/173/166 141/174/167
f 133/174/167 141/174/167 142/175/168
f 135/176/169 143/176/169 144/169/162
f 137/177/163 145/177/163 146/171/164
f 139/172/165 147/172/165 148/173/166
f 134/175/168 142/175/168 143/176/169
f 143/176/170 166/176/177 171/176/171
f 145/170/172 144/169/172 155/169/172
f 150/176/169 161/176/179 156/176/173
f 141/174/172 163/174/172 165/175/172
s 0
f 149/178/161 167/178/161 169/178/161
s 1
f 145/177/172 154/177/172 152/171/172
f 141/174/172 148/173/172 162/173/172
f 155/169/162 160/169/162 159/170/163
f 152/171/164 157/171/164 158/172/174
f 156/176/173 161/176/179 160/169/162
f 154/177/163 159/177/163 157/171/164
s 0
f 149/178/161 160/178/161 161/178/161
s 1
f 147/172/176 153/172/175 158/172/174
s 0
f 149/178/161 151/178/161 158/178/161
s 1
f 144/169/172 143/176/170 156/176/173
f 146/171/172 152/171/172 153/172/175
f 165/175/168 170/175/168 171/176/171
f 162/173/166 167/173/166 168/174/167
f 163/174/167 168/174/167 170/175/168
f 164/172/178 169/172/180 167/173/166
f 151/172/165 169/172/180 164/172/178
f 148/173/172 147/172/176 164/172/178
s 0
f 149/178/161 150/178/161 171/178/161
s 1
f 142/175/172 165/175/172 166/176/177
f 127/179/165 178/179/165 177/180/164
f 107/181/169 174/181/169 173/182/168
f 122/183/164 177/183/164 176/184/163
f 102/185/168 173/185/168 172/186/167
f 93/187/167 172/187/167 179/188/166
f 117/189/163 176/189/163 175/190/162
f 132/191/166 179/191/166 178/192/165
f 112/193/162 175/193/162 174/194/169
