# Blender 5.0.1
# www.blender.org
mtllib wire_single.mtl
o Messenger.002
g wire_single
v 0.000022 6.995404 -0.007250
v 0.000172 6.995416 40.007248
v 0.009021 6.986404 -0.007385
v 0.009171 6.986416 40.007111
v 0.000022 6.977404 -0.007250
v 0.000172 6.977417 40.007248
v -0.008977 6.986404 -0.007114
v -0.008827 6.986416 40.007381
v 0.000097 6.502918 19.999998
v 0.009096 6.493918 19.999863
v 0.000097 6.484918 19.999998
v -0.008902 6.493918 20.000134
v 0.000134 6.636964 30.003622
v 0.009058 6.627957 9.996239
v 0.000059 6.618958 9.996374
v -0.008940 6.627957 9.996510
v 0.000059 6.636958 9.996374
v 0.009133 6.627964 30.003487
v 0.000134 6.618964 30.003622
v -0.008865 6.627964 30.003757
v 0.000153 6.792814 35.005436
v 0.009040 6.783804 4.994427
v 0.000041 6.774805 4.994561
v -0.008958 6.783804 4.994697
v 0.000078 6.546562 14.998186
v 0.009115 6.537565 25.001675
v 0.000116 6.528565 25.001810
v -0.008883 6.537565 25.001945
v 0.000116 6.546565 25.001810
v 0.009077 6.537562 14.998051
v 0.000078 6.528562 14.998186
v -0.008921 6.537562 14.998322
v 0.000041 6.792805 4.994561
v 0.009152 6.783814 35.005299
v 0.000153 6.774814 35.005436
v -0.008846 6.783814 35.005569
vn 0.0150 -0.0000 0.9999
vn -0.0150 -0.0000 -0.9999
vn -1.0000 -0.0020 -0.0001
vn -0.0000 1.0000 -0.0000
vn 0.0001 0.9999 0.0134
vn -0.0000 -1.0000 -0.0000
vn -0.0001 -0.9999 -0.0134
vn 1.0000 -0.0039 -0.0000
vn 1.0000 -0.0022 -0.0001
vn 0.0002 0.9997 0.0247
vn 1.0000 -0.0024 -0.0002
vn 0.0003 0.9994 0.0359
vn 1.0000 -0.0031 -0.0002
vn -0.0003 -0.9994 -0.0357
vn -1.0000 -0.0028 -0.0001
vn -1.0000 -0.0018 -0.0001
vn -1.0000 -0.0031 0.0002
vn -0.0001 0.9999 -0.0134
vn -1.0000 -0.0022 0.0001
vn 0.0002 -0.9997 0.0245
vn 0.0001 -0.9999 0.0134
vn 1.0000 -0.0020 0.0001
vn 1.0000 -0.0028 0.0001
vn -1.0000 -0.0039 -0.0000
vn -0.9998 0.0184 0.0007
vn 0.0072 0.9992 0.0405
vn 0.0063 -0.9992 -0.0405
vn 0.9998 0.0180 0.0007
vn -0.0002 -0.9997 -0.0245
vn -1.0000 -0.0024 0.0002
vn -0.0002 0.9997 -0.0247
vn 0.0003 -0.9994 0.0357
vn 1.0000 -0.0018 0.0001
vn -0.0003 0.9994 -0.0359
vn 0.9998 0.0184 -0.0007
vn -0.0063 -0.9992 0.0405
vn -0.9998 0.0180 -0.0007
vn -0.0072 0.9992 -0.0405
vt 0.988422 0.012220
vt 0.988422 0.012053
vt 0.988422 0.012137
vt 0.997748 0.012137
vt 0.997748 0.012137
vt 0.997748 0.012220
vt 0.994251 0.007969
vt 0.993085 0.007648
vt 0.994251 0.008053
vt 0.993085 0.007480
vt 0.994251 0.007886
vt 0.993085 0.007564
vt 0.994251 0.007969
vt 0.995417 0.008892
vt 0.996582 0.010256
vt 0.996582 0.010339
vt 0.995417 0.008809
vt 0.996582 0.010172
vt 0.995417 0.008809
vt 0.996582 0.010256
vt 0.990754 0.008809
vt 0.991919 0.008053
vt 0.991919 0.007969
vt 0.990754 0.008725
vt 0.991919 0.007886
vt 0.991919 0.007969
vt 0.990754 0.008809
vt 0.997748 0.012053
vt 0.995417 0.008725
vt 0.989588 0.010256
vt 0.990754 0.008892
vt 0.989588 0.010172
vt 0.989588 0.010339
vt 0.988422 0.012137
s 1
usemtl Catenary
f 2/1/1 6/2/1 4/3/1
f 3/4/2 7/5/2 1/6/2
f 32/7/3 9/8/4 25/9/5
f 11/10/6 32/7/3 31/11/7
f 10/12/8 31/11/7 30/13/9
f 25/9/5 10/12/8 30/13/9
f 17/14/10 22/15/11 33/16/12
f 14/17/13 23/18/14 22/15/11
f 23/18/14 16/19/15 24/20/16
f 24/20/16 17/14/10 33/16/12
f 20/21/17 29/22/18 28/23/19
f 19/24/20 28/23/19 27/25/21
f 26/26/22 19/24/20 27/25/21
f 29/22/18 18/27/23 26/26/22
f 9/8/4 26/26/22 10/12/8
f 26/26/22 11/10/6 10/12/8
f 27/25/21 12/12/24 11/10/6
f 12/12/24 29/22/18 9/8/4
f 7/5/25 33/16/12 1/6/26
f 5/28/27 24/20/16 7/5/25
f 22/15/11 5/28/27 3/4/28
f 33/16/12 3/4/28 1/6/26
f 25/9/5 14/17/13 17/14/10
f 30/13/9 15/29/29 14/17/13
f 15/29/29 32/7/3 16/19/15
f 16/19/15 25/9/5 17/14/10
f 36/30/30 13/31/31 20/21/17
f 35/32/32 20/21/17 19/24/20
f 18/27/23 35/32/32 19/24/20
f 13/31/31 34/30/33 18/27/23
f 21/33/34 4/3/35 34/30/33
f 34/30/33 6/2/36 35/32/32
f 6/2/36 36/30/30 35/32/32
f 8/34/37 21/33/34 36/30/30
f 2/1/1 8/34/1 6/2/1
f 3/4/2 5/28/2 7/5/2
f 32/7/3 12/12/24 9/8/4
f 11/10/6 12/12/24 32/7/3
f 10/12/8 11/10/6 31/11/7
f 25/9/5 9/8/4 10/12/8
f 17/14/10 14/17/13 22/15/11
f 14/17/13 15/29/29 23/18/14
f 23/18/14 15/29/29 16/19/15
f 24/20/16 16/19/15 17/14/10
f 20/21/17 13/31/31 29/22/18
f 19/24/20 20/21/17 28/23/19
f 26/26/22 18/27/23 19/24/20
f 29/22/18 13/31/31 18/27/23
f 9/8/4 29/22/18 26/26/22
f 26/26/22 27/25/21 11/10/6
f 27/25/21 28/23/19 12/12/24
f 12/12/24 28/23/19 29/22/18
f 7/5/25 24/20/16 33/16/12
f 5/28/27 23/18/14 24/20/16
f 22/15/11 23/18/14 5/28/27
f 33/16/12 22/15/11 3/4/28
f 25/9/5 30/13/9 14/17/13
f 30/13/9 31/11/7 15/29/29
f 15/29/29 31/11/7 32/7/3
f 16/19/15 32/7/3 25/9/5
f 36/30/30 21/33/34 13/31/31
f 35/32/32 36/30/30 20/21/17
f 18/27/23 34/30/33 35/32/32
f 13/31/31 21/33/34 34/30/33
f 21/33/34 2/1/38 4/3/35
f 34/30/33 4/3/35 6/2/36
f 6/2/36 8/34/37 36/30/30
f 8/34/37 2/1/38 21/33/34
o Contact.002
v -0.000075 6.008994 -0.007509
v 0.000075 6.009007 40.006989
v 0.008924 5.999994 -0.007645
v 0.009074 6.000006 40.006851
v -0.000075 5.990993 -0.007509
v 0.000075 5.991006 40.006989
v -0.009074 5.999994 -0.007374
v -0.008924 6.000006 40.007122
vn 0.0066 1.0000 -0.0000
vn 1.0000 -0.0000 -0.0000
vn 0.0066 -1.0000 -0.0000
vn 0.0150 -0.0000 0.9999
vn -0.0066 -1.0000 -0.0000
vn -1.0000 -0.0000 -0.0000
vn -0.0066 1.0000 -0.0000
vn -0.0150 -0.0000 -0.9999
vt 0.997748 0.003062
vt 0.988422 0.002978
vt 0.997748 0.002978
vt 0.997748 0.002895
vt 0.988422 0.003062
vt 0.988422 0.002895
vt 0.997748 0.002978
vt 0.988422 0.002978
s 1
usemtl Catenary
f 37/35/39 40/36/40 39/37/40
f 40/36/40 41/38/41 39/37/40
f 38/39/42 42/40/42 40/36/42
f 42/40/43 43/41/44 41/38/41
f 43/41/44 38/39/45 37/35/39
f 37/35/46 41/38/46 43/41/46
f 37/35/39 38/39/45 40/36/40
f 40/36/40 42/40/43 41/38/41
f 38/39/42 44/42/42 42/40/42
f 42/40/43 44/42/44 43/41/44
f 43/41/44 44/42/44 38/39/45
f 37/35/46 39/37/46 41/38/46
o StitchWire1.001
v 0.000172 6.502542 40.007248
v 0.009171 6.493540 40.007107
v 0.000172 6.484542 40.007248
v -0.008827 6.493542 40.007381
v 0.000153 6.775813 35.005436
v 0.009152 6.766813 35.005299
v 0.000153 6.757813 35.005436
v -0.008846 6.766813 35.005569
v 0.000162 6.503176 37.999920
v 0.009161 6.494175 37.999786
v 0.000162 6.485176 37.999920
v -0.008837 6.494175 38.000053
vn 0.0004 0.9989 0.0465
vn 1.0000 -0.0003 -0.0000
vn 0.9998 -0.0207 -0.0019
vn -0.0003 -0.9990 -0.0446
vn -0.0069 -1.0000 -0.0003
vn -0.9998 -0.0200 -0.0018
vn -0.0068 1.0000 0.0003
vn -0.9991 0.0412 0.0038
vn 0.0077 0.9959 0.0907
vn 0.0058 -0.9959 -0.0907
vn 0.9992 0.0404 0.0037
vn -1.0000 -0.0001 -0.0000
vt 0.970403 0.010013
vt 0.969496 0.009846
vt 0.970403 0.009857
vt 0.970403 0.009701
vt 0.969496 0.009690
vt 0.970403 0.009857
vt 0.969496 0.010002
vt 0.971756 0.014583
vt 0.971756 0.014739
vt 0.971756 0.014427
vt 0.971756 0.014583
vt 0.969496 0.009846
s 1
usemtl Catenary
f 53/43/47 46/44/48 54/45/49
f 46/44/48 55/46/50 54/45/49
f 47/47/51 56/48/52 55/46/50
f 56/48/52 45/49/53 53/43/47
f 52/50/54 53/43/47 49/51/55
f 51/52/56 56/48/52 52/50/54
f 54/45/49 51/52/56 50/53/57
f 53/43/47 50/53/57 49/51/55
f 53/43/47 45/49/53 46/44/48
f 46/44/48 47/47/51 55/46/50
f 47/47/51 48/54/58 56/48/52
f 56/48/52 48/54/58 45/49/53
f 52/50/54 56/48/52 53/43/47
f 51/52/56 55/46/50 56/48/52
f 54/45/49 55/46/50 51/52/56
f 53/43/47 54/45/49 50/53/57
o StitchWire2.002
v -0.000172 6.502542 -0.007246
v -0.009171 6.493540 -0.007107
v -0.000172 6.484542 -0.007246
v 0.008827 6.493542 -0.007381
v -0.000151 6.775813 4.994565
v -0.009150 6.766813 4.994700
v -0.000151 6.757813 4.994565
v 0.008848 6.766813 4.994431
v -0.000162 6.503176 2.000081
v -0.009161 6.494175 2.000216
v -0.000162 6.485176 2.000081
v 0.008837 6.494175 1.999946
vn -0.0004 0.9989 -0.0465
vn -1.0000 -0.0003 -0.0000
vn -0.9998 -0.0207 0.0019
vn 0.0003 -0.9990 0.0446
vn 0.0069 -1.0000 0.0003
vn 0.9998 -0.0200 0.0018
vn 0.0068 1.0000 -0.0003
vn 0.9991 0.0412 -0.0038
vn -0.0077 0.9959 -0.0907
vn -0.0058 -0.9959 0.0907
vn -0.9992 0.0404 -0.0037
vn 1.0000 -0.0001 -0.0000
vt 0.970403 0.010013
vt 0.969496 0.009846
vt 0.970403 0.009857
vt 0.970403 0.009701
vt 0.969496 0.009690
vt 0.970403 0.009857
vt 0.969496 0.010002
vt 0.971756 0.014583
vt 0.971756 0.014739
vt 0.971756 0.014427
vt 0.971756 0.014583
vt 0.969496 0.009846
s 1
usemtl Catenary
f 65/55/59 58/56/60 66/57/61
f 58/56/60 67/58/62 66/57/61
f 59/59/63 68/60/64 67/58/62
f 68/60/64 57/61/65 65/55/59
f 64/62/66 65/55/59 61/63/67
f 63/64/68 68/60/64 64/62/66
f 66/57/61 63/64/68 62/65/69
f 65/55/59 62/65/69 61/63/67
f 65/55/59 57/61/65 58/56/60
f 58/56/60 59/59/63 67/58/62
f 59/59/63 60/66/70 68/60/64
f 68/60/64 60/66/70 57/61/65
f 64/62/66 68/60/64 65/55/59
f 63/64/68 67/58/62 68/60/64
f 66/57/61 67/58/62 63/64/68
f 65/55/59 66/57/61 62/65/69
o Dropper1.002
v -0.000131 6.493850 19.991325
v 0.009003 6.493850 20.000189
v 0.000139 6.493850 20.009323
v -0.008995 6.493850 20.000460
v -0.000131 6.000014 19.991325
v 0.000139 6.000014 20.009323
v 0.009003 6.000014 20.000189
v -0.008995 6.000014 20.000460
vn -0.0150 -0.0000 -0.9999
vn 0.9999 -0.0000 -0.0150
vn 0.0150 -0.0000 0.9999
vn -0.0000 1.0000 -0.0000
vn -0.9999 -0.0000 0.0150
vt 0.982385 0.009566
vt 0.982382 0.002719
vt 0.982385 0.002719
vt 0.982382 0.009566
vt 0.982378 0.002719
vt 0.982378 0.009566
vt 0.982382 0.002719
vt 0.982382 0.009566
s 1
usemtl Catenary
f 69/67/71 75/68/72 73/69/71
f 70/70/72 74/71/73 75/68/72
f 69/67/74 71/72/74 70/70/74
f 71/72/73 76/73/75 74/71/73
f 72/74/75 73/69/71 76/73/75
f 69/67/71 70/70/72 75/68/72
f 70/70/72 71/72/73 74/71/73
f 69/67/74 72/74/74 71/72/74
f 71/72/73 72/74/75 76/73/75
f 72/74/75 69/67/71 73/69/71
o Dropper2.002
v -0.000131 6.537527 14.989301
v 0.009003 6.537527 14.998164
v 0.000139 6.537527 15.007298
v -0.008995 6.537527 14.998435
v -0.000131 6.000014 14.989301
v 0.000139 6.000014 15.007298
v 0.009003 6.000014 14.998164
v -0.008995 6.000014 14.998435
vn -0.0150 -0.0000 -0.9999
vn 0.9999 -0.0000 -0.0150
vn 0.0150 -0.0000 0.9999
vn -0.0000 1.0000 -0.0000
vn -0.9999 -0.0000 0.0150
vt 0.977348 0.010171
vt 0.977345 0.002719
vt 0.977348 0.002719
vt 0.977345 0.010171
vt 0.977341 0.002719
vt 0.977341 0.010171
vt 0.977345 0.002719
vt 0.977345 0.010171
s 1
usemtl Catenary
f 77/75/76 83/76/77 81/77/76
f 78/78/77 82/79/78 83/76/77
f 77/75/79 79/80/79 78/78/79
f 79/80/78 84/81/80 82/79/78
f 80/82/80 81/77/76 84/81/80
f 77/75/76 78/78/77 83/76/77
f 78/78/77 79/80/78 82/79/78
f 77/75/79 80/82/79 79/80/79
f 79/80/78 80/82/80 84/81/80
f 80/82/80 77/75/76 81/77/76
o Dropper3.002
v -0.000131 6.537527 24.992802
v 0.009003 6.537527 25.001665
v 0.000139 6.537527 25.010799
v -0.008995 6.537527 25.001936
v -0.000131 6.000014 24.992802
v 0.000139 6.000014 25.010799
v 0.009003 6.000014 25.001665
v -0.008995 6.000014 25.001936
vn -0.0150 -0.0000 -0.9999
vn 0.9999 -0.0000 -0.0150
vn 0.0150 -0.0000 0.9999
vn -0.0000 1.0000 -0.0000
vn -0.9999 -0.0000 0.0150
vt 0.977348 0.010171
vt 0.977345 0.002719
vt 0.977348 0.002719
vt 0.977345 0.010171
vt 0.977341 0.002719
vt 0.977341 0.010171
vt 0.977345 0.002719
vt 0.977345 0.010171
s 1
usemtl Catenary
f 85/83/81 91/84/82 89/85/81
f 86/86/82 90/87/83 91/84/82
f 85/83/84 87/88/84 86/86/84
f 87/88/83 92/89/85 90/87/83
f 88/90/85 89/85/81 92/89/85
f 85/83/81 86/86/82 91/84/82
f 86/86/82 87/88/83 90/87/83
f 85/83/84 88/90/84 87/88/84
f 87/88/83 88/90/85 92/89/85
f 88/90/85 85/83/81 89/85/81
o Dropper4.002
v -0.000131 6.627460 29.994600
v 0.009003 6.627460 30.003464
v 0.000139 6.627460 30.012598
v -0.008995 6.627460 30.003735
v -0.000131 6.000014 29.994600
v 0.000139 6.000014 30.012598
v 0.009003 6.000014 30.003464
v -0.008995 6.000014 30.003735
vn -0.0150 -0.0000 -0.9999
vn 0.9999 -0.0000 -0.0150
vn 0.0150 -0.0000 0.9999
vn -0.0000 1.0000 -0.0000
vn -0.9999 -0.0000 0.0150
vt 0.971533 0.011418
vt 0.971530 0.002719
vt 0.971533 0.002719
vt 0.971530 0.011418
vt 0.971526 0.002719
vt 0.971526 0.011418
vt 0.971530 0.002719
vt 0.971530 0.011418
s 1
usemtl Catenary
f 93/91/86 99/92/87 97/93/86
f 94/94/87 98/95/88 99/92/87
f 93/91/89 95/96/89 94/94/89
f 95/96/88 100/97/90 98/95/88
f 96/98/90 97/93/86 100/97/90
f 93/91/86 94/94/87 99/92/87
f 94/94/87 95/96/88 98/95/88
f 93/91/89 96/98/89 95/96/89
f 95/96/88 96/98/90 100/97/90
f 96/98/90 93/91/86 97/93/86
o Dropper5.002
v -0.000131 6.627460 9.987371
v 0.009003 6.627460 9.996235
v 0.000139 6.627460 10.005369
v -0.008995 6.627460 9.996506
v -0.000131 6.000014 9.987371
v 0.000139 6.000014 10.005369
v 0.009003 6.000014 9.996235
v -0.008995 6.000014 9.996506
vn -0.0150 -0.0000 -0.9999
vn 0.9999 -0.0000 -0.0150
vn 0.0150 -0.0000 0.9999
vn -0.0000 1.0000 -0.0000
vn -0.9999 -0.0000 0.0150
vt 0.971533 0.011418
vt 0.971530 0.002719
vt 0.971533 0.002719
vt 0.971530 0.011418
vt 0.971526 0.002719
vt 0.971526 0.011418
vt 0.971530 0.002719
vt 0.971530 0.011418
s 1
usemtl Catenary
f 101/99/91 107/100/92 105/101/91
f 102/102/92 106/103/93 107/100/92
f 101/99/94 103/104/94 102/102/94
f 103/104/93 108/105/95 106/103/93
f 104/106/95 105/101/91 108/105/95
f 101/99/91 102/102/92 107/100/92
f 102/102/92 103/104/93 106/103/93
f 101/99/94 104/106/94 103/104/94
f 103/104/93 104/106/95 108/105/95
f 104/106/95 101/99/91 105/101/91
o Dropper6.002
v -0.000131 6.783311 4.985561
v 0.009003 6.783311 4.994425
v 0.000139 6.783311 5.003559
v -0.008995 6.783311 4.994695
v -0.000131 6.000014 4.985561
v 0.000139 6.000014 5.003559
v 0.009003 6.000014 4.994425
v -0.008995 6.000014 4.994695
vn -0.0150 -0.0000 -0.9999
vn 0.9999 -0.0000 -0.0150
vn 0.0150 -0.0000 0.9999
vn -0.0000 1.0000 -0.0000
vn -0.9999 -0.0000 0.0150
vt 0.981225 0.013579
vt 0.981221 0.002719
vt 0.981225 0.002719
vt 0.981221 0.013579
vt 0.981218 0.002719
vt 0.981218 0.013579
vt 0.981221 0.002719
vt 0.981221 0.013579
s 1
usemtl Catenary
f 109/107/96 115/108/97 113/109/96
f 110/110/97 114/111/98 115/108/97
f 109/107/99 111/112/99 110/110/99
f 111/112/98 116/113/100 114/111/98
f 112/114/100 113/109/96 116/113/100
f 109/107/96 110/110/97 115/108/97
f 110/110/97 111/112/98 114/111/98
f 109/107/99 112/114/99 111/112/99
f 111/112/98 112/114/100 116/113/100
f 112/114/100 109/107/96 113/109/96
o Dropper7.002
v -0.000131 6.783311 34.996403
v 0.009003 6.783311 35.005268
v 0.000139 6.783311 35.014400
v -0.008995 6.783311 35.005535
v -0.000131 6.000014 34.996403
v 0.000139 6.000014 35.014400
v 0.009003 6.000014 35.005268
v -0.008995 6.000014 35.005535
vn -0.0150 -0.0000 -0.9999
vn 0.9999 -0.0000 -0.0150
vn 0.0150 -0.0000 0.9999
vn -0.0000 1.0000 -0.0000
vn -0.9999 -0.0000 0.0150
vt 0.981225 0.013579
vt 0.981221 0.002719
vt 0.981225 0.002719
vt 0.981221 0.013579
vt 0.981218 0.002719
vt 0.981218 0.013579
vt 0.981221 0.002719
vt 0.981221 0.013579
s 1
usemtl Catenary
f 117/115/101 123/116/102 121/117/101
f 118/118/102 122/119/103 123/116/102
f 117/115/104 119/120/104 118/118/104
f 119/120/103 124/121/105 122/119/103
f 120/122/105 121/117/101 124/121/105
f 117/115/101 118/118/102 123/116/102
f 118/118/102 119/120/103 122/119/103
f 117/115/104 120/122/104 119/120/104
f 119/120/103 120/122/105 124/121/105
f 120/122/105 117/115/101 121/117/101
o StitchDropper1.002
v -0.000131 6.493850 37.991001
v 0.009003 6.493850 37.999866
v 0.000139 6.493850 38.008999
v -0.008995 6.493850 38.000134
v -0.000131 6.000014 37.991001
v 0.000139 6.000014 38.008999
v 0.009003 6.000014 37.999866
v -0.008995 6.000014 38.000134
vn -0.0150 -0.0000 -0.9999
vn 0.9999 -0.0000 -0.0150
vn 0.0150 -0.0000 0.9999
vn -0.0000 1.0000 -0.0000
vn -0.9999 -0.0000 0.0150
vt 0.982385 0.009566
vt 0.982382 0.002719
vt 0.982385 0.002719
vt 0.982382 0.009566
vt 0.982378 0.002719
vt 0.982378 0.009566
vt 0.982382 0.002719
vt 0.982382 0.009566
s 1
usemtl Catenary
f 125/123/106 131/124/107 129/125/106
f 126/126/107 130/127/108 131/124/107
f 125/123/109 127/128/109 126/126/109
f 127/128/108 132/129/110 130/127/108
f 128/130/110 129/125/106 132/129/110
f 125/123/106 126/126/107 131/124/107
f 126/126/107 127/128/108 130/127/108
f 125/123/109 128/130/109 127/128/109
f 127/128/108 128/130/110 132/129/110
f 128/130/110 125/123/106 129/125/106
o StitchDropper2.002
v -0.000131 6.493850 1.991001
v 0.009003 6.493850 1.999865
v 0.000139 6.493850 2.008999
v -0.008995 6.493850 2.000135
v -0.000131 6.000014 1.991001
v 0.000139 6.000014 2.008999
v 0.009003 6.000014 1.999865
v -0.008995 6.000014 2.000135
vn -0.0150 -0.0000 -0.9999
vn 0.9999 -0.0000 -0.0150
vn 0.0150 -0.0000 0.9999
vn -0.0000 1.0000 -0.0000
vn -0.9999 -0.0000 0.0150
vt 0.982385 0.009566
vt 0.982382 0.002719
vt 0.982385 0.002719
vt 0.982382 0.009566
vt 0.982378 0.002719
vt 0.982378 0.009566
vt 0.982382 0.002719
vt 0.982382 0.009566
s 1
usemtl Catenary
f 133/131/111 139/132/112 137/133/111
f 134/134/112 138/135/113 139/132/112
f 133/131/114 135/136/114 134/134/114
f 135/136/113 140/137/115 138/135/113
f 136/138/115 137/133/111 140/137/115
f 133/131/111 134/134/112 139/132/112
f 134/134/112 135/136/113 138/135/113
f 133/131/114 136/138/114 135/136/114
f 135/136/113 136/138/115 140/137/115
f 136/138/115 133/131/111 137/133/111
