# Blender 5.0.1
# www.blender.org
mtllib wire_single_wall_end.mtl
o StitchWire2.004
g wire_single_wall_end
v -0.000172 6.502542 -0.007246
v -0.009171 6.493540 -0.007107
v -0.000172 6.484542 -0.007246
v 0.008827 6.493542 -0.007381
v -0.000151 6.775810 4.994566
v -0.009150 6.766810 4.994701
v -0.000151 6.757811 4.994566
v 0.008848 6.766810 4.994431
v -0.000162 6.503175 2.000081
v -0.009161 6.494174 2.000216
v -0.000162 6.485175 2.000081
v 0.008837 6.494174 1.999946
vn -0.0004 0.9989 -0.0465
vn -1.0000 -0.0003 -0.0000
vn -0.9998 -0.0207 0.0019
vn 0.0003 -0.9990 0.0446
vn 0.0069 -1.0000 0.0003
vn 0.9998 -0.0200 0.0018
vn 0.0068 1.0000 -0.0003
vn 0.9991 0.0412 -0.0038
vn -0.0077 0.9959 -0.0907
vn -0.0058 -0.9959 0.0907
vn -0.9992 0.0404 -0.0037
vn 1.0000 -0.0001 -0.0000
vt 0.970403 0.010013
vt 0.969496 0.009846
vt 0.970403 0.009857
vt 0.970403 0.009701
vt 0.969496 0.009690
vt 0.970403 0.009857
vt 0.969496 0.010002
vt 0.971756 0.014583
vt 0.971756 0.014739
vt 0.971756 0.014427
vt 0.971756 0.014583
vt 0.969496 0.009846
s 1
usemtl Catenary
f 9/1/1 2/2/2 10/3/3
f 2/2/2 11/4/4 10/3/3
f 3/5/5 12/6/6 11/4/4
f 12/6/6 1/7/7 9/1/1
f 8/8/8 9/1/1 5/9/9
f 7/10/10 12/6/6 8/8/8
f 10/3/3 7/10/10 6/11/11
f 9/1/1 6/11/11 5/9/9
f 9/1/1 1/7/7 2/2/2
f 2/2/2 3/5/5 11/4/4
f 3/5/5 4/12/12 12/6/6
f 12/6/6 4/12/12 1/7/7
f 8/8/8 12/6/6 9/1/1
f 7/10/10 11/4/4 12/6/6
f 10/3/3 11/4/4 7/10/10
f 9/1/1 10/3/3 6/11/11
o StitchDropper2.004
v -0.000131 6.493850 1.991001
v 0.009003 6.493850 1.999865
v 0.000139 6.493850 2.008999
v -0.008995 6.493850 2.000135
v -0.000131 6.000014 1.991001
v 0.000139 6.000014 2.008999
v 0.009003 6.000014 1.999865
v -0.008995 6.000014 2.000135
vn -0.0150 -0.0000 -0.9999
vn 0.9999 -0.0000 -0.0150
vn 0.0150 -0.0000 0.9999
vn -0.0000 1.0000 -0.0000
vn -0.9999 -0.0000 0.0150
vt 0.982385 0.009566
vt 0.982382 0.002719
vt 0.982385 0.002719
vt 0.982382 0.009566
vt 0.982378 0.002719
vt 0.982378 0.009566
vt 0.982382 0.002719
vt 0.982382 0.009566
s 1
usemtl Catenary
f 13/13/13 19/14/14 17/15/13
f 14/16/14 18/17/15 19/14/14
f 13/13/16 15/18/16 14/16/16
f 15/18/15 20/19/17 18/17/15
f 16/20/17 17/15/13 20/19/17
f 13/13/13 14/16/14 19/14/14
f 14/16/14 15/18/15 18/17/15
f 13/13/16 16/20/16 15/18/16
f 15/18/15 16/20/17 20/19/17
f 16/20/17 13/13/13 17/15/13
o Dropper1.004
v -0.000131 6.493850 19.991325
v 0.009003 6.493850 20.000189
v 0.000139 6.493850 20.009323
v -0.008995 6.493850 20.000460
v -0.000131 6.020014 19.991325
v 0.000139 6.020014 20.009323
v 0.009003 6.020014 20.000189
v -0.008995 6.020014 20.000460
vn -0.0150 -0.0000 -0.9999
vn 0.9999 -0.0000 -0.0150
vn 0.0150 -0.0000 0.9999
vn -0.0000 1.0000 -0.0000
vn -0.9999 -0.0000 0.0150
vt 0.975793 0.009012
vt 0.975788 0.001635
vt 0.975793 0.001635
vt 0.975788 0.009012
vt 0.975784 0.001635
vt 0.975784 0.009012
vt 0.975788 0.001635
vt 0.975788 0.009012
s 1
usemtl Catenary
f 21/21/18 27/22/19 25/23/18
f 22/24/19 26/25/20 27/22/19
f 21/21/21 23/26/21 22/24/21
f 23/26/20 28/27/22 26/25/20
f 24/28/22 25/23/18 28/27/22
f 21/21/18 22/24/19 27/22/19
f 22/24/19 23/26/20 26/25/20
f 21/21/21 24/28/21 23/26/21
f 23/26/20 24/28/22 28/27/22
f 24/28/22 21/21/18 25/23/18
o Dropper2.004
v -0.000131 6.537527 14.989301
v 0.009003 6.537527 14.998164
v 0.000139 6.537527 15.007298
v -0.008995 6.537527 14.998435
v -0.000131 6.020014 14.989301
v 0.000139 6.020014 15.007298
v 0.009003 6.020014 14.998164
v -0.008995 6.020014 14.998435
vn -0.0150 -0.0000 -0.9999
vn 0.9999 -0.0000 -0.0150
vn 0.0150 -0.0000 0.9999
vn -0.0000 1.0000 -0.0000
vn -0.9999 -0.0000 0.0150
vt 0.978168 0.009692
vt 0.978163 0.001635
vt 0.978168 0.001635
vt 0.978163 0.009692
vt 0.978159 0.001635
vt 0.978159 0.009692
vt 0.978163 0.001635
vt 0.978163 0.009692
s 1
usemtl Catenary
f 29/29/23 35/30/24 33/31/23
f 30/32/24 34/33/25 35/30/24
f 29/29/26 31/34/26 30/32/26
f 31/34/25 36/35/27 34/33/25
f 32/36/27 33/31/23 36/35/27
f 29/29/23 30/32/24 35/30/24
f 30/32/24 31/34/25 34/33/25
f 29/29/26 32/36/26 31/34/26
f 31/34/25 32/36/27 36/35/27
f 32/36/27 29/29/23 33/31/23
o Dropper3.004
v -0.000131 6.537527 24.992802
v 0.009003 6.537527 25.001665
v 0.000139 6.537527 25.010799
v -0.008995 6.537527 25.001936
v -0.000131 6.020014 24.992802
v 0.000139 6.020014 25.010799
v 0.009003 6.020014 25.001665
v -0.008995 6.020014 25.001936
vn -0.0150 -0.0000 -0.9999
vn 0.9999 -0.0000 -0.0150
vn 0.0150 -0.0000 0.9999
vn -0.0000 1.0000 -0.0000
vn -0.9999 -0.0000 0.0150
vt 0.978168 0.009692
vt 0.978163 0.001635
vt 0.978168 0.001635
vt 0.978163 0.009692
vt 0.978159 0.001635
vt 0.978159 0.009692
vt 0.978163 0.001635
vt 0.978163 0.009692
s 1
usemtl Catenary
f 37/37/28 43/38/29 41/39/28
f 38/40/29 42/41/30 43/38/29
f 37/37/31 39/42/31 38/40/31
f 39/42/30 44/43/32 42/41/30
f 40/44/32 41/39/28 44/43/32
f 37/37/28 38/40/29 43/38/29
f 38/40/29 39/42/30 42/41/30
f 37/37/31 40/44/31 39/42/31
f 39/42/30 40/44/32 44/43/32
f 40/44/32 37/37/28 41/39/28
o Dropper4.004
v -0.000131 6.627460 29.994600
v 0.009003 6.627460 30.003464
v 0.000139 6.627460 30.012598
v -0.008995 6.627460 30.003735
v -0.000131 6.020014 29.994600
v 0.000139 6.020014 30.012598
v 0.009003 6.020014 30.003464
v -0.008995 6.020014 30.003735
vn -0.0150 -0.0000 -0.9999
vn 0.9999 -0.0000 -0.0150
vn 0.0150 -0.0000 0.9999
vn -0.0000 1.0000 -0.0000
vn -0.9999 -0.0000 0.0150
vt 0.971043 0.011092
vt 0.971039 0.001635
vt 0.971043 0.001635
vt 0.971039 0.011092
vt 0.971035 0.001635
vt 0.971035 0.011092
vt 0.971039 0.001635
vt 0.971039 0.011092
s 1
usemtl Catenary
f 45/45/33 51/46/34 49/47/33
f 46/48/34 50/49/35 51/46/34
f 45/45/36 47/50/36 46/48/36
f 47/50/35 52/51/37 50/49/35
f 48/52/37 49/47/33 52/51/37
f 45/45/33 46/48/34 51/46/34
f 46/48/34 47/50/35 50/49/35
f 45/45/36 48/52/36 47/50/36
f 47/50/35 48/52/37 52/51/37
f 48/52/37 45/45/33 49/47/33
o Dropper5.004
v -0.000131 6.627460 9.987371
v 0.009003 6.627460 9.996235
v 0.000139 6.627460 10.005369
v -0.008995 6.627460 9.996506
v -0.000131 6.020014 9.987371
v 0.000139 6.020014 10.005369
v 0.009003 6.020014 9.996235
v -0.008995 6.020014 9.996506
vn -0.0150 -0.0000 -0.9999
vn 0.9999 -0.0000 -0.0150
vn 0.0150 -0.0000 0.9999
vn -0.0000 1.0000 -0.0000
vn -0.9999 -0.0000 0.0150
vt 0.971043 0.011092
vt 0.971039 0.001635
vt 0.971043 0.001635
vt 0.971039 0.011092
vt 0.971035 0.001635
vt 0.971035 0.011092
vt 0.971039 0.001635
vt 0.971039 0.011092
s 1
usemtl Catenary
f 53/53/38 59/54/39 57/55/38
f 54/56/39 58/57/40 59/54/39
f 53/53/41 55/58/41 54/56/41
f 55/58/40 60/59/42 58/57/40
f 56/60/42 57/55/38 60/59/42
f 53/53/38 54/56/39 59/54/39
f 54/56/39 55/58/40 58/57/40
f 53/53/41 56/60/41 55/58/41
f 55/58/40 56/60/42 60/59/42
f 56/60/42 53/53/38 57/55/38
o Dropper6.004
v -0.000131 6.783311 4.985561
v 0.009003 6.783311 4.994425
v 0.000139 6.783311 5.003559
v -0.008995 6.783311 4.994695
v -0.000131 6.020014 4.985561
v 0.000139 6.020014 5.003559
v 0.009003 6.020014 4.994425
v -0.008995 6.020014 4.994695
vn -0.0150 -0.0000 -0.9999
vn 0.9999 -0.0000 -0.0150
vn 0.0150 -0.0000 0.9999
vn -0.0000 1.0000 -0.0000
vn -0.9999 -0.0000 0.0150
vt 0.982917 0.013518
vt 0.982913 0.001635
vt 0.982917 0.001635
vt 0.982913 0.013518
vt 0.982909 0.001635
vt 0.982909 0.013518
vt 0.982913 0.001635
vt 0.982913 0.013518
s 1
usemtl Catenary
f 61/61/43 67/62/44 65/63/43
f 62/64/44 66/65/45 67/62/44
f 61/61/46 63/66/46 62/64/46
f 63/66/45 68/67/47 66/65/45
f 64/68/47 65/63/43 68/67/47
f 61/61/43 62/64/44 67/62/44
f 62/64/44 63/66/45 66/65/45
f 61/61/46 64/68/46 63/66/46
f 63/66/45 64/68/47 68/67/47
f 64/68/47 61/61/43 65/63/43
o Dropper7.004
v -0.000131 6.783311 34.996403
v 0.009003 6.783311 35.005268
v 0.000139 6.783311 35.014400
v -0.008995 6.783311 35.005535
v -0.000131 6.020014 34.996403
v 0.000139 6.020014 35.014400
v 0.009003 6.020014 35.005268
v -0.008995 6.020014 35.005535
vn -0.0150 -0.0000 -0.9999
vn 0.9999 -0.0000 -0.0150
vn 0.0150 -0.0000 0.9999
vn -0.0000 1.0000 -0.0000
vn -0.9999 -0.0000 0.0150
vt 0.982917 0.013518
vt 0.982913 0.001635
vt 0.982917 0.001635
vt 0.982913 0.013518
vt 0.982909 0.001635
vt 0.982909 0.013518
vt 0.982913 0.001635
vt 0.982913 0.013518
s 1
usemtl Catenary
f 69/69/48 75/70/49 73/71/48
f 70/72/49 74/73/50 75/70/49
f 69/69/51 71/74/51 70/72/51
f 71/74/50 76/75/52 74/73/50
f 72/76/52 73/71/48 76/75/52
f 69/69/48 70/72/49 75/70/49
f 70/72/49 71/74/50 74/73/50
f 69/69/51 72/76/51 71/74/51
f 71/74/50 72/76/52 76/75/52
f 72/76/52 69/69/48 73/71/48
o TerminationInsulator.004
v -0.000000 6.978387 39.522079
v -0.000000 7.072831 39.540356
v 0.000000 6.997821 39.657623
v 0.000000 7.078196 39.668816
v -0.000000 7.019583 39.785397
v 0.027709 7.008115 39.785877
v 0.070711 7.048933 39.670036
v 0.014843 6.991678 39.657883
v 0.070711 7.043568 39.541576
v 0.006374 6.975749 39.522190
v 0.039187 6.980430 39.787033
v 0.100000 6.978283 39.672989
v 0.020992 6.976847 39.658501
v 0.100000 6.972919 39.544529
v 0.009014 6.969381 39.522457
v 0.027709 6.952745 39.788189
v 0.070711 6.907634 39.675938
v 0.014040 6.960734 39.659172
v 0.070711 6.902269 39.547478
v 0.006374 6.963013 39.522724
v -0.000000 6.941278 39.788670
v -0.000000 6.878370 39.677162
v 0.000000 6.954848 39.659420
v -0.000000 6.873005 39.548702
v -0.000000 6.960375 39.522835
v -0.027709 6.952745 39.788189
v -0.070711 6.907634 39.675938
v -0.014040 6.960734 39.659172
v -0.070711 6.902269 39.547478
v -0.006374 6.963013 39.522724
v -0.039187 6.980430 39.787033
v -0.100000 6.978283 39.672989
v -0.020992 6.976847 39.658501
v -0.100000 6.972919 39.544529
v -0.009014 6.969381 39.522457
v -0.027709 7.008115 39.785877
v -0.070711 7.048933 39.670036
v -0.014843 6.991678 39.657883
v -0.070711 7.043568 39.541576
v -0.006374 6.975749 39.522190
v -0.000000 6.998683 39.786270
v 0.012918 6.993337 39.786495
v 0.018269 6.980430 39.787033
v 0.012918 6.967524 39.787571
v -0.000000 6.962177 39.787796
v -0.012918 6.967524 39.787571
v -0.018269 6.980430 39.787033
v -0.012918 6.993337 39.786495
v -0.000000 7.006102 39.963909
v 0.012918 7.000756 39.964134
v 0.018269 6.987849 39.964672
v 0.012918 6.974942 39.965210
v -0.000000 6.969596 39.965435
v -0.012918 6.974942 39.965210
v -0.018269 6.987849 39.964672
v -0.012918 7.000756 39.964134
v -0.012918 6.953854 39.966091
v -0.018269 6.966761 39.965553
v -0.000000 6.948508 39.966316
v 0.012918 6.953854 39.966091
v 0.018269 6.966761 39.965553
v -0.012918 6.954805 39.988857
v -0.018269 6.967711 39.988316
v -0.000000 6.949459 39.989079
v 0.012918 6.954805 39.988857
v 0.018269 6.967711 39.988316
v -0.012918 7.022353 39.963230
v -0.000000 7.027699 39.963009
v -0.018269 7.009446 39.963772
v 0.012918 7.022353 39.963230
v 0.018269 7.009446 39.963772
v -0.012918 7.023304 39.985996
v -0.000000 7.028650 39.985771
v -0.018269 7.010397 39.986534
v 0.012918 7.023304 39.985996
v 0.018269 7.010397 39.986534
vn 0.8430 0.1462 -0.5177
vn -0.0000 -0.0417 -0.9991
vn -0.1639 0.1243 -0.9786
vn -0.0000 0.1900 -0.9818
vn -0.1657 0.1225 -0.9785
vn 0.9864 -0.0069 -0.1642
vn 0.8430 0.1889 0.5037
vn -0.2370 -0.0393 -0.9707
vn -0.2371 -0.0431 -0.9705
vn -0.1269 0.0860 -0.9882
vn -0.0000 0.1379 -0.9904
vn -0.1274 0.0855 -0.9882
vn -0.8220 0.0250 0.5690
vn -0.5809 0.6022 0.5477
vn -0.5792 0.6038 0.5476
vn 0.6234 0.6356 0.4554
vn 0.8823 0.0244 0.4700
vn 0.6174 0.6416 0.4552
vn 0.8207 0.0176 0.5710
vn 0.5855 -0.5579 0.5882
vn 0.8220 0.0250 0.5690
vn 0.1803 -0.0425 -0.9827
vn 0.1301 -0.1700 -0.9768
vn 0.1273 -0.1729 -0.9767
vn -0.0000 -0.8710 0.4914
vn -0.6243 -0.6122 0.4852
vn -0.6305 -0.6060 0.4851
vn 0.6243 -0.6122 0.4852
vn 0.6305 -0.6060 0.4851
vn -0.5855 -0.5579 0.5882
vn -0.8207 0.0176 0.5710
vn -0.0000 -0.2258 -0.9742
vn -0.0000 -0.2260 -0.9741
vn -0.0000 0.8424 0.5388
vn 0.5792 0.6038 0.5476
vn -0.0000 -0.8039 0.5948
vn -0.5760 -0.5674 0.5884
vn -0.1301 -0.1700 -0.9768
vn -0.1803 -0.0425 -0.9827
vn -0.1273 -0.1729 -0.9767
vn -0.8824 0.0122 0.4703
vn -0.8823 0.0244 0.4700
vn 0.5760 -0.5674 0.5884
vn 0.1639 0.1243 -0.9786
vn 0.1657 0.1225 -0.9785
vn 0.1269 0.0860 -0.9882
vn 0.1274 0.0855 -0.9882
vn 0.8824 0.0122 0.4703
vn -0.0000 -0.2839 -0.9589
vn -0.1696 -0.2126 -0.9623
vn 0.1809 -0.0407 -0.9827
vn 0.5809 0.6022 0.5477
vn -0.1715 -0.2106 -0.9624
vn -0.0000 0.0417 0.9991
vn 0.7071 -0.7065 0.0295
vn -0.0000 -0.9991 0.0417
vn -0.7071 -0.7065 0.0295
vn -1.0000 -0.0000 -0.0000
vn -0.7071 0.7065 -0.0295
vn -0.0000 0.9991 -0.0417
vn 0.7071 0.7065 -0.0295
vn 1.0000 -0.0000 -0.0000
vn 0.8430 -0.1889 -0.5037
vn -0.8430 0.1889 0.5037
vn -0.8430 0.1462 -0.5177
vn -0.9864 -0.0069 -0.1642
vn 0.1696 -0.2126 -0.9623
vn -0.6174 0.6416 0.4552
vn -0.0000 0.8934 0.4492
vn -0.8430 -0.1462 0.5177
vn -0.8430 -0.1889 -0.5037
vn 0.2370 -0.0393 -0.9707
vn 0.2371 -0.0431 -0.9705
vn -0.1809 -0.0407 -0.9827
vn -0.6234 0.6356 0.4554
vn 0.1715 -0.2106 -0.9624
vn 0.8430 -0.1462 0.5177
vn -0.0000 -0.8042 0.5944
vt 0.974819 0.011201
vt 0.973782 0.009471
vt 0.973420 0.007486
vt 0.959078 0.009106
vt 0.959980 0.008121
vt 0.959829 0.008953
vt 0.958351 0.010320
vt 0.959541 0.009716
vt 0.959107 0.010441
vt 0.961534 0.006322
vt 0.960633 0.007306
vt 0.960784 0.006475
vt 0.957590 0.008546
vt 0.963023 0.008546
vt 0.962262 0.010320
vt 0.961534 0.009106
vt 0.957155 0.006157
vt 0.957242 0.004228
vt 0.958351 0.005108
vt 0.962043 0.011054
vt 0.963371 0.011200
vt 0.962706 0.011579
vt 0.964718 0.003795
vt 0.964120 0.005631
vt 0.963371 0.004228
vt 0.964120 0.009797
vt 0.964718 0.011632
vt 0.957242 0.011200
vt 0.957155 0.009271
vt 0.963425 0.011963
vt 0.964230 0.012222
vt 0.957741 0.007714
vt 0.959078 0.006322
vt 0.959332 0.007714
vt 0.955895 0.011632
vt 0.956493 0.009797
vt 0.962043 0.004374
vt 0.962706 0.003848
vt 0.963458 0.006157
vt 0.962262 0.005108
vt 0.956493 0.005631
vt 0.955895 0.003795
vt 0.963425 0.003464
vt 0.964230 0.003206
vt 0.959980 0.007306
vt 0.959829 0.006475
vt 0.960633 0.008121
vt 0.960784 0.008953
vt 0.963458 0.009271
vt 0.957188 0.011963
vt 0.956383 0.012222
vt 0.961071 0.009716
vt 0.961506 0.010441
vt 0.957590 0.006882
vt 0.958569 0.011054
vt 0.957907 0.011579
vt 0.964925 0.005373
vt 0.962871 0.007714
vt 0.976399 0.012455
vt 0.978320 0.013071
vt 0.976399 0.002518
vt 0.974819 0.003771
vt 0.973782 0.005502
vt 0.978320 0.001901
vt 0.957188 0.003464
vt 0.956383 0.003206
vt 0.961281 0.007714
vt 0.959541 0.005712
vt 0.959107 0.004987
vt 0.977217 0.003898
vt 0.961071 0.005712
vt 0.961506 0.004987
vt 0.963023 0.006882
vt 0.958569 0.004374
vt 0.957907 0.003848
vt 0.964925 0.010055
vt 0.955687 0.010055
vt 0.955687 0.005373
s 1
usemtl Catenary
f 147/77/53 126/78/54 125/79/54
f 115/80/55 77/81/56 116/82/57
f 127/77/58 147/77/53 152/77/59
f 110/83/60 116/84/57 111/85/61
f 113/86/62 79/87/63 114/88/64
f 110/83/65 114/89/66 115/80/67
f 82/90/68 88/91/69 83/92/70
f 89/93/71 95/94/72 90/95/73
f 89/96/74 93/97/75 94/98/76
f 98/99/77 102/100/78 103/101/79
f 92/102/80 98/103/77 93/97/81
f 105/104/82 109/105/83 110/83/65
f 94/106/76 98/103/84 99/107/85
f 79/108/86 85/109/87 78/110/86
f 100/111/88 104/112/89 105/104/82
f 103/101/90 109/113/91 104/114/92
f 103/101/79 107/115/93 108/116/94
f 94/117/95 100/118/88 95/94/72
f 98/99/84 104/119/92 99/120/85
f 77/121/56 85/109/96 86/122/97
f 79/123/63 83/92/98 84/124/99
f 87/125/100 93/97/81 88/91/69
f 100/111/101 106/126/102 101/127/101
f 84/128/99 88/91/103 89/129/74
f 84/130/104 90/95/73 85/109/87
f 105/104/105 111/131/61 106/132/102
f 121/133/106 122/100/106 102/100/106
f 117/134/106 118/90/106 82/90/106
f 120/135/107 129/136/108 121/136/108
f 122/137/109 131/138/110 123/138/110
f 124/139/111 125/79/112 117/79/112
f 117/79/112 126/78/113 118/78/113
f 119/77/114 128/135/107 120/135/107
f 121/140/108 130/137/109 122/137/109
f 123/138/110 132/139/111 124/139/111
f 118/78/113 127/77/114 119/77/114
f 115/80/67 79/108/86 78/110/86
f 129/136/54 128/135/54 137/77/115
f 150/138/116 145/138/117 131/138/118
f 96/141/119 100/118/101 101/142/101
f 113/86/120 81/134/121 80/143/121
f 136/135/107 140/136/108 135/136/108
f 133/137/109 139/138/122 134/138/123
f 137/77/115 141/135/107 136/135/107
f 135/140/108 138/137/109 133/137/109
f 86/144/97 90/95/124 91/145/125
f 150/146/116 139/146/122 152/146/59
f 146/78/113 152/77/59 147/77/53
f 143/139/111 149/79/112 144/79/112
f 144/79/112 151/78/113 146/78/113
f 145/138/117 148/139/111 143/139/111
f 108/116/126 114/147/64 109/148/91
f 108/116/94 112/149/127 113/86/120
f 91/150/125 95/94/128 96/151/119
f 81/134/121 83/92/70 80/143/121
f 132/139/54 131/138/118 145/138/117
f 145/138/117 143/139/54 125/79/54
f 143/139/54 144/79/54 125/79/54
f 144/79/54 146/78/54 125/79/54
f 146/78/54 147/77/53 125/79/54
f 147/77/53 127/77/58 126/78/54
f 125/79/54 132/139/54 145/138/117
f 115/80/55 78/110/56 77/81/56
f 152/77/59 142/77/129 127/77/58
f 142/77/129 137/77/115 127/77/58
f 110/83/60 115/80/55 116/84/57
f 113/86/62 80/143/63 79/87/63
f 110/83/65 109/105/83 114/89/66
f 82/90/68 87/125/100 88/91/69
f 89/93/71 94/117/95 95/94/72
f 89/96/74 88/91/103 93/97/75
f 98/99/77 97/133/77 102/100/78
f 92/102/80 97/152/77 98/103/77
f 105/104/82 104/112/89 109/105/83
f 94/106/76 93/97/75 98/103/84
f 79/108/86 84/130/104 85/109/87
f 100/111/88 99/153/130 104/112/89
f 103/101/90 108/116/126 109/113/91
f 103/101/79 102/100/78 107/115/93
f 94/117/95 99/154/130 100/118/88
f 98/99/84 103/101/90 104/119/92
f 77/121/56 78/110/56 85/109/96
f 79/123/63 80/143/63 83/92/98
f 87/125/100 92/102/80 93/97/81
f 100/111/101 105/104/105 106/126/102
f 84/128/99 83/92/98 88/91/103
f 84/130/104 89/93/71 90/95/73
f 105/104/105 110/83/60 111/131/61
f 102/100/106 97/152/106 121/133/106
f 97/152/106 92/102/106 121/133/106
f 92/102/106 87/125/106 119/125/106
f 92/102/106 119/125/106 120/102/106
f 112/149/106 107/115/106 123/115/106
f 107/115/106 102/100/106 123/115/106
f 123/115/106 124/149/106 112/149/106
f 92/102/106 120/102/106 121/133/106
f 122/100/106 123/115/106 102/100/106
f 82/90/106 81/134/106 117/134/106
f 81/134/106 112/149/106 117/134/106
f 112/149/106 124/149/106 117/134/106
f 118/90/106 119/125/106 87/125/106
f 118/90/106 87/125/106 82/90/106
f 120/135/107 128/135/107 129/136/108
f 122/137/109 130/137/109 131/138/110
f 124/139/111 132/139/111 125/79/112
f 117/79/112 125/79/112 126/78/113
f 119/77/114 127/77/114 128/135/107
f 121/140/108 129/140/108 130/137/109
f 123/138/110 131/138/110 132/139/111
f 118/78/113 126/78/113 127/77/114
f 115/80/67 114/89/66 79/108/86
f 134/138/123 131/138/118 130/137/54
f 134/138/123 130/137/54 129/136/54
f 135/140/54 133/137/54 129/136/54
f 133/137/54 134/138/123 129/136/54
f 137/77/115 136/135/54 129/136/54
f 136/135/54 135/140/54 129/136/54
f 128/135/54 127/77/58 137/77/115
f 134/138/123 139/138/122 131/138/118
f 139/138/122 150/138/116 131/138/118
f 96/141/119 95/94/128 100/118/101
f 113/86/120 112/149/127 81/134/121
f 136/135/107 141/135/107 140/136/108
f 133/137/109 138/137/109 139/138/122
f 137/77/115 142/77/129 141/135/107
f 135/140/108 140/140/108 138/137/109
f 86/144/97 85/109/96 90/95/124
f 138/146/106 140/146/106 141/146/106
f 141/146/106 142/146/129 138/146/106
f 142/146/129 152/146/59 139/146/122
f 138/146/106 142/146/129 139/146/122
f 152/146/59 151/146/106 149/146/106
f 149/146/106 148/146/106 152/146/59
f 148/146/106 150/146/116 152/146/59
f 146/78/113 151/78/113 152/77/59
f 143/139/111 148/139/111 149/79/112
f 144/79/112 149/79/112 151/78/113
f 145/138/117 150/138/116 148/139/111
f 108/116/126 113/86/62 114/147/64
f 108/116/94 107/115/93 112/149/127
f 91/150/125 90/95/124 95/94/128
f 81/134/121 82/90/68 83/92/70
o TerminationInsulator.005
v 0.008943 6.020125 39.513142
v 0.102524 6.020125 39.535423
v 0.022585 6.020125 39.649387
v 0.102411 6.020125 39.663994
v 0.038884 6.020125 39.777973
v 0.027407 5.992415 39.777966
v 0.073122 5.949414 39.663967
v 0.016437 6.005281 39.649384
v 0.073234 5.949414 39.535397
v 0.006303 6.013751 39.513138
v -0.000303 5.980938 39.777939
v 0.002411 5.920125 39.663906
v 0.001593 5.999133 39.649372
v 0.002524 5.920125 39.535336
v -0.000071 6.011111 39.513134
v -0.028012 5.992415 39.777916
v -0.068300 5.949414 39.663845
v -0.014534 6.006085 39.649357
v -0.068187 5.949414 39.535275
v -0.006444 6.013751 39.513126
v -0.039490 6.020125 39.777905
v -0.097589 6.020125 39.663818
v -0.020425 6.020125 39.649353
v -0.097476 6.020125 39.535248
v -0.009085 6.020125 39.513126
v -0.028012 6.047834 39.777916
v -0.068300 6.090836 39.663845
v -0.014534 6.034165 39.649357
v -0.068187 6.090836 39.535275
v -0.006444 6.026499 39.513126
v -0.000303 6.059312 39.777939
v 0.002411 6.120125 39.663906
v 0.001593 6.041117 39.649372
v 0.002524 6.120125 39.535336
v -0.000071 6.029139 39.513134
v 0.027407 6.047834 39.777966
v 0.073121 6.090836 39.663967
v 0.016437 6.034968 39.649384
v 0.073234 6.090836 39.535397
v 0.006303 6.026499 39.513138
v 0.017966 6.020125 39.777954
v 0.012615 6.007207 39.777950
v -0.000303 6.001856 39.777939
v -0.013221 6.007207 39.777927
v -0.018572 6.020125 39.777924
v -0.013221 6.033043 39.777927
v -0.000303 6.038394 39.777939
v 0.012615 6.033043 39.777950
v 0.017810 6.020125 39.955750
v 0.012460 6.007207 39.955746
v -0.000459 6.001856 39.955734
v -0.013377 6.007207 39.955723
v -0.018728 6.020125 39.955719
v -0.013377 6.033043 39.955723
v -0.000459 6.038394 39.955734
v 0.012460 6.033043 39.955746
v -0.034483 6.033043 39.955704
v -0.021565 6.038394 39.955715
v -0.039834 6.020125 39.955700
v -0.034483 6.007207 39.955704
v -0.021565 6.001856 39.955715
v -0.034503 6.033043 39.978489
v -0.021585 6.038394 39.978497
v -0.039854 6.020125 39.978481
v -0.034503 6.007207 39.978489
v -0.021585 6.001856 39.978497
v 0.034076 6.033043 39.955765
v 0.039427 6.020125 39.955769
v 0.021158 6.038394 39.955753
v 0.034076 6.007207 39.955765
v 0.021158 6.001856 39.955753
v 0.034056 6.033043 39.978546
v 0.039407 6.020125 39.978550
v 0.021138 6.038394 39.978535
v 0.034056 6.007207 39.978546
v 0.021138 6.001856 39.978535
vn 0.1681 -0.8430 -0.5110
vn 0.0009 -0.0000 -1.0000
vn 0.1659 0.1639 -0.9724
vn 0.2316 -0.0000 -0.9728
vn 0.1641 0.1657 -0.9724
vn 0.0001 -0.9864 -0.1644
vn 0.1672 -0.8430 0.5113
vn 0.0021 0.2370 -0.9715
vn -0.0017 0.2371 -0.9715
vn 0.1281 0.1269 -0.9836
vn 0.1800 -0.0000 -0.9837
vn 0.1275 0.1274 -0.9836
vn 0.0007 0.8220 0.5695
vn 0.5783 0.5809 0.5729
vn 0.5799 0.5792 0.5729
vn 0.6156 -0.6234 0.4820
vn 0.0043 -0.8823 0.4706
vn 0.6216 -0.6174 0.4822
vn -0.0067 -0.8207 0.5713
vn -0.5824 -0.5855 0.5639
vn 0.0007 -0.8220 0.5695
vn -0.0006 -0.1803 -0.9836
vn -0.1282 -0.1301 -0.9832
vn -0.1311 -0.1273 -0.9832
vn -0.8911 -0.0000 0.4538
vn -0.6323 0.6243 0.4587
vn -0.6261 0.6305 0.4588
vn -0.6323 -0.6243 0.4587
vn -0.6261 -0.6305 0.4588
vn -0.5824 0.5855 0.5639
vn -0.0067 0.8207 0.5713
vn -0.1841 -0.0000 -0.9829
vn -0.1843 -0.0000 -0.9829
vn 0.8187 -0.0000 0.5742
vn 0.5799 -0.5792 0.5729
vn -0.8285 -0.0000 0.5600
vn -0.5920 0.5760 0.5637
vn -0.1282 0.1301 -0.9832
vn -0.0006 0.1803 -0.9836
vn -0.1311 0.1273 -0.9832
vn -0.0079 0.8824 0.4704
vn 0.0043 0.8823 0.4706
vn -0.5920 -0.5760 0.5637
vn 0.1659 -0.1639 -0.9724
vn 0.1641 -0.1657 -0.9724
vn 0.1281 -0.1269 -0.9836
vn 0.1275 -0.1274 -0.9836
vn -0.0079 -0.8824 0.4704
vn -0.2428 -0.0000 -0.9701
vn -0.1714 0.1696 -0.9705
vn 0.0012 -0.1809 -0.9835
vn 0.5783 -0.5809 0.5729
vn -0.1694 0.1715 -0.9705
vn -0.0009 -0.0000 1.0000
vn -0.7071 -0.7071 -0.0006
vn -1.0000 -0.0000 -0.0009
vn -0.7071 0.7071 -0.0006
vn -0.0000 1.0000 -0.0000
vn 0.7071 0.7071 0.0006
vn 1.0000 -0.0000 0.0009
vn 0.7071 -0.7071 0.0006
vn -0.0000 -1.0000 -0.0000
vn -0.1672 -0.8430 -0.5113
vn 0.1672 0.8430 0.5113
vn 0.1681 0.8430 -0.5110
vn 0.0001 0.9864 -0.1644
vn -0.1714 -0.1696 -0.9705
vn 0.6216 0.6174 0.4822
vn 0.8735 -0.0000 0.4868
vn -0.1681 0.8430 0.5110
vn -0.1672 0.8430 -0.5113
vn 0.0021 -0.2370 -0.9715
vn -0.0017 -0.2371 -0.9715
vn 0.0012 0.1809 -0.9835
vn 0.6156 0.6234 0.4820
vn -0.1694 -0.1715 -0.9705
vn -0.1681 -0.8430 0.5110
vn -0.8287 -0.0000 0.5596
vt 0.974819 0.011201
vt 0.973782 0.009471
vt 0.973420 0.007486
vt 0.959078 0.009106
vt 0.959980 0.008121
vt 0.959829 0.008953
vt 0.958351 0.010320
vt 0.959541 0.009716
vt 0.959107 0.010441
vt 0.961534 0.006322
vt 0.960633 0.007306
vt 0.960784 0.006475
vt 0.957590 0.008546
vt 0.963023 0.008546
vt 0.962262 0.010320
vt 0.961534 0.009106
vt 0.957155 0.006157
vt 0.957242 0.004228
vt 0.958351 0.005108
vt 0.962043 0.011054
vt 0.963371 0.011200
vt 0.962706 0.011579
vt 0.964718 0.003795
vt 0.964120 0.005631
vt 0.963371 0.004228
vt 0.964120 0.009797
vt 0.964718 0.011632
vt 0.957242 0.011200
vt 0.957155 0.009271
vt 0.963425 0.011963
vt 0.964230 0.012222
vt 0.957741 0.007714
vt 0.959078 0.006322
vt 0.959332 0.007714
vt 0.955895 0.011632
vt 0.956493 0.009797
vt 0.962043 0.004374
vt 0.962706 0.003848
vt 0.963458 0.006157
vt 0.962262 0.005108
vt 0.956493 0.005631
vt 0.955895 0.003795
vt 0.963425 0.003464
vt 0.964230 0.003206
vt 0.959980 0.007306
vt 0.959829 0.006475
vt 0.960633 0.008121
vt 0.960784 0.008953
vt 0.963458 0.009271
vt 0.957188 0.011963
vt 0.956383 0.012222
vt 0.961071 0.009716
vt 0.961506 0.010441
vt 0.957590 0.006882
vt 0.958569 0.011054
vt 0.957907 0.011579
vt 0.964925 0.005373
vt 0.962871 0.007714
vt 0.976399 0.012455
vt 0.978320 0.013071
vt 0.976399 0.002518
vt 0.974819 0.003771
vt 0.973782 0.005502
vt 0.978320 0.001901
vt 0.957188 0.003464
vt 0.956383 0.003206
vt 0.961281 0.007714
vt 0.959541 0.005712
vt 0.959107 0.004987
vt 0.977217 0.003898
vt 0.961071 0.005712
vt 0.961506 0.004987
vt 0.963023 0.006882
vt 0.958569 0.004374
vt 0.957907 0.003848
vt 0.964925 0.010055
vt 0.955687 0.010055
vt 0.955687 0.005373
s 1
usemtl Catenary
f 223/155/131 202/156/132 201/157/132
f 191/158/133 153/159/134 192/160/135
f 203/155/136 223/155/131 228/155/137
f 186/161/138 192/162/135 187/163/139
f 189/164/140 155/165/141 190/166/142
f 186/161/143 190/167/144 191/158/145
f 158/168/146 164/169/147 159/170/148
f 165/171/149 171/172/150 166/173/151
f 165/174/152 169/175/153 170/176/154
f 174/177/155 178/178/156 179/179/157
f 168/180/158 174/181/155 169/175/159
f 181/182/160 185/183/161 186/161/143
f 170/184/154 174/181/162 175/185/163
f 155/186/164 161/187/165 154/188/164
f 176/189/166 180/190/167 181/182/160
f 179/179/168 185/191/169 180/192/170
f 179/179/157 183/193/171 184/194/172
f 170/195/173 176/196/166 171/172/150
f 174/177/162 180/197/170 175/198/163
f 153/199/134 161/187/174 162/200/175
f 155/201/141 159/170/176 160/202/177
f 163/203/178 169/175/159 164/169/147
f 176/189/179 182/204/180 177/205/179
f 160/206/177 164/169/181 165/207/152
f 160/208/182 166/173/151 161/187/165
f 181/182/183 187/209/139 182/210/180
f 197/211/184 198/178/184 178/178/184
f 193/212/184 194/168/184 158/168/184
f 196/213/185 205/214/186 197/214/186
f 198/215/187 207/216/188 199/216/188
f 200/217/189 201/157/190 193/157/190
f 193/157/190 202/156/191 194/156/191
f 195/155/192 204/213/185 196/213/185
f 197/218/186 206/215/187 198/215/187
f 199/216/188 208/217/189 200/217/189
f 194/156/191 203/155/192 195/155/192
f 191/158/145 155/186/164 154/188/164
f 205/214/132 204/213/132 213/155/193
f 226/216/194 221/216/195 207/216/196
f 172/219/197 176/196/179 177/220/179
f 189/164/198 157/212/199 156/221/199
f 212/213/185 216/214/186 211/214/186
f 209/215/187 215/216/200 210/216/201
f 213/155/193 217/213/185 212/213/185
f 211/218/186 214/215/187 209/215/187
f 162/222/175 166/173/202 167/223/203
f 226/224/194 215/224/200 228/224/137
f 222/156/191 228/155/137 223/155/131
f 219/217/189 225/157/190 220/157/190
f 220/157/190 227/156/191 222/156/191
f 221/216/195 224/217/189 219/217/189
f 184/194/204 190/225/142 185/226/169
f 184/194/172 188/227/205 189/164/198
f 167/228/203 171/172/206 172/229/197
f 157/212/199 159/170/148 156/221/199
f 208/217/132 207/216/196 221/216/195
f 221/216/195 219/217/132 201/157/132
f 219/217/132 220/157/132 201/157/132
f 220/157/132 222/156/132 201/157/132
f 222/156/132 223/155/131 201/157/132
f 223/155/131 203/155/136 202/156/132
f 201/157/132 208/217/132 221/216/195
f 191/158/133 154/188/134 153/159/134
f 228/155/137 218/155/207 203/155/136
f 218/155/207 213/155/193 203/155/136
f 186/161/138 191/158/133 192/162/135
f 189/164/140 156/221/141 155/165/141
f 186/161/143 185/183/161 190/167/144
f 158/168/146 163/203/178 164/169/147
f 165/171/149 170/195/173 171/172/150
f 165/174/152 164/169/181 169/175/153
f 174/177/155 173/211/155 178/178/156
f 168/180/158 173/230/155 174/181/155
f 181/182/160 180/190/167 185/183/161
f 170/184/154 169/175/153 174/181/162
f 155/186/164 160/208/182 161/187/165
f 176/189/166 175/231/208 180/190/167
f 179/179/168 184/194/204 185/191/169
f 179/179/157 178/178/156 183/193/171
f 170/195/173 175/232/208 176/196/166
f 174/177/162 179/179/168 180/197/170
f 153/199/134 154/188/134 161/187/174
f 155/201/141 156/221/141 159/170/176
f 163/203/178 168/180/158 169/175/159
f 176/189/179 181/182/183 182/204/180
f 160/206/177 159/170/176 164/169/181
f 160/208/182 165/171/149 166/173/151
f 181/182/183 186/161/138 187/209/139
f 178/178/184 173/230/184 197/211/184
f 173/230/184 168/180/184 197/211/184
f 168/180/184 163/203/184 195/203/184
f 168/180/184 195/203/184 196/180/184
f 188/227/184 183/193/184 199/193/184
f 183/193/184 178/178/184 199/193/184
f 199/193/184 200/227/184 188/227/184
f 168/180/184 196/180/184 197/211/184
f 198/178/184 199/193/184 178/178/184
f 158/168/184 157/212/184 193/212/184
f 157/212/184 188/227/184 193/212/184
f 188/227/184 200/227/184 193/212/184
f 194/168/184 195/203/184 163/203/184
f 194/168/184 163/203/184 158/168/184
f 196/213/185 204/213/185 205/214/186
f 198/215/187 206/215/187 207/216/188
f 200/217/189 208/217/189 201/157/190
f 193/157/190 201/157/190 202/156/191
f 195/155/192 203/155/192 204/213/185
f 197/218/186 205/218/186 206/215/187
f 199/216/188 207/216/188 208/217/189
f 194/156/191 202/156/191 203/155/192
f 191/158/145 190/167/144 155/186/164
f 210/216/201 207/216/196 206/215/132
f 210/216/201 206/215/132 205/214/132
f 211/218/132 209/215/132 205/214/132
f 209/215/132 210/216/201 205/214/132
f 213/155/193 212/213/132 205/214/132
f 212/213/132 211/218/132 205/214/132
f 204/213/132 203/155/136 213/155/193
f 210/216/201 215/216/200 207/216/196
f 215/216/200 226/216/194 207/216/196
f 172/219/197 171/172/206 176/196/179
f 189/164/198 188/227/205 157/212/199
f 212/213/185 217/213/185 216/214/186
f 209/215/187 214/215/187 215/216/200
f 213/155/193 218/155/207 217/213/185
f 211/218/186 216/218/186 214/215/187
f 162/222/175 161/187/174 166/173/202
f 214/224/184 216/224/184 217/224/184
f 217/224/184 218/224/207 214/224/184
f 218/224/207 228/224/137 215/224/200
f 214/224/184 218/224/207 215/224/200
f 228/224/137 227/224/184 225/224/184
f 225/224/184 224/224/184 228/224/137
f 224/224/184 226/224/194 228/224/137
f 222/156/191 227/156/191 228/155/137
f 219/217/189 224/217/189 225/157/190
f 220/157/190 225/157/190 227/156/191
f 221/216/195 226/216/194 224/217/189
f 184/194/204 189/164/140 190/225/142
f 184/194/172 183/193/171 188/227/205
f 167/228/203 166/173/202 171/172/206
f 157/212/199 158/168/146 159/170/148
o Messenger.004
v 0.000022 6.995394 -0.007250
v 0.000172 7.037938 41.007572
v 0.009021 6.986394 -0.007385
v 0.009171 7.028937 41.007439
v 0.000022 6.977394 -0.007250
v 0.000172 7.019938 41.007572
v -0.008977 6.986394 -0.007114
v -0.008827 7.028937 41.007706
v 0.000097 6.502918 19.999998
v 0.009096 6.493918 19.999863
v 0.000097 6.484918 19.999998
v -0.008902 6.493918 20.000134
v 0.000134 6.636969 30.003622
v 0.009058 6.627953 9.996239
v 0.000059 6.618953 9.996374
v -0.008940 6.627953 9.996510
v 0.000059 6.636953 9.996374
v 0.009133 6.627968 30.003487
v 0.000134 6.618968 30.003622
v -0.008865 6.627968 30.003757
v 0.000153 6.792821 35.005432
v 0.009040 6.783797 4.994427
v 0.000041 6.774797 4.994561
v -0.008958 6.783797 4.994697
v 0.000078 6.546559 14.998186
v 0.009114 6.537568 25.001675
v 0.000116 6.528567 25.001810
v -0.008883 6.537568 25.001945
v 0.000116 6.546567 25.001810
v 0.009077 6.537560 14.998051
v 0.000078 6.528560 14.998186
v -0.008921 6.537560 14.998322
v 0.000041 6.792798 4.994561
v 0.009152 6.783821 35.005299
v 0.000153 6.774821 35.005432
v -0.008846 6.783821 35.005569
vn -0.0003 0.9993 -0.0361
vn 0.9998 0.0185 -0.0008
vn 1.0000 -0.0019 0.0001
vn -0.0063 -0.9991 0.0408
vn 0.0003 -0.9994 0.0359
vn 0.0150 -0.0000 0.9999
vn -1.0000 -0.0024 0.0002
vn -0.9998 0.0182 -0.0007
vn -0.0150 -0.0000 -0.9999
vn -1.0000 -0.0020 -0.0001
vn -0.0000 1.0000 -0.0000
vn 0.0001 0.9999 0.0134
vn -0.0000 -1.0000 -0.0000
vn -0.0001 -0.9999 -0.0134
vn 1.0000 -0.0039 -0.0000
vn 1.0000 -0.0022 -0.0001
vn 0.0002 0.9997 0.0247
vn 1.0000 -0.0024 -0.0002
vn 0.0003 0.9994 0.0359
vn 1.0000 -0.0031 -0.0002
vn -0.0003 -0.9994 -0.0357
vn -1.0000 -0.0028 -0.0001
vn -1.0000 -0.0018 -0.0001
vn -1.0000 -0.0031 0.0002
vn -0.0001 0.9999 -0.0134
vn -1.0000 -0.0022 0.0001
vn 0.0002 -0.9997 0.0245
vn 0.0001 -0.9999 0.0134
vn 1.0000 -0.0020 0.0001
vn 1.0000 -0.0028 0.0001
vn -1.0000 -0.0039 -0.0000
vn -0.9998 0.0184 0.0007
vn 0.0072 0.9992 0.0405
vn 0.0063 -0.9992 -0.0405
vn 0.9998 0.0180 0.0007
vn -0.0002 -0.9997 -0.0245
vn -0.0002 0.9997 -0.0247
vn -0.0072 0.9991 -0.0408
vt 0.999930 0.013775
vt 0.996268 0.014691
vt 0.996268 0.013775
vt 0.992605 0.014691
vt 0.992605 0.013775
vt 0.988943 0.007219
vt 0.988943 0.000187
vt 0.992459 0.003703
vt 0.988943 0.013775
vt 0.988943 0.014691
vt 0.985280 0.013775
vt 0.999784 0.003703
vt 0.992752 0.003703
vt 0.996268 0.007219
vt 0.988943 0.010113
vt 0.985280 0.011028
vt 0.985280 0.010113
vt 0.992605 0.011028
vt 0.992605 0.010113
vt 0.996268 0.011028
vt 0.996268 0.010113
vt 0.999930 0.010113
vt 0.999930 0.009197
vt 0.996268 0.008281
vt 0.999930 0.008281
vt 0.996268 0.009197
vt 0.992605 0.008281
vt 0.988943 0.009197
vt 0.988943 0.008281
vt 0.985280 0.009197
vt 0.985280 0.008281
vt 0.988943 0.012859
vt 0.985280 0.011944
vt 0.988943 0.011944
vt 0.992605 0.012859
vt 0.992605 0.011944
vt 0.996268 0.011944
vt 0.999930 0.011944
vt 0.996268 0.012859
vt 0.999930 0.011028
vt 0.988943 0.011028
vt 0.988943 0.007366
vt 0.985280 0.007366
vt 0.992605 0.007366
vt 0.996268 0.007366
vt 0.999930 0.007366
vt 0.992605 0.009197
vt 0.985280 0.012859
vt 0.999930 0.012859
vt 0.999930 0.014691
vt 0.985427 0.003703
vt 0.985280 0.014691
vt 0.996268 0.000187
s 1
usemtl Catenary
f 249/233/209 232/234/210 262/235/211
f 262/235/211 234/236/212 263/237/213
f 230/238/214 234/239/214 232/240/214
f 234/236/212 264/241/215 263/237/213
f 236/242/216 249/243/209 264/241/215
f 231/244/217 235/245/217 229/246/217
f 260/247/218 237/248/219 253/249/220
f 239/250/221 260/247/218 259/251/222
f 238/252/223 259/251/222 258/253/224
f 253/254/220 238/252/223 258/253/224
f 245/255/225 250/256/226 261/257/227
f 242/258/228 251/259/229 250/256/226
f 251/259/229 244/260/230 252/261/231
f 252/261/231 245/262/225 261/263/227
f 248/264/232 257/265/233 256/266/234
f 247/267/235 256/266/234 255/268/236
f 254/269/237 247/267/235 255/268/236
f 257/270/233 246/271/238 254/269/237
f 237/272/219 254/269/237 238/252/223
f 254/269/237 239/250/221 238/252/223
f 255/268/236 240/273/239 239/250/221
f 240/273/239 257/265/233 237/248/219
f 235/274/240 261/263/227 229/275/241
f 233/276/242 252/261/231 235/274/240
f 250/256/226 233/276/242 231/277/243
f 261/257/227 231/277/243 229/278/241
f 253/254/220 242/258/228 245/255/225
f 258/253/224 243/279/244 242/258/228
f 243/279/244 260/247/218 244/260/230
f 244/260/230 253/249/220 245/262/225
f 264/241/215 241/280/245 248/264/232
f 263/237/213 248/264/232 247/267/235
f 246/271/238 263/237/213 247/267/235
f 241/281/245 262/235/211 246/271/238
f 249/233/209 230/282/246 232/234/210
f 262/235/211 232/234/210 234/236/212
f 230/238/214 236/283/214 234/239/214
f 234/236/212 236/242/216 264/241/215
f 236/242/216 230/284/246 249/243/209
f 231/244/217 233/285/217 235/245/217
f 260/247/218 240/273/239 237/248/219
f 239/250/221 240/273/239 260/247/218
f 238/252/223 239/250/221 259/251/222
f 253/254/220 237/272/219 238/252/223
f 245/255/225 242/258/228 250/256/226
f 242/258/228 243/279/244 251/259/229
f 251/259/229 243/279/244 244/260/230
f 252/261/231 244/260/230 245/262/225
f 248/264/232 241/280/245 257/265/233
f 247/267/235 248/264/232 256/266/234
f 254/269/237 246/271/238 247/267/235
f 257/270/233 241/281/245 246/271/238
f 237/272/219 257/270/233 254/269/237
f 254/269/237 255/268/236 239/250/221
f 255/268/236 256/266/234 240/273/239
f 240/273/239 256/266/234 257/265/233
f 235/274/240 252/261/231 261/263/227
f 233/276/242 251/259/229 252/261/231
f 250/256/226 251/259/229 233/276/242
f 261/257/227 250/256/226 231/277/243
f 253/254/220 258/253/224 242/258/228
f 258/253/224 259/251/222 243/279/244
f 243/279/244 259/251/222 260/247/218
f 244/260/230 260/247/218 253/249/220
f 264/241/215 249/243/209 241/280/245
f 263/237/213 264/241/215 248/264/232
f 246/271/238 262/235/211 263/237/213
f 241/281/245 249/233/209 262/235/211
o Contact.003
v -0.000075 6.008984 -0.007509
v 0.000075 6.029015 41.001072
v 0.008924 5.999984 -0.007645
v 0.009074 6.020015 41.000938
v -0.000075 5.990984 -0.007509
v 0.000075 6.011015 41.001072
v -0.009074 5.999984 -0.007374
v -0.008924 6.020015 41.001205
v 0.000000 6.028996 4.994558
v 0.008999 6.019996 4.994423
v 0.000000 6.010996 4.994558
v -0.008999 6.019996 4.994693
vn -0.0000 1.0000 -0.0020
vn 1.0000 -0.0000 -0.0000
vn 1.0000 0.0009 -0.0000
vn -0.0000 -1.0000 0.0020
vn 0.0150 -0.0000 0.9999
vn 0.0152 -0.0000 0.9999
vn -0.0067 -1.0000 -0.0000
vn -1.0000 0.0009 -0.0000
vn -0.0067 1.0000 -0.0000
vn -0.0150 -0.0000 -0.9999
vn -1.0000 -0.0018 -0.0000
vn 0.0067 1.0000 -0.0040
vn 0.0068 -1.0000 0.0040
vn 1.0000 -0.0018 -0.0000
vn 0.0148 -0.0000 0.9999
vn -1.0000 -0.0000 -0.0000
vt 0.999930 0.009824
vt 0.996669 0.013085
vt 0.996669 0.009824
vt 0.993408 0.009824
vt 0.990147 0.006432
vt 0.990147 0.000171
vt 0.993278 0.003302
vt 0.993408 0.013085
vt 0.990147 0.009824
vt 0.986886 0.013085
vt 0.986886 0.009824
vt 0.996669 0.006432
vt 0.996669 0.000171
vt 0.993539 0.003302
vt 0.990147 0.006563
vt 0.986886 0.006563
vt 0.993408 0.006563
vt 0.996669 0.006563
vt 0.999930 0.006563
vt 0.999930 0.013085
vt 0.987017 0.003302
vt 0.990147 0.013085
vt 0.999800 0.003302
s 1
usemtl Catenary
f 273/286/247 268/287/248 274/288/249
f 268/287/248 275/289/250 274/288/249
f 266/290/251 270/291/251 268/292/252
f 270/293/253 276/294/254 275/289/250
f 276/294/254 266/295/255 273/296/247
f 265/297/256 269/298/256 271/299/256
f 271/300/257 273/296/247 265/301/258
f 275/289/250 271/300/257 269/302/259
f 274/288/249 269/302/259 267/303/260
f 265/304/258 274/288/249 267/303/260
f 273/286/247 266/305/255 268/287/248
f 268/287/248 270/293/253 275/289/250
f 266/290/251 272/306/261 270/291/251
f 270/293/253 272/307/262 276/294/254
f 276/294/254 272/307/262 266/295/255
f 265/297/256 267/308/256 269/298/256
f 271/300/257 276/294/254 273/296/247
f 275/289/250 276/294/254 271/300/257
f 274/288/249 275/289/250 269/302/259
f 265/304/258 273/286/247 274/288/249
