# Blender 5.0.1
# www.blender.org
mtllib wire_middle_anchor_quad.mtl
o Messenger.007
g wire_middle_anchor_quad
v -0.017627 6.995409 -0.007250
v -0.017477 6.995411 40.007248
v -0.008628 6.986409 -0.007385
v -0.008478 6.986412 40.007111
v -0.017627 6.977408 -0.007250
v -0.017477 6.977412 40.007248
v -0.026626 6.986409 -0.007114
v -0.026476 6.986412 40.007381
v -0.017552 6.502918 19.999998
v -0.008553 6.493918 19.999863
v -0.017552 6.484918 19.999998
v -0.026551 6.493918 20.000134
v -0.017515 6.636961 30.003622
v -0.008590 6.627960 9.996239
v -0.017589 6.618960 9.996374
v -0.026588 6.627960 9.996510
v -0.017589 6.636960 9.996374
v -0.008516 6.627961 30.003487
v -0.017515 6.618961 30.003622
v -0.026514 6.627961 30.003757
v -0.017496 6.792810 35.005436
v -0.008609 6.783808 4.994427
v -0.017608 6.774808 4.994561
v -0.026607 6.783808 4.994697
v -0.017571 6.546563 14.998186
v -0.008534 6.537564 25.001675
v -0.017533 6.528564 25.001810
v -0.026532 6.537564 25.001945
v -0.017533 6.546564 25.001810
v -0.008572 6.537563 14.998051
v -0.017571 6.528563 14.998186
v -0.026570 6.537563 14.998322
v -0.017608 6.792808 4.994561
v -0.008497 6.783811 35.005299
v -0.017496 6.774810 35.005436
v -0.026495 6.783811 35.005569
vn 0.0150 -0.0000 0.9999
vn -0.0150 -0.0000 -0.9999
vn -1.0000 -0.0020 -0.0001
vn -0.0000 1.0000 -0.0000
vn 0.0001 0.9999 0.0134
vn -0.0000 -1.0000 -0.0000
vn -0.0001 -0.9999 -0.0134
vn 1.0000 -0.0039 -0.0000
vn 1.0000 -0.0022 -0.0001
vn 0.0002 0.9997 0.0247
vn 1.0000 -0.0024 -0.0002
vn 0.0003 0.9994 0.0359
vn 1.0000 -0.0031 -0.0002
vn -0.0003 -0.9994 -0.0357
vn -1.0000 -0.0028 -0.0001
vn -1.0000 -0.0018 -0.0001
vn -1.0000 -0.0031 0.0002
vn -0.0001 0.9999 -0.0134
vn -1.0000 -0.0022 0.0001
vn 0.0002 -0.9997 0.0245
vn 0.0001 -0.9999 0.0134
vn 1.0000 -0.0020 0.0001
vn 1.0000 -0.0028 0.0001
vn -1.0000 -0.0039 -0.0000
vn -0.9998 0.0184 0.0007
vn 0.0072 0.9992 0.0405
vn 0.0063 -0.9992 -0.0405
vn 0.9998 0.0180 0.0007
vn -0.0002 -0.9997 -0.0245
vn -1.0000 -0.0024 0.0002
vn -0.0002 0.9997 -0.0247
vn 0.0003 -0.9994 0.0357
vn 1.0000 -0.0018 0.0001
vn -0.0003 0.9994 -0.0359
vn 0.9998 0.0184 -0.0007
vn -0.0063 -0.9992 0.0405
vn -0.9998 0.0180 -0.0007
vn -0.0072 0.9992 -0.0405
vt 0.988422 0.012220
vt 0.988422 0.012053
vt 0.988422 0.012137
vt 0.997748 0.012137
vt 0.997748 0.012137
vt 0.997748 0.012220
vt 0.994251 0.007969
vt 0.993085 0.007648
vt 0.994251 0.008053
vt 0.993085 0.007480
vt 0.994251 0.007886
vt 0.993085 0.007564
vt 0.994251 0.007969
vt 0.995417 0.008892
vt 0.996582 0.010256
vt 0.996582 0.010339
vt 0.995417 0.008809
vt 0.996582 0.010172
vt 0.995417 0.008809
vt 0.996582 0.010256
vt 0.990754 0.008809
vt 0.991919 0.008053
vt 0.991919 0.007969
vt 0.990754 0.008725
vt 0.991919 0.007886
vt 0.991919 0.007969
vt 0.990754 0.008809
vt 0.997748 0.012053
vt 0.995417 0.008725
vt 0.989588 0.010256
vt 0.990754 0.008892
vt 0.989588 0.010172
vt 0.989588 0.010339
vt 0.988422 0.012137
s 1
usemtl Catenary
f 2/1/1 6/2/1 4/3/1
f 3/4/2 7/5/2 1/6/2
f 32/7/3 9/8/4 25/9/5
f 11/10/6 32/7/3 31/11/7
f 10/12/8 31/11/7 30/13/9
f 25/9/5 10/12/8 30/13/9
f 17/14/10 22/15/11 33/16/12
f 14/17/13 23/18/14 22/15/11
f 23/18/14 16/19/15 24/20/16
f 24/20/16 17/14/10 33/16/12
f 20/21/17 29/22/18 28/23/19
f 19/24/20 28/23/19 27/25/21
f 26/26/22 19/24/20 27/25/21
f 29/22/18 18/27/23 26/26/22
f 9/8/4 26/26/22 10/12/8
f 26/26/22 11/10/6 10/12/8
f 27/25/21 12/12/24 11/10/6
f 12/12/24 29/22/18 9/8/4
f 7/5/25 33/16/12 1/6/26
f 5/28/27 24/20/16 7/5/25
f 22/15/11 5/28/27 3/4/28
f 33/16/12 3/4/28 1/6/26
f 25/9/5 14/17/13 17/14/10
f 30/13/9 15/29/29 14/17/13
f 15/29/29 32/7/3 16/19/15
f 16/19/15 25/9/5 17/14/10
f 36/30/30 13/31/31 20/21/17
f 35/32/32 20/21/17 19/24/20
f 18/27/23 35/32/32 19/24/20
f 13/31/31 34/30/33 18/27/23
f 21/33/34 4/3/35 34/30/33
f 34/30/33 6/2/36 35/32/32
f 6/2/36 36/30/30 35/32/32
f 8/34/37 21/33/34 36/30/30
f 2/1/1 8/34/1 6/2/1
f 3/4/2 5/28/2 7/5/2
f 32/7/3 12/12/24 9/8/4
f 11/10/6 12/12/24 32/7/3
f 10/12/8 11/10/6 31/11/7
f 25/9/5 9/8/4 10/12/8
f 17/14/10 14/17/13 22/15/11
f 14/17/13 15/29/29 23/18/14
f 23/18/14 15/29/29 16/19/15
f 24/20/16 16/19/15 17/14/10
f 20/21/17 13/31/31 29/22/18
f 19/24/20 20/21/17 28/23/19
f 26/26/22 18/27/23 19/24/20
f 29/22/18 13/31/31 18/27/23
f 9/8/4 29/22/18 26/26/22
f 26/26/22 27/25/21 11/10/6
f 27/25/21 28/23/19 12/12/24
f 12/12/24 28/23/19 29/22/18
f 7/5/25 24/20/16 33/16/12
f 5/28/27 23/18/14 24/20/16
f 22/15/11 23/18/14 5/28/27
f 33/16/12 22/15/11 3/4/28
f 25/9/5 30/13/9 14/17/13
f 30/13/9 31/11/7 15/29/29
f 15/29/29 31/11/7 32/7/3
f 16/19/15 32/7/3 25/9/5
f 36/30/30 21/33/34 13/31/31
f 35/32/32 36/30/30 20/21/17
f 18/27/23 34/30/33 35/32/32
f 13/31/31 21/33/34 34/30/33
f 21/33/34 2/1/38 4/3/35
f 34/30/33 4/3/35 6/2/36
f 6/2/36 8/34/37 36/30/30
f 8/34/37 2/1/38 21/33/34
o Contact1.004
v 0.017357 6.008998 -0.007509
v 0.017507 6.009002 40.006989
v 0.026356 5.999999 -0.007645
v 0.026506 6.000001 40.006851
v 0.017357 5.990998 -0.007509
v 0.017507 5.991002 40.006989
v 0.008358 5.999999 -0.007374
v 0.008508 6.000001 40.007122
vn 0.0066 1.0000 -0.0000
vn 1.0000 -0.0000 -0.0000
vn 0.0066 -1.0000 -0.0000
vn 0.0150 -0.0000 0.9999
vn -0.0066 -1.0000 -0.0000
vn -1.0000 -0.0000 -0.0000
vn -0.0066 1.0000 -0.0000
vn -0.0150 -0.0000 -0.9999
vt 0.997748 0.003062
vt 0.988422 0.002978
vt 0.997748 0.002978
vt 0.997748 0.002895
vt 0.988422 0.003062
vt 0.988422 0.002895
vt 0.997748 0.002978
vt 0.988422 0.002978
s 1
usemtl Catenary
f 37/35/39 40/36/40 39/37/40
f 40/36/40 41/38/41 39/37/40
f 38/39/42 42/40/42 40/36/42
f 42/40/43 43/41/44 41/38/41
f 43/41/44 38/39/45 37/35/39
f 37/35/46 41/38/46 43/41/46
f 37/35/39 38/39/45 40/36/40
f 40/36/40 42/40/43 41/38/41
f 38/39/42 44/42/42 42/40/42
f 42/40/43 44/42/44 43/41/44
f 43/41/44 44/42/44 38/39/45
f 37/35/46 39/37/46 41/38/46
o Contact2.002
v -0.017627 6.008998 -0.006985
v -0.017477 6.009002 40.007511
v -0.008628 5.999999 -0.007120
v -0.008478 6.000001 40.007378
v -0.017627 5.990998 -0.006985
v -0.017477 5.991002 40.007511
v -0.026626 5.999999 -0.006849
v -0.026476 6.000001 40.007645
vn 0.0066 1.0000 -0.0000
vn 1.0000 -0.0000 -0.0000
vn 0.0066 -1.0000 -0.0000
vn 0.0150 -0.0000 0.9999
vn -0.0066 -1.0000 -0.0000
vn -1.0000 -0.0000 -0.0000
vn -0.0066 1.0000 -0.0000
vn -0.0150 -0.0000 -0.9999
vt 0.997748 0.003062
vt 0.988422 0.002978
vt 0.997748 0.002978
vt 0.997748 0.002895
vt 0.988422 0.003062
vt 0.988422 0.002895
vt 0.997748 0.002978
vt 0.988422 0.002978
s 1
usemtl Catenary
f 45/43/47 48/44/48 47/45/48
f 48/44/48 49/46/49 47/45/48
f 46/47/50 50/48/50 48/44/50
f 50/48/51 51/49/52 49/46/49
f 51/49/52 46/47/53 45/43/47
f 45/43/54 49/46/54 51/49/54
f 45/43/47 46/47/53 48/44/48
f 48/44/48 50/48/51 49/46/49
f 46/47/50 52/50/50 50/48/50
f 50/48/51 52/50/52 51/49/52
f 51/49/52 52/50/52 46/47/53
f 45/43/54 47/45/54 49/46/54
o StitchWire1.002
v -0.017380 6.502542 40.007248
v -0.008381 6.493540 40.007107
v -0.017380 6.484542 40.007248
v -0.026379 6.493542 40.007381
v -0.017399 6.775814 35.005436
v -0.008400 6.766814 35.005299
v -0.017399 6.757814 35.005436
v -0.026398 6.766814 35.005569
v -0.017390 6.503176 37.999920
v -0.008391 6.494176 37.999786
v -0.017390 6.485176 37.999920
v -0.026389 6.494176 38.000053
vn 0.0004 0.9989 0.0465
vn 1.0000 -0.0003 -0.0000
vn 0.9998 -0.0207 -0.0019
vn -0.0003 -0.9990 -0.0446
vn -0.0069 -1.0000 -0.0003
vn -0.9998 -0.0200 -0.0018
vn -0.0068 1.0000 0.0003
vn -0.9991 0.0412 0.0038
vn 0.0077 0.9959 0.0907
vn 0.0058 -0.9959 -0.0907
vn 0.9992 0.0404 0.0037
vn -1.0000 -0.0001 -0.0000
vt 0.970403 0.010013
vt 0.969496 0.009846
vt 0.970403 0.009857
vt 0.970403 0.009701
vt 0.969496 0.009690
vt 0.970403 0.009857
vt 0.969496 0.010002
vt 0.971756 0.014583
vt 0.971756 0.014739
vt 0.971756 0.014427
vt 0.971756 0.014583
vt 0.969496 0.009846
s 1
usemtl Catenary
f 61/51/55 54/52/56 62/53/57
f 54/52/56 63/54/58 62/53/57
f 55/55/59 64/56/60 63/54/58
f 64/56/60 53/57/61 61/51/55
f 60/58/62 61/51/55 57/59/63
f 59/60/64 64/56/60 60/58/62
f 62/53/57 59/60/64 58/61/65
f 61/51/55 58/61/65 57/59/63
f 61/51/55 53/57/61 54/52/56
f 54/52/56 55/55/59 63/54/58
f 55/55/59 56/62/66 64/56/60
f 64/56/60 56/62/66 53/57/61
f 60/58/62 64/56/60 61/51/55
f 59/60/64 63/54/58 64/56/60
f 62/53/57 63/54/58 59/60/64
f 61/51/55 62/53/57 58/61/65
o StitchWire2.005
v -0.017724 6.502542 -0.007246
v -0.026723 6.493540 -0.007107
v -0.017724 6.484542 -0.007246
v -0.008725 6.493542 -0.007381
v -0.017703 6.775814 4.994565
v -0.026702 6.766814 4.994700
v -0.017703 6.757814 4.994565
v -0.008704 6.766814 4.994431
v -0.017714 6.503176 2.000081
v -0.026713 6.494176 2.000216
v -0.017714 6.485176 2.000081
v -0.008715 6.494176 1.999946
vn -0.0004 0.9989 -0.0465
vn -1.0000 -0.0003 -0.0000
vn -0.9998 -0.0207 0.0019
vn 0.0003 -0.9990 0.0446
vn 0.0069 -1.0000 0.0003
vn 0.9998 -0.0200 0.0018
vn 0.0068 1.0000 -0.0003
vn 0.9991 0.0412 -0.0038
vn -0.0077 0.9959 -0.0907
vn -0.0058 -0.9959 0.0907
vn -0.9992 0.0404 -0.0037
vn 1.0000 -0.0001 -0.0000
vt 0.970403 0.010013
vt 0.969496 0.009846
vt 0.970403 0.009857
vt 0.970403 0.009701
vt 0.969496 0.009690
vt 0.970403 0.009857
vt 0.969496 0.010002
vt 0.971756 0.014583
vt 0.971756 0.014739
vt 0.971756 0.014427
vt 0.971756 0.014583
vt 0.969496 0.009846
s 1
usemtl Catenary
f 73/63/67 66/64/68 74/65/69
f 66/64/68 75/66/70 74/65/69
f 67/67/71 76/68/72 75/66/70
f 76/68/72 65/69/73 73/63/67
f 72/70/74 73/63/67 69/71/75
f 71/72/76 76/68/72 72/70/74
f 74/65/69 71/72/76 70/73/77
f 73/63/67 70/73/77 69/71/75
f 73/63/67 65/69/73 66/64/68
f 66/64/68 67/67/71 75/66/70
f 67/67/71 68/74/78 76/68/72
f 76/68/72 68/74/78 65/69/73
f 72/70/74 76/68/72 73/63/67
f 71/72/76 75/66/70 76/68/72
f 74/65/69 75/66/70 71/72/76
f 73/63/67 74/65/69 70/73/77
o AnchorWire.002
v 0.017432 6.026077 19.999998
v 0.026431 6.017077 19.999863
v 0.017432 6.008077 19.999998
v 0.008433 6.017077 20.000134
v 0.017413 6.530177 14.998186
v 0.026450 6.521177 25.001675
v 0.017451 6.512177 25.001810
v 0.008452 6.521177 25.001945
v 0.017451 6.530177 25.001810
v 0.026412 6.521176 14.998051
v 0.017413 6.512177 14.998186
v 0.008414 6.521176 14.998322
vn -0.0000 1.0000 -0.0000
vn 0.9990 -0.0451 -0.0001
vn -0.0000 -1.0000 -0.0000
vn -0.9990 -0.0451 0.0001
vn 0.0078 0.9949 0.1003
vn 0.9990 0.0455 -0.0046
vn -0.0056 -0.9949 0.1003
vn -0.9990 0.0447 -0.0045
vn -0.0078 0.9949 -0.1003
vn 0.9990 0.0447 0.0045
vn 0.0056 -0.9949 -0.1003
vn -0.9990 0.0455 0.0046
vt 0.980794 0.010325
vt 0.978535 0.001743
vt 0.980794 0.010481
vt 0.980794 0.010169
vt 0.978535 0.001587
vt 0.978535 0.001587
vt 0.980794 0.010325
vt 0.976275 0.010325
vt 0.976275 0.010169
vt 0.978535 0.001431
vt 0.976275 0.010325
vt 0.976275 0.010481
s 1
usemtl Catenary
f 88/75/90 77/76/79 81/77/83
f 87/78/89 80/79/82 88/75/90
f 78/80/80 87/78/89 86/81/88
f 77/76/79 86/81/88 81/77/83
f 77/76/79 82/82/84 78/80/80
f 78/80/80 83/83/85 79/84/81
f 83/83/85 80/79/82 79/84/81
f 84/85/86 77/76/79 80/79/82
f 88/75/90 80/79/82 77/76/79
f 87/78/89 79/84/81 80/79/82
f 78/80/80 79/84/81 87/78/89
f 77/76/79 78/80/80 86/81/88
f 77/76/79 85/86/87 82/82/84
f 78/80/80 82/82/84 83/83/85
f 83/83/85 84/85/86 80/79/82
f 84/85/86 85/86/87 77/76/79
o Messenger.008
v 0.017357 6.995409 -0.007250
v 0.017507 6.995411 40.007248
v 0.026356 6.986409 -0.007385
v 0.026506 6.986412 40.007111
v 0.017357 6.977408 -0.007250
v 0.017507 6.977412 40.007248
v 0.008358 6.986409 -0.007114
v 0.008508 6.986412 40.007381
v 0.017432 6.502918 19.999998
v 0.026431 6.493918 19.999863
v 0.017432 6.484918 19.999998
v 0.008433 6.493918 20.000134
v 0.017469 6.636961 30.003622
v 0.026394 6.627960 9.996239
v 0.017395 6.618960 9.996374
v 0.008396 6.627960 9.996510
v 0.017395 6.636960 9.996374
v 0.026468 6.627961 30.003487
v 0.017469 6.618961 30.003622
v 0.008470 6.627961 30.003757
v 0.017488 6.792810 35.005436
v 0.026375 6.783808 4.994427
v 0.017376 6.774808 4.994561
v 0.008377 6.783808 4.994697
v 0.017413 6.546563 14.998186
v 0.026450 6.537564 25.001675
v 0.017451 6.528564 25.001810
v 0.008452 6.537564 25.001945
v 0.017451 6.546564 25.001810
v 0.026412 6.537563 14.998051
v 0.017413 6.528563 14.998186
v 0.008414 6.537563 14.998322
v 0.017376 6.792808 4.994561
v 0.026487 6.783811 35.005299
v 0.017488 6.774810 35.005436
v 0.008489 6.783811 35.005569
vn 0.0150 -0.0000 0.9999
vn -0.0150 -0.0000 -0.9999
vn -1.0000 -0.0020 -0.0001
vn -0.0000 1.0000 -0.0000
vn 0.0001 0.9999 0.0134
vn -0.0000 -1.0000 -0.0000
vn -0.0001 -0.9999 -0.0134
vn 1.0000 -0.0039 -0.0000
vn 1.0000 -0.0022 -0.0001
vn 0.0002 0.9997 0.0247
vn 1.0000 -0.0024 -0.0002
vn 0.0003 0.9994 0.0359
vn 1.0000 -0.0031 -0.0002
vn -0.0003 -0.9994 -0.0357
vn -1.0000 -0.0028 -0.0001
vn -1.0000 -0.0018 -0.0001
vn -1.0000 -0.0031 0.0002
vn -0.0001 0.9999 -0.0134
vn -1.0000 -0.0022 0.0001
vn 0.0002 -0.9997 0.0245
vn 0.0001 -0.9999 0.0134
vn 1.0000 -0.0020 0.0001
vn 1.0000 -0.0028 0.0001
vn -1.0000 -0.0039 -0.0000
vn -0.9998 0.0184 0.0007
vn 0.0072 0.9992 0.0405
vn 0.0063 -0.9992 -0.0405
vn 0.9998 0.0180 0.0007
vn -0.0002 -0.9997 -0.0245
vn -1.0000 -0.0024 0.0002
vn -0.0002 0.9997 -0.0247
vn 0.0003 -0.9994 0.0357
vn 1.0000 -0.0018 0.0001
vn -0.0003 0.9994 -0.0359
vn 0.9998 0.0184 -0.0007
vn -0.0063 -0.9992 0.0405
vn -0.9998 0.0180 -0.0007
vn -0.0072 0.9992 -0.0405
vt 0.988422 0.012220
vt 0.988422 0.012053
vt 0.988422 0.012137
vt 0.997748 0.012137
vt 0.997748 0.012137
vt 0.997748 0.012220
vt 0.994251 0.007969
vt 0.993085 0.007648
vt 0.994251 0.008053
vt 0.993085 0.007480
vt 0.994251 0.007886
vt 0.993085 0.007564
vt 0.994251 0.007969
vt 0.995417 0.008892
vt 0.996582 0.010256
vt 0.996582 0.010339
vt 0.995417 0.008809
vt 0.996582 0.010172
vt 0.995417 0.008809
vt 0.996582 0.010256
vt 0.990754 0.008809
vt 0.991919 0.008053
vt 0.991919 0.007969
vt 0.990754 0.008725
vt 0.991919 0.007886
vt 0.991919 0.007969
vt 0.990754 0.008809
vt 0.997748 0.012053
vt 0.995417 0.008725
vt 0.989588 0.010256
vt 0.990754 0.008892
vt 0.989588 0.010172
vt 0.989588 0.010339
vt 0.988422 0.012137
s 1
usemtl Catenary
f 90/87/91 94/88/91 92/89/91
f 91/90/92 95/91/92 89/92/92
f 120/93/93 97/94/94 113/95/95
f 99/96/96 120/93/93 119/97/97
f 98/98/98 119/97/97 118/99/99
f 113/95/95 98/98/98 118/99/99
f 105/100/100 110/101/101 121/102/102
f 102/103/103 111/104/104 110/101/101
f 111/104/104 104/105/105 112/106/106
f 112/106/106 105/100/100 121/102/102
f 108/107/107 117/108/108 116/109/109
f 107/110/110 116/109/109 115/111/111
f 114/112/112 107/110/110 115/111/111
f 117/108/108 106/113/113 114/112/112
f 97/94/94 114/112/112 98/98/98
f 114/112/112 99/96/96 98/98/98
f 115/111/111 100/98/114 99/96/96
f 100/98/114 117/108/108 97/94/94
f 95/91/115 121/102/102 89/92/116
f 93/114/117 112/106/106 95/91/115
f 110/101/101 93/114/117 91/90/118
f 121/102/102 91/90/118 89/92/116
f 113/95/95 102/103/103 105/100/100
f 118/99/99 103/115/119 102/103/103
f 103/115/119 120/93/93 104/105/105
f 104/105/105 113/95/95 105/100/100
f 124/116/120 101/117/121 108/107/107
f 123/118/122 108/107/107 107/110/110
f 106/113/113 123/118/122 107/110/110
f 101/117/121 122/116/123 106/113/113
f 109/119/124 92/89/125 122/116/123
f 122/116/123 94/88/126 123/118/122
f 94/88/126 124/116/120 123/118/122
f 96/120/127 109/119/124 124/116/120
f 90/87/91 96/120/91 94/88/91
f 91/90/92 93/114/92 95/91/92
f 120/93/93 100/98/114 97/94/94
f 99/96/96 100/98/114 120/93/93
f 98/98/98 99/96/96 119/97/97
f 113/95/95 97/94/94 98/98/98
f 105/100/100 102/103/103 110/101/101
f 102/103/103 103/115/119 111/104/104
f 111/104/104 103/115/119 104/105/105
f 112/106/106 104/105/105 105/100/100
f 108/107/107 101/117/121 117/108/108
f 107/110/110 108/107/107 116/109/109
f 114/112/112 106/113/113 107/110/110
f 117/108/108 101/117/121 106/113/113
f 97/94/94 117/108/108 114/112/112
f 114/112/112 115/111/111 99/96/96
f 115/111/111 116/109/109 100/98/114
f 100/98/114 116/109/109 117/108/108
f 95/91/115 112/106/106 121/102/102
f 93/114/117 111/104/104 112/106/106
f 110/101/101 111/104/104 93/114/117
f 121/102/102 110/101/101 91/90/118
f 113/95/95 118/99/99 102/103/103
f 118/99/99 119/97/97 103/115/119
f 103/115/119 119/97/97 120/93/93
f 104/105/105 120/93/93 113/95/95
f 124/116/120 109/119/124 101/117/121
f 123/118/122 124/116/120 108/107/107
f 106/113/113 122/116/123 123/118/122
f 101/117/121 109/119/124 122/116/123
f 109/119/124 90/87/128 92/89/125
f 122/116/123 92/89/125 94/88/126
f 94/88/126 96/120/127 124/116/120
f 96/120/127 90/87/128 109/119/124
o AnchorWire.003
v -0.017552 6.026077 19.999998
v -0.008553 6.017077 19.999863
v -0.017552 6.008077 19.999998
v -0.026551 6.017077 20.000134
v -0.017571 6.530177 14.998186
v -0.008534 6.521177 25.001675
v -0.017533 6.512177 25.001810
v -0.026532 6.521177 25.001945
v -0.017533 6.530177 25.001810
v -0.008572 6.521176 14.998051
v -0.017571 6.512177 14.998186
v -0.026570 6.521176 14.998322
vn -0.0000 1.0000 -0.0000
vn 0.9990 -0.0451 -0.0001
vn -0.0000 -1.0000 -0.0000
vn -0.9990 -0.0451 0.0001
vn 0.0078 0.9949 0.1003
vn 0.9990 0.0455 -0.0046
vn -0.0056 -0.9949 0.1003
vn -0.9990 0.0447 -0.0045
vn -0.0078 0.9949 -0.1003
vn 0.9990 0.0447 0.0045
vn 0.0056 -0.9949 -0.1003
vn -0.9990 0.0455 0.0046
vt 0.980794 0.010325
vt 0.978535 0.001743
vt 0.980794 0.010481
vt 0.980794 0.010169
vt 0.978535 0.001587
vt 0.978535 0.001587
vt 0.980794 0.010325
vt 0.976275 0.010325
vt 0.976275 0.010169
vt 0.978535 0.001431
vt 0.976275 0.010325
vt 0.976275 0.010481
s 1
usemtl Catenary
f 136/121/140 125/122/129 129/123/133
f 135/124/139 128/125/132 136/121/140
f 126/126/130 135/124/139 134/127/138
f 125/122/129 134/127/138 129/123/133
f 125/122/129 130/128/134 126/126/130
f 126/126/130 131/129/135 127/130/131
f 131/129/135 128/125/132 127/130/131
f 132/131/136 125/122/129 128/125/132
f 136/121/140 128/125/132 125/122/129
f 135/124/139 127/130/131 128/125/132
f 126/126/130 127/130/131 135/124/139
f 125/122/129 126/126/130 134/127/138
f 125/122/129 133/132/137 130/128/134
f 126/126/130 130/128/134 131/129/135
f 131/129/135 132/131/136 128/125/132
f 132/131/136 133/132/137 125/122/129
o StitchWire1.003
v 0.017604 6.502542 40.007248
v 0.026603 6.493540 40.007107
v 0.017604 6.484542 40.007248
v 0.008605 6.493542 40.007381
v 0.017585 6.775814 35.005436
v 0.026584 6.766814 35.005299
v 0.017585 6.757814 35.005436
v 0.008586 6.766814 35.005569
v 0.017594 6.503176 37.999920
v 0.026593 6.494176 37.999786
v 0.017594 6.485176 37.999920
v 0.008595 6.494176 38.000053
vn 0.0004 0.9989 0.0465
vn 1.0000 -0.0003 -0.0000
vn 0.9998 -0.0207 -0.0019
vn -0.0003 -0.9990 -0.0446
vn -0.0069 -1.0000 -0.0003
vn -0.9998 -0.0200 -0.0018
vn -0.0068 1.0000 0.0003
vn -0.9991 0.0412 0.0038
vn 0.0077 0.9959 0.0907
vn 0.0058 -0.9959 -0.0907
vn 0.9992 0.0404 0.0037
vn -1.0000 -0.0001 -0.0000
vt 0.970403 0.010013
vt 0.969496 0.009846
vt 0.970403 0.009857
vt 0.970403 0.009701
vt 0.969496 0.009690
vt 0.970403 0.009857
vt 0.969496 0.010002
vt 0.971756 0.014583
vt 0.971756 0.014739
vt 0.971756 0.014427
vt 0.971756 0.014583
vt 0.969496 0.009846
s 1
usemtl Catenary
f 145/133/141 138/134/142 146/135/143
f 138/134/142 147/136/144 146/135/143
f 139/137/145 148/138/146 147/136/144
f 148/138/146 137/139/147 145/133/141
f 144/140/148 145/133/141 141/141/149
f 143/142/150 148/138/146 144/140/148
f 146/135/143 143/142/150 142/143/151
f 145/133/141 142/143/151 141/141/149
f 145/133/141 137/139/147 138/134/142
f 138/134/142 139/137/145 147/136/144
f 139/137/145 140/144/152 148/138/146
f 148/138/146 140/144/152 137/139/147
f 144/140/148 148/138/146 145/133/141
f 143/142/150 147/136/144 148/138/146
f 146/135/143 147/136/144 143/142/150
f 145/133/141 146/135/143 142/143/151
o StitchWire2.006
v 0.017260 6.502542 -0.007246
v 0.008261 6.493540 -0.007107
v 0.017260 6.484542 -0.007246
v 0.026259 6.493542 -0.007381
v 0.017281 6.775814 4.994565
v 0.008282 6.766814 4.994700
v 0.017281 6.757814 4.994565
v 0.026280 6.766814 4.994431
v 0.017270 6.503176 2.000081
v 0.008271 6.494176 2.000216
v 0.017270 6.485176 2.000081
v 0.026269 6.494176 1.999946
vn -0.0004 0.9989 -0.0465
vn -1.0000 -0.0003 -0.0000
vn -0.9998 -0.0207 0.0019
vn 0.0003 -0.9990 0.0446
vn 0.0069 -1.0000 0.0003
vn 0.9998 -0.0200 0.0018
vn 0.0068 1.0000 -0.0003
vn 0.9991 0.0412 -0.0038
vn -0.0077 0.9959 -0.0907
vn -0.0058 -0.9959 0.0907
vn -0.9992 0.0404 -0.0037
vn 1.0000 -0.0001 -0.0000
vt 0.970403 0.010013
vt 0.969496 0.009846
vt 0.970403 0.009857
vt 0.970403 0.009701
vt 0.969496 0.009690
vt 0.970403 0.009857
vt 0.969496 0.010002
vt 0.971756 0.014583
vt 0.971756 0.014739
vt 0.971756 0.014427
vt 0.971756 0.014583
vt 0.969496 0.009846
s 1
usemtl Catenary
f 157/145/153 150/146/154 158/147/155
f 150/146/154 159/148/156 158/147/155
f 151/149/157 160/150/158 159/148/156
f 160/150/158 149/151/159 157/145/153
f 156/152/160 157/145/153 153/153/161
f 155/154/162 160/150/158 156/152/160
f 158/147/155 155/154/162 154/155/163
f 157/145/153 154/155/163 153/153/161
f 157/145/153 149/151/159 150/146/154
f 150/146/154 151/149/157 159/148/156
f 151/149/157 152/156/164 160/150/158
f 160/150/158 152/156/164 149/151/159
f 156/152/160 160/150/158 157/145/153
f 155/154/162 159/148/156 160/150/158
f 158/147/155 159/148/156 155/154/162
f 157/145/153 158/147/155 154/155/163
o Dropper1.005
v -0.017683 6.493850 19.991325
v -0.008549 6.493850 20.000189
v -0.017413 6.493850 20.009323
v -0.026547 6.493850 20.000460
v -0.017683 6.000014 19.991325
v -0.017413 6.000014 20.009323
v -0.008549 6.000014 20.000189
v -0.026547 6.000014 20.000460
vn -0.0150 -0.0000 -0.9999
vn 0.9999 -0.0000 -0.0150
vn 0.0150 -0.0000 0.9999
vn -0.0000 1.0000 -0.0000
vn -0.9999 -0.0000 0.0150
vt 0.982385 0.009566
vt 0.982382 0.002719
vt 0.982385 0.002719
vt 0.982382 0.009566
vt 0.982378 0.002719
vt 0.982378 0.009566
vt 0.982382 0.002719
vt 0.982382 0.009566
s 1
usemtl Catenary
f 161/157/165 167/158/166 165/159/165
f 162/160/166 166/161/167 167/158/166
f 161/157/168 163/162/168 162/160/168
f 163/162/167 168/163/169 166/161/167
f 164/164/169 165/159/165 168/163/169
f 161/157/165 162/160/166 167/158/166
f 162/160/166 163/162/167 166/161/167
f 161/157/168 164/164/168 163/162/168
f 163/162/167 164/164/169 168/163/169
f 164/164/169 161/157/165 165/159/165
o Dropper2.005
v -0.017683 6.537527 14.989301
v -0.008549 6.537527 14.998164
v -0.017413 6.537527 15.007298
v -0.026547 6.537527 14.998435
v -0.017683 6.000014 14.989301
v -0.017413 6.000014 15.007298
v -0.008549 6.000014 14.998164
v -0.026547 6.000014 14.998435
vn -0.0150 -0.0000 -0.9999
vn 0.9999 -0.0000 -0.0150
vn 0.0150 -0.0000 0.9999
vn -0.0000 1.0000 -0.0000
vn -0.9999 -0.0000 0.0150
vt 0.977348 0.010171
vt 0.977345 0.002719
vt 0.977348 0.002719
vt 0.977345 0.010171
vt 0.977341 0.002719
vt 0.977341 0.010171
vt 0.977345 0.002719
vt 0.977345 0.010171
s 1
usemtl Catenary
f 169/165/170 175/166/171 173/167/170
f 170/168/171 174/169/172 175/166/171
f 169/165/173 171/170/173 170/168/173
f 171/170/172 176/171/174 174/169/172
f 172/172/174 173/167/170 176/171/174
f 169/165/170 170/168/171 175/166/171
f 170/168/171 171/170/172 174/169/172
f 169/165/173 172/172/173 171/170/173
f 171/170/172 172/172/174 176/171/174
f 172/172/174 169/165/170 173/167/170
o Dropper3.005
v -0.017683 6.537527 24.992802
v -0.008549 6.537527 25.001665
v -0.017413 6.537527 25.010799
v -0.026547 6.537527 25.001936
v -0.017683 6.000014 24.992802
v -0.017413 6.000014 25.010799
v -0.008549 6.000014 25.001665
v -0.026547 6.000014 25.001936
vn -0.0150 -0.0000 -0.9999
vn 0.9999 -0.0000 -0.0150
vn 0.0150 -0.0000 0.9999
vn -0.0000 1.0000 -0.0000
vn -0.9999 -0.0000 0.0150
vt 0.977348 0.010171
vt 0.977345 0.002719
vt 0.977348 0.002719
vt 0.977345 0.010171
vt 0.977341 0.002719
vt 0.977341 0.010171
vt 0.977345 0.002719
vt 0.977345 0.010171
s 1
usemtl Catenary
f 177/173/175 183/174/176 181/175/175
f 178/176/176 182/177/177 183/174/176
f 177/173/178 179/178/178 178/176/178
f 179/178/177 184/179/179 182/177/177
f 180/180/179 181/175/175 184/179/179
f 177/173/175 178/176/176 183/174/176
f 178/176/176 179/178/177 182/177/177
f 177/173/178 180/180/178 179/178/178
f 179/178/177 180/180/179 184/179/179
f 180/180/179 177/173/175 181/175/175
o Dropper4.005
v -0.017683 6.627460 29.994600
v -0.008549 6.627460 30.003464
v -0.017413 6.627460 30.012598
v -0.026547 6.627460 30.003735
v -0.017683 6.000014 29.994600
v -0.017413 6.000014 30.012598
v -0.008549 6.000014 30.003464
v -0.026547 6.000014 30.003735
vn -0.0150 -0.0000 -0.9999
vn 0.9999 -0.0000 -0.0150
vn 0.0150 -0.0000 0.9999
vn -0.0000 1.0000 -0.0000
vn -0.9999 -0.0000 0.0150
vt 0.971533 0.011418
vt 0.971530 0.002719
vt 0.971533 0.002719
vt 0.971530 0.011418
vt 0.971526 0.002719
vt 0.971526 0.011418
vt 0.971530 0.002719
vt 0.971530 0.011418
s 1
usemtl Catenary
f 185/181/180 191/182/181 189/183/180
f 186/184/181 190/185/182 191/182/181
f 185/181/183 187/186/183 186/184/183
f 187/186/182 192/187/184 190/185/182
f 188/188/184 189/183/180 192/187/184
f 185/181/180 186/184/181 191/182/181
f 186/184/181 187/186/182 190/185/182
f 185/181/183 188/188/183 187/186/183
f 187/186/182 188/188/184 192/187/184
f 188/188/184 185/181/180 189/183/180
o Dropper5.005
v -0.017683 6.627460 9.987371
v -0.008549 6.627460 9.996235
v -0.017413 6.627460 10.005369
v -0.026547 6.627460 9.996506
v -0.017683 6.000014 9.987371
v -0.017413 6.000014 10.005369
v -0.008549 6.000014 9.996235
v -0.026547 6.000014 9.996506
vn -0.0150 -0.0000 -0.9999
vn 0.9999 -0.0000 -0.0150
vn 0.0150 -0.0000 0.9999
vn -0.0000 1.0000 -0.0000
vn -0.9999 -0.0000 0.0150
vt 0.971533 0.011418
vt 0.971530 0.002719
vt 0.971533 0.002719
vt 0.971530 0.011418
vt 0.971526 0.002719
vt 0.971526 0.011418
vt 0.971530 0.002719
vt 0.971530 0.011418
s 1
usemtl Catenary
f 193/189/185 199/190/186 197/191/185
f 194/192/186 198/193/187 199/190/186
f 193/189/188 195/194/188 194/192/188
f 195/194/187 200/195/189 198/193/187
f 196/196/189 197/191/185 200/195/189
f 193/189/185 194/192/186 199/190/186
f 194/192/186 195/194/187 198/193/187
f 193/189/188 196/196/188 195/194/188
f 195/194/187 196/196/189 200/195/189
f 196/196/189 193/189/185 197/191/185
o Dropper6.005
v -0.017683 6.783311 4.985561
v -0.008549 6.783311 4.994425
v -0.017413 6.783311 5.003559
v -0.026547 6.783311 4.994695
v -0.017683 6.000014 4.985561
v -0.017413 6.000014 5.003559
v -0.008549 6.000014 4.994425
v -0.026547 6.000014 4.994695
vn -0.0150 -0.0000 -0.9999
vn 0.9999 -0.0000 -0.0150
vn 0.0150 -0.0000 0.9999
vn -0.0000 1.0000 -0.0000
vn -0.9999 -0.0000 0.0150
vt 0.981225 0.013579
vt 0.981221 0.002719
vt 0.981225 0.002719
vt 0.981221 0.013579
vt 0.981218 0.002719
vt 0.981218 0.013579
vt 0.981221 0.002719
vt 0.981221 0.013579
s 1
usemtl Catenary
f 201/197/190 207/198/191 205/199/190
f 202/200/191 206/201/192 207/198/191
f 201/197/193 203/202/193 202/200/193
f 203/202/192 208/203/194 206/201/192
f 204/204/194 205/199/190 208/203/194
f 201/197/190 202/200/191 207/198/191
f 202/200/191 203/202/192 206/201/192
f 201/197/193 204/204/193 203/202/193
f 203/202/192 204/204/194 208/203/194
f 204/204/194 201/197/190 205/199/190
o Dropper7.005
v -0.017683 6.783311 34.996403
v -0.008549 6.783311 35.005268
v -0.017413 6.783311 35.014400
v -0.026547 6.783311 35.005535
v -0.017683 6.000014 34.996403
v -0.017413 6.000014 35.014400
v -0.008549 6.000014 35.005268
v -0.026547 6.000014 35.005535
vn -0.0150 -0.0000 -0.9999
vn 0.9999 -0.0000 -0.0150
vn 0.0150 -0.0000 0.9999
vn -0.0000 1.0000 -0.0000
vn -0.9999 -0.0000 0.0150
vt 0.981225 0.013579
vt 0.981221 0.002719
vt 0.981225 0.002719
vt 0.981221 0.013579
vt 0.981218 0.002719
vt 0.981218 0.013579
vt 0.981221 0.002719
vt 0.981221 0.013579
s 1
usemtl Catenary
f 209/205/195 215/206/196 213/207/195
f 210/208/196 214/209/197 215/206/196
f 209/205/198 211/210/198 210/208/198
f 211/210/197 216/211/199 214/209/197
f 212/212/199 213/207/195 216/211/199
f 209/205/195 210/208/196 215/206/196
f 210/208/196 211/210/197 214/209/197
f 209/205/198 212/212/198 211/210/198
f 211/210/197 212/212/199 216/211/199
f 212/212/199 209/205/195 213/207/195
o StitchDropper1.001
v -0.017683 6.493850 37.991001
v -0.008549 6.493850 37.999866
v -0.017413 6.493850 38.008999
v -0.026547 6.493850 38.000134
v -0.017683 6.000014 37.991001
v -0.017413 6.000014 38.008999
v -0.008549 6.000014 37.999866
v -0.026547 6.000014 38.000134
vn -0.0150 -0.0000 -0.9999
vn 0.9999 -0.0000 -0.0150
vn 0.0150 -0.0000 0.9999
vn -0.0000 1.0000 -0.0000
vn -0.9999 -0.0000 0.0150
vt 0.982385 0.009566
vt 0.982382 0.002719
vt 0.982385 0.002719
vt 0.982382 0.009566
vt 0.982378 0.002719
vt 0.982378 0.009566
vt 0.982382 0.002719
vt 0.982382 0.009566
s 1
usemtl Catenary
f 217/213/200 223/214/201 221/215/200
f 218/216/201 222/217/202 223/214/201
f 217/213/203 219/218/203 218/216/203
f 219/218/202 224/219/204 222/217/202
f 220/220/204 221/215/200 224/219/204
f 217/213/200 218/216/201 223/214/201
f 218/216/201 219/218/202 222/217/202
f 217/213/203 220/220/203 219/218/203
f 219/218/202 220/220/204 224/219/204
f 220/220/204 217/213/200 221/215/200
o StitchDropper2.005
v -0.017683 6.493850 1.991001
v -0.008549 6.493850 1.999865
v -0.017413 6.493850 2.008999
v -0.026547 6.493850 2.000135
v -0.017683 6.000014 1.991001
v -0.017413 6.000014 2.008999
v -0.008549 6.000014 1.999865
v -0.026547 6.000014 2.000135
vn -0.0150 -0.0000 -0.9999
vn 0.9999 -0.0000 -0.0150
vn 0.0150 -0.0000 0.9999
vn -0.0000 1.0000 -0.0000
vn -0.9999 -0.0000 0.0150
vt 0.982385 0.009566
vt 0.982382 0.002719
vt 0.982385 0.002719
vt 0.982382 0.009566
vt 0.982378 0.002719
vt 0.982378 0.009566
vt 0.982382 0.002719
vt 0.982382 0.009566
s 1
usemtl Catenary
f 225/221/205 231/222/206 229/223/205
f 226/224/206 230/225/207 231/222/206
f 225/221/208 227/226/208 226/224/208
f 227/226/207 232/227/209 230/225/207
f 228/228/209 229/223/205 232/227/209
f 225/221/205 226/224/206 231/222/206
f 226/224/206 227/226/207 230/225/207
f 225/221/208 228/228/208 227/226/208
f 227/226/207 228/228/209 232/227/209
f 228/228/209 225/221/205 229/223/205
o Dropper1.006
v 0.017301 6.493850 19.991325
v 0.026435 6.493850 20.000189
v 0.017571 6.493850 20.009323
v 0.008437 6.493850 20.000460
v 0.017301 6.000014 19.991325
v 0.017571 6.000014 20.009323
v 0.026435 6.000014 20.000189
v 0.008437 6.000014 20.000460
vn -0.0150 -0.0000 -0.9999
vn 0.9999 -0.0000 -0.0150
vn 0.0150 -0.0000 0.9999
vn -0.0000 1.0000 -0.0000
vn -0.9999 -0.0000 0.0150
vt 0.982385 0.009566
vt 0.982382 0.002719
vt 0.982385 0.002719
vt 0.982382 0.009566
vt 0.982378 0.002719
vt 0.982378 0.009566
vt 0.982382 0.002719
vt 0.982382 0.009566
s 1
usemtl Catenary
f 233/229/210 239/230/211 237/231/210
f 234/232/211 238/233/212 239/230/211
f 233/229/213 235/234/213 234/232/213
f 235/234/212 240/235/214 238/233/212
f 236/236/214 237/231/210 240/235/214
f 233/229/210 234/232/211 239/230/211
f 234/232/211 235/234/212 238/233/212
f 233/229/213 236/236/213 235/234/213
f 235/234/212 236/236/214 240/235/214
f 236/236/214 233/229/210 237/231/210
o Dropper2.006
v 0.017301 6.537527 14.989301
v 0.026435 6.537527 14.998164
v 0.017571 6.537527 15.007298
v 0.008437 6.537527 14.998435
v 0.017301 6.000014 14.989301
v 0.017571 6.000014 15.007298
v 0.026435 6.000014 14.998164
v 0.008437 6.000014 14.998435
vn -0.0150 -0.0000 -0.9999
vn 0.9999 -0.0000 -0.0150
vn 0.0150 -0.0000 0.9999
vn -0.0000 1.0000 -0.0000
vn -0.9999 -0.0000 0.0150
vt 0.977348 0.010171
vt 0.977345 0.002719
vt 0.977348 0.002719
vt 0.977345 0.010171
vt 0.977341 0.002719
vt 0.977341 0.010171
vt 0.977345 0.002719
vt 0.977345 0.010171
s 1
usemtl Catenary
f 241/237/215 247/238/216 245/239/215
f 242/240/216 246/241/217 247/238/216
f 241/237/218 243/242/218 242/240/218
f 243/242/217 248/243/219 246/241/217
f 244/244/219 245/239/215 248/243/219
f 241/237/215 242/240/216 247/238/216
f 242/240/216 243/242/217 246/241/217
f 241/237/218 244/244/218 243/242/218
f 243/242/217 244/244/219 248/243/219
f 244/244/219 241/237/215 245/239/215
o Dropper3.006
v 0.017301 6.537527 24.992802
v 0.026435 6.537527 25.001665
v 0.017571 6.537527 25.010799
v 0.008437 6.537527 25.001936
v 0.017301 6.000014 24.992802
v 0.017571 6.000014 25.010799
v 0.026435 6.000014 25.001665
v 0.008437 6.000014 25.001936
vn -0.0150 -0.0000 -0.9999
vn 0.9999 -0.0000 -0.0150
vn 0.0150 -0.0000 0.9999
vn -0.0000 1.0000 -0.0000
vn -0.9999 -0.0000 0.0150
vt 0.977348 0.010171
vt 0.977345 0.002719
vt 0.977348 0.002719
vt 0.977345 0.010171
vt 0.977341 0.002719
vt 0.977341 0.010171
vt 0.977345 0.002719
vt 0.977345 0.010171
s 1
usemtl Catenary
f 249/245/220 255/246/221 253/247/220
f 250/248/221 254/249/222 255/246/221
f 249/245/223 251/250/223 250/248/223
f 251/250/222 256/251/224 254/249/222
f 252/252/224 253/247/220 256/251/224
f 249/245/220 250/248/221 255/246/221
f 250/248/221 251/250/222 254/249/222
f 249/245/223 252/252/223 251/250/223
f 251/250/222 252/252/224 256/251/224
f 252/252/224 249/245/220 253/247/220
o Dropper4.006
v 0.017301 6.627460 29.994600
v 0.026435 6.627460 30.003464
v 0.017571 6.627460 30.012598
v 0.008437 6.627460 30.003735
v 0.017301 6.000014 29.994600
v 0.017571 6.000014 30.012598
v 0.026435 6.000014 30.003464
v 0.008437 6.000014 30.003735
vn -0.0150 -0.0000 -0.9999
vn 0.9999 -0.0000 -0.0150
vn 0.0150 -0.0000 0.9999
vn -0.0000 1.0000 -0.0000
vn -0.9999 -0.0000 0.0150
vt 0.971533 0.011418
vt 0.971530 0.002719
vt 0.971533 0.002719
vt 0.971530 0.011418
vt 0.971526 0.002719
vt 0.971526 0.011418
vt 0.971530 0.002719
vt 0.971530 0.011418
s 1
usemtl Catenary
f 257/253/225 263/254/226 261/255/225
f 258/256/226 262/257/227 263/254/226
f 257/253/228 259/258/228 258/256/228
f 259/258/227 264/259/229 262/257/227
f 260/260/229 261/255/225 264/259/229
f 257/253/225 258/256/226 263/254/226
f 258/256/226 259/258/227 262/257/227
f 257/253/228 260/260/228 259/258/228
f 259/258/227 260/260/229 264/259/229
f 260/260/229 257/253/225 261/255/225
o Dropper5.006
v 0.017301 6.627460 9.987371
v 0.026435 6.627460 9.996235
v 0.017571 6.627460 10.005369
v 0.008437 6.627460 9.996506
v 0.017301 6.000014 9.987371
v 0.017571 6.000014 10.005369
v 0.026435 6.000014 9.996235
v 0.008437 6.000014 9.996506
vn -0.0150 -0.0000 -0.9999
vn 0.9999 -0.0000 -0.0150
vn 0.0150 -0.0000 0.9999
vn -0.0000 1.0000 -0.0000
vn -0.9999 -0.0000 0.0150
vt 0.971533 0.011418
vt 0.971530 0.002719
vt 0.971533 0.002719
vt 0.971530 0.011418
vt 0.971526 0.002719
vt 0.971526 0.011418
vt 0.971530 0.002719
vt 0.971530 0.011418
s 1
usemtl Catenary
f 265/261/230 271/262/231 269/263/230
f 266/264/231 270/265/232 271/262/231
f 265/261/233 267/266/233 266/264/233
f 267/266/232 272/267/234 270/265/232
f 268/268/234 269/263/230 272/267/234
f 265/261/230 266/264/231 271/262/231
f 266/264/231 267/266/232 270/265/232
f 265/261/233 268/268/233 267/266/233
f 267/266/232 268/268/234 272/267/234
f 268/268/234 265/261/230 269/263/230
o Dropper6.006
v 0.017301 6.783311 4.985561
v 0.026435 6.783311 4.994425
v 0.017571 6.783311 5.003559
v 0.008437 6.783311 4.994695
v 0.017301 6.000014 4.985561
v 0.017571 6.000014 5.003559
v 0.026435 6.000014 4.994425
v 0.008437 6.000014 4.994695
vn -0.0150 -0.0000 -0.9999
vn 0.9999 -0.0000 -0.0150
vn 0.0150 -0.0000 0.9999
vn -0.0000 1.0000 -0.0000
vn -0.9999 -0.0000 0.0150
vt 0.981225 0.013579
vt 0.981221 0.002719
vt 0.981225 0.002719
vt 0.981221 0.013579
vt 0.981218 0.002719
vt 0.981218 0.013579
vt 0.981221 0.002719
vt 0.981221 0.013579
s 1
usemtl Catenary
f 273/269/235 279/270/236 277/271/235
f 274/272/236 278/273/237 279/270/236
f 273/269/238 275/274/238 274/272/238
f 275/274/237 280/275/239 278/273/237
f 276/276/239 277/271/235 280/275/239
f 273/269/235 274/272/236 279/270/236
f 274/272/236 275/274/237 278/273/237
f 273/269/238 276/276/238 275/274/238
f 275/274/237 276/276/239 280/275/239
f 276/276/239 273/269/235 277/271/235
o Dropper7.006
v 0.017301 6.783311 34.996403
v 0.026435 6.783311 35.005268
v 0.017571 6.783311 35.014400
v 0.008437 6.783311 35.005535
v 0.017301 6.000014 34.996403
v 0.017571 6.000014 35.014400
v 0.026435 6.000014 35.005268
v 0.008437 6.000014 35.005535
vn -0.0150 -0.0000 -0.9999
vn 0.9999 -0.0000 -0.0150
vn 0.0150 -0.0000 0.9999
vn -0.0000 1.0000 -0.0000
vn -0.9999 -0.0000 0.0150
vt 0.981225 0.013579
vt 0.981221 0.002719
vt 0.981225 0.002719
vt 0.981221 0.013579
vt 0.981218 0.002719
vt 0.981218 0.013579
vt 0.981221 0.002719
vt 0.981221 0.013579
s 1
usemtl Catenary
f 281/277/240 287/278/241 285/279/240
f 282/280/241 286/281/242 287/278/241
f 281/277/243 283/282/243 282/280/243
f 283/282/242 288/283/244 286/281/242
f 284/284/244 285/279/240 288/283/244
f 281/277/240 282/280/241 287/278/241
f 282/280/241 283/282/242 286/281/242
f 281/277/243 284/284/243 283/282/243
f 283/282/242 284/284/244 288/283/244
f 284/284/244 281/277/240 285/279/240
o StitchDropper1.003
v 0.017301 6.493850 37.991001
v 0.026435 6.493850 37.999866
v 0.017571 6.493850 38.008999
v 0.008437 6.493850 38.000134
v 0.017301 6.000014 37.991001
v 0.017571 6.000014 38.008999
v 0.026435 6.000014 37.999866
v 0.008437 6.000014 38.000134
vn -0.0150 -0.0000 -0.9999
vn 0.9999 -0.0000 -0.0150
vn 0.0150 -0.0000 0.9999
vn -0.0000 1.0000 -0.0000
vn -0.9999 -0.0000 0.0150
vt 0.982385 0.009566
vt 0.982382 0.002719
vt 0.982385 0.002719
vt 0.982382 0.009566
vt 0.982378 0.002719
vt 0.982378 0.009566
vt 0.982382 0.002719
vt 0.982382 0.009566
s 1
usemtl Catenary
f 289/285/245 295/286/246 293/287/245
f 290/288/246 294/289/247 295/286/246
f 289/285/248 291/290/248 290/288/248
f 291/290/247 296/291/249 294/289/247
f 292/292/249 293/287/245 296/291/249
f 289/285/245 290/288/246 295/286/246
f 290/288/246 291/290/247 294/289/247
f 289/285/248 292/292/248 291/290/248
f 291/290/247 292/292/249 296/291/249
f 292/292/249 289/285/245 293/287/245
o StitchDropper2.006
v 0.017301 6.493850 1.991001
v 0.026435 6.493850 1.999865
v 0.017571 6.493850 2.008999
v 0.008437 6.493850 2.000135
v 0.017301 6.000014 1.991001
v 0.017571 6.000014 2.008999
v 0.026435 6.000014 1.999865
v 0.008437 6.000014 2.000135
vn -0.0150 -0.0000 -0.9999
vn 0.9999 -0.0000 -0.0150
vn 0.0150 -0.0000 0.9999
vn -0.0000 1.0000 -0.0000
vn -0.9999 -0.0000 0.0150
vt 0.982385 0.009566
vt 0.982382 0.002719
vt 0.982385 0.002719
vt 0.982382 0.009566
vt 0.982378 0.002719
vt 0.982378 0.009566
vt 0.982382 0.002719
vt 0.982382 0.009566
s 1
usemtl Catenary
f 297/293/250 303/294/251 301/295/250
f 298/296/251 302/297/252 303/294/251
f 297/293/253 299/298/253 298/296/253
f 299/298/252 304/299/254 302/297/252
f 300/300/254 301/295/250 304/299/254
f 297/293/250 298/296/251 303/294/251
f 298/296/251 299/298/252 302/297/252
f 297/293/253 300/300/253 299/298/253
f 299/298/252 300/300/254 304/299/254
f 300/300/254 297/293/250 301/295/250
