# Blender 5.0.1
# www.blender.org
mtllib wire_quad.mtl
o Messenger.007
g wire_quad
v -0.017627 6.995409 -0.007250
v -0.017477 6.995411 40.007248
v -0.008628 6.986409 -0.007385
v -0.008478 6.986412 40.007111
v -0.017627 6.977408 -0.007250
v -0.017477 6.977412 40.007248
v -0.026626 6.986409 -0.007114
v -0.026476 6.986412 40.007381
v -0.017552 6.502918 19.999998
v -0.008553 6.493918 19.999863
v -0.017552 6.484918 19.999998
v -0.026551 6.493918 20.000134
v -0.017515 6.636961 30.003622
v -0.008590 6.627960 9.996239
v -0.017589 6.618960 9.996374
v -0.026588 6.627960 9.996510
v -0.017589 6.636960 9.996374
v -0.008516 6.627961 30.003487
v -0.017515 6.618961 30.003622
v -0.026514 6.627961 30.003757
v -0.017496 6.792810 35.005436
v -0.008609 6.783808 4.994427
v -0.017608 6.774808 4.994561
v -0.026607 6.783808 4.994697
v -0.017571 6.546563 14.998186
v -0.008534 6.537564 25.001675
v -0.017533 6.528564 25.001810
v -0.026532 6.537564 25.001945
v -0.017533 6.546564 25.001810
v -0.008572 6.537563 14.998051
v -0.017571 6.528563 14.998186
v -0.026570 6.537563 14.998322
v -0.017608 6.792808 4.994561
v -0.008497 6.783811 35.005299
v -0.017496 6.774810 35.005436
v -0.026495 6.783811 35.005569
vn 0.0150 -0.0000 0.9999
vn -0.0150 -0.0000 -0.9999
vn -1.0000 -0.0020 -0.0001
vn -0.0000 1.0000 -0.0000
vn 0.0001 0.9999 0.0134
vn -0.0000 -1.0000 -0.0000
vn -0.0001 -0.9999 -0.0134
vn 1.0000 -0.0039 -0.0000
vn 1.0000 -0.0022 -0.0001
vn 0.0002 0.9997 0.0247
vn 1.0000 -0.0024 -0.0002
vn 0.0003 0.9994 0.0359
vn 1.0000 -0.0031 -0.0002
vn -0.0003 -0.9994 -0.0357
vn -1.0000 -0.0028 -0.0001
vn -1.0000 -0.0018 -0.0001
vn -1.0000 -0.0031 0.0002
vn -0.0001 0.9999 -0.0134
vn -1.0000 -0.0022 0.0001
vn 0.0002 -0.9997 0.0245
vn 0.0001 -0.9999 0.0134
vn 1.0000 -0.0020 0.0001
vn 1.0000 -0.0028 0.0001
vn -1.0000 -0.0039 -0.0000
vn -0.9998 0.0184 0.0007
vn 0.0072 0.9992 0.0405
vn 0.0063 -0.9992 -0.0405
vn 0.9998 0.0180 0.0007
vn -0.0002 -0.9997 -0.0245
vn -1.0000 -0.0024 0.0002
vn -0.0002 0.9997 -0.0247
vn 0.0003 -0.9994 0.0357
vn 1.0000 -0.0018 0.0001
vn -0.0003 0.9994 -0.0359
vn 0.9998 0.0184 -0.0007
vn -0.0063 -0.9992 0.0405
vn -0.9998 0.0180 -0.0007
vn -0.0072 0.9992 -0.0405
vt 0.988422 0.012220
vt 0.988422 0.012053
vt 0.988422 0.012137
vt 0.997748 0.012137
vt 0.997748 0.012137
vt 0.997748 0.012220
vt 0.994251 0.007969
vt 0.993085 0.007648
vt 0.994251 0.008053
vt 0.993085 0.007480
vt 0.994251 0.007886
vt 0.993085 0.007564
vt 0.994251 0.007969
vt 0.995417 0.008892
vt 0.996582 0.010256
vt 0.996582 0.010339
vt 0.995417 0.008809
vt 0.996582 0.010172
vt 0.995417 0.008809
vt 0.996582 0.010256
vt 0.990754 0.008809
vt 0.991919 0.008053
vt 0.991919 0.007969
vt 0.990754 0.008725
vt 0.991919 0.007886
vt 0.991919 0.007969
vt 0.990754 0.008809
vt 0.997748 0.012053
vt 0.995417 0.008725
vt 0.989588 0.010256
vt 0.990754 0.008892
vt 0.989588 0.010172
vt 0.989588 0.010339
vt 0.988422 0.012137
s 1
usemtl Catenary
f 2/1/1 6/2/1 4/3/1
f 3/4/2 7/5/2 1/6/2
f 32/7/3 9/8/4 25/9/5
f 11/10/6 32/7/3 31/11/7
f 10/12/8 31/11/7 30/13/9
f 25/9/5 10/12/8 30/13/9
f 17/14/10 22/15/11 33/16/12
f 14/17/13 23/18/14 22/15/11
f 23/18/14 16/19/15 24/20/16
f 24/20/16 17/14/10 33/16/12
f 20/21/17 29/22/18 28/23/19
f 19/24/20 28/23/19 27/25/21
f 26/26/22 19/24/20 27/25/21
f 29/22/18 18/27/23 26/26/22
f 9/8/4 26/26/22 10/12/8
f 26/26/22 11/10/6 10/12/8
f 27/25/21 12/12/24 11/10/6
f 12/12/24 29/22/18 9/8/4
f 7/5/25 33/16/12 1/6/26
f 5/28/27 24/20/16 7/5/25
f 22/15/11 5/28/27 3/4/28
f 33/16/12 3/4/28 1/6/26
f 25/9/5 14/17/13 17/14/10
f 30/13/9 15/29/29 14/17/13
f 15/29/29 32/7/3 16/19/15
f 16/19/15 25/9/5 17/14/10
f 36/30/30 13/31/31 20/21/17
f 35/32/32 20/21/17 19/24/20
f 18/27/23 35/32/32 19/24/20
f 13/31/31 34/30/33 18/27/23
f 21/33/34 4/3/35 34/30/33
f 34/30/33 6/2/36 35/32/32
f 6/2/36 36/30/30 35/32/32
f 8/34/37 21/33/34 36/30/30
f 2/1/1 8/34/1 6/2/1
f 3/4/2 5/28/2 7/5/2
f 32/7/3 12/12/24 9/8/4
f 11/10/6 12/12/24 32/7/3
f 10/12/8 11/10/6 31/11/7
f 25/9/5 9/8/4 10/12/8
f 17/14/10 14/17/13 22/15/11
f 14/17/13 15/29/29 23/18/14
f 23/18/14 15/29/29 16/19/15
f 24/20/16 16/19/15 17/14/10
f 20/21/17 13/31/31 29/22/18
f 19/24/20 20/21/17 28/23/19
f 26/26/22 18/27/23 19/24/20
f 29/22/18 13/31/31 18/27/23
f 9/8/4 29/22/18 26/26/22
f 26/26/22 27/25/21 11/10/6
f 27/25/21 28/23/19 12/12/24
f 12/12/24 28/23/19 29/22/18
f 7/5/25 24/20/16 33/16/12
f 5/28/27 23/18/14 24/20/16
f 22/15/11 23/18/14 5/28/27
f 33/16/12 22/15/11 3/4/28
f 25/9/5 30/13/9 14/17/13
f 30/13/9 31/11/7 15/29/29
f 15/29/29 31/11/7 32/7/3
f 16/19/15 32/7/3 25/9/5
f 36/30/30 21/33/34 13/31/31
f 35/32/32 36/30/30 20/21/17
f 18/27/23 34/30/33 35/32/32
f 13/31/31 21/33/34 34/30/33
f 21/33/34 2/1/38 4/3/35
f 34/30/33 4/3/35 6/2/36
f 6/2/36 8/34/37 36/30/30
f 8/34/37 2/1/38 21/33/34
o Contact1.004
v 0.017357 6.008998 -0.007509
v 0.017507 6.009002 40.006989
v 0.026356 5.999999 -0.007645
v 0.026506 6.000001 40.006851
v 0.017357 5.990998 -0.007509
v 0.017507 5.991002 40.006989
v 0.008358 5.999999 -0.007374
v 0.008508 6.000001 40.007122
vn 0.0066 1.0000 -0.0000
vn 1.0000 -0.0000 -0.0000
vn 0.0066 -1.0000 -0.0000
vn 0.0150 -0.0000 0.9999
vn -0.0066 -1.0000 -0.0000
vn -1.0000 -0.0000 -0.0000
vn -0.0066 1.0000 -0.0000
vn -0.0150 -0.0000 -0.9999
vt 0.997748 0.003062
vt 0.988422 0.002978
vt 0.997748 0.002978
vt 0.997748 0.002895
vt 0.988422 0.003062
vt 0.988422 0.002895
vt 0.997748 0.002978
vt 0.988422 0.002978
s 1
usemtl Catenary
f 37/35/39 40/36/40 39/37/40
f 40/36/40 41/38/41 39/37/40
f 38/39/42 42/40/42 40/36/42
f 42/40/43 43/41/44 41/38/41
f 43/41/44 38/39/45 37/35/39
f 37/35/46 41/38/46 43/41/46
f 37/35/39 38/39/45 40/36/40
f 40/36/40 42/40/43 41/38/41
f 38/39/42 44/42/42 42/40/42
f 42/40/43 44/42/44 43/41/44
f 43/41/44 44/42/44 38/39/45
f 37/35/46 39/37/46 41/38/46
o Contact2.002
v -0.017627 6.008998 -0.006985
v -0.017477 6.009002 40.007511
v -0.008628 5.999999 -0.007120
v -0.008478 6.000001 40.007378
v -0.017627 5.990998 -0.006985
v -0.017477 5.991002 40.007511
v -0.026626 5.999999 -0.006849
v -0.026476 6.000001 40.007645
vn 0.0066 1.0000 -0.0000
vn 1.0000 -0.0000 -0.0000
vn 0.0066 -1.0000 -0.0000
vn 0.0150 -0.0000 0.9999
vn -0.0066 -1.0000 -0.0000
vn -1.0000 -0.0000 -0.0000
vn -0.0066 1.0000 -0.0000
vn -0.0150 -0.0000 -0.9999
vt 0.997748 0.003062
vt 0.988422 0.002978
vt 0.997748 0.002978
vt 0.997748 0.002895
vt 0.988422 0.003062
vt 0.988422 0.002895
vt 0.997748 0.002978
vt 0.988422 0.002978
s 1
usemtl Catenary
f 45/43/47 48/44/48 47/45/48
f 48/44/48 49/46/49 47/45/48
f 46/47/50 50/48/50 48/44/50
f 50/48/51 51/49/52 49/46/49
f 51/49/52 46/47/53 45/43/47
f 45/43/54 49/46/54 51/49/54
f 45/43/47 46/47/53 48/44/48
f 48/44/48 50/48/51 49/46/49
f 46/47/50 52/50/50 50/48/50
f 50/48/51 52/50/52 51/49/52
f 51/49/52 52/50/52 46/47/53
f 45/43/54 47/45/54 49/46/54
o StitchWire1.002
v -0.017380 6.502542 40.007248
v -0.008381 6.493540 40.007107
v -0.017380 6.484542 40.007248
v -0.026379 6.493542 40.007381
v -0.017399 6.775814 35.005436
v -0.008400 6.766814 35.005299
v -0.017399 6.757814 35.005436
v -0.026398 6.766814 35.005569
v -0.017390 6.503176 37.999920
v -0.008391 6.494176 37.999786
v -0.017390 6.485176 37.999920
v -0.026389 6.494176 38.000053
vn 0.0004 0.9989 0.0465
vn 1.0000 -0.0003 -0.0000
vn 0.9998 -0.0207 -0.0019
vn -0.0003 -0.9990 -0.0446
vn -0.0069 -1.0000 -0.0003
vn -0.9998 -0.0200 -0.0018
vn -0.0068 1.0000 0.0003
vn -0.9991 0.0412 0.0038
vn 0.0077 0.9959 0.0907
vn 0.0058 -0.9959 -0.0907
vn 0.9992 0.0404 0.0037
vn -1.0000 -0.0001 -0.0000
vt 0.970403 0.010013
vt 0.969496 0.009846
vt 0.970403 0.009857
vt 0.970403 0.009701
vt 0.969496 0.009690
vt 0.970403 0.009857
vt 0.969496 0.010002
vt 0.971756 0.014583
vt 0.971756 0.014739
vt 0.971756 0.014427
vt 0.971756 0.014583
vt 0.969496 0.009846
s 1
usemtl Catenary
f 61/51/55 54/52/56 62/53/57
f 54/52/56 63/54/58 62/53/57
f 55/55/59 64/56/60 63/54/58
f 64/56/60 53/57/61 61/51/55
f 60/58/62 61/51/55 57/59/63
f 59/60/64 64/56/60 60/58/62
f 62/53/57 59/60/64 58/61/65
f 61/51/55 58/61/65 57/59/63
f 61/51/55 53/57/61 54/52/56
f 54/52/56 55/55/59 63/54/58
f 55/55/59 56/62/66 64/56/60
f 64/56/60 56/62/66 53/57/61
f 60/58/62 64/56/60 61/51/55
f 59/60/64 63/54/58 64/56/60
f 62/53/57 63/54/58 59/60/64
f 61/51/55 62/53/57 58/61/65
o StitchWire2.005
v -0.017724 6.502542 -0.007246
v -0.026723 6.493540 -0.007107
v -0.017724 6.484542 -0.007246
v -0.008725 6.493542 -0.007381
v -0.017703 6.775814 4.994565
v -0.026702 6.766814 4.994700
v -0.017703 6.757814 4.994565
v -0.008704 6.766814 4.994431
v -0.017714 6.503176 2.000081
v -0.026713 6.494176 2.000216
v -0.017714 6.485176 2.000081
v -0.008715 6.494176 1.999946
vn -0.0004 0.9989 -0.0465
vn -1.0000 -0.0003 -0.0000
vn -0.9998 -0.0207 0.0019
vn 0.0003 -0.9990 0.0446
vn 0.0069 -1.0000 0.0003
vn 0.9998 -0.0200 0.0018
vn 0.0068 1.0000 -0.0003
vn 0.9991 0.0412 -0.0038
vn -0.0077 0.9959 -0.0907
vn -0.0058 -0.9959 0.0907
vn -0.9992 0.0404 -0.0037
vn 1.0000 -0.0001 -0.0000
vt 0.970403 0.010013
vt 0.969496 0.009846
vt 0.970403 0.009857
vt 0.970403 0.009701
vt 0.969496 0.009690
vt 0.970403 0.009857
vt 0.969496 0.010002
vt 0.971756 0.014583
vt 0.971756 0.014739
vt 0.971756 0.014427
vt 0.971756 0.014583
vt 0.969496 0.009846
s 1
usemtl Catenary
f 73/63/67 66/64/68 74/65/69
f 66/64/68 75/66/70 74/65/69
f 67/67/71 76/68/72 75/66/70
f 76/68/72 65/69/73 73/63/67
f 72/70/74 73/63/67 69/71/75
f 71/72/76 76/68/72 72/70/74
f 74/65/69 71/72/76 70/73/77
f 73/63/67 70/73/77 69/71/75
f 73/63/67 65/69/73 66/64/68
f 66/64/68 67/67/71 75/66/70
f 67/67/71 68/74/78 76/68/72
f 76/68/72 68/74/78 65/69/73
f 72/70/74 76/68/72 73/63/67
f 71/72/76 75/66/70 76/68/72
f 74/65/69 75/66/70 71/72/76
f 73/63/67 74/65/69 70/73/77
o Messenger.008
v 0.017357 6.995409 -0.007250
v 0.017507 6.995411 40.007248
v 0.026356 6.986409 -0.007385
v 0.026506 6.986412 40.007111
v 0.017357 6.977408 -0.007250
v 0.017507 6.977412 40.007248
v 0.008358 6.986409 -0.007114
v 0.008508 6.986412 40.007381
v 0.017432 6.502918 19.999998
v 0.026431 6.493918 19.999863
v 0.017432 6.484918 19.999998
v 0.008433 6.493918 20.000134
v 0.017469 6.636961 30.003622
v 0.026394 6.627960 9.996239
v 0.017395 6.618960 9.996374
v 0.008396 6.627960 9.996510
v 0.017395 6.636960 9.996374
v 0.026468 6.627961 30.003487
v 0.017469 6.618961 30.003622
v 0.008470 6.627961 30.003757
v 0.017488 6.792810 35.005436
v 0.026375 6.783808 4.994427
v 0.017376 6.774808 4.994561
v 0.008377 6.783808 4.994697
v 0.017413 6.546563 14.998186
v 0.026450 6.537564 25.001675
v 0.017451 6.528564 25.001810
v 0.008452 6.537564 25.001945
v 0.017451 6.546564 25.001810
v 0.026412 6.537563 14.998051
v 0.017413 6.528563 14.998186
v 0.008414 6.537563 14.998322
v 0.017376 6.792808 4.994561
v 0.026487 6.783811 35.005299
v 0.017488 6.774810 35.005436
v 0.008489 6.783811 35.005569
vn 0.0150 -0.0000 0.9999
vn -0.0150 -0.0000 -0.9999
vn -1.0000 -0.0020 -0.0001
vn -0.0000 1.0000 -0.0000
vn 0.0001 0.9999 0.0134
vn -0.0000 -1.0000 -0.0000
vn -0.0001 -0.9999 -0.0134
vn 1.0000 -0.0039 -0.0000
vn 1.0000 -0.0022 -0.0001
vn 0.0002 0.9997 0.0247
vn 1.0000 -0.0024 -0.0002
vn 0.0003 0.9994 0.0359
vn 1.0000 -0.0031 -0.0002
vn -0.0003 -0.9994 -0.0357
vn -1.0000 -0.0028 -0.0001
vn -1.0000 -0.0018 -0.0001
vn -1.0000 -0.0031 0.0002
vn -0.0001 0.9999 -0.0134
vn -1.0000 -0.0022 0.0001
vn 0.0002 -0.9997 0.0245
vn 0.0001 -0.9999 0.0134
vn 1.0000 -0.0020 0.0001
vn 1.0000 -0.0028 0.0001
vn -1.0000 -0.0039 -0.0000
vn -0.9998 0.0184 0.0007
vn 0.0072 0.9992 0.0405
vn 0.0063 -0.9992 -0.0405
vn 0.9998 0.0180 0.0007
vn -0.0002 -0.9997 -0.0245
vn -1.0000 -0.0024 0.0002
vn -0.0002 0.9997 -0.0247
vn 0.0003 -0.9994 0.0357
vn 1.0000 -0.0018 0.0001
vn -0.0003 0.9994 -0.0359
vn 0.9998 0.0184 -0.0007
vn -0.0063 -0.9992 0.0405
vn -0.9998 0.0180 -0.0007
vn -0.0072 0.9992 -0.0405
vt 0.988422 0.012220
vt 0.988422 0.012053
vt 0.988422 0.012137
vt 0.997748 0.012137
vt 0.997748 0.012137
vt 0.997748 0.012220
vt 0.994251 0.007969
vt 0.993085 0.007648
vt 0.994251 0.008053
vt 0.993085 0.007480
vt 0.994251 0.007886
vt 0.993085 0.007564
vt 0.994251 0.007969
vt 0.995417 0.008892
vt 0.996582 0.010256
vt 0.996582 0.010339
vt 0.995417 0.008809
vt 0.996582 0.010172
vt 0.995417 0.008809
vt 0.996582 0.010256
vt 0.990754 0.008809
vt 0.991919 0.008053
vt 0.991919 0.007969
vt 0.990754 0.008725
vt 0.991919 0.007886
vt 0.991919 0.007969
vt 0.990754 0.008809
vt 0.997748 0.012053
vt 0.995417 0.008725
vt 0.989588 0.010256
vt 0.990754 0.008892
vt 0.989588 0.010172
vt 0.989588 0.010339
vt 0.988422 0.012137
s 1
usemtl Catenary
f 78/75/79 82/76/79 80/77/79
f 79/78/80 83/79/80 77/80/80
f 108/81/81 85/82/82 101/83/83
f 87/84/84 108/81/81 107/85/85
f 86/86/86 107/85/85 106/87/87
f 101/83/83 86/86/86 106/87/87
f 93/88/88 98/89/89 109/90/90
f 90/91/91 99/92/92 98/89/89
f 99/92/92 92/93/93 100/94/94
f 100/94/94 93/88/88 109/90/90
f 96/95/95 105/96/96 104/97/97
f 95/98/98 104/97/97 103/99/99
f 102/100/100 95/98/98 103/99/99
f 105/96/96 94/101/101 102/100/100
f 85/82/82 102/100/100 86/86/86
f 102/100/100 87/84/84 86/86/86
f 103/99/99 88/86/102 87/84/84
f 88/86/102 105/96/96 85/82/82
f 83/79/103 109/90/90 77/80/104
f 81/102/105 100/94/94 83/79/103
f 98/89/89 81/102/105 79/78/106
f 109/90/90 79/78/106 77/80/104
f 101/83/83 90/91/91 93/88/88
f 106/87/87 91/103/107 90/91/91
f 91/103/107 108/81/81 92/93/93
f 92/93/93 101/83/83 93/88/88
f 112/104/108 89/105/109 96/95/95
f 111/106/110 96/95/95 95/98/98
f 94/101/101 111/106/110 95/98/98
f 89/105/109 110/104/111 94/101/101
f 97/107/112 80/77/113 110/104/111
f 110/104/111 82/76/114 111/106/110
f 82/76/114 112/104/108 111/106/110
f 84/108/115 97/107/112 112/104/108
f 78/75/79 84/108/79 82/76/79
f 79/78/80 81/102/80 83/79/80
f 108/81/81 88/86/102 85/82/82
f 87/84/84 88/86/102 108/81/81
f 86/86/86 87/84/84 107/85/85
f 101/83/83 85/82/82 86/86/86
f 93/88/88 90/91/91 98/89/89
f 90/91/91 91/103/107 99/92/92
f 99/92/92 91/103/107 92/93/93
f 100/94/94 92/93/93 93/88/88
f 96/95/95 89/105/109 105/96/96
f 95/98/98 96/95/95 104/97/97
f 102/100/100 94/101/101 95/98/98
f 105/96/96 89/105/109 94/101/101
f 85/82/82 105/96/96 102/100/100
f 102/100/100 103/99/99 87/84/84
f 103/99/99 104/97/97 88/86/102
f 88/86/102 104/97/97 105/96/96
f 83/79/103 100/94/94 109/90/90
f 81/102/105 99/92/92 100/94/94
f 98/89/89 99/92/92 81/102/105
f 109/90/90 98/89/89 79/78/106
f 101/83/83 106/87/87 90/91/91
f 106/87/87 107/85/85 91/103/107
f 91/103/107 107/85/85 108/81/81
f 92/93/93 108/81/81 101/83/83
f 112/104/108 97/107/112 89/105/109
f 111/106/110 112/104/108 96/95/95
f 94/101/101 110/104/111 111/106/110
f 89/105/109 97/107/112 110/104/111
f 97/107/112 78/75/116 80/77/113
f 110/104/111 80/77/113 82/76/114
f 82/76/114 84/108/115 112/104/108
f 84/108/115 78/75/116 97/107/112
o StitchWire1.003
v 0.017604 6.502542 40.007248
v 0.026603 6.493540 40.007107
v 0.017604 6.484542 40.007248
v 0.008605 6.493542 40.007381
v 0.017585 6.775814 35.005436
v 0.026584 6.766814 35.005299
v 0.017585 6.757814 35.005436
v 0.008586 6.766814 35.005569
v 0.017594 6.503176 37.999920
v 0.026593 6.494176 37.999786
v 0.017594 6.485176 37.999920
v 0.008595 6.494176 38.000053
vn 0.0004 0.9989 0.0465
vn 1.0000 -0.0003 -0.0000
vn 0.9998 -0.0207 -0.0019
vn -0.0003 -0.9990 -0.0446
vn -0.0069 -1.0000 -0.0003
vn -0.9998 -0.0200 -0.0018
vn -0.0068 1.0000 0.0003
vn -0.9991 0.0412 0.0038
vn 0.0077 0.9959 0.0907
vn 0.0058 -0.9959 -0.0907
vn 0.9992 0.0404 0.0037
vn -1.0000 -0.0001 -0.0000
vt 0.970403 0.010013
vt 0.969496 0.009846
vt 0.970403 0.009857
vt 0.970403 0.009701
vt 0.969496 0.009690
vt 0.970403 0.009857
vt 0.969496 0.010002
vt 0.971756 0.014583
vt 0.971756 0.014739
vt 0.971756 0.014427
vt 0.971756 0.014583
vt 0.969496 0.009846
s 1
usemtl Catenary
f 121/109/117 114/110/118 122/111/119
f 114/110/118 123/112/120 122/111/119
f 115/113/121 124/114/122 123/112/120
f 124/114/122 113/115/123 121/109/117
f 120/116/124 121/109/117 117/117/125
f 119/118/126 124/114/122 120/116/124
f 122/111/119 119/118/126 118/119/127
f 121/109/117 118/119/127 117/117/125
f 121/109/117 113/115/123 114/110/118
f 114/110/118 115/113/121 123/112/120
f 115/113/121 116/120/128 124/114/122
f 124/114/122 116/120/128 113/115/123
f 120/116/124 124/114/122 121/109/117
f 119/118/126 123/112/120 124/114/122
f 122/111/119 123/112/120 119/118/126
f 121/109/117 122/111/119 118/119/127
o StitchWire2.006
v 0.017260 6.502542 -0.007246
v 0.008261 6.493540 -0.007107
v 0.017260 6.484542 -0.007246
v 0.026259 6.493542 -0.007381
v 0.017281 6.775814 4.994565
v 0.008282 6.766814 4.994700
v 0.017281 6.757814 4.994565
v 0.026280 6.766814 4.994431
v 0.017270 6.503176 2.000081
v 0.008271 6.494176 2.000216
v 0.017270 6.485176 2.000081
v 0.026269 6.494176 1.999946
vn -0.0004 0.9989 -0.0465
vn -1.0000 -0.0003 -0.0000
vn -0.9998 -0.0207 0.0019
vn 0.0003 -0.9990 0.0446
vn 0.0069 -1.0000 0.0003
vn 0.9998 -0.0200 0.0018
vn 0.0068 1.0000 -0.0003
vn 0.9991 0.0412 -0.0038
vn -0.0077 0.9959 -0.0907
vn -0.0058 -0.9959 0.0907
vn -0.9992 0.0404 -0.0037
vn 1.0000 -0.0001 -0.0000
vt 0.970403 0.010013
vt 0.969496 0.009846
vt 0.970403 0.009857
vt 0.970403 0.009701
vt 0.969496 0.009690
vt 0.970403 0.009857
vt 0.969496 0.010002
vt 0.971756 0.014583
vt 0.971756 0.014739
vt 0.971756 0.014427
vt 0.971756 0.014583
vt 0.969496 0.009846
s 1
usemtl Catenary
f 133/121/129 126/122/130 134/123/131
f 126/122/130 135/124/132 134/123/131
f 127/125/133 136/126/134 135/124/132
f 136/126/134 125/127/135 133/121/129
f 132/128/136 133/121/129 129/129/137
f 131/130/138 136/126/134 132/128/136
f 134/123/131 131/130/138 130/131/139
f 133/121/129 130/131/139 129/129/137
f 133/121/129 125/127/135 126/122/130
f 126/122/130 127/125/133 135/124/132
f 127/125/133 128/132/140 136/126/134
f 136/126/134 128/132/140 125/127/135
f 132/128/136 136/126/134 133/121/129
f 131/130/138 135/124/132 136/126/134
f 134/123/131 135/124/132 131/130/138
f 133/121/129 134/123/131 130/131/139
o Dropper1.005
v -0.017683 6.493850 19.991325
v -0.008549 6.493850 20.000189
v -0.017413 6.493850 20.009323
v -0.026547 6.493850 20.000460
v -0.017683 6.000014 19.991325
v -0.017413 6.000014 20.009323
v -0.008549 6.000014 20.000189
v -0.026547 6.000014 20.000460
vn -0.0150 -0.0000 -0.9999
vn 0.9999 -0.0000 -0.0150
vn 0.0150 -0.0000 0.9999
vn -0.0000 1.0000 -0.0000
vn -0.9999 -0.0000 0.0150
vt 0.982385 0.009566
vt 0.982382 0.002719
vt 0.982385 0.002719
vt 0.982382 0.009566
vt 0.982378 0.002719
vt 0.982378 0.009566
vt 0.982382 0.002719
vt 0.982382 0.009566
s 1
usemtl Catenary
f 137/133/141 143/134/142 141/135/141
f 138/136/142 142/137/143 143/134/142
f 137/133/144 139/138/144 138/136/144
f 139/138/143 144/139/145 142/137/143
f 140/140/145 141/135/141 144/139/145
f 137/133/141 138/136/142 143/134/142
f 138/136/142 139/138/143 142/137/143
f 137/133/144 140/140/144 139/138/144
f 139/138/143 140/140/145 144/139/145
f 140/140/145 137/133/141 141/135/141
o Dropper2.005
v -0.017683 6.537527 14.989301
v -0.008549 6.537527 14.998164
v -0.017413 6.537527 15.007298
v -0.026547 6.537527 14.998435
v -0.017683 6.000014 14.989301
v -0.017413 6.000014 15.007298
v -0.008549 6.000014 14.998164
v -0.026547 6.000014 14.998435
vn -0.0150 -0.0000 -0.9999
vn 0.9999 -0.0000 -0.0150
vn 0.0150 -0.0000 0.9999
vn -0.0000 1.0000 -0.0000
vn -0.9999 -0.0000 0.0150
vt 0.977348 0.010171
vt 0.977345 0.002719
vt 0.977348 0.002719
vt 0.977345 0.010171
vt 0.977341 0.002719
vt 0.977341 0.010171
vt 0.977345 0.002719
vt 0.977345 0.010171
s 1
usemtl Catenary
f 145/141/146 151/142/147 149/143/146
f 146/144/147 150/145/148 151/142/147
f 145/141/149 147/146/149 146/144/149
f 147/146/148 152/147/150 150/145/148
f 148/148/150 149/143/146 152/147/150
f 145/141/146 146/144/147 151/142/147
f 146/144/147 147/146/148 150/145/148
f 145/141/149 148/148/149 147/146/149
f 147/146/148 148/148/150 152/147/150
f 148/148/150 145/141/146 149/143/146
o Dropper3.005
v -0.017683 6.537527 24.992802
v -0.008549 6.537527 25.001665
v -0.017413 6.537527 25.010799
v -0.026547 6.537527 25.001936
v -0.017683 6.000014 24.992802
v -0.017413 6.000014 25.010799
v -0.008549 6.000014 25.001665
v -0.026547 6.000014 25.001936
vn -0.0150 -0.0000 -0.9999
vn 0.9999 -0.0000 -0.0150
vn 0.0150 -0.0000 0.9999
vn -0.0000 1.0000 -0.0000
vn -0.9999 -0.0000 0.0150
vt 0.977348 0.010171
vt 0.977345 0.002719
vt 0.977348 0.002719
vt 0.977345 0.010171
vt 0.977341 0.002719
vt 0.977341 0.010171
vt 0.977345 0.002719
vt 0.977345 0.010171
s 1
usemtl Catenary
f 153/149/151 159/150/152 157/151/151
f 154/152/152 158/153/153 159/150/152
f 153/149/154 155/154/154 154/152/154
f 155/154/153 160/155/155 158/153/153
f 156/156/155 157/151/151 160/155/155
f 153/149/151 154/152/152 159/150/152
f 154/152/152 155/154/153 158/153/153
f 153/149/154 156/156/154 155/154/154
f 155/154/153 156/156/155 160/155/155
f 156/156/155 153/149/151 157/151/151
o Dropper4.005
v -0.017683 6.627460 29.994600
v -0.008549 6.627460 30.003464
v -0.017413 6.627460 30.012598
v -0.026547 6.627460 30.003735
v -0.017683 6.000014 29.994600
v -0.017413 6.000014 30.012598
v -0.008549 6.000014 30.003464
v -0.026547 6.000014 30.003735
vn -0.0150 -0.0000 -0.9999
vn 0.9999 -0.0000 -0.0150
vn 0.0150 -0.0000 0.9999
vn -0.0000 1.0000 -0.0000
vn -0.9999 -0.0000 0.0150
vt 0.971533 0.011418
vt 0.971530 0.002719
vt 0.971533 0.002719
vt 0.971530 0.011418
vt 0.971526 0.002719
vt 0.971526 0.011418
vt 0.971530 0.002719
vt 0.971530 0.011418
s 1
usemtl Catenary
f 161/157/156 167/158/157 165/159/156
f 162/160/157 166/161/158 167/158/157
f 161/157/159 163/162/159 162/160/159
f 163/162/158 168/163/160 166/161/158
f 164/164/160 165/159/156 168/163/160
f 161/157/156 162/160/157 167/158/157
f 162/160/157 163/162/158 166/161/158
f 161/157/159 164/164/159 163/162/159
f 163/162/158 164/164/160 168/163/160
f 164/164/160 161/157/156 165/159/156
o Dropper5.005
v -0.017683 6.627460 9.987371
v -0.008549 6.627460 9.996235
v -0.017413 6.627460 10.005369
v -0.026547 6.627460 9.996506
v -0.017683 6.000014 9.987371
v -0.017413 6.000014 10.005369
v -0.008549 6.000014 9.996235
v -0.026547 6.000014 9.996506
vn -0.0150 -0.0000 -0.9999
vn 0.9999 -0.0000 -0.0150
vn 0.0150 -0.0000 0.9999
vn -0.0000 1.0000 -0.0000
vn -0.9999 -0.0000 0.0150
vt 0.971533 0.011418
vt 0.971530 0.002719
vt 0.971533 0.002719
vt 0.971530 0.011418
vt 0.971526 0.002719
vt 0.971526 0.011418
vt 0.971530 0.002719
vt 0.971530 0.011418
s 1
usemtl Catenary
f 169/165/161 175/166/162 173/167/161
f 170/168/162 174/169/163 175/166/162
f 169/165/164 171/170/164 170/168/164
f 171/170/163 176/171/165 174/169/163
f 172/172/165 173/167/161 176/171/165
f 169/165/161 170/168/162 175/166/162
f 170/168/162 171/170/163 174/169/163
f 169/165/164 172/172/164 171/170/164
f 171/170/163 172/172/165 176/171/165
f 172/172/165 169/165/161 173/167/161
o Dropper6.005
v -0.017683 6.783311 4.985561
v -0.008549 6.783311 4.994425
v -0.017413 6.783311 5.003559
v -0.026547 6.783311 4.994695
v -0.017683 6.000014 4.985561
v -0.017413 6.000014 5.003559
v -0.008549 6.000014 4.994425
v -0.026547 6.000014 4.994695
vn -0.0150 -0.0000 -0.9999
vn 0.9999 -0.0000 -0.0150
vn 0.0150 -0.0000 0.9999
vn -0.0000 1.0000 -0.0000
vn -0.9999 -0.0000 0.0150
vt 0.981225 0.013579
vt 0.981221 0.002719
vt 0.981225 0.002719
vt 0.981221 0.013579
vt 0.981218 0.002719
vt 0.981218 0.013579
vt 0.981221 0.002719
vt 0.981221 0.013579
s 1
usemtl Catenary
f 177/173/166 183/174/167 181/175/166
f 178/176/167 182/177/168 183/174/167
f 177/173/169 179/178/169 178/176/169
f 179/178/168 184/179/170 182/177/168
f 180/180/170 181/175/166 184/179/170
f 177/173/166 178/176/167 183/174/167
f 178/176/167 179/178/168 182/177/168
f 177/173/169 180/180/169 179/178/169
f 179/178/168 180/180/170 184/179/170
f 180/180/170 177/173/166 181/175/166
o Dropper7.005
v -0.017683 6.783311 34.996403
v -0.008549 6.783311 35.005268
v -0.017413 6.783311 35.014400
v -0.026547 6.783311 35.005535
v -0.017683 6.000014 34.996403
v -0.017413 6.000014 35.014400
v -0.008549 6.000014 35.005268
v -0.026547 6.000014 35.005535
vn -0.0150 -0.0000 -0.9999
vn 0.9999 -0.0000 -0.0150
vn 0.0150 -0.0000 0.9999
vn -0.0000 1.0000 -0.0000
vn -0.9999 -0.0000 0.0150
vt 0.981225 0.013579
vt 0.981221 0.002719
vt 0.981225 0.002719
vt 0.981221 0.013579
vt 0.981218 0.002719
vt 0.981218 0.013579
vt 0.981221 0.002719
vt 0.981221 0.013579
s 1
usemtl Catenary
f 185/181/171 191/182/172 189/183/171
f 186/184/172 190/185/173 191/182/172
f 185/181/174 187/186/174 186/184/174
f 187/186/173 192/187/175 190/185/173
f 188/188/175 189/183/171 192/187/175
f 185/181/171 186/184/172 191/182/172
f 186/184/172 187/186/173 190/185/173
f 185/181/174 188/188/174 187/186/174
f 187/186/173 188/188/175 192/187/175
f 188/188/175 185/181/171 189/183/171
o StitchDropper1.001
v -0.017683 6.493850 37.991001
v -0.008549 6.493850 37.999866
v -0.017413 6.493850 38.008999
v -0.026547 6.493850 38.000134
v -0.017683 6.000014 37.991001
v -0.017413 6.000014 38.008999
v -0.008549 6.000014 37.999866
v -0.026547 6.000014 38.000134
vn -0.0150 -0.0000 -0.9999
vn 0.9999 -0.0000 -0.0150
vn 0.0150 -0.0000 0.9999
vn -0.0000 1.0000 -0.0000
vn -0.9999 -0.0000 0.0150
vt 0.982385 0.009566
vt 0.982382 0.002719
vt 0.982385 0.002719
vt 0.982382 0.009566
vt 0.982378 0.002719
vt 0.982378 0.009566
vt 0.982382 0.002719
vt 0.982382 0.009566
s 1
usemtl Catenary
f 193/189/176 199/190/177 197/191/176
f 194/192/177 198/193/178 199/190/177
f 193/189/179 195/194/179 194/192/179
f 195/194/178 200/195/180 198/193/178
f 196/196/180 197/191/176 200/195/180
f 193/189/176 194/192/177 199/190/177
f 194/192/177 195/194/178 198/193/178
f 193/189/179 196/196/179 195/194/179
f 195/194/178 196/196/180 200/195/180
f 196/196/180 193/189/176 197/191/176
o StitchDropper2.005
v -0.017683 6.493850 1.991001
v -0.008549 6.493850 1.999865
v -0.017413 6.493850 2.008999
v -0.026547 6.493850 2.000135
v -0.017683 6.000014 1.991001
v -0.017413 6.000014 2.008999
v -0.008549 6.000014 1.999865
v -0.026547 6.000014 2.000135
vn -0.0150 -0.0000 -0.9999
vn 0.9999 -0.0000 -0.0150
vn 0.0150 -0.0000 0.9999
vn -0.0000 1.0000 -0.0000
vn -0.9999 -0.0000 0.0150
vt 0.982385 0.009566
vt 0.982382 0.002719
vt 0.982385 0.002719
vt 0.982382 0.009566
vt 0.982378 0.002719
vt 0.982378 0.009566
vt 0.982382 0.002719
vt 0.982382 0.009566
s 1
usemtl Catenary
f 201/197/181 207/198/182 205/199/181
f 202/200/182 206/201/183 207/198/182
f 201/197/184 203/202/184 202/200/184
f 203/202/183 208/203/185 206/201/183
f 204/204/185 205/199/181 208/203/185
f 201/197/181 202/200/182 207/198/182
f 202/200/182 203/202/183 206/201/183
f 201/197/184 204/204/184 203/202/184
f 203/202/183 204/204/185 208/203/185
f 204/204/185 201/197/181 205/199/181
o Dropper1.006
v 0.017301 6.493850 19.991325
v 0.026435 6.493850 20.000189
v 0.017571 6.493850 20.009323
v 0.008437 6.493850 20.000460
v 0.017301 6.000014 19.991325
v 0.017571 6.000014 20.009323
v 0.026435 6.000014 20.000189
v 0.008437 6.000014 20.000460
vn -0.0150 -0.0000 -0.9999
vn 0.9999 -0.0000 -0.0150
vn 0.0150 -0.0000 0.9999
vn -0.0000 1.0000 -0.0000
vn -0.9999 -0.0000 0.0150
vt 0.982385 0.009566
vt 0.982382 0.002719
vt 0.982385 0.002719
vt 0.982382 0.009566
vt 0.982378 0.002719
vt 0.982378 0.009566
vt 0.982382 0.002719
vt 0.982382 0.009566
s 1
usemtl Catenary
f 209/205/186 215/206/187 213/207/186
f 210/208/187 214/209/188 215/206/187
f 209/205/189 211/210/189 210/208/189
f 211/210/188 216/211/190 214/209/188
f 212/212/190 213/207/186 216/211/190
f 209/205/186 210/208/187 215/206/187
f 210/208/187 211/210/188 214/209/188
f 209/205/189 212/212/189 211/210/189
f 211/210/188 212/212/190 216/211/190
f 212/212/190 209/205/186 213/207/186
o Dropper2.006
v 0.017301 6.537527 14.989301
v 0.026435 6.537527 14.998164
v 0.017571 6.537527 15.007298
v 0.008437 6.537527 14.998435
v 0.017301 6.000014 14.989301
v 0.017571 6.000014 15.007298
v 0.026435 6.000014 14.998164
v 0.008437 6.000014 14.998435
vn -0.0150 -0.0000 -0.9999
vn 0.9999 -0.0000 -0.0150
vn 0.0150 -0.0000 0.9999
vn -0.0000 1.0000 -0.0000
vn -0.9999 -0.0000 0.0150
vt 0.977348 0.010171
vt 0.977345 0.002719
vt 0.977348 0.002719
vt 0.977345 0.010171
vt 0.977341 0.002719
vt 0.977341 0.010171
vt 0.977345 0.002719
vt 0.977345 0.010171
s 1
usemtl Catenary
f 217/213/191 223/214/192 221/215/191
f 218/216/192 222/217/193 223/214/192
f 217/213/194 219/218/194 218/216/194
f 219/218/193 224/219/195 222/217/193
f 220/220/195 221/215/191 224/219/195
f 217/213/191 218/216/192 223/214/192
f 218/216/192 219/218/193 222/217/193
f 217/213/194 220/220/194 219/218/194
f 219/218/193 220/220/195 224/219/195
f 220/220/195 217/213/191 221/215/191
o Dropper3.006
v 0.017301 6.537527 24.992802
v 0.026435 6.537527 25.001665
v 0.017571 6.537527 25.010799
v 0.008437 6.537527 25.001936
v 0.017301 6.000014 24.992802
v 0.017571 6.000014 25.010799
v 0.026435 6.000014 25.001665
v 0.008437 6.000014 25.001936
vn -0.0150 -0.0000 -0.9999
vn 0.9999 -0.0000 -0.0150
vn 0.0150 -0.0000 0.9999
vn -0.0000 1.0000 -0.0000
vn -0.9999 -0.0000 0.0150
vt 0.977348 0.010171
vt 0.977345 0.002719
vt 0.977348 0.002719
vt 0.977345 0.010171
vt 0.977341 0.002719
vt 0.977341 0.010171
vt 0.977345 0.002719
vt 0.977345 0.010171
s 1
usemtl Catenary
f 225/221/196 231/222/197 229/223/196
f 226/224/197 230/225/198 231/222/197
f 225/221/199 227/226/199 226/224/199
f 227/226/198 232/227/200 230/225/198
f 228/228/200 229/223/196 232/227/200
f 225/221/196 226/224/197 231/222/197
f 226/224/197 227/226/198 230/225/198
f 225/221/199 228/228/199 227/226/199
f 227/226/198 228/228/200 232/227/200
f 228/228/200 225/221/196 229/223/196
o Dropper4.006
v 0.017301 6.627460 29.994600
v 0.026435 6.627460 30.003464
v 0.017571 6.627460 30.012598
v 0.008437 6.627460 30.003735
v 0.017301 6.000014 29.994600
v 0.017571 6.000014 30.012598
v 0.026435 6.000014 30.003464
v 0.008437 6.000014 30.003735
vn -0.0150 -0.0000 -0.9999
vn 0.9999 -0.0000 -0.0150
vn 0.0150 -0.0000 0.9999
vn -0.0000 1.0000 -0.0000
vn -0.9999 -0.0000 0.0150
vt 0.971533 0.011418
vt 0.971530 0.002719
vt 0.971533 0.002719
vt 0.971530 0.011418
vt 0.971526 0.002719
vt 0.971526 0.011418
vt 0.971530 0.002719
vt 0.971530 0.011418
s 1
usemtl Catenary
f 233/229/201 239/230/202 237/231/201
f 234/232/202 238/233/203 239/230/202
f 233/229/204 235/234/204 234/232/204
f 235/234/203 240/235/205 238/233/203
f 236/236/205 237/231/201 240/235/205
f 233/229/201 234/232/202 239/230/202
f 234/232/202 235/234/203 238/233/203
f 233/229/204 236/236/204 235/234/204
f 235/234/203 236/236/205 240/235/205
f 236/236/205 233/229/201 237/231/201
o Dropper5.006
v 0.017301 6.627460 9.987371
v 0.026435 6.627460 9.996235
v 0.017571 6.627460 10.005369
v 0.008437 6.627460 9.996506
v 0.017301 6.000014 9.987371
v 0.017571 6.000014 10.005369
v 0.026435 6.000014 9.996235
v 0.008437 6.000014 9.996506
vn -0.0150 -0.0000 -0.9999
vn 0.9999 -0.0000 -0.0150
vn 0.0150 -0.0000 0.9999
vn -0.0000 1.0000 -0.0000
vn -0.9999 -0.0000 0.0150
vt 0.971533 0.011418
vt 0.971530 0.002719
vt 0.971533 0.002719
vt 0.971530 0.011418
vt 0.971526 0.002719
vt 0.971526 0.011418
vt 0.971530 0.002719
vt 0.971530 0.011418
s 1
usemtl Catenary
f 241/237/206 247/238/207 245/239/206
f 242/240/207 246/241/208 247/238/207
f 241/237/209 243/242/209 242/240/209
f 243/242/208 248/243/210 246/241/208
f 244/244/210 245/239/206 248/243/210
f 241/237/206 242/240/207 247/238/207
f 242/240/207 243/242/208 246/241/208
f 241/237/209 244/244/209 243/242/209
f 243/242/208 244/244/210 248/243/210
f 244/244/210 241/237/206 245/239/206
o Dropper6.006
v 0.017301 6.783311 4.985561
v 0.026435 6.783311 4.994425
v 0.017571 6.783311 5.003559
v 0.008437 6.783311 4.994695
v 0.017301 6.000014 4.985561
v 0.017571 6.000014 5.003559
v 0.026435 6.000014 4.994425
v 0.008437 6.000014 4.994695
vn -0.0150 -0.0000 -0.9999
vn 0.9999 -0.0000 -0.0150
vn 0.0150 -0.0000 0.9999
vn -0.0000 1.0000 -0.0000
vn -0.9999 -0.0000 0.0150
vt 0.981225 0.013579
vt 0.981221 0.002719
vt 0.981225 0.002719
vt 0.981221 0.013579
vt 0.981218 0.002719
vt 0.981218 0.013579
vt 0.981221 0.002719
vt 0.981221 0.013579
s 1
usemtl Catenary
f 249/245/211 255/246/212 253/247/211
f 250/248/212 254/249/213 255/246/212
f 249/245/214 251/250/214 250/248/214
f 251/250/213 256/251/215 254/249/213
f 252/252/215 253/247/211 256/251/215
f 249/245/211 250/248/212 255/246/212
f 250/248/212 251/250/213 254/249/213
f 249/245/214 252/252/214 251/250/214
f 251/250/213 252/252/215 256/251/215
f 252/252/215 249/245/211 253/247/211
o Dropper7.006
v 0.017301 6.783311 34.996403
v 0.026435 6.783311 35.005268
v 0.017571 6.783311 35.014400
v 0.008437 6.783311 35.005535
v 0.017301 6.000014 34.996403
v 0.017571 6.000014 35.014400
v 0.026435 6.000014 35.005268
v 0.008437 6.000014 35.005535
vn -0.0150 -0.0000 -0.9999
vn 0.9999 -0.0000 -0.0150
vn 0.0150 -0.0000 0.9999
vn -0.0000 1.0000 -0.0000
vn -0.9999 -0.0000 0.0150
vt 0.981225 0.013579
vt 0.981221 0.002719
vt 0.981225 0.002719
vt 0.981221 0.013579
vt 0.981218 0.002719
vt 0.981218 0.013579
vt 0.981221 0.002719
vt 0.981221 0.013579
s 1
usemtl Catenary
f 257/253/216 263/254/217 261/255/216
f 258/256/217 262/257/218 263/254/217
f 257/253/219 259/258/219 258/256/219
f 259/258/218 264/259/220 262/257/218
f 260/260/220 261/255/216 264/259/220
f 257/253/216 258/256/217 263/254/217
f 258/256/217 259/258/218 262/257/218
f 257/253/219 260/260/219 259/258/219
f 259/258/218 260/260/220 264/259/220
f 260/260/220 257/253/216 261/255/216
o StitchDropper1.003
v 0.017301 6.493850 37.991001
v 0.026435 6.493850 37.999866
v 0.017571 6.493850 38.008999
v 0.008437 6.493850 38.000134
v 0.017301 6.000014 37.991001
v 0.017571 6.000014 38.008999
v 0.026435 6.000014 37.999866
v 0.008437 6.000014 38.000134
vn -0.0150 -0.0000 -0.9999
vn 0.9999 -0.0000 -0.0150
vn 0.0150 -0.0000 0.9999
vn -0.0000 1.0000 -0.0000
vn -0.9999 -0.0000 0.0150
vt 0.982385 0.009566
vt 0.982382 0.002719
vt 0.982385 0.002719
vt 0.982382 0.009566
vt 0.982378 0.002719
vt 0.982378 0.009566
vt 0.982382 0.002719
vt 0.982382 0.009566
s 1
usemtl Catenary
f 265/261/221 271/262/222 269/263/221
f 266/264/222 270/265/223 271/262/222
f 265/261/224 267/266/224 266/264/224
f 267/266/223 272/267/225 270/265/223
f 268/268/225 269/263/221 272/267/225
f 265/261/221 266/264/222 271/262/222
f 266/264/222 267/266/223 270/265/223
f 265/261/224 268/268/224 267/266/224
f 267/266/223 268/268/225 272/267/225
f 268/268/225 265/261/221 269/263/221
o StitchDropper2.006
v 0.017301 6.493850 1.991001
v 0.026435 6.493850 1.999865
v 0.017571 6.493850 2.008999
v 0.008437 6.493850 2.000135
v 0.017301 6.000014 1.991001
v 0.017571 6.000014 2.008999
v 0.026435 6.000014 1.999865
v 0.008437 6.000014 2.000135
vn -0.0150 -0.0000 -0.9999
vn 0.9999 -0.0000 -0.0150
vn 0.0150 -0.0000 0.9999
vn -0.0000 1.0000 -0.0000
vn -0.9999 -0.0000 0.0150
vt 0.982385 0.009566
vt 0.982382 0.002719
vt 0.982385 0.002719
vt 0.982382 0.009566
vt 0.982378 0.002719
vt 0.982378 0.009566
vt 0.982382 0.002719
vt 0.982382 0.009566
s 1
usemtl Catenary
f 273/269/226 279/270/227 277/271/226
f 274/272/227 278/273/228 279/270/227
f 273/269/229 275/274/229 274/272/229
f 275/274/228 280/275/230 278/273/228
f 276/276/230 277/271/226 280/275/230
f 273/269/226 274/272/227 279/270/227
f 274/272/227 275/274/228 278/273/228
f 273/269/229 276/276/229 275/274/229
f 275/274/228 276/276/230 280/275/230
f 276/276/230 273/269/226 277/271/226
