# Blender 5.1.2
# www.blender.org
mtllib arch_2_platforms.mtl
o PolePlatform
v -0.906572 7.261916 0.040391
v -0.906571 7.334776 0.040391
v -0.906571 7.261916 0.020618
v -0.906570 7.334776 0.020619
v 0.906570 7.261916 0.039392
v 0.906571 7.334780 0.039392
v 0.906570 7.261916 0.020619
v 0.906572 7.334780 0.020619
v -0.906572 7.261916 -0.018958
v -0.906571 7.334776 -0.018958
v -0.906571 7.261916 -0.038731
v -0.906570 7.334776 -0.038731
v 0.906570 7.261916 -0.019958
v 0.906572 7.334780 -0.019958
v 0.906570 7.261916 -0.039730
v 0.906572 7.334780 -0.039730
vn -1.0000 -0.0000 -0.0000
vn -0.0000 -0.0000 -1.0000
vn 1.0000 -0.0000 -0.0000
vn 0.0006 -0.0000 1.0000
vn -0.0000 -1.0000 -0.0000
vn -0.0000 1.0000 -0.0000
vn -0.0006 -0.0000 -1.0000
vt 0.513508 0.549339
vt 0.521867 0.557698
vt 0.513508 0.557698
vt 0.531188 0.513198
vt 0.511658 0.532727
vt 0.511658 0.513198
vt 0.523922 0.472988
vt 0.517869 0.479041
vt 0.517869 0.472988
vt 0.534177 0.999999
vt 0.500001 0.000002
vt 0.534177 0.000002
vt 0.511817 0.472988
vt 0.511817 0.479041
vt 0.531698 0.134441
vt 0.509715 0.156423
vt 0.509715 0.134441
vt 0.523922 0.460883
vt 0.517869 0.466936
vt 0.517869 0.460883
vt 0.500001 0.999997
vt 0.534179 0.000002
vt 0.534179 0.999997
vt 0.511506 0.513343
vt 0.531036 0.532873
vt 0.511506 0.532873
vt 0.521867 0.549339
vt 0.531188 0.532727
vt 0.523922 0.479041
vt 0.500001 0.999999
vt 0.531698 0.156423
vt 0.523922 0.466936
vt 0.500001 0.000002
vt 0.531036 0.513343
s 0
usemtl Catenary
f 1/1/1 4/2/1 3/3/1
f 4/4/2 7/5/2 3/6/2
f 8/7/3 5/8/3 7/9/3
f 5/10/4 2/11/4 1/12/4
f 3/13/5 5/8/5 1/14/5
f 4/15/6 6/16/6 8/17/6
f 10/18/1 11/19/1 9/20/1
f 12/21/7 15/22/7 11/23/7
f 16/7/3 13/8/3 15/9/3
f 13/24/4 10/25/4 9/26/4
f 11/13/5 13/8/5 9/14/5
f 12/15/6 14/16/6 16/17/6
f 1/1/1 2/27/1 4/2/1
f 4/4/2 8/28/2 7/5/2
f 8/7/3 6/29/3 5/8/3
f 5/10/4 6/30/4 2/11/4
f 3/13/5 7/9/5 5/8/5
f 4/15/6 2/31/6 6/16/6
f 10/18/1 12/32/1 11/19/1
f 12/21/7 16/33/7 15/22/7
f 16/7/3 14/29/3 13/8/3
f 13/24/4 14/34/4 10/25/4
f 11/13/5 15/9/5 13/8/5
f 12/15/6 10/31/6 14/16/6
o PolePlatform.001
v -2.426032 6.375228 0.040391
v -2.462461 6.438328 0.040391
v -2.426031 6.375228 0.020618
v -2.462461 6.438328 0.020619
v -0.855805 7.281800 0.039392
v -0.892236 7.344903 0.039392
v -0.855805 7.281800 0.020619
v -0.892236 7.344903 0.020619
v -2.426032 6.375228 -0.018959
v -2.462461 6.438328 -0.018959
v -2.426031 6.375228 -0.038731
v -2.462461 6.438328 -0.038731
v -0.855805 7.281800 -0.019958
v -0.892236 7.344903 -0.019958
v -0.855805 7.281800 -0.039730
v -0.892236 7.344903 -0.039730
vn -0.8660 -0.5000 -0.0000
vn -0.0000 -0.0000 -1.0000
vn 0.8660 0.5000 -0.0000
vn 0.0005 0.0003 1.0000
vn 0.5000 -0.8660 -0.0000
vn -0.5000 0.8660 -0.0000
vn -0.0005 -0.0003 -1.0000
vt 0.513508 0.549339
vt 0.521867 0.557698
vt 0.513508 0.557698
vt 0.531188 0.513198
vt 0.511658 0.532727
vt 0.511658 0.513198
vt 0.523922 0.472988
vt 0.517869 0.479041
vt 0.517869 0.472988
vt 0.534177 0.999999
vt 0.500001 0.000002
vt 0.534177 0.000002
vt 0.511817 0.472988
vt 0.511817 0.479041
vt 0.531698 0.134441
vt 0.509715 0.156423
vt 0.509715 0.134441
vt 0.523922 0.460883
vt 0.517869 0.466936
vt 0.517869 0.460883
vt 0.500001 0.999997
vt 0.534179 0.000002
vt 0.534179 0.999997
vt 0.511506 0.513343
vt 0.531036 0.532873
vt 0.511506 0.532873
vt 0.521867 0.549339
vt 0.531188 0.532727
vt 0.523922 0.479041
vt 0.500001 0.999999
vt 0.531698 0.156423
vt 0.523922 0.466936
vt 0.500001 0.000002
vt 0.531036 0.513343
s 0
usemtl Catenary
f 17/35/8 20/36/8 19/37/8
f 20/38/9 23/39/9 19/40/9
f 24/41/10 21/42/10 23/43/10
f 21/44/11 18/45/11 17/46/11
f 19/47/12 21/42/12 17/48/12
f 20/49/13 22/50/13 24/51/13
f 26/52/8 27/53/8 25/54/8
f 28/55/14 31/56/14 27/57/14
f 32/41/10 29/42/10 31/43/10
f 29/58/11 26/59/11 25/60/11
f 27/47/12 29/42/12 25/48/12
f 28/49/13 30/50/13 32/51/13
f 17/35/8 18/61/8 20/36/8
f 20/38/9 24/62/9 23/39/9
f 24/41/10 22/63/10 21/42/10
f 21/44/11 22/64/11 18/45/11
f 19/47/12 23/43/12 21/42/12
f 20/49/13 18/65/13 22/50/13
f 26/52/8 28/66/8 27/53/8
f 28/55/14 32/67/14 31/56/14
f 32/41/10 30/63/10 29/42/10
f 29/58/11 30/68/11 26/59/11
f 27/47/12 31/43/12 29/42/12
f 28/49/13 26/65/13 30/50/13
