# Blender 5.1.2
# www.blender.org
mtllib double_arch_torlley.mtl
o PlatformDoubleArchTrolley
g double_arch_trolley
v -0.906572 7.261916 0.039922
v -0.906571 7.334776 0.039922
v -0.906572 7.261916 0.020150
v -0.906571 7.334776 0.020150
v 0.906570 7.261916 0.038950
v 0.906571 7.334780 0.038950
v 0.906570 7.261916 0.020177
v 0.906571 7.334780 0.020177
v -0.906571 7.261916 -0.019427
v -0.906570 7.334776 -0.019427
v -0.906571 7.261916 -0.039200
v -0.906570 7.334776 -0.039200
v 0.906571 7.261916 -0.020400
v 0.906572 7.334780 -0.020400
v 0.906571 7.261916 -0.040172
v 0.906572 7.334780 -0.040172
vn -1.0000 -0.0000 -0.0000
vn -0.0000 -0.0000 -1.0000
vn 1.0000 -0.0000 -0.0000
vn 0.0005 -0.0000 1.0000
vn -0.0000 -1.0000 -0.0000
vn -0.0000 1.0000 -0.0000
vn -0.0005 -0.0000 -1.0000
vt 0.513508 0.549339
vt 0.521867 0.557698
vt 0.513508 0.557698
vt 0.531188 0.513198
vt 0.511658 0.532727
vt 0.511658 0.513198
vt 0.523922 0.472988
vt 0.517869 0.479041
vt 0.517869 0.472988
vt 0.534177 0.999999
vt 0.500001 0.000002
vt 0.534177 0.000002
vt 0.511817 0.472988
vt 0.511817 0.479041
vt 0.531698 0.134441
vt 0.509715 0.156423
vt 0.509715 0.134441
vt 0.523922 0.460883
vt 0.517869 0.466936
vt 0.517869 0.460883
vt 0.500001 0.999997
vt 0.534179 0.000002
vt 0.534179 0.999997
vt 0.511506 0.513343
vt 0.531036 0.532873
vt 0.511506 0.532873
vt 0.521867 0.549339
vt 0.531188 0.532727
vt 0.523922 0.479041
vt 0.500001 0.999999
vt 0.531698 0.156423
vt 0.523922 0.466936
vt 0.500001 0.000002
vt 0.531036 0.513343
s 0
usemtl Catenary
f 1/1/1 4/2/1 3/3/1
f 4/4/2 7/5/2 3/6/2
f 8/7/3 5/8/3 7/9/3
f 5/10/4 2/11/4 1/12/4
f 3/13/5 5/8/5 1/14/5
f 4/15/6 6/16/6 8/17/6
f 10/18/1 11/19/1 9/20/1
f 12/21/7 15/22/7 11/23/7
f 16/7/3 13/8/3 15/9/3
f 13/24/4 10/25/4 9/26/4
f 11/13/5 13/8/5 9/14/5
f 12/15/6 14/16/6 16/17/6
f 1/1/1 2/27/1 4/2/1
f 4/4/2 8/28/2 7/5/2
f 8/7/3 6/29/3 5/8/3
f 5/10/4 6/30/4 2/11/4
f 3/13/5 7/9/5 5/8/5
f 4/15/6 2/31/6 6/16/6
f 10/18/1 12/32/1 11/19/1
f 12/21/7 16/33/7 15/22/7
f 16/7/3 14/29/3 13/8/3
f 13/24/4 14/34/4 10/25/4
f 11/13/5 15/9/5 13/8/5
f 12/15/6 10/31/6 14/16/6
o ArchAngled.005
v 2.649727 6.952834 -0.026385
v 2.662378 7.024588 -0.026385
v 2.649727 6.952835 -0.009572
v 2.662378 7.024588 -0.009572
v 0.864131 7.267684 -0.025413
v 0.876783 7.339441 -0.025413
v 0.864131 7.267684 -0.009615
v 0.876782 7.339441 -0.009615
v 2.649726 6.952835 0.006161
v 2.662377 7.024588 0.006161
v 2.649726 6.952835 0.023239
v 2.662377 7.024588 0.023239
v 0.864130 7.267684 0.007679
v 0.876782 7.339441 0.007679
v 0.864130 7.267684 0.024211
v 0.876782 7.339441 0.024211
vn 0.9848 -0.1736 -0.0000
vn -0.0000 -0.0000 1.0000
vn -0.9848 0.1736 -0.0000
vn -0.0005 0.0001 -1.0000
vn -0.1736 -0.9848 -0.0000
vn 0.1737 0.9848 -0.0000
vn 0.0005 -0.0001 1.0000
vn -0.0008 0.0001 -1.0000
vt 0.513508 0.549339
vt 0.521867 0.557698
vt 0.513508 0.557698
vt 0.531188 0.513198
vt 0.511658 0.532727
vt 0.511658 0.513198
vt 0.523922 0.472988
vt 0.517869 0.479041
vt 0.517869 0.472988
vt 0.534177 0.999999
vt 0.500001 0.000002
vt 0.534177 0.000002
vt 0.511817 0.472988
vt 0.511817 0.479041
vt 0.531698 0.134441
vt 0.509715 0.156423
vt 0.509715 0.134441
vt 0.517869 0.460883
vt 0.523922 0.466936
vt 0.517869 0.466936
vt 0.500001 0.999997
vt 0.534179 0.000002
vt 0.534179 0.999997
vt 0.523922 0.479041
vt 0.511506 0.513343
vt 0.531036 0.532873
vt 0.511506 0.532873
vt 0.521867 0.549339
vt 0.531188 0.532727
vt 0.500001 0.999999
vt 0.531698 0.156423
vt 0.523922 0.460883
vt 0.500001 0.000002
vt 0.531036 0.513343
s 0
usemtl Catenary
f 17/35/8 20/36/8 19/37/8
f 20/38/9 23/39/9 19/40/9
f 24/41/10 21/42/10 23/43/10
f 21/44/11 18/45/11 17/46/11
f 19/47/12 21/42/12 17/48/12
f 20/49/13 22/50/13 24/51/13
f 25/52/8 28/53/8 27/54/8
f 28/55/14 31/56/14 27/57/14
f 31/43/10 30/58/10 29/42/10
f 29/59/15 26/60/15 25/61/15
f 27/47/12 29/42/12 25/48/12
f 28/49/13 30/50/13 32/51/13
f 17/35/8 18/62/8 20/36/8
f 20/38/9 24/63/9 23/39/9
f 24/41/10 22/58/10 21/42/10
f 21/44/11 22/64/11 18/45/11
f 19/47/12 23/43/12 21/42/12
f 20/49/13 18/65/13 22/50/13
f 25/52/8 26/66/8 28/53/8
f 28/55/14 32/67/14 31/56/14
f 31/43/10 32/41/10 30/58/10
f 29/59/15 30/68/15 26/60/15
f 27/47/12 31/43/12 29/42/12
f 28/49/13 26/65/13 30/50/13
o ArchSupport.010
v 2.553698 7.007721 -0.010824
v 2.611529 6.963402 -0.010824
v 2.553698 7.007721 0.008949
v 2.611529 6.963403 0.008949
v 2.886014 7.441348 -0.010823
v 2.943848 7.397027 -0.010823
v 2.886014 7.441348 0.008949
v 2.943848 7.397027 0.008949
vn -0.6083 -0.7937 -0.0000
vn -0.0000 -0.0000 1.0000
vn 0.6083 0.7937 -0.0000
vn -0.0000 -0.0000 -1.0000
vn -0.7937 0.6083 -0.0000
vn 0.7937 -0.6083 -0.0000
vt 0.521748 0.499718
vt 0.514923 0.506544
vt 0.514923 0.499718
vt 0.521748 0.506544
vt 0.514923 0.513369
vt 0.521748 0.513369
vt 0.518431 0.806383
vt 0.527631 0.846481
vt 0.506738 0.846481
vt 0.508098 0.513369
vt 0.508098 0.520194
vt 0.528573 0.513369
vt 0.519002 0.806383
vt 0.528573 0.520194
s 0
usemtl Catenary
f 34/69/16 35/70/16 33/71/16
f 36/72/17 39/73/17 35/70/17
f 40/74/18 37/75/18 39/73/18
f 37/75/19 34/76/19 33/77/19
f 35/78/20 37/75/20 33/79/20
f 36/80/21 38/81/21 40/74/21
f 34/69/16 36/72/16 35/70/16
f 36/72/17 40/74/17 39/73/17
f 40/74/18 38/81/18 37/75/18
f 37/75/19 38/81/19 34/76/19
f 35/78/20 39/73/20 37/75/20
f 36/80/21 34/82/21 38/81/21
o ArchSupport.011
v 1.457817 7.197823 -0.010824
v 1.515648 7.153504 -0.010824
v 1.457817 7.197823 0.008949
v 1.515648 7.153504 0.008949
v 1.790133 7.631449 -0.010824
v 1.847968 7.587128 -0.010824
v 1.790133 7.631449 0.008949
v 1.847968 7.587128 0.008949
vn -0.6083 -0.7937 -0.0000
vn -0.0000 -0.0000 1.0000
vn 0.6083 0.7937 -0.0000
vn -0.0000 -0.0000 -1.0000
vn -0.7937 0.6083 -0.0000
vn 0.7937 -0.6083 -0.0000
vt 0.521748 0.499718
vt 0.514923 0.506544
vt 0.514923 0.499718
vt 0.521748 0.506544
vt 0.514923 0.513369
vt 0.521748 0.513369
vt 0.518431 0.806383
vt 0.527631 0.846481
vt 0.506738 0.846481
vt 0.508098 0.513369
vt 0.508098 0.520194
vt 0.528573 0.513369
vt 0.519002 0.806383
vt 0.528573 0.520194
s 0
usemtl Catenary
f 42/83/22 43/84/22 41/85/22
f 44/86/23 47/87/23 43/84/23
f 48/88/24 45/89/24 47/87/24
f 45/89/25 42/90/25 41/91/25
f 43/92/26 45/89/26 41/93/26
f 44/94/27 46/95/27 48/88/27
f 42/83/22 44/86/22 43/84/22
f 44/86/23 48/88/23 47/87/23
f 48/88/24 46/95/24 45/89/24
f 45/89/25 46/95/25 42/90/25
f 43/92/26 47/87/26 45/89/26
f 44/94/27 42/96/27 46/95/27
o PlatformBracket.005
v -1.028788 6.253494 -0.020175
v -0.745406 7.334775 -0.020175
v -1.028788 6.253494 0.020176
v -0.745406 7.334775 0.020176
v -1.028788 6.500960 -0.020175
v -1.028788 6.500960 0.020176
v -0.869625 7.334775 0.020176
v -1.125434 6.596335 0.020176
v -1.125434 6.596335 -0.020175
v -0.869625 7.334775 -0.020175
v -1.125434 6.253494 0.020176
v -1.125434 6.253494 -0.020175
vn 0.9468 -0.3218 -0.0000
vn -0.0000 -0.0000 -1.0000
vn -0.0000 1.0000 -0.0000
vn 1.0000 -0.0000 -0.0000
vn -0.9449 0.3273 -0.0000
vn -0.0000 -1.0000 -0.0000
vn -0.0000 -0.0000 1.0000
vn -1.0000 -0.0000 -0.0000
vt 0.512690 0.625508
vt 0.529781 0.272340
vt 0.512690 0.268465
vt 0.602537 0.000000
vt 0.568363 0.237868
vt 0.568362 -0.016280
vt 0.532019 0.414207
vt 0.513409 0.488646
vt 0.513409 0.414207
vt 0.602539 0.000001
vt 0.568362 0.080068
vt 0.568362 0.000001
vt 0.529781 0.167525
vt 0.512690 0.167525
vt 0.529781 0.625508
vt 0.512690 0.312737
vt 0.529781 0.312737
vt 0.568358 0.079930
vt 0.534182 0.000000
vt 0.568358 0.000000
vt 0.568360 0.237815
vt 0.534186 0.000000
vt 0.568358 -0.016280
vt 0.602537 0.000001
vt 0.602533 0.237709
vt 0.534184 0.237815
vt 0.602539 0.112020
vt 0.534182 0.108738
vt 0.532019 0.488646
s 0
usemtl Catenary
f 50/97/28 54/98/28 53/99/28
f 57/100/29 50/101/29 53/102/29
f 52/103/30 58/104/30 55/105/30
f 60/106/29 53/107/29 49/108/29
f 53/99/31 51/109/31 49/110/31
f 55/111/32 57/112/32 56/113/32
f 59/109/33 49/110/33 51/109/33
f 54/114/34 59/115/34 51/116/34
f 52/117/34 56/118/34 54/119/34
f 57/120/29 58/121/29 50/101/29
f 52/117/34 55/122/34 56/118/34
f 60/106/29 57/123/29 53/107/29
f 60/106/35 56/124/35 57/123/35
f 50/97/28 52/111/28 54/98/28
f 52/103/30 50/125/30 58/104/30
f 53/99/31 54/98/31 51/109/31
f 55/111/32 58/97/32 57/112/32
f 59/109/33 60/110/33 49/110/33
f 54/114/34 56/124/34 59/115/34
f 60/106/35 59/109/35 56/124/35
o ArchAngled.006
v -2.649727 6.952834 0.025448
v -2.662378 7.024587 0.025448
v -2.649727 6.952834 0.008635
v -2.662378 7.024587 0.008635
v -0.864131 7.267683 0.024475
v -0.876783 7.339440 0.024475
v -0.864131 7.267684 0.008678
v -0.876782 7.339440 0.008678
v -2.649726 6.952834 -0.007098
v -2.662377 7.024588 -0.007098
v -2.649726 6.952834 -0.024176
v -2.662377 7.024588 -0.024176
v -0.864130 7.267684 -0.008616
v -0.876782 7.339441 -0.008616
v -0.864130 7.267684 -0.025148
v -0.876781 7.339441 -0.025148
vn -0.9848 -0.1736 -0.0000
vn -0.0000 -0.0000 -1.0000
vn 0.9848 0.1736 -0.0000
vn 0.0005 0.0001 1.0000
vn 0.1736 -0.9848 -0.0000
vn -0.1737 0.9848 -0.0000
vn -0.0005 -0.0001 -1.0000
vn 0.0008 0.0001 1.0000
vt 0.513508 0.549339
vt 0.521867 0.557698
vt 0.513508 0.557698
vt 0.531188 0.513198
vt 0.511658 0.532727
vt 0.511658 0.513198
vt 0.523922 0.472988
vt 0.517869 0.479041
vt 0.517869 0.472988
vt 0.534177 0.999999
vt 0.500001 0.000002
vt 0.534177 0.000002
vt 0.511817 0.472988
vt 0.511817 0.479041
vt 0.531698 0.134441
vt 0.509715 0.156423
vt 0.509715 0.134441
vt 0.517869 0.460883
vt 0.523922 0.466936
vt 0.517869 0.466936
vt 0.500001 0.999997
vt 0.534179 0.000002
vt 0.534179 0.999997
vt 0.523922 0.479041
vt 0.511506 0.513343
vt 0.531036 0.532873
vt 0.511506 0.532873
vt 0.521867 0.549339
vt 0.531188 0.532727
vt 0.500001 0.999999
vt 0.531698 0.156423
vt 0.523922 0.460883
vt 0.500001 0.000002
vt 0.531036 0.513343
s 0
usemtl Catenary
f 61/126/36 64/127/36 63/128/36
f 64/129/37 67/130/37 63/131/37
f 68/132/38 65/133/38 67/134/38
f 65/135/39 62/136/39 61/137/39
f 63/138/40 65/133/40 61/139/40
f 64/140/41 66/141/41 68/142/41
f 69/143/36 72/144/36 71/145/36
f 72/146/42 75/147/42 71/148/42
f 75/134/38 74/149/38 73/133/38
f 73/150/43 70/151/43 69/152/43
f 71/138/40 73/133/40 69/139/40
f 72/140/41 74/141/41 76/142/41
f 61/126/36 62/153/36 64/127/36
f 64/129/37 68/154/37 67/130/37
f 68/132/38 66/149/38 65/133/38
f 65/135/39 66/155/39 62/136/39
f 63/138/40 67/134/40 65/133/40
f 64/140/41 62/156/41 66/141/41
f 69/143/36 70/157/36 72/144/36
f 72/146/42 76/158/42 75/147/42
f 75/134/38 76/132/38 74/149/38
f 73/150/43 74/159/43 70/151/43
f 71/138/40 75/134/40 73/133/40
f 72/140/41 70/156/41 74/141/41
o ArchSupport.012
v -2.553698 7.007720 0.009886
v -2.611529 6.963401 0.009886
v -2.553698 7.007720 -0.009886
v -2.611529 6.963402 -0.009886
v -2.886014 7.441347 0.009886
v -2.943848 7.397026 0.009886
v -2.886014 7.441347 -0.009886
v -2.943848 7.397026 -0.009886
vn 0.6083 -0.7937 -0.0000
vn -0.0000 -0.0000 -1.0000
vn -0.6083 0.7937 -0.0000
vn -0.0000 -0.0000 1.0000
vn 0.7937 0.6083 -0.0000
vn -0.7937 -0.6083 -0.0000
vt 0.521748 0.499718
vt 0.514923 0.506544
vt 0.514923 0.499718
vt 0.521748 0.506544
vt 0.514923 0.513369
vt 0.521748 0.513369
vt 0.518431 0.806383
vt 0.527631 0.846481
vt 0.506738 0.846481
vt 0.508098 0.513369
vt 0.508098 0.520194
vt 0.528573 0.513369
vt 0.519002 0.806383
vt 0.528573 0.520194
s 0
usemtl Catenary
f 78/160/44 79/161/44 77/162/44
f 80/163/45 83/164/45 79/161/45
f 84/165/46 81/166/46 83/164/46
f 81/166/47 78/167/47 77/168/47
f 79/169/48 81/166/48 77/170/48
f 80/171/49 82/172/49 84/165/49
f 78/160/44 80/163/44 79/161/44
f 80/163/45 84/165/45 83/164/45
f 84/165/46 82/172/46 81/166/46
f 81/166/47 82/172/47 78/167/47
f 79/169/48 83/164/48 81/166/48
f 80/171/49 78/173/49 82/172/49
o ArchSupport.013
v -1.457817 7.197822 0.009886
v -1.515648 7.153503 0.009886
v -1.457817 7.197822 -0.009886
v -1.515648 7.153503 -0.009886
v -1.790133 7.631448 0.009886
v -1.847967 7.587127 0.009886
v -1.790133 7.631448 -0.009886
v -1.847967 7.587127 -0.009886
vn 0.6083 -0.7937 -0.0000
vn -0.0000 -0.0000 -1.0000
vn -0.6083 0.7937 -0.0000
vn -0.0000 -0.0000 1.0000
vn 0.7937 0.6083 -0.0000
vn -0.7937 -0.6083 -0.0000
vt 0.521748 0.499718
vt 0.514923 0.506544
vt 0.514923 0.499718
vt 0.521748 0.506544
vt 0.514923 0.513369
vt 0.521748 0.513369
vt 0.518431 0.806383
vt 0.527631 0.846481
vt 0.506738 0.846481
vt 0.508098 0.513369
vt 0.508098 0.520194
vt 0.528573 0.513369
vt 0.519002 0.806383
vt 0.528573 0.520194
s 0
usemtl Catenary
f 86/174/50 87/175/50 85/176/50
f 88/177/51 91/178/51 87/175/51
f 92/179/52 89/180/52 91/178/52
f 89/180/53 86/181/53 85/182/53
f 87/183/54 89/180/54 85/184/54
f 88/185/55 90/186/55 92/179/55
f 86/174/50 88/177/50 87/175/50
f 88/177/51 92/179/51 91/178/51
f 92/179/52 90/186/52 89/180/52
f 89/180/53 90/186/53 86/181/53
f 87/183/54 91/178/54 89/180/54
f 88/185/55 86/187/55 90/186/55
o PlatformTrolley.001
v 0.000000 6.030691 -0.050000
v 0.000000 6.080691 -0.050000
v 0.035355 6.030691 -0.035355
v 0.035355 6.080691 -0.035355
v 0.050000 6.030691 -0.000000
v 0.050000 6.080691 -0.000000
v 0.035355 6.030691 0.035355
v 0.035355 6.080691 0.035355
v 0.000000 6.030691 0.050000
v 0.000000 6.080691 0.050000
v -0.035355 6.030691 0.035355
v -0.035355 6.080691 0.035355
v -0.050000 6.030691 0.000000
v -0.050000 6.080691 0.000000
v -0.035355 6.030691 -0.035355
v -0.035355 6.080691 -0.035355
v 0.000000 6.030691 -0.013314
v 0.009415 6.030691 -0.009415
v 0.013314 6.030691 -0.000000
v 0.009415 6.030691 0.009415
v 0.000000 6.030691 0.013314
v -0.009415 6.030691 0.009415
v -0.013314 6.030691 0.000000
v -0.009415 6.030691 -0.009415
v -0.000000 6.007701 -0.013314
v 0.009415 6.007701 -0.009415
v 0.013314 6.007701 -0.000000
v 0.009415 6.007701 0.009415
v -0.000000 6.007701 0.013314
v -0.009415 6.007701 0.009415
v -0.013314 6.007701 0.000000
v -0.009415 6.007701 -0.009415
v -0.000000 5.999656 -0.013314
v 0.006208 5.999656 -0.009415
v 0.008780 5.999656 -0.000000
v 0.006208 5.999656 0.009415
v -0.000000 5.999656 0.013314
v -0.006208 5.999656 0.009415
v -0.008780 5.999656 0.000000
v -0.006208 5.999656 -0.009415
v 0.042678 6.080691 -0.017678
v 0.042678 6.080691 0.017678
v -0.042678 6.080691 0.017678
v -0.042678 6.080691 -0.017678
v 0.080000 6.109543 0.017678
v -0.080000 6.109543 -0.017678
v 0.080000 6.109543 -0.017678
v -0.080000 6.109543 0.017678
v 0.080000 6.080691 0.017678
v -0.080000 6.080691 -0.017678
v 0.080000 6.080691 -0.017678
v -0.080000 6.080691 0.017678
v -1.030877 6.369647 -0.004982
v -0.076966 6.104348 -0.004982
v -1.030841 6.368963 -0.008426
v -0.076929 6.103664 -0.008427
v -1.030736 6.367015 -0.011346
v -0.076825 6.101716 -0.011346
v -1.030580 6.364100 -0.013297
v -0.076669 6.098800 -0.013297
v -1.030396 6.360660 -0.013982
v -0.076484 6.095361 -0.013982
v -1.030212 6.357221 -0.013297
v -0.076300 6.091921 -0.013297
v -1.030055 6.354305 -0.011346
v -0.076144 6.089006 -0.011346
v -1.029951 6.352357 -0.008426
v -0.076040 6.087058 -0.008427
v -1.029914 6.351673 -0.004982
v -0.076003 6.086374 -0.004982
v -1.029951 6.352357 -0.001538
v -0.076040 6.087058 -0.001538
v -1.030055 6.354305 0.001382
v -0.076144 6.089006 0.001382
v -1.030212 6.357221 0.003333
v -0.076300 6.091921 0.003333
v -1.030396 6.360660 0.004018
v -0.076484 6.095361 0.004018
v -1.030580 6.364100 0.003333
v -0.076669 6.098800 0.003333
v -1.030736 6.367015 0.001382
v -0.076825 6.101716 0.001382
v -1.030841 6.368963 -0.001538
v -0.076929 6.103664 -0.001538
v 0.072118 6.104529 -0.004982
v 1.033477 6.367147 -0.004982
v 0.072155 6.103845 -0.008427
v 1.033514 6.366464 -0.008426
v 0.072259 6.101897 -0.011346
v 1.033618 6.364515 -0.011346
v 0.072415 6.098981 -0.013297
v 1.033774 6.361600 -0.013297
v 0.072599 6.095542 -0.013982
v 1.033958 6.358160 -0.013982
v 0.072784 6.092103 -0.013297
v 1.034143 6.354721 -0.013297
v 0.072940 6.089187 -0.011346
v 1.034299 6.351806 -0.011346
v 0.073044 6.087239 -0.008427
v 1.034403 6.349857 -0.008426
v 0.073081 6.086555 -0.004982
v 1.034440 6.349174 -0.004982
v 0.073044 6.087239 -0.001538
v 1.034403 6.349857 -0.001538
v 0.072940 6.089187 0.001382
v 1.034299 6.351806 0.001382
v 0.072784 6.092103 0.003333
v 1.034143 6.354721 0.003333
v 0.072599 6.095542 0.004018
v 1.033958 6.358160 0.004018
v 0.072415 6.098981 0.003333
v 1.033774 6.361600 0.003333
v 0.072259 6.101897 0.001382
v 1.033618 6.364515 0.001382
v 0.072155 6.103845 -0.001538
v 1.033514 6.366464 -0.001538
vn -0.0000 -0.0000 -1.0000
vn 0.7071 -0.0000 -0.7071
vn 0.9239 -0.0000 -0.3827
vn 1.0000 -0.0000 -0.0000
vn 0.9239 -0.0000 0.3827
vn 0.7071 -0.0000 0.7071
vn -0.0000 -0.0000 1.0000
vn -0.7071 -0.0000 0.7071
vn -0.9239 -0.0000 0.3827
vn -1.0000 -0.0000 -0.0000
vn -0.0000 1.0000 -0.0000
vn -0.9239 -0.0000 -0.3827
vn -0.7071 -0.0000 -0.7071
vn -0.0000 -0.0447 0.9990
vn -0.0001 -1.0000 -0.0000
vn -0.0000 -1.0000 -0.0000
vn -0.7272 -0.1612 -0.6673
vn -0.8996 -0.4368 -0.0000
vn -0.9708 -0.2398 -0.0000
vn 0.9708 -0.2398 -0.0000
vn -0.0000 -0.0447 -0.9990
vn -0.7272 -0.1612 0.6673
vn 0.7272 -0.1612 0.6673
vn 0.7272 -0.1612 -0.6673
vn -0.7093 -0.2252 0.6680
vn 0.8996 -0.4368 -0.0000
vn 0.7093 -0.2252 -0.6680
vn -0.7093 -0.2252 -0.6680
vn 0.7093 -0.2252 0.6680
vn 0.2679 0.9634 -0.0000
vn 0.2508 0.9016 -0.3525
vn 0.2479 0.8913 -0.3797
vn 0.1994 0.7169 -0.6680
vn 0.1890 0.6794 -0.7090
vn 0.1165 0.4188 -0.9006
vn 0.0975 0.3507 -0.9314
vn 0.0114 0.0409 -0.9991
vn -0.0114 -0.0409 -0.9991
vn -0.0975 -0.3507 -0.9314
vn -0.1165 -0.4188 -0.9006
vn -0.1890 -0.6794 -0.7090
vn -0.1994 -0.7169 -0.6680
vn -0.2479 -0.8913 -0.3798
vn -0.2508 -0.9016 -0.3524
vn -0.2679 -0.9634 -0.0000
vn -0.2508 -0.9016 0.3524
vn -0.2479 -0.8913 0.3798
vn -0.1994 -0.7169 0.6680
vn -0.1890 -0.6794 0.7090
vn -0.1165 -0.4188 0.9006
vn -0.0975 -0.3507 0.9314
vn -0.0114 -0.0409 0.9991
vn 0.0114 0.0409 0.9991
vn 0.0975 0.3507 0.9314
vn 0.1165 0.4188 0.9006
vn 0.1890 0.6794 0.7090
vn 0.1994 0.7169 0.6680
vn 0.2479 0.8913 0.3798
vn 0.2508 0.9016 0.3525
vn -0.2635 0.9647 -0.0000
vn -0.2452 0.8976 -0.3664
vn -0.2432 0.8904 -0.3847
vn -0.1918 0.7020 -0.6859
vn -0.1849 0.6768 -0.7125
vn -0.1087 0.3980 -0.9109
vn -0.0967 0.3539 -0.9303
vn -0.0071 0.0261 -0.9996
vn 0.0071 -0.0261 -0.9996
vn 0.0967 -0.3539 -0.9303
vn 0.1087 -0.3980 -0.9109
vn 0.1849 -0.6768 -0.7125
vn 0.1918 -0.7020 -0.6859
vn 0.2432 -0.8904 -0.3847
vn 0.2452 -0.8976 -0.3664
vn 0.2635 -0.9647 -0.0000
vn 0.2452 -0.8976 0.3664
vn 0.2432 -0.8904 0.3847
vn 0.1918 -0.7020 0.6859
vn 0.1849 -0.6768 0.7125
vn 0.1087 -0.3980 0.9109
vn 0.0967 -0.3539 0.9303
vn 0.0071 -0.0261 0.9996
vn -0.0071 0.0261 0.9996
vn -0.0967 0.3539 0.9303
vn -0.1087 0.3980 0.9109
vn -0.1849 0.6768 0.7125
vn -0.1918 0.7020 0.6859
vn -0.2432 0.8904 0.3847
vn -0.2452 0.8976 0.3664
vn -0.0001 1.0000 -0.0000
vn 0.0001 1.0000 -0.0000
vt 0.959170 0.010573
vt 0.961043 0.009140
vt 0.961043 0.010573
vt 0.959170 0.009140
vt 0.959170 0.008423
vt 0.961043 0.007706
vt 0.959170 0.007706
vt 0.959170 0.006990
vt 0.961043 0.006273
vt 0.959170 0.006273
vt 0.961043 0.004840
vt 0.959170 0.004840
vt 0.961043 0.003407
vt 0.959170 0.003407
vt 0.959170 0.002690
vt 0.961043 0.001973
vt 0.957440 0.003826
vt 0.959170 0.013440
vt 0.959170 0.012723
vt 0.961043 0.012006
vt 0.959170 0.012006
vt 0.701087 0.111798
vt 0.679981 0.100740
vt 0.701731 0.102085
vt 0.962964 0.006017
vt 0.963234 0.005747
vt 0.964503 0.006273
vt 0.679522 0.054976
vt 0.669880 0.048377
vt 0.678422 0.045452
vt 0.702305 0.092360
vt 0.681517 0.082601
vt 0.702628 0.082601
vt 0.702305 0.072842
vt 0.679981 0.064461
vt 0.701731 0.063116
vt 0.701087 0.053403
vt 0.700310 0.121500
vt 0.679522 0.110225
vt 0.680966 0.091434
vt 0.680965 0.073767
vt 0.700310 0.043701
vt 0.671819 0.107428
vt 0.672147 0.100106
vt 0.672950 0.082601
vt 0.672885 0.072500
vt 0.672147 0.065095
vt 0.671818 0.057773
vt 0.669880 0.116824
vt 0.672885 0.092701
vt 0.957440 0.011587
vt 0.958664 0.008633
vt 0.961188 0.086501
vt 0.961188 0.066403
vt 0.967982 0.057615
vt 0.976307 0.095290
vt 0.967982 0.095290
vt 0.957025 0.088225
vt 0.961188 0.095290
vt 0.952863 0.095290
vt 0.952863 0.066403
vt 0.952863 0.086501
vt 0.946069 0.095290
vt 0.952863 0.057615
vt 0.961188 0.050821
vt 0.961188 0.057615
vt 0.952863 0.102083
vt 0.957025 0.064679
vt 0.963490 0.003826
vt 0.962582 0.005096
vt 0.983856 0.014273
vt 0.982981 0.007273
vt 0.983856 0.007273
vt 0.982981 0.014273
vt 0.982106 0.007273
vt 0.982106 0.014273
vt 0.981231 0.007273
vt 0.981231 0.014273
vt 0.980356 0.007273
vt 0.980356 0.014273
vt 0.979481 0.007273
vt 0.979481 0.014273
vt 0.978606 0.007273
vt 0.978606 0.014273
vt 0.977731 0.007273
vt 0.977731 0.014273
vt 0.976856 0.007273
vt 0.975981 0.014273
vt 0.975981 0.007273
vt 0.975106 0.014273
vt 0.975106 0.007273
vt 0.974231 0.014273
vt 0.974231 0.007273
vt 0.973356 0.014273
vt 0.973356 0.007273
vt 0.972481 0.014273
vt 0.972481 0.007273
vt 0.971606 0.014273
vt 0.971606 0.007273
vt 0.970731 0.014273
vt 0.970731 0.007273
vt 0.969856 0.014273
vt 0.969856 0.007273
vt 0.976856 0.014273
vt 0.959170 0.001973
vt 0.958664 0.006780
vt 0.958157 0.003826
vt 0.961043 0.013440
vt 0.963490 0.007287
vt 0.962057 0.007287
vt 0.962313 0.005747
vt 0.962582 0.006017
vt 0.963234 0.005366
vt 0.964503 0.004840
vt 0.678422 0.119749
vt 0.958157 0.011587
vt 0.976307 0.057615
vt 0.946069 0.057615
vt 0.952863 0.050821
vt 0.961188 0.102083
vt 0.962057 0.003826
vt 0.962964 0.005096
vt 0.962313 0.005366
s 1
usemtl Catenary
f 94/188/56 95/189/57 93/190/56
f 96/191/57 133/192/58 97/193/59
f 98/194/59 134/195/60 99/196/61
f 100/197/61 101/198/62 99/196/61
f 102/199/62 103/200/63 101/198/62
f 104/201/63 135/202/64 105/203/65
f 135/204/66 102/199/66 100/197/66
f 106/205/65 136/206/67 107/207/68
f 108/208/68 93/190/56 107/207/68
f 114/209/63 121/210/69 113/211/62
f 110/212/70 109/213/71 93/214/71
f 124/215/72 131/216/73 123/217/74
f 112/218/61 119/219/75 111/220/59
f 110/221/57 117/222/76 109/223/56
f 109/223/56 124/215/72 116/224/68
f 115/225/65 122/226/77 114/209/63
f 113/211/62 120/227/78 112/218/61
f 111/220/59 118/228/79 110/221/57
f 116/224/68 123/217/74 115/229/65
f 121/210/69 130/230/80 129/231/62
f 120/227/78 127/232/81 119/219/75
f 117/222/76 126/233/82 125/234/56
f 117/222/76 132/235/83 124/215/72
f 122/226/77 131/236/73 130/230/80
f 121/210/69 128/237/84 120/227/78
f 118/228/79 127/232/81 126/233/82
f 94/188/66 136/238/66 133/239/66
f 133/240/56 136/241/56 138/242/56
f 138/242/66 137/243/66 139/244/66
f 98/245/71 143/246/71 141/247/71
f 135/248/62 134/249/62 137/250/62
f 144/251/65 138/252/65 142/253/65
f 143/246/59 137/254/59 141/247/59
f 106/255/71 144/251/71 142/253/71
f 101/198/71 105/256/71 114/257/71
f 146/258/85 147/259/86 145/260/85
f 148/261/87 149/262/88 147/259/86
f 150/263/89 151/264/90 149/262/88
f 152/265/91 153/266/92 151/264/90
f 154/267/93 155/268/94 153/266/92
f 156/269/95 157/270/96 155/268/94
f 158/271/97 159/272/98 157/270/96
f 160/273/99 161/274/100 159/272/98
f 161/274/100 164/275/101 163/276/102
f 163/276/102 166/277/103 165/278/104
f 165/278/104 168/279/105 167/280/106
f 167/280/106 170/281/107 169/282/108
f 169/282/108 172/283/109 171/284/110
f 171/284/110 174/285/111 173/286/112
f 173/286/112 176/287/113 175/288/114
f 175/288/114 146/289/85 145/290/85
f 177/260/115 180/261/116 179/259/117
f 179/259/117 182/263/118 181/262/119
f 181/262/119 184/265/120 183/264/121
f 183/264/121 186/267/122 185/266/123
f 185/266/123 188/269/124 187/268/125
f 187/268/125 190/271/126 189/270/127
f 189/270/127 192/273/128 191/272/129
f 191/272/129 194/291/130 193/274/130
f 194/291/130 195/276/131 193/274/130
f 196/275/132 197/278/133 195/276/131
f 198/277/134 199/280/135 197/278/133
f 200/279/136 201/282/137 199/280/135
f 202/281/138 203/284/139 201/282/137
f 204/283/140 205/286/141 203/284/139
f 206/285/142 207/288/143 205/286/141
f 208/287/144 177/290/115 207/288/143
f 94/188/56 96/191/57 95/189/57
f 97/193/59 95/189/57 96/191/57
f 133/192/58 98/194/59 97/193/59
f 99/196/61 97/193/59 98/194/59
f 134/195/60 100/197/61 99/196/61
f 100/197/61 102/199/62 101/198/62
f 102/199/62 104/201/63 103/200/63
f 105/203/65 103/200/63 104/201/63
f 135/202/64 106/292/65 105/203/65
f 100/197/66 134/293/66 135/204/66
f 135/204/66 104/294/145 102/199/66
f 107/207/68 105/295/65 106/205/65
f 136/206/67 108/208/68 107/207/68
f 108/208/68 94/188/56 93/190/56
f 114/209/63 122/226/77 121/210/69
f 95/296/71 97/297/71 99/196/71
f 99/196/71 112/298/71 111/299/70
f 99/196/71 111/299/70 110/212/70
f 93/214/71 95/296/71 99/196/71
f 116/300/71 107/301/71 93/214/71
f 109/213/71 116/300/71 93/214/71
f 93/214/71 99/196/71 110/212/70
f 124/215/72 132/235/83 131/216/73
f 112/218/61 120/227/78 119/219/75
f 110/221/57 118/228/79 117/222/76
f 109/223/56 117/222/76 124/215/72
f 115/225/65 123/302/74 122/226/77
f 113/211/62 121/210/69 120/227/78
f 111/220/59 119/219/75 118/228/79
f 116/224/68 124/215/72 123/217/74
f 121/210/69 122/226/77 130/230/80
f 120/227/78 128/237/84 127/232/81
f 117/222/76 118/228/79 126/233/82
f 117/222/76 125/234/56 132/235/83
f 122/226/77 123/302/74 131/236/73
f 121/210/69 129/231/62 128/237/84
f 118/228/79 119/219/75 127/232/81
f 133/239/66 96/191/146 94/188/66
f 94/188/66 108/303/145 136/238/66
f 138/242/56 139/244/56 143/246/56
f 138/242/56 143/246/56 133/240/56
f 136/241/56 142/253/56 138/242/56
f 138/242/66 140/304/66 137/243/66
f 141/247/71 134/249/71 98/245/71
f 98/245/71 133/240/71 143/246/71
f 137/250/62 140/305/62 144/251/62
f 137/250/62 144/251/62 135/248/62
f 134/249/62 141/247/62 137/250/62
f 144/251/65 140/306/65 138/252/65
f 143/246/59 139/307/59 137/254/59
f 142/253/71 136/241/71 106/255/71
f 106/255/71 135/248/71 144/251/71
f 112/298/71 99/196/71 101/198/71
f 101/198/71 103/308/71 105/256/71
f 105/256/71 107/301/71 116/300/71
f 105/256/71 116/300/71 115/309/71
f 113/310/71 112/298/71 101/198/71
f 105/256/71 115/309/71 114/257/71
f 114/257/71 113/310/71 101/198/71
f 146/258/85 148/261/87 147/259/86
f 148/261/87 150/263/89 149/262/88
f 150/263/89 152/265/91 151/264/90
f 152/265/91 154/267/93 153/266/92
f 154/267/93 156/269/95 155/268/94
f 156/269/95 158/271/97 157/270/96
f 158/271/97 160/273/99 159/272/98
f 160/273/99 162/291/100 161/274/100
f 161/274/100 162/291/100 164/275/101
f 163/276/102 164/275/101 166/277/103
f 165/278/104 166/277/103 168/279/105
f 167/280/106 168/279/105 170/281/107
f 169/282/108 170/281/107 172/283/109
f 171/284/110 172/283/109 174/285/111
f 173/286/112 174/285/111 176/287/113
f 175/288/114 176/287/113 146/289/85
f 177/260/115 178/258/115 180/261/116
f 179/259/117 180/261/116 182/263/118
f 181/262/119 182/263/118 184/265/120
f 183/264/121 184/265/120 186/267/122
f 185/266/123 186/267/122 188/269/124
f 187/268/125 188/269/124 190/271/126
f 189/270/127 190/271/126 192/273/128
f 191/272/129 192/273/128 194/291/130
f 194/291/130 196/275/132 195/276/131
f 196/275/132 198/277/134 197/278/133
f 198/277/134 200/279/136 199/280/135
f 200/279/136 202/281/138 201/282/137
f 202/281/138 204/283/140 203/284/139
f 204/283/140 206/285/142 205/286/141
f 206/285/142 208/287/144 207/288/143
f 208/287/144 178/289/115 177/290/115
o PlatformBracket.006
v 1.028788 6.253495 0.020175
v 0.745406 7.334775 0.020175
v 1.028788 6.253495 -0.020175
v 0.745406 7.334775 -0.020175
v 1.028788 6.500960 0.020175
v 1.028788 6.500960 -0.020175
v 0.869625 7.334775 -0.020175
v 1.125434 6.596335 -0.020175
v 1.125434 6.596335 0.020175
v 0.869625 7.334775 0.020175
v 1.125434 6.253495 -0.020175
v 1.125434 6.253495 0.020175
vn -0.9468 -0.3218 -0.0000
vn -0.0000 -0.0000 1.0000
vn -0.0000 1.0000 -0.0000
vn -1.0000 -0.0000 -0.0000
vn 0.9449 0.3273 -0.0000
vn -0.0000 -1.0000 -0.0000
vn -0.0000 -0.0000 -1.0000
vn 1.0000 -0.0000 -0.0000
vt 0.512690 0.625508
vt 0.529781 0.272340
vt 0.512690 0.268465
vt 0.602537 0.000000
vt 0.568363 0.237868
vt 0.568362 -0.016280
vt 0.532019 0.414207
vt 0.513409 0.488646
vt 0.513409 0.414207
vt 0.602539 0.000001
vt 0.568362 0.080068
vt 0.568362 0.000001
vt 0.529781 0.167525
vt 0.512690 0.167525
vt 0.529781 0.625508
vt 0.512690 0.312737
vt 0.529781 0.312737
vt 0.568358 0.079930
vt 0.534182 0.000000
vt 0.568358 0.000000
vt 0.568360 0.237815
vt 0.534186 0.000000
vt 0.568358 -0.016280
vt 0.602537 0.000001
vt 0.602533 0.237709
vt 0.534184 0.237815
vt 0.602539 0.112020
vt 0.534182 0.108738
vt 0.532019 0.488646
s 0
usemtl Catenary
f 210/311/147 214/312/147 213/313/147
f 217/314/148 210/315/148 213/316/148
f 212/317/149 218/318/149 215/319/149
f 220/320/148 213/321/148 209/322/148
f 213/313/150 211/323/150 209/324/150
f 215/325/151 217/326/151 216/327/151
f 219/323/152 209/324/152 211/323/152
f 214/328/153 219/329/153 211/330/153
f 212/331/153 216/332/153 214/333/153
f 217/334/148 218/335/148 210/315/148
f 212/331/153 215/336/153 216/332/153
f 220/320/148 217/337/148 213/321/148
f 220/320/154 216/338/154 217/337/154
f 210/311/147 212/325/147 214/312/147
f 212/317/149 210/339/149 218/318/149
f 213/313/150 214/312/150 211/323/150
f 215/325/151 218/311/151 217/326/151
f 219/323/152 220/324/152 209/324/152
f 214/328/153 216/338/153 219/329/153
f 220/320/154 219/323/154 216/338/154
