# Blender 5.1.2
# www.blender.org
mtllib double_arch.mtl
o DoubleArch
g double_arch
v -0.906572 7.261916 0.039922
v -0.906571 7.334776 0.039922
v -0.906572 7.261916 0.020150
v -0.906571 7.334776 0.020150
v 0.906570 7.261916 0.038950
v 0.906571 7.334780 0.038950
v 0.906570 7.261916 0.020177
v 0.906571 7.334780 0.020177
v -0.906571 7.261916 -0.019427
v -0.906570 7.334776 -0.019427
v -0.906571 7.261916 -0.039200
v -0.906570 7.334776 -0.039200
v 0.906571 7.261916 -0.020400
v 0.906572 7.334780 -0.020400
v 0.906571 7.261916 -0.040172
v 0.906572 7.334780 -0.040172
vn -1.0000 -0.0000 -0.0000
vn -0.0000 -0.0000 -1.0000
vn 1.0000 -0.0000 -0.0000
vn 0.0005 -0.0000 1.0000
vn -0.0000 -1.0000 -0.0000
vn -0.0000 1.0000 -0.0000
vn -0.0005 -0.0000 -1.0000
vt 0.513508 0.549339
vt 0.521867 0.557698
vt 0.513508 0.557698
vt 0.531188 0.513198
vt 0.511658 0.532727
vt 0.511658 0.513198
vt 0.523922 0.472988
vt 0.517869 0.479041
vt 0.517869 0.472988
vt 0.534177 0.999999
vt 0.500001 0.000002
vt 0.534177 0.000002
vt 0.511817 0.472988
vt 0.511817 0.479041
vt 0.531698 0.134441
vt 0.509715 0.156423
vt 0.509715 0.134441
vt 0.523922 0.460883
vt 0.517869 0.466936
vt 0.517869 0.460883
vt 0.500001 0.999997
vt 0.534179 0.000002
vt 0.534179 0.999997
vt 0.511506 0.513343
vt 0.531036 0.532873
vt 0.511506 0.532873
vt 0.521867 0.549339
vt 0.531188 0.532727
vt 0.523922 0.479041
vt 0.500001 0.999999
vt 0.531698 0.156423
vt 0.523922 0.466936
vt 0.500001 0.000002
vt 0.531036 0.513343
s 0
usemtl Catenary
f 1/1/1 4/2/1 3/3/1
f 4/4/2 7/5/2 3/6/2
f 8/7/3 5/8/3 7/9/3
f 5/10/4 2/11/4 1/12/4
f 3/13/5 5/8/5 1/14/5
f 4/15/6 6/16/6 8/17/6
f 10/18/1 11/19/1 9/20/1
f 12/21/7 15/22/7 11/23/7
f 16/7/3 13/8/3 15/9/3
f 13/24/4 10/25/4 9/26/4
f 11/13/5 13/8/5 9/14/5
f 12/15/6 14/16/6 16/17/6
f 1/1/1 2/27/1 4/2/1
f 4/4/2 8/28/2 7/5/2
f 8/7/3 6/29/3 5/8/3
f 5/10/4 6/30/4 2/11/4
f 3/13/5 7/9/5 5/8/5
f 4/15/6 2/31/6 6/16/6
f 10/18/1 12/32/1 11/19/1
f 12/21/7 16/33/7 15/22/7
f 16/7/3 14/29/3 13/8/3
f 13/24/4 14/34/4 10/25/4
f 11/13/5 15/9/5 13/8/5
f 12/15/6 10/31/6 14/16/6
o ArchAngled.002
v 2.649727 6.952834 -0.026385
v 2.662378 7.024588 -0.026385
v 2.649727 6.952835 -0.009572
v 2.662378 7.024588 -0.009572
v 0.864131 7.267684 -0.025413
v 0.876783 7.339441 -0.025413
v 0.864131 7.267684 -0.009615
v 0.876782 7.339441 -0.009615
v 2.649726 6.952835 0.006161
v 2.662377 7.024588 0.006161
v 2.649726 6.952835 0.023239
v 2.662377 7.024588 0.023239
v 0.864130 7.267684 0.007679
v 0.876782 7.339441 0.007679
v 0.864130 7.267684 0.024211
v 0.876782 7.339441 0.024211
vn 0.9848 -0.1736 -0.0000
vn -0.0000 -0.0000 1.0000
vn -0.9848 0.1736 -0.0000
vn -0.0005 0.0001 -1.0000
vn -0.1736 -0.9848 -0.0000
vn 0.1737 0.9848 -0.0000
vn 0.0005 -0.0001 1.0000
vn -0.0008 0.0001 -1.0000
vt 0.513508 0.549339
vt 0.521867 0.557698
vt 0.513508 0.557698
vt 0.531188 0.513198
vt 0.511658 0.532727
vt 0.511658 0.513198
vt 0.523922 0.472988
vt 0.517869 0.479041
vt 0.517869 0.472988
vt 0.534177 0.999999
vt 0.500001 0.000002
vt 0.534177 0.000002
vt 0.511817 0.472988
vt 0.511817 0.479041
vt 0.531698 0.134441
vt 0.509715 0.156423
vt 0.509715 0.134441
vt 0.517869 0.460883
vt 0.523922 0.466936
vt 0.517869 0.466936
vt 0.500001 0.999997
vt 0.534179 0.000002
vt 0.534179 0.999997
vt 0.523922 0.479041
vt 0.511506 0.513343
vt 0.531036 0.532873
vt 0.511506 0.532873
vt 0.521867 0.549339
vt 0.531188 0.532727
vt 0.500001 0.999999
vt 0.531698 0.156423
vt 0.523922 0.460883
vt 0.500001 0.000002
vt 0.531036 0.513343
s 0
usemtl Catenary
f 17/35/8 20/36/8 19/37/8
f 20/38/9 23/39/9 19/40/9
f 24/41/10 21/42/10 23/43/10
f 21/44/11 18/45/11 17/46/11
f 19/47/12 21/42/12 17/48/12
f 20/49/13 22/50/13 24/51/13
f 25/52/8 28/53/8 27/54/8
f 28/55/14 31/56/14 27/57/14
f 31/43/10 30/58/10 29/42/10
f 29/59/15 26/60/15 25/61/15
f 27/47/12 29/42/12 25/48/12
f 28/49/13 30/50/13 32/51/13
f 17/35/8 18/62/8 20/36/8
f 20/38/9 24/63/9 23/39/9
f 24/41/10 22/58/10 21/42/10
f 21/44/11 22/64/11 18/45/11
f 19/47/12 23/43/12 21/42/12
f 20/49/13 18/65/13 22/50/13
f 25/52/8 26/66/8 28/53/8
f 28/55/14 32/67/14 31/56/14
f 31/43/10 32/41/10 30/58/10
f 29/59/15 30/68/15 26/60/15
f 27/47/12 31/43/12 29/42/12
f 28/49/13 26/65/13 30/50/13
o ArchSupport.004
v 2.553698 7.007721 -0.010824
v 2.611529 6.963402 -0.010824
v 2.553698 7.007721 0.008949
v 2.611529 6.963403 0.008949
v 2.886014 7.441348 -0.010823
v 2.943848 7.397027 -0.010823
v 2.886014 7.441348 0.008949
v 2.943848 7.397027 0.008949
vn -0.6083 -0.7937 -0.0000
vn -0.0000 -0.0000 1.0000
vn 0.6083 0.7937 -0.0000
vn -0.0000 -0.0000 -1.0000
vn -0.7937 0.6083 -0.0000
vn 0.7937 -0.6083 -0.0000
vt 0.521748 0.499718
vt 0.514923 0.506544
vt 0.514923 0.499718
vt 0.521748 0.506544
vt 0.514923 0.513369
vt 0.521748 0.513369
vt 0.518431 0.806383
vt 0.527631 0.846481
vt 0.506738 0.846481
vt 0.508098 0.513369
vt 0.508098 0.520194
vt 0.528573 0.513369
vt 0.519002 0.806383
vt 0.528573 0.520194
s 0
usemtl Catenary
f 34/69/16 35/70/16 33/71/16
f 36/72/17 39/73/17 35/70/17
f 40/74/18 37/75/18 39/73/18
f 37/75/19 34/76/19 33/77/19
f 35/78/20 37/75/20 33/79/20
f 36/80/21 38/81/21 40/74/21
f 34/69/16 36/72/16 35/70/16
f 36/72/17 40/74/17 39/73/17
f 40/74/18 38/81/18 37/75/18
f 37/75/19 38/81/19 34/76/19
f 35/78/20 39/73/20 37/75/20
f 36/80/21 34/82/21 38/81/21
o ArchSupport.005
v 1.457817 7.197823 -0.010824
v 1.515648 7.153504 -0.010824
v 1.457817 7.197823 0.008949
v 1.515648 7.153504 0.008949
v 1.790133 7.631449 -0.010824
v 1.847968 7.587128 -0.010824
v 1.790133 7.631449 0.008949
v 1.847968 7.587128 0.008949
vn -0.6083 -0.7937 -0.0000
vn -0.0000 -0.0000 1.0000
vn 0.6083 0.7937 -0.0000
vn -0.0000 -0.0000 -1.0000
vn -0.7937 0.6083 -0.0000
vn 0.7937 -0.6083 -0.0000
vt 0.521748 0.499718
vt 0.514923 0.506544
vt 0.514923 0.499718
vt 0.521748 0.506544
vt 0.514923 0.513369
vt 0.521748 0.513369
vt 0.518431 0.806383
vt 0.527631 0.846481
vt 0.506738 0.846481
vt 0.508098 0.513369
vt 0.508098 0.520194
vt 0.528573 0.513369
vt 0.519002 0.806383
vt 0.528573 0.520194
s 0
usemtl Catenary
f 42/83/22 43/84/22 41/85/22
f 44/86/23 47/87/23 43/84/23
f 48/88/24 45/89/24 47/87/24
f 45/89/25 42/90/25 41/91/25
f 43/92/26 45/89/26 41/93/26
f 44/94/27 46/95/27 48/88/27
f 42/83/22 44/86/22 43/84/22
f 44/86/23 48/88/23 47/87/23
f 48/88/24 46/95/24 45/89/24
f 45/89/25 46/95/25 42/90/25
f 43/92/26 47/87/26 45/89/26
f 44/94/27 42/96/27 46/95/27
o PlatformBracket.002
v -1.028788 6.253494 -0.020175
v -0.745406 7.334775 -0.020175
v -1.028788 6.253494 0.020176
v -0.745406 7.334775 0.020176
v -1.028788 6.500960 -0.020175
v -1.028788 6.500960 0.020176
v -0.869625 7.334775 0.020176
v -1.125434 6.596335 0.020176
v -1.125434 6.596335 -0.020175
v -0.869625 7.334775 -0.020175
v -1.125434 6.253494 0.020176
v -1.125434 6.253494 -0.020175
vn 0.9468 -0.3218 -0.0000
vn -0.0000 -0.0000 -1.0000
vn -0.0000 1.0000 -0.0000
vn 1.0000 -0.0000 -0.0000
vn -0.9449 0.3273 -0.0000
vn -0.0000 -1.0000 -0.0000
vn -0.0000 -0.0000 1.0000
vn -1.0000 -0.0000 -0.0000
vt 0.512690 0.625508
vt 0.529781 0.272340
vt 0.512690 0.268465
vt 0.602537 0.000000
vt 0.568363 0.237868
vt 0.568362 -0.016280
vt 0.532019 0.414207
vt 0.513409 0.488646
vt 0.513409 0.414207
vt 0.602539 0.000001
vt 0.568362 0.080068
vt 0.568362 0.000001
vt 0.529781 0.167525
vt 0.512690 0.167525
vt 0.529781 0.625508
vt 0.512690 0.312737
vt 0.529781 0.312737
vt 0.568358 0.079930
vt 0.534182 0.000000
vt 0.568358 0.000000
vt 0.568360 0.237815
vt 0.534186 0.000000
vt 0.568358 -0.016280
vt 0.602537 0.000001
vt 0.602533 0.237709
vt 0.534184 0.237815
vt 0.602539 0.112020
vt 0.534182 0.108738
vt 0.532019 0.488646
s 0
usemtl Catenary
f 50/97/28 54/98/28 53/99/28
f 57/100/29 50/101/29 53/102/29
f 52/103/30 58/104/30 55/105/30
f 60/106/29 53/107/29 49/108/29
f 53/99/31 51/109/31 49/110/31
f 55/111/32 57/112/32 56/113/32
f 59/109/33 49/110/33 51/109/33
f 54/114/34 59/115/34 51/116/34
f 52/117/34 56/118/34 54/119/34
f 57/120/29 58/121/29 50/101/29
f 52/117/34 55/122/34 56/118/34
f 60/106/29 57/123/29 53/107/29
f 60/106/35 56/124/35 57/123/35
f 50/97/28 52/111/28 54/98/28
f 52/103/30 50/125/30 58/104/30
f 53/99/31 54/98/31 51/109/31
f 55/111/32 58/97/32 57/112/32
f 59/109/33 60/110/33 49/110/33
f 54/114/34 56/124/34 59/115/34
f 60/106/35 59/109/35 56/124/35
o TunnelArmMiddleSingle.003
v -0.008566 6.000000 0.006696
v -0.706468 6.301972 0.006697
v -0.349567 6.200000 0.006697
v 0.009436 6.019967 0.006696
v -0.699567 6.329857 0.006697
v -0.333917 6.223782 0.006696
v 0.009436 6.000000 0.006696
v -0.349567 6.200000 0.002697
v -0.706468 6.301972 0.002697
v -0.008566 6.000000 0.002696
v -0.333917 6.223782 0.002696
v -0.699567 6.329857 0.002697
v 0.009436 6.019967 0.002696
v 0.009436 6.000000 0.002696
vn -0.0000 -0.0000 1.0000
vn -0.0000 -0.0000 -1.0000
vn 0.5104 0.8599 -0.0000
vn -0.5059 -0.8626 -0.0000
vn -0.9707 0.2402 -0.0000
vn 0.2786 0.9604 -0.0000
vn -0.2747 -0.9615 -0.0000
vn 1.0000 -0.0000 -0.0000
vt 0.977026 0.007582
vt 0.969833 0.009091
vt 0.976724 0.007123
vt 0.969967 0.009630
vt 0.983656 0.003647
vt 0.983308 0.003261
vt 0.983656 0.003261
s 1
usemtl Catenary
f 66/126/36 62/127/36 63/128/36
f 68/128/37 72/129/37 71/126/37
f 73/130/38 66/126/38 64/130/38
f 68/128/39 61/131/39 63/128/39
f 72/129/40 62/127/40 65/129/40
f 71/126/41 65/129/41 66/126/41
f 69/127/42 63/128/42 62/127/42
f 74/132/43 64/130/43 67/132/43
f 63/128/36 61/131/36 67/132/36
f 67/132/36 64/130/36 66/126/36
f 66/126/36 65/129/36 62/127/36
f 63/128/36 67/132/36 66/126/36
f 71/126/37 73/130/37 74/132/37
f 74/132/37 70/131/37 68/128/37
f 68/128/37 69/127/37 72/129/37
f 71/126/37 74/132/37 68/128/37
f 73/130/38 71/126/38 66/126/38
f 68/128/39 70/131/39 61/131/39
f 72/129/40 69/127/40 62/127/40
f 71/126/41 72/129/41 65/129/41
f 69/127/42 68/128/42 63/128/42
f 74/132/43 73/130/43 64/130/43
o ArchVerticalInsulator.002
v -0.000132 7.039817 0.008762
v -0.000132 7.054616 0.102362
v -0.000132 7.130641 0.022523
v -0.000132 7.140331 0.102362
v -0.000132 7.216355 0.038935
v -0.027842 7.216355 0.027458
v -0.070843 7.140331 0.073073
v -0.014976 7.130641 0.016375
v -0.070843 7.054616 0.073073
v -0.006506 7.039817 0.006122
v -0.039319 7.216355 -0.000252
v -0.100132 7.140331 0.002362
v -0.021124 7.130641 0.001532
v -0.100132 7.054616 0.002362
v -0.009146 7.039817 -0.000252
v -0.027842 7.216355 -0.027961
v -0.070843 7.140331 -0.068349
v -0.014173 7.130641 -0.014596
v -0.070843 7.054616 -0.068349
v -0.006506 7.039817 -0.006626
v -0.000132 7.216355 -0.039439
v -0.000133 7.140331 -0.097638
v -0.000132 7.130641 -0.020487
v -0.000133 7.054616 -0.097638
v -0.000132 7.039817 -0.009266
v 0.027577 7.216355 -0.027961
v 0.070578 7.140331 -0.068349
v 0.013908 7.130641 -0.014596
v 0.070578 7.054616 -0.068349
v 0.006241 7.039817 -0.006626
v 0.039054 7.216355 -0.000252
v 0.099868 7.140331 0.002362
v 0.020859 7.130641 0.001532
v 0.099868 7.054616 0.002362
v 0.008882 7.039817 -0.000252
v 0.027577 7.216355 0.027457
v 0.070578 7.140331 0.073072
v 0.014711 7.130641 0.016375
v 0.070578 7.054616 0.073072
v 0.006241 7.039817 0.006122
v -0.000132 7.216355 0.018017
v -0.013051 7.216355 0.012666
v -0.018401 7.216355 -0.000252
v -0.013051 7.216355 -0.013170
v -0.000132 7.216355 -0.018521
v 0.012786 7.216355 -0.013170
v 0.018137 7.216355 -0.000252
v 0.012786 7.216355 0.012666
v -0.000132 7.334884 0.018017
v -0.013051 7.334884 0.012666
v -0.018401 7.334884 -0.000252
v -0.013051 7.334884 -0.013170
v -0.000132 7.334884 -0.018521
v 0.012786 7.334884 -0.013170
v 0.018137 7.334884 -0.000252
v 0.012786 7.334884 0.012666
v -0.000132 7.350073 -0.000252
v -0.018401 7.350073 -0.000252
v 0.018137 7.350073 -0.000252
v 0.012786 7.334884 -0.034276
v 0.018137 7.334884 -0.021358
v -0.000132 7.334884 -0.039627
v -0.013051 7.334884 -0.034276
v -0.018402 7.334884 -0.021358
v 0.012786 7.350073 -0.034276
v 0.018137 7.350073 -0.021358
v -0.000132 7.350073 -0.039627
v -0.013051 7.350073 -0.034276
v -0.018402 7.350073 -0.021358
v 0.012786 7.334884 0.034282
v -0.000132 7.334884 0.039633
v 0.018137 7.334884 0.021364
v -0.013051 7.334884 0.034282
v -0.018401 7.334884 0.021364
v 0.012786 7.350073 0.034282
v -0.000132 7.350073 0.039633
v 0.018137 7.350073 0.021364
v -0.013051 7.350073 0.034282
v -0.018401 7.350073 0.021364
v -0.000132 6.986049 0.008762
v -0.006506 6.986049 0.006122
v -0.009146 6.986049 -0.000252
v -0.006506 6.986049 -0.006626
v -0.000132 6.986049 -0.009266
v 0.006241 6.986049 -0.006626
v 0.008882 6.986049 -0.000252
v 0.006241 6.986049 0.006122
v -0.761674 6.334139 0.008735
v -0.767783 6.335958 0.006095
v -0.770313 6.336710 -0.000278
v -0.767783 6.335958 -0.006652
v -0.761674 6.334139 -0.009292
v -0.755565 6.332321 -0.006652
v -0.753034 6.331568 -0.000279
v -0.755565 6.332321 0.006095
vn 0.1109 -0.9875 0.1117
vn -0.0000 -0.9877 0.1562
vn 0.1122 -0.9875 0.1105
vn 0.4879 0.7231 0.4889
vn -0.0000 0.7242 0.6896
vn 0.0853 -0.9927 0.0856
vn -0.0000 -0.9927 0.1205
vn 0.0857 -0.9927 0.0852
vn 0.5436 0.6361 0.5477
vn -0.0000 0.6406 0.7679
vn 0.1605 -0.9870 0.0008
vn 0.1606 -0.9870 -0.0017
vn 0.6934 0.7206 0.0010
vn 0.4893 0.7231 0.4875
vn 0.1217 -0.9926 0.0002
vn 0.1213 -0.9926 -0.0010
vn 0.7808 0.6247 0.0042
vn 0.5489 0.6360 0.5424
vn 0.1162 -0.9865 -0.1154
vn 0.1149 -0.9865 -0.1167
vn 0.4952 0.7160 -0.4921
vn 0.6917 0.7222 -0.0052
vn 0.0876 -0.9924 -0.0869
vn 0.0857 -0.9924 -0.0888
vn 0.5609 0.6129 -0.5566
vn 0.7810 0.6245 -0.0066
vn -0.0000 -0.9863 -0.1652
vn -0.0000 0.7126 -0.7016
vn 0.4872 0.7158 -0.5003
vn -0.0000 -0.9922 -0.1245
vn -0.0000 -0.9922 -0.1246
vn -0.0000 0.6079 -0.7940
vn 0.5554 0.6128 -0.5621
vn -0.1149 -0.9865 -0.1167
vn -0.4872 0.7158 -0.5003
vn -0.4952 0.7160 -0.4921
vn -0.0857 -0.9924 -0.0888
vn -0.5554 0.6128 -0.5621
vn -0.5609 0.6129 -0.5566
vn -0.1606 -0.9870 -0.0017
vn -0.1162 -0.9865 -0.1154
vn -0.6917 0.7222 -0.0052
vn -0.6934 0.7206 0.0010
vn -0.1213 -0.9926 -0.0010
vn -0.0876 -0.9924 -0.0869
vn -0.7810 0.6245 -0.0066
vn -0.7808 0.6247 0.0042
vn -0.1122 -0.9875 0.1105
vn -0.1605 -0.9870 0.0008
vn -0.4893 0.7231 0.4875
vn -0.4879 0.7231 0.4889
vn -0.0857 -0.9927 0.0852
vn -0.1217 -0.9926 0.0002
vn -0.5489 0.6360 0.5424
vn -0.5436 0.6361 0.5477
vn -0.1109 -0.9875 0.1117
vn -0.0853 -0.9927 0.0856
vn -0.0000 0.7123 -0.7019
vn -0.0000 1.0000 -0.0000
vn -0.7071 -0.0000 -0.7071
vn -0.0000 -0.0000 -1.0000
vn 0.7071 -0.0000 -0.7071
vn 1.0000 -0.0000 -0.0000
vn 0.7071 -0.0000 0.7071
vn -0.0000 -0.0000 1.0000
vn -0.7071 -0.0000 0.7071
vn -1.0000 -0.0000 -0.0000
vn -0.9701 -0.2425 -0.0000
vn -0.9808 -0.0000 0.1951
vn -0.0000 -1.0000 -0.0000
vn -0.7319 -0.6657 -0.1456
vn 0.9808 -0.0000 -0.1951
vn 0.7319 -0.6657 -0.1456
vn 0.9701 -0.2425 -0.0000
vn -0.7319 -0.6657 0.1456
vn 0.7319 -0.6657 0.1456
vn -0.6494 0.7605 -0.0000
vn -0.5295 0.6205 0.5785
vn -0.4764 0.5572 0.6802
vn -0.4764 0.5572 -0.6801
vn -0.1057 0.1241 -0.9866
vn -0.5294 0.6205 -0.5785
vn 0.5782 -0.6733 -0.4609
vn 0.6512 -0.7589 -0.0000
vn 0.4486 -0.5233 -0.7245
vn 0.1956 -0.2277 0.9539
vn 0.4486 -0.5233 0.7245
vn 0.5782 -0.6733 0.4608
vn -0.1057 0.1241 0.9866
vn -0.6490 0.7608 -0.0000
vn 0.1956 -0.2276 -0.9539
vn 0.6516 -0.7586 -0.0000
vn -0.9808 -0.0000 -0.1951
vn 0.9808 -0.0000 0.1951
vt 0.959703 0.009387
vt 0.960882 0.008099
vt 0.960684 0.009187
vt 0.957954 0.007566
vt 0.960035 0.007566
vt 0.962915 0.005744
vt 0.961736 0.007033
vt 0.961934 0.005945
vt 0.964664 0.007566
vt 0.962584 0.007566
vt 0.958751 0.010974
vt 0.960309 0.010184
vt 0.959740 0.011133
vt 0.957756 0.008654
vt 0.963867 0.004157
vt 0.962309 0.004947
vt 0.962878 0.003998
vt 0.964862 0.006477
vt 0.957301 0.012125
vt 0.959037 0.011934
vt 0.958171 0.012621
vt 0.957187 0.009603
vt 0.965317 0.003006
vt 0.963581 0.003197
vt 0.964447 0.002510
vt 0.965431 0.005529
vt 0.955539 0.012691
vt 0.957231 0.013124
vt 0.956177 0.013462
vt 0.956321 0.010290
vt 0.967079 0.002440
vt 0.965388 0.002008
vt 0.966441 0.001669
vt 0.966297 0.004841
vt 0.957231 0.002008
vt 0.955539 0.002440
vt 0.956177 0.001669
vt 0.956321 0.004841
vt 0.957301 0.003006
vt 0.965388 0.013124
vt 0.967079 0.012691
vt 0.966441 0.013462
vt 0.966297 0.010290
vt 0.965317 0.012125
vt 0.959037 0.003197
vt 0.958171 0.002510
vt 0.957187 0.005529
vt 0.958751 0.004157
vt 0.963581 0.011934
vt 0.964447 0.012621
vt 0.965431 0.009603
vt 0.963867 0.010974
vt 0.960309 0.004947
vt 0.959740 0.003998
vt 0.957756 0.006477
vt 0.959703 0.005744
vt 0.962309 0.010184
vt 0.962878 0.011133
vt 0.964862 0.008654
vt 0.962915 0.009387
vt 0.960882 0.007033
vt 0.960684 0.005945
vt 0.961736 0.008099
vt 0.961934 0.009187
vt 0.955268 0.010628
vt 0.967350 0.004503
vt 0.955268 0.004503
vt 0.967350 0.010628
vt 0.981114 0.009656
vt 0.982013 0.009945
vt 0.981114 0.005003
vt 0.980374 0.005590
vt 0.979888 0.006400
vt 0.979719 0.007329
vt 0.979888 0.008259
vt 0.980374 0.009069
vt 0.982013 0.004714
vt 0.924092 -0.341471
vt 0.974914 0.011060
vt 0.974174 0.011647
vt 0.975514 0.004283
vt 0.976000 0.005093
vt 0.973371 0.012076
vt 0.972472 0.012365
vt 0.976321 0.005945
vt 0.976490 0.006874
vt 0.976490 0.007784
vt 0.976321 0.008714
vt 0.972472 0.002294
vt 0.973371 0.002583
vt 0.976000 0.009566
vt 0.975514 0.010376
vt 0.974174 0.003012
vt 0.974914 0.003599
s 1
usemtl Catenary
f 113/133/44 75/134/45 114/135/46
f 113/133/47 77/136/48 76/137/48
f 111/138/49 77/139/50 112/140/51
f 111/138/52 79/141/53 78/142/53
f 108/143/54 114/144/46 109/145/55
f 108/143/56 112/146/57 113/133/47
f 106/147/58 112/148/51 107/149/59
f 106/147/60 110/150/61 111/138/52
f 103/151/62 109/152/55 104/153/63
f 103/151/64 107/154/65 108/143/56
f 101/155/66 107/156/59 102/157/67
f 101/155/68 105/158/69 106/147/60
f 98/159/70 104/160/63 99/161/70
f 98/159/71 102/162/72 103/151/64
f 96/163/73 102/164/67 97/165/74
f 96/163/75 100/166/76 101/155/68
f 94/167/77 98/168/70 99/169/70
f 92/170/78 98/168/71 93/171/79
f 92/172/80 96/173/73 97/174/74
f 90/175/81 96/173/75 91/176/82
f 89/177/83 93/171/84 94/178/77
f 87/179/85 93/171/79 88/180/86
f 87/181/87 91/176/88 92/182/80
f 85/183/89 91/176/82 86/184/90
f 84/185/91 88/180/92 89/186/83
f 82/187/93 88/180/86 83/188/94
f 82/189/95 86/184/96 87/190/87
f 80/191/97 86/184/90 81/192/98
f 75/193/45 83/188/99 84/194/91
f 77/136/48 83/188/94 76/137/48
f 77/195/50 81/192/100 82/196/95
f 79/141/53 81/192/98 78/142/53
f 113/133/44 76/137/45 75/134/45
f 113/133/47 112/146/57 77/136/48
f 111/138/49 78/142/50 77/139/50
f 111/138/52 110/150/61 79/141/53
f 108/143/54 113/133/44 114/144/46
f 108/143/56 107/154/65 112/146/57
f 106/147/58 111/138/49 112/148/51
f 106/147/60 105/158/69 110/150/61
f 103/151/62 108/143/54 109/152/55
f 103/151/64 102/162/72 107/154/65
f 101/155/66 106/147/58 107/156/59
f 101/155/68 100/166/76 105/158/69
f 98/159/70 103/151/62 104/160/63
f 98/159/71 97/197/101 102/162/72
f 96/163/73 101/155/66 102/164/67
f 96/163/75 95/198/75 100/166/76
f 94/167/77 93/171/84 98/168/70
f 92/170/78 97/199/101 98/168/71
f 92/172/80 91/176/88 96/173/73
f 90/175/81 95/200/75 96/173/75
f 89/177/83 88/180/92 93/171/84
f 87/179/85 92/170/78 93/171/79
f 87/181/87 86/184/96 91/176/88
f 85/183/89 90/175/81 91/176/82
f 84/185/91 83/188/99 88/180/92
f 82/187/93 87/179/85 88/180/86
f 82/189/95 81/192/100 86/184/96
f 80/191/97 85/183/89 86/184/90
f 75/193/45 76/137/45 83/188/99
f 77/136/48 82/187/93 83/188/94
f 77/195/50 78/142/50 81/192/100
f 79/141/53 80/191/97 81/192/98
f 105/158/102 122/150/102 110/150/102
f 85/183/102 118/175/102 90/175/102
f 100/166/102 121/158/102 105/158/102
f 80/191/102 117/183/102 85/183/102
f 95/198/102 120/166/102 100/166/102
f 80/191/102 115/141/102 116/191/102
f 110/150/102 115/141/102 79/141/102
f 90/175/102 119/200/102 95/200/102
f 118/201/103 127/202/104 119/202/104
f 120/203/105 129/204/106 121/204/106
f 122/205/107 123/206/108 115/206/108
f 115/206/108 124/207/109 116/207/109
f 117/208/110 126/201/103 118/201/103
f 119/209/104 128/203/105 120/203/105
f 121/204/106 130/205/107 122/205/107
f 116/207/109 125/208/110 117/208/110
f 125/208/111 153/208/112 132/208/110
f 127/202/113 137/201/113 136/202/113
f 132/208/110 138/208/114 125/208/111
f 123/206/113 147/207/113 124/207/113
s 0
f 131/210/102 151/210/102 133/210/102
f 131/210/102 141/210/102 142/210/102
s 1
f 127/209/113 134/203/113 128/203/113
f 123/206/113 144/205/113 145/206/113
f 137/201/103 141/202/104 136/202/104
f 134/203/105 140/204/115 135/204/116
f 138/208/114 142/201/103 137/201/103
f 136/209/104 139/203/105 134/203/105
s 0
f 131/210/102 143/210/102 132/210/102
s 1
f 129/204/117 140/204/115 133/204/106
s 0
f 131/210/102 140/210/102 139/210/102
s 1
f 126/201/113 138/208/114 137/201/113
f 128/203/113 135/204/116 129/204/117
s 0
f 131/210/102 139/210/102 141/210/102
s 1
f 147/207/109 153/208/112 148/208/118
f 144/205/107 150/206/108 145/206/108
f 145/206/108 152/207/109 147/207/109
f 146/204/119 149/205/107 144/205/107
f 133/204/106 146/204/119 129/204/117
f 130/205/113 146/204/119 144/205/113
s 0
f 131/210/102 153/210/102 152/210/102
f 131/210/102 150/210/102 149/210/102
f 131/210/102 152/210/102 150/210/102
s 1
f 124/207/113 148/208/118 125/208/111
f 109/211/106 159/212/105 104/212/105
f 89/213/110 155/214/109 84/214/109
f 104/215/105 158/216/104 99/216/104
f 84/217/109 154/218/108 75/218/108
f 75/219/108 161/220/107 114/220/107
f 99/221/104 157/222/103 94/222/103
f 114/223/107 160/224/106 109/224/106
f 94/225/103 156/226/110 89/226/110
f 156/213/120 163/214/121 155/214/122
f 157/222/123 166/221/124 165/222/125
f 159/212/126 168/211/127 167/212/128
f 154/219/129 169/220/130 161/220/131
f 155/217/122 162/218/132 154/218/129
f 156/226/120 165/225/125 164/226/133
f 158/216/134 167/215/128 166/216/124
f 161/223/131 168/224/127 160/224/135
f 105/158/102 121/158/102 122/150/102
f 85/183/102 117/183/102 118/175/102
f 100/166/102 120/166/102 121/158/102
f 80/191/102 116/191/102 117/183/102
f 95/198/102 119/198/102 120/166/102
f 80/191/102 79/141/102 115/141/102
f 110/150/102 122/150/102 115/141/102
f 90/175/102 118/175/102 119/200/102
f 118/201/103 126/201/103 127/202/104
f 120/203/105 128/203/105 129/204/106
f 122/205/107 130/205/107 123/206/108
f 115/206/108 123/206/108 124/207/109
f 117/208/110 125/208/110 126/201/103
f 119/209/104 127/209/104 128/203/105
f 121/204/106 129/204/106 130/205/107
f 116/207/109 124/207/109 125/208/110
f 125/208/111 148/208/118 153/208/112
f 127/202/113 126/201/113 137/201/113
f 132/208/110 143/208/136 138/208/114
f 123/206/113 145/206/113 147/207/113
s 0
f 131/210/102 149/210/102 151/210/102
s 1
f 127/209/113 136/209/113 134/203/113
f 123/206/113 130/205/113 144/205/113
f 137/201/103 142/201/103 141/202/104
f 134/203/105 139/203/105 140/204/115
f 138/208/114 143/208/136 142/201/103
f 136/209/104 141/209/104 139/203/105
s 0
f 131/210/102 142/210/102 143/210/102
s 1
f 129/204/117 135/204/116 140/204/115
s 0
f 131/210/102 133/210/102 140/210/102
s 1
f 126/201/113 125/208/111 138/208/114
f 128/203/113 134/203/113 135/204/116
f 147/207/109 152/207/109 153/208/112
f 144/205/107 149/205/107 150/206/108
f 145/206/108 150/206/108 152/207/109
f 146/204/119 151/204/137 149/205/107
f 133/204/106 151/204/137 146/204/119
f 130/205/113 129/204/117 146/204/119
s 0
f 131/210/102 132/210/102 153/210/102
s 1
f 124/207/113 147/207/113 148/208/118
f 109/211/106 160/211/106 159/212/105
f 89/213/110 156/213/110 155/214/109
f 104/215/105 159/215/105 158/216/104
f 84/217/109 155/217/109 154/218/108
f 75/219/108 154/219/108 161/220/107
f 99/221/104 158/221/104 157/222/103
f 114/223/107 161/223/107 160/224/106
f 94/225/103 157/225/103 156/226/110
f 156/213/120 164/213/133 163/214/121
f 157/222/123 158/221/134 166/221/124
f 159/212/126 160/211/135 168/211/127
f 154/219/129 162/219/132 169/220/130
f 155/217/122 163/217/121 162/218/132
f 156/226/120 157/225/123 165/225/125
f 158/216/134 159/215/126 167/215/128
f 161/223/131 169/223/130 168/224/127
o ArchAngledInsulator.002
v -0.790182 6.337460 0.008746
v -0.804636 6.340643 0.102362
v -0.878953 6.356662 0.022524
v -0.888426 6.358705 0.102362
v -0.962743 6.374724 0.038935
v -0.968581 6.347637 0.027458
v -0.903325 6.289581 0.073073
v -0.882081 6.342153 0.016375
v -0.819536 6.271520 0.073073
v -0.791523 6.331240 0.006111
v -0.971000 6.336417 -0.000251
v -0.909497 6.260950 0.002362
v -0.883376 6.336142 0.001532
v -0.825707 6.242888 0.002362
v -0.792078 6.328664 -0.000252
v -0.968581 6.347637 -0.027961
v -0.903325 6.289581 -0.068349
v -0.881912 6.342937 -0.014595
v -0.819536 6.271520 -0.068349
v -0.791523 6.331240 -0.006614
v -0.962743 6.374724 -0.039438
v -0.888426 6.358704 -0.097638
v -0.878953 6.356662 -0.020487
v -0.804636 6.340643 -0.097638
v -0.790182 6.337460 -0.009249
v -0.956904 6.401811 -0.027961
v -0.873526 6.427827 -0.068349
v -0.875995 6.370388 -0.014595
v -0.789736 6.409766 -0.068349
v -0.788842 6.343679 -0.006614
v -0.954485 6.413031 -0.000251
v -0.867354 6.456459 0.002362
v -0.874530 6.377183 0.001532
v -0.783564 6.438398 0.002362
v -0.788286 6.346255 -0.000252
v -0.956904 6.401811 0.027458
v -0.873526 6.427827 0.073073
v -0.875825 6.371172 0.016375
v -0.789736 6.409766 0.073073
v -0.788842 6.343679 0.006111
v -0.962721 6.374825 0.011721
v -0.964505 6.366550 0.008214
v -0.965244 6.363122 -0.000251
v -0.964505 6.366550 -0.008717
v -0.962721 6.374825 -0.012224
v -0.960937 6.383101 -0.008717
v -0.960198 6.386529 -0.000251
v -0.960937 6.383101 0.008214
v -0.648488 6.301192 0.003615
v -0.650316 6.294751 0.002482
v -0.650316 6.294751 -0.002985
v -0.648488 6.301192 -0.004118
v -0.646659 6.307634 -0.002985
v -0.646659 6.307634 0.002482
v -1.031179 6.389383 0.011721
v -1.031304 6.380918 0.008214
v -1.031356 6.377412 -0.000251
v -1.031304 6.380918 -0.008717
v -1.031179 6.389383 -0.012224
v -1.031054 6.397848 -0.008717
v -1.031002 6.401354 -0.000251
v -1.031054 6.397848 0.008214
v -0.727022 6.330034 -0.006614
v -0.726302 6.332569 -0.000252
v -0.730497 6.317792 0.006111
v -0.731217 6.315258 -0.000252
v -0.728760 6.323913 -0.009249
v -0.728760 6.323913 0.008746
v -0.727022 6.330034 0.006111
v -0.730497 6.317792 -0.006614
v -0.725258 6.329949 -0.000252
v -0.728916 6.317065 -0.000252
v -0.725258 6.329949 -0.002985
v -0.728915 6.317065 0.002482
v -0.727087 6.323507 -0.004118
v -0.727087 6.323507 0.003615
v -0.725258 6.329949 0.002482
v -0.728915 6.317065 -0.002985
vn 0.9887 -0.0997 0.1116
vn 0.9655 -0.2082 0.1562
vn 0.9890 -0.0985 0.1105
vn -0.6041 0.6293 0.4889
vn -0.7079 0.1526 0.6896
vn 0.9884 -0.1257 0.0856
vn 0.9704 -0.2092 0.1205
vn 0.9884 -0.1254 0.0852
vn -0.5072 0.6654 0.5477
vn -0.6262 0.1350 0.7679
vn 0.9987 -0.0512 0.0008
vn 0.9987 -0.0511 -0.0017
vn -0.5583 0.8296 0.0010
vn -0.6038 0.6306 0.4875
vn 0.9959 -0.0902 0.0002
vn 0.9959 -0.0906 -0.0010
vn -0.4462 0.8949 0.0042
vn -0.5060 0.6706 0.5424
vn 0.9888 -0.0943 -0.1153
vn 0.9886 -0.0956 -0.1167
vn -0.5955 0.6349 -0.4921
vn -0.5602 0.8283 -0.0052
vn 0.9885 -0.1235 -0.0869
vn 0.9881 -0.1254 -0.0888
vn -0.4810 0.6774 -0.5566
vn -0.4459 0.8951 -0.0066
vn 0.9641 -0.2078 -0.1651
vn 0.9641 -0.2079 -0.1651
vn -0.6966 0.1502 -0.7016
vn -0.5971 0.6271 -0.5003
vn 0.9699 -0.2091 -0.1245
vn 0.9699 -0.2091 -0.1246
vn -0.5942 0.1281 -0.7940
vn -0.4820 0.6721 -0.5621
vn 0.9401 -0.3203 -0.1167
vn -0.8024 -0.3254 -0.5003
vn -0.8042 -0.3332 -0.4921
vn 0.9520 -0.2928 -0.0888
vn -0.7161 -0.4138 -0.5621
vn -0.7173 -0.4191 -0.5566
vn 0.9310 -0.3651 -0.0017
vn 0.9398 -0.3215 -0.1154
vn -0.8517 -0.5240 -0.0052
vn -0.8505 -0.5260 0.0010
vn 0.9448 -0.3277 -0.0010
vn 0.9516 -0.2947 -0.0869
vn -0.7751 -0.6319 -0.0066
vn -0.7752 -0.6316 0.0042
vn 0.9417 -0.3178 0.1105
vn 0.9310 -0.3650 0.0008
vn -0.8100 -0.3259 0.4875
vn -0.8097 -0.3246 0.4889
vn 0.9523 -0.2929 0.0852
vn 0.9446 -0.3281 0.0002
vn -0.7373 -0.4026 0.5424
vn -0.7363 -0.3974 0.5477
vn 0.9420 -0.3165 0.1118
vn 0.9524 -0.2926 0.0856
vn 0.9656 -0.2081 0.1562
vn -0.6963 0.1501 -0.7019
vn -0.9775 0.2107 -0.0000
vn 0.2731 0.9620 -0.0000
vn -0.2731 -0.9620 0.0003
vn -0.2731 -0.9620 -0.0000
vn 0.5733 -0.1619 -0.8032
vn 0.0455 0.1604 -0.9860
vn -0.0000 -0.0000 -1.0000
vn 0.4693 -0.6621 0.5844
vn -0.0000 -0.0000 1.0000
vn 0.5733 -0.1619 0.8031
vn 0.0455 0.1604 0.9860
vn 0.7294 0.3425 0.5922
vn -0.0455 -0.1604 -0.9860
vn 0.4693 -0.6621 -0.5844
vn 0.2057 0.9786 -0.0000
vn 0.1509 0.7195 -0.6779
vn 0.2049 0.9788 -0.0000
vn 0.1461 0.6927 0.7063
vn 0.0095 0.0469 0.9989
vn -0.0004 0.0005 1.0000
vn -0.1443 -0.6731 0.7254
vn -0.1492 -0.6913 0.7070
vn -0.1492 -0.6913 -0.7070
vn -0.2104 -0.9776 -0.0000
vn -0.1443 -0.6731 -0.7254
vn 0.1461 0.6927 -0.7063
vn 0.0095 0.0469 -0.9989
vn 0.1509 0.7195 0.6779
vn -0.2113 -0.9774 -0.0000
vn -0.0004 0.0005 -1.0000
vn -0.1520 -0.6900 -0.7076
vn -0.2152 -0.9766 -0.0000
vn -0.2151 -0.9766 -0.0000
vn 0.2155 0.9765 -0.0000
vn 0.5942 0.4513 0.6658
vn 0.2156 0.9765 -0.0000
vn 0.0003 0.0011 -1.0000
vn 0.3114 -0.6865 -0.6571
vn 0.1525 0.6911 0.7065
vn 0.5070 -0.1342 0.8514
vn 0.0003 0.0011 1.0000
vn 0.3114 -0.6865 0.6571
vn 0.1525 0.6911 -0.7065
vn 0.5070 -0.1342 -0.8514
vn -0.1520 -0.6900 0.7076
vn 0.5942 0.4513 -0.6658
vn 0.5109 -0.8596 -0.0000
vn 0.6176 -0.7865 -0.0000
vn 0.8700 0.4930 -0.0000
vn 0.9289 0.3703 -0.0000
vn 0.7294 0.3425 -0.5922
vn 0.9620 -0.2731 -0.0000
vn -0.0455 -0.1604 0.9860
vn -0.2731 -0.9620 -0.0003
vt 0.959703 0.009387
vt 0.960882 0.008099
vt 0.960684 0.009187
vt 0.957954 0.007566
vt 0.960035 0.007566
vt 0.962915 0.005744
vt 0.961736 0.007033
vt 0.961934 0.005945
vt 0.964664 0.007566
vt 0.962584 0.007566
vt 0.958751 0.010974
vt 0.960309 0.010184
vt 0.959740 0.011133
vt 0.957756 0.008654
vt 0.963867 0.004157
vt 0.962309 0.004947
vt 0.962878 0.003998
vt 0.964862 0.006477
vt 0.957301 0.012125
vt 0.959037 0.011934
vt 0.958171 0.012621
vt 0.957187 0.009603
vt 0.965317 0.003006
vt 0.963581 0.003197
vt 0.964447 0.002510
vt 0.965431 0.005529
vt 0.955539 0.012691
vt 0.957231 0.013124
vt 0.956177 0.013462
vt 0.956321 0.010290
vt 0.967079 0.002440
vt 0.965388 0.002008
vt 0.966441 0.001669
vt 0.966297 0.004841
vt 0.957231 0.002008
vt 0.955539 0.002440
vt 0.956177 0.001669
vt 0.956321 0.004841
vt 0.957301 0.003006
vt 0.965388 0.013124
vt 0.967079 0.012691
vt 0.966441 0.013462
vt 0.966297 0.010290
vt 0.965317 0.012125
vt 0.959037 0.003197
vt 0.958171 0.002510
vt 0.957187 0.005529
vt 0.958751 0.004157
vt 0.963581 0.011934
vt 0.964447 0.012621
vt 0.965431 0.009603
vt 0.963867 0.010974
vt 0.960309 0.004947
vt 0.959740 0.003998
vt 0.957756 0.006477
vt 0.959703 0.005744
vt 0.962309 0.010184
vt 0.962878 0.011133
vt 0.964862 0.008654
vt 0.962915 0.009387
vt 0.960882 0.007033
vt 0.960684 0.005945
vt 0.961736 0.008099
vt 0.961934 0.009187
vt 0.955268 0.010628
vt 0.967350 0.004503
vt 0.955268 0.004503
vt 0.967350 0.010628
vt 0.974174 0.011647
vt 0.974914 0.011060
vt 0.976000 0.005093
vt 0.975514 0.004283
vt 0.972472 0.012365
vt 0.973371 0.012076
vt 0.976321 0.005945
vt 0.976490 0.006874
vt 0.976490 0.007784
vt 0.976321 0.008714
vt 0.972472 0.002294
vt 0.973371 0.002583
vt 0.975514 0.010376
vt 0.976000 0.009566
vt 0.974914 0.003599
vt 0.974174 0.003012
vt 0.976600 0.005529
vt 0.977467 0.004841
vt 0.976031 0.006477
vt 0.975833 0.007566
vt 0.976031 0.008654
vt 0.977467 0.010290
vt 0.976600 0.009603
vt 0.978520 0.004503
vt 0.978520 0.010628
s 1
usemtl Catenary
f 208/227/138 170/228/139 209/229/140
f 208/227/141 172/230/142 171/231/142
f 206/232/143 172/233/144 207/234/145
f 206/232/146 174/235/147 173/236/147
f 203/237/148 209/238/140 204/239/149
f 203/237/150 207/240/151 208/227/141
f 201/241/152 207/242/145 202/243/153
f 201/241/154 205/244/155 206/232/146
f 198/245/156 204/246/149 199/247/157
f 198/245/158 202/248/159 203/237/150
f 196/249/160 202/250/153 197/251/161
f 196/249/162 200/252/163 201/241/154
f 193/253/164 199/254/157 194/255/165
f 193/253/166 197/256/167 198/245/158
f 191/257/168 197/258/161 192/259/169
f 191/257/170 195/260/171 196/249/162
f 189/261/172 193/262/164 194/263/165
f 187/264/173 193/262/166 188/265/174
f 187/266/175 191/267/168 192/268/169
f 185/269/176 191/267/170 186/270/177
f 184/271/178 188/265/179 189/272/172
f 182/273/180 188/265/174 183/274/181
f 182/275/182 186/270/183 187/276/175
f 180/277/184 186/270/177 181/278/185
f 179/279/186 183/274/187 184/280/178
f 177/281/188 183/274/181 178/282/189
f 177/283/190 181/278/191 182/284/182
f 175/285/192 181/278/185 176/286/193
f 170/287/139 178/282/194 179/288/186
f 172/230/142 178/282/189 171/231/142
f 172/289/144 176/286/195 177/290/190
f 174/235/147 176/286/193 173/236/147
f 208/227/138 171/231/196 170/228/139
f 208/227/141 207/240/151 172/230/142
f 206/232/143 173/236/144 172/233/144
f 206/232/146 205/244/155 174/235/147
f 203/237/148 208/227/138 209/238/140
f 203/237/150 202/248/159 207/240/151
f 201/241/152 206/232/143 207/242/145
f 201/241/154 200/252/163 205/244/155
f 198/245/156 203/237/148 204/246/149
f 198/245/158 197/256/167 202/248/159
f 196/249/160 201/241/152 202/250/153
f 196/249/162 195/260/171 200/252/163
f 193/253/164 198/245/156 199/254/157
f 193/253/166 192/291/197 197/256/167
f 191/257/168 196/249/160 197/258/161
f 191/257/170 190/292/170 195/260/171
f 189/261/172 188/265/179 193/262/164
f 187/264/173 192/293/197 193/262/166
f 187/266/175 186/270/183 191/267/168
f 185/269/176 190/294/170 191/267/170
f 184/271/178 183/274/187 188/265/179
f 182/273/180 187/264/173 188/265/174
f 182/275/182 181/278/191 186/270/183
f 180/277/184 185/269/176 186/270/177
f 179/279/186 178/282/194 183/274/187
f 177/281/188 182/273/180 183/274/181
f 177/283/190 176/286/195 181/278/191
f 175/285/192 180/277/184 181/278/185
f 170/287/139 171/231/196 178/282/194
f 172/230/142 177/281/188 178/282/189
f 172/289/144 173/236/144 176/286/195
f 174/235/147 175/285/192 176/286/193
f 200/252/198 217/244/198 205/244/198
f 185/269/198 212/277/198 213/269/198
f 200/252/198 215/260/198 216/252/198
f 175/285/198 212/277/198 180/277/198
f 195/260/198 214/292/198 215/260/198
f 174/235/198 211/285/198 175/285/198
f 205/244/198 210/235/198 174/235/198
f 190/294/198 213/269/198 214/294/198
f 242/295/199 240/296/199 222/295/199
f 243/297/200 241/298/201 219/297/201
f 244/299/202 222/300/203 221/299/204
f 243/301/205 218/302/206 245/302/207
f 245/303/207 223/304/208 246/304/209
f 244/305/202 220/306/210 247/306/211
f 240/307/199 223/308/199 222/307/199
f 241/309/201 220/310/201 219/309/201
f 216/311/212 229/312/213 230/311/214
f 217/313/215 224/314/216 210/314/217
f 210/314/217 225/315/218 211/315/219
f 213/316/220 226/317/221 227/316/222
f 215/312/223 228/318/224 229/312/213
f 216/311/212 231/313/225 217/313/215
f 211/315/219 226/317/221 212/317/226
f 214/319/227 227/316/222 228/319/224
f 189/310/228 235/309/229 184/309/230
f 204/307/231 238/308/232 233/307/233
f 194/305/234 239/306/235 189/306/228
f 209/304/236 237/303/237 238/304/232
f 170/302/238 234/301/239 237/302/237
f 199/300/240 236/299/241 194/299/234
f 179/297/242 235/298/229 234/297/239
f 204/296/231 232/295/243 199/295/240
f 235/309/244 247/310/211 241/309/245
f 233/307/246 246/308/209 240/307/247
f 239/306/235 244/305/202 247/306/211
f 238/304/232 245/303/207 246/304/209
f 234/301/239 245/302/207 237/302/237
f 232/300/243 244/299/202 236/299/241
f 235/298/244 243/297/205 234/297/239
f 233/296/246 242/295/248 232/295/243
f 218/303/249 222/307/249 223/308/249
f 221/299/249 219/309/249 220/310/249
f 200/252/198 216/252/198 217/244/198
f 185/269/198 180/277/198 212/277/198
f 200/252/198 195/260/198 215/260/198
f 175/285/198 211/285/198 212/277/198
f 195/260/198 190/292/198 214/292/198
f 174/235/198 210/235/198 211/285/198
f 205/244/198 217/244/198 210/235/198
f 190/294/198 185/269/198 213/269/198
f 244/299/202 242/300/248 222/300/203
f 243/301/205 219/301/250 218/302/206
f 245/303/207 218/303/206 223/304/208
f 244/305/202 221/305/204 220/306/210
f 240/307/199 246/308/199 223/308/199
f 241/309/201 247/310/251 220/310/201
f 216/311/212 215/312/223 229/312/213
f 217/313/215 231/313/225 224/314/216
f 210/314/217 224/314/216 225/315/218
f 213/316/220 212/317/226 226/317/221
f 215/312/223 214/318/227 228/318/224
f 216/311/212 230/311/214 231/313/225
f 211/315/219 225/315/218 226/317/221
f 214/319/227 213/316/220 227/316/222
f 189/310/228 239/310/235 235/309/229
f 204/307/231 209/308/236 238/308/232
f 194/305/234 236/305/241 239/306/235
f 209/304/236 170/303/238 237/303/237
f 170/302/238 179/301/242 234/301/239
f 199/300/240 232/300/243 236/299/241
f 179/297/242 184/298/230 235/298/229
f 204/296/231 233/296/233 232/295/243
f 235/309/244 239/310/235 247/310/211
f 233/307/246 238/308/232 246/308/209
f 239/306/235 236/305/241 244/305/202
f 238/304/232 237/303/237 245/303/207
f 234/301/239 243/301/205 245/302/207
f 232/300/243 242/300/248 244/299/202
f 235/298/244 241/298/245 243/297/205
f 233/296/246 240/296/247 242/295/248
f 218/303/249 221/299/249 222/307/249
f 221/299/249 218/302/249 219/309/249
o ArchAngled.003
v -2.649727 6.952834 0.025448
v -2.662378 7.024587 0.025448
v -2.649727 6.952834 0.008635
v -2.662378 7.024587 0.008635
v -0.864131 7.267683 0.024475
v -0.876783 7.339440 0.024475
v -0.864131 7.267684 0.008678
v -0.876782 7.339440 0.008678
v -2.649726 6.952834 -0.007098
v -2.662377 7.024588 -0.007098
v -2.649726 6.952834 -0.024176
v -2.662377 7.024588 -0.024176
v -0.864130 7.267684 -0.008616
v -0.876782 7.339441 -0.008616
v -0.864130 7.267684 -0.025148
v -0.876781 7.339441 -0.025148
vn -0.9848 -0.1736 -0.0000
vn -0.0000 -0.0000 -1.0000
vn 0.9848 0.1736 -0.0000
vn 0.0005 0.0001 1.0000
vn 0.1736 -0.9848 -0.0000
vn -0.1737 0.9848 -0.0000
vn -0.0005 -0.0001 -1.0000
vn 0.0008 0.0001 1.0000
vt 0.513508 0.549339
vt 0.521867 0.557698
vt 0.513508 0.557698
vt 0.531188 0.513198
vt 0.511658 0.532727
vt 0.511658 0.513198
vt 0.523922 0.472988
vt 0.517869 0.479041
vt 0.517869 0.472988
vt 0.534177 0.999999
vt 0.500001 0.000002
vt 0.534177 0.000002
vt 0.511817 0.472988
vt 0.511817 0.479041
vt 0.531698 0.134441
vt 0.509715 0.156423
vt 0.509715 0.134441
vt 0.517869 0.460883
vt 0.523922 0.466936
vt 0.517869 0.466936
vt 0.500001 0.999997
vt 0.534179 0.000002
vt 0.534179 0.999997
vt 0.523922 0.479041
vt 0.511506 0.513343
vt 0.531036 0.532873
vt 0.511506 0.532873
vt 0.521867 0.549339
vt 0.531188 0.532727
vt 0.500001 0.999999
vt 0.531698 0.156423
vt 0.523922 0.460883
vt 0.500001 0.000002
vt 0.531036 0.513343
s 0
usemtl Catenary
f 248/320/252 251/321/252 250/322/252
f 251/323/253 254/324/253 250/325/253
f 255/326/254 252/327/254 254/328/254
f 252/329/255 249/330/255 248/331/255
f 250/332/256 252/327/256 248/333/256
f 251/334/257 253/335/257 255/336/257
f 256/337/252 259/338/252 258/339/252
f 259/340/258 262/341/258 258/342/258
f 262/328/254 261/343/254 260/327/254
f 260/344/259 257/345/259 256/346/259
f 258/332/256 260/327/256 256/333/256
f 259/334/257 261/335/257 263/336/257
f 248/320/252 249/347/252 251/321/252
f 251/323/253 255/348/253 254/324/253
f 255/326/254 253/343/254 252/327/254
f 252/329/255 253/349/255 249/330/255
f 250/332/256 254/328/256 252/327/256
f 251/334/257 249/350/257 253/335/257
f 256/337/252 257/351/252 259/338/252
f 259/340/258 263/352/258 262/341/258
f 262/328/254 263/326/254 261/343/254
f 260/344/259 261/353/259 257/345/259
f 258/332/256 262/328/256 260/327/256
f 259/334/257 257/350/257 261/335/257
o ArchSupport.006
v -2.553698 7.007720 0.009886
v -2.611529 6.963401 0.009886
v -2.553698 7.007720 -0.009886
v -2.611529 6.963402 -0.009886
v -2.886014 7.441347 0.009886
v -2.943848 7.397026 0.009886
v -2.886014 7.441347 -0.009886
v -2.943848 7.397026 -0.009886
vn 0.6083 -0.7937 -0.0000
vn -0.0000 -0.0000 -1.0000
vn -0.6083 0.7937 -0.0000
vn -0.0000 -0.0000 1.0000
vn 0.7937 0.6083 -0.0000
vn -0.7937 -0.6083 -0.0000
vt 0.521748 0.499718
vt 0.514923 0.506544
vt 0.514923 0.499718
vt 0.521748 0.506544
vt 0.514923 0.513369
vt 0.521748 0.513369
vt 0.518431 0.806383
vt 0.527631 0.846481
vt 0.506738 0.846481
vt 0.508098 0.513369
vt 0.508098 0.520194
vt 0.528573 0.513369
vt 0.519002 0.806383
vt 0.528573 0.520194
s 0
usemtl Catenary
f 265/354/260 266/355/260 264/356/260
f 267/357/261 270/358/261 266/355/261
f 271/359/262 268/360/262 270/358/262
f 268/360/263 265/361/263 264/362/263
f 266/363/264 268/360/264 264/364/264
f 267/365/265 269/366/265 271/359/265
f 265/354/260 267/357/260 266/355/260
f 267/357/261 271/359/261 270/358/261
f 271/359/262 269/366/262 268/360/262
f 268/360/263 269/366/263 265/361/263
f 266/363/264 270/358/264 268/360/264
f 267/365/265 265/367/265 269/366/265
o ArchSupport.007
v -1.457817 7.197822 0.009886
v -1.515648 7.153503 0.009886
v -1.457817 7.197822 -0.009886
v -1.515648 7.153503 -0.009886
v -1.790133 7.631448 0.009886
v -1.847967 7.587127 0.009886
v -1.790133 7.631448 -0.009886
v -1.847967 7.587127 -0.009886
vn 0.6083 -0.7937 -0.0000
vn -0.0000 -0.0000 -1.0000
vn -0.6083 0.7937 -0.0000
vn -0.0000 -0.0000 1.0000
vn 0.7937 0.6083 -0.0000
vn -0.7937 -0.6083 -0.0000
vt 0.521748 0.499718
vt 0.514923 0.506544
vt 0.514923 0.499718
vt 0.521748 0.506544
vt 0.514923 0.513369
vt 0.521748 0.513369
vt 0.518431 0.806383
vt 0.527631 0.846481
vt 0.506738 0.846481
vt 0.508098 0.513369
vt 0.508098 0.520194
vt 0.528573 0.513369
vt 0.519002 0.806383
vt 0.528573 0.520194
s 0
usemtl Catenary
f 273/368/266 274/369/266 272/370/266
f 275/371/267 278/372/267 274/369/267
f 279/373/268 276/374/268 278/372/268
f 276/374/269 273/375/269 272/376/269
f 274/377/270 276/374/270 272/378/270
f 275/379/271 277/380/271 279/373/271
f 273/368/266 275/371/266 274/369/266
f 275/371/267 279/373/267 278/372/267
f 279/373/268 277/380/268 276/374/268
f 276/374/269 277/380/269 273/375/269
f 274/377/270 278/372/270 276/374/270
f 275/379/271 273/381/271 277/380/271
