# Blender 5.1.2
# www.blender.org
mtllib half_arch_extended_trolley.mtl
o PlatformTrolley.002
g half_arch_extended_trolley
v 0.000000 6.030690 -0.050000
v 0.000000 6.080690 -0.050000
v 0.035355 6.030690 -0.035355
v 0.035355 6.080690 -0.035355
v 0.050000 6.030690 -0.000000
v 0.050000 6.080690 -0.000000
v 0.035355 6.030690 0.035355
v 0.035355 6.080690 0.035355
v 0.000000 6.030690 0.050000
v 0.000000 6.080690 0.050000
v -0.035355 6.030690 0.035355
v -0.035355 6.080690 0.035355
v -0.050000 6.030690 -0.000000
v -0.050000 6.080690 -0.000000
v -0.035355 6.030690 -0.035355
v -0.035355 6.080690 -0.035355
v 0.000000 6.030690 -0.013314
v 0.009415 6.030690 -0.009415
v 0.013314 6.030690 -0.000000
v 0.009415 6.030690 0.009415
v 0.000000 6.030690 0.013314
v -0.009415 6.030690 0.009415
v -0.013314 6.030690 -0.000000
v -0.009415 6.030690 -0.009415
v -0.000000 6.007700 -0.013314
v 0.009415 6.007700 -0.009415
v 0.013314 6.007700 -0.000000
v 0.009415 6.007700 0.009415
v -0.000000 6.007700 0.013314
v -0.009415 6.007700 0.009415
v -0.013314 6.007700 -0.000000
v -0.009415 6.007700 -0.009415
v -0.000000 5.999656 -0.013314
v 0.006208 5.999656 -0.009415
v 0.008780 5.999656 -0.000000
v 0.006208 5.999656 0.009415
v -0.000000 5.999656 0.013314
v -0.006208 5.999656 0.009415
v -0.008780 5.999656 -0.000000
v -0.006208 5.999656 -0.009415
v 0.042678 6.080690 -0.017678
v 0.042678 6.080690 0.017678
v -0.042678 6.080690 0.017678
v -0.042678 6.080690 -0.017678
v 0.080000 6.109543 0.017678
v -0.080000 6.109543 -0.017678
v 0.080000 6.109543 -0.017678
v -0.080000 6.109543 0.017678
v 0.080000 6.080690 0.017678
v -0.080000 6.080690 -0.017678
v 0.080000 6.080690 -0.017678
v -0.080000 6.080690 0.017678
v -1.030877 6.369647 -0.004982
v -0.076966 6.104347 -0.004982
v -1.030841 6.368963 -0.008426
v -0.076929 6.103663 -0.008427
v -1.030736 6.367014 -0.011346
v -0.076825 6.101715 -0.011346
v -1.030580 6.364099 -0.013297
v -0.076669 6.098800 -0.013297
v -1.030396 6.360660 -0.013982
v -0.076484 6.095360 -0.013982
v -1.030212 6.357220 -0.013297
v -0.076300 6.091921 -0.013297
v -1.030055 6.354305 -0.011346
v -0.076144 6.089005 -0.011346
v -1.029951 6.352356 -0.008426
v -0.076040 6.087057 -0.008427
v -1.029914 6.351673 -0.004982
v -0.076003 6.086373 -0.004982
v -1.029951 6.352356 -0.001538
v -0.076040 6.087057 -0.001538
v -1.030055 6.354305 0.001382
v -0.076144 6.089005 0.001382
v -1.030212 6.357220 0.003333
v -0.076300 6.091921 0.003333
v -1.030396 6.360660 0.004018
v -0.076484 6.095360 0.004018
v -1.030580 6.364099 0.003333
v -0.076669 6.098800 0.003333
v -1.030736 6.367014 0.001382
v -0.076825 6.101715 0.001382
v -1.030841 6.368963 -0.001538
v -0.076929 6.103663 -0.001538
v 0.072118 6.104528 -0.004982
v 1.033477 6.367147 -0.004982
v 0.072155 6.103845 -0.008427
v 1.033514 6.366463 -0.008426
v 0.072259 6.101896 -0.011346
v 1.033618 6.364515 -0.011346
v 0.072415 6.098981 -0.013297
v 1.033774 6.361599 -0.013297
v 0.072599 6.095541 -0.013982
v 1.033958 6.358160 -0.013982
v 0.072784 6.092102 -0.013297
v 1.034143 6.354721 -0.013297
v 0.072940 6.089187 -0.011346
v 1.034299 6.351805 -0.011346
v 0.073044 6.087238 -0.008427
v 1.034403 6.349857 -0.008426
v 0.073081 6.086555 -0.004982
v 1.034440 6.349173 -0.004982
v 0.073044 6.087238 -0.001538
v 1.034403 6.349857 -0.001538
v 0.072940 6.089187 0.001382
v 1.034299 6.351805 0.001382
v 0.072784 6.092102 0.003333
v 1.034143 6.354721 0.003333
v 0.072599 6.095541 0.004018
v 1.033958 6.358160 0.004018
v 0.072415 6.098981 0.003333
v 1.033774 6.361599 0.003333
v 0.072259 6.101896 0.001382
v 1.033618 6.364515 0.001382
v 0.072155 6.103845 -0.001538
v 1.033514 6.366463 -0.001538
vn -0.0000 -0.0000 -1.0000
vn 0.7071 -0.0000 -0.7071
vn 0.9239 -0.0000 -0.3827
vn 1.0000 -0.0000 -0.0000
vn 0.9239 -0.0000 0.3827
vn 0.7071 -0.0000 0.7071
vn -0.0000 -0.0000 1.0000
vn -0.7071 -0.0000 0.7071
vn -0.9239 -0.0000 0.3827
vn -1.0000 -0.0000 -0.0000
vn -0.0000 1.0000 -0.0000
vn -0.9239 -0.0000 -0.3827
vn -0.7071 -0.0000 -0.7071
vn -0.0000 -0.0447 0.9990
vn -0.0001 -1.0000 -0.0000
vn -0.0000 -1.0000 -0.0000
vn -0.7272 -0.1612 -0.6673
vn -0.8996 -0.4368 -0.0000
vn -0.9708 -0.2398 -0.0000
vn 0.9708 -0.2398 -0.0000
vn -0.0000 -0.0447 -0.9990
vn -0.7272 -0.1612 0.6673
vn 0.7272 -0.1612 0.6673
vn 0.7272 -0.1612 -0.6673
vn -0.7093 -0.2252 0.6680
vn 0.8996 -0.4368 -0.0000
vn 0.7093 -0.2252 -0.6680
vn -0.7093 -0.2252 -0.6680
vn 0.7093 -0.2252 0.6680
vn 0.2679 0.9634 -0.0000
vn 0.2508 0.9016 -0.3525
vn 0.2479 0.8913 -0.3797
vn 0.1994 0.7169 -0.6680
vn 0.1890 0.6794 -0.7090
vn 0.1165 0.4188 -0.9006
vn 0.0975 0.3507 -0.9314
vn 0.0114 0.0409 -0.9991
vn -0.0114 -0.0409 -0.9991
vn -0.0975 -0.3507 -0.9314
vn -0.1165 -0.4188 -0.9006
vn -0.1890 -0.6794 -0.7090
vn -0.1994 -0.7169 -0.6680
vn -0.2479 -0.8913 -0.3798
vn -0.2508 -0.9016 -0.3524
vn -0.2679 -0.9634 -0.0000
vn -0.2508 -0.9016 0.3524
vn -0.2479 -0.8913 0.3798
vn -0.1994 -0.7169 0.6680
vn -0.1890 -0.6794 0.7090
vn -0.1165 -0.4188 0.9006
vn -0.0975 -0.3507 0.9314
vn -0.0114 -0.0409 0.9991
vn 0.0114 0.0409 0.9991
vn 0.0975 0.3507 0.9314
vn 0.1165 0.4188 0.9006
vn 0.1890 0.6794 0.7090
vn 0.1994 0.7169 0.6680
vn 0.2479 0.8913 0.3798
vn 0.2508 0.9016 0.3525
vn -0.2635 0.9647 -0.0000
vn -0.2452 0.8976 -0.3664
vn -0.2432 0.8904 -0.3847
vn -0.1918 0.7020 -0.6859
vn -0.1849 0.6768 -0.7125
vn -0.1087 0.3980 -0.9109
vn -0.0967 0.3539 -0.9303
vn -0.0071 0.0261 -0.9996
vn 0.0071 -0.0261 -0.9996
vn 0.0967 -0.3539 -0.9303
vn 0.1087 -0.3980 -0.9109
vn 0.1849 -0.6768 -0.7125
vn 0.1918 -0.7020 -0.6859
vn 0.2432 -0.8904 -0.3847
vn 0.2452 -0.8976 -0.3664
vn 0.2635 -0.9647 -0.0000
vn 0.2452 -0.8976 0.3664
vn 0.2432 -0.8904 0.3847
vn 0.1918 -0.7020 0.6859
vn 0.1849 -0.6768 0.7125
vn 0.1087 -0.3980 0.9109
vn 0.0967 -0.3539 0.9303
vn 0.0071 -0.0261 0.9996
vn -0.0071 0.0261 0.9996
vn -0.0967 0.3539 0.9303
vn -0.1087 0.3980 0.9109
vn -0.1849 0.6768 0.7125
vn -0.1918 0.7020 0.6859
vn -0.2432 0.8904 0.3847
vn -0.2452 0.8976 0.3664
vn -0.0001 1.0000 -0.0000
vn 0.0001 1.0000 -0.0000
vt 0.959170 0.010573
vt 0.961043 0.009140
vt 0.961043 0.010573
vt 0.959170 0.009140
vt 0.959170 0.008423
vt 0.961043 0.007706
vt 0.959170 0.007706
vt 0.959170 0.006990
vt 0.961043 0.006273
vt 0.959170 0.006273
vt 0.961043 0.004840
vt 0.959170 0.004840
vt 0.961043 0.003407
vt 0.959170 0.003407
vt 0.959170 0.002690
vt 0.961043 0.001973
vt 0.957440 0.003826
vt 0.959170 0.013440
vt 0.959170 0.012723
vt 0.961043 0.012006
vt 0.959170 0.012006
vt 0.701087 0.111798
vt 0.679981 0.100740
vt 0.701731 0.102085
vt 0.962964 0.006017
vt 0.963234 0.005747
vt 0.964503 0.006273
vt 0.679522 0.054976
vt 0.669880 0.048377
vt 0.678422 0.045452
vt 0.702305 0.092360
vt 0.681517 0.082601
vt 0.702628 0.082601
vt 0.702305 0.072842
vt 0.679981 0.064461
vt 0.701731 0.063116
vt 0.701087 0.053403
vt 0.700310 0.121500
vt 0.679522 0.110225
vt 0.680966 0.091434
vt 0.680965 0.073767
vt 0.700310 0.043701
vt 0.671819 0.107428
vt 0.672147 0.100106
vt 0.672950 0.082601
vt 0.672885 0.072500
vt 0.672147 0.065095
vt 0.671818 0.057773
vt 0.669880 0.116824
vt 0.672885 0.092701
vt 0.957440 0.011587
vt 0.958664 0.008633
vt 0.961188 0.086501
vt 0.961188 0.066403
vt 0.967982 0.057615
vt 0.976307 0.095290
vt 0.967982 0.095290
vt 0.957025 0.088225
vt 0.961188 0.095290
vt 0.952863 0.095290
vt 0.952863 0.066403
vt 0.952863 0.086501
vt 0.946069 0.095290
vt 0.952863 0.057615
vt 0.961188 0.050821
vt 0.961188 0.057615
vt 0.952863 0.102083
vt 0.957025 0.064679
vt 0.963490 0.003826
vt 0.962582 0.005096
vt 0.983856 0.014273
vt 0.982981 0.007273
vt 0.983856 0.007273
vt 0.982981 0.014273
vt 0.982106 0.007273
vt 0.982106 0.014273
vt 0.981231 0.007273
vt 0.981231 0.014273
vt 0.980356 0.007273
vt 0.980356 0.014273
vt 0.979481 0.007273
vt 0.979481 0.014273
vt 0.978606 0.007273
vt 0.978606 0.014273
vt 0.977731 0.007273
vt 0.977731 0.014273
vt 0.976856 0.007273
vt 0.975981 0.014273
vt 0.975981 0.007273
vt 0.975106 0.014273
vt 0.975106 0.007273
vt 0.974231 0.014273
vt 0.974231 0.007273
vt 0.973356 0.014273
vt 0.973356 0.007273
vt 0.972481 0.014273
vt 0.972481 0.007273
vt 0.971606 0.014273
vt 0.971606 0.007273
vt 0.970731 0.014273
vt 0.970731 0.007273
vt 0.969856 0.014273
vt 0.969856 0.007273
vt 0.976856 0.014273
vt 0.959170 0.001973
vt 0.958664 0.006780
vt 0.958157 0.003826
vt 0.961043 0.013440
vt 0.963490 0.007287
vt 0.962057 0.007287
vt 0.962313 0.005747
vt 0.962582 0.006017
vt 0.963234 0.005366
vt 0.964503 0.004840
vt 0.678422 0.119749
vt 0.958157 0.011587
vt 0.976307 0.057615
vt 0.946069 0.057615
vt 0.952863 0.050821
vt 0.961188 0.102083
vt 0.962057 0.003826
vt 0.962964 0.005096
vt 0.962313 0.005366
s 1
usemtl Catenary
f 2/1/1 3/2/2 1/3/1
f 4/4/2 41/5/3 5/6/4
f 6/7/4 42/8/5 7/9/6
f 8/10/6 9/11/7 7/9/6
f 10/12/7 11/13/8 9/11/7
f 12/14/8 43/15/9 13/16/10
f 43/17/11 10/12/11 8/10/11
f 14/18/10 44/19/12 15/20/13
f 16/21/13 1/3/1 15/20/13
f 22/22/8 29/23/14 21/24/7
f 18/25/15 17/26/16 1/27/16
f 32/28/17 39/29/18 31/30/19
f 20/31/6 27/32/20 19/33/4
f 18/34/2 25/35/21 17/36/1
f 17/36/1 32/28/17 24/37/13
f 23/38/10 30/39/22 22/22/8
f 21/24/7 28/40/23 20/31/6
f 19/33/4 26/41/24 18/34/2
f 24/37/13 31/30/19 23/42/10
f 29/23/14 38/43/25 37/44/7
f 28/40/23 35/45/26 27/32/20
f 25/35/21 34/46/27 33/47/1
f 25/35/21 40/48/28 32/28/17
f 30/39/22 39/49/18 38/43/25
f 29/23/14 36/50/29 28/40/23
f 26/41/24 35/45/26 34/46/27
f 2/1/11 44/51/11 41/52/11
f 41/53/1 44/54/1 46/55/1
f 46/55/11 45/56/11 47/57/11
f 6/58/16 51/59/16 49/60/16
f 43/61/7 42/62/7 45/63/7
f 52/64/10 46/65/10 50/66/10
f 51/59/4 45/67/4 49/60/4
f 14/68/16 52/64/16 50/66/16
f 9/11/16 13/69/16 22/70/16
f 54/71/30 55/72/31 53/73/30
f 56/74/32 57/75/33 55/72/31
f 58/76/34 59/77/35 57/75/33
f 60/78/36 61/79/37 59/77/35
f 62/80/38 63/81/39 61/79/37
f 64/82/40 65/83/41 63/81/39
f 66/84/42 67/85/43 65/83/41
f 68/86/44 69/87/45 67/85/43
f 69/87/45 72/88/46 71/89/47
f 71/89/47 74/90/48 73/91/49
f 73/91/49 76/92/50 75/93/51
f 75/93/51 78/94/52 77/95/53
f 77/95/53 80/96/54 79/97/55
f 79/97/55 82/98/56 81/99/57
f 81/99/57 84/100/58 83/101/59
f 83/101/59 54/102/30 53/103/30
f 85/73/60 88/74/61 87/72/62
f 87/72/62 90/76/63 89/75/64
f 89/75/64 92/78/65 91/77/66
f 91/77/66 94/80/67 93/79/68
f 93/79/68 96/82/69 95/81/70
f 95/81/70 98/84/71 97/83/72
f 97/83/72 100/86/73 99/85/74
f 99/85/74 102/104/75 101/87/75
f 102/104/75 103/89/76 101/87/75
f 104/88/77 105/91/78 103/89/76
f 106/90/79 107/93/80 105/91/78
f 108/92/81 109/95/82 107/93/80
f 110/94/83 111/97/84 109/95/82
f 112/96/85 113/99/86 111/97/84
f 114/98/87 115/101/88 113/99/86
f 116/100/89 85/103/60 115/101/88
f 2/1/1 4/4/2 3/2/2
f 5/6/4 3/2/2 4/4/2
f 41/5/3 6/7/4 5/6/4
f 7/9/6 5/6/4 6/7/4
f 42/8/5 8/10/6 7/9/6
f 8/10/6 10/12/7 9/11/7
f 10/12/7 12/14/8 11/13/8
f 13/16/10 11/13/8 12/14/8
f 43/15/9 14/105/10 13/16/10
f 8/10/11 42/106/11 43/17/11
f 43/17/11 12/107/90 10/12/11
f 15/20/13 13/108/10 14/18/10
f 44/19/12 16/21/13 15/20/13
f 16/21/13 2/1/1 1/3/1
f 22/22/8 30/39/22 29/23/14
f 3/109/16 5/110/16 7/9/16
f 7/9/16 20/111/16 19/112/15
f 7/9/16 19/112/15 18/25/15
f 1/27/16 3/109/16 7/9/16
f 24/113/16 15/114/16 1/27/16
f 17/26/16 24/113/16 1/27/16
f 1/27/16 7/9/16 18/25/15
f 32/28/17 40/48/28 39/29/18
f 20/31/6 28/40/23 27/32/20
f 18/34/2 26/41/24 25/35/21
f 17/36/1 25/35/21 32/28/17
f 23/38/10 31/115/19 30/39/22
f 21/24/7 29/23/14 28/40/23
f 19/33/4 27/32/20 26/41/24
f 24/37/13 32/28/17 31/30/19
f 29/23/14 30/39/22 38/43/25
f 28/40/23 36/50/29 35/45/26
f 25/35/21 26/41/24 34/46/27
f 25/35/21 33/47/1 40/48/28
f 30/39/22 31/115/19 39/49/18
f 29/23/14 37/44/7 36/50/29
f 26/41/24 27/32/20 35/45/26
f 41/52/11 4/4/91 2/1/11
f 2/1/11 16/116/90 44/51/11
f 46/55/1 47/57/1 51/59/1
f 46/55/1 51/59/1 41/53/1
f 44/54/1 50/66/1 46/55/1
f 46/55/11 48/117/11 45/56/11
f 49/60/16 42/62/16 6/58/16
f 6/58/16 41/53/16 51/59/16
f 45/63/7 48/118/7 52/64/7
f 45/63/7 52/64/7 43/61/7
f 42/62/7 49/60/7 45/63/7
f 52/64/10 48/119/10 46/65/10
f 51/59/4 47/120/4 45/67/4
f 50/66/16 44/54/16 14/68/16
f 14/68/16 43/61/16 52/64/16
f 20/111/16 7/9/16 9/11/16
f 9/11/16 11/121/16 13/69/16
f 13/69/16 15/114/16 24/113/16
f 13/69/16 24/113/16 23/122/16
f 21/123/16 20/111/16 9/11/16
f 13/69/16 23/122/16 22/70/16
f 22/70/16 21/123/16 9/11/16
f 54/71/30 56/74/32 55/72/31
f 56/74/32 58/76/34 57/75/33
f 58/76/34 60/78/36 59/77/35
f 60/78/36 62/80/38 61/79/37
f 62/80/38 64/82/40 63/81/39
f 64/82/40 66/84/42 65/83/41
f 66/84/42 68/86/44 67/85/43
f 68/86/44 70/104/45 69/87/45
f 69/87/45 70/104/45 72/88/46
f 71/89/47 72/88/46 74/90/48
f 73/91/49 74/90/48 76/92/50
f 75/93/51 76/92/50 78/94/52
f 77/95/53 78/94/52 80/96/54
f 79/97/55 80/96/54 82/98/56
f 81/99/57 82/98/56 84/100/58
f 83/101/59 84/100/58 54/102/30
f 85/73/60 86/71/60 88/74/61
f 87/72/62 88/74/61 90/76/63
f 89/75/64 90/76/63 92/78/65
f 91/77/66 92/78/65 94/80/67
f 93/79/68 94/80/67 96/82/69
f 95/81/70 96/82/69 98/84/71
f 97/83/72 98/84/71 100/86/73
f 99/85/74 100/86/73 102/104/75
f 102/104/75 104/88/77 103/89/76
f 104/88/77 106/90/79 105/91/78
f 106/90/79 108/92/81 107/93/80
f 108/92/81 110/94/83 109/95/82
f 110/94/83 112/96/85 111/97/84
f 112/96/85 114/98/87 113/99/86
f 114/98/87 116/100/89 115/101/88
f 116/100/89 86/102/60 85/103/60
o PlatformHalfArchExtendedTrolley
v -0.906572 7.261916 0.039922
v -0.906571 7.334776 0.039922
v -0.906572 7.261916 0.020150
v -0.906571 7.334776 0.020150
v 0.906570 7.261916 0.038950
v 0.906571 7.334780 0.038950
v 0.906570 7.261916 0.020177
v 0.906571 7.334780 0.020177
v -0.906571 7.261916 -0.019427
v -0.906570 7.334776 -0.019427
v -0.906571 7.261916 -0.039200
v -0.906570 7.334776 -0.039200
v 0.906571 7.261916 -0.020400
v 0.906572 7.334780 -0.020400
v 0.906571 7.261916 -0.040172
v 0.906572 7.334780 -0.040172
vn -1.0000 -0.0000 -0.0000
vn -0.0000 -0.0000 -1.0000
vn 1.0000 -0.0000 -0.0000
vn 0.0005 -0.0000 1.0000
vn -0.0000 -1.0000 -0.0000
vn -0.0000 1.0000 -0.0000
vn -0.0005 -0.0000 -1.0000
vt 0.513508 0.549339
vt 0.521867 0.557698
vt 0.513508 0.557698
vt 0.531188 0.513198
vt 0.511658 0.532727
vt 0.511658 0.513198
vt 0.523922 0.472988
vt 0.517869 0.479041
vt 0.517869 0.472988
vt 0.534177 0.999999
vt 0.500001 0.000002
vt 0.534177 0.000002
vt 0.511817 0.472988
vt 0.511817 0.479041
vt 0.531698 0.134441
vt 0.509715 0.156423
vt 0.509715 0.134441
vt 0.523922 0.460883
vt 0.517869 0.466936
vt 0.517869 0.460883
vt 0.500001 0.999997
vt 0.534179 0.000002
vt 0.534179 0.999997
vt 0.511506 0.513343
vt 0.531036 0.532873
vt 0.511506 0.532873
vt 0.521867 0.549339
vt 0.531188 0.532727
vt 0.523922 0.479041
vt 0.500001 0.999999
vt 0.531698 0.156423
vt 0.523922 0.466936
vt 0.500001 0.000002
vt 0.531036 0.513343
s 0
usemtl Catenary
f 117/124/92 120/125/92 119/126/92
f 120/127/93 123/128/93 119/129/93
f 124/130/94 121/131/94 123/132/94
f 121/133/95 118/134/95 117/135/95
f 119/136/96 121/131/96 117/137/96
f 120/138/97 122/139/97 124/140/97
f 126/141/92 127/142/92 125/143/92
f 128/144/98 131/145/98 127/146/98
f 132/130/94 129/131/94 131/132/94
f 129/147/95 126/148/95 125/149/95
f 127/136/96 129/131/96 125/137/96
f 128/138/97 130/139/97 132/140/97
f 117/124/92 118/150/92 120/125/92
f 120/127/93 124/151/93 123/128/93
f 124/130/94 122/152/94 121/131/94
f 121/133/95 122/153/95 118/134/95
f 119/136/96 123/132/96 121/131/96
f 120/138/97 118/154/97 122/139/97
f 126/141/92 128/155/92 127/142/92
f 128/144/98 132/156/98 131/145/98
f 132/130/94 130/152/94 129/131/94
f 129/147/95 130/157/95 126/148/95
f 127/136/96 131/132/96 129/131/96
f 128/138/97 126/154/97 130/139/97
o ArchAngled.007
v -2.683143 7.261920 0.025448
v -2.683142 7.334780 0.025448
v -2.683143 7.261920 0.008635
v -2.683142 7.334780 0.008635
v -0.870001 7.261920 0.024475
v -0.870000 7.334785 0.024475
v -0.870001 7.261920 0.008678
v -0.870000 7.334785 0.008678
v -2.683142 7.261920 -0.007098
v -2.683141 7.334780 -0.007098
v -2.683142 7.261920 -0.024176
v -2.683141 7.334780 -0.024176
v -0.870000 7.261920 -0.008616
v -0.869999 7.334785 -0.008616
v -0.870000 7.261920 -0.025148
v -0.869999 7.334785 -0.025148
vn -1.0000 -0.0000 -0.0000
vn -0.0000 -0.0000 -1.0000
vn 1.0000 -0.0000 -0.0000
vn 0.0005 -0.0000 1.0000
vn -0.0000 -1.0000 -0.0000
vn -0.0000 1.0000 -0.0000
vn -0.0005 -0.0000 -1.0000
vn 0.0008 -0.0000 1.0000
vt 0.513508 0.549339
vt 0.521867 0.557698
vt 0.513508 0.557698
vt 0.531188 0.513198
vt 0.511658 0.532727
vt 0.511658 0.513198
vt 0.523922 0.472988
vt 0.517869 0.479041
vt 0.517869 0.472988
vt 0.534177 0.999999
vt 0.500001 0.000002
vt 0.534177 0.000002
vt 0.511817 0.472988
vt 0.511817 0.479041
vt 0.531698 0.134441
vt 0.509715 0.156423
vt 0.509715 0.134441
vt 0.517869 0.460883
vt 0.523922 0.466936
vt 0.517869 0.466936
vt 0.500001 0.999997
vt 0.534179 0.000002
vt 0.534179 0.999997
vt 0.523922 0.479041
vt 0.511506 0.513343
vt 0.531036 0.532873
vt 0.511506 0.532873
vt 0.521867 0.549339
vt 0.531188 0.532727
vt 0.500001 0.999999
vt 0.531698 0.156423
vt 0.523922 0.460883
vt 0.500001 0.000002
vt 0.531036 0.513343
s 0
usemtl Catenary
f 133/158/99 136/159/99 135/160/99
f 136/161/100 139/162/100 135/163/100
f 140/164/101 137/165/101 139/166/101
f 137/167/102 134/168/102 133/169/102
f 135/170/103 137/165/103 133/171/103
f 136/172/104 138/173/104 140/174/104
f 141/175/99 144/176/99 143/177/99
f 144/178/105 147/179/105 143/180/105
f 147/166/101 146/181/101 145/165/101
f 145/182/106 142/183/106 141/184/106
f 143/170/103 145/165/103 141/171/103
f 144/172/104 146/173/104 148/174/104
f 133/158/99 134/185/99 136/159/99
f 136/161/100 140/186/100 139/162/100
f 140/164/101 138/181/101 137/165/101
f 137/167/102 138/187/102 134/168/102
f 135/170/103 139/166/103 137/165/103
f 136/172/104 134/188/104 138/173/104
f 141/175/99 142/189/99 144/176/99
f 144/178/105 148/190/105 147/179/105
f 147/166/101 148/164/101 146/181/101
f 145/182/106 146/191/106 142/183/106
f 143/170/103 147/166/103 145/165/103
f 144/172/104 142/188/104 146/173/104
o ArchSupport.014
v -4.234866 7.299298 0.009886
v -4.299514 7.265695 0.009886
v -4.234866 7.299298 -0.009886
v -4.299514 7.265695 -0.009886
v -4.486835 7.784042 0.009886
v -4.551487 7.750437 0.009886
v -4.486835 7.784042 -0.009886
v -4.551487 7.750437 -0.009886
vn 0.4612 -0.8873 -0.0000
vn -0.0000 -0.0000 -1.0000
vn -0.4612 0.8873 -0.0000
vn -0.0000 -0.0000 1.0000
vn 0.8873 0.4612 -0.0000
vn -0.8873 -0.4612 -0.0000
vt 0.521748 0.499718
vt 0.514923 0.506544
vt 0.514923 0.499718
vt 0.521748 0.506544
vt 0.514923 0.513369
vt 0.521748 0.513369
vt 0.518431 0.806383
vt 0.527631 0.846481
vt 0.506738 0.846481
vt 0.508098 0.513369
vt 0.508098 0.520194
vt 0.528573 0.513369
vt 0.519002 0.806383
vt 0.528573 0.520194
s 0
usemtl Catenary
f 150/192/107 151/193/107 149/194/107
f 152/195/108 155/196/108 151/193/108
f 156/197/109 153/198/109 155/196/109
f 153/198/110 150/199/110 149/200/110
f 151/201/111 153/198/111 149/202/111
f 152/203/112 154/204/112 156/197/112
f 150/192/107 152/195/107 151/193/107
f 152/195/108 156/197/108 155/196/108
f 156/197/109 154/204/109 153/198/109
f 153/198/110 154/204/110 150/199/110
f 151/201/111 155/196/111 153/198/111
f 152/203/112 150/205/112 154/204/112
o ArchAngled.008
v -4.352429 7.261920 0.025448
v -4.352428 7.334780 0.025448
v -4.352429 7.261920 0.008635
v -4.352428 7.334780 0.008635
v -2.539288 7.261920 0.024475
v -2.539286 7.334785 0.024475
v -2.539287 7.261920 0.008678
v -2.539286 7.334785 0.008678
v -4.352428 7.261920 -0.007098
v -4.352427 7.334780 -0.007098
v -4.352428 7.261920 -0.024176
v -4.352427 7.334780 -0.024176
v -2.539287 7.261920 -0.008616
v -2.539286 7.334785 -0.008616
v -2.539286 7.261920 -0.025148
v -2.539285 7.334785 -0.025148
vn -1.0000 -0.0000 -0.0000
vn -0.0000 -0.0000 -1.0000
vn 1.0000 -0.0000 -0.0000
vn 0.0005 -0.0000 1.0000
vn -0.0000 -1.0000 -0.0000
vn -0.0000 1.0000 -0.0000
vn -0.0005 -0.0000 -1.0000
vn 0.0008 -0.0000 1.0000
vt 0.513508 0.549339
vt 0.521867 0.557698
vt 0.513508 0.557698
vt 0.531188 0.513198
vt 0.511658 0.532727
vt 0.511658 0.513198
vt 0.523922 0.472988
vt 0.517869 0.479041
vt 0.517869 0.472988
vt 0.534177 0.999999
vt 0.500001 0.000002
vt 0.534177 0.000002
vt 0.511817 0.472988
vt 0.511817 0.479041
vt 0.531698 0.134441
vt 0.509715 0.156423
vt 0.509715 0.134441
vt 0.517869 0.460883
vt 0.523922 0.466936
vt 0.517869 0.466936
vt 0.500001 0.999997
vt 0.534179 0.000002
vt 0.534179 0.999997
vt 0.523922 0.479041
vt 0.511506 0.513343
vt 0.531036 0.532873
vt 0.511506 0.532873
vt 0.521867 0.549339
vt 0.531188 0.532727
vt 0.500001 0.999999
vt 0.531698 0.156423
vt 0.523922 0.460883
vt 0.500001 0.000002
vt 0.531036 0.513343
s 0
usemtl Catenary
f 157/206/113 160/207/113 159/208/113
f 160/209/114 163/210/114 159/211/114
f 164/212/115 161/213/115 163/214/115
f 161/215/116 158/216/116 157/217/116
f 159/218/117 161/213/117 157/219/117
f 160/220/118 162/221/118 164/222/118
f 165/223/113 168/224/113 167/225/113
f 168/226/119 171/227/119 167/228/119
f 171/214/115 170/229/115 169/213/115
f 169/230/120 166/231/120 165/232/120
f 167/218/117 169/213/117 165/219/117
f 168/220/118 170/221/118 172/222/118
f 157/206/113 158/233/113 160/207/113
f 160/209/114 164/234/114 163/210/114
f 164/212/115 162/229/115 161/213/115
f 161/215/116 162/235/116 158/216/116
f 159/218/117 163/214/117 161/213/117
f 160/220/118 158/236/118 162/221/118
f 165/223/113 166/237/113 168/224/113
f 168/226/119 172/238/119 171/227/119
f 171/214/115 172/212/115 170/229/115
f 169/230/120 170/239/120 166/231/120
f 167/218/117 171/214/117 169/213/117
f 168/220/118 166/236/118 170/221/118
o ArchSupport.015
v -2.611068 7.296214 0.009886
v -2.675717 7.262610 0.009886
v -2.611068 7.296214 -0.009886
v -2.675717 7.262610 -0.009886
v -2.863037 7.780958 0.009886
v -2.927689 7.747353 0.009886
v -2.863037 7.780958 -0.009886
v -2.927689 7.747353 -0.009886
vn 0.4612 -0.8873 -0.0000
vn -0.0000 -0.0000 -1.0000
vn -0.4612 0.8873 -0.0000
vn -0.0000 -0.0000 1.0000
vn 0.8873 0.4612 -0.0000
vn -0.8873 -0.4612 -0.0000
vt 0.521748 0.499718
vt 0.514923 0.506544
vt 0.514923 0.499718
vt 0.521748 0.506544
vt 0.514923 0.513369
vt 0.521748 0.513369
vt 0.518431 0.806383
vt 0.527631 0.846481
vt 0.506738 0.846481
vt 0.508098 0.513369
vt 0.508098 0.520194
vt 0.528573 0.513369
vt 0.519002 0.806383
vt 0.528573 0.520194
s 0
usemtl Catenary
f 174/240/121 175/241/121 173/242/121
f 176/243/122 179/244/122 175/241/122
f 180/245/123 177/246/123 179/244/123
f 177/246/124 174/247/124 173/248/124
f 175/249/125 177/246/125 173/250/125
f 176/251/126 178/252/126 180/245/126
f 174/240/121 176/243/121 175/241/121
f 176/243/122 180/245/122 179/244/122
f 180/245/123 178/252/123 177/246/123
f 177/246/124 178/252/124 174/247/124
f 175/249/125 179/244/125 177/246/125
f 176/251/126 174/253/126 178/252/126
o PlatformBracket.007
v 1.028788 6.253494 0.020175
v 0.745406 7.334775 0.020175
v 1.028788 6.253494 -0.020175
v 0.745406 7.334775 -0.020175
v 1.028788 6.500960 0.020175
v 1.028788 6.500960 -0.020175
v 0.869625 7.334775 -0.020175
v 1.125434 6.596335 -0.020175
v 1.125434 6.596335 0.020175
v 0.869625 7.334775 0.020175
v 1.125434 6.253494 -0.020175
v 1.125434 6.253494 0.020175
vn -0.9468 -0.3218 -0.0000
vn -0.0000 -0.0000 1.0000
vn -0.0000 1.0000 -0.0000
vn -1.0000 -0.0000 -0.0000
vn 0.9449 0.3273 -0.0000
vn -0.0000 -1.0000 -0.0000
vn -0.0000 -0.0000 -1.0000
vn 1.0000 -0.0000 -0.0000
vt 0.512690 0.625508
vt 0.529781 0.272340
vt 0.512690 0.268465
vt 0.602537 0.000000
vt 0.568363 0.237868
vt 0.568362 -0.016280
vt 0.532019 0.414207
vt 0.513409 0.488646
vt 0.513409 0.414207
vt 0.602539 0.000001
vt 0.568362 0.080068
vt 0.568362 0.000001
vt 0.529781 0.167525
vt 0.512690 0.167525
vt 0.529781 0.625508
vt 0.512690 0.312737
vt 0.529781 0.312737
vt 0.568358 0.079930
vt 0.534182 0.000000
vt 0.568358 0.000000
vt 0.568360 0.237815
vt 0.534186 0.000000
vt 0.568358 -0.016280
vt 0.602537 0.000001
vt 0.602533 0.237709
vt 0.534184 0.237815
vt 0.602539 0.112020
vt 0.534182 0.108738
vt 0.532019 0.488646
s 0
usemtl Catenary
f 182/254/127 186/255/127 185/256/127
f 189/257/128 182/258/128 185/259/128
f 184/260/129 190/261/129 187/262/129
f 192/263/128 185/264/128 181/265/128
f 185/256/130 183/266/130 181/267/130
f 187/268/131 189/269/131 188/270/131
f 191/266/132 181/267/132 183/266/132
f 186/271/133 191/272/133 183/273/133
f 184/274/133 188/275/133 186/276/133
f 189/277/128 190/278/128 182/258/128
f 184/274/133 187/279/133 188/275/133
f 192/263/128 189/280/128 185/264/128
f 192/263/134 188/281/134 189/280/134
f 182/254/127 184/268/127 186/255/127
f 184/260/129 182/282/129 190/261/129
f 185/256/130 186/255/130 183/266/130
f 187/268/131 190/254/131 189/269/131
f 191/266/132 192/267/132 181/267/132
f 186/271/133 188/281/133 191/272/133
f 192/263/134 191/266/134 188/281/134
o PlatformBracket.008
v -1.028788 6.253494 -0.020175
v -0.745406 7.334775 -0.020175
v -1.028788 6.253494 0.020176
v -0.745406 7.334775 0.020176
v -1.028788 6.500960 -0.020175
v -1.028788 6.500960 0.020176
v -0.869625 7.334775 0.020176
v -1.125434 6.596335 0.020176
v -1.125434 6.596335 -0.020175
v -0.869625 7.334775 -0.020175
v -1.125434 6.253494 0.020176
v -1.125434 6.253494 -0.020175
vn 0.9468 -0.3218 -0.0000
vn -0.0000 -0.0000 -1.0000
vn -0.0000 1.0000 -0.0000
vn 1.0000 -0.0000 -0.0000
vn -0.9449 0.3273 -0.0000
vn -0.0000 -1.0000 -0.0000
vn -0.0000 -0.0000 1.0000
vn -1.0000 -0.0000 -0.0000
vt 0.512690 0.625508
vt 0.529781 0.272340
vt 0.512690 0.268465
vt 0.602537 0.000000
vt 0.568363 0.237868
vt 0.568362 -0.016280
vt 0.532019 0.414207
vt 0.513409 0.488646
vt 0.513409 0.414207
vt 0.602539 0.000001
vt 0.568362 0.080068
vt 0.568362 0.000001
vt 0.529781 0.167525
vt 0.512690 0.167525
vt 0.529781 0.625508
vt 0.512690 0.312737
vt 0.529781 0.312737
vt 0.568358 0.079930
vt 0.534182 0.000000
vt 0.568358 0.000000
vt 0.568360 0.237815
vt 0.534186 0.000000
vt 0.568358 -0.016280
vt 0.602537 0.000001
vt 0.602533 0.237709
vt 0.534184 0.237815
vt 0.602539 0.112020
vt 0.534182 0.108738
vt 0.532019 0.488646
s 0
usemtl Catenary
f 194/283/135 198/284/135 197/285/135
f 201/286/136 194/287/136 197/288/136
f 196/289/137 202/290/137 199/291/137
f 204/292/136 197/293/136 193/294/136
f 197/285/138 195/295/138 193/296/138
f 199/297/139 201/298/139 200/299/139
f 203/295/140 193/296/140 195/295/140
f 198/300/141 203/301/141 195/302/141
f 196/303/141 200/304/141 198/305/141
f 201/306/136 202/307/136 194/287/136
f 196/303/141 199/308/141 200/304/141
f 204/292/136 201/309/136 197/293/136
f 204/292/142 200/310/142 201/309/142
f 194/283/135 196/297/135 198/284/135
f 196/289/137 194/311/137 202/290/137
f 197/285/138 198/284/138 195/295/138
f 199/297/139 202/283/139 201/298/139
f 203/295/140 204/296/140 193/296/140
f 198/300/141 200/310/141 203/301/141
f 204/292/142 203/295/142 200/310/142
o ArchAngled.010
v -2.704973 7.277733 0.036644
v -2.675302 7.344278 0.036644
v -2.704973 7.277733 0.019831
v -2.675302 7.344278 0.019831
v -1.048980 6.539377 0.035671
v -1.019307 6.605925 0.035671
v -1.048980 6.539377 0.019874
v -1.019307 6.605925 0.019874
v -2.704973 7.277733 -0.018302
v -2.675301 7.344278 -0.018302
v -2.704972 7.277733 -0.035380
v -2.675301 7.344278 -0.035380
v -1.048979 6.539376 -0.019821
v -1.019306 6.605925 -0.019821
v -1.048979 6.539376 -0.036353
v -1.019306 6.605925 -0.036353
vn -0.9133 0.4072 -0.0000
vn -0.0000 -0.0000 -1.0000
vn 0.9133 -0.4072 -0.0000
vn 0.0005 -0.0002 1.0000
vn -0.4072 -0.9133 -0.0000
vn 0.4072 0.9133 -0.0000
vn -0.0005 0.0002 -1.0000
vn 0.0008 -0.0003 1.0000
vt 0.513508 0.549339
vt 0.521867 0.557698
vt 0.513508 0.557698
vt 0.531188 0.513198
vt 0.511658 0.532727
vt 0.511658 0.513198
vt 0.523922 0.472988
vt 0.517869 0.479041
vt 0.517869 0.472988
vt 0.534177 0.999999
vt 0.500001 0.000002
vt 0.534177 0.000002
vt 0.511817 0.472988
vt 0.511817 0.479041
vt 0.531698 0.134441
vt 0.509715 0.156423
vt 0.509715 0.134441
vt 0.517869 0.460883
vt 0.523922 0.466936
vt 0.517869 0.466936
vt 0.500001 0.999997
vt 0.534179 0.000002
vt 0.534179 0.999997
vt 0.523922 0.479041
vt 0.511506 0.513343
vt 0.531036 0.532873
vt 0.511506 0.532873
vt 0.521867 0.549339
vt 0.531188 0.532727
vt 0.500001 0.999999
vt 0.531698 0.156423
vt 0.523922 0.460883
vt 0.500001 0.000002
vt 0.531036 0.513343
s 0
usemtl Catenary
f 205/312/143 208/313/143 207/314/143
f 208/315/144 211/316/144 207/317/144
f 212/318/145 209/319/145 211/320/145
f 209/321/146 206/322/146 205/323/146
f 207/324/147 209/319/147 205/325/147
f 208/326/148 210/327/148 212/328/148
f 213/329/143 216/330/143 215/331/143
f 216/332/149 219/333/149 215/334/149
f 219/320/145 218/335/145 217/319/145
f 217/336/150 214/337/150 213/338/150
f 215/324/147 217/319/147 213/325/147
f 216/326/148 218/327/148 220/328/148
f 205/312/143 206/339/143 208/313/143
f 208/315/144 212/340/144 211/316/144
f 212/318/145 210/335/145 209/319/145
f 209/321/146 210/341/146 206/322/146
f 207/324/147 211/320/147 209/319/147
f 208/326/148 206/342/148 210/327/148
f 213/329/143 214/343/143 216/330/143
f 216/332/149 220/344/149 219/333/149
f 219/320/145 220/318/145 218/335/145
f 217/336/150 218/345/150 214/337/150
f 215/324/147 219/320/147 217/319/147
f 216/326/148 214/342/148 218/327/148
