# Blender 5.1.2
# www.blender.org
mtllib half_arch_trolley.mtl
o PlatformTrolley
g half_arch_trolley
v 0.000000 6.030690 -0.050000
v 0.000000 6.080690 -0.050000
v 0.035355 6.030690 -0.035355
v 0.035355 6.080690 -0.035355
v 0.050000 6.030690 -0.000000
v 0.050000 6.080690 -0.000000
v 0.035355 6.030690 0.035355
v 0.035355 6.080690 0.035355
v 0.000000 6.030690 0.050000
v 0.000000 6.080690 0.050000
v -0.035355 6.030690 0.035355
v -0.035355 6.080690 0.035355
v -0.050000 6.030690 -0.000000
v -0.050000 6.080690 -0.000000
v -0.035355 6.030690 -0.035355
v -0.035355 6.080690 -0.035355
v 0.000000 6.030690 -0.013314
v 0.009415 6.030690 -0.009415
v 0.013314 6.030690 -0.000000
v 0.009415 6.030690 0.009415
v 0.000000 6.030690 0.013314
v -0.009415 6.030690 0.009415
v -0.013314 6.030690 -0.000000
v -0.009415 6.030690 -0.009415
v -0.000000 6.007700 -0.013314
v 0.009415 6.007700 -0.009415
v 0.013314 6.007700 -0.000000
v 0.009415 6.007700 0.009415
v -0.000000 6.007700 0.013314
v -0.009415 6.007700 0.009415
v -0.013314 6.007700 -0.000000
v -0.009415 6.007700 -0.009415
v -0.000000 5.999656 -0.013314
v 0.006208 5.999656 -0.009415
v 0.008780 5.999656 -0.000000
v 0.006208 5.999656 0.009415
v -0.000000 5.999656 0.013314
v -0.006208 5.999656 0.009415
v -0.008780 5.999656 -0.000000
v -0.006208 5.999656 -0.009415
v 0.042678 6.080690 -0.017678
v 0.042678 6.080690 0.017678
v -0.042678 6.080690 0.017678
v -0.042678 6.080690 -0.017678
v 0.080000 6.109543 0.017678
v -0.080000 6.109543 -0.017678
v 0.080000 6.109543 -0.017678
v -0.080000 6.109543 0.017678
v 0.080000 6.080690 0.017678
v -0.080000 6.080690 -0.017678
v 0.080000 6.080690 -0.017678
v -0.080000 6.080690 0.017678
v -1.030877 6.369647 -0.004982
v -0.076966 6.104347 -0.004982
v -1.030841 6.368963 -0.008426
v -0.076929 6.103663 -0.008427
v -1.030736 6.367014 -0.011346
v -0.076825 6.101715 -0.011346
v -1.030580 6.364099 -0.013297
v -0.076669 6.098800 -0.013297
v -1.030396 6.360660 -0.013982
v -0.076484 6.095360 -0.013982
v -1.030212 6.357220 -0.013297
v -0.076300 6.091921 -0.013297
v -1.030055 6.354305 -0.011346
v -0.076144 6.089005 -0.011346
v -1.029951 6.352356 -0.008426
v -0.076040 6.087057 -0.008427
v -1.029914 6.351673 -0.004982
v -0.076003 6.086373 -0.004982
v -1.029951 6.352356 -0.001538
v -0.076040 6.087057 -0.001538
v -1.030055 6.354305 0.001382
v -0.076144 6.089005 0.001382
v -1.030212 6.357220 0.003333
v -0.076300 6.091921 0.003333
v -1.030396 6.360660 0.004018
v -0.076484 6.095360 0.004018
v -1.030580 6.364099 0.003333
v -0.076669 6.098800 0.003333
v -1.030736 6.367014 0.001382
v -0.076825 6.101715 0.001382
v -1.030841 6.368963 -0.001538
v -0.076929 6.103663 -0.001538
v 0.072118 6.104528 -0.004982
v 1.033477 6.367147 -0.004982
v 0.072155 6.103845 -0.008427
v 1.033514 6.366463 -0.008426
v 0.072259 6.101896 -0.011346
v 1.033618 6.364515 -0.011346
v 0.072415 6.098981 -0.013297
v 1.033774 6.361599 -0.013297
v 0.072599 6.095541 -0.013982
v 1.033958 6.358160 -0.013982
v 0.072784 6.092102 -0.013297
v 1.034143 6.354721 -0.013297
v 0.072940 6.089187 -0.011346
v 1.034299 6.351805 -0.011346
v 0.073044 6.087238 -0.008427
v 1.034403 6.349857 -0.008426
v 0.073081 6.086555 -0.004982
v 1.034440 6.349173 -0.004982
v 0.073044 6.087238 -0.001538
v 1.034403 6.349857 -0.001538
v 0.072940 6.089187 0.001382
v 1.034299 6.351805 0.001382
v 0.072784 6.092102 0.003333
v 1.034143 6.354721 0.003333
v 0.072599 6.095541 0.004018
v 1.033958 6.358160 0.004018
v 0.072415 6.098981 0.003333
v 1.033774 6.361599 0.003333
v 0.072259 6.101896 0.001382
v 1.033618 6.364515 0.001382
v 0.072155 6.103845 -0.001538
v 1.033514 6.366463 -0.001538
vn -0.0000 -0.0000 -1.0000
vn 0.7071 -0.0000 -0.7071
vn 0.9239 -0.0000 -0.3827
vn 1.0000 -0.0000 -0.0000
vn 0.9239 -0.0000 0.3827
vn 0.7071 -0.0000 0.7071
vn -0.0000 -0.0000 1.0000
vn -0.7071 -0.0000 0.7071
vn -0.9239 -0.0000 0.3827
vn -1.0000 -0.0000 -0.0000
vn -0.0000 1.0000 -0.0000
vn -0.9239 -0.0000 -0.3827
vn -0.7071 -0.0000 -0.7071
vn -0.0000 -0.0447 0.9990
vn -0.0001 -1.0000 -0.0000
vn -0.0000 -1.0000 -0.0000
vn -0.7272 -0.1612 -0.6673
vn -0.8996 -0.4368 -0.0000
vn -0.9708 -0.2398 -0.0000
vn 0.9708 -0.2398 -0.0000
vn -0.0000 -0.0447 -0.9990
vn -0.7272 -0.1612 0.6673
vn 0.7272 -0.1612 0.6673
vn 0.7272 -0.1612 -0.6673
vn -0.7093 -0.2252 0.6680
vn 0.8996 -0.4368 -0.0000
vn 0.7093 -0.2252 -0.6680
vn -0.7093 -0.2252 -0.6680
vn 0.7093 -0.2252 0.6680
vn 0.2679 0.9634 -0.0000
vn 0.2508 0.9016 -0.3525
vn 0.2479 0.8913 -0.3797
vn 0.1994 0.7169 -0.6680
vn 0.1890 0.6794 -0.7090
vn 0.1165 0.4188 -0.9006
vn 0.0975 0.3507 -0.9314
vn 0.0114 0.0409 -0.9991
vn -0.0114 -0.0409 -0.9991
vn -0.0975 -0.3507 -0.9314
vn -0.1165 -0.4188 -0.9006
vn -0.1890 -0.6794 -0.7090
vn -0.1994 -0.7169 -0.6680
vn -0.2479 -0.8913 -0.3798
vn -0.2508 -0.9016 -0.3524
vn -0.2679 -0.9634 -0.0000
vn -0.2508 -0.9016 0.3524
vn -0.2479 -0.8913 0.3798
vn -0.1994 -0.7169 0.6680
vn -0.1890 -0.6794 0.7090
vn -0.1165 -0.4188 0.9006
vn -0.0975 -0.3507 0.9314
vn -0.0114 -0.0409 0.9991
vn 0.0114 0.0409 0.9991
vn 0.0975 0.3507 0.9314
vn 0.1165 0.4188 0.9006
vn 0.1890 0.6794 0.7090
vn 0.1994 0.7169 0.6680
vn 0.2479 0.8913 0.3798
vn 0.2508 0.9016 0.3525
vn -0.2635 0.9647 -0.0000
vn -0.2452 0.8976 -0.3664
vn -0.2432 0.8904 -0.3847
vn -0.1918 0.7020 -0.6859
vn -0.1849 0.6768 -0.7125
vn -0.1087 0.3980 -0.9109
vn -0.0967 0.3539 -0.9303
vn -0.0071 0.0261 -0.9996
vn 0.0071 -0.0261 -0.9996
vn 0.0967 -0.3539 -0.9303
vn 0.1087 -0.3980 -0.9109
vn 0.1849 -0.6768 -0.7125
vn 0.1918 -0.7020 -0.6859
vn 0.2432 -0.8904 -0.3847
vn 0.2452 -0.8976 -0.3664
vn 0.2635 -0.9647 -0.0000
vn 0.2452 -0.8976 0.3664
vn 0.2432 -0.8904 0.3847
vn 0.1918 -0.7020 0.6859
vn 0.1849 -0.6768 0.7125
vn 0.1087 -0.3980 0.9109
vn 0.0967 -0.3539 0.9303
vn 0.0071 -0.0261 0.9996
vn -0.0071 0.0261 0.9996
vn -0.0967 0.3539 0.9303
vn -0.1087 0.3980 0.9109
vn -0.1849 0.6768 0.7125
vn -0.1918 0.7020 0.6859
vn -0.2432 0.8904 0.3847
vn -0.2452 0.8976 0.3664
vn -0.0001 1.0000 -0.0000
vn 0.0001 1.0000 -0.0000
vt 0.959170 0.010573
vt 0.961043 0.009140
vt 0.961043 0.010573
vt 0.959170 0.009140
vt 0.959170 0.008423
vt 0.961043 0.007706
vt 0.959170 0.007706
vt 0.959170 0.006990
vt 0.961043 0.006273
vt 0.959170 0.006273
vt 0.961043 0.004840
vt 0.959170 0.004840
vt 0.961043 0.003407
vt 0.959170 0.003407
vt 0.959170 0.002690
vt 0.961043 0.001973
vt 0.957440 0.003826
vt 0.959170 0.013440
vt 0.959170 0.012723
vt 0.961043 0.012006
vt 0.959170 0.012006
vt 0.701087 0.111798
vt 0.679981 0.100740
vt 0.701731 0.102085
vt 0.962964 0.006017
vt 0.963234 0.005747
vt 0.964503 0.006273
vt 0.679522 0.054976
vt 0.669880 0.048377
vt 0.678422 0.045452
vt 0.702305 0.092360
vt 0.681517 0.082601
vt 0.702628 0.082601
vt 0.702305 0.072842
vt 0.679981 0.064461
vt 0.701731 0.063116
vt 0.701087 0.053403
vt 0.700310 0.121500
vt 0.679522 0.110225
vt 0.680966 0.091434
vt 0.680965 0.073767
vt 0.700310 0.043701
vt 0.671819 0.107428
vt 0.672147 0.100106
vt 0.672950 0.082601
vt 0.672885 0.072500
vt 0.672147 0.065095
vt 0.671818 0.057773
vt 0.669880 0.116824
vt 0.672885 0.092701
vt 0.957440 0.011587
vt 0.958664 0.008633
vt 0.961188 0.086501
vt 0.961188 0.066403
vt 0.967982 0.057615
vt 0.976307 0.095290
vt 0.967982 0.095290
vt 0.957025 0.088225
vt 0.961188 0.095290
vt 0.952863 0.095290
vt 0.952863 0.066403
vt 0.952863 0.086501
vt 0.946069 0.095290
vt 0.952863 0.057615
vt 0.961188 0.050821
vt 0.961188 0.057615
vt 0.952863 0.102083
vt 0.957025 0.064679
vt 0.963490 0.003826
vt 0.962582 0.005096
vt 0.983856 0.014273
vt 0.982981 0.007273
vt 0.983856 0.007273
vt 0.982981 0.014273
vt 0.982106 0.007273
vt 0.982106 0.014273
vt 0.981231 0.007273
vt 0.981231 0.014273
vt 0.980356 0.007273
vt 0.980356 0.014273
vt 0.979481 0.007273
vt 0.979481 0.014273
vt 0.978606 0.007273
vt 0.978606 0.014273
vt 0.977731 0.007273
vt 0.977731 0.014273
vt 0.976856 0.007273
vt 0.975981 0.014273
vt 0.975981 0.007273
vt 0.975106 0.014273
vt 0.975106 0.007273
vt 0.974231 0.014273
vt 0.974231 0.007273
vt 0.973356 0.014273
vt 0.973356 0.007273
vt 0.972481 0.014273
vt 0.972481 0.007273
vt 0.971606 0.014273
vt 0.971606 0.007273
vt 0.970731 0.014273
vt 0.970731 0.007273
vt 0.969856 0.014273
vt 0.969856 0.007273
vt 0.976856 0.014273
vt 0.959170 0.001973
vt 0.958664 0.006780
vt 0.958157 0.003826
vt 0.961043 0.013440
vt 0.963490 0.007287
vt 0.962057 0.007287
vt 0.962313 0.005747
vt 0.962582 0.006017
vt 0.963234 0.005366
vt 0.964503 0.004840
vt 0.678422 0.119749
vt 0.958157 0.011587
vt 0.976307 0.057615
vt 0.946069 0.057615
vt 0.952863 0.050821
vt 0.961188 0.102083
vt 0.962057 0.003826
vt 0.962964 0.005096
vt 0.962313 0.005366
s 1
usemtl Catenary
f 2/1/1 3/2/2 1/3/1
f 4/4/2 41/5/3 5/6/4
f 6/7/4 42/8/5 7/9/6
f 8/10/6 9/11/7 7/9/6
f 10/12/7 11/13/8 9/11/7
f 12/14/8 43/15/9 13/16/10
f 43/17/11 10/12/11 8/10/11
f 14/18/10 44/19/12 15/20/13
f 16/21/13 1/3/1 15/20/13
f 22/22/8 29/23/14 21/24/7
f 18/25/15 17/26/16 1/27/16
f 32/28/17 39/29/18 31/30/19
f 20/31/6 27/32/20 19/33/4
f 18/34/2 25/35/21 17/36/1
f 17/36/1 32/28/17 24/37/13
f 23/38/10 30/39/22 22/22/8
f 21/24/7 28/40/23 20/31/6
f 19/33/4 26/41/24 18/34/2
f 24/37/13 31/30/19 23/42/10
f 29/23/14 38/43/25 37/44/7
f 28/40/23 35/45/26 27/32/20
f 25/35/21 34/46/27 33/47/1
f 25/35/21 40/48/28 32/28/17
f 30/39/22 39/49/18 38/43/25
f 29/23/14 36/50/29 28/40/23
f 26/41/24 35/45/26 34/46/27
f 2/1/11 44/51/11 41/52/11
f 41/53/1 44/54/1 46/55/1
f 46/55/11 45/56/11 47/57/11
f 6/58/16 51/59/16 49/60/16
f 43/61/7 42/62/7 45/63/7
f 52/64/10 46/65/10 50/66/10
f 51/59/4 45/67/4 49/60/4
f 14/68/16 52/64/16 50/66/16
f 9/11/16 13/69/16 22/70/16
f 54/71/30 55/72/31 53/73/30
f 56/74/32 57/75/33 55/72/31
f 58/76/34 59/77/35 57/75/33
f 60/78/36 61/79/37 59/77/35
f 62/80/38 63/81/39 61/79/37
f 64/82/40 65/83/41 63/81/39
f 66/84/42 67/85/43 65/83/41
f 68/86/44 69/87/45 67/85/43
f 69/87/45 72/88/46 71/89/47
f 71/89/47 74/90/48 73/91/49
f 73/91/49 76/92/50 75/93/51
f 75/93/51 78/94/52 77/95/53
f 77/95/53 80/96/54 79/97/55
f 79/97/55 82/98/56 81/99/57
f 81/99/57 84/100/58 83/101/59
f 83/101/59 54/102/30 53/103/30
f 85/73/60 88/74/61 87/72/62
f 87/72/62 90/76/63 89/75/64
f 89/75/64 92/78/65 91/77/66
f 91/77/66 94/80/67 93/79/68
f 93/79/68 96/82/69 95/81/70
f 95/81/70 98/84/71 97/83/72
f 97/83/72 100/86/73 99/85/74
f 99/85/74 102/104/75 101/87/75
f 102/104/75 103/89/76 101/87/75
f 104/88/77 105/91/78 103/89/76
f 106/90/79 107/93/80 105/91/78
f 108/92/81 109/95/82 107/93/80
f 110/94/83 111/97/84 109/95/82
f 112/96/85 113/99/86 111/97/84
f 114/98/87 115/101/88 113/99/86
f 116/100/89 85/103/60 115/101/88
f 2/1/1 4/4/2 3/2/2
f 5/6/4 3/2/2 4/4/2
f 41/5/3 6/7/4 5/6/4
f 7/9/6 5/6/4 6/7/4
f 42/8/5 8/10/6 7/9/6
f 8/10/6 10/12/7 9/11/7
f 10/12/7 12/14/8 11/13/8
f 13/16/10 11/13/8 12/14/8
f 43/15/9 14/105/10 13/16/10
f 8/10/11 42/106/11 43/17/11
f 43/17/11 12/107/90 10/12/11
f 15/20/13 13/108/10 14/18/10
f 44/19/12 16/21/13 15/20/13
f 16/21/13 2/1/1 1/3/1
f 22/22/8 30/39/22 29/23/14
f 3/109/16 5/110/16 7/9/16
f 7/9/16 20/111/16 19/112/15
f 7/9/16 19/112/15 18/25/15
f 1/27/16 3/109/16 7/9/16
f 24/113/16 15/114/16 1/27/16
f 17/26/16 24/113/16 1/27/16
f 1/27/16 7/9/16 18/25/15
f 32/28/17 40/48/28 39/29/18
f 20/31/6 28/40/23 27/32/20
f 18/34/2 26/41/24 25/35/21
f 17/36/1 25/35/21 32/28/17
f 23/38/10 31/115/19 30/39/22
f 21/24/7 29/23/14 28/40/23
f 19/33/4 27/32/20 26/41/24
f 24/37/13 32/28/17 31/30/19
f 29/23/14 30/39/22 38/43/25
f 28/40/23 36/50/29 35/45/26
f 25/35/21 26/41/24 34/46/27
f 25/35/21 33/47/1 40/48/28
f 30/39/22 31/115/19 39/49/18
f 29/23/14 37/44/7 36/50/29
f 26/41/24 27/32/20 35/45/26
f 41/52/11 4/4/91 2/1/11
f 2/1/11 16/116/90 44/51/11
f 46/55/1 47/57/1 51/59/1
f 46/55/1 51/59/1 41/53/1
f 44/54/1 50/66/1 46/55/1
f 46/55/11 48/117/11 45/56/11
f 49/60/16 42/62/16 6/58/16
f 6/58/16 41/53/16 51/59/16
f 45/63/7 48/118/7 52/64/7
f 45/63/7 52/64/7 43/61/7
f 42/62/7 49/60/7 45/63/7
f 52/64/10 48/119/10 46/65/10
f 51/59/4 47/120/4 45/67/4
f 50/66/16 44/54/16 14/68/16
f 14/68/16 43/61/16 52/64/16
f 20/111/16 7/9/16 9/11/16
f 9/11/16 11/121/16 13/69/16
f 13/69/16 15/114/16 24/113/16
f 13/69/16 24/113/16 23/122/16
f 21/123/16 20/111/16 9/11/16
f 13/69/16 23/122/16 22/70/16
f 22/70/16 21/123/16 9/11/16
f 54/71/30 56/74/32 55/72/31
f 56/74/32 58/76/34 57/75/33
f 58/76/34 60/78/36 59/77/35
f 60/78/36 62/80/38 61/79/37
f 62/80/38 64/82/40 63/81/39
f 64/82/40 66/84/42 65/83/41
f 66/84/42 68/86/44 67/85/43
f 68/86/44 70/104/45 69/87/45
f 69/87/45 70/104/45 72/88/46
f 71/89/47 72/88/46 74/90/48
f 73/91/49 74/90/48 76/92/50
f 75/93/51 76/92/50 78/94/52
f 77/95/53 78/94/52 80/96/54
f 79/97/55 80/96/54 82/98/56
f 81/99/57 82/98/56 84/100/58
f 83/101/59 84/100/58 54/102/30
f 85/73/60 86/71/60 88/74/61
f 87/72/62 88/74/61 90/76/63
f 89/75/64 90/76/63 92/78/65
f 91/77/66 92/78/65 94/80/67
f 93/79/68 94/80/67 96/82/69
f 95/81/70 96/82/69 98/84/71
f 97/83/72 98/84/71 100/86/73
f 99/85/74 100/86/73 102/104/75
f 102/104/75 104/88/77 103/89/76
f 104/88/77 106/90/79 105/91/78
f 106/90/79 108/92/81 107/93/80
f 108/92/81 110/94/83 109/95/82
f 110/94/83 112/96/85 111/97/84
f 112/96/85 114/98/87 113/99/86
f 114/98/87 116/100/89 115/101/88
f 116/100/89 86/102/60 85/103/60
o PlatformHalfArchTrolley
v -0.906572 7.261916 0.039922
v -0.906571 7.334776 0.039922
v -0.906572 7.261916 0.020150
v -0.906571 7.334776 0.020150
v 0.906570 7.261916 0.038950
v 0.906571 7.334780 0.038950
v 0.906570 7.261916 0.020177
v 0.906571 7.334780 0.020177
v -0.906571 7.261916 -0.019427
v -0.906570 7.334776 -0.019427
v -0.906571 7.261916 -0.039200
v -0.906570 7.334776 -0.039200
v 0.906571 7.261916 -0.020400
v 0.906572 7.334780 -0.020400
v 0.906571 7.261916 -0.040172
v 0.906572 7.334780 -0.040172
vn -1.0000 -0.0000 -0.0000
vn -0.0000 -0.0000 -1.0000
vn 1.0000 -0.0000 -0.0000
vn 0.0005 -0.0000 1.0000
vn -0.0000 -1.0000 -0.0000
vn -0.0000 1.0000 -0.0000
vn -0.0005 -0.0000 -1.0000
vt 0.513508 0.549339
vt 0.521867 0.557698
vt 0.513508 0.557698
vt 0.531188 0.513198
vt 0.511658 0.532727
vt 0.511658 0.513198
vt 0.523922 0.472988
vt 0.517869 0.479041
vt 0.517869 0.472988
vt 0.534177 0.999999
vt 0.500001 0.000002
vt 0.534177 0.000002
vt 0.511817 0.472988
vt 0.511817 0.479041
vt 0.531698 0.134441
vt 0.509715 0.156423
vt 0.509715 0.134441
vt 0.523922 0.460883
vt 0.517869 0.466936
vt 0.517869 0.460883
vt 0.500001 0.999997
vt 0.534179 0.000002
vt 0.534179 0.999997
vt 0.511506 0.513343
vt 0.531036 0.532873
vt 0.511506 0.532873
vt 0.521867 0.549339
vt 0.531188 0.532727
vt 0.523922 0.479041
vt 0.500001 0.999999
vt 0.531698 0.156423
vt 0.523922 0.466936
vt 0.500001 0.000002
vt 0.531036 0.513343
s 0
usemtl Catenary
f 117/124/92 120/125/92 119/126/92
f 120/127/93 123/128/93 119/129/93
f 124/130/94 121/131/94 123/132/94
f 121/133/95 118/134/95 117/135/95
f 119/136/96 121/131/96 117/137/96
f 120/138/97 122/139/97 124/140/97
f 126/141/92 127/142/92 125/143/92
f 128/144/98 131/145/98 127/146/98
f 132/130/94 129/131/94 131/132/94
f 129/147/95 126/148/95 125/149/95
f 127/136/96 129/131/96 125/137/96
f 128/138/97 130/139/97 132/140/97
f 117/124/92 118/150/92 120/125/92
f 120/127/93 124/151/93 123/128/93
f 124/130/94 122/152/94 121/131/94
f 121/133/95 122/153/95 118/134/95
f 119/136/96 123/132/96 121/131/96
f 120/138/97 118/154/97 122/139/97
f 126/141/92 128/155/92 127/142/92
f 128/144/98 132/156/98 131/145/98
f 132/130/94 130/152/94 129/131/94
f 129/147/95 130/157/95 126/148/95
f 127/136/96 131/132/96 129/131/96
f 128/138/97 126/154/97 130/139/97
o ArchAngled.004
v -2.649727 6.952834 0.025448
v -2.662378 7.024587 0.025448
v -2.649727 6.952834 0.008635
v -2.662378 7.024587 0.008635
v -0.864131 7.267683 0.024475
v -0.876783 7.339440 0.024475
v -0.864131 7.267684 0.008678
v -0.876782 7.339440 0.008678
v -2.649726 6.952834 -0.007098
v -2.662377 7.024588 -0.007098
v -2.649726 6.952834 -0.024176
v -2.662377 7.024588 -0.024176
v -0.864130 7.267684 -0.008616
v -0.876782 7.339441 -0.008616
v -0.864130 7.267684 -0.025148
v -0.876781 7.339441 -0.025148
vn -0.9848 -0.1736 -0.0000
vn -0.0000 -0.0000 -1.0000
vn 0.9848 0.1736 -0.0000
vn 0.0005 0.0001 1.0000
vn 0.1736 -0.9848 -0.0000
vn -0.1737 0.9848 -0.0000
vn -0.0005 -0.0001 -1.0000
vn 0.0008 0.0001 1.0000
vt 0.513508 0.549339
vt 0.521867 0.557698
vt 0.513508 0.557698
vt 0.531188 0.513198
vt 0.511658 0.532727
vt 0.511658 0.513198
vt 0.523922 0.472988
vt 0.517869 0.479041
vt 0.517869 0.472988
vt 0.534177 0.999999
vt 0.500001 0.000002
vt 0.534177 0.000002
vt 0.511817 0.472988
vt 0.511817 0.479041
vt 0.531698 0.134441
vt 0.509715 0.156423
vt 0.509715 0.134441
vt 0.517869 0.460883
vt 0.523922 0.466936
vt 0.517869 0.466936
vt 0.500001 0.999997
vt 0.534179 0.000002
vt 0.534179 0.999997
vt 0.523922 0.479041
vt 0.511506 0.513343
vt 0.531036 0.532873
vt 0.511506 0.532873
vt 0.521867 0.549339
vt 0.531188 0.532727
vt 0.500001 0.999999
vt 0.531698 0.156423
vt 0.523922 0.460883
vt 0.500001 0.000002
vt 0.531036 0.513343
s 0
usemtl Catenary
f 133/158/99 136/159/99 135/160/99
f 136/161/100 139/162/100 135/163/100
f 140/164/101 137/165/101 139/166/101
f 137/167/102 134/168/102 133/169/102
f 135/170/103 137/165/103 133/171/103
f 136/172/104 138/173/104 140/174/104
f 141/175/99 144/176/99 143/177/99
f 144/178/105 147/179/105 143/180/105
f 147/166/101 146/181/101 145/165/101
f 145/182/106 142/183/106 141/184/106
f 143/170/103 145/165/103 141/171/103
f 144/172/104 146/173/104 148/174/104
f 133/158/99 134/185/99 136/159/99
f 136/161/100 140/186/100 139/162/100
f 140/164/101 138/181/101 137/165/101
f 137/167/102 138/187/102 134/168/102
f 135/170/103 139/166/103 137/165/103
f 136/172/104 134/188/104 138/173/104
f 141/175/99 142/189/99 144/176/99
f 144/178/105 148/190/105 147/179/105
f 147/166/101 148/164/101 146/181/101
f 145/182/106 146/191/106 142/183/106
f 143/170/103 147/166/103 145/165/103
f 144/172/104 142/188/104 146/173/104
o ArchSupport.008
v -2.553698 7.007720 0.009886
v -2.611529 6.963401 0.009886
v -2.553698 7.007720 -0.009886
v -2.611529 6.963402 -0.009886
v -2.886014 7.441347 0.009886
v -2.943848 7.397026 0.009886
v -2.886014 7.441347 -0.009886
v -2.943848 7.397026 -0.009886
vn 0.6083 -0.7937 -0.0000
vn -0.0000 -0.0000 -1.0000
vn -0.6083 0.7937 -0.0000
vn -0.0000 -0.0000 1.0000
vn 0.7937 0.6083 -0.0000
vn -0.7937 -0.6083 -0.0000
vt 0.521748 0.499718
vt 0.514923 0.506544
vt 0.514923 0.499718
vt 0.521748 0.506544
vt 0.514923 0.513369
vt 0.521748 0.513369
vt 0.518431 0.806383
vt 0.527631 0.846481
vt 0.506738 0.846481
vt 0.508098 0.513369
vt 0.508098 0.520194
vt 0.528573 0.513369
vt 0.519002 0.806383
vt 0.528573 0.520194
s 0
usemtl Catenary
f 150/192/107 151/193/107 149/194/107
f 152/195/108 155/196/108 151/193/108
f 156/197/109 153/198/109 155/196/109
f 153/198/110 150/199/110 149/200/110
f 151/201/111 153/198/111 149/202/111
f 152/203/112 154/204/112 156/197/112
f 150/192/107 152/195/107 151/193/107
f 152/195/108 156/197/108 155/196/108
f 156/197/109 154/204/109 153/198/109
f 153/198/110 154/204/110 150/199/110
f 151/201/111 155/196/111 153/198/111
f 152/203/112 150/205/112 154/204/112
o ArchSupport.009
v -1.457817 7.197822 0.009886
v -1.515648 7.153503 0.009886
v -1.457817 7.197822 -0.009886
v -1.515648 7.153503 -0.009886
v -1.790133 7.631448 0.009886
v -1.847967 7.587127 0.009886
v -1.790133 7.631448 -0.009886
v -1.847967 7.587127 -0.009886
vn 0.6083 -0.7937 -0.0000
vn -0.0000 -0.0000 -1.0000
vn -0.6083 0.7937 -0.0000
vn -0.0000 -0.0000 1.0000
vn 0.7937 0.6083 -0.0000
vn -0.7937 -0.6083 -0.0000
vt 0.521748 0.499718
vt 0.514923 0.506544
vt 0.514923 0.499718
vt 0.521748 0.506544
vt 0.514923 0.513369
vt 0.521748 0.513369
vt 0.518431 0.806383
vt 0.527631 0.846481
vt 0.506738 0.846481
vt 0.508098 0.513369
vt 0.508098 0.520194
vt 0.528573 0.513369
vt 0.519002 0.806383
vt 0.528573 0.520194
s 0
usemtl Catenary
f 158/206/113 159/207/113 157/208/113
f 160/209/114 163/210/114 159/207/114
f 164/211/115 161/212/115 163/210/115
f 161/212/116 158/213/116 157/214/116
f 159/215/117 161/212/117 157/216/117
f 160/217/118 162/218/118 164/211/118
f 158/206/113 160/209/113 159/207/113
f 160/209/114 164/211/114 163/210/114
f 164/211/115 162/218/115 161/212/115
f 161/212/116 162/218/116 158/213/116
f 159/215/117 163/210/117 161/212/117
f 160/217/118 158/219/118 162/218/118
o PlatformBracket.003
v 1.028788 6.253494 0.020175
v 0.745406 7.334775 0.020175
v 1.028788 6.253494 -0.020175
v 0.745406 7.334775 -0.020175
v 1.028788 6.500960 0.020175
v 1.028788 6.500960 -0.020175
v 0.869625 7.334775 -0.020175
v 1.125434 6.596335 -0.020175
v 1.125434 6.596335 0.020175
v 0.869625 7.334775 0.020175
v 1.125434 6.253494 -0.020175
v 1.125434 6.253494 0.020175
vn -0.9468 -0.3218 -0.0000
vn -0.0000 -0.0000 1.0000
vn -0.0000 1.0000 -0.0000
vn -1.0000 -0.0000 -0.0000
vn 0.9449 0.3273 -0.0000
vn -0.0000 -1.0000 -0.0000
vn -0.0000 -0.0000 -1.0000
vn 1.0000 -0.0000 -0.0000
vt 0.512690 0.625508
vt 0.529781 0.272340
vt 0.512690 0.268465
vt 0.602537 0.000000
vt 0.568363 0.237868
vt 0.568362 -0.016280
vt 0.532019 0.414207
vt 0.513409 0.488646
vt 0.513409 0.414207
vt 0.602539 0.000001
vt 0.568362 0.080068
vt 0.568362 0.000001
vt 0.529781 0.167525
vt 0.512690 0.167525
vt 0.529781 0.625508
vt 0.512690 0.312737
vt 0.529781 0.312737
vt 0.568358 0.079930
vt 0.534182 0.000000
vt 0.568358 0.000000
vt 0.568360 0.237815
vt 0.534186 0.000000
vt 0.568358 -0.016280
vt 0.602537 0.000001
vt 0.602533 0.237709
vt 0.534184 0.237815
vt 0.602539 0.112020
vt 0.534182 0.108738
vt 0.532019 0.488646
s 0
usemtl Catenary
f 166/220/119 170/221/119 169/222/119
f 173/223/120 166/224/120 169/225/120
f 168/226/121 174/227/121 171/228/121
f 176/229/120 169/230/120 165/231/120
f 169/222/122 167/232/122 165/233/122
f 171/234/123 173/235/123 172/236/123
f 175/232/124 165/233/124 167/232/124
f 170/237/125 175/238/125 167/239/125
f 168/240/125 172/241/125 170/242/125
f 173/243/120 174/244/120 166/224/120
f 168/240/125 171/245/125 172/241/125
f 176/229/120 173/246/120 169/230/120
f 176/229/126 172/247/126 173/246/126
f 166/220/119 168/234/119 170/221/119
f 168/226/121 166/248/121 174/227/121
f 169/222/122 170/221/122 167/232/122
f 171/234/123 174/220/123 173/235/123
f 175/232/124 176/233/124 165/233/124
f 170/237/125 172/247/125 175/238/125
f 176/229/126 175/232/126 172/247/126
o PlatformBracket.004
v -1.028788 6.253494 -0.020175
v -0.745406 7.334775 -0.020175
v -1.028788 6.253494 0.020176
v -0.745406 7.334775 0.020176
v -1.028788 6.500960 -0.020175
v -1.028788 6.500960 0.020176
v -0.869625 7.334775 0.020176
v -1.125434 6.596335 0.020176
v -1.125434 6.596335 -0.020175
v -0.869625 7.334775 -0.020175
v -1.125434 6.253494 0.020176
v -1.125434 6.253494 -0.020175
vn 0.9468 -0.3218 -0.0000
vn -0.0000 -0.0000 -1.0000
vn -0.0000 1.0000 -0.0000
vn 1.0000 -0.0000 -0.0000
vn -0.9449 0.3273 -0.0000
vn -0.0000 -1.0000 -0.0000
vn -0.0000 -0.0000 1.0000
vn -1.0000 -0.0000 -0.0000
vt 0.512690 0.625508
vt 0.529781 0.272340
vt 0.512690 0.268465
vt 0.602537 0.000000
vt 0.568363 0.237868
vt 0.568362 -0.016280
vt 0.532019 0.414207
vt 0.513409 0.488646
vt 0.513409 0.414207
vt 0.602539 0.000001
vt 0.568362 0.080068
vt 0.568362 0.000001
vt 0.529781 0.167525
vt 0.512690 0.167525
vt 0.529781 0.625508
vt 0.512690 0.312737
vt 0.529781 0.312737
vt 0.568358 0.079930
vt 0.534182 0.000000
vt 0.568358 0.000000
vt 0.568360 0.237815
vt 0.534186 0.000000
vt 0.568358 -0.016280
vt 0.602537 0.000001
vt 0.602533 0.237709
vt 0.534184 0.237815
vt 0.602539 0.112020
vt 0.534182 0.108738
vt 0.532019 0.488646
s 0
usemtl Catenary
f 178/249/127 182/250/127 181/251/127
f 185/252/128 178/253/128 181/254/128
f 180/255/129 186/256/129 183/257/129
f 188/258/128 181/259/128 177/260/128
f 181/251/130 179/261/130 177/262/130
f 183/263/131 185/264/131 184/265/131
f 187/261/132 177/262/132 179/261/132
f 182/266/133 187/267/133 179/268/133
f 180/269/133 184/270/133 182/271/133
f 185/272/128 186/273/128 178/253/128
f 180/269/133 183/274/133 184/270/133
f 188/258/128 185/275/128 181/259/128
f 188/258/134 184/276/134 185/275/134
f 178/249/127 180/263/127 182/250/127
f 180/255/129 178/277/129 186/256/129
f 181/251/130 182/250/130 179/261/130
f 183/263/131 186/249/131 185/264/131
f 187/261/132 188/262/132 177/262/132
f 182/266/133 184/276/133 187/267/133
f 188/258/134 187/261/134 184/276/134
