# Blender 5.0.1
# www.blender.org
mtllib battery_panel_hatch.mtl
g BatteryPanelHatch.001_Mesh
v -0.000000 -0.381275 0.365179
v -0.000000 -0.365617 0.380838
v -0.000000 -0.379113 0.373249
v -0.000000 -0.373687 0.378675
v -0.000000 0.365617 0.380838
v -0.000000 0.381275 0.365179
v -0.000000 0.373687 0.378675
v -0.000000 0.379112 0.373249
v -0.000000 -0.365617 0.005002
v -0.000000 -0.381275 0.020661
v -0.000000 -0.373687 0.007165
v -0.000000 -0.379113 0.012591
v -0.000000 0.381275 0.020661
v -0.000000 0.365617 0.005002
v -0.000000 0.379112 0.012591
v -0.000000 0.373687 0.007165
v 0.010198 -0.366012 0.383838
v 0.008198 -0.366275 0.385837
v 0.009612 -0.366198 0.385252
v 0.010198 -0.384275 0.365574
v 0.008198 -0.386275 0.365838
v 0.009612 -0.385689 0.365760
v 0.010198 -0.375240 0.381365
v 0.008198 -0.376275 0.383158
v 0.009612 -0.375972 0.382633
v 0.010198 -0.381802 0.374802
v 0.008198 -0.383595 0.375838
v 0.009612 -0.383070 0.375534
v 0.010198 0.384275 0.365574
v 0.008198 0.386275 0.365838
v 0.009612 0.385689 0.365760
v 0.010198 0.366012 0.383838
v 0.008198 0.366275 0.385837
v 0.009612 0.366198 0.385252
v 0.010198 0.381802 0.374802
v 0.008198 0.383595 0.375838
v 0.009612 0.383070 0.375534
v 0.010198 0.375239 0.381365
v 0.008198 0.376275 0.383158
v 0.009612 0.375972 0.382633
v 0.010198 -0.384275 0.020266
v 0.008198 -0.386275 0.020002
v 0.009612 -0.385689 0.020079
v 0.010198 -0.366012 0.002002
v 0.008198 -0.366275 0.000002
v 0.009612 -0.366198 0.000588
v 0.010198 -0.381802 0.011038
v 0.008198 -0.383595 0.010002
v 0.009612 -0.383070 0.010306
v 0.010198 -0.375240 0.004475
v 0.008198 -0.376275 0.002682
v 0.009612 -0.375972 0.003207
v 0.010198 0.366012 0.002002
v 0.008198 0.366275 0.000002
v 0.009612 0.366198 0.000588
v 0.010198 0.384275 0.020266
v 0.008198 0.386275 0.020002
v 0.009612 0.385689 0.020079
v 0.010198 0.375239 0.004475
v 0.008198 0.376275 0.002682
v 0.009612 0.375972 0.003207
v 0.010198 0.381802 0.011038
v 0.008198 0.383595 0.010002
v 0.009612 0.383070 0.010306
v -0.000000 -0.386275 0.020002
v -0.000000 -0.383595 0.010002
v -0.000000 -0.376275 0.002682
v 0.000000 -0.366275 0.000002
v -0.000000 0.383595 0.010002
v -0.000000 0.386275 0.020002
v -0.000000 0.376275 0.002682
v 0.000000 0.366275 0.000002
v -0.000000 -0.383595 0.375838
v -0.000000 -0.386275 0.365838
v -0.000000 -0.376275 0.383158
v -0.000000 -0.366275 0.385837
v -0.000000 0.386275 0.365838
v -0.000000 0.383595 0.375838
v -0.000000 0.376275 0.383158
v -0.000000 0.366275 0.385837
v 0.005198 -0.381275 0.020661
v 0.005198 -0.379113 0.012591
v 0.005198 -0.373687 0.007165
v 0.005198 -0.365617 0.005002
v 0.005198 0.379112 0.012591
v 0.005198 0.381275 0.020661
v 0.005198 0.373687 0.007165
v 0.005198 0.365617 0.005002
v 0.005198 -0.379113 0.373249
v 0.005198 -0.381275 0.365179
v 0.005198 -0.373687 0.378675
v 0.005198 -0.365617 0.380838
v 0.005198 0.381275 0.365179
v 0.005198 0.379112 0.373249
v 0.005198 0.373687 0.378675
v 0.005198 0.365617 0.380838
vn -0.0000 -0.9914 0.1305
vn -0.0000 -0.9914 -0.1305
vn 0.9284 -0.3217 -0.1857
vn 0.6937 -0.7141 -0.0940
vn 0.6854 -0.6306 -0.3641
vn 0.3855 -0.9148 -0.1204
vn 0.3941 -0.7959 -0.4595
vn 0.6854 -0.3641 -0.6306
vn 0.9284 -0.1857 -0.3217
vn 0.3941 -0.4595 -0.7959
vn 0.6937 -0.0940 -0.7141
vn 0.9250 -0.0496 -0.3766
vn 0.3855 -0.1204 -0.9148
vn 0.9284 0.3217 -0.1857
vn 0.6937 0.7141 -0.0940
vn 0.9250 0.3766 -0.0496
vn 0.6854 0.6306 -0.3641
vn 0.3855 0.9148 -0.1204
vn 0.6854 0.3641 -0.6306
vn 0.3941 0.4595 -0.7959
vn 0.3941 0.7959 -0.4595
vn 0.9284 0.1857 -0.3217
vn 0.6937 0.0940 -0.7141
vn 0.3855 0.1204 -0.9148
vn 0.9284 -0.3217 0.1857
vn 0.6937 -0.7141 0.0940
vn 0.9250 -0.3766 0.0496
vn 0.6854 -0.6306 0.3641
vn 0.3855 -0.9148 0.1204
vn 0.9284 -0.1857 0.3217
vn 0.3941 -0.4595 0.7959
vn 0.3941 -0.7959 0.4595
vn 0.6937 -0.0940 0.7141
vn 0.6854 -0.3641 0.6306
vn 0.3855 -0.1204 0.9148
vn 0.9284 0.3217 0.1857
vn 0.6937 0.7141 0.0940
vn 0.6854 0.6306 0.3641
vn 0.3855 0.9148 0.1204
vn 0.3941 0.7959 0.4595
vn 0.9284 0.1857 0.3217
vn 0.6854 0.3641 0.6306
vn 0.3941 0.4595 0.7959
vn 0.6937 0.0940 0.7141
vn 0.9250 0.0496 0.3766
vn 0.3855 0.1204 0.9148
vn 0.9250 -0.3766 -0.0496
vn 0.9250 -0.0496 0.3766
vn 0.9250 0.3766 0.0496
vn 0.9250 0.0496 -0.3766
vn 1.0000 -0.0000 -0.0000
vn -0.0000 -0.5000 0.8660
vn -0.0000 -0.1305 0.9914
vn -0.0000 0.1305 0.9914
vn -0.0000 -0.8660 0.5000
vn -0.0000 0.9914 0.1305
vn -0.0000 0.8660 0.5000
vn -0.0000 0.9914 -0.1305
vn -0.0000 0.5000 0.8660
vn -0.0000 -0.8660 -0.5000
vn -0.0000 -0.5000 -0.8660
vn -0.0000 -0.1305 -0.9914
vn -0.0000 0.1305 -0.9914
vn -0.0000 0.5000 -0.8660
vn -0.0000 0.8660 -0.5000
vn -1.0000 -0.0000 -0.0000
vn -1.0000 -0.0000 -0.0001
vt 0.186500 0.960971
vt 0.185253 0.878314
vt 0.186500 0.878314
vt 0.591777 0.848722
vt 0.590817 0.850884
vt 0.591446 0.848539
vt 0.590458 0.850806
vt 0.591101 0.848407
vt 0.593156 0.846823
vt 0.593351 0.847147
vt 0.591453 0.848526
vt 0.592923 0.846537
vt 0.595514 0.846188
vt 0.595565 0.846554
vt 0.593168 0.846816
vt 0.595436 0.845828
vt 0.774980 0.848722
vt 0.775940 0.850884
vt 0.775574 0.850935
vt 0.775312 0.848539
vt 0.776299 0.850806
vt 0.773601 0.846823
vt 0.775304 0.848526
vt 0.773834 0.846537
vt 0.775591 0.848293
vt 0.773406 0.847147
vt 0.771244 0.846188
vt 0.773589 0.846816
vt 0.771321 0.845828
vt 0.773720 0.846471
vt 0.591777 0.935996
vt 0.590817 0.933834
vt 0.591184 0.933782
vt 0.591446 0.936179
vt 0.590458 0.933911
vt 0.593352 0.937570
vt 0.591453 0.936191
vt 0.592923 0.938181
vt 0.591167 0.936424
vt 0.595514 0.938530
vt 0.593169 0.937901
vt 0.595436 0.938889
vt 0.593037 0.938246
vt 0.774980 0.935996
vt 0.775940 0.933834
vt 0.775312 0.936179
vt 0.776299 0.933911
vt 0.775657 0.936310
vt 0.773406 0.937570
vt 0.775304 0.936191
vt 0.773601 0.937894
vt 0.773834 0.938181
vt 0.771244 0.938530
vt 0.771192 0.938163
vt 0.773589 0.937901
vt 0.771321 0.938889
vt 0.590816 0.850891
vt 0.591184 0.850936
vt 0.590816 0.933826
vt 0.590449 0.850872
vt 0.595521 0.938531
vt 0.595565 0.938163
vt 0.771237 0.938531
vt 0.595502 0.938898
vt 0.775941 0.933826
vt 0.775574 0.933782
vt 0.775941 0.850891
vt 0.776308 0.933845
vt 0.771237 0.846187
vt 0.771192 0.846554
vt 0.595502 0.845819
vt 0.771255 0.845819
vt 0.594927 0.940789
vt 0.592528 0.940146
vt 0.771255 0.938898
vt 0.595502 0.940865
vt 0.588482 0.933845
vt 0.588482 0.850872
vt 0.589201 0.936819
vt 0.588558 0.934420
vt 0.591532 0.939571
vt 0.589776 0.937815
vt 0.778199 0.934420
vt 0.778275 0.850872
vt 0.776308 0.850872
vt 0.774229 0.940146
vt 0.773720 0.938246
vt 0.776982 0.937815
vt 0.775591 0.936424
vt 0.588558 0.850297
vt 0.593037 0.846471
vt 0.594927 0.843928
vt 0.771255 0.843853
vt 0.595502 0.843853
vt 0.589776 0.846902
vt 0.591167 0.848293
vt 0.771830 0.843928
vt 0.774229 0.844571
vt 0.777556 0.847898
vt 0.778199 0.850297
vt 0.775225 0.845146
vt 0.776981 0.846902
vt 0.587959 0.847898
vt 0.587440 0.849834
vt 0.590457 0.844525
vt 0.589155 0.845827
vt 0.592528 0.843329
vt 0.592528 0.844571
vt 0.778798 0.847898
vt 0.776301 0.844525
vt 0.774229 0.843329
vt 0.772293 0.842810
vt 0.587959 0.936819
vt 0.590457 0.940192
vt 0.592528 0.941388
vt 0.594464 0.941907
vt 0.778798 0.936819
vt 0.779317 0.934883
vt 0.776301 0.940192
vt 0.777602 0.938891
vt 0.774229 0.941388
vt 0.771830 0.940789
vt 0.587283 0.851030
vt 0.587283 0.933687
vt 0.595660 0.942065
vt 0.771255 0.940865
vt 0.771097 0.942065
vt 0.779475 0.933687
vt 0.779475 0.851030
vt 0.771097 0.842653
vt 0.595660 0.842653
vt 0.181496 0.964728
vt 0.002302 0.960971
vt 0.004055 0.873310
vt 0.002214 0.874557
vt 0.002214 0.873310
vt 0.001055 0.960971
vt 0.002302 0.962975
vt 0.001055 0.962975
vt 0.006059 0.965975
vt 0.181496 0.965975
vt 0.006059 0.873310
vt 0.004055 0.874557
vt 0.002214 0.965975
vt 0.004055 0.964728
vt 0.004055 0.965975
vt 0.185253 0.876310
vt 0.186500 0.876310
vt 0.006059 0.964728
vt 0.185342 0.873310
vt 0.183501 0.874557
vt 0.183501 0.873310
vt 0.186500 0.962975
vt 0.185253 0.960971
vt 0.181496 0.874557
vt 0.181496 0.873310
vt 0.183501 0.965975
vt 0.185342 0.964728
vt 0.185342 0.965975
vt 0.001055 0.878314
vt 0.183501 0.964728
vt 0.006059 0.874557
vt 0.001055 0.876310
vt 0.002302 0.878314
vt 0.775657 0.848407
vt 0.591101 0.936310
vt 0.593156 0.937894
vt 0.590449 0.933845
vt 0.595521 0.846187
vt 0.777556 0.936819
vt 0.778275 0.933845
vt 0.775225 0.939571
vt 0.589201 0.847898
vt 0.591532 0.845146
vt 0.594464 0.842810
vt 0.779317 0.849834
vt 0.777602 0.845827
vt 0.587440 0.934883
vt 0.589155 0.938891
vt 0.772293 0.941907
vt 0.002821 0.876378
vt 0.004123 0.875076
vt 0.183432 0.875076
vt 0.184734 0.876378
vt 0.184734 0.962907
vt 0.183432 0.964209
vt 0.004123 0.964209
vt 0.002821 0.962907
vt 0.002214 0.964728
vt 0.185342 0.874557
vt 0.185253 0.962975
vt 0.002302 0.876310
s 1
usemtl Panels
f 13/1/1 93/2/2 6/3/2
f 47/4/3 43/5/4 49/6/5
f 49/6/5 42/7/6 48/8/7
f 47/4/3 52/9/8 50/10/9
f 49/11/5 51/12/10 52/9/8
f 50/10/9 46/13/11 44/14/12
f 52/15/8 45/16/13 46/13/11
f 62/17/14 58/18/15 56/19/16
f 64/20/17 57/21/18 58/18/15
f 62/17/14 61/22/19 64/23/17
f 64/23/17 60/24/20 63/25/21
f 59/26/22 55/27/23 61/28/19
f 61/28/19 54/29/24 60/30/20
f 26/31/25 22/32/26 20/33/27
f 28/34/28 21/35/29 22/32/26
f 23/36/30 28/37/28 26/31/25
f 28/37/28 24/38/31 27/39/32
f 23/36/30 19/40/33 25/41/34
f 25/41/34 18/42/35 24/43/31
f 35/44/36 31/45/37 37/46/38
f 37/46/38 30/47/39 36/48/40
f 38/49/41 37/50/38 40/51/42
f 37/50/38 39/52/43 40/51/42
f 38/49/41 34/53/44 32/54/45
f 40/55/42 33/56/46 34/53/44
f 20/33/27 43/57/4 41/58/47
f 22/59/26 42/60/6 43/57/4
f 32/54/45 19/61/33 17/62/48
f 34/63/44 18/64/35 19/61/33
f 56/19/16 31/65/37 29/66/49
f 58/67/15 30/68/39 31/65/37
f 44/14/12 55/69/23 53/70/50
f 55/69/23 45/71/13 54/72/24
f 56/19/51 32/54/51 20/33/51
f 24/43/52 76/73/53 75/74/52
f 33/75/54 76/76/53 18/64/53
f 42/60/2 74/77/1 65/78/2
f 21/35/1 73/79/55 74/80/1
f 27/39/55 75/81/52 73/82/55
f 77/83/56 36/48/57 30/47/56
f 70/84/58 30/68/56 57/85/58
f 79/86/59 33/56/54 39/87/59
f 78/88/57 39/52/59 36/89/57
f 65/90/2 48/8/60 42/7/2
f 51/91/61 68/92/62 45/16/62
f 72/93/63 45/71/62 68/94/62
f 66/95/60 51/12/61 48/96/60
f 60/30/64 72/97/63 71/98/64
f 57/21/58 69/99/65 70/100/58
f 63/25/65 71/101/64 69/102/65
f 12/103/66 65/90/66 10/104/66
f 11/105/66 66/95/66 12/106/66
f 11/107/66 68/92/67 67/108/66
f 15/109/66 70/100/66 69/99/66
f 16/110/66 69/102/66 71/101/66
f 16/111/66 72/97/67 14/112/67
f 3/113/66 74/80/66 73/79/66
f 4/114/66 73/82/66 75/81/66
f 4/115/66 76/73/66 2/116/66
f 8/117/66 77/83/66 6/118/66
f 7/119/66 78/88/66 8/120/66
f 7/121/66 80/122/66 79/86/66
f 10/123/66 74/77/66 1/124/66
f 2/125/66 80/126/66 5/127/66
f 6/128/66 70/84/66 13/129/66
f 14/130/67 68/94/67 9/131/67
f 93/2/66 88/132/66 81/133/66
f 4/134/64 89/135/65 3/136/65
f 10/137/56 82/138/57 12/139/57
f 9/140/54 88/132/53 14/141/53
f 2/142/63 91/143/64 4/134/64
f 12/144/57 83/145/59 11/146/59
f 6/3/2 94/147/60 8/148/60
f 11/146/59 84/149/54 9/140/54
f 8/150/60 95/151/61 7/152/61
f 15/153/55 86/154/1 13/1/1
f 7/152/61 96/155/62 5/156/62
f 16/157/52 85/158/55 15/159/55
f 1/160/58 81/133/56 10/137/56
f 14/141/53 87/161/52 16/157/52
f 5/156/62 92/162/63 2/142/63
f 3/163/65 90/164/58 1/160/58
f 13/1/1 86/154/1 93/2/2
f 47/4/3 41/58/47 43/5/4
f 49/6/5 43/5/4 42/7/6
f 47/4/3 49/11/5 52/9/8
f 49/11/5 48/96/7 51/12/10
f 50/10/9 52/15/8 46/13/11
f 52/15/8 51/91/10 45/16/13
f 62/17/14 64/20/17 58/18/15
f 64/20/17 63/165/21 57/21/18
f 62/17/14 59/26/22 61/22/19
f 64/23/17 61/22/19 60/24/20
f 59/26/22 53/70/50 55/27/23
f 61/28/19 55/27/23 54/29/24
f 26/31/25 28/34/28 22/32/26
f 28/34/28 27/166/32 21/35/29
f 23/36/30 25/167/34 28/37/28
f 28/37/28 25/167/34 24/38/31
f 23/36/30 17/62/48 19/40/33
f 25/41/34 19/40/33 18/42/35
f 35/44/36 29/66/49 31/45/37
f 37/46/38 31/45/37 30/47/39
f 38/49/41 35/44/36 37/50/38
f 37/50/38 36/89/40 39/52/43
f 38/49/41 40/55/42 34/53/44
f 40/55/42 39/87/43 33/56/46
f 20/33/27 22/59/26 43/57/4
f 22/59/26 21/168/29 42/60/6
f 32/54/45 34/63/44 19/61/33
f 34/63/44 33/75/46 18/64/35
f 56/19/16 58/67/15 31/65/37
f 58/67/15 57/85/18 30/68/39
f 44/14/12 46/169/11 55/69/23
f 55/69/23 46/169/11 45/71/13
f 20/33/51 41/58/51 47/4/51
f 47/4/51 50/10/51 44/14/51
f 44/14/51 53/70/51 59/26/51
f 59/26/51 62/17/51 56/19/51
f 56/19/51 29/66/51 35/44/51
f 35/44/51 38/49/51 32/54/51
f 32/54/51 17/62/51 23/36/51
f 23/36/51 26/31/51 20/33/51
f 20/33/51 47/4/51 44/14/51
f 44/14/51 59/26/51 56/19/51
f 56/19/51 35/44/51 32/54/51
f 32/54/51 23/36/51 20/33/51
f 20/33/51 44/14/51 56/19/51
f 24/43/52 18/42/53 76/73/53
f 33/75/54 80/126/54 76/76/53
f 42/60/2 21/168/1 74/77/1
f 21/35/1 27/166/55 73/79/55
f 27/39/55 24/38/52 75/81/52
f 77/83/56 78/170/57 36/48/57
f 70/84/58 77/171/56 30/68/56
f 79/86/59 80/122/54 33/56/54
f 78/88/57 79/172/59 39/52/59
f 65/90/2 66/173/60 48/8/60
f 51/91/61 67/108/61 68/92/62
f 72/93/63 54/72/63 45/71/62
f 66/95/60 67/174/61 51/12/61
f 60/30/64 54/29/63 72/97/63
f 57/21/58 63/165/65 69/99/65
f 63/25/65 60/24/64 71/101/64
f 12/103/66 66/173/66 65/90/66
f 11/105/66 67/174/66 66/95/66
f 11/107/66 9/175/67 68/92/67
f 15/109/66 13/176/66 70/100/66
f 16/110/66 15/177/66 69/102/66
f 16/111/66 71/98/66 72/97/67
f 3/113/66 1/178/66 74/80/66
f 4/114/66 3/179/66 73/82/66
f 4/115/66 75/74/66 76/73/66
f 8/117/66 78/170/66 77/83/66
f 7/119/66 79/172/66 78/88/66
f 7/121/66 5/180/66 80/122/66
f 10/123/66 65/78/66 74/77/66
f 2/125/66 76/76/66 80/126/66
f 6/128/66 77/171/66 70/84/66
f 14/130/67 72/93/67 68/94/67
f 81/133/66 90/164/66 89/181/66
f 89/181/66 91/182/66 92/162/66
f 92/162/66 96/155/66 95/183/66
f 95/183/66 94/184/66 93/2/66
f 93/2/66 86/154/66 85/185/66
f 85/185/66 87/186/66 88/132/66
f 88/132/66 84/149/66 83/187/66
f 83/187/66 82/188/66 81/133/66
f 81/133/66 89/181/66 92/162/66
f 92/162/66 95/183/66 93/2/66
f 93/2/66 85/185/66 88/132/66
f 88/132/66 83/187/66 81/133/66
f 81/133/66 92/162/66 93/2/66
f 4/134/64 91/143/64 89/135/65
f 10/137/56 81/133/56 82/138/57
f 9/140/54 84/149/54 88/132/53
f 2/142/63 92/162/63 91/143/64
f 12/144/57 82/189/57 83/145/59
f 6/3/2 93/2/2 94/147/60
f 11/146/59 83/145/59 84/149/54
f 8/150/60 94/190/60 95/151/61
f 15/153/55 85/191/55 86/154/1
f 7/152/61 95/151/61 96/155/62
f 16/157/52 87/161/52 85/158/55
f 1/160/58 90/164/58 81/133/56
f 14/141/53 88/132/53 87/161/52
f 5/156/62 96/155/62 92/162/63
f 3/163/65 89/192/65 90/164/58
g DoorHandle.140_Mesh
v 0.009994 -0.050037 0.320408
v 0.013123 -0.050036 0.323016
v 0.034605 -0.049481 0.323016
v 0.041645 -0.046263 0.323016
v 0.046939 -0.040624 0.323016
v 0.049705 -0.033405 0.323016
v 0.049706 0.033407 0.323016
v 0.046938 0.040629 0.323016
v 0.041636 0.046260 0.323016
v 0.034593 0.049457 0.323016
v 0.013137 0.049971 0.323016
v 0.010008 0.049965 0.320408
v 0.009998 0.058879 0.324101
v 0.013129 0.057042 0.325945
v 0.036219 0.056339 0.325945
v 0.045752 0.052009 0.325945
v 0.052929 0.044386 0.325945
v 0.056674 0.034610 0.325945
v 0.056676 -0.034588 0.325945
v 0.052945 -0.044357 0.325945
v 0.045791 -0.051992 0.325945
v 0.036275 -0.056352 0.325945
v 0.013125 -0.057107 0.325945
v 0.009996 -0.058952 0.324101
v 0.009993 0.062572 0.333016
v 0.013125 0.059971 0.333016
v 0.036893 0.059189 0.333016
v 0.047458 0.054390 0.333016
v 0.055410 0.045941 0.333016
v 0.059561 0.035107 0.333016
v 0.059565 -0.035072 0.333016
v 0.055435 -0.045899 0.333016
v 0.047512 -0.054361 0.333016
v 0.036972 -0.059197 0.333016
v 0.013125 -0.060036 0.333016
v 0.009997 -0.062645 0.333016
v 0.009998 0.058879 0.341931
v 0.013129 0.057042 0.340087
v 0.036219 0.056339 0.340087
v 0.045752 0.052009 0.340087
v 0.052929 0.044386 0.340087
v 0.056674 0.034610 0.340087
v 0.056676 -0.034588 0.340087
v 0.052945 -0.044357 0.340087
v 0.045791 -0.051992 0.340087
v 0.036275 -0.056352 0.340087
v 0.013125 -0.057107 0.340087
v 0.009996 -0.058952 0.341931
v 0.010008 0.049965 0.345623
v 0.013137 0.049971 0.343016
v 0.034593 0.049457 0.343016
v 0.041636 0.046260 0.343016
v 0.046938 0.040629 0.343016
v 0.049706 0.033407 0.343016
v 0.049705 -0.033405 0.343016
v 0.046939 -0.040624 0.343016
v 0.041645 -0.046263 0.343016
v 0.034605 -0.049481 0.343016
v 0.013123 -0.050036 0.343016
v 0.009994 -0.050037 0.345623
v 0.010019 0.041050 0.341931
v 0.013145 0.042899 0.340087
v 0.032969 0.042575 0.340087
v 0.037522 0.040508 0.340087
v 0.040949 0.036869 0.340087
v 0.042739 0.032202 0.340087
v 0.042736 -0.032203 0.340087
v 0.040944 -0.036875 0.340087
v 0.037514 -0.040524 0.340087
v 0.032954 -0.042606 0.340087
v 0.013121 -0.042965 0.340087
v 0.009992 -0.041123 0.341931
v 0.010023 0.037357 0.333016
v 0.013149 0.039971 0.333016
v 0.032298 0.039724 0.333016
v 0.035819 0.038126 0.333016
v 0.038469 0.035311 0.333016
v 0.039853 0.031702 0.333016
v 0.039851 -0.031700 0.333016
v 0.038464 -0.035317 0.333016
v 0.035808 -0.038143 0.333016
v 0.032276 -0.039756 0.333016
v 0.013120 -0.040036 0.333016
v 0.009991 -0.037430 0.333016
v 0.010019 0.041050 0.324101
v 0.013145 0.042899 0.325945
v 0.032969 0.042575 0.325945
v 0.037522 0.040508 0.325945
v 0.040949 0.036869 0.325945
v 0.042739 0.032202 0.325945
v 0.042736 -0.032203 0.325945
v 0.040944 -0.036875 0.325945
v 0.037514 -0.040524 0.325945
v 0.032954 -0.042606 0.325945
v 0.013121 -0.042965 0.325945
v 0.009992 -0.041123 0.324101
vn 0.6400 0.5434 -0.5432
vn 0.6402 0.0002 -0.7682
vn 0.6402 0.0001 -0.7682
vn 0.0206 0.7113 0.7026
vn 0.0112 0.0472 0.9988
vn 0.1656 0.7103 0.6841
vn -0.3975 0.5541 -0.7314
vn 0.0112 -0.0472 -0.9988
vn -0.1511 0.6630 -0.7332
vn -0.5776 0.3624 -0.7314
vn 0.0274 -0.0383 -0.9989
vn -0.6720 0.1246 -0.7300
vn 0.0399 -0.0250 -0.9989
vn -0.6720 -0.1245 -0.7300
vn 0.0401 0.0252 -0.9989
vn 0.0437 0.0086 -0.9990
vn -0.5774 -0.3626 -0.7315
vn 0.0275 0.0385 -0.9989
vn -0.3966 -0.5546 -0.7315
vn 0.0112 0.0472 -0.9988
vn 0.0013 0.0053 1.0000
vn -0.1499 -0.6634 0.7331
vn 0.6411 -0.5423 -0.5431
vn 0.6402 0.0007 -0.7682
vn 0.6402 0.0009 -0.7682
vn 0.6399 0.7684 -0.0000
vn -0.2204 0.9754 -0.0000
vn -0.0115 0.7056 0.7086
vn -0.1511 0.6630 0.7332
vn -0.5830 0.8125 -0.0000
vn -0.8471 0.5314 -0.0000
vn -0.8469 -0.5318 -0.0000
vn -0.9832 -0.1825 -0.0000
vn -0.5816 -0.8134 -0.0000
vn -0.2185 -0.9758 -0.0000
vn -0.0102 -0.7056 0.7085
vn 0.6414 -0.7672 -0.0000
vn 0.6411 -0.5424 -0.5430
vn 0.6400 0.5434 0.5432
vn 0.0309 0.9995 -0.0000
vn 0.2277 0.9737 -0.0000
vn -0.3975 0.5541 0.7314
vn -0.5776 0.3624 0.7314
vn -0.6720 0.1246 0.7300
vn -0.9832 0.1826 -0.0000
vn 0.0112 -0.0472 0.9988
vn 0.0221 -0.7114 0.7025
vn 0.1675 -0.7099 0.6840
vn -0.6720 -0.1245 0.7300
vn -0.5774 -0.3626 0.7315
vn -0.3966 -0.5546 0.7315
vn -0.0115 0.7056 -0.7086
vn -0.0146 0.9999 -0.0000
vn 0.6411 -0.5424 0.5430
vn 0.6411 -0.5423 0.5431
vn 0.6402 0.0002 0.7682
vn 0.6402 0.0001 0.7682
vn 0.0013 -0.0053 -1.0000
vn 0.0274 -0.0383 0.9989
vn 0.0399 -0.0250 0.9989
vn 0.0436 -0.0086 -0.9990
vn 0.0436 -0.0086 0.9990
vn 0.0437 0.0086 0.9990
vn 0.0401 0.0252 0.9989
vn 0.0275 0.0385 0.9989
vn 0.0013 -0.0053 1.0000
vn 0.6402 0.0007 0.7682
vn 0.6402 0.0009 0.7682
vn 0.6404 -0.5430 0.5432
vn 0.0221 -0.7114 -0.7025
vn 0.4259 -0.5919 0.6843
vn 0.6182 -0.3867 0.6843
vn 0.7159 -0.1321 -0.6856
vn 0.6176 0.3877 0.6842
vn 0.7158 0.1326 0.6856
vn 0.4243 0.5931 0.6842
vn 0.0206 0.7113 -0.7026
vn 0.1656 0.7103 -0.6841
vn 0.6393 0.5441 0.5434
vn 0.6393 0.5442 0.5433
vn 0.6405 -0.7680 -0.0000
vn 0.2308 -0.9730 -0.0000
vn 0.5845 -0.8114 -0.0000
vn 0.8481 -0.5298 -0.0000
vn 0.7159 -0.1321 0.6856
vn 0.7158 0.1326 -0.6856
vn 0.9836 -0.1805 -0.0000
vn 0.8470 0.5316 -0.0000
vn 0.9834 0.1814 -0.0000
vn 0.5819 0.8133 -0.0000
vn 0.6390 0.7692 -0.0000
vn 0.6404 -0.5430 -0.5432
vn 0.0331 -0.9995 -0.0000
vn 0.4259 -0.5919 -0.6843
vn 0.1675 -0.7099 -0.6840
vn 0.6182 -0.3867 -0.6843
vn -0.0102 -0.7056 -0.7085
vn -0.0129 -0.9999 -0.0000
vn 0.6176 0.3877 -0.6842
vn 0.4243 0.5931 -0.6842
vn 0.6393 0.5442 -0.5433
vn 0.0013 0.0053 -1.0000
vn -0.1499 -0.6634 -0.7331
vn 0.6393 0.5441 -0.5434
vt 0.748776 0.532780
vt 0.746315 0.533235
vt 0.746536 0.532223
vt 0.739558 0.571641
vt 0.738631 0.565526
vt 0.740304 0.565788
vt 0.746713 0.540832
vt 0.745052 0.538875
vt 0.746997 0.539314
vt 0.746618 0.542372
vt 0.744775 0.540660
vt 0.746709 0.543886
vt 0.744714 0.542397
vt 0.746702 0.560514
vt 0.744706 0.562007
vt 0.744858 0.560295
vt 0.746611 0.562030
vt 0.744766 0.563744
vt 0.746705 0.563570
vt 0.745044 0.565529
vt 0.737365 0.571166
vt 0.736686 0.565081
vt 0.748471 0.570585
vt 0.746579 0.572174
vt 0.746306 0.571170
vt 0.751142 0.533613
vt 0.748476 0.533820
vt 0.734483 0.539827
vt 0.735226 0.533814
vt 0.736701 0.539310
vt 0.749214 0.539833
vt 0.749062 0.541145
vt 0.748946 0.542501
vt 0.748941 0.561902
vt 0.748837 0.560575
vt 0.749058 0.563256
vt 0.749210 0.564564
vt 0.735199 0.570579
vt 0.734466 0.564558
vt 0.750568 0.569923
vt 0.748813 0.571604
vt 0.732561 0.533605
vt 0.734928 0.532774
vt 0.741835 0.571878
vt 0.741837 0.565876
vt 0.736984 0.540827
vt 0.737077 0.542368
vt 0.734634 0.541138
vt 0.736984 0.543882
vt 0.734749 0.542495
vt 0.748841 0.543830
vt 0.738646 0.538872
vt 0.739576 0.532759
vt 0.740317 0.538619
vt 0.736977 0.560510
vt 0.734737 0.561896
vt 0.734842 0.560569
vt 0.737068 0.562026
vt 0.734619 0.563250
vt 0.736972 0.563566
vt 0.750570 0.534481
vt 0.734857 0.571598
vt 0.733103 0.569915
vt 0.737388 0.533232
vt 0.737168 0.532219
vt 0.738922 0.540657
vt 0.738981 0.542394
vt 0.744866 0.544108
vt 0.738828 0.544106
vt 0.738822 0.560292
vt 0.738972 0.562005
vt 0.738911 0.563742
vt 0.737091 0.572170
vt 0.739393 0.531701
vt 0.744127 0.532761
vt 0.740474 0.540585
vt 0.740498 0.542428
vt 0.743302 0.544275
vt 0.740490 0.561977
vt 0.740385 0.560132
vt 0.740463 0.563820
vt 0.744112 0.571643
vt 0.743371 0.565790
vt 0.739327 0.572708
vt 0.741852 0.532514
vt 0.741852 0.531287
vt 0.741849 0.538535
vt 0.741848 0.540562
vt 0.741847 0.542436
vt 0.740391 0.544274
vt 0.743294 0.560133
vt 0.741847 0.544328
vt 0.741839 0.561972
vt 0.741840 0.560081
vt 0.741838 0.563847
vt 0.741834 0.573133
vt 0.744311 0.531703
vt 0.743223 0.540587
vt 0.743381 0.538620
vt 0.743197 0.542429
vt 0.743188 0.561978
vt 0.743213 0.563821
vt 0.734852 0.543824
vt 0.746990 0.565085
vt 0.744342 0.572710
vt 0.733132 0.534473
vt 0.751142 0.570792
vt 0.732529 0.570784
s 1
usemtl SideHatch
f 192/193/68 98/194/69 97/195/70
f 134/196/71 147/197/72 135/198/73
f 189/199/74 99/200/75 190/201/76
f 188/202/77 100/203/78 189/199/74
f 187/204/79 101/205/80 188/202/77
f 186/206/81 104/207/82 103/208/83
f 185/209/84 105/210/85 104/207/82
f 184/211/86 106/212/87 105/210/85
f 146/213/88 159/214/89 147/197/72
f 182/215/90 108/216/91 107/217/92
f 180/218/93 191/219/68 192/193/68
f 178/220/94 167/221/95 166/222/96
f 178/223/94 189/199/74 190/201/76
f 177/224/97 188/202/77 189/199/74
f 176/225/98 187/204/79 188/202/77
f 173/226/99 186/206/81 174/227/100
f 172/228/101 185/209/84 173/226/99
f 171/229/102 184/211/86 172/228/101
f 158/230/103 171/231/102 159/214/89
f 170/232/104 181/233/105 182/215/90
f 167/221/106 180/234/93 168/235/106
f 122/236/107 135/198/73 123/237/108
f 165/238/109 178/220/94 166/222/96
f 164/239/110 177/240/97 165/238/109
f 163/241/111 176/242/98 164/239/110
f 186/206/81 175/243/112 174/227/100
f 154/244/113 143/245/114 142/246/115
f 162/247/116 173/248/99 174/249/100
f 161/250/117 172/251/101 173/248/99
f 160/252/118 171/231/102 172/251/101
f 178/223/94 191/219/119 179/253/120
f 157/254/121 170/255/104 158/230/122
f 155/256/123 168/235/106 156/257/124
f 190/201/76 98/194/125 191/219/119
f 154/244/113 165/238/109 166/222/96
f 153/258/126 164/239/110 165/238/109
f 152/259/127 163/241/111 164/239/110
f 186/206/81 102/260/128 187/204/79
f 162/247/116 151/261/129 150/262/130
f 149/263/131 162/247/116 150/262/130
f 148/264/132 161/250/117 149/263/131
f 147/197/72 160/252/118 148/264/132
f 166/222/96 155/256/133 154/244/113
f 145/265/134 158/230/122 146/213/135
f 143/245/136 156/257/124 144/266/136
f 99/200/75 119/267/137 98/194/125
f 142/246/115 153/258/126 154/244/113
f 141/268/138 152/259/127 153/258/126
f 140/269/139 151/261/129 152/259/127
f 103/208/83 115/270/140 102/260/128
f 137/271/141 150/262/130 138/272/142
f 136/273/143 149/263/131 137/271/141
f 135/198/73 148/264/132 136/273/143
f 106/212/87 110/274/144 111/275/145
f 133/276/146 146/213/135 134/196/147
f 131/277/148 144/266/136 132/278/148
f 130/279/149 141/268/138 142/246/115
f 129/280/150 140/269/139 141/268/138
f 128/281/151 139/282/152 140/269/139
f 114/283/153 127/284/154 115/270/140
f 125/285/155 138/272/142 126/286/156
f 124/287/157 137/271/141 125/285/155
f 123/237/108 136/273/143 124/287/157
f 122/236/107 111/275/145 110/274/144
f 121/288/158 134/196/147 122/236/158
f 120/289/159 131/277/148 132/278/148
f 142/246/115 131/277/160 130/279/149
f 117/290/161 130/279/149 118/291/162
f 116/292/163 129/280/150 117/290/161
f 115/270/140 128/281/151 116/292/163
f 138/272/142 127/284/154 126/286/156
f 182/215/164 171/229/102 170/232/165
f 114/283/153 125/285/155 126/286/156
f 113/293/166 124/287/157 125/285/155
f 112/294/167 123/237/108 124/287/157
f 118/291/162 131/277/160 119/267/137
f 110/274/168 121/288/158 122/236/158
f 97/195/70 119/267/159 120/289/159
f 162/247/116 175/295/112 163/241/111
f 100/203/78 118/291/162 99/200/75
f 101/205/80 117/290/161 100/203/78
f 102/260/128 116/292/163 101/205/80
f 107/217/169 183/296/170 182/215/164
f 150/262/130 139/282/152 138/272/142
f 103/208/83 113/293/166 114/283/153
f 104/207/82 112/294/167 113/293/166
f 105/210/85 111/275/145 112/294/167
f 107/217/92 109/297/171 110/274/168
f 192/193/68 191/219/68 98/194/69
f 134/196/71 146/213/88 147/197/72
f 189/199/74 100/203/78 99/200/75
f 188/202/77 101/205/80 100/203/78
f 187/204/79 102/260/128 101/205/80
f 186/206/81 185/209/84 104/207/82
f 185/209/84 184/211/86 105/210/85
f 184/211/86 183/296/170 106/212/87
f 146/213/88 158/230/103 159/214/89
f 182/215/90 181/233/105 108/216/91
f 180/218/93 179/253/93 191/219/68
f 178/220/94 179/298/120 167/221/95
f 178/223/94 177/224/97 189/199/74
f 177/224/97 176/225/98 188/202/77
f 176/225/98 175/243/112 187/204/79
f 173/226/99 185/209/84 186/206/81
f 172/228/101 184/211/86 185/209/84
f 171/229/102 183/296/170 184/211/86
f 158/230/103 170/255/165 171/231/102
f 170/232/104 169/299/104 181/233/105
f 167/221/106 179/298/93 180/234/93
f 122/236/107 134/196/71 135/198/73
f 165/238/109 177/240/97 178/220/94
f 164/239/110 176/242/98 177/240/97
f 163/241/111 175/295/112 176/242/98
f 186/206/81 187/204/79 175/243/112
f 154/244/113 155/256/133 143/245/114
f 162/247/116 161/250/117 173/248/99
f 161/250/117 160/252/118 172/251/101
f 160/252/118 159/214/89 171/231/102
f 178/223/94 190/201/76 191/219/119
f 157/254/121 169/300/104 170/255/104
f 155/256/123 167/221/106 168/235/106
f 190/201/76 99/200/75 98/194/125
f 154/244/113 153/258/126 165/238/109
f 153/258/126 152/259/127 164/239/110
f 152/259/127 151/261/129 163/241/111
f 186/206/81 103/208/83 102/260/128
f 162/247/116 163/241/111 151/261/129
f 149/263/131 161/250/117 162/247/116
f 148/264/132 160/252/118 161/250/117
f 147/197/72 159/214/89 160/252/118
f 166/222/96 167/221/95 155/256/133
f 145/265/134 157/254/121 158/230/122
f 143/245/136 155/256/123 156/257/124
f 99/200/75 118/291/162 119/267/137
f 142/246/115 141/268/138 153/258/126
f 141/268/138 140/269/139 152/259/127
f 140/269/139 139/282/152 151/261/129
f 103/208/83 114/283/153 115/270/140
f 137/271/141 149/263/131 150/262/130
f 136/273/143 148/264/132 149/263/131
f 135/198/73 147/197/72 148/264/132
f 106/212/87 107/217/169 110/274/144
f 133/276/146 145/265/134 146/213/135
f 131/277/148 143/245/136 144/266/136
f 130/279/149 129/280/150 141/268/138
f 129/280/150 128/281/151 140/269/139
f 128/281/151 127/284/154 139/282/152
f 114/283/153 126/286/156 127/284/154
f 125/285/155 137/271/141 138/272/142
f 124/287/157 136/273/143 137/271/141
f 123/237/108 135/198/73 136/273/143
f 122/236/107 123/237/108 111/275/145
f 121/288/158 133/276/146 134/196/147
f 120/289/159 119/267/159 131/277/148
f 142/246/115 143/245/114 131/277/160
f 117/290/161 129/280/150 130/279/149
f 116/292/163 128/281/151 129/280/150
f 115/270/140 127/284/154 128/281/151
f 138/272/142 139/282/152 127/284/154
f 182/215/164 183/296/170 171/229/102
f 114/283/153 113/293/166 125/285/155
f 113/293/166 112/294/167 124/287/157
f 112/294/167 111/275/145 123/237/108
f 118/291/162 130/279/149 131/277/160
f 110/274/168 109/297/171 121/288/158
f 97/195/70 98/194/69 119/267/159
f 162/247/116 174/249/100 175/295/112
f 100/203/78 117/290/161 118/291/162
f 101/205/80 116/292/163 117/290/161
f 102/260/128 115/270/140 116/292/163
f 107/217/169 106/212/87 183/296/170
f 150/262/130 151/261/129 139/282/152
f 103/208/83 104/207/82 113/293/166
f 104/207/82 105/210/85 112/294/167
f 105/210/85 106/212/87 111/275/145
f 107/217/92 108/216/91 109/297/171
