# Blender 5.0.1
# www.blender.org
mtllib cab_sliding_window.mtl
o SlidingWindowExport
g cab_sliding_window
v -0.009870 -0.269799 0.193200
v -0.009870 0.269799 0.193200
v -0.009870 -0.269799 -0.193200
v -0.009870 0.269799 -0.193200
v 0.009870 -0.269799 0.193200
v 0.009870 0.269799 0.193200
v 0.009870 -0.269799 -0.193200
v 0.009870 0.269799 -0.193200
v -0.009870 -0.309799 -0.233200
v -0.009870 -0.309799 0.233200
v -0.009870 0.309799 0.233200
v -0.009870 0.309799 -0.233200
v 0.009870 0.309799 -0.233200
v 0.009870 -0.309799 -0.233200
v 0.009870 -0.309799 0.233200
v 0.009870 0.309799 0.233200
vn -0.0000 -0.0000 -1.0000
vn -0.0000 -0.0000 1.0000
vn -0.0000 -1.0000 -0.0000
vn -0.0000 1.0000 -0.0000
vn -1.0000 -0.0000 -0.0000
vn 1.0000 -0.0000 -0.0000
vt 0.862680 0.118378
vt 0.859495 0.018405
vt 0.862680 0.018405
vt 0.784241 0.118378
vt 0.781056 0.018405
vt 0.784241 0.018405
vt 0.784241 0.015220
vt 0.859495 0.015220
vt 0.859495 0.121563
vt 0.859495 0.118378
vt 0.853041 0.008765
vt 0.790695 0.008765
vt 0.774601 0.024859
vt 0.781056 0.118378
vt 0.774601 0.111924
vt 0.790695 0.128017
vt 0.853041 0.128017
vt 0.869135 0.111924
vt 0.869135 0.024859
vt 0.853041 0.024859
vt 0.853041 0.111924
vt 0.790695 0.024859
vt 0.790695 0.111924
vt 0.790695 0.131202
vt 0.872320 0.024859
vt 0.771416 0.024859
vt 0.853041 0.005580
vt 0.784241 0.121563
vt 0.853041 0.131203
vt 0.872320 0.111924
vt 0.771416 0.111924
vt 0.790695 0.005580
s 0
usemtl MovingParts
f 12/1/1 14/2/1 9/3/1
f 16/4/2 10/5/2 15/6/2
f 14/2/3 10/7/3 9/8/3
f 12/9/4 16/4/4 13/10/4
f 3/11/5 10/7/5 1/12/5
f 1/13/5 11/14/5 2/15/5
f 2/16/5 12/9/5 4/17/5
f 4/18/5 9/3/5 3/19/5
f 7/20/6 13/10/6 8/21/6
f 5/22/6 14/2/6 7/20/6
f 8/21/6 16/4/6 6/23/6
f 6/23/6 15/6/6 5/22/6
f 4/17/3 6/24/3 2/16/3
f 7/25/2 4/18/2 3/19/2
f 2/15/1 5/26/1 1/13/1
f 1/12/4 7/27/4 3/11/4
f 12/1/1 13/10/1 14/2/1
f 16/4/2 11/14/2 10/5/2
f 14/2/3 15/6/3 10/7/3
f 12/9/4 11/28/4 16/4/4
f 3/11/5 9/8/5 10/7/5
f 1/13/5 10/5/5 11/14/5
f 2/16/5 11/28/5 12/9/5
f 4/18/5 12/1/5 9/3/5
f 7/20/6 14/2/6 13/10/6
f 5/22/6 15/6/6 14/2/6
f 8/21/6 13/10/6 16/4/6
f 6/23/6 16/4/6 15/6/6
f 4/17/3 8/29/3 6/24/3
f 7/25/2 8/30/2 4/18/2
f 2/15/1 6/31/1 5/26/1
f 1/12/4 5/32/4 7/27/4
o DoorHandle.047
v 0.009873 0.304146 -0.050039
v 0.013002 0.301538 -0.050038
v 0.034485 0.301538 -0.049483
v 0.041524 0.301538 -0.046265
v 0.046819 0.301538 -0.040626
v 0.049584 0.301538 -0.033407
v 0.049586 0.301538 0.033405
v 0.046818 0.301538 0.040627
v 0.041516 0.301538 0.046258
v 0.034472 0.301538 0.049455
v 0.013017 0.301538 0.049969
v 0.009888 0.304146 0.049963
v 0.009877 0.300453 0.058878
v 0.013008 0.298609 0.057040
v 0.036098 0.298609 0.056337
v 0.045632 0.298609 0.052007
v 0.052808 0.298609 0.044384
v 0.056554 0.298609 0.034608
v 0.056556 0.298609 -0.034589
v 0.052824 0.298609 -0.044359
v 0.045670 0.298609 -0.051993
v 0.036154 0.298609 -0.056354
v 0.013004 0.298609 -0.057109
v 0.009876 0.300453 -0.058954
v 0.009873 0.291538 0.062570
v 0.013005 0.291538 0.059969
v 0.036772 0.291538 0.059187
v 0.047337 0.291538 0.054388
v 0.055290 0.291538 0.045939
v 0.059440 0.291538 0.035105
v 0.059444 0.291538 -0.035074
v 0.055315 0.291538 -0.045901
v 0.047392 0.291538 -0.054363
v 0.036852 0.291538 -0.059199
v 0.013005 0.291538 -0.060038
v 0.009877 0.291538 -0.062647
v 0.009877 0.282623 0.058878
v 0.013008 0.284467 0.057040
v 0.036098 0.284467 0.056337
v 0.045632 0.284467 0.052007
v 0.052808 0.284467 0.044384
v 0.056554 0.284467 0.034608
v 0.056556 0.284467 -0.034589
v 0.052824 0.284467 -0.044359
v 0.045670 0.284467 -0.051993
v 0.036154 0.284467 -0.056354
v 0.013004 0.284467 -0.057109
v 0.009876 0.282623 -0.058954
v 0.009888 0.278931 0.049963
v 0.013017 0.281538 0.049969
v 0.034472 0.281538 0.049455
v 0.041516 0.281538 0.046258
v 0.046818 0.281538 0.040627
v 0.049586 0.281538 0.033405
v 0.049584 0.281538 -0.033407
v 0.046819 0.281538 -0.040626
v 0.041524 0.281538 -0.046265
v 0.034485 0.281538 -0.049483
v 0.013002 0.281538 -0.050038
v 0.009874 0.278931 -0.050039
v 0.009898 0.282623 0.041048
v 0.013025 0.284467 0.042898
v 0.032849 0.284467 0.042573
v 0.037402 0.284467 0.040507
v 0.040829 0.284467 0.036867
v 0.042618 0.284467 0.032200
v 0.042616 0.284467 -0.032205
v 0.040824 0.284467 -0.036877
v 0.037394 0.284467 -0.040526
v 0.032834 0.284467 -0.042608
v 0.013001 0.284467 -0.042967
v 0.009871 0.282623 -0.041125
v 0.009903 0.291538 0.037355
v 0.013028 0.291538 0.039969
v 0.032177 0.291538 0.039722
v 0.035698 0.291538 0.038124
v 0.038349 0.291538 0.035309
v 0.039732 0.291538 0.031700
v 0.039731 0.291538 -0.031702
v 0.038343 0.291538 -0.035319
v 0.035688 0.291538 -0.038145
v 0.032155 0.291538 -0.039758
v 0.013000 0.291538 -0.040038
v 0.009870 0.291538 -0.037432
v 0.009898 0.300453 0.041048
v 0.013025 0.298609 0.042898
v 0.032849 0.298609 0.042573
v 0.037402 0.298609 0.040507
v 0.040829 0.298609 0.036867
v 0.042618 0.298609 0.032200
v 0.042616 0.298609 -0.032205
v 0.040824 0.298609 -0.036877
v 0.037394 0.298609 -0.040526
v 0.032834 0.298609 -0.042608
v 0.013001 0.298609 -0.042967
v 0.009871 0.300453 -0.041125
vn 0.6400 0.5432 0.5434
vn 0.6402 0.7682 0.0002
vn 0.6402 0.7682 0.0001
vn 0.0206 -0.7026 0.7113
vn 0.0112 -0.9988 0.0472
vn 0.1656 -0.6841 0.7103
vn -0.3975 0.7314 0.5541
vn 0.0112 0.9988 -0.0472
vn -0.1511 0.7332 0.6630
vn -0.5776 0.7314 0.3624
vn 0.0274 0.9989 -0.0383
vn -0.6720 0.7300 0.1246
vn 0.0399 0.9989 -0.0250
vn -0.6720 0.7300 -0.1245
vn 0.0401 0.9989 0.0252
vn 0.0437 0.9990 0.0086
vn -0.5774 0.7315 -0.3626
vn 0.0275 0.9989 0.0385
vn -0.3966 0.7315 -0.5546
vn 0.0112 0.9988 0.0472
vn 0.0013 -1.0000 0.0053
vn -0.1499 -0.7331 -0.6634
vn 0.6411 0.5431 -0.5423
vn 0.6402 0.7682 0.0007
vn 0.6402 0.7682 0.0009
vn 0.6399 -0.0000 0.7684
vn -0.2204 -0.0000 0.9754
vn -0.0115 -0.7086 0.7056
vn -0.1511 -0.7332 0.6630
vn -0.5830 -0.0000 0.8125
vn -0.8471 -0.0000 0.5314
vn -0.8469 -0.0000 -0.5318
vn -0.9832 -0.0000 -0.1825
vn -0.5816 -0.0000 -0.8134
vn -0.2185 -0.0000 -0.9758
vn -0.0102 -0.7085 -0.7056
vn 0.6414 -0.0000 -0.7672
vn 0.6411 0.5430 -0.5424
vn 0.6400 -0.5432 0.5434
vn 0.0309 -0.0000 0.9995
vn 0.2277 -0.0000 0.9737
vn -0.3975 -0.7314 0.5541
vn -0.5776 -0.7314 0.3624
vn -0.6720 -0.7300 0.1246
vn -0.9832 -0.0000 0.1826
vn 0.0112 -0.9988 -0.0472
vn 0.0221 -0.7025 -0.7114
vn 0.1675 -0.6840 -0.7099
vn -0.6720 -0.7300 -0.1245
vn -0.5774 -0.7315 -0.3626
vn -0.3966 -0.7315 -0.5546
vn -0.0115 0.7086 0.7056
vn -0.0146 -0.0000 0.9999
vn 0.6411 -0.5430 -0.5424
vn 0.6411 -0.5431 -0.5423
vn 0.6402 -0.7682 0.0002
vn 0.6402 -0.7682 0.0001
vn 0.0013 1.0000 -0.0053
vn 0.0274 -0.9989 -0.0383
vn 0.0399 -0.9989 -0.0250
vn 0.0436 0.9990 -0.0086
vn 0.0436 -0.9990 -0.0086
vn 0.0437 -0.9990 0.0086
vn 0.0401 -0.9989 0.0252
vn 0.0275 -0.9989 0.0385
vn 0.0013 -1.0000 -0.0053
vn 0.6402 -0.7682 0.0007
vn 0.6402 -0.7682 0.0009
vn 0.6404 -0.5432 -0.5430
vn 0.0221 0.7025 -0.7114
vn 0.4259 -0.6843 -0.5919
vn 0.6182 -0.6843 -0.3867
vn 0.7159 0.6856 -0.1321
vn 0.6176 -0.6842 0.3877
vn 0.7158 -0.6856 0.1326
vn 0.4243 -0.6842 0.5931
vn 0.0206 0.7026 0.7113
vn 0.1656 0.6841 0.7103
vn 0.6393 -0.5434 0.5441
vn 0.6393 -0.5433 0.5442
vn 0.6405 -0.0000 -0.7680
vn 0.2308 -0.0000 -0.9730
vn 0.5845 -0.0000 -0.8114
vn 0.8481 -0.0000 -0.5298
vn 0.7159 -0.6856 -0.1321
vn 0.7158 0.6856 0.1326
vn 0.9836 -0.0000 -0.1805
vn 0.8470 -0.0000 0.5316
vn 0.9834 -0.0000 0.1814
vn 0.5819 -0.0000 0.8133
vn 0.6390 -0.0000 0.7692
vn 0.6404 0.5432 -0.5430
vn 0.0331 -0.0000 -0.9995
vn 0.4259 0.6843 -0.5919
vn 0.1675 0.6840 -0.7099
vn 0.6182 0.6843 -0.3867
vn -0.0102 0.7085 -0.7056
vn -0.0129 -0.0000 -0.9999
vn 0.6176 0.6842 0.3877
vn 0.4243 0.6842 0.5931
vn 0.6393 0.5433 0.5442
vn 0.0013 1.0000 0.0053
vn -0.1499 0.7331 -0.6634
vn 0.6393 0.5434 0.5441
vt 0.959083 0.235413
vt 0.959311 0.236650
vt 0.958802 0.236539
vt 0.978617 0.240046
vt 0.975543 0.240512
vt 0.975675 0.239672
vt 0.963130 0.236450
vt 0.962146 0.237285
vt 0.962367 0.236307
vt 0.963904 0.236498
vt 0.963043 0.237424
vt 0.964665 0.236452
vt 0.963916 0.237455
vt 0.973024 0.236455
vt 0.973774 0.237459
vt 0.972913 0.237383
vt 0.973786 0.236502
vt 0.974647 0.237429
vt 0.974560 0.236454
vt 0.975544 0.237289
vt 0.978378 0.241149
vt 0.975319 0.241490
vt 0.978086 0.235566
vt 0.978884 0.236517
vt 0.978380 0.236655
vt 0.959501 0.234224
vt 0.959605 0.235564
vt 0.962625 0.242598
vt 0.959602 0.242224
vt 0.962365 0.241483
vt 0.962628 0.235193
vt 0.963287 0.235269
vt 0.963969 0.235328
vt 0.973721 0.235330
vt 0.973054 0.235382
vt 0.974402 0.235271
vt 0.975059 0.235195
vt 0.978083 0.242238
vt 0.975056 0.242606
vt 0.977753 0.234512
vt 0.978598 0.235394
vt 0.959497 0.243564
vt 0.959080 0.242374
vt 0.978736 0.238902
vt 0.975719 0.238901
vt 0.963128 0.241341
vt 0.963902 0.241294
vt 0.963284 0.242522
vt 0.964663 0.241340
vt 0.963966 0.242464
vt 0.964637 0.235380
vt 0.962145 0.240505
vt 0.959072 0.240037
vt 0.962017 0.239665
vt 0.973022 0.241344
vt 0.973718 0.242470
vt 0.973051 0.242417
vt 0.973784 0.241298
vt 0.974399 0.242529
vt 0.974558 0.241347
vt 0.959937 0.234511
vt 0.978595 0.242410
vt 0.977749 0.243291
vt 0.959310 0.241137
vt 0.958800 0.241248
vt 0.963042 0.240366
vt 0.963915 0.240337
vt 0.964777 0.237379
vt 0.964776 0.240414
vt 0.972912 0.240417
vt 0.973773 0.240341
vt 0.974646 0.240372
vt 0.978882 0.241287
vt 0.958540 0.240130
vt 0.959073 0.237750
vt 0.963006 0.239586
vt 0.963932 0.239574
vt 0.964861 0.238165
vt 0.973759 0.239578
vt 0.972831 0.239631
vt 0.974685 0.239592
vt 0.978618 0.237758
vt 0.975675 0.238130
vt 0.979153 0.240163
vt 0.958949 0.238894
vt 0.958332 0.238893
vt 0.961976 0.238895
vt 0.962994 0.238895
vt 0.963936 0.238896
vt 0.964860 0.239628
vt 0.972832 0.238169
vt 0.964887 0.238896
vt 0.973757 0.238900
vt 0.972806 0.238900
vt 0.974699 0.238900
vt 0.979367 0.238902
vt 0.958541 0.237657
vt 0.963007 0.238204
vt 0.962018 0.238125
vt 0.963933 0.238217
vt 0.973759 0.238222
vt 0.974686 0.238209
vt 0.964634 0.242412
vt 0.975321 0.236311
vt 0.979154 0.237642
vt 0.959934 0.243277
vt 0.978190 0.234224
vt 0.978186 0.243580
s 1
usemtl Chrome
f 112/33/7 18/34/8 17/35/9
f 54/36/10 67/37/11 55/38/12
f 109/39/13 19/40/14 110/41/15
f 108/42/16 20/43/17 109/39/13
f 107/44/18 21/45/19 108/42/16
f 106/46/20 24/47/21 23/48/22
f 105/49/23 25/50/24 24/47/21
f 104/51/25 26/52/26 25/50/24
f 66/53/27 79/54/28 67/37/11
f 102/55/29 28/56/30 27/57/31
f 100/58/32 111/59/7 112/33/7
f 98/60/33 87/61/34 86/62/35
f 98/63/33 109/39/13 110/41/15
f 97/64/36 108/42/16 109/39/13
f 96/65/37 107/44/18 108/42/16
f 93/66/38 106/46/20 94/67/39
f 92/68/40 105/49/23 93/66/38
f 91/69/41 104/51/25 92/68/40
f 78/70/42 91/71/41 79/54/28
f 90/72/43 101/73/44 102/55/29
f 87/61/45 100/74/32 88/75/45
f 42/76/46 55/38/12 43/77/47
f 85/78/48 98/60/33 86/62/35
f 84/79/49 97/80/36 85/78/48
f 83/81/50 96/82/37 84/79/49
f 106/46/20 95/83/51 94/67/39
f 74/84/52 63/85/53 62/86/54
f 82/87/55 93/88/38 94/89/39
f 81/90/56 92/91/40 93/88/38
f 80/92/57 91/71/41 92/91/40
f 98/63/33 111/59/58 99/93/59
f 77/94/60 90/95/43 78/70/61
f 75/96/62 88/75/45 76/97/63
f 110/41/15 18/34/64 111/59/58
f 74/84/52 85/78/48 86/62/35
f 73/98/65 84/79/49 85/78/48
f 72/99/66 83/81/50 84/79/49
f 106/46/20 22/100/67 107/44/18
f 82/87/55 71/101/68 70/102/69
f 69/103/70 82/87/55 70/102/69
f 68/104/71 81/90/56 69/103/70
f 67/37/11 80/92/57 68/104/71
f 86/62/35 75/96/72 74/84/52
f 65/105/73 78/70/61 66/53/74
f 63/85/75 76/97/63 64/106/75
f 19/40/14 39/107/76 18/34/64
f 62/86/54 73/98/65 74/84/52
f 61/108/77 72/99/66 73/98/65
f 60/109/78 71/101/68 72/99/66
f 23/48/22 35/110/79 22/100/67
f 57/111/80 70/102/69 58/112/81
f 56/113/82 69/103/70 57/111/80
f 55/38/12 68/104/71 56/113/82
f 26/52/26 30/114/83 31/115/84
f 53/116/85 66/53/74 54/36/86
f 51/117/87 64/106/75 52/118/87
f 50/119/88 61/108/77 62/86/54
f 49/120/89 60/109/78 61/108/77
f 48/121/90 59/122/91 60/109/78
f 34/123/92 47/124/93 35/110/79
f 45/125/94 58/112/81 46/126/95
f 44/127/96 57/111/80 45/125/94
f 43/77/47 56/113/82 44/127/96
f 42/76/46 31/115/84 30/114/83
f 41/128/97 54/36/86 42/76/97
f 40/129/98 51/117/87 52/118/87
f 62/86/54 51/117/99 50/119/88
f 37/130/100 50/119/88 38/131/101
f 36/132/102 49/120/89 37/130/100
f 35/110/79 48/121/90 36/132/102
f 58/112/81 47/124/93 46/126/95
f 102/55/103 91/69/41 90/72/104
f 34/123/92 45/125/94 46/126/95
f 33/133/105 44/127/96 45/125/94
f 32/134/106 43/77/47 44/127/96
f 38/131/101 51/117/99 39/107/76
f 30/114/107 41/128/97 42/76/97
f 17/35/9 39/107/98 40/129/98
f 82/87/55 95/135/51 83/81/50
f 20/43/17 38/131/101 19/40/14
f 21/45/19 37/130/100 20/43/17
f 22/100/67 36/132/102 21/45/19
f 27/57/108 103/136/109 102/55/103
f 70/102/69 59/122/91 58/112/81
f 23/48/22 33/133/105 34/123/92
f 24/47/21 32/134/106 33/133/105
f 25/50/24 31/115/84 32/134/106
f 27/57/31 29/137/110 30/114/107
f 112/33/7 111/59/7 18/34/8
f 54/36/10 66/53/27 67/37/11
f 109/39/13 20/43/17 19/40/14
f 108/42/16 21/45/19 20/43/17
f 107/44/18 22/100/67 21/45/19
f 106/46/20 105/49/23 24/47/21
f 105/49/23 104/51/25 25/50/24
f 104/51/25 103/136/109 26/52/26
f 66/53/27 78/70/42 79/54/28
f 102/55/29 101/73/44 28/56/30
f 100/58/32 99/93/32 111/59/7
f 98/60/33 99/138/59 87/61/34
f 98/63/33 97/64/36 109/39/13
f 97/64/36 96/65/37 108/42/16
f 96/65/37 95/83/51 107/44/18
f 93/66/38 105/49/23 106/46/20
f 92/68/40 104/51/25 105/49/23
f 91/69/41 103/136/109 104/51/25
f 78/70/42 90/95/104 91/71/41
f 90/72/43 89/139/43 101/73/44
f 87/61/45 99/138/32 100/74/32
f 42/76/46 54/36/10 55/38/12
f 85/78/48 97/80/36 98/60/33
f 84/79/49 96/82/37 97/80/36
f 83/81/50 95/135/51 96/82/37
f 106/46/20 107/44/18 95/83/51
f 74/84/52 75/96/72 63/85/53
f 82/87/55 81/90/56 93/88/38
f 81/90/56 80/92/57 92/91/40
f 80/92/57 79/54/28 91/71/41
f 98/63/33 110/41/15 111/59/58
f 77/94/60 89/140/43 90/95/43
f 75/96/62 87/61/45 88/75/45
f 110/41/15 19/40/14 18/34/64
f 74/84/52 73/98/65 85/78/48
f 73/98/65 72/99/66 84/79/49
f 72/99/66 71/101/68 83/81/50
f 106/46/20 23/48/22 22/100/67
f 82/87/55 83/81/50 71/101/68
f 69/103/70 81/90/56 82/87/55
f 68/104/71 80/92/57 81/90/56
f 67/37/11 79/54/28 80/92/57
f 86/62/35 87/61/34 75/96/72
f 65/105/73 77/94/60 78/70/61
f 63/85/75 75/96/62 76/97/63
f 19/40/14 38/131/101 39/107/76
f 62/86/54 61/108/77 73/98/65
f 61/108/77 60/109/78 72/99/66
f 60/109/78 59/122/91 71/101/68
f 23/48/22 34/123/92 35/110/79
f 57/111/80 69/103/70 70/102/69
f 56/113/82 68/104/71 69/103/70
f 55/38/12 67/37/11 68/104/71
f 26/52/26 27/57/108 30/114/83
f 53/116/85 65/105/73 66/53/74
f 51/117/87 63/85/75 64/106/75
f 50/119/88 49/120/89 61/108/77
f 49/120/89 48/121/90 60/109/78
f 48/121/90 47/124/93 59/122/91
f 34/123/92 46/126/95 47/124/93
f 45/125/94 57/111/80 58/112/81
f 44/127/96 56/113/82 57/111/80
f 43/77/47 55/38/12 56/113/82
f 42/76/46 43/77/47 31/115/84
f 41/128/97 53/116/85 54/36/86
f 40/129/98 39/107/98 51/117/87
f 62/86/54 63/85/53 51/117/99
f 37/130/100 49/120/89 50/119/88
f 36/132/102 48/121/90 49/120/89
f 35/110/79 47/124/93 48/121/90
f 58/112/81 59/122/91 47/124/93
f 102/55/103 103/136/109 91/69/41
f 34/123/92 33/133/105 45/125/94
f 33/133/105 32/134/106 44/127/96
f 32/134/106 31/115/84 43/77/47
f 38/131/101 50/119/88 51/117/99
f 30/114/107 29/137/110 41/128/97
f 17/35/9 18/34/8 39/107/98
f 82/87/55 94/89/39 95/135/51
f 20/43/17 37/130/100 38/131/101
f 21/45/19 36/132/102 37/130/100
f 22/100/67 35/110/79 36/132/102
f 27/57/108 26/52/26 103/136/109
f 70/102/69 71/101/68 59/122/91
f 23/48/22 24/47/21 33/133/105
f 24/47/21 25/50/24 32/134/106
f 25/50/24 26/52/26 31/115/84
f 27/57/31 28/56/30 29/137/110
