# Blender 5.0.1
# www.blender.org
mtllib cab_door_window.mtl
o CabEntranceWindow
g cab_door_window
v -0.487738 -0.214893 -0.020099
v -0.487738 0.224504 -0.020099
v -0.040382 -0.214893 -0.020099
v -0.040382 0.224504 -0.020099
v -0.487738 -0.214893 -0.000359
v -0.487738 0.224504 -0.000359
v -0.040382 -0.214893 -0.000359
v -0.040382 0.224504 -0.000359
v -0.000382 -0.247465 -0.020099
v -0.527738 -0.247465 -0.020099
v -0.527738 0.257076 -0.020099
v -0.000382 0.257076 -0.020099
v -0.000382 0.257076 -0.000359
v -0.000382 -0.247465 -0.000359
v -0.527738 -0.247465 -0.000359
v -0.527738 0.257076 -0.000359
vn 1.0000 -0.0000 -0.0000
vn -1.0000 -0.0000 -0.0000
vn -0.0000 -1.0000 -0.0000
vn -0.0000 1.0000 -0.0000
vn -0.0000 -0.0000 -1.0000
vn -0.0000 -0.0000 1.0000
vt 0.835741 0.523640
vt 0.920498 0.520324
vt 0.920498 0.523640
vt 0.835741 0.431734
vt 0.920498 0.428418
vt 0.920498 0.431734
vt 0.923814 0.431734
vt 0.923814 0.520324
vt 0.832425 0.520324
vt 0.835741 0.520324
vt 0.929286 0.513604
vt 0.929286 0.438454
vt 0.915026 0.421699
vt 0.835741 0.428418
vt 0.841213 0.421699
vt 0.826954 0.438454
vt 0.826954 0.513604
vt 0.841213 0.530359
vt 0.915026 0.530359
vt 0.915026 0.513604
vt 0.841213 0.513604
vt 0.915026 0.438454
vt 0.841213 0.438454
vt 0.823638 0.438454
vt 0.915026 0.533675
vt 0.915026 0.418383
vt 0.932602 0.513604
vt 0.832425 0.431734
vt 0.823638 0.513604
vt 0.841213 0.533675
vt 0.841213 0.418383
vt 0.932602 0.438454
s 0
usemtl MovingParts
f 12/1/1 14/2/1 9/3/1
f 16/4/2 10/5/2 15/6/2
f 14/2/3 10/7/3 9/8/3
f 12/9/4 16/4/4 13/10/4
f 3/11/5 10/7/5 1/12/5
f 1/13/5 11/14/5 2/15/5
f 2/16/5 12/9/5 4/17/5
f 4/18/5 9/3/5 3/19/5
f 7/20/6 13/10/6 8/21/6
f 5/22/6 14/2/6 7/20/6
f 8/21/6 16/4/6 6/23/6
f 6/23/6 15/6/6 5/22/6
f 4/17/3 6/24/3 2/16/3
f 7/25/2 4/18/2 3/19/2
f 2/15/1 5/26/1 1/13/1
f 1/12/4 7/27/4 3/11/4
f 12/1/1 13/10/1 14/2/1
f 16/4/2 11/14/2 10/5/2
f 14/2/3 15/6/3 10/7/3
f 12/9/4 11/28/4 16/4/4
f 3/11/5 9/8/5 10/7/5
f 1/13/5 10/5/5 11/14/5
f 2/16/5 11/28/5 12/9/5
f 4/18/5 12/1/5 9/3/5
f 7/20/6 14/2/6 13/10/6
f 5/22/6 15/6/6 14/2/6
f 8/21/6 13/10/6 16/4/6
f 6/23/6 16/4/6 15/6/6
f 4/17/3 8/29/3 6/24/3
f 7/25/2 8/30/2 4/18/2
f 2/15/1 6/31/1 5/26/1
f 1/12/4 5/32/4 7/27/4
o DoorHandle.048
v -0.493848 -0.050037 -0.000390
v -0.496456 -0.050036 0.002738
v -0.496456 -0.049481 0.024221
v -0.496456 -0.046263 0.031260
v -0.496456 -0.040624 0.036555
v -0.496456 -0.033405 0.039320
v -0.496456 0.033407 0.039322
v -0.496456 0.040629 0.036554
v -0.496456 0.046260 0.031252
v -0.496456 0.049457 0.024208
v -0.496456 0.049971 0.002753
v -0.493848 0.049965 -0.000376
v -0.497541 0.058879 -0.000387
v -0.499385 0.057042 0.002744
v -0.499385 0.056339 0.025834
v -0.499385 0.052009 0.035368
v -0.499385 0.044386 0.042544
v -0.499385 0.034610 0.046290
v -0.499385 -0.034588 0.046292
v -0.499385 -0.044357 0.042560
v -0.499385 -0.051992 0.035406
v -0.499385 -0.056352 0.025890
v -0.499385 -0.057107 0.002740
v -0.497541 -0.058952 -0.000388
v -0.506456 0.062572 -0.000391
v -0.506456 0.059971 0.002741
v -0.506456 0.059189 0.026508
v -0.506456 0.054390 0.037073
v -0.506456 0.045941 0.045026
v -0.506456 0.035107 0.049176
v -0.506456 -0.035072 0.049180
v -0.506456 -0.045899 0.045051
v -0.506456 -0.054361 0.037128
v -0.506456 -0.059197 0.026588
v -0.506456 -0.060036 0.002741
v -0.506456 -0.062645 -0.000387
v -0.515371 0.058879 -0.000387
v -0.513527 0.057042 0.002744
v -0.513527 0.056339 0.025834
v -0.513527 0.052009 0.035368
v -0.513527 0.044386 0.042544
v -0.513527 0.034610 0.046290
v -0.513527 -0.034588 0.046292
v -0.513527 -0.044357 0.042560
v -0.513527 -0.051992 0.035406
v -0.513527 -0.056352 0.025890
v -0.513527 -0.057107 0.002740
v -0.515371 -0.058952 -0.000388
v -0.519063 0.049965 -0.000376
v -0.516456 0.049971 0.002753
v -0.516456 0.049457 0.024208
v -0.516456 0.046260 0.031252
v -0.516456 0.040629 0.036554
v -0.516456 0.033407 0.039322
v -0.516456 -0.033405 0.039320
v -0.516456 -0.040624 0.036555
v -0.516456 -0.046263 0.031260
v -0.516456 -0.049481 0.024221
v -0.516456 -0.050036 0.002738
v -0.519063 -0.050037 -0.000390
v -0.515371 0.041050 -0.000366
v -0.513527 0.042899 0.002761
v -0.513527 0.042575 0.022585
v -0.513527 0.040508 0.027138
v -0.513527 0.036869 0.030565
v -0.513527 0.032202 0.032354
v -0.513527 -0.032203 0.032352
v -0.513527 -0.036875 0.030560
v -0.513527 -0.040524 0.027130
v -0.513527 -0.042606 0.022570
v -0.513527 -0.042965 0.002737
v -0.515371 -0.041123 -0.000393
v -0.506456 0.037357 -0.000361
v -0.506456 0.039971 0.002764
v -0.506456 0.039724 0.021913
v -0.506456 0.038126 0.025434
v -0.506456 0.035311 0.028085
v -0.506456 0.031702 0.029468
v -0.506456 -0.031700 0.029467
v -0.506456 -0.035317 0.028079
v -0.506456 -0.038143 0.025424
v -0.506456 -0.039756 0.021891
v -0.506456 -0.040036 0.002736
v -0.506456 -0.037430 -0.000394
v -0.497541 0.041050 -0.000366
v -0.499385 0.042899 0.002761
v -0.499385 0.042575 0.022585
v -0.499385 0.040508 0.027138
v -0.499385 0.036869 0.030565
v -0.499385 0.032202 0.032354
v -0.499385 -0.032203 0.032352
v -0.499385 -0.036875 0.030560
v -0.499385 -0.040524 0.027130
v -0.499385 -0.042606 0.022570
v -0.499385 -0.042965 0.002737
v -0.497541 -0.041123 -0.000393
vn 0.5432 0.5434 0.6400
vn 0.7682 0.0002 0.6402
vn 0.7682 0.0001 0.6402
vn -0.7026 0.7113 0.0206
vn -0.9988 0.0472 0.0112
vn -0.6841 0.7103 0.1656
vn 0.7314 0.5541 -0.3975
vn 0.9988 -0.0472 0.0112
vn 0.7332 0.6630 -0.1511
vn 0.7314 0.3624 -0.5776
vn 0.9989 -0.0383 0.0274
vn 0.7300 0.1246 -0.6720
vn 0.9989 -0.0250 0.0399
vn 0.7300 -0.1245 -0.6720
vn 0.9989 0.0252 0.0401
vn 0.9990 0.0086 0.0437
vn 0.7315 -0.3626 -0.5774
vn 0.9989 0.0385 0.0275
vn 0.7315 -0.5546 -0.3966
vn 0.9988 0.0472 0.0112
vn -1.0000 0.0053 0.0013
vn -0.7331 -0.6634 -0.1499
vn 0.5431 -0.5423 0.6411
vn 0.7682 0.0007 0.6402
vn 0.7682 0.0009 0.6402
vn -0.0000 0.7684 0.6399
vn -0.0000 0.9754 -0.2204
vn -0.7086 0.7056 -0.0115
vn -0.7332 0.6630 -0.1511
vn -0.0000 0.8125 -0.5830
vn -0.0000 0.5314 -0.8471
vn -0.0000 -0.5318 -0.8469
vn -0.0000 -0.1825 -0.9832
vn -0.0000 -0.8134 -0.5816
vn -0.0000 -0.9758 -0.2185
vn -0.7085 -0.7056 -0.0102
vn -0.0000 -0.7672 0.6414
vn 0.5430 -0.5424 0.6411
vn -0.5432 0.5434 0.6400
vn -0.0000 0.9995 0.0309
vn -0.0000 0.9737 0.2277
vn -0.7314 0.5541 -0.3975
vn -0.7314 0.3624 -0.5776
vn -0.7300 0.1246 -0.6720
vn -0.0000 0.1826 -0.9832
vn -0.9988 -0.0472 0.0112
vn -0.7025 -0.7114 0.0221
vn -0.6840 -0.7099 0.1675
vn -0.7300 -0.1245 -0.6720
vn -0.7315 -0.3626 -0.5774
vn -0.7315 -0.5546 -0.3966
vn 0.7086 0.7056 -0.0115
vn -0.0000 0.9999 -0.0146
vn -0.5430 -0.5424 0.6411
vn -0.5431 -0.5423 0.6411
vn -0.7682 0.0002 0.6402
vn -0.7682 0.0001 0.6402
vn 1.0000 -0.0053 0.0013
vn -0.9989 -0.0383 0.0274
vn -0.9989 -0.0250 0.0399
vn 0.9990 -0.0086 0.0436
vn -0.9990 -0.0086 0.0436
vn -0.9990 0.0086 0.0437
vn -0.9989 0.0252 0.0401
vn -0.9989 0.0385 0.0275
vn -1.0000 -0.0053 0.0013
vn -0.7682 0.0007 0.6402
vn -0.7682 0.0009 0.6402
vn -0.5432 -0.5430 0.6404
vn 0.7025 -0.7114 0.0221
vn -0.6843 -0.5919 0.4259
vn -0.6843 -0.3867 0.6182
vn 0.6856 -0.1321 0.7159
vn -0.6842 0.3877 0.6176
vn -0.6856 0.1326 0.7158
vn -0.6842 0.5931 0.4243
vn 0.7026 0.7113 0.0206
vn 0.6841 0.7103 0.1656
vn -0.5434 0.5441 0.6393
vn -0.5433 0.5442 0.6393
vn -0.0000 -0.7680 0.6405
vn -0.0000 -0.9730 0.2308
vn -0.0000 -0.8114 0.5845
vn -0.0000 -0.5298 0.8481
vn -0.6856 -0.1321 0.7159
vn 0.6856 0.1326 0.7158
vn -0.0000 -0.1805 0.9836
vn -0.0000 0.5316 0.8470
vn -0.0000 0.1814 0.9834
vn -0.0000 0.8133 0.5819
vn -0.0000 0.7692 0.6390
vn 0.5432 -0.5430 0.6404
vn -0.0000 -0.9995 0.0331
vn 0.6843 -0.5919 0.4259
vn 0.6840 -0.7099 0.1675
vn 0.6843 -0.3867 0.6182
vn 0.7085 -0.7056 -0.0102
vn -0.0000 -0.9999 -0.0129
vn 0.6843 0.3877 0.6176
vn 0.6842 0.5931 0.4243
vn 0.5433 0.5442 0.6393
vn 1.0000 0.0053 0.0013
vn 0.7331 -0.6634 -0.1499
vn 0.5434 0.5441 0.6393
vt 0.959083 0.235413
vt 0.959311 0.236650
vt 0.958802 0.236539
vt 0.978617 0.240046
vt 0.975543 0.240512
vt 0.975675 0.239672
vt 0.963130 0.236450
vt 0.962146 0.237285
vt 0.962367 0.236307
vt 0.963904 0.236498
vt 0.963043 0.237424
vt 0.964665 0.236452
vt 0.963916 0.237455
vt 0.973024 0.236455
vt 0.973774 0.237459
vt 0.972913 0.237383
vt 0.973786 0.236502
vt 0.974647 0.237429
vt 0.974560 0.236454
vt 0.975544 0.237289
vt 0.978378 0.241149
vt 0.975319 0.241490
vt 0.978086 0.235566
vt 0.978884 0.236517
vt 0.978380 0.236655
vt 0.959501 0.234224
vt 0.959605 0.235564
vt 0.962625 0.242598
vt 0.959602 0.242224
vt 0.962365 0.241483
vt 0.962628 0.235193
vt 0.963287 0.235269
vt 0.963969 0.235328
vt 0.973721 0.235330
vt 0.973054 0.235382
vt 0.974402 0.235271
vt 0.975059 0.235195
vt 0.978083 0.242238
vt 0.975056 0.242606
vt 0.977753 0.234512
vt 0.978598 0.235394
vt 0.959497 0.243564
vt 0.959080 0.242374
vt 0.978736 0.238902
vt 0.975719 0.238901
vt 0.963128 0.241341
vt 0.963902 0.241294
vt 0.963284 0.242522
vt 0.964663 0.241340
vt 0.963966 0.242464
vt 0.964637 0.235380
vt 0.962145 0.240505
vt 0.959072 0.240037
vt 0.962017 0.239665
vt 0.973022 0.241344
vt 0.973718 0.242470
vt 0.973051 0.242417
vt 0.973784 0.241298
vt 0.974399 0.242529
vt 0.974558 0.241347
vt 0.959937 0.234511
vt 0.978595 0.242410
vt 0.977749 0.243291
vt 0.959310 0.241137
vt 0.958800 0.241248
vt 0.963042 0.240366
vt 0.963915 0.240337
vt 0.964777 0.237379
vt 0.964776 0.240414
vt 0.972912 0.240417
vt 0.973773 0.240341
vt 0.974646 0.240372
vt 0.978882 0.241287
vt 0.958540 0.240130
vt 0.959073 0.237750
vt 0.963006 0.239586
vt 0.963932 0.239574
vt 0.964861 0.238165
vt 0.973759 0.239578
vt 0.972831 0.239631
vt 0.974685 0.239592
vt 0.978618 0.237758
vt 0.975675 0.238130
vt 0.979153 0.240163
vt 0.958949 0.238894
vt 0.958332 0.238893
vt 0.961976 0.238895
vt 0.962994 0.238895
vt 0.963936 0.238896
vt 0.964860 0.239628
vt 0.972832 0.238169
vt 0.964887 0.238896
vt 0.973757 0.238900
vt 0.972806 0.238900
vt 0.974699 0.238900
vt 0.979367 0.238902
vt 0.958541 0.237657
vt 0.963007 0.238204
vt 0.962018 0.238125
vt 0.963933 0.238217
vt 0.973759 0.238222
vt 0.974686 0.238209
vt 0.964634 0.242412
vt 0.975321 0.236311
vt 0.979154 0.237642
vt 0.959934 0.243277
vt 0.978190 0.234224
vt 0.978186 0.243580
s 1
usemtl Chrome
f 112/33/7 18/34/8 17/35/9
f 54/36/10 67/37/11 55/38/12
f 109/39/13 19/40/14 110/41/15
f 108/42/16 20/43/17 109/39/13
f 107/44/18 21/45/19 108/42/16
f 106/46/20 24/47/21 23/48/22
f 105/49/23 25/50/24 24/47/21
f 104/51/25 26/52/26 25/50/24
f 66/53/27 79/54/28 67/37/11
f 102/55/29 28/56/30 27/57/31
f 100/58/32 111/59/7 112/33/7
f 98/60/33 87/61/34 86/62/35
f 98/63/33 109/39/13 110/41/15
f 97/64/36 108/42/16 109/39/13
f 96/65/37 107/44/18 108/42/16
f 93/66/38 106/46/20 94/67/39
f 92/68/40 105/49/23 93/66/38
f 91/69/41 104/51/25 92/68/40
f 78/70/42 91/71/41 79/54/28
f 90/72/43 101/73/44 102/55/29
f 87/61/45 100/74/32 88/75/45
f 42/76/46 55/38/12 43/77/47
f 85/78/48 98/60/33 86/62/35
f 84/79/49 97/80/36 85/78/48
f 83/81/50 96/82/37 84/79/49
f 106/46/20 95/83/51 94/67/39
f 74/84/52 63/85/53 62/86/54
f 82/87/55 93/88/38 94/89/39
f 81/90/56 92/91/40 93/88/38
f 80/92/57 91/71/41 92/91/40
f 98/63/33 111/59/58 99/93/59
f 77/94/60 90/95/43 78/70/61
f 75/96/62 88/75/45 76/97/63
f 110/41/15 18/34/64 111/59/58
f 74/84/52 85/78/48 86/62/35
f 73/98/65 84/79/49 85/78/48
f 72/99/66 83/81/50 84/79/49
f 106/46/20 22/100/67 107/44/18
f 82/87/55 71/101/68 70/102/69
f 69/103/70 82/87/55 70/102/69
f 68/104/71 81/90/56 69/103/70
f 67/37/11 80/92/57 68/104/71
f 86/62/35 75/96/72 74/84/52
f 65/105/73 78/70/61 66/53/74
f 63/85/75 76/97/63 64/106/75
f 19/40/14 39/107/76 18/34/64
f 62/86/54 73/98/65 74/84/52
f 61/108/77 72/99/66 73/98/65
f 60/109/78 71/101/68 72/99/66
f 23/48/22 35/110/79 22/100/67
f 57/111/80 70/102/69 58/112/81
f 56/113/82 69/103/70 57/111/80
f 55/38/12 68/104/71 56/113/82
f 26/52/26 30/114/83 31/115/84
f 53/116/85 66/53/74 54/36/86
f 51/117/87 64/106/75 52/118/87
f 50/119/88 61/108/77 62/86/54
f 49/120/89 60/109/78 61/108/77
f 48/121/90 59/122/91 60/109/78
f 34/123/92 47/124/93 35/110/79
f 45/125/94 58/112/81 46/126/95
f 44/127/96 57/111/80 45/125/94
f 43/77/47 56/113/82 44/127/96
f 42/76/46 31/115/84 30/114/83
f 41/128/97 54/36/86 42/76/97
f 40/129/98 51/117/87 52/118/87
f 62/86/54 51/117/99 50/119/88
f 37/130/100 50/119/88 38/131/101
f 36/132/102 49/120/89 37/130/100
f 35/110/79 48/121/90 36/132/102
f 58/112/81 47/124/93 46/126/95
f 102/55/103 91/69/41 90/72/104
f 34/123/92 45/125/94 46/126/95
f 33/133/105 44/127/96 45/125/94
f 32/134/106 43/77/47 44/127/96
f 38/131/101 51/117/99 39/107/76
f 30/114/107 41/128/97 42/76/97
f 17/35/9 39/107/98 40/129/98
f 82/87/55 95/135/51 83/81/50
f 20/43/17 38/131/101 19/40/14
f 21/45/19 37/130/100 20/43/17
f 22/100/67 36/132/102 21/45/19
f 27/57/108 103/136/109 102/55/103
f 70/102/69 59/122/91 58/112/81
f 23/48/22 33/133/105 34/123/92
f 24/47/21 32/134/106 33/133/105
f 25/50/24 31/115/84 32/134/106
f 27/57/31 29/137/110 30/114/107
f 112/33/7 111/59/7 18/34/8
f 54/36/10 66/53/27 67/37/11
f 109/39/13 20/43/17 19/40/14
f 108/42/16 21/45/19 20/43/17
f 107/44/18 22/100/67 21/45/19
f 106/46/20 105/49/23 24/47/21
f 105/49/23 104/51/25 25/50/24
f 104/51/25 103/136/109 26/52/26
f 66/53/27 78/70/42 79/54/28
f 102/55/29 101/73/44 28/56/30
f 100/58/32 99/93/32 111/59/7
f 98/60/33 99/138/59 87/61/34
f 98/63/33 97/64/36 109/39/13
f 97/64/36 96/65/37 108/42/16
f 96/65/37 95/83/51 107/44/18
f 93/66/38 105/49/23 106/46/20
f 92/68/40 104/51/25 105/49/23
f 91/69/41 103/136/109 104/51/25
f 78/70/42 90/95/104 91/71/41
f 90/72/43 89/139/43 101/73/44
f 87/61/45 99/138/32 100/74/32
f 42/76/46 54/36/10 55/38/12
f 85/78/48 97/80/36 98/60/33
f 84/79/49 96/82/37 97/80/36
f 83/81/50 95/135/51 96/82/37
f 106/46/20 107/44/18 95/83/51
f 74/84/52 75/96/72 63/85/53
f 82/87/55 81/90/56 93/88/38
f 81/90/56 80/92/57 92/91/40
f 80/92/57 79/54/28 91/71/41
f 98/63/33 110/41/15 111/59/58
f 77/94/60 89/140/43 90/95/43
f 75/96/62 87/61/45 88/75/45
f 110/41/15 19/40/14 18/34/64
f 74/84/52 73/98/65 85/78/48
f 73/98/65 72/99/66 84/79/49
f 72/99/66 71/101/68 83/81/50
f 106/46/20 23/48/22 22/100/67
f 82/87/55 83/81/50 71/101/68
f 69/103/70 81/90/56 82/87/55
f 68/104/71 80/92/57 81/90/56
f 67/37/11 79/54/28 80/92/57
f 86/62/35 87/61/34 75/96/72
f 65/105/73 77/94/60 78/70/61
f 63/85/75 75/96/62 76/97/63
f 19/40/14 38/131/101 39/107/76
f 62/86/54 61/108/77 73/98/65
f 61/108/77 60/109/78 72/99/66
f 60/109/78 59/122/91 71/101/68
f 23/48/22 34/123/92 35/110/79
f 57/111/80 69/103/70 70/102/69
f 56/113/82 68/104/71 69/103/70
f 55/38/12 67/37/11 68/104/71
f 26/52/26 27/57/108 30/114/83
f 53/116/85 65/105/73 66/53/74
f 51/117/87 63/85/75 64/106/75
f 50/119/88 49/120/89 61/108/77
f 49/120/89 48/121/90 60/109/78
f 48/121/90 47/124/93 59/122/91
f 34/123/92 46/126/95 47/124/93
f 45/125/94 57/111/80 58/112/81
f 44/127/96 56/113/82 57/111/80
f 43/77/47 55/38/12 56/113/82
f 42/76/46 43/77/47 31/115/84
f 41/128/97 53/116/85 54/36/86
f 40/129/98 39/107/98 51/117/87
f 62/86/54 63/85/53 51/117/99
f 37/130/100 49/120/89 50/119/88
f 36/132/102 48/121/90 49/120/89
f 35/110/79 47/124/93 48/121/90
f 58/112/81 59/122/91 47/124/93
f 102/55/103 103/136/109 91/69/41
f 34/123/92 33/133/105 45/125/94
f 33/133/105 32/134/106 44/127/96
f 32/134/106 31/115/84 43/77/47
f 38/131/101 50/119/88 51/117/99
f 30/114/107 29/137/110 41/128/97
f 17/35/9 18/34/8 39/107/98
f 82/87/55 94/89/39 95/135/51
f 20/43/17 37/130/100 38/131/101
f 21/45/19 36/132/102 37/130/100
f 22/100/67 35/110/79 36/132/102
f 27/57/108 26/52/26 103/136/109
f 70/102/69 71/101/68 59/122/91
f 23/48/22 24/47/21 33/133/105
f 24/47/21 25/50/24 32/134/106
f 25/50/24 26/52/26 31/115/84
f 27/57/31 28/56/30 29/137/110
