# Blender 5.0.1
# www.blender.org
mtllib cab_door_glass.mtl
o ExteriorDoorGlassExport
g cab_door_glass
v 0.245409 -0.235790 -0.002500
v 0.245409 0.235790 -0.002500
v 0.245409 -0.235790 0.002500
v 0.245409 0.235790 0.002500
v -0.245409 -0.235790 -0.002500
v -0.245409 0.235790 -0.002500
v -0.245409 -0.235790 0.002500
v -0.245409 0.235790 0.002500
vn -0.0000 -0.0000 1.0000
vn -0.0000 -0.0000 -1.0000
vt 0.292546 0.867881
vt 0.213327 0.950332
vt 0.213327 0.867881
vt 0.867567 0.625872
vt 0.946786 0.543420
vt 0.946786 0.625872
vt 0.292546 0.950332
vt 0.867567 0.543420
s 1
usemtl Glass
f 4/1/1 7/2/1 3/3/1
f 6/4/2 1/5/2 5/6/2
f 4/1/1 8/7/1 7/2/1
f 6/4/2 2/8/2 1/5/2
