# Blender 5.0.1
# www.blender.org
mtllib interior_door.mtl
o InteriorDoorExport
g interior_door
v -0.602229 0.803589 -0.000000
v -0.552229 0.853591 -0.000000
v -0.600525 0.816530 -0.000000
v -0.595530 0.828589 -0.000000
v -0.587584 0.838944 -0.000000
v -0.577229 0.846890 -0.000000
v -0.565170 0.851885 -0.000000
v -0.552229 -0.853588 -0.000000
v -0.602229 -0.803588 -0.000000
v -0.565170 -0.851884 -0.000000
v -0.577229 -0.846889 -0.000000
v -0.587584 -0.838943 -0.000000
v -0.595530 -0.828588 -0.000000
v -0.600525 -0.816529 -0.000000
v -0.050000 0.853589 -0.000000
v -0.000000 0.803589 -0.000000
v -0.037059 0.851885 -0.000000
v -0.025000 0.846890 -0.000000
v -0.014645 0.838944 -0.000000
v -0.006699 0.828589 -0.000000
v -0.001704 0.816530 -0.000000
v -0.000000 -0.803588 -0.000000
v -0.050000 -0.853588 -0.000000
v -0.001704 -0.816529 -0.000000
v -0.006699 -0.828588 -0.000000
v -0.014645 -0.838943 -0.000000
v -0.025000 -0.846889 -0.000000
v -0.037059 -0.851884 -0.000000
v -0.028665 0.804224 -0.030153
v -0.027503 0.795250 -0.030153
v -0.031571 0.811355 -0.030153
v -0.036160 0.817434 -0.030153
v -0.042088 0.822059 -0.030153
v -0.048939 0.824943 -0.030153
v -0.057590 0.826101 -0.030153
v -0.574726 0.795250 -0.030153
v -0.573564 0.804224 -0.030153
v -0.570658 0.811355 -0.030153
v -0.566069 0.817434 -0.030153
v -0.560141 0.822059 -0.030153
v -0.553290 0.824943 -0.030153
v -0.544639 0.826101 -0.030153
v -0.048939 0.304666 -0.030153
v -0.057590 0.303509 -0.030153
v -0.042088 0.307551 -0.030153
v -0.036160 0.312175 -0.030153
v -0.031571 0.318254 -0.030153
v -0.028665 0.325386 -0.030153
v -0.027503 0.334360 -0.030153
v -0.544640 0.303509 -0.030153
v -0.553290 0.304666 -0.030153
v -0.560141 0.307551 -0.030153
v -0.566069 0.312175 -0.030153
v -0.570658 0.318254 -0.030153
v -0.573564 0.325386 -0.030153
v -0.574726 0.334360 -0.030153
v -0.000000 0.803589 -0.015077
v -0.037059 0.851885 -0.015077
v -0.025000 0.846890 -0.015077
v -0.014645 0.838944 -0.015077
v -0.006699 0.828589 -0.015077
v -0.001704 0.816530 -0.015077
v -0.050000 0.853589 -0.015077
v -0.577229 0.846890 -0.015077
v -0.587584 0.838944 -0.015077
v -0.595530 0.828589 -0.015077
v -0.600525 0.816530 -0.015077
v -0.602229 0.803589 -0.015077
v -0.565170 0.851885 -0.015077
v -0.552229 0.853590 -0.015077
v -0.050000 -0.853588 -0.015077
v -0.037059 -0.851884 -0.015077
v -0.025000 -0.846889 -0.015077
v -0.014645 -0.838943 -0.015077
v -0.006699 -0.828588 -0.015077
v -0.001704 -0.816529 -0.015077
v -0.000000 -0.803588 -0.015077
v -0.552229 -0.853588 -0.015077
v -0.565170 -0.851884 -0.015077
v -0.577229 -0.846889 -0.015077
v -0.587584 -0.838943 -0.015077
v -0.595530 -0.828588 -0.015077
v -0.600525 -0.816529 -0.015077
v -0.602229 -0.803588 -0.015077
v -0.009164 0.809367 -0.015077
v -0.014035 0.821320 -0.015077
v -0.021783 0.831585 -0.015077
v -0.031880 0.839461 -0.015077
v -0.043639 0.844412 -0.015077
v -0.056257 0.846101 -0.015077
v -0.594726 0.796540 -0.015077
v -0.043639 -0.844411 -0.015077
v -0.031880 -0.839460 -0.015077
v -0.021783 -0.831584 -0.015077
v -0.014035 -0.821319 -0.015077
v -0.009164 -0.809366 -0.015077
v -0.007503 -0.796539 -0.015077
v -0.545972 -0.846100 -0.015077
v -0.558590 0.844412 -0.015077
v -0.570349 0.839461 -0.015077
v -0.580446 0.831585 -0.015077
v -0.588194 0.821320 -0.015077
v -0.593065 0.809367 -0.015077
v -0.580446 -0.831584 -0.015077
v -0.570349 -0.839460 -0.015077
v -0.558590 -0.844411 -0.015077
v -0.545972 0.846102 -0.015077
v -0.007503 0.796540 -0.015077
v -0.056257 -0.846100 -0.015077
v -0.588194 -0.821319 -0.015077
v -0.593065 -0.809366 -0.015077
v -0.594726 -0.796539 -0.015077
v -0.009164 0.809367 -0.030153
v -0.007503 0.796540 -0.030153
v -0.014035 0.821320 -0.030153
v -0.021783 0.831585 -0.030153
v -0.031880 0.839461 -0.030153
v -0.043639 0.844412 -0.030153
v -0.056257 0.846101 -0.030153
v -0.594726 0.796540 -0.030153
v -0.593065 0.809367 -0.030153
v -0.588194 0.821320 -0.030153
v -0.580446 0.831585 -0.030153
v -0.570349 0.839461 -0.030153
v -0.558590 0.844412 -0.030153
v -0.545972 0.846101 -0.030153
v -0.043639 -0.844411 -0.030153
v -0.056257 -0.846100 -0.030153
v -0.031880 -0.839460 -0.030153
v -0.021783 -0.831584 -0.030153
v -0.014035 -0.821319 -0.030153
v -0.009164 -0.809366 -0.030153
v -0.007503 -0.796539 -0.030153
v -0.545972 -0.846100 -0.030153
v -0.558590 -0.844411 -0.030153
v -0.570349 -0.839460 -0.030153
v -0.580446 -0.831584 -0.030153
v -0.588194 -0.821319 -0.030153
v -0.593065 -0.809366 -0.030153
v -0.594726 -0.796539 -0.030153
v -0.574726 0.334360 -0.000000
v -0.573564 0.325386 -0.000000
v -0.570658 0.318254 -0.000000
v -0.560141 0.307551 -0.000000
v -0.566069 0.312175 -0.000000
v -0.553290 0.304666 -0.000000
v -0.544640 0.303509 -0.000000
v -0.042088 0.822059 -0.000000
v -0.057590 0.826101 -0.000000
v -0.048939 0.824943 -0.000000
v -0.574726 0.795250 -0.000000
v -0.574203 0.799293 -0.000000
v -0.573564 0.804224 -0.000000
v -0.570658 0.811355 -0.000000
v -0.566069 0.817434 -0.000000
v -0.553290 0.824943 -0.000000
v -0.544639 0.826101 -0.000000
v -0.560141 0.822059 -0.000000
v -0.048939 0.304666 -0.000000
v -0.057590 0.303509 -0.000000
v -0.036160 0.312175 -0.000000
v -0.036160 0.817434 -0.000000
v -0.028665 0.804224 -0.000000
v -0.027503 0.795250 -0.000000
v -0.027503 0.334360 -0.000000
v -0.028665 0.325386 -0.000000
v -0.031571 0.318254 -0.000000
v -0.031571 0.811355 -0.000000
v -0.042088 0.307551 -0.000000
v -0.042088 0.307551 -0.010051
v -0.042088 0.307551 -0.020102
v -0.048939 0.304666 -0.020102
v -0.048939 0.304666 -0.010051
v -0.042088 0.822059 -0.010051
v -0.042088 0.822059 -0.020102
v -0.036160 0.817434 -0.020102
v -0.036160 0.817434 -0.010051
v -0.574726 0.334360 -0.010051
v -0.574726 0.334360 -0.020102
v -0.574726 0.795250 -0.020102
v -0.574726 0.795250 -0.010051
v -0.031571 0.318254 -0.010051
v -0.031571 0.318254 -0.020102
v -0.036160 0.312175 -0.020102
v -0.036160 0.312175 -0.010051
v -0.028665 0.804224 -0.010051
v -0.028665 0.804224 -0.020102
v -0.027503 0.795250 -0.020102
v -0.027503 0.795250 -0.010051
v -0.057590 0.303509 -0.010051
v -0.057590 0.303509 -0.020102
v -0.544640 0.303509 -0.020102
v -0.544640 0.303509 -0.010051
v -0.560141 0.822059 -0.010051
v -0.560141 0.822059 -0.020102
v -0.553290 0.824943 -0.020102
v -0.553290 0.824943 -0.010051
v -0.560141 0.307551 -0.010051
v -0.560141 0.307551 -0.020102
v -0.566069 0.312175 -0.020102
v -0.566069 0.312175 -0.010051
v -0.573564 0.325386 -0.010051
v -0.573564 0.325386 -0.020102
v -0.570658 0.318254 -0.010051
v -0.570658 0.318254 -0.020102
v -0.057590 0.826101 -0.010051
v -0.057590 0.826101 -0.020102
v -0.048939 0.824943 -0.020102
v -0.048939 0.824943 -0.010051
v -0.027503 0.334360 -0.010051
v -0.027503 0.334360 -0.020102
v -0.028665 0.325386 -0.020102
v -0.028665 0.325386 -0.010051
v -0.544639 0.826101 -0.020102
v -0.544639 0.826101 -0.010051
v -0.573564 0.804224 -0.010051
v -0.573564 0.804224 -0.020102
v -0.570658 0.811355 -0.020102
v -0.570658 0.811355 -0.010051
v -0.566069 0.817434 -0.010051
v -0.566069 0.817434 -0.020102
v -0.031571 0.811355 -0.010051
v -0.031571 0.811355 -0.020102
v -0.553290 0.304666 -0.020102
v -0.553290 0.304666 -0.010051
v -0.038665 0.335386 -0.010051
v -0.038665 0.335386 -0.020102
v -0.037503 0.344360 -0.020102
v -0.037503 0.344360 -0.010051
v -0.067590 0.313509 -0.020102
v -0.067590 0.313509 -0.010051
v -0.046160 0.322175 -0.010051
v -0.046160 0.322175 -0.020102
v -0.041571 0.328254 -0.020102
v -0.041571 0.328254 -0.010051
v -0.058939 0.314666 -0.010051
v -0.058939 0.314666 -0.020102
v -0.052088 0.317551 -0.020102
v -0.052088 0.317551 -0.010051
v -0.602229 -0.005009 -0.000000
v -0.602229 0.145010 -0.000000
v -0.594726 0.145009 -0.030153
v -0.007503 0.145009 -0.030153
v -0.552238 0.140010 -0.000000
v -0.547238 0.145010 -0.000000
v -0.550773 0.143546 -0.000000
v -0.527250 0.145010 -0.000000
v -0.522250 0.140010 -0.000000
v -0.523715 0.143546 -0.000000
v -0.547238 -0.005009 -0.000000
v -0.552238 -0.000009 -0.000000
v -0.550773 -0.003544 -0.000000
v -0.522250 -0.000009 -0.000000
v -0.527250 -0.005009 -0.000000
v -0.523715 -0.003544 -0.000000
v -0.552238 -0.000008 -0.030153
v -0.547238 -0.005008 -0.030153
v -0.550773 -0.003543 -0.030153
v -0.527250 -0.005008 -0.030153
v -0.522250 -0.000008 -0.030153
v -0.523715 -0.003543 -0.030153
v -0.547238 0.145009 -0.030153
v -0.552238 0.140009 -0.030153
v -0.550773 0.143545 -0.030153
v -0.522250 0.140009 -0.030153
v -0.527250 0.145009 -0.030153
v -0.523715 0.143545 -0.030153
v -0.547039 0.144010 0.010000
v -0.547238 0.145010 0.009000
v -0.551238 0.139811 0.010000
v -0.552238 0.140010 0.009000
v -0.550008 0.142780 0.010000
v -0.550773 0.143546 0.009000
v -0.523250 0.139811 0.010000
v -0.522250 0.140010 0.009000
v -0.527449 0.144010 0.010000
v -0.527250 0.145010 0.009000
v -0.524480 0.142780 0.010000
v -0.523715 0.143546 0.009000
v -0.551238 0.000190 0.010000
v -0.552238 -0.000009 0.009000
v -0.547039 -0.004009 0.010000
v -0.547238 -0.005009 0.009000
v -0.550008 -0.002779 0.010000
v -0.550773 -0.003544 0.009000
v -0.527449 -0.004009 0.010000
v -0.527250 -0.005009 0.009000
v -0.523250 0.000190 0.010000
v -0.522250 -0.000009 0.009000
v -0.524480 -0.002779 0.010000
v -0.523715 -0.003544 0.009000
v -0.547039 -0.004008 -0.040153
v -0.547238 -0.005008 -0.039153
v -0.551238 0.000191 -0.040153
v -0.552238 -0.000008 -0.039153
v -0.550008 -0.002778 -0.040153
v -0.550773 -0.003543 -0.039153
v -0.523250 0.000191 -0.040153
v -0.522250 -0.000008 -0.039153
v -0.527449 -0.004008 -0.040153
v -0.527250 -0.005008 -0.039153
v -0.524480 -0.002778 -0.040153
v -0.523715 -0.003543 -0.039153
v -0.551238 0.139810 -0.040153
v -0.552238 0.140009 -0.039153
v -0.547039 0.144009 -0.040153
v -0.547238 0.145009 -0.039153
v -0.550008 0.142780 -0.040153
v -0.550773 0.143545 -0.039153
v -0.527449 0.144009 -0.040153
v -0.527250 0.145009 -0.039153
v -0.523250 0.139811 -0.040153
v -0.522250 0.140009 -0.039153
v -0.524480 0.142780 -0.040153
v -0.523715 0.143545 -0.039153
v -0.048665 0.345386 -0.004054
v -0.048665 0.345386 -0.026100
v -0.047503 0.354360 -0.026100
v -0.047503 0.354360 -0.004054
v -0.077590 0.323509 -0.026100
v -0.077590 0.323509 -0.004054
v -0.056160 0.332175 -0.004054
v -0.056160 0.332175 -0.026100
v -0.051571 0.338254 -0.026100
v -0.051571 0.338254 -0.004054
v -0.068939 0.324666 -0.004054
v -0.068939 0.324666 -0.026100
v -0.062088 0.327551 -0.026100
v -0.062088 0.327551 -0.004054
v -0.058665 0.355386 -0.010051
v -0.058665 0.355386 -0.020102
v -0.057503 0.364360 -0.020102
v -0.057503 0.364360 -0.010051
v -0.087590 0.333508 -0.020102
v -0.087590 0.333508 -0.010051
v -0.066160 0.342175 -0.010051
v -0.066160 0.342175 -0.020102
v -0.061571 0.348254 -0.020102
v -0.061571 0.348254 -0.010051
v -0.078939 0.334666 -0.010051
v -0.078939 0.334666 -0.020102
v -0.072088 0.337551 -0.020102
v -0.072088 0.337551 -0.010051
v -0.564726 0.344360 -0.010051
v -0.564726 0.344360 -0.020102
v -0.534640 0.313509 -0.020102
v -0.534640 0.313509 -0.010051
v -0.550141 0.317551 -0.010051
v -0.550141 0.317551 -0.020102
v -0.556069 0.322175 -0.020102
v -0.556069 0.322175 -0.010051
v -0.563564 0.335386 -0.010051
v -0.563564 0.335386 -0.020102
v -0.560658 0.328254 -0.010051
v -0.560658 0.328254 -0.020102
v -0.543290 0.314666 -0.020102
v -0.543290 0.314666 -0.010051
v -0.554726 0.354360 -0.004054
v -0.554726 0.354360 -0.026100
v -0.524640 0.323509 -0.026100
v -0.524640 0.323509 -0.004054
v -0.540141 0.327551 -0.004054
v -0.540141 0.327551 -0.026100
v -0.546070 0.332175 -0.026100
v -0.546070 0.332175 -0.004054
v -0.553564 0.345386 -0.004054
v -0.553564 0.345386 -0.026100
v -0.550658 0.338254 -0.004054
v -0.550658 0.338254 -0.026100
v -0.533290 0.324666 -0.026100
v -0.533290 0.324666 -0.004054
v -0.544726 0.364360 -0.010051
v -0.544726 0.364360 -0.020102
v -0.514640 0.333508 -0.020102
v -0.514640 0.333508 -0.010051
v -0.530141 0.337551 -0.010051
v -0.530141 0.337551 -0.020102
v -0.536070 0.342175 -0.020102
v -0.536070 0.342175 -0.010051
v -0.543564 0.355386 -0.010051
v -0.543564 0.355386 -0.020102
v -0.540658 0.348254 -0.010051
v -0.540658 0.348254 -0.020102
v -0.523290 0.334666 -0.020102
v -0.523290 0.334666 -0.010051
v -0.052088 0.812059 -0.010051
v -0.052088 0.812059 -0.020102
v -0.046160 0.807434 -0.020102
v -0.046160 0.807434 -0.010051
v -0.038665 0.794224 -0.010051
v -0.038665 0.794224 -0.020102
v -0.037503 0.785250 -0.020102
v -0.037503 0.785250 -0.010051
v -0.067590 0.816101 -0.010051
v -0.067590 0.816101 -0.020102
v -0.058939 0.814943 -0.020102
v -0.058939 0.814943 -0.010051
v -0.041571 0.801355 -0.010051
v -0.041571 0.801355 -0.020102
v -0.062088 0.802059 -0.004054
v -0.062088 0.802059 -0.026100
v -0.056160 0.797434 -0.026100
v -0.056160 0.797434 -0.004054
v -0.048665 0.784224 -0.004054
v -0.048665 0.784224 -0.026100
v -0.047503 0.775250 -0.026100
v -0.047503 0.775250 -0.004054
v -0.077590 0.806101 -0.004054
v -0.077590 0.806101 -0.026100
v -0.068939 0.804943 -0.026100
v -0.068939 0.804943 -0.004054
v -0.051571 0.791355 -0.004054
v -0.051571 0.791355 -0.026100
v -0.072088 0.792059 -0.010051
v -0.072088 0.792059 -0.020102
v -0.066160 0.787434 -0.020102
v -0.066160 0.787434 -0.010051
v -0.058665 0.774224 -0.010051
v -0.058665 0.774224 -0.020102
v -0.057503 0.765250 -0.020102
v -0.057503 0.765250 -0.010051
v -0.087590 0.796101 -0.010051
v -0.087590 0.796101 -0.020102
v -0.078939 0.794943 -0.020102
v -0.078939 0.794943 -0.010051
v -0.061571 0.781355 -0.010051
v -0.061571 0.781355 -0.020102
v -0.564726 0.785250 -0.020102
v -0.564726 0.785250 -0.010051
v -0.550141 0.812059 -0.010051
v -0.550141 0.812059 -0.020102
v -0.543290 0.814943 -0.020102
v -0.543290 0.814943 -0.010051
v -0.534639 0.816101 -0.020102
v -0.534639 0.816101 -0.010051
v -0.563564 0.794224 -0.010051
v -0.563564 0.794224 -0.020102
v -0.560658 0.801355 -0.020102
v -0.560658 0.801355 -0.010051
v -0.556069 0.807434 -0.010051
v -0.556069 0.807434 -0.020102
v -0.554726 0.775250 -0.026100
v -0.554726 0.775250 -0.004054
v -0.540141 0.802059 -0.004054
v -0.540141 0.802059 -0.026100
v -0.533290 0.804943 -0.026100
v -0.533290 0.804943 -0.004054
v -0.524639 0.806101 -0.026100
v -0.524639 0.806101 -0.004054
v -0.553564 0.784224 -0.004054
v -0.553564 0.784224 -0.026100
v -0.550658 0.791355 -0.026100
v -0.550658 0.791355 -0.004054
v -0.546070 0.797434 -0.004054
v -0.546070 0.797434 -0.026100
v -0.544726 0.765250 -0.020102
v -0.544726 0.765250 -0.010051
v -0.530141 0.792059 -0.010051
v -0.530141 0.792059 -0.020102
v -0.523290 0.794943 -0.020102
v -0.523290 0.794943 -0.010051
v -0.514639 0.796101 -0.020102
v -0.514639 0.796101 -0.010051
v -0.543564 0.774224 -0.010051
v -0.543564 0.774224 -0.020102
v -0.540658 0.781355 -0.020102
v -0.540658 0.781355 -0.010051
v -0.536070 0.787434 -0.010051
v -0.536070 0.787434 -0.020102
vn 0.9659 0.2588 -0.0000
vn 0.9979 0.0654 -0.0000
vn 0.8660 0.5000 -0.0000
vn 0.7071 0.7071 -0.0000
vn 0.5000 0.8660 -0.0000
vn 0.2588 0.9659 -0.0000
vn 0.0654 0.9979 -0.0000
vn 0.2588 -0.9659 -0.0000
vn 0.0654 -0.9979 -0.0000
vn 0.5000 -0.8660 -0.0000
vn 0.7071 -0.7071 -0.0000
vn 0.8660 -0.5000 -0.0000
vn 0.9659 -0.2588 -0.0000
vn 0.9979 -0.0654 -0.0000
vn -0.0654 -0.9979 -0.0000
vn -0.2588 -0.9659 -0.0000
vn -0.5000 -0.8660 -0.0000
vn -0.7071 -0.7071 -0.0000
vn -0.8660 -0.5000 -0.0000
vn -0.9659 -0.2588 -0.0000
vn -0.9979 -0.0654 -0.0000
vn -0.0655 0.9979 -0.0001
vn -1.0000 -0.0000 -0.0000
vn -0.9979 0.0654 -0.0000
vn -0.2589 0.9659 -0.0000
vn -0.5000 0.8660 -0.0000
vn -0.7071 0.7071 -0.0000
vn -0.8660 0.5000 -0.0000
vn -0.9659 0.2588 -0.0000
vn -0.9669 0.2550 -0.0000
vn -0.9979 0.0644 -0.0000
vn -0.8694 0.4941 -0.0000
vn -0.7127 0.7015 -0.0000
vn -0.5060 0.8626 -0.0000
vn -0.2627 0.9649 -0.0000
vn -0.0665 0.9978 -0.0000
vn -0.2627 -0.9649 -0.0000
vn -0.0665 -0.9978 -0.0000
vn -0.5060 -0.8626 -0.0000
vn -0.7127 -0.7015 -0.0000
vn -0.8694 -0.4941 -0.0000
vn -0.9669 -0.2550 -0.0000
vn -0.9979 -0.0644 -0.0000
vn 0.0665 0.9978 -0.0000
vn -0.0665 0.9978 -0.0001
vn 0.0665 -0.9978 -0.0000
vn 1.0000 -0.0000 -0.0000
vn 0.9979 0.0644 -0.0000
vn 0.9669 -0.2550 -0.0000
vn 0.8694 -0.4941 -0.0000
vn 0.7127 -0.7015 -0.0000
vn 0.5060 -0.8626 -0.0000
vn 0.9979 -0.0644 -0.0000
vn 0.2627 -0.9649 -0.0000
vn 0.2627 0.9649 -0.0000
vn 0.5060 0.8626 -0.0000
vn 0.7127 0.7015 -0.0000
vn 0.8694 0.4941 -0.0000
vn 0.9669 0.2550 -0.0000
vn -0.0000 -0.0000 -1.0000
vn -0.0000 -0.0000 1.0000
vn 0.9917 -0.1284 -0.0000
vn -0.4798 0.4799 0.7345
vn -0.6868 0.1366 0.7139
vn -0.1366 0.6868 0.7139
vn -0.4798 0.4798 0.7345
vn 0.4798 0.4798 0.7345
vn 0.6868 0.1366 0.7139
vn 0.1366 0.6868 0.7139
vn 0.4798 -0.4798 0.7345
vn 0.1366 -0.6868 0.7139
vn 0.6868 -0.1366 0.7139
vn -0.4799 -0.4798 0.7345
vn -0.1366 -0.6868 0.7139
vn -0.6867 -0.1366 0.7140
vn -0.4799 -0.4799 0.7345
vn 0.4798 -0.4798 -0.7345
vn 0.1366 -0.6868 -0.7139
vn 0.6867 -0.1366 -0.7140
vn 0.4798 0.4798 -0.7345
vn 0.1366 0.6867 -0.7139
vn 0.6868 0.1366 -0.7139
vn -0.4799 0.4798 -0.7345
vn -0.1366 0.6868 -0.7139
vn -0.6867 0.1366 -0.7140
vn -0.4799 0.4799 -0.7345
vn -0.4798 -0.4798 -0.7345
vn -0.1366 -0.6868 -0.7139
vn -0.6868 -0.1366 -0.7139
vn 0.6867 -0.1366 -0.7139
vn -0.1951 0.9808 -0.0000
vn 0.1951 0.9808 -0.0000
vn -0.9808 -0.1951 -0.0000
vn -0.9808 0.1951 -0.0000
vn 0.9808 0.1951 -0.0000
vn 0.9808 -0.1951 -0.0000
vn 0.1951 -0.9808 -0.0000
vn -0.1951 -0.9808 -0.0000
vn 0.4816 -0.0434 -0.8753
vn 0.0490 0.0076 -0.9988
vn 0.0312 0.0132 -0.9994
vn 0.4816 -0.0434 0.8753
vn 0.0490 0.0076 0.9988
vn 0.4150 -0.1255 0.9011
vn 0.1284 -0.4125 0.9019
vn 0.0104 -0.0352 0.9993
vn -0.0072 -0.0499 0.9987
vn 0.2084 -0.3413 0.9166
vn 0.0233 -0.0226 0.9995
vn 0.0447 -0.4806 0.8758
vn -0.0135 -0.0321 0.9994
vn 0.3449 -0.2045 -0.9161
vn 0.0233 -0.0226 -0.9995
vn 0.0353 -0.0095 -0.9993
vn 0.4150 -0.1255 -0.9011
vn 0.3449 -0.2045 0.9161
vn 0.2781 -0.2740 0.9206
vn 0.0447 -0.4806 -0.8758
vn -0.0072 -0.0499 -0.9987
vn 0.1284 -0.4125 -0.9019
vn 0.0104 -0.0352 -0.9993
vn 0.2084 -0.3413 -0.9166
vn 0.0353 -0.0095 0.9993
vn 0.2781 -0.2740 -0.9206
vn -0.7189 0.4019 -0.5671
vn -0.8140 0.2022 -0.5445
vn -0.5836 0.5742 0.5742
vn -0.5836 0.5742 -0.5742
vn -0.7189 0.4019 0.5671
vn -0.8598 0.0471 -0.5085
vn -0.4116 0.7126 0.5682
vn -0.2082 0.8115 0.5460
vn -0.0135 -0.0321 -0.9994
vn -0.2082 0.8115 -0.5459
vn -0.0487 0.8594 0.5090
vn -0.4116 0.7126 -0.5682
vn 0.0312 0.0132 0.9994
vn -0.8140 0.2022 0.5445
vn -0.0447 -0.4806 0.8758
vn 0.0072 -0.0499 0.9987
vn -0.1284 -0.4125 0.9019
vn -0.4816 -0.0434 -0.8753
vn -0.0490 0.0076 -0.9988
vn -0.4150 -0.1255 -0.9011
vn -0.4150 -0.1255 0.9011
vn -0.0353 -0.0095 0.9993
vn -0.0490 0.0076 0.9988
vn -0.0447 -0.4806 -0.8758
vn 0.0072 -0.0499 -0.9987
vn 0.0135 -0.0321 -0.9994
vn -0.2084 -0.3413 0.9166
vn -0.0233 -0.0226 0.9995
vn -0.2781 -0.2740 0.9206
vn -0.0104 -0.0352 0.9993
vn -0.0353 -0.0095 -0.9993
vn -0.3449 -0.2045 -0.9161
vn -0.3449 -0.2045 0.9161
vn -0.2084 -0.3413 -0.9166
vn -0.0233 -0.0226 -0.9995
vn -0.0104 -0.0352 -0.9993
vn -0.1284 -0.4125 -0.9019
vn -0.4816 -0.0434 0.8753
vn -0.0312 0.0132 0.9994
vn -0.2781 -0.2740 -0.9206
vn 0.5836 0.5742 0.5742
vn 0.4116 0.7126 0.5682
vn 0.7189 0.4019 -0.5671
vn 0.7189 0.4019 0.5671
vn 0.5836 0.5742 -0.5742
vn 0.4116 0.7126 -0.5682
vn 0.2082 0.8115 -0.5460
vn 0.8140 0.2022 0.5445
vn 0.8598 0.0471 0.5085
vn 0.0135 -0.0321 0.9994
vn 0.2082 0.8115 0.5460
vn -0.0312 0.0132 -0.9994
vn 0.8140 0.2022 -0.5445
vn 0.0487 0.8594 -0.5090
vn 0.0487 0.8594 0.5091
vn 0.8598 0.0471 -0.5085
vn -0.0487 0.8594 -0.5091
vn -0.8598 0.0471 0.5085
vn 0.0447 0.4806 0.8758
vn -0.0072 0.0499 0.9987
vn 0.1284 0.4125 0.9019
vn 0.4150 0.1255 -0.9011
vn 0.0353 0.0095 -0.9993
vn 0.3449 0.2045 -0.9161
vn 0.2084 0.3413 0.9166
vn 0.0233 0.0226 0.9995
vn 0.2781 0.2740 0.9206
vn 0.3449 0.2045 0.9161
vn 0.0353 0.0095 0.9993
vn 0.0447 0.4806 -0.8758
vn -0.0072 0.0499 -0.9987
vn -0.0135 0.0321 -0.9994
vn 0.0104 0.0352 0.9993
vn 0.2084 0.3413 -0.9166
vn 0.0233 0.0226 -0.9995
vn 0.0104 0.0352 -0.9993
vn 0.2781 0.2740 -0.9206
vn 0.4816 0.0434 0.8753
vn 0.0490 -0.0076 0.9988
vn 0.0312 -0.0132 0.9994
vn 0.1284 0.4125 -0.9019
vn 0.4150 0.1255 0.9011
vn 0.4816 0.0434 -0.8753
vn 0.0490 -0.0076 -0.9988
vn -0.2082 -0.8115 -0.5459
vn -0.0487 -0.8594 -0.5091
vn -0.4116 -0.7126 0.5682
vn -0.5836 -0.5742 -0.5742
vn -0.4116 -0.7126 -0.5682
vn -0.8140 -0.2022 0.5445
vn -0.8598 -0.0471 0.5085
vn -0.7189 -0.4019 0.5671
vn 0.0312 -0.0132 -0.9994
vn -0.8140 -0.2022 -0.5445
vn -0.0135 0.0321 0.9994
vn -0.2082 -0.8115 0.5460
vn -0.7189 -0.4019 -0.5671
vn -0.5836 -0.5742 0.5742
vn -0.8598 -0.0471 -0.5085
vn -0.0487 -0.8594 0.5091
vn -0.1284 0.4125 0.9019
vn -0.0104 0.0352 0.9993
vn 0.0072 0.0499 0.9987
vn -0.4816 0.0434 0.8753
vn -0.0490 -0.0076 0.9988
vn -0.4150 0.1255 0.9011
vn -0.4150 0.1255 -0.9011
vn -0.0353 0.0095 -0.9993
vn -0.0490 -0.0076 -0.9988
vn -0.2084 0.3413 0.9166
vn -0.0233 0.0226 0.9995
vn -0.1284 0.4125 -0.9019
vn -0.0104 0.0352 -0.9993
vn -0.2084 0.3413 -0.9166
vn -0.4816 0.0434 -0.8753
vn -0.0312 -0.0132 -0.9994
vn -0.0447 0.4806 0.8758
vn 0.0135 0.0321 0.9994
vn -0.0233 0.0226 -0.9995
vn -0.2781 0.2740 -0.9206
vn -0.3449 0.2045 0.9161
vn -0.2781 0.2740 0.9206
vn -0.0447 0.4806 -0.8758
vn 0.0072 0.0499 -0.9987
vn -0.0353 0.0095 0.9993
vn -0.3449 0.2045 -0.9161
vn 0.8140 -0.2022 -0.5445
vn 0.8598 -0.0471 -0.5085
vn 0.2082 -0.8115 0.5460
vn 0.0487 -0.8594 0.5091
vn 0.5836 -0.5742 -0.5742
vn 0.5836 -0.5742 0.5742
vn 0.0135 0.0321 -0.9994
vn 0.2082 -0.8115 -0.5460
vn 0.7189 -0.4019 0.5671
vn 0.7189 -0.4019 -0.5671
vn 0.4116 -0.7126 0.5682
vn -0.0312 -0.0132 0.9994
vn 0.8140 -0.2022 0.5445
vn 0.4116 -0.7126 -0.5682
vn 0.0487 -0.8594 -0.5090
vn 0.8598 -0.0471 0.5085
vt 0.489613 0.580988
vt 0.486886 0.579191
vt 0.489334 0.578869
vt 0.490431 0.582962
vt 0.487332 0.581932
vt 0.491732 0.584658
vt 0.488472 0.584465
vt 0.493427 0.585959
vt 0.490229 0.586616
vt 0.495402 0.586777
vt 0.492483 0.588240
vt 0.497521 0.587056
vt 0.495079 0.589224
vt 0.495403 0.307803
vt 0.497199 0.305077
vt 0.497522 0.307524
vt 0.493428 0.308621
vt 0.494458 0.305522
vt 0.491733 0.309922
vt 0.491925 0.306662
vt 0.490432 0.311618
vt 0.489774 0.308419
vt 0.489614 0.313592
vt 0.488151 0.310673
vt 0.489335 0.315711
vt 0.487166 0.313270
vt 0.579756 0.307524
vt 0.497522 0.305055
vt 0.579756 0.305055
vt 0.582197 0.305355
vt 0.580078 0.305076
vt 0.584794 0.306340
vt 0.581875 0.307803
vt 0.582819 0.305522
vt 0.587048 0.307963
vt 0.583849 0.308621
vt 0.585352 0.306662
vt 0.588804 0.310115
vt 0.585545 0.309922
vt 0.587503 0.308419
vt 0.589945 0.312647
vt 0.586846 0.311617
vt 0.589127 0.310673
vt 0.590390 0.315389
vt 0.587664 0.313592
vt 0.590111 0.313270
vt 0.579756 0.589525
vt 0.497521 0.589524
vt 0.486865 0.578869
vt 0.486866 0.315711
vt 0.590411 0.446470
vt 0.590411 0.471033
vt 0.587943 0.578869
vt 0.582197 0.589225
vt 0.579756 0.587056
vt 0.581875 0.586777
vt 0.582819 0.589058
vt 0.583849 0.585959
vt 0.584794 0.588240
vt 0.585352 0.587918
vt 0.585545 0.584658
vt 0.587048 0.586617
vt 0.587503 0.586161
vt 0.586846 0.582963
vt 0.588804 0.584466
vt 0.589127 0.583907
vt 0.587664 0.580988
vt 0.589945 0.581933
vt 0.590111 0.581310
vt 0.590390 0.579191
vt 0.460792 0.535713
vt 0.458375 0.537889
vt 0.458692 0.535441
vt 0.463364 0.536673
vt 0.460475 0.538161
vt 0.461407 0.535875
vt 0.465600 0.538257
vt 0.462432 0.538959
vt 0.463920 0.536988
vt 0.467349 0.540362
vt 0.464113 0.540227
vt 0.466060 0.538709
vt 0.468489 0.542848
vt 0.465403 0.541881
vt 0.467678 0.540923
vt 0.468660 0.543478
vt 0.466490 0.545872
vt 0.466214 0.543806
vt 0.187241 0.543479
vt 0.189411 0.545872
vt 0.186964 0.545545
vt 0.188223 0.540923
vt 0.189687 0.543806
vt 0.187412 0.542848
vt 0.189841 0.538709
vt 0.190498 0.541881
vt 0.188552 0.540363
vt 0.191981 0.536989
vt 0.191788 0.540228
vt 0.190301 0.538257
vt 0.194494 0.535875
vt 0.193468 0.538959
vt 0.192537 0.536673
vt 0.197209 0.535441
vt 0.195426 0.538161
vt 0.195109 0.535713
vt 0.466492 0.626058
vt 0.468959 0.545872
vt 0.468960 0.626058
vt 0.351695 0.537889
vt 0.197526 0.537889
vt 0.197526 0.535421
vt 0.186942 0.626058
vt 0.186942 0.545872
vt 0.351695 0.634041
vt 0.458377 0.634041
vt 0.458377 0.636510
vt 0.195426 0.633769
vt 0.192537 0.635258
vt 0.193469 0.632971
vt 0.191788 0.631703
vt 0.188552 0.631568
vt 0.190498 0.630050
vt 0.197526 0.634041
vt 0.195109 0.636217
vt 0.190301 0.633673
vt 0.187412 0.629082
vt 0.189687 0.628124
vt 0.186964 0.626386
vt 0.189411 0.626058
vt 0.468662 0.628451
vt 0.466215 0.628124
vt 0.467680 0.631007
vt 0.465405 0.630049
vt 0.466061 0.633221
vt 0.464115 0.631703
vt 0.463922 0.634942
vt 0.462434 0.632971
vt 0.461409 0.636055
vt 0.460477 0.633769
vt 0.458694 0.636489
vt 0.586442 0.579815
vt 0.490835 0.314765
vt 0.490563 0.316865
vt 0.463217 0.625840
vt 0.463215 0.546090
vt 0.471051 0.651976
vt 0.470294 0.652946
vt 0.466228 0.650148
vt 0.487714 0.869457
vt 0.487318 0.871743
vt 0.486654 0.869956
vt 0.472238 0.801031
vt 0.473888 0.800427
vt 0.473029 0.801519
vt 0.371620 0.865625
vt 0.388069 0.803990
vt 0.373059 0.865712
vt 0.489194 0.867883
vt 0.489823 0.869857
vt 0.488571 0.868750
vt 0.474230 0.802937
vt 0.475988 0.803537
vt 0.474675 0.803990
vt 0.485409 0.872320
vt 0.377576 0.870249
vt 0.485167 0.870249
vt 0.390505 0.801030
vt 0.390999 0.799294
vt 0.391395 0.800711
vt 0.375030 0.869457
vt 0.372921 0.869857
vt 0.374173 0.868750
vt 0.371692 0.867222
vt 0.373181 0.866912
vt 0.372130 0.868599
vt 0.373550 0.867883
vt 0.470174 0.800547
vt 0.471744 0.799294
vt 0.471348 0.800711
vt 0.489685 0.865712
vt 0.491052 0.867222
vt 0.489562 0.866912
vt 0.392569 0.800546
vt 0.388513 0.802937
vt 0.387996 0.801271
vt 0.389044 0.802161
vt 0.388856 0.800427
vt 0.389714 0.801519
vt 0.474747 0.801271
vt 0.473700 0.802161
vt 0.386756 0.803537
vt 0.387314 0.802265
vt 0.377335 0.872320
vt 0.376089 0.869956
vt 0.375425 0.871743
vt 0.392432 0.798999
vt 0.747261 0.799936
vt 0.669343 0.798999
vt 0.747384 0.798383
vt 0.763216 0.869964
vt 0.765270 0.870935
vt 0.763876 0.871748
vt 0.761732 0.870256
vt 0.761972 0.872320
vt 0.751380 0.802287
vt 0.752923 0.802302
vt 0.751843 0.803361
vt 0.650234 0.866930
vt 0.649186 0.868613
vt 0.648748 0.867241
vt 0.666638 0.801539
vt 0.664918 0.801299
vt 0.665773 0.800451
vt 0.665970 0.802185
vt 0.664240 0.802296
vt 0.668316 0.800721
vt 0.666779 0.799780
vt 0.667911 0.799304
vt 0.750826 0.801511
vt 0.750981 0.799766
vt 0.751855 0.800593
vt 0.750139 0.800876
vt 0.749960 0.799116
vt 0.665001 0.804018
vt 0.648675 0.865647
vt 0.663687 0.803568
vt 0.765134 0.868761
vt 0.767181 0.868617
vt 0.766384 0.869872
vt 0.752562 0.801567
vt 0.653133 0.869965
vt 0.654374 0.872320
vt 0.652472 0.871746
vt 0.748441 0.800088
vt 0.748820 0.798663
vt 0.651223 0.868763
vt 0.651083 0.870931
vt 0.649975 0.869867
vt 0.765761 0.867894
vt 0.767628 0.867241
vt 0.766135 0.866920
vt 0.767712 0.865640
vt 0.654615 0.870257
vt 0.766264 0.865715
vt 0.753173 0.802936
vt 0.351695 0.545665
vt 0.377837 0.544674
vt 0.377647 0.546090
vt 0.487870 0.866552
vt 0.488204 0.865720
vt 0.653569 0.867815
vt 0.654833 0.868121
vt 0.651924 0.866571
vt 0.650602 0.867899
vt 0.652595 0.867281
vt 0.650111 0.865732
vt 0.651591 0.865739
vt 0.487196 0.867262
vt 0.488106 0.864631
vt 0.652078 0.869468
vt 0.656691 0.868156
vt 0.484948 0.868103
vt 0.486219 0.867798
vt 0.552786 0.651224
vt 0.551619 0.650748
vt 0.581153 0.646055
vt 0.327131 0.545665
vt 0.327131 0.548938
vt 0.604899 0.654240
vt 0.581972 0.654240
vt 0.984072 0.176396
vt 0.983645 0.176824
vt 0.983586 0.176597
vt 0.984500 0.175968
vt 0.984260 0.176547
vt 0.984072 0.172216
vt 0.983645 0.171788
vt 0.984224 0.172028
vt 0.984500 0.172644
vt 0.984274 0.172702
vt 0.960239 0.172216
vt 0.959811 0.172644
vt 0.960051 0.172065
vt 0.960666 0.171788
vt 0.960725 0.172015
vt 0.960239 0.176396
vt 0.959811 0.175968
vt 0.960037 0.175910
vt 0.960666 0.176824
vt 0.960087 0.176584
vt 0.960239 0.192389
vt 0.959811 0.191961
vt 0.960037 0.191903
vt 0.960666 0.192817
vt 0.960087 0.192577
vt 0.984072 0.192389
vt 0.984500 0.191961
vt 0.984260 0.192540
vt 0.983644 0.192817
vt 0.983586 0.192590
vt 0.984072 0.188209
vt 0.984500 0.188637
vt 0.984273 0.188695
vt 0.983644 0.187781
vt 0.984223 0.188021
vt 0.960239 0.188209
vt 0.959811 0.188637
vt 0.960051 0.188058
vt 0.960666 0.187781
vt 0.960725 0.188008
vt 0.960692 0.176829
vt 0.960725 0.176597
vt 0.984505 0.175942
vt 0.984274 0.175910
vt 0.983619 0.171783
vt 0.983586 0.172015
vt 0.959806 0.172670
vt 0.960037 0.172702
vt 0.983586 0.188008
vt 0.960692 0.187776
vt 0.983618 0.187776
vt 0.959806 0.188663
vt 0.960037 0.188695
vt 0.960725 0.192590
vt 0.983618 0.192822
vt 0.960692 0.192822
vt 0.984273 0.191903
vt 0.984505 0.188663
vt 0.984505 0.191935
vt 0.985862 0.176532
vt 0.985622 0.177111
vt 0.985979 0.175942
vt 0.984505 0.172670
vt 0.985979 0.172670
vt 0.960692 0.178302
vt 0.983619 0.176829
vt 0.983619 0.178302
vt 0.984788 0.177945
vt 0.984209 0.178185
vt 0.984209 0.170427
vt 0.983619 0.170309
vt 0.960692 0.171783
vt 0.960692 0.170309
vt 0.985622 0.171501
vt 0.984260 0.172065
vt 0.960102 0.178185
vt 0.959523 0.177945
vt 0.958332 0.172670
vt 0.959806 0.175942
vt 0.958332 0.175942
vt 0.958689 0.177111
vt 0.958449 0.176532
vt 0.958449 0.172080
vt 0.959523 0.170667
vt 0.960087 0.172028
vt 0.958449 0.188073
vt 0.958332 0.188663
vt 0.959806 0.191935
vt 0.958332 0.191935
vt 0.959523 0.186660
vt 0.960087 0.188021
vt 0.983618 0.186302
vt 0.960692 0.186302
vt 0.960102 0.194178
vt 0.959523 0.193938
vt 0.960692 0.194296
vt 0.983618 0.194296
vt 0.958689 0.193104
vt 0.958449 0.192525
vt 0.984208 0.186420
vt 0.984787 0.186660
vt 0.985979 0.191935
vt 0.985979 0.188663
vt 0.985622 0.187494
vt 0.985861 0.188073
vt 0.985861 0.192525
vt 0.984787 0.193938
vt 0.984223 0.192577
vt 0.856105 0.735628
vt 0.856524 0.733711
vt 0.857869 0.734070
vt 0.872740 0.756334
vt 0.872974 0.758431
vt 0.871222 0.756571
vt 0.867708 0.760049
vt 0.870060 0.760661
vt 0.869586 0.761785
vt 0.868207 0.758886
vt 0.870816 0.759682
vt 0.867487 0.761516
vt 0.869384 0.763190
vt 0.853674 0.734736
vt 0.854583 0.732362
vt 0.855470 0.733151
vt 0.854741 0.735288
vt 0.870018 0.757087
vt 0.868992 0.757877
vt 0.851488 0.730517
vt 0.853501 0.730293
vt 0.851669 0.731891
vt 0.853915 0.731390
vt 0.852094 0.732985
vt 0.871810 0.758921
vt 0.852774 0.733952
vt 0.857274 0.731585
vt 0.858311 0.732154
vt 0.872572 0.761420
vt 0.856409 0.730795
vt 0.873524 0.760700
vt 0.859633 0.732542
vt 0.871857 0.762357
vt 0.871427 0.763445
vt 0.853335 0.728921
vt 0.855362 0.728705
vt 0.871271 0.764834
vt 0.855765 0.729817
vt 0.874428 0.758214
vt 0.874650 0.760254
vt 0.376525 0.867798
vt 0.377795 0.868103
vt 0.374874 0.866552
vt 0.375547 0.867262
vt 0.764772 0.865712
vt 0.764684 0.864610
vt 0.761512 0.868116
vt 0.374540 0.865720
vt 0.379662 0.868138
vt 0.763757 0.867269
vt 0.764433 0.866553
vt 0.762779 0.867808
vt 0.764275 0.869466
vt 0.867487 0.838123
vt 0.869586 0.837855
vt 0.867708 0.839591
vt 0.856105 0.650949
vt 0.856524 0.652866
vt 0.854741 0.651290
vt 0.871222 0.843068
vt 0.871810 0.840719
vt 0.872974 0.841209
vt 0.851488 0.656060
vt 0.853501 0.656284
vt 0.853335 0.657656
vt 0.868207 0.840753
vt 0.870816 0.839958
vt 0.868992 0.841763
vt 0.870060 0.838979
vt 0.855470 0.653427
vt 0.853674 0.651842
vt 0.870018 0.842553
vt 0.852094 0.653592
vt 0.854583 0.654216
vt 0.853915 0.655187
vt 0.851669 0.654686
vt 0.872740 0.843305
vt 0.874428 0.841426
vt 0.852775 0.652625
vt 0.872572 0.838220
vt 0.871857 0.837282
vt 0.857274 0.654993
vt 0.873524 0.838940
vt 0.856409 0.655783
vt 0.855765 0.656761
vt 0.855362 0.657872
vt 0.874650 0.839386
vt 0.876088 0.839557
vt 0.869384 0.836450
vt 0.871427 0.836195
vt 0.857869 0.652508
vt 0.858311 0.654424
vt 0.855170 0.659252
vt 0.856984 0.729249
vt 0.856984 0.657329
vt 0.858020 0.656069
vt 0.858805 0.655698
vt 0.858020 0.730509
vt 0.857407 0.729959
vt 0.856758 0.658174
vt 0.856689 0.659339
vt 0.856689 0.727239
vt 0.856758 0.728404
vt 0.858805 0.730880
vt 0.859632 0.654036
vt 0.855170 0.727325
vt 0.859921 0.731122
vt 0.871271 0.834806
vt 0.759653 0.868153
vt 0.471948 0.802991
vt 0.667427 0.801046
vt 0.667727 0.803008
vt 0.470026 0.802204
vt 0.468642 0.802114
vt 0.471058 0.802502
vt 0.665442 0.802963
vt 0.666986 0.803677
vt 0.666416 0.804506
vt 0.666000 0.805662
vt 0.473261 0.804482
vt 0.472690 0.803655
vt 0.669491 0.800548
vt 0.669651 0.802209
vt 0.668618 0.802513
vt 0.950332 0.760871
vt 0.948201 0.761152
vt 0.950095 0.759380
vt 0.924338 0.744663
vt 0.924008 0.742140
vt 0.925709 0.744289
vt 0.949577 0.758205
vt 0.946945 0.759035
vt 0.948769 0.757190
vt 0.947720 0.756404
vt 0.945935 0.758277
vt 0.929056 0.739528
vt 0.926588 0.739122
vt 0.926843 0.737504
vt 0.947716 0.760017
vt 0.927951 0.742519
vt 0.925120 0.741403
vt 0.926007 0.740373
vt 0.926944 0.743558
vt 0.944960 0.755688
vt 0.944759 0.757798
vt 0.943299 0.757600
vt 0.928655 0.741239
vt 0.946495 0.755901
vt 0.922719 0.744659
vt 0.922773 0.742545
vt 0.924440 0.737206
vt 0.924629 0.735551
vt 0.945907 0.761735
vt 0.923290 0.739515
vt 0.924000 0.738479
vt 0.943104 0.759644
vt 0.941669 0.759496
vt 0.944232 0.760078
vt 0.921333 0.742639
vt 0.921283 0.740643
vt 0.948408 0.762574
vt 0.946339 0.762834
vt 0.922359 0.740246
vt 0.945189 0.760793
vt 0.919967 0.740732
vt 0.473678 0.805637
vt 0.921064 0.739400
vt 0.922639 0.737929
vt 0.921760 0.739188
vt 0.922294 0.738691
vt 0.876088 0.760083
vt 0.922782 0.736933
vt 0.922766 0.735486
vt 0.747129 0.801601
vt 0.745738 0.801521
vt 0.749338 0.800397
vt 0.749072 0.802371
vt 0.748169 0.801890
vt 0.390053 0.803654
vt 0.389482 0.804482
vt 0.392717 0.802204
vt 0.390795 0.802990
vt 0.391686 0.802501
vt 0.750412 0.803857
vt 0.389065 0.805636
vt 0.749829 0.803030
vt 0.950095 0.840260
vt 0.947716 0.839623
vt 0.948201 0.838488
vt 0.944960 0.843951
vt 0.944759 0.841842
vt 0.946495 0.843739
vt 0.924338 0.641915
vt 0.924008 0.644438
vt 0.922773 0.644033
vt 0.949577 0.841435
vt 0.946945 0.840605
vt 0.928655 0.645339
vt 0.926007 0.646205
vt 0.927951 0.644059
vt 0.922719 0.641919
vt 0.921333 0.643939
vt 0.950332 0.838769
vt 0.948408 0.837065
vt 0.925120 0.645175
vt 0.926944 0.643020
vt 0.947720 0.843236
vt 0.948769 0.842450
vt 0.929056 0.647050
vt 0.926588 0.647456
vt 0.945935 0.841363
vt 0.925709 0.642290
vt 0.921283 0.645934
vt 0.919967 0.645846
vt 0.946339 0.836806
vt 0.946493 0.835395
vt 0.923290 0.647063
vt 0.945189 0.838846
vt 0.926843 0.649075
vt 0.924440 0.649372
vt 0.944232 0.839562
vt 0.922359 0.646332
vt 0.945908 0.837905
vt 0.943299 0.842040
vt 0.943104 0.839996
vt 0.924000 0.648100
vt 0.922294 0.647887
vt 0.922639 0.648649
vt 0.394102 0.802114
vt 0.924629 0.651027
vt 0.921064 0.647178
vt 0.920040 0.647242
vt 0.946493 0.764245
vt 0.922782 0.649645
vt 0.750825 0.805015
vt 0.941669 0.840144
vt 0.859921 0.655455
vt 0.487165 0.581310
vt 0.488150 0.583907
vt 0.489773 0.586161
vt 0.491924 0.587917
vt 0.494457 0.589057
vt 0.497198 0.589503
vt 0.495081 0.305356
vt 0.492484 0.306340
vt 0.490230 0.307963
vt 0.488473 0.310115
vt 0.487333 0.312647
vt 0.486887 0.315389
vt 0.587943 0.315711
vt 0.590411 0.578869
vt 0.590411 0.315711
vt 0.580078 0.589504
vt 0.468937 0.545545
vt 0.458375 0.535421
vt 0.197526 0.636510
vt 0.194494 0.636055
vt 0.189841 0.633221
vt 0.197209 0.636489
vt 0.191981 0.634942
vt 0.188223 0.631008
vt 0.187241 0.628452
vt 0.468939 0.626385
vt 0.468490 0.629082
vt 0.467351 0.631568
vt 0.465602 0.633673
vt 0.463366 0.635257
vt 0.460794 0.636217
vt 0.585645 0.581773
vt 0.586714 0.577715
vt 0.584376 0.583453
vt 0.582723 0.584743
vt 0.580797 0.585554
vt 0.578731 0.585830
vt 0.496479 0.585553
vt 0.498545 0.585830
vt 0.494554 0.584742
vt 0.492900 0.583453
vt 0.491632 0.581772
vt 0.490834 0.579815
vt 0.491633 0.312808
vt 0.492902 0.311127
vt 0.494555 0.309837
vt 0.496480 0.309027
vt 0.498546 0.308750
vt 0.580797 0.309026
vt 0.578731 0.308750
vt 0.582723 0.309837
vt 0.584376 0.311127
vt 0.585645 0.312807
vt 0.586442 0.314765
vt 0.586714 0.316865
vt 0.490562 0.577714
vt 0.459635 0.630576
vt 0.382699 0.630766
vt 0.458166 0.630766
vt 0.379066 0.629349
vt 0.380062 0.630100
vt 0.381230 0.630576
vt 0.462555 0.628378
vt 0.461798 0.629349
vt 0.463027 0.627256
vt 0.463026 0.544674
vt 0.462553 0.543552
vt 0.459633 0.541354
vt 0.461796 0.542581
vt 0.460801 0.541830
vt 0.382699 0.541164
vt 0.458164 0.541164
vt 0.380062 0.541830
vt 0.379066 0.542581
vt 0.381229 0.541354
vt 0.460803 0.630100
vt 0.467529 0.648453
vt 0.469225 0.647152
vt 0.471200 0.646334
vt 0.472047 0.651224
vt 0.473214 0.650748
vt 0.473318 0.646055
vt 0.474022 0.650644
vt 0.465131 0.654242
vt 0.465410 0.652123
vt 0.469822 0.654068
vt 0.465411 0.738595
vt 0.465131 0.736476
vt 0.469822 0.736650
vt 0.469632 0.655485
vt 0.469632 0.735233
vt 0.488713 0.870924
vt 0.472878 0.799762
vt 0.490614 0.868599
vt 0.475430 0.802266
vt 0.389866 0.799762
vt 0.374031 0.870924
vt 0.470311 0.798999
vt 0.491123 0.865625
vt 0.378309 0.628378
vt 0.351455 0.549517
vt 0.377647 0.625840
vt 0.351695 0.548938
vt 0.378309 0.543552
vt 0.377837 0.627256
vt 0.651688 0.864650
vt 0.483082 0.868138
vt 0.469225 0.743566
vt 0.467529 0.742265
vt 0.471051 0.738742
vt 0.466228 0.740570
vt 0.470294 0.737772
vt 0.471200 0.744384
vt 0.472047 0.739494
vt 0.736476 0.744663
vt 0.473318 0.744663
vt 0.550149 0.740160
vt 0.473214 0.739970
vt 0.474684 0.740160
vt 0.740570 0.743566
vt 0.738595 0.744384
vt 0.743566 0.740570
vt 0.742265 0.742265
vt 0.744663 0.736476
vt 0.744384 0.738595
vt 0.744384 0.652122
vt 0.744663 0.654241
vt 0.742265 0.648452
vt 0.736476 0.646055
vt 0.743566 0.650148
vt 0.738595 0.646333
vt 0.740570 0.647151
vt 0.605717 0.646055
vt 0.605717 0.655059
vt 0.605477 0.654480
vt 0.605717 0.658331
vt 0.551619 0.739970
vt 0.605477 0.658910
vt 0.604899 0.659150
vt 0.555201 0.735233
vt 0.581972 0.659150
vt 0.552786 0.739494
vt 0.581393 0.658910
vt 0.553782 0.738742
vt 0.554539 0.737772
vt 0.555011 0.736650
vt 0.581153 0.658331
vt 0.555201 0.655484
vt 0.581153 0.655059
vt 0.555011 0.654068
vt 0.581393 0.654480
vt 0.554539 0.652946
vt 0.474683 0.650558
vt 0.474021 0.650644
vt 0.473318 0.646055
vt 0.550149 0.650558
vt 0.553782 0.651975
vt 0.350876 0.549756
vt 0.327371 0.549517
vt 0.351455 0.545086
vt 0.350876 0.544846
vt 0.327950 0.544846
vt 0.327950 0.549756
vt 0.327371 0.545086
vt 0.984224 0.176584
vt 0.960051 0.176547
vt 0.960051 0.192540
vt 0.984260 0.188058
vt 0.984788 0.170667
vt 0.985862 0.172080
vt 0.958689 0.171501
vt 0.960102 0.170427
vt 0.958689 0.187494
vt 0.960102 0.186420
vt 0.985622 0.193104
vt 0.984208 0.194178
vt 0.374638 0.864631
vt 0.857407 0.656619
vt 0.671039 0.802108
vt 0.920040 0.739336
vt 0.921760 0.647389
vt 0.922766 0.651092
s 1
usemtl MovingParts
f 62/1/1 16/2/2 57/3/2
f 61/4/3 21/5/1 62/1/1
f 60/6/4 20/7/3 61/4/3
f 59/8/5 19/9/4 60/6/4
f 58/10/6 18/11/5 59/8/5
f 63/12/7 17/13/6 58/10/6
f 72/14/8 23/15/9 71/16/9
f 73/17/10 28/18/8 72/14/8
f 74/19/11 27/20/10 73/17/10
f 75/21/12 26/22/11 74/19/11
f 76/23/13 25/24/12 75/21/12
f 77/25/14 24/26/13 76/23/13
f 78/27/15 23/28/9 8/29/15
f 10/30/16 78/27/15 8/31/15
f 11/32/17 79/33/16 10/34/16
f 12/35/18 80/36/17 11/37/17
f 13/38/19 81/39/18 12/40/18
f 14/41/20 82/42/19 13/43/19
f 9/44/21 83/45/20 14/46/20
f 63/12/7 2/47/22 15/48/7
f 77/25/14 16/49/2 22/50/14
f 240/51/23 241/52/23 68/53/24
f 7/54/25 70/55/22 69/56/25
f 7/57/25 64/58/26 6/59/26
f 6/60/26 65/61/27 5/62/27
f 5/63/27 66/64/28 4/65/28
f 4/66/28 67/67/29 3/68/29
f 3/69/29 68/53/24 1/70/24
f 103/71/30 120/72/31 91/73/31
f 102/74/32 121/75/30 103/76/30
f 101/77/33 122/78/32 102/79/32
f 100/80/34 123/81/33 101/82/33
f 99/83/35 124/84/34 100/85/34
f 99/86/35 126/87/36 125/88/35
f 106/89/37 134/90/38 98/91/38
f 105/92/39 135/93/37 106/94/37
f 104/95/40 136/96/39 105/97/39
f 110/98/41 137/99/40 104/100/40
f 111/101/42 138/102/41 110/103/41
f 112/104/43 139/105/42 111/106/42
f 119/107/44 107/108/45 90/109/44
f 242/110/23 140/111/43 112/112/43
f 134/90/38 109/113/46 98/114/38
f 243/115/47 114/116/48 108/117/48
f 132/118/49 95/119/50 131/120/50
f 130/121/51 93/122/52 129/123/52
f 133/124/53 96/125/49 132/118/49
f 131/120/50 94/126/51 130/121/51
f 129/123/52 92/127/54 127/128/54
f 127/128/54 109/129/46 128/130/46
f 119/107/44 89/131/55 118/132/55
f 118/132/55 88/133/56 117/134/56
f 117/134/56 87/135/57 116/136/57
f 116/136/57 86/137/58 115/138/58
f 115/138/58 85/139/59 113/140/59
f 113/140/59 108/141/48 114/116/48
f 103/142/60 68/53/60 67/67/60
f 77/25/60 96/143/60 97/144/60
f 119/107/60 35/145/60 42/146/60
s 0
f 155/147/61 158/148/61 6/149/61
s 1
f 171/150/34 43/151/35 172/152/35
f 175/153/39 32/154/40 176/155/40
f 56/156/48 180/157/53 179/158/48
f 183/159/32 46/160/33 184/161/33
f 187/162/42 30/163/43 188/164/43
f 44/165/36 192/166/44 191/167/36
f 195/168/52 41/169/54 196/170/54
f 199/171/56 53/172/57 200/173/57
f 55/174/59 179/158/48 203/175/59
f 54/176/58 203/175/59 205/177/58
f 207/178/38 34/179/37 208/180/37
f 46/160/33 171/150/34 184/161/33
f 211/181/31 48/182/30 212/183/30
f 41/169/54 214/184/46 196/170/54
f 43/151/35 191/167/36 172/152/35
f 217/185/49 38/186/50 218/187/50
f 53/172/57 205/177/58 200/173/57
f 30/163/43 211/181/31 188/164/43
f 39/188/51 195/168/52 221/189/51
f 38/186/50 221/189/51 218/187/50
f 34/179/37 175/153/39 208/180/37
f 31/190/41 187/162/42 223/191/41
f 32/154/40 223/191/41 176/155/40
f 48/182/30 183/159/32 212/183/30
f 217/185/49 36/192/53 37/193/49
f 50/194/44 224/195/55 192/166/44
f 51/196/55 199/171/56 224/195/55
f 42/197/46 207/178/38 214/184/46
f 215/198/46 149/199/38 157/200/46
f 225/201/55 144/202/56 146/203/55
f 193/204/44 146/203/55 147/205/44
f 216/206/49 152/207/62 181/208/53
f 213/209/30 167/210/32 166/211/30
f 177/212/40 168/213/41 162/214/40
f 222/215/41 163/216/42 168/213/41
f 209/217/37 148/218/39 150/219/37
f 219/220/50 155/221/51 154/222/50
f 220/223/51 158/224/52 155/221/51
f 189/225/43 165/226/31 164/227/43
f 201/228/57 143/229/58 145/230/57
f 153/231/49 219/220/50 154/222/50
f 173/232/35 160/233/36 159/234/35
f 197/235/54 157/200/46 156/236/54
f 165/226/31 213/209/30 166/211/30
f 185/237/33 169/238/34 161/239/33
f 149/199/38 209/217/37 150/219/37
f 204/240/58 142/241/59 143/229/58
f 202/242/59 141/243/48 142/241/59
f 144/202/56 201/228/57 145/230/57
f 158/224/52 197/235/54 156/236/54
f 190/244/36 147/205/44 160/233/36
f 163/216/42 189/225/43 164/227/43
f 167/210/32 185/237/33 161/239/33
f 178/245/48 151/246/53 141/243/48
f 148/218/39 177/212/40 162/214/40
f 169/238/34 173/232/35 159/234/35
f 262/247/60 51/248/60 50/249/60
f 212/183/60 234/250/60 227/251/60
f 173/232/61 239/252/61 236/253/61
f 213/209/61 235/254/61 182/255/61
f 182/255/61 232/256/61 185/237/61
f 210/257/61 226/258/61 213/209/61
f 183/159/60 233/259/60 234/250/60
f 211/181/60 227/251/60 228/260/60
f 170/261/61 232/256/61 239/252/61
f 190/244/61 236/253/61 231/262/61
f 171/150/60 233/259/60 184/161/60
f 191/167/60 237/263/60 172/152/60
f 172/152/60 238/264/60 171/150/60
s 0
f 143/265/61 142/266/61 241/267/61
s 1
f 257/268/60 259/269/60 140/111/60
s 0
f 241/267/61 251/270/61 244/271/61
s 1
f 272/272/63 271/273/64 270/274/64
f 272/272/63 269/275/65 273/276/66
f 278/277/67 275/278/68 279/279/67
f 278/277/67 277/280/69 276/281/69
f 290/282/70 287/283/71 291/284/70
f 290/282/70 289/285/72 288/286/72
f 284/287/73 283/288/74 282/289/74
f 284/287/73 281/290/75 285/291/76
f 302/292/77 301/293/78 300/294/78
f 302/292/77 299/295/79 303/296/77
f 314/297/80 311/298/81 315/299/80
f 314/297/80 313/300/82 312/301/82
f 308/302/83 307/303/84 306/304/84
f 308/302/83 305/305/85 309/306/86
f 296/307/87 293/308/88 297/309/87
f 296/307/87 295/310/89 294/311/89
f 270/274/64 281/312/75 280/313/75
f 276/281/69 269/314/65 268/315/65
f 288/286/72 275/316/68 274/317/68
f 282/289/74 287/318/71 286/319/71
f 304/320/85 295/321/89 305/322/85
f 300/294/78 293/323/88 292/324/88
f 298/325/90 313/326/82 299/327/79
f 310/328/81 307/329/84 311/330/81
f 274/317/61 268/315/61 270/274/61
f 273/276/27 245/331/91 246/332/27
f 245/333/91 277/334/92 247/335/92
f 251/336/93 271/337/94 244/338/94
f 271/273/94 246/339/27 244/340/94
f 248/341/95 279/279/4 275/278/95
f 248/342/95 289/343/96 253/344/96
f 249/345/4 277/280/92 279/346/4
f 285/291/18 251/347/93 252/348/18
f 254/349/97 283/350/98 250/351/98
f 283/288/98 252/352/18 250/353/98
f 254/354/97 291/284/11 287/283/97
f 255/355/11 289/285/96 291/356/11
f 298/325/60 292/324/60 294/311/60
f 257/357/98 297/309/18 293/308/98
f 257/358/98 301/359/97 259/360/97
f 258/361/18 295/310/93 297/362/18
f 263/363/94 295/321/93 256/364/93
f 303/296/11 260/365/96 261/366/11
f 260/367/96 313/326/95 265/368/95
f 301/293/97 261/369/11 259/370/97
f 309/306/27 263/371/94 264/372/27
f 266/373/92 307/329/91 262/374/91
f 307/303/91 264/375/27 262/376/91
f 266/377/92 315/299/4 311/298/92
f 267/378/4 313/300/95 315/379/4
f 228/380/99 317/381/100 318/382/101
f 229/383/102 316/384/103 226/385/104
f 236/386/105 329/387/106 326/388/107
f 239/389/108 322/390/109 329/387/106
f 231/391/110 326/388/107 321/392/111
f 234/393/112 323/394/113 324/395/114
f 227/396/115 324/395/114 317/381/100
f 235/397/116 322/390/109 232/398/117
f 230/399/118 327/400/119 237/401/120
f 237/401/120 328/402/121 238/403/122
f 226/385/104 325/404/123 235/397/116
f 238/403/122 323/394/113 233/405/124
f 317/381/100 338/406/125 331/407/126
f 325/404/123 336/408/127 322/390/109
f 328/402/121 337/409/128 323/394/113
f 316/384/103 339/410/129 325/404/123
f 318/382/101 331/407/126 332/411/130
f 329/387/106 336/408/127 343/412/131
f 326/388/107 343/412/131 340/413/132
f 320/414/133 341/415/134 327/400/119
f 321/392/111 340/413/132 335/416/135
f 327/400/119 342/417/136 328/402/121
f 324/395/114 337/409/128 338/406/125
f 319/418/137 330/419/138 316/384/103
f 224/195/60 349/420/60 356/421/60
f 203/175/60 355/422/60 205/177/60
f 199/171/60 350/423/60 349/420/60
f 178/245/61 352/424/61 344/425/61
f 193/204/61 357/426/61 225/201/61
f 179/158/60 353/427/60 203/175/60
f 192/166/60 356/421/60 346/428/60
f 204/240/61 351/429/61 354/430/61
f 202/242/61 354/430/61 352/424/61
f 225/201/61 348/431/61 198/432/61
f 198/432/61 351/429/61 201/228/61
f 205/177/60 350/423/60 200/173/60
f 347/433/139 371/434/140 357/435/141
f 345/436/142 367/437/143 353/438/144
f 352/439/145 368/440/146 366/441/147
f 346/442/148 370/443/149 360/444/150
f 348/445/151 365/446/152 351/447/153
f 357/435/141 362/448/154 348/445/151
f 353/438/144 369/449/155 355/450/156
f 354/451/157 365/446/152 368/440/146
f 349/452/158 364/453/159 363/454/160
f 356/455/161 363/454/160 370/443/149
f 344/456/162 366/441/147 358/457/163
f 355/450/156 364/453/159 350/458/164
f 362/448/154 379/459/165 365/446/152
f 371/434/140 376/460/166 362/448/154
f 367/437/143 383/461/167 369/449/155
f 368/440/146 379/459/165 382/462/168
f 363/454/160 378/463/169 377/464/170
f 370/443/149 377/464/170 384/465/171
f 358/457/163 380/466/172 372/467/173
f 369/449/155 378/463/169 364/453/159
f 361/468/174 385/469/175 371/434/140
f 359/470/176 381/471/177 367/437/143
f 366/441/147 382/462/168 380/466/172
f 360/444/150 384/465/171 374/472/178
f 341/415/134 343/473/131 342/417/136
f 378/463/169 376/474/166 377/464/170
f 382/475/168 381/471/177 380/476/172
f 337/409/128 339/477/129 338/406/125
f 346/428/60 191/167/60 192/166/60
f 337/409/128 343/473/131 336/478/127
f 384/465/171 376/474/166 385/479/175
f 382/475/168 378/463/169 383/461/167
f 374/472/178 385/479/175 375/480/179
f 341/415/134 335/481/135 340/482/132
f 331/407/126 339/477/129 330/483/138
f 373/484/180 380/476/172 381/471/177
f 346/442/148 320/414/133 230/399/118
f 360/444/150 334/485/181 320/414/133
f 333/486/182 331/407/126 330/483/138
f 375/487/179 321/392/111 335/416/135
f 361/468/174 231/391/110 321/392/111
f 190/244/61 347/488/61 193/204/61
f 374/472/178 335/481/135 334/485/181
f 223/191/60 388/489/60 176/155/60
f 174/490/61 389/491/61 177/212/61
f 207/178/60 396/492/60 395/493/60
f 208/180/60 387/494/60 396/492/60
f 186/495/61 398/496/61 390/497/61
f 189/225/61 390/497/61 393/498/61
f 175/153/60 388/489/60 387/494/60
f 188/164/60 391/499/60 187/162/60
f 187/162/60 399/500/60 223/191/60
f 222/215/61 389/491/61 398/496/61
f 206/501/61 397/502/61 209/217/61
f 209/217/61 386/503/61 174/490/61
f 394/504/183 411/505/184 397/506/185
f 391/507/186 413/508/187 399/509/188
f 386/510/189 403/511/190 389/512/191
f 398/513/192 403/511/190 412/514/193
f 395/515/194 410/516/195 409/517/196
f 397/506/185 400/518/197 386/510/189
f 387/519/198 402/520/199 401/521/200
f 399/509/188 402/520/199 388/522/201
f 393/523/202 404/524/203 407/525/204
f 396/526/205 401/521/200 410/516/195
f 390/527/206 412/514/193 404/524/203
f 392/528/207 405/529/208 391/507/186
f 409/517/196 424/530/209 423/531/210
f 411/505/184 414/532/211 400/518/197
f 401/521/200 416/533/212 415/534/213
f 413/508/187 416/533/212 402/520/199
f 407/525/204 418/535/214 421/536/215
f 410/516/195 415/534/213 424/530/209
f 404/524/203 426/537/216 418/535/214
f 406/538/217 419/539/218 405/529/208
f 408/540/219 425/541/220 411/505/184
f 405/529/208 427/542/221 413/508/187
f 400/518/197 417/543/222 403/511/190
f 412/514/193 417/543/222 426/537/216
f 333/486/182 420/544/223 332/411/130
f 211/181/60 392/545/60 188/164/60
f 420/544/223 418/546/214 419/539/218
f 416/533/212 414/547/211 415/534/213
f 416/533/212 426/548/216 417/549/222
f 420/544/223 318/382/101 332/411/130
f 407/525/204 333/550/182 319/418/137
f 393/523/202 319/418/137 229/383/102
f 424/530/209 414/547/211 425/551/220
f 422/552/224 424/530/209 425/551/220
f 406/538/217 228/380/99 318/382/101
f 393/498/61 210/257/61 189/225/61
f 426/548/216 419/539/218 418/546/214
f 215/198/61 433/553/61 435/554/61
f 194/555/61 440/556/61 430/557/61
f 197/235/61 430/557/61 433/553/61
f 217/185/60 438/558/60 437/559/60
f 214/184/60 432/560/60 196/170/60
f 195/168/60 441/561/60 221/189/60
f 196/170/60 431/562/60 195/168/60
f 219/220/61 440/556/61 220/223/61
f 181/208/61 436/563/61 216/206/61
f 218/187/60 441/561/60 438/558/60
f 180/157/60 437/559/60 428/564/60
f 216/206/61 439/565/61 219/220/61
f 433/566/225 444/567/226 447/568/227
f 429/569/228 450/570/229 436/571/230
f 437/572/231 452/573/232 451/574/233
f 430/575/234 454/576/235 444/567/226
f 432/577/236 445/578/237 431/579/238
f 428/580/239 451/574/233 442/581/240
f 435/582/241 447/568/227 449/583/242
f 431/579/238 455/584/243 441/585/244
f 439/586/245 454/576/235 440/587/246
f 434/588/247 446/589/248 432/577/236
f 436/571/230 453/590/249 439/586/245
f 438/591/250 455/584/243 452/573/232
f 442/581/240 465/592/251 456/593/252
f 449/583/242 461/594/253 463/595/254
f 445/578/237 469/596/255 455/584/243
f 453/590/249 468/597/256 454/576/235
f 448/598/257 460/599/258 446/589/248
f 450/570/229 467/600/259 453/590/249
f 452/573/232 469/596/255 466/601/260
f 447/568/227 458/602/261 461/594/253
f 443/603/262 464/604/263 450/570/229
f 451/574/233 466/601/260 465/592/251
f 444/567/226 468/597/256 458/602/261
f 446/589/248 459/605/264 445/578/237
f 448/598/257 395/515/194 409/517/196
f 468/606/256 466/601/260 469/596/255
f 460/599/258 458/607/261 459/605/264
f 207/178/60 434/608/60 214/184/60
f 435/582/241 408/540/219 394/504/183
f 462/609/265 409/517/196 423/531/210
f 466/601/260 464/610/263 465/592/251
f 456/593/252 464/610/263 457/611/266
f 459/605/264 468/606/256 469/596/255
f 449/583/242 422/612/224 408/540/219
f 435/554/61 206/501/61 215/198/61
f 422/552/224 462/609/265 423/531/210
f 462/609/265 461/613/253 460/599/258
f 428/564/60 179/158/60 180/157/60
f 428/580/239 359/470/176 345/436/142
f 442/581/240 373/484/180 359/470/176
f 178/245/61 429/614/61 181/208/61
f 443/603/262 344/456/162 358/457/163
f 457/615/266 358/457/163 372/467/173
f 456/593/252 372/616/173 373/484/180
f 62/1/1 21/617/1 16/2/2
f 61/4/3 20/618/3 21/5/1
f 60/6/4 19/619/4 20/7/3
f 59/8/5 18/620/5 19/9/4
f 58/10/6 17/621/6 18/11/5
f 63/12/7 15/622/7 17/13/6
f 72/14/8 28/623/8 23/15/9
f 73/17/10 27/624/10 28/18/8
f 74/19/11 26/625/11 27/20/10
f 75/21/12 25/626/12 26/22/11
f 76/23/13 24/627/13 25/24/12
f 77/25/14 22/628/14 24/26/13
f 78/27/15 71/16/9 23/28/9
f 10/30/16 79/33/16 78/27/15
f 11/32/17 80/36/17 79/33/16
f 12/35/18 81/39/18 80/36/17
f 13/38/19 82/42/19 81/39/18
f 14/41/20 83/45/20 82/42/19
f 9/44/21 84/629/21 83/45/20
f 63/12/7 70/55/22 2/47/22
f 77/25/14 57/3/2 16/49/2
f 241/52/23 1/630/24 68/53/24
f 68/53/24 84/629/21 240/51/23
f 84/629/21 9/631/21 240/51/23
f 7/54/25 2/632/22 70/55/22
f 7/57/25 69/56/25 64/58/26
f 6/60/26 64/58/26 65/61/27
f 5/63/27 65/61/27 66/64/28
f 4/66/28 66/64/28 67/67/29
f 3/69/29 67/67/29 68/53/24
f 103/71/30 121/75/30 120/72/31
f 102/74/32 122/78/32 121/75/30
f 101/77/33 123/81/33 122/78/32
f 100/80/34 124/84/34 123/81/33
f 99/83/35 125/88/35 124/84/34
f 99/86/35 107/633/45 126/87/36
f 106/89/37 135/93/37 134/90/38
f 105/92/39 136/96/39 135/93/37
f 104/95/40 137/99/40 136/96/39
f 110/98/41 138/102/41 137/99/40
f 111/101/42 139/105/42 138/102/41
f 112/104/43 140/111/43 139/105/42
f 119/107/44 126/87/36 107/108/45
f 112/112/43 91/634/31 242/110/23
f 91/634/31 120/72/31 242/110/23
f 134/90/38 128/130/46 109/113/46
f 108/117/48 97/635/53 243/115/47
f 97/635/53 133/124/53 243/115/47
f 132/118/49 96/636/49 95/119/50
f 130/121/51 94/637/51 93/122/52
f 133/124/53 97/638/53 96/125/49
f 131/120/50 95/639/50 94/126/51
f 129/123/52 93/640/52 92/127/54
f 127/128/54 92/641/54 109/129/46
f 119/107/44 90/642/44 89/131/55
f 118/132/55 89/643/55 88/133/56
f 117/134/56 88/644/56 87/135/57
f 116/136/57 87/645/57 86/137/58
f 115/138/58 86/646/58 85/139/59
f 113/140/59 85/647/59 108/141/48
f 67/67/60 66/64/60 102/648/60
f 103/142/60 91/649/60 68/53/60
f 67/67/60 102/648/60 103/142/60
f 101/650/60 102/648/60 66/64/60
f 66/64/60 65/61/60 101/650/60
f 65/61/60 64/58/60 101/650/60
f 64/58/60 69/56/60 100/651/60
f 69/56/60 70/55/60 99/652/60
f 70/55/60 63/12/60 107/653/60
f 63/12/60 58/10/60 89/654/60
f 107/653/60 63/12/60 90/655/60
f 58/10/60 59/8/60 88/656/60
f 59/8/60 60/6/60 87/657/60
f 88/656/60 59/8/60 87/657/60
f 60/6/60 61/4/60 87/657/60
f 61/4/60 62/1/60 86/658/60
f 87/657/60 61/4/60 86/658/60
f 62/1/60 57/3/60 85/659/60
f 57/3/60 77/25/60 97/144/60
f 77/25/60 76/23/60 96/143/60
f 76/23/60 75/21/60 95/660/60
f 75/21/60 74/19/60 94/661/60
f 74/19/60 73/17/60 94/661/60
f 73/17/60 72/14/60 93/662/60
f 72/14/60 71/16/60 92/663/60
f 71/16/60 78/27/60 109/664/60
f 78/27/60 79/33/60 106/665/60
f 109/664/60 78/27/60 98/666/60
f 79/33/60 80/36/60 105/667/60
f 80/36/60 81/39/60 104/668/60
f 81/39/60 82/42/60 104/668/60
f 82/42/60 83/45/60 110/669/60
f 83/45/60 84/629/60 111/670/60
f 84/629/60 68/53/60 112/671/60
f 68/53/60 91/649/60 112/671/60
f 84/629/60 112/671/60 111/670/60
f 80/36/60 104/668/60 105/667/60
f 82/42/60 110/669/60 104/668/60
f 72/14/60 92/663/60 93/662/60
f 76/23/60 95/660/60 96/143/60
f 69/56/60 99/652/60 100/651/60
f 100/651/60 101/650/60 64/58/60
f 83/45/60 111/670/60 110/669/60
f 107/653/60 99/652/60 70/55/60
f 90/655/60 63/12/60 89/654/60
f 79/33/60 105/667/60 106/665/60
f 88/656/60 89/654/60 58/10/60
f 106/665/60 98/666/60 78/27/60
f 71/16/60 109/664/60 92/663/60
f 85/659/60 86/658/60 62/1/60
f 73/17/60 93/662/60 94/661/60
f 108/672/60 85/659/60 57/3/60
f 97/144/60 108/672/60 57/3/60
f 75/21/60 94/661/60 95/660/60
f 113/140/60 114/116/60 29/673/60
f 114/116/60 243/115/60 49/674/60
f 30/675/60 114/116/60 49/674/60
f 243/115/60 46/676/60 47/677/60
f 243/115/60 47/677/60 48/678/60
f 115/138/60 113/140/60 29/673/60
f 114/116/60 30/675/60 29/673/60
f 117/134/60 116/136/60 33/679/60
f 116/136/60 115/138/60 32/680/60
f 119/107/60 118/132/60 34/681/60
f 118/132/60 117/134/60 33/679/60
f 125/88/60 126/87/60 41/682/60
f 126/87/60 119/107/60 42/146/60
f 123/81/60 124/84/60 40/683/60
f 124/84/60 125/88/60 41/682/60
f 121/75/60 122/78/60 37/684/60
f 122/78/60 123/81/60 39/685/60
f 37/684/60 122/78/60 38/686/60
f 242/110/60 120/72/60 56/687/60
f 120/72/60 121/75/60 37/684/60
f 36/688/60 120/72/60 37/684/60
f 54/689/60 53/690/60 242/110/60
f 55/691/60 54/689/60 242/110/60
f 120/72/60 36/688/60 56/687/60
f 124/84/60 41/682/60 40/683/60
f 126/87/60 42/146/60 41/682/60
f 118/132/60 33/679/60 34/681/60
f 116/136/60 32/680/60 33/679/60
f 243/115/60 48/678/60 49/674/60
f 56/687/60 55/691/60 242/110/60
f 38/686/60 122/78/60 39/685/60
f 115/138/60 29/673/60 31/692/60
f 115/138/60 31/692/60 32/680/60
f 40/683/60 39/685/60 123/81/60
f 119/107/60 34/681/60 35/145/60
s 0
f 5/693/61 4/694/61 155/147/61
f 4/694/61 3/695/61 154/696/61
f 154/696/61 3/695/61 153/697/61
f 3/695/61 1/698/61 153/697/61
f 1/698/61 152/699/61 153/697/61
f 6/149/61 5/693/61 155/147/61
f 2/700/61 7/701/61 156/702/61
f 7/701/61 6/149/61 158/148/61
f 156/702/61 7/701/61 158/148/61
f 17/703/61 15/704/61 150/705/61
f 15/704/61 2/700/61 157/706/61
f 149/707/61 150/705/61 15/704/61
f 157/706/61 149/707/61 15/704/61
f 157/706/61 2/700/61 156/702/61
f 4/694/61 154/696/61 155/147/61
s 1
f 171/150/34 45/708/34 43/151/35
f 175/153/39 33/709/39 32/154/40
f 56/156/48 36/192/53 180/157/53
f 183/159/32 47/710/32 46/160/33
f 187/162/42 29/711/42 30/163/43
f 44/165/36 50/194/44 192/166/44
f 195/168/52 40/712/52 41/169/54
f 199/171/56 52/713/56 53/172/57
f 55/174/59 56/156/48 179/158/48
f 54/176/58 55/174/59 203/175/59
f 207/178/38 35/714/38 34/179/37
f 46/160/33 45/708/34 171/150/34
f 211/181/31 49/715/31 48/182/30
f 41/169/54 42/197/46 214/184/46
f 43/151/35 44/165/36 191/167/36
f 217/185/49 37/193/49 38/186/50
f 53/172/57 54/176/58 205/177/58
f 30/163/43 49/715/31 211/181/31
f 39/188/51 40/712/52 195/168/52
f 38/186/50 39/188/51 221/189/51
f 34/179/37 33/709/39 175/153/39
f 31/190/41 29/711/42 187/162/42
f 32/154/40 31/190/41 223/191/41
f 48/182/30 47/710/32 183/159/32
f 217/185/49 180/157/53 36/192/53
f 50/194/44 51/196/55 224/195/55
f 51/196/55 52/713/56 199/171/56
f 42/197/46 35/714/38 207/178/38
f 215/198/46 206/501/38 149/199/38
f 225/201/55 198/432/56 144/202/56
f 193/204/44 225/201/55 146/203/55
f 153/231/49 152/207/62 216/206/49
f 152/207/62 151/246/53 181/208/53
f 213/209/30 182/255/32 167/210/32
f 177/212/40 222/215/41 168/213/41
f 222/215/41 186/495/42 163/216/42
f 209/217/37 174/490/39 148/218/39
f 219/220/50 220/223/51 155/221/51
f 220/223/51 194/555/52 158/224/52
f 189/225/43 210/257/31 165/226/31
f 201/228/57 204/240/58 143/229/58
f 153/231/49 216/206/49 219/220/50
f 173/232/35 190/244/36 160/233/36
f 197/235/54 215/198/46 157/200/46
f 165/226/31 210/257/31 213/209/30
f 185/237/33 170/261/34 169/238/34
f 149/199/38 206/501/38 209/217/37
f 204/240/58 202/242/59 142/241/59
f 202/242/59 178/245/48 141/243/48
f 144/202/56 198/432/56 201/228/57
f 158/224/52 194/555/52 197/235/54
f 190/244/36 193/204/44 147/205/44
f 163/216/42 186/495/42 189/225/43
f 167/210/32 182/255/32 185/237/33
f 178/245/48 181/208/53 151/246/53
f 148/218/39 174/490/39 177/212/40
f 169/238/34 170/261/34 173/232/35
f 45/716/60 46/676/60 243/115/60
f 243/115/60 267/717/60 44/718/60
f 267/717/60 266/719/60 50/249/60
f 44/718/60 267/717/60 50/249/60
f 262/247/60 242/110/60 51/248/60
f 242/110/60 53/690/60 52/720/60
f 266/719/60 262/247/60 50/249/60
f 242/110/60 52/720/60 51/248/60
f 43/721/60 45/716/60 243/115/60
f 44/718/60 43/721/60 243/115/60
f 212/183/60 183/159/60 234/250/60
f 173/232/61 170/261/61 239/252/61
f 213/209/61 226/258/61 235/254/61
f 182/255/61 235/254/61 232/256/61
f 210/257/61 229/722/61 226/258/61
f 183/159/60 184/161/60 233/259/60
f 211/181/60 212/183/60 227/251/60
f 170/261/61 185/237/61 232/256/61
f 190/244/61 173/232/61 236/253/61
f 171/150/60 238/264/60 233/259/60
f 191/167/60 230/723/60 237/263/60
f 172/152/60 237/263/60 238/264/60
s 0
f 20/724/61 19/725/61 162/726/61
f 19/725/61 18/727/61 162/726/61
f 162/726/61 18/727/61 148/728/61
f 18/727/61 17/703/61 148/728/61
f 17/703/61 150/705/61 148/728/61
f 21/729/61 20/724/61 168/730/61
f 22/731/61 16/732/61 165/733/61
f 16/732/61 21/729/61 163/734/61
f 165/733/61 16/732/61 164/735/61
f 25/736/61 24/737/61 22/731/61
f 27/738/61 26/739/61 23/740/61
f 26/739/61 25/736/61 23/740/61
f 23/740/61 28/741/61 27/738/61
f 10/742/61 8/743/61 12/744/61
f 8/743/61 23/740/61 9/745/61
f 12/744/61 8/743/61 9/745/61
f 12/744/61 11/746/61 10/742/61
f 14/747/61 13/748/61 12/744/61
f 240/749/61 9/745/61 250/750/61
f 9/745/61 14/747/61 12/744/61
f 252/751/61 251/270/61 240/749/61
f 250/750/61 252/751/61 240/749/61
f 250/750/61 9/745/61 254/752/61
f 9/745/61 23/740/61 22/731/61
f 25/736/61 22/731/61 23/740/61
f 20/724/61 162/726/61 168/730/61
f 22/731/61 165/733/61 166/753/61
f 254/752/61 9/745/61 255/754/61
f 21/729/61 168/730/61 163/734/61
f 255/754/61 9/745/61 22/731/61
f 163/734/61 164/735/61 16/732/61
f 253/755/61 255/754/61 160/756/61
f 248/757/61 253/755/61 160/756/61
f 255/754/61 22/731/61 160/756/61
f 22/731/61 166/753/61 167/758/61
f 249/759/61 248/757/61 160/756/61
f 22/731/61 167/758/61 161/760/61
f 22/731/61 161/760/61 169/761/61
f 22/731/61 169/761/61 159/762/61
f 22/731/61 159/762/61 160/756/61
f 247/763/61 249/759/61 147/764/61
f 249/759/61 160/756/61 147/764/61
f 245/765/61 247/763/61 147/764/61
f 245/765/61 147/764/61 146/766/61
f 241/267/61 244/271/61 246/767/61
f 246/767/61 245/765/61 241/267/61
f 245/765/61 146/766/61 241/267/61
f 146/766/61 144/768/61 241/267/61
f 151/769/61 152/770/61 1/771/61
f 141/772/61 151/769/61 1/771/61
f 241/267/61 144/768/61 145/773/61
f 141/772/61 1/771/61 241/267/61
f 142/266/61 141/772/61 241/267/61
f 241/267/61 145/773/61 143/265/61
s 1
f 265/774/60 267/717/60 243/115/60
f 243/115/60 133/124/60 261/775/60
f 133/124/60 132/118/60 128/130/60
f 261/775/60 133/124/60 140/111/60
f 132/118/60 131/120/60 128/130/60
f 131/120/60 130/121/60 128/130/60
f 130/121/60 129/123/60 128/130/60
f 129/123/60 127/128/60 128/130/60
f 128/130/60 134/90/60 133/124/60
f 134/90/60 135/93/60 136/96/60
f 136/96/60 137/99/60 134/90/60
f 137/99/60 138/102/60 134/90/60
f 138/102/60 139/105/60 134/90/60
f 139/105/60 140/111/60 134/90/60
f 242/110/60 262/247/60 264/776/60
f 242/110/60 264/776/60 263/777/60
f 140/111/60 242/110/60 256/778/60
f 134/90/60 140/111/60 133/124/60
f 260/779/60 265/774/60 243/115/60
f 261/775/60 260/779/60 243/115/60
f 242/110/60 263/777/60 256/778/60
f 140/111/60 256/778/60 258/780/60
f 259/269/60 261/775/60 140/111/60
f 140/111/60 258/780/60 257/268/60
s 0
f 241/267/61 240/749/61 251/270/61
s 1
f 272/272/63 273/781/66 271/273/64
f 272/272/63 268/315/65 269/275/65
f 278/277/67 274/317/68 275/278/68
f 278/277/67 279/346/67 277/280/69
f 290/282/70 286/319/71 287/283/71
f 290/282/70 291/356/70 289/285/72
f 284/287/73 285/782/76 283/288/74
f 284/287/73 280/313/75 281/290/75
f 302/292/77 303/783/77 301/293/78
f 302/292/77 298/325/90 299/295/79
f 314/297/80 310/328/81 311/298/81
f 314/297/80 315/379/80 313/300/82
f 308/302/83 309/784/86 307/303/84
f 308/302/83 304/320/85 305/305/85
f 296/307/87 292/324/88 293/308/88
f 296/307/87 297/362/87 295/310/89
f 270/274/64 271/337/64 281/312/75
f 276/281/69 277/334/69 269/314/65
f 288/286/72 289/343/72 275/316/68
f 282/289/74 283/350/74 287/318/71
f 304/320/85 294/311/89 295/321/89
f 300/294/78 301/359/78 293/323/88
f 298/325/90 312/301/82 313/326/82
f 310/328/81 306/304/84 307/329/84
f 288/286/61 274/317/61 270/274/61
f 274/317/61 278/277/61 276/281/61
f 268/315/61 274/317/61 276/281/61
f 268/315/61 272/272/61 270/274/61
f 270/274/61 280/313/61 288/286/61
f 280/313/61 284/287/61 282/289/61
f 288/286/61 280/313/61 286/319/61
f 282/289/61 286/319/61 280/313/61
f 286/319/61 290/282/61 288/286/61
f 273/276/27 269/275/91 245/331/91
f 245/333/91 269/314/91 277/334/92
f 251/336/93 281/312/93 271/337/94
f 271/273/94 273/781/27 246/339/27
f 248/341/95 249/785/4 279/279/4
f 248/342/95 275/316/95 289/343/96
f 249/345/4 247/786/92 277/280/92
f 285/291/18 281/290/93 251/347/93
f 254/349/97 287/318/97 283/350/98
f 283/288/98 285/782/18 252/352/18
f 254/354/97 255/787/11 291/284/11
f 255/355/11 253/788/96 289/285/96
f 312/301/60 298/325/60 294/311/60
f 298/325/60 302/292/60 300/294/60
f 292/324/60 298/325/60 300/294/60
f 292/324/60 296/307/60 294/311/60
f 294/311/60 304/320/60 312/301/60
f 304/320/60 308/302/60 306/304/60
f 312/301/60 304/320/60 310/328/60
f 306/304/60 310/328/60 304/320/60
f 310/328/60 314/297/60 312/301/60
f 257/357/98 258/789/18 297/309/18
f 257/358/98 293/323/98 301/359/97
f 258/361/18 256/790/93 295/310/93
f 263/363/94 305/322/94 295/321/93
f 303/296/11 299/295/96 260/365/96
f 260/367/96 299/327/96 313/326/95
f 301/293/97 303/783/11 261/369/11
f 309/306/27 305/305/94 263/371/94
f 266/373/92 311/330/92 307/329/91
f 307/303/91 309/784/27 264/375/27
f 266/377/92 267/791/4 315/299/4
f 267/378/4 265/792/95 313/300/95
f 228/380/99 227/396/115 317/381/100
f 229/383/102 319/418/137 316/384/103
f 236/386/105 239/389/108 329/387/106
f 239/389/108 232/398/117 322/390/109
f 231/391/110 236/386/105 326/388/107
f 234/393/112 233/405/124 323/394/113
f 227/396/115 234/393/112 324/395/114
f 235/397/116 325/404/123 322/390/109
f 230/399/118 320/414/133 327/400/119
f 237/401/120 327/400/119 328/402/121
f 226/385/104 316/384/103 325/404/123
f 238/403/122 328/402/121 323/394/113
f 317/381/100 324/395/114 338/406/125
f 325/404/123 339/410/129 336/408/127
f 328/402/121 342/417/136 337/409/128
f 316/384/103 330/419/138 339/410/129
f 318/382/101 317/381/100 331/407/126
f 329/387/106 322/390/109 336/408/127
f 326/388/107 329/387/106 343/412/131
f 320/414/133 334/485/181 341/415/134
f 321/392/111 326/388/107 340/413/132
f 327/400/119 341/415/134 342/417/136
f 324/395/114 323/394/113 337/409/128
f 319/418/137 333/550/182 330/419/138
f 224/195/60 199/171/60 349/420/60
f 203/175/60 353/427/60 355/422/60
f 199/171/60 200/173/60 350/423/60
f 178/245/61 202/242/61 352/424/61
f 193/204/61 347/488/61 357/426/61
f 179/158/60 345/793/60 353/427/60
f 192/166/60 224/195/60 356/421/60
f 204/240/61 201/228/61 351/429/61
f 202/242/61 204/240/61 354/430/61
f 225/201/61 357/426/61 348/431/61
f 198/432/61 348/431/61 351/429/61
f 205/177/60 355/422/60 350/423/60
f 347/433/139 361/468/174 371/434/140
f 345/436/142 359/470/176 367/437/143
f 352/439/145 354/451/157 368/440/146
f 346/442/148 356/455/161 370/443/149
f 348/445/151 362/448/154 365/446/152
f 357/435/141 371/434/140 362/448/154
f 353/438/144 367/437/143 369/449/155
f 354/451/157 351/447/153 365/446/152
f 349/452/158 350/458/164 364/453/159
f 356/455/161 349/452/158 363/454/160
f 344/456/162 352/439/145 366/441/147
f 355/450/156 369/449/155 364/453/159
f 362/448/154 376/460/166 379/459/165
f 371/434/140 385/469/175 376/460/166
f 367/437/143 381/471/177 383/461/167
f 368/440/146 365/446/152 379/459/165
f 363/454/160 364/453/159 378/463/169
f 370/443/149 363/454/160 377/464/170
f 358/457/163 366/441/147 380/466/172
f 369/449/155 383/461/167 378/463/169
f 361/468/174 375/487/179 385/469/175
f 359/470/176 373/484/180 381/471/177
f 366/441/147 368/440/146 382/462/168
f 360/444/150 370/443/149 384/465/171
f 341/415/134 340/482/132 343/473/131
f 378/463/169 379/794/165 376/474/166
f 382/475/168 383/461/167 381/471/177
f 337/409/128 336/478/127 339/477/129
f 346/428/60 230/723/60 191/167/60
f 337/409/128 342/417/136 343/473/131
f 384/465/171 377/464/170 376/474/166
f 382/475/168 379/794/165 378/463/169
f 374/472/178 384/465/171 385/479/175
f 341/415/134 334/485/181 335/481/135
f 331/407/126 338/406/125 339/477/129
f 373/484/180 372/616/173 380/476/172
f 346/442/148 360/444/150 320/414/133
f 360/444/150 374/472/178 334/485/181
f 333/486/182 332/411/130 331/407/126
f 375/487/179 361/468/174 321/392/111
f 361/468/174 347/433/139 231/391/110
f 190/244/61 231/262/61 347/488/61
f 374/472/178 375/480/179 335/481/135
f 223/191/60 399/500/60 388/489/60
f 174/490/61 386/503/61 389/491/61
f 207/178/60 208/180/60 396/492/60
f 208/180/60 175/153/60 387/494/60
f 186/495/61 222/215/61 398/496/61
f 189/225/61 186/495/61 390/497/61
f 175/153/60 176/155/60 388/489/60
f 188/164/60 392/545/60 391/499/60
f 187/162/60 391/499/60 399/500/60
f 222/215/61 177/212/61 389/491/61
f 206/501/61 394/795/61 397/502/61
f 209/217/61 397/502/61 386/503/61
f 394/504/183 408/540/219 411/505/184
f 391/507/186 405/529/208 413/508/187
f 386/510/189 400/518/197 403/511/190
f 398/513/192 389/512/191 403/511/190
f 395/515/194 396/526/205 410/516/195
f 397/506/185 411/505/184 400/518/197
f 387/519/198 388/522/201 402/520/199
f 399/509/188 413/508/187 402/520/199
f 393/523/202 390/527/206 404/524/203
f 396/526/205 387/519/198 401/521/200
f 390/527/206 398/513/192 412/514/193
f 392/528/207 406/538/217 405/529/208
f 409/517/196 410/516/195 424/530/209
f 411/505/184 425/541/220 414/532/211
f 401/521/200 402/520/199 416/533/212
f 413/508/187 427/542/221 416/533/212
f 407/525/204 404/524/203 418/535/214
f 410/516/195 401/521/200 415/534/213
f 404/524/203 412/514/193 426/537/216
f 406/538/217 420/544/223 419/539/218
f 408/540/219 422/612/224 425/541/220
f 405/529/208 419/539/218 427/542/221
f 400/518/197 414/532/211 417/543/222
f 412/514/193 403/511/190 417/543/222
f 333/486/182 421/796/215 420/544/223
f 211/181/60 228/260/60 392/545/60
f 420/544/223 421/796/215 418/546/214
f 416/533/212 417/549/222 414/547/211
f 416/533/212 427/542/221 426/548/216
f 420/544/223 406/538/217 318/382/101
f 407/525/204 421/536/215 333/550/182
f 393/523/202 407/525/204 319/418/137
f 424/530/209 415/534/213 414/547/211
f 422/552/224 423/531/210 424/530/209
f 406/538/217 392/528/207 228/380/99
f 393/498/61 229/722/61 210/257/61
f 426/548/216 427/542/221 419/539/218
f 215/198/61 197/235/61 433/553/61
f 194/555/61 220/223/61 440/556/61
f 197/235/61 194/555/61 430/557/61
f 217/185/60 218/187/60 438/558/60
f 214/184/60 434/608/60 432/560/60
f 195/168/60 431/562/60 441/561/60
f 196/170/60 432/560/60 431/562/60
f 219/220/61 439/565/61 440/556/61
f 181/208/61 429/614/61 436/563/61
f 218/187/60 221/189/60 441/561/60
f 180/157/60 217/185/60 437/559/60
f 216/206/61 436/563/61 439/565/61
f 433/566/225 430/575/234 444/567/226
f 429/569/228 443/603/262 450/570/229
f 437/572/231 438/591/250 452/573/232
f 430/575/234 440/587/246 454/576/235
f 432/577/236 446/589/248 445/578/237
f 428/580/239 437/572/231 451/574/233
f 435/582/241 433/566/225 447/568/227
f 431/579/238 445/578/237 455/584/243
f 439/586/245 453/590/249 454/576/235
f 434/588/247 448/598/257 446/589/248
f 436/571/230 450/570/229 453/590/249
f 438/591/250 441/585/244 455/584/243
f 442/581/240 451/574/233 465/592/251
f 449/583/242 447/568/227 461/594/253
f 445/578/237 459/605/264 469/596/255
f 453/590/249 467/600/259 468/597/256
f 448/598/257 462/609/265 460/599/258
f 450/570/229 464/604/263 467/600/259
f 452/573/232 455/584/243 469/596/255
f 447/568/227 444/567/226 458/602/261
f 443/603/262 457/615/266 464/604/263
f 451/574/233 452/573/232 466/601/260
f 444/567/226 454/576/235 468/597/256
f 446/589/248 460/599/258 459/605/264
f 448/598/257 434/588/247 395/515/194
f 468/606/256 467/797/259 466/601/260
f 460/599/258 461/613/253 458/607/261
f 207/178/60 395/493/60 434/608/60
f 435/582/241 449/583/242 408/540/219
f 462/609/265 448/598/257 409/517/196
f 466/601/260 467/797/259 464/610/263
f 456/593/252 465/592/251 464/610/263
f 459/605/264 458/607/261 468/606/256
f 449/583/242 463/595/254 422/612/224
f 435/554/61 394/795/61 206/501/61
f 422/552/224 463/798/254 462/609/265
f 462/609/265 463/798/254 461/613/253
f 428/564/60 345/793/60 179/158/60
f 428/580/239 442/581/240 359/470/176
f 442/581/240 456/593/252 373/484/180
f 178/245/61 344/425/61 429/614/61
f 443/603/262 429/569/228 344/456/162
f 457/615/266 443/603/262 358/457/163
f 456/593/252 457/611/266 372/616/173
o SwivelHandle.009
v -0.537245 0.080000 0.010001
v -0.530174 0.077071 0.010001
v -0.527245 0.070000 0.010001
v -0.530174 0.062929 0.010001
v -0.537245 0.060000 0.010001
v -0.544316 0.062929 0.010001
v -0.547245 0.070000 0.010001
v -0.544316 0.077071 0.010001
v -0.530174 0.077071 0.030001
v -0.527245 0.070000 0.030001
v -0.530174 0.062929 0.030001
v -0.537055 0.078996 0.040001
v -0.537245 0.080000 0.039001
v -0.537189 0.079706 0.039708
v -0.537245 0.060000 0.039001
v -0.537055 0.061004 0.040001
v -0.537189 0.060294 0.039708
v -0.543551 0.063694 0.040001
v -0.544316 0.062929 0.039001
v -0.544092 0.063153 0.039708
v -0.546163 0.070000 0.040001
v -0.547245 0.070000 0.039001
v -0.546928 0.070000 0.039708
v -0.543551 0.076306 0.040001
v -0.544316 0.077071 0.039001
v -0.544092 0.076847 0.039708
v -0.537245 0.080000 0.031004
v -0.534771 0.078975 0.030001
v -0.537245 0.080000 0.029001
v -0.536521 0.079700 0.030295
v -0.534771 0.061025 0.030001
v -0.537245 0.060000 0.031004
v -0.537245 0.060000 0.029001
v -0.536521 0.060300 0.030295
v -0.380574 0.076078 0.040001
v -0.380174 0.077071 0.039001
v -0.380291 0.076780 0.039708
v -0.378254 0.070000 0.040001
v -0.377245 0.070000 0.039001
v -0.377540 0.070000 0.039708
v -0.380574 0.063922 0.040001
v -0.380174 0.062929 0.039001
v -0.380291 0.063220 0.039708
v -0.380574 0.076079 0.035001
v -0.380174 0.077071 0.036001
v -0.380291 0.076780 0.035294
v -0.378254 0.070000 0.035001
v -0.377245 0.070000 0.036001
v -0.377540 0.070000 0.035294
v -0.380574 0.063921 0.035001
v -0.380174 0.062929 0.036001
v -0.380291 0.063220 0.035294
v -0.378839 0.065530 0.035001
v -0.377894 0.065042 0.036001
v -0.378171 0.065185 0.035294
v -0.378839 0.074470 0.035001
v -0.377894 0.074958 0.036001
v -0.378171 0.074815 0.035294
v -0.455195 0.061469 0.036001
v -0.455174 0.062465 0.035001
v -0.455180 0.061759 0.035294
v -0.455195 0.078530 0.036001
v -0.455174 0.077535 0.035001
v -0.455180 0.078241 0.035294
v -0.496270 0.060736 0.034260
v -0.490910 0.061807 0.033487
v -0.494675 0.061048 0.033620
v -0.496270 0.079263 0.034260
v -0.490910 0.078173 0.033487
v -0.494675 0.078946 0.033620
v -0.378839 0.074470 0.040001
v -0.377894 0.074958 0.039001
v -0.378171 0.074815 0.039708
v -0.378839 0.065530 0.040001
v -0.377894 0.065042 0.039001
v -0.378171 0.065185 0.039708
vn 0.6395 -0.0000 -0.7688
vn 0.7071 -0.7071 -0.0000
vn 1.0000 -0.0000 -0.0000
vn 0.4543 0.5020 -0.7359
vn 0.7071 0.7071 -0.0000
vn -0.1348 0.9896 -0.0511
vn 0.2555 0.9478 -0.1906
vn -0.0000 1.0000 -0.0000
vn 0.2738 0.8303 -0.4854
vn 0.2738 -0.8302 -0.4855
vn 0.2555 -0.9478 -0.1906
vn -0.0000 -1.0000 -0.0000
vn -0.1348 -0.9896 -0.0511
vn -0.1826 -0.9639 0.1941
vn -0.5169 -0.5169 0.6824
vn -0.6929 -0.6929 0.1994
vn -0.1349 -0.7128 0.6883
vn -0.1590 -0.1590 0.9744
vn -0.7310 -0.0000 0.6824
vn -0.9799 -0.0000 0.1994
vn -0.2248 -0.0000 0.9744
vn -0.5169 0.5169 0.6824
vn -0.6929 0.6929 0.1995
vn -0.1590 0.1590 0.9744
vn -0.1826 0.9639 0.1941
vn -0.1349 0.7128 0.6883
vn -0.0400 0.2116 0.9765
vn 0.2732 -0.6778 0.6826
vn 0.0837 -0.2078 0.9746
vn -0.0400 -0.2116 0.9765
vn 0.8710 0.4498 0.1975
vn 0.2732 0.6778 0.6826
vn 0.6491 0.3352 0.6828
vn 0.0837 0.2078 0.9746
vn 0.1985 0.1025 0.9747
vn 0.9811 -0.0000 0.1935
vn 0.6491 -0.3352 0.6828
vn 0.8710 -0.4498 0.1975
vn 0.7202 -0.0000 0.6937
vn 0.1985 -0.1025 0.9747
vn 0.8710 -0.4498 -0.1975
vn 0.2734 -0.6777 -0.6826
vn 0.6491 -0.3352 -0.6828
vn 0.0838 -0.2077 -0.9746
vn 0.1985 -0.1025 -0.9747
vn 0.9811 -0.0000 -0.1935
vn 0.6491 0.3352 -0.6828
vn 0.8710 0.4498 -0.1975
vn 0.7202 -0.0000 -0.6937
vn 0.1985 0.1025 -0.9747
vn 0.0283 -0.7115 -0.7021
vn 0.0245 -0.1960 -0.9803
vn 0.0224 -0.9833 -0.1805
vn 0.3664 0.9091 0.1982
vn 0.0228 0.9852 -0.1697
vn 0.2734 0.6777 -0.6826
vn 0.0283 0.7115 -0.7021
vn 0.0838 0.2077 -0.9746
vn 0.0244 0.1961 -0.9803
vn 0.2090 -0.0000 -0.9779
vn 0.3665 0.9091 -0.1981
vn 0.0572 -0.7662 -0.6401
vn 0.0306 -0.9839 -0.1762
vn 0.0595 -0.2072 -0.9765
vn 0.0308 0.9833 -0.1793
vn 0.0576 0.7614 -0.6458
vn 0.0595 0.2036 -0.9772
vn 0.2090 -0.0000 0.9779
vn 0.3665 -0.9090 0.1983
vn -0.7071 -0.7071 -0.0000
vn -1.0000 -0.0000 -0.0000
vn -0.7071 0.7071 -0.0000
vn 0.4543 -0.5019 -0.7360
vn 0.3667 -0.9090 -0.1982
vt 0.968517 0.309333
vt 0.967245 0.306006
vt 0.968518 0.306006
vt 0.959606 0.309333
vt 0.958332 0.306006
vt 0.959605 0.306006
vt 0.960879 0.309500
vt 0.960748 0.309382
vt 0.960879 0.309166
vt 0.960434 0.309333
vt 0.966416 0.309333
vt 0.966102 0.309382
vt 0.965971 0.309166
vt 0.965971 0.309500
vt 0.965969 0.310832
vt 0.964696 0.310956
vt 0.964697 0.310828
vt 0.960117 0.115036
vt 0.959000 0.115548
vt 0.958909 0.115442
vt 0.963425 0.310957
vt 0.963425 0.310828
vt 0.958478 0.116585
vt 0.958332 0.116576
vt 0.962154 0.310956
vt 0.962153 0.310828
vt 0.958865 0.117680
vt 0.958761 0.117773
vt 0.960881 0.310832
vt 0.960892 0.310961
vt 0.959910 0.118327
vt 0.959941 0.118197
vt 0.960121 0.114903
vt 0.986426 0.117289
vt 0.986342 0.117351
vt 0.960131 0.115169
vt 0.986616 0.119132
vt 0.986296 0.119357
vt 0.986538 0.119082
vt 0.986221 0.119285
vt 0.986455 0.119030
vt 0.986829 0.118352
vt 0.986630 0.117592
vt 0.986714 0.117552
vt 0.986716 0.118345
vt 0.986542 0.117633
vt 0.987144 0.117352
vt 0.986782 0.116755
vt 0.987281 0.117279
vt 0.987183 0.116464
vt 0.986743 0.116624
vt 0.987069 0.116386
vt 0.987345 0.118384
vt 0.987148 0.119475
vt 0.987019 0.119385
vt 0.987392 0.115655
vt 0.987252 0.114868
vt 0.987381 0.114819
vt 0.973981 0.115466
vt 0.974005 0.115334
vt 0.973959 0.115598
vt 0.959897 0.118460
vt 0.986360 0.119418
vt 0.973707 0.119474
vt 0.986587 0.119940
vt 0.973706 0.119604
vt 0.974367 0.112666
vt 0.986990 0.114560
vt 0.974350 0.112793
vt 0.987507 0.118394
vt 0.987261 0.115639
vt 0.986527 0.119821
vt 0.987057 0.114438
vt 0.960672 0.113393
vt 0.967348 0.114589
vt 0.960364 0.113469
vt 0.967071 0.114690
vt 0.960233 0.113573
vt 0.967994 0.114541
vt 0.966773 0.119513
vt 0.959966 0.119940
vt 0.959848 0.119807
vt 0.967831 0.111573
vt 0.961180 0.110443
vt 0.960920 0.110254
vt 0.967039 0.119640
vt 0.968428 0.111815
vt 0.986603 0.118338
vt 0.986498 0.117237
vt 0.964698 0.306005
vt 0.963425 0.306005
vt 0.962152 0.306005
vt 0.961882 0.110892
vt 0.967244 0.309333
vt 0.965972 0.306006
vt 0.961484 0.113218
vt 0.986710 0.116863
vt 0.962166 0.112142
vt 0.958333 0.309333
vt 0.965958 0.310961
vt 0.960878 0.306006
s 1
usemtl Chrome
f 479/799/267 473/800/268 472/801/269
f 478/802/270 472/803/269 471/804/271
f 496/805/272 499/806/273 498/807/274
f 499/806/273 497/808/275 498/807/274
f 500/809/276 503/810/277 502/811/278
f 503/810/277 501/812/279 502/811/278
f 484/813/280 489/814/281 488/815/282
f 486/816/283 487/817/284 489/818/281
f 488/815/282 492/819/285 491/820/286
f 489/818/281 490/821/287 492/822/285
f 491/820/286 495/823/288 494/824/289
f 492/822/285 493/825/290 495/826/288
f 482/827/291 495/823/288 483/828/292
f 483/829/292 493/825/290 481/830/293
f 484/831/280 512/832/294 486/816/283
f 486/816/283 510/833/295 485/834/296
f 541/835/297 506/836/298 542/837/299
f 542/837/299 504/838/300 540/839/301
f 508/840/302 545/841/303 544/842/304
f 509/843/305 543/844/306 545/841/303
f 523/845/307 521/846/308 524/847/309
f 524/848/309 519/849/310 522/850/311
f 517/851/312 527/852/313 526/853/314
f 518/854/315 525/855/316 527/856/313
f 519/849/310 530/857/317 529/858/318
f 521/846/308 528/859/319 530/857/317
f 482/860/291 506/836/298 505/861/320
f 483/829/292 504/838/300 506/836/298
f 531/862/321 515/863/322 533/864/323
f 533/865/323 513/866/324 532/867/325
f 517/851/312 524/847/309 518/868/315
f 518/854/315 522/850/311 516/869/326
f 526/853/314 515/863/322 514/870/327
f 527/856/313 513/866/324 515/871/322
f 500/872/276 536/873/328 503/874/277
f 503/874/277 534/875/329 501/876/279
f 535/877/330 530/857/317 536/873/328
f 536/873/328 528/859/319 534/875/329
f 537/878/331 499/879/273 496/880/272
f 539/881/332 497/882/275 499/883/273
f 531/862/321 539/884/332 537/878/331
f 533/865/323 538/885/333 539/881/332
f 508/840/302 542/837/299 509/843/305
f 509/843/305 540/839/301 507/886/334
f 544/842/304 512/832/294 511/887/335
f 545/841/303 510/833/295 512/832/294
f 482/860/291 514/870/327 531/862/321
f 494/824/289 496/805/272 498/807/274
f 507/886/334 493/825/290 487/817/284
f 484/831/280 528/859/319 511/887/335
f 501/812/279 488/815/282 475/888/336
f 488/815/282 476/889/337 475/888/336
f 491/820/286 477/890/338 476/889/337
f 498/807/274 478/802/270 471/804/271
f 478/891/270 497/882/275 538/885/333
f 480/892/339 502/811/278 474/893/278
f 500/872/276 480/894/339 535/877/330
f 505/861/320 526/853/314 514/870/327
f 508/840/302 523/845/307 517/851/312
f 541/835/297 517/851/312 526/853/314
f 544/842/304 520/895/340 523/845/307
f 532/867/325 525/855/316 522/850/311
f 538/885/333 529/858/318 535/877/330
f 480/894/339 479/896/267 535/877/330
f 535/877/330 479/896/267 538/885/333
f 479/896/267 478/891/270 538/885/333
f 479/799/267 480/892/339 473/800/268
f 478/802/270 479/897/267 472/803/269
f 484/813/280 486/898/283 489/814/281
f 486/816/283 485/834/296 487/817/284
f 488/815/282 489/814/281 492/819/285
f 489/818/281 487/817/284 490/821/287
f 491/820/286 492/819/285 495/823/288
f 492/822/285 490/821/287 493/825/290
f 482/827/291 494/824/289 495/823/288
f 483/829/292 495/826/288 493/825/290
f 484/831/280 511/887/335 512/832/294
f 486/816/283 512/832/294 510/833/295
f 541/835/297 505/861/320 506/836/298
f 542/837/299 506/836/298 504/838/300
f 508/840/302 509/843/305 545/841/303
f 509/843/305 507/886/334 543/844/306
f 523/845/307 520/895/340 521/846/308
f 524/848/309 521/846/308 519/849/310
f 517/851/312 518/868/315 527/852/313
f 518/854/315 516/869/326 525/855/316
f 519/849/310 521/846/308 530/857/317
f 521/846/308 520/895/340 528/859/319
f 482/860/291 483/829/292 506/836/298
f 483/829/292 481/830/293 504/838/300
f 531/862/321 514/870/327 515/863/322
f 533/865/323 515/871/322 513/866/324
f 517/851/312 523/845/307 524/847/309
f 518/854/315 524/848/309 522/850/311
f 526/853/314 527/852/313 515/863/322
f 527/856/313 525/855/316 513/866/324
f 500/872/276 535/877/330 536/873/328
f 503/874/277 536/873/328 534/875/329
f 535/877/330 529/858/318 530/857/317
f 536/873/328 530/857/317 528/859/319
f 537/878/331 539/884/332 499/879/273
f 539/881/332 538/885/333 497/882/275
f 531/862/321 533/864/323 539/884/332
f 533/865/323 532/867/325 538/885/333
f 508/840/302 541/835/297 542/837/299
f 509/843/305 542/837/299 540/839/301
f 544/842/304 545/841/303 512/832/294
f 545/841/303 543/844/306 510/833/295
f 537/878/331 496/880/272 482/860/291
f 482/860/291 505/861/320 514/870/327
f 531/862/321 537/878/331 482/860/291
f 470/899/274 477/890/338 494/824/289
f 494/824/289 482/827/291 496/805/272
f 498/807/274 470/899/274 494/824/289
f 487/817/284 485/834/296 510/833/295
f 510/833/295 543/844/306 507/886/334
f 507/886/334 540/839/301 504/838/300
f 504/838/300 481/830/293 493/825/290
f 493/825/290 490/821/287 487/817/284
f 487/817/284 510/833/295 507/886/334
f 507/886/334 504/838/300 493/825/290
f 484/831/280 501/876/279 534/875/329
f 528/859/319 520/895/340 511/887/335
f 484/831/280 534/875/329 528/859/319
f 475/888/336 474/893/278 502/811/278
f 501/812/279 484/813/280 488/815/282
f 475/888/336 502/811/278 501/812/279
f 488/815/282 491/820/286 476/889/337
f 491/820/286 494/824/289 477/890/338
f 471/804/271 470/899/274 498/807/274
f 498/807/274 497/808/275 478/802/270
f 474/893/278 473/800/268 480/892/339
f 480/892/339 500/809/276 502/811/278
f 505/861/320 541/835/297 526/853/314
f 508/840/302 544/842/304 523/845/307
f 541/835/297 508/840/302 517/851/312
f 544/842/304 511/887/335 520/895/340
f 519/849/310 529/858/318 532/867/325
f 532/867/325 513/866/324 525/855/316
f 525/855/316 516/869/326 522/850/311
f 522/850/311 519/849/310 532/867/325
f 538/885/333 532/867/325 529/858/318
o SwivelHandle.010
v -0.537245 0.060000 -0.040154
v -0.530174 0.062929 -0.040154
v -0.527245 0.070000 -0.040154
v -0.530174 0.077071 -0.040154
v -0.537245 0.080000 -0.040154
v -0.544316 0.077071 -0.040154
v -0.547245 0.070000 -0.040154
v -0.544316 0.062929 -0.040154
v -0.530174 0.062929 -0.060154
v -0.527245 0.070000 -0.060154
v -0.530174 0.077071 -0.060154
v -0.537055 0.061004 -0.070154
v -0.537245 0.060000 -0.069154
v -0.537189 0.060294 -0.069861
v -0.537245 0.080000 -0.069154
v -0.537055 0.078996 -0.070154
v -0.537189 0.079706 -0.069861
v -0.543551 0.076306 -0.070154
v -0.544316 0.077071 -0.069154
v -0.544092 0.076847 -0.069861
v -0.546163 0.070000 -0.070154
v -0.547245 0.070000 -0.069154
v -0.546928 0.070000 -0.069861
v -0.543551 0.063694 -0.070154
v -0.544316 0.062929 -0.069154
v -0.544092 0.063153 -0.069861
v -0.537245 0.060000 -0.061158
v -0.534771 0.061025 -0.060154
v -0.537245 0.060000 -0.059154
v -0.536521 0.060300 -0.060448
v -0.534771 0.078975 -0.060154
v -0.537245 0.080000 -0.061158
v -0.537245 0.080000 -0.059154
v -0.536521 0.079700 -0.060448
v -0.380574 0.063922 -0.070154
v -0.380174 0.062929 -0.069154
v -0.380291 0.063220 -0.069861
v -0.378254 0.070000 -0.070154
v -0.377245 0.070000 -0.069154
v -0.377540 0.070000 -0.069861
v -0.380574 0.076078 -0.070154
v -0.380174 0.077071 -0.069154
v -0.380291 0.076780 -0.069861
v -0.380574 0.063921 -0.065154
v -0.380174 0.062929 -0.066154
v -0.380291 0.063220 -0.065447
v -0.378254 0.070000 -0.065154
v -0.377245 0.070000 -0.066154
v -0.377540 0.070000 -0.065447
v -0.380574 0.076079 -0.065154
v -0.380174 0.077071 -0.066154
v -0.380291 0.076780 -0.065447
v -0.378839 0.074470 -0.065154
v -0.377894 0.074958 -0.066154
v -0.378171 0.074815 -0.065447
v -0.378839 0.065530 -0.065154
v -0.377894 0.065042 -0.066154
v -0.378171 0.065185 -0.065447
v -0.455195 0.078530 -0.066154
v -0.455174 0.077535 -0.065154
v -0.455180 0.078241 -0.065447
v -0.455195 0.061469 -0.066154
v -0.455174 0.062465 -0.065154
v -0.455180 0.061759 -0.065447
v -0.496270 0.079263 -0.064414
v -0.490910 0.078193 -0.063640
v -0.494675 0.078952 -0.063774
v -0.496270 0.060736 -0.064414
v -0.490910 0.061827 -0.063640
v -0.494675 0.061054 -0.063774
v -0.378839 0.065530 -0.070154
v -0.377894 0.065042 -0.069154
v -0.378171 0.065185 -0.069861
v -0.378839 0.074470 -0.070154
v -0.377894 0.074958 -0.069154
v -0.378171 0.074815 -0.069861
vn 0.6395 -0.0000 0.7688
vn 0.7071 0.7071 -0.0000
vn 1.0000 -0.0000 -0.0000
vn 0.4543 -0.5020 0.7359
vn 0.7071 -0.7071 -0.0000
vn -0.1348 -0.9896 0.0511
vn 0.2555 -0.9478 0.1906
vn -0.0000 -1.0000 -0.0000
vn 0.2738 -0.8303 0.4854
vn 0.2738 0.8302 0.4855
vn 0.2555 0.9478 0.1906
vn -0.0000 1.0000 -0.0000
vn -0.1348 0.9896 0.0511
vn -0.1826 0.9639 -0.1941
vn -0.5169 0.5169 -0.6824
vn -0.6929 0.6929 -0.1994
vn -0.1349 0.7128 -0.6883
vn -0.1590 0.1590 -0.9744
vn -0.7310 -0.0000 -0.6824
vn -0.9799 -0.0000 -0.1994
vn -0.2248 -0.0000 -0.9744
vn -0.5169 -0.5169 -0.6824
vn -0.6929 -0.6929 -0.1995
vn -0.1590 -0.1590 -0.9744
vn -0.1826 -0.9639 -0.1941
vn -0.1349 -0.7128 -0.6883
vn -0.0400 -0.2116 -0.9765
vn 0.2732 0.6778 -0.6826
vn 0.0837 0.2078 -0.9746
vn -0.0400 0.2116 -0.9765
vn 0.8710 -0.4498 -0.1975
vn 0.2732 -0.6778 -0.6826
vn 0.6491 -0.3352 -0.6828
vn 0.0837 -0.2078 -0.9746
vn 0.1985 -0.1025 -0.9747
vn 0.9811 -0.0000 -0.1935
vn 0.6491 0.3352 -0.6828
vn 0.8710 0.4498 -0.1975
vn 0.7202 -0.0000 -0.6937
vn 0.1985 0.1025 -0.9747
vn 0.8710 0.4498 0.1975
vn 0.2734 0.6777 0.6826
vn 0.6491 0.3352 0.6828
vn 0.0838 0.2077 0.9746
vn 0.1985 0.1025 0.9747
vn 0.9811 -0.0000 0.1935
vn 0.6491 -0.3352 0.6828
vn 0.8710 -0.4498 0.1975
vn 0.7202 -0.0000 0.6937
vn 0.1985 -0.1025 0.9747
vn 0.0283 0.7115 0.7021
vn 0.0245 0.1960 0.9803
vn 0.0224 0.9833 0.1805
vn 0.3664 -0.9091 -0.1982
vn 0.0228 -0.9852 0.1697
vn 0.2734 -0.6777 0.6826
vn 0.0283 -0.7115 0.7021
vn 0.0838 -0.2077 0.9746
vn 0.0244 -0.1961 0.9803
vn 0.2090 -0.0000 0.9779
vn 0.3665 -0.9091 0.1981
vn 0.0572 0.7662 0.6401
vn 0.0306 0.9839 0.1762
vn 0.0595 0.2072 0.9765
vn 0.0308 -0.9833 0.1793
vn 0.0576 -0.7614 0.6458
vn 0.0595 -0.2036 0.9772
vn 0.2090 -0.0000 -0.9779
vn 0.3665 0.9090 -0.1983
vn -0.7071 0.7071 -0.0000
vn -1.0000 -0.0000 -0.0000
vn -0.7071 -0.7071 -0.0000
vn 0.4543 0.5019 0.7360
vn 0.3667 0.9090 0.1982
vt 0.968517 0.309333
vt 0.967245 0.306006
vt 0.968518 0.306006
vt 0.959606 0.309333
vt 0.958332 0.306006
vt 0.959605 0.306006
vt 0.960879 0.309500
vt 0.960748 0.309382
vt 0.960879 0.309166
vt 0.960434 0.309333
vt 0.966416 0.309333
vt 0.966102 0.309382
vt 0.965971 0.309166
vt 0.965971 0.309500
vt 0.965969 0.310832
vt 0.964696 0.310956
vt 0.964697 0.310828
vt 0.960117 0.115036
vt 0.959000 0.115548
vt 0.958909 0.115442
vt 0.963425 0.310957
vt 0.963425 0.310828
vt 0.958478 0.116585
vt 0.958332 0.116576
vt 0.962154 0.310956
vt 0.962153 0.310828
vt 0.958865 0.117680
vt 0.958761 0.117773
vt 0.960881 0.310832
vt 0.960892 0.310961
vt 0.959910 0.118327
vt 0.959941 0.118197
vt 0.960121 0.114903
vt 0.986426 0.117289
vt 0.986342 0.117351
vt 0.960131 0.115169
vt 0.986616 0.119132
vt 0.986296 0.119357
vt 0.986538 0.119082
vt 0.986221 0.119285
vt 0.986455 0.119030
vt 0.986829 0.118352
vt 0.986630 0.117592
vt 0.986714 0.117552
vt 0.986716 0.118345
vt 0.986542 0.117633
vt 0.987144 0.117352
vt 0.986782 0.116755
vt 0.987281 0.117279
vt 0.987183 0.116464
vt 0.986743 0.116624
vt 0.987069 0.116386
vt 0.987345 0.118384
vt 0.987148 0.119475
vt 0.987019 0.119385
vt 0.987392 0.115655
vt 0.987252 0.114868
vt 0.987381 0.114819
vt 0.973981 0.115466
vt 0.974005 0.115334
vt 0.973959 0.115598
vt 0.959897 0.118460
vt 0.986360 0.119418
vt 0.973707 0.119474
vt 0.986587 0.119940
vt 0.973706 0.119604
vt 0.974367 0.112666
vt 0.986990 0.114560
vt 0.974350 0.112793
vt 0.987507 0.118394
vt 0.987261 0.115639
vt 0.986527 0.119821
vt 0.987057 0.114438
vt 0.960672 0.113393
vt 0.967348 0.114589
vt 0.960364 0.113469
vt 0.967071 0.114690
vt 0.960233 0.113573
vt 0.967994 0.114541
vt 0.966773 0.119513
vt 0.959966 0.119940
vt 0.959848 0.119807
vt 0.967831 0.111573
vt 0.961180 0.110443
vt 0.960920 0.110254
vt 0.967039 0.119640
vt 0.968428 0.111815
vt 0.986603 0.118338
vt 0.986498 0.117237
vt 0.964698 0.306005
vt 0.963425 0.306005
vt 0.962152 0.306005
vt 0.961882 0.110892
vt 0.967244 0.309333
vt 0.965972 0.306006
vt 0.961484 0.113218
vt 0.986710 0.116863
vt 0.962166 0.112142
vt 0.958333 0.309333
vt 0.965958 0.310961
vt 0.960878 0.306006
s 1
usemtl Chrome
f 555/900/341 549/901/342 548/902/343
f 554/903/344 548/904/343 547/905/345
f 572/906/346 575/907/347 574/908/348
f 575/907/347 573/909/349 574/908/348
f 576/910/350 579/911/351 578/912/352
f 579/911/351 577/913/353 578/912/352
f 560/914/354 565/915/355 564/916/356
f 562/917/357 563/918/358 565/919/355
f 564/916/356 568/920/359 567/921/360
f 565/919/355 566/922/361 568/923/359
f 567/921/360 571/924/362 570/925/363
f 568/923/359 569/926/364 571/927/362
f 558/928/365 571/924/362 559/929/366
f 559/930/366 569/926/364 557/931/367
f 560/932/354 588/933/368 562/917/357
f 562/917/357 586/934/369 561/935/370
f 617/936/371 582/937/372 618/938/373
f 618/938/373 580/939/374 616/940/375
f 584/941/376 621/942/377 620/943/378
f 585/944/379 619/945/380 621/942/377
f 599/946/381 597/947/382 600/948/383
f 600/949/383 595/950/384 598/951/385
f 593/952/386 603/953/387 602/954/388
f 594/955/389 601/956/390 603/957/387
f 595/950/384 606/958/391 605/959/392
f 597/947/382 604/960/393 606/958/391
f 558/961/365 582/937/372 581/962/394
f 559/930/366 580/939/374 582/937/372
f 607/963/395 591/964/396 609/965/397
f 609/966/397 589/967/398 608/968/399
f 593/952/386 600/948/383 594/969/389
f 594/955/389 598/951/385 592/970/400
f 602/954/388 591/964/396 590/971/401
f 603/957/387 589/967/398 591/972/396
f 576/973/350 612/974/402 579/975/351
f 579/975/351 610/976/403 577/977/353
f 611/978/404 606/958/391 612/974/402
f 612/974/402 604/960/393 610/976/403
f 613/979/405 575/980/347 572/981/346
f 615/982/406 573/983/349 575/984/347
f 607/963/395 615/985/406 613/979/405
f 609/966/397 614/986/407 615/982/406
f 584/941/376 618/938/373 585/944/379
f 585/944/379 616/940/375 583/987/408
f 620/943/378 588/933/368 587/988/409
f 621/942/377 586/934/369 588/933/368
f 558/961/365 590/971/401 607/963/395
f 570/925/363 572/906/346 574/908/348
f 583/987/408 569/926/364 563/918/358
f 560/932/354 604/960/393 587/988/409
f 577/913/353 564/916/356 551/989/410
f 564/916/356 552/990/411 551/989/410
f 567/921/360 553/991/412 552/990/411
f 574/908/348 554/903/344 547/905/345
f 554/992/344 573/983/349 614/986/407
f 556/993/413 578/912/352 550/994/352
f 576/973/350 556/995/413 611/978/404
f 581/962/394 602/954/388 590/971/401
f 584/941/376 599/946/381 593/952/386
f 617/936/371 593/952/386 602/954/388
f 620/943/378 596/996/414 599/946/381
f 608/968/399 601/956/390 598/951/385
f 614/986/407 605/959/392 611/978/404
f 556/995/413 555/997/341 611/978/404
f 611/978/404 555/997/341 614/986/407
f 555/997/341 554/992/344 614/986/407
f 555/900/341 556/993/413 549/901/342
f 554/903/344 555/998/341 548/904/343
f 560/914/354 562/999/357 565/915/355
f 562/917/357 561/935/370 563/918/358
f 564/916/356 565/915/355 568/920/359
f 565/919/355 563/918/358 566/922/361
f 567/921/360 568/920/359 571/924/362
f 568/923/359 566/922/361 569/926/364
f 558/928/365 570/925/363 571/924/362
f 559/930/366 571/927/362 569/926/364
f 560/932/354 587/988/409 588/933/368
f 562/917/357 588/933/368 586/934/369
f 617/936/371 581/962/394 582/937/372
f 618/938/373 582/937/372 580/939/374
f 584/941/376 585/944/379 621/942/377
f 585/944/379 583/987/408 619/945/380
f 599/946/381 596/996/414 597/947/382
f 600/949/383 597/947/382 595/950/384
f 593/952/386 594/969/389 603/953/387
f 594/955/389 592/970/400 601/956/390
f 595/950/384 597/947/382 606/958/391
f 597/947/382 596/996/414 604/960/393
f 558/961/365 559/930/366 582/937/372
f 559/930/366 557/931/367 580/939/374
f 607/963/395 590/971/401 591/964/396
f 609/966/397 591/972/396 589/967/398
f 593/952/386 599/946/381 600/948/383
f 594/955/389 600/949/383 598/951/385
f 602/954/388 603/953/387 591/964/396
f 603/957/387 601/956/390 589/967/398
f 576/973/350 611/978/404 612/974/402
f 579/975/351 612/974/402 610/976/403
f 611/978/404 605/959/392 606/958/391
f 612/974/402 606/958/391 604/960/393
f 613/979/405 615/985/406 575/980/347
f 615/982/406 614/986/407 573/983/349
f 607/963/395 609/965/397 615/985/406
f 609/966/397 608/968/399 614/986/407
f 584/941/376 617/936/371 618/938/373
f 585/944/379 618/938/373 616/940/375
f 620/943/378 621/942/377 588/933/368
f 621/942/377 619/945/380 586/934/369
f 613/979/405 572/981/346 558/961/365
f 558/961/365 581/962/394 590/971/401
f 607/963/395 613/979/405 558/961/365
f 546/1000/348 553/991/412 570/925/363
f 570/925/363 558/928/365 572/906/346
f 574/908/348 546/1000/348 570/925/363
f 563/918/358 561/935/370 586/934/369
f 586/934/369 619/945/380 583/987/408
f 583/987/408 616/940/375 580/939/374
f 580/939/374 557/931/367 569/926/364
f 569/926/364 566/922/361 563/918/358
f 563/918/358 586/934/369 583/987/408
f 583/987/408 580/939/374 569/926/364
f 560/932/354 577/977/353 610/976/403
f 604/960/393 596/996/414 587/988/409
f 560/932/354 610/976/403 604/960/393
f 551/989/410 550/994/352 578/912/352
f 577/913/353 560/914/354 564/916/356
f 551/989/410 578/912/352 577/913/353
f 564/916/356 567/921/360 552/990/411
f 567/921/360 570/925/363 553/991/412
f 547/905/345 546/1000/348 574/908/348
f 574/908/348 573/909/349 554/903/344
f 550/994/352 549/901/342 556/993/413
f 556/993/413 576/910/350 578/912/352
f 581/962/394 617/936/371 602/954/388
f 584/941/376 620/943/378 599/946/381
f 617/936/371 584/941/376 593/952/386
f 620/943/378 587/988/409 596/996/414
f 595/950/384 605/959/392 608/968/399
f 608/968/399 589/967/398 601/956/390
f 601/956/390 592/970/400 598/951/385
f 598/951/385 595/950/384 608/968/399
f 614/986/407 608/968/399 605/959/392
o DoorWindow
v -0.054727 0.329333 -0.017955
v -0.054727 0.800912 -0.017955
v -0.054727 0.329333 -0.012955
v -0.054727 0.800912 -0.012955
v -0.545546 0.329333 -0.017955
v -0.545546 0.800912 -0.017954
v -0.545546 0.329333 -0.012955
v -0.545546 0.800912 -0.012954
vn -0.0000 -0.0000 1.0000
vn -0.0000 -0.0000 -1.0000
vt 0.292546 0.867881
vt 0.213327 0.950332
vt 0.213327 0.867881
vt 0.867567 0.625872
vt 0.946786 0.543420
vt 0.946786 0.625872
vt 0.292546 0.950332
vt 0.867567 0.543420
s 1
usemtl Glass
f 625/1001/415 628/1002/415 624/1003/415
f 627/1004/416 622/1005/416 626/1006/416
f 625/1001/415 629/1007/415 628/1002/415
f 627/1004/416 623/1008/416 622/1005/416
