# Blender 5.0.1
# www.blender.org
mtllib resistor_hatch_right.mtl
o ResistorHatchRightExport
g resistor_hatch_right
v -0.005287 -0.437540 0.005000
v -0.005179 0.439780 0.005000
v 0.019864 -0.442542 -0.000000
v 0.019973 0.444778 0.000000
v -0.005260 -0.437540 0.712607
v -0.005179 0.439780 0.712608
v 0.019891 -0.442542 0.717607
v 0.019973 0.444778 0.717608
v -0.005260 -0.442540 0.717607
v -0.005287 -0.442540 -0.000000
v -0.005179 0.444780 0.000000
v -0.005179 0.444780 0.717608
v 0.014141 -0.437543 0.712607
v 0.014114 -0.437543 0.004999
v 0.014221 0.439777 0.005000
v 0.014221 0.439777 0.712607
vn -0.0000 -0.0000 1.0000
vn 0.0001 1.0000 -0.0000
vn -0.0000 -0.0000 -1.0000
vn -0.0001 -1.0000 -0.0000
vn 1.0000 -0.0001 -0.0000
vn -1.0000 0.0001 -0.0000
vt 0.020160 0.020159
vt 0.004000 0.590247
vt 0.004000 0.020158
vt 0.020160 0.590247
vt 0.481211 0.606407
vt 0.020160 0.606407
vt 0.497370 0.590247
vt 0.481211 0.020159
vt 0.497370 0.020158
vt 0.020160 0.003999
vt 0.481212 0.003999
vt 0.481211 0.590247
vt 0.600076 0.775085
vt 0.637540 0.774058
vt 0.637541 0.775085
vt 0.600076 0.726582
vt 0.637805 0.726317
vt 0.637540 0.726582
vt 0.599049 0.774058
vt 0.598784 0.727344
vt 0.599049 0.727609
vt 0.599812 0.775350
vt 0.638568 0.727609
vt 0.638832 0.774323
vt 0.638568 0.774058
vt 0.600076 0.774058
vt 0.637540 0.727609
vt 0.600076 0.727609
vt 0.599812 0.726317
vt 0.598784 0.774323
vt 0.637805 0.775350
vt 0.638832 0.727344
s 0
usemtl SideHatch
f 7/1/1 12/2/1 9/3/1
f 8/4/2 11/5/2 12/6/2
f 11/7/3 3/8/3 10/9/3
f 3/8/4 9/10/4 10/11/4
f 4/12/5 7/1/5 3/8/5
f 7/1/1 8/4/1 12/2/1
f 8/4/2 4/12/2 11/5/2
f 11/7/3 4/12/3 3/8/3
f 3/8/4 7/1/4 9/10/4
f 4/12/5 8/4/5 7/1/5
f 2/13/4 16/14/4 6/15/4
f 1/16/6 9/17/6 5/18/6
f 2/19/6 10/20/6 1/21/6
f 6/15/6 11/22/6 2/13/6
f 5/23/6 12/24/6 6/25/6
f 15/26/6 13/27/6 16/14/6
f 5/18/2 14/28/2 1/16/2
f 5/23/3 16/14/3 13/27/3
f 1/21/1 15/26/1 2/19/1
f 2/13/4 15/26/4 16/14/4
f 1/16/6 10/29/6 9/17/6
f 2/19/6 11/30/6 10/20/6
f 6/15/6 12/31/6 11/22/6
f 5/23/6 9/32/6 12/24/6
f 15/26/6 14/28/6 13/27/6
f 5/18/2 13/27/2 14/28/2
f 5/23/3 6/25/3 16/14/3
f 1/21/1 14/28/1 15/26/1
o DoorHandle.121
v 0.020009 -0.366476 0.616893
v 0.023138 -0.366474 0.619501
v 0.044620 -0.365920 0.619501
v 0.051659 -0.362702 0.619501
v 0.056954 -0.357062 0.619501
v 0.059719 -0.349843 0.619501
v 0.059721 -0.283031 0.619501
v 0.056953 -0.275810 0.619501
v 0.051651 -0.270179 0.619501
v 0.044608 -0.266981 0.619501
v 0.023152 -0.266468 0.619501
v 0.020023 -0.266474 0.616893
v 0.020013 -0.257559 0.620586
v 0.023144 -0.259397 0.622430
v 0.046233 -0.260100 0.622430
v 0.055767 -0.264429 0.622430
v 0.062943 -0.272052 0.622430
v 0.066689 -0.281829 0.622430
v 0.066691 -0.351026 0.622430
v 0.062960 -0.360795 0.622430
v 0.055805 -0.368430 0.622430
v 0.046290 -0.372791 0.622430
v 0.023140 -0.373545 0.622430
v 0.020011 -0.375390 0.620586
v 0.020008 -0.253866 0.629501
v 0.023140 -0.256468 0.629501
v 0.046908 -0.257249 0.629501
v 0.057473 -0.262048 0.629501
v 0.065425 -0.270497 0.629501
v 0.069576 -0.281331 0.629501
v 0.069580 -0.351510 0.629501
v 0.065450 -0.362337 0.629501
v 0.057527 -0.370799 0.629501
v 0.046987 -0.375635 0.629501
v 0.023140 -0.376474 0.629501
v 0.020012 -0.379083 0.629501
v 0.020013 -0.257559 0.638416
v 0.023144 -0.259397 0.636572
v 0.046233 -0.260100 0.636572
v 0.055767 -0.264429 0.636572
v 0.062943 -0.272052 0.636572
v 0.066689 -0.281829 0.636572
v 0.066691 -0.351026 0.636572
v 0.062960 -0.360795 0.636572
v 0.055805 -0.368430 0.636572
v 0.046290 -0.372791 0.636572
v 0.023140 -0.373545 0.636572
v 0.020011 -0.375390 0.638416
v 0.020023 -0.266474 0.642108
v 0.023152 -0.266468 0.639501
v 0.044608 -0.266981 0.639501
v 0.051651 -0.270179 0.639501
v 0.056953 -0.275810 0.639501
v 0.059721 -0.283031 0.639501
v 0.059719 -0.349843 0.639501
v 0.056954 -0.357062 0.639501
v 0.051659 -0.362702 0.639501
v 0.044620 -0.365920 0.639501
v 0.023138 -0.366474 0.639501
v 0.020009 -0.366476 0.642108
v 0.020034 -0.275388 0.638416
v 0.023160 -0.273539 0.636572
v 0.042984 -0.273863 0.636572
v 0.047537 -0.275930 0.636572
v 0.050964 -0.279569 0.636572
v 0.052754 -0.284236 0.636572
v 0.052751 -0.348641 0.636572
v 0.050959 -0.353313 0.636572
v 0.047529 -0.356962 0.636572
v 0.042969 -0.359044 0.636572
v 0.023136 -0.359403 0.636572
v 0.020007 -0.357561 0.638416
v 0.020038 -0.279081 0.629501
v 0.023164 -0.276468 0.629501
v 0.042313 -0.276714 0.629501
v 0.045834 -0.278312 0.629501
v 0.048484 -0.281127 0.629501
v 0.049868 -0.284736 0.629501
v 0.049866 -0.348138 0.629501
v 0.048479 -0.351755 0.629501
v 0.045823 -0.354582 0.629501
v 0.042291 -0.356195 0.629501
v 0.023135 -0.356474 0.629501
v 0.020006 -0.353868 0.629501
v 0.020034 -0.275388 0.620586
v 0.023160 -0.273539 0.622430
v 0.042984 -0.273863 0.622430
v 0.047537 -0.275930 0.622430
v 0.050964 -0.279569 0.622430
v 0.052754 -0.284236 0.622430
v 0.052751 -0.348641 0.622430
v 0.050959 -0.353313 0.622430
v 0.047529 -0.356962 0.622430
v 0.042969 -0.359044 0.622430
v 0.023136 -0.359403 0.622430
v 0.020007 -0.357561 0.620586
vn 0.6400 0.5434 -0.5432
vn 0.6402 0.0002 -0.7682
vn 0.6402 0.0001 -0.7682
vn 0.0206 0.7113 0.7026
vn 0.0112 0.0472 0.9988
vn 0.1656 0.7103 0.6841
vn -0.3975 0.5541 -0.7314
vn 0.0112 -0.0472 -0.9988
vn -0.1511 0.6630 -0.7332
vn -0.5776 0.3624 -0.7314
vn 0.0274 -0.0383 -0.9989
vn -0.6720 0.1246 -0.7300
vn 0.0399 -0.0250 -0.9989
vn -0.6720 -0.1245 -0.7300
vn 0.0401 0.0252 -0.9989
vn 0.0437 0.0086 -0.9990
vn -0.5774 -0.3626 -0.7315
vn 0.0275 0.0385 -0.9989
vn -0.3966 -0.5546 -0.7315
vn 0.0112 0.0472 -0.9988
vn 0.0013 0.0053 1.0000
vn -0.1499 -0.6634 0.7331
vn 0.6411 -0.5423 -0.5431
vn 0.6402 0.0007 -0.7682
vn 0.6402 0.0009 -0.7682
vn 0.6399 0.7684 -0.0000
vn -0.2204 0.9754 -0.0000
vn -0.0115 0.7056 0.7086
vn -0.1511 0.6630 0.7332
vn -0.5830 0.8125 -0.0000
vn -0.8471 0.5314 -0.0000
vn -0.8469 -0.5318 -0.0000
vn -0.9832 -0.1825 -0.0000
vn -0.5816 -0.8134 -0.0000
vn -0.2185 -0.9758 -0.0000
vn -0.0102 -0.7056 0.7085
vn 0.6414 -0.7672 -0.0000
vn 0.6411 -0.5424 -0.5430
vn 0.6400 0.5434 0.5432
vn 0.0309 0.9995 -0.0000
vn 0.2277 0.9737 -0.0000
vn -0.3975 0.5541 0.7314
vn -0.5776 0.3624 0.7314
vn -0.6720 0.1246 0.7300
vn -0.9832 0.1826 -0.0000
vn 0.0112 -0.0472 0.9988
vn 0.0221 -0.7114 0.7025
vn 0.1675 -0.7099 0.6840
vn -0.6720 -0.1245 0.7300
vn -0.5774 -0.3626 0.7315
vn -0.3966 -0.5546 0.7315
vn -0.0115 0.7056 -0.7086
vn -0.0146 0.9999 -0.0000
vn 0.6411 -0.5424 0.5430
vn 0.6411 -0.5423 0.5431
vn 0.6402 0.0002 0.7682
vn 0.6402 0.0001 0.7682
vn 0.0013 -0.0053 -1.0000
vn 0.0274 -0.0383 0.9989
vn 0.0399 -0.0250 0.9989
vn 0.0436 -0.0086 -0.9990
vn 0.0436 -0.0086 0.9990
vn 0.0437 0.0086 0.9990
vn 0.0401 0.0252 0.9989
vn 0.0275 0.0385 0.9989
vn 0.0013 -0.0053 1.0000
vn 0.6402 0.0007 0.7682
vn 0.6402 0.0009 0.7682
vn 0.6404 -0.5430 0.5432
vn 0.0221 -0.7114 -0.7025
vn 0.4259 -0.5919 0.6843
vn 0.6182 -0.3867 0.6843
vn 0.7159 -0.1321 -0.6856
vn 0.6176 0.3877 0.6842
vn 0.7158 0.1326 0.6856
vn 0.4243 0.5931 0.6842
vn 0.0206 0.7113 -0.7026
vn 0.1656 0.7103 -0.6841
vn 0.6393 0.5441 0.5434
vn 0.6393 0.5442 0.5433
vn 0.6405 -0.7680 -0.0000
vn 0.2308 -0.9730 -0.0000
vn 0.5845 -0.8114 -0.0000
vn 0.8481 -0.5298 -0.0000
vn 0.7159 -0.1321 0.6856
vn 0.7158 0.1326 -0.6856
vn 0.9836 -0.1805 -0.0000
vn 0.8470 0.5316 -0.0000
vn 0.9834 0.1814 -0.0000
vn 0.5819 0.8133 -0.0000
vn 0.6390 0.7692 -0.0000
vn 0.6404 -0.5430 -0.5432
vn 0.0331 -0.9995 -0.0000
vn 0.4259 -0.5919 -0.6843
vn 0.1675 -0.7099 -0.6840
vn 0.6182 -0.3867 -0.6843
vn -0.0102 -0.7056 -0.7085
vn -0.0129 -0.9999 -0.0000
vn 0.6176 0.3877 -0.6842
vn 0.4243 0.5931 -0.6842
vn 0.6393 0.5442 -0.5433
vn 0.0013 0.0053 -1.0000
vn -0.1499 -0.6634 -0.7331
vn 0.6393 0.5441 -0.5434
vt 0.553800 0.613966
vt 0.549015 0.614852
vt 0.549445 0.612882
vt 0.535875 0.689541
vt 0.534072 0.677649
vt 0.537325 0.678160
vt 0.549789 0.629624
vt 0.546559 0.625819
vt 0.550341 0.626673
vt 0.549605 0.632620
vt 0.546019 0.629290
vt 0.549782 0.635565
vt 0.545902 0.632668
vt 0.549769 0.667903
vt 0.545885 0.670806
vt 0.546181 0.667476
vt 0.549590 0.670851
vt 0.546002 0.674185
vt 0.549774 0.673845
vt 0.546543 0.677655
vt 0.531609 0.688619
vt 0.530288 0.676784
vt 0.553209 0.687488
vt 0.549528 0.690578
vt 0.548997 0.688626
vt 0.558402 0.615586
vt 0.553218 0.615988
vt 0.526004 0.627671
vt 0.527450 0.615977
vt 0.530318 0.626665
vt 0.554653 0.627683
vt 0.554358 0.630233
vt 0.554131 0.632871
vt 0.554122 0.670602
vt 0.553920 0.668021
vt 0.554349 0.673235
vt 0.554645 0.675779
vt 0.527398 0.687477
vt 0.525971 0.675767
vt 0.557287 0.686200
vt 0.553874 0.689471
vt 0.522266 0.615570
vt 0.526869 0.613955
vt 0.540302 0.690003
vt 0.540307 0.678331
vt 0.530868 0.629616
vt 0.531049 0.632612
vt 0.526298 0.630221
vt 0.530869 0.635557
vt 0.526522 0.632859
vt 0.553928 0.635455
vt 0.534101 0.625814
vt 0.535910 0.613925
vt 0.537351 0.625321
vt 0.530855 0.667895
vt 0.526499 0.670591
vt 0.526703 0.668009
vt 0.531031 0.670843
vt 0.526270 0.673223
vt 0.530845 0.673837
vt 0.557290 0.617274
vt 0.526731 0.689459
vt 0.523321 0.686186
vt 0.531654 0.614844
vt 0.531226 0.612874
vt 0.534637 0.629285
vt 0.534751 0.632663
vt 0.546196 0.635997
vt 0.534454 0.635992
vt 0.534443 0.667471
vt 0.534736 0.670801
vt 0.534616 0.674180
vt 0.531076 0.690570
vt 0.535554 0.611867
vt 0.544760 0.613929
vt 0.537655 0.629146
vt 0.537702 0.632730
vt 0.543155 0.636321
vt 0.537686 0.670747
vt 0.537483 0.667159
vt 0.537635 0.674332
vt 0.544730 0.689545
vt 0.543290 0.678162
vt 0.535425 0.691617
vt 0.540335 0.613448
vt 0.540336 0.611063
vt 0.540330 0.625159
vt 0.540328 0.629100
vt 0.540327 0.632745
vt 0.537495 0.636319
vt 0.543140 0.667161
vt 0.540325 0.636425
vt 0.540310 0.670739
vt 0.540312 0.667061
vt 0.540309 0.674385
vt 0.540301 0.692444
vt 0.545118 0.611871
vt 0.543002 0.629148
vt 0.543309 0.625324
vt 0.542952 0.632732
vt 0.542935 0.670749
vt 0.542983 0.674334
vt 0.526723 0.635444
vt 0.550327 0.676792
vt 0.545178 0.691621
vt 0.523377 0.617259
vt 0.558402 0.687891
vt 0.522204 0.687875
s 1
usemtl SideHatch
f 112/33/7 18/34/8 17/35/9
f 54/36/10 67/37/11 55/38/12
f 109/39/13 19/40/14 110/41/15
f 108/42/16 20/43/17 109/39/13
f 107/44/18 21/45/19 108/42/16
f 106/46/20 24/47/21 23/48/22
f 105/49/23 25/50/24 24/47/21
f 104/51/25 26/52/26 25/50/24
f 66/53/27 79/54/28 67/37/11
f 102/55/29 28/56/30 27/57/31
f 100/58/32 111/59/7 112/33/7
f 98/60/33 87/61/34 86/62/35
f 98/63/33 109/39/13 110/41/15
f 97/64/36 108/42/16 109/39/13
f 96/65/37 107/44/18 108/42/16
f 93/66/38 106/46/20 94/67/39
f 92/68/40 105/49/23 93/66/38
f 91/69/41 104/51/25 92/68/40
f 78/70/42 91/71/41 79/54/28
f 90/72/43 101/73/44 102/55/29
f 87/61/45 100/74/32 88/75/45
f 42/76/46 55/38/12 43/77/47
f 85/78/48 98/60/33 86/62/35
f 84/79/49 97/80/36 85/78/48
f 83/81/50 96/82/37 84/79/49
f 106/46/20 95/83/51 94/67/39
f 74/84/52 63/85/53 62/86/54
f 82/87/55 93/88/38 94/89/39
f 81/90/56 92/91/40 93/88/38
f 80/92/57 91/71/41 92/91/40
f 98/63/33 111/59/58 99/93/59
f 77/94/60 90/95/43 78/70/61
f 75/96/62 88/75/45 76/97/63
f 110/41/15 18/34/64 111/59/58
f 74/84/52 85/78/48 86/62/35
f 73/98/65 84/79/49 85/78/48
f 72/99/66 83/81/50 84/79/49
f 106/46/20 22/100/67 107/44/18
f 82/87/55 71/101/68 70/102/69
f 69/103/70 82/87/55 70/102/69
f 68/104/71 81/90/56 69/103/70
f 67/37/11 80/92/57 68/104/71
f 86/62/35 75/96/72 74/84/52
f 65/105/73 78/70/61 66/53/74
f 63/85/75 76/97/63 64/106/75
f 19/40/14 39/107/76 18/34/64
f 62/86/54 73/98/65 74/84/52
f 61/108/77 72/99/66 73/98/65
f 60/109/78 71/101/68 72/99/66
f 23/48/22 35/110/79 22/100/67
f 57/111/80 70/102/69 58/112/81
f 56/113/82 69/103/70 57/111/80
f 55/38/12 68/104/71 56/113/82
f 26/52/26 30/114/83 31/115/84
f 53/116/85 66/53/74 54/36/86
f 51/117/87 64/106/75 52/118/87
f 50/119/88 61/108/77 62/86/54
f 49/120/89 60/109/78 61/108/77
f 48/121/90 59/122/91 60/109/78
f 34/123/92 47/124/93 35/110/79
f 45/125/94 58/112/81 46/126/95
f 44/127/96 57/111/80 45/125/94
f 43/77/47 56/113/82 44/127/96
f 42/76/46 31/115/84 30/114/83
f 41/128/97 54/36/86 42/76/97
f 40/129/98 51/117/87 52/118/87
f 62/86/54 51/117/99 50/119/88
f 37/130/100 50/119/88 38/131/101
f 36/132/102 49/120/89 37/130/100
f 35/110/79 48/121/90 36/132/102
f 58/112/81 47/124/93 46/126/95
f 102/55/103 91/69/41 90/72/104
f 34/123/92 45/125/94 46/126/95
f 33/133/105 44/127/96 45/125/94
f 32/134/106 43/77/47 44/127/96
f 38/131/101 51/117/99 39/107/76
f 30/114/107 41/128/97 42/76/97
f 17/35/9 39/107/98 40/129/98
f 82/87/55 95/135/51 83/81/50
f 20/43/17 38/131/101 19/40/14
f 21/45/19 37/130/100 20/43/17
f 22/100/67 36/132/102 21/45/19
f 27/57/108 103/136/109 102/55/103
f 70/102/69 59/122/91 58/112/81
f 23/48/22 33/133/105 34/123/92
f 24/47/21 32/134/106 33/133/105
f 25/50/24 31/115/84 32/134/106
f 27/57/31 29/137/110 30/114/107
f 112/33/7 111/59/7 18/34/8
f 54/36/10 66/53/27 67/37/11
f 109/39/13 20/43/17 19/40/14
f 108/42/16 21/45/19 20/43/17
f 107/44/18 22/100/67 21/45/19
f 106/46/20 105/49/23 24/47/21
f 105/49/23 104/51/25 25/50/24
f 104/51/25 103/136/109 26/52/26
f 66/53/27 78/70/42 79/54/28
f 102/55/29 101/73/44 28/56/30
f 100/58/32 99/93/32 111/59/7
f 98/60/33 99/138/59 87/61/34
f 98/63/33 97/64/36 109/39/13
f 97/64/36 96/65/37 108/42/16
f 96/65/37 95/83/51 107/44/18
f 93/66/38 105/49/23 106/46/20
f 92/68/40 104/51/25 105/49/23
f 91/69/41 103/136/109 104/51/25
f 78/70/42 90/95/104 91/71/41
f 90/72/43 89/139/43 101/73/44
f 87/61/45 99/138/32 100/74/32
f 42/76/46 54/36/10 55/38/12
f 85/78/48 97/80/36 98/60/33
f 84/79/49 96/82/37 97/80/36
f 83/81/50 95/135/51 96/82/37
f 106/46/20 107/44/18 95/83/51
f 74/84/52 75/96/72 63/85/53
f 82/87/55 81/90/56 93/88/38
f 81/90/56 80/92/57 92/91/40
f 80/92/57 79/54/28 91/71/41
f 98/63/33 110/41/15 111/59/58
f 77/94/60 89/140/43 90/95/43
f 75/96/62 87/61/45 88/75/45
f 110/41/15 19/40/14 18/34/64
f 74/84/52 73/98/65 85/78/48
f 73/98/65 72/99/66 84/79/49
f 72/99/66 71/101/68 83/81/50
f 106/46/20 23/48/22 22/100/67
f 82/87/55 83/81/50 71/101/68
f 69/103/70 81/90/56 82/87/55
f 68/104/71 80/92/57 81/90/56
f 67/37/11 79/54/28 80/92/57
f 86/62/35 87/61/34 75/96/72
f 65/105/73 77/94/60 78/70/61
f 63/85/75 75/96/62 76/97/63
f 19/40/14 38/131/101 39/107/76
f 62/86/54 61/108/77 73/98/65
f 61/108/77 60/109/78 72/99/66
f 60/109/78 59/122/91 71/101/68
f 23/48/22 34/123/92 35/110/79
f 57/111/80 69/103/70 70/102/69
f 56/113/82 68/104/71 69/103/70
f 55/38/12 67/37/11 68/104/71
f 26/52/26 27/57/108 30/114/83
f 53/116/85 65/105/73 66/53/74
f 51/117/87 63/85/75 64/106/75
f 50/119/88 49/120/89 61/108/77
f 49/120/89 48/121/90 60/109/78
f 48/121/90 47/124/93 59/122/91
f 34/123/92 46/126/95 47/124/93
f 45/125/94 57/111/80 58/112/81
f 44/127/96 56/113/82 57/111/80
f 43/77/47 55/38/12 56/113/82
f 42/76/46 43/77/47 31/115/84
f 41/128/97 53/116/85 54/36/86
f 40/129/98 39/107/98 51/117/87
f 62/86/54 63/85/53 51/117/99
f 37/130/100 49/120/89 50/119/88
f 36/132/102 48/121/90 49/120/89
f 35/110/79 47/124/93 48/121/90
f 58/112/81 59/122/91 47/124/93
f 102/55/103 103/136/109 91/69/41
f 34/123/92 33/133/105 45/125/94
f 33/133/105 32/134/106 44/127/96
f 32/134/106 31/115/84 43/77/47
f 38/131/101 50/119/88 51/117/99
f 30/114/107 29/137/110 41/128/97
f 17/35/9 18/34/8 39/107/98
f 82/87/55 94/89/39 95/135/51
f 20/43/17 37/130/100 38/131/101
f 21/45/19 36/132/102 37/130/100
f 22/100/67 35/110/79 36/132/102
f 27/57/108 26/52/26 103/136/109
f 70/102/69 71/101/68 59/122/91
f 23/48/22 24/47/21 33/133/105
f 24/47/21 25/50/24 32/134/106
f 25/50/24 26/52/26 31/115/84
f 27/57/31 28/56/30 29/137/110
o DoorHandle.122
v 0.020009 0.261785 0.616894
v 0.023138 0.261787 0.619501
v 0.044620 0.262342 0.619501
v 0.051659 0.265559 0.619501
v 0.056954 0.271199 0.619501
v 0.059719 0.278418 0.619501
v 0.059721 0.345230 0.619501
v 0.056953 0.352451 0.619501
v 0.051651 0.358082 0.619501
v 0.044608 0.361280 0.619501
v 0.023152 0.361793 0.619501
v 0.020023 0.361787 0.616894
v 0.020013 0.370702 0.620586
v 0.023144 0.368864 0.622430
v 0.046233 0.368161 0.622430
v 0.055767 0.363832 0.622430
v 0.062943 0.356209 0.622430
v 0.066689 0.346432 0.622430
v 0.066691 0.277235 0.622430
v 0.062960 0.267466 0.622430
v 0.055805 0.259831 0.622430
v 0.046290 0.255470 0.622430
v 0.023140 0.254716 0.622430
v 0.020011 0.252871 0.620586
v 0.020008 0.374395 0.629501
v 0.023140 0.371793 0.629501
v 0.046908 0.371012 0.629501
v 0.057473 0.366213 0.629501
v 0.065425 0.357764 0.629501
v 0.069576 0.346930 0.629501
v 0.069580 0.276751 0.629501
v 0.065450 0.265924 0.629501
v 0.057527 0.257462 0.629501
v 0.046987 0.252626 0.629501
v 0.023140 0.251787 0.629501
v 0.020012 0.249178 0.629501
v 0.020013 0.370702 0.638416
v 0.023144 0.368864 0.636572
v 0.046233 0.368161 0.636572
v 0.055767 0.363832 0.636572
v 0.062943 0.356209 0.636572
v 0.066689 0.346432 0.636572
v 0.066691 0.277235 0.636572
v 0.062960 0.267466 0.636572
v 0.055805 0.259831 0.636572
v 0.046290 0.255470 0.636572
v 0.023140 0.254716 0.636572
v 0.020011 0.252871 0.638416
v 0.020023 0.361787 0.642109
v 0.023152 0.361793 0.639501
v 0.044608 0.361280 0.639501
v 0.051651 0.358082 0.639501
v 0.056953 0.352452 0.639501
v 0.059721 0.345230 0.639501
v 0.059719 0.278418 0.639501
v 0.056954 0.271199 0.639501
v 0.051659 0.265559 0.639501
v 0.044620 0.262342 0.639501
v 0.023138 0.261787 0.639501
v 0.020009 0.261785 0.642109
v 0.020034 0.352873 0.638416
v 0.023160 0.354722 0.636572
v 0.042984 0.354398 0.636572
v 0.047537 0.352331 0.636572
v 0.050964 0.348692 0.636572
v 0.052754 0.344025 0.636572
v 0.052751 0.279620 0.636572
v 0.050959 0.274948 0.636572
v 0.047529 0.271299 0.636572
v 0.042969 0.269217 0.636572
v 0.023136 0.268858 0.636572
v 0.020007 0.270700 0.638416
v 0.020038 0.349180 0.629501
v 0.023164 0.351793 0.629501
v 0.042313 0.351547 0.629501
v 0.045834 0.349949 0.629501
v 0.048484 0.347134 0.629501
v 0.049868 0.343525 0.629501
v 0.049866 0.280123 0.629501
v 0.048479 0.276506 0.629501
v 0.045823 0.273679 0.629501
v 0.042291 0.272066 0.629501
v 0.023135 0.271787 0.629501
v 0.020006 0.274393 0.629501
v 0.020034 0.352873 0.620586
v 0.023160 0.354722 0.622430
v 0.042984 0.354398 0.622430
v 0.047537 0.352331 0.622430
v 0.050964 0.348692 0.622430
v 0.052754 0.344025 0.622430
v 0.052751 0.279620 0.622430
v 0.050959 0.274948 0.622430
v 0.047529 0.271299 0.622430
v 0.042969 0.269217 0.622430
v 0.023136 0.268858 0.622430
v 0.020007 0.270700 0.620586
vn 0.6400 0.5434 -0.5432
vn 0.6402 0.0002 -0.7682
vn 0.6402 0.0001 -0.7682
vn 0.0206 0.7113 0.7026
vn 0.0112 0.0472 0.9988
vn 0.1656 0.7103 0.6841
vn -0.3975 0.5541 -0.7314
vn 0.0112 -0.0472 -0.9988
vn -0.1511 0.6630 -0.7332
vn -0.5776 0.3624 -0.7314
vn 0.0274 -0.0383 -0.9989
vn -0.6720 0.1246 -0.7300
vn 0.0399 -0.0250 -0.9989
vn -0.6720 -0.1245 -0.7300
vn 0.0401 0.0252 -0.9989
vn 0.0437 0.0086 -0.9990
vn -0.5774 -0.3626 -0.7315
vn 0.0275 0.0385 -0.9989
vn -0.3966 -0.5546 -0.7315
vn 0.0112 0.0472 -0.9988
vn 0.0013 0.0053 1.0000
vn -0.1499 -0.6634 0.7331
vn 0.6411 -0.5423 -0.5431
vn 0.6402 0.0007 -0.7682
vn 0.6402 0.0009 -0.7682
vn 0.6399 0.7684 -0.0000
vn -0.2204 0.9754 -0.0000
vn -0.0115 0.7056 0.7086
vn -0.1511 0.6630 0.7332
vn -0.5830 0.8125 -0.0000
vn -0.8471 0.5314 -0.0000
vn -0.8469 -0.5318 -0.0000
vn -0.9832 -0.1825 -0.0000
vn -0.5816 -0.8134 -0.0000
vn -0.2185 -0.9758 -0.0000
vn -0.0102 -0.7056 0.7085
vn 0.6414 -0.7672 -0.0000
vn 0.6411 -0.5424 -0.5430
vn 0.6400 0.5434 0.5432
vn 0.0309 0.9995 -0.0000
vn 0.2277 0.9737 -0.0000
vn -0.3975 0.5541 0.7314
vn -0.5776 0.3624 0.7314
vn -0.6720 0.1246 0.7300
vn -0.9832 0.1826 -0.0000
vn 0.0112 -0.0472 0.9988
vn 0.0221 -0.7114 0.7025
vn 0.1675 -0.7099 0.6840
vn -0.6720 -0.1245 0.7300
vn -0.5774 -0.3626 0.7315
vn -0.3966 -0.5546 0.7315
vn -0.0115 0.7056 -0.7086
vn -0.0146 0.9999 -0.0000
vn 0.6411 -0.5424 0.5430
vn 0.6411 -0.5423 0.5431
vn 0.6402 0.0002 0.7682
vn 0.6402 0.0001 0.7682
vn 0.0013 -0.0053 -1.0000
vn 0.0274 -0.0383 0.9989
vn 0.0399 -0.0250 0.9989
vn 0.0436 -0.0086 -0.9990
vn 0.0436 -0.0086 0.9990
vn 0.0437 0.0086 0.9990
vn 0.0401 0.0252 0.9989
vn 0.0275 0.0385 0.9989
vn 0.0013 -0.0053 1.0000
vn 0.6402 0.0007 0.7682
vn 0.6402 0.0009 0.7682
vn 0.6404 -0.5430 0.5432
vn 0.0221 -0.7114 -0.7025
vn 0.4259 -0.5919 0.6843
vn 0.6182 -0.3867 0.6843
vn 0.7159 -0.1321 -0.6856
vn 0.6176 0.3877 0.6842
vn 0.7158 0.1326 0.6856
vn 0.4243 0.5931 0.6842
vn 0.0206 0.7113 -0.7026
vn 0.1656 0.7103 -0.6841
vn 0.6393 0.5441 0.5434
vn 0.6393 0.5442 0.5433
vn 0.6405 -0.7680 -0.0000
vn 0.2308 -0.9730 -0.0000
vn 0.5845 -0.8114 -0.0000
vn 0.8481 -0.5298 -0.0000
vn 0.7159 -0.1321 0.6856
vn 0.7158 0.1326 -0.6856
vn 0.9836 -0.1805 -0.0000
vn 0.8470 0.5316 -0.0000
vn 0.9834 0.1814 -0.0000
vn 0.5819 0.8133 -0.0000
vn 0.6390 0.7692 -0.0000
vn 0.6404 -0.5430 -0.5432
vn 0.0331 -0.9995 -0.0000
vn 0.4259 -0.5919 -0.6843
vn 0.1675 -0.7099 -0.6840
vn 0.6182 -0.3867 -0.6843
vn -0.0102 -0.7056 -0.7085
vn -0.0129 -0.9999 -0.0000
vn 0.6176 0.3877 -0.6842
vn 0.4243 0.5931 -0.6842
vn 0.6393 0.5442 -0.5433
vn 0.0013 0.0053 -1.0000
vn -0.1499 -0.6634 -0.7331
vn 0.6393 0.5441 -0.5434
vt 0.553800 0.613966
vt 0.549015 0.614852
vt 0.549445 0.612882
vt 0.535875 0.689541
vt 0.534072 0.677649
vt 0.537325 0.678160
vt 0.549789 0.629624
vt 0.546559 0.625819
vt 0.550341 0.626673
vt 0.549605 0.632620
vt 0.546019 0.629290
vt 0.549782 0.635565
vt 0.545902 0.632668
vt 0.549769 0.667903
vt 0.545885 0.670806
vt 0.546181 0.667476
vt 0.549590 0.670851
vt 0.546002 0.674185
vt 0.549774 0.673845
vt 0.546543 0.677655
vt 0.531609 0.688619
vt 0.530288 0.676784
vt 0.553209 0.687488
vt 0.549528 0.690578
vt 0.548997 0.688626
vt 0.558402 0.615586
vt 0.553218 0.615988
vt 0.526004 0.627671
vt 0.527450 0.615977
vt 0.530318 0.626665
vt 0.554653 0.627683
vt 0.554358 0.630233
vt 0.554131 0.632871
vt 0.554122 0.670602
vt 0.553920 0.668021
vt 0.554349 0.673235
vt 0.554645 0.675779
vt 0.527398 0.687477
vt 0.525971 0.675767
vt 0.557287 0.686200
vt 0.553874 0.689471
vt 0.522266 0.615570
vt 0.526869 0.613955
vt 0.540302 0.690003
vt 0.540307 0.678331
vt 0.530868 0.629616
vt 0.531049 0.632612
vt 0.526298 0.630221
vt 0.530869 0.635557
vt 0.526522 0.632859
vt 0.553928 0.635455
vt 0.534101 0.625814
vt 0.535910 0.613925
vt 0.537351 0.625321
vt 0.530855 0.667895
vt 0.526499 0.670591
vt 0.526703 0.668009
vt 0.531031 0.670843
vt 0.526270 0.673223
vt 0.530845 0.673837
vt 0.557290 0.617274
vt 0.526731 0.689459
vt 0.523321 0.686186
vt 0.531654 0.614844
vt 0.531226 0.612874
vt 0.534637 0.629285
vt 0.534751 0.632663
vt 0.546196 0.635997
vt 0.534454 0.635992
vt 0.534443 0.667471
vt 0.534736 0.670801
vt 0.534616 0.674180
vt 0.531076 0.690570
vt 0.535554 0.611867
vt 0.544760 0.613929
vt 0.537655 0.629146
vt 0.537702 0.632730
vt 0.543155 0.636321
vt 0.537686 0.670747
vt 0.537483 0.667159
vt 0.537635 0.674332
vt 0.544730 0.689545
vt 0.543290 0.678162
vt 0.535425 0.691617
vt 0.540335 0.613448
vt 0.540336 0.611063
vt 0.540330 0.625159
vt 0.540328 0.629100
vt 0.540327 0.632745
vt 0.537495 0.636319
vt 0.543140 0.667161
vt 0.540325 0.636425
vt 0.540310 0.670739
vt 0.540312 0.667061
vt 0.540309 0.674385
vt 0.540301 0.692444
vt 0.545118 0.611871
vt 0.543002 0.629148
vt 0.543309 0.625324
vt 0.542952 0.632732
vt 0.542935 0.670749
vt 0.542983 0.674334
vt 0.526723 0.635444
vt 0.550327 0.676792
vt 0.545178 0.691621
vt 0.523377 0.617259
vt 0.558402 0.687891
vt 0.522204 0.687875
s 1
usemtl SideHatch
f 208/141/111 114/142/112 113/143/113
f 150/144/114 163/145/115 151/146/116
f 205/147/117 115/148/118 206/149/119
f 204/150/120 116/151/121 205/147/117
f 203/152/122 117/153/123 204/150/120
f 202/154/124 120/155/125 119/156/126
f 201/157/127 121/158/128 120/155/125
f 200/159/129 122/160/130 121/158/128
f 162/161/131 175/162/132 163/145/115
f 198/163/133 124/164/134 123/165/135
f 196/166/136 207/167/111 208/141/111
f 194/168/137 183/169/138 182/170/139
f 194/171/137 205/147/117 206/149/119
f 193/172/140 204/150/120 205/147/117
f 192/173/141 203/152/122 204/150/120
f 189/174/142 202/154/124 190/175/143
f 188/176/144 201/157/127 189/174/142
f 187/177/145 200/159/129 188/176/144
f 174/178/146 187/179/145 175/162/132
f 186/180/147 197/181/148 198/163/133
f 183/169/149 196/182/136 184/183/149
f 138/184/150 151/146/116 139/185/151
f 181/186/152 194/168/137 182/170/139
f 180/187/153 193/188/140 181/186/152
f 179/189/154 192/190/141 180/187/153
f 202/154/124 191/191/155 190/175/143
f 170/192/156 159/193/157 158/194/158
f 178/195/159 189/196/142 190/197/143
f 177/198/160 188/199/144 189/196/142
f 176/200/161 187/179/145 188/199/144
f 194/171/137 207/167/162 195/201/163
f 173/202/164 186/203/147 174/178/165
f 171/204/166 184/183/149 172/205/167
f 206/149/119 114/142/168 207/167/162
f 170/192/156 181/186/152 182/170/139
f 169/206/169 180/187/153 181/186/152
f 168/207/170 179/189/154 180/187/153
f 202/154/124 118/208/171 203/152/122
f 178/195/159 167/209/172 166/210/173
f 165/211/174 178/195/159 166/210/173
f 164/212/175 177/198/160 165/211/174
f 163/145/115 176/200/161 164/212/175
f 182/170/139 171/204/176 170/192/156
f 161/213/177 174/178/165 162/161/178
f 159/193/179 172/205/167 160/214/179
f 115/148/118 135/215/180 114/142/168
f 158/194/158 169/206/169 170/192/156
f 157/216/181 168/207/170 169/206/169
f 156/217/182 167/209/172 168/207/170
f 119/156/126 131/218/183 118/208/171
f 153/219/184 166/210/173 154/220/185
f 152/221/186 165/211/174 153/219/184
f 151/146/116 164/212/175 152/221/186
f 122/160/130 126/222/187 127/223/188
f 149/224/189 162/161/178 150/144/190
f 147/225/191 160/214/179 148/226/191
f 146/227/192 157/216/181 158/194/158
f 145/228/193 156/217/182 157/216/181
f 144/229/194 155/230/195 156/217/182
f 130/231/196 143/232/197 131/218/183
f 141/233/198 154/220/185 142/234/199
f 140/235/200 153/219/184 141/233/198
f 139/185/151 152/221/186 140/235/200
f 138/184/150 127/223/188 126/222/187
f 137/236/201 150/144/190 138/184/201
f 136/237/202 147/225/191 148/226/191
f 158/194/158 147/225/203 146/227/192
f 133/238/204 146/227/192 134/239/205
f 132/240/206 145/228/193 133/238/204
f 131/218/183 144/229/194 132/240/206
f 154/220/185 143/232/197 142/234/199
f 198/163/207 187/177/145 186/180/208
f 130/231/196 141/233/198 142/234/199
f 129/241/209 140/235/200 141/233/198
f 128/242/210 139/185/151 140/235/200
f 134/239/205 147/225/203 135/215/180
f 126/222/211 137/236/201 138/184/201
f 113/143/113 135/215/202 136/237/202
f 178/195/159 191/243/155 179/189/154
f 116/151/121 134/239/205 115/148/118
f 117/153/123 133/238/204 116/151/121
f 118/208/171 132/240/206 117/153/123
f 123/165/212 199/244/213 198/163/207
f 166/210/173 155/230/195 154/220/185
f 119/156/126 129/241/209 130/231/196
f 120/155/125 128/242/210 129/241/209
f 121/158/128 127/223/188 128/242/210
f 123/165/135 125/245/214 126/222/211
f 208/141/111 207/167/111 114/142/112
f 150/144/114 162/161/131 163/145/115
f 205/147/117 116/151/121 115/148/118
f 204/150/120 117/153/123 116/151/121
f 203/152/122 118/208/171 117/153/123
f 202/154/124 201/157/127 120/155/125
f 201/157/127 200/159/129 121/158/128
f 200/159/129 199/244/213 122/160/130
f 162/161/131 174/178/146 175/162/132
f 198/163/133 197/181/148 124/164/134
f 196/166/136 195/201/136 207/167/111
f 194/168/137 195/246/163 183/169/138
f 194/171/137 193/172/140 205/147/117
f 193/172/140 192/173/141 204/150/120
f 192/173/141 191/191/155 203/152/122
f 189/174/142 201/157/127 202/154/124
f 188/176/144 200/159/129 201/157/127
f 187/177/145 199/244/213 200/159/129
f 174/178/146 186/203/208 187/179/145
f 186/180/147 185/247/147 197/181/148
f 183/169/149 195/246/136 196/182/136
f 138/184/150 150/144/114 151/146/116
f 181/186/152 193/188/140 194/168/137
f 180/187/153 192/190/141 193/188/140
f 179/189/154 191/243/155 192/190/141
f 202/154/124 203/152/122 191/191/155
f 170/192/156 171/204/176 159/193/157
f 178/195/159 177/198/160 189/196/142
f 177/198/160 176/200/161 188/199/144
f 176/200/161 175/162/132 187/179/145
f 194/171/137 206/149/119 207/167/162
f 173/202/164 185/248/147 186/203/147
f 171/204/166 183/169/149 184/183/149
f 206/149/119 115/148/118 114/142/168
f 170/192/156 169/206/169 181/186/152
f 169/206/169 168/207/170 180/187/153
f 168/207/170 167/209/172 179/189/154
f 202/154/124 119/156/126 118/208/171
f 178/195/159 179/189/154 167/209/172
f 165/211/174 177/198/160 178/195/159
f 164/212/175 176/200/161 177/198/160
f 163/145/115 175/162/132 176/200/161
f 182/170/139 183/169/138 171/204/176
f 161/213/177 173/202/164 174/178/165
f 159/193/179 171/204/166 172/205/167
f 115/148/118 134/239/205 135/215/180
f 158/194/158 157/216/181 169/206/169
f 157/216/181 156/217/182 168/207/170
f 156/217/182 155/230/195 167/209/172
f 119/156/126 130/231/196 131/218/183
f 153/219/184 165/211/174 166/210/173
f 152/221/186 164/212/175 165/211/174
f 151/146/116 163/145/115 164/212/175
f 122/160/130 123/165/212 126/222/187
f 149/224/189 161/213/177 162/161/178
f 147/225/191 159/193/179 160/214/179
f 146/227/192 145/228/193 157/216/181
f 145/228/193 144/229/194 156/217/182
f 144/229/194 143/232/197 155/230/195
f 130/231/196 142/234/199 143/232/197
f 141/233/198 153/219/184 154/220/185
f 140/235/200 152/221/186 153/219/184
f 139/185/151 151/146/116 152/221/186
f 138/184/150 139/185/151 127/223/188
f 137/236/201 149/224/189 150/144/190
f 136/237/202 135/215/202 147/225/191
f 158/194/158 159/193/157 147/225/203
f 133/238/204 145/228/193 146/227/192
f 132/240/206 144/229/194 145/228/193
f 131/218/183 143/232/197 144/229/194
f 154/220/185 155/230/195 143/232/197
f 198/163/207 199/244/213 187/177/145
f 130/231/196 129/241/209 141/233/198
f 129/241/209 128/242/210 140/235/200
f 128/242/210 127/223/188 139/185/151
f 134/239/205 146/227/192 147/225/203
f 126/222/211 125/245/214 137/236/201
f 113/143/113 114/142/112 135/215/202
f 178/195/159 190/197/143 191/243/155
f 116/151/121 133/238/204 134/239/205
f 117/153/123 132/240/206 133/238/204
f 118/208/171 131/218/183 132/240/206
f 123/165/212 122/160/130 199/244/213
f 166/210/173 167/209/172 155/230/195
f 119/156/126 120/155/125 129/241/209
f 120/155/125 121/158/128 128/242/210
f 121/158/128 122/160/130 127/223/188
f 123/165/135 124/164/134 125/245/214
