# Blender 5.0.1
# www.blender.org
mtllib windshield.mtl
o WindShieldExport
g windshield
v -0.545295 -0.266342 0.002500
v -0.545295 0.266342 0.002500
v -0.545295 -0.266342 -0.002500
v -0.545295 0.266342 -0.002500
v 0.545295 -0.266342 0.002500
v 0.545295 0.266342 0.002500
v 0.545295 -0.266342 -0.002500
v 0.545295 0.266342 -0.002500
vn -0.0000 -0.0000 -1.0000
vn -0.0000 -0.0000 1.0000
vt 0.000000 1.000000
vt 1.000000 0.000000
vt 0.000000 0.000000
vt 1.000000 1.000000
s 1
usemtl Glass
f 4/1/1 7/2/1 3/3/1
f 6/4/2 1/3/2 5/2/2
f 4/1/1 8/4/1 7/2/1
f 6/4/2 2/1/2 1/3/2
