# Blender 5.0.1
# www.blender.org
mtllib switch_base.mtl
o Switch
v 0.083476 3.238221 6.191791
v 0.084476 3.288222 6.191791
v 0.083476 3.287221 6.191791
v 0.083769 3.287929 6.191791
v 0.084476 3.239222 6.141791
v 0.083476 3.238221 6.142791
v 0.083769 3.238514 6.142084
v 0.084476 3.288222 6.142791
v 0.084476 3.287221 6.141791
v 0.083476 3.287221 6.142791
v 0.084476 3.287929 6.142084
v 0.083898 3.287799 6.142214
v 0.083769 3.287221 6.142084
v 0.083769 3.287929 6.142791
v 0.107476 3.238221 6.191791
v 0.108476 3.239222 6.191791
v 0.108183 3.238514 6.191791
v 0.108476 3.287221 6.191791
v 0.107476 3.288222 6.191791
v 0.108183 3.287929 6.191791
v 0.107476 3.238221 6.142791
v 0.107476 3.239222 6.141791
v 0.108476 3.239222 6.142791
v 0.107476 3.238514 6.142084
v 0.108053 3.238644 6.142214
v 0.108183 3.239222 6.142084
v 0.108183 3.238514 6.142791
v 0.107476 3.288222 6.142791
v 0.108476 3.287221 6.142791
v 0.107476 3.287221 6.141791
v 0.108183 3.287929 6.142791
v 0.108053 3.287799 6.142214
v 0.108183 3.287221 6.142084
v 0.107476 3.287929 6.142084
vn -0.3672 0.8865 -0.2817
vn -0.2817 0.3672 -0.8865
vn -0.8865 0.2817 -0.3672
vn 0.3672 -0.8865 -0.2817
vn 0.2817 -0.3672 -0.8865
vn 0.8865 -0.2817 -0.3672
vn 0.2817 0.8865 -0.3672
vn 0.8865 0.3672 -0.2817
vn 0.3672 0.2817 -0.8865
vn -0.3827 0.9239 -0.0000
vn -0.9239 0.3827 -0.0000
vn -0.3827 -0.0000 -0.9239
vn -0.9239 -0.0000 -0.3827
vn -0.0000 -0.9239 -0.3827
vn -0.0000 -0.3827 -0.9239
vn -0.0000 0.9239 -0.3827
vn -0.0000 0.3827 -0.9239
vn 0.9239 -0.0000 -0.3827
vn 0.3827 -0.0000 -0.9239
vn 0.3827 -0.9239 -0.0000
vn 0.9239 -0.3827 -0.0000
vn 0.3827 0.9239 -0.0000
vn 0.9239 0.3827 -0.0000
vn -0.0000 -0.0000 1.0000
vn -1.0000 -0.0000 -0.0000
vn -0.0000 1.0000 -0.0000
vn -0.0000 -1.0000 -0.0000
vn -0.0000 -0.0000 -1.0000
vn 1.0000 -0.0000 -0.0000
vn -0.2817 0.8865 -0.3672
vn -0.3672 0.2817 -0.8865
vn -0.8865 0.3672 -0.2817
vn 0.2817 -0.8865 -0.3672
vn 0.3672 -0.2817 -0.8865
vn 0.8865 -0.3672 -0.2817
vn 0.3672 0.8865 -0.2817
vn 0.8865 0.2817 -0.3672
vn 0.2817 0.3672 -0.8865
vt 0.865000 0.505000
vt 0.870773 0.500000
vt 0.875000 0.505000
vt 0.620000 0.260000
vt 0.623943 0.248943
vt 0.625000 0.260000
vt 0.620000 0.245000
vt 0.620000 0.250000
vt 0.365000 0.505000
vt 0.374296 0.500704
vt 0.375000 0.505000
vt 0.380000 0.490000
vt 0.370000 0.495000
vt 0.380000 0.505000
vt 0.380000 0.500000
vt 0.635000 0.505000
vt 0.624296 0.499296
vt 0.630000 0.495000
vt 0.620000 0.505000
vt 0.625000 0.505000
vt 0.620000 0.490000
vt 0.620000 0.500000
vt 0.875000 0.750000
vt 0.865000 0.750000
vt 0.625000 0.245000
vt 0.620000 0.000000
vt 0.625000 0.000000
vt 0.380000 0.260000
vt 0.375976 0.250976
vt 0.127929 0.500000
vt 0.865000 0.500000
vt 0.375488 0.750976
vt 0.368333 0.753333
vt 0.380000 0.750000
vt 0.624512 0.750976
vt 0.620000 0.750000
vt 0.631667 0.753333
vt 0.620000 1.000000
vt 0.375000 0.245000
vt 0.375000 0.000000
vt 0.125000 0.750000
vt 0.125000 0.505000
vt 0.375000 1.000000
vt 0.625000 0.990000
vt 0.623536 0.997071
s 0
f 8/1/1 12/2/1 14/3/1
f 9/4/2 12/5/2 11/6/2
f 10/7/3 12/5/3 13/8/3
f 21/9/4 25/10/4 27/11/4
f 22/12/5 25/10/5 24/13/5
f 23/14/6 25/10/6 26/15/6
f 28/16/7 32/17/7 34/18/7
f 29/19/8 32/17/8 31/20/8
f 30/21/9 32/17/9 33/22/9
f 8/1/10 4/23/10 2/24/10
f 14/25/11 3/26/11 4/27/11
f 5/28/12 13/8/12 9/4/12
f 7/29/13 10/7/13 13/8/13
f 21/9/14 7/30/14 24/13/14
f 24/13/15 5/28/15 22/12/15
f 28/16/16 11/31/16 8/1/16
f 34/18/17 9/4/17 11/6/17
f 23/14/18 33/22/18 29/19/18
f 26/15/19 30/21/19 33/22/19
f 21/9/20 17/32/20 15/33/20
f 27/11/21 16/34/21 17/32/21
f 28/16/22 20/35/22 31/20/22
f 20/35/23 29/19/23 31/20/23
f 18/36/24 19/37/24 3/38/24
f 3/26/25 6/39/25 1/40/25
f 8/1/26 19/37/26 28/16/26
f 21/9/27 1/41/27 6/42/27
f 9/4/28 22/12/28 5/28/28
f 29/19/29 16/34/29 23/14/29
f 8/1/30 11/31/30 12/2/30
f 9/4/31 13/8/31 12/5/31
f 10/7/32 14/25/32 12/5/32
f 21/9/33 24/13/33 25/10/33
f 22/12/34 26/15/34 25/10/34
f 23/14/35 27/11/35 25/10/35
f 28/16/36 31/20/36 32/17/36
f 29/19/37 33/22/37 32/17/37
f 30/21/38 34/18/38 32/17/38
f 8/1/10 14/3/10 4/23/10
f 14/25/11 10/7/11 3/26/11
f 5/28/12 7/29/12 13/8/12
f 7/29/13 6/39/13 10/7/13
f 21/9/14 6/42/14 7/30/14
f 24/13/15 7/29/15 5/28/15
f 28/16/16 34/18/16 11/31/16
f 34/18/17 30/21/17 9/4/17
f 23/14/18 26/15/18 33/22/18
f 26/15/19 22/12/19 30/21/19
f 21/9/20 27/11/20 17/32/20
f 27/11/21 23/14/21 16/34/21
f 28/16/22 19/37/22 20/35/22
f 20/35/23 18/36/23 29/19/23
f 1/43/24 15/33/24 16/34/24
f 15/33/24 17/32/24 16/34/24
f 16/34/24 18/36/24 3/38/24
f 1/43/24 16/34/24 3/38/24
f 18/36/24 20/35/24 19/37/24
f 19/37/24 2/44/24 3/38/24
f 2/44/24 4/45/24 3/38/24
f 3/26/25 10/7/25 6/39/25
f 8/1/26 2/24/26 19/37/26
f 21/9/27 15/33/27 1/41/27
f 9/4/28 30/21/28 22/12/28
f 29/19/29 18/36/29 16/34/29
