# Blender 5.0.1
# www.blender.org
mtllib WE6A_interior_screens.mtl
o ResistorScreen
g WE6A_interior_screens
v 0.502949 2.834175 1.847264
v 0.502834 2.834175 0.362986
v 0.502827 3.823240 1.847265
v 0.502828 3.823240 0.362986
v 0.502821 2.833828 1.665530
v 0.502832 2.833828 0.565524
vn -1.0000 -0.0000 -0.0000
vn -1.0000 -0.0001 0.0007
vt 0.520738 0.515763
vt 0.453241 0.515750
vt 0.453220 0.501929
vt 0.453261 0.414460
vt 0.520757 0.414473
vt 0.453235 0.426861
s 0
usemtl InteriorSurfaces
f 4/1/1 2/2/1 6/3/1
f 1/4/2 3/5/2 5/6/2
f 3/5/1 4/1/1 6/3/1
f 5/6/1 3/5/1 6/3/1
o ResistorScreen.001
v -0.502949 2.834175 0.369918
v -0.502833 2.834175 1.854196
v -0.502827 3.823240 0.369917
v -0.502828 3.823240 1.854196
v -0.502821 2.833828 0.551652
v -0.502832 2.833828 1.651658
vn 1.0000 -0.0000 -0.0000
vn 1.0000 -0.0001 -0.0007
vt 0.520738 0.515763
vt 0.453241 0.515750
vt 0.453220 0.501929
vt 0.453261 0.414460
vt 0.520757 0.414473
vt 0.453235 0.426861
s 0
usemtl InteriorSurfaces
f 10/7/3 8/8/3 12/9/3
f 7/10/4 9/11/4 11/12/4
f 9/11/3 10/7/3 12/9/3
f 11/12/3 9/11/3 12/9/3
o ResistorScreen.002
v -0.502949 2.834175 1.817970
v -0.502833 2.834175 3.302248
v -0.502827 3.823240 1.817969
v -0.502828 3.823240 3.302248
v -0.502821 2.833828 1.999704
v -0.502832 2.833828 3.099710
vn 1.0000 -0.0000 -0.0000
vn 1.0000 -0.0001 -0.0007
vt 0.520738 0.515763
vt 0.453241 0.515750
vt 0.453220 0.501929
vt 0.453261 0.414460
vt 0.520757 0.414473
vt 0.453235 0.426861
s 0
usemtl InteriorSurfaces
f 16/13/5 14/14/5 18/15/5
f 13/16/6 15/17/6 17/18/6
f 15/17/5 16/13/5 18/15/5
f 17/18/5 15/17/5 18/15/5
