# Blender 5.0.1
# www.blender.org
o Wheelset
v 0.707502 0.000000 -0.559998
v 0.807502 -0.000000 -0.559998
v 0.707502 -0.109251 -0.549238
v 0.807502 -0.109251 -0.549238
v 0.707502 -0.214303 -0.517370
v 0.807502 -0.214303 -0.517370
v 0.707502 -0.311119 -0.465621
v 0.807502 -0.311119 -0.465621
v 0.707502 -0.395980 -0.395978
v 0.807502 -0.395980 -0.395978
v 0.707502 -0.465623 -0.311117
v 0.807502 -0.465623 -0.311117
v 0.707502 -0.517373 -0.214301
v 0.807502 -0.517373 -0.214301
v 0.707502 -0.549240 -0.109248
v 0.807502 -0.549240 -0.109248
v 0.707502 -0.560000 0.000002
v 0.807502 -0.560000 0.000002
v 0.707502 -0.549240 0.109253
v 0.807502 -0.549240 0.109253
v 0.707502 -0.517373 0.214305
v 0.807502 -0.517373 0.214305
v 0.707502 -0.465623 0.311121
v 0.807502 -0.465623 0.311121
v 0.707502 -0.395980 0.395982
v 0.807502 -0.395980 0.395982
v 0.707502 -0.311119 0.465625
v 0.807502 -0.311119 0.465625
v 0.707502 -0.214303 0.517375
v 0.807502 -0.214303 0.517375
v 0.707502 -0.109251 0.549242
v 0.807502 -0.109251 0.549242
v 0.707502 0.000000 0.560002
v 0.807502 -0.000000 0.560002
v 0.707502 0.109251 0.549242
v 0.807502 0.109251 0.549242
v 0.707502 0.214303 0.517375
v 0.807502 0.214303 0.517375
v 0.707502 0.311119 0.465625
v 0.807502 0.311119 0.465625
v 0.707502 0.395980 0.395982
v 0.807502 0.395980 0.395982
v 0.707502 0.465623 0.311121
v 0.807502 0.465623 0.311121
v 0.707502 0.517373 0.214305
v 0.807502 0.517373 0.214305
v 0.707502 0.549240 0.109253
v 0.807502 0.549240 0.109253
v 0.707502 0.560000 0.000002
v 0.807502 0.560000 0.000002
v 0.707502 0.549240 -0.109248
v 0.807502 0.549240 -0.109248
v 0.707502 0.517373 -0.214301
v 0.807502 0.517373 -0.214301
v 0.707502 0.465623 -0.311117
v 0.807502 0.465623 -0.311117
v 0.707502 0.395980 -0.395978
v 0.807502 0.395980 -0.395978
v 0.707502 0.311119 -0.465621
v 0.807502 0.311119 -0.465621
v 0.707502 0.214303 -0.517370
v 0.807502 0.214303 -0.517370
v 0.707502 0.109251 -0.549238
v 0.807502 0.109251 -0.549238
v 0.706486 0.000000 -0.575118
v 0.706486 -0.112200 -0.564067
v 0.706486 -0.220089 -0.531339
v 0.706486 -0.319520 -0.478193
v 0.706486 -0.406671 -0.406669
v 0.706486 -0.478195 -0.319517
v 0.706486 -0.531342 -0.220087
v 0.706486 -0.564069 -0.112198
v 0.706486 -0.575120 0.000002
v 0.706486 -0.564069 0.112203
v 0.706486 -0.531342 0.220091
v 0.706486 -0.478195 0.319522
v 0.706486 -0.406671 0.406673
v 0.706486 -0.319520 0.478197
v 0.706486 -0.220089 0.531344
v 0.706486 -0.112200 0.564071
v 0.706486 0.000000 0.575122
v 0.706486 0.112200 0.564071
v 0.706486 0.220089 0.531344
v 0.706486 0.319520 0.478197
v 0.706486 0.406671 0.406673
v 0.706486 0.478195 0.319522
v 0.706486 0.531342 0.220091
v 0.706486 0.564069 0.112203
v 0.706486 0.575120 0.000002
v 0.706486 0.564069 -0.112198
v 0.706486 0.531342 -0.220087
v 0.706486 0.478195 -0.319517
v 0.706486 0.406671 -0.406669
v 0.706486 0.319520 -0.478193
v 0.706486 0.220089 -0.531339
v 0.706486 0.112200 -0.564067
v 0.676486 0.000000 -0.575118
v 0.676486 -0.112200 -0.564067
v 0.676486 -0.220089 -0.531339
v 0.676486 -0.319520 -0.478193
v 0.676486 -0.406671 -0.406669
v 0.676486 -0.478195 -0.319517
v 0.676486 -0.531341 -0.220087
v 0.676486 -0.564069 -0.112198
v 0.676486 -0.575120 0.000002
v 0.676486 -0.564069 0.112203
v 0.676486 -0.531341 0.220091
v 0.676486 -0.478195 0.319522
v 0.676486 -0.406671 0.406673
v 0.676486 -0.319520 0.478197
v 0.676486 -0.220089 0.531344
v 0.676486 -0.112200 0.564071
v 0.676486 0.000000 0.575122
v 0.676486 0.112200 0.564071
v 0.676486 0.220089 0.531344
v 0.676486 0.319520 0.478197
v 0.676486 0.406671 0.406673
v 0.676486 0.478195 0.319522
v 0.676486 0.531342 0.220091
v 0.676486 0.564069 0.112203
v 0.676486 0.575120 0.000002
v 0.676486 0.564069 -0.112198
v 0.676486 0.531342 -0.220087
v 0.676486 0.478195 -0.319517
v 0.676486 0.406671 -0.406669
v 0.676486 0.319520 -0.478193
v 0.676486 0.220089 -0.531339
v 0.676486 0.112200 -0.564067
v 0.676486 -0.000000 -0.086266
v 0.676486 -0.016830 -0.084608
v 0.676486 -0.033013 -0.079699
v 0.676486 -0.047928 -0.071727
v 0.676486 -0.061001 -0.060999
v 0.676486 -0.071729 -0.047926
v 0.676486 -0.079701 -0.033011
v 0.676486 -0.084610 -0.016828
v 0.676486 -0.086268 0.000002
v 0.676486 -0.084610 0.016832
v 0.676486 -0.079701 0.033016
v 0.676486 -0.071729 0.047930
v 0.676486 -0.061001 0.061003
v 0.676486 -0.047928 0.071731
v 0.676486 -0.033013 0.079703
v 0.676486 -0.016830 0.084613
v 0.676486 -0.000000 0.086270
v 0.676486 0.016830 0.084613
v 0.676486 0.033013 0.079703
v 0.676486 0.047928 0.071731
v 0.676486 0.061001 0.061003
v 0.676486 0.071729 0.047930
v 0.676486 0.079701 0.033016
v 0.676486 0.084610 0.016832
v 0.676486 0.086268 0.000002
v 0.676486 0.084610 -0.016828
v 0.676486 0.079701 -0.033011
v 0.676486 0.071729 -0.047926
v 0.676486 0.061001 -0.060999
v 0.676486 0.047928 -0.071727
v 0.676486 0.033013 -0.079699
v 0.676486 0.016830 -0.084608
v -0.676515 -0.000000 -0.086266
v -0.676515 -0.016830 -0.084608
v -0.676515 -0.033013 -0.079699
v -0.676515 -0.047928 -0.071727
v -0.676515 -0.061001 -0.060999
v -0.676515 -0.071729 -0.047926
v -0.676515 -0.079701 -0.033011
v -0.676515 -0.084610 -0.016828
v -0.676515 -0.086268 0.000002
v -0.676515 -0.084610 0.016832
v -0.676515 -0.079701 0.033016
v -0.676515 -0.071729 0.047930
v -0.676515 -0.061001 0.061003
v -0.676515 -0.047928 0.071731
v -0.676515 -0.033013 0.079703
v -0.676515 -0.016830 0.084613
v -0.676515 -0.000000 0.086270
v -0.676515 0.016830 0.084613
v -0.676515 0.033013 0.079703
v -0.676515 0.047928 0.071731
v -0.676515 0.061001 0.061003
v -0.676515 0.071729 0.047930
v -0.676515 0.079701 0.033016
v -0.676515 0.084610 0.016832
v -0.676515 0.086268 0.000002
v -0.676515 0.084610 -0.016828
v -0.676515 0.079701 -0.033011
v -0.676515 0.071729 -0.047926
v -0.676515 0.061001 -0.060999
v -0.676515 0.047928 -0.071727
v -0.676515 0.033013 -0.079699
v -0.676515 0.016830 -0.084608
v -0.676515 0.000000 -0.573427
v -0.676515 -0.111869 -0.562409
v -0.676515 -0.219440 -0.529777
v -0.676515 -0.318577 -0.476787
v -0.676515 -0.405472 -0.405475
v -0.676515 -0.476784 -0.318580
v -0.676515 -0.529774 -0.219443
v -0.676515 -0.562405 -0.111873
v -0.676515 -0.573424 -0.000003
v -0.676515 -0.562405 0.111866
v -0.676515 -0.529774 0.219436
v -0.676515 -0.476784 0.318574
v -0.676515 -0.405472 0.405468
v -0.676515 -0.318577 0.476781
v -0.676515 -0.219440 0.529771
v -0.676515 -0.111869 0.562402
v -0.676515 0.000000 0.573420
v -0.676515 0.111869 0.562402
v -0.676515 0.219440 0.529771
v -0.676515 0.318577 0.476781
v -0.676515 0.405472 0.405468
v -0.676515 0.476784 0.318574
v -0.676515 0.529774 0.219436
v -0.676515 0.562405 0.111866
v -0.676515 0.573423 -0.000003
v -0.676515 0.562405 -0.111873
v -0.676515 0.529774 -0.219443
v -0.676515 0.476784 -0.318580
v -0.676515 0.405472 -0.405475
v -0.676515 0.318577 -0.476787
v -0.676515 0.219440 -0.529777
v -0.676515 0.111869 -0.562409
v -0.706514 0.000000 -0.573427
v -0.706514 -0.111869 -0.562409
v -0.706514 -0.219440 -0.529777
v -0.706514 -0.318577 -0.476787
v -0.706514 -0.405472 -0.405475
v -0.706514 -0.476784 -0.318580
v -0.706514 -0.529774 -0.219443
v -0.706514 -0.562405 -0.111873
v -0.706514 -0.573423 -0.000003
v -0.706514 -0.562405 0.111866
v -0.706514 -0.529774 0.219436
v -0.706514 -0.476784 0.318574
v -0.706514 -0.405472 0.405468
v -0.706514 -0.318577 0.476781
v -0.706514 -0.219440 0.529771
v -0.706514 -0.111869 0.562402
v -0.706514 0.000000 0.573420
v -0.706514 0.111869 0.562402
v -0.706514 0.219440 0.529771
v -0.706514 0.318577 0.476781
v -0.706514 0.405472 0.405468
v -0.706514 0.476784 0.318574
v -0.706514 0.529774 0.219436
v -0.706514 0.562405 0.111866
v -0.706514 0.573423 -0.000003
v -0.706514 0.562405 -0.111873
v -0.706514 0.529774 -0.219443
v -0.706514 0.476784 -0.318580
v -0.706514 0.405472 -0.405475
v -0.706514 0.318577 -0.476787
v -0.706514 0.219440 -0.529777
v -0.706514 0.111869 -0.562409
v -0.707460 0.000000 -0.558518
v -0.707460 -0.108961 -0.547786
v -0.707460 -0.213734 -0.516003
v -0.707460 -0.310294 -0.464391
v -0.707460 -0.394929 -0.394932
v -0.707460 -0.464388 -0.310297
v -0.707460 -0.516000 -0.213737
v -0.707460 -0.547783 -0.108964
v -0.707460 -0.558514 -0.000003
v -0.707460 -0.547783 0.108958
v -0.707460 -0.516000 0.213731
v -0.707460 -0.464388 0.310291
v -0.707460 -0.394929 0.394926
v -0.707460 -0.310294 0.464384
v -0.707460 -0.213734 0.515997
v -0.707460 -0.108961 0.547780
v -0.707460 0.000000 0.558511
v -0.707460 0.108961 0.547780
v -0.707460 0.213734 0.515997
v -0.707460 0.310294 0.464384
v -0.707460 0.394929 0.394926
v -0.707460 0.464388 0.310291
v -0.707460 0.516000 0.213731
v -0.707460 0.547783 0.108958
v -0.707460 0.558514 -0.000003
v -0.707460 0.547783 -0.108964
v -0.707460 0.516000 -0.213737
v -0.707460 0.464388 -0.310297
v -0.707460 0.394929 -0.394932
v -0.707460 0.310294 -0.464391
v -0.707460 0.213734 -0.516003
v -0.707460 0.108961 -0.547786
v -0.807460 0.000000 -0.558518
v -0.807460 -0.108961 -0.547786
v -0.807460 -0.213734 -0.516003
v -0.807460 -0.310294 -0.464391
v -0.807460 -0.394929 -0.394932
v -0.807460 -0.464388 -0.310297
v -0.807460 -0.516000 -0.213737
v -0.807460 -0.547783 -0.108964
v -0.807460 -0.558514 -0.000003
v -0.807460 -0.547783 0.108958
v -0.807460 -0.516000 0.213731
v -0.807460 -0.464388 0.310291
v -0.807460 -0.394929 0.394926
v -0.807460 -0.310294 0.464384
v -0.807460 -0.213734 0.515997
v -0.807460 -0.108961 0.547780
v -0.807460 0.000000 0.558511
v -0.807460 0.108961 0.547780
v -0.807460 0.213734 0.515997
v -0.807460 0.310294 0.464384
v -0.807460 0.394929 0.394926
v -0.807460 0.464388 0.310291
v -0.807460 0.516000 0.213731
v -0.807460 0.547783 0.108958
v -0.807460 0.558514 -0.000003
v -0.807460 0.547783 -0.108964
v -0.807460 0.516000 -0.213737
v -0.807460 0.464388 -0.310297
v -0.807460 0.394929 -0.394932
v -0.807460 0.310294 -0.464391
v -0.807460 0.213734 -0.516003
v -0.807460 0.108961 -0.547786
v 0.807502 -0.012673 -0.063712
v 0.807502 -0.000000 -0.064961
v 0.807502 -0.024859 -0.060016
v 0.807502 -0.036090 -0.054013
v 0.807502 -0.045934 -0.045934
v 0.807502 -0.054012 -0.036090
v 0.807502 -0.060015 -0.024860
v 0.807502 -0.063712 -0.012674
v 0.807502 -0.064960 -0.000001
v 0.807502 -0.063712 0.012672
v 0.807502 -0.060015 0.024859
v 0.807502 -0.054012 0.036089
v 0.807502 -0.045934 0.045933
v 0.807502 -0.036090 0.054012
v 0.807502 -0.024859 0.060015
v 0.807502 -0.012673 0.063711
v 0.807502 -0.000000 0.064959
v 0.807502 0.012673 0.063711
v 0.807502 0.024859 0.060015
v 0.807502 0.036090 0.054012
v 0.807502 0.045934 0.045933
v 0.807502 0.054012 0.036089
v 0.807502 0.060015 0.024859
v 0.807502 0.063712 0.012672
v 0.807502 0.064960 -0.000001
v 0.807502 0.063712 -0.012674
v 0.807502 0.060015 -0.024860
v 0.807502 0.054012 -0.036090
v 0.807502 0.045934 -0.045934
v 0.807502 0.036090 -0.054013
v 0.807502 0.024859 -0.060016
v 0.807502 0.012673 -0.063712
v -0.807460 0.000000 -0.064789
v -0.807460 -0.012639 -0.063544
v -0.807460 -0.024793 -0.059857
v -0.807460 -0.035994 -0.053870
v -0.807460 -0.045812 -0.045813
v -0.807460 -0.053869 -0.035995
v -0.807460 -0.059856 -0.024794
v -0.807460 -0.063543 -0.012641
v -0.807460 -0.064788 -0.000001
v -0.807460 -0.063543 0.012638
v -0.807460 -0.059856 0.024792
v -0.807460 -0.053869 0.035993
v -0.807460 -0.045812 0.045811
v -0.807460 -0.035994 0.053868
v -0.807460 -0.024793 0.059855
v -0.807460 -0.012639 0.063542
v -0.807460 0.000000 0.064786
v -0.807460 0.012639 0.063542
v -0.807460 0.024793 0.059855
v -0.807460 0.035994 0.053868
v -0.807460 0.045812 0.045811
v -0.807460 0.053869 0.035993
v -0.807460 0.059856 0.024792
v -0.807460 0.063543 0.012638
v -0.807460 0.064788 -0.000001
v -0.807460 0.063543 -0.012641
v -0.807460 0.059856 -0.024794
v -0.807460 0.053869 -0.035995
v -0.807460 0.045812 -0.045813
v -0.807460 0.035994 -0.053870
v -0.807460 0.024793 -0.059857
v -0.807460 0.012639 -0.063544
v 1.090765 -0.012673 -0.063712
v 1.090765 -0.000000 -0.064961
v 1.090765 -0.024859 -0.060016
v 1.090765 -0.036090 -0.054013
v 1.090765 -0.045934 -0.045934
v 1.090765 -0.054012 -0.036090
v 1.090765 -0.060015 -0.024860
v 1.090765 -0.063712 -0.012674
v 1.090765 -0.064960 -0.000001
v 1.090765 -0.063712 0.012672
v 1.090765 -0.060015 0.024859
v 1.090765 -0.054012 0.036089
v 1.090765 -0.045934 0.045933
v 1.090765 -0.036090 0.054012
v 1.090765 -0.024859 0.060015
v 1.090765 -0.012673 0.063711
v 1.090765 -0.000000 0.064959
v 1.090765 0.012673 0.063711
v 1.090765 0.024859 0.060015
v 1.090765 0.036090 0.054012
v 1.090765 0.045934 0.045933
v 1.090765 0.054012 0.036089
v 1.090765 0.060015 0.024859
v 1.090765 0.063712 0.012672
v 1.090765 0.064960 -0.000001
v 1.090765 0.063712 -0.012674
v 1.090765 0.060015 -0.024860
v 1.090765 0.054012 -0.036090
v 1.090765 0.045934 -0.045934
v 1.090765 0.036090 -0.054013
v 1.090765 0.024859 -0.060016
v 1.090765 0.012673 -0.063712
v -1.090722 0.000000 -0.064789
v -1.090722 -0.012639 -0.063544
v -1.090722 -0.024793 -0.059857
v -1.090722 -0.035994 -0.053870
v -1.090722 -0.045812 -0.045813
v -1.090722 -0.053869 -0.035995
v -1.090722 -0.059856 -0.024794
v -1.090722 -0.063543 -0.012641
v -1.090722 -0.064788 -0.000001
v -1.090722 -0.063543 0.012638
v -1.090722 -0.059856 0.024792
v -1.090722 -0.053869 0.035993
v -1.090722 -0.045812 0.045811
v -1.090722 -0.035994 0.053868
v -1.090722 -0.024793 0.059855
v -1.090722 -0.012639 0.063542
v -1.090722 0.000000 0.064786
v -1.090722 0.012639 0.063542
v -1.090722 0.024793 0.059855
v -1.090722 0.035994 0.053868
v -1.090722 0.045812 0.045811
v -1.090722 0.053869 0.035993
v -1.090722 0.059856 0.024792
v -1.090722 0.063543 0.012638
v -1.090722 0.064788 -0.000001
v -1.090722 0.063543 -0.012641
v -1.090722 0.059856 -0.024794
v -1.090722 0.053869 -0.035995
v -1.090722 0.045812 -0.045813
v -1.090722 0.035994 -0.053870
v -1.090722 0.024793 -0.059857
v -1.090722 0.012639 -0.063544
vn -0.0000 -0.0980 -0.9952
vn -0.0000 -0.2903 -0.9569
vn -0.0000 -0.4714 -0.8819
vn -0.0000 -0.6344 -0.7730
vn -0.0000 -0.7730 -0.6344
vn -0.0000 -0.8819 -0.4714
vn -0.0000 -0.9569 -0.2903
vn -0.0000 -0.9952 -0.0980
vn -0.0000 -0.9952 0.0980
vn -0.0000 -0.9569 0.2903
vn -0.0000 -0.8819 0.4714
vn -0.0000 -0.7730 0.6344
vn -0.0000 -0.6344 0.7730
vn -0.0000 -0.4714 0.8819
vn -0.0000 -0.2903 0.9569
vn -0.0000 -0.0980 0.9952
vn -0.0000 0.0980 0.9952
vn -0.0000 0.2903 0.9569
vn -0.0000 0.4714 0.8819
vn -0.0000 0.6344 0.7730
vn -0.0000 0.7730 0.6344
vn -0.0000 0.8819 0.4714
vn -0.0000 0.9569 0.2903
vn -0.0000 0.9952 0.0980
vn -0.0000 0.9952 -0.0980
vn -0.0000 0.9569 -0.2903
vn -0.0000 0.8819 -0.4714
vn -0.0000 0.7730 -0.6344
vn -0.0000 0.6344 -0.7730
vn -0.0000 0.4714 -0.8819
vn 1.0000 -0.0000 -0.0000
vn -0.0000 0.2903 -0.9569
vn -0.0000 0.0980 -0.9952
vn 0.9977 -0.0428 -0.0521
vn 0.9977 -0.0428 0.0521
vn 0.9977 0.0595 0.0318
vn 0.9977 0.0196 -0.0645
vn 0.9977 -0.0671 0.0066
vn 0.9977 0.0196 0.0645
vn 0.9977 0.0595 -0.0318
vn 0.9977 -0.0521 -0.0428
vn 0.9977 -0.0318 0.0595
vn 0.9977 0.0645 0.0196
vn 0.9977 -0.0066 -0.0671
vn 0.9977 0.0066 -0.0671
vn 0.9977 -0.0645 0.0196
vn 0.9977 0.0318 0.0595
vn 0.9977 0.0521 -0.0428
vn 0.9977 -0.0595 -0.0318
vn 0.9977 -0.0196 0.0645
vn 0.9977 0.0671 0.0066
vn 0.9977 -0.0196 -0.0645
vn 0.9977 -0.0595 0.0318
vn 0.9977 0.0428 0.0521
vn 0.9977 0.0428 -0.0521
vn 0.9977 -0.0645 -0.0196
vn 0.9977 -0.0066 0.0671
vn 0.9977 0.0671 -0.0066
vn 0.9977 -0.0318 -0.0595
vn 0.9977 -0.0521 0.0428
vn 0.9977 0.0521 0.0428
vn 0.9977 0.0318 -0.0595
vn 0.9977 -0.0671 -0.0066
vn 0.9977 0.0066 0.0671
vn 0.9977 0.0645 -0.0196
vn -1.0000 -0.0000 -0.0000
vn -0.9980 0.0608 0.0185
vn -0.9980 -0.0608 0.0185
vn -0.9980 0.0633 0.0062
vn -0.9980 -0.0561 0.0300
vn -0.9980 0.0633 -0.0062
vn -0.9980 -0.0491 0.0403
vn -0.9980 0.0608 -0.0185
vn -0.9980 -0.0403 0.0491
vn -0.9980 0.0561 -0.0300
vn -0.9980 -0.0300 0.0561
vn -0.9980 -0.0062 -0.0633
vn -0.9980 0.0491 -0.0403
vn -0.9980 -0.0185 0.0608
vn -0.9980 -0.0185 -0.0608
vn -0.9980 0.0403 -0.0491
vn -0.9980 -0.0062 0.0633
vn -0.9980 -0.0300 -0.0561
vn -0.9980 0.0300 -0.0561
vn -0.9980 0.0062 0.0633
vn -0.9980 -0.0403 -0.0491
vn -0.9980 0.0185 -0.0608
vn -0.9980 0.0185 0.0608
vn -0.9980 -0.0491 -0.0403
vn -0.9980 0.0062 -0.0633
vn -0.9980 0.0300 0.0561
vn -0.9980 -0.0561 -0.0300
vn -0.9980 0.0403 0.0491
vn -0.9980 -0.0608 -0.0185
vn -0.9980 0.0491 0.0403
vn -0.9980 -0.0633 -0.0062
vn -0.9980 0.0561 0.0300
vn -0.9980 -0.0633 0.0062
vn 1.0000 -0.0000 0.0001
vn 1.0000 -0.0000 -0.0001
vn -1.0000 -0.0000 0.0001
vn -1.0000 -0.0000 -0.0001
vt 1.000000 1.000000
vt 0.968750 0.500000
vt 1.000000 0.500000
vt 0.968750 1.000000
vt 0.937500 0.500000
vt 0.937500 1.000000
vt 0.906250 0.500000
vt 0.906250 1.000000
vt 0.875000 0.500000
vt 0.875000 1.000000
vt 0.843750 0.500000
vt 0.843750 1.000000
vt 0.812500 0.500000
vt 0.812500 1.000000
vt 0.781250 0.500000
vt 0.781250 1.000000
vt 0.750000 0.500000
vt 0.750000 1.000000
vt 0.718750 0.500000
vt 0.718750 1.000000
vt 0.687500 0.500000
vt 0.687500 1.000000
vt 0.656250 0.500000
vt 0.656250 1.000000
vt 0.625000 0.500000
vt 0.625000 1.000000
vt 0.593750 0.500000
vt 0.593750 1.000000
vt 0.562500 0.500000
vt 0.562500 1.000000
vt 0.531250 0.500000
vt 0.531250 1.000000
vt 0.500000 0.500000
vt 0.468750 1.000000
vt 0.468750 0.500000
vt 0.437500 1.000000
vt 0.437500 0.500000
vt 0.406250 0.500000
vt 0.406250 1.000000
vt 0.375000 0.500000
vt 0.375000 1.000000
vt 0.343750 0.500000
vt 0.343750 1.000000
vt 0.312500 0.500000
vt 0.312500 1.000000
vt 0.281250 0.500000
vt 0.281250 1.000000
vt 0.250000 0.500000
vt 0.250000 1.000000
vt 0.218750 0.500000
vt 0.218750 1.000000
vt 0.187500 0.500000
vt 0.187500 1.000000
vt 0.156250 0.500000
vt 0.156250 1.000000
vt 0.125000 0.500000
vt 0.125000 1.000000
vt 0.093750 0.500000
vt 0.093750 1.000000
vt 0.062500 0.500000
vt 0.500000 1.000000
vt 0.062500 1.000000
vt 0.031250 0.500000
vt 0.000000 1.000000
vt 0.000000 0.500000
vt 0.031250 1.000000
vt 0.158156 0.028269
vt 0.471731 0.158156
vt 0.341844 0.471731
vt 0.796822 0.014612
vt 0.514612 0.203178
vt 0.703178 0.485388
vt 0.296822 0.485388
vt 0.250000 0.490000
vt 0.203178 0.485388
vt 0.158156 0.471731
vt 0.116663 0.449553
vt 0.080294 0.419706
vt 0.050447 0.383337
vt 0.028269 0.341844
vt 0.014612 0.296822
vt 0.010000 0.250000
vt 0.014612 0.203178
vt 0.028269 0.158156
vt 0.050447 0.116663
vt 0.080294 0.080294
vt 0.116663 0.050447
vt 0.203178 0.014612
vt 0.250000 0.010000
vt 0.296822 0.014612
vt 0.341844 0.028269
vt 0.383337 0.050447
vt 0.419706 0.080294
vt 0.449553 0.116663
vt 0.485388 0.203178
vt 0.490000 0.250000
vt 0.485388 0.296822
vt 0.471731 0.341844
vt 0.449553 0.383337
vt 0.419706 0.419706
vt 0.383337 0.449553
vt 0.750000 0.490000
vt 0.796822 0.485388
vt 0.841844 0.471731
vt 0.883337 0.449553
vt 0.919706 0.419706
vt 0.949553 0.383337
vt 0.971731 0.341844
vt 0.985388 0.296822
vt 0.990000 0.250000
vt 0.985388 0.203178
vt 0.971731 0.158156
vt 0.949553 0.116663
vt 0.919706 0.080294
vt 0.883337 0.050447
vt 0.841844 0.028269
vt 0.750000 0.010000
vt 0.703178 0.014612
vt 0.658156 0.028269
vt 0.616663 0.050447
vt 0.580294 0.080294
vt 0.550447 0.116663
vt 0.528269 0.158156
vt 0.510000 0.250000
vt 0.514612 0.296822
vt 0.528269 0.341844
vt 0.550447 0.383337
vt 0.580294 0.419706
vt 0.616663 0.449553
vt 0.658156 0.471731
s 0
f 2/1/1 3/2/1 1/3/1
f 4/4/2 5/5/2 3/2/2
f 6/6/3 7/7/3 5/5/3
f 8/8/4 9/9/4 7/7/4
f 10/10/5 11/11/5 9/9/5
f 12/12/6 13/13/6 11/11/6
f 14/14/7 15/15/7 13/13/7
f 16/16/8 17/17/8 15/15/8
f 18/18/9 19/19/9 17/17/9
f 20/20/10 21/21/10 19/19/10
f 22/22/11 23/23/11 21/21/11
f 24/24/12 25/25/12 23/23/12
f 26/26/13 27/27/13 25/25/13
f 28/28/14 29/29/14 27/27/14
f 30/30/15 31/31/15 29/29/15
f 32/32/16 33/33/16 31/31/16
f 33/33/17 36/34/17 35/35/17
f 35/35/18 38/36/18 37/37/18
f 38/36/19 39/38/19 37/37/19
f 40/39/20 41/40/20 39/38/20
f 42/41/21 43/42/21 41/40/21
f 44/43/22 45/44/22 43/42/22
f 46/45/23 47/46/23 45/44/23
f 48/47/24 49/48/24 47/46/24
f 50/49/25 51/50/25 49/48/25
f 52/51/26 53/52/26 51/50/26
f 54/53/27 55/54/27 53/52/27
f 56/55/28 57/56/28 55/54/28
f 58/57/29 59/58/29 57/56/29
f 60/59/30 61/60/30 59/58/30
f 32/32/31 337/61/31 34/61/31
f 62/62/32 63/63/32 61/60/32
f 63/63/33 2/64/33 1/65/33
f 9/9/34 68/7/34 7/7/34
f 73/17/8 104/15/8 72/15/8
f 27/27/35 77/25/35 25/25/35
f 43/42/36 87/44/36 86/42/36
f 63/63/37 95/60/37 61/60/37
f 19/19/38 73/17/38 17/17/38
f 37/37/39 82/35/39 35/35/39
f 55/54/40 91/52/40 53/52/40
f 11/11/41 69/9/41 9/9/41
f 29/29/42 78/27/42 27/27/42
f 47/46/43 87/44/43 45/44/43
f 3/2/44 65/3/44 1/3/44
f 63/63/45 65/65/45 96/63/45
f 21/21/46 74/19/46 19/19/46
f 37/37/47 84/38/47 83/37/47
f 57/56/48 92/54/48 55/54/48
f 11/11/49 71/13/49 70/11/49
f 31/31/50 79/29/50 29/29/50
f 49/48/51 88/46/51 47/46/51
f 3/2/52 67/5/52 66/2/52
f 23/23/53 75/21/53 21/21/53
f 41/40/54 84/38/54 39/38/54
f 57/56/55 94/58/55 93/56/55
f 15/15/56 71/13/56 13/13/56
f 33/33/57 80/31/57 31/31/57
f 51/50/58 89/48/58 49/48/58
f 7/7/59 67/5/59 5/5/59
f 23/23/60 77/25/60 76/23/60
f 43/42/61 85/40/61 41/40/61
f 59/58/62 95/60/62 94/58/62
f 17/17/63 72/15/63 15/15/63
f 35/35/64 81/33/64 33/33/64
f 53/52/65 90/50/65 51/50/65
f 108/23/66 139/21/66 107/21/66
f 87/44/22 118/42/22 86/42/22
f 74/19/9 105/17/9 73/17/9
f 88/46/23 119/44/23 87/44/23
f 75/21/10 106/19/10 74/19/10
f 89/48/24 120/46/24 88/46/24
f 76/23/11 107/21/11 75/21/11
f 90/50/25 121/48/25 89/48/25
f 77/25/12 108/23/12 76/23/12
f 90/50/26 123/52/26 122/50/26
f 78/27/13 109/25/13 77/25/13
f 91/52/27 124/54/27 123/52/27
f 79/29/14 110/27/14 78/27/14
f 66/2/1 97/3/1 65/3/1
f 93/56/28 124/54/28 92/54/28
f 80/31/15 111/29/15 79/29/15
f 67/5/2 98/2/2 66/2/2
f 94/58/29 125/56/29 93/56/29
f 81/33/16 112/31/16 80/31/16
f 68/7/3 99/5/3 67/5/3
f 95/60/30 126/58/30 94/58/30
f 82/35/17 113/33/17 81/33/17
f 69/9/4 100/7/4 68/7/4
f 96/63/32 127/60/32 95/60/32
f 83/37/18 114/35/18 82/35/18
f 70/11/5 101/9/5 69/9/5
f 65/65/33 128/63/33 96/63/33
f 84/38/19 115/37/19 83/37/19
f 70/11/6 103/13/6 102/11/6
f 85/40/20 116/38/20 84/38/20
f 71/13/7 104/15/7 103/13/7
f 86/42/21 117/40/21 85/40/21
f 143/29/14 174/27/14 142/27/14
f 122/50/66 153/48/66 121/48/66
f 109/25/66 140/23/66 108/23/66
f 122/50/66 155/52/66 154/50/66
f 110/27/66 141/25/66 109/25/66
f 124/54/66 155/52/66 123/52/66
f 111/29/66 142/27/66 110/27/66
f 98/2/66 129/3/66 97/3/66
f 125/56/66 156/54/66 124/54/66
f 112/31/66 143/29/66 111/29/66
f 99/5/66 130/2/66 98/2/66
f 125/56/66 158/58/66 157/56/66
f 113/33/66 144/31/66 112/31/66
f 100/7/66 131/5/66 99/5/66
f 127/60/66 158/58/66 126/58/66
f 114/35/66 145/33/66 113/33/66
f 100/7/66 133/9/66 132/7/66
f 127/60/66 160/63/66 159/60/66
f 114/35/66 147/37/66 146/35/66
f 101/9/66 134/11/66 133/9/66
f 97/65/66 160/63/66 128/63/66
f 116/38/66 147/37/66 115/37/66
f 102/11/66 135/13/66 134/11/66
f 117/40/66 148/38/66 116/38/66
f 104/15/66 135/13/66 103/13/66
f 117/40/66 150/42/66 149/40/66
f 104/15/66 137/17/66 136/15/66
f 119/44/66 150/42/66 118/42/66
f 106/19/66 137/17/66 105/17/66
f 119/44/66 152/46/66 151/44/66
f 106/19/66 139/21/66 138/19/66
f 121/48/66 152/46/66 120/46/66
f 178/35/31 209/33/31 177/33/31
f 130/2/1 161/3/1 129/3/1
f 157/56/28 188/54/28 156/54/28
f 144/31/15 175/29/15 143/29/15
f 131/5/2 162/2/2 130/2/2
f 158/58/29 189/56/29 157/56/29
f 145/33/16 176/31/16 144/31/16
f 132/7/3 163/5/3 131/5/3
f 159/60/30 190/58/30 158/58/30
f 146/35/17 177/33/17 145/33/17
f 133/9/4 164/7/4 132/7/4
f 160/63/32 191/60/32 159/60/32
f 147/37/18 178/35/18 146/35/18
f 134/11/5 165/9/5 133/9/5
f 129/65/33 192/63/33 160/63/33
f 148/38/19 179/37/19 147/37/19
f 135/13/6 166/11/6 134/11/6
f 149/40/20 180/38/20 148/38/20
f 136/15/7 167/13/7 135/13/7
f 150/42/21 181/40/21 149/40/21
f 137/17/8 168/15/8 136/15/8
f 151/44/22 182/42/22 150/42/22
f 138/19/9 169/17/9 137/17/9
f 152/46/23 183/44/23 151/44/23
f 139/21/10 170/19/10 138/19/10
f 153/48/24 184/46/24 152/46/24
f 140/23/11 171/21/11 139/21/11
f 154/50/25 185/48/25 153/48/25
f 141/25/12 172/23/12 140/23/12
f 155/52/26 186/50/26 154/50/26
f 142/27/13 173/25/13 141/25/13
f 156/54/27 187/52/27 155/52/27
f 213/40/20 244/38/20 212/38/20
f 164/7/31 197/9/31 196/7/31
f 192/63/31 223/60/31 191/60/31
f 179/37/31 210/35/31 178/35/31
f 165/9/31 198/11/31 197/9/31
f 161/65/31 224/63/31 192/63/31
f 180/38/31 211/37/31 179/37/31
f 166/11/31 199/13/31 198/11/31
f 181/40/31 212/38/31 180/38/31
f 167/13/31 200/15/31 199/13/31
f 182/42/31 213/40/31 181/40/31
f 168/15/31 201/17/31 200/15/31
f 183/44/31 214/42/31 182/42/31
f 169/17/31 202/19/31 201/17/31
f 184/46/31 215/44/31 183/44/31
f 170/19/31 203/21/31 202/19/31
f 185/48/31 216/46/31 184/46/31
f 171/21/31 204/23/31 203/21/31
f 186/50/31 217/48/31 185/48/31
f 172/23/31 205/25/31 204/23/31
f 187/52/31 218/50/31 186/50/31
f 173/25/31 206/27/31 205/25/31
f 188/54/31 219/52/31 187/52/31
f 174/27/31 207/29/31 206/27/31
f 161/3/31 194/2/31 193/3/31
f 189/56/31 220/54/31 188/54/31
f 175/29/31 208/31/31 207/29/31
f 162/2/31 195/5/31 194/2/31
f 190/58/31 221/56/31 189/56/31
f 176/31/31 209/33/31 208/31/31
f 163/5/31 196/7/31 195/5/31
f 191/60/31 222/58/31 190/58/31
f 247/44/67 280/46/67 279/44/67
f 199/13/7 232/15/7 231/13/7
f 214/42/21 245/40/21 213/40/21
f 201/17/8 232/15/8 200/15/8
f 215/44/22 246/42/22 214/42/22
f 202/19/9 233/17/9 201/17/9
f 216/46/23 247/44/23 215/44/23
f 203/21/10 234/19/10 202/19/10
f 217/48/24 248/46/24 216/46/24
f 204/23/11 235/21/11 203/21/11
f 218/50/25 249/48/25 217/48/25
f 205/25/12 236/23/12 204/23/12
f 218/50/26 251/52/26 250/50/26
f 206/27/13 237/25/13 205/25/13
f 219/52/27 252/54/27 251/52/27
f 207/29/14 238/27/14 206/27/14
f 194/2/1 225/3/1 193/3/1
f 221/56/28 252/54/28 220/54/28
f 208/31/15 239/29/15 207/29/15
f 195/5/2 226/2/2 194/2/2
f 222/58/29 253/56/29 221/56/29
f 209/33/16 240/31/16 208/31/16
f 196/7/3 227/5/3 195/5/3
f 223/60/30 254/58/30 222/58/30
f 210/35/17 241/33/17 209/33/17
f 197/9/4 228/7/4 196/7/4
f 224/63/32 255/60/32 223/60/32
f 211/37/18 242/35/18 210/35/18
f 198/11/5 229/9/5 197/9/5
f 193/65/33 256/63/33 224/63/33
f 212/38/19 243/37/19 211/37/19
f 198/11/6 231/13/6 230/11/6
f 283/52/26 314/50/26 282/50/26
f 235/21/68 266/19/68 234/19/68
f 248/46/69 281/48/69 280/46/69
f 236/23/70 267/21/70 235/21/70
f 249/48/71 282/50/71 281/48/71
f 237/25/72 268/23/72 236/23/72
f 251/52/73 282/50/73 250/50/73
f 238/27/74 269/25/74 237/25/74
f 251/52/75 284/54/75 283/52/75
f 239/29/76 270/27/76 238/27/76
f 226/2/77 257/3/77 225/3/77
f 253/56/78 284/54/78 252/54/78
f 240/31/79 271/29/79 239/29/79
f 227/5/80 258/2/80 226/2/80
f 253/56/81 286/58/81 285/56/81
f 241/33/82 272/31/82 240/31/82
f 228/7/83 259/5/83 227/5/83
f 254/58/84 287/60/84 286/58/84
f 241/33/85 274/35/85 273/33/85
f 229/9/86 260/7/86 228/7/86
f 255/60/87 288/63/87 287/60/87
f 243/37/88 274/35/88 242/35/88
f 229/9/89 262/11/89 261/9/89
f 225/65/90 288/63/90 256/63/90
f 244/38/91 275/37/91 243/37/91
f 230/11/92 263/13/92 262/11/92
f 244/38/93 277/40/93 276/38/93
f 232/15/94 263/13/94 231/13/94
f 245/40/95 278/42/95 277/40/95
f 232/15/96 265/17/96 264/15/96
f 246/42/97 279/44/97 278/42/97
f 234/19/98 265/17/98 233/17/98
f 317/56/66 380/54/66 316/54/66
f 270/27/13 301/25/13 269/25/13
f 284/54/27 315/52/27 283/52/27
f 271/29/14 302/27/14 270/27/14
f 258/2/1 289/3/1 257/3/1
f 285/56/28 316/54/28 284/54/28
f 272/31/15 303/29/15 271/29/15
f 259/5/2 290/2/2 258/2/2
f 286/58/29 317/56/29 285/56/29
f 273/33/16 304/31/16 272/31/16
f 260/7/3 291/5/3 259/5/3
f 287/60/30 318/58/30 286/58/30
f 274/35/17 305/33/17 273/33/17
f 261/9/4 292/7/4 260/7/4
f 288/63/32 319/60/32 287/60/32
f 275/37/18 306/35/18 274/35/18
f 262/11/5 293/9/5 261/9/5
f 257/65/33 320/63/33 288/63/33
f 276/38/19 307/37/19 275/37/19
f 263/13/6 294/11/6 262/11/6
f 277/40/20 308/38/20 276/38/20
f 264/15/7 295/13/7 263/13/7
f 278/42/21 309/40/21 277/40/21
f 265/17/8 296/15/8 264/15/8
f 279/44/22 310/42/22 278/42/22
f 266/19/9 297/17/9 265/17/9
f 280/46/23 311/44/23 279/44/23
f 267/21/10 298/19/10 266/19/10
f 281/48/24 312/46/24 280/46/24
f 268/23/11 299/21/11 267/21/11
f 282/50/25 313/48/25 281/48/25
f 269/25/12 300/23/12 268/23/12
f 346/51/26 411/53/26 347/53/26
f 374/42/21 437/40/21 373/40/21
f 291/5/66 354/2/66 290/2/66
f 52/51/31 345/49/31 346/51/31
f 317/56/66 382/58/66 381/56/66
f 292/7/66 355/5/66 291/5/66
f 318/58/66 383/60/66 382/58/66
f 293/9/66 356/7/66 292/7/66
f 16/16/31 329/18/31 18/18/31
f 320/63/66 383/60/66 319/60/66
f 34/61/31 338/34/31 36/34/31
f 294/11/66 357/9/66 293/9/66
f 54/53/31 346/51/31 347/53/31
f 320/63/66 353/65/66 384/63/66
f 295/13/66 358/11/66 294/11/66
f 296/15/66 359/13/66 295/13/66
f 18/18/31 330/20/31 20/20/31
f 38/36/31 338/34/31 339/36/31
f 297/17/66 360/15/66 296/15/66
f 2/1/31 321/4/31 4/4/31
f 56/55/31 347/53/31 348/55/31
f 298/19/66 361/17/66 297/17/66
f 20/20/31 331/22/31 22/22/31
f 299/21/66 362/19/66 298/19/66
f 40/39/31 339/36/31 340/39/31
f 300/23/66 363/21/66 299/21/66
f 58/57/31 348/55/31 349/57/31
f 301/25/66 364/23/66 300/23/66
f 4/4/31 323/6/31 6/6/31
f 302/27/66 365/25/66 301/25/66
f 22/22/31 332/24/31 24/24/31
f 40/39/31 341/41/31 42/41/31
f 303/29/66 366/27/66 302/27/66
f 60/59/31 349/57/31 350/59/31
f 303/29/66 368/31/66 367/29/66
f 6/6/31 324/8/31 8/8/31
f 305/33/66 368/31/66 304/31/66
f 24/24/31 333/26/31 26/26/31
f 44/43/31 341/41/31 342/43/31
f 305/33/66 370/35/66 369/33/66
f 62/62/31 350/59/31 351/62/31
f 307/37/66 370/35/66 306/35/66
f 8/8/31 325/10/31 10/10/31
f 308/38/66 371/37/66 307/37/66
f 26/26/31 334/28/31 28/28/31
f 44/43/31 343/45/31 46/45/31
f 309/40/66 372/38/66 308/38/66
f 62/62/31 352/66/31 64/66/31
f 310/42/66 373/40/66 309/40/66
f 10/10/31 326/12/31 12/12/31
f 310/42/66 375/44/66 374/42/66
f 28/28/31 335/30/31 30/30/31
f 48/47/31 343/45/31 344/47/31
f 311/44/66 376/46/66 375/44/66
f 2/64/31 352/66/31 322/64/31
f 312/46/66 377/48/66 376/46/66
f 12/12/31 327/14/31 14/14/31
f 313/48/66 378/50/66 377/48/66
f 30/30/31 336/32/31 32/32/31
f 50/49/31 344/47/31 345/49/31
f 314/50/66 379/52/66 378/50/66
f 316/54/66 379/52/66 315/52/66
f 289/3/66 354/2/66 353/3/66
f 14/14/31 328/16/31 16/16/31
f 403/67/31 395/68/31 387/69/31
f 333/26/13 398/28/13 334/28/13
f 347/53/27 412/55/27 348/55/27
f 334/28/14 399/30/14 335/30/14
f 322/1/1 385/4/1 321/4/1
f 348/55/28 413/57/28 349/57/28
f 335/30/15 400/32/15 336/32/15
f 321/4/2 387/6/2 323/6/2
f 349/57/29 414/59/29 350/59/29
f 336/32/16 401/61/16 337/61/16
f 323/6/3 388/8/3 324/8/3
f 350/59/30 415/62/30 351/62/30
f 337/61/17 402/34/17 338/34/17
f 324/8/4 389/10/4 325/10/4
f 351/62/32 416/66/32 352/66/32
f 338/34/18 403/36/18 339/36/18
f 325/10/5 390/12/5 326/12/5
f 352/66/33 386/64/33 322/64/33
f 339/36/19 404/39/19 340/39/19
f 326/12/6 391/14/6 327/14/6
f 340/39/20 405/41/20 341/41/20
f 327/14/7 392/16/7 328/16/7
f 341/41/21 406/43/21 342/43/21
f 328/16/8 393/18/8 329/18/8
f 342/43/22 407/45/22 343/45/22
f 329/18/9 394/20/9 330/20/9
f 343/45/23 408/47/23 344/47/23
f 330/20/10 395/22/10 331/22/10
f 344/47/24 409/49/24 345/49/24
f 331/22/11 396/24/11 332/24/11
f 345/49/25 410/51/25 346/51/25
f 332/24/12 397/26/12 333/26/12
f 432/70/66 440/71/66 448/72/66
f 361/17/8 424/15/8 360/15/8
f 375/44/22 438/42/22 374/42/22
f 362/19/9 425/17/9 361/17/9
f 376/46/23 439/44/23 375/44/23
f 363/21/10 426/19/10 362/19/10
f 377/48/24 440/46/24 376/46/24
f 364/23/11 427/21/11 363/21/11
f 378/50/25 441/48/25 377/48/25
f 365/25/12 428/23/12 364/23/12
f 379/52/26 442/50/26 378/50/26
f 365/25/13 430/27/13 429/25/13
f 380/54/27 443/52/27 379/52/27
f 367/29/14 430/27/14 366/27/14
f 354/2/1 417/3/1 353/3/1
f 381/56/28 444/54/28 380/54/28
f 368/31/15 431/29/15 367/29/15
f 355/5/2 418/2/2 354/2/2
f 382/58/29 445/56/29 381/56/29
f 369/33/16 432/31/16 368/31/16
f 356/7/3 419/5/3 355/5/3
f 383/60/30 446/58/30 382/58/30
f 370/35/17 433/33/17 369/33/17
f 357/9/4 420/7/4 356/7/4
f 384/63/32 447/60/32 383/60/32
f 371/37/18 434/35/18 370/35/18
f 358/11/5 421/9/5 357/9/5
f 353/65/33 448/63/33 384/63/33
f 372/38/19 435/37/19 371/37/19
f 359/13/6 422/11/6 358/11/6
f 373/40/20 436/38/20 372/38/20
f 360/15/7 423/13/7 359/13/7
f 2/1/1 4/4/1 3/2/1
f 4/4/2 6/6/2 5/5/2
f 6/6/3 8/8/3 7/7/3
f 8/8/4 10/10/4 9/9/4
f 10/10/5 12/12/5 11/11/5
f 12/12/6 14/14/6 13/13/6
f 14/14/7 16/16/7 15/15/7
f 16/16/8 18/18/8 17/17/8
f 18/18/9 20/20/9 19/19/9
f 20/20/10 22/22/10 21/21/10
f 22/22/11 24/24/11 23/23/11
f 24/24/12 26/26/12 25/25/12
f 26/26/13 28/28/13 27/27/13
f 28/28/14 30/30/14 29/29/14
f 30/30/15 32/32/15 31/31/15
f 32/32/16 34/61/16 33/33/16
f 33/33/17 34/61/17 36/34/17
f 35/35/18 36/34/18 38/36/18
f 38/36/19 40/39/19 39/38/19
f 40/39/20 42/41/20 41/40/20
f 42/41/21 44/43/21 43/42/21
f 44/43/22 46/45/22 45/44/22
f 46/45/23 48/47/23 47/46/23
f 48/47/24 50/49/24 49/48/24
f 50/49/25 52/51/25 51/50/25
f 52/51/26 54/53/26 53/52/26
f 54/53/27 56/55/27 55/54/27
f 56/55/28 58/57/28 57/56/28
f 58/57/29 60/59/29 59/58/29
f 60/59/30 62/62/30 61/60/30
f 32/32/31 336/32/31 337/61/31
f 62/62/32 64/66/32 63/63/32
f 63/63/33 64/66/33 2/64/33
f 9/9/34 69/9/34 68/7/34
f 73/17/8 105/17/8 104/15/8
f 27/27/35 78/27/35 77/25/35
f 43/42/36 45/44/36 87/44/36
f 63/63/37 96/63/37 95/60/37
f 19/19/38 74/19/38 73/17/38
f 37/37/39 83/37/39 82/35/39
f 55/54/40 92/54/40 91/52/40
f 11/11/41 70/11/41 69/9/41
f 29/29/42 79/29/42 78/27/42
f 47/46/43 88/46/43 87/44/43
f 3/2/44 66/2/44 65/3/44
f 63/63/45 1/65/45 65/65/45
f 21/21/46 75/21/46 74/19/46
f 37/37/47 39/38/47 84/38/47
f 57/56/48 93/56/48 92/54/48
f 11/11/49 13/13/49 71/13/49
f 31/31/50 80/31/50 79/29/50
f 49/48/51 89/48/51 88/46/51
f 3/2/52 5/5/52 67/5/52
f 23/23/53 76/23/53 75/21/53
f 41/40/54 85/40/54 84/38/54
f 57/56/55 59/58/55 94/58/55
f 15/15/56 72/15/56 71/13/56
f 33/33/57 81/33/57 80/31/57
f 51/50/58 90/50/58 89/48/58
f 7/7/59 68/7/59 67/5/59
f 23/23/60 25/25/60 77/25/60
f 43/42/61 86/42/61 85/40/61
f 59/58/62 61/60/62 95/60/62
f 17/17/63 73/17/63 72/15/63
f 35/35/64 82/35/64 81/33/64
f 53/52/65 91/52/65 90/50/65
f 108/23/66 140/23/66 139/21/66
f 87/44/22 119/44/22 118/42/22
f 74/19/9 106/19/9 105/17/9
f 88/46/23 120/46/23 119/44/23
f 75/21/10 107/21/10 106/19/10
f 89/48/24 121/48/24 120/46/24
f 76/23/11 108/23/11 107/21/11
f 90/50/25 122/50/25 121/48/25
f 77/25/12 109/25/12 108/23/12
f 90/50/26 91/52/26 123/52/26
f 78/27/13 110/27/13 109/25/13
f 91/52/27 92/54/27 124/54/27
f 79/29/14 111/29/14 110/27/14
f 66/2/1 98/2/1 97/3/1
f 93/56/28 125/56/28 124/54/28
f 80/31/15 112/31/15 111/29/15
f 67/5/2 99/5/2 98/2/2
f 94/58/29 126/58/29 125/56/29
f 81/33/16 113/33/16 112/31/16
f 68/7/3 100/7/3 99/5/3
f 95/60/30 127/60/30 126/58/30
f 82/35/17 114/35/17 113/33/17
f 69/9/4 101/9/4 100/7/4
f 96/63/32 128/63/32 127/60/32
f 83/37/18 115/37/18 114/35/18
f 70/11/5 102/11/5 101/9/5
f 65/65/33 97/65/33 128/63/33
f 84/38/19 116/38/19 115/37/19
f 70/11/6 71/13/6 103/13/6
f 85/40/20 117/40/20 116/38/20
f 71/13/7 72/15/7 104/15/7
f 86/42/21 118/42/21 117/40/21
f 143/29/14 175/29/14 174/27/14
f 122/50/66 154/50/66 153/48/66
f 109/25/66 141/25/66 140/23/66
f 122/50/66 123/52/66 155/52/66
f 110/27/66 142/27/66 141/25/66
f 124/54/66 156/54/66 155/52/66
f 111/29/66 143/29/66 142/27/66
f 98/2/66 130/2/66 129/3/66
f 125/56/66 157/56/66 156/54/66
f 112/31/66 144/31/66 143/29/66
f 99/5/66 131/5/66 130/2/66
f 125/56/66 126/58/66 158/58/66
f 113/33/66 145/33/66 144/31/66
f 100/7/66 132/7/66 131/5/66
f 127/60/66 159/60/66 158/58/66
f 114/35/66 146/35/66 145/33/66
f 100/7/66 101/9/66 133/9/66
f 127/60/66 128/63/66 160/63/66
f 114/35/66 115/37/66 147/37/66
f 101/9/66 102/11/66 134/11/66
f 97/65/66 129/65/66 160/63/66
f 116/38/66 148/38/66 147/37/66
f 102/11/66 103/13/66 135/13/66
f 117/40/66 149/40/66 148/38/66
f 104/15/66 136/15/66 135/13/66
f 117/40/66 118/42/66 150/42/66
f 104/15/66 105/17/66 137/17/66
f 119/44/66 151/44/66 150/42/66
f 106/19/66 138/19/66 137/17/66
f 119/44/66 120/46/66 152/46/66
f 106/19/66 107/21/66 139/21/66
f 121/48/66 153/48/66 152/46/66
f 178/35/31 210/35/31 209/33/31
f 130/2/1 162/2/1 161/3/1
f 157/56/28 189/56/28 188/54/28
f 144/31/15 176/31/15 175/29/15
f 131/5/2 163/5/2 162/2/2
f 158/58/29 190/58/29 189/56/29
f 145/33/16 177/33/16 176/31/16
f 132/7/3 164/7/3 163/5/3
f 159/60/30 191/60/30 190/58/30
f 146/35/17 178/35/17 177/33/17
f 133/9/4 165/9/4 164/7/4
f 160/63/32 192/63/32 191/60/32
f 147/37/18 179/37/18 178/35/18
f 134/11/5 166/11/5 165/9/5
f 129/65/33 161/65/33 192/63/33
f 148/38/19 180/38/19 179/37/19
f 135/13/6 167/13/6 166/11/6
f 149/40/20 181/40/20 180/38/20
f 136/15/7 168/15/7 167/13/7
f 150/42/21 182/42/21 181/40/21
f 137/17/8 169/17/8 168/15/8
f 151/44/22 183/44/22 182/42/22
f 138/19/9 170/19/9 169/17/9
f 152/46/23 184/46/23 183/44/23
f 139/21/10 171/21/10 170/19/10
f 153/48/24 185/48/24 184/46/24
f 140/23/11 172/23/11 171/21/11
f 154/50/25 186/50/25 185/48/25
f 141/25/12 173/25/12 172/23/12
f 155/52/26 187/52/26 186/50/26
f 142/27/13 174/27/13 173/25/13
f 156/54/27 188/54/27 187/52/27
f 213/40/20 245/40/20 244/38/20
f 164/7/31 165/9/31 197/9/31
f 192/63/31 224/63/31 223/60/31
f 179/37/31 211/37/31 210/35/31
f 165/9/31 166/11/31 198/11/31
f 161/65/31 193/65/31 224/63/31
f 180/38/31 212/38/31 211/37/31
f 166/11/31 167/13/31 199/13/31
f 181/40/31 213/40/31 212/38/31
f 167/13/31 168/15/31 200/15/31
f 182/42/31 214/42/31 213/40/31
f 168/15/31 169/17/31 201/17/31
f 183/44/31 215/44/31 214/42/31
f 169/17/31 170/19/31 202/19/31
f 184/46/31 216/46/31 215/44/31
f 170/19/31 171/21/31 203/21/31
f 185/48/31 217/48/31 216/46/31
f 171/21/31 172/23/31 204/23/31
f 186/50/31 218/50/31 217/48/31
f 172/23/31 173/25/31 205/25/31
f 187/52/31 219/52/31 218/50/31
f 173/25/31 174/27/31 206/27/31
f 188/54/31 220/54/31 219/52/31
f 174/27/31 175/29/31 207/29/31
f 161/3/31 162/2/31 194/2/31
f 189/56/31 221/56/31 220/54/31
f 175/29/31 176/31/31 208/31/31
f 162/2/31 163/5/31 195/5/31
f 190/58/31 222/58/31 221/56/31
f 176/31/31 177/33/31 209/33/31
f 163/5/31 164/7/31 196/7/31
f 191/60/31 223/60/31 222/58/31
f 247/44/67 248/46/67 280/46/67
f 199/13/7 200/15/7 232/15/7
f 214/42/21 246/42/21 245/40/21
f 201/17/8 233/17/8 232/15/8
f 215/44/22 247/44/22 246/42/22
f 202/19/9 234/19/9 233/17/9
f 216/46/23 248/46/23 247/44/23
f 203/21/10 235/21/10 234/19/10
f 217/48/24 249/48/24 248/46/24
f 204/23/11 236/23/11 235/21/11
f 218/50/25 250/50/25 249/48/25
f 205/25/12 237/25/12 236/23/12
f 218/50/26 219/52/26 251/52/26
f 206/27/13 238/27/13 237/25/13
f 219/52/27 220/54/27 252/54/27
f 207/29/14 239/29/14 238/27/14
f 194/2/1 226/2/1 225/3/1
f 221/56/28 253/56/28 252/54/28
f 208/31/15 240/31/15 239/29/15
f 195/5/2 227/5/2 226/2/2
f 222/58/29 254/58/29 253/56/29
f 209/33/16 241/33/16 240/31/16
f 196/7/3 228/7/3 227/5/3
f 223/60/30 255/60/30 254/58/30
f 210/35/17 242/35/17 241/33/17
f 197/9/4 229/9/4 228/7/4
f 224/63/32 256/63/32 255/60/32
f 211/37/18 243/37/18 242/35/18
f 198/11/5 230/11/5 229/9/5
f 193/65/33 225/65/33 256/63/33
f 212/38/19 244/38/19 243/37/19
f 198/11/6 199/13/6 231/13/6
f 283/52/26 315/52/26 314/50/26
f 235/21/68 267/21/68 266/19/68
f 248/46/69 249/48/69 281/48/69
f 236/23/70 268/23/70 267/21/70
f 249/48/71 250/50/71 282/50/71
f 237/25/72 269/25/72 268/23/72
f 251/52/73 283/52/73 282/50/73
f 238/27/74 270/27/74 269/25/74
f 251/52/75 252/54/75 284/54/75
f 239/29/76 271/29/76 270/27/76
f 226/2/77 258/2/77 257/3/77
f 253/56/78 285/56/78 284/54/78
f 240/31/79 272/31/79 271/29/79
f 227/5/80 259/5/80 258/2/80
f 253/56/81 254/58/81 286/58/81
f 241/33/82 273/33/82 272/31/82
f 228/7/83 260/7/83 259/5/83
f 254/58/84 255/60/84 287/60/84
f 241/33/85 242/35/85 274/35/85
f 229/9/86 261/9/86 260/7/86
f 255/60/87 256/63/87 288/63/87
f 243/37/88 275/37/88 274/35/88
f 229/9/89 230/11/89 262/11/89
f 225/65/90 257/65/90 288/63/90
f 244/38/91 276/38/91 275/37/91
f 230/11/92 231/13/92 263/13/92
f 244/38/93 245/40/93 277/40/93
f 232/15/94 264/15/94 263/13/94
f 245/40/95 246/42/95 278/42/95
f 232/15/96 233/17/96 265/17/96
f 246/42/97 247/44/97 279/44/97
f 234/19/98 266/19/98 265/17/98
f 317/56/66 381/56/66 380/54/66
f 270/27/13 302/27/13 301/25/13
f 284/54/27 316/54/27 315/52/27
f 271/29/14 303/29/14 302/27/14
f 258/2/1 290/2/1 289/3/1
f 285/56/28 317/56/28 316/54/28
f 272/31/15 304/31/15 303/29/15
f 259/5/2 291/5/2 290/2/2
f 286/58/29 318/58/29 317/56/29
f 273/33/16 305/33/16 304/31/16
f 260/7/3 292/7/3 291/5/3
f 287/60/30 319/60/30 318/58/30
f 274/35/17 306/35/17 305/33/17
f 261/9/4 293/9/4 292/7/4
f 288/63/32 320/63/32 319/60/32
f 275/37/18 307/37/18 306/35/18
f 262/11/5 294/11/5 293/9/5
f 257/65/33 289/65/33 320/63/33
f 276/38/19 308/38/19 307/37/19
f 263/13/6 295/13/6 294/11/6
f 277/40/20 309/40/20 308/38/20
f 264/15/7 296/15/7 295/13/7
f 278/42/21 310/42/21 309/40/21
f 265/17/8 297/17/8 296/15/8
f 279/44/22 311/44/22 310/42/22
f 266/19/9 298/19/9 297/17/9
f 280/46/23 312/46/23 311/44/23
f 267/21/10 299/21/10 298/19/10
f 281/48/24 313/48/24 312/46/24
f 268/23/11 300/23/11 299/21/11
f 282/50/25 314/50/25 313/48/25
f 269/25/12 301/25/12 300/23/12
f 346/51/26 410/51/26 411/53/26
f 374/42/21 438/42/21 437/40/21
f 291/5/66 355/5/66 354/2/66
f 52/51/31 50/49/31 345/49/31
f 317/56/66 318/58/66 382/58/66
f 292/7/66 356/7/66 355/5/66
f 318/58/66 319/60/66 383/60/66
f 293/9/66 357/9/66 356/7/66
f 16/16/31 328/16/31 329/18/31
f 320/63/66 384/63/66 383/60/66
f 34/61/31 337/61/31 338/34/31
f 294/11/66 358/11/66 357/9/66
f 54/53/31 52/51/31 346/51/31
f 320/63/66 289/65/66 353/65/66
f 295/13/66 359/13/66 358/11/66
f 296/15/66 360/15/66 359/13/66
f 18/18/31 329/18/31 330/20/31
f 38/36/31 36/34/31 338/34/31
f 297/17/66 361/17/66 360/15/66
f 2/1/31 322/1/31 321/4/31
f 56/55/31 54/53/31 347/53/31
f 298/19/66 362/19/66 361/17/66
f 20/20/31 330/20/31 331/22/31
f 299/21/66 363/21/66 362/19/66
f 40/39/31 38/36/31 339/36/31
f 300/23/66 364/23/66 363/21/66
f 58/57/31 56/55/31 348/55/31
f 301/25/66 365/25/66 364/23/66
f 4/4/31 321/4/31 323/6/31
f 302/27/66 366/27/66 365/25/66
f 22/22/31 331/22/31 332/24/31
f 40/39/31 340/39/31 341/41/31
f 303/29/66 367/29/66 366/27/66
f 60/59/31 58/57/31 349/57/31
f 303/29/66 304/31/66 368/31/66
f 6/6/31 323/6/31 324/8/31
f 305/33/66 369/33/66 368/31/66
f 24/24/31 332/24/31 333/26/31
f 44/43/31 42/41/31 341/41/31
f 305/33/66 306/35/66 370/35/66
f 62/62/31 60/59/31 350/59/31
f 307/37/66 371/37/66 370/35/66
f 8/8/31 324/8/31 325/10/31
f 308/38/66 372/38/66 371/37/66
f 26/26/31 333/26/31 334/28/31
f 44/43/31 342/43/31 343/45/31
f 309/40/66 373/40/66 372/38/66
f 62/62/31 351/62/31 352/66/31
f 310/42/66 374/42/66 373/40/66
f 10/10/31 325/10/31 326/12/31
f 310/42/66 311/44/66 375/44/66
f 28/28/31 334/28/31 335/30/31
f 48/47/31 46/45/31 343/45/31
f 311/44/66 312/46/66 376/46/66
f 2/64/31 64/66/31 352/66/31
f 312/46/66 313/48/66 377/48/66
f 12/12/31 326/12/31 327/14/31
f 313/48/66 314/50/66 378/50/66
f 30/30/31 335/30/31 336/32/31
f 50/49/31 48/47/31 344/47/31
f 314/50/66 315/52/66 379/52/66
f 316/54/66 380/54/66 379/52/66
f 289/3/66 290/2/66 354/2/66
f 14/14/31 327/14/31 328/16/31
f 387/69/31 385/73/31 386/74/31
f 386/74/31 416/75/31 415/76/31
f 415/76/99 414/77/99 413/78/99
f 413/78/31 412/79/31 411/80/31
f 411/80/31 410/81/31 409/82/31
f 409/82/31 408/83/31 407/84/31
f 407/84/31 406/85/31 405/86/31
f 405/86/100 404/87/100 403/67/100
f 403/67/31 402/88/31 401/89/31
f 401/89/31 400/90/31 399/91/31
f 399/91/99 398/92/99 397/93/99
f 397/93/31 396/94/31 395/68/31
f 395/68/31 394/95/31 393/96/31
f 393/96/31 392/97/31 391/98/31
f 391/98/31 390/99/31 389/100/31
f 389/100/100 388/101/100 387/69/100
f 387/69/31 386/74/31 415/76/31
f 415/76/31 413/78/31 411/80/31
f 411/80/31 409/82/31 407/84/31
f 407/84/31 405/86/31 403/67/31
f 403/67/31 401/89/31 399/91/31
f 399/91/31 397/93/31 395/68/31
f 395/68/31 393/96/31 391/98/31
f 391/98/31 389/100/31 387/69/31
f 387/69/31 415/76/31 411/80/31
f 411/80/31 407/84/31 403/67/31
f 403/67/31 399/91/31 395/68/31
f 395/68/31 391/98/31 387/69/31
f 387/69/31 411/80/31 403/67/31
f 333/26/13 397/26/13 398/28/13
f 347/53/27 411/53/27 412/55/27
f 334/28/14 398/28/14 399/30/14
f 322/1/1 386/1/1 385/4/1
f 348/55/28 412/55/28 413/57/28
f 335/30/15 399/30/15 400/32/15
f 321/4/2 385/4/2 387/6/2
f 349/57/29 413/57/29 414/59/29
f 336/32/16 400/32/16 401/61/16
f 323/6/3 387/6/3 388/8/3
f 350/59/30 414/59/30 415/62/30
f 337/61/17 401/61/17 402/34/17
f 324/8/4 388/8/4 389/10/4
f 351/62/32 415/62/32 416/66/32
f 338/34/18 402/34/18 403/36/18
f 325/10/5 389/10/5 390/12/5
f 352/66/33 416/66/33 386/64/33
f 339/36/19 403/36/19 404/39/19
f 326/12/6 390/12/6 391/14/6
f 340/39/20 404/39/20 405/41/20
f 327/14/7 391/14/7 392/16/7
f 341/41/21 405/41/21 406/43/21
f 328/16/8 392/16/8 393/18/8
f 342/43/22 406/43/22 407/45/22
f 329/18/9 393/18/9 394/20/9
f 343/45/23 407/45/23 408/47/23
f 330/20/10 394/20/10 395/22/10
f 344/47/24 408/47/24 409/49/24
f 331/22/11 395/22/11 396/24/11
f 345/49/25 409/49/25 410/51/25
f 332/24/12 396/24/12 397/26/12
f 448/72/101 417/102/101 418/103/101
f 418/103/101 419/104/101 420/105/101
f 420/105/66 421/106/66 422/107/66
f 422/107/66 423/108/66 424/109/66
f 424/109/66 425/110/66 426/111/66
f 426/111/66 427/112/66 428/113/66
f 428/113/66 429/114/66 430/115/66
f 430/115/102 431/116/102 432/70/102
f 432/70/102 433/117/102 434/118/102
f 434/118/102 435/119/102 436/120/102
f 436/120/102 437/121/102 438/122/102
f 438/122/66 439/123/66 440/71/66
f 440/71/66 441/124/66 442/125/66
f 442/125/66 443/126/66 444/127/66
f 444/127/101 445/128/101 446/129/101
f 446/129/101 447/130/101 448/72/101
f 448/72/66 418/103/66 420/105/66
f 420/105/66 422/107/66 424/109/66
f 424/109/66 426/111/66 428/113/66
f 428/113/66 430/115/66 432/70/66
f 432/70/66 434/118/66 436/120/66
f 436/120/66 438/122/66 440/71/66
f 440/71/66 442/125/66 444/127/66
f 444/127/66 446/129/66 448/72/66
f 448/72/66 420/105/66 424/109/66
f 424/109/66 428/113/66 432/70/66
f 432/70/66 436/120/66 440/71/66
f 440/71/66 444/127/66 448/72/66
f 448/72/66 424/109/66 432/70/66
f 361/17/8 425/17/8 424/15/8
f 375/44/22 439/44/22 438/42/22
f 362/19/9 426/19/9 425/17/9
f 376/46/23 440/46/23 439/44/23
f 363/21/10 427/21/10 426/19/10
f 377/48/24 441/48/24 440/46/24
f 364/23/11 428/23/11 427/21/11
f 378/50/25 442/50/25 441/48/25
f 365/25/12 429/25/12 428/23/12
f 379/52/26 443/52/26 442/50/26
f 365/25/13 366/27/13 430/27/13
f 380/54/27 444/54/27 443/52/27
f 367/29/14 431/29/14 430/27/14
f 354/2/1 418/2/1 417/3/1
f 381/56/28 445/56/28 444/54/28
f 368/31/15 432/31/15 431/29/15
f 355/5/2 419/5/2 418/2/2
f 382/58/29 446/58/29 445/56/29
f 369/33/16 433/33/16 432/31/16
f 356/7/3 420/7/3 419/5/3
f 383/60/30 447/60/30 446/58/30
f 370/35/17 434/35/17 433/33/17
f 357/9/4 421/9/4 420/7/4
f 384/63/32 448/63/32 447/60/32
f 371/37/18 435/37/18 434/35/18
f 358/11/5 422/11/5 421/9/5
f 353/65/33 417/65/33 448/63/33
f 372/38/19 436/38/19 435/37/19
f 359/13/6 423/13/6 422/11/6
f 373/40/20 437/40/20 436/38/20
f 360/15/7 424/15/7 423/13/7
