# Blender 5.1.2
# www.blender.org
mtllib WE6_buffer_plate.mtl
o BufferPlateExport
g WE6_buffer_plate
v 0.262731 -0.191405 0.061206
v 0.261888 -0.189091 0.071177
v 0.245807 -0.193839 0.063117
v -0.262374 0.189067 0.071177
v -0.263216 0.191381 0.061206
v -0.273478 0.182341 0.069916
v 0.224824 -0.193839 0.065493
v 0.224824 -0.191405 0.055599
v 0.261888 0.189115 0.051399
v 0.245654 0.191405 0.053242
v 0.245807 0.193815 0.063117
v 0.166853 -0.193839 0.070731
v 0.114779 -0.191405 0.084059
v 0.114779 -0.193839 0.074155
v 0.166853 -0.191405 0.080635
v 0.224824 0.191381 0.055599
v 0.224824 0.193815 0.065493
v 0.274754 0.184125 0.059819
v 0.262731 0.191381 0.061206
v 0.261888 0.189067 0.071177
v -0.275239 0.184125 0.059819
v -0.167339 0.191381 0.080635
v -0.225386 0.193815 0.065493
v -0.225386 0.191381 0.075397
v -0.167339 0.193815 0.070731
v -0.225386 0.191381 0.055599
v -0.246139 0.191405 0.053242
v -0.246369 0.193815 0.063117
v -0.246369 -0.193839 0.063117
v -0.263216 -0.191405 0.061206
v -0.262374 -0.189139 0.051380
v 0.166853 0.191381 0.080635
v 0.114779 0.193815 0.074155
v 0.114779 0.191381 0.084059
v 0.166853 0.193815 0.070731
v 0.274754 -0.184149 0.059819
v 0.261888 -0.189139 0.051399
v -0.225386 -0.193839 0.065493
v -0.246139 -0.191405 0.073020
v -0.225386 -0.191405 0.075397
v -0.167339 -0.193839 0.070731
v -0.167339 -0.191405 0.080635
v 0.224824 0.191381 0.075397
v -0.280217 -0.171205 0.049372
v -0.273554 -0.182414 0.050109
v -0.275239 -0.184149 0.059819
v 0.245654 -0.191429 0.053242
v 0.224824 -0.191405 0.075397
v 0.245654 -0.191405 0.073020
v 0.273069 0.182390 0.050109
v 0.272992 -0.182365 0.069916
v 0.245654 0.191381 0.073020
v -0.115265 0.191381 0.064281
v -0.115265 0.193815 0.074155
v 0.114779 0.191381 0.064281
v -0.262374 0.189115 0.051380
v 0.273069 -0.182414 0.050109
v -0.167339 0.191381 0.060837
v 0.114779 -0.191405 0.064281
v -0.115265 -0.193839 0.074155
v -0.115265 -0.191405 0.064281
v -0.167339 -0.191405 0.060837
v -0.225386 -0.191405 0.055599
v -0.246139 -0.191429 0.053242
v 0.166853 -0.191405 0.060837
v -0.115265 0.191381 0.084059
v -0.246139 0.191381 0.073020
v 0.114779 0.184125 0.086494
v -0.115265 -0.184149 0.086494
v 0.114779 -0.184149 0.086494
v -0.115265 0.184125 0.086494
v 0.245117 0.184125 0.075523
v 0.224824 0.184125 0.077832
v 0.259438 0.182076 0.073884
v -0.273248 0.168674 0.072370
v -0.275239 0.154332 0.072147
v -0.275239 -0.154355 0.072147
v -0.225386 0.184125 0.077802
v -0.259924 -0.182100 0.073884
v -0.225386 -0.184149 0.077802
v -0.268194 -0.177062 0.072943
v -0.273248 -0.168698 0.072370
v -0.268194 0.177038 0.072943
v -0.259924 0.182076 0.073884
v -0.245679 0.184125 0.075494
v 0.274754 0.154332 0.072147
v 0.272686 -0.168698 0.072370
v 0.274754 -0.154355 0.072147
v 0.267708 -0.177062 0.072943
v -0.083224 -0.069672 -0.313648
v -0.054690 -0.094358 -0.098534
v -0.083715 -0.070036 -0.098534
v -0.054415 -0.093862 -0.313648
v 0.083229 -0.070036 -0.098534
v 0.101554 -0.037066 -0.313648
v 0.102144 -0.037278 -0.098534
v 0.082739 -0.069672 -0.313648
v -0.019058 -0.106727 -0.313648
v 0.018672 -0.107303 -0.098534
v -0.019158 -0.107303 -0.098534
v 0.018573 -0.106727 -0.313648
v -0.159605 0.185548 0.063514
v -0.085552 0.060515 0.043610
v -0.212061 0.185548 0.069024
v -0.102040 0.037042 -0.313648
v -0.109215 -0.000012 -0.098534
v -0.102630 0.037255 -0.098534
v -0.108587 -0.000012 -0.313648
v 0.245117 -0.184149 0.075523
v 0.224824 -0.184149 0.077832
v 0.259438 -0.182100 0.073884
v 0.272686 0.168674 0.072370
v 0.267708 0.177038 0.072943
v -0.159605 0.185548 0.063514
v -0.060817 0.085271 0.043610
v -0.085552 0.060515 0.043610
v -0.102630 -0.037278 -0.098534
v -0.102040 -0.037066 -0.313648
v -0.019158 0.107279 -0.098534
v -0.054415 0.093838 -0.313648
v -0.054690 0.094335 -0.098534
v -0.019058 0.106703 -0.313648
v -0.083715 0.070013 -0.098534
v -0.102630 0.037254 0.081081
v -0.083715 0.070013 0.081081
v 0.102144 0.037254 0.081081
v 0.083229 0.070013 -0.098534
v 0.083229 0.070013 0.081081
v 0.102144 0.037255 -0.098534
v 0.083229 -0.070036 0.081081
v 0.102144 -0.037278 0.081081
v 0.108730 -0.000012 -0.098534
v 0.108730 -0.000012 0.081081
v -0.083715 -0.070036 0.081081
v -0.054690 -0.094358 0.081081
v -0.019158 -0.107303 0.081081
v 0.018672 -0.107303 0.081081
v -0.102630 -0.037278 0.081081
v 0.054205 -0.094358 -0.098534
v 0.053929 -0.093862 -0.313648
v 0.101554 0.037042 -0.313648
v 0.108102 -0.000012 -0.313648
v -0.083224 0.069649 -0.313648
v 0.082739 0.069649 -0.313648
v 0.054205 0.094335 -0.098534
v 0.053929 0.093838 -0.313648
v 0.054205 0.094335 0.081081
v 0.018672 0.107279 -0.098534
v 0.018672 0.107279 0.081081
v -0.109215 -0.000012 0.081081
v 0.018573 0.106703 -0.313648
v 0.054205 -0.094358 0.081081
v -0.019158 0.107279 0.081081
v -0.054690 0.094335 0.081081
v -0.284888 -0.155030 0.058723
v -0.282514 -0.172024 0.058994
v -0.280141 -0.171181 0.069169
v 0.281952 0.154838 0.049120
v 0.279731 0.171181 0.049372
v 0.281952 0.172001 0.058994
v -0.280217 0.171181 0.049372
v -0.284888 0.155007 0.058723
v -0.282514 0.172001 0.058994
v -0.262374 -0.189091 0.071177
v 0.166853 0.191381 0.060837
v -0.280217 0.171181 0.049372
v -0.266279 0.166239 0.050953
v -0.268041 0.153825 0.050759
v -0.273554 0.182390 0.050109
v -0.282514 0.154838 0.068898
v -0.115265 -0.191405 0.084059
v -0.273478 -0.182365 0.069916
v 0.272992 0.182341 0.069916
v 0.284403 0.155007 0.058723
v -0.115265 0.176845 0.073961
v 0.114779 -0.176869 0.073961
v -0.115265 -0.176869 0.073961
v 0.114779 0.176845 0.073961
v -0.225386 0.191381 0.055599
v -0.225386 0.176845 0.055599
v -0.245144 0.176845 0.053339
v 0.244658 0.176845 0.063039
v 0.243729 -0.018549 0.063155
v 0.224824 -0.176869 0.065299
v 0.265794 0.166239 0.060663
v 0.262501 0.171784 0.061031
v 0.256987 0.175110 0.061652
v -0.273554 -0.182414 0.050109
v -0.257473 -0.175134 0.051952
v -0.262374 -0.189139 0.051380
v -0.280217 -0.171205 0.049372
v -0.262986 -0.171807 0.051331
v -0.245144 -0.176869 0.063039
v -0.225386 0.176845 0.065299
v -0.225386 -0.176869 0.065299
v -0.245144 0.176845 0.063039
v -0.246139 0.191405 0.053242
v 0.244658 -0.176869 0.063039
v 0.267555 0.153825 0.060459
v 0.281952 -0.154862 0.068898
v 0.281952 0.154838 0.068898
v 0.284403 -0.155030 0.058723
v -0.262986 0.171784 0.061031
v -0.268041 -0.153849 0.060459
v -0.266279 0.166239 0.060633
v 0.281952 -0.172024 0.058994
v 0.279655 -0.171181 0.069169
v -0.282514 -0.154862 0.049090
v 0.279655 0.171157 0.069169
v -0.262374 0.189115 0.051380
v -0.257473 0.175110 0.051952
v -0.262986 0.171784 0.051331
v -0.282514 -0.154862 0.049090
v -0.268041 -0.153849 0.050759
v -0.266279 -0.166263 0.050953
v -0.282514 0.154838 0.049090
v 0.166853 -0.176869 0.070537
v 0.166853 0.176845 0.070537
v -0.167339 0.191381 0.060837
v -0.167339 0.176845 0.060837
v -0.273554 0.182390 0.050109
v -0.266279 -0.166263 0.060633
v 0.281952 -0.154862 0.049120
v -0.280141 0.171157 0.069169
v 0.279731 -0.171205 0.049372
v -0.225386 -0.176869 0.055599
v -0.225386 -0.191405 0.055599
v -0.246139 -0.191429 0.053242
v -0.282514 0.154838 0.049090
v -0.257473 -0.175134 0.061652
v -0.262986 -0.171807 0.061031
v -0.167339 0.176845 0.070537
v -0.167339 -0.176869 0.070537
v -0.245144 -0.176869 0.053339
v -0.282514 -0.154862 0.068898
v 0.224824 0.176845 0.065299
v 0.265794 -0.166263 0.060663
v 0.262501 -0.171807 0.051331
v 0.262501 -0.171807 0.061031
v 0.265794 -0.166263 0.050953
v -0.257473 0.175110 0.061652
v 0.267555 -0.153849 0.060459
v 0.265794 -0.166263 0.060663
v 0.256987 -0.175134 0.061652
v 0.262501 -0.171807 0.061031
v -0.225386 -0.176869 0.065299
v -0.245144 -0.176869 0.053339
v -0.245144 -0.176869 0.063039
v -0.225386 -0.176869 0.055599
v -0.167339 -0.176869 0.070537
v -0.167339 -0.176869 0.060837
v -0.115265 -0.176869 0.073961
v -0.115265 -0.176869 0.064281
v 0.114779 -0.176869 0.073961
v 0.114779 -0.176869 0.064281
v 0.166853 -0.176869 0.070537
v 0.166853 -0.176869 0.060837
v 0.224824 -0.176869 0.065299
v 0.224824 -0.176869 0.055599
v 0.244658 -0.176869 0.063039
v 0.244658 -0.176869 0.053339
v -0.268041 0.153825 0.060459
v 0.224824 -0.191405 0.055599
v 0.256987 -0.175134 0.051952
v 0.245654 -0.191429 0.053242
v 0.244658 -0.176869 0.053339
v -0.115265 -0.176869 0.064281
v 0.114779 -0.191405 0.064281
v -0.115265 -0.191405 0.064281
v 0.114779 -0.176869 0.064281
v -0.266279 0.166239 0.060633
v -0.262986 0.171784 0.051331
v -0.262986 0.171784 0.061031
v -0.266279 0.166239 0.050953
v -0.257473 0.175110 0.051952
v -0.257473 0.175110 0.061652
v 0.244658 -0.176869 0.053339
v 0.224824 -0.191405 0.055599
v 0.224824 -0.176869 0.055599
v -0.225386 0.176845 0.055599
v -0.245144 0.176845 0.063039
v -0.245144 0.176845 0.053339
v -0.225386 0.176845 0.065299
v -0.167339 0.176845 0.060837
v -0.167339 0.176845 0.070537
v -0.115265 0.176845 0.064281
v -0.115265 0.176845 0.073961
v 0.114779 0.176845 0.064281
v 0.114779 0.176845 0.073961
v 0.166853 0.176845 0.060837
v 0.166853 0.176845 0.070537
v 0.224824 0.176845 0.055599
v 0.224824 0.176845 0.065299
v 0.244658 0.176845 0.053339
v 0.244658 0.176845 0.063039
v 0.262501 0.171784 0.051331
v 0.256987 0.175110 0.061652
v 0.256987 0.175110 0.051952
v 0.262501 0.171784 0.061031
v -0.268041 -0.153849 0.060459
v -0.268041 0.153825 0.050759
v -0.268041 0.153825 0.060459
v -0.268041 -0.153849 0.050759
v 0.166853 -0.191405 0.060837
v 0.166853 -0.176869 0.060837
v 0.245654 0.191405 0.053242
v 0.224824 0.176845 0.055599
v 0.224824 0.191381 0.055599
v 0.265794 -0.166263 0.050953
v 0.279731 -0.171205 0.049372
v 0.273069 -0.182414 0.050109
v 0.281952 -0.154862 0.049120
v 0.267555 -0.153849 0.050759
v 0.281952 0.154838 0.049120
v 0.267555 0.153825 0.050759
v 0.265794 0.166239 0.050953
v 0.279731 0.171181 0.049372
v 0.262501 0.171784 0.051331
v 0.267555 0.153825 0.050759
v 0.267555 -0.153849 0.060459
v 0.267555 0.153825 0.060459
v 0.267555 -0.153849 0.050759
v 0.265794 0.166239 0.060663
v 0.265794 0.166239 0.050953
v -0.167339 -0.191405 0.060837
v -0.167339 -0.176869 0.060837
v 0.261888 0.189115 0.051399
v 0.256987 0.175110 0.051952
v 0.244658 0.176845 0.053339
v -0.262986 -0.171807 0.051331
v -0.266279 -0.166263 0.060633
v -0.262986 -0.171807 0.061031
v -0.266279 -0.166263 0.050953
v 0.273069 0.182390 0.050109
v -0.257473 -0.175134 0.061652
v -0.257473 -0.175134 0.051952
v 0.256987 -0.175134 0.051952
v 0.256987 -0.175134 0.061652
v 0.114779 0.191381 0.064281
v 0.166853 0.176845 0.060837
v 0.114779 0.176845 0.064281
v 0.166853 0.191381 0.060837
v -0.115265 0.191381 0.064281
v -0.115265 0.176845 0.064281
v -0.018775 -0.102699 0.043610
v 0.018289 -0.181642 0.081401
v -0.018775 -0.181642 0.081401
v 0.018289 -0.102699 0.043610
v 0.243729 -0.018549 0.063155
v 0.099081 -0.018549 0.081401
v 0.099081 -0.018549 0.043610
v 0.269546 -0.018549 0.066638
v 0.211499 0.185548 0.069024
v 0.084990 0.060515 0.081401
v 0.084990 0.060515 0.043610
v 0.211499 0.185548 0.071109
v 0.159119 0.185548 0.073311
v 0.060255 0.085271 0.043610
v 0.060255 0.085271 0.081401
v 0.159119 0.185548 0.063514
v 0.084990 -0.060539 0.043610
v 0.159119 -0.185571 0.063534
v 0.060255 -0.085295 0.043610
v -0.099720 0.018525 0.043610
v -0.269802 0.018525 0.066618
v -0.099720 0.018525 0.081401
v 0.269546 0.018525 0.066638
v 0.099081 0.018525 0.043610
v 0.099081 0.018525 0.081401
v 0.159119 0.185548 0.063514
v 0.084990 0.060515 0.043610
v 0.060255 0.085271 0.043610
v -0.269802 0.018525 0.066618
v -0.099720 -0.018549 0.043610
v -0.269802 -0.018549 0.066638
v -0.099720 0.018525 0.043610
v 0.256987 -0.175134 0.051952
v 0.261888 -0.189139 0.051399
v 0.245654 -0.191429 0.053242
v 0.262501 -0.171807 0.051331
v -0.099720 -0.018549 0.081401
v -0.269802 -0.018549 0.066638
v -0.099720 -0.018549 0.043610
v -0.060817 0.085271 0.043610
v -0.159605 0.185548 0.073311
v -0.060817 0.085271 0.081401
v -0.159605 0.185548 0.063514
v -0.245679 -0.184149 0.075494
v 0.084990 -0.060539 0.043610
v 0.211499 -0.185571 0.069024
v 0.159119 -0.185571 0.063534
v -0.085552 -0.060539 0.081401
v -0.212061 -0.185571 0.069024
v -0.212061 -0.185571 0.071109
v -0.085552 -0.060539 0.043610
v -0.018775 0.102675 0.043610
v -0.018775 0.102675 0.081401
v -0.018775 0.181619 0.081401
v -0.085552 0.060515 0.043610
v -0.212061 0.185548 0.071109
v -0.212061 0.185548 0.069024
v -0.085552 0.060515 0.081401
v 0.018289 -0.102699 0.043610
v 0.018289 -0.102699 0.081401
v 0.018289 -0.181642 0.081401
v -0.085552 -0.060539 0.043610
v -0.159605 -0.185571 0.063514
v -0.212061 -0.185571 0.069024
v 0.060255 -0.085295 0.043610
v 0.159119 -0.185571 0.073311
v 0.060255 -0.085295 0.081401
v 0.159119 -0.185571 0.063534
v 0.099081 0.018525 0.043610
v 0.243729 -0.018549 0.063155
v 0.099081 -0.018549 0.043610
v 0.269546 0.018525 0.066638
v 0.269546 -0.018549 0.066638
v 0.211499 -0.185571 0.071109
v 0.084990 -0.060539 0.043610
v 0.084990 -0.060539 0.081401
v 0.211499 -0.185571 0.069024
v -0.159605 -0.185571 0.073311
v -0.060817 -0.085295 0.043610
v -0.060817 -0.085295 0.081401
v -0.159605 -0.185571 0.063514
v 0.166853 -0.184149 0.083070
v -0.018775 0.181619 0.081401
v 0.018289 0.102675 0.043610
v -0.018775 0.102675 0.043610
v 0.018289 0.181619 0.081401
v 0.159119 0.185548 0.063514
v 0.211499 0.185548 0.069024
v 0.084990 0.060515 0.043610
v 0.018289 0.102675 0.043610
v 0.018289 0.181619 0.081401
v 0.018289 0.102675 0.081401
v -0.018775 -0.102699 0.043610
v -0.018775 -0.181642 0.081401
v -0.018775 -0.102699 0.081401
v -0.085552 -0.060539 0.043610
v -0.060817 -0.085295 0.043610
v -0.159605 -0.185571 0.063514
v 0.166853 0.184125 0.083070
v -0.167339 -0.184149 0.083070
v -0.167339 0.184125 0.083070
vn 0.3355 -0.9420 -0.0000
vn 0.2931 -0.6831 0.6689
vn 0.0710 -0.9975 -0.0001
vn -0.2933 0.6829 0.6691
vn -0.3358 0.9419 -0.0001
vn -0.5490 0.5147 0.6585
vn -0.0000 -1.0000 -0.0001
vn -0.0256 -0.9709 -0.2381
vn 0.2382 0.9412 -0.2396
vn 0.0181 0.9711 -0.2381
vn 0.0797 0.9957 -0.0474
vn -0.0000 -1.0000 -0.0002
vn 0.0222 -0.7357 0.6769
vn -0.0000 -1.0000 -0.0003
vn 0.0527 -0.7352 0.6758
vn -0.0251 0.9707 -0.2389
vn -0.0057 0.9988 -0.0487
vn 0.6764 0.7349 0.0495
vn 0.3364 0.9417 0.0008
vn 0.3381 0.6632 0.6678
vn -0.7071 0.7071 -0.0000
vn -0.0614 0.6560 0.7522
vn -0.0000 1.0000 -0.0000
vn -0.0793 0.6547 0.7517
vn -0.0000 1.0000 -0.0001
vn 0.0255 0.9709 -0.2381
vn -0.0648 0.9696 -0.2361
vn -0.0712 0.9975 0.0001
vn -0.0800 -0.9957 -0.0472
vn -0.3367 -0.9416 0.0012
vn -0.2385 -0.9411 -0.2396
vn 0.0527 0.7352 0.6758
vn -0.0000 1.0000 -0.0003
vn 0.0222 0.7357 0.6769
vn -0.0000 1.0000 -0.0002
vn 0.7082 -0.7060 -0.0011
vn 0.3638 -0.9004 -0.2386
vn 0.0057 -0.9988 -0.0487
vn -0.1373 -0.7269 0.6729
vn -0.0744 -0.6551 0.7519
vn -0.0527 -0.7352 0.6758
vn 0.0689 0.7348 0.6748
vn -0.8868 -0.3930 -0.2433
vn -0.6135 -0.7519 -0.2414
vn -0.7098 -0.7044 -0.0011
vn 0.0648 -0.9696 -0.2361
vn 0.0689 -0.7348 0.6747
vn 0.1363 -0.6503 0.7473
vn 0.6134 0.7519 -0.2415
vn 0.5491 -0.5141 0.6589
vn 0.1390 0.7969 0.5879
vn 0.0078 0.9709 -0.2392
vn -0.0080 0.9709 -0.2394
vn -0.3639 0.9004 -0.2383
vn 0.6750 -0.6971 -0.2417
vn 0.0188 0.9709 -0.2389
vn -0.0081 -0.9709 -0.2394
vn 0.0077 -0.9709 -0.2392
vn 0.0188 -0.9709 -0.2389
vn 0.0251 -0.9707 -0.2389
vn -0.0180 -0.9710 -0.2383
vn -0.0188 -0.9709 -0.2389
vn -0.0222 0.7357 0.6769
vn -0.1282 0.7283 0.6732
vn 0.0324 0.1612 0.9864
vn -0.0324 -0.1611 0.9864
vn 0.0324 -0.1609 0.9864
vn -0.0324 0.1612 0.9864
vn 0.1321 0.2359 0.9628
vn 0.1031 0.1274 0.9865
vn 0.1844 0.1690 0.9682
vn -0.2768 0.0728 0.9582
vn -0.3361 0.0217 0.9416
vn -0.2624 -0.0106 0.9649
vn -0.0975 0.1910 0.9767
vn -0.1840 -0.1711 0.9679
vn -0.1042 -0.1597 0.9816
vn -0.2814 -0.1468 0.9483
vn -0.3265 -0.0620 0.9431
vn -0.2555 0.1739 0.9510
vn -0.1790 0.1942 0.9645
vn -0.1209 0.2367 0.9640
vn 0.2337 0.0090 0.9723
vn 0.2752 -0.0723 0.9587
vn 0.3359 -0.0218 0.9416
vn 0.2285 -0.1390 0.9636
vn -0.7662 -0.6426 -0.0028
vn -0.4999 -0.8661 -0.0014
vn -0.7658 -0.6430 -0.0014
vn -0.5001 -0.8660 -0.0027
vn 0.7658 -0.6430 -0.0014
vn 0.9397 -0.3421 -0.0029
vn 0.9396 -0.3422 -0.0015
vn 0.7662 -0.6426 -0.0028
vn -0.1736 -0.9848 -0.0027
vn 0.1738 -0.9848 -0.0013
vn -0.1738 -0.9848 -0.0013
vn 0.1736 -0.9848 -0.0027
vn -0.1040 0.0960 -0.9899
vn -0.9397 0.3421 -0.0029
vn -1.0000 -0.0000 -0.0015
vn -0.9396 0.3422 -0.0014
vn -1.0000 -0.0000 -0.0029
vn 0.1257 -0.2121 0.9691
vn 0.1002 -0.1603 0.9820
vn 0.1726 -0.2243 0.9591
vn 0.3263 0.0610 0.9433
vn 0.2811 0.1456 0.9486
vn -0.0990 0.0990 -0.9901
vn -0.9396 -0.3422 -0.0015
vn -0.9397 -0.3421 -0.0029
vn -0.1738 0.9848 -0.0013
vn -0.5001 0.8660 -0.0027
vn -0.4999 0.8661 -0.0014
vn -0.1736 0.9848 -0.0027
vn -0.7661 0.6428 -0.0014
vn -0.9396 0.3422 -0.0000
vn -0.7658 0.6431 -0.0000
vn 0.9396 0.3422 -0.0000
vn 0.7658 0.6430 -0.0014
vn 0.7658 0.6430 -0.0000
vn 0.9396 0.3422 -0.0014
vn 0.7658 -0.6431 -0.0000
vn 0.9396 -0.3422 -0.0000
vn 1.0000 -0.0000 -0.0015
vn 1.0000 -0.0000 -0.0000
vn -0.7658 -0.6431 -0.0000
vn -0.4998 -0.8661 -0.0000
vn -0.1738 -0.9848 -0.0000
vn 0.1738 -0.9848 -0.0000
vn -0.9396 -0.3422 -0.0000
vn 0.4999 -0.8661 -0.0014
vn 0.5001 -0.8660 -0.0027
vn 0.9397 0.3421 -0.0029
vn 1.0000 -0.0000 -0.0029
vn -0.7662 0.6426 -0.0028
vn 0.7662 0.6426 -0.0028
vn 0.4999 0.8661 -0.0014
vn 0.5001 0.8660 -0.0027
vn 0.4998 0.8661 -0.0000
vn 0.1738 0.9848 -0.0013
vn 0.1738 0.9848 -0.0000
vn -1.0000 -0.0000 -0.0000
vn 0.1736 0.9848 -0.0027
vn 0.4998 -0.8661 -0.0000
vn -0.1738 0.9848 -0.0000
vn -0.4998 0.8661 -0.0000
vn -0.9956 -0.0835 0.0435
vn -0.9435 -0.3314 -0.0028
vn -0.7339 -0.2090 0.6463
vn 0.9656 0.0924 -0.2432
vn 0.9141 0.3278 -0.2389
vn 0.9438 0.3306 -0.0041
vn -0.9324 0.2662 -0.2446
vn -0.9950 0.0841 -0.0546
vn -0.9423 0.3349 -0.0030
vn -0.3697 -0.7219 0.5850
vn -0.0188 0.9709 -0.2389
vn 0.1130 -0.0005 -0.9936
vn 0.1130 -0.0006 -0.9936
vn 0.1133 -0.0004 -0.9936
vn 0.1130 -0.0010 -0.9936
vn -0.8258 0.0691 0.5596
vn -0.0222 -0.7357 0.6769
vn -0.5881 -0.4698 0.6584
vn 0.5891 0.4696 0.6576
vn 0.9956 0.0844 0.0418
vn 0.0328 -0.0000 -0.9995
vn -0.0328 -0.0000 -0.9995
vn 0.1055 0.0004 -0.9944
vn 0.1018 -0.0000 -0.9948
vn 0.1124 0.0008 -0.9937
vn -0.1125 -0.0000 -0.9936
vn -0.1126 -0.0000 -0.9936
vn -0.1071 -0.0000 -0.9943
vn -0.1120 -0.0001 -0.9937
vn -0.1119 -0.0004 -0.9937
vn -0.1118 0.0002 -0.9937
vn 0.1132 0.0015 -0.9936
vn 0.1126 0.0014 -0.9936
vn 0.1132 0.0004 -0.9936
vn 0.1131 -0.0000 -0.9936
vn 0.1131 0.0001 -0.9936
vn 0.1128 -0.0000 -0.9936
vn 0.1120 -0.0000 -0.9937
vn 0.1129 0.0006 -0.9936
vn -0.1133 -0.0000 -0.9936
vn 0.8259 -0.0687 0.5596
vn 0.7013 0.0484 0.7112
vn 0.9949 -0.0849 -0.0536
vn 0.1159 -0.0001 -0.9933
vn 0.1084 0.0001 -0.9941
vn 0.1094 -0.0001 -0.9940
vn 0.9548 -0.2936 0.0470
vn 0.7201 -0.2532 0.6461
vn -0.9662 -0.0926 -0.2404
vn 0.7340 0.2081 0.6464
vn 0.1137 -0.0010 -0.9935
vn 0.1128 -0.0005 -0.9936
vn 0.1132 -0.0010 -0.9936
vn 0.1137 -0.0005 -0.9935
vn 0.1143 0.0001 -0.9935
vn 0.1134 -0.0005 -0.9936
vn 0.1142 0.0001 -0.9935
vn -0.0778 -0.0000 -0.9970
vn 0.0779 -0.0000 -0.9970
vn -0.7307 0.6380 -0.2430
vn 0.1111 0.0001 -0.9938
vn 0.9665 -0.0669 -0.2478
vn -0.7186 0.2544 0.6472
vn 0.9328 -0.2662 -0.2428
vn 0.1055 -0.0004 -0.9944
vn 0.1014 -0.0000 -0.9948
vn 0.1132 -0.0005 -0.9936
vn -0.9683 0.0697 -0.2398
vn 0.1118 -0.0000 -0.9937
vn 0.1156 -0.0002 -0.9933
vn 0.0777 -0.0000 -0.9970
vn 0.1129 0.0001 -0.9936
vn -0.7025 -0.0495 0.7100
vn -0.1016 -0.0000 -0.9948
vn -0.9433 0.3321 -0.0000
vn -0.7096 0.7046 -0.0000
vn -0.7095 0.7047 -0.0000
vn -0.9433 0.3320 -0.0000
vn 0.1118 0.0002 -0.9937
vn -0.1149 -0.0000 -0.9934
vn -0.1132 -0.0000 -0.9936
vn -0.1118 -0.0000 -0.9937
vn -0.1117 -0.0000 -0.9937
vn 0.0699 0.9976 -0.0000
vn -0.0699 0.9976 -0.0000
vn -0.0698 0.9976 -0.0000
vn 0.0986 -0.0000 -0.9951
vn -0.1122 -0.0010 -0.9937
vn -0.1123 -0.0009 -0.9937
vn 0.0330 -0.0000 -0.9995
vn -0.0330 -0.0000 -0.9995
vn 0.9433 -0.3320 -0.0000
vn 0.7095 -0.7047 -0.0000
vn 0.3347 -0.9423 -0.0000
vn 0.3348 -0.9423 -0.0000
vn -0.0000 -1.0000 -0.0000
vn 0.0699 -0.9976 -0.0000
vn -0.0699 -0.9976 -0.0000
vn -0.0698 -0.9976 -0.0000
vn -0.7095 -0.7047 -0.0000
vn -0.3347 -0.9423 -0.0000
vn -0.3348 -0.9423 -0.0000
vn 0.9975 0.0702 -0.0000
vn 0.9975 -0.0704 -0.0000
vn 0.9975 0.0704 -0.0000
vn -0.0780 -0.0000 -0.9970
vn -0.1128 0.0009 -0.9936
vn -0.1052 0.0004 -0.9945
vn -0.1012 -0.0000 -0.9949
vn -0.1138 0.0001 -0.9935
vn -0.1129 -0.0000 -0.9936
vn -0.1138 -0.0000 -0.9935
vn -0.1128 -0.0001 -0.9936
vn -0.1130 -0.0001 -0.9936
vn -0.1129 0.0002 -0.9936
vn -0.1130 -0.0009 -0.9936
vn -0.1130 -0.0012 -0.9936
vn -0.9975 -0.0704 -0.0000
vn -0.9975 0.0705 -0.0000
vn -0.9975 -0.0705 -0.0000
vn -0.9975 0.0701 -0.0000
vn -0.9433 -0.3320 -0.0000
vn -0.1132 0.0006 -0.9936
vn -0.1127 -0.0004 -0.9936
vn -0.1124 0.0005 -0.9937
vn 0.7095 0.7047 -0.0000
vn 0.9433 0.3320 -0.0000
vn -0.1135 -0.0009 -0.9935
vn 0.3348 0.9423 -0.0000
vn -0.3348 0.9423 -0.0000
vn -0.0000 -0.4318 -0.9020
vn 0.7029 -0.7112 -0.0000
vn -0.7121 0.7021 -0.0000
vn 0.0991 -0.0990 -0.9901
vn 0.0990 0.0989 -0.9902
vn -0.1342 -0.0004 -0.9910
vn -0.1342 -0.0005 -0.9910
vn -0.1341 -0.0002 -0.9910
vn -0.1341 -0.0000 -0.9910
vn -0.1126 -0.0001 -0.9936
vn -0.1134 -0.0000 -0.9936
vn -0.1128 -0.0002 -0.9936
vn -0.1139 0.0002 -0.9935
vn 0.7124 0.7018 -0.0000
vn -0.1251 -0.2124 0.9691
vn 0.1038 -0.0962 -0.9899
vn -0.7029 0.7112 -0.0000
vn -0.7029 -0.7112 -0.0000
vn -0.1040 -0.0960 -0.9899
vn -0.7121 -0.7021 -0.0000
vn 0.1339 -0.0000 -0.9910
vn 0.1338 -0.0001 -0.9910
vn 0.1340 -0.0001 -0.9910
vn 0.7029 0.7112 -0.0000
vn 0.7124 -0.7018 -0.0000
vn 0.0767 -0.1605 0.9840
vn -0.0000 0.4318 -0.9020
vn 0.1041 0.0959 -0.9899
vn -0.0990 -0.0990 -0.9901
vn 0.0769 0.1610 0.9840
vn -0.0788 -0.1920 0.9782
vn -0.0769 0.1605 0.9840
vt 0.373836 0.496136
vt 0.373084 0.498574
vt 0.369605 0.495531
vt 0.242357 0.592691
vt 0.240938 0.594812
vt 0.239581 0.591020
vt 0.369327 0.495482
vt 0.364082 0.495479
vt 0.364360 0.492963
vt 0.374333 0.597603
vt 0.370276 0.598182
vt 0.369605 0.595748
vt 0.349476 0.495468
vt 0.336351 0.497996
vt 0.336512 0.495468
vt 0.349315 0.497996
vt 0.369567 0.598310
vt 0.364360 0.598316
vt 0.364082 0.595800
vt 0.377544 0.593010
vt 0.374538 0.594812
vt 0.373119 0.592691
vt 0.237931 0.593010
vt 0.266146 0.593283
vt 0.251446 0.595804
vt 0.251667 0.593280
vt 0.265924 0.595806
vt 0.251095 0.598314
vt 0.245907 0.598309
vt 0.246129 0.595793
vt 0.245854 0.495537
vt 0.241642 0.496135
vt 0.241143 0.493671
vt 0.349315 0.593283
vt 0.336512 0.595811
vt 0.336351 0.593283
vt 0.349476 0.595811
vt 0.251375 0.595798
vt 0.387046 0.499371
vt 0.390055 0.497572
vt 0.391029 0.499885
vt 0.251375 0.495481
vt 0.246465 0.497998
vt 0.246129 0.495486
vt 0.251654 0.497999
vt 0.265924 0.495473
vt 0.251667 0.497999
vt 0.251446 0.495475
vt 0.266146 0.497996
vt 0.363789 0.593283
vt 0.349551 0.595806
vt 0.349330 0.593283
vt 0.364010 0.595806
vt 0.233402 0.500712
vt 0.235073 0.497931
vt 0.237340 0.498951
vt 0.370276 0.493097
vt 0.364010 0.495473
vt 0.349330 0.497996
vt 0.349551 0.495473
vt 0.363789 0.497996
vt 0.369025 0.497998
vt 0.378909 0.595088
vt 0.376116 0.596763
vt 0.374374 0.502022
vt 0.371598 0.500351
vt 0.373017 0.498230
vt 0.369327 0.595797
vt 0.373836 0.595143
vt 0.369025 0.593281
vt 0.376023 0.500032
vt 0.336311 0.595817
vt 0.279164 0.598343
vt 0.279164 0.595817
vt 0.336311 0.598343
vt 0.239357 0.596767
vt 0.388233 0.501555
vt 0.245202 0.598182
vt 0.241143 0.597608
vt 0.241642 0.595144
vt 0.278963 0.595811
vt 0.265838 0.598337
vt 0.265999 0.595811
vt 0.278802 0.598333
vt 0.251225 0.598326
vt 0.265703 0.598328
vt 0.336311 0.492936
vt 0.279164 0.495462
vt 0.279164 0.492936
vt 0.336311 0.495462
vt 0.265703 0.492951
vt 0.251225 0.492953
vt 0.278802 0.492946
vt 0.265999 0.495468
vt 0.265838 0.492942
vt 0.278963 0.495468
vt 0.245202 0.493097
vt 0.364232 0.492951
vt 0.349772 0.492951
vt 0.336311 0.593283
vt 0.279164 0.593283
vt 0.246465 0.593281
vt 0.251654 0.593280
vt 0.373084 0.592705
vt 0.245907 0.492970
vt 0.251095 0.492965
vt 0.246452 0.593280
vt 0.245854 0.595743
vt 0.242393 0.592705
vt 0.240938 0.496467
vt 0.237931 0.498269
vt 0.236567 0.496191
vt 0.336311 0.591382
vt 0.279164 0.499897
vt 0.336311 0.499897
vt 0.279164 0.591382
vt 0.368808 0.591382
vt 0.363735 0.591382
vt 0.372389 0.590873
vt 0.239755 0.587544
vt 0.239258 0.583981
vt 0.239258 0.507298
vt 0.251721 0.591382
vt 0.243087 0.500406
vt 0.251721 0.499897
vt 0.241019 0.501657
vt 0.239755 0.503735
vt 0.241019 0.589622
vt 0.243087 0.590873
vt 0.246648 0.591382
vt 0.376218 0.583981
vt 0.375702 0.503735
vt 0.376218 0.507298
vt 0.374457 0.501657
vt 0.880075 0.235146
vt 0.884496 0.259347
vt 0.880231 0.259377
vt 0.884312 0.235116
vt 1.860677 -0.191302
vt 1.856361 -0.167082
vt 1.856416 -0.191314
vt 1.860601 -0.167070
vt 1.873316 -0.167010
vt 1.869202 -0.191266
vt 1.873464 -0.191242
vt 1.869077 -0.167034
vt -2.643353 1.592732
vt -2.662150 1.561519
vt -2.630250 1.592738
vt 0.867356 0.235211
vt 0.871707 0.259425
vt 0.867444 0.259443
vt 0.871595 0.235193
vt 0.368808 0.499897
vt 0.363735 0.499897
vt 0.372389 0.500406
vt 0.375702 0.587544
vt 0.374457 0.589622
vt -2.668264 1.567699
vt 0.875970 0.259404
vt 0.875834 0.235172
vt 0.854657 0.259470
vt 0.858878 0.235233
vt 0.858917 0.259465
vt 0.854640 0.235238
vt 0.863183 0.259468
vt 0.867449 0.279700
vt 0.863187 0.279701
vt 0.867444 0.259467
vt 1.847885 -0.211558
vt 1.843629 -0.191324
vt 1.843624 -0.211557
vt 1.847890 -0.191325
vt 1.860672 -0.211561
vt 1.856416 -0.191327
vt 1.856411 -0.211560
vt 1.860677 -0.191328
vt 1.852153 -0.191326
vt 1.852148 -0.211559
vt 0.888756 0.259313
vt 0.888550 0.235082
vt 0.884497 0.259463
vt 0.880236 0.279697
vt 0.880231 0.259464
vt 0.884502 0.279696
vt 1.869203 -0.191330
vt 1.873459 -0.211564
vt 1.873464 -0.191331
vt 1.869198 -0.211563
vt 0.875970 0.259465
vt 0.875975 0.279698
vt 1.864943 -0.191286
vt 1.864839 -0.167054
vt 1.852153 -0.191322
vt 1.847883 -0.167093
vt 1.852122 -0.167090
vt 0.863116 0.235224
vt 0.863183 0.259456
vt 1.843642 -0.167092
vt 1.839363 -0.191319
vt 1.839405 -0.167087
vt 1.839358 -0.211556
vt 1.835103 -0.191322
vt 1.835098 -0.211555
vt 1.839363 -0.191323
vt 0.871707 0.259466
vt 0.871712 0.279699
vt 1.835103 -0.191310
vt 1.835167 -0.167078
vt 0.850396 0.259471
vt 0.850401 0.235239
vt 1.864943 -0.191329
vt 1.864938 -0.211562
vt 0.854662 0.279703
vt 0.858917 0.259469
vt 0.858922 0.279702
vt 0.850400 0.279704
vt 0.888757 0.259462
vt 0.888761 0.279695
vt 0.234700 0.506868
vt 0.235308 0.502649
vt 0.237872 0.503105
vt 0.383201 0.584758
vt 0.382617 0.588814
vt 0.380162 0.588626
vt 0.232850 0.588823
vt 0.234700 0.584411
vt 0.235308 0.588630
vt 0.242357 0.498588
vt 0.336673 0.598333
vt 0.349638 0.598337
vt 0.369567 0.492969
vt 0.374333 0.493677
vt 0.369011 0.593283
vt 0.363803 0.593282
vt -1.845568 0.685430
vt -1.849053 0.684202
vt -1.848612 0.681118
vt -1.847233 0.688214
vt 0.349772 0.598328
vt 0.364232 0.598328
vt 0.363803 0.497997
vt 0.369011 0.497996
vt 0.237279 0.584120
vt 0.349638 0.492942
vt 0.336673 0.492946
vt 0.239357 0.494512
vt 0.279125 0.593283
vt 0.266161 0.593283
vt 0.246452 0.497999
vt 0.266161 0.497996
vt 0.279125 0.497996
vt 0.279164 0.497996
vt 0.336311 0.497996
vt 0.239581 0.500259
vt 0.375895 0.591020
vt 0.242393 0.498574
vt 0.380764 0.584403
vt -1.886719 0.686837
vt -1.943866 0.598968
vt -1.886719 0.598968
vt -1.943866 0.686837
vt -1.859276 0.690448
vt -1.859276 0.686837
vt -1.854336 0.686837
vt -1.976171 0.686851
vt -1.975939 0.638312
vt -1.971212 0.598982
vt -1.981455 0.684216
vt -1.980632 0.685593
vt -1.979253 0.686420
vt -1.847233 0.597591
vt -1.851254 0.599399
vt -1.850028 0.595920
vt -1.845568 0.600375
vt -1.849876 0.600226
vt -1.854337 0.598968
vt -1.859277 0.598968
vt -1.854088 0.690454
vt -1.976175 0.638283
vt -1.976407 0.598954
vt -1.971448 0.598954
vt -1.982131 0.681104
vt -1.981691 0.684187
vt 0.378180 0.507172
vt 0.380780 0.584149
vt 0.378180 0.584107
vt 0.380780 0.507130
vt -1.849876 0.685579
vt -1.848613 0.604687
vt 0.380162 0.502653
vt 0.378179 0.507158
vt 0.377602 0.503105
vt 0.232260 0.506514
vt 0.377602 0.588174
vt -1.850028 0.689885
vt -1.851254 0.686406
vt 0.232218 0.507172
vt 0.228599 0.507424
vt 0.228159 0.504340
vt 0.232218 0.584107
vt 0.228599 0.583855
vt 0.231644 0.588167
vt -1.956830 0.598968
vt -1.956830 0.686837
vt -1.873755 0.690448
vt -1.873755 0.686837
vt 0.235073 0.593348
vt 0.235526 0.589313
vt 0.237340 0.592328
vt 0.376858 0.504101
vt 0.235526 0.501966
vt 0.239550 0.500291
vt 0.237884 0.503070
vt 0.380764 0.506876
vt -1.849052 0.601603
vt 0.383242 0.584107
vt 0.383242 0.507172
vt 0.237884 0.588210
vt 0.239550 0.590988
vt 0.383201 0.506521
vt 0.382617 0.502466
vt -1.859276 0.595358
vt -1.854088 0.595352
vt 0.386402 0.503310
vt 0.382639 0.504807
vt 0.384434 0.501792
vt 0.384737 0.506095
vt 0.232260 0.584765
vt -1.873755 0.686837
vt -1.873755 0.598968
vt 0.234683 0.584149
vt 0.237278 0.507172
vt 0.237278 0.584107
vt 0.234683 0.507130
vt 0.378179 0.584121
vt 0.231644 0.503112
vt 0.227335 0.502963
vt -1.976248 0.686837
vt -1.971289 0.598968
vt -1.971289 0.686837
vt 0.389421 0.505454
vt 0.388105 0.502963
vt 0.390242 0.504076
vt 0.387282 0.504340
vt 0.232850 0.502456
vt 0.379942 0.589317
vt 0.375927 0.590987
vt 0.377591 0.588208
vt 0.378137 0.592326
vt 0.237279 0.507159
vt 0.378715 0.502282
vt 0.233402 0.590568
vt -1.981972 0.681118
vt -1.981972 0.604687
vt -1.981532 0.601603
vt -1.979331 0.599399
vt -1.976248 0.598968
vt -1.980709 0.600226
vt -1.859363 0.599221
vt -1.854455 0.596250
vt -1.854455 0.598660
vt -1.859363 0.596812
vt -1.873783 0.600523
vt -1.873783 0.598113
vt -1.886719 0.601373
vt -1.943866 0.601373
vt -1.956802 0.600523
vt -1.956802 0.598113
vt -1.971203 0.599221
vt -1.971203 0.596812
vt -1.976130 0.598660
vt -1.976130 0.596250
vt 0.380407 0.593340
vt 0.382070 0.590554
vt 0.237872 0.588174
vt -1.971290 0.595358
vt -1.976497 0.595352
vt -1.943866 0.595358
vt -1.886719 0.595358
vt -1.848686 0.683524
vt -1.849666 0.686159
vt -1.850262 0.683825
vt -1.848091 0.685854
vt -1.851850 0.684071
vt -1.859363 0.691398
vt -1.854455 0.689550
vt -1.854455 0.691960
vt -1.859363 0.688989
vt -1.873783 0.690097
vt -1.873783 0.687687
vt -1.886719 0.689242
vt -1.943866 0.689242
vt -1.956802 0.690097
vt -1.956802 0.687687
vt -1.971203 0.691398
vt -1.971203 0.688989
vt -1.976130 0.691960
vt -1.976130 0.689550
vt -1.983631 0.686082
vt -1.980887 0.687348
vt -1.983278 0.687650
vt -1.981240 0.685780
vt -1.846203 0.681118
vt -1.846203 0.604687
vt -1.956830 0.595358
vt -1.976497 0.690454
vt -1.971290 0.690448
vt 0.388221 0.507322
vt 0.384182 0.510154
vt 0.387781 0.510406
vt 0.384182 0.587089
vt 0.387781 0.586837
vt 0.388221 0.589921
vt 0.384737 0.591149
vt 0.389045 0.591299
vt -1.984382 0.681118
vt -1.984382 0.604687
vt -1.981532 0.684202
vt -1.983925 0.684504
vt -1.873755 0.595358
vt -1.873755 0.598968
vt -1.977115 0.689948
vt -1.975889 0.686469
vt -1.972807 0.686900
vt -1.851003 0.680815
vt -1.851438 0.683899
vt -1.849960 0.603036
vt -1.851308 0.602164
vt -1.848532 0.601102
vt -1.854932 0.684502
vt -1.979910 0.688277
vt -1.852686 0.601338
vt 0.388981 0.501615
vt 0.391118 0.502729
vt -1.943866 0.690448
vt -1.956830 0.690448
vt -1.886719 0.690448
vt -2.910567 -0.380686
vt -2.919774 -0.402428
vt -2.910567 -0.402428
vt -2.919774 -0.380686
vt -2.979835 0.636347
vt -2.944832 0.627045
vt -2.943575 0.636348
vt -2.986307 0.636348
vt -1.983925 0.601301
vt -1.984363 0.604385
vt -1.976844 0.596634
vt -1.979926 0.597065
vt 0.226209 0.507727
vt 0.225773 0.504643
vt -2.749407 0.593216
vt -2.724938 0.556295
vt -2.717492 0.562012
vt -2.749817 0.592901
vt -2.734856 0.595159
vt -2.711380 0.568196
vt -2.705725 0.575689
vt -2.736323 0.593216
vt -2.942769 0.623153
vt -2.961585 0.591940
vt -2.936655 0.616973
vt -1.888091 0.651099
vt -1.845454 0.651099
vt -1.886832 0.660403
vt -1.850659 0.597065
vt -1.853741 0.596634
vt -2.986306 0.645558
vt -2.943575 0.645558
vt -2.944832 0.654861
vt -1.888091 0.641890
vt -1.845454 0.641890
vt -1.984363 0.681420
vt -1.973056 0.690517
vt -1.967848 0.686900
vt -1.979926 0.688740
vt -1.976844 0.689172
vt -1.979331 0.686406
vt -1.980556 0.595920
vt 0.390876 0.504190
vt 0.390052 0.505567
vt -1.980709 0.685579
vt -1.983352 0.688214
vt -1.985017 0.685430
vt -1.886831 0.632587
vt -2.644821 1.594673
vt -2.673925 1.575187
vt 0.246648 0.499897
vt -2.974669 0.591934
vt -1.875746 0.637657
vt -1.851295 0.600725
vt -1.850884 0.601040
vt -1.883195 0.631944
vt -2.912200 2.666202
vt -2.903732 2.670256
vt -2.912200 2.687944
vt -2.629839 1.592423
vt -2.654700 1.555806
vt -2.928242 -0.384740
vt -1.864398 0.600731
vt -2.960121 0.590002
vt -2.930996 0.609482
vt -2.943587 0.645480
vt -2.979847 0.636270
vt -2.943587 0.636270
vt -2.986318 0.645480
vt -2.986318 0.636270
vt -2.975080 0.592249
vt -2.950218 0.628866
vt -1.865866 0.598790
vt -1.889309 0.625764
vt -1.894971 0.618276
vt 0.349275 0.499897
vt -2.921407 2.666202
vt -2.921407 2.687944
vt -2.929875 2.670256
vt -2.902099 -0.384740
vt 0.349275 0.591382
vt 0.266200 0.499897
vt 0.266200 0.591382
vt 0.373119 0.498588
vt 0.375895 0.500259
vt 0.375927 0.500292
vt 0.377591 0.503071
vt 0.236567 0.595088
s 1
usemtl _.001
f 1/1/1 2/2/2 3/3/3
f 4/4/4 5/5/5 6/6/6
f 3/7/3 7/8/7 8/9/8
f 9/10/9 10/11/10 11/12/11
f 12/13/12 13/14/13 14/15/14
f 13/14/13 12/13/12 15/16/15
f 10/17/10 16/18/16 17/19/17
f 18/20/18 19/21/19 20/22/20
f 5/5/5 21/23/21 6/6/6
f 22/24/22 23/25/23 24/26/24
f 23/25/23 22/24/22 25/27/25
f 26/28/26 27/29/27 28/30/28
f 29/31/29 30/32/30 31/33/31
f 32/34/32 33/35/33 34/36/34
f 33/35/33 32/34/32 35/37/35
f 26/28/26 28/30/28 23/38/23
f 36/39/36 1/40/1 37/41/37
f 38/42/38 39/43/39 29/44/29
f 39/43/39 38/42/38 40/45/40
f 41/46/7 40/47/40 38/48/38
f 40/47/40 41/46/7 42/49/41
f 43/50/42 35/51/35 32/52/32
f 35/51/35 43/50/42 17/53/17
f 44/54/43 45/55/44 46/56/45
f 1/1/1 3/3/3 47/57/46
f 7/58/7 15/59/15 12/60/12
f 15/59/15 7/58/7 48/61/47
f 2/2/2 49/62/48 3/3/3
f 50/63/49 9/64/9 19/21/19
f 51/65/50 2/66/2 1/67/1
f 11/68/11 10/17/10 17/19/17
f 19/69/19 11/12/11 52/70/51
f 36/71/36 51/65/50 1/67/1
f 33/72/33 53/73/52 54/74/33
f 53/73/52 33/72/33 55/75/53
f 56/76/54 21/23/21 5/5/5
f 19/69/19 9/10/9 11/12/11
f 18/20/18 50/63/49 19/21/19
f 36/39/36 37/41/37 57/77/55
f 27/78/27 56/79/54 5/80/5
f 54/81/33 58/82/56 25/83/25
f 58/82/56 54/81/33 53/84/52
f 25/27/25 26/85/26 23/25/23
f 26/85/26 25/27/25 58/86/56
f 59/87/57 60/88/14 61/89/58
f 60/88/14 59/87/57 14/90/14
f 62/91/59 38/48/38 63/92/60
f 38/48/38 62/91/59 41/46/7
f 61/93/58 41/94/7 62/95/59
f 41/94/7 61/93/58 60/96/14
f 64/97/61 29/31/29 31/33/31
f 8/98/8 12/60/12 65/99/62
f 12/60/12 8/98/8 7/58/7
f 34/100/34 54/74/33 66/101/63
f 54/74/33 34/100/34 33/72/33
f 67/102/64 23/38/23 28/30/28
f 23/38/23 67/102/64 24/103/24
f 19/69/19 52/70/51 20/104/20
f 38/42/38 64/105/61 63/106/60
f 67/107/64 28/108/28 4/109/4
f 38/42/38 29/44/29 64/105/61
f 30/110/30 46/111/45 45/112/44
f 68/113/65 69/114/66 70/115/67
f 69/114/66 68/113/65 71/116/68
f 72/117/69 73/118/70 74/119/71
f 75/120/72 76/121/73 77/122/74
f 78/123/75 79/124/76 80/125/77
f 79/124/76 78/123/75 81/126/78
f 81/126/78 78/123/75 82/127/79
f 82/127/79 78/123/75 77/122/74
f 77/122/74 78/123/75 75/120/72
f 75/120/72 78/123/75 83/128/80
f 83/128/80 78/123/75 84/129/81
f 84/129/81 78/123/75 85/130/82
f 86/131/83 87/132/84 88/133/85
f 86/131/83 89/134/86 87/132/84
f 90/135/87 91/136/88 92/137/89
f 91/136/88 90/135/87 93/138/90
f 94/139/91 95/140/92 96/141/93
f 95/140/92 94/139/91 97/142/94
f 98/143/95 99/144/96 100/145/97
f 99/144/96 98/143/95 101/146/98
f 102/147/99 103/148/99 104/149/99
f 105/150/100 106/151/101 107/152/102
f 106/151/101 105/150/100 108/153/103
f 109/154/104 73/118/70 110/155/105
f 73/118/70 109/154/104 111/156/106
f 73/118/70 111/156/106 89/134/86
f 73/118/70 89/134/86 86/131/83
f 73/118/70 86/131/83 112/157/107
f 73/118/70 112/157/107 113/158/108
f 73/118/70 113/158/108 74/119/71
f 114/147/109 115/159/109 116/148/109
f 108/153/103 117/160/110 106/151/101
f 117/160/110 108/153/103 118/161/111
f 119/162/112 120/163/113 121/164/114
f 120/163/113 119/162/112 122/165/115
f 123/166/116 124/167/117 125/168/118
f 124/167/117 123/166/116 107/169/102
f 126/170/119 127/171/120 128/172/121
f 127/171/120 126/170/119 129/173/122
f 130/174/123 96/175/93 131/176/124
f 96/175/93 130/174/123 94/177/91
f 131/176/124 132/178/125 133/179/126
f 132/178/125 131/176/124 96/175/93
f 93/138/90 100/180/97 91/136/88
f 100/180/97 93/138/90 98/181/95
f 91/182/88 134/183/127 92/184/89
f 134/183/127 91/182/88 135/185/128
f 99/186/96 136/187/129 100/188/97
f 136/187/129 99/186/96 137/189/130
f 117/190/110 134/183/127 138/191/131
f 134/183/127 117/190/110 92/184/89
f 97/142/94 139/192/132 140/193/133
f 139/192/132 97/142/94 94/139/91
f 140/193/133 99/144/96 101/146/98
f 99/144/96 140/193/133 139/192/132
f 132/194/125 141/195/134 129/173/122
f 141/195/134 132/194/125 142/196/135
f 143/197/136 107/152/102 123/198/116
f 107/152/102 143/197/136 105/150/100
f 129/173/122 144/199/137 127/171/120
f 144/199/137 129/173/122 141/195/134
f 145/200/138 144/199/137 146/201/139
f 144/199/137 145/200/138 127/171/120
f 147/202/140 148/203/141 149/204/142
f 148/203/141 147/202/140 145/205/138
f 106/206/101 138/191/131 150/207/143
f 138/191/131 106/206/101 117/190/110
f 118/161/111 92/137/89 117/160/110
f 92/137/89 118/161/111 90/135/87
f 107/169/102 150/207/143 124/167/117
f 150/207/143 107/169/102 106/206/101
f 148/208/141 146/201/139 151/209/144
f 146/201/139 148/208/141 145/200/138
f 121/164/114 143/197/136 123/198/116
f 143/197/136 121/164/114 120/163/113
f 148/210/141 122/165/115 119/162/112
f 122/165/115 148/210/141 151/211/144
f 139/212/132 137/189/130 99/186/96
f 137/189/130 139/212/132 152/213/145
f 133/179/126 129/173/122 126/170/119
f 129/173/122 133/179/126 132/178/125
f 153/214/146 121/215/114 154/216/147
f 121/215/114 153/214/146 119/162/112
f 94/177/91 152/213/145 139/212/132
f 152/213/145 94/177/91 130/174/123
f 154/216/147 123/166/116 125/168/118
f 123/166/116 154/216/147 121/215/114
f 128/172/121 145/205/138 147/202/140
f 145/205/138 128/172/121 127/171/120
f 149/217/142 119/162/112 153/214/146
f 119/162/112 149/217/142 148/210/141
f 100/218/97 135/185/128 91/182/88
f 135/185/128 100/218/97 136/219/129
f 96/141/93 142/196/135 132/194/125
f 142/196/135 96/141/93 95/140/92
f 155/220/148 156/221/149 157/222/150
f 158/223/151 159/224/152 160/225/153
f 161/226/154 162/227/155 163/228/156
f 164/229/157 46/111/45 30/110/30
f 35/37/35 55/230/53 33/35/33
f 55/230/53 35/37/35 165/231/158
f 27/78/27 5/80/5 28/108/28
f 3/7/3 8/9/8 47/232/46
f 1/1/1 47/57/46 37/233/37
f 52/234/51 17/19/17 43/235/42
f 17/19/17 52/234/51 11/68/11
f 166/236/159 167/237/160 168/238/161
f 167/237/160 166/236/159 169/239/162
f 17/53/17 165/240/158 35/51/35
f 165/240/158 17/53/17 16/241/16
f 3/7/3 48/242/47 7/8/7
f 48/242/47 3/7/3 49/243/48
f 162/227/155 170/244/163 163/228/156
f 65/245/62 14/15/14 59/246/57
f 14/15/14 65/245/62 12/13/12
f 31/247/31 30/110/30 45/112/44
f 66/248/63 25/83/25 22/249/22
f 25/83/25 66/248/63 54/81/33
f 39/250/39 30/32/30 29/31/29
f 60/96/14 42/251/41 41/94/7
f 42/251/41 60/96/14 171/252/164
f 14/90/14 171/253/164 60/88/14
f 171/253/164 14/90/14 13/254/13
f 164/229/157 172/255/165 46/111/45
f 18/20/18 20/22/20 173/256/166
f 28/108/28 5/80/5 4/109/4
f 39/250/39 164/257/157 30/32/30
f 158/223/151 160/225/153 174/258/167
f 175/259/168 176/260/169 177/261/168
f 176/260/169 175/259/168 178/262/169
f 179/263/170 180/264/171 181/265/172
f 182/266/173 183/267/174 184/268/175
f 183/267/174 182/266/173 185/269/176
f 185/269/176 182/266/173 186/270/177
f 186/270/177 182/266/173 187/271/178
f 188/272/179 189/273/180 190/274/181
f 189/273/180 188/272/179 191/275/182
f 189/273/180 191/275/182 192/276/183
f 193/277/184 194/264/171 195/278/171
f 194/264/171 193/277/184 196/265/185
f 197/279/186 179/263/170 181/265/172
f 183/280/174 198/281/174 184/282/175
f 198/281/174 183/280/174 199/283/187
f 199/283/187 183/280/174 185/284/176
f 200/285/188 174/286/167 201/287/189
f 174/286/167 200/285/188 202/288/190
f 203/289/191 204/290/192 205/237/193
f 206/291/194 200/292/188 207/293/195
f 208/294/196 156/221/149 155/220/148
f 174/258/167 160/225/153 209/295/197
f 210/296/198 211/297/199 212/289/200
f 213/298/201 214/299/202 215/300/203
f 214/299/202 213/298/201 216/301/204
f 214/299/202 216/301/204 168/302/161
f 168/302/161 216/301/204 166/303/159
f 178/262/169 217/304/205 176/260/169
f 217/304/205 178/262/169 218/305/205
f 180/264/171 219/306/206 220/307/206
f 219/306/206 180/264/171 179/263/170
f 221/308/207 163/309/156 21/310/21
f 36/71/36 207/311/195 51/65/50
f 156/312/149 172/313/165 157/314/150
f 202/315/190 200/292/188 206/291/194
f 196/265/185 222/316/208 204/290/192
f 44/54/43 46/56/45 156/312/149
f 202/288/190 158/317/151 174/286/167
f 158/317/151 202/288/190 223/318/209
f 21/310/21 224/319/210 6/320/6
f 223/321/209 202/315/190 225/322/211
f 226/278/212 227/323/213 228/324/214
f 57/325/55 206/326/194 36/327/36
f 206/326/194 57/325/55 225/328/211
f 163/309/156 224/319/210 21/310/21
f 229/329/215 162/227/155 161/226/154
f 230/273/216 196/265/185 193/277/184
f 196/265/185 230/273/216 231/276/217
f 225/322/211 202/315/190 206/291/194
f 195/278/171 232/330/218 233/331/218
f 232/330/218 195/278/171 194/264/171
f 189/273/180 234/277/219 190/274/181
f 162/332/155 235/333/220 170/334/163
f 235/333/220 162/332/155 155/335/148
f 174/258/167 209/295/197 201/336/189
f 197/279/186 181/265/172 211/297/199
f 190/274/181 226/278/212 228/324/214
f 226/278/212 190/274/181 234/277/219
f 191/337/182 215/300/203 192/338/183
f 215/300/203 191/337/182 213/298/201
f 233/331/218 175/259/168 177/261/168
f 175/259/168 233/331/218 232/330/218
f 182/339/173 184/340/175 236/341/221
f 237/342/222 238/343/223 239/344/224
f 238/343/223 237/342/222 240/345/225
f 203/289/191 196/265/185 204/290/192
f 196/265/185 203/289/191 241/297/226
f 196/265/185 231/276/217 222/316/208
f 208/294/196 44/346/43 156/221/149
f 160/347/153 173/348/166 209/349/197
f 156/312/149 46/56/45 172/313/165
f 160/347/153 18/350/18 173/348/166
f 155/220/148 157/222/150 235/351/220
f 197/279/186 211/297/199 210/296/198
f 206/352/194 207/311/195 36/71/36
f 161/353/154 163/309/156 221/308/207
f 199/354/187 242/355/227 243/356/228
f 199/354/187 244/357/229 198/358/174
f 244/357/229 199/354/187 245/359/230
f 245/359/230 199/354/187 243/356/228
f 246/360/23 247/361/231 248/362/231
f 247/361/231 246/360/23 249/363/23
f 249/363/23 246/360/23 250/364/23
f 249/363/23 250/364/23 251/365/23
f 251/365/23 250/364/23 252/366/23
f 251/365/23 252/366/23 253/261/23
f 253/261/23 252/366/23 254/367/23
f 253/261/23 254/367/23 255/260/23
f 255/260/23 254/367/23 256/368/23
f 255/260/23 256/368/23 257/369/23
f 257/369/23 256/368/23 258/370/23
f 257/369/23 258/370/23 259/371/23
f 259/371/23 258/370/23 260/372/232
f 259/371/23 260/372/232 261/373/233
f 205/237/193 204/290/192 262/238/234
f 160/347/153 50/374/49 18/350/18
f 50/374/49 160/347/153 159/375/152
f 163/228/156 170/244/163 224/376/210
f 169/239/162 212/289/200 167/237/160
f 212/289/200 169/239/162 210/296/198
f 263/377/235 264/357/235 265/378/236
f 264/357/235 263/377/235 266/358/236
f 267/261/237 268/379/238 269/380/237
f 268/379/238 267/261/237 270/260/238
f 229/301/215 155/335/148 162/332/155
f 155/335/148 229/301/215 208/298/196
f 218/305/205 184/340/175 217/304/205
f 184/340/175 218/305/205 236/341/221
f 271/381/239 272/382/240 273/383/240
f 272/382/240 271/381/239 274/384/239
f 275/297/241 273/383/240 272/382/240
f 273/383/240 275/297/241 276/385/242
f 277/358/228 278/377/221 279/340/221
f 280/386/243 281/387/244 282/388/244
f 281/387/244 280/386/243 283/389/243
f 283/389/243 280/386/243 284/390/243
f 283/389/243 284/390/243 285/391/243
f 285/391/243 284/390/243 286/392/243
f 285/391/243 286/392/243 287/259/243
f 287/259/243 286/392/243 288/393/243
f 287/259/243 288/393/243 289/262/243
f 289/262/243 288/393/243 290/394/243
f 289/262/243 290/394/243 291/395/243
f 291/395/243 290/394/243 292/396/243
f 291/395/243 292/396/243 293/397/243
f 293/397/243 292/396/243 294/398/245
f 293/397/243 294/398/245 295/399/246
f 296/400/247 297/401/248 298/402/249
f 297/401/248 296/400/247 299/403/247
f 300/290/250 301/404/251 302/238/251
f 301/404/251 300/290/250 303/405/252
f 270/260/238 304/406/253 268/379/238
f 304/406/253 270/260/238 305/304/253
f 306/407/254 307/341/255 308/408/256
f 309/409/257 310/328/258 311/325/259
f 310/328/258 309/409/257 312/410/260
f 312/410/260 309/409/257 313/411/258
f 312/410/260 313/411/258 314/412/261
f 314/412/261 313/411/258 315/413/258
f 314/412/261 315/413/258 316/414/262
f 314/412/261 316/414/262 317/415/263
f 317/415/263 316/414/262 318/416/264
f 319/417/265 320/355/266 321/354/267
f 320/355/266 319/417/265 322/418/268
f 296/400/247 323/419/269 299/403/247
f 323/419/269 296/400/247 324/420/269
f 325/421/206 267/261/237 269/380/237
f 267/261/237 325/421/206 326/422/206
f 327/423/270 328/424/271 329/425/272
f 302/426/251 274/237/239 271/427/239
f 274/237/239 302/426/251 301/238/251
f 330/276/273 331/428/274 332/429/273
f 331/428/274 330/276/273 333/430/274
f 282/265/244 276/385/242 275/297/241
f 276/385/242 282/265/244 281/431/244
f 327/423/270 334/432/275 328/424/271
f 335/433/276 330/276/273 332/429/273
f 330/276/273 335/433/276 336/273/276
f 239/344/224 337/434/277 338/435/277
f 337/434/277 239/344/224 238/343/223
f 339/436/238 340/305/253 341/262/238
f 340/305/253 339/436/238 342/437/253
f 342/437/253 307/341/255 340/305/253
f 307/341/255 342/437/253 308/408/256
f 220/307/206 343/438/237 344/259/237
f 343/438/237 220/307/206 219/306/206
f 345/439/278 346/440/278 347/441/278
f 346/440/278 345/439/278 348/442/278
f 349/443/243 350/444/243 351/445/243
f 350/444/243 349/443/243 352/446/243
f 305/304/253 278/377/221 304/406/253
f 278/377/221 305/304/253 279/340/221
f 320/355/266 240/447/225 237/356/222
f 240/447/225 320/355/266 322/448/268
f 338/357/277 261/449/233 260/358/232
f 261/449/233 338/357/277 337/450/277
f 227/323/213 326/422/206 325/421/206
f 326/422/206 227/323/213 226/278/212
f 333/300/274 300/451/250 331/452/274
f 300/451/250 333/300/274 303/299/252
f 353/453/279 354/454/279 355/455/279
f 354/454/279 353/453/279 356/456/279
f 343/438/237 341/262/238 344/259/237
f 341/262/238 343/438/237 339/436/238
f 357/457/280 358/458/280 359/459/280
f 358/458/280 357/457/280 360/460/280
f 361/461/281 362/462/281 363/463/281
f 364/464/23 365/465/23 366/466/23
f 248/277/231 336/467/276 335/273/276
f 336/467/276 248/277/231 247/468/231
f 367/469/23 368/470/23 369/471/23
f 370/460/282 371/455/282 372/458/282
f 373/465/283 374/472/284 375/473/285
f 374/472/284 373/465/283 376/464/286
f 324/420/269 321/354/267 323/419/269
f 321/354/267 324/420/269 319/474/265
f 306/475/254 329/425/272 307/476/255
f 329/425/272 306/475/254 327/423/270
f 298/477/249 295/339/246 294/478/245
f 295/339/246 298/477/249 297/479/248
f 377/357/287 378/480/288 379/378/289
f 378/480/288 377/357/287 380/359/290
f 380/481/290 311/77/259 378/41/288
f 311/77/259 380/481/290 309/482/257
f 318/483/264 334/484/275 317/485/263
f 334/484/275 318/483/264 328/479/271
f 381/486/243 382/473/243 383/472/243
f 384/159/291 385/487/291 386/488/291
f 385/487/291 384/159/291 387/147/291
f 388/489/292 39/43/39 80/125/77
f 389/461/293 390/490/293 391/462/293
f 392/491/294 393/492/294 394/493/294
f 393/492/294 392/491/294 395/494/294
f 396/495/143 397/496/143 398/497/143
f 173/256/166 74/119/71 113/158/108
f 399/148/295 400/498/295 401/149/295
f 400/498/295 399/148/295 402/499/295
f 403/442/126 404/500/126 405/440/126
f 406/494/296 407/501/296 408/492/296
f 409/463/297 410/502/297 411/503/297
f 410/502/297 409/463/297 412/462/297
f 413/504/298 414/505/299 415/506/298
f 414/505/299 413/504/298 416/507/299
f 416/507/299 417/508/300 414/505/299
f 418/509/301 419/461/301 420/510/301
f 419/461/301 418/509/301 421/490/301
f 422/511/302 423/512/302 424/513/302
f 423/512/302 422/511/302 425/501/302
f 15/16/15 70/115/67 13/14/13
f 70/115/67 15/16/15 426/514/303
f 88/133/85 207/293/195 200/292/188
f 427/497/304 428/515/304 429/495/304
f 428/515/304 427/497/304 430/516/304
f 52/70/51 72/117/69 20/104/20
f 79/124/76 172/255/165 164/229/157
f 173/348/166 113/158/108 209/349/197
f 431/460/305 432/453/305 433/455/305
f 434/515/126 435/516/126 436/517/126
f 437/439/143 438/441/143 439/518/143
f 440/494/306 441/512/306 442/501/306
f 81/126/78 172/255/165 79/124/76
f 111/156/106 49/62/48 2/2/2
f 80/125/77 39/43/39 40/45/40
f 235/351/220 157/222/150 82/127/79
f 110/155/105 443/519/307 426/514/303
f 443/519/307 110/155/105 73/118/70
f 113/158/108 112/157/107 209/349/197
f 34/100/34 71/116/68 68/113/65
f 71/116/68 34/100/34 66/101/63
f 443/519/307 34/36/34 68/113/65
f 34/36/34 443/519/307 32/34/32
f 24/103/24 85/130/82 78/123/75
f 444/520/308 40/47/40 42/49/41
f 22/24/22 78/123/75 445/521/309
f 388/489/292 164/257/157 39/250/39
f 164/257/157 388/489/292 79/124/76
f 89/134/86 2/522/2 51/523/50
f 82/127/79 157/314/150 81/126/78
f 49/243/48 110/155/105 48/242/47
f 110/155/105 49/243/48 109/154/104
f 88/133/85 87/132/84 207/293/195
f 48/61/47 426/514/303 15/59/15
f 426/514/303 48/61/47 110/155/105
f 426/514/303 68/113/65 70/115/67
f 68/113/65 426/514/303 443/519/307
f 79/124/76 388/489/292 80/125/77
f 112/157/107 86/131/83 201/336/189
f 224/376/210 170/244/163 76/121/73
f 20/104/20 72/117/69 74/119/71
f 6/320/6 224/319/210 75/120/72
f 6/320/6 75/120/72 83/128/80
f 111/156/106 109/154/104 49/62/48
f 4/4/4 6/6/6 83/128/80
f 67/102/64 85/130/82 24/103/24
f 87/132/84 89/134/86 51/524/50
f 77/122/74 235/351/220 82/127/79
f 73/118/70 32/52/32 443/519/307
f 32/52/32 73/118/70 43/50/42
f 209/295/197 112/157/107 201/336/189
f 157/314/150 172/313/165 81/126/78
f 24/26/24 78/123/75 22/24/22
f 87/132/84 51/524/50 207/525/195
f 4/4/4 83/128/80 84/129/81
f 445/521/309 80/125/77 444/520/308
f 80/125/77 445/521/309 78/123/75
f 85/130/82 4/109/4 84/129/81
f 4/109/4 85/130/82 67/107/64
f 201/287/189 88/133/85 200/285/188
f 88/133/85 201/287/189 86/131/83
f 80/125/77 40/47/40 444/520/308
f 89/134/86 111/156/106 2/522/2
f 77/122/74 170/334/163 235/333/220
f 170/334/163 77/122/74 76/121/73
f 20/22/20 74/119/71 173/256/166
f 224/376/210 76/121/73 75/120/72
f 56/76/54 221/526/207 21/23/21
f 69/114/66 42/251/41 171/252/164
f 42/251/41 69/114/66 444/520/308
f 70/115/67 171/253/164 13/254/13
f 171/253/164 70/115/67 69/114/66
f 66/248/63 445/521/309 71/116/68
f 445/521/309 66/248/63 22/249/22
f 72/117/69 43/235/42 73/118/70
f 43/235/42 72/117/69 52/234/51
f 71/116/68 444/520/308 69/114/66
f 444/520/308 71/116/68 445/521/309
