# Blender 5.0.1
# www.blender.org
mtllib dials.mtl
o Ammeter3-4Dial
g dials
v -0.676141 3.290087 6.795642
v -0.676141 3.280345 6.785063
v -0.676141 3.270350 6.775194
v -0.676141 3.260355 6.766016
v -0.676141 3.250360 6.758379
v -0.676141 3.240364 6.751869
v -0.676141 3.230369 6.746153
v -0.676141 3.220120 6.741132
v -0.676141 3.209870 6.736869
v -0.676141 3.199875 6.733680
v -0.676141 3.189880 6.730507
v -0.676141 3.179885 6.728608
v -0.676141 3.169889 6.726890
v -0.676141 3.159894 6.725799
v -0.620102 3.290087 6.795642
v -0.620102 3.280345 6.785063
v -0.620102 3.270350 6.775194
v -0.620102 3.260355 6.766016
v -0.620102 3.250360 6.758379
v -0.620102 3.240364 6.751869
v -0.620102 3.230369 6.746153
v -0.620102 3.220120 6.741132
v -0.620102 3.209870 6.736869
v -0.620102 3.199875 6.733680
v -0.620102 3.189880 6.730507
v -0.620102 3.179885 6.728608
v -0.620102 3.169889 6.726890
v -0.620102 3.159894 6.725799
v -0.676141 3.148938 6.725631
v -0.620102 3.148938 6.725631
vn -0.0000 0.0620 -0.9981
vn -0.0000 0.0152 -0.9999
vn -0.0000 0.1390 -0.9903
vn -0.0000 0.1780 -0.9840
vn -0.0000 0.2451 -0.9695
vn -0.0000 0.3032 -0.9529
vn -0.0000 0.3443 -0.9389
vn -0.0000 0.4122 -0.9111
vn -0.0000 0.4684 -0.8835
vn -0.0000 0.5213 -0.8534
vn -0.0000 0.5768 -0.8169
vn -0.0000 0.6424 -0.7664
vn -0.0000 0.6896 -0.7242
vn -0.0000 0.7193 -0.6947
vn -0.0000 0.7357 -0.6774
vt 0.557661 0.359044
vt 0.445933 0.337198
vt 0.557661 0.337198
vt 0.557661 0.379091
vt 0.445933 0.359044
vt 0.557661 0.399311
vt 0.445933 0.379091
vt 0.557661 0.419596
vt 0.445933 0.399311
vt 0.557661 0.440503
vt 0.445933 0.419596
vt 0.557661 0.461421
vt 0.445933 0.440503
vt 0.557661 0.483553
vt 0.445933 0.461421
vt 0.557661 0.506308
vt 0.445933 0.483553
vt 0.557661 0.529265
vt 0.445933 0.506308
vt 0.557661 0.553047
vt 0.445933 0.529265
vt 0.557661 0.578126
vt 0.445933 0.553047
vt 0.557661 0.605181
vt 0.445933 0.578126
vt 0.557661 0.633185
vt 0.445933 0.605181
vt 0.557661 0.661857
vt 0.445933 0.633185
vt 0.445933 0.661857
s 1
usemtl DialSurface
f 14/1/1 30/2/2 29/3/2
f 13/4/3 28/5/1 14/1/1
f 12/6/4 27/7/3 13/4/3
f 11/8/5 26/9/4 12/6/4
f 10/10/6 25/11/5 11/8/5
f 9/12/7 24/13/6 10/10/6
f 8/14/8 23/15/7 9/12/7
f 7/16/9 22/17/8 8/14/8
f 6/18/10 21/19/9 7/16/9
f 5/20/11 20/21/10 6/18/10
f 4/22/12 19/23/11 5/20/11
f 3/24/13 18/25/12 4/22/12
f 2/26/14 17/27/13 3/24/13
f 1/28/15 16/29/14 2/26/14
f 14/1/1 28/5/1 30/2/2
f 13/4/3 27/7/3 28/5/1
f 12/6/4 26/9/4 27/7/3
f 11/8/5 25/11/5 26/9/4
f 10/10/6 24/13/6 25/11/5
f 9/12/7 23/15/7 24/13/6
f 8/14/8 22/17/8 23/15/7
f 7/16/9 21/19/9 22/17/8
f 6/18/10 20/21/10 21/19/9
f 5/20/11 19/23/11 20/21/10
f 4/22/12 18/25/12 19/23/11
f 3/24/13 17/27/13 18/25/12
f 2/26/14 16/29/14 17/27/13
f 1/28/15 15/30/15 16/29/14
o Ammeter1-2Dial
v -0.594512 3.290087 6.795642
v -0.594512 3.280345 6.785063
v -0.594512 3.270350 6.775194
v -0.594512 3.260355 6.766016
v -0.594512 3.250360 6.758379
v -0.594512 3.240364 6.751869
v -0.594512 3.230369 6.746153
v -0.594512 3.220120 6.741132
v -0.594512 3.209870 6.736869
v -0.594512 3.199875 6.733680
v -0.594512 3.189880 6.730507
v -0.594512 3.179885 6.728608
v -0.594512 3.169889 6.726890
v -0.594512 3.159894 6.725799
v -0.538473 3.290087 6.795642
v -0.538473 3.280345 6.785063
v -0.538473 3.270350 6.775194
v -0.538473 3.260355 6.766016
v -0.538473 3.250360 6.758379
v -0.538473 3.240364 6.751869
v -0.538473 3.230369 6.746153
v -0.538473 3.220120 6.741132
v -0.538473 3.209870 6.736869
v -0.538473 3.199875 6.733680
v -0.538473 3.189880 6.730507
v -0.538473 3.179885 6.728608
v -0.538473 3.169889 6.726890
v -0.538473 3.159894 6.725799
v -0.594512 3.148938 6.725631
v -0.538473 3.148938 6.725631
vn -0.0000 0.0620 -0.9981
vn -0.0000 0.0152 -0.9999
vn -0.0000 0.1390 -0.9903
vn -0.0000 0.1780 -0.9840
vn -0.0000 0.2451 -0.9695
vn -0.0000 0.3032 -0.9529
vn -0.0000 0.3443 -0.9389
vn -0.0000 0.4122 -0.9111
vn -0.0000 0.4684 -0.8835
vn -0.0000 0.5213 -0.8534
vn -0.0000 0.5768 -0.8169
vn -0.0000 0.6424 -0.7664
vn -0.0000 0.6896 -0.7242
vn -0.0000 0.7193 -0.6947
vn -0.0000 0.7357 -0.6774
vt 0.557661 0.359044
vt 0.445933 0.337198
vt 0.557661 0.337198
vt 0.557661 0.379091
vt 0.445933 0.359044
vt 0.557661 0.399311
vt 0.445933 0.379091
vt 0.557661 0.419596
vt 0.445933 0.399311
vt 0.557661 0.440503
vt 0.445933 0.419596
vt 0.557661 0.461421
vt 0.445933 0.440503
vt 0.557661 0.483553
vt 0.445933 0.461421
vt 0.557661 0.506308
vt 0.445933 0.483553
vt 0.557661 0.529265
vt 0.445933 0.506308
vt 0.557661 0.553047
vt 0.445933 0.529265
vt 0.557661 0.578126
vt 0.445933 0.553047
vt 0.557661 0.605181
vt 0.445933 0.578126
vt 0.557661 0.633185
vt 0.445933 0.605181
vt 0.557661 0.661857
vt 0.445933 0.633185
vt 0.445933 0.661857
s 1
usemtl DialSurface
f 44/31/16 60/32/17 59/33/17
f 43/34/18 58/35/16 44/31/16
f 42/36/19 57/37/18 43/34/18
f 41/38/20 56/39/19 42/36/19
f 40/40/21 55/41/20 41/38/20
f 39/42/22 54/43/21 40/40/21
f 38/44/23 53/45/22 39/42/22
f 37/46/24 52/47/23 38/44/23
f 36/48/25 51/49/24 37/46/24
f 35/50/26 50/51/25 36/48/25
f 34/52/27 49/53/26 35/50/26
f 33/54/28 48/55/27 34/52/27
f 32/56/29 47/57/28 33/54/28
f 31/58/30 46/59/29 32/56/29
f 44/31/16 58/35/16 60/32/17
f 43/34/18 57/37/18 58/35/16
f 42/36/19 56/39/19 57/37/18
f 41/38/20 55/41/20 56/39/19
f 40/40/21 54/43/21 55/41/20
f 39/42/22 53/45/22 54/43/21
f 38/44/23 52/47/23 53/45/22
f 37/46/24 51/49/24 52/47/23
f 36/48/25 50/51/25 51/49/24
f 35/50/26 49/53/26 50/51/25
f 34/52/27 48/55/27 49/53/26
f 33/54/28 47/57/28 48/55/27
f 32/56/29 46/59/29 47/57/28
f 31/58/30 45/60/30 46/59/29
o Ammeter5-6Dial
v -0.757770 3.290087 6.795642
v -0.757770 3.280345 6.785063
v -0.757770 3.270350 6.775194
v -0.757770 3.260355 6.766016
v -0.757770 3.250360 6.758379
v -0.757770 3.240364 6.751869
v -0.757770 3.230369 6.746153
v -0.757770 3.220120 6.741132
v -0.757770 3.209870 6.736869
v -0.757770 3.199875 6.733680
v -0.757770 3.189880 6.730507
v -0.757770 3.179885 6.728608
v -0.757770 3.169889 6.726890
v -0.757770 3.159894 6.725799
v -0.701730 3.290087 6.795642
v -0.701730 3.280345 6.785063
v -0.701730 3.270350 6.775194
v -0.701730 3.260355 6.766016
v -0.701730 3.250360 6.758379
v -0.701730 3.240364 6.751869
v -0.701730 3.230369 6.746153
v -0.701730 3.220120 6.741132
v -0.701730 3.209870 6.736869
v -0.701730 3.199875 6.733680
v -0.701730 3.189880 6.730507
v -0.701730 3.179885 6.728608
v -0.701730 3.169889 6.726890
v -0.701730 3.159894 6.725799
v -0.757770 3.148938 6.725631
v -0.701730 3.148938 6.725631
vn -0.0000 0.0620 -0.9981
vn -0.0000 0.0152 -0.9999
vn -0.0000 0.1390 -0.9903
vn -0.0000 0.1780 -0.9840
vn -0.0000 0.2451 -0.9695
vn -0.0000 0.3032 -0.9529
vn -0.0000 0.3443 -0.9389
vn -0.0000 0.4122 -0.9111
vn -0.0000 0.4684 -0.8835
vn -0.0000 0.5213 -0.8534
vn -0.0000 0.5768 -0.8169
vn -0.0000 0.6424 -0.7664
vn -0.0000 0.6896 -0.7242
vn -0.0000 0.7193 -0.6947
vn -0.0000 0.7357 -0.6774
vt 0.557661 0.359044
vt 0.445933 0.337198
vt 0.557661 0.337198
vt 0.557661 0.379091
vt 0.445933 0.359044
vt 0.557661 0.399311
vt 0.445933 0.379091
vt 0.557661 0.419596
vt 0.445933 0.399311
vt 0.557661 0.440503
vt 0.445933 0.419596
vt 0.557661 0.461421
vt 0.445933 0.440503
vt 0.557661 0.483553
vt 0.445933 0.461421
vt 0.557661 0.506308
vt 0.445933 0.483553
vt 0.557661 0.529265
vt 0.445933 0.506308
vt 0.557661 0.553047
vt 0.445933 0.529265
vt 0.557661 0.578126
vt 0.445933 0.553047
vt 0.557661 0.605181
vt 0.445933 0.578126
vt 0.557661 0.633185
vt 0.445933 0.605181
vt 0.557661 0.661857
vt 0.445933 0.633185
vt 0.445933 0.661857
s 1
usemtl DialSurface
f 74/61/31 90/62/32 89/63/32
f 73/64/33 88/65/31 74/61/31
f 72/66/34 87/67/33 73/64/33
f 71/68/35 86/69/34 72/66/34
f 70/70/36 85/71/35 71/68/35
f 69/72/37 84/73/36 70/70/36
f 68/74/38 83/75/37 69/72/37
f 67/76/39 82/77/38 68/74/38
f 66/78/40 81/79/39 67/76/39
f 65/80/41 80/81/40 66/78/40
f 64/82/42 79/83/41 65/80/41
f 63/84/43 78/85/42 64/82/42
f 62/86/44 77/87/43 63/84/43
f 61/88/45 76/89/44 62/86/44
f 74/61/31 88/65/31 90/62/32
f 73/64/33 87/67/33 88/65/31
f 72/66/34 86/69/34 87/67/33
f 71/68/35 85/71/35 86/69/34
f 70/70/36 84/73/36 85/71/35
f 69/72/37 83/75/37 84/73/36
f 68/74/38 82/77/38 83/75/37
f 67/76/39 81/79/39 82/77/38
f 66/78/40 80/81/40 81/79/39
f 65/80/41 79/83/41 80/81/40
f 64/82/42 78/85/42 79/83/41
f 63/84/43 77/87/43 78/85/42
f 62/86/44 76/89/44 77/87/43
f 61/88/45 75/90/45 76/89/44
o AmmeterTotalDial
v -0.877244 3.290087 6.795642
v -0.877244 3.280345 6.785063
v -0.877244 3.270350 6.775194
v -0.877244 3.260355 6.766016
v -0.877244 3.250360 6.758379
v -0.877244 3.240364 6.751869
v -0.877244 3.230369 6.746153
v -0.877244 3.220120 6.741132
v -0.877244 3.209870 6.736869
v -0.877244 3.199875 6.733680
v -0.877244 3.189880 6.730507
v -0.877244 3.179885 6.728608
v -0.877244 3.169889 6.726890
v -0.877244 3.159894 6.725799
v -0.821205 3.290087 6.795642
v -0.821205 3.280345 6.785063
v -0.821205 3.270350 6.775194
v -0.821205 3.260355 6.766016
v -0.821205 3.250360 6.758379
v -0.821205 3.240364 6.751869
v -0.821205 3.230369 6.746153
v -0.821205 3.220120 6.741132
v -0.821205 3.209870 6.736869
v -0.821205 3.199875 6.733680
v -0.821205 3.189880 6.730507
v -0.821205 3.179885 6.728608
v -0.821205 3.169889 6.726890
v -0.821205 3.159894 6.725799
v -0.877244 3.148938 6.725631
v -0.821205 3.148938 6.725631
vn -0.0000 0.0620 -0.9981
vn -0.0000 0.0152 -0.9999
vn -0.0000 0.1390 -0.9903
vn -0.0000 0.1780 -0.9840
vn -0.0000 0.2451 -0.9695
vn -0.0000 0.3032 -0.9529
vn -0.0000 0.3443 -0.9389
vn -0.0000 0.4122 -0.9111
vn -0.0000 0.4684 -0.8835
vn -0.0000 0.5213 -0.8534
vn -0.0000 0.5768 -0.8169
vn -0.0000 0.6424 -0.7664
vn -0.0000 0.6896 -0.7242
vn -0.0000 0.7193 -0.6947
vn -0.0000 0.7357 -0.6774
vt 0.677389 0.359044
vt 0.565661 0.337198
vt 0.677389 0.337198
vt 0.677389 0.379091
vt 0.565661 0.359044
vt 0.677389 0.399311
vt 0.565661 0.379091
vt 0.677389 0.419596
vt 0.565661 0.399311
vt 0.677389 0.440503
vt 0.565661 0.419596
vt 0.677389 0.461421
vt 0.565661 0.440503
vt 0.677389 0.483553
vt 0.565661 0.461421
vt 0.677389 0.506308
vt 0.565661 0.483553
vt 0.677389 0.529265
vt 0.565661 0.506308
vt 0.677389 0.553047
vt 0.565661 0.529265
vt 0.677389 0.578126
vt 0.565661 0.553047
vt 0.677389 0.605181
vt 0.565661 0.578126
vt 0.677389 0.633185
vt 0.565661 0.605181
vt 0.677389 0.661857
vt 0.565661 0.633185
vt 0.565661 0.661857
s 1
usemtl DialSurface
f 104/91/46 120/92/47 119/93/47
f 103/94/48 118/95/46 104/91/46
f 102/96/49 117/97/48 103/94/48
f 101/98/50 116/99/49 102/96/49
f 100/100/51 115/101/50 101/98/50
f 99/102/52 114/103/51 100/100/51
f 98/104/53 113/105/52 99/102/52
f 97/106/54 112/107/53 98/104/53
f 96/108/55 111/109/54 97/106/54
f 95/110/56 110/111/55 96/108/55
f 94/112/57 109/113/56 95/110/56
f 93/114/58 108/115/57 94/112/57
f 92/116/59 107/117/58 93/114/58
f 91/118/60 106/119/59 92/116/59
f 104/91/46 118/95/46 120/92/47
f 103/94/48 117/97/48 118/95/46
f 102/96/49 116/99/49 117/97/48
f 101/98/50 115/101/50 116/99/49
f 100/100/51 114/103/51 115/101/50
f 99/102/52 113/105/52 114/103/51
f 98/104/53 112/107/53 113/105/52
f 97/106/54 111/109/54 112/107/53
f 96/108/55 110/111/55 111/109/54
f 95/110/56 109/113/56 110/111/55
f 94/112/57 108/115/57 109/113/56
f 93/114/58 107/117/58 108/115/57
f 92/116/59 106/119/59 107/117/58
f 91/118/60 105/120/60 106/119/59
o VoltmeterDial
v -0.476521 3.290087 6.795642
v -0.476521 3.280345 6.785063
v -0.476521 3.270350 6.775194
v -0.476521 3.260355 6.766016
v -0.476521 3.250360 6.758379
v -0.476521 3.240364 6.751869
v -0.476521 3.230369 6.746153
v -0.476521 3.220120 6.741132
v -0.476521 3.209870 6.736869
v -0.476521 3.199875 6.733680
v -0.476521 3.189880 6.730507
v -0.476521 3.179885 6.728608
v -0.476521 3.169889 6.726890
v -0.476521 3.159894 6.725799
v -0.420482 3.290087 6.795642
v -0.420482 3.280345 6.785063
v -0.420482 3.270350 6.775194
v -0.420482 3.260355 6.766016
v -0.420482 3.250360 6.758379
v -0.420482 3.240364 6.751869
v -0.420482 3.230369 6.746153
v -0.420482 3.220120 6.741132
v -0.420482 3.209870 6.736869
v -0.420482 3.199875 6.733680
v -0.420482 3.189880 6.730507
v -0.420482 3.179885 6.728608
v -0.420482 3.169889 6.726890
v -0.420482 3.159894 6.725799
v -0.476521 3.148938 6.725631
v -0.420482 3.148938 6.725631
vn -0.0000 0.0620 -0.9981
vn -0.0000 0.0152 -0.9999
vn -0.0000 0.1390 -0.9903
vn -0.0000 0.1780 -0.9840
vn -0.0000 0.2451 -0.9695
vn -0.0000 0.3032 -0.9529
vn -0.0000 0.3443 -0.9389
vn -0.0000 0.4122 -0.9111
vn -0.0000 0.4684 -0.8835
vn -0.0000 0.5213 -0.8534
vn -0.0000 0.5768 -0.8169
vn -0.0000 0.6424 -0.7664
vn -0.0000 0.6896 -0.7242
vn -0.0000 0.7193 -0.6947
vn -0.0000 0.7357 -0.6774
vt 0.797117 0.359044
vt 0.685389 0.337198
vt 0.797117 0.337198
vt 0.797117 0.379091
vt 0.685389 0.359044
vt 0.797117 0.399311
vt 0.685389 0.379091
vt 0.797117 0.419596
vt 0.685389 0.399311
vt 0.797117 0.440503
vt 0.685389 0.419596
vt 0.797117 0.461421
vt 0.685389 0.440503
vt 0.797117 0.483553
vt 0.685389 0.461421
vt 0.797117 0.506308
vt 0.685389 0.483553
vt 0.797117 0.529265
vt 0.685389 0.506308
vt 0.797117 0.553047
vt 0.685389 0.529265
vt 0.797117 0.578126
vt 0.685389 0.553047
vt 0.797117 0.605181
vt 0.685389 0.578126
vt 0.797117 0.633185
vt 0.685389 0.605181
vt 0.797117 0.661857
vt 0.685389 0.633185
vt 0.685389 0.661857
s 1
usemtl DialSurface
f 134/121/61 150/122/62 149/123/62
f 133/124/63 148/125/61 134/121/61
f 132/126/64 147/127/63 133/124/63
f 131/128/65 146/129/64 132/126/64
f 130/130/66 145/131/65 131/128/65
f 129/132/67 144/133/66 130/130/66
f 128/134/68 143/135/67 129/132/67
f 127/136/69 142/137/68 128/134/68
f 126/138/70 141/139/69 127/136/69
f 125/140/71 140/141/70 126/138/70
f 124/142/72 139/143/71 125/140/71
f 123/144/73 138/145/72 124/142/72
f 122/146/74 137/147/73 123/144/73
f 121/148/75 136/149/74 122/146/74
f 134/121/61 148/125/61 150/122/62
f 133/124/63 147/127/63 148/125/61
f 132/126/64 146/129/64 147/127/63
f 131/128/65 145/131/65 146/129/64
f 130/130/66 144/133/66 145/131/65
f 129/132/67 143/135/67 144/133/66
f 128/134/68 142/137/68 143/135/67
f 127/136/69 141/139/69 142/137/68
f 126/138/70 140/141/70 141/139/69
f 125/140/71 139/143/71 140/141/70
f 124/142/72 138/145/72 139/143/71
f 123/144/73 137/147/73 138/145/72
f 122/146/74 136/149/74 137/147/73
f 121/148/75 135/150/75 136/149/74
o NotchDisplayDial
v -0.135671 3.569586 6.742833
v -0.148075 3.580659 6.753234
v -0.161894 3.588362 6.764825
v -0.176597 3.592398 6.777161
v -0.191619 3.592612 6.789767
v -0.206383 3.588996 6.802161
v -0.220321 3.581689 6.813864
v -0.232898 3.570972 6.824428
v -0.243631 3.557256 6.833446
v -0.252107 3.541069 6.840572
v -0.258000 3.523033 6.845532
v -0.261084 3.503840 6.848136
v -0.261240 3.484229 6.848283
v -0.258463 3.464953 6.845967
v -0.252858 3.446753 6.841279
v -0.244642 3.430328 6.834397
v -0.234131 3.416310 6.825587
v -0.221727 3.405236 6.815186
v -0.207908 3.397533 6.803595
v -0.193205 3.393497 6.791259
v -0.178183 3.393283 6.778653
v -0.163419 3.396899 6.766259
v -0.149481 3.404206 6.754556
v -0.136903 3.414924 6.743992
v -0.126171 3.428639 6.734974
v -0.117695 3.444826 6.727848
v -0.111802 3.462863 6.722888
v -0.108718 3.482055 6.720284
v -0.108562 3.501666 6.720137
v -0.111339 3.520942 6.722452
v -0.116943 3.539143 6.727141
v -0.125159 3.555568 6.734023
vn -0.6428 -0.0006 -0.7660
vt 0.321474 0.414433
vt 0.027500 0.321474
vt 0.120459 0.027500
vt 0.160134 0.011609
vt 0.202146 0.003764
vt 0.244882 0.004266
vt 0.286698 0.013095
vt 0.325989 0.029913
vt 0.361244 0.054073
vt 0.391108 0.084647
vt 0.414433 0.120459
vt 0.430324 0.160134
vt 0.438169 0.202146
vt 0.437667 0.244882
vt 0.428838 0.286698
vt 0.412020 0.325989
vt 0.387860 0.361244
vt 0.357286 0.391108
vt 0.281799 0.430324
vt 0.239787 0.438169
vt 0.197051 0.437667
vt 0.155234 0.428838
vt 0.115944 0.412020
vt 0.080689 0.387860
vt 0.050825 0.357286
vt 0.011609 0.281799
vt 0.003764 0.239787
vt 0.004266 0.197051
vt 0.013095 0.155234
vt 0.029913 0.115944
vt 0.054073 0.080689
vt 0.084647 0.050825
s 1
usemtl DialSurface
f 157/151/76 181/152/76 173/153/76
f 173/153/76 172/154/76 171/155/76
f 171/155/76 170/156/76 169/157/76
f 169/157/76 168/158/76 167/159/76
f 167/159/76 166/160/76 165/161/76
f 165/161/76 164/162/76 163/163/76
f 163/163/76 162/164/76 161/165/76
f 161/165/76 160/166/76 159/167/76
f 159/167/76 158/168/76 157/151/76
f 157/151/76 156/169/76 155/170/76
f 155/170/76 154/171/76 153/172/76
f 153/172/76 152/173/76 151/174/76
f 151/174/76 182/175/76 181/152/76
f 181/152/76 180/176/76 179/177/76
f 179/177/76 178/178/76 177/179/76
f 177/179/76 176/180/76 175/181/76
f 175/181/76 174/182/76 173/153/76
f 173/153/76 171/155/76 169/157/76
f 169/157/76 167/159/76 165/161/76
f 165/161/76 163/163/76 161/165/76
f 161/165/76 159/167/76 157/151/76
f 157/151/76 155/170/76 153/172/76
f 153/172/76 151/174/76 181/152/76
f 181/152/76 179/177/76 177/179/76
f 177/179/76 175/181/76 173/153/76
f 173/153/76 169/157/76 165/161/76
f 165/161/76 161/165/76 157/151/76
f 157/151/76 153/172/76 181/152/76
f 181/152/76 177/179/76 173/153/76
f 173/153/76 165/161/76 157/151/76
o TemperatureDials
v 0.170650 3.476727 6.233839
v 0.167799 3.475766 6.243167
v 0.165057 3.472921 6.252137
v 0.162529 3.468301 6.260404
v 0.160314 3.462082 6.267649
v 0.158496 3.454506 6.273596
v 0.157146 3.445861 6.278015
v 0.156314 3.436481 6.280735
v 0.156033 3.426727 6.281654
v 0.156314 3.416973 6.280735
v 0.157146 3.407593 6.278015
v 0.158496 3.398948 6.273596
v 0.160314 3.391372 6.267649
v 0.162529 3.385154 6.260404
v 0.165057 3.380533 6.252137
v 0.167799 3.377688 6.243167
v 0.170650 3.376727 6.233839
v 0.173502 3.377688 6.224510
v 0.176244 3.380533 6.215540
v 0.178771 3.385154 6.207273
v 0.180986 3.391372 6.200028
v 0.182804 3.398948 6.194081
v 0.184155 3.407593 6.189663
v 0.184987 3.416973 6.186942
v 0.185268 3.426727 6.186023
v 0.184987 3.436481 6.186942
v 0.184155 3.445861 6.189663
v 0.182804 3.454506 6.194081
v 0.180986 3.462082 6.200028
v 0.178771 3.468301 6.207273
v 0.176244 3.472921 6.215540
v 0.173502 3.475766 6.224510
v 0.132645 3.476727 6.358159
v 0.129793 3.475766 6.367487
v 0.127051 3.472921 6.376458
v 0.124524 3.468301 6.384724
v 0.122309 3.462082 6.391970
v 0.120491 3.454506 6.397916
v 0.119140 3.445861 6.402335
v 0.118309 3.436481 6.405056
v 0.118028 3.426727 6.405975
v 0.118309 3.416973 6.405056
v 0.119140 3.407593 6.402335
v 0.120491 3.398948 6.397916
v 0.122309 3.391372 6.391970
v 0.124524 3.385154 6.384724
v 0.127051 3.380533 6.376458
v 0.129793 3.377688 6.367487
v 0.132645 3.376727 6.358159
v 0.135497 3.377688 6.348831
v 0.138239 3.380533 6.339861
v 0.140766 3.385154 6.331594
v 0.142981 3.391372 6.324348
v 0.144799 3.398948 6.318402
v 0.146150 3.407593 6.313983
v 0.146982 3.416973 6.311263
v 0.147262 3.426727 6.310344
v 0.146982 3.436481 6.311263
v 0.146150 3.445861 6.313983
v 0.144799 3.454506 6.318402
v 0.142981 3.462082 6.324348
v 0.140766 3.468301 6.331594
v 0.138239 3.472921 6.339861
v 0.135497 3.475766 6.348831
vn -0.9563 -0.0000 -0.2923
vt 0.203051 0.948070
vt 0.051930 0.978182
vt 0.021818 0.827062
vt 0.844672 0.885147
vt 0.759126 0.756983
vt 0.887291 0.671437
vt 0.035363 0.810546
vt 0.051870 0.796990
vt 0.070704 0.786915
vt 0.091142 0.780707
vt 0.112398 0.778607
vt 0.133655 0.780693
vt 0.154097 0.786887
vt 0.172938 0.796949
vt 0.189454 0.810494
vt 0.203010 0.827001
vt 0.213085 0.845835
vt 0.219293 0.866273
vt 0.221393 0.887529
vt 0.219307 0.908786
vt 0.213113 0.929229
vt 0.189506 0.964585
vt 0.172999 0.978141
vt 0.154165 0.988217
vt 0.133727 0.994424
vt 0.112471 0.996525
vt 0.091214 0.994438
vt 0.070771 0.988245
vt 0.035415 0.964637
vt 0.021859 0.948131
vt 0.011783 0.929296
vt 0.005576 0.908858
vt 0.003475 0.887602
vt 0.005562 0.866345
vt 0.011755 0.845903
vt 0.907727 0.677647
vt 0.926560 0.687725
vt 0.943065 0.701284
vt 0.956607 0.717802
vt 0.966667 0.736644
vt 0.972857 0.757087
vt 0.974941 0.778345
vt 0.972837 0.799601
vt 0.966626 0.820038
vt 0.956548 0.838870
vt 0.942990 0.855375
vt 0.926472 0.868917
vt 0.907629 0.878977
vt 0.887186 0.885168
vt 0.865928 0.887251
vt 0.824235 0.878936
vt 0.805403 0.868858
vt 0.788898 0.855300
vt 0.775356 0.838782
vt 0.765296 0.819939
vt 0.759106 0.799497
vt 0.757022 0.778239
vt 0.765337 0.736546
vt 0.775415 0.717713
vt 0.788973 0.701208
vt 0.805491 0.687666
vt 0.824334 0.677606
vt 0.844777 0.671416
vt 0.866035 0.669333
s 0
usemtl DialSurface
f 188/183/77 212/184/77 204/185/77
f 246/186/77 238/187/77 230/188/77
f 204/185/77 203/189/77 202/190/77
f 202/190/77 201/191/77 200/192/77
f 200/192/77 199/193/77 198/194/77
f 198/194/77 197/195/77 196/196/77
f 196/196/77 195/197/77 194/198/77
f 194/198/77 193/199/77 192/200/77
f 192/200/77 191/201/77 190/202/77
f 190/202/77 189/203/77 188/183/77
f 188/183/77 187/204/77 186/205/77
f 186/205/77 185/206/77 184/207/77
f 184/207/77 183/208/77 214/209/77
f 214/209/77 213/210/77 212/184/77
f 212/184/77 211/211/77 210/212/77
f 210/212/77 209/213/77 208/214/77
f 208/214/77 207/215/77 206/216/77
f 206/216/77 205/217/77 204/185/77
f 204/185/77 202/190/77 200/192/77
f 200/192/77 198/194/77 196/196/77
f 196/196/77 194/198/77 192/200/77
f 192/200/77 190/202/77 188/183/77
f 188/183/77 186/205/77 184/207/77
f 184/207/77 214/209/77 212/184/77
f 212/184/77 210/212/77 208/214/77
f 208/214/77 206/216/77 204/185/77
f 204/185/77 200/192/77 196/196/77
f 196/196/77 192/200/77 188/183/77
f 188/183/77 184/207/77 212/184/77
f 212/184/77 208/214/77 204/185/77
f 204/185/77 196/196/77 188/183/77
f 230/188/77 229/218/77 228/219/77
f 228/219/77 227/220/77 226/221/77
f 226/221/77 225/222/77 224/223/77
f 224/223/77 223/224/77 222/225/77
f 222/225/77 221/226/77 220/227/77
f 220/227/77 219/228/77 218/229/77
f 218/229/77 217/230/77 216/231/77
f 216/231/77 215/232/77 246/186/77
f 246/186/77 245/233/77 244/234/77
f 244/234/77 243/235/77 242/236/77
f 242/236/77 241/237/77 240/238/77
f 240/238/77 239/239/77 238/187/77
f 238/187/77 237/240/77 236/241/77
f 236/241/77 235/242/77 234/243/77
f 234/243/77 233/244/77 232/245/77
f 232/245/77 231/246/77 230/188/77
f 230/188/77 228/219/77 226/221/77
f 226/221/77 224/223/77 222/225/77
f 222/225/77 220/227/77 218/229/77
f 218/229/77 216/231/77 246/186/77
f 246/186/77 244/234/77 242/236/77
f 242/236/77 240/238/77 238/187/77
f 238/187/77 236/241/77 234/243/77
f 234/243/77 232/245/77 230/188/77
f 230/188/77 226/221/77 222/225/77
f 222/225/77 218/229/77 246/186/77
f 246/186/77 242/236/77 238/187/77
f 238/187/77 234/243/77 230/188/77
f 230/188/77 222/225/77 246/186/77
o SpeedometerDial
v -1.337986 3.568198 6.756312
v -1.349470 3.569544 6.748922
v -1.326933 3.564215 6.763402
v -1.316736 3.557747 6.769920
v -1.307786 3.549042 6.775615
v -1.300429 3.538434 6.780268
v -1.294946 3.526332 6.783701
v -1.291548 3.513201 6.785782
v -1.290365 3.499545 6.786431
v -1.291444 3.485889 6.785622
v -1.294743 3.472758 6.783387
v -1.300135 3.460656 6.779812
v -1.307412 3.450049 6.775034
v -1.316295 3.441344 6.769237
v -1.326444 3.434875 6.762643
v -1.337466 3.430892 6.755506
v -1.348940 3.429547 6.748100
v -1.360425 3.430892 6.740711
v -1.371477 3.434875 6.733621
v -1.381675 3.441344 6.727103
v -1.390624 3.450049 6.721407
v -1.397981 3.460656 6.716754
v -1.403465 3.472758 6.713321
v -1.406862 3.485889 6.711240
v -1.408045 3.499545 6.710592
v -1.406966 3.513201 6.711401
v -1.403667 3.526332 6.713635
v -1.398275 3.538434 6.717210
v -1.390998 3.549042 6.721989
v -1.382115 3.557747 6.727786
v -1.371967 3.564215 6.734380
v -1.360944 3.568198 6.741516
vn 0.5417 0.0070 -0.8405
vn 0.5417 0.0070 -0.8406
vt 0.567936 0.672063
vt 0.747342 0.791860
vt 0.627545 0.971266
vt 0.597786 0.974206
vt 0.568026 0.971284
vt 0.539408 0.962612
vt 0.513031 0.948524
vt 0.489910 0.929560
vt 0.470932 0.906451
vt 0.456828 0.880082
vt 0.448139 0.851469
vt 0.445199 0.821711
vt 0.448121 0.791950
vt 0.456792 0.763332
vt 0.470881 0.736955
vt 0.489844 0.713834
vt 0.512954 0.694857
vt 0.539322 0.680752
vt 0.597694 0.669123
vt 0.627454 0.672045
vt 0.656073 0.680717
vt 0.682449 0.694805
vt 0.705571 0.713769
vt 0.724548 0.736879
vt 0.738653 0.763247
vt 0.750282 0.821618
vt 0.747360 0.851379
vt 0.738688 0.879997
vt 0.724599 0.906374
vt 0.705636 0.929495
vt 0.682526 0.948473
vt 0.656158 0.962577
s 0
usemtl DialSurface
f 262/247/78 270/248/78 278/249/78
f 278/249/78 248/250/78 247/251/78
f 247/251/78 249/252/78 250/253/78
f 250/253/78 251/254/78 252/255/78
f 252/255/78 253/256/78 254/257/78
f 254/257/79 255/258/79 256/259/79
f 256/259/78 257/260/78 258/261/78
f 258/261/78 259/262/78 260/263/78
f 260/263/78 261/264/78 262/247/78
f 262/247/78 263/265/78 264/266/78
f 264/266/78 265/267/78 266/268/78
f 266/268/78 267/269/78 268/270/78
f 268/270/78 269/271/78 270/248/78
f 270/248/78 271/272/78 272/273/78
f 272/273/78 273/274/78 274/275/78
f 274/275/78 275/276/78 276/277/78
f 276/277/78 277/278/78 278/249/78
f 278/249/78 247/251/78 250/253/78
f 250/253/78 252/255/78 254/257/78
f 254/257/78 256/259/78 258/261/78
f 258/261/78 260/263/78 262/247/78
f 262/247/78 264/266/78 266/268/78
f 266/268/78 268/270/78 270/248/78
f 270/248/78 272/273/78 274/275/78
f 274/275/78 276/277/78 278/249/78
f 278/249/78 250/253/78 254/257/78
f 254/257/78 258/261/78 262/247/78
f 262/247/78 266/268/78 270/248/78
f 270/248/78 274/275/78 278/249/78
f 278/249/78 254/257/78 262/247/78
o BrakeGaugeDials.001
v -1.292774 3.164090 6.808609
v -1.291389 3.178717 6.809004
v -1.287287 3.192782 6.810176
v -1.280625 3.205744 6.812080
v -1.271659 3.217106 6.814641
v -1.260735 3.226430 6.817762
v -1.248271 3.233359 6.821323
v -1.234747 3.237625 6.825187
v -1.220683 3.239066 6.829206
v -1.206619 3.237625 6.833224
v -1.193095 3.233359 6.837088
v -1.180631 3.226430 6.840649
v -1.169707 3.217106 6.843770
v -1.160741 3.205744 6.846331
v -1.154079 3.192782 6.848235
v -1.149977 3.178717 6.849407
v -1.148592 3.164090 6.849802
v -1.149977 3.149463 6.849407
v -1.154079 3.135398 6.848235
v -1.160741 3.122436 6.846331
v -1.169707 3.111074 6.843770
v -1.180631 3.101750 6.840649
v -1.193095 3.094821 6.837088
v -1.206619 3.090555 6.833224
v -1.220683 3.089114 6.829206
v -1.234747 3.090555 6.825187
v -1.248271 3.094821 6.821323
v -1.260735 3.101750 6.817762
v -1.271659 3.111074 6.814641
v -1.280625 3.122436 6.812080
v -1.287287 3.135398 6.810176
v -1.291389 3.149463 6.809004
v -0.975517 3.164090 6.899251
v -0.976902 3.149463 6.898855
v -0.981005 3.135398 6.897683
v -0.987667 3.122436 6.895780
v -0.996632 3.111074 6.893219
v -1.007557 3.101750 6.890097
v -1.020020 3.094821 6.886536
v -1.033544 3.090555 6.882672
v -1.047608 3.089114 6.878654
v -1.061673 3.090555 6.874636
v -1.075197 3.094821 6.870772
v -1.087660 3.101750 6.867211
v -1.098585 3.111074 6.864090
v -1.107550 3.122436 6.861528
v -1.114212 3.135398 6.859625
v -1.118314 3.149463 6.858453
v -1.119699 3.164090 6.858057
v -1.118314 3.178717 6.858453
v -1.114212 3.192782 6.859625
v -1.107550 3.205744 6.861528
v -1.098585 3.217106 6.864090
v -1.087660 3.226430 6.867211
v -1.075197 3.233359 6.870772
v -1.061673 3.237625 6.874636
v -1.047608 3.239066 6.878654
v -1.033544 3.237625 6.882672
v -1.020020 3.233359 6.886536
v -1.007557 3.226430 6.890097
v -0.996632 3.217106 6.893219
v -0.987667 3.205744 6.895780
v -0.981005 3.192782 6.897683
v -0.976902 3.178717 6.898855
vn 0.2747 -0.0000 -0.9615
vt 0.006331 0.640300
vt 0.134831 0.448264
vt 0.326867 0.576764
vt 0.768793 0.134798
vt 0.640333 0.326860
vt 0.448271 0.198401
vt 0.329985 0.608641
vt 0.326824 0.640514
vt 0.317506 0.671158
vt 0.302389 0.699395
vt 0.282053 0.724141
vt 0.257281 0.744443
vt 0.229023 0.759523
vt 0.198367 0.768800
vt 0.166490 0.771918
vt 0.134617 0.768757
vt 0.103973 0.759439
vt 0.075736 0.744322
vt 0.050991 0.723986
vt 0.030688 0.699214
vt 0.015609 0.670956
vt 0.003213 0.608423
vt 0.006374 0.576550
vt 0.015692 0.545906
vt 0.030809 0.517669
vt 0.051145 0.492924
vt 0.075918 0.472621
vt 0.104175 0.457541
vt 0.166708 0.445146
vt 0.198581 0.448307
vt 0.229225 0.457625
vt 0.257462 0.472742
vt 0.282208 0.493078
vt 0.302510 0.517851
vt 0.317590 0.546108
vt 0.445146 0.166524
vt 0.448300 0.134651
vt 0.457612 0.104005
vt 0.472723 0.075764
vt 0.493054 0.051015
vt 0.517822 0.030707
vt 0.546076 0.015622
vt 0.576731 0.006338
vt 0.608607 0.003213
vt 0.640481 0.006367
vt 0.671126 0.015679
vt 0.699367 0.030790
vt 0.724116 0.051121
vt 0.744424 0.075889
vt 0.759510 0.104143
vt 0.771918 0.166674
vt 0.768764 0.198548
vt 0.759452 0.229194
vt 0.744341 0.257434
vt 0.724010 0.282183
vt 0.699242 0.302491
vt 0.670988 0.317577
vt 0.608457 0.329985
vt 0.576583 0.326831
vt 0.545938 0.317519
vt 0.517697 0.302408
vt 0.492948 0.282077
vt 0.472640 0.257309
vt 0.457555 0.229055
s 1
usemtl DialSurface
f 294/279/80 302/280/80 310/281/80
f 326/282/80 334/283/80 342/284/80
f 310/281/80 279/285/80 280/286/80
f 280/286/80 281/287/80 282/288/80
f 282/288/80 283/289/80 284/290/80
f 284/290/80 285/291/80 286/292/80
f 286/292/80 287/293/80 288/294/80
f 288/294/80 289/295/80 290/296/80
f 290/296/80 291/297/80 292/298/80
f 292/298/80 293/299/80 294/279/80
f 294/279/80 295/300/80 296/301/80
f 296/301/80 297/302/80 298/303/80
f 298/303/80 299/304/80 300/305/80
f 300/305/80 301/306/80 302/280/80
f 302/280/80 303/307/80 304/308/80
f 304/308/80 305/309/80 306/310/80
f 306/310/80 307/311/80 308/312/80
f 308/312/80 309/313/80 310/281/80
f 310/281/80 280/286/80 282/288/80
f 282/288/80 284/290/80 286/292/80
f 286/292/80 288/294/80 290/296/80
f 290/296/80 292/298/80 294/279/80
f 294/279/80 296/301/80 298/303/80
f 298/303/80 300/305/80 302/280/80
f 302/280/80 304/308/80 306/310/80
f 306/310/80 308/312/80 310/281/80
f 310/281/80 282/288/80 286/292/80
f 286/292/80 290/296/80 294/279/80
f 294/279/80 298/303/80 302/280/80
f 302/280/80 306/310/80 310/281/80
f 310/281/80 286/292/80 294/279/80
f 342/284/80 311/314/80 312/315/80
f 312/315/80 313/316/80 314/317/80
f 314/317/80 315/318/80 316/319/80
f 316/319/80 317/320/80 318/321/80
f 318/321/80 319/322/80 320/323/80
f 320/323/80 321/324/80 322/325/80
f 322/325/80 323/326/80 324/327/80
f 324/327/80 325/328/80 326/282/80
f 326/282/80 327/329/80 328/330/80
f 328/330/80 329/331/80 330/332/80
f 330/332/80 331/333/80 332/334/80
f 332/334/80 333/335/80 334/283/80
f 334/283/80 335/336/80 336/337/80
f 336/337/80 337/338/80 338/339/80
f 338/339/80 339/340/80 340/341/80
f 340/341/80 341/342/80 342/284/80
f 342/284/80 312/315/80 314/317/80
f 314/317/80 316/319/80 318/321/80
f 318/321/80 320/323/80 322/325/80
f 322/325/80 324/327/80 326/282/80
f 326/282/80 328/330/80 330/332/80
f 330/332/80 332/334/80 334/283/80
f 334/283/80 336/337/80 338/339/80
f 338/339/80 340/341/80 342/284/80
f 342/284/80 314/317/80 318/321/80
f 318/321/80 322/325/80 326/282/80
f 326/282/80 330/332/80 334/283/80
f 334/283/80 338/339/80 342/284/80
f 342/284/80 318/321/80 326/282/80
o BatteryVoltmeterDial
v -0.574888 2.996584 3.657400
v -0.574888 2.995100 3.646129
v -0.574888 2.974809 3.619685
v -0.574888 2.990749 3.635625
v -0.574888 2.983829 3.626606
v -0.574888 2.964306 3.615334
v -0.574888 2.964306 3.699466
v -0.574888 2.974809 3.695115
v -0.574888 2.983829 3.688195
v -0.574888 2.990749 3.679175
v -0.574888 2.995100 3.668672
v -0.574888 2.956356 3.700513
v -0.574888 2.953034 3.697600
v -0.574888 2.954695 3.700282
v -0.574888 2.953479 3.699216
v -0.574888 2.953034 3.617200
v -0.574888 2.956356 3.614288
v -0.574888 2.953479 3.615584
v -0.574888 2.954695 3.614518
vn 1.0000 -0.0000 -0.0000
vt 0.780578 0.008216
vt 0.920777 0.144224
vt 0.849954 0.266893
vt 0.815792 0.281043
vt 0.789934 0.284447
vt 0.784533 0.283699
vt 0.780579 0.280231
vt 0.779131 0.274974
vt 0.779131 0.013474
vt 0.784533 0.004749
vt 0.789934 0.004000
vt 0.815792 0.007404
vt 0.849954 0.021555
vt 0.879290 0.044065
vt 0.901800 0.073401
vt 0.915951 0.107563
vt 0.915951 0.180884
vt 0.901800 0.215047
vt 0.879290 0.244382
s 0
usemtl DialSurface
f 360/343/81 343/344/81 350/345/81
f 349/346/81 354/347/81 356/348/81
f 356/348/81 357/349/81 355/350/81
f 355/350/81 358/351/81 360/343/81
f 360/343/81 361/352/81 359/353/81
f 359/353/81 348/354/81 345/355/81
f 345/355/81 347/356/81 346/357/81
f 346/357/81 344/358/81 343/344/81
f 343/344/81 353/359/81 352/360/81
f 352/360/81 351/361/81 350/345/81
f 350/345/81 349/346/81 356/348/81
f 356/348/81 355/350/81 360/343/81
f 360/343/81 359/353/81 345/355/81
f 345/355/81 346/357/81 343/344/81
f 343/344/81 352/360/81 350/345/81
f 350/345/81 356/348/81 360/343/81
f 360/343/81 345/355/81 343/344/81
o ControlPressureDial
v -0.574888 2.996584 3.513613
v -0.574888 2.995100 3.502341
v -0.574888 2.974809 3.475898
v -0.574888 2.990749 3.491838
v -0.574888 2.983829 3.482818
v -0.574888 2.964306 3.471547
v -0.574888 2.964306 3.555679
v -0.574888 2.974809 3.551328
v -0.574888 2.983829 3.544407
v -0.574888 2.990749 3.535388
v -0.574888 2.995100 3.524884
v -0.574888 2.956356 3.556725
v -0.574888 2.953034 3.553813
v -0.574888 2.954695 3.556495
v -0.574888 2.953479 3.555429
v -0.574888 2.953034 3.473413
v -0.574888 2.956356 3.470500
v -0.574888 2.953479 3.471797
v -0.574888 2.954695 3.470731
vn 1.0000 -0.0000 -0.0000
vt 0.806564 0.341415
vt 0.946763 0.477422
vt 0.875940 0.600091
vt 0.841777 0.614241
vt 0.815919 0.617646
vt 0.810518 0.616897
vt 0.806564 0.613429
vt 0.805117 0.608172
vt 0.805117 0.346672
vt 0.810518 0.337947
vt 0.815919 0.337198
vt 0.841777 0.340602
vt 0.875940 0.354753
vt 0.905275 0.377263
vt 0.927786 0.406599
vt 0.941936 0.440761
vt 0.941936 0.514083
vt 0.927786 0.548245
vt 0.905275 0.577581
s 0
usemtl DialSurface
f 379/362/82 362/363/82 369/364/82
f 368/365/82 373/366/82 375/367/82
f 375/367/82 376/368/82 374/369/82
f 374/369/82 377/370/82 379/362/82
f 379/362/82 380/371/82 378/372/82
f 378/372/82 367/373/82 364/374/82
f 364/374/82 366/375/82 365/376/82
f 365/376/82 363/377/82 362/363/82
f 362/363/82 372/378/82 371/379/82
f 371/379/82 370/380/82 369/364/82
f 369/364/82 368/365/82 375/367/82
f 375/367/82 374/369/82 379/362/82
f 379/362/82 378/372/82 364/374/82
f 364/374/82 365/376/82 362/363/82
f 362/363/82 371/379/82 369/364/82
f 369/364/82 375/367/82 379/362/82
f 379/362/82 364/374/82 362/363/82
