# Blender 5.0.1
# www.blender.org
mtllib linear_gauge_hand.mtl
o LinearGaugeHandExport
g linear_gauge_hand
v 0.013845 -0.000000 0.179824
v 0.013845 -0.000000 0.182081
v -0.000000 -0.010000 0.179824
v -0.000000 0.010000 0.179824
v -0.000000 -0.010000 0.182081
v -0.000000 0.010000 0.182081
v -0.000000 -0.010000 0.179824
v -0.000000 0.010000 0.179824
v -0.000000 -0.010000 0.179824
v -0.000000 0.010000 0.179824
v -0.000000 -0.010000 0.179824
v -0.000000 0.010000 0.179824
v -0.000000 -0.010000 0.179824
v -0.000000 0.010000 0.179824
v -0.000000 -0.010000 -0.000003
v -0.000000 0.009998 0.000001
vn -0.0000 -0.0000 1.0000
vn -1.0000 -0.0000 -0.0000
vn -0.0000 -0.0000 -1.0000
vn 0.5855 -0.8107 -0.0000
vn 0.5855 0.8107 -0.0000
vn -0.0000 1.0000 -0.0000
vn 1.0000 -0.0000 -0.0000
vt 0.625000 0.250000
vt 0.625000 0.500000
vt 0.375000 0.500000
vt 0.375000 0.750000
vt 0.625000 0.750000
vt 0.375000 1.000000
vt 0.125000 0.750000
vt 0.125000 0.500000
vt 0.875000 0.500000
vt 0.875000 0.750000
s 0
f 2/1/1 6/2/1 5/3/1
f 6/2/2 3/4/2 5/3/2
f 3/4/3 4/5/3 1/6/3
f 5/3/4 1/7/4 2/8/4
f 2/9/5 4/5/5 6/2/5
f 4/5/6 7/4/6 8/5/6
f 8/5/6 9/4/6 10/5/6
f 10/5/6 11/4/6 12/5/6
f 12/5/6 13/4/6 14/5/6
f 13/4/7 16/5/7 14/5/7
f 6/2/2 4/5/2 3/4/2
f 5/3/4 3/4/4 1/7/4
f 2/9/5 1/10/5 4/5/5
f 4/5/6 3/4/6 7/4/6
f 8/5/6 7/4/6 9/4/6
f 10/5/6 9/4/6 11/4/6
f 12/5/6 11/4/6 13/4/6
f 13/4/7 15/4/7 16/5/7
