# Blender 5.0.1
# www.blender.org
mtllib primary_notch_hand.mtl
o MajorNotchHandExport
g primary_notch_hand
v 0.009241 -0.012817 0.000001
v -0.009242 -0.012817 0.000001
v -0.000000 0.058095 -0.000000
v 0.004374 -0.000000 -0.000000
v -0.004375 0.000000 0.000000
v -0.004375 0.044918 0.000000
v 0.004374 0.044918 -0.000000
vn -0.0000 -0.0000 1.0000
vt 0.000000 0.750000
vt 0.000000 1.000000
vt 1.000000 0.750000
vt 0.000000 0.500000
vt 1.000000 0.000000
vt 0.000000 0.000000
vt 1.000000 0.500000
s 0
f 7/1/1 3/2/1 6/3/1
f 4/4/1 2/5/1 1/6/1
f 7/1/1 5/7/1 4/4/1
f 4/4/1 5/7/1 2/5/1
f 7/1/1 6/3/1 5/7/1
