# Blender 5.0.1
# www.blender.org
mtllib signal_lamp.mtl
o SignalLampExport
g signal_lamp
v 0.000000 -0.010000 0.000466
v 0.008944 -0.004472 0.000466
v 0.002764 -0.004472 0.008972
v -0.007236 -0.004472 0.005723
v 0.007236 0.004472 0.005723
v -0.002764 0.004472 0.008972
v -0.008944 0.004472 0.000466
v 0.000000 0.010000 0.000466
v -0.005821 -0.009407 0.000047
v -0.010849 0.000000 0.000040
v -0.008506 -0.005257 0.000466
v -0.004253 -0.008507 0.003556
v 0.005257 -0.008507 0.000466
v 0.010849 0.000000 0.000040
v 0.001625 -0.008507 0.005466
v 0.006882 -0.005257 0.005466
v -0.002629 -0.005257 0.008556
v 0.005821 0.009407 0.000047
v -0.009227 0.000000 0.003556
v -0.005814 0.009407 0.000047
v 0.009407 0.005814 0.000047
v 0.005814 -0.009407 0.000047
v -0.009407 -0.005814 0.000047
v 0.005878 0.000000 0.008556
v 0.009399 0.000000 0.003556
v -0.005878 0.000000 0.008556
v 0.000000 0.000000 0.010466
v 0.000000 0.011059 0.000047
v -0.009891 0.004946 0.000047
v 0.008506 0.005257 0.000466
v 0.002629 0.005257 0.008556
v -0.006882 0.005257 0.005466
v 0.009891 -0.004946 0.000047
v -0.005257 0.008507 0.000466
v 0.000000 -0.011059 0.000047
v 0.004253 0.008507 0.003556
v -0.001625 0.008507 0.005466
v 0.005264 0.008507 0.000466
v 0.009810 -0.000000 0.000472
v -0.009810 -0.000000 0.000472
v -0.005264 -0.008507 0.000466
v 0.009555 0.002812 0.000303
v 0.010474 0.002980 -0.000015
v -0.010593 0.002483 0.000042
v -0.009663 0.002376 0.000357
v 0.002767 -0.009739 0.000301
v 0.003026 -0.010652 -0.000013
v -0.007153 -0.007151 0.000354
v -0.007827 -0.007823 0.000044
v 0.007827 0.007823 0.000044
v 0.007153 0.007150 0.000354
v -0.007474 0.006830 0.000301
v -0.008175 0.007471 -0.000013
v -0.009470 -0.002811 0.000302
v -0.010381 -0.002977 -0.000014
v -0.002771 -0.009740 0.000301
v -0.003030 -0.010654 -0.000014
v 0.009578 -0.002378 0.000355
v 0.010499 -0.002485 0.000043
v 0.007474 -0.006830 0.000301
v 0.008175 -0.007471 -0.000013
v 0.002771 0.009740 0.000301
v 0.003030 0.010654 -0.000014
v -0.002767 0.009739 0.000301
v -0.003026 0.010653 -0.000013
vn 0.2746 -0.9198 0.2803
vn 0.1591 -0.8442 0.5119
vn -0.0190 -0.9568 0.2902
vn -0.3968 -0.8319 0.3878
vn 0.2764 -0.4472 0.8506
vn 0.6873 -0.5161 0.5112
vn 0.5917 -0.0001 0.8061
vn -0.7341 -0.4280 0.5273
vn -0.2629 -0.5257 0.8090
vn -0.5979 0.0003 0.8016
vn 0.8389 0.4708 0.2730
vn 0.7239 0.4370 0.5339
vn 0.9317 0.2690 0.2442
vn -0.0000 -0.0000 1.0000
vn -0.9264 0.0031 0.3765
vn 0.6932 0.6676 0.2717
vn -0.2764 0.4472 0.8506
vn 0.2629 0.5257 0.8090
vn -0.1591 0.8442 0.5119
vn -0.6925 0.5102 0.5100
vn -0.6999 0.6570 0.2803
vn -0.8715 0.3867 0.3016
vn -0.2746 0.9198 0.2803
vn -0.4985 0.8066 0.3175
vn 0.3968 0.8319 0.3878
vn 0.0190 0.9568 0.2902
vn 0.2200 0.9412 0.2564
vn 0.5199 0.8371 0.1700
vn 0.8758 -0.3931 0.2801
vn 0.9511 -0.2200 0.2167
vn 0.9298 -0.0128 0.3679
vn 0.9912 -0.0023 0.1320
vn -0.8503 -0.4403 0.2882
vn 0.4985 -0.8066 0.3175
vn 0.6999 -0.6570 0.2803
vn -0.3688 -0.0185 0.9293
vn -0.3205 -0.0887 0.9431
vn -0.3186 -0.0906 0.9436
vn 0.0894 0.3152 0.9448
vn 0.1767 0.3064 0.9354
vn 0.0857 0.3022 0.9494
vn -0.0895 0.3152 0.9448
vn -0.0000 0.3547 0.9350
vn -0.0858 0.3022 0.9494
vn -0.6932 -0.6676 0.2717
vn -0.3202 0.0753 0.9444
vn -0.3168 0.1587 0.9351
vn -0.3229 0.0715 0.9437
vn -0.0894 -0.3152 0.9448
vn -0.1767 -0.3064 0.9354
vn -0.0857 -0.3022 0.9494
vn 0.0896 -0.3152 0.9448
vn -0.0000 -0.3548 0.9350
vn 0.0858 -0.3022 0.9494
vn 0.3229 -0.1603 0.9327
vn 0.3319 -0.0649 0.9411
vn 0.3144 -0.0606 0.9474
vn -0.2419 0.2211 0.9448
vn -0.1865 0.3018 0.9350
vn -0.2319 0.2119 0.9494
vn 0.3689 0.0051 0.9295
vn 0.3206 0.0878 0.9432
vn 0.3180 0.0908 0.9437
vn 0.2419 -0.2211 0.9448
vn 0.1865 -0.3018 0.9350
vn 0.2319 -0.2119 0.9494
vn -0.2310 -0.2305 0.9453
vn -0.3138 -0.1646 0.9351
vn -0.2195 -0.2191 0.9507
vn -0.9290 0.2250 0.2937
vn -0.9822 -0.0298 0.1855
vn -0.9133 -0.2720 0.3032
vn 0.2310 0.2305 0.9453
vn 0.3117 0.1689 0.9350
vn 0.2195 0.2191 0.9507
vn -0.2200 -0.9412 0.2564
vn 0.3249 0.1734 0.9297
vn -0.3838 -0.0181 0.9232
vn 0.1933 -0.3128 0.9300
vn -0.1843 -0.3182 0.9299
vn 0.1843 0.3182 0.9299
vn -0.3305 0.1611 0.9299
vn -0.3286 -0.1673 0.9295
vn 0.0001 -0.3677 0.9300
vn 0.3839 0.0066 0.9234
vn 0.3219 -0.1634 0.9326
vn -0.0001 0.3677 0.9300
vn -0.1933 0.3128 0.9300
vn -0.5199 -0.8371 0.1700
vt 0.627517 0.059676
vt 0.574875 0.115412
vt 0.500001 0.047890
vt 0.303973 0.115412
vt 0.627385 0.297800
vt 0.817181 0.262306
vt 0.770906 0.500000
vt 0.166494 0.297800
vt 0.378847 0.262306
vt 0.229094 0.500000
vt 0.892058 0.737694
vt 0.833506 0.702200
vt 0.940397 0.627156
vt 0.500001 0.500000
vt 0.074731 0.500000
vt 0.829686 0.823284
vt 0.372615 0.702200
vt 0.621153 0.737694
vt 0.425125 0.884599
vt 0.182819 0.737694
vt 0.155542 0.808809
vt 0.087764 0.702200
vt 0.372483 0.940324
vt 0.257695 0.884599
vt 0.696027 0.884599
vt 0.500001 0.952121
vt 0.627694 0.940366
vt 0.742597 0.884599
vt 0.912236 0.297800
vt 0.941443 0.392477
vt 0.933188 0.500000
vt 0.952120 0.500000
vt 0.107942 0.262306
vt 0.742305 0.115412
vt 0.844460 0.191202
vt 0.047880 0.500000
vt 0.021551 0.365417
vt 0.063528 0.372918
vt 0.768287 0.925324
vt 0.639636 0.981670
vt 0.500001 1.000000
vt 0.360528 0.981628
vt 0.170314 0.176716
vt 0.054637 0.607408
vt 0.044112 0.723608
vt 0.011788 0.612271
vt 0.372306 0.059634
vt 0.231713 0.074686
vt 0.360364 0.018341
vt 0.500001 0.000000
vt 0.639472 0.018383
vt 0.983911 0.387666
vt 0.232037 0.925324
vt 0.123242 0.837759
vt 0.982747 0.634719
vt 0.767963 0.074686
vt 0.876758 0.162241
vt 0.066427 0.237137
vt 0.139277 0.146337
vt 0.933576 0.762873
vt 0.860726 0.853674
vt 0.000000 0.500000
vt 0.257403 0.115412
vt 1.000000 0.500000
vt 0.955891 0.276392
s 1
f 46/1/1 15/2/2 1/3/3
f 1/3/3 15/2/2 12/4/4
f 3/5/5 16/6/6 24/7/7
f 4/8/8 17/9/9 26/10/10
f 30/11/11 5/12/12 42/13/13
f 3/5/5 24/7/7 27/14/14
f 4/8/8 26/10/10 19/15/15
f 30/11/11 51/16/16 5/12/12
f 6/17/17 31/18/18 37/19/19
f 32/20/20 52/21/21 7/22/22
f 37/19/19 64/23/23 34/24/24
f 34/24/24 32/20/20 37/19/19
f 32/20/20 6/17/17 37/19/19
f 37/19/19 36/25/25 8/26/26
f 37/19/19 31/18/18 36/25/25
f 31/18/18 5/12/12 36/25/25
f 62/27/27 36/25/25 38/28/28
f 2/29/29 58/30/30 25/31/31
f 19/15/15 32/20/20 7/22/22
f 19/15/15 26/10/10 32/20/20
f 26/10/10 6/17/17 32/20/20
f 27/14/14 31/18/18 6/17/17
f 27/14/14 24/7/7 31/18/18
f 24/7/7 5/12/12 31/18/18
f 5/12/12 25/31/31 42/13/13
f 42/13/13 25/31/31 39/32/32
f 26/10/10 27/14/14 6/17/17
f 26/10/10 17/9/9 27/14/14
f 17/9/9 3/5/5 27/14/14
f 24/7/7 25/31/31 5/12/12
f 24/7/7 16/6/6 25/31/31
f 11/33/33 4/8/8 19/15/15
f 12/4/4 17/9/9 4/8/8
f 12/4/4 15/2/2 17/9/9
f 15/2/2 3/5/5 17/9/9
f 15/2/2 16/6/6 3/5/5
f 15/2/2 13/34/34 16/6/6
f 60/35/35 16/6/6 13/34/34
f 40/36/36 55/37/37 54/38/38
f 62/27/39 18/39/40 63/40/41
f 64/23/42 28/41/43 65/42/44
f 11/33/33 48/43/45 4/8/8
f 45/44/46 29/45/47 44/46/48
f 56/47/49 9/48/50 57/49/51
f 46/1/52 35/50/53 47/51/54
f 2/29/55 59/52/56 58/30/57
f 52/21/58 20/53/59 53/54/60
f 39/32/61 43/55/62 42/13/63
f 60/35/64 22/56/65 61/57/66
f 48/43/67 23/58/68 49/59/69
f 19/15/15 45/44/70 40/36/71
f 19/15/15 54/38/72 11/33/33
f 51/16/73 21/60/74 50/61/75
f 12/4/4 56/47/76 1/3/3
f 42/13/63 21/60/74 30/11/77
f 40/36/36 44/46/48 10/62/78
f 46/1/52 22/56/65 13/34/79
f 48/43/67 9/48/50 41/63/80
f 51/16/73 18/39/40 38/28/81
f 52/21/58 29/45/47 7/22/82
f 54/38/38 23/58/68 11/33/83
f 56/47/49 35/50/53 1/3/84
f 39/32/61 59/52/56 14/64/85
f 60/35/64 33/65/86 2/29/55
f 62/27/39 28/41/43 8/26/87
f 64/23/42 20/53/59 34/24/88
f 46/1/1 13/34/34 15/2/2
f 58/30/30 39/32/32 25/31/31
f 32/20/20 34/24/24 52/21/21
f 37/19/19 8/26/26 64/23/23
f 62/27/27 8/26/26 36/25/25
f 51/16/16 38/28/28 36/25/25
f 16/6/6 2/29/29 25/31/31
f 60/35/35 2/29/29 16/6/6
f 40/36/36 10/62/78 55/37/37
f 62/27/39 38/28/81 18/39/40
f 64/23/42 8/26/87 28/41/43
f 48/43/45 41/63/89 12/4/4
f 45/44/46 7/22/82 29/45/47
f 56/47/49 41/63/80 9/48/50
f 46/1/52 1/3/84 35/50/53
f 2/29/55 33/65/86 59/52/56
f 52/21/58 34/24/88 20/53/59
f 39/32/61 14/64/85 43/55/62
f 60/35/64 13/34/79 22/56/65
f 48/43/67 11/33/83 23/58/68
f 19/15/15 7/22/22 45/44/70
f 19/15/15 40/36/71 54/38/72
f 51/16/73 30/11/77 21/60/74
f 12/4/4 41/63/89 56/47/76
f 42/13/63 43/55/62 21/60/74
f 40/36/36 45/44/46 44/46/48
f 46/1/52 47/51/54 22/56/65
f 48/43/67 49/59/69 9/48/50
f 51/16/73 50/61/75 18/39/40
f 52/21/58 53/54/60 29/45/47
f 54/38/38 55/37/37 23/58/68
f 56/47/49 57/49/51 35/50/53
f 39/32/61 58/30/57 59/52/56
f 60/35/64 61/57/66 33/65/86
f 62/27/39 63/40/41 28/41/43
f 64/23/42 65/42/44 20/53/59
f 51/16/16 36/25/25 5/12/12
f 48/43/45 12/4/4 4/8/8
