# Blender 5.0.1
# www.blender.org
mtllib temperature_display_hand.mtl
o TemperatureDisplayHandExport
g temperature_display_hand
v 0.003654 -0.008815 0.000000
v -0.003654 -0.008815 -0.000000
v -0.000000 0.040000 -0.000000
v 0.001583 0.000000 0.000000
v -0.001583 -0.000000 -0.000000
v -0.001583 0.031255 -0.000000
v 0.001583 0.031255 -0.000000
vn -0.0000 -0.0000 1.0000
vt 0.000000 0.750000
vt 0.000000 1.000000
vt 1.000000 0.750000
vt 0.000000 0.500000
vt 1.000000 0.000000
vt 0.000000 0.000000
vt 1.000000 0.500000
s 0
f 7/1/1 3/2/1 6/3/1
f 4/4/1 2/5/1 1/6/1
f 7/1/1 5/7/1 4/4/1
f 4/4/1 5/7/1 2/5/1
f 7/1/1 6/3/1 5/7/1
