# Blender 5.1.2
# www.blender.org
mtllib trolley_wire.mtl
o TrolleyWire
g trolley_wire
v -0.000075 6.008989 -0.007509
v 0.000075 6.009011 40.006989
v 0.008924 5.999989 -0.007645
v 0.009074 6.000011 40.006851
v -0.000075 5.990989 -0.007509
v 0.000075 5.991011 40.006989
v -0.009074 5.999989 -0.007374
v -0.008924 6.000011 40.007122
vn 0.0066 1.0000 -0.0000
vn 1.0000 -0.0000 -0.0000
vn 0.0066 -1.0000 -0.0000
vn 0.0150 -0.0000 0.9999
vn -0.0066 -1.0000 -0.0000
vn -1.0000 -0.0000 -0.0000
vn -0.0066 1.0000 -0.0000
vn -0.0150 -0.0000 -0.9999
vt 0.997748 0.003062
vt 0.988422 0.002978
vt 0.997748 0.002978
vt 0.997748 0.002895
vt 0.988422 0.003062
vt 0.988422 0.002895
vt 0.997748 0.002978
vt 0.988422 0.002978
s 1
usemtl Catenary
f 1/1/1 4/2/2 3/3/2
f 4/2/2 5/4/3 3/3/2
f 2/5/4 6/6/4 4/2/4
f 6/6/5 7/7/6 5/4/3
f 7/7/6 2/5/7 1/1/1
f 1/1/8 5/4/8 7/7/8
f 1/1/1 2/5/7 4/2/2
f 4/2/2 6/6/5 5/4/3
f 2/5/4 8/8/4 6/6/4
f 6/6/5 8/8/6 7/7/6
f 7/7/6 8/8/6 2/5/7
f 1/1/8 3/3/8 5/4/8
