# Blender 5.1.2
# www.blender.org
mtllib trolley_wire_end.mtl
o TerminationInsulator.008
g trolley_wire_end
v 0.008009 6.002471 39.649376
v 0.102411 6.002471 39.663994
v 0.038884 6.002471 39.777973
v 0.027407 5.974761 39.777966
v 0.073122 5.931760 39.663967
v 0.006041 5.997718 39.649376
v -0.000303 5.963284 39.777939
v 0.002411 5.902471 39.663906
v 0.001288 5.995749 39.649372
v -0.028012 5.974761 39.777916
v -0.068300 5.931760 39.663845
v -0.003876 5.997975 39.649368
v -0.039490 6.002471 39.777905
v -0.097589 6.002471 39.663818
v -0.005762 6.002471 39.649364
v -0.028012 6.030180 39.777916
v -0.068300 6.073182 39.663845
v -0.003876 6.006967 39.649368
v -0.000303 6.041658 39.777939
v 0.002411 6.102471 39.663906
v 0.001288 6.009192 39.649372
v 0.027407 6.030180 39.777966
v 0.073121 6.073182 39.663967
v 0.006041 6.007224 39.649376
v 0.017966 6.002471 39.777958
v 0.012615 5.989553 39.777950
v -0.000303 5.984202 39.777939
v -0.013221 5.989553 39.777927
v -0.018572 6.002471 39.777924
v -0.013221 6.015389 39.777927
v -0.000303 6.020740 39.777939
v 0.012615 6.015389 39.777950
v 0.017810 6.002471 39.955750
v 0.012460 5.989553 39.955746
v -0.000459 5.984202 39.955734
v -0.013377 5.989553 39.955723
v -0.018728 6.002471 39.955719
v -0.013377 6.015389 39.955723
v -0.000459 6.020740 39.955734
v 0.012460 6.015389 39.955746
v -0.034483 6.015389 39.955704
v -0.021565 6.020740 39.955715
v -0.039834 6.002471 39.955700
v -0.034483 5.989553 39.955704
v -0.021565 5.984202 39.955715
v -0.034503 6.015389 39.978489
v -0.021585 6.020740 39.978497
v -0.039854 6.002471 39.978481
v -0.034503 5.989553 39.978489
v -0.021585 5.984202 39.978497
v 0.034076 6.015389 39.955765
v 0.039427 6.002471 39.955769
v 0.021158 6.020740 39.955753
v 0.034076 5.989553 39.955765
v 0.021158 5.984202 39.955753
v 0.034056 6.015389 39.978546
v 0.039407 6.002471 39.978554
v 0.021138 6.020740 39.978535
v 0.034056 5.989553 39.978546
v 0.021138 5.984202 39.978535
vn 0.1681 -0.8430 -0.5110
vn 0.0009 -0.0000 -1.0000
vn 0.0001 -0.9864 -0.1644
vn 0.1672 -0.8430 0.5113
vn 0.1090 0.1078 -0.9882
vn 0.1530 -0.0000 -0.9882
vn 0.1085 0.1083 -0.9882
vn 0.6156 -0.6234 0.4820
vn 0.0043 -0.8823 0.4706
vn 0.6216 -0.6174 0.4822
vn -0.0006 -0.1534 -0.9882
vn -0.1088 -0.1102 -0.9879
vn -0.1107 -0.1086 -0.9879
vn -0.8911 -0.0000 0.4538
vn -0.6323 0.6243 0.4587
vn -0.6261 0.6305 0.4588
vn -0.6323 -0.6243 0.4587
vn -0.6261 -0.6305 0.4588
vn -0.1554 -0.0000 -0.9878
vn -0.1555 -0.0000 -0.9878
vn -0.1088 0.1102 -0.9879
vn -0.0006 0.1534 -0.9882
vn -0.1107 0.1086 -0.9879
vn -0.0079 0.8824 0.4704
vn 0.0043 0.8823 0.4706
vn 0.1090 -0.1078 -0.9882
vn 0.1085 -0.1083 -0.9882
vn -0.0079 -0.8824 0.4704
vn 0.0012 -0.1539 -0.9881
vn -0.0009 -0.0000 1.0000
vn -0.7071 -0.7071 -0.0006
vn -1.0000 -0.0000 -0.0009
vn -0.7071 0.7071 -0.0006
vn -0.0000 1.0000 -0.0000
vn 0.7071 0.7071 0.0006
vn 1.0000 -0.0000 0.0009
vn 0.7071 -0.7071 0.0006
vn -0.0000 -1.0000 -0.0000
vn -0.1672 -0.8430 -0.5113
vn 0.1672 0.8430 0.5113
vn 0.1681 0.8430 -0.5110
vn 0.0001 0.9864 -0.1644
vn 0.6216 0.6174 0.4822
vn 0.8735 -0.0000 0.4868
vn -0.1681 0.8430 0.5110
vn -0.1672 0.8430 -0.5113
vn 0.0012 0.1539 -0.9881
vn 0.6156 0.6234 0.4820
vn -0.1681 -0.8430 0.5110
vt 0.974819 0.011201
vt 0.973782 0.009471
vt 0.973420 0.007486
vt 0.961534 0.006322
vt 0.960633 0.007306
vt 0.960784 0.006475
vt 0.963023 0.008546
vt 0.962262 0.010320
vt 0.961534 0.009106
vt 0.962043 0.011054
vt 0.963371 0.011200
vt 0.962706 0.011579
vt 0.964718 0.003795
vt 0.964120 0.005631
vt 0.963371 0.004228
vt 0.964120 0.009797
vt 0.964718 0.011632
vt 0.963425 0.011963
vt 0.964230 0.012222
vt 0.962043 0.004374
vt 0.962706 0.003848
vt 0.963458 0.006157
vt 0.962262 0.005108
vt 0.963425 0.003464
vt 0.964230 0.003206
vt 0.960633 0.008121
vt 0.960784 0.008953
vt 0.963458 0.009271
vt 0.961071 0.009716
vt 0.961506 0.010441
vt 0.964925 0.005373
vt 0.962871 0.007714
vt 0.976399 0.012455
vt 0.978320 0.013071
vt 0.976399 0.002518
vt 0.974819 0.003771
vt 0.973782 0.005502
vt 0.978320 0.001901
vt 0.961281 0.007714
vt 0.977217 0.003898
vt 0.961071 0.005712
vt 0.961506 0.004987
vt 0.963023 0.006882
vt 0.964925 0.010055
s 1
usemtl Catenary
f 55/1/1 34/2/2 33/3/2
f 35/1/3 55/1/1 60/1/4
f 23/4/5 1/5/6 24/6/7
f 4/7/8 8/8/9 5/9/10
f 9/10/11 11/11/12 12/12/13
f 14/13/14 16/14/15 17/15/16
f 10/16/17 14/17/14 11/11/18
f 12/18/13 14/17/19 15/19/20
f 17/15/21 21/20/22 18/21/23
f 17/15/16 19/22/24 20/23/25
f 14/13/19 18/24/23 15/25/20
f 1/26/6 5/9/26 6/27/27
f 7/28/28 11/11/18 8/8/9
f 6/29/27 8/8/29 9/30/11
f 29/31/30 30/14/30 16/14/30
f 25/32/30 26/7/30 4/7/30
f 28/33/31 37/34/32 29/34/32
f 30/35/33 39/36/34 31/36/34
f 32/37/35 33/3/36 25/3/36
f 25/3/36 34/2/37 26/2/37
f 27/1/38 36/33/31 28/33/31
f 29/38/32 38/35/33 30/35/33
f 31/36/34 40/37/35 32/37/35
f 26/2/37 35/1/38 27/1/38
f 37/34/2 36/33/2 45/1/39
f 58/36/40 53/36/41 39/36/42
f 23/4/43 3/32/44 2/39/44
f 44/33/31 48/34/32 43/34/32
f 41/35/33 47/36/45 42/36/46
f 45/1/39 49/33/31 44/33/31
f 43/38/32 46/35/33 41/35/33
f 58/40/40 47/40/45 60/40/4
f 54/2/37 60/1/4 55/1/1
f 51/37/35 57/3/36 52/3/36
f 52/3/36 59/2/37 54/2/37
f 53/36/41 56/37/35 51/37/35
f 20/23/47 24/41/7 21/42/22
f 20/23/25 22/43/48 23/4/43
f 3/32/44 5/9/10 2/39/44
f 40/37/2 39/36/42 53/36/41
f 53/36/41 51/37/2 33/3/2
f 51/37/2 52/3/2 33/3/2
f 52/3/2 54/2/2 33/3/2
f 54/2/2 55/1/1 33/3/2
f 55/1/1 35/1/3 34/2/2
f 33/3/2 40/37/2 53/36/41
f 60/1/4 50/1/49 35/1/3
f 50/1/49 45/1/39 35/1/3
f 23/4/5 2/39/6 1/5/6
f 4/7/8 7/28/28 8/8/9
f 9/10/11 8/8/29 11/11/12
f 14/13/14 13/31/14 16/14/15
f 10/16/17 13/44/14 14/17/14
f 12/18/13 11/11/12 14/17/19
f 17/15/21 20/23/47 21/20/22
f 17/15/16 16/14/15 19/22/24
f 14/13/19 17/15/21 18/24/23
f 1/26/6 2/39/6 5/9/26
f 7/28/28 10/16/17 11/11/18
f 6/29/27 5/9/26 8/8/29
f 16/14/30 13/44/30 29/31/30
f 13/44/30 10/16/30 29/31/30
f 10/16/30 7/28/30 27/28/30
f 10/16/30 27/28/30 28/16/30
f 22/43/30 19/22/30 31/22/30
f 19/22/30 16/14/30 31/22/30
f 31/22/30 32/43/30 22/43/30
f 10/16/30 28/16/30 29/31/30
f 30/14/30 31/22/30 16/14/30
f 4/7/30 3/32/30 25/32/30
f 3/32/30 22/43/30 25/32/30
f 22/43/30 32/43/30 25/32/30
f 26/7/30 27/28/30 7/28/30
f 26/7/30 7/28/30 4/7/30
f 28/33/31 36/33/31 37/34/32
f 30/35/33 38/35/33 39/36/34
f 32/37/35 40/37/35 33/3/36
f 25/3/36 33/3/36 34/2/37
f 27/1/38 35/1/38 36/33/31
f 29/38/32 37/38/32 38/35/33
f 31/36/34 39/36/34 40/37/35
f 26/2/37 34/2/37 35/1/38
f 42/36/46 39/36/42 38/35/2
f 42/36/46 38/35/2 37/34/2
f 43/38/2 41/35/2 37/34/2
f 41/35/2 42/36/46 37/34/2
f 45/1/39 44/33/2 37/34/2
f 44/33/2 43/38/2 37/34/2
f 36/33/2 35/1/3 45/1/39
f 42/36/46 47/36/45 39/36/42
f 47/36/45 58/36/40 39/36/42
f 23/4/43 22/43/48 3/32/44
f 44/33/31 49/33/31 48/34/32
f 41/35/33 46/35/33 47/36/45
f 45/1/39 50/1/49 49/33/31
f 43/38/32 48/38/32 46/35/33
f 46/40/30 48/40/30 49/40/30
f 49/40/30 50/40/49 46/40/30
f 50/40/49 60/40/4 47/40/45
f 46/40/30 50/40/49 47/40/45
f 60/40/4 59/40/30 57/40/30
f 57/40/30 56/40/30 60/40/4
f 56/40/30 58/40/40 60/40/4
f 54/2/37 59/2/37 60/1/4
f 51/37/35 56/37/35 57/3/36
f 52/3/36 57/3/36 59/2/37
f 53/36/41 58/36/40 56/37/35
f 20/23/47 23/4/5 24/41/7
f 20/23/25 19/22/24 22/43/48
f 3/32/44 4/7/8 5/9/10
o TrolleyWire.001
v -0.000075 6.008984 -0.007509
v 0.000075 6.009016 40.006989
v 0.008924 5.999984 -0.007645
v 0.009074 6.000016 40.006851
v -0.000075 5.990984 -0.007509
v 0.000075 5.991016 40.006989
v -0.009074 5.999984 -0.007374
v -0.008924 6.000016 40.007122
vn 0.0066 1.0000 -0.0000
vn 1.0000 -0.0000 -0.0000
vn 0.0066 -1.0000 -0.0000
vn 0.0150 -0.0000 0.9999
vn -0.0066 -1.0000 -0.0000
vn -1.0000 -0.0000 -0.0000
vn -0.0066 1.0000 -0.0000
vn -0.0150 -0.0000 -0.9999
vt 0.997748 0.003062
vt 0.988422 0.002978
vt 0.997748 0.002978
vt 0.997748 0.002895
vt 0.988422 0.003062
vt 0.988422 0.002895
vt 0.997748 0.002978
vt 0.988422 0.002978
s 1
usemtl Catenary
f 61/45/50 64/46/51 63/47/51
f 64/46/51 65/48/52 63/47/51
f 62/49/53 66/50/53 64/46/53
f 66/50/54 67/51/55 65/48/52
f 67/51/55 62/49/56 61/45/50
f 61/45/57 65/48/57 67/51/57
f 61/45/50 62/49/56 64/46/51
f 64/46/51 66/50/54 65/48/52
f 62/49/53 68/52/53 66/50/53
f 66/50/54 68/52/55 67/51/55
f 67/51/55 68/52/55 62/49/56
f 61/45/57 63/47/57 65/48/57
