# Blender 5.1.2
# www.blender.org
mtllib trolley_inner.mtl
o TrolleyCantileverInner
g trolley_inner
v -2.066639 6.960000 -0.024780
v -2.066639 6.945858 -0.018922
v -2.066639 6.945858 0.009362
v -2.066639 6.960000 0.015220
v -2.066639 6.974142 -0.018922
v -2.066639 6.940000 -0.004780
v -2.066639 6.974142 0.009362
v -2.066639 6.980000 -0.004780
v 0.985858 6.098279 0.009362
v 0.982077 6.488233 0.009362
v 0.972051 6.573597 0.009362
v 0.943626 6.657393 0.009362
v 0.897685 6.741029 0.009362
v 0.847048 6.803005 0.009362
v 0.781282 6.859837 0.009362
v 0.718317 6.896028 0.009362
v 0.659911 6.919771 0.009362
v 0.600589 6.935689 0.009362
v 0.535967 6.944519 0.009362
v 0.537011 6.958622 0.015220
v 0.664562 6.933126 0.015220
v 0.789226 6.871537 0.015220
v 0.857118 6.812935 0.015220
v 0.956537 6.663145 0.015220
v 0.985937 6.576275 0.015220
v 1.000000 6.098278 0.015220
v 1.014142 6.098279 -0.018922
v 1.013232 6.490454 -0.018922
v 0.999823 6.578954 -0.018922
v 0.969448 6.668899 -0.018922
v 0.920772 6.757342 -0.018922
v 0.867187 6.822865 -0.018922
v 0.797169 6.883238 -0.018922
v 0.731019 6.921299 -0.018922
v 0.669213 6.946482 -0.018922
v 0.606543 6.964398 -0.018922
v 0.538054 6.972726 -0.018922
v 0.538486 6.978568 -0.004780
v 0.607507 6.969049 -0.004780
v 0.671140 6.952013 -0.004780
v 0.733650 6.926533 -0.004780
v 0.800459 6.888085 -0.004780
v 0.871358 6.826978 -0.004780
v 0.925553 6.760721 -0.004780
v 0.974796 6.671281 -0.004780
v 0.965293 6.572294 -0.004780
v 1.005575 6.580063 -0.004780
v 1.019079 6.490804 -0.004780
v 1.020000 6.098278 -0.004780
v 0.603672 6.950551 -0.024780
v 0.664562 6.933126 -0.024780
v 0.724669 6.908663 -0.024780
v 0.857118 6.812935 -0.024780
v 0.956537 6.663145 -0.024780
v 0.985937 6.576275 -0.024780
v 1.000000 6.098278 -0.024780
v 0.980000 6.098279 -0.004780
v 0.976265 6.487501 -0.004780
v 0.938278 6.655010 -0.004780
v 0.892903 6.737650 -0.004780
v 0.842877 6.798892 -0.004780
v 0.777992 6.854990 -0.004780
v 0.715686 6.890794 -0.004780
v 0.657984 6.914239 -0.004780
v 0.599402 6.929965 -0.004780
v 0.535535 6.938677 -0.004780
v 0.535967 6.944519 -0.018922
v 0.600589 6.935689 -0.018922
v 0.659911 6.919771 -0.018922
v 0.718317 6.896027 -0.018922
v 0.781283 6.859837 -0.018922
v 0.847048 6.803005 -0.018922
v 0.897679 6.740979 -0.018922
v 0.943626 6.657393 -0.018922
v 0.972051 6.573596 -0.018922
v 0.982077 6.488232 -0.018922
v 0.985858 6.098278 -0.018922
v 1.014142 6.098279 0.009362
v 1.013232 6.490454 0.009362
v 0.999823 6.578954 0.009362
v 0.969448 6.668899 0.009362
v 0.920772 6.757342 0.009362
v 0.867187 6.822865 0.009362
v 0.797169 6.883238 0.009362
v 0.731019 6.921299 0.009362
v 0.669213 6.946482 0.009362
v 0.606320 6.963325 0.009362
v 0.538054 6.972726 0.009362
v 0.603658 6.950508 0.015220
v 0.724563 6.908710 0.015220
v 0.909084 6.748600 0.015220
v 0.789611 6.871362 -0.024780
v 0.909287 6.748341 -0.024780
v 0.535970 6.957295 -0.024780
v 0.998522 6.489320 0.015220
v 0.999700 6.488310 -0.024780
v -2.090661 8.013233 -0.004982
v 0.014068 6.968214 -0.004982
v -2.090933 8.012605 -0.008426
v 0.013797 6.967585 -0.008426
v -2.091705 8.010813 -0.011346
v 0.013024 6.965794 -0.011346
v -2.092862 8.008133 -0.013297
v 0.011868 6.963113 -0.013297
v -2.094226 8.004971 -0.013982
v 0.010503 6.959950 -0.013982
v -2.095590 8.001807 -0.013297
v 0.009139 6.956788 -0.013297
v -2.096747 7.999126 -0.011346
v 0.007983 6.954107 -0.011346
v -2.097520 7.997335 -0.008426
v 0.007210 6.952315 -0.008426
v -2.097791 7.996706 -0.004982
v 0.006938 6.951686 -0.004982
v -2.097520 7.997335 -0.001538
v 0.007210 6.952315 -0.001538
v -2.096747 7.999126 0.001382
v 0.007983 6.954107 0.001382
v -2.095590 8.001807 0.003333
v 0.009139 6.956788 0.003333
v -2.094226 8.004971 0.004018
v 0.010503 6.959950 0.004018
v -2.092862 8.008133 0.003333
v 0.011868 6.963113 0.003333
v -2.091705 8.010813 0.001382
v 0.013024 6.965794 0.001382
v -2.090933 8.012605 -0.001538
v 0.013797 6.967585 -0.001538
v -0.300000 6.030690 -0.050000
v -0.300000 6.080690 -0.050000
v -0.264645 6.030690 -0.035355
v -0.264645 6.080690 -0.035355
v -0.250000 6.030690 0.000000
v -0.250000 6.080690 0.000000
v -0.264645 6.030690 0.035355
v -0.264645 6.080690 0.035355
v -0.300000 6.030690 0.050000
v -0.300000 6.080690 0.050000
v -0.335355 6.030690 0.035355
v -0.335355 6.080690 0.035355
v -0.350000 6.030690 0.000000
v -0.350000 6.080690 0.000000
v -0.335355 6.030690 -0.035355
v -0.335355 6.080690 -0.035355
v -0.300000 6.030690 -0.013314
v -0.290585 6.030690 -0.009415
v -0.286686 6.030690 0.000000
v -0.290585 6.030690 0.009415
v -0.300000 6.030690 0.013314
v -0.309415 6.030690 0.009415
v -0.313314 6.030690 0.000000
v -0.309415 6.030690 -0.009415
v -0.300000 6.007700 -0.013314
v -0.290585 6.007700 -0.009415
v -0.286686 6.007700 0.000000
v -0.290585 6.007700 0.009415
v -0.300000 6.007700 0.013314
v -0.309415 6.007700 0.009415
v -0.313314 6.007700 0.000000
v -0.309415 6.007700 -0.009415
v -0.300000 5.999655 -0.013314
v -0.293792 5.999655 -0.009415
v -0.291220 5.999655 0.000000
v -0.293792 5.999655 0.009415
v -0.300000 5.999655 0.013314
v -0.306208 5.999655 0.009415
v -0.308780 5.999655 0.000000
v -0.306208 5.999655 -0.009415
v -0.257322 6.080690 -0.017678
v -0.257322 6.080690 0.017678
v -0.342678 6.080690 0.017678
v -0.342678 6.080690 -0.017678
v -0.220000 6.109542 0.017678
v -0.380000 6.109542 -0.017678
v -0.220000 6.109542 -0.017678
v -0.380000 6.109542 0.017678
v -0.220000 6.080690 0.017678
v -0.380000 6.080690 -0.017678
v -0.220000 6.080690 -0.017678
v -0.380000 6.080690 0.017678
v -2.055285 6.209536 -0.004982
v -0.376966 6.104347 -0.004982
v -2.055249 6.208852 -0.008427
v -0.376929 6.103663 -0.008427
v -2.055144 6.206904 -0.011346
v -0.376825 6.101715 -0.011346
v -2.054988 6.203989 -0.013297
v -0.376669 6.098799 -0.013297
v -2.054804 6.200549 -0.013982
v -0.376484 6.095360 -0.013982
v -2.054620 6.197110 -0.013297
v -0.376300 6.091920 -0.013297
v -2.054464 6.194194 -0.011346
v -0.376144 6.089005 -0.011346
v -2.054359 6.192246 -0.008427
v -0.376040 6.087057 -0.008427
v -2.054323 6.191562 -0.004982
v -0.376003 6.086373 -0.004982
v -2.054359 6.192246 -0.001538
v -0.376040 6.087057 -0.001538
v -2.054464 6.194194 0.001382
v -0.376144 6.089005 0.001382
v -2.054620 6.197110 0.003333
v -0.376300 6.091920 0.003333
v -2.054804 6.200549 0.004018
v -0.376484 6.095360 0.004018
v -2.054988 6.203989 0.003333
v -0.376669 6.098799 0.003333
v -2.055144 6.206904 0.001382
v -0.376825 6.101715 0.001382
v -2.055249 6.208852 -0.001538
v -0.376929 6.103663 -0.001538
v -0.227882 6.104528 -0.004982
v 0.980879 6.209353 -0.004982
v -0.227845 6.103844 -0.008427
v 0.980916 6.208669 -0.008427
v -0.227741 6.101896 -0.011346
v 0.981020 6.206721 -0.011346
v -0.227585 6.098980 -0.013297
v 0.981176 6.203805 -0.013297
v -0.227401 6.095541 -0.013982
v 0.981361 6.200366 -0.013982
v -0.227216 6.092102 -0.013297
v 0.981545 6.196927 -0.013297
v -0.227060 6.089186 -0.011346
v 0.981701 6.194011 -0.011346
v -0.226956 6.087238 -0.008427
v 0.981805 6.192063 -0.008427
v -0.226919 6.086554 -0.004982
v 0.981842 6.191379 -0.004982
v -0.226956 6.087238 -0.001538
v 0.981805 6.192063 -0.001538
v -0.227060 6.089186 0.001382
v 0.981701 6.194011 0.001382
v -0.227216 6.092102 0.003333
v 0.981545 6.196927 0.003333
v -0.227401 6.095541 0.004018
v 0.981361 6.200366 0.004018
v -0.227585 6.098980 0.003333
v 0.981176 6.203805 0.003333
v -0.227741 6.101896 0.001382
v 0.981020 6.206721 0.001382
v -0.227845 6.103844 -0.001538
v 0.980916 6.208669 -0.001538
vn 0.6973 0.1687 0.6967
vn 0.9153 0.4027 -0.0000
vn 0.6570 0.2890 0.6963
vn -0.5799 -0.3916 0.7144
vn -0.4991 -0.4855 0.7178
vn -0.7170 -0.6971 -0.0000
vn -0.8292 -0.5590 0.0009
vn 0.2015 0.9790 0.0311
vn 0.2276 0.6774 0.6995
vn 0.3188 0.9478 -0.0000
vn -0.0004 -0.7070 0.7072
vn -0.0679 -0.9977 -0.0000
vn -0.0475 -0.6971 0.7154
vn 0.0138 0.0186 0.9997
vn 0.0151 0.0148 0.9998
vn 0.4155 0.5859 0.6958
vn -0.6371 -0.2778 0.7189
vn -0.6569 -0.1506 0.7388
vn 0.0197 0.0085 0.9998
vn 0.1484 0.7229 -0.6749
vn 0.2300 0.6773 -0.6988
vn 0.0058 0.0129 -0.9999
vn 0.5922 0.4003 0.6993
vn 0.0226 0.0087 0.9997
vn -0.6811 -0.0459 0.7307
vn 0.0011 0.0165 0.9999
vn -0.1369 -0.6784 0.7218
vn 0.0099 0.0055 -0.9999
vn -0.5799 -0.3924 -0.7139
vn -0.4997 -0.4852 -0.7176
vn -0.4023 -0.5669 0.7189
vn -0.9741 -0.2263 -0.0000
vn -0.6569 -0.1506 -0.7388
vn -0.9980 -0.0631 -0.0000
vn 0.0088 0.0440 0.9990
vn 0.1432 0.7085 0.6910
vn 0.0198 0.0085 -0.9998
vn 0.6974 0.1693 -0.6964
vn 0.0221 0.0093 -0.9997
vn 0.0151 0.0153 -0.9998
vn 0.0152 0.0204 -0.9997
vn 0.4157 0.5865 -0.6952
vn 0.0585 0.0037 -0.9983
vn -0.7052 -0.0050 -0.7090
vn -0.6740 -0.0468 -0.7373
vn -0.4382 -0.8989 -0.0000
vn -0.2227 -0.6630 0.7147
vn -0.3183 -0.9480 -0.0000
vn -0.6371 -0.2779 -0.7189
vn -0.9177 -0.3974 -0.0000
vn -0.0025 -0.0191 -0.9998
vn 0.0059 0.0328 -0.9994
vn -0.1351 -0.6793 -0.7213
vn -0.2227 -0.6630 -0.7147
vn 0.5138 0.5006 0.6967
vn 0.8282 0.5604 -0.0000
vn 0.7161 0.6980 -0.0000
vn -0.0492 -0.7111 -0.7014
vn 0.0431 0.7021 -0.7108
vn 0.7075 0.0013 -0.7067
vn 0.7176 0.0561 -0.6942
vn 0.0070 0.0147 0.9999
vn -0.3064 -0.6279 0.7154
vn 0.0071 0.0149 -0.9999
vn 0.3140 0.6425 -0.6990
vn -0.3064 -0.6279 -0.7154
vn 0.0085 0.0051 1.0000
vn 0.0004 0.7072 0.7070
vn 0.0491 0.7135 0.6989
vn -0.7054 -0.0056 0.7088
vn 0.0339 0.0025 0.9994
vn 0.0009 -0.0000 1.0000
vn 0.0046 0.0144 0.9999
vn -0.5792 -0.8152 -0.0000
vn -0.4017 -0.5665 -0.7196
vn 0.4393 0.8984 -0.0000
vn 0.0005 1.0000 -0.0000
vn 0.0654 0.9979 0.0023
vn -0.1976 -0.9803 -0.0000
vn 0.9721 0.2347 -0.0000
vn 0.5138 0.5006 -0.6967
vn 0.5923 0.4005 -0.6992
vn 0.0005 0.7071 -0.7071
vn -0.0000 0.0003 -1.0000
vn 0.7073 0.0019 0.7069
vn 0.6570 0.2890 -0.6963
vn 0.3140 0.6425 0.6990
vn 0.7089 0.0543 0.7032
vn 1.0000 0.0023 -0.0000
vn 0.9971 0.0759 -0.0000
vn -0.0000 0.0001 1.0000
vn -0.0005 -0.7071 -0.7071
vn 0.5780 0.8160 -0.0000
vn -1.0000 -0.0096 -0.0000
vn 0.0002 -0.0000 -1.0000
vn 0.4447 0.8957 -0.0000
vn 0.4114 0.8285 -0.3799
vn 0.4105 0.8268 -0.3846
vn 0.3161 0.6367 -0.7033
vn 0.3132 0.6308 -0.7099
vn 0.1729 0.3483 -0.9213
vn 0.1679 0.3381 -0.9260
vn 0.0030 0.0060 -1.0000
vn -0.0030 -0.0060 -1.0000
vn -0.1678 -0.3381 -0.9260
vn -0.1729 -0.3483 -0.9213
vn -0.3132 -0.6308 -0.7099
vn -0.3162 -0.6367 -0.7033
vn -0.4105 -0.8268 -0.3846
vn -0.4114 -0.8285 -0.3799
vn -0.4447 -0.8957 -0.0000
vn -0.4114 -0.8285 0.3799
vn -0.4105 -0.8268 0.3846
vn -0.3162 -0.6367 0.7033
vn -0.3132 -0.6308 0.7099
vn -0.1729 -0.3483 0.9213
vn -0.1678 -0.3381 0.9260
vn -0.0030 -0.0060 1.0000
vn 0.0030 0.0060 1.0000
vn 0.1679 0.3381 0.9260
vn 0.1729 0.3483 0.9213
vn 0.3132 0.6308 0.7099
vn 0.3161 0.6367 0.7033
vn 0.4105 0.8268 0.3846
vn 0.4114 0.8285 0.3799
vn -0.0000 -0.0000 -1.0000
vn 0.7071 -0.0000 -0.7071
vn 0.9239 -0.0000 -0.3827
vn 1.0000 -0.0000 -0.0000
vn 0.9239 -0.0000 0.3827
vn 0.7071 -0.0000 0.7071
vn -0.0000 -0.0000 1.0000
vn -0.7071 -0.0000 0.7071
vn -0.9239 -0.0000 0.3827
vn -1.0000 -0.0000 -0.0000
vn -0.0000 1.0000 -0.0000
vn -0.9239 -0.0000 -0.3827
vn -0.7071 -0.0000 -0.7071
vn -0.0000 -0.0447 0.9990
vn -0.0001 -1.0000 -0.0000
vn -0.0000 -1.0000 -0.0000
vn -0.7272 -0.1612 -0.6673
vn -0.8996 -0.4368 -0.0000
vn -0.9708 -0.2398 -0.0000
vn 0.9708 -0.2398 -0.0000
vn -0.0000 -0.0447 -0.9990
vn -0.7272 -0.1612 0.6673
vn 0.7272 -0.1612 0.6673
vn 0.7272 -0.1612 -0.6673
vn -0.7093 -0.2252 0.6680
vn 0.8996 -0.4368 -0.0000
vn 0.7093 -0.2252 -0.6680
vn -0.7093 -0.2252 -0.6680
vn 0.7093 -0.2252 0.6680
vn 0.0626 0.9980 -0.0000
vn 0.0580 0.9250 -0.3755
vn 0.0577 0.9208 -0.3856
vn 0.0448 0.7151 -0.6976
vn 0.0439 0.7008 -0.7120
vn 0.0248 0.3963 -0.9178
vn 0.0233 0.3717 -0.9281
vn 0.0009 0.0145 -0.9999
vn -0.0009 -0.0145 -0.9999
vn -0.0233 -0.3717 -0.9281
vn -0.0248 -0.3963 -0.9178
vn -0.0439 -0.7008 -0.7120
vn -0.0448 -0.7151 -0.6976
vn -0.0577 -0.9208 -0.3856
vn -0.0580 -0.9250 -0.3755
vn -0.0626 -0.9980 -0.0000
vn -0.0580 -0.9250 0.3755
vn -0.0577 -0.9208 0.3856
vn -0.0448 -0.7151 0.6976
vn -0.0439 -0.7008 0.7120
vn -0.0248 -0.3963 0.9178
vn -0.0233 -0.3717 0.9281
vn -0.0009 -0.0145 0.9999
vn 0.0009 0.0145 0.9999
vn 0.0233 0.3717 0.9281
vn 0.0248 0.3963 0.9178
vn 0.0439 0.7008 0.7120
vn 0.0448 0.7151 0.6976
vn 0.0577 0.9208 0.3856
vn 0.0580 0.9250 0.3755
vn -0.0864 0.9963 -0.0000
vn -0.0799 0.9211 -0.3810
vn -0.0798 0.9199 -0.3839
vn -0.0613 0.7067 -0.7049
vn -0.0609 0.7026 -0.7090
vn -0.0334 0.3849 -0.9223
vn -0.0328 0.3779 -0.9252
vn -0.0004 0.0041 -1.0000
vn 0.0004 -0.0041 -1.0000
vn 0.0328 -0.3779 -0.9252
vn 0.0334 -0.3849 -0.9223
vn 0.0609 -0.7026 -0.7090
vn 0.0613 -0.7067 -0.7049
vn 0.0798 -0.9199 -0.3839
vn 0.0799 -0.9211 -0.3810
vn 0.0864 -0.9963 -0.0000
vn 0.0799 -0.9211 0.3810
vn 0.0798 -0.9199 0.3839
vn 0.0613 -0.7067 0.7049
vn 0.0609 -0.7026 0.7090
vn 0.0334 -0.3849 0.9223
vn 0.0328 -0.3779 0.9252
vn 0.0004 -0.0041 1.0000
vn -0.0004 0.0041 1.0000
vn -0.0328 0.3779 0.9252
vn -0.0334 0.3849 0.9223
vn -0.0609 0.7026 0.7090
vn -0.0613 0.7067 0.7049
vn -0.0798 0.9199 0.3839
vn -0.0799 0.9211 0.3810
vn -0.0005 -1.0000 -0.0000
vn -0.0001 1.0000 -0.0000
vn 0.0001 1.0000 -0.0000
vn -0.0002 -1.0000 -0.0000
vn -0.0000 -1.0000 -0.0002
vn -0.0000 -1.0000 0.0001
vt 0.975898 0.012526
vt 0.975864 0.012311
vt 0.975898 0.012311
vt 0.975972 0.012082
vt 0.975975 0.011885
vt 0.976014 0.011886
vt 0.976009 0.012083
vt 0.975867 0.011106
vt 0.975908 0.011289
vt 0.975866 0.011289
vt 0.976020 0.002548
vt 0.976056 0.010906
vt 0.976008 0.010905
vt 0.975941 0.011661
vt 0.975937 0.011884
vt 0.975902 0.011660
vt 0.975970 0.012312
vt 0.975968 0.012523
vt 0.975934 0.012312
vt 0.975824 0.011107
vt 0.975824 0.011289
vt 0.975781 0.011289
vt 0.975899 0.012081
vt 0.975933 0.012524
vt 0.975975 0.012726
vt 0.975960 0.010904
vt 0.976001 0.011108
vt 0.975793 0.012083
vt 0.975757 0.012082
vt 0.975754 0.011884
vt 0.975980 0.011663
vt 0.975721 0.012521
vt 0.975759 0.012522
vt 0.975715 0.012726
vt 0.975952 0.011107
vt 0.975910 0.011107
vt 0.975794 0.012311
vt 0.975829 0.012525
vt 0.975794 0.012524
vt 0.975792 0.011884
vt 0.975790 0.011662
vt 0.975828 0.011660
vt 0.975794 0.012729
vt 0.975753 0.013638
vt 0.975751 0.012726
vt 0.976029 0.011470
vt 0.975994 0.011291
vt 0.976039 0.011292
vt 0.975715 0.011885
vt 0.975719 0.012083
vt 0.975758 0.012312
vt 0.975721 0.012312
vt 0.976006 0.012522
vt 0.976006 0.012312
vt 0.975769 0.010901
vt 0.975780 0.011107
vt 0.975731 0.011108
vt 0.975738 0.011290
vt 0.975901 0.011883
vt 0.975864 0.012080
vt 0.975865 0.011883
vt 0.975725 0.010905
vt 0.975820 0.010904
vt 0.975825 0.013639
vt 0.975828 0.012727
vt 0.975945 0.011468
vt 0.975987 0.011469
vt 0.975785 0.011468
vt 0.975826 0.011467
vt 0.975744 0.011468
vt 0.975936 0.012082
vt 0.975922 0.002548
vt 0.975913 0.010904
vt 0.975969 0.013639
vt 0.975934 0.012727
vt 0.975933 0.013639
vt 0.975950 0.011290
vt 0.976020 0.011665
vt 0.975693 0.011292
vt 0.975710 0.011664
vt 0.975750 0.011663
vt 0.975865 0.011467
vt 0.975873 0.002548
vt 0.975866 0.010904
vt 0.975684 0.011109
vt 0.975863 0.012526
vt 0.975829 0.011883
vt 0.975829 0.012080
vt 0.976011 0.012727
vt 0.975824 0.002548
vt 0.975775 0.002548
vt 0.975897 0.013639
vt 0.975829 0.012311
vt 0.975905 0.011468
vt 0.975898 0.012727
vt 0.975702 0.011470
vt 0.975861 0.013639
vt 0.975863 0.012727
vt 0.975971 0.002548
vt 0.975725 0.002548
vt 0.975865 0.011660
vt 0.976048 0.011110
vt 0.975717 0.013638
vt 0.975676 0.010905
vt 0.975789 0.013638
vt 0.983856 0.014273
vt 0.982981 0.007273
vt 0.983856 0.007273
vt 0.982981 0.014273
vt 0.982106 0.007273
vt 0.982106 0.014273
vt 0.981231 0.007273
vt 0.981231 0.014273
vt 0.980356 0.007273
vt 0.980356 0.014273
vt 0.979481 0.007273
vt 0.979481 0.014273
vt 0.978606 0.007273
vt 0.978606 0.014273
vt 0.977731 0.007273
vt 0.977731 0.014273
vt 0.976856 0.007273
vt 0.975981 0.014273
vt 0.975981 0.007273
vt 0.975106 0.014273
vt 0.975106 0.007273
vt 0.974231 0.014273
vt 0.974231 0.007273
vt 0.973356 0.014273
vt 0.973356 0.007273
vt 0.972481 0.014273
vt 0.972481 0.007273
vt 0.971606 0.014273
vt 0.971606 0.007273
vt 0.970731 0.014273
vt 0.970731 0.007273
vt 0.969856 0.014273
vt 0.969856 0.007273
vt 0.959170 0.010573
vt 0.961043 0.009140
vt 0.961043 0.010573
vt 0.959170 0.009140
vt 0.959170 0.008423
vt 0.961043 0.007706
vt 0.959170 0.007706
vt 0.959170 0.006990
vt 0.961043 0.006273
vt 0.959170 0.006273
vt 0.961043 0.004840
vt 0.959170 0.004840
vt 0.961043 0.003407
vt 0.959170 0.003407
vt 0.959170 0.002690
vt 0.961043 0.001973
vt 0.957440 0.003826
vt 0.959170 0.013440
vt 0.959170 0.012723
vt 0.961043 0.012006
vt 0.959170 0.012006
vt 0.701087 0.111798
vt 0.679981 0.100740
vt 0.701731 0.102085
vt 0.962964 0.006017
vt 0.963234 0.005747
vt 0.964503 0.006273
vt 0.679522 0.054976
vt 0.669880 0.048377
vt 0.678422 0.045452
vt 0.702305 0.092360
vt 0.681517 0.082601
vt 0.702628 0.082601
vt 0.702305 0.072842
vt 0.679981 0.064461
vt 0.701731 0.063116
vt 0.701087 0.053403
vt 0.700310 0.121500
vt 0.679522 0.110225
vt 0.680966 0.091434
vt 0.680965 0.073767
vt 0.700310 0.043701
vt 0.671819 0.107428
vt 0.672147 0.100106
vt 0.672950 0.082601
vt 0.672885 0.072500
vt 0.672147 0.065095
vt 0.671818 0.057773
vt 0.669880 0.116824
vt 0.672885 0.092701
vt 0.957440 0.011587
vt 0.958664 0.008633
vt 0.961188 0.086501
vt 0.961188 0.066403
vt 0.967982 0.057615
vt 0.976307 0.095290
vt 0.967982 0.095290
vt 0.957025 0.088225
vt 0.961188 0.095290
vt 0.952863 0.095290
vt 0.952863 0.066403
vt 0.952863 0.086501
vt 0.946069 0.095290
vt 0.952863 0.057615
vt 0.961188 0.050821
vt 0.961188 0.057615
vt 0.952863 0.102083
vt 0.957025 0.064679
vt 0.963490 0.003826
vt 0.962582 0.005096
vt 0.976856 0.014273
vt 0.975923 0.013701
vt 0.975861 0.013727
vt 0.975835 0.013664
vt 0.976070 0.002548
vt 0.976005 0.013639
vt 0.975676 0.002548
vt 0.959170 0.001973
vt 0.958664 0.006780
vt 0.958157 0.003826
vt 0.961043 0.013440
vt 0.963490 0.007287
vt 0.962057 0.007287
vt 0.962313 0.005747
vt 0.962582 0.006017
vt 0.963234 0.005366
vt 0.964503 0.004840
vt 0.678422 0.119749
vt 0.958157 0.011587
vt 0.976307 0.057615
vt 0.946069 0.057615
vt 0.952863 0.050821
vt 0.961188 0.102083
vt 0.962057 0.003826
vt 0.962964 0.005096
vt 0.962313 0.005366
vt 0.975923 0.013664
vt 0.975897 0.013726
vt 0.975835 0.013701
s 1
usemtl Catenary
f 80/1/1 45/2/2 81/3/3
f 13/4/4 14/5/5 61/6/6
f 61/6/6 60/7/7 13/4/4
f 39/8/8 86/9/9 40/10/10
f 3/11/11 66/12/12 19/13/13
f 22/14/14 23/15/15 84/16/16
f 12/17/17 11/18/18 24/19/19
f 36/20/20 35/21/21 51/22/22
f 81/3/3 82/23/23 24/19/19
f 25/24/24 11/18/18 10/25/25
f 20/26/26 19/13/13 18/27/27
f 93/28/28 73/29/29 72/30/30
f 15/31/31 14/5/5 23/15/15
f 46/32/32 75/33/33 58/34/34
f 20/26/26 89/35/35 87/36/36
f 54/37/37 29/38/38 55/39/39
f 53/40/40 92/41/41 33/42/42
f 96/43/43 77/44/44 76/45/45
f 63/46/46 17/47/47 64/48/48
f 61/49/6 72/30/30 60/50/7
f 72/30/30 73/29/29 60/50/7
f 60/50/7 74/51/49 59/52/50
f 46/53/32 12/17/17 59/54/50
f 94/55/51 50/56/52 68/57/53
f 50/56/52 51/22/22 68/57/53
f 51/22/22 69/58/54 68/57/53
f 83/59/55 44/60/56 43/61/57
f 68/57/53 67/62/58 94/55/51
f 37/63/59 36/20/20 94/55/51
f 94/55/51 36/20/20 50/56/52
f 27/64/60 96/43/43 28/65/61
f 15/31/31 90/66/62 16/67/63
f 52/68/64 35/21/21 34/69/65
f 83/59/55 84/16/16 23/15/15
f 25/24/24 24/19/19 11/18/18
f 70/70/66 51/22/22 52/68/64
f 51/22/22 50/56/52 36/20/20
f 83/59/55 23/15/15 82/23/23
f 23/15/15 91/71/67 82/23/23
f 7/72/68 20/26/26 88/73/69
f 91/71/67 24/19/19 82/23/23
f 10/25/25 9/74/70 95/75/71
f 9/74/70 26/76/72 95/75/71
f 95/75/71 25/24/24 10/25/25
f 90/66/62 86/9/9 21/77/73
f 52/68/64 33/42/42 92/41/41
f 62/78/74 61/6/6 14/5/5
f 14/5/5 15/31/31 62/78/74
f 64/79/48 68/57/53 69/58/54
f 62/80/74 71/81/75 61/49/6
f 71/81/75 72/30/30 61/49/6
f 41/82/76 33/42/42 34/69/65
f 40/10/10 34/69/65 35/21/21
f 37/63/59 8/83/77 38/84/78
f 65/85/79 67/62/58 68/57/53
f 47/86/80 28/65/61 29/38/38
f 32/87/81 44/60/56 31/88/82
f 58/89/34 9/74/70 10/25/25
f 95/75/71 80/1/1 25/24/24
f 5/90/83 94/55/51 1/91/84
f 92/41/41 53/40/40 71/81/75
f 71/81/75 53/40/40 72/30/30
f 18/27/27 64/48/48 17/47/47
f 18/27/27 17/47/47 21/77/73
f 21/77/73 89/35/35 18/27/27
f 89/35/35 20/26/26 18/27/27
f 78/92/85 95/75/71 26/76/72
f 31/88/82 30/93/86 54/37/37
f 93/28/28 53/40/40 31/88/82
f 53/40/40 32/87/81 31/88/82
f 54/37/37 93/28/28 31/88/82
f 53/40/40 93/28/28 72/30/30
f 93/28/28 54/37/37 73/29/29
f 54/37/37 74/51/49 73/29/29
f 23/15/15 22/14/14 15/31/31
f 52/68/64 71/81/75 70/70/66
f 85/94/87 22/14/14 84/16/16
f 33/42/42 43/61/57 32/87/81
f 8/83/77 88/73/69 38/84/78
f 36/20/20 38/84/78 39/8/8
f 75/33/33 76/45/45 58/34/34
f 35/21/21 39/8/8 40/10/10
f 84/16/16 41/82/76 85/94/87
f 79/95/88 47/86/80 80/1/1
f 62/78/74 16/67/63 63/46/46
f 31/88/82 45/2/2 30/93/86
f 38/84/78 87/36/36 39/8/8
f 70/70/66 62/80/74 63/96/46
f 46/53/32 58/89/34 11/18/18
f 58/89/34 10/25/25 11/18/18
f 79/95/88 49/97/89 48/98/90
f 13/4/4 12/17/17 24/19/19
f 24/19/19 91/71/67 13/4/4
f 91/71/67 23/15/15 13/4/4
f 23/15/15 14/5/5 13/4/4
f 89/35/35 21/77/73 87/36/36
f 21/77/73 86/9/9 87/36/36
f 87/36/36 88/73/69 20/26/26
f 4/99/91 19/13/13 20/26/26
f 30/93/86 29/38/38 54/37/37
f 16/67/63 21/77/73 17/47/47
f 2/100/92 94/55/51 67/62/58
f 84/16/16 43/61/57 42/101/93
f 45/2/2 29/38/38 30/93/86
f 33/42/42 32/87/81 53/40/40
f 55/39/39 28/65/61 96/43/43
f 69/58/54 63/96/46 64/79/48
f 19/13/13 65/102/79 18/27/27
f 85/94/87 40/10/10 86/9/9
f 60/7/7 12/17/17 13/4/4
f 82/23/23 45/2/2 44/60/56
f 74/51/49 46/32/32 59/52/50
f 58/34/34 77/44/44 57/103/94
f 66/104/12 2/100/92 67/62/58
f 81/3/3 24/19/19 80/1/1
f 24/19/19 25/24/24 80/1/1
f 54/37/37 55/39/39 75/33/33
f 74/51/49 54/37/37 75/33/33
f 75/33/33 55/39/39 76/45/45
f 55/39/39 96/43/43 76/45/45
f 96/43/43 56/105/95 77/44/44
f 28/65/61 49/97/89 27/64/60
f 98/106/96 99/107/97 97/108/96
f 100/109/98 101/110/99 99/107/97
f 102/111/100 103/112/101 101/110/99
f 104/113/102 105/114/103 103/112/101
f 106/115/104 107/116/105 105/114/103
f 108/117/106 109/118/107 107/116/105
f 110/119/108 111/120/109 109/118/107
f 112/121/110 113/122/111 111/120/109
f 113/122/111 116/123/112 115/124/113
f 115/124/113 118/125/114 117/126/115
f 117/126/115 120/127/116 119/128/117
f 119/128/117 122/129/118 121/130/119
f 121/130/119 124/131/120 123/132/121
f 123/132/121 126/133/122 125/134/123
f 125/134/123 128/135/124 127/136/125
f 127/136/125 98/137/96 97/138/96
f 130/139/126 131/140/127 129/141/126
f 132/142/127 169/143/128 133/144/129
f 134/145/129 170/146/130 135/147/131
f 136/148/131 137/149/132 135/147/131
f 138/150/132 139/151/133 137/149/132
f 140/152/133 171/153/134 141/154/135
f 171/155/136 138/150/136 136/148/136
f 142/156/135 172/157/137 143/158/138
f 144/159/138 129/141/126 143/158/138
f 150/160/133 157/161/139 149/162/132
f 146/163/140 145/164/141 129/165/141
f 160/166/142 167/167/143 159/168/144
f 148/169/131 155/170/145 147/171/129
f 146/172/127 153/173/146 145/174/126
f 145/174/126 160/166/142 152/175/138
f 151/176/135 158/177/147 150/160/133
f 149/162/132 156/178/148 148/169/131
f 147/171/129 154/179/149 146/172/127
f 152/175/138 159/168/144 151/180/135
f 157/161/139 166/181/150 165/182/132
f 156/178/148 163/183/151 155/170/145
f 153/173/146 162/184/152 161/185/126
f 153/173/146 168/186/153 160/166/142
f 158/177/147 167/187/143 166/181/150
f 157/161/139 164/188/154 156/178/148
f 154/179/149 163/183/151 162/184/152
f 130/139/136 172/189/136 169/190/136
f 169/191/126 172/192/126 174/193/126
f 174/193/136 173/194/136 175/195/136
f 134/196/141 179/197/141 177/198/141
f 171/199/132 170/200/132 173/201/132
f 180/202/135 174/203/135 178/204/135
f 179/197/129 173/205/129 177/198/129
f 142/206/141 180/202/141 178/204/141
f 137/149/141 141/207/141 150/208/141
f 182/106/155 183/107/156 181/108/155
f 184/109/157 185/110/158 183/107/156
f 186/111/159 187/112/160 185/110/158
f 188/113/161 189/114/162 187/112/160
f 190/115/163 191/116/164 189/114/162
f 192/117/165 193/118/166 191/116/164
f 194/119/167 195/120/168 193/118/166
f 196/121/169 197/122/170 195/120/168
f 197/122/170 200/123/171 199/124/172
f 199/124/172 202/125/173 201/126/174
f 201/126/174 204/127/175 203/128/176
f 203/128/176 206/129/177 205/130/178
f 205/130/178 208/131/179 207/132/180
f 207/132/180 210/133/181 209/134/182
f 209/134/182 212/135/183 211/136/184
f 211/136/184 182/137/155 181/138/155
f 213/108/185 216/109/186 215/107/187
f 215/107/187 218/111/188 217/110/189
f 217/110/189 220/113/190 219/112/191
f 219/112/191 222/115/192 221/114/193
f 221/114/193 224/117/194 223/116/195
f 223/116/195 226/119/196 225/118/197
f 225/118/197 228/121/198 227/120/199
f 227/120/199 230/209/200 229/122/200
f 230/209/200 231/124/201 229/122/200
f 232/123/202 233/126/203 231/124/201
f 234/125/204 235/128/205 233/126/203
f 236/127/206 237/130/207 235/128/205
f 238/129/208 239/132/209 237/130/207
f 240/131/210 241/134/211 239/132/209
f 242/133/212 243/136/213 241/134/211
f 244/135/214 213/138/185 243/136/213
f 9/210/141 77/211/141 27/212/141
f 80/1/1 47/86/80 45/2/2
f 39/8/8 87/36/36 86/9/9
f 3/11/11 6/213/215 66/12/12
f 63/46/46 16/67/63 17/47/47
f 60/50/7 73/29/29 74/51/49
f 46/53/32 11/18/18 12/17/17
f 83/59/55 82/23/23 44/60/56
f 27/64/60 56/105/95 96/43/43
f 15/31/31 22/14/14 90/66/62
f 52/68/64 51/22/22 35/21/21
f 70/70/66 69/58/54 51/22/22
f 7/72/68 4/99/91 20/26/26
f 90/66/62 85/94/87 86/9/9
f 52/68/64 34/69/65 33/42/42
f 64/79/48 65/85/79 68/57/53
f 41/82/76 42/101/93 33/42/42
f 40/10/10 41/82/76 34/69/65
f 37/63/59 5/90/83 8/83/77
f 65/85/79 66/104/12 67/62/58
f 47/86/80 48/98/90 28/65/61
f 32/87/81 43/61/57 44/60/56
f 58/89/34 57/214/94 9/74/70
f 95/75/71 79/95/88 80/1/1
f 5/90/83 37/63/59 94/55/51
f 18/27/27 65/102/79 64/48/48
f 78/92/85 79/95/88 95/75/71
f 52/68/64 92/41/41 71/81/75
f 85/94/87 90/66/62 22/14/14
f 33/42/42 42/101/93 43/61/57
f 8/83/77 7/72/68 88/73/69
f 36/20/20 37/63/59 38/84/78
f 35/21/21 36/20/20 39/8/8
f 84/16/16 42/101/93 41/82/76
f 79/95/88 48/98/90 47/86/80
f 62/78/74 15/31/31 16/67/63
f 31/88/82 44/60/56 45/2/2
f 38/84/78 88/73/69 87/36/36
f 70/70/66 71/81/75 62/80/74
f 79/95/88 78/92/85 49/97/89
f 4/99/91 3/11/11 19/13/13
f 16/67/63 90/66/62 21/77/73
f 2/100/92 1/91/84 94/55/51
f 84/16/16 83/59/55 43/61/57
f 45/2/2 47/86/80 29/38/38
f 55/39/39 29/38/38 28/65/61
f 69/58/54 70/70/66 63/96/46
f 19/13/13 66/12/12 65/102/79
f 85/94/87 41/82/76 40/10/10
f 60/7/7 59/54/50 12/17/17
f 82/23/23 81/3/3 45/2/2
f 74/51/49 75/33/33 46/32/32
f 58/34/34 76/45/45 77/44/44
f 66/104/12 6/215/215 2/100/92
f 28/65/61 48/98/90 49/97/89
f 98/106/96 100/109/98 99/107/97
f 100/109/98 102/111/100 101/110/99
f 102/111/100 104/113/102 103/112/101
f 104/113/102 106/115/104 105/114/103
f 106/115/104 108/117/106 107/116/105
f 108/117/106 110/119/108 109/118/107
f 110/119/108 112/121/110 111/120/109
f 112/121/110 114/209/111 113/122/111
f 113/122/111 114/209/111 116/123/112
f 115/124/113 116/123/112 118/125/114
f 117/126/115 118/125/114 120/127/116
f 119/128/117 120/127/116 122/129/118
f 121/130/119 122/129/118 124/131/120
f 123/132/121 124/131/120 126/133/122
f 125/134/123 126/133/122 128/135/124
f 127/136/125 128/135/124 98/137/96
f 130/139/126 132/142/127 131/140/127
f 133/144/129 131/140/127 132/142/127
f 169/143/128 134/145/129 133/144/129
f 135/147/131 133/144/129 134/145/129
f 170/146/130 136/148/131 135/147/131
f 136/148/131 138/150/132 137/149/132
f 138/150/132 140/152/133 139/151/133
f 141/154/135 139/151/133 140/152/133
f 171/153/134 142/216/135 141/154/135
f 136/148/136 170/217/136 171/155/136
f 171/155/136 140/218/216 138/150/136
f 143/158/138 141/219/135 142/156/135
f 172/157/137 144/159/138 143/158/138
f 144/159/138 130/139/126 129/141/126
f 150/160/133 158/177/147 157/161/139
f 131/220/141 133/221/141 135/147/141
f 135/147/141 148/222/141 147/223/140
f 135/147/141 147/223/140 146/163/140
f 129/165/141 131/220/141 135/147/141
f 152/224/141 143/225/141 129/165/141
f 145/164/141 152/224/141 129/165/141
f 129/165/141 135/147/141 146/163/140
f 160/166/142 168/186/153 167/167/143
f 148/169/131 156/178/148 155/170/145
f 146/172/127 154/179/149 153/173/146
f 145/174/126 153/173/146 160/166/142
f 151/176/135 159/226/144 158/177/147
f 149/162/132 157/161/139 156/178/148
f 147/171/129 155/170/145 154/179/149
f 152/175/138 160/166/142 159/168/144
f 157/161/139 158/177/147 166/181/150
f 156/178/148 164/188/154 163/183/151
f 153/173/146 154/179/149 162/184/152
f 153/173/146 161/185/126 168/186/153
f 158/177/147 159/226/144 167/187/143
f 157/161/139 165/182/132 164/188/154
f 154/179/149 155/170/145 163/183/151
f 169/190/136 132/142/217 130/139/136
f 130/139/136 144/227/216 172/189/136
f 174/193/126 175/195/126 179/197/126
f 174/193/126 179/197/126 169/191/126
f 172/192/126 178/204/126 174/193/126
f 174/193/136 176/228/136 173/194/136
f 177/198/141 170/200/141 134/196/141
f 134/196/141 169/191/141 179/197/141
f 173/201/132 176/229/132 180/202/132
f 173/201/132 180/202/132 171/199/132
f 170/200/132 177/198/132 173/201/132
f 180/202/135 176/230/135 174/203/135
f 179/197/129 175/231/129 173/205/129
f 178/204/141 172/192/141 142/206/141
f 142/206/141 171/199/141 180/202/141
f 148/222/141 135/147/141 137/149/141
f 137/149/141 139/232/141 141/207/141
f 141/207/141 143/225/141 152/224/141
f 141/207/141 152/224/141 151/233/141
f 149/234/141 148/222/141 137/149/141
f 141/207/141 151/233/141 150/208/141
f 150/208/141 149/234/141 137/149/141
f 182/106/155 184/109/157 183/107/156
f 184/109/157 186/111/159 185/110/158
f 186/111/159 188/113/161 187/112/160
f 188/113/161 190/115/163 189/114/162
f 190/115/163 192/117/165 191/116/164
f 192/117/165 194/119/167 193/118/166
f 194/119/167 196/121/169 195/120/168
f 196/121/169 198/209/170 197/122/170
f 197/122/170 198/209/170 200/123/171
f 199/124/172 200/123/171 202/125/173
f 201/126/174 202/125/173 204/127/175
f 203/128/176 204/127/175 206/129/177
f 205/130/178 206/129/177 208/131/179
f 207/132/180 208/131/179 210/133/181
f 209/134/182 210/133/181 212/135/183
f 211/136/184 212/135/183 182/137/155
f 213/108/185 214/106/185 216/109/186
f 215/107/187 216/109/186 218/111/188
f 217/110/189 218/111/188 220/113/190
f 219/112/191 220/113/190 222/115/192
f 221/114/193 222/115/192 224/117/194
f 223/116/195 224/117/194 226/119/196
f 225/118/197 226/119/196 228/121/198
f 227/120/199 228/121/198 230/209/200
f 230/209/200 232/123/202 231/124/201
f 232/123/202 234/125/204 233/126/203
f 234/125/204 236/127/206 235/128/205
f 236/127/206 238/129/208 237/130/207
f 238/129/208 240/131/210 239/132/209
f 240/131/210 242/133/212 241/134/211
f 242/133/212 244/135/214 243/136/213
f 244/135/214 214/137/185 213/138/185
f 27/212/141 49/97/218 78/92/141
f 78/92/141 26/235/219 9/210/141
f 9/210/141 57/236/141 77/211/141
f 77/211/141 56/237/220 27/212/141
f 27/212/141 78/92/141 9/210/141
