# Blender 5.0.1
# www.blender.org
mtllib ditch_light_white.mtl
o DitchLightLargeWhite.001
g ditch_light_white
v -0.026909 0.056109 -0.139712
v -0.053441 0.056109 -0.137099
v -0.078954 0.056109 -0.129359
v -0.102467 0.056109 -0.116792
v -0.123076 0.056109 -0.099878
v -0.139989 0.056109 -0.079269
v -0.152557 0.056109 -0.055757
v -0.160296 0.056109 -0.030244
v -0.162909 0.056109 -0.003712
v -0.160296 0.056109 0.022820
v -0.152557 0.056109 0.048333
v -0.139989 0.056109 0.071846
v -0.123076 0.056109 0.092455
v -0.102467 0.056109 0.109368
v -0.078954 0.056109 0.121936
v -0.053441 0.056109 0.129675
v -0.026909 0.056109 0.132288
v -0.000377 0.056109 0.129675
v 0.025136 0.056109 0.121936
v 0.048649 0.056109 0.109368
v 0.069258 0.056109 0.092455
v 0.086171 0.056109 0.071846
v 0.098739 0.056109 0.048333
v 0.106478 0.056109 0.022820
v 0.109091 0.056109 -0.003712
v 0.106478 0.056109 -0.030244
v 0.098739 0.056109 -0.055757
v 0.086171 0.056109 -0.079269
v 0.069258 0.056109 -0.099878
v 0.048649 0.056109 -0.116792
v 0.025136 0.056109 -0.129359
v -0.000377 0.056109 -0.137099
v -0.026909 -0.000291 -0.003712
vn 0.0747 0.9237 0.3757
vn 0.1466 0.9237 0.3539
vn -0.0000 1.0000 -0.0000
vn 0.2128 0.9237 0.3185
vn 0.2709 0.9237 0.2709
vn 0.3185 0.9237 0.2128
vn 0.3539 0.9237 0.1466
vn 0.3757 0.9237 0.0747
vn 0.3831 0.9237 -0.0000
vn 0.3757 0.9237 -0.0747
vn 0.3539 0.9237 -0.1466
vn 0.3185 0.9237 -0.2128
vn 0.2709 0.9237 -0.2709
vn 0.2128 0.9237 -0.3185
vn 0.1466 0.9237 -0.3539
vn 0.0747 0.9237 -0.3757
vn -0.0000 0.9237 -0.3831
vn -0.0747 0.9237 -0.3757
vn -0.1466 0.9237 -0.3539
vn -0.2128 0.9237 -0.3185
vn -0.2709 0.9237 -0.2709
vn -0.3185 0.9237 -0.2128
vn -0.3539 0.9237 -0.1466
vn -0.3757 0.9237 -0.0747
vn -0.3831 0.9237 -0.0000
vn -0.3757 0.9237 0.0747
vn -0.3539 0.9237 0.1466
vn -0.3185 0.9237 0.2128
vn -0.2709 0.9237 0.2709
vn -0.2128 0.9237 0.3185
vn -0.1466 0.9237 0.3539
vn -0.0747 0.9237 0.3757
vn -0.0000 0.9237 0.3831
vt 0.052284 0.811627
vt 0.032420 0.764550
vt 0.281436 0.687698
vt 0.022063 0.714495
vt 0.021613 0.663352
vt 0.031100 0.613054
vt 0.050182 0.565505
vt 0.078154 0.522510
vt 0.113980 0.485705
vt 0.156788 0.457322
vt 0.204223 0.437803
vt 0.254484 0.427866
vt 0.305669 0.427866
vt 0.355843 0.437787
vt 0.403111 0.457242
vt 0.445690 0.485488
vt 0.481972 0.521451
vt 0.510587 0.563770
vt 0.530451 0.610847
vt 0.540808 0.660902
vt 0.541258 0.712045
vt 0.531771 0.762343
vt 0.512690 0.809892
vt 0.484717 0.852887
vt 0.448891 0.889692
vt 0.406083 0.918075
vt 0.358648 0.937594
vt 0.308387 0.947531
vt 0.257202 0.947531
vt 0.207028 0.937610
vt 0.159760 0.918155
vt 0.117181 0.889909
vt 0.080899 0.853946
vt 0.440839 0.257491
vt 0.734700 0.016326
vt 0.975865 0.310187
vt 0.965585 0.361870
vt 0.945419 0.410554
vt 0.916143 0.454369
vt 0.878882 0.491630
vt 0.835067 0.520906
vt 0.786383 0.541072
vt 0.734700 0.551352
vt 0.682004 0.551352
vt 0.630321 0.541072
vt 0.581637 0.520906
vt 0.537822 0.491630
vt 0.500561 0.454369
vt 0.471285 0.410554
vt 0.451119 0.361870
vt 0.440839 0.310187
vt 0.451119 0.205809
vt 0.471285 0.157124
vt 0.500561 0.113310
vt 0.537822 0.076048
vt 0.581637 0.046772
vt 0.630321 0.026607
vt 0.682004 0.016326
vt 0.786383 0.026607
vt 0.835067 0.046772
vt 0.878882 0.076048
vt 0.916143 0.113310
vt 0.945419 0.157124
vt 0.965585 0.205809
vt 0.975865 0.257492
s 1
usemtl ExteriorSurfaces
f 2/1/1 3/2/2 33/3/3
f 3/2/2 4/4/4 33/3/3
f 4/4/4 5/5/5 33/3/3
f 5/5/5 6/6/6 33/3/3
f 6/6/6 7/7/7 33/3/3
f 7/7/7 8/8/8 33/3/3
f 8/8/8 9/9/9 33/3/3
f 9/9/9 10/10/10 33/3/3
f 10/10/10 11/11/11 33/3/3
f 11/11/11 12/12/12 33/3/3
f 12/12/12 13/13/13 33/3/3
f 13/13/13 14/14/14 33/3/3
f 14/14/14 15/15/15 33/3/3
f 15/15/15 16/16/16 33/3/3
f 16/16/16 17/17/17 33/3/3
f 17/17/17 18/18/18 33/3/3
f 18/18/18 19/19/19 33/3/3
f 19/19/19 20/20/20 33/3/3
f 20/20/20 21/21/21 33/3/3
f 21/21/21 22/22/22 33/3/3
f 22/22/22 23/23/23 33/3/3
f 23/23/23 24/24/24 33/3/3
f 24/24/24 25/25/25 33/3/3
f 25/25/25 26/26/26 33/3/3
f 26/26/26 27/27/27 33/3/3
f 27/27/27 28/28/28 33/3/3
f 28/28/28 29/29/29 33/3/3
f 29/29/29 30/30/30 33/3/3
f 30/30/30 31/31/31 33/3/3
f 31/31/31 32/32/32 33/3/3
f 32/32/32 1/33/33 33/3/3
f 1/33/33 2/1/1 33/3/3
f 17/34/3 25/35/3 1/36/3
f 1/36/3 2/37/3 3/38/3
f 3/38/3 4/39/3 5/40/3
f 5/40/3 6/41/3 7/42/3
f 7/42/3 8/43/3 9/44/3
f 9/44/3 10/45/3 11/46/3
f 11/46/3 12/47/3 13/48/3
f 13/48/3 14/49/3 15/50/3
f 15/50/3 16/51/3 17/34/3
f 17/34/3 18/52/3 19/53/3
f 19/53/3 20/54/3 21/55/3
f 21/55/3 22/56/3 23/57/3
f 23/57/3 24/58/3 25/35/3
f 25/35/3 26/59/3 27/60/3
f 27/60/3 28/61/3 29/62/3
f 29/62/3 30/63/3 31/64/3
f 31/64/3 32/65/3 1/36/3
f 1/36/3 3/38/3 5/40/3
f 5/40/3 7/42/3 9/44/3
f 9/44/3 11/46/3 13/48/3
f 13/48/3 15/50/3 17/34/3
f 17/34/3 19/53/3 21/55/3
f 21/55/3 23/57/3 25/35/3
f 25/35/3 27/60/3 29/62/3
f 29/62/3 31/64/3 1/36/3
f 1/36/3 5/40/3 9/44/3
f 9/44/3 13/48/3 17/34/3
f 17/34/3 21/55/3 25/35/3
f 25/35/3 29/62/3 1/36/3
f 1/36/3 9/44/3 17/34/3
