# Blender 5.0.1
# www.blender.org
mtllib ditch_light_red.mtl
o DitchLightSmallRed.001
g ditch_light_red
v -0.340588 0.056109 -0.059712
v -0.362019 0.056109 -0.055449
v -0.380186 0.056109 -0.043310
v -0.392326 0.056109 -0.025142
v -0.396588 0.056109 -0.003712
v -0.392326 0.056109 0.017718
v -0.380186 0.056109 0.035886
v -0.362019 0.056109 0.048025
v -0.340588 0.056109 0.052288
v -0.319158 0.056109 0.048025
v -0.300990 0.056109 0.035886
v -0.288851 0.056109 0.017718
v -0.284588 0.056109 -0.003712
v -0.288851 0.056109 -0.025142
v -0.300990 0.056109 -0.043310
v -0.319158 0.056109 -0.055449
v -0.340588 0.013321 -0.003712
vn 0.2323 0.7946 0.5609
vn 0.4293 0.7946 0.4293
vn -0.0000 1.0000 -0.0000
vn 0.5609 0.7946 0.2323
vn 0.6071 0.7946 -0.0000
vn 0.5609 0.7946 -0.2323
vn 0.4293 0.7946 -0.4293
vn 0.2323 0.7946 -0.5609
vn -0.0000 0.7946 -0.6071
vn -0.2323 0.7946 -0.5609
vn -0.4293 0.7946 -0.4293
vn -0.5609 0.7946 -0.2323
vn -0.6071 0.7946 -0.0000
vn -0.5609 0.7946 0.2323
vn -0.4293 0.7946 0.4293
vn -0.2323 0.7946 0.5609
vn -0.0000 0.7946 0.6071
vt 0.432521 0.929368
vt 0.333342 0.968595
vt 0.291597 0.698231
vt 0.225756 0.968595
vt 0.124373 0.928659
vt 0.054970 0.844653
vt 0.021613 0.742370
vt 0.028156 0.635916
vt 0.073277 0.539793
vt 0.150673 0.467092
vt 0.249852 0.427866
vt 0.357437 0.427866
vt 0.458821 0.467802
vt 0.528224 0.551807
vt 0.561581 0.654091
vt 0.555038 0.760544
vt 0.509916 0.856667
vt 0.559921 0.061697
vt 0.930494 0.135408
vt 0.856782 0.505981
vt 0.760474 0.545874
vt 0.656230 0.545874
vt 0.559921 0.505981
vt 0.486210 0.432270
vt 0.446317 0.335961
vt 0.446317 0.231717
vt 0.486210 0.135408
vt 0.656230 0.021804
vt 0.760474 0.021804
vt 0.856783 0.061697
vt 0.970387 0.231717
vt 0.970386 0.335961
vt 0.930494 0.432270
s 1
usemtl ExteriorSurfaces
f 2/1/1 3/2/2 17/3/3
f 3/2/2 4/4/4 17/3/3
f 4/4/4 5/5/5 17/3/3
f 5/5/5 6/6/6 17/3/3
f 6/6/6 7/7/7 17/3/3
f 7/7/7 8/8/8 17/3/3
f 8/8/8 9/9/9 17/3/3
f 9/9/9 10/10/10 17/3/3
f 10/10/10 11/11/11 17/3/3
f 11/11/11 12/12/12 17/3/3
f 12/12/12 13/13/13 17/3/3
f 13/13/13 14/14/14 17/3/3
f 14/14/14 15/15/15 17/3/3
f 15/15/15 16/16/16 17/3/3
f 16/16/16 1/17/17 17/3/3
f 1/17/17 2/1/1 17/3/3
f 9/18/3 13/19/3 1/20/3
f 1/20/3 2/21/3 3/22/3
f 3/22/3 4/23/3 5/24/3
f 5/24/3 6/25/3 7/26/3
f 7/26/3 8/27/3 9/18/3
f 9/18/3 10/28/3 11/29/3
f 11/29/3 12/30/3 13/19/3
f 13/19/3 14/31/3 15/32/3
f 15/32/3 16/33/3 1/20/3
f 1/20/3 3/22/3 5/24/3
f 5/24/3 7/26/3 9/18/3
f 9/18/3 11/29/3 13/19/3
f 13/19/3 15/32/3 1/20/3
f 1/20/3 5/24/3 9/18/3
