# Blender 5.0.1
# www.blender.org
mtllib headlight_large.mtl
o LargeHeadlightReflector
g headlight_large
v -0.051699 0.140000 -0.259908
v 0.000000 0.140000 -0.265000
v -0.101411 0.140000 -0.244828
v -0.147226 0.140000 -0.220339
v -0.187383 0.140000 -0.187383
v -0.220339 0.140000 -0.147226
v -0.244828 0.140000 -0.101411
v -0.259908 0.140000 -0.051699
v -0.265000 0.140000 0.000000
v -0.259908 0.140000 0.051699
v -0.244828 0.140000 0.101411
v -0.220339 0.140000 0.147226
v -0.187383 0.140000 0.187383
v -0.147226 0.140000 0.220340
v -0.101411 0.140000 0.244828
v -0.051699 0.140000 0.259908
v 0.000000 0.140000 0.265000
v 0.051699 0.140000 0.259908
v 0.101411 0.140000 0.244828
v 0.147226 0.140000 0.220340
v 0.187383 0.140000 0.187383
v 0.220339 0.140000 0.147226
v 0.244828 0.140000 0.101411
v 0.259908 0.140000 0.051699
v 0.265000 0.140000 0.000000
v 0.259908 0.140000 -0.051699
v 0.244828 0.140000 -0.101411
v 0.220339 0.140000 -0.147226
v 0.187383 0.140000 -0.187383
v 0.147226 0.140000 -0.220339
v 0.101411 0.140000 -0.244828
v 0.051699 0.140000 -0.259908
v -0.000000 -0.147186 0.000000
vn 0.1434 0.6781 0.7208
vn 0.2812 0.6781 0.6790
vn -0.0000 1.0000 -0.0000
vn 0.4083 0.6781 0.6111
vn 0.5197 0.6781 0.5197
vn 0.6111 0.6781 0.4083
vn 0.6790 0.6781 0.2812
vn 0.7208 0.6781 0.1434
vn 0.7349 0.6781 -0.0000
vn 0.7208 0.6781 -0.1434
vn 0.6790 0.6781 -0.2812
vn 0.6111 0.6781 -0.4083
vn 0.5197 0.6781 -0.5197
vn 0.4083 0.6781 -0.6111
vn 0.2812 0.6781 -0.6790
vn 0.1434 0.6781 -0.7208
vn -0.0000 0.6781 -0.7349
vn -0.1434 0.6781 -0.7208
vn -0.2812 0.6781 -0.6790
vn -0.4083 0.6781 -0.6111
vn -0.5197 0.6781 -0.5197
vn -0.6111 0.6781 -0.4083
vn -0.6790 0.6781 -0.2812
vn -0.7208 0.6781 -0.1434
vn -0.7349 0.6781 -0.0000
vn -0.7208 0.6781 0.1434
vn -0.6790 0.6781 0.2812
vn -0.6111 0.6781 0.4083
vn -0.5197 0.6781 0.5197
vn -0.4083 0.6781 0.6111
vn -0.2812 0.6781 0.6790
vn -0.1434 0.6781 0.7208
vn -0.0000 0.6781 0.7349
vt 0.527491 0.561960
vt 0.553681 0.609692
vt 0.300333 0.706737
vt 0.571064 0.661525
vt 0.579054 0.715947
vt 0.577313 0.771370
vt 0.565761 0.826166
vt 0.544576 0.878711
vt 0.514195 0.927421
vt 0.464555 0.956258
vt 0.411371 0.975783
vt 0.356239 0.985609
vt 0.300789 0.985609
vt 0.246644 0.975915
vt 0.195383 0.956914
vt 0.148496 0.929238
vt 0.107356 0.893749
vt 0.073176 0.851515
vt 0.046986 0.803783
vt 0.029603 0.751950
vt 0.021613 0.697528
vt 0.023354 0.642105
vt 0.034906 0.587309
vt 0.056091 0.534764
vt 0.086472 0.486054
vt 0.136112 0.457217
vt 0.189295 0.437692
vt 0.244427 0.427866
vt 0.299878 0.427866
vt 0.354022 0.437560
vt 0.405284 0.456561
vt 0.452170 0.484237
vt 0.493311 0.519726
vt 0.446149 0.258014
vt 0.734177 0.021636
vt 0.970555 0.309664
vt 0.960479 0.360321
vt 0.940713 0.408038
vt 0.912018 0.450983
vt 0.875497 0.487505
vt 0.832552 0.516200
vt 0.784834 0.535965
vt 0.734177 0.546042
vt 0.682527 0.546042
vt 0.631870 0.535965
vt 0.584153 0.516200
vt 0.541208 0.487505
vt 0.504686 0.450983
vt 0.475991 0.408039
vt 0.456226 0.360321
vt 0.446149 0.309664
vt 0.456226 0.207357
vt 0.475991 0.159639
vt 0.504686 0.116694
vt 0.541208 0.080173
vt 0.584153 0.051478
vt 0.631870 0.031713
vt 0.682527 0.021636
vt 0.784834 0.031713
vt 0.832552 0.051478
vt 0.875497 0.080173
vt 0.912018 0.116694
vt 0.940713 0.159639
vt 0.960479 0.207357
vt 0.970555 0.258014
s 1
usemtl ExteriorSurfaces
f 1/1/1 3/2/2 33/3/3
f 3/2/2 4/4/4 33/3/3
f 4/4/4 5/5/5 33/3/3
f 5/5/5 6/6/6 33/3/3
f 6/6/6 7/7/7 33/3/3
f 7/7/7 8/8/8 33/3/3
f 8/8/8 9/9/9 33/3/3
f 9/9/9 10/10/10 33/3/3
f 10/10/10 11/11/11 33/3/3
f 11/11/11 12/12/12 33/3/3
f 12/12/12 13/13/13 33/3/3
f 13/13/13 14/14/14 33/3/3
f 14/14/14 15/15/15 33/3/3
f 15/15/15 16/16/16 33/3/3
f 16/16/16 17/17/17 33/3/3
f 17/17/17 18/18/18 33/3/3
f 18/18/18 19/19/19 33/3/3
f 19/19/19 20/20/20 33/3/3
f 20/20/20 21/21/21 33/3/3
f 21/21/21 22/22/22 33/3/3
f 22/22/22 23/23/23 33/3/3
f 23/23/23 24/24/24 33/3/3
f 24/24/24 25/25/25 33/3/3
f 25/25/25 26/26/26 33/3/3
f 26/26/26 27/27/27 33/3/3
f 27/27/27 28/28/28 33/3/3
f 28/28/28 29/29/29 33/3/3
f 29/29/29 30/30/30 33/3/3
f 30/30/30 31/31/31 33/3/3
f 31/31/31 32/32/32 33/3/3
f 32/32/32 2/33/33 33/3/3
f 2/33/33 1/1/1 33/3/3
f 17/34/3 25/35/3 2/36/3
f 2/36/3 1/37/3 3/38/3
f 3/38/3 4/39/3 5/40/3
f 5/40/3 6/41/3 7/42/3
f 7/42/3 8/43/3 9/44/3
f 9/44/3 10/45/3 11/46/3
f 11/46/3 12/47/3 13/48/3
f 13/48/3 14/49/3 15/50/3
f 15/50/3 16/51/3 17/34/3
f 17/34/3 18/52/3 19/53/3
f 19/53/3 20/54/3 21/55/3
f 21/55/3 22/56/3 23/57/3
f 23/57/3 24/58/3 25/35/3
f 25/35/3 26/59/3 27/60/3
f 27/60/3 28/61/3 29/62/3
f 29/62/3 30/63/3 31/64/3
f 31/64/3 32/65/3 2/36/3
f 2/36/3 3/38/3 5/40/3
f 5/40/3 7/42/3 9/44/3
f 9/44/3 11/46/3 13/48/3
f 13/48/3 15/50/3 17/34/3
f 17/34/3 19/53/3 21/55/3
f 21/55/3 23/57/3 25/35/3
f 25/35/3 27/60/3 29/62/3
f 29/62/3 31/64/3 2/36/3
f 2/36/3 5/40/3 9/44/3
f 9/44/3 13/48/3 17/34/3
f 17/34/3 21/55/3 25/35/3
f 25/35/3 29/62/3 2/36/3
f 2/36/3 9/44/3 17/34/3
