# Blender 5.0.1
# www.blender.org
mtllib headlight_small.mtl
o SmallHeadlightReflector
g headlight_small
v 0.000000 0.150000 -0.154976
v 0.030234 0.150000 -0.151998
v 0.059307 0.150000 -0.143179
v 0.086100 0.150000 -0.128858
v 0.109584 0.150000 -0.109584
v 0.128858 0.150000 -0.086100
v 0.143179 0.150000 -0.059307
v 0.151998 0.150000 -0.030234
v 0.154976 0.150000 0.000000
v 0.151998 0.150000 0.030234
v 0.138684 0.150000 0.067716
v 0.128858 0.150000 0.086100
v 0.109584 0.150000 0.109584
v 0.086100 0.150000 0.128858
v 0.059307 0.150000 0.143179
v 0.030234 0.150000 0.151998
v 0.000000 0.150000 0.154976
v -0.030234 0.150000 0.151998
v -0.059307 0.150000 0.143179
v -0.086100 0.150000 0.128858
v -0.109584 0.150000 0.109584
v -0.128858 0.150000 0.086100
v -0.138723 0.150000 0.067642
v -0.151998 0.150000 0.030234
v -0.154976 0.150000 0.000000
v -0.151998 0.150000 -0.030234
v -0.143179 0.150000 -0.059307
v -0.128858 0.150000 -0.086100
v -0.109584 0.150000 -0.109584
v -0.086100 0.150000 -0.128858
v -0.059307 0.150000 -0.143179
v -0.030234 0.150000 -0.151998
v -0.000000 -0.010640 0.000000
vn -0.1404 0.6943 0.7059
vn -0.0000 0.6943 0.7197
vn -0.0000 1.0000 -0.0001
vn 0.1404 0.6943 0.7059
vn 0.2754 0.6943 0.6649
vn 0.3998 0.6943 0.5984
vn 0.5089 0.6943 0.5089
vn 0.5984 0.6943 0.3998
vn 0.6649 0.6943 0.2754
vn 0.7059 0.6943 0.1404
vn 0.7197 0.6943 -0.0000
vn 0.7027 0.6942 -0.1560
vn 0.6595 0.6926 -0.2922
vn 0.5984 0.6943 -0.3998
vn 0.5089 0.6943 -0.5089
vn 0.3998 0.6943 -0.5984
vn 0.2754 0.6943 -0.6649
vn 0.1404 0.6943 -0.7059
vn -0.0000 0.6943 -0.7197
vn -0.1404 0.6943 -0.7059
vn -0.2754 0.6943 -0.6649
vn -0.3998 0.6943 -0.5984
vn -0.5089 0.6943 -0.5089
vn -0.5984 0.6943 -0.3998
vn -0.6595 0.6926 -0.2924
vn -0.7026 0.6942 -0.1561
vn -0.7197 0.6943 -0.0000
vn -0.7059 0.6943 0.1404
vn -0.6649 0.6943 0.2754
vn -0.5984 0.6943 0.3998
vn -0.5089 0.6943 0.5089
vn -0.3998 0.6943 0.5984
vn -0.2754 0.6943 0.6649
vn -0.0000 1.0000 -0.0000
vt 0.145294 0.926235
vt 0.104626 0.890651
vt 0.298934 0.705299
vt 0.071000 0.848350
vt 0.045452 0.800613
vt 0.028799 0.748875
vt 0.021613 0.694684
vt 0.024211 0.639665
vt 0.036639 0.585479
vt 0.058676 0.533776
vt 0.089834 0.486157
vt 0.138865 0.457276
vt 0.203143 0.433965
vt 0.246303 0.427869
vt 0.301374 0.427866
vt 0.355158 0.437594
vt 0.406047 0.456664
vt 0.452519 0.484429
vt 0.493181 0.520007
vt 0.526801 0.562302
vt 0.552344 0.610031
vt 0.568993 0.661762
vt 0.576174 0.715945
vt 0.573574 0.770955
vt 0.565488 0.813679
vt 0.539134 0.876886
vt 0.507972 0.924501
vt 0.458937 0.953379
vt 0.406252 0.972954
vt 0.351540 0.982813
vt 0.296461 0.982813
vt 0.242669 0.973080
vt 0.191773 0.954005
vt 0.584676 0.515940
vt 0.470160 0.173906
vt 0.833403 0.050605
vt 0.876405 0.079337
vt 0.912974 0.115907
vt 0.941707 0.158909
vt 0.961498 0.206690
vt 0.971588 0.257414
vt 0.971588 0.309131
vt 0.961499 0.359855
vt 0.941707 0.407636
vt 0.912974 0.450637
vt 0.876404 0.487207
vt 0.833403 0.515940
vt 0.769841 0.538870
vt 0.734898 0.545821
vt 0.683180 0.545821
vt 0.632457 0.535731
vt 0.541674 0.487207
vt 0.505104 0.450637
vt 0.476372 0.407636
vt 0.456580 0.359855
vt 0.446491 0.309131
vt 0.446491 0.257414
vt 0.456580 0.206690
vt 0.505104 0.115907
vt 0.541674 0.079337
vt 0.584676 0.050604
vt 0.632457 0.030813
vt 0.683181 0.020723
vt 0.734898 0.020723
vt 0.785622 0.030813
s 1
usemtl ExteriorSurfaces
f 2/1/1 1/2/2 33/3/3
f 1/2/2 32/4/4 33/3/3
f 32/4/4 31/5/5 33/3/3
f 31/5/5 30/6/6 33/3/3
f 30/6/6 29/7/7 33/3/3
f 29/7/7 28/8/8 33/3/3
f 28/8/8 27/9/9 33/3/3
f 27/9/9 26/10/10 33/3/3
f 26/10/10 25/11/11 33/3/3
f 25/11/11 24/12/12 33/3/3
f 24/12/12 23/13/13 33/3/3
f 23/13/13 22/14/14 33/3/3
f 22/14/14 21/15/15 33/3/3
f 21/15/15 20/16/16 33/3/3
f 20/16/16 19/17/17 33/3/3
f 19/17/17 18/18/18 33/3/3
f 18/18/18 17/19/19 33/3/3
f 17/19/19 16/20/20 33/3/3
f 16/20/20 15/21/21 33/3/3
f 15/21/21 14/22/22 33/3/3
f 14/22/22 13/23/23 33/3/3
f 13/23/23 12/24/24 33/3/3
f 12/24/24 11/25/25 33/3/3
f 11/25/25 10/26/26 33/3/3
f 10/26/26 9/27/27 33/3/3
f 9/27/27 8/28/28 33/3/3
f 8/28/28 7/29/29 33/3/3
f 7/29/29 6/30/30 33/3/3
f 6/30/30 5/31/31 33/3/3
f 5/31/31 4/32/32 33/3/3
f 4/32/32 3/33/33 33/3/3
f 3/33/33 2/1/1 33/3/3
f 19/34/34 11/35/34 3/36/34
f 3/36/34 2/37/34 1/38/34
f 1/38/34 32/39/34 31/40/34
f 31/40/34 30/41/34 29/42/34
f 29/42/34 28/43/34 27/44/34
f 27/44/34 26/45/34 25/46/34
f 25/46/34 24/47/34 23/48/34
f 23/48/34 22/49/34 21/50/34
f 21/50/34 20/51/34 19/34/34
f 19/34/34 18/52/34 17/53/34
f 17/53/34 16/54/34 15/55/34
f 15/55/34 14/56/34 13/57/34
f 13/57/34 12/58/34 11/35/34
f 11/35/34 10/59/34 9/60/34
f 9/60/34 8/61/34 7/62/34
f 7/62/34 6/63/34 5/64/34
f 5/64/34 4/65/34 3/36/34
f 3/36/34 1/38/34 31/40/34
f 31/40/34 29/42/34 27/44/34
f 27/44/34 25/46/34 23/48/34
f 23/48/34 21/50/34 19/34/34
f 19/34/34 17/53/34 15/55/34
f 15/55/34 13/57/34 11/35/34
f 11/35/34 9/60/34 7/62/34
f 7/62/34 5/64/34 3/36/34
f 3/36/34 31/40/34 27/44/34
f 27/44/34 23/48/34 19/34/34
f 19/34/34 15/55/34 11/35/34
f 11/35/34 7/62/34 3/36/34
f 3/36/34 27/44/34 19/34/34
