# Blender 5.0.1
# www.blender.org
mtllib interior_light.mtl
o InteriorLightExport
g interior_light
v 0.547111 0.025329 -0.246570
v -0.547111 0.025329 -0.246570
v 0.547111 0.025329 0.246570
v -0.547111 0.025329 0.246570
v -0.547111 0.035329 -0.246570
v 0.547111 0.035329 -0.246570
v -0.547111 0.035329 0.246570
v 0.547111 0.035329 0.246570
v 0.557111 -0.025329 -0.296570
v 0.597111 -0.025329 -0.256570
v 0.577111 -0.025329 -0.291211
v 0.591752 -0.025329 -0.276570
v -0.597111 -0.025329 -0.256570
v -0.557111 -0.025329 -0.296570
v -0.591752 -0.025329 -0.276570
v -0.577111 -0.025329 -0.291211
v 0.597111 -0.025329 0.256570
v 0.557111 -0.025329 0.296570
v 0.591752 -0.025329 0.276570
v 0.577111 -0.025329 0.291211
v -0.557111 -0.025329 0.296570
v -0.597111 -0.025329 0.256570
v -0.577111 -0.025329 0.291211
v -0.591752 -0.025329 0.276570
v -0.557111 0.025329 -0.296570
v -0.597111 0.025329 -0.256570
v -0.577111 0.025329 -0.291211
v -0.591752 0.025329 -0.276570
v 0.597111 0.025329 -0.256570
v 0.557111 0.025329 -0.296570
v 0.591752 0.025329 -0.276570
v 0.577111 0.025329 -0.291211
v -0.597111 0.025329 0.256570
v -0.557111 0.025329 0.296570
v -0.591752 0.025329 0.276570
v -0.577111 0.025329 0.291211
v 0.557111 0.025329 0.296570
v 0.597111 0.025329 0.256570
v 0.577111 0.025329 0.291211
v 0.591752 0.025329 0.276570
vn -0.0000 -0.0000 1.0000
vn -0.0000 1.0000 -0.0000
vn -0.0000 -0.0000 -1.0000
vn 1.0000 -0.0000 -0.0000
vn -1.0000 -0.0000 -0.0000
vn 0.9914 -0.0000 -0.1305
vn 0.8660 -0.0000 -0.5000
vn 0.5000 -0.0000 -0.8660
vn 0.1305 -0.0000 -0.9914
vn -0.9914 -0.0000 -0.1305
vn -0.8660 -0.0000 -0.5000
vn -0.5000 -0.0000 -0.8660
vn -0.1305 -0.0000 -0.9914
vn -0.1305 -0.0000 0.9914
vn -0.5000 -0.0000 0.8660
vn -0.8660 -0.0000 0.5000
vn -0.9914 -0.0000 0.1305
vn 0.9914 -0.0000 0.1305
vn 0.8660 -0.0000 0.5000
vn 0.5000 -0.0000 0.8660
vn 0.1305 -0.0000 0.9914
vt 0.841608 0.895991
vt 0.828165 0.102578
vt 0.841608 0.102578
vt 0.165227 0.895991
vt 0.165227 0.102578
vt 0.151784 0.102578
vt 0.151784 0.895991
vt 0.165227 0.903242
vt 0.828165 0.895991
vt 0.828165 0.903242
vt 0.828165 0.095327
vt 0.165227 0.095327
vt 0.921316 0.930023
vt 0.913647 0.945461
vt 0.849763 0.922304
vt 0.892695 0.956762
vt 0.864073 0.960898
vt 0.864074 0.039102
vt 0.892695 0.043238
vt 0.849763 0.077696
vt 0.913647 0.054539
vt 0.921316 0.069977
vt 0.129737 0.960898
vt 0.101116 0.956762
vt 0.144048 0.922304
vt 0.080164 0.945461
vt 0.072495 0.930023
vt 0.072495 0.069977
vt 0.080164 0.054539
vt 0.144048 0.077696
vt 0.101116 0.043238
vt 0.129738 0.039102
vt 0.864074 0.000000
vt 0.893705 0.039102
vt 0.893705 0.000000
vt 0.923336 0.039102
vt 0.923336 0.000000
vt 0.952967 0.039102
vt 0.893704 1.000000
vt 0.864073 1.000000
vt 0.893704 0.960898
vt 0.923335 1.000000
vt 0.923335 0.960898
vt 0.952966 1.000000
vt 0.040844 0.960898
vt 0.070475 1.000000
vt 0.040844 1.000000
vt 0.070475 0.960898
vt 0.100106 1.000000
vt 0.100106 0.960898
vt 0.129737 1.000000
vt 0.100107 0.000000
vt 0.129738 0.000000
vt 0.100107 0.039102
vt 0.070476 0.000000
vt 0.070476 0.039102
vt 0.040845 0.000000
vt 0.993811 0.069977
vt 0.000000 0.930023
vt 0.952967 0.000000
vt 0.952966 0.960898
vt 0.040845 0.039102
vt 0.993811 0.930023
vt 0.000001 0.069977
s 0
usemtl InteriorLightSurface
f 3/1/1 7/2/1 4/3/1
f 7/2/2 6/4/2 5/5/2
f 2/6/3 6/4/3 1/7/3
f 1/8/4 8/9/4 3/10/4
f 4/11/5 5/5/5 2/12/5
f 25/13/2 27/14/2 2/15/2
f 27/14/2 28/16/2 2/15/2
f 28/16/2 26/17/2 2/15/2
f 29/18/2 31/19/2 1/20/2
f 31/19/2 32/21/2 1/20/2
f 32/21/2 30/22/2 1/20/2
f 33/23/2 35/24/2 4/25/2
f 35/24/2 36/26/2 4/25/2
f 36/26/2 34/27/2 4/25/2
f 37/28/2 39/29/2 3/30/2
f 39/29/2 40/31/2 3/30/2
f 40/31/2 38/32/2 3/30/2
s 1
f 10/33/6 31/34/7 29/18/6
f 12/35/7 32/36/8 31/34/7
f 11/37/8 30/38/9 32/36/8
f 26/17/10 15/39/11 13/40/10
f 28/41/11 16/42/12 15/39/11
f 27/43/12 14/44/13 16/42/12
f 34/45/14 23/46/15 21/47/14
f 36/48/15 24/49/16 23/46/15
f 35/50/16 22/51/17 24/49/16
f 38/32/18 19/52/19 17/53/18
f 40/54/19 20/55/20 19/52/19
f 39/56/20 18/57/21 20/55/20
f 17/53/18 29/18/6 38/32/18
f 9/58/9 25/13/13 30/22/9
f 13/40/10 33/23/17 26/17/10
f 21/59/14 37/28/21 34/27/14
s 0
f 1/20/2 25/13/2 2/15/2
f 2/15/2 33/23/2 4/25/2
f 3/30/2 29/18/2 1/20/2
f 4/25/2 37/28/2 3/30/2
f 3/1/1 8/9/1 7/2/1
f 7/2/2 8/9/2 6/4/2
f 2/6/3 5/5/3 6/4/3
f 1/8/4 6/4/4 8/9/4
f 4/11/5 7/2/5 5/5/5
s 1
f 10/33/6 12/35/7 31/34/7
f 12/35/7 11/37/8 32/36/8
f 11/37/8 9/60/9 30/38/9
f 26/17/10 28/41/11 15/39/11
f 28/41/11 27/43/12 16/42/12
f 27/43/12 25/61/13 14/44/13
f 34/45/14 36/48/15 23/46/15
f 36/48/15 35/50/16 24/49/16
f 35/50/16 33/23/17 22/51/17
f 38/32/18 40/54/19 19/52/19
f 40/54/19 39/56/20 20/55/20
f 39/56/20 37/62/21 18/57/21
f 17/53/18 10/33/6 29/18/6
f 9/58/9 14/63/13 25/13/13
f 13/40/10 22/51/17 33/23/17
f 21/59/14 18/64/21 37/28/21
s 0
f 1/20/2 30/22/2 25/13/2
f 2/15/2 26/17/2 33/23/2
f 3/30/2 38/32/2 29/18/2
f 4/25/2 34/27/2 37/28/2
