# Blender 5.0.1
# www.blender.org
mtllib raise_pantographs_other_side.mtl
o RaisePantographsOtherSide
g raise_pantographs_other_side
v -1.867660 3.514999 -0.160288
v -1.867661 3.472572 -0.160288
v -2.221214 3.826126 -0.160288
v -2.178787 3.826126 -0.160288
v -1.867660 3.472572 -0.150288
v -1.867660 3.514999 -0.150288
v -2.178787 3.826126 -0.150288
v -2.221214 3.826126 -0.150288
v -2.178787 3.161445 -0.160288
v -2.221214 3.161445 -0.160288
v -2.532341 3.472572 -0.160288
v -2.532341 3.514999 -0.160288
v -2.221214 3.161445 -0.150288
v -2.178787 3.161445 -0.150288
v -2.532341 3.514999 -0.150288
v -2.532341 3.472572 -0.150288
vn 1.0000 -0.0000 -0.0000
vn -0.0000 1.0000 -0.0000
vn -0.0000 -1.0000 -0.0000
vn -1.0000 -0.0000 -0.0000
vn 0.7071 -0.7071 -0.0000
vn 0.7071 0.7071 -0.0000
vn -0.0000 -0.0000 -1.0000
vn -0.7071 0.7071 -0.0000
vn -0.0000 -0.0000 1.0000
vn -0.7071 -0.7071 -0.0000
vt 0.597247 0.203337
vt 0.513896 0.472974
vt 0.514233 0.472974
vt 0.525123 0.467529
vt 0.607800 0.186497
vt 0.608136 0.186497
vt 0.519285 0.472862
vt 0.602860 0.203337
vt 0.602298 0.203450
vt 0.608361 0.203450
vt 0.524786 0.472974
vt 0.525347 0.472862
vt 0.519846 0.467361
vt 0.602860 0.186497
vt 0.914777 0.646049
vt 0.828560 0.721919
vt 0.752689 0.635702
vt 0.530399 0.472974
vt 0.519846 0.472974
vt 0.596910 0.203337
vt 0.524786 0.467361
vt 0.607800 0.203337
vt 0.828560 0.559832
vt 0.838906 0.559832
vt 0.914777 0.635702
vt 0.838906 0.721919
vt 0.752689 0.646049
vt 0.613413 0.203337
vt 0.519510 0.467698
s 0
usemtl Catenary
f 2/1/1 6/2/1 5/3/1
f 8/4/2 4/5/2 3/6/2
f 14/7/3 10/8/3 9/9/3
f 12/10/4 16/11/4 15/12/4
f 14/7/5 2/1/5 5/3/5
f 4/5/6 6/13/6 1/14/6
f 12/15/7 4/16/7 2/17/7
f 8/18/8 12/10/8 15/12/8
f 8/4/9 16/11/9 14/7/9
f 16/11/10 10/8/10 13/19/10
f 2/1/1 1/20/1 6/2/1
f 8/4/2 7/21/2 4/5/2
f 14/7/3 13/19/3 10/8/3
f 12/10/4 11/22/4 16/11/4
f 14/7/5 9/9/5 2/1/5
f 4/5/6 7/21/6 6/13/6
f 2/17/7 9/23/7 10/24/7
f 10/24/7 11/25/7 12/15/7
f 12/15/7 3/26/7 4/16/7
f 4/16/7 1/27/7 2/17/7
f 2/17/7 10/24/7 12/15/7
f 8/18/8 3/28/8 12/10/8
f 14/7/9 5/29/9 6/13/9
f 6/13/9 7/21/9 8/4/9
f 8/4/9 15/12/9 16/11/9
f 16/11/9 13/19/9 14/7/9
f 14/7/9 6/13/9 8/4/9
f 16/11/10 11/22/10 10/8/10
