# Blender 5.0.1
# www.blender.org
mtllib pantograph_lower_frame.mtl
o PantographLowerFrameExport
g pantograph_lower_frame
v 0.635000 0.000000 0.060000
v -0.635000 -0.000000 0.060000
v 0.635000 -0.042426 0.042426
v -0.635000 -0.042426 0.042427
v 0.635000 -0.060000 -0.000000
v -0.635000 -0.060000 0.000000
v 0.635000 -0.042426 -0.042427
v -0.635000 -0.042426 -0.042426
v 0.635000 0.000000 -0.060000
v -0.635000 -0.000000 -0.060000
v 0.635000 0.042426 -0.042427
v -0.635000 0.042426 -0.042426
v 0.635000 0.060000 -0.000000
v -0.635000 0.060000 0.000000
v 0.635000 0.042426 0.042426
v -0.635000 0.042426 0.042427
v 0.600001 0.000000 0.060000
v 0.510001 0.000000 0.060000
v -0.510001 -0.000000 0.060000
v -0.600001 -0.000000 0.060000
v -0.555001 -0.042426 0.042427
v 0.555001 -0.042426 0.042426
v -0.555001 0.042426 0.042427
v 0.555001 0.042426 0.042426
v 0.555001 -0.042426 0.969272
v -0.555001 -0.042426 0.969272
v -0.510001 -0.000000 0.861791
v 0.510001 -0.000000 0.861791
v -0.579902 -0.000000 0.969270
v 0.579903 -0.000000 0.969270
v 0.579903 -0.042430 0.969270
v -0.579902 -0.042430 0.969271
v 0.600001 0.000000 0.861791
v -0.600001 -0.000000 0.861791
v -0.579902 0.042430 0.969271
v -0.579902 0.042430 1.062277
v 0.555001 0.042430 1.062278
v -0.555001 0.042426 0.969272
v -0.555001 0.084856 1.011702
v -0.555001 0.063641 0.974957
v -0.555001 0.079172 0.990488
v -0.579902 0.084860 1.011701
v -0.579902 0.079176 0.990486
v -0.579902 0.063645 0.974955
v 0.555001 0.084856 1.011702
v 0.555001 0.042426 0.969272
v 0.555001 0.079172 0.990487
v 0.555001 0.063641 0.974957
v 0.579903 0.042431 0.969270
v 0.579903 0.084861 1.011700
v 0.579903 0.063646 0.974955
v 0.579903 0.079176 0.990485
v -0.555001 0.084856 1.019848
v -0.555001 0.079172 1.041063
v -0.555001 0.063641 1.056594
v -0.579902 0.084860 1.019847
v -0.579902 0.063645 1.056592
v -0.579902 0.079176 1.041062
v 0.555001 0.084856 1.019848
v 0.555001 0.063641 1.056593
v 0.555001 0.079172 1.041063
v 0.579903 0.084861 1.019846
v 0.579903 0.079176 1.041061
v 0.579903 0.063646 1.056592
v 0.555001 -0.042426 0.977418
v 0.555001 -0.039535 0.999381
v 0.555001 -0.031057 1.019848
v 0.555001 -0.017572 1.037423
v 0.555001 0.000004 1.050909
v 0.555001 0.020470 1.059386
v -0.555001 0.042430 1.062278
v -0.555001 -0.042426 0.977418
v -0.555001 0.020470 1.059387
v -0.555001 0.000004 1.050909
v -0.555001 -0.017572 1.037423
v -0.555001 -0.031057 1.019848
v -0.555001 -0.039535 0.999382
v 0.579903 0.042430 1.062276
v 0.579903 -0.042430 0.977416
v 0.579903 0.020467 1.059385
v 0.579903 -0.000000 1.050907
v 0.579903 -0.017575 1.037421
v 0.579903 -0.031061 1.019846
v 0.579903 -0.039539 0.999380
v -0.579902 -0.042430 0.977417
v -0.579902 -0.039539 0.999380
v -0.579902 -0.031061 1.019847
v -0.579902 -0.017575 1.037422
v -0.579902 -0.000000 1.050908
v -0.579902 0.020466 1.059385
v -0.009996 0.042426 -0.042426
v 0.009996 0.042426 -0.042426
v -0.009996 0.060000 0.000000
v 0.009996 0.060000 -0.000000
v -0.009996 0.042427 0.042427
v 0.009996 0.042427 0.042427
v 0.009996 0.324317 0.107679
v 0.009996 0.217918 0.081620
v 0.009996 0.220621 0.088302
v 0.009996 0.217938 0.085499
v 0.009996 0.296741 0.122347
v 0.009996 0.303163 0.119746
v 0.009996 0.300513 0.122431
v -0.009996 0.220621 0.088302
v -0.009996 0.217918 0.081620
v -0.009996 0.217938 0.085499
v -0.009996 0.303163 0.119746
v -0.009996 0.296741 0.122347
v -0.009996 0.300513 0.122431
v -0.009996 0.220620 0.074886
v -0.009996 0.227025 0.072333
v -0.009996 0.223267 0.072216
v -0.009996 0.302818 0.107168
v -0.009996 0.305503 0.113898
v -0.009996 0.305486 0.110004
v 0.009996 0.227025 0.072333
v 0.009996 0.220620 0.074885
v 0.009996 0.223267 0.072216
v 0.009996 0.305503 0.113898
v 0.009996 0.302818 0.107168
v 0.009996 0.305486 0.110004
v -0.009996 0.324317 0.107679
v -0.009996 0.321728 0.100757
v -0.009996 0.324329 0.103729
v 0.009996 0.321728 0.100757
v 0.009996 0.324329 0.103729
v -0.009996 0.305431 0.141371
v -0.009996 0.311971 0.138490
v -0.009996 0.309285 0.141256
v 0.009996 0.311971 0.138490
v 0.009996 0.305431 0.141370
v 0.009996 0.309285 0.141256
v 0.635000 -0.000000 0.041485
v 0.635000 -0.029334 0.029334
v -0.635000 -0.029335 0.029335
v -0.635000 -0.000000 0.041485
v 0.635000 -0.041485 -0.000000
v -0.635000 -0.041485 0.000000
v 0.635000 -0.029334 -0.029334
v -0.635000 -0.029335 -0.029334
v 0.635000 -0.000000 -0.041485
v -0.635000 -0.000000 -0.041485
v 0.635000 0.029334 -0.029334
v -0.635000 0.029334 -0.029334
v 0.635000 0.041485 -0.000000
v -0.635000 0.041485 0.000000
v 0.635000 0.029334 0.029334
v -0.635000 0.029334 0.029335
v 0.645019 -0.000000 0.041485
v 0.645019 -0.029334 0.029334
v -0.645019 -0.029335 0.029335
v -0.645019 -0.000000 0.041485
v 0.645019 -0.041485 -0.000000
v -0.645019 -0.041485 0.000000
v 0.645019 -0.029334 -0.029334
v -0.645019 -0.029335 -0.029334
v 0.645019 -0.000000 -0.041485
v -0.645019 -0.000000 -0.041485
v 0.645019 0.029334 -0.029334
v -0.645019 0.029334 -0.029334
v 0.645019 0.041485 -0.000000
v -0.645019 0.041485 0.000000
v 0.645019 0.029334 0.029334
v -0.645019 0.029334 0.029335
v 0.646995 -0.000000 0.039403
v 0.646995 -0.027862 0.027862
v -0.646995 -0.027862 0.027862
v -0.646995 -0.000000 0.039403
v 0.646995 -0.039403 -0.000000
v -0.646995 -0.039403 0.000000
v 0.646995 -0.027862 -0.027862
v -0.646995 -0.027862 -0.027862
v 0.646995 -0.000000 -0.039403
v -0.646995 -0.000000 -0.039403
v 0.646995 0.027862 -0.027862
v -0.646995 0.027862 -0.027862
v 0.646995 0.039403 -0.000000
v -0.646995 0.039403 0.000000
v 0.646995 0.027862 0.027862
v -0.646995 0.027862 0.027862
vn -0.0000 -0.0000 1.0000
vn -0.0000 -0.7071 0.7071
vn -0.0000 -0.7958 0.6056
vn -0.0000 -1.0000 -0.0000
vn -0.0000 -0.7071 -0.7071
vn -0.0000 -0.0000 -1.0000
vn -0.0000 0.7071 -0.7071
vn -0.0000 1.0000 -0.0000
vn -0.0000 0.6038 -0.7971
vn -1.0000 -0.0000 -0.0000
vn -0.0000 0.7071 0.7071
vn -0.0000 0.7958 0.6056
vn 1.0000 -0.0000 -0.0000
vn -0.0000 0.6037 0.7972
vn -0.0001 -0.0000 -1.0000
vn 0.0001 -0.0000 -1.0000
vn -0.1467 -0.8862 0.4395
vn -0.1467 0.8862 0.4395
vn -0.9980 -0.0000 0.0635
vn 0.1468 -0.8862 0.4395
vn 0.9980 -0.0000 0.0635
vn 0.1468 0.8862 0.4395
vn -0.9995 -0.0000 0.0302
vn -0.9830 -0.0000 0.1838
vn 0.9995 -0.0000 0.0302
vn 0.9830 -0.0000 0.1838
vn 0.0001 0.2588 -0.9659
vn 0.0001 0.5000 -0.8660
vn 0.0002 0.8660 -0.5000
vn 0.0002 0.9914 -0.1305
vn -0.0002 0.9914 -0.1305
vn -0.0002 0.8660 -0.5000
vn -0.0001 0.5000 -0.8660
vn -0.0002 0.5000 -0.8660
vn -0.0001 0.2588 -0.9659
vn 0.0002 0.9914 0.1305
vn 0.0001 0.8660 0.5000
vn -0.0000 0.5000 0.8660
vn -0.0001 0.0654 0.9979
vn 0.0001 0.0654 0.9979
vn -0.0001 0.8660 0.5000
vn -0.0002 0.9914 0.1305
vn -0.0000 -0.2588 0.9659
vn -0.0000 -0.5000 0.8660
vn -0.0001 -0.7071 0.7071
vn -0.0001 -0.8660 0.5000
vn -0.0001 -0.9659 0.2588
vn -0.0001 -0.9979 0.0654
vn 0.0001 -0.9979 0.0654
vn 0.0001 -0.9659 0.2588
vn 0.0001 -0.8660 0.5000
vn 0.0001 -0.7071 0.7071
vn -0.0001 -1.0000 -0.0000
vn 0.0001 -1.0000 -0.0000
vn -0.0000 0.6038 0.7972
vn -0.0000 0.6038 -0.7972
vn -0.0000 0.5761 -0.8174
vn -0.0000 0.9271 -0.3749
vn -0.0000 0.9270 -0.3750
vn -0.0000 0.9823 0.1871
vn -0.0000 0.8357 0.5492
vn -0.0000 0.3702 0.9290
vn -0.0000 -0.2290 0.9734
vn -0.0000 -0.5837 0.8119
vn -0.0000 -0.9288 0.3706
vn -0.0000 -0.9824 -0.1870
vn -0.0000 0.2196 -0.9756
vn -0.0000 -0.3754 -0.9269
vn -0.0000 -0.8366 -0.5479
vn -0.0000 0.9824 0.1870
vn -0.0000 0.9816 0.1909
vn -0.0000 0.9366 -0.3504
vn -0.0000 0.6153 -0.7883
vn -0.0000 -0.1643 0.9864
vn -0.0000 0.4031 0.9151
vn -0.0000 0.8387 0.5446
vn -0.0000 0.4562 -0.8899
vn -0.0000 -0.3521 0.9360
vn -0.7254 -0.4867 -0.4867
vn -0.7254 -0.6884 -0.0000
vn 0.7254 0.4868 0.4867
vn 0.7254 0.6884 -0.0000
vn -0.7253 0.6884 -0.0000
vn -0.7254 0.4867 0.4867
vn 0.7254 -0.0000 -0.6884
vn 0.7254 -0.4867 -0.4867
vn 0.7254 -0.0000 0.6884
vn -0.7254 -0.0000 -0.6884
vn 0.7254 -0.4867 0.4867
vn -0.7254 -0.0000 0.6884
vn 0.7254 0.4868 -0.4867
vn -0.7254 -0.4867 0.4867
vn -0.7254 0.4867 -0.4867
vn 0.7254 -0.6884 -0.0000
vt 0.409872 0.263769
vt 0.402487 0.269398
vt 0.402487 0.256532
vt 0.395101 0.269398
vt 0.395101 0.065155
vt 0.402487 0.078021
vt 0.387716 0.065155
vt 0.446798 0.269398
vt 0.439413 0.065155
vt 0.446798 0.065155
vt 0.432027 0.269398
vt 0.424642 0.168884
vt 0.432027 0.168884
vt 0.389879 0.282005
vt 0.396241 0.284476
vt 0.395101 0.287227
vt 0.424642 0.269398
vt 0.417257 0.269398
vt 0.417257 0.256532
vt 0.407709 0.059933
vt 0.404958 0.053687
vt 0.407709 0.052548
vt 0.417257 0.065155
vt 0.409872 0.070784
vt 0.409872 0.065155
vt 0.417257 0.168884
vt 0.409872 0.249295
vt 0.409872 0.085257
vt 0.402487 0.065155
vt 0.530224 0.553178
vt 0.524711 0.547504
vt 0.531289 0.549318
vt 0.517069 0.549550
vt 0.518133 0.545690
vt 0.166271 0.464246
vt 0.160596 0.458733
vt 0.164457 0.457668
vt 0.164224 0.471888
vt 0.168085 0.470824
vt 0.531579 0.509355
vt 0.518373 0.512791
vt 0.520257 0.492937
vt 0.204420 0.457377
vt 0.220837 0.468699
vt 0.200984 0.470584
vt 0.352980 0.469524
vt 0.222458 0.448873
vt 0.204884 0.449480
vt 0.540084 0.491316
vt 0.551405 0.507734
vt 0.543537 0.508558
vt 0.539477 0.508890
vt 0.499607 0.362415
vt 0.511753 0.510976
vt 0.206041 0.437551
vt 0.205216 0.445419
vt 0.519433 0.360794
vt 0.509750 0.364421
vt 0.351360 0.489350
vt 0.349353 0.479207
vt 0.350974 0.459380
vt 0.354602 0.449697
vt 0.539259 0.359173
vt 0.529576 0.362800
vt 0.182671 0.489350
vt 0.186649 0.485788
vt 0.186676 0.489320
vt 0.182644 0.485818
vt 0.186622 0.482256
vt 0.182591 0.478754
vt 0.186596 0.478724
vt 0.510203 0.531183
vt 0.506701 0.527152
vt 0.510233 0.527179
vt 0.503139 0.531130
vt 0.503169 0.527126
vt 0.499607 0.531103
vt 0.499636 0.527099
vt 0.186586 0.477414
vt 0.182555 0.473912
vt 0.186560 0.473882
vt 0.182530 0.470380
vt 0.186534 0.470350
vt 0.182504 0.466848
vt 0.186508 0.466818
vt 0.522109 0.531271
vt 0.518607 0.527240
vt 0.522138 0.527266
vt 0.518577 0.531245
vt 0.515075 0.527215
vt 0.515045 0.531219
vt 0.511543 0.527189
vt 0.182581 0.477444
vt 0.532128 0.544526
vt 0.531637 0.548055
vt 0.513817 0.522380
vt 0.511513 0.531193
vt 0.176477 0.475588
vt 0.172945 0.475614
vt 0.169873 0.473870
vt 0.525700 0.527292
vt 0.525672 0.531297
vt 0.529263 0.527318
vt 0.529234 0.531323
vt 0.532825 0.527344
vt 0.532797 0.531349
vt 0.536388 0.527371
vt 0.536359 0.531375
vt 0.539950 0.527396
vt 0.539922 0.531401
vt 0.543513 0.527422
vt 0.543484 0.531427
vt 0.186352 0.445443
vt 0.182373 0.449035
vt 0.182348 0.445472
vt 0.186378 0.449006
vt 0.182399 0.452597
vt 0.186404 0.452569
vt 0.182425 0.456160
vt 0.186430 0.456131
vt 0.182452 0.459722
vt 0.186456 0.459694
vt 0.182478 0.463285
vt 0.186482 0.463256
vt 0.544823 0.527432
vt 0.186343 0.444133
vt 0.182338 0.444162
vt 0.424642 0.165669
vt 0.417257 0.165669
vt 0.417257 0.078020
vt 0.432027 0.165669
vt 0.424642 0.065155
vt 0.432027 0.065155
vt 0.199617 0.456608
vt 0.203152 0.457048
vt 0.347158 0.348921
vt 0.349543 0.351293
vt 0.348971 0.351494
vt 0.363714 0.341668
vt 0.363689 0.340501
vt 0.392106 0.338325
vt 0.989241 0.064467
vt 0.989865 0.067683
vt 0.989241 0.067683
vt 0.989865 0.064467
vt 0.990488 0.067683
vt 0.991655 0.064467
vt 0.992260 0.067683
vt 0.991655 0.067683
vt 0.958332 0.064467
vt 0.958937 0.067683
vt 0.958332 0.067683
vt 0.972351 0.067683
vt 0.972978 0.064467
vt 0.972978 0.067683
vt 0.973604 0.064467
vt 0.973604 0.067683
vt 0.975830 0.067683
vt 0.975224 0.064467
vt 0.975830 0.064467
vt 0.974617 0.067683
vt 0.974617 0.064467
vt 0.990488 0.064467
vt 0.972351 0.064467
vt 0.340580 0.348921
vt 0.339944 0.345706
vt 0.340580 0.345706
vt 0.339944 0.348921
vt 0.339309 0.345706
vt 0.346538 0.345706
vt 0.347158 0.345706
vt 0.346538 0.348921
vt 0.345918 0.345706
vt 0.345918 0.348921
vt 0.288833 0.345706
vt 0.339309 0.348921
vt 0.288833 0.348921
vt 0.348926 0.340982
vt 0.348703 0.341567
vt 0.346223 0.339565
vt 0.392349 0.345706
vt 0.439413 0.269398
vt 0.363441 0.354678
vt 0.363689 0.354126
vt 0.392106 0.356303
vt 0.549845 0.333742
vt 0.551509 0.339095
vt 0.549828 0.339089
vt 0.549816 0.354782
vt 0.551437 0.359920
vt 0.549816 0.359920
vt 0.392630 0.058793
vt 0.396241 0.062404
vt 0.407709 0.274620
vt 0.404958 0.280866
vt 0.404958 0.275759
vt 0.392630 0.275759
vt 0.389879 0.274620
vt 0.404958 0.058793
vt 0.402486 0.047326
vt 0.396241 0.050076
vt 0.395101 0.047326
vt 0.401347 0.272149
vt 0.401347 0.284476
vt 0.402487 0.287227
vt 0.389879 0.059933
vt 0.392630 0.053687
vt 0.392630 0.280866
vt 0.401347 0.062404
vt 0.401347 0.050076
vt 0.396241 0.272149
vt 0.407709 0.282005
vt 0.389879 0.052548
vt 0.554995 0.358400
vt 0.551858 0.354608
vt 0.555220 0.358000
vt 0.548117 0.546428
vt 0.544937 0.550228
vt 0.544517 0.550056
vt 0.558285 0.517888
vt 0.556634 0.523278
vt 0.556589 0.517902
vt 0.558484 0.544734
vt 0.556768 0.539408
vt 0.558459 0.539396
vt 0.549890 0.323050
vt 0.551599 0.317711
vt 0.551577 0.323057
vt 0.558497 0.549993
vt 0.556813 0.544744
vt 0.551484 0.344407
vt 0.549819 0.344401
vt 0.558375 0.528641
vt 0.558330 0.523264
vt 0.551454 0.349649
vt 0.549816 0.349644
vt 0.551554 0.328403
vt 0.549867 0.328396
vt 0.558497 0.555133
vt 0.556857 0.550001
vt 0.558420 0.534017
vt 0.556679 0.528655
vt 0.551437 0.354782
vt 0.551532 0.333749
vt 0.558491 0.560270
vt 0.556876 0.555131
vt 0.556723 0.534031
vt 0.563395 0.349870
vt 0.559996 0.358006
vt 0.544954 0.554991
vt 0.548292 0.546847
vt 0.563816 0.349697
vt 0.560032 0.346485
vt 0.560208 0.346065
vt 0.548161 0.558768
vt 0.553097 0.558333
vt 0.553272 0.558752
vt 0.553055 0.546828
vt 0.560170 0.358425
vt 0.553227 0.546407
vt 0.556438 0.550181
vt 0.555261 0.346468
vt 0.555089 0.346046
vt 0.544535 0.555166
vt 0.548334 0.558348
vt 0.551874 0.349829
vt 0.563800 0.354817
vt 0.563379 0.354642
vt 0.556455 0.554954
vt 0.409872 0.269398
vt 0.387716 0.269398
vt 0.202799 0.477204
vt 0.182617 0.482286
vt 0.506671 0.531157
vt 0.528201 0.534847
vt 0.515087 0.543901
vt 0.513369 0.537298
vt 0.525391 0.532658
vt 0.513343 0.540830
vt 0.513717 0.536035
vt 0.515505 0.532989
vt 0.530349 0.537690
vt 0.531689 0.540991
vt 0.515301 0.514535
vt 0.513513 0.517581
vt 0.531909 0.510622
vt 0.530470 0.520968
vt 0.531858 0.517687
vt 0.532348 0.514158
vt 0.528281 0.523779
vt 0.525439 0.525927
vt 0.515561 0.525452
vt 0.513487 0.521113
vt 0.178927 0.460755
vt 0.165719 0.457319
vt 0.169248 0.456829
vt 0.172784 0.457268
vt 0.176085 0.458607
vt 0.181116 0.463566
vt 0.180786 0.473451
vt 0.177740 0.475240
vt 0.544794 0.531436
vt 0.199240 0.473656
vt 0.196194 0.475444
vt 0.192662 0.475469
vt 0.191394 0.475140
vt 0.188322 0.473396
vt 0.187848 0.463517
vt 0.189996 0.460675
vt 0.192806 0.458486
vt 0.196088 0.457099
vt 0.348703 0.353061
vt 0.348926 0.353646
vt 0.346223 0.355062
vt 0.346337 0.349725
vt 0.348724 0.352048
vt 0.346584 0.349157
vt 0.392349 0.348921
vt 0.362929 0.352107
vt 0.363714 0.352959
vt 0.363491 0.352377
vt 0.363441 0.339950
vt 0.362869 0.339754
vt 0.397154 0.332934
vt 0.362929 0.342521
vt 0.363491 0.342251
vt 0.992260 0.064467
vt 0.958937 0.064467
vt 0.975223 0.067683
vt 0.346584 0.345471
vt 0.346337 0.344902
vt 0.349543 0.343335
vt 0.348724 0.342580
vt 0.346445 0.338970
vt 0.347005 0.338670
vt 0.349488 0.340706
vt 0.348971 0.343134
vt 0.397154 0.361694
vt 0.347005 0.355957
vt 0.362869 0.354873
vt 0.346445 0.355657
vt 0.349488 0.353922
vt 0.549912 0.317704
vt 0.556870 0.560268
vt 0.555094 0.358441
s 1
usemtl MovingParts
f 20/1/1 4/2/2 21/3/3
f 6/4/4 5/5/4 22/6/3
f 6/4/4 7/7/5 5/5/4
f 8/8/5 9/9/6 7/10/5
f 12/11/7 93/12/8 91/13/9
f 10/14/10 144/15/10 12/16/10
f 14/17/8 16/18/11 23/19/12
f 16/18/11 20/1/1 23/19/12
f 1/20/13 147/21/13 15/22/13
f 15/23/11 17/24/1 1/25/1
f 95/26/14 19/27/1 18/28/1
f 17/24/1 3/29/2 1/25/1
f 18/28/1 21/3/3 22/6/3
f 25/30/15 30/31/15 31/32/15
f 30/31/15 46/33/15 49/34/15
f 29/35/16 26/36/16 32/37/16
f 38/38/16 29/35/16 35/39/16
f 25/40/17 46/41/18 28/42/19
f 26/43/20 27/44/21 38/45/22
f 21/46/4 27/44/21 26/43/20
f 34/47/23 26/43/20 29/48/24
f 33/49/25 46/50/18 30/51/26
f 25/40/17 33/49/25 30/52/26
f 24/53/8 28/42/19 46/54/18
f 38/55/22 34/47/23 29/56/24
f 22/57/4 28/42/19 18/58/10
f 23/59/8 27/44/21 19/60/13
f 21/46/4 34/47/23 20/61/10
f 23/62/8 34/47/23 38/55/22
f 24/63/8 33/49/25 17/64/13
f 22/57/4 33/49/25 25/40/17
f 35/65/27 40/66/28 38/67/27
f 44/68/28 41/69/29 40/66/28
f 41/69/29 42/70/30 39/71/30
f 50/72/31 47/73/32 45/74/31
f 47/73/32 51/75/33 48/76/34
f 48/76/34 49/77/35 46/78/35
f 53/79/36 58/80/37 54/81/37
f 54/81/37 57/82/38 55/83/38
f 55/83/38 36/84/39 71/85/39
f 78/86/40 60/87/38 37/88/40
f 64/89/38 61/90/41 60/87/38
f 63/91/41 59/92/42 61/90/41
f 39/71/30 56/93/36 53/79/36
f 84/94/13 79/95/13 30/31/13
f 37/88/10 59/96/10 46/41/10
f 45/74/31 62/97/42 50/72/31
f 42/98/10 43/99/10 44/100/10
f 78/86/40 70/101/43 80/102/43
f 80/102/43 69/103/44 81/104/44
f 81/104/44 68/105/45 82/106/2
f 82/106/2 67/107/46 83/108/46
f 83/108/46 66/109/47 84/110/47
f 84/110/47 65/111/48 79/112/48
f 72/113/49 86/114/50 85/115/49
f 77/116/50 87/117/51 86/114/50
f 76/118/51 88/119/52 87/117/51
f 75/120/52 89/121/44 88/119/52
f 74/122/44 90/123/43 89/121/44
f 73/124/43 36/84/39 90/123/43
f 25/125/53 79/112/48 65/111/48
f 26/126/54 85/115/49 32/127/54
f 94/128/8 96/129/55 24/130/12
f 92/131/56 13/132/8 11/133/7
f 77/134/13 72/135/13 38/45/13
f 131/136/13 101/137/13 103/138/13
f 105/139/10 110/140/10 93/141/10
f 99/142/57 106/143/58 104/144/57
f 100/145/59 105/146/60 106/143/58
f 117/147/61 112/148/62 110/149/61
f 118/150/62 111/151/63 112/152/62
f 113/153/64 121/154/65 115/155/65
f 115/155/65 119/156/66 114/157/66
f 108/158/67 103/159/68 101/160/67
f 103/159/68 107/161/69 102/162/69
f 110/149/61 98/163/70 117/147/61
f 101/160/67 104/144/57 108/158/67
f 102/162/69 114/157/66 119/156/66
f 111/151/63 120/164/64 113/153/64
f 97/165/71 124/166/72 122/167/71
f 126/168/72 123/169/73 124/166/72
f 131/136/74 129/170/75 127/171/74
f 132/172/75 128/173/76 129/170/75
f 122/167/71 130/174/76 97/165/71
f 91/175/77 125/176/73 92/177/77
f 115/178/10 114/179/10 122/180/10
f 95/181/78 131/136/74 127/171/74
f 92/131/56 9/9/6 10/182/6
f 118/183/13 117/184/13 94/185/13
f 146/186/8 164/187/11 148/188/11
f 138/189/4 156/190/5 140/191/5
f 5/5/13 139/192/13 137/193/13
f 2/194/10 148/195/10 136/196/10
f 6/4/10 140/197/10 8/198/10
f 3/29/13 133/199/13 1/20/13
f 13/200/13 143/201/13 11/202/13
f 4/2/10 136/196/10 135/203/10
f 12/16/10 146/204/10 14/205/10
f 7/206/13 141/207/13 139/192/13
f 8/198/10 142/208/10 10/14/10
f 3/29/13 137/193/13 134/209/13
f 15/22/13 145/210/13 13/200/13
f 6/4/10 135/203/10 138/211/10
f 16/212/10 146/204/10 148/195/10
f 9/213/13 143/201/13 141/207/13
f 156/214/79 170/215/80 172/216/79
f 163/217/81 177/218/82 161/219/82
f 139/220/5 157/221/6 155/222/5
f 133/223/1 163/224/11 147/225/11
f 142/226/6 156/227/5 158/228/6
f 134/229/2 149/230/1 133/223/1
f 148/188/11 152/231/1 136/232/1
f 143/233/7 157/221/6 141/234/6
f 136/232/1 151/235/2 135/236/2
f 142/226/6 160/237/7 144/238/7
f 137/239/4 150/240/2 134/229/2
f 145/241/8 159/242/7 143/233/7
f 138/189/4 151/235/2 154/243/4
f 144/238/7 162/244/8 146/186/8
f 139/245/5 153/246/4 137/239/4
f 147/225/11 161/247/8 145/241/8
f 178/248/10 174/249/10 170/215/10
f 175/250/13 177/218/13 179/251/13
f 162/252/83 180/253/84 164/254/84
f 157/255/85 171/256/86 155/257/86
f 163/217/81 165/258/87 179/251/81
f 158/259/88 172/216/79 174/249/88
f 149/260/87 166/261/89 165/258/87
f 164/254/84 168/262/90 152/263/90
f 159/264/91 173/265/85 157/255/85
f 152/263/90 167/266/92 151/235/92
f 160/267/93 174/249/88 176/268/93
f 150/240/89 169/269/94 166/261/89
f 161/219/82 175/250/91 159/264/91
f 151/235/92 170/215/80 154/243/80
f 162/252/83 176/268/93 178/248/83
f 153/246/94 171/256/86 169/269/94
f 20/1/1 2/270/1 4/2/2
f 5/5/4 3/29/2 22/6/3
f 22/6/3 21/3/3 6/4/4
f 21/3/3 4/2/2 6/4/4
f 6/4/4 8/271/5 7/7/5
f 8/8/5 10/182/6 9/9/6
f 12/11/7 14/17/8 93/12/8
f 10/14/10 142/208/10 144/15/10
f 95/26/14 93/12/8 23/19/12
f 93/12/8 14/17/8 23/19/12
f 16/18/11 2/270/1 20/1/1
f 1/20/13 133/199/13 147/21/13
f 15/23/11 24/130/12 17/24/1
f 18/28/1 24/130/12 96/129/55
f 95/26/14 23/19/12 19/27/1
f 18/28/1 96/129/55 95/26/14
f 17/24/1 22/6/3 3/29/2
f 18/28/1 19/27/1 21/3/3
f 21/46/4 19/60/13 27/44/21
f 24/53/8 18/58/10 28/42/19
f 22/57/4 25/40/17 28/42/19
f 23/59/8 38/272/22 27/44/21
f 21/46/4 26/43/20 34/47/23
f 23/62/8 20/61/10 34/47/23
f 24/63/8 46/50/18 33/49/25
f 22/57/4 17/64/13 33/49/25
f 35/65/27 44/68/28 40/66/28
f 44/68/28 43/273/29 41/69/29
f 41/69/29 43/273/29 42/70/30
f 50/72/31 52/274/32 47/73/32
f 47/73/32 52/274/32 51/75/33
f 48/76/34 51/75/33 49/77/35
f 53/79/36 56/93/36 58/80/37
f 54/81/37 58/80/37 57/82/38
f 55/83/38 57/82/38 36/84/39
f 78/86/40 64/89/38 60/87/38
f 64/89/38 63/91/41 61/90/41
f 63/91/41 62/97/42 59/92/42
f 39/71/30 42/70/30 56/93/36
f 79/95/13 31/32/13 30/31/13
f 30/31/13 49/34/13 81/275/13
f 49/34/13 51/276/13 50/277/13
f 81/275/13 49/34/13 80/278/13
f 51/276/13 52/279/13 50/277/13
f 50/277/13 62/280/13 78/86/13
f 62/280/13 63/281/13 78/86/13
f 63/281/13 64/89/13 78/86/13
f 78/86/13 80/278/13 49/34/13
f 78/86/13 49/34/13 50/277/13
f 81/275/13 82/282/13 30/31/13
f 82/282/13 83/283/13 30/31/13
f 83/283/13 84/94/13 30/31/13
f 48/284/10 46/41/10 47/285/10
f 46/41/10 25/40/10 65/286/10
f 68/287/10 46/41/10 67/288/10
f 65/286/10 66/289/10 46/41/10
f 66/289/10 67/288/10 46/41/10
f 68/287/10 69/290/10 46/41/10
f 69/290/10 70/291/10 46/41/10
f 70/291/10 37/88/10 46/41/10
f 37/88/10 60/87/10 59/96/10
f 60/87/10 61/292/10 59/96/10
f 59/96/10 45/293/10 46/41/10
f 45/293/10 47/285/10 46/41/10
f 45/74/31 59/92/42 62/97/42
f 44/100/10 35/39/10 42/98/10
f 35/39/10 29/35/10 89/294/10
f 29/35/10 32/37/10 85/295/10
f 85/295/10 86/296/10 29/35/10
f 86/296/10 87/297/10 29/35/10
f 87/297/10 88/298/10 29/35/10
f 88/298/10 89/294/10 29/35/10
f 89/294/10 90/299/10 35/39/10
f 90/299/10 36/84/10 35/39/10
f 35/39/10 36/84/10 42/98/10
f 36/84/10 57/82/10 58/300/10
f 58/300/10 56/301/10 36/84/10
f 56/301/10 42/98/10 36/84/10
f 78/86/40 37/88/40 70/101/43
f 80/102/43 70/101/43 69/103/44
f 81/104/44 69/103/44 68/105/45
f 82/106/2 68/105/45 67/107/46
f 83/108/46 67/107/46 66/109/47
f 84/110/47 66/109/47 65/111/48
f 72/113/49 77/116/50 86/114/50
f 77/116/50 76/118/51 87/117/51
f 76/118/51 75/120/52 88/119/52
f 75/120/52 74/122/44 89/121/44
f 74/122/44 73/124/43 90/123/43
f 73/124/43 71/85/39 36/84/39
f 25/125/53 31/302/53 79/112/48
f 26/126/54 72/113/49 85/115/49
f 15/23/11 13/132/8 24/130/12
f 13/132/8 94/128/8 24/130/12
f 92/131/56 94/128/8 13/132/8
f 72/135/13 26/43/13 38/45/13
f 38/45/13 40/303/13 41/304/13
f 41/304/13 39/305/13 38/45/13
f 39/305/13 53/306/13 38/45/13
f 53/306/13 54/307/13 55/83/13
f 55/83/13 71/85/13 53/306/13
f 71/85/13 73/308/13 38/45/13
f 53/306/13 71/85/13 38/45/13
f 73/308/13 74/309/13 38/45/13
f 74/309/13 75/310/13 38/45/13
f 75/310/13 76/311/13 38/45/13
f 76/311/13 77/134/13 38/45/13
f 119/312/13 121/313/13 97/314/13
f 97/314/13 130/315/13 102/316/13
f 130/315/13 132/317/13 131/136/13
f 97/314/13 102/316/13 119/312/13
f 131/136/13 96/318/13 99/319/13
f 96/318/13 98/320/13 100/321/13
f 96/318/13 100/321/13 99/319/13
f 102/316/13 130/315/13 103/138/13
f 103/138/13 130/315/13 131/136/13
f 131/136/13 99/319/13 101/137/13
f 112/322/10 111/323/10 91/324/10
f 93/141/10 95/181/10 105/139/10
f 95/181/10 104/325/10 106/326/10
f 112/322/10 91/324/10 93/141/10
f 110/140/10 112/322/10 93/141/10
f 95/181/10 106/326/10 105/139/10
f 99/142/57 100/145/59 106/143/58
f 100/145/59 98/163/70 105/146/60
f 117/147/61 118/327/62 112/148/62
f 118/150/62 116/328/63 111/151/63
f 113/153/64 120/164/64 121/154/65
f 115/155/65 121/154/65 119/156/66
f 108/158/67 109/329/68 103/159/68
f 103/159/68 109/329/68 107/161/69
f 110/149/61 105/146/60 98/163/70
f 101/160/67 99/142/57 104/144/57
f 102/162/69 107/161/69 114/157/66
f 111/151/63 116/328/63 120/164/64
f 97/165/71 126/168/72 124/166/72
f 126/168/72 125/176/73 123/169/73
f 131/136/74 132/172/75 129/170/75
f 132/172/75 130/174/76 128/173/76
f 122/167/71 128/173/76 130/174/76
f 91/175/77 123/169/73 125/176/73
f 95/181/10 127/171/10 104/325/10
f 127/171/10 129/330/10 128/331/10
f 104/325/10 127/171/10 108/332/10
f 128/331/10 122/180/10 107/333/10
f 122/180/10 124/334/10 123/335/10
f 123/335/10 91/324/10 111/323/10
f 123/335/10 111/323/10 113/336/10
f 128/331/10 107/333/10 109/337/10
f 122/180/10 123/335/10 115/178/10
f 107/333/10 122/180/10 114/179/10
f 108/332/10 127/171/10 109/337/10
f 109/337/10 127/171/10 128/331/10
f 123/335/10 113/336/10 115/178/10
f 95/181/78 96/318/78 131/136/74
f 10/182/6 12/11/7 91/13/9
f 92/131/56 11/133/7 9/9/6
f 10/182/6 91/13/9 92/131/56
f 94/185/13 92/338/13 118/183/13
f 92/338/13 125/339/13 116/340/13
f 125/339/13 126/341/13 97/314/13
f 97/314/13 121/313/13 125/339/13
f 121/313/13 120/342/13 125/339/13
f 120/342/13 116/340/13 125/339/13
f 92/338/13 116/340/13 118/183/13
f 98/320/13 96/318/13 94/185/13
f 117/184/13 98/320/13 94/185/13
f 146/186/8 162/244/8 164/187/11
f 138/189/4 154/243/4 156/190/5
f 5/5/13 7/206/13 139/192/13
f 2/194/10 16/212/10 148/195/10
f 6/4/10 138/211/10 140/197/10
f 3/29/13 134/209/13 133/199/13
f 13/200/13 145/210/13 143/201/13
f 4/2/10 2/194/10 136/196/10
f 12/16/10 144/15/10 146/204/10
f 7/206/13 9/213/13 141/207/13
f 8/198/10 140/197/10 142/208/10
f 3/29/13 5/5/13 137/193/13
f 15/22/13 147/21/13 145/210/13
f 6/4/10 4/2/10 135/203/10
f 16/212/10 14/205/10 146/204/10
f 9/213/13 11/202/13 143/201/13
f 156/214/79 154/243/80 170/215/80
f 163/217/81 179/251/81 177/218/82
f 139/220/5 141/234/6 157/221/6
f 133/223/1 149/230/1 163/224/11
f 142/226/6 140/343/5 156/227/5
f 134/229/2 150/240/2 149/230/1
f 148/188/11 164/187/11 152/231/1
f 143/233/7 159/242/7 157/221/6
f 136/232/1 152/231/1 151/235/2
f 142/226/6 158/228/6 160/237/7
f 137/239/4 153/246/4 150/240/2
f 145/241/8 161/247/8 159/242/7
f 138/189/4 135/236/2 151/235/2
f 144/238/7 160/237/7 162/244/8
f 139/245/5 155/344/5 153/246/4
f 147/225/11 163/224/11 161/247/8
f 170/215/10 167/266/10 178/248/10
f 167/266/10 168/262/10 178/248/10
f 168/262/10 180/253/10 178/248/10
f 178/248/10 176/268/10 174/249/10
f 174/249/10 172/216/10 170/215/10
f 179/251/13 165/258/13 166/261/13
f 166/261/13 169/269/13 179/251/13
f 169/269/13 171/256/13 179/251/13
f 171/256/13 173/265/13 179/251/13
f 173/265/13 175/250/13 179/251/13
f 162/252/83 178/248/83 180/253/84
f 157/255/85 173/265/85 171/256/86
f 163/217/81 149/260/87 165/258/87
f 158/259/88 156/345/79 172/216/79
f 149/260/87 150/240/89 166/261/89
f 164/254/84 180/253/84 168/262/90
f 159/264/91 175/250/91 173/265/85
f 152/263/90 168/262/90 167/266/92
f 160/267/93 158/259/88 174/249/88
f 150/240/89 153/246/94 169/269/94
f 161/219/82 177/218/82 175/250/91
f 151/235/92 167/266/92 170/215/80
f 162/252/83 160/267/93 176/268/93
f 153/246/94 155/257/86 171/256/86
