# Blender 5.0.1
# www.blender.org
mtllib pantograph_head.mtl
o PantographHeadExport
g pantograph_head
v -0.799098 -0.009255 0.107212
v 0.799098 -0.009255 0.107212
v 0.799098 -0.009255 0.213659
v -0.799098 -0.009255 0.213659
v -0.609999 -0.024808 0.107212
v 0.609999 -0.024808 0.213658
v -0.699999 0.000002 0.107212
v 0.699999 0.000002 0.107212
v 0.699999 0.000002 0.213659
v -0.699999 0.000002 0.213659
v -1.206070 -0.318475 0.172646
v -1.185434 -0.297086 0.206759
v -1.203305 -0.315609 0.188197
v -1.195752 -0.307780 0.200683
v -1.185434 -0.297086 0.114112
v -1.206070 -0.318475 0.148226
v -1.195752 -0.307780 0.120188
v -1.203305 -0.315609 0.132675
v 1.206070 -0.318475 0.148226
v 1.185434 -0.297086 0.114112
v 1.203305 -0.315609 0.132675
v 1.195752 -0.307780 0.120188
v 1.185434 -0.297086 0.206759
v 1.206070 -0.318475 0.172646
v 1.195752 -0.307780 0.200683
v 1.203305 -0.315609 0.188197
v -1.194132 -0.330412 0.148226
v -1.173572 -0.308959 0.114050
v -1.191378 -0.327538 0.132666
v -1.183852 -0.319686 0.120157
v -1.173572 -0.308959 0.206822
v -1.194132 -0.330412 0.172646
v -1.183852 -0.319686 0.200714
v -1.191378 -0.327538 0.188205
v 1.194132 -0.330412 0.172646
v 1.173572 -0.308959 0.206822
v 1.191378 -0.327538 0.188205
v 1.183852 -0.319686 0.200714
v 1.173572 -0.308959 0.114050
v 1.194132 -0.330412 0.148226
v 1.183852 -0.319686 0.120157
v 1.191378 -0.327538 0.132666
v -1.134360 -0.268042 0.155470
v -1.139200 -0.273093 0.157865
v -1.140851 -0.274816 0.160436
v -1.139200 -0.273093 0.163006
v -1.134360 -0.268042 0.165401
v -1.146082 -0.256298 0.165320
v -1.150941 -0.261333 0.162964
v -1.152598 -0.263051 0.160436
v -1.150941 -0.261333 0.157908
v -1.146082 -0.256298 0.155552
v 1.146082 -0.256298 0.155552
v 1.150941 -0.261333 0.157908
v 1.152598 -0.263051 0.160436
v 1.150941 -0.261333 0.162964
v 1.146082 -0.256298 0.165320
v 1.134360 -0.268042 0.165401
v 1.139200 -0.273093 0.163006
v 1.140851 -0.274816 0.160436
v 1.139200 -0.273093 0.157865
v 1.134360 -0.268042 0.155470
v -0.937920 -0.063066 0.254684
v -0.853519 -0.027231 0.261659
v -0.920967 -0.049353 0.257353
v -0.898974 -0.037727 0.259616
v -0.875289 -0.029959 0.261128
v -0.942209 -0.044980 0.206737
v -0.857685 -0.009255 0.213659
v -0.925209 -0.031309 0.209386
v -0.903176 -0.019719 0.211632
v -0.879465 -0.011974 0.213132
v -0.853519 -0.027231 0.059212
v -0.937920 -0.063066 0.066187
v -0.875289 -0.029959 0.059743
v -0.898974 -0.037727 0.061255
v -0.920967 -0.049353 0.063518
v -0.944507 -0.047362 0.066083
v -0.859980 -0.011634 0.059212
v -0.927506 -0.033690 0.063454
v -0.905472 -0.022099 0.061225
v -0.881760 -0.014354 0.059735
v 0.853519 -0.027231 0.261659
v 0.937920 -0.063066 0.254684
v 0.875289 -0.029959 0.261128
v 0.898974 -0.037727 0.259616
v 0.920967 -0.049353 0.257353
v 0.944507 -0.047362 0.254788
v 0.859980 -0.011634 0.261659
v 0.927506 -0.033690 0.257418
v 0.905472 -0.022099 0.259647
v 0.881760 -0.014354 0.261136
v 0.851197 -0.024808 0.107212
v 0.935594 -0.060640 0.114251
v 0.872967 -0.027535 0.107748
v 0.896651 -0.035303 0.109274
v 0.918643 -0.046927 0.111557
v 0.942209 -0.044980 0.114134
v 0.857685 -0.009255 0.107212
v 0.925209 -0.031309 0.111485
v 0.903176 -0.019719 0.109240
v 0.879465 -0.011974 0.107739
v -0.857685 -0.009255 0.107212
v -0.942209 -0.044980 0.114134
v -0.879465 -0.011974 0.107739
v -0.903176 -0.019719 0.109240
v -0.925209 -0.031309 0.111485
v 0.859980 -0.011634 0.059212
v 0.944507 -0.047362 0.066083
v 0.881760 -0.014354 0.059735
v 0.905472 -0.022099 0.061225
v 0.927506 -0.033690 0.063454
v 0.857685 -0.009255 0.213659
v 0.942209 -0.044980 0.206737
v 0.879465 -0.011974 0.213132
v 0.903176 -0.019719 0.211632
v 0.925209 -0.031309 0.209386
v -0.859980 -0.011634 0.261659
v -0.944507 -0.047362 0.254788
v -0.881760 -0.014354 0.261136
v -0.905472 -0.022099 0.259647
v -0.927506 -0.033690 0.257418
v 0.937920 -0.063066 0.066187
v 0.853519 -0.027231 0.059212
v 0.920967 -0.049353 0.063518
v 0.898974 -0.037727 0.061255
v 0.875289 -0.029959 0.059743
v -0.935594 -0.060640 0.114251
v -0.851197 -0.024808 0.107212
v -0.918643 -0.046927 0.111557
v -0.896651 -0.035303 0.109274
v -0.872967 -0.027535 0.107748
v -0.851197 -0.024808 0.213659
v -0.935594 -0.060640 0.206621
v -0.872967 -0.027535 0.213124
v -0.896651 -0.035303 0.211598
v -0.918643 -0.046927 0.209314
v 0.935594 -0.060640 0.206621
v 0.851197 -0.024808 0.213659
v 0.918643 -0.046927 0.209314
v 0.896651 -0.035303 0.211598
v 0.872967 -0.027535 0.213124
v -0.799098 -0.009255 -0.198696
v 0.799098 -0.009255 -0.198696
v 0.799098 -0.009255 -0.092248
v -0.799098 -0.009255 -0.092248
v -0.609999 -0.024808 -0.198696
v 0.609999 -0.024808 -0.092250
v -0.699999 0.000002 -0.198696
v 0.699999 0.000002 -0.198696
v 0.699999 0.000002 -0.092248
v -0.699999 0.000002 -0.092248
v -1.206070 -0.318475 -0.133262
v -1.185434 -0.297086 -0.099148
v 0.609999 -0.024808 -0.198698
v -1.203305 -0.315609 -0.117711
v -1.195752 -0.307780 -0.105224
v -1.185434 -0.297086 -0.191796
v -1.206070 -0.318475 -0.157682
v -0.609999 -0.024808 -0.092248
v -1.195752 -0.307780 -0.185720
v -1.203305 -0.315609 -0.173233
v 1.206070 -0.318475 -0.157682
v 1.185434 -0.297086 -0.191796
v 0.609999 -0.024808 0.107210
v 1.203305 -0.315609 -0.173233
v 1.195752 -0.307780 -0.185720
v 1.185434 -0.297086 -0.099148
v 1.206070 -0.318475 -0.133262
v -0.609999 -0.024808 0.213659
v 1.195752 -0.307780 -0.105224
v 1.203305 -0.315609 -0.117711
v -1.194132 -0.330412 -0.157682
v -1.173572 -0.308959 -0.191858
v -1.191378 -0.327538 -0.173241
v -1.183852 -0.319686 -0.185751
v -1.173572 -0.308959 -0.099086
v -1.194132 -0.330412 -0.133262
v -1.183852 -0.319686 -0.105193
v -1.191378 -0.327538 -0.117703
v 1.194132 -0.330412 -0.133262
v 1.173572 -0.308959 -0.099086
v 1.191378 -0.327538 -0.117703
v 1.183852 -0.319686 -0.105193
v 1.173572 -0.308959 -0.191858
v 1.194132 -0.330412 -0.157682
v 1.183852 -0.319686 -0.185751
v 1.191378 -0.327538 -0.173241
v -1.134360 -0.268042 -0.150438
v -1.139200 -0.273093 -0.148042
v -1.140851 -0.274816 -0.145472
v -1.139200 -0.273093 -0.142902
v -1.134360 -0.268042 -0.140506
v -1.146082 -0.256298 -0.140588
v -1.150941 -0.261333 -0.142944
v -1.152598 -0.263051 -0.145472
v -1.150941 -0.261333 -0.148000
v -1.146082 -0.256298 -0.150356
v 1.146082 -0.256298 -0.150356
v 1.150941 -0.261333 -0.148000
v 1.152598 -0.263051 -0.145472
v 1.150941 -0.261333 -0.142944
v 1.146082 -0.256298 -0.140588
v 1.134360 -0.268042 -0.140506
v 1.139200 -0.273093 -0.142902
v 1.140851 -0.274816 -0.145472
v 1.139200 -0.273093 -0.148042
v 1.134360 -0.268042 -0.150438
v -0.937920 -0.063066 -0.051224
v -0.853519 -0.027231 -0.044248
v -0.920967 -0.049353 -0.048554
v -0.898974 -0.037727 -0.046291
v -0.875289 -0.029959 -0.044779
v -0.942209 -0.044980 -0.099171
v -0.857685 -0.009255 -0.092248
v -0.925209 -0.031309 -0.096522
v -0.903176 -0.019719 -0.094276
v -0.879465 -0.011974 -0.092775
v -0.853519 -0.027231 -0.246696
v -0.937920 -0.063066 -0.239721
v -0.875289 -0.029959 -0.246165
v -0.898974 -0.037727 -0.244653
v -0.920967 -0.049353 -0.242390
v -0.944507 -0.047362 -0.239824
v -0.859980 -0.011634 -0.246696
v -0.927506 -0.033690 -0.242454
v -0.905472 -0.022099 -0.244683
v -0.881760 -0.014354 -0.246173
v 0.853519 -0.027231 -0.044248
v 0.937920 -0.063066 -0.051224
v 0.875289 -0.029959 -0.044779
v 0.898974 -0.037727 -0.046291
v 0.920967 -0.049353 -0.048554
v 0.944507 -0.047362 -0.051120
v 0.859980 -0.011634 -0.044248
v 0.927506 -0.033690 -0.048490
v 0.905472 -0.022099 -0.046261
v 0.881760 -0.014354 -0.044771
v 0.851197 -0.024808 -0.198696
v 0.935594 -0.060640 -0.191657
v 0.872967 -0.027535 -0.198160
v 0.896651 -0.035303 -0.196634
v 0.918643 -0.046927 -0.194351
v 0.942209 -0.044980 -0.191773
v 0.857685 -0.009255 -0.198696
v 0.925209 -0.031309 -0.194422
v 0.903176 -0.019719 -0.196668
v 0.879465 -0.011974 -0.198169
v -0.857685 -0.009255 -0.198696
v -0.942209 -0.044980 -0.191773
v -0.879465 -0.011974 -0.198169
v -0.903176 -0.019719 -0.196668
v -0.925209 -0.031309 -0.194422
v 0.859980 -0.011634 -0.246696
v 0.944507 -0.047362 -0.239824
v 0.881760 -0.014354 -0.246173
v 0.905472 -0.022099 -0.244683
v 0.927506 -0.033690 -0.242454
v 0.857685 -0.009255 -0.092248
v 0.942209 -0.044980 -0.099171
v 0.879465 -0.011974 -0.092775
v 0.903176 -0.019719 -0.094276
v 0.925209 -0.031309 -0.096522
v -0.859980 -0.011634 -0.044248
v -0.944507 -0.047362 -0.051120
v -0.881760 -0.014354 -0.044771
v -0.905472 -0.022099 -0.046261
v -0.927506 -0.033690 -0.048490
v 0.937920 -0.063066 -0.239721
v 0.853519 -0.027231 -0.246696
v 0.920967 -0.049353 -0.242390
v 0.898974 -0.037727 -0.244653
v 0.875289 -0.029959 -0.246165
v -0.935594 -0.060640 -0.191657
v -0.851197 -0.024808 -0.198696
v -0.918643 -0.046927 -0.194351
v -0.896651 -0.035303 -0.196634
v -0.872967 -0.027535 -0.198160
v -0.851197 -0.024808 -0.092248
v -0.935594 -0.060640 -0.099287
v -0.872967 -0.027535 -0.092784
v -0.896651 -0.035303 -0.094310
v -0.918643 -0.046927 -0.096593
v 0.935594 -0.060640 -0.099287
v 0.851197 -0.024808 -0.092248
v 0.918643 -0.046927 -0.096593
v 0.896651 -0.035303 -0.094310
v 0.872967 -0.027535 -0.092784
v -0.625000 -0.024808 0.213659
v 0.625000 -0.024808 0.213657
v 0.625000 -0.024808 0.107210
v -0.625000 -0.024808 0.107212
v -0.625000 -0.024808 -0.092248
v 0.625000 -0.024808 -0.092250
v 0.625000 -0.024808 -0.198698
v -0.625000 -0.024808 -0.198696
v -0.625000 -0.027231 0.261659
v -0.609999 -0.027231 0.261659
v 0.609999 -0.027231 0.261659
v 0.625000 -0.027231 0.261659
v 0.625000 -0.027231 0.059212
v 0.609999 -0.027231 0.059212
v -0.609999 -0.027231 0.059212
v -0.625000 -0.027231 0.059212
v -0.625000 -0.027231 -0.044248
v -0.609999 -0.027231 -0.044248
v 0.609999 -0.027231 -0.044248
v 0.625000 -0.027231 -0.044248
v 0.625000 -0.027231 -0.246696
v 0.609999 -0.027231 -0.246696
v -0.609999 -0.027231 -0.246696
v -0.625000 -0.027231 -0.246696
v 0.609999 -0.100643 -0.198698
v -0.609999 -0.100643 -0.092248
v 0.609999 -0.100643 0.107210
v -0.609999 -0.100643 0.213659
v -0.625000 -0.100643 0.213659
v 0.609999 -0.100643 0.213658
v 0.625000 -0.100643 0.213657
v 0.625000 -0.100643 0.107210
v -0.609999 -0.100643 0.107212
v -0.625000 -0.100643 0.107212
v -0.625000 -0.100643 -0.092248
v 0.609999 -0.100643 -0.092250
v 0.625000 -0.100643 -0.092250
v 0.625000 -0.100643 -0.198698
v -0.609999 -0.100643 -0.198696
v -0.625000 -0.100643 -0.198696
v 0.625000 -0.100640 0.059212
v 0.609999 -0.100640 0.059212
v -0.609999 -0.100640 0.059212
v -0.625000 -0.100640 0.059212
v -0.625000 -0.100640 -0.044248
v -0.609999 -0.100640 -0.044248
v 0.609999 -0.100640 -0.044248
v 0.625000 -0.100640 -0.044248
v -0.500000 -0.024808 -0.092249
v -0.484999 -0.024808 -0.092249
v 0.484999 -0.024808 -0.092249
v 0.499999 -0.024808 -0.092249
v 0.499999 -0.024808 -0.198697
v 0.484999 -0.024808 -0.198696
v -0.484999 -0.024808 -0.198696
v -0.500000 -0.024808 -0.198696
v -0.500000 -0.024808 0.213659
v -0.484999 -0.024808 0.213659
v 0.484999 -0.024808 0.213659
v 0.499999 -0.024808 0.213659
v 0.499999 -0.024808 0.107211
v 0.484999 -0.024808 0.107211
v -0.484999 -0.024808 0.107212
v -0.500000 -0.024808 0.107212
v -0.500000 -0.027231 0.261658
v -0.484999 -0.027231 0.261658
v 0.484999 -0.027231 0.261661
v 0.499999 -0.027231 0.261659
v 0.499999 -0.027231 0.059212
v 0.484999 -0.027231 0.059214
v -0.484999 -0.027231 0.059210
v -0.500000 -0.027231 0.059210
v -0.500000 -0.027231 -0.044250
v -0.484999 -0.027231 -0.044250
v 0.484999 -0.027231 -0.044246
v 0.499999 -0.027231 -0.044248
v 0.499999 -0.027231 -0.246696
v 0.484999 -0.027231 -0.246696
v -0.484999 -0.027231 -0.246698
v -0.500000 -0.027231 -0.246698
v -0.500000 -0.100643 -0.092249
v -0.484999 -0.100643 -0.092249
v 0.484999 -0.100643 -0.092249
v 0.499999 -0.100643 -0.092249
v 0.499999 -0.100643 -0.198697
v 0.484999 -0.100643 -0.198696
v -0.484999 -0.100643 -0.198696
v -0.500000 -0.100643 -0.198696
v -0.500000 -0.100643 0.213659
v -0.484999 -0.100643 0.213659
v 0.484999 -0.100643 0.213659
v 0.499999 -0.100643 0.213659
v 0.499999 -0.100643 0.107211
v 0.484999 -0.100643 0.107211
v -0.484999 -0.100643 0.107212
v -0.500000 -0.100643 0.107212
v 0.499999 -0.100643 0.059212
v 0.484999 -0.100643 0.059214
v -0.484999 -0.100643 0.059210
v -0.500000 -0.100643 0.059210
v -0.500000 -0.100643 -0.044250
v -0.484999 -0.100643 -0.044250
v 0.484999 -0.100643 -0.044246
v 0.499999 -0.100643 -0.044248
v -0.625000 -0.180935 0.211659
v -0.625000 -0.130935 0.261659
v -0.625000 -0.174236 0.236659
v -0.625000 -0.155935 0.254961
v -0.609999 -0.130935 0.261659
v -0.609999 -0.180935 0.211659
v -0.609999 -0.155935 0.254961
v -0.609999 -0.174236 0.236659
v 0.609999 -0.180935 0.211659
v 0.609999 -0.130935 0.261659
v 0.609999 -0.174236 0.236659
v 0.609999 -0.155935 0.254961
v 0.625000 -0.130935 0.261659
v 0.625000 -0.180935 0.211659
v 0.625000 -0.155935 0.254961
v 0.625000 -0.174236 0.236659
v 0.625000 -0.180935 -0.196696
v 0.625000 -0.130935 -0.246696
v 0.625000 -0.174236 -0.221696
v 0.625000 -0.155935 -0.239997
v 0.609999 -0.130935 -0.246696
v 0.609999 -0.180935 -0.196696
v 0.609999 -0.155935 -0.239997
v 0.609999 -0.174236 -0.221696
v -0.609999 -0.180935 -0.196696
v -0.609999 -0.130935 -0.246696
v -0.609999 -0.174236 -0.221696
v -0.609999 -0.155935 -0.239997
v -0.625000 -0.130935 -0.246696
v -0.625000 -0.180935 -0.196696
v -0.625000 -0.155935 -0.239997
v -0.625000 -0.174236 -0.221696
v -0.500000 -0.180938 0.211658
v -0.500000 -0.130938 0.261658
v -0.500000 -0.174240 0.236658
v -0.500000 -0.155938 0.254959
v -0.484999 -0.130938 0.261658
v -0.484999 -0.180938 0.211658
v -0.484999 -0.155938 0.254959
v -0.484999 -0.174240 0.236658
v 0.484999 -0.180938 0.211661
v 0.484999 -0.130938 0.261661
v 0.484999 -0.174240 0.236661
v 0.484999 -0.155938 0.254963
v 0.499999 -0.130938 0.261659
v 0.499999 -0.180938 0.211659
v 0.499999 -0.155938 0.254961
v 0.499999 -0.174240 0.236659
v 0.499999 -0.180938 -0.196696
v 0.499999 -0.130938 -0.246696
v 0.499999 -0.174240 -0.221696
v 0.499999 -0.155938 -0.239997
v 0.484999 -0.130938 -0.246696
v 0.484999 -0.180938 -0.196696
v 0.484999 -0.155938 -0.239997
v 0.484999 -0.174240 -0.221696
v -0.484999 -0.180938 -0.196698
v -0.484999 -0.130938 -0.246698
v -0.484999 -0.174240 -0.221698
v -0.484999 -0.155938 -0.239999
v -0.500000 -0.130938 -0.246698
v -0.500000 -0.180938 -0.196698
v -0.500000 -0.155938 -0.239999
v -0.500000 -0.174240 -0.221698
v 0.609999 -0.100643 -0.127733
v 0.609999 -0.100643 -0.163215
v -0.500000 -0.100643 -0.127731
v -0.500000 -0.100643 -0.163213
v -0.609999 -0.100643 0.178177
v -0.609999 -0.100643 0.142694
v -0.625000 -0.100643 0.142694
v -0.625000 -0.100643 0.178177
v 0.625000 -0.100643 -0.163215
v 0.625000 -0.100643 -0.127733
v 0.484999 -0.100643 0.178176
v 0.484999 -0.100643 0.142694
v -0.609999 -0.100643 -0.127731
v -0.609999 -0.100643 -0.163213
v -0.625000 -0.100643 -0.163213
v -0.625000 -0.100643 -0.127731
v 0.625000 -0.100643 0.142693
v 0.625000 -0.100643 0.178175
v 0.499999 -0.100643 0.142694
v 0.499999 -0.100643 0.178176
v 0.609999 -0.100643 0.142693
v 0.609999 -0.100643 0.178175
v 0.484999 -0.100643 -0.127731
v 0.484999 -0.100643 -0.163214
v -0.500000 -0.100643 0.178177
v -0.500000 -0.100643 0.142694
v 0.499999 -0.100643 -0.163214
v 0.499999 -0.100643 -0.127732
v -0.484999 -0.100643 -0.127731
v -0.484999 -0.100643 -0.163214
v -0.484999 -0.100643 0.142694
v -0.484999 -0.100643 0.178177
v 0.609999 -0.074934 -0.131714
v 0.609999 -0.074934 -0.159234
v -0.500000 -0.074934 -0.131712
v -0.500000 -0.074934 -0.159232
v -0.609999 -0.074934 0.174196
v -0.609999 -0.074934 0.146676
v -0.625000 -0.074934 0.146676
v -0.625000 -0.074934 0.174196
v 0.625000 -0.074934 -0.159234
v 0.625000 -0.074934 -0.131714
v 0.484999 -0.074934 0.174195
v 0.484999 -0.074934 0.146675
v -0.609999 -0.074934 -0.131712
v -0.609999 -0.074934 -0.159232
v -0.625000 -0.074934 -0.159232
v -0.625000 -0.074934 -0.131712
v 0.625000 -0.074934 0.146674
v 0.625000 -0.074934 0.174194
v 0.499999 -0.074934 0.146675
v 0.499999 -0.074934 0.174195
v 0.609999 -0.074934 0.146674
v 0.609999 -0.074934 0.174194
v 0.484999 -0.074934 -0.131713
v 0.484999 -0.074934 -0.159233
v -0.500000 -0.074934 0.174196
v -0.500000 -0.074934 0.146675
v 0.499999 -0.074934 -0.159233
v 0.499999 -0.074934 -0.131713
v -0.484999 -0.074934 -0.131712
v -0.484999 -0.074934 -0.159232
v -0.484999 -0.074934 0.146675
v -0.484999 -0.074934 0.174195
vn -0.0820 -0.9966 -0.0000
vn -0.0930 0.9957 -0.0000
vn -0.0000 -0.0000 1.0000
vn -0.0000 -0.0000 -1.0000
vn -0.0000 1.0000 -0.0000
vn 0.0930 0.9957 -0.0000
vn -0.7197 0.6943 -0.0000
vn 0.7220 -0.6919 -0.0000
vn -0.1882 -0.1836 0.9648
vn -0.4122 -0.4091 0.8141
vn -0.4146 -0.4127 0.8111
vn -0.6261 -0.6253 0.4658
vn -0.6268 -0.6265 0.4632
vn -0.7016 -0.7015 0.1251
vn -0.7016 -0.7016 0.1247
vn -0.1882 -0.1836 -0.9648
vn -0.4122 -0.4091 -0.8141
vn -0.1867 -0.1805 -0.9657
vn -0.4146 -0.4127 -0.8111
vn -0.6261 -0.6253 -0.4658
vn -0.6268 -0.6265 -0.4632
vn -0.7016 -0.7015 -0.1251
vn 0.7016 -0.7015 -0.1251
vn 0.6268 -0.6265 -0.4632
vn 0.6261 -0.6253 -0.4658
vn 0.4146 -0.4127 -0.8111
vn 0.4122 -0.4091 -0.8141
vn 0.1882 -0.1836 -0.9648
vn 0.1867 -0.1805 -0.9657
vn 0.1882 -0.1836 0.9648
vn 0.4122 -0.4091 0.8141
vn 0.1867 -0.1805 0.9657
vn 0.4146 -0.4127 0.8111
vn 0.6261 -0.6253 0.4658
vn 0.6268 -0.6265 0.4632
vn 0.7016 -0.7015 0.1251
vn -0.7016 -0.7016 -0.1247
vn 0.7016 -0.7016 0.1247
vn 0.7016 -0.7016 -0.1247
vn -0.7220 -0.6919 -0.0000
vn 0.1213 0.0578 -0.9909
vn 0.0995 0.0471 -0.9939
vn 0.1255 0.0611 -0.9902
vn -0.1689 0.1630 0.9721
vn -0.3829 0.3780 0.8430
vn -0.1672 0.1590 0.9730
vn -0.3878 0.3853 0.8373
vn -0.7091 0.7051 -0.0000
vn -0.3878 0.3853 -0.8373
vn -0.3828 0.3780 -0.8430
vn -0.1689 0.1630 -0.9721
vn -0.1672 0.1590 -0.9730
vn 0.0995 0.0471 0.9939
vn 0.1213 0.0578 0.9909
vn 0.1255 0.0611 0.9902
vn 0.1689 0.1630 -0.9721
vn 0.3829 0.3780 -0.8430
vn 0.1672 0.1590 -0.9730
vn 0.3878 0.3853 -0.8373
vn 0.7091 0.7051 -0.0000
vn 0.3878 0.3853 0.8373
vn 0.3828 0.3780 0.8430
vn 0.1689 0.1630 0.9721
vn 0.1672 0.1590 0.9730
vn -0.0995 0.0471 -0.9939
vn -0.1213 0.0578 -0.9909
vn -0.1255 0.0611 -0.9902
vn 0.0954 -0.0434 -0.9945
vn 0.0686 -0.0306 -0.9972
vn 0.0682 -0.0303 -0.9972
vn -0.1204 -0.0564 0.9911
vn -0.0991 -0.0460 0.9940
vn -0.0954 -0.0434 0.9945
vn 0.0414 0.0182 -0.9990
vn 0.0690 0.0312 -0.9971
vn 0.0686 0.0309 -0.9972
vn -0.0142 0.0060 0.9999
vn -0.0380 0.0163 0.9991
vn -0.0414 0.0182 0.9990
vn 0.1204 -0.0564 0.9911
vn 0.0991 -0.0460 0.9940
vn 0.1243 -0.0594 0.9905
vn -0.0142 0.0061 -0.9999
vn -0.0380 0.0163 -0.9991
vn -0.0093 0.0039 -0.9999
vn 0.0686 -0.0306 0.9972
vn 0.0954 -0.0434 0.9945
vn 0.0682 -0.0303 0.9972
vn -0.0991 -0.0461 0.9940
vn -0.6731 0.7395 -0.0045
vn -0.5518 0.8338 -0.0149
vn -0.5479 0.8364 -0.0153
vn -0.3916 0.9197 -0.0269
vn -0.3905 0.9202 -0.0269
vn -0.2204 0.9747 -0.0378
vn -0.2186 0.9751 -0.0379
vn -0.0641 0.9969 -0.0463
vn 0.6731 0.7395 -0.0045
vn 0.5518 0.8338 -0.0149
vn 0.6767 0.7362 -0.0041
vn 0.5479 0.8364 -0.0153
vn 0.3916 0.9197 -0.0269
vn 0.2204 0.9747 -0.0378
vn 0.2186 0.9751 -0.0379
vn 0.0641 0.9969 -0.0463
vn 0.0610 0.9971 -0.0465
vn 0.6731 0.7395 0.0045
vn 0.5518 0.8338 0.0149
vn 0.5479 0.8364 0.0153
vn 0.3916 0.9197 0.0269
vn 0.3905 0.9202 0.0269
vn 0.2204 0.9747 0.0378
vn 0.2186 0.9751 0.0379
vn 0.0641 0.9969 0.0463
vn -0.6731 0.7395 0.0045
vn -0.5518 0.8338 0.0149
vn -0.6767 0.7362 0.0041
vn -0.5479 0.8364 0.0153
vn -0.3916 0.9197 0.0269
vn -0.2204 0.9747 0.0378
vn -0.2186 0.9751 0.0379
vn -0.0641 0.9969 0.0463
vn -0.0610 0.9971 0.0465
vn -0.6754 -0.7375 0.0046
vn -0.5539 -0.8324 0.0152
vn -0.5499 -0.8351 0.0156
vn -0.3932 -0.9190 0.0274
vn -0.3920 -0.9196 0.0275
vn -0.2213 -0.9745 0.0385
vn -0.2194 -0.9749 0.0386
vn -0.0643 -0.9968 0.0472
vn 0.6754 -0.7375 0.0046
vn 0.5539 -0.8324 0.0152
vn 0.6790 -0.7341 0.0042
vn 0.5499 -0.8351 0.0156
vn 0.3932 -0.9190 0.0274
vn 0.2213 -0.9745 0.0385
vn 0.2194 -0.9749 0.0386
vn 0.0643 -0.9968 0.0472
vn 0.0612 -0.9970 0.0474
vn 0.6754 -0.7375 -0.0046
vn 0.5539 -0.8324 -0.0152
vn 0.5499 -0.8351 -0.0156
vn 0.3932 -0.9190 -0.0274
vn 0.3920 -0.9196 -0.0275
vn 0.2213 -0.9745 -0.0385
vn 0.2194 -0.9749 -0.0386
vn 0.0643 -0.9968 -0.0472
vn -0.6754 -0.7375 -0.0046
vn -0.5539 -0.8324 -0.0152
vn -0.6790 -0.7341 -0.0042
vn -0.5499 -0.8351 -0.0156
vn -0.3932 -0.9190 -0.0274
vn -0.2213 -0.9745 -0.0385
vn -0.2194 -0.9749 -0.0386
vn -0.0643 -0.9968 -0.0472
vn -0.0612 -0.9970 -0.0474
vn -0.0000 0.9988 0.0495
vn -0.0000 0.9988 -0.0495
vn -0.0690 0.0312 0.9971
vn -0.0958 0.0443 0.9944
vn -0.0686 0.0309 0.9972
vn 0.1243 -0.0594 -0.9905
vn 0.1204 -0.0564 -0.9911
vn -0.1204 -0.0564 -0.9911
vn -0.0991 -0.0461 -0.9940
vn -0.1243 -0.0594 -0.9905
vn -0.0958 0.0443 -0.9944
vn -0.0690 0.0312 -0.9971
vn -0.0686 0.0309 -0.9972
vn -0.0686 -0.0306 0.9972
vn -0.0410 -0.0178 0.9990
vn -0.0682 -0.0303 0.9972
vn 0.0820 -0.9966 -0.0000
vn 0.7197 0.6943 -0.0000
vn -0.1255 0.0611 0.9902
vn -0.1213 0.0578 0.9909
vn -0.0686 -0.0306 -0.9972
vn -0.0954 -0.0434 -0.9945
vn -0.0682 -0.0303 -0.9972
vn -0.0000 -0.0001 1.0000
vn 0.0958 0.0443 0.9944
vn 0.0690 0.0312 0.9971
vn 0.0686 0.0309 0.9972
vn 0.0140 -0.0059 0.9999
vn 0.0377 -0.0160 0.9992
vn 0.0410 -0.0178 0.9990
vn -0.0000 0.0001 -1.0000
vn 0.0991 -0.0461 0.9940
vn -0.0001 0.0019 -1.0000
vn -0.0001 -0.0000 -1.0000
vn -0.0000 -0.0001 -1.0000
vn -1.0000 -0.0000 -0.0000
vn 1.0000 -0.0000 -0.0000
vn 0.0612 -0.9970 -0.0474
vn -0.0000 -0.9987 -0.0504
vn -0.0000 -0.9987 0.0504
vn -0.0000 -0.9999 0.0168
vn -0.0000 -0.9999 -0.0168
vn -0.0000 -0.9997 0.0252
vn -0.0612 -0.9970 0.0474
vn -0.0000 -0.9997 -0.0252
vn -0.0000 -0.1305 -0.9914
vn -0.0000 -0.5000 -0.8660
vn -0.0000 -0.8660 -0.5000
vn -0.0000 -0.9914 -0.1305
vn -0.0000 -0.9914 0.1305
vn 0.0001 -0.8660 0.5000
vn 0.0001 -0.5000 0.8660
vn 0.0001 -0.1305 0.9914
vn -0.0000 -0.1305 0.9914
vn -0.0000 -0.5000 0.8660
vn -0.0000 -0.8660 0.5000
vn 0.0140 -0.0059 -0.9999
vn 0.0377 -0.0160 -0.9992
vn 0.0092 -0.0038 -0.9999
vn -0.0000 0.1530 0.9882
vn -0.0000 0.1530 -0.9882
vn -0.7393 0.1031 -0.6655
vn -0.6699 0.1136 -0.7337
vn -0.0000 -0.0002 -1.0000
vn 0.0001 -0.0019 1.0000
vn 0.0142 0.0060 -0.9999
vn 0.0380 0.0163 -0.9991
vn 0.0093 0.0039 0.9999
vn -0.0000 0.0002 1.0000
vn -0.0140 -0.0059 -0.9999
vn -0.0377 -0.0160 -0.9992
vn -0.0410 -0.0178 -0.9990
vn 0.0410 -0.0178 -0.9990
vn 0.0991 -0.0461 -0.9940
vn -0.0995 0.0471 0.9939
vn -0.0142 0.0060 -0.9999
vn -0.0414 0.0182 -0.9990
vn -0.0140 -0.0059 0.9999
vn -0.0377 -0.0160 0.9992
vn -0.0092 -0.0038 0.9999
vn -0.0000 0.0001 1.0000
vn 0.0001 -0.0000 1.0000
vn 0.0958 0.0443 -0.9944
vn 0.0380 0.0163 0.9991
vn 0.0142 0.0060 0.9999
vn 0.0414 0.0182 0.9990
vn -0.1867 -0.1805 0.9657
vn -0.1243 -0.0594 0.9905
vn 0.0142 0.0061 0.9999
vn -0.6767 0.7362 -0.0041
vn 0.6790 -0.7341 -0.0042
vn -0.6790 -0.7341 0.0042
vn -0.7076 0.7066 -0.0000
vn 0.7076 0.7066 -0.0000
vn -0.0093 0.0039 0.9999
vn -0.0610 0.9971 -0.0465
vn 0.3905 0.9202 -0.0269
vn 0.6767 0.7362 0.0041
vn 0.0610 0.9971 0.0465
vn -0.3905 0.9202 0.0269
vn 0.3920 -0.9196 0.0275
vn -0.3920 -0.9196 -0.0275
vn 0.0092 -0.0038 0.9999
vn 0.0093 0.0039 -0.9999
vn -0.0092 -0.0038 -0.9999
vt 0.174994 0.278516
vt 0.158668 0.307617
vt 0.158668 0.278516
vt 0.202476 0.278516
vt 0.186150 0.263250
vt 0.202476 0.263250
vt 0.184730 0.033325
vt 0.184730 0.278449
vt 0.203896 0.278449
vt 0.202476 0.048524
vt 0.203896 0.033325
vt 0.202476 0.307617
vt 0.186150 0.278516
vt 0.186150 0.048524
vt 0.186150 0.033259
vt 0.202476 0.033259
vt 0.053871 0.401708
vt 0.060252 0.410382
vt 0.053519 0.402777
vt 0.823265 0.612569
vt 0.816912 0.603877
vt 0.823632 0.611496
vt 0.043655 0.411394
vt 0.046957 0.412665
vt 0.044580 0.413681
vt 0.045279 0.414631
vt 0.048874 0.414336
vt 0.047194 0.416308
vt 0.048241 0.416848
vt 0.051262 0.414949
vt 0.050629 0.417463
vt 0.062623 0.411394
vt 0.059320 0.412665
vt 0.060998 0.414631
vt 0.057403 0.414336
vt 0.058037 0.416848
vt 0.055015 0.414949
vt 0.055014 0.006641
vt 0.058036 0.004742
vt 0.057402 0.007253
vt 0.060997 0.006959
vt 0.059319 0.008925
vt 0.062622 0.010196
vt 0.060251 0.011207
vt 0.043654 0.010196
vt 0.046956 0.008925
vt 0.046024 0.011207
vt 0.045278 0.006959
vt 0.048873 0.007253
vt 0.048240 0.004742
vt 0.051261 0.006641
vt 0.055015 0.417543
vt 0.051262 0.417543
vt 0.051261 0.004047
vt 0.055014 0.004047
vt 0.872554 0.873277
vt 0.871481 0.872910
vt 0.880173 0.866557
vt 0.744663 0.406546
vt 0.741903 0.408932
vt 0.742242 0.405579
vt 0.088240 0.787283
vt 0.089379 0.789807
vt 0.088246 0.789828
vt 0.089374 0.787258
vt 0.089912 0.789800
vt 0.090450 0.787258
vt 0.090445 0.789807
vt 0.091583 0.787283
vt 0.091577 0.789828
vt 0.741903 0.309886
vt 0.744663 0.312271
vt 0.742242 0.313238
vt 0.741185 0.361080
vt 0.743709 0.359942
vt 0.743730 0.361074
vt 0.741160 0.359947
vt 0.743702 0.359409
vt 0.741160 0.358871
vt 0.743709 0.358876
vt 0.741185 0.357737
vt 0.743730 0.357743
vt 0.139435 0.788001
vt 0.137049 0.790761
vt 0.136082 0.788340
vt 0.067798 0.067825
vt 0.070680 0.071212
vt 0.068114 0.071659
vt 0.038860 0.357125
vt 0.036065 0.354766
vt 0.038478 0.353764
vt 0.505717 0.628015
vt 0.510114 0.627323
vt 0.509146 0.629727
vt 0.762374 0.279647
vt 0.762722 0.283286
vt 0.760323 0.282318
vt 0.098816 0.402777
vt 0.099168 0.401708
vt 0.105549 0.410382
vt 0.038859 0.064465
vt 0.036064 0.066824
vt 0.036436 0.063463
vt 0.762374 0.400164
vt 0.762722 0.396525
vt 0.764770 0.399196
vt 0.035596 0.071212
vt 0.038477 0.067826
vt 0.038162 0.071659
vt 0.080893 0.071212
vt 0.083775 0.067826
vt 0.083459 0.071659
vt 0.084157 0.357125
vt 0.081362 0.354766
vt 0.083775 0.353764
vt 0.067417 0.357125
vt 0.060428 0.353322
vt 0.067799 0.353764
vt 0.060745 0.349514
vt 0.068115 0.349931
vt 0.068322 0.346092
vt 0.060952 0.345698
vt 0.068396 0.342713
vt 0.067417 0.064464
vt 0.060427 0.068268
vt 0.060044 0.064931
vt 0.060744 0.072076
vt 0.068321 0.075498
vt 0.060951 0.075891
vt 0.068396 0.078877
vt 0.061025 0.079246
vt 0.045849 0.068268
vt 0.045532 0.072076
vt 0.037955 0.075498
vt 0.045325 0.075891
vt 0.037880 0.078877
vt 0.045849 0.353322
vt 0.046232 0.356659
vt 0.045533 0.349514
vt 0.037955 0.346092
vt 0.045325 0.345698
vt 0.037881 0.342713
vt 0.045251 0.342344
vt 0.749289 0.544415
vt 0.756246 0.548274
vt 0.748878 0.547759
vt 0.755882 0.552088
vt 0.748517 0.551573
vt 0.748254 0.555394
vt 0.755617 0.555909
vt 0.748120 0.558758
vt 0.838482 0.656114
vt 0.831525 0.659973
vt 0.831110 0.656630
vt 0.838893 0.659458
vt 0.831889 0.663787
vt 0.839517 0.667094
vt 0.832154 0.667608
vt 0.839651 0.670457
vt 0.832289 0.670972
vt 0.809571 0.656114
vt 0.816528 0.659973
vt 0.809160 0.659458
vt 0.816164 0.663787
vt 0.808799 0.663273
vt 0.808536 0.667094
vt 0.815899 0.667608
vt 0.808402 0.670457
vt 0.778200 0.544415
vt 0.771243 0.548274
vt 0.770828 0.544930
vt 0.778611 0.547759
vt 0.771607 0.552088
vt 0.779235 0.555394
vt 0.771872 0.555909
vt 0.779369 0.558758
vt 0.772007 0.559272
vt 0.045246 0.088221
vt 0.045246 0.333369
vt 0.061031 0.333369
vt 0.061030 0.088221
vt 0.458681 0.082338
vt 0.460982 0.093969
vt 0.458681 0.093969
vt 0.458681 0.140847
vt 0.460982 0.152479
vt 0.458681 0.152479
vt 0.036721 0.786894
vt 0.039422 0.790413
vt 0.035753 0.789298
vt 0.069662 0.063129
vt 0.112714 0.357125
vt 0.115509 0.354765
vt 0.115137 0.358126
vt 0.140402 0.790413
vt 0.143103 0.786894
vt 0.144070 0.789298
vt 0.757496 0.390396
vt 0.761015 0.393097
vt 0.758611 0.394064
vt 0.035559 0.349868
vt 0.038162 0.349931
vt 0.158668 0.263250
vt 0.174994 0.263250
vt 0.157248 0.033325
vt 0.157248 0.278449
vt 0.176414 0.278449
vt 0.174994 0.048524
vt 0.176414 0.033325
vt 0.186150 0.004158
vt 0.158668 0.048524
vt 0.158668 0.033259
vt 0.174994 0.033259
vt 0.763350 0.499797
vt 0.762983 0.500870
vt 0.756630 0.492178
vt 0.260441 0.845696
vt 0.261514 0.846064
vt 0.252822 0.852417
vt 0.053138 0.018453
vt 0.105548 0.011207
vt 0.099167 0.019882
vt 0.098816 0.018813
vt 0.088952 0.411394
vt 0.092254 0.412665
vt 0.089877 0.413681
vt 0.090576 0.414631
vt 0.094171 0.414336
vt 0.092491 0.416308
vt 0.093538 0.416848
vt 0.096559 0.414949
vt 0.095926 0.417463
vt 0.107920 0.411394
vt 0.104617 0.412665
vt 0.106295 0.414631
vt 0.102700 0.414336
vt 0.103334 0.416848
vt 0.100312 0.414949
vt 0.100311 0.006641
vt 0.103333 0.004742
vt 0.102699 0.007253
vt 0.106294 0.006959
vt 0.104616 0.008925
vt 0.107919 0.010196
vt 0.088951 0.010196
vt 0.092254 0.008925
vt 0.091321 0.011207
vt 0.090575 0.006959
vt 0.094170 0.007253
vt 0.093537 0.004742
vt 0.096558 0.006641
vt 0.100312 0.417543
vt 0.096559 0.417543
vt 0.096558 0.004047
vt 0.100311 0.004047
vt 0.759908 0.389429
vt 0.757148 0.387043
vt 0.759569 0.386076
vt 0.760626 0.338234
vt 0.758102 0.339373
vt 0.758081 0.338240
vt 0.760651 0.339368
vt 0.758109 0.339906
vt 0.760651 0.340444
vt 0.758102 0.340439
vt 0.760626 0.341577
vt 0.758081 0.341571
vt 0.516167 0.631191
vt 0.513782 0.628430
vt 0.517134 0.628769
vt 0.612828 0.628430
vt 0.610442 0.631191
vt 0.609475 0.628769
vt 0.561633 0.627712
vt 0.562771 0.630236
vt 0.561639 0.630258
vt 0.562767 0.627688
vt 0.563305 0.630229
vt 0.563843 0.627688
vt 0.563838 0.630236
vt 0.564976 0.627712
vt 0.564970 0.630258
vt 0.043741 0.788340
vt 0.042774 0.790761
vt 0.070680 0.350377
vt 0.514172 0.224142
vt 0.511871 0.212511
vt 0.514172 0.212511
vt 0.115977 0.350377
vt 0.113096 0.353764
vt 0.113412 0.349931
vt 0.744314 0.308919
vt 0.740796 0.306218
vt 0.743200 0.305250
vt 0.083177 0.078877
vt 0.080730 0.076133
vt 0.083252 0.075498
vt 0.070212 0.354765
vt 0.069840 0.358126
vt 0.460982 0.117762
vt 0.458681 0.106130
vt 0.460982 0.106130
vt 0.080856 0.349868
vt 0.083252 0.346092
vt 0.083459 0.349931
vt 0.511871 0.247228
vt 0.514172 0.258859
vt 0.511871 0.258859
vt 0.613795 0.630842
vt 0.616496 0.627323
vt 0.617463 0.629727
vt 0.084156 0.064465
vt 0.081361 0.066824
vt 0.081734 0.063463
vt 0.105725 0.353322
vt 0.106042 0.349514
vt 0.113619 0.346092
vt 0.106249 0.345698
vt 0.113694 0.342713
vt 0.112714 0.064465
vt 0.105724 0.068268
vt 0.105341 0.064931
vt 0.113095 0.067826
vt 0.106041 0.072076
vt 0.113618 0.075498
vt 0.106248 0.075891
vt 0.113693 0.078877
vt 0.106322 0.079246
vt 0.091146 0.068268
vt 0.090829 0.072076
vt 0.090622 0.075891
vt 0.091146 0.353322
vt 0.091530 0.356659
vt 0.090830 0.349514
vt 0.090622 0.345698
vt 0.083178 0.342713
vt 0.090549 0.342344
vt 0.827936 0.859215
vt 0.824077 0.866172
vt 0.824592 0.858804
vt 0.820263 0.865809
vt 0.820778 0.858444
vt 0.816957 0.858180
vt 0.816442 0.865543
vt 0.813593 0.858046
vt 0.305059 0.830847
vt 0.308918 0.837804
vt 0.305574 0.838219
vt 0.308403 0.830436
vt 0.312732 0.837440
vt 0.316038 0.829812
vt 0.316553 0.837175
vt 0.319402 0.829678
vt 0.319916 0.837040
vt 0.305059 0.859758
vt 0.308918 0.852801
vt 0.308403 0.860169
vt 0.312732 0.853165
vt 0.312217 0.860530
vt 0.316038 0.860793
vt 0.316553 0.853430
vt 0.319402 0.860927
vt 0.827936 0.888126
vt 0.824077 0.881170
vt 0.827421 0.880755
vt 0.824592 0.888538
vt 0.820263 0.881533
vt 0.816957 0.889161
vt 0.816442 0.881799
vt 0.813593 0.889295
vt 0.813079 0.881933
vt 0.090543 0.088221
vt 0.090543 0.333369
vt 0.106328 0.333369
vt 0.106327 0.088221
vt 0.026067 0.056736
vt 0.028368 0.045477
vt 0.028368 0.056736
vt 0.761015 0.286715
vt 0.757496 0.289416
vt 0.758611 0.285747
vt 0.114959 0.063129
vt 0.741487 0.416996
vt 0.740796 0.412600
vt 0.743200 0.413567
vt 0.460982 0.059252
vt 0.458681 0.047621
vt 0.460982 0.047621
vt 0.759569 0.293735
vt 0.757148 0.292768
vt 0.115977 0.071212
vt 0.113411 0.071659
vt 0.804767 0.794528
vt 0.816027 0.801890
vt 0.804395 0.801890
vt 0.198797 0.847126
vt 0.206159 0.835866
vt 0.206159 0.847498
vt 0.854218 0.794528
vt 0.842958 0.801890
vt 0.842958 0.794528
vt 0.407791 0.435910
vt 0.405491 0.447541
vt 0.405491 0.435910
vt 0.405491 0.470627
vt 0.407792 0.482258
vt 0.405491 0.482258
vt 0.969963 0.298005
vt 0.958332 0.295704
vt 0.969963 0.295704
vt 0.975975 0.130241
vt 0.987607 0.127940
vt 0.987607 0.130241
vt 0.426767 0.362473
vt 0.429068 0.374105
vt 0.426767 0.374105
vt 0.429068 0.327756
vt 0.426767 0.339388
vt 0.426767 0.327756
vt 0.458681 0.199357
vt 0.460982 0.210988
vt 0.458681 0.210988
vt 0.460982 0.164640
vt 0.458681 0.176271
vt 0.458681 0.164640
vt 0.815764 0.670972
vt 0.807648 0.705498
vt 0.840406 0.705498
vt 0.319916 0.853565
vt 0.354443 0.861682
vt 0.354443 0.828924
vt 0.011786 0.136398
vt 0.028115 0.136398
vt 0.028116 0.285192
vt 0.011787 0.304366
vt 0.004415 0.304367
vt 0.004415 0.287493
vt 0.011787 0.285192
vt 0.004414 0.136398
vt 0.011786 0.117223
vt 0.004414 0.134097
vt 0.004414 0.117224
vt 0.780123 0.593799
vt 0.755482 0.559272
vt 0.747365 0.593799
vt 0.778552 0.890050
vt 0.813079 0.865409
vt 0.778552 0.857292
vt 0.139786 0.117223
vt 0.147159 0.117223
vt 0.147159 0.134097
vt 0.147159 0.136398
vt 0.139787 0.285192
vt 0.139787 0.136398
vt 0.123459 0.285192
vt 0.123458 0.136398
vt 0.139787 0.304366
vt 0.147159 0.287493
vt 0.147160 0.304366
vt 0.026067 0.045477
vt 0.028366 0.029608
vt 0.026595 0.391302
vt 0.024294 0.407171
vt 0.024294 0.391302
vt 0.554424 0.398306
vt 0.556724 0.382437
vt 0.556724 0.398306
vt 0.411338 0.339885
vt 0.409037 0.355753
vt 0.409037 0.339885
vt 0.460982 0.259639
vt 0.458681 0.254197
vt 0.460982 0.254197
vt 0.970533 0.127940
vt 0.970533 0.130241
vt 0.407792 0.465185
vt 0.405491 0.465185
vt 0.458681 0.059252
vt 0.460982 0.064695
vt 0.458681 0.064695
vt 0.460982 0.140847
vt 0.458681 0.135405
vt 0.460982 0.135405
vt 0.511871 0.229584
vt 0.514172 0.229584
vt 0.426767 0.344830
vt 0.429068 0.339388
vt 0.429068 0.344830
vt 0.458681 0.181713
vt 0.460982 0.176271
vt 0.460982 0.181713
vt 0.234088 0.823551
vt 0.230118 0.821250
vt 0.234088 0.821250
vt 0.230118 0.823551
vt 0.226148 0.821250
vt 0.226148 0.823551
vt 0.222179 0.821250
vt 0.159547 0.821250
vt 0.155577 0.823551
vt 0.155577 0.821250
vt 0.151608 0.823551
vt 0.151607 0.821250
vt 0.147638 0.823551
vt 0.147638 0.821251
vt 0.594009 0.830643
vt 0.590039 0.828343
vt 0.594009 0.828343
vt 0.590039 0.830643
vt 0.586070 0.828343
vt 0.586070 0.830643
vt 0.582100 0.828343
vt 0.519468 0.830643
vt 0.515498 0.828343
vt 0.519468 0.828343
vt 0.515498 0.830643
vt 0.511529 0.828343
vt 0.511529 0.830643
vt 0.507559 0.828343
vt 0.830643 0.817909
vt 0.828342 0.821879
vt 0.828342 0.817909
vt 0.830643 0.821879
vt 0.828342 0.825849
vt 0.830643 0.825849
vt 0.828342 0.829818
vt 0.828342 0.755277
vt 0.830643 0.751308
vt 0.830643 0.755277
vt 0.828342 0.751308
vt 0.830643 0.747338
vt 0.828342 0.747338
vt 0.830643 0.743369
vt 0.031891 0.834189
vt 0.027921 0.831889
vt 0.031891 0.831889
vt 0.027921 0.834189
vt 0.023952 0.831889
vt 0.023952 0.834189
vt 0.019982 0.831889
vt 0.094523 0.831889
vt 0.098493 0.834189
vt 0.094523 0.834189
vt 0.098493 0.831889
vt 0.102462 0.834189
vt 0.102462 0.831889
vt 0.106432 0.834189
vt 0.083945 0.846504
vt 0.078503 0.846504
vt 0.609914 0.828343
vt 0.609914 0.830643
vt 0.055273 0.808314
vt 0.047911 0.819574
vt 0.047911 0.807943
vt 0.582100 0.830643
vt 0.116140 0.076133
vt 0.116213 0.079511
vt 0.159547 0.823551
vt 0.222179 0.823551
vt 0.071141 0.808314
vt 0.078503 0.819574
vt 0.071141 0.819573
vt 0.055273 0.857764
vt 0.047911 0.846504
vt 0.055273 0.846505
vt 0.071141 0.857764
vt 0.078503 0.858136
vt 0.460982 0.193914
vt 0.460982 0.199357
vt 0.037026 0.819574
vt 0.041858 0.815631
vt 0.042469 0.819574
vt 0.429068 0.357031
vt 0.429068 0.362473
vt 0.458681 0.068685
vt 0.514172 0.241786
vt 0.514172 0.247228
vt 0.458681 0.076896
vt 0.460982 0.072906
vt 0.460982 0.076896
vt 0.458681 0.123204
vt 0.458681 0.117762
vt 0.816027 0.807332
vt 0.812084 0.812164
vt 0.812084 0.807943
vt 0.460982 0.082338
vt 0.170125 0.808935
vt 0.165293 0.804992
vt 0.169514 0.804992
vt 0.407791 0.447541
vt 0.405491 0.452983
vt 0.460982 0.131415
vt 0.460982 0.123204
vt 0.458681 0.127194
vt 0.460982 0.236553
vt 0.458681 0.241995
vt 0.458681 0.236553
vt 0.217043 0.808935
vt 0.212212 0.804992
vt 0.216433 0.804992
vt 0.842958 0.807332
vt 0.854218 0.778659
vt 0.842958 0.771297
vt 0.854590 0.771297
vt 0.458681 0.189924
vt 0.460982 0.185703
vt 0.460982 0.189924
vt 0.426767 0.353041
vt 0.429068 0.348820
vt 0.429068 0.353041
vt 0.511871 0.233575
vt 0.514172 0.237796
vt 0.511871 0.237796
vt 0.460982 0.127194
vt 0.458681 0.131415
vt 0.458681 0.072906
vt 0.460982 0.068685
vt 0.407792 0.456973
vt 0.405491 0.461194
vt 0.405491 0.456973
vt 0.962322 0.127940
vt 0.966543 0.130241
vt 0.962322 0.130241
vt 0.460982 0.250206
vt 0.458681 0.245986
vt 0.460982 0.245986
vt 0.211601 0.835866
vt 0.216433 0.839809
vt 0.212212 0.839809
vt 0.407792 0.452983
vt 0.530045 0.842958
vt 0.525214 0.846901
vt 0.524603 0.842958
vt 0.407792 0.461194
vt 0.037026 0.846504
vt 0.041858 0.850447
vt 0.037637 0.850447
vt 0.842958 0.765855
vt 0.846901 0.761024
vt 0.846901 0.765245
vt 0.958332 0.127940
vt 0.958332 0.130241
vt 0.816027 0.760413
vt 0.812084 0.765245
vt 0.812084 0.761024
vt 0.966543 0.127940
vt 0.571522 0.816028
vt 0.576354 0.812085
vt 0.576964 0.816028
vt 0.458681 0.193914
vt 0.842958 0.812774
vt 0.846901 0.807943
vt 0.846901 0.812164
vt 0.460982 0.241995
vt 0.458681 0.185703
vt 0.083945 0.819574
vt 0.088777 0.815631
vt 0.089387 0.819574
vt 0.164682 0.835866
vt 0.169514 0.839809
vt 0.165293 0.839809
vt 0.426767 0.357031
vt 0.426767 0.348820
vt 0.088777 0.850447
vt 0.084556 0.850447
vt 0.514172 0.233575
vt 0.511871 0.241786
vt 0.576354 0.846901
vt 0.571522 0.842958
vt 0.576964 0.842958
vt 0.524603 0.816028
vt 0.529435 0.812085
vt 0.530045 0.816028
vt 0.026595 0.380043
vt 0.024294 0.380043
vt 0.409037 0.367012
vt 0.411338 0.355753
vt 0.411338 0.367012
vt 0.554424 0.371178
vt 0.556724 0.371178
vt 0.070843 0.076133
vt 0.070916 0.079511
vt 0.828342 0.845725
vt 0.830643 0.829818
vt 0.830643 0.845725
vt 0.131732 0.823553
vt 0.156565 0.779222
vt 0.149202 0.783139
vt 0.173890 0.758764
vt 0.029653 0.785535
vt 0.033292 0.785187
vt 0.032324 0.787586
vt 0.739437 0.419667
vt 0.739089 0.416028
vt 0.733124 0.292756
vt 0.737040 0.300118
vt 0.712666 0.275430
vt 0.122338 0.834189
vt 0.106432 0.831889
vt 0.122338 0.831889
vt 0.035433 0.076133
vt 0.070844 0.345457
vt 0.070718 0.071722
vt 0.070920 0.075559
vt 0.070212 0.066824
vt 0.005933 0.758764
vt 0.004296 0.757148
vt 0.040389 0.788001
vt 0.146531 0.785187
vt 0.150170 0.785535
vt 0.147499 0.787586
vt 0.036614 0.063129
vt 0.043479 0.010819
vt 0.035558 0.071722
vt 0.035356 0.075559
vt 0.035434 0.345457
vt 0.035360 0.342079
vt 0.491653 0.828343
vt 0.507559 0.830643
vt 0.491653 0.830643
vt 0.116015 0.071722
vt 0.116217 0.075559
vt 0.115509 0.066824
vt 0.458681 0.224922
vt 0.460982 0.224922
vt 0.760323 0.397493
vt 0.759908 0.290383
vt 0.458681 0.259639
vt 0.460982 0.271270
vt 0.458681 0.271270
vt 0.081911 0.063129
vt 0.088776 0.010819
vt 0.080855 0.071722
vt 0.080653 0.075559
vt 0.556724 0.409565
vt 0.554424 0.409565
vt 0.249994 0.823551
vt 0.249994 0.821250
vt 0.830643 0.727462
vt 0.828342 0.743369
vt 0.828342 0.727462
vt 0.004076 0.834189
vt 0.004076 0.831889
vt 0.116141 0.345457
vt 0.629958 0.619651
vt 0.622595 0.623568
vt 0.647283 0.599194
vt 0.503046 0.625965
vt 0.506685 0.625616
vt 0.411338 0.328625
vt 0.409037 0.328625
vt 0.028366 0.018349
vt 0.026065 0.029608
vt 0.026066 0.018349
vt 0.024294 0.418430
vt 0.026595 0.407171
vt 0.026595 0.418430
vt 0.080785 0.285193
vt 0.080785 0.136398
vt 0.789145 0.255927
vt 0.790761 0.254290
vt 0.116086 0.136398
vt 0.116086 0.134097
vt 0.116015 0.349868
vt 0.116217 0.346031
vt 0.114959 0.358461
vt 0.108094 0.410771
vt 0.512815 0.630842
vt 0.479326 0.599193
vt 0.477689 0.597577
vt 0.069662 0.358461
vt 0.062797 0.410771
vt 0.070718 0.349868
vt 0.070920 0.346031
vt 0.070788 0.136398
vt 0.070789 0.285192
vt 0.744315 0.409899
vt 0.712666 0.443388
vt 0.711049 0.445025
vt 0.619924 0.625616
vt 0.623563 0.625965
vt 0.620892 0.628015
vt 0.080731 0.345457
vt 0.080894 0.350378
vt 0.081202 0.354209
vt 0.091322 0.410382
vt 0.081912 0.358461
vt 0.739089 0.302789
vt 0.739437 0.299150
vt 0.741487 0.301822
vt 0.035488 0.285192
vt 0.035488 0.136398
vt 0.035597 0.350377
vt 0.035905 0.354209
vt 0.046025 0.410382
vt 0.036615 0.358461
vt 0.816027 0.794528
vt 0.816027 0.778659
vt 0.804767 0.778659
vt 0.816027 0.771297
vt 0.206159 0.808935
vt 0.211601 0.808935
vt 0.182928 0.797675
vt 0.175567 0.808935
vt 0.175567 0.797304
vt 0.198797 0.797675
vt 0.198797 0.808935
vt 0.198797 0.835866
vt 0.182929 0.835866
vt 0.182929 0.847126
vt 0.175567 0.835866
vt 0.542850 0.854218
vt 0.535487 0.842958
vt 0.542850 0.842959
vt 0.558718 0.854218
vt 0.566080 0.842958
vt 0.566080 0.854590
vt 0.535487 0.816028
vt 0.558718 0.804768
vt 0.566080 0.816028
vt 0.558718 0.816027
vt 0.542850 0.804768
vt 0.535487 0.804397
vt 0.768687 0.406559
vt 0.789145 0.423884
vt 0.052406 0.401708
vt 0.053139 0.403137
vt 0.060045 0.356659
vt 0.052758 0.402777
vt 0.828286 0.599930
vt 0.830204 0.601598
vt 0.825899 0.599320
vt 0.831141 0.603877
vt 0.824788 0.612569
vt 0.819768 0.599930
vt 0.822154 0.599320
vt 0.824027 0.611131
vt 0.817849 0.601598
vt 0.816943 0.656630
vt 0.824421 0.611496
vt 0.061697 0.413681
vt 0.059083 0.416308
vt 0.055648 0.417463
vt 0.055647 0.004127
vt 0.059082 0.005281
vt 0.061696 0.007909
vt 0.044579 0.007909
vt 0.047193 0.005281
vt 0.050628 0.004127
vt 0.882452 0.867493
vt 0.884120 0.869412
vt 0.884731 0.871799
vt 0.884731 0.875544
vt 0.872920 0.873671
vt 0.884120 0.877930
vt 0.880173 0.880786
vt 0.882452 0.879849
vt 0.871481 0.874433
vt 0.827421 0.866587
vt 0.872554 0.874065
vt 0.089912 0.787250
vt 0.741152 0.359409
vt 0.070372 0.067381
vt 0.036437 0.358126
vt 0.764770 0.280615
vt 0.098436 0.403137
vt 0.097704 0.401708
vt 0.098055 0.402777
vt 0.105342 0.356659
vt 0.035904 0.067381
vt 0.081201 0.067381
vt 0.081734 0.358127
vt 0.061026 0.342344
vt 0.046232 0.064931
vt 0.045251 0.079246
vt 0.756661 0.544930
vt 0.839254 0.663273
vt 0.778972 0.551573
vt 0.062796 0.010819
vt 0.035357 0.346031
vt 0.759485 0.488231
vt 0.761872 0.487620
vt 0.765617 0.487620
vt 0.763745 0.499431
vt 0.768004 0.488231
vt 0.769922 0.489899
vt 0.770859 0.492178
vt 0.764506 0.500870
vt 0.764139 0.499797
vt 0.757567 0.489899
vt 0.250543 0.851480
vt 0.248875 0.849561
vt 0.248264 0.847175
vt 0.248264 0.843429
vt 0.260075 0.845302
vt 0.248875 0.841043
vt 0.252822 0.838188
vt 0.250543 0.839124
vt 0.261514 0.844540
vt 0.305574 0.852386
vt 0.260441 0.844908
vt 0.052757 0.018813
vt 0.053870 0.019882
vt 0.053518 0.018813
vt 0.052405 0.019882
vt 0.097703 0.019882
vt 0.091529 0.064931
vt 0.098054 0.018813
vt 0.098435 0.018453
vt 0.106994 0.413681
vt 0.104380 0.416308
vt 0.100945 0.417463
vt 0.100944 0.004127
vt 0.104379 0.005282
vt 0.106993 0.007909
vt 0.089876 0.007909
vt 0.092490 0.005282
vt 0.095926 0.004127
vt 0.760659 0.339906
vt 0.563305 0.627680
vt 0.070372 0.354208
vt 0.511871 0.224142
vt 0.115670 0.354209
vt 0.080657 0.079511
vt 0.080654 0.346031
vt 0.106323 0.342344
vt 0.090548 0.079246
vt 0.312217 0.830075
vt 0.820778 0.888898
vt 0.108094 0.010819
vt 0.115669 0.067381
vt 0.854590 0.801890
vt 0.407792 0.470627
vt 0.958332 0.298005
vt 0.975975 0.127940
vt 0.815017 0.705657
vt 0.833036 0.705657
vt 0.354601 0.854312
vt 0.354601 0.836293
vt 0.011787 0.287493
vt 0.011786 0.134097
vt 0.028115 0.134097
vt 0.028115 0.117223
vt 0.028116 0.287493
vt 0.028116 0.304367
vt 0.035488 0.117223
vt 0.035488 0.134097
vt 0.035488 0.287493
vt 0.035488 0.304367
vt 0.004415 0.285192
vt 0.772753 0.593958
vt 0.754735 0.593958
vt 0.778394 0.882680
vt 0.778394 0.864661
vt 0.139786 0.134097
vt 0.147159 0.285192
vt 0.123458 0.134097
vt 0.123458 0.117223
vt 0.116086 0.117223
vt 0.139787 0.287493
vt 0.123459 0.287493
vt 0.123458 0.304366
vt 0.116086 0.285192
vt 0.116086 0.304366
vt 0.116086 0.287493
vt 0.554424 0.382437
vt 0.019982 0.834189
vt 0.102192 0.857764
vt 0.094830 0.858136
vt 0.094830 0.846504
vt 0.102192 0.841858
vt 0.098357 0.835217
vt 0.101164 0.838024
vt 0.025250 0.838024
vt 0.028057 0.835217
vt 0.031584 0.846504
vt 0.024222 0.857764
vt 0.024222 0.841858
vt 0.031584 0.858136
vt 0.089387 0.846504
vt 0.042469 0.846504
vt 0.071141 0.846505
vt 0.055273 0.819573
vt 0.078503 0.807943
vt 0.094830 0.819574
vt 0.094830 0.807942
vt 0.102192 0.808314
vt 0.102192 0.824220
vt 0.101164 0.828054
vt 0.098357 0.830861
vt 0.028057 0.830861
vt 0.031584 0.819574
vt 0.025250 0.828054
vt 0.024222 0.824220
vt 0.024222 0.808314
vt 0.031584 0.807943
vt 0.047911 0.858136
vt 0.037637 0.815631
vt 0.816027 0.812774
vt 0.164682 0.808935
vt 0.854218 0.747609
vt 0.854590 0.754971
vt 0.842958 0.754971
vt 0.838312 0.747609
vt 0.831670 0.751443
vt 0.834477 0.748636
vt 0.842958 0.778659
vt 0.834477 0.824551
vt 0.831670 0.821744
vt 0.842958 0.818216
vt 0.854218 0.825578
vt 0.838312 0.825578
vt 0.854590 0.818216
vt 0.842958 0.760413
vt 0.458681 0.250206
vt 0.217043 0.835866
vt 0.529435 0.846901
vt 0.816027 0.765855
vt 0.572133 0.812085
vt 0.084556 0.815631
vt 0.170125 0.835866
vt 0.572133 0.846901
vt 0.525214 0.812085
vt 0.131731 0.821253
vt 0.030621 0.783139
vt 0.737040 0.418699
vt 0.035360 0.079511
vt 0.070917 0.342079
vt 0.069839 0.063463
vt 0.115136 0.063463
vt 0.116214 0.342079
vt 0.504014 0.623568
vt 0.080785 0.341722
vt 0.080785 0.306668
vt 0.080785 0.304367
vt 0.080785 0.079868
vt 0.080785 0.114922
vt 0.080785 0.117223
vt 0.080785 0.134097
vt 0.080785 0.287494
vt 0.116086 0.306667
vt 0.116086 0.341722
vt 0.116085 0.079868
vt 0.116085 0.114922
vt 0.070789 0.306667
vt 0.070789 0.341722
vt 0.070788 0.079868
vt 0.070788 0.114922
vt 0.070788 0.117223
vt 0.070789 0.304366
vt 0.070789 0.287493
vt 0.070788 0.134097
vt 0.080657 0.342079
vt 0.088777 0.410771
vt 0.035488 0.114922
vt 0.035488 0.079868
vt 0.035488 0.341722
vt 0.035488 0.306668
vt 0.043480 0.410771
vt 0.816027 0.754971
vt 0.804395 0.754971
vt 0.804767 0.747609
vt 0.820673 0.747609
vt 0.824508 0.748636
vt 0.827315 0.751443
vt 0.827315 0.821744
vt 0.816027 0.818216
vt 0.824508 0.824551
vt 0.820673 0.825578
vt 0.804767 0.825578
vt 0.804395 0.818216
vt 0.804395 0.771297
vt 0.151878 0.797675
vt 0.159240 0.797304
vt 0.159240 0.808935
vt 0.151878 0.813581
vt 0.155712 0.820223
vt 0.152905 0.817416
vt 0.182928 0.808935
vt 0.228820 0.817416
vt 0.226013 0.820223
vt 0.222486 0.808935
vt 0.229848 0.797675
vt 0.229848 0.813581
vt 0.222486 0.797304
vt 0.206159 0.797304
vt 0.159240 0.835866
vt 0.159240 0.847498
vt 0.151878 0.847126
vt 0.151878 0.831220
vt 0.152906 0.827385
vt 0.155713 0.824578
vt 0.226013 0.824578
vt 0.222486 0.835866
vt 0.228820 0.827385
vt 0.229848 0.831220
vt 0.229848 0.847126
vt 0.222486 0.847498
vt 0.175567 0.847498
vt 0.535487 0.854590
vt 0.558718 0.842959
vt 0.511799 0.804768
vt 0.519161 0.804397
vt 0.519161 0.816028
vt 0.511799 0.820674
vt 0.515634 0.827315
vt 0.512827 0.824508
vt 0.588741 0.824508
vt 0.585934 0.827315
vt 0.582406 0.816028
vt 0.589769 0.804768
vt 0.589769 0.820674
vt 0.582406 0.804397
vt 0.542850 0.816027
vt 0.566080 0.804397
vt 0.519161 0.842958
vt 0.519161 0.854590
vt 0.511799 0.854218
vt 0.511799 0.838312
vt 0.512827 0.834478
vt 0.515634 0.831671
vt 0.585934 0.831671
vt 0.582406 0.842958
vt 0.588741 0.834478
vt 0.589769 0.838312
vt 0.589769 0.854218
vt 0.582406 0.854590
vt 0.158668 0.004158
vt 0.174995 0.307617
vt 0.186150 0.307617
vt 0.202476 0.004157
vt 0.175528 0.757148
vt 0.711049 0.273793
vt 0.023259 0.779222
vt 0.648921 0.597577
vt 0.768687 0.273253
vt 0.496652 0.619651
vt 0.733124 0.426062
vt 0.790761 0.425522
vt 0.174995 0.004157
s 1
usemtl MovingParts
f 143/1/1 160/2/1 146/3/1
f 1/4/2 10/5/2 7/6/2
f 3/7/3 10/5/3 4/8/3
f 1/9/4 8/10/4 2/11/4
f 5/12/1 4/13/1 1/4/1
f 7/6/5 9/14/5 8/10/5
f 8/10/6 3/15/6 2/16/6
f 52/17/7 15/18/7 51/19/7
f 47/20/8 31/21/8 46/22/8
f 31/23/9 14/24/10 33/25/11
f 33/26/11 13/27/12 34/28/13
f 34/29/13 11/30/14 32/31/15
f 28/32/16 17/33/17 15/18/18
f 30/34/19 18/35/20 17/33/17
f 29/36/21 16/37/22 18/35/20
f 19/38/23 42/39/24 21/40/25
f 21/40/25 41/41/26 22/42/27
f 22/42/27 39/43/28 20/44/29
f 36/45/30 25/46/31 23/47/32
f 38/48/33 26/49/34 25/46/31
f 37/50/35 24/51/36 26/49/34
f 11/30/14 27/52/37 32/53/15
f 19/38/23 35/54/38 40/55/39
f 207/56/40 208/57/40 185/58/40
f 68/59/41 137/60/42 134/61/43
f 62/62/44 54/63/45 53/64/46
f 61/65/47 55/66/48 54/63/45
f 55/66/48 59/67/49 56/68/50
f 56/68/50 58/69/51 57/70/52
f 130/71/53 104/72/54 128/73/55
f 47/74/56 49/75/57 48/76/58
f 46/77/59 50/78/60 49/75/57
f 50/78/60 44/79/61 51/80/62
f 51/80/62 43/81/63 52/82/64
f 140/83/65 114/84/66 138/85/67
f 112/86/68 126/87/69 111/88/70
f 119/89/71 65/90/72 122/91/73
f 218/92/74 282/93/75 217/94/76
f 245/95/77 241/96/78 248/97/79
f 197/98/7 198/99/7 158/100/7
f 88/101/80 87/102/81 84/103/82
f 259/104/83 288/105/84 285/106/85
f 86/107/86 90/108/87 91/109/88
f 232/110/86 236/111/87 237/112/88
f 265/113/71 211/114/89 268/115/73
f 78/116/90 107/117/91 80/118/92
f 80/118/92 106/119/93 81/120/94
f 106/119/93 82/121/95 81/120/94
f 105/122/96 79/123/97 82/121/95
f 109/124/98 100/125/99 98/126/100
f 112/86/101 101/127/102 100/125/99
f 101/127/102 110/128/103 102/129/104
f 102/129/104 108/130/105 99/131/106
f 88/101/107 117/132/108 90/108/109
f 90/108/109 116/133/110 91/109/111
f 116/133/110 92/134/112 91/109/111
f 115/135/113 89/136/114 92/134/112
f 119/89/115 70/137/116 68/138/117
f 122/91/118 71/139/119 70/137/116
f 71/139/119 120/140/120 72/141/121
f 72/141/121 118/142/122 69/143/123
f 123/144/124 97/145/125 125/146/126
f 125/146/126 96/147/127 126/148/128
f 96/147/127 127/149/129 126/148/128
f 95/150/130 124/151/131 127/149/129
f 74/152/132 130/153/133 128/154/134
f 77/155/135 131/156/136 130/153/133
f 131/156/136 75/157/137 132/158/138
f 132/158/138 73/159/139 129/160/140
f 63/161/141 137/162/142 65/163/143
f 65/163/143 136/164/144 66/165/145
f 136/164/144 67/166/146 66/165/145
f 135/167/147 64/168/148 67/166/146
f 84/169/149 140/170/150 138/171/151
f 87/172/152 141/173/153 140/170/150
f 141/173/153 85/174/154 142/175/155
f 142/175/155 83/176/156 139/177/157
f 3/178/158 4/179/158 118/142/122
f 1/180/159 2/181/159 108/130/105
f 322/182/3 5/183/3 292/184/3
f 314/185/4 293/186/4 160/187/4
f 96/188/160 100/189/161 101/190/162
f 20/44/29 123/191/163 109/124/164
f 224/192/165 223/193/166 220/194/167
f 117/195/168 141/196/169 116/197/170
f 263/198/168 287/199/169 262/200/170
f 66/201/171 120/140/172 121/202/173
f 143/1/2 152/203/2 149/204/2
f 145/205/3 152/203/3 146/206/3
f 143/207/4 150/208/4 144/209/4
f 6/210/174 2/16/174 3/15/174
f 149/204/5 151/211/5 150/208/5
f 150/208/6 145/212/6 144/213/6
f 61/214/40 62/215/40 39/216/40
f 192/217/8 193/218/8 177/219/8
f 20/44/175 55/220/175 19/38/175
f 164/221/175 199/222/175 200/223/175
f 177/224/9 157/225/10 179/226/11
f 179/227/11 156/228/12 180/229/13
f 180/230/13 153/231/14 178/232/15
f 174/233/16 161/234/17 158/100/18
f 176/235/19 162/236/20 161/234/17
f 175/237/21 159/238/22 162/236/20
f 163/239/23 188/240/24 166/241/25
f 166/241/25 187/242/26 167/243/27
f 167/243/27 185/244/28 164/221/29
f 182/245/30 171/246/31 168/247/32
f 184/248/33 172/249/34 171/246/31
f 183/250/35 169/251/36 172/249/34
f 153/231/14 173/252/37 178/253/15
f 163/239/23 181/254/38 186/255/39
f 286/256/65 260/257/66 284/258/67
f 208/259/44 200/260/45 199/261/46
f 207/262/47 201/263/48 200/260/45
f 201/263/48 205/264/49 202/265/50
f 202/265/50 204/266/51 203/267/52
f 214/268/41 283/269/42 280/270/43
f 276/271/53 250/272/54 274/273/55
f 193/274/56 195/275/57 194/276/58
f 192/277/59 196/278/60 195/275/57
f 196/278/60 190/279/61 197/280/62
f 197/280/62 189/281/63 198/282/64
f 94/283/176 53/64/46 98/284/177
f 76/285/178 80/118/179 81/120/180
f 315/286/3 291/287/181 165/288/3
f 222/289/178 226/290/179 227/291/180
f 107/292/182 131/293/183 106/294/184
f 235/295/185 231/296/186 238/297/187
f 78/116/165 77/298/166 74/299/167
f 328/300/3 147/301/3 296/302/3
f 212/303/171 266/304/172 267/305/173
f 319/306/4 6/307/4 290/308/188
f 253/309/182 277/310/183 252/311/184
f 234/312/80 233/313/189 230/314/82
f 224/192/90 253/315/91 226/290/92
f 226/290/92 252/316/93 227/291/94
f 252/316/93 228/317/95 227/291/94
f 251/318/96 225/319/97 228/317/95
f 255/320/98 246/321/99 244/322/100
f 258/323/101 247/324/102 246/321/99
f 247/324/102 256/325/103 248/326/104
f 248/326/104 254/327/105 245/328/106
f 234/312/107 263/329/108 236/111/109
f 236/111/109 262/330/110 237/112/111
f 262/330/110 238/297/112 237/112/111
f 261/331/113 235/295/114 238/297/112
f 265/113/115 216/332/116 214/333/117
f 268/115/118 217/334/119 216/332/116
f 217/334/119 266/304/120 218/335/121
f 218/335/121 264/336/122 215/337/123
f 269/338/124 243/339/125 271/340/126
f 271/340/126 242/341/127 272/342/128
f 242/341/127 273/343/129 272/342/128
f 241/344/130 270/345/131 273/343/129
f 220/346/132 276/347/133 274/348/134
f 223/349/135 277/350/136 276/347/133
f 277/350/136 221/351/137 278/352/138
f 278/352/138 219/353/139 275/354/140
f 209/355/141 283/356/142 211/357/143
f 211/357/143 282/358/144 212/359/145
f 282/358/144 213/360/146 212/359/145
f 281/361/147 210/362/148 213/360/146
f 230/363/149 286/364/150 284/365/151
f 233/366/152 287/367/153 286/364/150
f 287/367/153 231/368/154 288/369/155
f 288/369/155 229/370/156 285/371/157
f 145/372/158 146/373/158 264/336/122
f 143/374/159 144/375/159 254/327/105
f 357/376/190 386/377/191 358/378/192
f 242/379/160 246/380/161 247/381/162
f 164/221/29 269/382/163 255/320/164
f 72/383/74 136/384/75 71/385/76
f 316/386/4 289/387/4 170/388/4
f 240/389/176 199/261/46 244/390/177
f 258/323/68 272/391/69 257/392/70
f 360/393/193 384/394/193 352/395/193
f 364/396/194 372/397/194 340/398/194
f 359/399/194 383/400/194 387/401/194
f 352/402/3 383/403/3 351/404/3
f 378/405/4 345/406/4 346/407/4
f 338/408/4 369/409/4 337/410/4
f 376/411/3 343/412/3 344/413/3
f 380/414/4 347/415/4 348/416/4
f 350/417/3 381/418/3 349/419/3
f 372/420/4 339/421/4 340/422/4
f 342/423/3 373/424/3 341/425/3
f 133/426/195 297/427/196 64/168/148
f 304/428/197 129/160/140 73/159/139
f 279/429/195 305/430/196 210/362/148
f 312/431/197 275/354/140 219/353/139
f 350/432/198 347/433/199 346/434/199
f 5/435/200 303/436/197 360/437/197
f 351/438/198 358/439/197 350/432/198
f 165/440/200 357/441/197 302/442/197
f 300/443/196 139/177/157 83/176/156
f 93/444/201 301/445/197 124/151/131
f 308/446/196 285/371/157 229/370/156
f 239/447/201 309/448/197 270/345/131
f 148/449/202 307/450/196 364/451/196
f 363/452/196 338/453/199 339/454/199
f 343/455/198 342/456/198 338/453/199
f 160/457/202 361/458/196 306/459/196
f 385/460/5 391/461/5 386/377/5
f 329/462/5 335/463/5 330/464/5
f 333/465/5 331/466/5 334/467/5
f 389/468/5 387/469/5 390/470/5
f 326/471/5 458/472/5 465/473/5
f 486/474/5 376/411/5 460/475/5
f 481/476/5 378/405/5 488/477/5
f 317/478/5 461/479/5 464/480/5
f 323/481/5 469/482/5 472/483/5
f 473/484/5 315/286/5 477/485/5
f 475/486/5 382/487/5 468/488/5
f 483/489/5 374/490/5 480/491/5
f 442/492/203 447/493/204 445/494/203
f 444/495/204 448/496/205 447/493/204
f 443/497/205 446/498/206 448/496/205
f 433/499/207 440/500/208 435/501/208
f 435/501/208 439/502/209 436/503/209
f 436/503/209 437/504/210 434/505/210
f 402/506/211 407/507/212 405/508/211
f 404/509/212 408/510/213 407/507/212
f 403/511/213 406/512/207 408/510/213
f 414/513/206 411/514/205 409/515/206
f 416/516/205 412/517/204 411/514/205
f 415/518/204 410/519/203 412/517/204
f 430/520/207 427/521/213 425/522/207
f 432/523/213 428/524/212 427/521/213
f 431/525/212 426/526/211 428/524/212
f 454/527/206 451/528/205 449/529/206
f 456/530/205 452/531/204 451/528/205
f 455/532/204 450/533/203 452/531/204
f 422/534/206 419/535/205 417/536/206
f 424/537/205 420/538/204 419/535/205
f 423/539/204 418/540/203 420/538/204
f 398/541/207 395/542/213 393/543/207
f 400/544/213 396/545/212 395/542/213
f 399/546/212 394/547/211 396/545/212
f 417/536/206 393/543/207 422/534/206
f 463/548/193 322/549/193 393/543/193
f 402/506/211 300/550/3 299/551/3
f 306/552/194 314/553/194 160/554/194
f 401/555/207 409/515/206 406/512/207
f 254/327/214 273/556/215 270/557/216
f 449/529/206 425/522/207 454/527/206
f 438/558/207 446/498/206 441/559/206
f 303/560/194 321/561/194 331/562/194
f 331/562/194 321/561/194 398/541/194
f 305/563/193 323/564/193 333/565/193
f 304/566/193 322/549/193 292/567/193
f 372/420/5 479/568/5 371/569/5
f 470/570/194 501/571/194 469/572/194
f 380/414/5 467/573/5 379/574/5
f 461/479/217 496/575/217 464/480/217
f 319/306/5 478/576/5 318/577/5
f 463/578/218 494/579/218 462/580/218
f 328/300/5 470/581/5 327/582/5
f 482/583/193 513/584/193 514/585/193
f 322/182/5 462/580/5 321/586/5
f 468/587/193 499/588/193 500/589/193
f 384/590/5 487/591/5 383/403/5
f 469/482/217 504/592/217 472/483/217
f 471/593/218 502/594/218 470/581/218
f 325/595/5 457/596/5 324/597/5
f 480/598/193 511/599/193 512/600/193
f 383/400/194 487/601/194 430/520/194
f 362/602/194 370/603/194 338/604/194
f 516/605/5 512/606/5 511/607/5
f 508/608/5 500/609/5 499/610/5
f 505/611/5 510/612/5 506/613/5
f 503/614/5 501/615/5 502/594/5
f 495/616/5 493/617/5 494/579/5
f 514/618/5 520/619/5 519/620/5
f 517/621/5 492/622/5 491/623/5
f 497/624/5 489/625/5 498/626/5
f 484/627/194 515/628/194 516/629/194
f 482/630/218 519/620/218 487/591/218
f 457/631/193 490/632/193 458/633/193
f 488/477/217 513/634/217 481/476/217
f 471/635/193 504/636/193 503/637/193
f 485/638/194 518/639/194 517/640/194
f 485/641/217 491/623/217 459/642/217
f 460/643/193 491/644/193 492/645/193
f 460/475/218 518/646/218 486/474/218
f 473/647/194 506/648/194 474/649/194
f 484/650/217 511/607/217 479/568/217
f 488/651/194 519/652/194 520/653/194
f 466/654/217 489/625/217 457/596/217
f 480/491/218 515/655/218 483/489/218
f 462/656/194 493/657/194 461/658/194
f 458/472/218 497/624/218 465/473/218
f 476/659/194 507/660/194 508/661/194
f 476/662/217 499/610/217 467/573/217
f 468/488/218 507/663/218 475/486/218
f 463/548/193 496/664/193 495/665/193
f 509/666/219 473/484/218 477/485/220
f 474/667/217 510/612/217 478/576/217
f 510/668/193 477/669/220 478/670/193
f 465/671/194 498/672/194 466/673/194
f 301/674/4 330/464/4 302/675/4
f 359/676/188 388/677/4 360/678/188
f 331/466/4 304/679/4 303/680/221
f 108/130/214 127/681/215 124/682/216
f 353/683/181 429/684/211 354/685/181
f 356/686/222 434/505/210 437/504/210
f 3/687/4 139/688/85 290/689/188
f 99/690/77 95/691/78 102/692/79
f 69/693/223 135/694/224 72/383/74
f 1/695/3 129/696/225 292/697/3
f 297/698/3 397/699/211 298/700/226
f 89/136/185 85/701/186 92/134/187
f 79/123/227 75/702/228 82/121/229
f 110/128/230 126/703/69 127/704/215
f 109/124/164 125/705/231 112/86/68
f 291/706/181 99/690/77 165/707/3
f 96/188/160 102/692/79 95/691/78
f 97/708/232 98/284/177 100/189/161
f 142/709/84 113/710/233 115/711/234
f 115/711/234 141/196/169 142/709/84
f 138/85/67 57/70/52 58/69/51
f 23/47/32 84/712/82 36/713/30
f 86/714/86 92/134/187 85/715/186
f 118/142/235 67/716/236 64/717/237
f 309/718/4 413/719/203 310/720/4
f 256/325/230 272/721/69 273/722/215
f 255/320/164 271/723/231 258/323/68
f 325/595/4 148/724/4 294/725/188
f 261/726/234 287/199/169 288/105/84
f 284/258/67 203/267/52 204/266/51
f 243/727/232 244/390/177 246/380/161
f 242/379/160 248/97/79 241/96/78
f 313/728/3 295/729/181 155/730/3
f 168/247/32 230/731/82 182/732/30
f 232/733/86 238/297/187 231/734/186
f 333/465/3 306/735/226 305/736/3
f 365/737/221 445/494/203 366/738/4
f 367/739/188 453/740/203 368/741/188
f 418/540/203 312/742/4 311/743/221
f 225/319/227 221/744/228 228/317/229
f 143/745/3 275/746/225 296/747/3
f 215/748/223 281/749/224 218/92/74
f 361/750/181 390/470/3 362/751/181
f 363/752/238 392/753/239 364/754/222
f 307/755/3 336/756/3 308/757/3
f 264/336/235 362/758/181 363/759/238
f 295/760/181 245/95/77 155/761/3
f 366/762/4 254/327/214 365/763/221
f 222/764/178 228/317/229 221/765/228
f 158/100/18 220/766/167 174/767/16
f 194/276/58 280/270/43 193/274/56
f 216/768/240 282/93/75 283/269/42
f 293/769/4 215/748/223 160/770/4
f 15/18/18 74/771/167 28/772/16
f 76/773/178 82/121/229 75/774/228
f 79/123/227 358/775/192 359/776/188
f 48/76/58 134/61/43 47/74/56
f 70/777/240 136/384/75 137/60/42
f 289/778/4 69/693/223 170/779/4
f 278/780/241 249/781/242 251/782/243
f 251/782/243 277/310/183 278/780/241
f 274/273/55 198/282/64 189/281/63
f 213/783/236 264/336/235 266/304/172
f 212/784/171 268/115/73 211/785/89
f 154/786/244 209/787/245 265/113/71
f 132/788/241 103/789/246 105/790/243
f 105/790/243 131/293/183 132/788/241
f 128/73/55 52/82/64 43/81/63
f 89/136/185 354/791/181 355/792/238
f 66/793/171 122/91/73 65/794/72
f 12/795/244 63/796/245 119/89/71
f 454/527/193 388/797/193 389/798/193
f 361/799/193 369/800/193 389/798/193
f 371/801/193 479/802/193 446/498/193
f 358/803/193 382/804/193 350/805/193
f 363/806/193 371/801/193 391/807/193
f 438/558/194 392/808/194 385/809/194
f 357/810/194 381/811/194 385/809/194
f 307/812/193 324/813/193 335/814/193
f 302/815/193 315/816/193 165/817/193
f 466/673/194 325/818/194 409/515/194
f 301/819/194 320/820/194 329/821/194
f 308/822/194 325/818/194 294/823/194
f 145/824/4 285/106/85 294/825/188
f 335/814/193 324/813/193 414/513/193
f 1/4/2 4/13/2 10/5/2
f 3/7/3 9/14/3 10/5/3
f 1/9/4 7/6/4 8/10/4
f 7/6/5 10/5/5 9/14/5
f 8/10/6 9/14/6 3/15/6
f 13/27/7 14/24/7 11/30/7
f 14/24/7 12/795/7 11/30/7
f 12/795/7 119/89/115 48/826/7
f 119/89/115 68/138/117 48/826/7
f 18/35/7 16/37/7 15/18/7
f 16/37/7 11/30/7 50/827/7
f 15/18/7 16/37/7 50/827/7
f 15/18/7 17/33/7 18/35/7
f 104/828/247 78/116/90 52/17/7
f 78/116/90 15/18/7 52/17/7
f 15/18/7 50/827/7 51/19/7
f 11/30/7 12/795/7 50/827/7
f 12/795/7 48/826/7 49/829/7
f 12/795/7 49/829/7 50/827/7
f 29/830/8 30/831/8 27/832/8
f 30/831/8 28/833/8 27/832/8
f 28/833/8 74/152/132 43/834/8
f 74/152/132 128/154/134 43/834/8
f 34/835/8 32/836/8 31/21/8
f 32/836/8 27/832/8 45/837/8
f 31/21/8 32/836/8 45/837/8
f 31/21/8 33/838/8 34/835/8
f 134/839/248 63/161/141 47/20/8
f 63/161/141 31/21/8 47/20/8
f 31/21/8 45/837/8 46/22/8
f 27/832/8 28/833/8 45/837/8
f 28/833/8 43/834/8 44/840/8
f 28/833/8 44/840/8 45/837/8
f 31/23/9 12/795/244 14/24/10
f 33/26/11 14/24/10 13/27/12
f 34/29/13 13/27/12 11/30/14
f 28/32/16 30/841/19 17/33/17
f 30/34/19 29/842/21 18/35/20
f 29/36/21 27/843/37 16/37/22
f 19/38/23 40/844/39 42/39/24
f 21/40/25 42/845/24 41/41/26
f 22/42/27 41/846/26 39/43/28
f 36/45/30 38/847/33 25/46/31
f 38/48/33 37/848/35 26/49/34
f 37/50/35 35/849/38 24/51/36
f 11/30/14 16/37/22 27/52/37
f 19/38/23 24/51/36 35/54/38
f 187/850/40 188/851/40 186/852/40
f 186/852/40 181/853/40 206/854/40
f 181/853/40 183/855/40 182/856/40
f 183/855/40 184/857/40 182/856/40
f 182/856/40 230/363/149 204/858/40
f 230/363/149 284/365/151 204/858/40
f 181/853/40 182/856/40 206/854/40
f 185/58/40 187/850/40 186/852/40
f 240/859/249 269/338/124 208/57/40
f 269/338/124 185/58/40 208/57/40
f 185/58/40 186/852/40 206/854/40
f 185/58/40 206/854/40 207/56/40
f 182/856/40 204/858/40 205/860/40
f 182/856/40 205/860/40 206/854/40
f 68/59/41 70/777/240 137/60/42
f 62/62/44 61/65/47 54/63/45
f 61/65/47 60/861/250 55/66/48
f 55/66/48 60/861/250 59/67/49
f 56/68/50 59/67/49 58/69/51
f 130/71/53 107/292/182 104/72/54
f 47/74/56 46/77/59 49/75/57
f 46/77/59 45/862/251 50/78/60
f 50/78/60 45/862/251 44/79/61
f 51/80/62 44/79/61 43/81/63
f 140/83/65 117/195/168 114/84/66
f 112/86/68 125/863/231 126/87/69
f 119/89/71 63/864/245 65/90/72
f 218/92/74 281/749/224 282/93/75
f 245/95/77 239/865/252 241/96/78
f 162/236/7 159/238/7 158/100/7
f 159/238/7 153/231/7 196/866/7
f 158/100/7 196/866/7 197/98/7
f 153/231/7 156/228/7 157/225/7
f 157/225/7 154/786/7 153/231/7
f 154/786/7 265/113/115 194/867/7
f 265/113/115 214/333/117 194/867/7
f 154/786/7 194/867/7 195/868/7
f 196/866/7 158/100/7 159/238/7
f 158/100/7 161/234/7 162/236/7
f 250/869/247 224/192/90 198/99/7
f 224/192/90 158/100/7 198/99/7
f 154/786/7 195/868/7 196/866/7
f 154/786/7 196/866/7 153/231/7
f 88/101/80 90/108/87 87/102/81
f 259/104/83 261/726/234 288/105/84
f 86/107/86 87/870/81 90/108/87
f 232/110/86 233/871/189 236/111/87
f 265/113/71 209/872/245 211/114/89
f 78/116/90 104/828/247 107/117/91
f 80/118/92 107/117/91 106/119/93
f 106/119/93 105/122/96 82/121/95
f 105/122/96 103/873/253 79/123/97
f 109/124/98 112/86/101 100/125/99
f 112/86/101 111/88/254 101/127/102
f 101/127/102 111/88/254 110/128/103
f 102/129/104 110/128/103 108/130/105
f 88/101/107 114/874/255 117/132/108
f 90/108/109 117/132/108 116/133/110
f 116/133/110 115/135/113 92/134/112
f 115/135/113 113/875/256 89/136/114
f 119/89/115 122/91/118 70/137/116
f 122/91/118 121/202/257 71/139/119
f 71/139/119 121/202/257 120/140/120
f 72/141/121 120/140/120 118/142/122
f 123/144/124 94/876/249 97/145/125
f 125/146/126 97/145/125 96/147/127
f 96/147/127 95/150/130 127/149/129
f 95/150/130 93/444/201 124/151/131
f 74/152/132 77/155/135 130/153/133
f 77/155/135 76/877/258 131/156/136
f 131/156/136 76/877/258 75/157/137
f 132/158/138 75/157/137 73/159/139
f 63/161/141 134/839/248 137/162/142
f 65/163/143 137/162/142 136/164/144
f 136/164/144 135/167/147 67/166/146
f 135/167/147 133/426/195 64/168/148
f 84/169/149 87/172/152 140/170/150
f 87/172/152 86/878/259 141/173/153
f 141/173/153 86/878/259 85/174/154
f 142/175/155 85/174/154 83/176/156
f 89/136/114 113/875/256 3/178/158
f 4/179/158 69/143/123 118/142/122
f 89/136/114 3/178/158 118/142/122
f 79/123/97 103/873/253 1/180/159
f 2/181/159 99/131/106 108/130/105
f 79/123/97 1/180/159 108/130/105
f 322/182/3 321/586/3 5/183/3
f 314/185/4 323/481/4 293/186/4
f 96/188/160 97/708/232 100/189/161
f 20/44/29 39/879/28 123/191/163
f 224/192/165 226/290/179 223/193/166
f 117/195/168 140/83/65 141/196/169
f 263/198/168 286/256/65 287/199/169
f 66/201/171 67/880/236 120/140/172
f 143/1/2 146/3/2 152/203/2
f 145/205/3 151/211/3 152/203/3
f 143/207/4 149/204/4 150/208/4
f 149/204/5 152/203/5 151/211/5
f 150/208/6 151/211/6 145/212/6
f 42/881/40 40/882/40 39/216/40
f 40/882/40 35/883/40 60/884/40
f 39/216/40 60/884/40 61/214/40
f 35/883/40 37/885/40 38/886/40
f 38/886/40 36/887/40 35/883/40
f 36/887/40 84/169/149 58/888/40
f 84/169/149 138/171/151 58/888/40
f 36/887/40 58/888/40 59/889/40
f 60/884/40 39/216/40 40/882/40
f 39/216/40 41/890/40 42/881/40
f 94/876/249 123/144/124 62/215/40
f 123/144/124 39/216/40 62/215/40
f 36/887/40 59/889/40 60/884/40
f 36/887/40 60/884/40 35/883/40
f 179/891/8 180/892/8 178/893/8
f 178/893/8 173/894/8 191/895/8
f 173/894/8 175/896/8 174/897/8
f 175/896/8 176/898/8 174/897/8
f 174/897/8 220/346/132 189/899/8
f 220/346/132 274/348/134 189/899/8
f 173/894/8 174/897/8 191/895/8
f 177/219/8 179/891/8 178/893/8
f 280/900/248 209/355/141 193/218/8
f 209/355/141 177/219/8 193/218/8
f 177/219/8 178/893/8 191/895/8
f 177/219/8 191/895/8 192/217/8
f 174/897/8 189/899/8 190/901/8
f 174/897/8 190/901/8 191/895/8
f 23/47/175 25/46/175 26/49/175
f 26/49/175 24/51/175 23/47/175
f 24/51/175 19/38/175 55/220/175
f 23/47/175 55/220/175 56/902/175
f 19/38/175 21/40/175 22/42/175
f 22/42/175 20/44/175 19/38/175
f 20/44/175 109/124/98 53/903/175
f 109/124/98 98/126/100 53/903/175
f 20/44/175 53/903/175 54/904/175
f 55/220/175 23/47/175 24/51/175
f 88/101/107 23/47/175 57/905/175
f 57/905/175 23/47/175 56/902/175
f 57/905/175 114/874/255 88/101/107
f 20/44/175 54/904/175 55/220/175
f 203/906/175 260/907/255 234/312/107
f 234/312/107 168/247/175 203/906/175
f 168/247/175 171/246/175 169/251/175
f 203/906/175 168/247/175 202/908/175
f 171/246/175 172/249/175 169/251/175
f 169/251/175 163/239/175 201/909/175
f 163/239/175 166/241/175 164/221/175
f 166/241/175 167/243/175 164/221/175
f 164/221/175 255/320/98 199/222/175
f 255/320/98 244/322/100 199/222/175
f 163/239/175 164/221/175 201/909/175
f 201/909/175 164/221/175 200/223/175
f 202/908/175 168/247/175 201/909/175
f 168/247/175 169/251/175 201/909/175
f 177/224/9 154/786/244 157/225/10
f 179/227/11 157/225/10 156/228/12
f 180/230/13 156/228/12 153/231/14
f 174/233/16 176/910/19 161/234/17
f 176/235/19 175/911/21 162/236/20
f 175/237/21 173/912/37 159/238/22
f 163/239/23 186/913/39 188/240/24
f 166/241/25 188/914/24 187/242/26
f 167/243/27 187/915/26 185/244/28
f 182/245/30 184/916/33 171/246/31
f 184/248/33 183/917/35 172/249/34
f 183/250/35 181/918/38 169/251/36
f 153/231/14 159/238/22 173/252/37
f 163/239/23 169/251/36 181/254/38
f 286/256/65 263/198/168 260/257/66
f 208/259/44 207/262/47 200/260/45
f 207/262/47 206/919/250 201/263/48
f 201/263/48 206/919/250 205/264/49
f 202/265/50 205/264/49 204/266/51
f 214/268/41 216/768/240 283/269/42
f 276/271/53 253/309/182 250/272/54
f 193/274/56 192/277/59 195/275/57
f 192/277/59 191/920/251 196/278/60
f 196/278/60 191/920/251 190/279/61
f 197/280/62 190/279/61 189/281/63
f 94/283/176 62/62/44 53/64/46
f 76/285/178 77/921/166 80/118/179
f 315/286/3 320/922/3 291/287/181
f 222/289/178 223/923/166 226/290/179
f 107/292/182 130/71/53 131/293/183
f 235/295/185 229/924/260 231/296/186
f 78/116/165 80/118/179 77/298/166
f 328/300/3 327/582/3 147/301/3
f 212/303/171 213/925/236 266/304/172
f 319/306/4 318/577/4 6/307/4
f 253/309/182 276/271/53 277/310/183
f 234/312/80 236/111/87 233/313/189
f 224/192/90 250/869/247 253/315/91
f 226/290/92 253/315/91 252/316/93
f 252/316/93 251/318/96 228/317/95
f 251/318/96 249/926/253 225/319/97
f 255/320/98 258/323/101 246/321/99
f 258/323/101 257/392/254 247/324/102
f 247/324/102 257/392/254 256/325/103
f 248/326/104 256/325/103 254/327/105
f 234/312/107 260/907/255 263/329/108
f 236/111/109 263/329/108 262/330/110
f 262/330/110 261/331/113 238/297/112
f 261/331/113 259/927/256 235/295/114
f 265/113/115 268/115/118 216/332/116
f 268/115/118 267/305/257 217/334/119
f 217/334/119 267/305/257 266/304/120
f 218/335/121 266/304/120 264/336/122
f 269/338/124 240/859/249 243/339/125
f 271/340/126 243/339/125 242/341/127
f 242/341/127 241/344/130 273/343/129
f 241/344/130 239/447/201 270/345/131
f 220/346/132 223/349/135 276/347/133
f 223/349/135 222/928/258 277/350/136
f 277/350/136 222/928/258 221/351/137
f 278/352/138 221/351/137 219/353/139
f 209/355/141 280/900/248 283/356/142
f 211/357/143 283/356/142 282/358/144
f 282/358/144 281/361/147 213/360/146
f 281/361/147 279/429/195 210/362/148
f 230/363/149 233/366/152 286/364/150
f 233/366/152 232/929/259 287/367/153
f 287/367/153 232/929/259 231/368/154
f 288/369/155 231/368/154 229/370/156
f 235/295/114 259/927/256 145/372/158
f 146/373/158 215/337/123 264/336/122
f 235/295/114 145/372/158 264/336/122
f 225/319/97 249/926/253 143/374/159
f 144/375/159 245/328/106 254/327/105
f 225/319/97 143/374/159 254/327/105
f 357/376/190 385/460/191 386/377/191
f 242/379/160 243/727/232 246/380/161
f 164/221/29 185/930/28 269/382/163
f 72/383/74 135/694/224 136/384/75
f 316/386/4 317/478/4 289/387/4
f 240/389/176 208/259/44 199/261/46
f 258/323/68 271/931/231 272/391/69
f 360/393/193 388/797/193 384/394/193
f 364/396/194 392/808/194 372/397/194
f 359/399/194 351/932/194 383/400/194
f 352/402/3 384/590/3 383/403/3
f 378/405/4 377/933/4 345/406/4
f 338/408/4 370/934/4 369/409/4
f 376/411/3 375/935/3 343/412/3
f 380/414/4 379/574/4 347/415/4
f 350/417/3 382/487/3 381/418/3
f 372/420/4 371/569/4 339/421/4
f 342/423/3 374/490/3 373/424/3
f 133/426/195 289/936/196 297/427/196
f 304/428/197 292/937/197 129/160/140
f 279/429/195 293/938/196 305/430/196
f 312/431/197 296/939/197 275/354/140
f 352/940/198 351/438/198 346/434/199
f 351/438/198 350/432/198 346/434/199
f 350/432/198 349/941/198 348/942/199
f 349/941/198 165/440/200 6/943/202
f 349/941/198 6/943/202 348/942/199
f 5/435/200 352/940/198 345/944/199
f 170/945/202 5/435/200 345/944/199
f 352/940/198 346/434/199 345/944/199
f 6/943/202 299/946/196 356/947/196
f 348/942/199 6/943/202 356/947/196
f 347/433/199 355/792/196 354/791/196
f 347/433/199 354/791/196 346/434/199
f 350/432/198 348/942/199 347/433/199
f 353/948/196 298/949/196 170/945/202
f 345/944/199 353/948/196 170/945/202
f 360/437/197 352/940/198 5/435/200
f 351/438/198 359/950/197 358/439/197
f 165/440/200 349/941/198 357/441/197
f 300/443/196 290/951/196 139/177/157
f 93/444/201 291/952/197 301/445/197
f 308/446/196 294/953/196 285/371/157
f 239/447/201 295/954/197 309/448/197
f 364/451/196 340/955/199 148/449/202
f 363/452/196 362/956/196 338/453/199
f 341/957/198 365/763/197 155/958/200
f 365/763/197 310/959/197 155/958/200
f 155/958/200 148/449/202 340/955/199
f 340/955/199 339/454/199 342/456/198
f 339/454/199 338/453/199 342/456/198
f 338/453/199 337/960/199 344/961/198
f 337/960/199 160/457/202 147/962/200
f 337/960/199 147/962/200 344/961/198
f 155/958/200 340/955/199 341/957/198
f 367/963/197 366/762/197 342/456/198
f 342/456/198 341/957/198 340/955/199
f 147/962/200 311/964/197 368/965/197
f 344/961/198 147/962/200 368/965/197
f 343/455/198 367/963/197 342/456/198
f 344/961/198 343/455/198 338/453/199
f 160/457/202 337/960/199 361/458/196
f 385/460/5 392/753/5 391/461/5
f 329/462/5 336/756/5 335/463/5
f 333/465/5 332/966/5 331/466/5
f 389/468/5 388/677/5 387/469/5
f 326/471/5 313/728/5 458/472/5
f 486/474/5 375/935/5 376/411/5
f 481/476/5 377/933/5 378/405/5
f 317/478/5 316/386/5 461/479/5
f 323/481/5 314/185/5 469/482/5
f 473/484/5 320/922/5 315/286/5
f 475/486/5 381/418/5 382/487/5
f 483/489/5 373/424/5 374/490/5
f 442/492/203 444/495/204 447/493/204
f 444/495/204 443/497/205 448/496/205
f 443/497/205 441/559/206 446/498/206
f 433/499/207 438/558/207 440/500/208
f 435/501/208 440/500/208 439/502/209
f 436/503/209 439/502/209 437/504/210
f 402/506/211 404/509/212 407/507/212
f 404/509/212 403/511/213 408/510/213
f 403/511/213 401/555/207 406/512/207
f 414/513/206 416/516/205 411/514/205
f 416/516/205 415/518/204 412/517/204
f 415/518/204 413/719/203 410/519/203
f 430/520/207 432/523/213 427/521/213
f 432/523/213 431/525/212 428/524/212
f 431/525/212 429/684/211 426/526/211
f 454/527/206 456/530/205 451/528/205
f 456/530/205 455/532/204 452/531/204
f 455/532/204 453/740/203 450/533/203
f 422/534/206 424/537/205 419/535/205
f 424/537/205 423/539/204 420/538/204
f 423/539/204 421/967/203 418/540/203
f 398/541/207 400/544/213 395/542/213
f 400/544/213 399/546/212 396/545/212
f 399/546/212 397/699/211 394/547/211
f 417/536/206 398/541/207 393/543/207
f 297/968/193 289/969/193 317/970/193
f 394/971/193 297/968/193 317/970/193
f 395/972/193 396/973/193 317/970/193
f 396/973/193 394/971/193 317/970/193
f 422/534/193 393/543/193 333/565/193
f 393/543/193 395/972/193 317/970/193
f 422/534/193 333/565/193 323/564/193
f 423/974/193 424/975/193 328/976/193
f 424/975/193 422/534/193 328/976/193
f 312/977/193 421/978/193 328/976/193
f 421/978/193 423/974/193 328/976/193
f 328/976/193 296/979/193 312/977/193
f 328/976/193 422/534/193 471/635/193
f 317/970/193 464/980/193 393/543/193
f 471/635/193 422/534/193 472/981/193
f 472/981/193 422/534/193 323/564/193
f 464/980/193 463/548/193 393/543/193
f 322/549/193 332/982/193 393/543/193
f 332/982/193 333/565/193 393/543/193
f 402/506/211 405/508/211 300/550/3
f 306/552/194 334/983/194 314/553/194
f 401/555/207 414/513/206 409/515/206
f 254/327/214 256/325/230 273/556/215
f 449/529/206 430/520/207 425/522/207
f 438/558/207 433/499/207 446/498/206
f 303/560/194 5/984/194 321/561/194
f 316/985/194 170/986/194 298/987/194
f 298/987/194 397/988/194 316/985/194
f 397/988/194 399/989/194 316/985/194
f 399/989/194 400/990/194 316/985/194
f 400/990/194 398/541/194 316/985/194
f 398/541/194 417/536/194 331/562/194
f 417/536/194 419/991/194 327/992/194
f 470/570/194 417/536/194 327/992/194
f 419/991/194 420/993/194 327/992/194
f 420/993/194 418/994/194 327/992/194
f 418/994/194 311/995/194 327/992/194
f 311/995/194 147/996/194 327/992/194
f 417/536/194 470/570/194 469/572/194
f 461/658/194 316/985/194 398/541/194
f 462/656/194 461/658/194 398/541/194
f 417/536/194 469/572/194 314/553/194
f 314/553/194 334/983/194 417/536/194
f 334/983/194 331/562/194 417/536/194
f 321/561/194 462/656/194 398/541/194
f 305/563/193 293/997/193 323/564/193
f 304/566/193 332/982/193 322/549/193
f 372/420/5 484/650/5 479/568/5
f 470/570/194 502/998/194 501/571/194
f 380/414/5 476/662/5 467/573/5
f 461/479/217 493/617/217 496/575/217
f 319/306/5 474/667/5 478/576/5
f 463/578/218 495/616/218 494/579/218
f 328/300/5 471/593/5 470/581/5
f 482/583/193 481/999/193 513/584/193
f 322/182/5 463/578/5 462/580/5
f 468/587/193 467/1000/193 499/588/193
f 384/590/5 482/630/5 487/591/5
f 469/482/217 501/615/217 504/592/217
f 471/593/218 503/614/218 502/594/218
f 325/595/5 466/654/5 457/596/5
f 480/598/193 479/802/193 511/599/193
f 367/1001/194 343/1002/194 375/1003/194
f 450/1004/194 367/1001/194 375/1003/194
f 451/1005/194 452/1006/194 375/1003/194
f 452/1006/194 450/1004/194 375/1003/194
f 430/520/194 449/529/194 387/401/194
f 449/529/194 451/1005/194 375/1003/194
f 387/401/194 449/529/194 390/1007/194
f 431/1008/194 432/1009/194 378/1010/194
f 432/1009/194 430/520/194 378/1010/194
f 354/1011/194 429/1012/194 378/1010/194
f 429/1012/194 431/1008/194 378/1010/194
f 378/1010/194 346/1013/194 354/1011/194
f 378/1010/194 430/520/194 488/651/194
f 375/1003/194 486/1014/194 449/529/194
f 488/651/194 430/520/194 487/601/194
f 486/1014/194 485/638/194 449/529/194
f 485/638/194 370/603/194 449/529/194
f 370/603/194 390/1007/194 449/529/194
f 387/401/194 383/400/194 430/520/194
f 362/602/194 390/1007/194 370/603/194
f 516/605/5 515/655/5 512/606/5
f 508/608/5 507/663/5 500/609/5
f 505/611/5 509/666/5 510/612/5
f 503/614/5 504/592/5 501/615/5
f 495/616/5 496/575/5 493/617/5
f 514/618/5 513/634/5 520/619/5
f 517/621/5 518/646/5 492/622/5
f 497/624/5 490/1015/5 489/625/5
f 484/627/194 483/1016/194 515/628/194
f 482/630/218 514/618/218 519/620/218
f 457/631/193 489/1017/193 490/632/193
f 488/477/217 520/619/217 513/634/217
f 471/635/193 472/981/193 504/636/193
f 485/638/194 486/1014/194 518/639/194
f 485/641/217 517/621/217 491/623/217
f 460/643/193 459/1018/193 491/644/193
f 460/475/218 492/622/218 518/646/218
f 473/647/194 505/1019/194 506/648/194
f 484/650/217 516/605/217 511/607/217
f 488/651/194 487/601/194 519/652/194
f 466/654/217 498/626/217 489/625/217
f 480/491/218 512/606/218 515/655/218
f 462/656/194 494/1020/194 493/657/194
f 458/472/218 490/1015/218 497/624/218
f 476/659/194 475/1021/194 507/660/194
f 476/662/217 508/608/217 499/610/217
f 468/488/218 500/609/218 507/663/218
f 463/548/193 464/980/193 496/664/193
f 509/666/219 505/611/218 473/484/218
f 474/667/217 506/613/217 510/612/217
f 510/668/193 509/1022/219 477/669/220
f 465/671/194 497/1023/194 498/672/194
f 301/674/4 329/462/4 330/464/4
f 359/676/188 387/469/4 388/677/4
f 331/466/4 332/966/4 304/679/4
f 108/130/214 110/128/230 127/681/215
f 353/683/181 426/526/211 429/684/211
f 356/686/222 355/1024/238 434/505/210
f 99/690/77 93/1025/252 95/691/78
f 69/693/223 133/1026/261 135/694/224
f 297/698/3 394/547/211 397/699/211
f 89/136/185 83/1027/260 85/701/186
f 79/123/227 73/1028/262 75/702/228
f 110/128/230 111/88/70 126/703/69
f 109/124/164 123/1029/163 125/705/231
f 96/188/160 101/190/162 102/692/79
f 97/708/232 94/283/176 98/284/177
f 142/709/84 139/688/85 113/710/233
f 115/711/234 116/197/170 141/196/169
f 138/85/67 114/84/66 57/70/52
f 23/47/32 88/101/80 84/712/82
f 86/714/86 91/109/88 92/134/187
f 118/142/235 120/140/172 67/716/236
f 309/718/4 410/519/203 413/719/203
f 256/325/230 257/392/70 272/721/69
f 255/320/164 269/1030/163 271/723/231
f 325/595/4 324/597/4 148/724/4
f 261/726/234 262/200/170 287/199/169
f 284/258/67 260/257/66 203/267/52
f 243/727/232 240/389/176 244/390/177
f 242/379/160 247/381/162 248/97/79
f 313/728/3 326/471/3 295/729/181
f 168/247/32 234/312/80 230/731/82
f 232/733/86 237/112/88 238/297/187
f 333/465/3 334/467/3 306/735/226
f 365/737/221 442/492/203 445/494/203
f 367/739/188 450/533/203 453/740/203
f 418/540/203 421/967/203 312/742/4
f 225/319/227 219/1031/262 221/744/228
f 215/748/223 279/1032/261 281/749/224
f 361/750/181 389/468/3 390/470/3
f 363/752/238 391/461/239 392/753/239
f 307/755/3 335/463/3 336/756/3
f 264/336/235 210/1033/237 305/1034/3
f 264/336/235 305/1034/3 306/1035/226
f 229/1036/260 235/295/185 308/1037/3
f 235/295/185 264/336/235 363/759/238
f 308/1037/3 235/295/185 307/1038/3
f 307/1038/3 235/295/185 364/1039/222
f 264/336/235 306/1035/226 361/1040/181
f 264/336/235 361/1040/181 362/758/181
f 364/1039/222 235/295/185 363/759/238
f 312/1041/4 219/1042/262 225/319/227
f 225/319/227 254/327/214 366/762/4
f 254/327/214 270/1043/216 309/1044/4
f 254/327/214 309/1044/4 310/959/4
f 311/964/221 312/1041/4 225/319/227
f 366/762/4 367/963/188 225/319/227
f 367/963/188 368/965/188 225/319/227
f 368/965/188 311/964/221 225/319/227
f 254/327/214 310/959/4 365/763/221
f 222/764/178 227/291/180 228/317/229
f 158/100/18 224/192/165 220/766/167
f 194/276/58 214/268/41 280/270/43
f 216/768/240 217/94/76 282/93/75
f 15/18/18 78/116/165 74/771/167
f 76/773/178 81/120/180 82/121/229
f 304/1045/4 73/1046/262 79/123/227
f 79/123/227 108/130/214 358/775/192
f 108/130/214 124/1047/216 301/1048/4
f 108/130/214 301/1048/4 302/1049/4
f 303/1050/221 304/1045/4 79/123/227
f 360/1051/188 303/1050/221 79/123/227
f 108/130/214 302/1049/4 357/1052/190
f 108/130/214 357/1052/190 358/775/192
f 359/776/188 360/1051/188 79/123/227
f 48/76/58 68/59/41 134/61/43
f 70/777/240 71/385/76 136/384/75
f 278/780/241 275/746/225 249/781/242
f 251/782/243 252/311/184 277/310/183
f 274/273/55 250/272/54 198/282/64
f 213/783/236 210/1053/237 264/336/235
f 212/784/171 267/305/173 268/115/73
f 154/786/244 177/1054/9 209/787/245
f 132/788/241 129/696/225 103/789/246
f 105/790/243 106/294/184 131/293/183
f 128/73/55 104/72/54 52/82/64
f 300/1055/3 83/1056/260 89/136/185
f 89/136/185 118/142/235 354/791/181
f 118/142/235 64/1057/237 297/1058/3
f 118/142/235 297/1058/3 298/949/226
f 299/946/3 300/1055/3 89/136/185
f 356/947/222 299/946/3 89/136/185
f 118/142/235 298/949/226 353/948/181
f 118/142/235 353/948/181 354/791/181
f 355/792/238 356/947/222 89/136/185
f 66/793/171 121/202/173 122/91/73
f 12/795/244 31/1059/9 63/796/245
f 376/1060/193 344/1061/193 368/1062/193
f 368/1062/193 453/1063/193 376/1060/193
f 453/1063/193 455/1064/193 376/1060/193
f 455/1064/193 456/1065/193 376/1060/193
f 456/1065/193 454/527/193 376/1060/193
f 454/527/193 425/522/193 388/797/193
f 425/522/193 427/1066/193 377/1067/193
f 481/999/193 425/522/193 377/1067/193
f 427/1066/193 428/1068/193 377/1067/193
f 428/1068/193 426/1069/193 377/1067/193
f 426/1069/193 353/1070/193 377/1067/193
f 353/1070/193 345/1071/193 377/1067/193
f 425/522/193 481/999/193 482/583/193
f 460/643/193 376/1060/193 454/527/193
f 389/798/193 369/800/193 454/527/193
f 369/800/193 459/1018/193 454/527/193
f 459/1018/193 460/643/193 454/527/193
f 425/522/193 482/583/193 384/394/193
f 388/797/193 425/522/193 384/394/193
f 361/799/193 337/1072/193 369/800/193
f 355/1073/193 347/1074/193 379/1075/193
f 434/1076/193 355/1073/193 379/1075/193
f 435/1077/193 436/1078/193 379/1075/193
f 436/1078/193 434/1076/193 379/1075/193
f 446/498/193 433/499/193 391/807/193
f 433/499/193 435/1077/193 379/1075/193
f 391/807/193 433/499/193 386/1079/193
f 447/1080/193 448/1081/193 374/1082/193
f 448/1081/193 446/498/193 374/1082/193
f 366/1083/193 445/1084/193 374/1082/193
f 445/1084/193 447/1080/193 374/1082/193
f 374/1082/193 342/1085/193 366/1083/193
f 374/1082/193 446/498/193 480/598/193
f 379/1075/193 467/1000/193 433/499/193
f 480/598/193 446/498/193 479/802/193
f 467/1000/193 468/587/193 433/499/193
f 468/587/193 382/804/193 433/499/193
f 382/804/193 386/1079/193 433/499/193
f 391/807/193 371/801/193 446/498/193
f 358/803/193 386/1079/193 382/804/193
f 363/806/193 339/1086/193 371/801/193
f 380/1087/194 348/1088/194 356/1089/194
f 356/1089/194 437/1090/194 380/1087/194
f 437/1090/194 439/1091/194 380/1087/194
f 439/1091/194 440/1092/194 380/1087/194
f 440/1092/194 438/558/194 380/1087/194
f 438/558/194 441/559/194 392/808/194
f 441/559/194 443/1093/194 373/1094/194
f 483/1016/194 441/559/194 373/1094/194
f 443/1093/194 444/1095/194 373/1094/194
f 444/1095/194 442/1096/194 373/1094/194
f 442/1096/194 365/1097/194 373/1094/194
f 365/1097/194 341/1098/194 373/1094/194
f 441/559/194 483/1016/194 484/627/194
f 476/659/194 380/1087/194 438/558/194
f 385/809/194 381/811/194 438/558/194
f 381/811/194 475/1021/194 438/558/194
f 475/1021/194 476/659/194 438/558/194
f 441/559/194 484/627/194 372/397/194
f 392/808/194 441/559/194 372/397/194
f 357/810/194 349/1099/194 381/811/194
f 307/812/193 148/1100/193 324/813/193
f 302/815/193 330/1101/193 315/816/193
f 309/1102/194 295/1103/194 326/1104/194
f 410/1105/194 309/1102/194 326/1104/194
f 411/1106/194 412/1107/194 326/1104/194
f 412/1107/194 410/1105/194 326/1104/194
f 406/512/194 409/515/194 329/821/194
f 409/515/194 411/1106/194 326/1104/194
f 406/512/194 329/821/194 320/820/194
f 407/1108/194 408/1109/194 319/1110/194
f 408/1109/194 406/512/194 319/1110/194
f 300/1111/194 405/1112/194 319/1110/194
f 405/1112/194 407/1108/194 319/1110/194
f 319/1110/194 290/1113/194 300/1111/194
f 319/1110/194 406/512/194 474/649/194
f 326/1104/194 465/671/194 409/515/194
f 474/649/194 406/512/194 473/647/194
f 473/647/194 406/512/194 320/820/194
f 465/671/194 466/673/194 409/515/194
f 325/818/194 336/1114/194 409/515/194
f 336/1114/194 329/821/194 409/515/194
f 301/819/194 291/1115/194 320/820/194
f 308/822/194 336/1114/194 325/818/194
f 313/1116/193 155/1117/193 310/1118/193
f 310/1118/193 413/1119/193 313/1116/193
f 413/1119/193 415/1120/193 313/1116/193
f 415/1120/193 416/1121/193 313/1116/193
f 416/1121/193 414/513/193 313/1116/193
f 414/513/193 401/555/193 335/814/193
f 401/555/193 403/1122/193 318/1123/193
f 478/670/193 401/555/193 318/1123/193
f 403/1122/193 404/1124/193 318/1123/193
f 404/1124/193 402/1125/193 318/1123/193
f 402/1125/193 299/1126/193 318/1123/193
f 299/1126/193 6/1127/193 318/1123/193
f 401/555/193 478/670/193 477/669/193
f 458/633/193 313/1116/193 414/513/193
f 457/631/193 458/633/193 414/513/193
f 401/555/193 477/669/193 315/816/193
f 315/816/193 330/1101/193 401/555/193
f 330/1101/193 335/814/193 401/555/193
f 324/813/193 457/631/193 414/513/193
f 148/1128/174 144/213/174 145/212/174
f 143/1/1 147/1129/1 160/2/1
f 5/12/1 170/1130/1 4/13/1
f 6/210/174 165/1131/174 2/16/174
f 290/689/188 6/1132/4 3/687/4
f 3/687/4 113/710/233 139/688/85
f 292/697/3 5/1133/3 1/695/3
f 1/695/3 103/789/246 129/696/225
f 291/706/181 93/1025/252 99/690/77
f 99/690/77 2/1134/181 165/707/3
f 296/747/3 147/1135/3 143/745/3
f 143/745/3 249/781/242 275/746/225
f 295/760/181 239/865/252 245/95/77
f 245/95/77 144/1136/181 155/761/3
f 293/769/4 279/1032/261 215/748/223
f 215/748/223 146/1137/4 160/770/4
f 289/778/4 133/1026/261 69/693/223
f 69/693/223 4/1138/4 170/779/4
f 294/825/188 148/1139/4 145/824/4
f 145/824/4 259/104/83 285/106/85
f 148/1128/174 155/1140/174 144/213/174
o PantographHeadRollers.001
v -0.630000 -0.088260 -0.155273
v -0.480000 -0.088260 -0.155273
v -0.630000 -0.098260 -0.145273
v -0.480000 -0.098260 -0.145273
v -0.630000 -0.088260 -0.135273
v -0.480000 -0.088260 -0.135273
v -0.630000 -0.078260 -0.145273
v -0.480000 -0.078260 -0.145273
v -0.630000 -0.088260 0.150727
v -0.480000 -0.088260 0.150727
v -0.630000 -0.098260 0.160727
v -0.480000 -0.098260 0.160727
v -0.630000 -0.088260 0.170727
v -0.480000 -0.088260 0.170727
v -0.630000 -0.078260 0.160727
v -0.480000 -0.078260 0.160727
v 0.480000 -0.088260 -0.155273
v 0.630000 -0.088260 -0.155273
v 0.480000 -0.098260 -0.145273
v 0.630000 -0.098260 -0.145273
v 0.480000 -0.088260 -0.135273
v 0.630000 -0.088260 -0.135273
v 0.480000 -0.078260 -0.145273
v 0.630000 -0.078260 -0.145273
v 0.480000 -0.088260 0.150727
v 0.630000 -0.088260 0.150727
v 0.480000 -0.098260 0.160727
v 0.630000 -0.098260 0.160727
v 0.480000 -0.088260 0.170727
v 0.630000 -0.088260 0.170727
v 0.480000 -0.078260 0.160727
v 0.630000 -0.078260 0.160727
vn -0.0000 -0.0000 -1.0000
vn -0.0000 -1.0000 -0.0000
vn -0.0000 -0.0000 1.0000
vn 1.0000 -0.0000 -0.0000
vn -0.0000 1.0000 -0.0000
vn -1.0000 -0.0000 -0.0000
vt 0.985668 0.095189
vt 0.960687 0.097544
vt 0.960687 0.095189
vt 0.985668 0.097544
vt 0.960687 0.099899
vt 0.988023 0.097544
vt 0.985668 0.099899
vt 0.960687 0.102254
vt 0.985668 0.092834
vt 0.960687 0.092834
vt 0.958332 0.099899
vt 0.958332 0.097544
vt 0.988023 0.099899
vt 0.985668 0.102254
s 1
usemtl MovingParts
f 522/1141/263 523/1142/264 521/1143/263
f 524/1144/264 525/1145/265 523/1142/264
f 522/1146/266 526/1147/266 524/1144/266
f 526/1147/265 527/1148/267 525/1145/265
f 528/1149/267 521/1143/263 527/1150/267
f 523/1142/268 527/1151/268 521/1152/268
f 522/1141/263 524/1144/264 523/1142/264
f 524/1144/264 526/1147/265 525/1145/265
f 522/1146/266 528/1153/266 526/1147/266
f 526/1147/265 528/1154/267 527/1148/267
f 528/1149/267 522/1141/263 521/1143/263
f 523/1142/268 525/1145/268 527/1151/268
f 530/1141/263 531/1142/264 529/1143/263
f 532/1144/264 533/1145/265 531/1142/264
f 530/1146/266 534/1147/266 532/1144/266
f 534/1147/265 535/1148/267 533/1145/265
f 536/1149/267 529/1143/263 535/1150/267
f 531/1142/268 535/1151/268 529/1152/268
f 530/1141/263 532/1144/264 531/1142/264
f 532/1144/264 534/1147/265 533/1145/265
f 530/1146/266 536/1153/266 534/1147/266
f 534/1147/265 536/1154/267 535/1148/267
f 536/1149/267 530/1141/263 529/1143/263
f 531/1142/268 533/1145/268 535/1151/268
f 538/1141/263 539/1142/264 537/1143/263
f 540/1144/264 541/1145/265 539/1142/264
f 538/1146/266 542/1147/266 540/1144/266
f 542/1147/265 543/1148/267 541/1145/265
f 544/1149/267 537/1143/263 543/1150/267
f 539/1142/268 543/1151/268 537/1152/268
f 538/1141/263 540/1144/264 539/1142/264
f 540/1144/264 542/1147/265 541/1145/265
f 538/1146/266 544/1153/266 542/1147/266
f 542/1147/265 544/1154/267 543/1148/267
f 544/1149/267 538/1141/263 537/1143/263
f 539/1142/268 541/1145/268 543/1151/268
f 546/1141/263 547/1142/264 545/1143/263
f 548/1144/264 549/1145/265 547/1142/264
f 546/1146/266 550/1147/266 548/1144/266
f 550/1147/265 551/1148/267 549/1145/265
f 552/1149/267 545/1143/263 551/1150/267
f 547/1142/268 551/1151/268 545/1152/268
f 546/1141/263 548/1144/264 547/1142/264
f 548/1144/264 550/1147/265 549/1145/265
f 546/1146/266 552/1153/266 550/1147/266
f 550/1147/265 552/1154/267 551/1148/267
f 552/1149/267 546/1141/263 545/1143/263
f 547/1142/268 549/1145/268 551/1151/268
