# Blender 5.0.1
# www.blender.org
mtllib pantograph_upper_front_frame.mtl
o PantographUpperFrontFrameExport
g pantograph_upper_front_frame
v -0.554998 0.021357 -1.595448
v 0.554997 0.085001 -0.046588
v -0.554997 0.085001 -0.046587
v -0.599997 0.042575 -0.154069
v 0.599997 0.042575 -0.154069
v -0.530096 0.042575 -0.046590
v 0.530096 0.042575 -0.046590
v 0.530096 0.085005 -0.046589
v -0.530096 0.085005 -0.046589
v 0.509997 0.042575 -0.154069
v -0.509997 0.042575 -0.154069
v -0.530096 0.000144 -0.046589
v -0.530096 0.000145 0.046417
v 0.554997 0.000145 0.046418
v -0.554997 0.000149 -0.046587
v -0.554997 -0.042281 -0.004157
v -0.554997 -0.021066 -0.040903
v -0.554997 -0.036597 -0.025372
v -0.530096 -0.042286 -0.004159
v -0.530096 -0.036601 -0.025374
v -0.530096 -0.021071 -0.040905
v 0.554997 -0.042282 -0.004158
v 0.554997 0.000148 -0.046588
v 0.554997 -0.036597 -0.025372
v 0.554997 -0.021067 -0.040903
v 0.530096 0.000144 -0.046589
v 0.530096 -0.042286 -0.004159
v 0.530096 -0.021071 -0.040905
v 0.530096 -0.036601 -0.025374
v -0.554997 -0.042281 0.003988
v -0.554997 -0.036597 0.025203
v -0.554997 -0.021066 0.040734
v -0.530096 -0.042286 0.003987
v -0.530096 -0.021071 0.040732
v -0.530096 -0.036601 0.025202
v 0.554997 -0.042282 0.003988
v 0.554997 -0.021067 0.040734
v 0.554997 -0.036597 0.025203
v 0.530096 -0.042286 0.003987
v 0.530096 -0.036601 0.025202
v 0.530096 -0.021071 0.040732
v 0.554997 0.085001 -0.038442
v 0.554997 0.082110 -0.016478
v 0.554997 0.073632 0.003988
v 0.554997 0.060146 0.021563
v 0.554997 0.042571 0.035049
v 0.554997 0.022105 0.043527
v -0.554997 0.000145 0.046418
v -0.554997 0.085001 -0.038442
v -0.554997 0.022105 0.043527
v -0.554997 0.042571 0.035049
v -0.554997 0.060146 0.021564
v -0.554997 0.073632 0.003988
v -0.554997 0.082110 -0.016478
v 0.530096 0.000145 0.046417
v 0.530096 0.085005 -0.038443
v 0.530096 0.022108 0.043525
v 0.530096 0.042575 0.035048
v 0.530096 0.060150 0.021562
v 0.530096 0.073636 0.003987
v 0.530096 0.082113 -0.016480
v -0.530096 0.085005 -0.038443
v -0.530096 0.082113 -0.016480
v -0.530096 0.073636 0.003987
v -0.530096 0.060150 0.021562
v -0.530096 0.042575 0.035048
v -0.530096 0.022108 0.043525
v -0.554997 0.042570 -1.616663
v -0.532497 0.031964 -1.613821
v -0.532497 0.024199 -1.606056
v -0.532497 0.021357 -1.595448
v -0.554997 0.053176 -1.613821
v -0.554998 0.060941 -1.606056
v -0.554998 0.063783 -1.595448
v -0.532497 0.060939 -1.606056
v -0.532497 0.053174 -1.613821
v -0.532497 0.063782 -1.595448
v -0.532497 0.042572 -1.616663
v -0.532498 0.063782 -1.564980
v -0.554998 0.063783 -1.564980
v -0.532498 0.021357 -1.564980
v -0.532498 0.031963 -1.564979
v -0.532498 0.053177 -1.564979
v -0.554998 0.021357 -1.564980
v -0.599998 0.042572 -1.395573
v -0.509998 0.042572 -1.395573
v 0.599996 0.042571 -1.395574
v 0.509996 0.042572 -1.395574
v 0.532496 0.031963 -1.564979
v 0.532496 0.053176 -1.564979
v 0.532496 0.021356 -1.564980
v 0.554996 0.021357 -1.564980
v 0.554996 0.063783 -1.564980
v 0.532496 0.063781 -1.564980
v 0.532496 0.042569 -1.616663
v 0.532496 0.021356 -1.595448
v 0.532496 0.031964 -1.613821
v 0.532496 0.024199 -1.606056
v 0.554996 0.021357 -1.595448
v 0.554996 0.024199 -1.606055
v 0.554996 0.031964 -1.613821
v 0.554996 0.042570 -1.616663
v 0.554996 0.063783 -1.595448
v 0.554996 0.053175 -1.613821
v 0.554996 0.060941 -1.606055
v 0.532496 0.063781 -1.595448
v 0.532496 0.060939 -1.606056
v 0.532496 0.053174 -1.613821
v -0.554997 0.031964 -1.613821
v -0.554998 0.024199 -1.606056
v 0.554997 0.000147 -0.774824
v 0.554996 0.085000 -0.774824
v -0.509998 0.042573 -0.817099
v -0.509998 0.042574 -0.732544
v 0.509996 0.042573 -0.817099
v 0.509997 0.042574 -0.732544
v -0.554998 0.085000 -0.774824
v -0.554998 0.000147 -0.774824
v 0.554996 0.084997 -1.395578
v -0.554998 0.084997 -1.395578
v -0.554998 0.000144 -1.395578
v 0.554996 0.000144 -1.395578
vn 0.0001 -0.0000 -1.0000
vn -0.0001 -0.0000 -1.0000
vn 0.1467 0.8862 0.4395
vn 0.1467 -0.8862 0.4395
vn 0.9980 -0.0000 0.0635
vn -0.1468 0.8862 0.4395
vn -0.9980 -0.0000 0.0635
vn -0.1468 -0.8862 0.4395
vn 0.9995 -0.0000 0.0302
vn 0.9830 -0.0000 0.1838
vn -0.9995 -0.0000 0.0302
vn -0.9830 -0.0000 0.1838
vn -0.2171 -0.9762 -0.0000
vn -1.0000 -0.0000 -0.0000
vn 0.2171 0.9762 -0.0000
vn -0.2171 0.9762 -0.0000
vn -0.0001 -0.2588 -0.9659
vn -0.0001 -0.5000 -0.8660
vn -0.0002 -0.8660 -0.5000
vn -0.0002 -0.9914 -0.1305
vn 0.0002 -0.9914 -0.1305
vn 0.0002 -0.8660 -0.5000
vn 0.0001 -0.5000 -0.8660
vn 0.0001 -0.2588 -0.9659
vn -0.0002 -0.9914 0.1305
vn -0.0001 -0.8660 0.5000
vn -0.0000 -0.5000 0.8660
vn -0.0000 -0.0654 0.9979
vn 0.0001 -0.0654 0.9979
vn -0.0001 -0.0654 0.9979
vn 0.0001 -0.8660 0.5000
vn 0.0002 -0.9914 0.1305
vn -0.0066 -0.9989 -0.0474
vn -0.4665 -0.8369 -0.2862
vn 0.8333 -0.5366 -0.1325
vn -0.0000 0.2588 0.9659
vn -0.0000 0.5000 0.8660
vn 0.0001 0.7071 0.7071
vn 0.0001 0.8660 0.5000
vn 0.0001 0.9659 0.2588
vn 0.0001 0.9979 0.0654
vn -0.0001 0.9979 0.0654
vn -0.0001 0.9659 0.2588
vn -0.0001 0.8660 0.5000
vn -0.0001 0.7071 0.7071
vn 0.0001 1.0000 -0.0000
vn -0.0001 1.0000 -0.0000
vn -0.9975 -0.0000 -0.0713
vn 1.0000 -0.0000 -0.0000
vn -0.0000 -1.0000 -0.0000
vn -0.0000 0.5000 -0.8660
vn -0.0000 0.0001 -1.0000
vn -0.0000 -0.0000 -1.0000
vn 0.0001 0.8660 -0.5000
vn 0.0001 0.9659 -0.2588
vn -0.0000 -0.5000 -0.8660
vn -0.0000 -0.8660 -0.5000
vn -0.0000 -0.9659 -0.2588
vn -0.0000 -0.0001 1.0000
vn 0.8333 0.5366 -0.1325
vn 0.9994 -0.0000 -0.0346
vn -0.0000 0.0001 1.0000
vn -0.4665 0.8369 -0.2862
vn 0.2171 -0.9762 -0.0000
vn -0.0066 0.9989 -0.0474
vn 0.9975 -0.0000 -0.0713
vn -0.8333 -0.5366 -0.1325
vn 0.4665 -0.8369 -0.2862
vn 0.0066 -0.9989 -0.0474
vn 0.4665 0.8369 -0.2862
vn -0.8333 0.5366 -0.1325
vn -0.9994 -0.0000 -0.0346
vn -0.0001 0.8660 -0.5000
vn -0.0001 0.9659 -0.2588
vn 0.0066 0.9989 -0.0474
vn -0.0000 1.0000 -0.0000
vn -0.0000 -0.0000 1.0000
vt 0.307317 0.312237
vt 0.299779 0.308878
vt 0.306853 0.308086
vt 0.293170 0.313822
vt 0.292705 0.309671
vt 0.244816 0.009232
vt 0.252354 0.005873
vt 0.251890 0.010025
vt 0.238207 0.004288
vt 0.237741 0.008440
vt 0.307459 0.276691
vt 0.293384 0.274561
vt 0.303348 0.256298
vt 0.252496 0.041419
vt 0.248385 0.061813
vt 0.238421 0.043550
vt 0.227638 0.061341
vt 0.217675 0.043079
vt 0.225928 0.043077
vt 0.282602 0.256769
vt 0.285140 0.274937
vt 0.272638 0.275032
vt 0.280891 0.275033
vt 0.235646 0.165691
vt 0.230177 0.043174
vt 0.251260 0.036498
vt 0.252292 0.040068
vt 0.269863 0.152891
vt 0.259167 0.044021
vt 0.256392 0.166163
vt 0.212534 0.024402
vt 0.216299 0.028507
vt 0.212615 0.028579
vt 0.216218 0.024330
vt 0.219983 0.028435
vt 0.223586 0.024186
vt 0.223667 0.028363
vt 0.278549 0.293924
vt 0.274947 0.289676
vt 0.278630 0.289748
vt 0.271181 0.293781
vt 0.271263 0.289604
vt 0.267497 0.293708
vt 0.267579 0.289531
vt 0.225034 0.028336
vt 0.228636 0.024088
vt 0.228718 0.028265
vt 0.232320 0.024017
vt 0.232402 0.028194
vt 0.236004 0.023946
vt 0.236085 0.028123
vt 0.290968 0.294165
vt 0.287365 0.289917
vt 0.291048 0.289988
vt 0.287284 0.294093
vt 0.283681 0.289845
vt 0.283599 0.294022
vt 0.279997 0.289774
vt 0.224952 0.024160
vt 0.279915 0.293951
vt 0.023049 0.006285
vt 0.009483 0.031510
vt 0.005708 0.029731
vt 0.294763 0.290060
vt 0.294683 0.294236
vt 0.298479 0.290131
vt 0.298399 0.294308
vt 0.302195 0.290203
vt 0.302115 0.294380
vt 0.305911 0.290275
vt 0.305831 0.294452
vt 0.309627 0.290347
vt 0.309547 0.294524
vt 0.313342 0.290418
vt 0.313262 0.294595
vt 0.258379 0.027692
vt 0.254583 0.023587
vt 0.258299 0.023515
vt 0.254663 0.027764
vt 0.250868 0.023659
vt 0.250948 0.027836
vt 0.247152 0.023731
vt 0.247232 0.027907
vt 0.243436 0.023802
vt 0.243516 0.027979
vt 0.239720 0.023874
vt 0.239800 0.028051
vt 0.314709 0.290445
vt 0.259746 0.027666
vt 0.259666 0.023489
vt 0.305808 0.303120
vt 0.306701 0.306728
vt 0.243653 0.270041
vt 0.235072 0.298391
vt 0.233280 0.269806
vt 0.285076 0.281884
vt 0.005708 0.031510
vt 0.009483 0.036622
vt 0.005708 0.036622
vt 0.557175 0.422912
vt 0.560257 0.421132
vt 0.563339 0.422912
vt 0.993893 0.010641
vt 0.992114 0.011117
vt 0.993893 0.004477
vt 0.005709 0.052787
vt 0.009484 0.047675
vt 0.009484 0.052787
vt 0.009483 0.043991
vt 0.005709 0.042149
vt 0.009483 0.042148
vt 0.005709 0.045833
vt 0.009483 0.045833
vt 0.005709 0.047675
vt 0.005708 0.040307
vt 0.005708 0.038464
vt 0.009483 0.040306
vt 0.009483 0.038464
vt 0.214900 0.165220
vt 0.987002 0.009338
vt 0.958332 0.007559
vt 0.987002 0.005779
vt 0.005709 0.054566
vt 0.560257 0.459209
vt 0.556699 0.429803
vt 0.563816 0.429803
vt 0.290609 0.152419
vt 0.212534 0.269334
vt 0.225112 0.172546
vt 0.222907 0.269569
vt 0.311355 0.151948
vt 0.298616 0.048070
vt 0.141841 0.036823
vt 0.138066 0.038602
vt 0.124500 0.013377
vt 0.567349 0.469003
vt 0.570908 0.498409
vt 0.563791 0.498409
vt 0.141840 0.038602
vt 0.967003 0.024456
vt 0.967003 0.020897
vt 0.995673 0.022677
vt 0.141840 0.061658
vt 0.138065 0.059879
vt 0.141840 0.059879
vt 0.138065 0.049241
vt 0.141840 0.051083
vt 0.138065 0.051083
vt 0.141840 0.052925
vt 0.138065 0.052925
vt 0.141840 0.054767
vt 0.138065 0.054767
vt 0.141840 0.049241
vt 0.138065 0.047398
vt 0.141840 0.047399
vt 0.138065 0.045556
vt 0.141840 0.045556
vt 0.141840 0.043714
vt 0.138066 0.043714
vt 0.961891 0.026235
vt 0.958809 0.024455
vt 0.961891 0.019117
vt 0.570432 0.505301
vt 0.567350 0.507080
vt 0.564268 0.505301
vt 0.267497 0.048776
vt 0.280075 0.145565
vt 0.269863 0.152891
vt 0.229875 0.014721
vt 0.231219 0.011291
vt 0.234098 0.008991
vt 0.659559 0.784259
vt 0.480890 0.774211
vt 0.652009 0.774211
vt 0.659559 0.764162
vt 0.473340 0.764162
vt 0.652009 0.794307
vt 0.473340 0.784259
vt 0.652009 0.754114
vt 0.290036 0.019719
vt 0.288243 0.048305
vt 0.273258 0.020189
vt 0.277870 0.048541
vt 0.305900 0.019359
vt 0.308989 0.047834
vt 0.250937 0.298752
vt 0.254026 0.270277
vt 0.218294 0.297922
vt 0.124500 0.085104
vt 0.281190 0.020009
vt 0.023049 0.078012
vt 0.226227 0.298102
vt 0.225434 0.158364
vt 0.234759 0.043140
vt 0.231793 0.040954
vt 0.230318 0.037577
vt 0.230113 0.036226
vt 0.230523 0.032565
vt 0.232709 0.029598
vt 0.243408 0.028943
vt 0.246662 0.030739
vt 0.249340 0.033316
vt 0.280397 0.159746
vt 0.219902 0.024258
vt 0.274865 0.293853
vt 0.314629 0.294621
vt 0.298254 0.295268
vt 0.289061 0.309119
vt 0.284838 0.303389
vt 0.286182 0.306820
vt 0.284686 0.302031
vt 0.285237 0.298388
vt 0.287537 0.295509
vt 0.301436 0.297188
vt 0.304013 0.299866
vt 0.289723 0.274971
vt 0.286756 0.277157
vt 0.307255 0.278042
vt 0.301625 0.287372
vt 0.304303 0.284795
vt 0.306224 0.281613
vt 0.298371 0.289167
vt 0.287673 0.288512
vt 0.285486 0.285546
vt 0.285281 0.280533
vt 0.563816 0.424691
vt 0.556699 0.424691
vt 0.558478 0.421609
vt 0.562037 0.421609
vt 0.987002 0.011117
vt 0.992114 0.004000
vt 0.987002 0.004000
vt 0.995196 0.005780
vt 0.995673 0.007559
vt 0.995196 0.009338
vt 0.005709 0.043990
vt 0.214900 0.165220
vt 0.314131 0.274089
vt 0.967003 0.019117
vt 0.967003 0.026235
vt 0.960112 0.025758
vt 0.958332 0.022676
vt 0.958809 0.020897
vt 0.960112 0.019594
vt 0.563791 0.503521
vt 0.570908 0.503521
vt 0.569129 0.506603
vt 0.565570 0.506603
vt 0.243291 0.022843
vt 0.251737 0.011383
vt 0.250845 0.014991
vt 0.249049 0.018245
vt 0.246473 0.020923
vt 0.232573 0.022602
vt 0.230274 0.019723
vt 0.229723 0.016079
vt 0.480890 0.794307
vt 0.480890 0.754114
s 1
usemtl MovingParts
f 2/1/1 7/2/1 8/3/1
f 7/2/1 23/4/1 26/5/1
f 6/6/2 3/7/2 9/8/2
f 15/9/2 6/6/2 12/10/2
f 2/11/3 23/12/4 5/13/5
f 3/14/6 4/15/7 15/16/8
f 11/17/9 3/18/6 6/19/10
f 10/20/11 23/12/4 7/21/12
f 2/22/3 10/20/11 7/23/12
f 118/24/13 11/17/9 15/16/8
f 15/16/8 11/17/9 6/25/10
f 54/26/14 49/27/14 15/16/14
f 112/28/15 10/20/11 2/22/3
f 4/15/7 3/29/6 117/30/16
f 12/31/17 17/32/18 15/33/17
f 21/34/18 18/35/19 17/32/18
f 18/35/19 19/36/20 16/37/20
f 27/38/21 24/39/22 22/40/21
f 24/39/22 28/41/23 25/42/23
f 25/42/23 26/43/24 23/44/24
f 30/45/25 35/46/26 31/47/26
f 31/47/26 34/48/27 32/49/27
f 32/49/27 13/50/28 48/51/29
f 55/52/28 37/53/27 14/54/30
f 41/55/27 38/56/31 37/53/27
f 40/57/31 36/58/32 38/56/31
f 16/37/20 33/59/25 30/45/25
f 22/40/21 39/60/32 27/38/21
f 121/61/33 84/62/34 82/63/35
f 55/52/28 47/64/36 57/65/36
f 57/65/36 46/66/37 58/67/37
f 58/67/37 45/68/38 59/69/38
f 59/69/38 44/70/39 60/71/39
f 60/71/39 43/72/40 61/73/40
f 61/73/40 42/74/41 56/75/41
f 49/76/42 63/77/43 62/78/42
f 54/79/43 64/80/44 63/77/43
f 53/81/44 65/82/45 64/80/44
f 52/83/45 66/84/37 65/82/45
f 51/85/37 67/86/36 66/84/37
f 50/87/36 13/50/28 67/86/36
f 2/88/46 56/75/41 42/74/41
f 3/89/47 62/78/42 9/90/47
f 61/91/14 56/92/14 7/2/14
f 85/93/48 84/94/34 121/95/33
f 14/54/49 36/96/49 23/12/49
f 81/97/50 1/98/50 71/99/50
f 73/100/14 68/101/14 110/102/14
f 75/103/49 77/104/49 70/105/49
f 79/106/46 74/107/46 80/108/46
f 72/109/51 78/110/52 68/111/53
f 75/112/54 72/109/51 73/113/54
f 77/114/55 73/113/54 74/107/55
f 69/115/56 68/111/53 78/110/52
f 70/116/57 109/117/56 69/115/56
f 71/99/58 110/118/57 70/116/57
f 11/17/9 117/119/16 3/18/6
f 82/63/59 84/62/59 81/97/59
f 83/120/60 86/121/61 82/122/35
f 80/108/62 83/123/62 79/106/62
f 85/124/48 80/125/63 84/126/34
f 10/20/11 111/127/64 23/12/4
f 5/13/5 23/12/4 111/127/64
f 120/128/65 113/129/49 86/130/61
f 112/131/15 5/13/5 87/132/66
f 89/133/67 92/134/68 122/135/69
f 87/136/66 92/137/68 93/138/70
f 92/134/59 89/133/59 91/139/59
f 90/140/71 89/141/67 88/142/72
f 90/143/62 93/144/62 94/145/62
f 102/146/53 108/147/51 104/148/51
f 104/148/51 107/149/73 105/150/73
f 105/150/73 106/151/74 103/152/74
f 95/153/53 101/154/56 97/155/56
f 97/155/56 100/156/57 98/157/57
f 100/156/57 96/158/58 98/157/57
f 91/139/50 99/159/50 92/134/50
f 106/160/14 108/161/14 96/162/14
f 100/163/49 102/164/49 105/165/49
f 94/145/47 103/152/47 106/151/47
f 119/166/75 115/167/14 112/168/15
f 19/169/49 20/170/49 21/171/49
f 112/172/76 114/173/77 116/174/77
f 111/175/50 114/173/77 118/176/50
f 115/177/53 117/178/76 112/172/76
f 118/176/50 115/179/53 111/175/50
f 92/180/68 87/132/66 122/181/69
f 115/167/14 122/181/69 111/127/64
f 90/182/71 88/183/72 119/166/75
f 93/184/70 119/185/75 87/132/66
f 121/95/33 113/129/49 118/24/13
f 85/93/48 121/95/33 118/24/13
f 80/186/63 85/93/48 120/187/65
f 120/128/65 86/130/61 83/188/60
f 93/144/70 90/143/71 119/189/75
f 88/183/72 89/190/67 122/181/69
f 80/108/63 120/191/65 83/123/60
f 86/130/61 121/95/33 82/192/35
f 118/24/13 114/193/49 11/17/9
f 49/27/14 3/14/14 15/16/14
f 15/16/14 17/194/14 18/195/14
f 18/195/14 16/196/14 15/16/14
f 16/196/14 30/197/14 15/16/14
f 30/197/14 31/198/14 32/199/14
f 32/199/14 48/51/14 30/197/14
f 48/51/14 50/87/14 15/16/14
f 30/197/14 48/51/14 15/16/14
f 50/87/14 51/200/14 15/16/14
f 51/200/14 52/201/14 15/16/14
f 52/201/14 53/202/14 15/16/14
f 53/202/14 54/26/14 15/16/14
f 112/28/15 116/203/14 10/20/11
f 120/187/65 85/93/48 117/30/16
f 85/93/48 4/15/7 117/30/16
f 12/31/17 21/34/18 17/32/18
f 21/34/18 20/204/19 18/35/19
f 18/35/19 20/204/19 19/36/20
f 27/38/21 29/205/22 24/39/22
f 24/39/22 29/205/22 28/41/23
f 25/42/23 28/41/23 26/43/24
f 30/45/25 33/59/25 35/46/26
f 31/47/26 35/46/26 34/48/27
f 32/49/27 34/48/27 13/50/28
f 55/52/28 41/55/27 37/53/27
f 41/55/27 40/57/31 38/56/31
f 40/57/31 39/60/32 36/58/32
f 16/37/20 19/36/20 33/59/25
f 22/40/21 36/58/32 39/60/32
f 55/52/28 14/54/30 47/64/36
f 57/65/36 47/64/36 46/66/37
f 58/67/37 46/66/37 45/68/38
f 59/69/38 45/68/38 44/70/39
f 60/71/39 44/70/39 43/72/40
f 61/73/40 43/72/40 42/74/41
f 49/76/42 54/79/43 63/77/43
f 54/79/43 53/81/44 64/80/44
f 53/81/44 52/83/45 65/82/45
f 52/83/45 51/85/37 66/84/37
f 51/85/37 50/87/36 67/86/36
f 50/87/36 48/51/29 13/50/28
f 2/88/46 8/206/46 56/75/41
f 3/89/47 49/76/42 62/78/42
f 56/92/14 8/3/14 7/2/14
f 7/2/14 26/5/14 58/207/14
f 26/5/14 28/208/14 27/209/14
f 58/207/14 26/5/14 57/65/14
f 28/208/14 29/210/14 27/209/14
f 27/209/14 39/211/14 55/52/14
f 39/211/14 40/212/14 55/52/14
f 40/212/14 41/213/14 55/52/14
f 55/52/14 57/65/14 26/5/14
f 55/52/14 26/5/14 27/209/14
f 58/207/14 59/214/14 7/2/14
f 59/214/14 60/215/14 7/2/14
f 60/215/14 61/91/14 7/2/14
f 25/216/49 23/12/49 24/217/49
f 23/12/49 2/11/49 42/218/49
f 45/219/49 23/12/49 44/220/49
f 42/218/49 43/221/49 23/12/49
f 43/221/49 44/220/49 23/12/49
f 45/219/49 46/222/49 23/12/49
f 46/222/49 47/64/49 23/12/49
f 47/64/49 14/54/49 23/12/49
f 14/54/49 37/223/49 36/96/49
f 37/223/49 38/224/49 36/96/49
f 36/96/49 22/225/49 23/12/49
f 22/225/49 24/217/49 23/12/49
f 81/97/50 84/62/50 1/98/50
f 1/226/14 84/126/14 80/125/14
f 80/125/14 74/227/14 1/226/14
f 74/227/14 73/100/14 110/102/14
f 73/100/14 72/228/14 68/101/14
f 68/101/14 109/229/14 110/102/14
f 110/102/14 1/226/14 74/227/14
f 77/104/49 79/230/49 83/120/49
f 83/120/49 82/122/49 71/231/49
f 82/122/49 81/232/49 71/231/49
f 83/120/49 71/231/49 77/104/49
f 71/231/49 70/105/49 77/104/49
f 70/105/49 69/233/49 75/103/49
f 69/233/49 78/234/49 75/103/49
f 78/234/49 76/235/49 75/103/49
f 79/106/46 77/114/46 74/107/46
f 72/109/51 76/236/51 78/110/52
f 75/112/54 76/236/51 72/109/51
f 77/114/55 75/112/54 73/113/54
f 69/115/56 109/117/56 68/111/53
f 70/116/57 110/118/57 109/117/56
f 71/99/58 1/98/58 110/118/57
f 11/17/9 114/193/49 117/119/16
f 10/20/11 116/203/14 111/127/64
f 122/181/69 87/132/66 111/127/64
f 87/132/66 5/13/5 111/127/64
f 120/128/65 117/237/16 113/129/49
f 87/132/66 119/185/75 112/131/15
f 112/131/15 2/238/3 5/13/5
f 102/146/53 95/153/53 108/147/51
f 104/148/51 108/147/51 107/149/73
f 105/150/73 107/149/73 106/151/74
f 95/153/53 102/146/53 101/154/56
f 97/155/56 101/154/56 100/156/57
f 100/156/57 99/159/58 96/158/58
f 91/139/50 96/158/50 99/159/50
f 91/239/14 89/141/14 96/162/14
f 89/141/14 90/140/14 96/162/14
f 90/140/14 94/240/14 106/160/14
f 106/160/14 107/241/14 108/161/14
f 108/161/14 95/242/14 97/243/14
f 97/243/14 98/244/14 108/161/14
f 98/244/14 96/162/14 108/161/14
f 90/140/14 106/160/14 96/162/14
f 103/245/49 93/138/49 92/137/49
f 92/137/49 99/246/49 103/245/49
f 99/246/49 100/163/49 105/165/49
f 100/163/49 101/247/49 102/164/49
f 102/164/49 104/248/49 105/165/49
f 105/165/49 103/245/49 99/246/49
f 94/145/47 93/144/47 103/152/47
f 119/166/75 88/183/72 115/167/14
f 21/171/49 12/10/49 19/169/49
f 12/10/49 6/6/49 66/249/49
f 6/6/49 9/8/49 62/250/49
f 62/250/49 63/251/49 6/6/49
f 63/251/49 64/252/49 6/6/49
f 64/252/49 65/253/49 6/6/49
f 65/253/49 66/249/49 6/6/49
f 66/249/49 67/86/49 12/10/49
f 67/86/49 13/50/49 12/10/49
f 12/10/49 13/50/49 19/169/49
f 13/50/49 34/254/49 35/255/49
f 35/255/49 33/256/49 13/50/49
f 33/256/49 19/169/49 13/50/49
f 112/172/76 117/178/76 114/173/77
f 111/175/50 116/174/77 114/173/77
f 115/177/53 113/257/53 117/178/76
f 118/176/50 113/258/53 115/179/53
f 115/167/14 88/183/72 122/181/69
f 121/95/33 86/130/61 113/129/49
f 15/16/8 4/15/7 118/24/13
f 4/15/7 85/93/48 118/24/13
