# Blender 5.0.1
# www.blender.org
mtllib pantograph_piston.mtl
o PantographPistonExport
g pantograph_piston
v 0.021213 0.021213 -0.097701
v 0.021213 -0.021213 -0.097701
v -0.021213 -0.021213 -0.097701
v -0.021213 0.021213 -0.097701
v 0.000000 0.030000 -0.392758
v 0.021213 0.021213 -0.392758
v 0.030000 0.000000 -0.392758
v 0.021213 -0.021213 -0.392758
v 0.000000 -0.030000 -0.392758
v -0.021213 -0.021213 -0.392758
v -0.030000 0.000000 -0.392758
v -0.021213 0.021213 -0.392758
v 0.030000 0.030003 -0.097704
v 0.000000 0.030002 -0.097702
v 0.030000 0.000000 -0.097702
v 0.030000 -0.029997 -0.097704
v 0.000000 -0.030000 -0.097702
v -0.030000 -0.029997 -0.097704
v -0.030000 -0.000000 -0.097702
v -0.030000 0.030003 -0.097704
v -0.010000 -0.029997 -0.069147
v 0.010000 -0.029997 -0.069147
v 0.010000 0.030003 -0.069147
v -0.010000 0.030003 -0.069147
v 0.030000 0.030003 0.024998
v 0.030000 0.025003 0.029998
v 0.030000 0.028539 0.028534
v 0.030000 -0.024997 0.029998
v 0.030000 -0.029997 0.024998
v 0.030000 -0.028533 0.028534
v 0.010000 -0.029997 0.024998
v 0.010000 -0.024997 0.029998
v 0.010000 -0.028533 0.028534
v -0.030000 -0.029997 0.024998
v -0.030000 -0.024997 0.029998
v -0.030000 -0.028533 0.028534
v -0.030000 0.025003 0.029998
v -0.030000 0.030003 0.024998
v -0.030000 0.028539 0.028534
v -0.010000 0.030003 0.024998
v -0.010000 0.025003 0.029998
v -0.010000 0.028539 0.028534
v -0.010000 -0.024997 0.029998
v -0.010000 -0.029997 0.024998
v -0.010000 -0.028533 0.028534
v 0.010000 0.025003 0.029998
v 0.010000 0.030003 0.024998
v 0.010000 0.028539 0.028534
vn -0.0000 1.0000 -0.0000
vn 0.7071 0.7071 -0.0000
vn 1.0000 -0.0000 -0.0000
vn 0.7071 -0.7071 -0.0000
vn -0.0000 -1.0000 -0.0000
vn -0.7071 -0.7071 -0.0000
vn -1.0000 -0.0000 -0.0000
vn -0.7071 0.7071 -0.0000
vn 0.0002 -0.0002 -1.0000
vn 0.0001 -0.0003 -1.0000
vn -0.0002 -0.0002 -1.0000
vn -0.0003 -0.0000 -1.0000
vn -0.0002 0.0002 -1.0000
vn -0.0001 0.0003 -1.0000
vn 0.0002 0.0002 -1.0000
vn 0.0003 0.0001 -1.0000
vn -0.0000 -0.0000 1.0000
vn -0.0000 -0.9808 0.1951
vn -0.0000 -0.7071 0.7071
vn -0.0000 -0.1951 0.9808
vn -0.0000 0.9808 0.1951
vn -0.0000 0.7071 0.7071
vn -0.0000 0.1951 0.9808
vn -0.0001 -1.0000 -0.0000
vn -0.0000 -1.0000 0.0001
vn 0.0003 -0.0001 -1.0000
vn -0.0001 -0.0003 -1.0000
vn 0.0001 0.0003 -1.0000
vn 0.0001 -1.0000 -0.0000
vt 0.553178 0.257086
vt 0.549676 0.212085
vt 0.553178 0.212085
vt 0.546174 0.257086
vt 0.546174 0.212085
vt 0.542673 0.212085
vt 0.539171 0.257086
vt 0.539171 0.212085
vt 0.535669 0.212085
vt 0.532167 0.257086
vt 0.532167 0.212085
vt 0.528665 0.212085
vt 0.525163 0.257086
vt 0.525163 0.212085
vt 0.376646 0.489661
vt 0.375306 0.488320
vt 0.379881 0.488320
vt 0.383116 0.489661
vt 0.384457 0.488320
vt 0.384456 0.492896
vt 0.383117 0.439592
vt 0.384457 0.440932
vt 0.379881 0.440932
vt 0.376646 0.439592
vt 0.375306 0.440932
vt 0.375306 0.436357
vt 0.976503 0.075683
vt 0.973453 0.084834
vt 0.973453 0.075683
vt 0.384457 0.459646
vt 0.381406 0.460230
vt 0.381406 0.459646
vt 0.384457 0.460230
vt 0.381406 0.460813
vt 0.378356 0.469606
vt 0.375306 0.469023
vt 0.378356 0.469023
vt 0.378356 0.468439
vt 0.378356 0.459646
vt 0.375306 0.460230
vt 0.375306 0.459646
vt 0.378356 0.460230
vt 0.375306 0.460813
vt 0.384457 0.469606
vt 0.381406 0.469023
vt 0.384457 0.469023
vt 0.384457 0.468439
vt 0.381406 0.468439
vt 0.384457 0.460813
vt 0.381406 0.483965
vt 0.378356 0.445287
vt 0.958332 0.076445
vt 0.958555 0.075906
vt 0.959095 0.075683
vt 0.375306 0.468439
vt 0.378356 0.460813
vt 0.374543 0.460408
vt 0.366155 0.459646
vt 0.991625 0.084071
vt 0.991401 0.084610
vt 0.990862 0.084834
vt 0.392845 0.460408
vt 0.393608 0.459646
vt 0.549676 0.257086
vt 0.542673 0.257086
vt 0.535669 0.257086
vt 0.528665 0.257086
vt 0.375306 0.492896
vt 0.384457 0.436357
vt 0.976503 0.084834
vt 0.375306 0.469606
vt 0.381406 0.469606
vt 0.378356 0.483965
vt 0.381406 0.445287
vt 0.959095 0.084834
vt 0.958555 0.084610
vt 0.958332 0.084071
vt 0.370731 0.440932
vt 0.375082 0.460185
vt 0.366917 0.460408
vt 0.366378 0.460185
vt 0.366155 0.440932
vt 0.990862 0.075683
vt 0.991401 0.075906
vt 0.991625 0.076445
vt 0.389032 0.440932
vt 0.393608 0.440932
vt 0.393384 0.460185
vt 0.385219 0.460408
vt 0.384680 0.460185
s 1
usemtl MovingParts
f 14/1/1 6/2/2 5/3/1
f 6/2/2 15/4/3 7/5/3
f 15/4/3 8/6/4 7/5/3
f 8/6/4 17/7/5 9/8/5
f 17/7/5 10/9/6 9/8/5
f 10/9/6 19/10/7 11/11/7
f 19/10/7 12/12/8 11/11/7
f 12/12/8 14/13/1 5/14/1
f 4/15/9 20/16/9 14/17/10
f 1/18/11 13/19/11 15/20/12
f 2/21/13 16/22/13 17/23/14
f 3/24/15 18/25/15 19/26/16
f 24/27/17 22/28/17 23/29/17
f 29/30/18 33/31/19 31/32/18
f 30/33/19 32/34/20 33/31/19
f 40/35/21 39/36/22 42/37/22
f 39/36/22 41/38/23 42/37/22
f 44/39/18 36/40/19 34/41/18
f 45/42/19 35/43/20 36/40/19
f 25/44/21 48/45/22 27/46/22
f 48/45/22 26/47/23 27/46/22
f 46/48/23 28/49/20 26/47/23
f 23/50/1 13/19/1 14/17/1
f 21/51/5 18/25/24 17/23/25
f 46/52/7 48/53/7 47/54/7
f 37/55/23 43/56/20 41/38/23
f 34/41/7 35/57/7 38/58/7
f 43/59/3 45/60/3 44/61/3
f 26/62/3 29/30/3 25/63/3
f 14/1/1 1/64/2 6/2/2
f 6/2/2 1/64/2 15/4/3
f 15/4/3 2/65/4 8/6/4
f 8/6/4 2/65/4 17/7/5
f 17/7/5 3/66/6 10/9/6
f 10/9/6 3/66/6 19/10/7
f 19/10/7 4/67/8 12/12/8
f 12/12/8 4/67/8 14/13/1
f 4/15/9 19/68/26 20/16/9
f 1/18/11 14/17/27 13/19/11
f 2/21/13 15/69/12 16/22/13
f 3/24/15 17/23/28 18/25/15
f 24/27/17 21/70/17 22/28/17
f 29/30/18 30/33/19 33/31/19
f 30/33/19 28/49/20 32/34/20
f 40/35/21 38/71/21 39/36/22
f 39/36/22 37/55/23 41/38/23
f 44/39/18 45/42/19 36/40/19
f 45/42/19 43/56/20 35/43/20
f 25/44/21 47/72/21 48/45/22
f 48/45/22 46/48/23 26/47/23
f 46/48/23 32/34/20 28/49/20
f 20/16/1 38/71/21 24/73/1
f 38/71/21 40/35/21 24/73/1
f 14/17/1 20/16/1 24/73/1
f 23/50/1 47/72/21 25/44/21
f 14/17/1 24/73/1 23/50/1
f 23/50/1 25/44/21 13/19/1
f 16/22/29 29/30/18 22/74/5
f 29/30/18 31/32/18 22/74/5
f 17/23/25 16/22/29 22/74/5
f 21/51/5 44/39/18 34/41/18
f 17/23/25 22/74/5 21/51/5
f 21/51/5 34/41/18 18/25/24
f 47/54/7 23/29/7 22/28/7
f 22/28/7 31/75/7 47/54/7
f 31/75/7 33/76/7 32/77/7
f 47/54/7 31/75/7 46/52/7
f 32/77/7 46/52/7 31/75/7
f 37/55/23 35/43/20 43/56/20
f 19/78/7 18/25/7 34/41/7
f 34/41/7 36/79/7 35/57/7
f 35/57/7 37/80/7 38/58/7
f 37/80/7 39/81/7 38/58/7
f 38/58/7 20/82/7 19/78/7
f 34/41/7 38/58/7 19/78/7
f 44/61/3 21/70/3 24/27/3
f 24/27/3 40/83/3 44/61/3
f 40/83/3 42/84/3 41/85/3
f 44/61/3 40/83/3 43/59/3
f 41/85/3 43/59/3 40/83/3
f 29/30/3 16/22/3 15/86/3
f 15/86/3 13/87/3 25/63/3
f 25/63/3 27/88/3 26/62/3
f 26/62/3 28/89/3 29/30/3
f 28/89/3 30/90/3 29/30/3
f 29/30/3 15/86/3 25/63/3
