# Blender 5.0.1
# www.blender.org
mtllib pantograph_upper_back_frame.mtl
o PantographUpperBackFrameExport
g pantograph_upper_back_frame
v -0.509997 0.042575 1.395574
v -0.599997 0.042575 1.395574
v 0.599997 0.042575 1.395573
v 0.509997 0.042575 1.395573
v 0.554998 0.063786 1.564985
v 0.577497 0.031967 1.564984
v -0.577497 0.053180 1.564984
v -0.554997 0.085001 0.046587
v 0.554997 0.085001 0.046588
v 0.599997 0.042575 0.154069
v -0.599997 0.042575 0.154069
v 0.530096 0.042575 0.046590
v -0.530096 0.042575 0.046590
v -0.530096 0.085005 0.046589
v 0.530096 0.085005 0.046589
v -0.509997 0.042575 0.154069
v 0.509997 0.042575 0.154069
v 0.530096 0.000144 0.046589
v 0.530096 0.000145 -0.046417
v -0.554997 0.000145 -0.046418
v 0.554997 0.000148 0.046588
v 0.554997 -0.042282 0.004158
v 0.554997 -0.021067 0.040903
v 0.554997 -0.036597 0.025372
v 0.530096 -0.042286 0.004159
v 0.530096 -0.036601 0.025374
v 0.530096 -0.021071 0.040905
v -0.554997 -0.042281 0.004157
v -0.554997 0.000149 0.046587
v -0.554997 -0.036597 0.025372
v -0.554997 -0.021066 0.040903
v -0.530096 0.000144 0.046589
v -0.530096 -0.042286 0.004159
v -0.530096 -0.021071 0.040905
v -0.530096 -0.036601 0.025374
v 0.554997 -0.042282 -0.003988
v 0.554997 -0.036597 -0.025203
v 0.554997 -0.021067 -0.040734
v 0.530096 -0.042286 -0.003986
v 0.530096 -0.021071 -0.040732
v 0.530096 -0.036601 -0.025202
v -0.554997 -0.042281 -0.003988
v -0.554997 -0.021066 -0.040734
v -0.554997 -0.036597 -0.025203
v -0.530096 -0.042286 -0.003987
v -0.530096 -0.036601 -0.025202
v -0.530096 -0.021071 -0.040732
v -0.554997 0.085001 0.038442
v -0.554997 0.082110 0.016478
v -0.554997 0.073632 -0.003989
v -0.554997 0.060146 -0.021564
v -0.554997 0.042571 -0.035049
v -0.554997 0.022105 -0.043527
v 0.554997 0.000145 -0.046418
v 0.554997 0.085001 0.038442
v 0.554997 0.022105 -0.043527
v 0.554997 0.042571 -0.035049
v 0.554997 0.060146 -0.021563
v 0.554997 0.073632 -0.003988
v 0.554997 0.082110 0.016478
v -0.530096 0.000145 -0.046417
v -0.530096 0.085005 0.038443
v -0.530096 0.022108 -0.043525
v -0.530096 0.042575 -0.035048
v -0.530096 0.060150 -0.021562
v -0.530096 0.073636 -0.003987
v -0.530096 0.082114 0.016480
v 0.530096 0.085005 0.038443
v 0.530096 0.082113 0.016480
v 0.530096 0.073636 -0.003987
v 0.530096 0.060150 -0.021562
v 0.530096 0.042575 -0.035048
v 0.530096 0.022108 -0.043525
v 0.577497 0.053180 1.564984
v -0.577497 0.031967 1.564984
v 0.577498 0.063787 1.564985
v -0.577497 0.063787 1.564985
v -0.554997 0.063786 1.564985
v 0.554998 0.021360 1.564985
v 0.577498 0.021361 1.564985
v -0.554997 0.021360 1.564985
v -0.577497 0.021362 1.564985
v 0.577498 0.042574 1.616669
v 0.577498 0.021361 1.595454
v 0.577498 0.031969 1.613827
v 0.577498 0.024204 1.606061
v -0.577496 0.042574 1.616669
v -0.577497 0.063787 1.595454
v -0.577496 0.053179 1.613826
v -0.577497 0.060944 1.606061
v -0.554997 0.063786 1.595453
v -0.554997 0.060944 1.606061
v -0.554997 0.053179 1.613826
v 0.554998 0.021360 1.595454
v 0.554998 0.024202 1.606061
v 0.554998 0.031967 1.613826
v -0.554997 0.042573 1.616668
v -0.554997 0.021360 1.595453
v -0.554997 0.031968 1.613826
v -0.554997 0.024202 1.606061
v -0.577497 0.021362 1.595454
v -0.577497 0.024204 1.606061
v -0.577496 0.031969 1.613826
v 0.577498 0.063787 1.595454
v 0.577498 0.060944 1.606061
v 0.577498 0.053179 1.613827
v 0.554998 0.042573 1.616669
v 0.554998 0.063786 1.595454
v 0.554998 0.053179 1.613826
v 0.554998 0.060944 1.606061
v -0.509997 0.042575 0.817524
v -0.509997 0.042575 0.732119
v 0.509997 0.042575 0.817524
v 0.509997 0.042575 0.732119
v -0.554997 0.085001 0.774824
v 0.554997 0.085001 0.774824
v 0.554997 0.000148 0.774824
v -0.554997 0.000149 0.774824
v -0.554997 0.085001 1.395569
v 0.554998 0.085001 1.395569
v 0.554998 0.000148 1.395569
v -0.554997 0.000149 1.395569
vn -0.0001 -0.0000 1.0000
vn 0.0001 -0.0000 1.0000
vn -0.1467 0.8862 -0.4395
vn -0.1467 -0.8862 -0.4395
vn -0.9980 -0.0000 -0.0635
vn 0.1468 0.8862 -0.4395
vn 0.9980 -0.0000 -0.0635
vn 0.1468 -0.8862 -0.4395
vn -0.9995 -0.0000 -0.0302
vn -0.9830 -0.0000 -0.1838
vn 0.9995 -0.0000 -0.0302
vn 0.9830 -0.0000 -0.1838
vn -0.2191 0.9757 -0.0000
vn 0.2191 -0.9757 -0.0000
vn 0.0001 -0.2588 0.9659
vn 0.0001 -0.5000 0.8660
vn 0.0002 -0.8660 0.5000
vn 0.0002 -0.9914 0.1305
vn -0.0002 -0.9914 0.1305
vn -0.0002 -0.8660 0.5000
vn -0.0001 -0.5000 0.8660
vn -0.0001 -0.2588 0.9659
vn 0.0002 -0.9914 -0.1305
vn 0.0001 -0.8660 -0.5000
vn -0.0000 -0.5000 -0.8660
vn -0.0000 -0.0654 -0.9979
vn -0.0001 -0.0654 -0.9979
vn 0.0001 -0.0654 -0.9979
vn -0.0001 -0.8660 -0.5000
vn -0.0002 -0.9914 -0.1305
vn 0.9975 -0.0000 0.0713
vn 0.4665 -0.8369 0.2862
vn 0.0066 -0.9989 0.0474
vn -1.0000 -0.0000 -0.0000
vn 1.0000 -0.0000 -0.0000
vn -0.0000 0.2588 -0.9659
vn -0.0000 0.5000 -0.8660
vn -0.0001 0.7071 -0.7071
vn -0.0001 0.8660 -0.5000
vn -0.0001 0.9659 -0.2588
vn -0.0001 0.9979 -0.0654
vn 0.0001 0.9979 -0.0654
vn 0.0001 0.9659 -0.2588
vn 0.0001 0.8660 -0.5000
vn 0.0001 0.7071 -0.7071
vn -0.0001 1.0000 -0.0000
vn 0.0001 1.0000 -0.0000
vn -0.9975 -0.0000 0.0713
vn -0.4665 -0.8369 0.2862
vn -0.4665 0.8369 0.2862
vn -0.0000 -0.0001 -1.0000
vn 0.8333 -0.5366 0.1325
vn 0.9994 -0.0000 0.0346
vn 0.8333 0.5366 0.1325
vn 0.4665 0.8369 0.2862
vn -0.0000 0.0001 -1.0000
vn -0.8333 -0.5366 0.1325
vn -0.8333 0.5366 0.1325
vn -0.9994 -0.0000 0.0346
vn -0.0000 0.9659 0.2588
vn -0.0000 0.8660 0.5000
vn -0.0000 0.5000 0.8660
vn -0.0000 -0.0000 1.0000
vn -0.0000 -0.5000 0.8660
vn -0.0001 -0.8660 0.5000
vn -0.0000 -0.8660 0.5000
vn -0.0001 -0.9659 0.2588
vn 0.0001 -0.9659 0.2588
vn 0.0001 -0.8660 0.5000
vn 0.0001 -1.0000 -0.0000
vn -0.0000 1.0000 -0.0000
vn -0.0001 -1.0000 -0.0000
vn -0.0066 -0.9989 0.0474
vn -0.0066 0.9989 0.0474
vn 0.0066 0.9989 0.0474
vn -0.2191 -0.9757 -0.0000
vn -0.0000 -1.0000 -0.0000
vn -0.0000 -0.0000 -1.0000
vn 0.2191 0.9757 -0.0000
vt 0.324540 0.006103
vt 0.332077 0.009461
vt 0.325004 0.010253
vt 0.338684 0.004518
vt 0.339150 0.008669
vt 0.124707 0.379948
vt 0.121348 0.372411
vt 0.125499 0.372875
vt 0.119763 0.386555
vt 0.123914 0.387021
vt 0.324398 0.041642
vt 0.338470 0.043773
vt 0.328509 0.062032
vt 0.156888 0.372269
vt 0.177278 0.376380
vt 0.159018 0.386342
vt 0.176806 0.397122
vt 0.158547 0.407084
vt 0.158546 0.398832
vt 0.349251 0.061561
vt 0.346714 0.043397
vt 0.359213 0.043301
vt 0.350961 0.043300
vt 0.158642 0.394585
vt 0.361988 0.165421
vt 0.281138 0.389116
vt 0.139874 0.412224
vt 0.143978 0.408459
vt 0.144050 0.412143
vt 0.139801 0.408541
vt 0.143906 0.404776
vt 0.139658 0.401174
vt 0.143834 0.401093
vt 0.353303 0.024412
vt 0.356905 0.028660
vt 0.353222 0.028588
vt 0.360670 0.024556
vt 0.360588 0.028732
vt 0.364353 0.024628
vt 0.364272 0.028804
vt 0.143807 0.399727
vt 0.139560 0.396125
vt 0.143736 0.396043
vt 0.139489 0.392441
vt 0.143665 0.392360
vt 0.139418 0.388758
vt 0.143594 0.388677
vt 0.340887 0.024172
vt 0.344489 0.028419
vt 0.340806 0.028348
vt 0.344570 0.024243
vt 0.348172 0.028490
vt 0.348254 0.024314
vt 0.351856 0.028562
vt 0.139631 0.399808
vt 0.353982 0.269752
vt 0.346699 0.298459
vt 0.343611 0.269987
vt 0.351937 0.024386
vt 0.130195 0.394886
vt 0.126764 0.393542
vt 0.124466 0.390664
vt 0.151967 0.373505
vt 0.155537 0.372474
vt 0.337092 0.028276
vt 0.337172 0.024100
vt 0.333376 0.028205
vt 0.333456 0.024028
vt 0.329661 0.028133
vt 0.329741 0.023957
vt 0.325946 0.028061
vt 0.326026 0.023885
vt 0.322231 0.027989
vt 0.322311 0.023813
vt 0.318516 0.027918
vt 0.318596 0.023742
vt 0.143163 0.366387
vt 0.139059 0.370182
vt 0.138987 0.366467
vt 0.143235 0.370102
vt 0.139130 0.373897
vt 0.143307 0.373817
vt 0.139202 0.377612
vt 0.143378 0.377532
vt 0.139274 0.381328
vt 0.143450 0.381248
vt 0.139346 0.385043
vt 0.143522 0.384963
vt 0.317150 0.027891
vt 0.143137 0.365021
vt 0.138961 0.365101
vt 0.567350 0.249994
vt 0.563792 0.220592
vt 0.570908 0.220592
vt 0.130974 0.442854
vt 0.134748 0.441075
vt 0.134748 0.442854
vt 0.986998 0.054688
vt 0.958332 0.052909
vt 0.986998 0.051130
vt 0.570896 0.406019
vt 0.567338 0.376617
vt 0.574454 0.376617
vt 0.019275 0.343565
vt 0.023049 0.341787
vt 0.023049 0.343566
vt 0.986998 0.036014
vt 0.986998 0.039572
vt 0.958332 0.037793
vt 0.134749 0.465906
vt 0.130974 0.464127
vt 0.134749 0.464127
vt 0.023048 0.366617
vt 0.019274 0.364838
vt 0.023048 0.364838
vt 0.134748 0.459016
vt 0.130974 0.457174
vt 0.134748 0.457174
vt 0.130974 0.455332
vt 0.134748 0.455332
vt 0.134748 0.453491
vt 0.019274 0.354202
vt 0.023048 0.356044
vt 0.019274 0.356044
vt 0.023048 0.357886
vt 0.019274 0.357886
vt 0.023048 0.359728
vt 0.019274 0.359728
vt 0.134748 0.447965
vt 0.130974 0.449807
vt 0.130974 0.447965
vt 0.134748 0.449807
vt 0.130974 0.451649
vt 0.134748 0.451649
vt 0.130974 0.453491
vt 0.023048 0.354202
vt 0.019275 0.352360
vt 0.023049 0.352360
vt 0.019275 0.350518
vt 0.023049 0.350518
vt 0.023049 0.348676
vt 0.993888 0.055991
vt 0.992109 0.056467
vt 0.993888 0.049828
vt 0.019275 0.348676
vt 0.992109 0.034235
vt 0.995190 0.036014
vt 0.992109 0.041351
vt 0.567815 0.369727
vt 0.570896 0.367948
vt 0.573978 0.369727
vt 0.564269 0.213702
vt 0.567350 0.211923
vt 0.570432 0.213702
vt 0.130974 0.459016
vt 0.117410 0.417631
vt 0.117410 0.489350
vt 0.351779 0.172817
vt 0.364353 0.269516
vt 0.384997 0.401853
vt 0.413344 0.410432
vt 0.384761 0.412224
vt 0.341245 0.165893
vt 0.326049 0.015219
vt 0.325156 0.011611
vt 0.346777 0.036450
vt 0.322868 0.270458
vt 0.333239 0.270223
vt 0.329920 0.298752
vt 0.755692 0.619216
vt 0.765789 0.797853
vt 0.755692 0.790305
vt 0.785984 0.797853
vt 0.796080 0.619216
vt 0.796080 0.790305
vt 0.288063 0.399650
vt 0.385232 0.391482
vt 0.775886 0.619216
vt 0.785984 0.611668
vt 0.775886 0.790305
vt 0.280667 0.409859
vt 0.385469 0.381111
vt 0.281609 0.368374
vt 0.385704 0.370739
vt 0.413704 0.394570
vt 0.280667 0.409859
vt 0.337851 0.298572
vt 0.320503 0.166364
vt 0.362561 0.298099
vt 0.413997 0.377792
vt 0.413817 0.385722
vt 0.005710 0.318342
vt 0.005710 0.390062
vt 0.351454 0.158496
vt 0.273741 0.399325
vt 0.139729 0.404858
vt 0.356986 0.024484
vt 0.138315 0.381473
vt 0.126857 0.373028
vt 0.130464 0.373920
vt 0.133717 0.375715
vt 0.136395 0.378291
vt 0.138074 0.392188
vt 0.135195 0.394487
vt 0.131552 0.395038
vt 0.158608 0.390003
vt 0.156422 0.392968
vt 0.153047 0.394444
vt 0.151696 0.394648
vt 0.148035 0.394238
vt 0.145069 0.392052
vt 0.144414 0.381356
vt 0.146209 0.378102
vt 0.148786 0.375424
vt 0.317230 0.023715
vt 0.986998 0.056467
vt 0.992109 0.049351
vt 0.986998 0.049351
vt 0.995190 0.051130
vt 0.995667 0.052909
vt 0.995190 0.054688
vt 0.986998 0.041351
vt 0.986998 0.034235
vt 0.993888 0.034712
vt 0.995667 0.037793
vt 0.995190 0.039572
vt 0.993888 0.040874
vt 0.574454 0.371506
vt 0.567338 0.371506
vt 0.569117 0.368425
vt 0.572675 0.368425
vt 0.570908 0.215482
vt 0.563792 0.215482
vt 0.565571 0.212400
vt 0.569129 0.212400
vt 0.361988 0.165421
vt 0.333602 0.023069
vt 0.342793 0.009220
vt 0.347015 0.014949
vt 0.345671 0.011519
vt 0.347167 0.016307
vt 0.346616 0.019950
vt 0.344317 0.022828
vt 0.330420 0.021150
vt 0.327844 0.018472
vt 0.342132 0.043363
vt 0.345097 0.041177
vt 0.324602 0.040292
vt 0.330231 0.030964
vt 0.327553 0.033540
vt 0.325633 0.036722
vt 0.333484 0.029169
vt 0.344181 0.029823
vt 0.346367 0.032789
vt 0.346573 0.037801
vt 0.765789 0.611668
vt 0.159490 0.365599
vt 0.317728 0.044244
s 1
usemtl MovingParts
f 8/1/1 13/2/1 14/3/1
f 13/2/1 29/4/1 32/5/1
f 12/6/2 9/7/2 15/8/2
f 21/9/2 12/6/2 18/10/2
f 8/11/3 29/12/4 11/13/5
f 9/14/6 10/15/7 21/16/8
f 17/17/9 9/18/6 12/19/10
f 16/20/11 29/12/4 13/21/12
f 8/22/3 16/20/11 13/23/12
f 21/16/8 17/17/9 12/24/10
f 115/25/13 16/20/11 8/22/3
f 117/26/14 17/17/9 21/16/8
f 18/27/15 23/28/16 21/29/15
f 27/30/16 24/31/17 23/28/16
f 24/31/17 25/32/18 22/33/18
f 33/34/19 30/35/20 28/36/19
f 30/35/20 34/37/21 31/38/21
f 31/38/21 32/39/22 29/40/22
f 36/41/23 41/42/24 37/43/24
f 37/43/24 40/44/25 38/45/25
f 38/45/25 19/46/26 54/47/27
f 61/48/26 43/49/25 20/50/28
f 47/51/25 44/52/29 43/49/25
f 46/53/29 42/54/30 44/52/29
f 22/33/18 39/55/23 36/41/23
f 1/56/31 81/57/32 122/58/33
f 28/36/19 45/59/30 33/34/19
f 25/60/34 26/61/34 27/62/34
f 60/63/35 55/64/35 21/16/35
f 61/48/26 53/65/36 63/66/36
f 63/66/36 52/67/37 64/68/37
f 64/68/37 51/69/38 65/70/38
f 65/70/38 50/71/39 66/72/39
f 66/72/39 49/73/40 67/74/40
f 67/74/40 48/75/41 62/76/41
f 55/77/42 69/78/43 68/79/42
f 60/80/43 70/81/44 69/78/43
f 59/82/44 71/83/45 70/81/44
f 58/84/45 72/85/37 71/83/45
f 57/86/37 73/87/36 72/85/37
f 56/88/36 19/46/26 73/87/36
f 8/89/46 62/76/41 48/75/41
f 9/90/47 68/79/42 15/91/47
f 4/92/48 79/93/49 5/94/50
f 79/95/51 6/96/51 80/97/51
f 6/98/52 3/99/53 74/100/54
f 1/101/31 78/102/55 81/103/32
f 78/104/56 7/105/56 77/106/56
f 75/107/57 7/108/58 2/109/59
f 74/110/56 5/111/56 76/112/56
f 75/113/51 81/114/51 82/115/51
f 104/116/60 110/117/61 105/118/61
f 105/118/61 109/119/62 106/120/62
f 109/119/62 83/121/63 106/120/62
f 97/122/63 103/123/64 99/124/64
f 99/124/64 102/125/65 100/126/66
f 100/126/66 101/127/67 98/128/67
f 84/129/68 95/130/69 94/131/68
f 86/132/69 96/133/64 95/130/69
f 85/134/64 107/135/63 96/133/64
f 87/136/63 93/137/62 89/138/62
f 89/138/62 92/139/61 90/140/61
f 92/139/61 88/141/60 90/140/61
f 80/97/70 94/131/70 79/95/70
f 86/142/35 84/143/35 105/144/35
f 77/106/71 91/145/71 78/104/71
f 101/146/34 103/147/34 88/148/34
f 92/149/35 97/150/35 100/151/35
f 95/152/34 107/153/34 110/154/34
f 82/115/72 98/128/72 101/127/72
f 76/112/71 108/155/71 104/116/71
f 6/96/52 79/95/49 121/156/73
f 120/157/74 5/111/50 74/110/54
f 111/158/35 119/159/75 1/56/31
f 4/160/48 5/161/50 120/162/74
f 16/20/11 118/163/76 29/12/4
f 67/164/35 62/165/35 13/2/35
f 11/13/5 29/12/4 118/163/76
f 20/50/34 42/166/34 29/12/34
f 119/167/75 2/168/59 7/169/58
f 113/170/63 115/171/71 111/172/63
f 118/173/77 113/174/63 111/175/63
f 113/176/34 121/177/73 4/160/48
f 118/173/77 114/178/78 117/179/77
f 115/171/71 114/178/78 112/180/78
f 17/17/9 116/181/79 9/18/6
f 3/182/53 121/177/73 117/26/14
f 116/183/79 120/184/74 3/182/53
f 79/185/49 4/160/48 121/177/73
f 113/176/34 120/162/74 116/186/79
f 75/187/57 2/168/59 122/58/33
f 2/168/59 119/167/75 115/188/13
f 78/189/55 1/56/31 119/159/75
f 111/158/35 122/58/33 118/163/76
f 3/182/53 120/184/74 74/190/54
f 3/182/53 6/191/52 121/177/73
f 78/104/55 119/192/75 7/105/58
f 81/114/32 75/113/57 122/193/33
f 115/25/13 112/194/35 16/20/11
f 117/26/14 114/195/34 17/17/9
f 18/27/15 27/30/16 23/28/16
f 27/30/16 26/196/17 24/31/17
f 24/31/17 26/196/17 25/32/18
f 33/34/19 35/197/20 30/35/20
f 30/35/20 35/197/20 34/37/21
f 31/38/21 34/37/21 32/39/22
f 36/41/23 39/55/23 41/42/24
f 37/43/24 41/42/24 40/44/25
f 38/45/25 40/44/25 19/46/26
f 61/48/26 47/51/25 43/49/25
f 47/51/25 46/53/29 44/52/29
f 46/53/29 45/59/30 42/54/30
f 22/33/18 25/32/18 39/55/23
f 28/36/19 42/54/30 45/59/30
f 27/62/34 18/10/34 25/60/34
f 18/10/34 12/6/34 72/198/34
f 12/6/34 15/8/34 68/199/34
f 68/199/34 69/200/34 12/6/34
f 69/200/34 70/201/34 12/6/34
f 70/201/34 71/202/34 12/6/34
f 71/202/34 72/198/34 12/6/34
f 72/198/34 73/87/34 18/10/34
f 73/87/34 19/46/34 18/10/34
f 18/10/34 19/46/34 25/60/34
f 19/46/34 40/203/34 41/204/34
f 41/204/34 39/205/34 19/46/34
f 39/205/34 25/60/34 19/46/34
f 55/64/35 9/14/35 21/16/35
f 21/16/35 23/206/35 24/207/35
f 24/207/35 22/208/35 21/16/35
f 22/208/35 36/209/35 21/16/35
f 36/209/35 37/210/35 38/211/35
f 38/211/35 54/47/35 36/209/35
f 54/47/35 56/88/35 21/16/35
f 36/209/35 54/47/35 21/16/35
f 56/88/35 57/212/35 21/16/35
f 57/212/35 58/213/35 21/16/35
f 58/213/35 59/214/35 21/16/35
f 59/214/35 60/63/35 21/16/35
f 61/48/26 20/50/28 53/65/36
f 63/66/36 53/65/36 52/67/37
f 64/68/37 52/67/37 51/69/38
f 65/70/38 51/69/38 50/71/39
f 66/72/39 50/71/39 49/73/40
f 67/74/40 49/73/40 48/75/41
f 55/77/42 60/80/43 69/78/43
f 60/80/43 59/82/44 70/81/44
f 59/82/44 58/84/45 71/83/45
f 58/84/45 57/86/37 72/85/37
f 57/86/37 56/88/36 73/87/36
f 56/88/36 54/47/27 19/46/26
f 8/89/46 14/215/46 62/76/41
f 9/90/47 55/77/42 68/79/42
f 104/116/60 108/155/60 110/117/61
f 105/118/61 110/117/61 109/119/62
f 109/119/62 107/135/63 83/121/63
f 97/122/63 87/136/63 103/123/64
f 99/124/64 103/123/64 102/125/65
f 100/126/66 102/125/65 101/127/67
f 84/129/68 86/132/69 95/130/69
f 86/132/69 85/134/64 96/133/64
f 85/134/64 83/121/63 107/135/63
f 87/136/63 97/122/63 93/137/62
f 89/138/62 93/137/62 92/139/61
f 92/139/61 91/145/60 88/141/60
f 80/97/70 84/129/70 94/131/70
f 84/143/35 80/216/35 6/98/35
f 6/98/35 74/100/35 104/217/35
f 74/100/35 76/218/35 104/217/35
f 6/98/35 104/217/35 84/143/35
f 104/217/35 105/144/35 84/143/35
f 105/144/35 106/219/35 86/142/35
f 106/219/35 83/220/35 86/142/35
f 83/220/35 85/221/35 86/142/35
f 77/106/71 88/141/71 91/145/71
f 77/222/34 7/108/34 88/148/34
f 7/108/34 75/107/34 88/148/34
f 75/107/34 82/223/34 101/146/34
f 101/146/34 102/224/34 103/147/34
f 103/147/34 87/225/34 89/226/34
f 89/226/34 90/227/34 103/147/34
f 90/227/34 88/148/34 103/147/34
f 75/107/34 101/146/34 88/148/34
f 98/228/35 81/103/35 78/102/35
f 78/102/35 91/229/35 98/228/35
f 91/229/35 92/149/35 100/151/35
f 92/149/35 93/230/35 97/150/35
f 97/150/35 99/231/35 100/151/35
f 100/151/35 98/228/35 91/229/35
f 108/232/34 5/94/34 79/93/34
f 79/93/34 94/233/34 108/232/34
f 94/233/34 95/152/34 110/154/34
f 95/152/34 96/234/34 107/153/34
f 107/153/34 109/235/34 110/154/34
f 110/154/34 108/232/34 94/233/34
f 82/115/72 81/114/72 98/128/72
f 76/112/71 5/111/71 108/155/71
f 111/158/35 115/236/13 119/159/75
f 16/20/11 112/194/35 118/163/76
f 62/165/35 14/3/35 13/2/35
f 13/2/35 32/5/35 64/237/35
f 32/5/35 34/238/35 33/239/35
f 64/237/35 32/5/35 63/66/35
f 34/238/35 35/240/35 33/239/35
f 33/239/35 45/241/35 61/48/35
f 45/241/35 46/242/35 61/48/35
f 46/242/35 47/243/35 61/48/35
f 61/48/35 63/66/35 32/5/35
f 61/48/35 32/5/35 33/239/35
f 64/237/35 65/244/35 13/2/35
f 65/244/35 66/245/35 13/2/35
f 66/245/35 67/164/35 13/2/35
f 122/58/33 2/168/59 118/163/76
f 2/168/59 11/13/5 118/163/76
f 31/246/34 29/12/34 30/247/34
f 29/12/34 8/11/34 48/248/34
f 51/249/34 29/12/34 50/250/34
f 48/248/34 49/251/34 29/12/34
f 49/251/34 50/250/34 29/12/34
f 51/249/34 52/252/34 29/12/34
f 52/252/34 53/65/34 29/12/34
f 53/65/34 20/50/34 29/12/34
f 20/50/34 43/253/34 42/166/34
f 43/253/34 44/254/34 42/166/34
f 42/166/34 28/255/34 29/12/34
f 28/255/34 30/247/34 29/12/34
f 113/170/63 116/256/71 115/171/71
f 118/173/77 117/179/77 113/174/63
f 113/176/34 117/26/14 121/177/73
f 118/173/77 112/180/78 114/178/78
f 115/171/71 116/256/71 114/178/78
f 17/17/9 114/195/34 116/181/79
f 21/16/8 10/15/7 117/26/14
f 10/15/7 3/182/53 117/26/14
f 3/182/53 10/15/7 116/183/79
f 10/15/7 9/257/6 116/183/79
f 113/176/34 4/160/48 120/162/74
f 115/188/13 8/258/3 11/13/5
f 11/13/5 2/168/59 115/188/13
f 111/158/35 1/56/31 122/58/33
