# Blender 5.0.1
# www.blender.org
mtllib sidepan_pivot.mtl
g sidepan_pivot
o SidepanPivotHorizontalExport
v 0.000000 -0.125000 -0.040000
v 0.000000 0.039706 -0.040000
v 0.028284 -0.125000 -0.028284
v 0.028284 0.039706 -0.028284
v 0.040000 -0.125000 0.000000
v 0.040000 0.039706 0.000000
v 0.028284 -0.125000 0.028284
v 0.028284 0.039706 0.028284
v 0.000000 -0.125000 0.040000
v 0.000000 0.039706 0.040000
v -0.028284 -0.125000 0.028284
v -0.028284 0.039706 0.028284
v -0.040000 -0.125000 0.000000
v -0.040000 0.039706 0.000000
v -0.028284 -0.125000 -0.028284
v -0.028284 0.039706 -0.028284
v 0.040000 0.053033 -0.039999
v 0.040000 0.053033 0.040001
v -0.040000 0.053033 0.040003
v -0.040000 0.053033 -0.039997
v 0.071034 0.053033 -0.076034
v -0.071034 0.083033 0.076038
v 0.071034 0.053033 0.076035
v -0.071034 0.053033 0.076038
v 0.071034 0.083033 0.076035
v -0.071034 0.053033 -0.076030
v -0.071034 0.083033 -0.076027
v 0.071034 0.083033 -0.076030
v -0.051030 0.083033 0.076040
v 0.051034 0.083033 0.076036
v -0.051030 0.083033 -0.076025
v 0.051034 0.083033 -0.076029
v 0.051035 0.060180 0.127682
v -0.051030 0.044805 0.127684
v 0.051034 0.044805 0.127681
v -0.051029 0.060180 0.127685
v 0.051032 0.045362 -0.122650
v -0.051032 0.045362 -0.122646
v 0.051033 0.060006 -0.122645
v -0.051031 0.060006 -0.122641
v -0.071034 0.209079 -0.046027
v -0.071034 0.179079 -0.076027
v -0.071034 0.205060 -0.061027
v -0.071034 0.194079 -0.072007
v -0.071034 0.179079 0.076038
v -0.071034 0.209079 0.046038
v -0.071034 0.194079 0.072019
v -0.071034 0.205060 0.061038
v 0.051034 0.179079 0.076036
v 0.051034 0.209079 0.046036
v 0.051034 0.194079 0.072017
v 0.051034 0.205060 0.061036
v 0.071034 0.209079 0.046035
v 0.071034 0.179079 0.076035
v 0.071034 0.205060 0.061035
v 0.071034 0.194079 0.072016
v 0.071034 0.179079 -0.076030
v 0.071034 0.209079 -0.046030
v 0.071034 0.194079 -0.072011
v 0.071034 0.205060 -0.061030
v 0.051034 0.209079 -0.046029
v 0.051034 0.179079 -0.076029
v 0.051034 0.205060 -0.061029
v 0.051034 0.194079 -0.072010
v -0.051030 0.209079 0.046040
v -0.051030 0.179079 0.076040
v -0.051030 0.205060 0.061040
v -0.051030 0.194079 0.072020
v -0.051030 0.179079 -0.076025
v -0.051030 0.209079 -0.046025
v -0.051030 0.194079 -0.072006
v -0.051030 0.205060 -0.061025
vn -0.0000 -0.0000 -1.0000
vn 0.7071 -0.0000 -0.7071
vn 1.0000 -0.0000 -0.0000
vn 0.7071 -0.0000 0.7071
vn -0.0000 -0.0000 1.0000
vn -0.7071 -0.0000 0.7071
vn -1.0000 -0.0000 -0.0000
vn 0.5429 -0.6408 -0.5429
vn 0.4432 -0.7792 -0.4432
vn -0.0000 -0.2367 -0.9716
vn -0.7071 -0.0000 -0.7071
vn 0.5428 -0.6408 0.5428
vn 0.4432 -0.7792 0.4432
vn 0.9715 -0.2368 -0.0000
vn -0.9716 -0.2368 -0.0000
vn -0.4432 -0.7793 0.4431
vn -0.5428 -0.6409 0.5428
vn -0.0000 -0.2370 0.9715
vn -0.5429 -0.6408 -0.5429
vn -0.4432 -0.7792 -0.4432
vn -0.0000 -1.0000 -0.0000
vn -0.0000 0.9145 0.4047
vn -0.0000 1.0000 -0.0000
vn -0.0000 -0.0001 1.0000
vn -0.0000 -0.9875 -0.1573
vn 0.9325 -0.0000 0.3611
vn 0.9325 -0.0001 0.3611
vn -0.9325 -0.0000 0.3612
vn -0.0000 0.0003 -1.0000
vn -0.0000 -0.9867 0.1624
vn -0.0000 0.8966 -0.4429
vn 0.9190 -0.0000 -0.3943
vn 0.9190 0.0001 -0.3943
vn -0.9190 0.0001 -0.3944
vn -0.9190 0.0002 -0.3943
vn 0.0001 0.1305 0.9914
vn 0.0001 0.5000 0.8660
vn -0.0000 0.8660 0.5000
vn -0.0000 0.9914 0.1305
vn -0.0000 0.9914 -0.1305
vn -0.0000 0.8660 -0.5000
vn -0.0001 0.5000 -0.8660
vn -0.0001 0.1305 -0.9914
vn -0.0001 0.1305 0.9914
vn -0.0001 0.5000 0.8660
vn 0.0001 0.5000 -0.8660
vn 0.0001 0.1305 -0.9914
vn 0.0001 -0.0000 -1.0000
vn -0.0001 -0.0000 1.0000
vn 0.0001 -0.0000 1.0000
vn -0.0001 -0.0000 -1.0000
vn -0.9190 -0.0000 -0.3944
vt 0.145465 0.593143
vt 0.171982 0.588214
vt 0.171982 0.593143
vt 0.145465 0.627645
vt 0.171982 0.622716
vt 0.171982 0.627645
vt 0.145465 0.622716
vt 0.171982 0.617787
vt 0.145465 0.617787
vt 0.171982 0.612858
vt 0.145465 0.612858
vt 0.171982 0.607930
vt 0.145465 0.607930
vt 0.171982 0.603001
vt 0.958332 0.287704
vt 0.959923 0.284673
vt 0.964772 0.285559
vt 0.145465 0.603001
vt 0.171982 0.598072
vt 0.145465 0.598072
vt 0.958332 0.265642
vt 0.959923 0.262611
vt 0.964772 0.263496
vt 0.964771 0.252466
vt 0.969620 0.251580
vt 0.971211 0.254611
vt 0.964772 0.274528
vt 0.969620 0.273642
vt 0.971211 0.276673
vt 0.958332 0.254611
vt 0.959923 0.251580
vt 0.969620 0.262611
vt 0.971211 0.265642
vt 0.958332 0.276673
vt 0.959923 0.273642
vt 0.307588 0.780461
vt 0.312584 0.774660
vt 0.312583 0.799142
vt 0.309363 0.819129
vt 0.292932 0.819129
vt 0.292932 0.810037
vt 0.294708 0.793341
vt 0.289712 0.774660
vt 0.294708 0.780461
vt 0.377651 0.774664
vt 0.361218 0.799144
vt 0.361219 0.774663
vt 0.969620 0.284673
vt 0.971211 0.287704
vt 0.309363 0.807562
vt 0.292932 0.807562
vt 0.289711 0.799142
vt 0.313734 0.808059
vt 0.311258 0.808058
vt 0.288560 0.808059
vt 0.284881 0.799142
vt 0.309364 0.767054
vt 0.292933 0.764697
vt 0.309364 0.764697
vt 0.292933 0.767054
vt 0.289712 0.756326
vt 0.292933 0.756326
vt 0.313707 0.766494
vt 0.317414 0.774661
vt 0.288590 0.766494
vt 0.290947 0.766493
vt 0.337705 0.801814
vt 0.340925 0.799314
vt 0.340925 0.801814
vt 0.337706 0.799313
vt 0.340926 0.796814
vt 0.337706 0.796813
vt 0.340926 0.794314
vt 0.337706 0.779491
vt 0.340926 0.776992
vt 0.340926 0.779492
vt 0.337706 0.776991
vt 0.340926 0.774492
vt 0.337707 0.774491
vt 0.340927 0.771991
vt 0.264589 0.801812
vt 0.261368 0.799312
vt 0.264589 0.799311
vt 0.261368 0.796811
vt 0.264589 0.796811
vt 0.261369 0.794311
vt 0.264589 0.794311
vt 0.264590 0.779489
vt 0.261369 0.776989
vt 0.264590 0.776989
vt 0.261369 0.774489
vt 0.264590 0.774489
vt 0.261369 0.771989
vt 0.264590 0.771989
vt 0.261369 0.779489
vt 0.241077 0.771438
vt 0.256539 0.774659
vt 0.241077 0.774659
vt 0.269419 0.799141
vt 0.269420 0.774660
vt 0.241076 0.799140
vt 0.256538 0.802361
vt 0.241076 0.802361
vt 0.361218 0.802364
vt 0.345755 0.799144
vt 0.337706 0.794313
vt 0.341573 0.777077
vt 0.343341 0.775309
vt 0.345756 0.774662
vt 0.332877 0.774661
vt 0.332876 0.799143
vt 0.345756 0.771442
vt 0.361219 0.771443
vt 0.260721 0.796726
vt 0.258954 0.798494
vt 0.256539 0.799141
vt 0.145465 0.588214
vt 0.307587 0.793341
vt 0.289711 0.819129
vt 0.309363 0.810037
vt 0.312583 0.819129
vt 0.377650 0.799145
vt 0.317413 0.799142
vt 0.291036 0.808059
vt 0.309364 0.756326
vt 0.312584 0.756326
vt 0.311350 0.766493
vt 0.284882 0.774660
vt 0.337707 0.771991
vt 0.261368 0.801812
vt 0.256540 0.771439
vt 0.267004 0.798494
vt 0.265236 0.796726
vt 0.265237 0.777075
vt 0.267005 0.775307
vt 0.345755 0.802363
vt 0.343340 0.798496
vt 0.341573 0.796729
vt 0.335292 0.775309
vt 0.337059 0.777076
vt 0.337059 0.796728
vt 0.335291 0.798496
vt 0.258954 0.775307
vt 0.260722 0.777075
s 1
usemtl MovingParts
f 2/1/1 3/2/2 1/3/1
f 4/4/2 5/5/3 3/6/2
f 6/7/3 7/8/4 5/5/3
f 8/9/4 9/10/5 7/8/4
f 10/11/5 11/12/6 9/10/5
f 12/13/6 13/14/7 11/12/6
f 17/15/8 4/16/9 2/17/10
f 14/18/7 15/19/11 13/14/7
f 16/20/11 1/3/1 15/19/11
f 18/21/12 8/22/13 6/23/14
f 14/24/15 12/25/16 19/26/17
f 10/27/18 8/28/13 18/29/12
f 20/30/19 16/31/20 14/24/15
f 6/23/14 4/32/9 17/33/8
f 19/34/17 12/35/16 10/27/18
f 17/36/21 21/37/21 23/38/21
f 30/39/22 29/40/22 36/41/22
f 6/23/14 17/33/8 18/21/12
f 19/42/21 26/43/21 20/44/21
f 31/45/23 30/46/23 32/47/23
f 18/29/12 19/34/17 10/27/18
f 19/26/17 20/30/19 14/24/15
f 2/17/10 16/48/20 20/49/19
f 35/50/24 36/41/24 34/51/24
f 23/38/25 34/51/25 24/52/25
f 23/38/26 33/53/27 35/54/27
f 17/15/8 2/17/10 20/49/19
f 24/52/28 36/55/28 22/56/28
f 37/57/29 40/58/29 39/59/29
f 21/37/30 38/60/30 37/57/30
f 40/58/31 27/61/31 31/62/31
f 21/37/32 39/63/33 28/64/32
f 26/43/34 40/65/35 38/66/35
f 54/67/36 51/68/37 49/69/36
f 56/70/37 52/71/38 51/68/37
f 55/72/38 50/73/39 52/71/38
f 58/74/40 63/75/41 61/76/40
f 60/77/41 64/78/42 63/75/41
f 59/79/42 62/80/43 64/78/42
f 45/81/44 68/82/45 47/83/45
f 47/83/45 67/84/38 48/85/38
f 48/85/38 65/86/39 46/87/39
f 41/88/40 72/89/41 43/90/41
f 43/90/41 71/91/46 44/92/46
f 44/92/46 69/93/47 42/94/47
f 70/95/40 46/87/39 65/86/39
f 27/96/48 69/97/47 31/98/48
f 45/99/7 46/87/7 42/100/7
f 29/101/49 45/102/44 22/103/49
f 25/104/50 49/105/36 30/46/50
f 61/76/40 53/106/39 58/74/40
f 63/107/7 64/108/7 62/109/7
f 57/110/3 58/74/3 54/111/3
f 32/47/51 57/112/43 28/113/51
f 67/114/3 68/115/3 66/116/3
f 2/1/1 4/117/2 3/2/2
f 4/4/2 6/7/3 5/5/3
f 6/7/3 8/9/4 7/8/4
f 8/9/4 10/11/5 9/10/5
f 10/11/5 12/13/6 11/12/6
f 12/13/6 14/18/7 13/14/7
f 14/18/7 16/20/11 15/19/11
f 16/20/11 2/1/1 1/3/1
f 17/36/21 20/44/21 26/43/21
f 23/38/21 24/52/21 19/42/21
f 23/38/21 19/42/21 18/118/21
f 17/36/21 26/43/21 21/37/21
f 23/38/21 18/118/21 17/36/21
f 29/40/22 22/119/22 36/41/22
f 36/41/22 33/120/22 30/39/22
f 33/120/22 25/121/22 30/39/22
f 19/42/21 24/52/21 26/43/21
f 31/45/23 29/122/23 30/46/23
f 35/50/24 33/120/24 36/41/24
f 23/38/25 35/50/25 34/51/25
f 23/38/26 25/123/26 33/53/27
f 24/52/28 34/124/28 36/55/28
f 37/57/29 38/60/29 40/58/29
f 21/37/30 26/43/30 38/60/30
f 31/62/31 32/125/31 40/58/31
f 32/125/31 28/126/31 39/59/31
f 40/58/31 32/125/31 39/59/31
f 21/37/32 37/127/33 39/63/33
f 26/43/34 27/128/52 40/65/35
f 54/67/36 56/70/37 51/68/37
f 56/70/37 55/72/38 52/71/38
f 55/72/38 53/106/39 50/73/39
f 58/74/40 60/77/41 63/75/41
f 60/77/41 59/79/42 64/78/42
f 59/79/42 57/129/43 62/80/43
f 45/81/44 66/130/44 68/82/45
f 47/83/45 68/82/45 67/84/38
f 48/85/38 67/84/38 65/86/39
f 41/88/40 70/95/40 72/89/41
f 43/90/41 72/89/41 71/91/46
f 44/92/46 71/91/46 69/93/47
f 70/95/40 41/88/40 46/87/39
f 27/96/48 42/131/47 69/97/47
f 22/56/7 45/99/7 42/100/7
f 45/99/7 47/132/7 46/87/7
f 47/132/7 48/133/7 46/87/7
f 46/87/7 41/88/7 42/100/7
f 41/88/7 43/134/7 42/100/7
f 43/134/7 44/135/7 42/100/7
f 27/128/7 26/43/7 24/52/7
f 42/100/7 27/128/7 22/56/7
f 24/52/7 22/56/7 27/128/7
f 29/101/49 66/116/44 45/102/44
f 25/104/50 54/136/36 49/105/36
f 61/76/40 50/73/39 53/106/39
f 62/109/7 32/47/7 30/46/7
f 30/46/7 49/105/7 62/109/7
f 49/105/7 51/137/7 50/73/7
f 62/109/7 49/105/7 50/73/7
f 51/137/7 52/138/7 50/73/7
f 50/73/7 61/76/7 62/109/7
f 61/76/7 63/107/7 62/109/7
f 28/64/3 57/110/3 54/111/3
f 57/110/3 59/139/3 58/74/3
f 59/139/3 60/140/3 58/74/3
f 58/74/3 53/106/3 54/111/3
f 53/106/3 55/141/3 54/111/3
f 55/141/3 56/142/3 54/111/3
f 25/123/3 23/38/3 21/37/3
f 54/111/3 25/123/3 28/64/3
f 21/37/3 28/64/3 25/123/3
f 32/47/51 62/109/43 57/112/43
f 66/116/3 29/101/3 31/98/3
f 31/98/3 69/97/3 66/116/3
f 69/97/3 71/143/3 70/95/3
f 66/116/3 69/97/3 70/95/3
f 71/143/3 72/144/3 70/95/3
f 70/95/3 65/86/3 66/116/3
f 65/86/3 67/114/3 66/116/3
