# Blender 5.0.1
# www.blender.org
mtllib sidepan.mtl
o SidepanExport
g sidepan
v 0.000002 0.044998 0.748185
v 0.000002 -0.045002 0.748185
v -0.044998 -0.000002 0.748185
v 0.000000 0.044999 -0.137063
v 0.045000 0.000000 -0.137063
v 0.000000 -0.045000 -0.137063
v -0.045000 0.000000 -0.137063
v 0.045000 0.044998 -0.137063
v 0.045000 -0.045002 -0.137063
v -0.045000 -0.045002 -0.137064
v -0.045000 0.044998 -0.137064
v 0.010001 -0.045002 -0.270805
v 0.045001 -0.045002 -0.235805
v 0.027501 -0.045002 -0.266116
v 0.040312 -0.045002 -0.253305
v 0.045001 0.044998 -0.235805
v 0.010001 0.044998 -0.270805
v 0.040312 0.044998 -0.253305
v 0.027501 0.044998 -0.266116
v -0.044999 -0.045002 -0.235806
v -0.009999 -0.045002 -0.270805
v -0.040310 -0.045002 -0.253306
v -0.027499 -0.045002 -0.266116
v -0.009999 0.044998 -0.270805
v -0.044999 0.044998 -0.235806
v -0.027499 0.044998 -0.266116
v -0.040310 0.044998 -0.253306
v 0.045002 -0.000002 0.748185
v 0.015045 0.044998 0.853314
v -0.015037 -0.000005 0.853314
v -0.015037 0.044998 0.853314
v -0.044996 -0.045002 0.748185
v -0.044996 0.044998 0.748185
v 0.045004 0.044998 0.748185
v 0.045004 -0.045002 0.748185
v -0.044996 -0.045002 0.853314
v 0.045004 -0.045002 0.853314
v 0.015045 -0.000005 0.853314
v 0.045004 0.260073 1.957744
v 0.015045 0.303477 1.945873
v 0.015045 0.346885 1.934000
v -0.015037 0.346885 1.934000
v -0.015037 0.303477 1.945873
v -0.044996 0.260073 1.957744
vn -0.0000 1.0000 -0.0000
vn 1.0000 -0.0000 -0.0000
vn -0.0000 -1.0000 -0.0000
vn -1.0000 -0.0000 -0.0000
vn -0.0000 -0.0000 1.0000
vn -0.9914 -0.0000 -0.1305
vn -0.8660 -0.0000 -0.5000
vn -0.5000 -0.0000 -0.8660
vn -0.1305 -0.0000 -0.9914
vn 0.9914 -0.0000 -0.1305
vn 0.8660 -0.0000 -0.5000
vn 0.5000 -0.0000 -0.8660
vn 0.1305 -0.0000 -0.9914
vn -0.0000 -0.0000 -1.0000
vn -0.9617 -0.0000 0.2741
vn 0.9617 -0.0000 0.2741
vn 0.9617 -0.0000 0.2740
vn -0.8099 0.5392 0.2308
vn -0.0000 0.2638 0.9646
vn 0.8231 0.5474 -0.1512
vn 0.8321 0.5344 -0.1484
vn 0.8228 0.5478 -0.1513
vn -0.8231 0.5474 -0.1512
vn -0.8321 0.5344 -0.1484
vn -0.8324 0.5340 -0.1483
vn 0.8099 0.5392 0.2308
vn -0.0000 0.9631 -0.2690
vn -0.0000 -0.9639 0.2663
vn -0.0001 -1.0000 -0.0000
vn 0.0001 -1.0000 -0.0000
vn 0.8324 0.5340 -0.1483
vn -0.8228 0.5478 -0.1513
vt 0.416233 0.787215
vt 0.406045 0.645495
vt 0.416233 0.645495
vt 0.446798 0.787215
vt 0.436610 0.645495
vt 0.446798 0.645495
vt 0.426422 0.787215
vt 0.426421 0.645495
vt 0.415439 0.582552
vt 0.405268 0.583145
vt 0.410057 0.577763
vt 0.405861 0.593316
vt 0.416032 0.592723
vt 0.411244 0.598105
vt 0.400480 0.588527
vt 0.420821 0.587341
vt 0.420565 0.565954
vt 0.433257 0.573364
vt 0.431329 0.575531
vt 0.424421 0.561620
vt 0.435185 0.571197
vt 0.437113 0.569030
vt 0.445025 0.560138
vt 0.432333 0.552727
vt 0.434261 0.550560
vt 0.443097 0.562304
vt 0.430405 0.554894
vt 0.441169 0.564471
vt 0.428477 0.557061
vt 0.439241 0.566638
vt 0.426348 0.559453
vt 0.389972 0.600337
vt 0.400736 0.609915
vt 0.428541 0.609746
vt 0.425646 0.609915
vt 0.423054 0.608613
vt 0.392760 0.566123
vt 0.395656 0.565954
vt 0.398248 0.567256
vt 0.126001 0.335098
vt 0.133205 0.327894
vt 0.133205 0.335098
vt 0.772824 0.445164
vt 0.780028 0.437960
vt 0.780028 0.445164
vt 0.126000 0.320690
vt 0.133204 0.320690
vt 0.765620 0.437960
vt 0.765620 0.445164
vt 0.749807 0.462018
vt 0.694283 0.632964
vt 0.687513 0.630502
vt 0.787232 0.445164
vt 0.780028 0.461994
vt 0.758416 0.445164
vt 0.751236 0.444576
vt 0.795841 0.462017
vt 0.788661 0.462606
vt 0.765620 0.461994
vt 0.756987 0.462606
vt 0.336871 0.330294
vt 0.329667 0.325479
vt 0.336871 0.325478
vt 0.474951 0.332548
vt 0.466512 0.514060
vt 0.466512 0.330630
vt 0.150035 0.325486
vt 0.150035 0.330302
vt 0.443664 0.332548
vt 0.452104 0.514060
vt 0.443449 0.514079
vt 0.851365 0.632964
vt 0.329667 0.330295
vt 0.452103 0.330630
vt 0.461716 0.521264
vt 0.456900 0.521264
vt 0.406045 0.787215
vt 0.436610 0.787215
vt 0.422493 0.563787
vt 0.432631 0.597849
vt 0.434225 0.600272
vt 0.433093 0.605759
vt 0.434394 0.603167
vt 0.430964 0.608152
vt 0.388670 0.578020
vt 0.387076 0.575596
vt 0.388209 0.570109
vt 0.386907 0.572701
vt 0.390337 0.567717
vt 0.794412 0.444575
vt 0.475166 0.514079
vt 0.858136 0.630502
s 1
usemtl MovingParts
f 1/1/1 5/2/2 4/3/1
f 28/4/2 6/5/3 5/6/2
f 6/5/3 3/7/4 7/8/4
f 3/7/4 4/3/1 7/8/4
f 7/9/5 4/10/5 11/11/5
f 5/12/5 6/13/5 9/14/5
f 4/10/5 5/12/5 8/15/5
f 6/13/5 7/9/5 10/16/5
f 25/17/6 22/18/7 20/19/6
f 22/18/7 26/20/8 23/21/8
f 26/20/8 21/22/9 23/21/8
f 13/23/10 18/24/11 16/25/10
f 15/26/11 19/27/12 18/24/11
f 14/28/12 17/29/13 19/27/12
f 12/30/13 24/31/9 17/29/13
f 16/32/10 5/12/2 13/33/10
f 14/34/3 15/35/3 13/36/3
f 26/37/1 27/38/1 25/39/1
f 20/19/6 7/9/4 25/17/6
f 28/40/14 1/41/14 34/42/14
f 2/43/14 28/44/14 35/45/14
f 1/41/14 3/46/14 33/47/14
f 3/48/14 2/43/14 32/49/14
f 31/50/4 43/51/4 42/52/4
f 28/53/2 37/54/2 35/45/2
f 3/55/15 31/50/15 33/56/15
f 28/53/16 29/57/17 38/58/17
f 3/55/18 36/59/18 30/60/18
f 40/61/19 42/62/19 43/63/19
f 38/64/20 39/65/21 37/66/22
f 1/41/1 31/67/1 29/68/1
f 36/59/3 32/49/3 2/43/3
f 30/69/23 44/70/24 43/71/25
f 29/57/2 40/72/2 38/58/2
f 28/53/26 38/58/26 37/54/26
f 3/55/4 32/49/4 36/59/4
f 31/67/27 41/73/27 29/68/27
f 37/66/28 44/70/28 36/74/28
f 44/70/19 40/75/19 43/76/19
f 1/1/1 28/77/2 5/2/2
f 28/4/2 2/78/3 6/5/3
f 6/5/3 2/78/3 3/7/4
f 3/7/4 1/1/1 4/3/1
f 25/17/6 27/79/7 22/18/7
f 22/18/7 27/79/7 26/20/8
f 26/20/8 24/31/9 21/22/9
f 13/23/10 15/26/11 18/24/11
f 15/26/11 14/28/12 19/27/12
f 14/28/12 12/30/13 17/29/13
f 12/30/13 21/22/9 24/31/9
f 8/15/2 5/12/2 16/32/10
f 5/12/2 9/14/2 13/33/10
f 9/14/29 6/13/3 13/36/3
f 6/13/3 10/16/30 20/80/3
f 13/36/3 6/13/3 20/80/3
f 20/80/3 22/81/3 21/82/3
f 13/36/3 20/80/3 21/82/3
f 22/81/3 23/83/3 21/82/3
f 21/82/3 12/84/3 13/36/3
f 12/84/3 14/34/3 13/36/3
f 11/11/1 4/10/1 25/39/1
f 4/10/1 8/15/1 16/85/1
f 25/39/1 4/10/1 16/85/1
f 16/85/1 18/86/1 17/87/1
f 25/39/1 16/85/1 17/87/1
f 18/86/1 19/88/1 17/87/1
f 17/87/1 24/89/1 25/39/1
f 24/89/1 26/37/1 25/39/1
f 10/16/4 7/9/4 20/19/6
f 7/9/4 11/11/4 25/17/6
f 31/50/4 30/60/4 43/51/4
f 3/55/15 30/60/15 31/50/15
f 28/53/16 34/90/16 29/57/17
f 40/61/19 41/73/19 42/62/19
f 38/64/20 40/91/31 39/65/21
f 29/68/1 34/42/1 1/41/1
f 1/41/1 33/47/1 31/67/1
f 2/43/3 35/45/3 37/54/3
f 37/54/3 36/59/3 2/43/3
f 30/69/23 36/74/32 44/70/24
f 29/57/2 41/92/2 40/72/2
f 31/67/27 42/62/27 41/73/27
f 37/66/28 39/65/28 44/70/28
f 44/70/19 39/65/19 40/75/19
